<?xml version="1.0" encoding="UTF-8"?>
<svg xmlns="http://www.w3.org/2000/svg" xmlns:xlink="http://www.w3.org/1999/xlink" width="98pt" height="98pt" viewBox="0 0 98 98" version="1.1">
<g id="surface1">
<path style="fill:none;stroke-width:0.3985;stroke-linecap:butt;stroke-linejoin:miter;stroke:rgb(0%,0%,0%);stroke-opacity:1;stroke-miterlimit:10;" d="M 48.188281 -0.00140625 C 48.188281 26.615781 26.614063 48.19 0.00078125 48.19 C -26.616406 48.19 -48.190625 26.615781 -48.190625 -0.00140625 C -48.190625 -26.614688 -26.616406 -48.188906 0.00078125 -48.188906 C 26.614063 -48.188906 48.188281 -26.614688 48.188281 -0.00140625 Z M 48.188281 -0.00140625 " transform="matrix(1,0,0,-1,48.8,49.19)"/>
<path style="fill:none;stroke-width:0.3985;stroke-linecap:butt;stroke-linejoin:miter;stroke:rgb(50%,50%,50%);stroke-opacity:1;stroke-miterlimit:10;" d="M 34.071094 34.068906 L -34.069531 -34.067813 " transform="matrix(1,0,0,-1,48.8,49.19)"/>
<path style="fill:none;stroke-width:0.3985;stroke-linecap:butt;stroke-linejoin:miter;stroke:rgb(50%,50%,50%);stroke-opacity:1;stroke-miterlimit:10;" d="M 34.071094 -34.067813 L -34.069531 34.068906 " transform="matrix(1,0,0,-1,48.8,49.19)"/>
<path style="fill:none;stroke-width:0.3985;stroke-linecap:butt;stroke-linejoin:miter;stroke:rgb(50%,50%,50%);stroke-opacity:1;stroke-miterlimit:10;" d="M -48.190625 -0.00140625 L 48.188281 -0.00140625 " transform="matrix(1,0,0,-1,48.8,49.19)"/>
<path style="fill:none;stroke-width:0.3985;stroke-linecap:butt;stroke-linejoin:miter;stroke:rgb(50%,50%,50%);stroke-opacity:1;stroke-miterlimit:10;" d="M 0.00078125 -48.188906 L 0.00078125 48.19 " transform="matrix(1,0,0,-1,48.8,49.19)"/>
</g>
</svg>
