<?xml version="1.0" encoding="UTF-8"?>
<svg xmlns="http://www.w3.org/2000/svg" xmlns:xlink="http://www.w3.org/1999/xlink" width="93pt" height="93pt" viewBox="0 0 93 93" version="1.1">
<g id="surface1">
<path style="fill:none;stroke-width:0.3985;stroke-linecap:butt;stroke-linejoin:miter;stroke:rgb(0%,0%,0%);stroke-opacity:1;stroke-miterlimit:10;" d="M -45.356897 -0.00131528 L 44.358582 -0.00131528 " transform="matrix(1.00008,0,0,-1.00003,46.454276,46.154935)"/>
<path style="fill-rule:nonzero;fill:rgb(0%,0%,0%);fill-opacity:1;stroke-width:0.3985;stroke-linecap:butt;stroke-linejoin:round;stroke:rgb(0%,0%,0%);stroke-opacity:1;stroke-miterlimit:10;" d="M 0.796593 -0.00131528 C -0.199421 0.197897 -1.195435 0.596323 -2.390652 1.295521 C -1.195435 0.39711 -1.195435 -0.399741 -2.390652 -1.294245 C -1.195435 -0.598954 -0.199421 -0.200528 0.796593 -0.00131528 Z M 0.796593 -0.00131528 " transform="matrix(1.00008,0,0,-1.00003,90.816625,46.154935)"/>
<path style="fill:none;stroke-width:0.3985;stroke-linecap:butt;stroke-linejoin:miter;stroke:rgb(50%,50%,50%);stroke-opacity:1;stroke-miterlimit:10;" d="M -0.00115091 -45.355423 L -0.00115091 45.356699 " transform="matrix(1.00008,0,0,-1.00003,46.454276,46.154935)"/>
<path style="fill:none;stroke-width:1.19553;stroke-linecap:butt;stroke-linejoin:miter;stroke:rgb(100%,0%,0%);stroke-opacity:1;stroke-miterlimit:10;" d="M -0.00115091 -0.00131528 C -0.00115091 -0.00131528 4.361781 -4.200408 5.455444 -5.192566 C 6.549106 -6.184724 7.275611 -6.688615 7.888843 -7.149538 C 8.502075 -7.610462 9.349664 -8.180757 9.865247 -8.508873 C 10.380831 -8.840894 11.146395 -9.278381 11.611201 -9.528373 C 12.076008 -9.782272 12.786889 -10.122105 13.216542 -10.313506 C 13.650101 -10.508813 14.31411 -10.770523 14.720328 -10.91505 C 15.126545 -11.063483 15.755401 -11.25879 16.142089 -11.368162 C 16.524871 -11.473627 17.126385 -11.614248 17.493543 -11.688465 C 17.860701 -11.762681 18.43878 -11.852522 18.790315 -11.899396 C 19.141849 -11.942363 19.692586 -11.989237 20.032403 -12.004861 C 20.368313 -12.024392 20.895615 -12.028298 21.219808 -12.020486 C 21.544 -12.012674 22.047866 -11.981425 22.360341 -11.950176 C 22.66891 -11.918927 23.153247 -11.852522 23.450098 -11.801743 C 23.743043 -11.750963 24.20785 -11.653309 24.489077 -11.582999 C 24.770305 -11.512689 25.215582 -11.383786 25.481186 -11.293945 C 25.750695 -11.20801 26.172536 -11.051765 26.426422 -10.946299 C 26.680308 -10.840834 27.074808 -10.657246 27.316976 -10.536155 C 27.555238 -10.415065 27.930208 -10.20804 28.156753 -10.075232 C 28.383297 -9.938517 28.734831 -9.711961 28.945752 -9.563528 C 29.156673 -9.415095 29.484771 -9.165103 29.680068 -9.004951 C 29.875365 -8.840894 30.180028 -8.575277 30.359701 -8.403407 C 30.539375 -8.227631 30.820602 -7.942483 30.984651 -7.762801 C 31.152607 -7.579213 31.402587 -7.278441 31.554918 -7.083134 C 31.703344 -6.891734 31.929888 -6.579243 32.066596 -6.376124 C 32.199398 -6.176911 32.402507 -5.848796 32.519685 -5.641771 C 32.636863 -5.434746 32.81263 -5.094912 32.914185 -4.880075 C 33.015739 -4.669144 33.164165 -4.321498 33.250095 -4.098849 C 33.336026 -3.880105 33.45711 -3.524647 33.523511 -3.301998 C 33.589912 -3.079348 33.68756 -2.716078 33.738337 -2.489522 C 33.789115 -2.25906 33.855516 -1.891884 33.890669 -1.665328 C 33.925822 -1.434866 33.964882 -1.063783 33.984411 -0.833322 C 34.000035 -0.60286 34.015659 -0.231777 34.015659 -0.00131528 C 34.015659 0.233053 34.000035 0.604135 33.984411 0.834597 C 33.964882 1.065059 33.925822 1.436142 33.890669 1.662697 C 33.855516 1.893159 33.789115 2.260336 33.738337 2.486891 C 33.68756 2.713447 33.589912 3.076717 33.523511 3.303273 C 33.45711 3.525923 33.336026 3.881381 33.250095 4.100124 C 33.164165 4.318868 33.015739 4.666513 32.914185 4.881351 C 32.81263 5.096188 32.636863 5.436022 32.519685 5.643047 C 32.402507 5.850072 32.199398 6.178187 32.066596 6.3774 C 31.929888 6.576612 31.703344 6.893009 31.554918 7.08441 C 31.402587 7.27581 31.152607 7.576582 30.984651 7.760171 C 30.820602 7.943759 30.539375 8.228907 30.359701 8.400776 C 30.180028 8.572646 29.875365 8.842169 29.680068 9.002321 C 29.484771 9.162472 29.156673 9.412465 28.945752 9.560898 C 28.734831 9.709331 28.383297 9.939793 28.156753 10.072601 C 27.930208 10.209316 27.555238 10.416341 27.316976 10.537431 C 27.074808 10.658521 26.680308 10.838203 26.426422 10.943669 C 26.172536 11.049134 25.750695 11.20538 25.481186 11.295221 C 25.215582 11.385062 24.770305 11.510058 24.489077 11.584275 C 24.20785 11.654585 23.743043 11.752238 23.450098 11.803018 C 23.153247 11.853798 22.66891 11.920202 22.360341 11.951451 C 22.047866 11.9827 21.544 12.013949 21.219808 12.021762 C 20.895615 12.029574 20.368313 12.021762 20.032403 12.006137 C 19.692586 11.990512 19.141849 11.943639 18.790315 11.896765 C 18.43878 11.853798 17.860701 11.763957 17.493543 11.68974 C 17.126385 11.615524 16.524871 11.474903 16.142089 11.365531 C 15.755401 11.260066 15.126545 11.060853 14.720328 10.916326 C 14.31411 10.771799 13.650101 10.506182 13.216542 10.314781 C 12.786889 10.123381 12.076008 9.779641 11.611201 9.529649 C 11.146395 9.279656 10.380831 8.838263 9.865247 8.510148 C 9.349664 8.178127 8.502075 7.611738 7.888843 7.150814 C 7.275611 6.68989 6.549106 6.185999 5.455444 5.193841 C 4.361781 4.201684 -0.00115091 -0.00131528 -0.00115091 -0.00131528 " transform="matrix(1.00008,0,0,-1.00003,46.454276,46.154935)"/>
<path style="fill:none;stroke-width:1.19553;stroke-linecap:butt;stroke-linejoin:miter;stroke:rgb(100%,0%,0%);stroke-opacity:1;stroke-miterlimit:10;" d="M -0.00115091 -0.00131528 C -0.00115091 -0.00131528 -4.360177 4.201684 -5.45384 5.193841 C -6.547502 6.185999 -7.277913 6.68989 -7.887239 7.150814 C -8.500471 7.611738 -9.348059 8.178127 -9.863643 8.510148 C -10.383133 8.838263 -11.148697 9.279656 -11.613503 9.529649 C -12.07831 9.779641 -12.785284 10.123381 -13.218843 10.314781 C -13.648497 10.506182 -14.312506 10.771799 -14.718724 10.916326 C -15.124941 11.060853 -15.753797 11.260066 -16.140485 11.365531 C -16.527173 11.474903 -17.128687 11.615524 -17.495845 11.68974 C -17.863003 11.763957 -18.437176 11.853798 -18.78871 11.896765 C -19.140245 11.943639 -19.694888 11.990512 -20.030799 12.006137 C -20.366709 12.021762 -20.897917 12.029574 -21.218204 12.021762 C -21.542396 12.013949 -22.050168 11.9827 -22.358737 11.951451 C -22.667306 11.920202 -23.151643 11.853798 -23.448494 11.803018 C -23.745345 11.752238 -24.206246 11.654585 -24.491379 11.584275 C -24.772607 11.510058 -25.213978 11.385062 -25.483487 11.295221 C -25.752997 11.20538 -26.170932 11.049134 -26.424818 10.943669 C -26.678704 10.838203 -27.07711 10.658521 -27.315372 10.537431 C -27.55754 10.416341 -27.93251 10.209316 -28.159055 10.072601 C -28.381693 9.939793 -28.733227 9.709331 -28.944148 9.560898 C -29.155069 9.412465 -29.483167 9.162472 -29.68237 9.002321 C -29.877667 8.842169 -30.178424 8.572646 -30.358097 8.400776 C -30.541676 8.228907 -30.818998 7.943759 -30.986953 7.760171 C -31.151003 7.576582 -31.404889 7.27581 -31.553314 7.08441 C -31.70174 6.893009 -31.93219 6.576612 -32.064992 6.3774 C -32.197794 6.178187 -32.400903 5.850072 -32.518081 5.643047 C -32.635259 5.436022 -32.811026 5.096188 -32.91258 4.881351 C -33.014135 4.666513 -33.166466 4.318868 -33.248491 4.100124 C -33.334422 3.881381 -33.455506 3.525923 -33.521907 3.303273 C -33.592214 3.076717 -33.685956 2.713447 -33.736733 2.486891 C -33.78751 2.260336 -33.857817 1.893159 -33.889065 1.662697 C -33.924218 1.436142 -33.967184 1.065059 -33.982807 0.834597 C -33.998431 0.604135 -34.017961 0.233053 -34.017961 -0.00131528 C -34.017961 -0.231777 -33.998431 -0.60286 -33.982807 -0.833322 C -33.967184 -1.063783 -33.924218 -1.434866 -33.889065 -1.665328 C -33.857817 -1.891884 -33.78751 -2.25906 -33.736733 -2.489522 C -33.685956 -2.716078 -33.592214 -3.079348 -33.521907 -3.301998 C -33.455506 -3.524647 -33.334422 -3.880105 -33.248491 -4.098849 C -33.166466 -4.321498 -33.014135 -4.669144 -32.91258 -4.880075 C -32.811026 -5.094912 -32.635259 -5.434746 -32.518081 -5.641771 C -32.400903 -5.848796 -32.197794 -6.176911 -32.064992 -6.376124 C -31.93219 -6.579243 -31.70174 -6.891734 -31.553314 -7.083134 C -31.404889 -7.278441 -31.151003 -7.579213 -30.986953 -7.762801 C -30.818998 -7.942483 -30.541676 -8.227631 -30.358097 -8.403407 C -30.178424 -8.575277 -29.877667 -8.840894 -29.68237 -9.004951 C -29.483167 -9.165103 -29.155069 -9.415095 -28.944148 -9.563528 C -28.733227 -9.711961 -28.381693 -9.938517 -28.159055 -10.075232 C -27.93251 -10.20804 -27.55754 -10.415065 -27.315372 -10.536155 C -27.07711 -10.657246 -26.678704 -10.840834 -26.424818 -10.946299 C -26.170932 -11.051765 -25.752997 -11.20801 -25.483487 -11.293945 C -25.213978 -11.383786 -24.772607 -11.512689 -24.491379 -11.582999 C -24.206246 -11.653309 -23.745345 -11.750963 -23.448494 -11.801743 C -23.151643 -11.852522 -22.667306 -11.918927 -22.358737 -11.950176 C -22.050168 -11.981425 -21.542396 -12.012674 -21.218204 -12.020486 C -20.897917 -12.028298 -20.366709 -12.024392 -20.030799 -12.004861 C -19.694888 -11.989237 -19.140245 -11.942363 -18.78871 -11.899396 C -18.437176 -11.852522 -17.863003 -11.762681 -17.495845 -11.688465 C -17.128687 -11.614248 -16.527173 -11.473627 -16.140485 -11.368162 C -15.753797 -11.25879 -15.124941 -11.063483 -14.718724 -10.91505 C -14.312506 -10.770523 -13.648497 -10.508813 -13.218843 -10.313506 C -12.785284 -10.122105 -12.07831 -9.782272 -11.613503 -9.528373 C -11.148697 -9.278381 -10.383133 -8.840894 -9.863643 -8.508873 C -9.348059 -8.180757 -8.500471 -7.610462 -7.887239 -7.149538 C -7.277913 -6.688615 -6.547502 -6.184724 -5.45384 -5.192566 C -4.360177 -4.200408 -0.00115091 -0.00131528 -0.00115091 -0.00131528 " transform="matrix(1.00008,0,0,-1.00003,46.454276,46.154935)"/>
</g>
</svg>
