<?xml version="1.0" encoding="UTF-8"?>
<svg xmlns="http://www.w3.org/2000/svg" xmlns:xlink="http://www.w3.org/1999/xlink" width="116pt" height="116pt" viewBox="0 0 116 116" version="1.1">
<g id="surface1">
<path style="fill:none;stroke-width:0.3985;stroke-linecap:butt;stroke-linejoin:miter;stroke:rgb(0%,0%,0%);stroke-opacity:1;stroke-miterlimit:10;" d="M -56.69253 -0.0001875 L 55.69863 -0.0001875 " transform="matrix(1.00003,0,0,-1,58.108293,57.492)"/>
<path style="fill-rule:nonzero;fill:rgb(0%,0%,0%);fill-opacity:1;stroke-width:0.3985;stroke-linecap:butt;stroke-linejoin:round;stroke:rgb(0%,0%,0%);stroke-opacity:1;stroke-miterlimit:10;" d="M 0.798121 -0.0001875 C -0.197943 0.199031 -1.194007 0.597469 -2.389284 1.296688 C -1.194007 0.39825 -1.194007 -0.398625 -2.389284 -1.297062 C -1.194007 -0.597844 -0.197943 -0.199406 0.798121 -0.0001875 Z M 0.798121 -0.0001875 " transform="matrix(1.00003,0,0,-1,113.807324,57.492)"/>
<path style="fill:none;stroke-width:0.3985;stroke-linecap:butt;stroke-linejoin:miter;stroke:rgb(50%,50%,50%);stroke-opacity:1;stroke-miterlimit:10;" d="M 0.00108179 -56.6955 L 0.00108179 56.695125 " transform="matrix(1.00003,0,0,-1,58.108293,57.492)"/>
<path style="fill:none;stroke-width:1.19553;stroke-linecap:butt;stroke-linejoin:miter;stroke:rgb(100%,0%,0%);stroke-opacity:1;stroke-miterlimit:10;" d="M 0.00108179 -0.0001875 C 0.00108179 -0.0001875 5.450137 -5.250187 6.817284 -6.492375 C 8.188336 -7.730656 9.098465 -8.363469 9.860161 -8.937687 C 10.625763 -9.511906 11.684325 -10.222844 12.332743 -10.636906 C 12.977255 -11.050969 13.934258 -11.597844 14.516271 -11.91425 C 15.098285 -12.22675 15.981071 -12.652531 16.520117 -12.894719 C 17.059164 -13.133 17.89117 -13.461125 18.398967 -13.644719 C 18.906765 -13.828312 19.695803 -14.074406 20.176258 -14.207219 C 20.656712 -14.343937 21.410596 -14.519719 21.867613 -14.613469 C 22.328537 -14.703312 23.047265 -14.816594 23.488658 -14.871281 C 23.926145 -14.925969 24.617531 -14.984562 25.039393 -15.008 C 25.461255 -15.027531 26.121392 -15.035344 26.523724 -15.027531 C 26.929961 -15.015812 27.562755 -14.97675 27.949462 -14.937687 C 28.336169 -14.902531 28.94162 -14.816594 29.312702 -14.754094 C 29.679879 -14.691594 30.257987 -14.566594 30.613445 -14.47675 C 30.964997 -14.390812 31.519667 -14.230656 31.851689 -14.117375 C 32.187616 -14.008 32.714944 -13.812687 33.031341 -13.679875 C 33.347738 -13.550969 33.843817 -13.3205 34.144589 -13.172062 C 34.445361 -13.019719 34.914097 -12.761906 35.195338 -12.593937 C 35.480486 -12.422062 35.917973 -12.136906 36.179684 -11.953312 C 36.445301 -11.765812 36.855445 -11.453312 37.101531 -11.254094 C 37.347618 -11.050969 37.722606 -10.718937 37.949162 -10.500187 C 38.175718 -10.285344 38.52727 -9.929875 38.734295 -9.703312 C 38.94132 -9.472844 39.25381 -9.093937 39.441305 -8.855656 C 39.628799 -8.617375 39.913947 -8.222844 40.081911 -7.972844 C 40.249874 -7.722844 40.499867 -7.312687 40.6483 -7.050969 C 40.796733 -6.793156 41.015476 -6.371281 41.140473 -6.10175 C 41.269375 -5.836125 41.456869 -5.398625 41.562335 -5.125187 C 41.667801 -4.85175 41.82014 -4.406437 41.902169 -4.125187 C 41.988103 -3.847844 42.109194 -3.394719 42.171692 -3.109562 C 42.23419 -2.824406 42.320125 -2.367375 42.363092 -2.078312 C 42.40606 -1.793156 42.456839 -1.332219 42.47637 -1.043156 C 42.499807 -0.754094 42.519337 -0.28925 42.519337 -0.0001875 C 42.519337 0.288875 42.499807 0.753719 42.47637 1.042781 C 42.456839 1.331844 42.40606 1.792781 42.363092 2.081844 C 42.320125 2.367 42.23419 2.824031 42.171692 3.109188 C 42.109194 3.394344 41.988103 3.847469 41.902169 4.128719 C 41.82014 4.406063 41.667801 4.851375 41.562335 5.124813 C 41.456869 5.39825 41.269375 5.83575 41.140473 6.101375 C 41.015476 6.370906 40.796733 6.792781 40.6483 7.050594 C 40.499867 7.312313 40.249874 7.722469 40.081911 7.972469 C 39.913947 8.222469 39.628799 8.617 39.441305 8.855281 C 39.25381 9.097469 38.94132 9.472469 38.734295 9.702938 C 38.52727 9.9295 38.175718 10.284969 37.949162 10.503719 C 37.722606 10.718563 37.347618 11.050594 37.101531 11.253719 C 36.855445 11.456844 36.445301 11.765438 36.179684 11.952938 C 35.917973 12.140438 35.480486 12.425594 35.195338 12.593563 C 34.914097 12.761531 34.445361 13.019344 34.144589 13.171688 C 33.843817 13.324031 33.347738 13.550594 33.031341 13.683406 C 32.714944 13.812313 32.187616 14.007625 31.851689 14.120906 C 31.519667 14.230281 30.964997 14.390438 30.613445 14.476375 C 30.257987 14.566219 29.679879 14.691219 29.312702 14.753719 C 28.94162 14.816219 28.336169 14.902156 27.949462 14.937313 C 27.562755 14.976375 26.929961 15.015438 26.523724 15.027156 C 26.121392 15.034969 25.461255 15.027156 25.039393 15.007625 C 24.617531 14.988094 23.926145 14.925594 23.488658 14.870906 C 23.047265 14.816219 22.328537 14.702938 21.867613 14.613094 C 21.410596 14.519344 20.656712 14.343563 20.176258 14.21075 C 19.695803 14.074031 18.906765 13.827938 18.398967 13.644344 C 17.89117 13.464656 17.059164 13.132625 16.520117 12.894344 C 15.981071 12.652156 15.098285 12.226375 14.516271 11.913875 C 13.934258 11.601375 12.977255 11.050594 12.332743 10.636531 C 11.684325 10.226375 10.625763 9.511531 9.860161 8.937313 C 9.098465 8.363094 8.188336 7.730281 6.817284 6.492 C 5.450137 5.253719 0.00108179 -0.0001875 0.00108179 -0.0001875 " transform="matrix(1.00003,0,0,-1,58.108293,57.492)"/>
<path style="fill:none;stroke-width:1.19553;stroke-linecap:butt;stroke-linejoin:miter;stroke:rgb(100%,0%,0%);stroke-opacity:1;stroke-miterlimit:10;" d="M 0.00108179 -0.0001875 C 0.00108179 -0.0001875 -5.45188 5.253719 -6.819026 6.492 C -8.186173 7.730281 -9.096302 8.363094 -9.861904 8.937313 C -10.627506 9.511531 -11.686068 10.226375 -12.33058 10.636531 C -12.975091 11.050594 -13.936 11.601375 -14.514108 11.913875 C -15.096122 12.226375 -15.982814 12.652156 -16.52186 12.894344 C -17.060906 13.132625 -17.892913 13.464656 -18.40071 13.644344 C -18.904601 13.827938 -19.69364 14.074031 -20.174094 14.21075 C -20.658455 14.343563 -21.408432 14.519344 -21.869356 14.613094 C -22.326373 14.702938 -23.049008 14.816219 -23.486495 14.870906 C -23.927888 14.925594 -24.615367 14.988094 -25.03723 15.007625 C -25.459092 15.027156 -26.119228 15.034969 -26.525466 15.027156 C -26.927798 15.015438 -27.560591 14.976375 -27.947299 14.937313 C -28.334006 14.902156 -28.939456 14.816219 -29.310539 14.753719 C -29.681621 14.691219 -30.259729 14.566219 -30.611281 14.476375 C -30.966739 14.390438 -31.517504 14.230281 -31.853431 14.120906 C -32.189359 14.007625 -32.712781 13.812313 -33.033083 13.683406 C -33.34948 13.550594 -33.845559 13.324031 -34.146331 13.171688 C -34.447104 13.019344 -34.915839 12.761531 -35.197081 12.593563 C -35.478323 12.425594 -35.915809 12.140438 -36.181426 11.952938 C -36.447044 11.765438 -36.853281 11.456844 -37.099368 11.253719 C -37.345454 11.050594 -37.724349 10.718563 -37.950905 10.503719 C -38.17746 10.284969 -38.525106 9.9295 -38.732131 9.702938 C -38.939156 9.472469 -39.255553 9.097469 -39.443047 8.855281 C -39.626636 8.617 -39.915689 8.222469 -40.083653 7.972469 C -40.247711 7.722469 -40.501609 7.312313 -40.650042 7.050594 C -40.794569 6.792781 -41.013313 6.370906 -41.142215 6.101375 C -41.267211 5.83575 -41.458612 5.39825 -41.564078 5.124813 C -41.669543 4.851375 -41.817976 4.406063 -41.903911 4.128719 C -41.989846 3.847469 -42.10703 3.394344 -42.173434 3.109188 C -42.235932 2.824031 -42.321867 2.367 -42.364835 2.081844 C -42.403896 1.792781 -42.454676 1.331844 -42.478113 1.042781 C -42.501549 0.753719 -42.52108 0.288875 -42.52108 -0.0001875 C -42.52108 -0.28925 -42.501549 -0.754094 -42.478113 -1.043156 C -42.454676 -1.332219 -42.403896 -1.793156 -42.364835 -2.078312 C -42.321867 -2.367375 -42.235932 -2.824406 -42.173434 -3.109562 C -42.10703 -3.394719 -41.989846 -3.847844 -41.903911 -4.125187 C -41.817976 -4.406437 -41.669543 -4.85175 -41.564078 -5.125187 C -41.458612 -5.398625 -41.267211 -5.836125 -41.142215 -6.10175 C -41.013313 -6.371281 -40.794569 -6.793156 -40.650042 -7.050969 C -40.501609 -7.312687 -40.247711 -7.722844 -40.083653 -7.972844 C -39.915689 -8.222844 -39.626636 -8.617375 -39.443047 -8.855656 C -39.255553 -9.093937 -38.939156 -9.472844 -38.732131 -9.703312 C -38.525106 -9.929875 -38.17746 -10.285344 -37.950905 -10.500187 C -37.724349 -10.718937 -37.345454 -11.050969 -37.099368 -11.254094 C -36.853281 -11.453312 -36.447044 -11.765812 -36.181426 -11.953312 C -35.915809 -12.136906 -35.478323 -12.422062 -35.197081 -12.593937 C -34.915839 -12.761906 -34.447104 -13.019719 -34.146331 -13.172062 C -33.845559 -13.3205 -33.34948 -13.550969 -33.033083 -13.679875 C -32.712781 -13.812687 -32.189359 -14.008 -31.853431 -14.117375 C -31.517504 -14.230656 -30.966739 -14.390812 -30.611281 -14.47675 C -30.259729 -14.566594 -29.681621 -14.691594 -29.310539 -14.754094 C -28.939456 -14.816594 -28.334006 -14.902531 -27.947299 -14.937687 C -27.560591 -14.97675 -26.927798 -15.015812 -26.525466 -15.027531 C -26.119228 -15.035344 -25.459092 -15.027531 -25.03723 -15.008 C -24.615367 -14.984562 -23.927888 -14.925969 -23.486495 -14.871281 C -23.049008 -14.816594 -22.326373 -14.703312 -21.869356 -14.613469 C -21.408432 -14.519719 -20.658455 -14.343937 -20.174094 -14.207219 C -19.69364 -14.074406 -18.904601 -13.828312 -18.40071 -13.644719 C -17.892913 -13.461125 -17.060906 -13.133 -16.52186 -12.894719 C -15.982814 -12.652531 -15.096122 -12.22675 -14.514108 -11.91425 C -13.936 -11.597844 -12.975091 -11.050969 -12.33058 -10.636906 C -11.686068 -10.222844 -10.627506 -9.511906 -9.861904 -8.937687 C -9.096302 -8.363469 -8.186173 -7.730656 -6.819026 -6.492375 C -5.45188 -5.250187 0.00108179 -0.0001875 0.00108179 -0.0001875 " transform="matrix(1.00003,0,0,-1,58.108293,57.492)"/>
</g>
</svg>
