<?xml version="1.0" encoding="UTF-8"?>
<svg xmlns="http://www.w3.org/2000/svg" xmlns:xlink="http://www.w3.org/1999/xlink" width="107pt" height="40pt" viewBox="0 0 107 40" version="1.1">
<g id="surface1">
<path style="fill:none;stroke-width:0.79701;stroke-linecap:butt;stroke-linejoin:miter;stroke:rgb(0%,0%,0%);stroke-opacity:1;stroke-miterlimit:10;" d="M -0.00178125 -0.000679059 L 76.537281 29.76316 L 90.709156 -5.668308 L -11.337719 28.345276 Z M -0.00178125 -0.000679059 " transform="matrix(1,0,0,-1.00006,13.951,31.764946)"/>
<path style="fill:none;stroke-width:0.79701;stroke-linecap:butt;stroke-linejoin:miter;stroke:rgb(0%,0%,0%);stroke-opacity:1;stroke-miterlimit:10;" d="M -0.00178125 -0.000679059 L -8.208813 20.521527 " transform="matrix(1,0,0,-1.00006,13.951,31.764946)"/>
<path style="fill:none;stroke-width:0.79701;stroke-linecap:round;stroke-linejoin:round;stroke:rgb(0%,0%,0%);stroke-opacity:1;stroke-miterlimit:10;" d="M -2.551224 3.112731 C -2.083392 1.242671 -1.046133 0.364968 -0.000887132 0.00157194 C -1.046869 -0.362605 -2.08488 -1.243264 -2.549867 -3.110447 " transform="matrix(-0.37137,-0.928496,-0.92844,0.371392,5.59488,10.873592)"/>
<path style="fill:none;stroke-width:0.79701;stroke-linecap:butt;stroke-linejoin:miter;stroke:rgb(0%,0%,0%);stroke-opacity:1;stroke-miterlimit:10;" d="M 90.709156 -5.668308 L 79.666187 21.939411 " transform="matrix(1,0,0,-1.00006,13.951,31.764946)"/>
<path style="fill:none;stroke-width:0.79701;stroke-linecap:round;stroke-linejoin:round;stroke:rgb(0%,0%,0%);stroke-opacity:1;stroke-miterlimit:10;" d="M -2.550714 3.112786 C -2.086508 1.244176 -1.047073 0.361396 -0.000376749 0.00162629 C -1.046359 -0.36255 -2.08437 -1.243209 -2.549357 -3.110392 " transform="matrix(-0.37137,-0.928496,-0.92844,0.371392,93.47012,9.456077)"/>
</g>
</svg>
