<?xml version="1.0" encoding="UTF-8" standalone="no"?>
<!-- Generator: Adobe Illustrator 19.0.0, SVG Export Plug-In . SVG Version: 6.00 Build 0)  -->

<svg
   xmlns:dc="http://purl.org/dc/elements/1.1/"
   xmlns:cc="http://creativecommons.org/ns#"
   xmlns:rdf="http://www.w3.org/1999/02/22-rdf-syntax-ns#"
   xmlns:svg="http://www.w3.org/2000/svg"
   xmlns="http://www.w3.org/2000/svg"
   xmlns:sodipodi="http://sodipodi.sourceforge.net/DTD/sodipodi-0.dtd"
   xmlns:inkscape="http://www.inkscape.org/namespaces/inkscape"
   version="1.1"
   id="Capa_1"
   x="0px"
   y="0px"
   viewBox="0 0 25.944698 35.000011"
   xml:space="preserve"
   inkscape:version="0.92.5 (2060ec1f9f, 2020-04-08)"
   sodipodi:docname="golden-ground-beetle-svgrepo-com.svg"
   width="25.944698"
   height="35.000011"><metadata
     id="metadata8428"><rdf:RDF><cc:Work
         rdf:about=""><dc:format>image/svg+xml</dc:format><dc:type
           rdf:resource="http://purl.org/dc/dcmitype/StillImage" /><dc:title></dc:title></cc:Work></rdf:RDF></metadata><defs
     id="defs8426" /><sodipodi:namedview
     pagecolor="#ffffff"
     bordercolor="#666666"
     borderopacity="1"
     objecttolerance="10"
     gridtolerance="10"
     guidetolerance="10"
     inkscape:pageopacity="0"
     inkscape:pageshadow="2"
     inkscape:window-width="1366"
     inkscape:window-height="737"
     id="namedview8424"
     showgrid="false"
     fit-margin-top="0"
     fit-margin-left="0"
     fit-margin-right="0"
     fit-margin-bottom="0"
     inkscape:zoom="1.4417005"
     inkscape:cx="14.810461"
     inkscape:cy="-13.984487"
     inkscape:window-x="0"
     inkscape:window-y="0"
     inkscape:window-maximized="1"
     inkscape:current-layer="Capa_1" /><path
     style="stroke-width:0.44420925"
     d="m 25.835411,23.247068 -3.769318,-4.761946 -1.303637,-4.11751 c -0.09995,-0.315604 -0.364373,-0.58638 -0.725585,-0.742935 -0.361211,-0.156554 -0.792408,-0.187321 -1.183296,-0.08444 l -1.44284,0.379783 c -0.168016,-0.182332 -0.348768,-0.35204 -0.541099,-0.509804 l 2.513071,-1.984333 c 0.280316,-0.221338 0.434641,-0.515549 0.434641,-0.828507 V 7.4383178 c 0,-0.0088 0.0039,-0.01746 0.01109,-0.02419 l 3.651948,-3.460297 c 0.253892,-0.240539 0.212727,-0.598021 -0.09191,-0.798496 -0.304631,-0.200398 -0.757366,-0.167969 -1.011259,0.07257 l -3.651949,3.460299 c -0.221723,0.210151 -0.343882,0.476543 -0.343882,0.75004 v 3.1590592 c 0,0.01005 -0.005,0.01958 -0.01398,0.02676 l -1.981261,1.564411 c 0.05907,-0.104093 0.121205,-0.209773 0.184197,-0.316738 0.566758,-0.962232 1.272239,-2.1597102 -0.01387,-3.2286052 -0.342733,-0.284836 -0.715147,-0.425592 -1.086317,-0.481002 0.08099,-0.148693 0.140828,-0.302828 0.181613,-0.459685 l 1.01442,-0.400495 c 0.432632,-0.170766 0.789916,-0.452881 1.006186,-0.794489 l 1.984035,-3.133205 4.436694,-2.335541 c 0.330005,-0.17363898 0.419135,-0.52567798 0.199131,-0.78617398 -0.219904,-0.260571 -0.665747,-0.330949 -0.995653,-0.157235 L 18.701259,2.5143018 c -0.103967,0.05473 -0.188024,0.129945 -0.243935,0.218163 l -2.069336,3.267838 c -0.07822,0.12352 -0.207458,0.225571 -0.363985,0.287407 l -0.462024,0.182407 c -0.0449,-0.10757 -0.09861,-0.213325 -0.163518,-0.315754 l -0.06577,-0.103866 1.300669,-1.540523 c 0.122924,-0.145593 0.153849,-0.327774 0.08377,-0.493778 l -0.76589,-1.814248 c -0.125417,-0.297083 -0.532199,-0.457568 -0.908251,-0.358616 -0.376242,0.09903 -0.57949,0.420073 -0.454169,0.717157 l 0.654834,1.551181 -0.650717,0.770677 -7.11e-4,-0.0013 c -0.252954,-0.399602 -0.761599,-0.647776 -1.327307,-0.647776 h -0.585043 c -0.565704,0 -1.074349,0.248174 -1.327187,0.647686 l -7.11e-4,0.0014 -0.650717,-0.770677 0.654835,-1.551182 c 0.125394,-0.297084 -0.07795,-0.61813 -0.454191,-0.717158 -0.37615,-0.09903 -0.782835,0.06153 -0.9082508,0.358616 l -0.765886,1.814248 c -0.070081,0.165928 -0.039157,0.348184 0.083768,0.493778 l 1.3006678,1.540522 -0.06577,0.103866 c -0.06491,0.10243 -0.118521,0.208185 -0.163519,0.31583 L 9.9208945,6.2877818 C 9.7644618,6.2260218 9.6352209,6.1239698 9.556909,6.0003748 L 7.4873096,2.7325398 C 7.4314943,2.6443218 7.347342,2.5690308 7.2433717,2.5143758 L 2.6480414,0.09537982 c -0.3299057,-0.173715 -0.7758441,-0.103337 -0.9956532,0.157234 -0.2200022,0.260496 -0.1308731,0.612536 0.1991314,0.78617398 l 4.4366942,2.335542 1.9840345,3.133205 c 0.2162699,0.341608 0.5735541,0.623723 1.0061859,0.79449 l 1.0144198,0.400495 c 0.04078,0.156781 0.100618,0.310992 0.181613,0.459685 -0.37117,0.05541 -0.7436789,0.196165 -1.0863166,0.481002 -1.2861213,1.06897 -0.5806402,2.2664492 -0.013873,3.2286052 0.062995,0.10704 0.1251275,0.212645 0.1841998,0.316737 l -1.9812586,-1.56441 c -0.009,-0.0072 -0.013979,-0.01663 -0.013979,-0.02676 V 7.4383208 c 0,-0.273574 -0.1221594,-0.539966 -0.3438824,-0.750116 l -3.6519504,-3.4603 c -0.2538924,-0.240615 -0.7067222,-0.27312 -1.0112584,-0.07257 -0.304635,0.200474 -0.3458,0.557957 -0.091908,0.798496 l 3.6519459,3.460223 c 0.00717,0.0068 0.011087,0.01542 0.011087,0.02427 v 3.1590592 c 0,0.312957 0.1543249,0.607168 0.4346409,0.828506 l 2.5130713,1.984333 C 8.8827504,13.567983 8.701903,13.737691 8.5338871,13.920023 L 7.0910474,13.54024 C 6.7001588,13.437358 6.2689618,13.46812 5.9077508,13.62468 5.5465394,13.781235 5.2821141,14.052011 5.1821661,14.367615 l -1.3036356,4.117509 -3.76932018,4.761947 c -0.21014066,0.26556 -0.10789457,0.615332 0.22833079,0.78126 0.11832966,0.05843 0.24987108,0.08625 0.37988047,0.08625 0.23934008,0 0.47331902,-0.09449 0.60955152,-0.266543 l 3.8294444,-4.837993 c 0.039921,-0.05042 0.069502,-0.105378 0.087691,-0.16298 l 1.3312094,-4.204443 c 0.00147,-0.0044 0.00509,-0.01603 0.023459,-0.02396 0.018372,-0.0079 0.032756,-0.0042 0.038202,-0.0027 l 1.164244,0.306456 c -0.595092,1.03707 -0.9081521,2.318836 -0.9081521,3.787167 0,0.760925 0.091717,1.648622 0.2677738,2.582279 -0.019798,0.01262 -0.039059,0.02608 -0.05744,0.04059 l -1.6506812,1.303385 c -0.5860963,0.462785 -0.8022676,1.139726 -0.5640755,1.766624 l 2.0044227,5.275831 v 4.754766 c 0,0.313109 0.3214845,0.566952 0.7180234,0.566952 0.3965354,0 0.7180203,-0.253843 0.7180203,-0.566952 v -4.837994 c 0,-0.05518 -0.010137,-0.110064 -0.030268,-0.162904 L 6.2640737,24.076624 c -0.086162,-0.226781 -0.00794,-0.471629 0.2040138,-0.638994 l 1.0009194,-0.790331 c 0.8949439,3.36437 2.7929111,6.823536 5.4067911,6.907143 0.03228,0.0019 0.06443,0.0028 0.0966,0.0028 0.03217,0 0.06433,-8.88e-4 0.0966,-0.0028 2.613788,-0.08368 4.511752,-3.542773 5.406791,-6.907143 l 1.000919,0.790331 c 0.211959,0.167365 0.290175,0.412288 0.204014,0.638994 l -2.034773,5.355507 c -0.02009,0.05284 -0.03026,0.107721 -0.03026,0.162904 v 4.837994 c 0,0.313109 0.32148,0.566952 0.718019,0.566952 0.396539,0 0.71802,-0.253843 0.71802,-0.566952 v -4.754765 l 2.004522,-5.275832 c 0.238192,-0.626898 0.02203,-1.303839 -0.56408,-1.766624 l -1.650681,-1.303385 c -0.01837,-0.01451 -0.03762,-0.02797 -0.05744,-0.04059 0.17606,-0.933657 0.267773,-1.821353 0.267773,-2.582279 0,-1.468331 -0.312961,-2.750097 -0.908056,-3.787167 l 1.164247,-0.306456 c 0.0055,-0.0015 0.0198,-0.0052 0.0382,0.0027 0.0183,0.0079 0.02203,0.01958 0.02346,0.02389 l 1.33121,4.204443 c 0.01819,0.0576 0.04787,0.112635 0.0877,0.16298 l 3.829444,4.837994 c 0.136231,0.17205 0.370211,0.266543 0.609548,0.266543 0.129915,0 0.261553,-0.0279 0.379884,-0.08625 0.335937,-0.165853 0.438183,-0.515625 0.227944,-0.781185 z"
     id="path70"
     inkscape:connector-curvature="0" /><path
     style="stroke-width:0.44420925"
     d="m 14.551959,18.709559 c 0,1.82793 -0.221819,4.169898 -0.579011,6.111974 -0.354796,1.929377 -0.741476,2.943843 -1.000634,3.387275 -0.259156,-0.443432 -0.645835,-1.457898 -1.000631,-3.387275 -0.357193,-1.942076 -0.579011,-4.284044 -0.579011,-6.111974 0,-2.895992 0.537078,-4.274594 0.900682,-4.87579 h 1.358017 c 0.363605,0.601196 0.900588,1.979798 0.900588,4.87579 z"
     id="path68"
     inkscape:connector-curvature="0" /><path
     style="stroke-width:0.44420925"
     d="m 12.67984,5.3672808 h 0.585046 c 0.01819,0 0.03466,0.008 0.04279,0.02086 l 0.80629,1.273376 c 0.219044,0.34584 0.221148,0.758128 0.0064,1.105254 l -0.40343,0.571639 c -0.2829,0.0672 -0.54828,0.128207 -0.744733,0.128207 -0.196449,0 -0.461829,-0.061 -0.744729,-0.128207 l -0.403436,-0.571638 c -0.214733,-0.347126 -0.212533,-0.759414 0.0064,-1.105255 l 0.806384,-1.273375 c 0.0083,-0.01285 0.0247,-0.02086 0.04298,-0.02086 z"
     id="path66"
     inkscape:connector-curvature="0" /><path
     style="stroke-width:0.44420925"
     d="m 10.429375,9.4240138 c 0.267773,-0.222624 0.540715,-0.200777 1.340494,-0.01028 0.38553,0.09185 0.784174,0.186792 1.202445,0.186792 0.418274,0 0.816917,-0.09495 1.202447,-0.186792 0.79978,-0.190495 1.072816,-0.212266 1.340495,0.01028 0.554981,0.461272 0.350873,0.9543692 -0.247093,1.9694412 -0.249204,0.423022 -0.503667,0.856325 -0.631667,1.306334 H 11.307945 C 11.18004,12.249704 10.925478,11.816477 10.676277,11.393455 10.078502,10.378383 9.8743938,9.8853618 10.429375,9.4240138 Z"
     id="path64"
     inkscape:connector-curvature="0" /><path
     style="stroke-width:0.44420925"
     d="M 9.8547664,25.156035 C 8.927946,23.179488 8.3291173,20.649066 8.3291173,18.709559 c 0,-2.281038 0.8144252,-4.003288 2.2990047,-4.87579 h 0.111531 c -0.514387,1.132922 -0.7830245,2.79054 -0.7830245,4.87579 0,2.059625 0.2612625,4.639183 0.6818325,6.73222 0.133936,0.666358 0.271126,1.226507 0.410805,1.69753 -0.417697,-0.525299 -0.825244,-1.195664 -1.1944996,-1.983274 z"
     id="path62"
     inkscape:connector-curvature="0" /><path
     style="stroke-width:0.44420925"
     d="m 14.89546,27.139309 c 0.139679,-0.471023 0.276869,-1.031172 0.410805,-1.69753 0.420569,-2.093037 0.681832,-4.672595 0.681832,-6.73222 0,-2.08525 -0.268637,-3.742868 -0.783024,-4.87579 h 0.111531 c 1.484484,0.872502 2.299005,2.594752 2.299005,4.87579 0,1.939507 -0.598829,4.469929 -1.52565,6.446476 -0.369251,0.78761 -0.776803,1.457975 -1.194499,1.983274 z"
     id="path8392"
     inkscape:connector-curvature="0" /><g
     id="g8394"
     transform="translate(-95.999236,-43.79094)" /><g
     id="g8396"
     transform="translate(-95.999236,-43.79094)" /><g
     id="g8398"
     transform="translate(-95.999236,-43.79094)" /><g
     id="g8400"
     transform="translate(-95.999236,-43.79094)" /><g
     id="g8402"
     transform="translate(-95.999236,-43.79094)" /><g
     id="g8404"
     transform="translate(-95.999236,-43.79094)" /><g
     id="g8406"
     transform="translate(-95.999236,-43.79094)" /><g
     id="g8408"
     transform="translate(-95.999236,-43.79094)" /><g
     id="g8410"
     transform="translate(-95.999236,-43.79094)" /><g
     id="g8412"
     transform="translate(-95.999236,-43.79094)" /><g
     id="g8414"
     transform="translate(-95.999236,-43.79094)" /><g
     id="g8416"
     transform="translate(-95.999236,-43.79094)" /><g
     id="g8418"
     transform="translate(-95.999236,-43.79094)" /><g
     id="g8420"
     transform="translate(-95.999236,-43.79094)" /><g
     id="g8422"
     transform="translate(-95.999236,-43.79094)" /></svg>