<svg xmlns="http://www.w3.org/2000/svg" xmlns:xlink="http://www.w3.org/1999/xlink" version="1.1" width="204" height="205" viewBox="0 0 204 205">
<defs>
<path id="font_1_82" d="M.4189911 0V.0309906H.3869934C.29699708 .0309906 .2939911 .041992189 .2939911 .07902527V.64012148C.2939911 .6640167 .2939911 .6660156 .2709961 .6660156 .20899964 .60227969 .12098694 .60227969 .08898926 .60227969V.57128909C.10899353 .57128909 .16799927 .57128909 .21998596 .5972748V.07902527C.21998596 .042999269 .21699524 .0309906 .1269989 .0309906H.09498596V0C.12998963 .0029907227 .21699524 .0029907227 .25698854 .0029907227 .29699708 .0029907227 .38398744 .0029907227 .4189911 0Z"/>
</defs>
<path transform="matrix(1.00005,0,0,-1.00003,101.71413,104.130687)" stroke-width=".3985" stroke-linecap="butt" stroke-miterlimit="10" stroke-linejoin="miter" fill="none" stroke="#00aeef" d="M-99.21555-99.21555H99.21555M-99.21555-89.29399H99.21555M-99.21555-79.37244H99.21555M-99.21555-69.45088H99.21555M-99.21555-59.52933H99.21555M-99.21555-49.60777H99.21555M-99.21555-39.68622H99.21555M-99.21555-29.76466H99.21555M-99.21555-19.84311H99.21555M-99.21555-9.92155H99.21555M-99.21555 0H99.21555M-99.21555 9.92155H99.21555M-99.21555 19.84311H99.21555M-99.21555 29.76466H99.21555M-99.21555 39.68622H99.21555M-99.21555 49.60777H99.21555M-99.21555 59.52933H99.21555M-99.21555 69.45088H99.21555M-99.21555 79.37244H99.21555M-99.21555 89.29399H99.21555M-99.21555 99.21207H99.21555M-99.21555-99.21555V99.21555M-89.29399-99.21555V99.21555M-79.37244-99.21555V99.21555M-69.45088-99.21555V99.21555M-59.52933-99.21555V99.21555M-49.60777-99.21555V99.21555M-39.68622-99.21555V99.21555M-29.76466-99.21555V99.21555M-19.84311-99.21555V99.21555M-9.92155-99.21555V99.21555M0-99.21555V99.21555M9.92155-99.21555V99.21555M19.84311-99.21555V99.21555M29.76466-99.21555V99.21555M39.68622-99.21555V99.21555M49.60777-99.21555V99.21555M59.52933-99.21555V99.21555M69.45088-99.21555V99.21555M79.37244-99.21555V99.21555M89.29399-99.21555V99.21555M99.21207-99.21555V99.21555M99.21555 99.21555"/>
<path transform="matrix(1.00005,0,0,-1.00003,101.71413,104.130687)" stroke-width=".79701" stroke-linecap="butt" stroke-miterlimit="10" stroke-linejoin="miter" fill="none" stroke="#000000" d="M-99.21555 0H99.21555"/>
<path transform="matrix(1.00005,0,0,-1.00003,101.71413,104.130687)" stroke-width=".79701" stroke-linecap="butt" stroke-miterlimit="10" stroke-linejoin="miter" fill="none" stroke="#000000" d="M0-99.21555V99.21555"/>
<path transform="matrix(1.00005,0,0,-1.00003,101.71413,104.130687)" stroke-width=".79701" stroke-linecap="butt" stroke-miterlimit="10" stroke-linejoin="miter" fill="none" stroke="#ff0000" d="M99.21559 0C99.21559 54.79596 54.79596 99.21559 0 99.21559-54.79596 99.21559-99.21559 54.79596-99.21559 0-99.21559-54.79596-54.79596-99.21559 0-99.21559 54.79596-99.21559 99.21559-54.79596 99.21559 0ZM0 0"/>
<path transform="matrix(1.00005,0,0,-1.00003,101.71413,104.130687)" stroke-width=".79701" stroke-linecap="butt" stroke-miterlimit="10" stroke-linejoin="miter" fill="none" stroke="#000000" d="M-99.21555 1.98427V-1.98427"/>
<path transform="matrix(1.00005,0,0,-1.00003,101.71413,104.130687)" stroke-width=".79701" stroke-linecap="butt" stroke-miterlimit="10" stroke-linejoin="miter" fill="none" stroke="#000000" d="M1.98427-99.21555H-1.98427"/>
<path transform="matrix(1.00005,0,0,-1.00003,101.71413,104.130687)" stroke-width=".79701" stroke-linecap="butt" stroke-miterlimit="10" stroke-linejoin="miter" fill="none" stroke="#000000" d="M-89.29399 1.98427V-1.98427"/>
<path transform="matrix(1.00005,0,0,-1.00003,101.71413,104.130687)" stroke-width=".79701" stroke-linecap="butt" stroke-miterlimit="10" stroke-linejoin="miter" fill="none" stroke="#000000" d="M1.98427-89.29399H-1.98427"/>
<path transform="matrix(1.00005,0,0,-1.00003,101.71413,104.130687)" stroke-width=".79701" stroke-linecap="butt" stroke-miterlimit="10" stroke-linejoin="miter" fill="none" stroke="#000000" d="M-79.37244 1.98427V-1.98427"/>
<path transform="matrix(1.00005,0,0,-1.00003,101.71413,104.130687)" stroke-width=".79701" stroke-linecap="butt" stroke-miterlimit="10" stroke-linejoin="miter" fill="none" stroke="#000000" d="M1.98427-79.37244H-1.98427"/>
<path transform="matrix(1.00005,0,0,-1.00003,101.71413,104.130687)" stroke-width=".79701" stroke-linecap="butt" stroke-miterlimit="10" stroke-linejoin="miter" fill="none" stroke="#000000" d="M-69.45088 1.98427V-1.98427"/>
<path transform="matrix(1.00005,0,0,-1.00003,101.71413,104.130687)" stroke-width=".79701" stroke-linecap="butt" stroke-miterlimit="10" stroke-linejoin="miter" fill="none" stroke="#000000" d="M1.98427-69.45088H-1.98427"/>
<path transform="matrix(1.00005,0,0,-1.00003,101.71413,104.130687)" stroke-width=".79701" stroke-linecap="butt" stroke-miterlimit="10" stroke-linejoin="miter" fill="none" stroke="#000000" d="M-59.52933 1.98427V-1.98427"/>
<path transform="matrix(1.00005,0,0,-1.00003,101.71413,104.130687)" stroke-width=".79701" stroke-linecap="butt" stroke-miterlimit="10" stroke-linejoin="miter" fill="none" stroke="#000000" d="M1.98427-59.52933H-1.98427"/>
<path transform="matrix(1.00005,0,0,-1.00003,101.71413,104.130687)" stroke-width=".79701" stroke-linecap="butt" stroke-miterlimit="10" stroke-linejoin="miter" fill="none" stroke="#000000" d="M-49.60777 1.98427V-1.98427"/>
<path transform="matrix(1.00005,0,0,-1.00003,101.71413,104.130687)" stroke-width=".79701" stroke-linecap="butt" stroke-miterlimit="10" stroke-linejoin="miter" fill="none" stroke="#000000" d="M1.98427-49.60777H-1.98427"/>
<path transform="matrix(1.00005,0,0,-1.00003,101.71413,104.130687)" stroke-width=".79701" stroke-linecap="butt" stroke-miterlimit="10" stroke-linejoin="miter" fill="none" stroke="#000000" d="M-39.68622 1.98427V-1.98427"/>
<path transform="matrix(1.00005,0,0,-1.00003,101.71413,104.130687)" stroke-width=".79701" stroke-linecap="butt" stroke-miterlimit="10" stroke-linejoin="miter" fill="none" stroke="#000000" d="M1.98427-39.68622H-1.98427"/>
<path transform="matrix(1.00005,0,0,-1.00003,101.71413,104.130687)" stroke-width=".79701" stroke-linecap="butt" stroke-miterlimit="10" stroke-linejoin="miter" fill="none" stroke="#000000" d="M-29.76466 1.98427V-1.98427"/>
<path transform="matrix(1.00005,0,0,-1.00003,101.71413,104.130687)" stroke-width=".79701" stroke-linecap="butt" stroke-miterlimit="10" stroke-linejoin="miter" fill="none" stroke="#000000" d="M1.98427-29.76466H-1.98427"/>
<path transform="matrix(1.00005,0,0,-1.00003,101.71413,104.130687)" stroke-width=".79701" stroke-linecap="butt" stroke-miterlimit="10" stroke-linejoin="miter" fill="none" stroke="#000000" d="M-19.84311 1.98427V-1.98427"/>
<path transform="matrix(1.00005,0,0,-1.00003,101.71413,104.130687)" stroke-width=".79701" stroke-linecap="butt" stroke-miterlimit="10" stroke-linejoin="miter" fill="none" stroke="#000000" d="M1.98427-19.84311H-1.98427"/>
<path transform="matrix(1.00005,0,0,-1.00003,101.71413,104.130687)" stroke-width=".79701" stroke-linecap="butt" stroke-miterlimit="10" stroke-linejoin="miter" fill="none" stroke="#000000" d="M-9.92155 1.98427V-1.98427"/>
<path transform="matrix(1.00005,0,0,-1.00003,101.71413,104.130687)" stroke-width=".79701" stroke-linecap="butt" stroke-miterlimit="10" stroke-linejoin="miter" fill="none" stroke="#000000" d="M1.98427-9.92155H-1.98427"/>
<path transform="matrix(1.00005,0,0,-1.00003,101.71413,104.130687)" stroke-width=".79701" stroke-linecap="butt" stroke-miterlimit="10" stroke-linejoin="miter" fill="none" stroke="#000000" d="M0 1.98427V-1.98427"/>
<path transform="matrix(1.00005,0,0,-1.00003,101.71413,104.130687)" stroke-width=".79701" stroke-linecap="butt" stroke-miterlimit="10" stroke-linejoin="miter" fill="none" stroke="#000000" d="M1.98427 0H-1.98427"/>
<path transform="matrix(1.00005,0,0,-1.00003,101.71413,104.130687)" stroke-width=".79701" stroke-linecap="butt" stroke-miterlimit="10" stroke-linejoin="miter" fill="none" stroke="#000000" d="M9.92155 1.98427V-1.98427"/>
<path transform="matrix(1.00005,0,0,-1.00003,101.71413,104.130687)" stroke-width=".79701" stroke-linecap="butt" stroke-miterlimit="10" stroke-linejoin="miter" fill="none" stroke="#000000" d="M1.98427 9.92155H-1.98427"/>
<path transform="matrix(1.00005,0,0,-1.00003,101.71413,104.130687)" stroke-width=".79701" stroke-linecap="butt" stroke-miterlimit="10" stroke-linejoin="miter" fill="none" stroke="#000000" d="M19.84311 1.98427V-1.98427"/>
<path transform="matrix(1.00005,0,0,-1.00003,101.71413,104.130687)" stroke-width=".79701" stroke-linecap="butt" stroke-miterlimit="10" stroke-linejoin="miter" fill="none" stroke="#000000" d="M1.98427 19.84311H-1.98427"/>
<path transform="matrix(1.00005,0,0,-1.00003,101.71413,104.130687)" stroke-width=".79701" stroke-linecap="butt" stroke-miterlimit="10" stroke-linejoin="miter" fill="none" stroke="#000000" d="M29.76466 1.98427V-1.98427"/>
<path transform="matrix(1.00005,0,0,-1.00003,101.71413,104.130687)" stroke-width=".79701" stroke-linecap="butt" stroke-miterlimit="10" stroke-linejoin="miter" fill="none" stroke="#000000" d="M1.98427 29.76466H-1.98427"/>
<path transform="matrix(1.00005,0,0,-1.00003,101.71413,104.130687)" stroke-width=".79701" stroke-linecap="butt" stroke-miterlimit="10" stroke-linejoin="miter" fill="none" stroke="#000000" d="M39.68622 1.98427V-1.98427"/>
<path transform="matrix(1.00005,0,0,-1.00003,101.71413,104.130687)" stroke-width=".79701" stroke-linecap="butt" stroke-miterlimit="10" stroke-linejoin="miter" fill="none" stroke="#000000" d="M1.98427 39.68622H-1.98427"/>
<path transform="matrix(1.00005,0,0,-1.00003,101.71413,104.130687)" stroke-width=".79701" stroke-linecap="butt" stroke-miterlimit="10" stroke-linejoin="miter" fill="none" stroke="#000000" d="M49.60777 1.98427V-1.98427"/>
<path transform="matrix(1.00005,0,0,-1.00003,101.71413,104.130687)" stroke-width=".79701" stroke-linecap="butt" stroke-miterlimit="10" stroke-linejoin="miter" fill="none" stroke="#000000" d="M1.98427 49.60777H-1.98427"/>
<path transform="matrix(1.00005,0,0,-1.00003,101.71413,104.130687)" stroke-width=".79701" stroke-linecap="butt" stroke-miterlimit="10" stroke-linejoin="miter" fill="none" stroke="#000000" d="M59.52933 1.98427V-1.98427"/>
<path transform="matrix(1.00005,0,0,-1.00003,101.71413,104.130687)" stroke-width=".79701" stroke-linecap="butt" stroke-miterlimit="10" stroke-linejoin="miter" fill="none" stroke="#000000" d="M1.98427 59.52933H-1.98427"/>
<path transform="matrix(1.00005,0,0,-1.00003,101.71413,104.130687)" stroke-width=".79701" stroke-linecap="butt" stroke-miterlimit="10" stroke-linejoin="miter" fill="none" stroke="#000000" d="M69.45088 1.98427V-1.98427"/>
<path transform="matrix(1.00005,0,0,-1.00003,101.71413,104.130687)" stroke-width=".79701" stroke-linecap="butt" stroke-miterlimit="10" stroke-linejoin="miter" fill="none" stroke="#000000" d="M1.98427 69.45088H-1.98427"/>
<path transform="matrix(1.00005,0,0,-1.00003,101.71413,104.130687)" stroke-width=".79701" stroke-linecap="butt" stroke-miterlimit="10" stroke-linejoin="miter" fill="none" stroke="#000000" d="M79.37244 1.98427V-1.98427"/>
<path transform="matrix(1.00005,0,0,-1.00003,101.71413,104.130687)" stroke-width=".79701" stroke-linecap="butt" stroke-miterlimit="10" stroke-linejoin="miter" fill="none" stroke="#000000" d="M1.98427 79.37244H-1.98427"/>
<path transform="matrix(1.00005,0,0,-1.00003,101.71413,104.130687)" stroke-width=".79701" stroke-linecap="butt" stroke-miterlimit="10" stroke-linejoin="miter" fill="none" stroke="#000000" d="M89.29399 1.98427V-1.98427"/>
<path transform="matrix(1.00005,0,0,-1.00003,101.71413,104.130687)" stroke-width=".79701" stroke-linecap="butt" stroke-miterlimit="10" stroke-linejoin="miter" fill="none" stroke="#000000" d="M1.98427 89.29399H-1.98427"/>
<path transform="matrix(1.00005,0,0,-1.00003,101.71413,104.130687)" stroke-width=".79701" stroke-linecap="butt" stroke-miterlimit="10" stroke-linejoin="miter" fill="none" stroke="#000000" d="M99.21555 1.98427V-1.98427"/>
<path transform="matrix(1.00005,0,0,-1.00003,101.71413,104.130687)" stroke-width=".79701" stroke-linecap="butt" stroke-miterlimit="10" stroke-linejoin="miter" fill="none" stroke="#000000" d="M1.98427 99.21555H-1.98427"/>
<path transform="matrix(1.00005,0,0,-1.00003,101.71413,104.130687)" stroke-width="1.19553" stroke-linecap="butt" stroke-miterlimit="10" stroke-linejoin="miter" fill="none" stroke="#000000" d="M-99.21555 2.97649V-2.97649"/>
<path transform="matrix(1.00005,0,0,-1.00003,101.71413,104.130687)" stroke-width="1.19553" stroke-linecap="butt" stroke-miterlimit="10" stroke-linejoin="miter" fill="none" stroke="#000000" d="M2.97649-99.21555H-2.97649"/>
<path transform="matrix(1.00005,0,0,-1.00003,101.71413,104.130687)" stroke-width="1.19553" stroke-linecap="butt" stroke-miterlimit="10" stroke-linejoin="miter" fill="none" stroke="#000000" d="M-49.60777 2.97649V-2.97649"/>
<path transform="matrix(1.00005,0,0,-1.00003,101.71413,104.130687)" stroke-width="1.19553" stroke-linecap="butt" stroke-miterlimit="10" stroke-linejoin="miter" fill="none" stroke="#000000" d="M2.97649-49.60777H-2.97649"/>
<path transform="matrix(1.00005,0,0,-1.00003,101.71413,104.130687)" stroke-width="1.19553" stroke-linecap="butt" stroke-miterlimit="10" stroke-linejoin="miter" fill="none" stroke="#000000" d="M49.60777 2.97649V-2.97649"/>
<path transform="matrix(1.00005,0,0,-1.00003,101.71413,104.130687)" stroke-width="1.19553" stroke-linecap="butt" stroke-miterlimit="10" stroke-linejoin="miter" fill="none" stroke="#000000" d="M2.97649 49.60777H-2.97649"/>
<path transform="matrix(1.00005,0,0,-1.00003,101.71413,104.130687)" stroke-width="1.19553" stroke-linecap="butt" stroke-miterlimit="10" stroke-linejoin="miter" fill="none" stroke="#000000" d="M99.21555 2.97649V-2.97649"/>
<path transform="matrix(1.00005,0,0,-1.00003,101.71413,104.130687)" stroke-width="1.19553" stroke-linecap="butt" stroke-miterlimit="10" stroke-linejoin="miter" fill="none" stroke="#000000" d="M2.97649 99.21555H-2.97649"/>
<path transform="matrix(1.00005,0,0,-1.00003,101.71413,104.130687)" d="M99.38991 0C99.38991 .09628 99.31184 .17435 99.21555 .17435 99.11926 .17435 99.0412 .09628 99.0412 0 99.0412-.09628 99.11926-.17435 99.21555-.17435 99.31184-.17435 99.38991-.09628 99.38991 0ZM99.21555 0"/>
<path transform="matrix(1.00005,0,0,-1.00003,101.71413,104.130687)" stroke-width=".3985" stroke-linecap="butt" stroke-miterlimit="10" stroke-linejoin="miter" fill="none" stroke="#000000" d="M99.38991 0C99.38991 .09628 99.31184 .17435 99.21555 .17435 99.11926 .17435 99.0412 .09628 99.0412 0 99.0412-.09628 99.11926-.17435 99.21555-.17435 99.31184-.17435 99.38991-.09628 99.38991 0ZM99.21555 0"/>
<path transform="matrix(1.00005,0,0,-1.00003,101.71413,104.130687)" d="M95.72858-12.81212H102.702518V-4.18437H95.72858Z" fill="#ffffff"/>
<use data-text="1" xlink:href="#font_1_82" transform="matrix(9.963098,0,0,-9.962899,198.44396,115.94704)" fill="#ff0000"/>
<path transform="matrix(1.00005,0,0,-1.00003,101.71413,104.130687)" d="M.17435 99.21555C.17435 99.31184 .09628 99.38991 0 99.38991-.09628 99.38991-.17435 99.31184-.17435 99.21555-.17435 99.11926-.09628 99.0412 0 99.0412 .09628 99.0412 .17435 99.11926 .17435 99.21555ZM0 99.21555"/>
<path transform="matrix(1.00005,0,0,-1.00003,101.71413,104.130687)" stroke-width=".3985" stroke-linecap="butt" stroke-miterlimit="10" stroke-linejoin="miter" fill="none" stroke="#000000" d="M.17435 99.21555C.17435 99.31184 .09628 99.38991 0 99.38991-.09628 99.38991-.17435 99.31184-.17435 99.21555-.17435 99.11926-.09628 99.0412 0 99.0412 .09628 99.0412 .17435 99.11926 .17435 99.21555ZM0 99.21555"/>
<path transform="matrix(1.00005,0,0,-1.00003,101.71413,104.130687)" d="M-12.15457 94.90167H-5.1806299V103.52942H-12.15457Z" fill="#ffffff"/>
<use data-text="1" xlink:href="#font_1_82" transform="matrix(9.963098,0,0,-9.962899,90.55557,8.229797)" fill="#ff0000"/>
</svg>
