<svg xmlns="http://www.w3.org/2000/svg" xmlns:xlink="http://www.w3.org/1999/xlink" version="1.1" width="315" height="122" viewBox="0 0 315 122">
<defs>
<path id="font_1_3" d="M.33399964 .30233766C.33999635 .32835389 .36299134 .42037965 .43299867 .42037965 .43798829 .42037965 .46199037 .42037965 .48298646 .40734864 .45498658 .402359 .43499757 .37734986 .43499757 .35334779 .43499757 .33735658 .44599916 .31835938 .47299195 .31835938 .49499513 .31835938 .5269928 .3363495 .5269928 .37635804 .5269928 .42837525 .46798707 .4423828 .43399049 .4423828 .37599183 .4423828 .34098817 .38935853 .32899476 .36634828 .3039856 .43237306 .25 .4423828 .22099304 .4423828 .116989139 .4423828 .05999756 .3133545 .05999756 .28834535 .05999756 .27833558 .069992069 .27833558 .07199097 .27833558 .07998657 .27833558 .08299255 .28033448 .084991458 .28933717 .11898804 .39535523 .18499756 .42037965 .21899414 .42037965 .23799134 .42037965 .272995 .4113617 .272995 .35334779 .272995 .32235719 .2559967 .25532533 .21899414 .11528015 .20298767 .053268434 .16799927 .011245728 .12399292 .011245728 .117996219 .011245728 .09498596 .011245728 .07398987 .024276734 .09899902 .029266358 .12098694 .05027771 .12098694 .07827759 .12098694 .105270389 .09899902 .11328125 .083999637 .11328125 .053985597 .11328125 .0289917 .08728027 .0289917 .055267335 .0289917 .009246826 .07899475-.0107421879 .12298584-.0107421879 .18899536-.0107421879 .22499085 .059280397 .22799683 .0652771 .23999024 .028274537 .27598573-.0107421879 .33599855-.0107421879 .43899537-.0107421879 .49598695 .118270877 .49598695 .14328003 .49598695 .1532898 .4869995 .1532898 .48399354 .1532898 .47499085 .1532898 .47299195 .14929199 .47099305 .14228821 .43798829 .03527832 .36999513 .011245728 .33799745 .011245728 .29899598 .011245728 .2829895 .043273927 .2829895 .07727051 .2829895 .09927368 .2889862 .121276859 .2999878 .16529846L.33399964 .30233766Z"/>
<path id="font_1_4" d="M.48599244 .38136292C.48999024 .39537049 .48999024 .39736939 .48999024 .40437318 .48999024 .42237855 .47599793 .43138124 .46099855 .43138124 .45098878 .43138124 .43499757 .42536927 .42599488 .41036988 .42399598 .405365 .41600038 .37435914 .4119873 .35635377 .40499879 .33035279 .397995 .30334474 .3919983 .27633668L.34700013 .09628296C.34298707 .08126831 .2999878 .011245728 .23399353 .011245728 .18299866 .011245728 .17199707 .055267335 .17199707 .0922699 .17199707 .1382904 .18899536 .20030213 .22299195 .28833009 .23899842 .3293457 .24299622 .3403473 .24299622 .36035157 .24299622 .405365 .21099854 .4423828 .16099549 .4423828 .06599426 .4423828 .0289917 .29733277 .0289917 .28833009 .0289917 .27833558 .038986207 .27833558 .040985109 .27833558 .050994874 .27833558 .051986696 .28033448 .056991579 .29634095 .083999637 .3903656 .12399292 .42037965 .1579895 .42037965 .1659851 .42037965 .18299866 .42037965 .18299866 .3883667 .18299866 .36335755 .17298889 .3373413 .1659851 .31834413 .12599182 .21231079 .10798645 .1552887 .10798645 .10827637 .10798645 .019256592 .17098999-.0107421879 .22999573-.0107421879 .2689972-.0107421879 .30299378 .0062561037 .33099366 .03425598 .31799317-.017745972 .30599977-.06674194 .2659912-.11973572 .23999024-.15385437 .20199585-.18309021 .1559906-.18309021 .14199829-.18309021 .09700012-.18005371 .07998657-.14074707 .09599304-.14074707 .10899353-.14074707 .12298584-.1287384 .1329956-.11973572 .14299011-.10673523 .14299011-.08773804 .14299011-.056747438 .115997318-.052734376 .10598755-.052734376 .08299255-.052734376 .049987794-.068740848 .049987794-.11773682 .049987794-.16796875 .09399414-.20507813 .1559906-.20507813 .25898744-.20507813 .3619995-.11373901 .3899994-.00074768069L.48599244 .38136292Z"/>
<path id="font_2_2" d="M.2939911 .64004519C.2939911 .66400149 .2939911 .6660156 .2709961 .6660156 .20899964 .60227969 .12098694 .60227969 .08898926 .60227969V.57128909C.10899353 .57128909 .16799927 .57128909 .21998596 .5972748V.07902527C.21998596 .042999269 .21699524 .0309906 .1269989 .0309906H.09498596V0C.12998963 .0029907227 .21699524 .0029907227 .25698854 .0029907227 .29699708 .0029907227 .38398744 .0029907227 .4189911 0V.0309906H.3869934C.29699708 .0309906 .2939911 .041992189 .2939911 .07902527V.64004519Z"/>
<path id="font_2_3" d="M.1269989 .07699585 .23298645 .18003845C.3889923 .31811524 .44898988 .3721466 .44898988 .47216798 .44898988 .5860901 .35899354 .6660156 .23699951 .6660156 .12399292 .6660156 .049987794 .57411196 .049987794 .48516847 .049987794 .4291687 .099990848 .4291687 .102996829 .4291687 .11999512 .4291687 .15499878 .44117738 .15499878 .48217774 .15499878 .5081787 .13699341 .5341797 .101989749 .5341797 .09399414 .5341797 .09199524 .5341797 .08898926 .5331726 .11199951 .59806826 .1659851 .63500979 .22399903 .63500979 .31498719 .63500979 .35798646 .5541382 .35798646 .47216798 .35798646 .39215089 .30799867 .31311036 .25299073 .25108338L.06098938 .036987306C.049987794 .025985718 .049987794 .023986817 .049987794 0H.42099L.44898988 .17404175H.42399598C.4189911 .14402771 .4119873 .1000061 .4019928 .084991458 .394989 .07699585 .32899476 .07699585 .30699159 .07699585H.1269989Z"/>
<path id="font_2_4" d="M.2899933 .35191346C.37199403 .37893678 .42999269 .4490509 .42999269 .52809146 .42999269 .6100464 .34199525 .6660156 .24598694 .6660156 .14498902 .6660156 .068984989 .60606387 .068984989 .53009036 .068984989 .49710084 .09098816 .47808839 .11999512 .47808839 .15098572 .47808839 .17098999 .50009158 .17098999 .5290985 .17098999 .57910159 .12399292 .57910159 .10899353 .57910159 .13999939 .62802127 .20599365 .64100649 .24198914 .64100649 .2829895 .64100649 .33799745 .6190338 .33799745 .5290985 .33799745 .51708987 .33599855 .45906068 .30999757 .4149933 .27999879 .36691285 .24598694 .36390687 .22099304 .36291505 .21299744 .36190797 .18899536 .35990907 .18199158 .35990907 .17399597 .35890199 .16699219 .35791017 .16699219 .3479004 .16699219 .33691407 .17399597 .33691407 .19099427 .33691407H.23498535C.31698609 .33691407 .35398866 .2686615 .35398866 .17037964 .35398866 .034469606 .2849884 .0055389406 .24099732 .0055389406 .19799805 .0055389406 .12298584 .022491456 .08799744 .08137512 .12298584 .07637024 .1539917 .09837341 .1539917 .1363678 .1539917 .17237854 .1269989 .19238281 .09799194 .19238281 .07398987 .19238281 .041992189 .17837525 .041992189 .1343689 .041992189 .043441774 .1349945-.022460938 .24398804-.022460938 .3659973-.022460938 .45700074 .06838989 .45700074 .17037964 .45700074 .252594 .3939972 .33088685 .2899933 .35191346Z"/>
<path id="font_2_5" d="M.2939911 .16503906V.07800293C.2939911 .041992189 .2919922 .0309906 .21798706 .0309906H.19699097V0C.23799134 .0029907227 .2899933 .0029907227 .33198548 .0029907227 .37399293 .0029907227 .4269867 .0029907227 .46798707 0V.0309906H.44699098C.37298585 .0309906 .37098695 .041992189 .37098695 .07800293V.16503906H.47099305V.19602967H.37098695V.65075686C.37098695 .67074587 .37098695 .6767578 .35499574 .6767578 .34599305 .6767578 .34298707 .6767578 .33499146 .66474917L.027999878 .19602967V.16503906H.2939911M.2999878 .19602967H.055999757L.2999878 .5688019V.19602967Z"/>
<path id="font_2_6" d="M.44898988 .20022583C.44898988 .3193512 .36698915 .41944886 .25898744 .41944886 .21099854 .41944886 .16799927 .40345765 .13198853 .36842347V.5637665C.1519928 .5577698 .18499756 .55078127 .21699524 .55078127 .33999635 .55078127 .4099884 .6417694 .4099884 .6547699 .4099884 .6607666 .40699769 .6657715 .3999939 .6657715 .39898683 .6657715 .39698792 .6657715 .3919983 .66278079 .37199403 .6537781 .32299806 .6337738 .2559967 .6337738 .21598816 .6337738 .16999817 .6407776 .12298584 .6617737 .114990238 .66477969 .11299133 .66477969 .11099243 .66477969 .100997928 .66477969 .100997928 .6567688 .100997928 .6407776V.34439088C.100997928 .32637025 .100997928 .31835938 .114990238 .31835938 .12199402 .31835938 .12399292 .32136537 .12799073 .32736207 .13899231 .3433838 .17599488 .39746095 .25698854 .39746095 .30899049 .39746095 .33399964 .35139466 .34199525 .33337403 .35798646 .29632569 .3600006 .25727845 .3600006 .20722962 .3600006 .17222595 .3600006 .11222839 .33599855 .07035828 .31199647 .031463624 .2749939 .0055389406 .22898865 .0055389406 .1559906 .0055389406 .09899902 .058380128 .08198547 .11723328 .084991458 .1162262 .08799744 .115234378 .09899902 .115234378 .13198853 .115234378 .14898682 .14022827 .14898682 .16423035 .14898682 .18823242 .13198853 .21322632 .09899902 .21322632 .084991458 .21322632 .049987794 .20622254 .049987794 .16023255 .049987794 .07434082 .11898804-.022460938 .23098755-.022460938 .34700013-.022460938 .44898988 .073349 .44898988 .20022583Z"/>
<path id="font_2_7" d="M.13198853 .327713V.35173036C.13198853 .6047821 .2559967 .64100649 .30699159 .64100649 .33099366 .64100649 .37298585 .634964 .394989 .6007538 .37998963 .6007538 .33999635 .6007538 .33999635 .5557556 .33999635 .524765 .3639984 .5097656 .38598634 .5097656 .4019928 .5097656 .43199159 .51875308 .43199159 .5577545 .43199159 .6178589 .3880005 .6660156 .30499269 .6660156 .1769867 .6660156 .041992189 .5367584 .041992189 .31570436 .041992189 .048553468 .1579895-.022460938 .25099183-.022460938 .3619995-.022460938 .45700074 .07156372 .45700074 .2036438 .45700074 .33070375 .36799623 .4267578 .25698854 .4267578 .18899536 .4267578 .1519928 .37573243 .13198853 .327713M.25099183 .0055389406C.18798828 .0055389406 .1579895 .06556702 .1519928 .080566409 .13398743 .127594 .13398743 .2076416 .13398743 .22564698 .13398743 .30369569 .1659851 .40374757 .2559967 .40374757 .27198792 .40374757 .31799317 .40374757 .34899903 .34172059 .36698915 .30470277 .36698915 .2536621 .36698915 .20463562 .36698915 .15661621 .36698915 .10658264 .34999085 .0705719 .31999208 .010528564 .27398683 .0055389406 .25099183 .0055389406Z"/>
<path id="font_3_1" d="M.6589966 .23046875C.6759949 .23046875 .69400027 .23046875 .69400027 .25045777 .69400027 .27046205 .6759949 .27046205 .6589966 .27046205H.117996219C.100997928 .27046205 .08299255 .27046205 .08299255 .25045777 .08299255 .23046875 .100997928 .23046875 .117996219 .23046875H.6589966Z"/>
<path id="font_2_1" d="M.45999146 .31976319C.45999146 .39982606 .45498658 .47988893 .41999818 .5539398 .37399293 .65000918 .2919922 .6660156 .25 .6660156 .18998719 .6660156 .116989139 .64001467 .07598877 .54693606 .04399109 .47789 .038986207 .39982606 .038986207 .31976319 .038986207 .24472046 .042999269 .15464783 .083999637 .07859802 .1269989-.0024719239 .19999695-.022460938 .24899292-.022460938 .30299378-.022460938 .3789978-.0014648438 .4229889 .09359741 .45498658 .16265869 .45999146 .2407074 .45999146 .31976319M.24899292-.00047302247C.20999146-.00047302247 .15098572 .024551392 .1329956 .12062073 .12199402 .18066406 .12199402 .2727356 .12199402 .3317871 .12199402 .39582826 .12199402 .46188355 .12998963 .5159149 .14898682 .63500979 .22399903 .64401248 .24899292 .64401248 .28199769 .64401248 .34799195 .6259918 .36698915 .52693179 .3769989 .47088624 .3769989 .39482118 .3769989 .3317871 .3769989 .25672914 .3769989 .18867493 .3659973 .12461853 .35099793 .029556275 .2939911-.00047302247 .24899292-.00047302247Z"/>
<path id="font_1_1" d="M.19198609 .052993776C.19198609 .08198547 .16799927 .10598755 .13899231 .10598755 .10998535 .10598755 .085998538 .08198547 .085998538 .052993776 .085998538 .023986817 .10998535 0 .13899231 0 .16799927 0 .19198609 .023986817 .19198609 .052993776Z"/>
<path id="font_1_2" d="M.20599365 .3996582H.2999878C.31999208 .3996582 .32998658 .3996582 .32998658 .41966249 .32998658 .43066407 .31999208 .43066407 .3019867 .43066407H.21398926C.25 .5724945 .25498963 .59246829 .25498963 .59846499 .25498963 .61546328 .24299622 .62545779 .22599793 .62545779 .22299195 .62545779 .19499207 .62446597 .18598938 .58947756L.14698792 .43066407H.052993776C.032989503 .43066407 .022994996 .43066407 .022994996 .4116516 .022994996 .3996582 .0309906 .3996582 .050994874 .3996582H.13899231C.066986087 .11608887 .06298828 .099121097 .06298828 .08114624 .06298828 .02722168 .100997928-.0107421879 .15499878-.0107421879 .25698854-.0107421879 .31399537 .13505554 .31399537 .14305115 .31399537 .1530304 .30599977 .1530304 .3019867 .1530304 .29299928 .1530304 .2919922 .15003968 .2869873 .13905335 .24398804 .035217287 .19099427 .011245728 .15699768 .011245728 .13598633 .011245728 .12599182 .024230957 .12599182 .057174684 .12599182 .08114624 .12799073 .088134769 .13198853 .10510254L.20599365 .3996582Z"/>
</defs>
<path transform="matrix(1.00003,0,0,-1.00005,55.363145,66.29466)" stroke-width=".3985" stroke-linecap="butt" stroke-miterlimit="10" stroke-linejoin="miter" fill="none" stroke="#00aeef" d="M-45.3599-45.35776H45.35506M-45.3599-40.82198H45.35506M-45.3599-36.28621H45.35506M-45.3599-31.75041H45.35506M-45.3599-27.21465H45.35506M-45.3599-22.67886H45.35506M-45.3599-18.1431H45.35506M-45.3599-13.60732H45.35506M-45.3599-9.07155H45.35506M-45.3599-4.53577H45.35506M-45.3599 0H45.35506M-45.3599 4.53577H45.35506M-45.3599 9.07155H45.35506M-45.3599 13.60732H45.35506M-45.3599 18.1431H45.35506M-45.3599 22.67886H45.35506M-45.3599 27.21465H45.35506M-45.3599 31.75041H45.35506M-45.3599 36.28621H45.35506M-45.3599 40.82198H45.35506M-45.3599 45.34183H45.35506M-45.35776-45.3599V45.35506M-40.82198-45.3599V45.35506M-36.28621-45.3599V45.35506M-31.75041-45.3599V45.35506M-27.21465-45.3599V45.35506M-22.67886-45.3599V45.35506M-18.1431-45.3599V45.35506M-13.60732-45.3599V45.35506M-9.07155-45.3599V45.35506M-4.53577-45.3599V45.35506M0-45.3599V45.35506M4.53577-45.3599V45.35506M9.07155-45.3599V45.35506M13.60732-45.3599V45.35506M18.1431-45.3599V45.35506M22.67886-45.3599V45.35506M27.21465-45.3599V45.35506M31.75041-45.3599V45.35506M36.28621-45.3599V45.35506M40.82198-45.3599V45.35506M45.34183-45.3599V45.35506M45.35506 45.35506"/>
<path transform="matrix(1.00003,0,0,-1.00005,55.363145,66.29466)" stroke-width=".79701" stroke-linecap="butt" stroke-miterlimit="10" stroke-linejoin="miter" fill="none" stroke="#000000" d="M-45.35506 0H50.72342"/>
<path transform="matrix(1.00003,0,0,-1.00005,106.08809,66.29466)" d="M1.0361 0C-.25902 .25902-1.55415 .77707-3.1083 1.68365-1.55415 .51805-1.55415-.51805-3.1083-1.68365-1.55415-.77707-.25902-.25902 1.0361 0Z"/>
<path transform="matrix(1.00003,0,0,-1.00005,106.08809,66.29466)" stroke-width=".79701" stroke-linecap="butt" stroke-linejoin="round" fill="none" stroke="#000000" d="M1.0361 0C-.25902 .25902-1.55415 .77707-3.1083 1.68365-1.55415 .51805-1.55415-.51805-3.1083-1.68365-1.55415-.77707-.25902-.25902 1.0361 0Z"/>
<use data-text="x" xlink:href="#font_1_3" transform="matrix(9.962899,0,0,-9.963098,109.249759,68.43977)"/>
<path transform="matrix(1.00003,0,0,-1.00005,55.363145,66.29466)" stroke-width=".79701" stroke-linecap="butt" stroke-miterlimit="10" stroke-linejoin="miter" fill="none" stroke="#000000" d="M0-45.35506V52.99132"/>
<path transform="matrix(0,-1.00005,-1.00003,-0,55.363145,13.3006939)" d="M1.0361 0C-.25902 .25902-1.55415 .77707-3.1083 1.68365-1.55415 .51805-1.55415-.51805-3.1083-1.68365-1.55415-.77707-.25902-.25902 1.0361 0Z"/>
<path transform="matrix(0,-1.00005,-1.00003,-0,55.363145,13.3006939)" stroke-width=".79701" stroke-linecap="butt" stroke-linejoin="round" fill="none" stroke="#000000" d="M1.0361 0C-.25902 .25902-1.55415 .77707-3.1083 1.68365-1.55415 .51805-1.55415-.51805-3.1083-1.68365-1.55415-.77707-.25902-.25902 1.0361 0Z"/>
<use data-text="y" xlink:href="#font_1_4" transform="matrix(9.962899,0,0,-9.963098,52.742067,6.2096598)"/>
<path transform="matrix(1.00003,0,0,-1.00005,55.363145,66.29466)" stroke-width=".79701" stroke-linecap="butt" stroke-miterlimit="10" stroke-linejoin="miter" fill="none" stroke="#ff0000" d="M45.35506 0C45.35506 25.04922 25.04922 45.35506 0 45.35506-25.04922 45.35506-45.35506 25.04922-45.35506 0-45.35506-25.04922-25.04922-45.35506 0-45.35506 25.04922-45.35506 45.35506-25.04922 45.35506 0ZM0 0"/>
<path transform="matrix(1.00003,0,0,-1.00005,55.363145,66.29466)" stroke-width=".79701" stroke-linecap="butt" stroke-miterlimit="10" stroke-linejoin="miter" fill="none" stroke="#000000" d="M44.22284 4.43611 46.02843 4.61673"/>
<path transform="matrix(1.00003,0,0,-1.00005,55.363145,66.29466)" stroke-width=".79701" stroke-linecap="butt" stroke-miterlimit="10" stroke-linejoin="miter" fill="none" stroke="#000000" d="M43.55914 8.82861 45.33705 9.1892"/>
<path transform="matrix(1.00003,0,0,-1.00005,55.363145,66.29466)" stroke-width=".79701" stroke-linecap="butt" stroke-miterlimit="10" stroke-linejoin="miter" fill="none" stroke="#000000" d="M42.46083 13.13326 44.19444 13.66962"/>
<path transform="matrix(1.00003,0,0,-1.00005,55.363145,66.29466)" stroke-width=".79701" stroke-linecap="butt" stroke-miterlimit="10" stroke-linejoin="miter" fill="none" stroke="#000000" d="M40.9376 17.3064 42.60893 18.01302"/>
<path transform="matrix(1.00003,0,0,-1.00005,55.363145,66.29466)" stroke-width=".79701" stroke-linecap="butt" stroke-miterlimit="10" stroke-linejoin="miter" fill="none" stroke="#000000" d="M39.00467 21.30652 40.5971 22.17644"/>
<path transform="matrix(1.00003,0,0,-1.00005,55.363145,66.29466)" stroke-width=".79701" stroke-linecap="butt" stroke-miterlimit="10" stroke-linejoin="miter" fill="none" stroke="#000000" d="M36.68349 25.09352 38.18042 26.11845"/>
<path transform="matrix(1.00003,0,0,-1.00005,55.363145,66.29466)" stroke-width=".79701" stroke-linecap="butt" stroke-miterlimit="10" stroke-linejoin="miter" fill="none" stroke="#000000" d="M33.99551 28.63132 35.3831 29.80023"/>
<path transform="matrix(1.00003,0,0,-1.00005,55.363145,66.29466)" stroke-width=".79701" stroke-linecap="butt" stroke-miterlimit="10" stroke-linejoin="miter" fill="none" stroke="#000000" d="M30.96704 31.88194 32.23145 33.18372"/>
<path transform="matrix(1.00003,0,0,-1.00005,55.363145,66.29466)" stroke-width=".79701" stroke-linecap="butt" stroke-miterlimit="10" stroke-linejoin="miter" fill="none" stroke="#000000" d="M27.62993 34.81352 28.75728 36.23434"/>
<path transform="matrix(1.00003,0,0,-1.00005,55.363145,66.29466)" stroke-width=".79701" stroke-linecap="butt" stroke-miterlimit="10" stroke-linejoin="miter" fill="none" stroke="#000000" d="M24.01598 37.397 24.99661 38.9244"/>
<path transform="matrix(1.00003,0,0,-1.00005,55.363145,66.29466)" stroke-width=".79701" stroke-linecap="butt" stroke-miterlimit="10" stroke-linejoin="miter" fill="none" stroke="#000000" d="M20.16394 39.60954 20.9868 41.2269"/>
<path transform="matrix(1.00003,0,0,-1.00005,55.363145,66.29466)" stroke-width=".79701" stroke-linecap="butt" stroke-miterlimit="10" stroke-linejoin="miter" fill="none" stroke="#000000" d="M16.10776 41.42342 16.7659 43.11415"/>
<path transform="matrix(1.00003,0,0,-1.00005,55.363145,66.29466)" stroke-width=".79701" stroke-linecap="butt" stroke-miterlimit="10" stroke-linejoin="miter" fill="none" stroke="#000000" d="M11.89308 42.82416 12.37822 44.57301"/>
<path transform="matrix(1.00003,0,0,-1.00005,55.363145,66.29466)" stroke-width=".79701" stroke-linecap="butt" stroke-miterlimit="10" stroke-linejoin="miter" fill="none" stroke="#000000" d="M7.55867 43.79858 7.86667 45.5862"/>
<path transform="matrix(1.00003,0,0,-1.00005,55.363145,66.29466)" stroke-width=".79701" stroke-linecap="butt" stroke-miterlimit="10" stroke-linejoin="miter" fill="none" stroke="#000000" d="M3.14885 44.33493 3.27689 46.14468"/>
<path transform="matrix(1.00003,0,0,-1.00005,55.363145,66.29466)" stroke-width=".79701" stroke-linecap="butt" stroke-miterlimit="10" stroke-linejoin="miter" fill="none" stroke="#000000" d="M-1.29066 44.4263-1.34396 46.2402"/>
<path transform="matrix(1.00003,0,0,-1.00005,55.363145,66.29466)" stroke-width=".79701" stroke-linecap="butt" stroke-miterlimit="10" stroke-linejoin="miter" fill="none" stroke="#000000" d="M-5.7192 44.07541-5.95242 45.87547"/>
<path transform="matrix(1.00003,0,0,-1.00005,55.363145,66.29466)" stroke-width=".79701" stroke-linecap="butt" stroke-miterlimit="10" stroke-linejoin="miter" fill="none" stroke="#000000" d="M-10.09094 43.28577-10.50272 45.05263"/>
<path transform="matrix(1.00003,0,0,-1.00005,55.363145,66.29466)" stroke-width=".79701" stroke-linecap="butt" stroke-miterlimit="10" stroke-linejoin="miter" fill="none" stroke="#000000" d="M-14.36168 42.0622-14.94785 43.77922"/>
<path transform="matrix(1.00003,0,0,-1.00005,55.363145,66.29466)" stroke-width=".79701" stroke-linecap="butt" stroke-miterlimit="10" stroke-linejoin="miter" fill="none" stroke="#000000" d="M-18.48845 40.41649-19.24348 42.06706"/>
<path transform="matrix(1.00003,0,0,-1.00005,55.363145,66.29466)" stroke-width=".79701" stroke-linecap="butt" stroke-miterlimit="10" stroke-linejoin="miter" fill="none" stroke="#000000" d="M-22.43114 38.36935-23.34674 39.9355"/>
<path transform="matrix(1.00003,0,0,-1.00005,55.363145,66.29466)" stroke-width=".79701" stroke-linecap="butt" stroke-miterlimit="10" stroke-linejoin="miter" fill="none" stroke="#000000" d="M-26.14958 35.93951-27.21745 37.40738"/>
<path transform="matrix(1.00003,0,0,-1.00005,55.363145,66.29466)" stroke-width=".79701" stroke-linecap="butt" stroke-miterlimit="10" stroke-linejoin="miter" fill="none" stroke="#000000" d="M-29.60646 33.14911-30.81548 34.50212"/>
<path transform="matrix(1.00003,0,0,-1.00005,55.363145,66.29466)" stroke-width=".79701" stroke-linecap="butt" stroke-miterlimit="10" stroke-linejoin="miter" fill="none" stroke="#000000" d="M-32.7671 30.02792-34.10487 31.25354"/>
<path transform="matrix(1.00003,0,0,-1.00005,55.363145,66.29466)" stroke-width=".79701" stroke-linecap="butt" stroke-miterlimit="10" stroke-linejoin="miter" fill="none" stroke="#000000" d="M-35.6011 26.60706-37.05513 27.69289"/>
<path transform="matrix(1.00003,0,0,-1.00005,55.363145,66.29466)" stroke-width=".79701" stroke-linecap="butt" stroke-miterlimit="10" stroke-linejoin="miter" fill="none" stroke="#000000" d="M-38.08006 22.92043-39.63515 23.85678"/>
<path transform="matrix(1.00003,0,0,-1.00005,55.363145,66.29466)" stroke-width=".79701" stroke-linecap="butt" stroke-miterlimit="10" stroke-linejoin="miter" fill="none" stroke="#000000" d="M-40.17703 19.00333-41.81792 19.77914"/>
<path transform="matrix(1.00003,0,0,-1.00005,55.363145,66.29466)" stroke-width=".79701" stroke-linecap="butt" stroke-miterlimit="10" stroke-linejoin="miter" fill="none" stroke="#000000" d="M-41.87328 14.89871-43.58334 15.50703"/>
<path transform="matrix(1.00003,0,0,-1.00005,55.363145,66.29466)" stroke-width=".79701" stroke-linecap="butt" stroke-miterlimit="10" stroke-linejoin="miter" fill="none" stroke="#000000" d="M-43.15358 10.64392-44.9149 11.07784"/>
<path transform="matrix(1.00003,0,0,-1.00005,55.363145,66.29466)" stroke-width=".79701" stroke-linecap="butt" stroke-miterlimit="10" stroke-linejoin="miter" fill="none" stroke="#000000" d="M-43.99997 6.28253-45.7959 6.53928"/>
<path transform="matrix(1.00003,0,0,-1.00005,55.363145,66.29466)" stroke-width=".79701" stroke-linecap="butt" stroke-miterlimit="10" stroke-linejoin="miter" fill="none" stroke="#000000" d="M-44.40623 1.85886-46.21875 1.9343"/>
<path transform="matrix(1.00003,0,0,-1.00005,55.363145,66.29466)" stroke-width=".79701" stroke-linecap="butt" stroke-miterlimit="10" stroke-linejoin="miter" fill="none" stroke="#000000" d="M-44.37024-2.58136-46.18137-2.68726"/>
<path transform="matrix(1.00003,0,0,-1.00005,55.363145,66.29466)" stroke-width=".79701" stroke-linecap="butt" stroke-miterlimit="10" stroke-linejoin="miter" fill="none" stroke="#000000" d="M-43.89201-6.99742-45.68378-7.28325"/>
<path transform="matrix(1.00003,0,0,-1.00005,55.363145,66.29466)" stroke-width=".79701" stroke-linecap="butt" stroke-miterlimit="10" stroke-linejoin="miter" fill="none" stroke="#000000" d="M-42.97296-11.34428-44.72734-11.80728"/>
<path transform="matrix(1.00003,0,0,-1.00005,55.363145,66.29466)" stroke-width=".79701" stroke-linecap="butt" stroke-miterlimit="10" stroke-linejoin="miter" fill="none" stroke="#000000" d="M-41.6262-15.57762-43.32524-16.21364"/>
<path transform="matrix(1.00003,0,0,-1.00005,55.363145,66.29466)" stroke-width=".79701" stroke-linecap="butt" stroke-miterlimit="10" stroke-linejoin="miter" fill="none" stroke="#000000" d="M-39.86284-19.65527-41.48987-20.45737"/>
<path transform="matrix(1.00003,0,0,-1.00005,55.363145,66.29466)" stroke-width=".79701" stroke-linecap="butt" stroke-miterlimit="10" stroke-linejoin="miter" fill="none" stroke="#000000" d="M-37.70221-23.53636-39.24203-24.49765"/>
<path transform="matrix(1.00003,0,0,-1.00005,55.363145,66.29466)" stroke-width=".79701" stroke-linecap="butt" stroke-miterlimit="10" stroke-linejoin="miter" fill="none" stroke="#000000" d="M-35.1637-27.18214-36.59975-28.29153"/>
<path transform="matrix(1.00003,0,0,-1.00005,55.363145,66.29466)" stroke-width=".79701" stroke-linecap="butt" stroke-miterlimit="10" stroke-linejoin="miter" fill="none" stroke="#000000" d="M-32.27434-30.55664-33.59135-31.80444"/>
<path transform="matrix(1.00003,0,0,-1.00005,55.363145,66.29466)" stroke-width=".79701" stroke-linecap="butt" stroke-miterlimit="10" stroke-linejoin="miter" fill="none" stroke="#000000" d="M-29.06317-33.62665-30.25006-34.99901"/>
<path transform="matrix(1.00003,0,0,-1.00005,55.363145,66.29466)" stroke-width=".79701" stroke-linecap="butt" stroke-miterlimit="10" stroke-linejoin="miter" fill="none" stroke="#000000" d="M-25.56134-36.35962-26.60428-37.84409"/>
<path transform="matrix(1.00003,0,0,-1.00005,55.363145,66.29466)" stroke-width=".79701" stroke-linecap="butt" stroke-miterlimit="10" stroke-linejoin="miter" fill="none" stroke="#000000" d="M-21.80412-38.72922-22.6948-40.31058"/>
<path transform="matrix(1.00003,0,0,-1.00005,55.363145,66.29466)" stroke-width=".79701" stroke-linecap="butt" stroke-miterlimit="10" stroke-linejoin="miter" fill="none" stroke="#000000" d="M-17.8289-40.71199-18.55627-42.37364"/>
<path transform="matrix(1.00003,0,0,-1.00005,55.363145,66.29466)" stroke-width=".79701" stroke-linecap="butt" stroke-miterlimit="10" stroke-linejoin="miter" fill="none" stroke="#000000" d="M-13.67516-42.29059-14.23364-44.01727"/>
<path transform="matrix(1.00003,0,0,-1.00005,55.363145,66.29466)" stroke-width=".79701" stroke-linecap="butt" stroke-miterlimit="10" stroke-linejoin="miter" fill="none" stroke="#000000" d="M-9.38574-43.44289-9.76845-45.21663"/>
<path transform="matrix(1.00003,0,0,-1.00005,55.363145,66.29466)" stroke-width=".79701" stroke-linecap="butt" stroke-miterlimit="10" stroke-linejoin="miter" fill="none" stroke="#000000" d="M-5.00151-44.1633-5.20567-45.96613"/>
<path transform="matrix(1.00003,0,0,-1.00005,55.363145,66.29466)" stroke-width=".79701" stroke-linecap="butt" stroke-miterlimit="10" stroke-linejoin="miter" fill="none" stroke="#000000" d="M-.56885-44.4422-.5917-46.25612"/>
<path transform="matrix(1.00003,0,0,-1.00005,55.363145,66.29466)" stroke-width=".79701" stroke-linecap="butt" stroke-miterlimit="10" stroke-linejoin="miter" fill="none" stroke="#000000" d="M3.86859-44.27818 4.02708-46.08517"/>
<path transform="matrix(1.00003,0,0,-1.00005,55.363145,66.29466)" stroke-width=".79701" stroke-linecap="butt" stroke-miterlimit="10" stroke-linejoin="miter" fill="none" stroke="#000000" d="M8.27014-43.66849 8.60716-45.45193"/>
<path transform="matrix(1.00003,0,0,-1.00005,55.363145,66.29466)" stroke-width=".79701" stroke-linecap="butt" stroke-miterlimit="10" stroke-linejoin="miter" fill="none" stroke="#000000" d="M12.58722-42.62483 13.10143-44.36539"/>
<path transform="matrix(1.00003,0,0,-1.00005,55.363145,66.29466)" stroke-width=".79701" stroke-linecap="butt" stroke-miterlimit="10" stroke-linejoin="miter" fill="none" stroke="#000000" d="M16.78044-41.1563 17.46489-42.83594"/>
<path transform="matrix(1.00003,0,0,-1.00005,55.363145,66.29466)" stroke-width=".79701" stroke-linecap="butt" stroke-miterlimit="10" stroke-linejoin="miter" fill="none" stroke="#000000" d="M20.80478-39.27527 21.65393-40.87877"/>
<path transform="matrix(1.00003,0,0,-1.00005,55.363145,66.29466)" stroke-width=".79701" stroke-linecap="butt" stroke-miterlimit="10" stroke-linejoin="miter" fill="none" stroke="#000000" d="M24.6215-37.00113 25.62709-38.51192"/>
<path transform="matrix(1.00003,0,0,-1.00005,55.363145,66.29466)" stroke-width=".79701" stroke-linecap="butt" stroke-miterlimit="10" stroke-linejoin="miter" fill="none" stroke="#000000" d="M28.19186-34.35815 29.34276-35.76096"/>
<path transform="matrix(1.00003,0,0,-1.00005,55.363145,66.29466)" stroke-width=".79701" stroke-linecap="butt" stroke-miterlimit="10" stroke-linejoin="miter" fill="none" stroke="#000000" d="M31.48262-31.37398 32.76779-32.65498"/>
<path transform="matrix(1.00003,0,0,-1.00005,55.363145,66.29466)" stroke-width=".79701" stroke-linecap="butt" stroke-miterlimit="10" stroke-linejoin="miter" fill="none" stroke="#000000" d="M34.45644-28.07353 35.86339-29.22026"/>
<path transform="matrix(1.00003,0,0,-1.00005,55.363145,66.29466)" stroke-width=".79701" stroke-linecap="butt" stroke-miterlimit="10" stroke-linejoin="miter" fill="none" stroke="#000000" d="M37.08696-24.49348 38.60051-25.49352"/>
<path transform="matrix(1.00003,0,0,-1.00005,55.363145,66.29466)" stroke-width=".79701" stroke-linecap="butt" stroke-miterlimit="10" stroke-linejoin="miter" fill="none" stroke="#000000" d="M39.34656-20.66913 40.95284-21.51277"/>
<path transform="matrix(1.00003,0,0,-1.00005,55.363145,66.29466)" stroke-width=".79701" stroke-linecap="butt" stroke-miterlimit="10" stroke-linejoin="miter" fill="none" stroke="#000000" d="M41.21443-16.63857 42.89684-17.31749"/>
<path transform="matrix(1.00003,0,0,-1.00005,55.363145,66.29466)" stroke-width=".79701" stroke-linecap="butt" stroke-miterlimit="10" stroke-linejoin="miter" fill="none" stroke="#000000" d="M42.66776-12.4412 44.40968-12.94847"/>
<path transform="matrix(1.00003,0,0,-1.00005,55.363145,66.29466)" stroke-width=".79701" stroke-linecap="butt" stroke-miterlimit="10" stroke-linejoin="miter" fill="none" stroke="#000000" d="M43.69754-8.11858 45.481-8.45006"/>
<path transform="matrix(1.00003,0,0,-1.00005,55.363145,66.29466)" stroke-width=".79701" stroke-linecap="butt" stroke-miterlimit="10" stroke-linejoin="miter" fill="none" stroke="#000000" d="M44.28926-3.71704 46.09763-3.86859"/>
<path transform="matrix(1.00003,0,0,-1.00005,55.363145,66.29466)" stroke-width=".79701" stroke-linecap="butt" stroke-miterlimit="10" stroke-linejoin="miter" fill="none" stroke="#000000" d="M24.50455 38.16313 25.72952 40.07115"/>
<path transform="matrix(1.00003,0,0,-1.00005,55.363145,66.29466)" d="M24.34848 39.68068H32.0103V48.09366H24.34848Z" fill="#ffffff"/>
<use data-text="1" xlink:href="#font_2_2" transform="matrix(9.962899,0,0,-9.963098,80.70891,25.615632)"/>
<path transform="matrix(1.00003,0,0,-1.00005,55.363145,66.29466)" stroke-width=".79701" stroke-linecap="butt" stroke-miterlimit="10" stroke-linejoin="miter" fill="none" stroke="#000000" d="M-18.87323 41.23866-19.8165 43.30031"/>
<path transform="matrix(1.00003,0,0,-1.00005,55.363145,66.29466)" d="M-25.5347 43.21713H-17.87288V51.630109H-25.5347Z" fill="#ffffff"/>
<use data-text="2" xlink:href="#font_2_3" transform="matrix(9.962899,0,0,-9.963098,30.82441,22.079453)"/>
<path transform="matrix(1.00003,0,0,-1.00005,55.363145,66.29466)" stroke-width=".79701" stroke-linecap="butt" stroke-miterlimit="10" stroke-linejoin="miter" fill="none" stroke="#000000" d="M-44.89967 6.40016-47.14471 6.71992"/>
<path transform="matrix(1.00003,0,0,-1.00005,55.363145,66.29466)" d="M-55.46503 3.15356H-47.80321V11.56654H-55.46503Z" fill="#ffffff"/>
<use data-text="3" xlink:href="#font_2_4" transform="matrix(9.962899,0,0,-9.963098,.89250186,62.144456)"/>
<path transform="matrix(1.00003,0,0,-1.00005,55.363145,66.29466)" stroke-width=".79701" stroke-linecap="butt" stroke-miterlimit="10" stroke-linejoin="miter" fill="none" stroke="#000000" d="M-29.6452-34.32355-31.12692-36.03917"/>
<path transform="matrix(1.00003,0,0,-1.00005,55.363145,66.29466)" d="M-37.92262-43.67831H-30.2608V-35.26533H-37.92262Z" fill="#ffffff"/>
<use data-text="4" xlink:href="#font_2_5" transform="matrix(9.962899,0,0,-9.963098,18.436036,108.97879)"/>
<path transform="matrix(1.00003,0,0,-1.00005,55.363145,66.29466)" stroke-width=".79701" stroke-linecap="butt" stroke-miterlimit="10" stroke-linejoin="miter" fill="none" stroke="#000000" d="M12.86404-43.48923 13.50697-45.6637"/>
<path transform="matrix(1.00003,0,0,-1.00005,55.363145,66.29466)" d="M10.9626-54.21843H18.62442V-45.80545H10.9626Z" fill="#ffffff"/>
<use data-text="5" xlink:href="#font_2_6" transform="matrix(9.962899,0,0,-9.963098,67.3225,119.51932)"/>
<path transform="matrix(1.00003,0,0,-1.00005,55.363145,66.29466)" stroke-width=".79701" stroke-linecap="butt" stroke-miterlimit="10" stroke-linejoin="miter" fill="none" stroke="#000000" d="M43.54666-12.67165 45.7239-13.30489"/>
<path transform="matrix(1.00003,0,0,-1.00005,55.363145,66.29466)" d="M46.24745-18.77853H53.90927V-10.36555H46.24745Z" fill="#ffffff"/>
<use data-text="6" xlink:href="#font_2_7" transform="matrix(9.962899,0,0,-9.963098,102.60857,84.07755)"/>
<path transform="matrix(1.00003,0,0,-1.00005,55.363145,66.29466)" stroke-width=".79701" stroke-linecap="butt" stroke-miterlimit="10" stroke-linejoin="miter" fill="none" stroke="#000000" d="M1.36058-22.67752H-1.36058"/>
<path transform="matrix(1.00003,0,0,-1.00005,55.363145,66.29466)" d="M-3.71179-18.51808H-23.93611V-26.83693H-3.71179ZM-23.93611-26.83693" fill="#ffffff"/>
<use data-text="&#x2212;" xlink:href="#font_3_1" transform="matrix(8.966609,0,0,-8.966787,32.323358,91.48922)"/>
<use data-text="0" xlink:href="#font_2_1" transform="matrix(8.966609,0,0,-8.966787,39.297655,91.48922)"/>
<use data-text="." xlink:href="#font_1_1" transform="matrix(8.966609,0,0,-8.966787,43.7807,91.48922)"/>
<use data-text="5" xlink:href="#font_2_6" transform="matrix(8.966609,0,0,-8.966787,46.271074,91.48922)"/>
<path transform="matrix(1.00003,0,0,-1.00005,55.363145,66.29466)" stroke-width=".79701" stroke-linecap="butt" stroke-miterlimit="10" stroke-linejoin="miter" fill="none" stroke="#000000" d="M-22.67752 1.36058V-1.36058"/>
<path transform="matrix(1.00003,0,0,-1.00005,55.363145,66.29466)" d="M-12.56535-3.71178H-32.78967V-12.03062H-12.56535ZM-32.78967-12.03062" fill="#ffffff"/>
<use data-text="&#x2212;" xlink:href="#font_3_1" transform="matrix(8.966609,0,0,-8.966787,23.469094,76.68148)"/>
<use data-text="0" xlink:href="#font_2_1" transform="matrix(8.966609,0,0,-8.966787,30.44339,76.68148)"/>
<use data-text="." xlink:href="#font_1_1" transform="matrix(8.966609,0,0,-8.966787,34.926439,76.68148)"/>
<use data-text="5" xlink:href="#font_2_6" transform="matrix(8.966609,0,0,-8.966787,37.41681,76.68148)"/>
<path transform="matrix(1.00003,0,0,-1.00005,55.363145,66.29466)" stroke-width=".79701" stroke-linecap="butt" stroke-miterlimit="10" stroke-linejoin="miter" fill="none" stroke="#000000" d="M1.36058 22.67752H-1.36058"/>
<path transform="matrix(1.00003,0,0,-1.00005,55.363145,66.29466)" d="M-3.71178 26.46333H-16.96219V18.89171H-3.71178ZM-16.96219 18.89171" fill="#ffffff"/>
<use data-text="0" xlink:href="#font_2_1" transform="matrix(8.966609,0,0,-8.966787,39.29757,46.504976)"/>
<use data-text="." xlink:href="#font_1_1" transform="matrix(8.966609,0,0,-8.966787,43.78061,46.504976)"/>
<use data-text="5" xlink:href="#font_2_6" transform="matrix(8.966609,0,0,-8.966787,46.27188,46.504976)"/>
<path transform="matrix(1.00003,0,0,-1.00005,55.363145,66.29466)" stroke-width=".79701" stroke-linecap="butt" stroke-miterlimit="10" stroke-linejoin="miter" fill="none" stroke="#000000" d="M22.67752 1.36058V-1.36058"/>
<path transform="matrix(1.00003,0,0,-1.00005,55.363145,66.29466)" d="M29.30272-3.71178H16.0523V-11.28342H29.30272ZM16.0523-11.28342" fill="#ffffff"/>
<use data-text="0" xlink:href="#font_2_1" transform="matrix(8.966609,0,0,-8.966787,72.31256,76.68148)"/>
<use data-text="." xlink:href="#font_1_1" transform="matrix(8.966609,0,0,-8.966787,76.7956,76.68148)"/>
<use data-text="5" xlink:href="#font_2_6" transform="matrix(8.966609,0,0,-8.966787,79.28687,76.68148)"/>
<path transform="matrix(1.00003,0,0,-1.00005,55.363145,66.29466)" stroke-width=".3985" stroke-linecap="butt" stroke-miterlimit="10" stroke-linejoin="miter" fill="none" stroke="#00aeef" d="M68.02774-45.35776H244.91707M68.02774-40.82198H244.91707M68.02774-36.28621H244.91707M68.02774-31.75041H244.91707M68.02774-27.21465H244.91707M68.02774-22.67886H244.91707M68.02774-18.1431H244.91707M68.02774-13.60732H244.91707M68.02774-9.07155H244.91707M68.02774-4.53577H244.91707M68.02774 0H244.91707M68.02774 4.53577H244.91707M68.02774 9.07155H244.91707M68.02774 13.60732H244.91707M68.02774 18.1431H244.91707M68.02774 22.67886H244.91707M68.02774 27.21465H244.91707M68.02774 31.75041H244.91707M68.02774 36.28621H244.91707M68.02774 40.82198H244.91707M68.02774 45.34183H244.91707M68.03323-45.3599V45.35506M81.63988-45.3599V45.35506M95.24652-45.3599V45.35506M108.85318-45.3599V45.35506M122.45984-45.3599V45.35506M136.06649-45.3599V45.35506M149.67313-45.3599V45.35506M163.27977-45.3599V45.35506M176.88643-45.3599V45.35506M190.49308-45.3599V45.35506M204.09973-45.3599V45.35506M217.70639-45.3599V45.35506M231.31302-45.3599V45.35506M244.90375-45.3599V45.35506M244.91707 45.35506"/>
<path transform="matrix(1.00003,0,0,-1.00005,55.363145,66.29466)" stroke-width=".79701" stroke-linecap="butt" stroke-miterlimit="10" stroke-linejoin="miter" fill="none" stroke="#000000" d="M65.76468 0H250.28614"/>
<path transform="matrix(1.00003,0,0,-1.00005,305.6568,66.29466)" d="M1.0361 0C-.25902 .25902-1.55415 .77707-3.1083 1.68365-1.55415 .51805-1.55415-.51805-3.1083-1.68365-1.55415-.77707-.25902-.25902 1.0361 0Z"/>
<path transform="matrix(1.00003,0,0,-1.00005,305.6568,66.29466)" stroke-width=".79701" stroke-linecap="butt" stroke-linejoin="round" fill="none" stroke="#000000" d="M1.0361 0C-.25902 .25902-1.55415 .77707-3.1083 1.68365-1.55415 .51805-1.55415-.51805-3.1083-1.68365-1.55415-.77707-.25902-.25902 1.0361 0Z"/>
<use data-text="t" xlink:href="#font_1_2" transform="matrix(9.962899,0,0,-9.963098,310.81083,69.35882)"/>
<path transform="matrix(1.00003,0,0,-1.00005,55.363145,66.29466)" stroke-width=".79701" stroke-linecap="butt" stroke-miterlimit="10" stroke-linejoin="miter" fill="none" stroke="#000000" d="M68.03258-45.35506V52.99132"/>
<path transform="matrix(0,-1.00005,-1.00003,-0,123.397769,13.3006939)" d="M1.0361 0C-.25902 .25902-1.55415 .77707-3.1083 1.68365-1.55415 .51805-1.55415-.51805-3.1083-1.68365-1.55415-.77707-.25902-.25902 1.0361 0Z"/>
<path transform="matrix(0,-1.00005,-1.00003,-0,123.397769,13.3006939)" stroke-width=".79701" stroke-linecap="butt" stroke-linejoin="round" fill="none" stroke="#000000" d="M1.0361 0C-.25902 .25902-1.55415 .77707-3.1083 1.68365-1.55415 .51805-1.55415-.51805-3.1083-1.68365-1.55415-.77707-.25902-.25902 1.0361 0Z"/>
<use data-text="y" xlink:href="#font_1_4" transform="matrix(9.962899,0,0,-9.963098,120.777118,8.201759)"/>
<path transform="matrix(1.00003,0,0,-1.00005,55.363145,66.29466)" stroke-width=".3985" stroke-linecap="butt" stroke-miterlimit="10" stroke-linejoin="miter" fill="none" stroke="#000000" d="M95.24591 2.26785V-2.26788"/>
<path transform="matrix(1.00003,0,0,-1.00005,55.363145,66.29466)" d="M98.38416-4.43976H92.10765V-12.0114H98.38416ZM92.10765-12.0114" fill="#ffffff"/>
<use data-text="1" xlink:href="#font_2_2" transform="matrix(8.966609,0,0,-8.966787,148.36985,77.409519)"/>
<path transform="matrix(1.00003,0,0,-1.00005,55.363145,66.29466)" stroke-width=".3985" stroke-linecap="butt" stroke-miterlimit="10" stroke-linejoin="miter" fill="none" stroke="#000000" d="M122.45923 2.26785V-2.26788"/>
<path transform="matrix(1.00003,0,0,-1.00005,55.363145,66.29466)" d="M125.59747-4.43976H119.32097V-12.0114H125.59747ZM119.32097-12.0114" fill="#ffffff"/>
<use data-text="2" xlink:href="#font_2_3" transform="matrix(8.966609,0,0,-8.966787,175.58466,77.409519)"/>
<path transform="matrix(1.00003,0,0,-1.00005,55.363145,66.29466)" stroke-width=".3985" stroke-linecap="butt" stroke-miterlimit="10" stroke-linejoin="miter" fill="none" stroke="#000000" d="M149.67252 2.26785V-2.26788"/>
<path transform="matrix(1.00003,0,0,-1.00005,55.363145,66.29466)" d="M152.81076-4.43976H146.53427V-12.0114H152.81076ZM146.53427-12.0114" fill="#ffffff"/>
<use data-text="3" xlink:href="#font_2_4" transform="matrix(8.966609,0,0,-8.966787,202.79846,77.409519)"/>
<path transform="matrix(1.00003,0,0,-1.00005,55.363145,66.29466)" stroke-width=".3985" stroke-linecap="butt" stroke-miterlimit="10" stroke-linejoin="miter" fill="none" stroke="#000000" d="M176.88585 2.26785V-2.26788"/>
<path transform="matrix(1.00003,0,0,-1.00005,55.363145,66.29466)" d="M180.0241-4.43976H173.7476V-12.0114H180.0241ZM173.7476-12.0114" fill="#ffffff"/>
<use data-text="4" xlink:href="#font_2_5" transform="matrix(8.966609,0,0,-8.966787,230.0123,77.409519)"/>
<path transform="matrix(1.00003,0,0,-1.00005,55.363145,66.29466)" stroke-width=".3985" stroke-linecap="butt" stroke-miterlimit="10" stroke-linejoin="miter" fill="none" stroke="#000000" d="M204.09917 2.26785V-2.26788"/>
<path transform="matrix(1.00003,0,0,-1.00005,55.363145,66.29466)" d="M207.23743-4.43976H200.96092V-12.0114H207.23743ZM200.96092-12.0114" fill="#ffffff"/>
<use data-text="5" xlink:href="#font_2_6" transform="matrix(8.966609,0,0,-8.966787,257.2271,77.409519)"/>
<path transform="matrix(1.00003,0,0,-1.00005,55.363145,66.29466)" stroke-width=".3985" stroke-linecap="butt" stroke-miterlimit="10" stroke-linejoin="miter" fill="none" stroke="#000000" d="M231.31249 2.26785V-2.26788"/>
<path transform="matrix(1.00003,0,0,-1.00005,55.363145,66.29466)" d="M234.45075-4.43976H228.17424V-12.0114H234.45075ZM228.17424-12.0114" fill="#ffffff"/>
<use data-text="6" xlink:href="#font_2_7" transform="matrix(8.966609,0,0,-8.966787,284.44093,77.409519)"/>
<path transform="matrix(1.00003,0,0,-1.00005,55.363145,66.29466)" stroke-width=".3985" stroke-linecap="butt" stroke-miterlimit="10" stroke-linejoin="miter" fill="none" stroke="#000000" d="M70.30048-45.35506H65.7647"/>
<path transform="matrix(1.00003,0,0,-1.00005,55.363145,66.29466)" d="M65.6053-41.65775H53.82704V-49.05234H65.6053ZM53.82704-49.05234" fill="#ffffff"/>
<use data-text="&#x2212;" xlink:href="#font_3_1" transform="matrix(7.9703195,0,0,-7.9704778,109.98859,113.88864)"/>
<use data-text="1" xlink:href="#font_2_2" transform="matrix(7.9703195,0,0,-7.9704778,116.18797,113.88864)"/>
<path transform="matrix(1.00003,0,0,-1.00005,55.363145,66.29466)" stroke-width=".3985" stroke-linecap="butt" stroke-miterlimit="10" stroke-linejoin="miter" fill="none" stroke="#000000" d="M70.30048-22.67752H65.7647"/>
<path transform="matrix(1.00003,0,0,-1.00005,55.363145,66.29466)" d="M65.60529-18.98021H47.62793V-26.3748H65.60529ZM47.62793-26.3748" fill="#ffffff"/>
<use data-text="&#x2212;" xlink:href="#font_3_1" transform="matrix(7.9703195,0,0,-7.9704778,103.789409,91.2095)"/>
<use data-text="0" xlink:href="#font_2_1" transform="matrix(7.9703195,0,0,-7.9704778,109.98879,91.2095)"/>
<use data-text="." xlink:href="#font_1_1" transform="matrix(7.9703195,0,0,-7.9704778,113.97371,91.2095)"/>
<use data-text="5" xlink:href="#font_2_6" transform="matrix(7.9703195,0,0,-7.9704778,116.18738,91.2095)"/>
<path transform="matrix(1.00003,0,0,-1.00005,55.363145,66.29466)" stroke-width=".3985" stroke-linecap="butt" stroke-miterlimit="10" stroke-linejoin="miter" fill="none" stroke="#000000" d="M70.30048 22.67752H65.7647"/>
<path transform="matrix(1.00003,0,0,-1.00005,55.363145,66.29466)" d="M65.6053 26.04271H53.82704V19.31232H65.6053ZM53.82704 19.31232" fill="#ffffff"/>
<use data-text="0" xlink:href="#font_2_1" transform="matrix(7.9703195,0,0,-7.9704778,109.98859,46.184259)"/>
<use data-text="." xlink:href="#font_1_1" transform="matrix(7.9703195,0,0,-7.9704778,113.97351,46.184259)"/>
<use data-text="5" xlink:href="#font_2_6" transform="matrix(7.9703195,0,0,-7.9704778,116.18798,46.184259)"/>
<path transform="matrix(1.00003,0,0,-1.00005,55.363145,66.29466)" stroke-width=".3985" stroke-linecap="butt" stroke-miterlimit="10" stroke-linejoin="miter" fill="none" stroke="#000000" d="M70.30048 45.35506H65.7647"/>
<path transform="matrix(1.00003,0,0,-1.00005,55.363145,66.29466)" d="M65.6053 48.72025H60.02612V41.98985H65.6053ZM60.02612 41.98985" fill="#ffffff"/>
<use data-text="1" xlink:href="#font_2_2" transform="matrix(7.9703195,0,0,-7.9704778,116.187778,23.506123)"/>
<path transform="matrix(1.00003,0,0,-1.00005,55.363145,66.29466)" stroke-width="1.19553" stroke-linecap="butt" stroke-miterlimit="10" stroke-linejoin="miter" fill="none" stroke="#ff0000" d="M68.03258 0C68.03258 0 73.35727 8.88824 75.40236 12.13255 77.44743 15.37686 80.72707 20.49773 82.77216 23.38272 84.81723 26.26768 88.09686 30.6101 90.14194 32.92558 92.18701 35.24106 95.46664 38.49397 97.51172 40.07115 99.55678 41.6483 102.83641 43.56902 104.88148 44.29274 106.92656 45.01645 110.20622 45.46954 112.25128 45.28722 114.29636 45.10489 117.57599 44.05376 119.62106 42.9785 121.66614 41.90324 124.94577 39.42711 126.99084 37.53749 129.03592 35.64786 132.31555 31.92555 134.36061 29.35938 136.40569 26.7932 139.68535 22.09799 141.73043 19.0421 143.7755 15.9862 147.05512 10.65701 149.10019 7.33447 151.14527 4.01192 154.4249-1.55766 156.46997-4.90462 158.51505-8.25159 161.79468-13.66022 163.83975-16.78804 165.88483-19.91586 169.16448-24.76756 171.20955-27.4479 173.25463-30.12827 176.53426-34.06882 178.57933-36.10631 180.62439-38.1438 183.90402-40.88673 185.9491-42.13281 187.99417-43.37888 191.27382-44.72337 193.3189-45.0872 195.36399-45.45103 198.6436-45.29984 200.68868-44.75502 202.73377-44.2102 206.01338-42.57445 208.05847-41.16043 210.10355-39.74643 213.38315-36.7438 215.42824-34.56369 217.47332-32.3836 220.75296-28.23479 222.79805-25.44783 224.84313-22.66087 228.12274-17.66806 230.16782-14.47723 232.21289-11.2864 235.49253-5.81248 237.5376-2.45058 239.58267 .9113 244.90738 9.75322 244.90738 9.75322"/>
</svg>
