<svg xmlns="http://www.w3.org/2000/svg" xmlns:xlink="http://www.w3.org/1999/xlink" version="1.1" width="106" height="106" viewBox="0 0 106 106">
<defs>
<path id="font_1_1" d="M.33399964 .30233766C.33999635 .32835389 .36299134 .42037965 .43299867 .42037965 .43798829 .42037965 .46199037 .42037965 .48298646 .40734864 .45498658 .402359 .43499757 .37734986 .43499757 .35334779 .43499757 .33735658 .44599916 .31835938 .47299195 .31835938 .49499513 .31835938 .5269928 .3363495 .5269928 .37635804 .5269928 .42837525 .46798707 .4423828 .43399049 .4423828 .37599183 .4423828 .34098817 .38935853 .32899476 .36634828 .3039856 .43237306 .25 .4423828 .22099304 .4423828 .116989139 .4423828 .05999756 .3133545 .05999756 .28834535 .05999756 .27833558 .069992069 .27833558 .07199097 .27833558 .07998657 .27833558 .08299255 .28033448 .084991458 .28933717 .11898804 .39535523 .18499756 .42037965 .21899414 .42037965 .23799134 .42037965 .272995 .4113617 .272995 .35334779 .272995 .32235719 .2559967 .25532533 .21899414 .11528015 .20298767 .053268434 .16799927 .011245728 .12399292 .011245728 .117996219 .011245728 .09498596 .011245728 .07398987 .024276734 .09899902 .029266358 .12098694 .05027771 .12098694 .07827759 .12098694 .105270389 .09899902 .11328125 .083999637 .11328125 .053985597 .11328125 .0289917 .08728027 .0289917 .055267335 .0289917 .009246826 .07899475-.0107421879 .12298584-.0107421879 .18899536-.0107421879 .22499085 .059280397 .22799683 .0652771 .23999024 .028274537 .27598573-.0107421879 .33599855-.0107421879 .43899537-.0107421879 .49598695 .118270877 .49598695 .14328003 .49598695 .1532898 .4869995 .1532898 .48399354 .1532898 .47499085 .1532898 .47299195 .14929199 .47099305 .14228821 .43798829 .03527832 .36999513 .011245728 .33799745 .011245728 .29899598 .011245728 .2829895 .043273927 .2829895 .07727051 .2829895 .09927368 .2889862 .121276859 .2999878 .16529846L.33399964 .30233766Z"/>
<path id="font_1_2" d="M.48599244 .38136292C.48999024 .39537049 .48999024 .39736939 .48999024 .40437318 .48999024 .42237855 .47599793 .43138124 .46099855 .43138124 .45098878 .43138124 .43499757 .42536927 .42599488 .41036988 .42399598 .405365 .41600038 .37435914 .4119873 .35635377 .40499879 .33035279 .397995 .30334474 .3919983 .27633668L.34700013 .09628296C.34298707 .08126831 .2999878 .011245728 .23399353 .011245728 .18299866 .011245728 .17199707 .055267335 .17199707 .0922699 .17199707 .1382904 .18899536 .20030213 .22299195 .28833009 .23899842 .3293457 .24299622 .3403473 .24299622 .36035157 .24299622 .405365 .21099854 .4423828 .16099549 .4423828 .06599426 .4423828 .0289917 .29733277 .0289917 .28833009 .0289917 .27833558 .038986207 .27833558 .040985109 .27833558 .050994874 .27833558 .051986696 .28033448 .056991579 .29634095 .083999637 .3903656 .12399292 .42037965 .1579895 .42037965 .1659851 .42037965 .18299866 .42037965 .18299866 .3883667 .18299866 .36335755 .17298889 .3373413 .1659851 .31834413 .12599182 .21231079 .10798645 .1552887 .10798645 .10827637 .10798645 .019256592 .17098999-.0107421879 .22999573-.0107421879 .2689972-.0107421879 .30299378 .0062561037 .33099366 .03425598 .31799317-.017745972 .30599977-.06674194 .2659912-.11973572 .23999024-.15385437 .20199585-.18309021 .1559906-.18309021 .14199829-.18309021 .09700012-.18005371 .07998657-.14074707 .09599304-.14074707 .10899353-.14074707 .12298584-.1287384 .1329956-.11973572 .14299011-.10673523 .14299011-.08773804 .14299011-.056747438 .115997318-.052734376 .10598755-.052734376 .08299255-.052734376 .049987794-.068740848 .049987794-.11773682 .049987794-.16796875 .09399414-.20507813 .1559906-.20507813 .25898744-.20507813 .3619995-.11373901 .3899994-.00074768069L.48599244 .38136292Z"/>
<path id="font_2_64" d="M.27598573 .18710327V.24511719H.010986328V.18710327H.27598573Z"/>
<path id="font_2_57" d="M.47099305 .16503906V.19602967H.37098695V.6507721C.37098695 .6707611 .37098695 .6767578 .35499574 .6767578 .34599305 .6767578 .34298707 .6767578 .33499146 .6647644L.027999878 .19602967V.16503906H.2939911V.07800293C.2939911 .041992189 .2919922 .0309906 .21798706 .0309906H.19699097V0C.23799134 .0029907227 .2899933 .0029907227 .33198548 .0029907227 .37399293 .0029907227 .4269867 .0029907227 .46798707 0V.0309906H.44699098C.37298585 .0309906 .37098695 .041992189 .37098695 .07800293V.16503906H.47099305M.2999878 .19602967H.055999757L.2999878 .56881716V.19602967Z"/>
<path id="font_2_107" d="M.44898988 .17396546H.42399598C.4189911 .14398194 .4119873 .099990848 .4019928 .084991458 .394989 .07699585 .32899476 .07699585 .30699159 .07699585H.1269989L.23298645 .17996216C.3889923 .31803895 .44898988 .37210084 .44898988 .47216798 .44898988 .5860901 .35899354 .6660156 .23699951 .6660156 .12399292 .6660156 .049987794 .57411196 .049987794 .48516847 .049987794 .4291687 .099990848 .4291687 .102996829 .4291687 .11999512 .4291687 .15499878 .44117738 .15499878 .48217774 .15499878 .5081787 .13699341 .5341797 .101989749 .5341797 .09399414 .5341797 .09199524 .5341797 .08898926 .5331726 .11199951 .59806826 .1659851 .63500979 .22399903 .63500979 .31498719 .63500979 .35798646 .5541382 .35798646 .47216798 .35798646 .39196778 .30799867 .31297303 .25299073 .25097657L.06098938 .036987306C.049987794 .025985718 .049987794 .023986817 .049987794 0H.42099L.44898988 .17396546Z"/>
<path id="font_3_1" d="M.6589966 .23046875C.6759949 .23046875 .69400027 .23046875 .69400027 .25045777 .69400027 .27046205 .6759949 .27046205 .6589966 .27046205H.117996219C.100997928 .27046205 .08299255 .27046205 .08299255 .25045777 .08299255 .23046875 .100997928 .23046875 .117996219 .23046875H.6589966Z"/>
<path id="font_4_1" d="M.1269989 .07699585 .23298645 .18003845C.3889923 .31811524 .44898988 .3721466 .44898988 .47216798 .44898988 .5860901 .35899354 .6660156 .23699951 .6660156 .12399292 .6660156 .049987794 .57411196 .049987794 .48516847 .049987794 .4291687 .099990848 .4291687 .102996829 .4291687 .11999512 .4291687 .15499878 .44117738 .15499878 .48217774 .15499878 .5081787 .13699341 .5341797 .101989749 .5341797 .09399414 .5341797 .09199524 .5341797 .08898926 .5331726 .11199951 .59806826 .1659851 .63500979 .22399903 .63500979 .31498719 .63500979 .35798646 .5541382 .35798646 .47216798 .35798646 .39215089 .30799867 .31311036 .25299073 .25108338L.06098938 .036987306C.049987794 .025985718 .049987794 .023986817 .049987794 0H.42099L.44898988 .17404175H.42399598C.4189911 .14402771 .4119873 .1000061 .4019928 .084991458 .394989 .07699585 .32899476 .07699585 .30699159 .07699585H.1269989Z"/>
<path id="font_4_2" d="M.2939911 .16503906V.07800293C.2939911 .041992189 .2919922 .0309906 .21798706 .0309906H.19699097V0C.23799134 .0029907227 .2899933 .0029907227 .33198548 .0029907227 .37399293 .0029907227 .4269867 .0029907227 .46798707 0V.0309906H.44699098C.37298585 .0309906 .37098695 .041992189 .37098695 .07800293V.16503906H.47099305V.19602967H.37098695V.65075686C.37098695 .67074587 .37098695 .6767578 .35499574 .6767578 .34599305 .6767578 .34298707 .6767578 .33499146 .66474917L.027999878 .19602967V.16503906H.2939911M.2999878 .19602967H.055999757L.2999878 .5688019V.19602967Z"/>
<path id="font_4_3" d="M.13198853 .327713V.35173036C.13198853 .6047821 .2559967 .64100649 .30699159 .64100649 .33099366 .64100649 .37298585 .634964 .394989 .6007538 .37998963 .6007538 .33999635 .6007538 .33999635 .5557556 .33999635 .524765 .3639984 .5097656 .38598634 .5097656 .4019928 .5097656 .43199159 .51875308 .43199159 .5577545 .43199159 .6178589 .3880005 .6660156 .30499269 .6660156 .1769867 .6660156 .041992189 .5367584 .041992189 .31570436 .041992189 .048553468 .1579895-.022460938 .25099183-.022460938 .3619995-.022460938 .45700074 .07156372 .45700074 .2036438 .45700074 .33070375 .36799623 .4267578 .25698854 .4267578 .18899536 .4267578 .1519928 .37573243 .13198853 .327713M.25099183 .0055389406C.18798828 .0055389406 .1579895 .06556702 .1519928 .080566409 .13398743 .127594 .13398743 .2076416 .13398743 .22564698 .13398743 .30369569 .1659851 .40374757 .2559967 .40374757 .27198792 .40374757 .31799317 .40374757 .34899903 .34172059 .36698915 .30470277 .36698915 .2536621 .36698915 .20463562 .36698915 .15661621 .36698915 .10658264 .34999085 .0705719 .31999208 .010528564 .27398683 .0055389406 .25099183 .0055389406Z"/>
</defs>
<path transform="matrix(1.00002,0,0,-1.00005,48.100618,80.55937)" stroke-width=".3985" stroke-linecap="butt" stroke-miterlimit="10" stroke-linejoin="miter" fill="none" stroke="#00aeef" d="M-43.08769-21.54384H43.08769M-43.08769-10.77191H43.08769M-43.08769 0H43.08769M-43.08769 10.77191H43.08769M-43.08769 21.54384H43.08769M-43.08769 32.31577H43.08769M-43.08769 43.08769H43.08769M-43.08769 53.85962H43.08769M-43.08769 64.62775H43.08769M-43.08769-21.54384V64.63153M-32.31577-21.54384V64.63153M-21.54384-21.54384V64.63153M-10.77191-21.54384V64.63153M0-21.54384V64.63153M10.77191-21.54384V64.63153M21.54384-21.54384V64.63153M32.31577-21.54384V64.63153M43.08391-21.54384V64.63153M43.08769 64.63153"/>
<path transform="matrix(1.00002,0,0,-1.00005,48.100618,80.55937)" stroke-width=".79701" stroke-linecap="butt" stroke-miterlimit="10" stroke-linejoin="miter" fill="none" stroke="#000000" d="M-43.08769 0H47.03903"/>
<path transform="matrix(1.00002,0,0,-1.00005,95.14059,80.55937)" d="M1.0361 0C-.25902 .25902-1.55415 .77707-3.1083 1.68365-1.55415 .51805-1.55415-.51805-3.1083-1.68365-1.55415-.77707-.25902-.25902 1.0361 0Z"/>
<path transform="matrix(1.00002,0,0,-1.00005,95.14059,80.55937)" stroke-width=".79701" stroke-linecap="butt" stroke-linejoin="round" fill="none" stroke="#000000" d="M1.0361 0C-.25902 .25902-1.55415 .77707-3.1083 1.68365-1.55415 .51805-1.55415-.51805-3.1083-1.68365-1.55415-.77707-.25902-.25902 1.0361 0Z"/>
<use data-text="x" xlink:href="#font_1_1" transform="matrix(8.966518,0,0,-8.966787,99.922649,82.48937)"/>
<path transform="matrix(1.00002,0,0,-1.00005,48.100618,80.55937)" stroke-width=".79701" stroke-linecap="butt" stroke-miterlimit="10" stroke-linejoin="miter" fill="none" stroke="#000000" d="M0-21.54384V68.5829"/>
<path transform="matrix(0,-1.00005,-1.00002,-0,48.100618,11.973045)" d="M1.0361 0C-.25902 .25902-1.55415 .77707-3.1083 1.68365-1.55415 .51805-1.55415-.51805-3.1083-1.68365-1.55415-.77707-.25902-.25902 1.0361 0Z"/>
<path transform="matrix(0,-1.00005,-1.00002,-0,48.100618,11.973045)" stroke-width=".79701" stroke-linecap="butt" stroke-linejoin="round" fill="none" stroke="#000000" d="M1.0361 0C-.25902 .25902-1.55415 .77707-3.1083 1.68365-1.55415 .51805-1.55415-.51805-3.1083-1.68365-1.55415-.77707-.25902-.25902 1.0361 0Z"/>
<use data-text="y" xlink:href="#font_1_2" transform="matrix(8.966518,0,0,-8.966787,45.74156,5.447529)"/>
<path transform="matrix(1.00002,0,0,-1.00005,48.100618,80.55937)" stroke-width=".3985" stroke-linecap="butt" stroke-miterlimit="10" stroke-linejoin="miter" fill="none" stroke="#000000" d="M-43.08769 1.07724V-1.07709"/>
<path transform="matrix(1.00002,0,0,-1.00005,48.100618,80.55937)" d="M-38.97107-3.22905H-47.20432V-10.21893H-38.97107ZM-47.20432-10.21893" fill="#ffffff"/>
<use data-text="-" xlink:href="#font_2_64" transform="matrix(7.9702398,0,0,-7.9704778,1.692688,89.98164)"/>
<use data-text="4" xlink:href="#font_2_57" transform="matrix(7.9702398,0,0,-7.9704778,4.346779,89.98164)"/>
<path transform="matrix(1.00002,0,0,-1.00005,48.100618,80.55937)" stroke-width=".3985" stroke-linecap="butt" stroke-miterlimit="10" stroke-linejoin="miter" fill="none" stroke="#000000" d="M43.08769 1.07724V-1.07709"/>
<path transform="matrix(1.00002,0,0,-1.00005,48.100618,80.55937)" d="M45.87729-3.22905H40.29811V-10.21893H45.87729ZM40.29811-10.21893" fill="#ffffff"/>
<use data-text="4" xlink:href="#font_2_57" transform="matrix(7.9702398,0,0,-7.9704778,89.196437,89.98164)"/>
<path transform="matrix(1.00002,0,0,-1.00005,48.100618,80.55937)" stroke-width=".3985" stroke-linecap="butt" stroke-miterlimit="10" stroke-linejoin="miter" fill="none" stroke="#000000" d="M-21.54384 1.07724V-1.07709"/>
<path transform="matrix(1.00002,0,0,-1.00005,48.100618,80.55937)" d="M-17.42722-3.22903H-25.66046V-10.13126H-17.42722ZM-25.66046-10.13126" fill="#ffffff"/>
<use data-text="-" xlink:href="#font_2_64" transform="matrix(7.9702398,0,0,-7.9704778,23.237114,89.89364)"/>
<use data-text="2" xlink:href="#font_2_107" transform="matrix(7.9702398,0,0,-7.9704778,25.891205,89.89364)"/>
<path transform="matrix(1.00002,0,0,-1.00005,48.100618,80.55937)" stroke-width=".3985" stroke-linecap="butt" stroke-miterlimit="10" stroke-linejoin="miter" fill="none" stroke="#000000" d="M21.54384 1.07724V-1.07709"/>
<path transform="matrix(1.00002,0,0,-1.00005,48.100618,80.55937)" d="M24.33344-3.22903H18.75426V-10.13126H24.33344ZM18.75426-10.13126" fill="#ffffff"/>
<use data-text="2" xlink:href="#font_2_107" transform="matrix(7.9702398,0,0,-7.9704778,67.65201,89.89364)"/>
<path transform="matrix(1.00002,0,0,-1.00005,48.100618,80.55937)" stroke-width=".3985" stroke-linecap="butt" stroke-miterlimit="10" stroke-linejoin="miter" fill="none" stroke="#000000" d="M1.6157-21.54384H-1.61588"/>
<path transform="matrix(1.00002,0,0,-1.00005,48.100618,80.55937)" d="M-3.76782-17.84654H-15.54608V-25.24113H-3.76782ZM-15.54608-25.24113" fill="#ffffff"/>
<use data-text="&#x2212;" xlink:href="#font_3_1" transform="matrix(7.9702398,0,0,-7.9704778,33.35132,104.34036)"/>
<use data-text="2" xlink:href="#font_4_1" transform="matrix(7.9702398,0,0,-7.9704778,39.550638,104.34036)"/>
<path transform="matrix(1.00002,0,0,-1.00005,48.100618,80.55937)" stroke-width=".3985" stroke-linecap="butt" stroke-miterlimit="10" stroke-linejoin="miter" fill="none" stroke="#000000" d="M1.6157 21.54384H-1.61588"/>
<path transform="matrix(1.00002,0,0,-1.00005,48.100618,80.55937)" d="M-3.76782 24.90904H-9.34698V18.17863H-3.76782ZM-9.34698 18.17863" fill="#ffffff"/>
<use data-text="2" xlink:href="#font_4_1" transform="matrix(7.9702398,0,0,-7.9704778,39.550447,61.583227)"/>
<path transform="matrix(1.00002,0,0,-1.00005,48.100618,80.55937)" stroke-width=".3985" stroke-linecap="butt" stroke-miterlimit="10" stroke-linejoin="miter" fill="none" stroke="#000000" d="M1.6157 43.08769H-1.61588"/>
<path transform="matrix(1.00002,0,0,-1.00005,48.100618,80.55937)" d="M-3.76782 46.4529H-9.34698V39.72249H-3.76782ZM-9.34698 39.72249" fill="#ffffff"/>
<use data-text="4" xlink:href="#font_4_2" transform="matrix(7.9702398,0,0,-7.9704778,39.550447,40.038148)"/>
<path transform="matrix(1.00002,0,0,-1.00005,48.100618,80.55937)" stroke-width=".3985" stroke-linecap="butt" stroke-miterlimit="10" stroke-linejoin="miter" fill="none" stroke="#000000" d="M1.6157 64.63153H-1.61588"/>
<path transform="matrix(1.00002,0,0,-1.00005,48.100618,80.55937)" d="M-3.76782 67.99673H-9.34698V61.26634H-3.76782ZM-9.34698 61.26634" fill="#ffffff"/>
<use data-text="6" xlink:href="#font_4_3" transform="matrix(7.9702398,0,0,-7.9704778,39.550447,18.493073)"/>
<path transform="matrix(1.00002,0,0,-1.00005,48.100618,80.55937)" stroke-width=".79701" stroke-linecap="butt" stroke-miterlimit="10" stroke-linejoin="miter" fill="none" stroke="#0000ff" d="M-43.08769 .67323C-43.08769 .67323-42.65102 .68701-42.48332 .69246-42.31561 .6979-42.04665 .70679-41.87894 .71251-41.71123 .71823-41.44226 .72774-41.27457 .73372-41.10686 .73969-40.83789 .74937-40.67018 .75557-40.50247 .76178-40.23352 .7719-40.06581 .77843-39.8981 .78494-39.62914 .79575-39.46143 .80258-39.29373 .80942-39.02477 .82059-38.85706 .82774-38.68935 .83488-38.4204 .8467-38.25269 .85419-38.08498 .86168-37.81601 .87395-37.6483 .8818-37.48059 .88966-37.21164 .90248-37.04393 .91074-36.87622 .91899-36.60725 .93262-36.43954 .94131-36.27184 .95-36.00288 .96423-35.83517 .97336-35.66747 .98248-35.39851 .99747-35.2308 1.00705-35.0631 1.01663-34.79413 1.0323-34.62642 1.04239-34.45871 1.05249-34.18976 1.06923-34.02205 1.07986-33.85434 1.09052-33.58539 1.10793-33.41768 1.11914-33.24997 1.13037-32.981 1.14886-32.8133 1.16074-32.64558 1.1726-32.37663 1.19223-32.20892 1.20479-32.04121 1.21735-31.77225 1.238-31.60454 1.2513-31.43683 1.2646-31.16788 1.28651-31.00017 1.30061-30.83246 1.31471-30.5635 1.33795-30.3958 1.35287-30.22809 1.36783-29.95912 1.3924-29.79141 1.40828-29.6237 1.42415-29.35475 1.45041-29.18704 1.46729-29.01933 1.48416-28.75037 1.51193-28.58266 1.5299-28.41496 1.54787-28.146 1.57762-27.97829 1.5968-27.81058 1.61598-27.54161 1.6477-27.37392 1.66814-27.2062 1.68857-26.93724 1.72226-26.76953 1.74408-26.60182 1.7659-26.33287 1.80199-26.16516 1.82544-25.99745 1.84889-25.72849 1.88786-25.56078 1.91304-25.39308 1.93822-25.12411 1.97986-24.9564 2.0069-24.7887 2.03394-24.51974 2.07895-24.35204 2.10799-24.18433 2.13701-23.91536 2.18484-23.74765 2.21614-23.57994 2.24742-23.31099 2.29962-23.14328 2.3335-22.97559 2.36736-22.7066 2.42355-22.5389 2.46022-22.3712 2.49689-22.10223 2.558-21.93452 2.5978-21.76683 2.63759-21.49786 2.70374-21.33015 2.74704-21.16246 2.79034-20.89348 2.86276-20.72578 2.90993-20.55807 2.95708-20.28911 3.03539-20.12141 3.08694-19.9537 3.1385-19.68474 3.225-19.51704 3.28157-19.34933 3.33812-19.08035 3.43251-18.91266 3.49458-18.74495 3.55664-18.476 3.6605-18.30829 3.72896-18.14058 3.79742-17.87161 3.9123-17.70392 3.988-17.53621 4.0637-17.26724 4.19064-17.09953 4.27467-16.93182 4.35867-16.66287 4.49986-16.49516 4.59352-16.32745 4.6872-16.05849 4.84499-15.89078 4.9497-15.72307 5.05444-15.45412 5.2307-15.2864 5.34831-15.1187 5.46591-14.84973 5.66435-14.68202 5.79736-14.51433 5.93036-14.24536 6.15593-14.07765 6.3069-13.90994 6.45787-13.64098 6.71327-13.47328 6.88545-13.30557 7.05763-13.0366 7.35043-12.8689 7.54787-12.70119 7.74529-12.43224 8.08017-12.26453 8.3084-12.09682 8.5366-11.82785 8.92648-11.66014 9.19267-11.49243 9.45886-11.22348 9.91476-11.05577 10.22687-10.88806 10.53896-10.61911 11.07253-10.4514 11.44203-10.28369 11.81155-10.01472 12.44745-9.84702 12.8901-9.6793 13.33275-9.41035 14.09659-9.24265 14.63239-9.07494 15.16818-8.80597 16.09486-8.63826 16.75172-8.47055 17.4086-8.2016 18.54913-8.03389 19.36662-7.86618 20.18414-7.59723 21.6077-7.42952 22.64378-7.26181 23.67986-6.99284 25.4939-6.82513 26.83398-6.65742 28.17404-6.38847 30.52707-6.22076 32.30211-6.05305 34.07716-5.7841 37.205-5.6164 39.62727-5.44868 42.04956-5.17972 46.33101-5.01201 49.76031-4.8443 53.1896-4.40764 64.34323-4.40764 64.34323"/>
<path transform="matrix(1.00002,0,0,-1.00005,48.100618,80.55937)" stroke-width=".79701" stroke-linecap="butt" stroke-miterlimit="10" stroke-linejoin="miter" fill="none" stroke="#0000ff" d="M4.39777 64.63187C4.39777 64.63187 4.83444 53.4043 5.00214 49.95425 5.16985 46.50421 5.43881 42.20169 5.60652 39.76633 5.77423 37.33098 6.04318 34.18546 6.21089 32.40189 6.3786 30.61832 6.64757 28.25711 6.81528 26.91156 6.98299 25.56601 7.25194 23.7442 7.41965 22.7041 7.58736 21.66399 7.85632 20.23578 8.02403 19.41513 8.19173 18.59445 8.4607 17.44862 8.6284 16.78937 8.79611 16.1301 9.06506 15.20105 9.23277 14.6636 9.40048 14.12617 9.66945 13.35991 9.83716 12.9159 10.00487 12.47191 10.27382 11.83426 10.44153 11.46356 10.60924 11.09286 10.87819 10.55711 11.0459 10.24414 11.21361 9.93114 11.48257 9.47444 11.65028 9.2078 11.818 8.94116 12.08694 8.55115 12.25465 8.32234 12.42236 8.09355 12.69131 7.75673 12.85902 7.5587 13.02673 7.36069 13.2957 7.06764 13.46341 6.89516 13.63112 6.72269 13.90007 6.46687 14.06778 6.31561 14.23549 6.16434 14.50446 5.9381 14.67216 5.80492 14.83987 5.67172 15.10883 5.47346 15.27654 5.35571 15.44424 5.23795 15.71321 5.0609 15.8809 4.95613 16.04861 4.85135 16.31758 4.69452 16.48529 4.6006 16.653 4.5067 16.92195 4.3637 17.08966 4.27927 17.25737 4.19484 17.52634 4.0679 17.69405 3.99213 17.86174 3.91634 18.1307 3.80162 18.29842 3.73306 18.46613 3.66452 18.73509 3.56023 18.90279 3.49803 19.0705 3.43584 19.33946 3.34149 19.50717 3.28485 19.67488 3.22821 19.94383 3.14137 20.11154 3.08975 20.27925 3.03812 20.54822 2.95992 20.71593 2.91272 20.88364 2.86555 21.15259 2.79303 21.3203 2.74966 21.488 2.7063 21.75697 2.63995 21.92468 2.6001 22.09238 2.56023 22.36134 2.49904 22.52905 2.46236 22.69676 2.42566 22.96571 2.36952 23.13342 2.33562 23.30113 2.30174 23.5701 2.24951 23.73781 2.21811 23.90552 2.1867 24.17447 2.13838 24.34218 2.1093 24.50989 2.08023 24.77884 2.03557 24.94655 2.00854 25.11426 1.9815 25.38322 1.9397 25.55093 1.91454 25.71864 1.88936 25.9876 1.85052 26.1553 1.82707 26.32301 1.80363 26.59196 1.76746 26.75967 1.74556 26.92738 1.72366 27.19635 1.68977 27.36406 1.6693 27.53177 1.64882 27.80072 1.61714 27.96843 1.59795 28.13614 1.57875 28.4051 1.54887 28.57281 1.5309 28.74052 1.5129 29.00948 1.48515 29.17719 1.46828 29.3449 1.4514 29.61386 1.42513 29.78156 1.40926 29.94926 1.39339 30.21823 1.36882 30.38594 1.35387 30.55365 1.33893 30.8226 1.31557 30.99031 1.30144 31.15802 1.2873 31.42699 1.26529 31.5947 1.25197 31.76239 1.23865 32.03136 1.218 32.19907 1.20544 32.36676 1.19287 32.63574 1.17325 32.80345 1.16139 32.97113 1.14955 33.24011 1.13121 33.40782 1.11996 33.57552 1.10873 33.84448 1.09105 34.01219 1.08037 34.17989 1.06967 34.44887 1.053 34.61656 1.0429 34.78427 1.03279 35.05324 1.01712 35.22093 1.00755 35.38864 .99797 35.65761 .983 35.8253 .97385 35.99301 .9647 36.262 .95033 36.42969 .94164 36.5974 .93295 36.86635 .91946 37.03406 .91122 37.20177 .903 37.47073 .89014 37.63844 .8823 37.80615 .87445 38.0751 .86218 38.24281 .85469 38.41052 .84718 38.67947 .8354 38.84718 .82823 39.0149 .82104 39.28386 .80975 39.45157 .80292 39.61928 .79608 39.88823 .78543 40.05594 .77892 40.22365 .7724 40.4926 .76213 40.66031 .7559 40.82802 .74968 41.09698 .73999 41.2647 .73404 41.4324 .72809 41.70135 .71872 41.86906 .71301 42.03677 .70729 42.30574 .69827 42.47345 .6928 42.64116 .68729 43.07782 .6734 43.07782 .6734"/>
<path transform="matrix(1.00002,0,0,-1.00005,48.100618,80.55937)" stroke-width="1.19553" stroke-linecap="butt" stroke-miterlimit="10" stroke-linejoin="miter" fill="none" stroke="#ff0000" d="M-43.08769 .43079C-43.08769 .43079-42.52942 .43987-42.315 .44345-42.10059 .44702-41.75673 .45284-41.54231 .45659-41.3279 .46036-40.98404 .46664-40.76962 .47057-40.5552 .47449-40.21135 .48079-39.99695 .48486-39.78252 .48894-39.43867 .4957-39.22426 .49998-39.00984 .50427-38.66599 .51128-38.45155 .51576-38.23715 .52025-37.8933 .52765-37.67886 .53236-37.46446 .53708-37.1206 .54485-36.90619 .54979-36.69177 .55473-36.3479 .56284-36.1335 .56802-35.91908 .57323-35.57523 .58179-35.36081 .58727-35.14641 .59273-34.80254 .60173-34.58812 .60748-34.37372 .61322-34.02985 .62263-33.81544 .6287-33.60103 .63472-33.25716 .64467-33.04276 .65103-32.82834 .65741-32.48448 .66798-32.27007 .6747-32.05566 .68144-31.71179 .69246-31.49738 .69952-31.28296 .70659-30.9391 .71817-30.7247 .72566-30.51028 .73315-30.16641 .74565-29.95201 .7536-29.7376 .76155-29.39374 .77461-29.17932 .78302-28.9649 .79144-28.62105 .80531-28.40663 .81425-28.19221 .8232-27.84836 .838-27.63396 .84746-27.41953 .85692-27.07567 .8724-26.86125 .88246-26.64684 .89252-26.303 .90921-26.08856 .91994-25.87416 .9307-25.5303 .94849-25.31587 .95988-25.10147 .97128-24.7576 .98997-24.5432 1.00212-24.32878 1.01428-23.98492 1.03447-23.77051 1.04749-23.55609 1.06052-23.21223 1.08205-22.99782 1.09598-22.78342 1.10991-22.43954 1.13301-22.22513 1.1479-22.01073 1.16283-21.66685 1.18744-21.45245 1.20348-21.23804 1.2195-20.89417 1.2462-20.67976 1.26347-20.46533 1.28073-20.12149 1.3093-19.90707 1.3279-19.69267 1.34651-19.3488 1.37752-19.13438 1.39758-18.91998 1.41765-18.57611 1.45085-18.3617 1.47255-18.14728 1.49423-17.80342 1.53038-17.58902 1.55391-17.37459 1.57744-17.03073 1.6166-16.81633 1.64217-16.6019 1.66776-16.25806 1.71051-16.04362 1.73833-15.82922 1.76614-15.48537 1.81233-15.27094 1.8427-15.05653 1.87308-14.71268 1.92397-14.49828 1.95726-14.28384 1.99055-13.93997 2.04613-13.72557 2.08266-13.51115 2.1192-13.16731 2.18036-12.95288 2.22058-12.73848 2.2608-12.39462 2.3282-12.18019 2.3726-11.96579 2.41702-11.62192 2.49136-11.40752 2.54059-11.1931 2.58983-10.84923 2.67268-10.63483 2.7275-10.42041 2.78227-10.07655 2.87439-9.86214 2.93558-9.64774 2.99675-9.30386 3.09985-9.08945 3.16847-8.87505 3.23709-8.53117 3.35286-8.31677 3.43015-8.10236 3.50743-7.75848 3.63797-7.54408 3.72551-7.32967 3.81306-6.98581 3.96149-6.7714 4.06116-6.55698 4.1608-6.21312 4.32979-5.9987 4.44379-5.78429 4.5578-5.44043 4.75136-5.22601 4.88283-5.0116 5.01428-4.66774 5.23862-4.45334 5.39137-4.2389 5.54413-3.89507 5.80516-3.68065 5.98375-3.46623 6.16232-3.12238 6.46777-2.90794 6.67853-2.69354 6.88927-2.34969 7.25157-2.13527 7.50266-1.92085 7.75375-1.577 8.18571-1.36258 8.4882-1.14816 8.7907-.8043 9.31393-.58989 9.68282-.37549 10.0517-.03163 10.6906 .18275 11.14684 .39717 11.60306 .74103 12.39706 .95544 12.97098 1.16986 13.54486 1.51372 14.54762 1.72813 15.2831 1.94255 16.0186 2.2864 17.30809 2.50082 18.27194 2.71524 19.23582 3.05908 20.93117 3.27351 22.23007 3.48792 23.52896 3.83179 25.82404 4.0462 27.63345 4.2606 29.44287 4.60448 32.64232 4.81888 35.27107 5.0333 37.89981 5.37717 42.54594 5.59157 46.57967 5.80598 50.61337 6.36426 64.34323 6.36426 64.34323"/>
<path transform="matrix(1.00002,0,0,-1.00005,48.100618,80.55937)" stroke-width="1.19553" stroke-linecap="butt" stroke-miterlimit="10" stroke-linejoin="miter" fill="none" stroke="#ff0000" d="M15.1697 64.63187C15.1697 64.63187 15.48476 56.21739 15.60576 53.49472 15.72676 50.77203 15.92082 47.10403 16.04182 45.00864 16.16283 42.91325 16.3569 40.0402 16.47789 38.39256 16.59889 36.7449 16.79297 34.45227 16.91396 33.13348 17.03496 31.81471 17.22902 29.96 17.35002 28.88774 17.47102 27.81546 17.66508 26.28897 17.78609 25.40529 17.90709 24.52164 18.10115 23.25504 18.22215 22.51884 18.34315 21.78268 18.53722 20.71971 18.65822 20.09938 18.7792 19.47905 18.97328 18.57579 19.09428 18.04791 19.21527 17.52005 19.40935 16.74745 19.53033 16.29478 19.65135 15.84213 19.84541 15.17648 19.9664 14.7854 20.08742 14.39435 20.28146 13.81636 20.40248 13.47623 20.52347 13.13611 20.71754 12.63168 20.83855 12.33405 20.95953 12.03642 21.15361 11.59325 21.2746 11.33109 21.3956 11.06892 21.58966 10.67647 21.71066 10.4445 21.83167 10.21251 22.02573 9.86525 22.14674 9.65915 22.26773 9.45303 22.46179 9.14291 22.5828 8.95894 22.7038 8.77498 22.89786 8.4982 23.01886 8.3332 23.13985 8.1682 23.33392 7.91846 23.45493 7.76976 23.57593 7.62103 23.76999 7.39557 23.89099 7.26137 24.012 7.12717 24.20605 6.92413 24.32706 6.80244 24.44806 6.68079 24.6421 6.49521 24.76312 6.38448 24.88412 6.27373 25.07819 6.10515 25.19919 6.00429 25.32018 5.90343 25.51425 5.7497 25.63524 5.65749 25.75624 5.56526 25.9503 5.42433 26.0713 5.3396 26.19232 5.25485 26.38637 5.12447 26.50739 5.0467 26.62837 4.96892 26.82243 4.85046 26.94345 4.77893 27.06444 4.70743 27.25851 4.59734 27.3795 4.53125 27.5005 4.46515 27.69456 4.36377 27.81557 4.30261 27.93657 4.24144 28.13063 4.1471 28.25163 4.09041 28.37263 4.03372 28.5667 3.9466 28.6877 3.894 28.8087 3.84138 29.00275 3.76021 29.12376 3.71123 29.24477 3.66223 29.43883 3.58661 29.55983 3.54092 29.68082 3.49524 29.8749 3.42459 29.99588 3.38199 30.1169 3.3394 30.31096 3.27371 30.43195 3.23389 30.55296 3.19408 30.74702 3.13231 30.86803 3.095 30.98903 3.05771 31.18307 2.99997 31.3041 2.96498 31.42508 2.93001 31.61916 2.87575 31.74014 2.84286 31.86115 2.80998 32.05522 2.75885 32.17621 2.72797 32.29723 2.6971 32.49127 2.64935 32.61227 2.62032 32.73328 2.5913 32.92734 2.5461 33.04834 2.51874 33.16934 2.49136 33.3634 2.44891 33.4844 2.42308 33.60541 2.39723 33.79948 2.3569 33.92047 2.3325 34.04147 2.3081 34.23553 2.27026 34.35654 2.2472 34.47754 2.22412 34.6716 2.18802 34.79259 2.16617 34.9136 2.14432 35.10767 2.11043 35.22867 2.08975 35.34967 2.06906 35.54372 2.03673 35.66473 2.01709 35.78572 1.99745 35.9798 1.96683 36.10078 1.94821 36.22179 1.92961 36.41586 1.90067 36.53685 1.88297 36.65787 1.86528 36.85193 1.8375 36.97292 1.82068 37.09393 1.80385 37.28798 1.77766 37.409 1.76166 37.52998 1.74565 37.72404 1.72054 37.84506 1.70529 37.96605 1.69003 38.16013 1.66621 38.28111 1.6517 38.40211 1.63719 38.59618 1.61447 38.71718 1.60057 38.83818 1.5867 39.03224 1.56485 39.15324 1.55159 39.27425 1.53836 39.4683 1.5177 39.58931 1.50508 39.71031 1.49248 39.90436 1.4728 40.02538 1.46071 40.14636 1.44862 40.34044 1.42955 40.46144 1.41797 40.58244 1.40639 40.7765 1.38826 40.8975 1.37721 41.01851 1.36615 41.21257 1.34883 41.33356 1.33826 41.45457 1.32767 41.64862 1.31111 41.76964 1.30095 41.89064 1.29077 42.08469 1.27472 42.2057 1.26495 42.32669 1.25517 42.52077 1.23978 42.64175 1.23042 42.76276 1.22108 43.07782 1.19756 43.07782 1.19756"/>
</svg>
