<svg xmlns="http://www.w3.org/2000/svg" xmlns:xlink="http://www.w3.org/1999/xlink" version="1.1" width="93" height="94" viewBox="0 0 93 94">
<path transform="matrix(1.00008,0,0,-1.00003,46.45427,47.154939)" stroke-width=".3985" stroke-linecap="butt" stroke-miterlimit="10" stroke-linejoin="miter" fill="none" stroke="#000000" d="M-45.35506 0H44.3588"/>
<path transform="matrix(1.00008,0,0,-1.00003,90.81662,47.154939)" d="M.797 0C-.19925 .19925-1.19551 .59775-2.39102 1.29512-1.19551 .3985-1.19551-.3985-2.39102-1.29512-1.19551-.59775-.19925-.19925 .797 0Z"/>
<path transform="matrix(1.00008,0,0,-1.00003,90.81662,47.154939)" stroke-width=".3985" stroke-linecap="butt" stroke-linejoin="round" fill="none" stroke="#000000" d="M.797 0C-.19925 .19925-1.19551 .59775-2.39102 1.29512-1.19551 .3985-1.19551-.3985-2.39102-1.29512-1.19551-.59775-.19925-.19925 .797 0Z"/>
<path transform="matrix(1.00008,0,0,-1.00003,46.45427,47.154939)" stroke-width=".3985" stroke-linecap="butt" stroke-miterlimit="10" stroke-linejoin="miter" fill="none" stroke="#929292" d="M0-45.35506V45.35506"/>
<path transform="matrix(1.00008,0,0,-1.00003,46.45427,47.154939)" stroke-width="1.19553" stroke-linecap="butt" stroke-miterlimit="10" stroke-linejoin="miter" fill="none" stroke="#ff0000" d="M0 0C0 0 6.05411 .1123 7.52962 .18475 9.00514 .25722 9.87654 .41484 10.63458 .52216 11.39262 .62944 12.39433 .82631 12.99312 .95815 13.59192 1.08998 14.44424 1.32054 14.95027 1.47235 15.45631 1.62415 16.19955 1.88354 16.64029 2.05229 17.08102 2.22105 17.73682 2.5052 18.12685 2.68864 18.51688 2.87209 19.1032 3.17802 19.45148 3.37448 19.79973 3.57094 20.32506 3.89682 20.63696 4.1046 20.9489 4.31238 21.41983 4.65437 21.69963 4.8721 21.97942 5.08983 22.40327 5.44739 22.65363 5.67386 22.904 5.90031 23.28117 6.27054 23.50418 6.50435 23.72719 6.73814 24.06358 7.11894 24.26096 7.35904 24.45831 7.59912 24.75374 7.98961 24.92673 8.23485 25.09969 8.48009 25.35791 8.8773 25.50769 9.12657 25.6575 9.37582 25.87901 9.7791 26.00633 10.03145 26.13365 10.28378 26.3199 10.69095 26.42538 10.94531 26.53087 11.19968 26.68217 11.60939 26.76657 11.86472 26.85097 12.12003 26.96965 12.53014 27.0337 12.7855 27.09775 13.04088 27.18384 13.45064 27.22818 13.70526 27.27254 13.95987 27.32837 14.36778 27.35342 14.62051 27.37848 14.87325 27.40251 15.2768 27.40881 15.52678 27.41508 15.77676 27.41077 16.17615 27.39877 16.42229 27.38678 16.66844 27.35211 17.05933 27.3223 17.30087 27.2925 17.54242 27.23079 17.92688 27.1839 18.16318 27.13698 18.39948 27.04778 18.77411 26.98422 19.00403 26.92065 19.23396 26.8053 19.59737 26.72574 19.82033 26.6462 20.04329 26.50615 20.39607 26.41084 20.61102 26.31555 20.82596 26.14922 21.16345 26.03885 21.3695 25.92848 21.57556 25.73987 21.89952 25.61533 22.09618 25.49078 22.29283 25.27942 22.60052 25.14125 22.78687 25.0031 22.97319 24.77043 23.26347 24.61945 23.43913 24.46846 23.61479 24.21675 23.88924 24.053 24.053 23.88924 24.21675 23.61479 24.46846 23.43913 24.61945 23.26347 24.77043 22.97319 25.0031 22.78687 25.14125 22.60052 25.27942 22.29283 25.49078 22.09618 25.61533 21.89952 25.73987 21.57556 25.92848 21.3695 26.03885 21.16345 26.14922 20.82596 26.31555 20.61102 26.41084 20.39607 26.50615 20.04329 26.6462 19.82033 26.72574 19.59737 26.8053 19.23396 26.92065 19.00403 26.98422 18.77411 27.04778 18.39948 27.13698 18.16318 27.1839 17.92688 27.23079 17.54242 27.2925 17.30087 27.3223 17.05933 27.35211 16.66844 27.38678 16.42229 27.39877 16.17615 27.41077 15.77676 27.41508 15.52678 27.40881 15.2768 27.40251 14.87325 27.37848 14.62051 27.35342 14.36778 27.32837 13.95987 27.27254 13.70526 27.22818 13.45064 27.18384 13.04088 27.09775 12.7855 27.0337 12.53014 26.96965 12.12003 26.85097 11.86472 26.76657 11.60939 26.68217 11.19968 26.53087 10.94531 26.42538 10.69095 26.3199 10.28378 26.13365 10.03145 26.00633 9.7791 25.87901 9.37582 25.6575 9.12657 25.50769 8.8773 25.35791 8.48009 25.09969 8.23485 24.92673 7.98961 24.75374 7.59912 24.45831 7.35904 24.26096 7.11894 24.06358 6.73814 23.72719 6.50435 23.50418 6.27054 23.28117 5.90031 22.904 5.67386 22.65363 5.44739 22.40327 5.08983 21.97942 4.8721 21.69963 4.65437 21.41983 4.31238 20.9489 4.1046 20.63696 3.89682 20.32506 3.57094 19.79973 3.37448 19.45148 3.17802 19.1032 2.87209 18.51688 2.68864 18.12685 2.5052 17.73682 2.22105 17.08102 2.05229 16.64029 1.88354 16.19955 1.62415 15.45631 1.47235 14.95027 1.32054 14.44424 1.08998 13.59192 .95815 12.99312 .82631 12.39433 .62944 11.39262 .52216 10.63458 .41484 9.87654 .25722 9.00514 .18475 7.52962 .1123 6.05411 0 0 0 0"/>
<path transform="matrix(1.00008,0,0,-1.00003,46.45427,47.154939)" stroke-width="1.19553" stroke-linecap="butt" stroke-miterlimit="10" stroke-linejoin="miter" fill="none" stroke="#ff0000" d="M0 0C0 0-6.05411-.1123-7.52962-.18475-9.00514-.25722-9.87654-.41484-10.63458-.52216-11.39262-.62944-12.39433-.82631-12.99312-.95815-13.59192-1.08998-14.44424-1.32054-14.95027-1.47235-15.45631-1.62415-16.19955-1.88354-16.64029-2.05229-17.08102-2.22105-17.73682-2.5052-18.12685-2.68864-18.51688-2.87209-19.1032-3.17802-19.45148-3.37448-19.79973-3.57094-20.32506-3.89682-20.63696-4.1046-20.9489-4.31238-21.41983-4.65437-21.69963-4.8721-21.97942-5.08983-22.40327-5.44739-22.65363-5.67386-22.904-5.90031-23.28117-6.27054-23.50418-6.50435-23.72719-6.73814-24.06358-7.11894-24.26096-7.35904-24.45831-7.59912-24.75374-7.98961-24.92673-8.23485-25.09969-8.48009-25.35791-8.8773-25.50769-9.12657-25.6575-9.37582-25.87901-9.7791-26.00633-10.03145-26.13365-10.28378-26.3199-10.69095-26.42538-10.94531-26.53087-11.19968-26.68217-11.60939-26.76657-11.86472-26.85097-12.12003-26.96965-12.53014-27.0337-12.7855-27.09775-13.04088-27.18384-13.45064-27.22818-13.70526-27.27254-13.95987-27.32837-14.36778-27.35342-14.62051-27.37848-14.87325-27.40251-15.2768-27.40881-15.52678-27.41508-15.77676-27.41077-16.17615-27.39877-16.42229-27.38678-16.66844-27.35211-17.05933-27.3223-17.30087-27.2925-17.54242-27.23079-17.92688-27.1839-18.16318-27.13698-18.39948-27.04778-18.77411-26.98422-19.00403-26.92065-19.23396-26.8053-19.59737-26.72574-19.82033-26.6462-20.04329-26.50615-20.39607-26.41084-20.61102-26.31555-20.82596-26.14922-21.16345-26.03885-21.3695-25.92848-21.57556-25.73987-21.89952-25.61533-22.09618-25.49078-22.29283-25.27942-22.60052-25.14125-22.78687-25.0031-22.97319-24.77043-23.26347-24.61945-23.43913-24.46846-23.61479-24.21675-23.88924-24.053-24.053-23.88924-24.21675-23.61479-24.46846-23.43913-24.61945-23.26347-24.77043-22.97319-25.0031-22.78687-25.14125-22.60052-25.27942-22.29283-25.49078-22.09618-25.61533-21.89952-25.73987-21.57556-25.92848-21.3695-26.03885-21.16345-26.14922-20.82596-26.31555-20.61102-26.41084-20.39607-26.50615-20.04329-26.6462-19.82033-26.72574-19.59737-26.8053-19.23396-26.92065-19.00403-26.98422-18.77411-27.04778-18.39948-27.13698-18.16318-27.1839-17.92688-27.23079-17.54242-27.2925-17.30087-27.3223-17.05933-27.35211-16.66844-27.38678-16.42229-27.39877-16.17615-27.41077-15.77676-27.41508-15.52678-27.40881-15.2768-27.40251-14.87325-27.37848-14.62051-27.35342-14.36778-27.32837-13.95987-27.27254-13.70526-27.22818-13.45064-27.18384-13.04088-27.09775-12.7855-27.0337-12.53014-26.96965-12.12003-26.85097-11.86472-26.76657-11.60939-26.68217-11.19968-26.53087-10.94531-26.42538-10.69095-26.3199-10.28378-26.13365-10.03145-26.00633-9.7791-25.87901-9.37582-25.6575-9.12657-25.50769-8.8773-25.35791-8.48009-25.09969-8.23485-24.92673-7.98961-24.75374-7.59912-24.45831-7.35904-24.26096-7.11894-24.06358-6.73814-23.72719-6.50435-23.50418-6.27054-23.28117-5.90031-22.904-5.67386-22.65363-5.44739-22.40327-5.08983-21.97942-4.8721-21.69963-4.65437-21.41983-4.31238-20.9489-4.1046-20.63696-3.89682-20.32506-3.57094-19.79973-3.37448-19.45148-3.17802-19.1032-2.87209-18.51688-2.68864-18.12685-2.5052-17.73682-2.22105-17.08102-2.05229-16.64029-1.88354-16.19955-1.62415-15.45631-1.47235-14.95027-1.32054-14.44424-1.08998-13.59192-.95815-12.99312-.82631-12.39433-.62944-11.39262-.52216-10.63458-.41484-9.87654-.25722-9.00514-.18475-7.52962-.1123-6.05411 0 0 0 0"/>
</svg>
