<svg xmlns="http://www.w3.org/2000/svg" xmlns:xlink="http://www.w3.org/1999/xlink" version="1.1" width="203" height="129" viewBox="0 0 203 129">
<defs>
<path id="font_1_2" d="M.33399964 .30233766C.33999635 .32835389 .36299134 .42037965 .43299867 .42037965 .43798829 .42037965 .46199037 .42037965 .48298646 .40734864 .45498658 .402359 .43499757 .37734986 .43499757 .35334779 .43499757 .33735658 .44599916 .31835938 .47299195 .31835938 .49499513 .31835938 .5269928 .3363495 .5269928 .37635804 .5269928 .42837525 .46798707 .4423828 .43399049 .4423828 .37599183 .4423828 .34098817 .38935853 .32899476 .36634828 .3039856 .43237306 .25 .4423828 .22099304 .4423828 .116989139 .4423828 .05999756 .3133545 .05999756 .28834535 .05999756 .27833558 .069992069 .27833558 .07199097 .27833558 .07998657 .27833558 .08299255 .28033448 .084991458 .28933717 .11898804 .39535523 .18499756 .42037965 .21899414 .42037965 .23799134 .42037965 .272995 .4113617 .272995 .35334779 .272995 .32235719 .2559967 .25532533 .21899414 .11528015 .20298767 .053268434 .16799927 .011245728 .12399292 .011245728 .117996219 .011245728 .09498596 .011245728 .07398987 .024276734 .09899902 .029266358 .12098694 .05027771 .12098694 .07827759 .12098694 .105270389 .09899902 .11328125 .083999637 .11328125 .053985597 .11328125 .0289917 .08728027 .0289917 .055267335 .0289917 .009246826 .07899475-.0107421879 .12298584-.0107421879 .18899536-.0107421879 .22499085 .059280397 .22799683 .0652771 .23999024 .028274537 .27598573-.0107421879 .33599855-.0107421879 .43899537-.0107421879 .49598695 .118270877 .49598695 .14328003 .49598695 .1532898 .4869995 .1532898 .48399354 .1532898 .47499085 .1532898 .47299195 .14929199 .47099305 .14228821 .43798829 .03527832 .36999513 .011245728 .33799745 .011245728 .29899598 .011245728 .2829895 .043273927 .2829895 .07727051 .2829895 .09927368 .2889862 .121276859 .2999878 .16529846L.33399964 .30233766Z"/>
<path id="font_1_3" d="M.48599244 .38136292C.48999024 .39537049 .48999024 .39736939 .48999024 .40437318 .48999024 .42237855 .47599793 .43138124 .46099855 .43138124 .45098878 .43138124 .43499757 .42536927 .42599488 .41036988 .42399598 .405365 .41600038 .37435914 .4119873 .35635377 .40499879 .33035279 .397995 .30334474 .3919983 .27633668L.34700013 .09628296C.34298707 .08126831 .2999878 .011245728 .23399353 .011245728 .18299866 .011245728 .17199707 .055267335 .17199707 .0922699 .17199707 .1382904 .18899536 .20030213 .22299195 .28833009 .23899842 .3293457 .24299622 .3403473 .24299622 .36035157 .24299622 .405365 .21099854 .4423828 .16099549 .4423828 .06599426 .4423828 .0289917 .29733277 .0289917 .28833009 .0289917 .27833558 .038986207 .27833558 .040985109 .27833558 .050994874 .27833558 .051986696 .28033448 .056991579 .29634095 .083999637 .3903656 .12399292 .42037965 .1579895 .42037965 .1659851 .42037965 .18299866 .42037965 .18299866 .3883667 .18299866 .36335755 .17298889 .3373413 .1659851 .31834413 .12599182 .21231079 .10798645 .1552887 .10798645 .10827637 .10798645 .019256592 .17098999-.0107421879 .22999573-.0107421879 .2689972-.0107421879 .30299378 .0062561037 .33099366 .03425598 .31799317-.017745972 .30599977-.06674194 .2659912-.11973572 .23999024-.15385437 .20199585-.18309021 .1559906-.18309021 .14199829-.18309021 .09700012-.18005371 .07998657-.14074707 .09599304-.14074707 .10899353-.14074707 .12298584-.1287384 .1329956-.11973572 .14299011-.10673523 .14299011-.08773804 .14299011-.056747438 .115997318-.052734376 .10598755-.052734376 .08299255-.052734376 .049987794-.068740848 .049987794-.11773682 .049987794-.16796875 .09399414-.20507813 .1559906-.20507813 .25898744-.20507813 .3619995-.11373901 .3899994-.00074768069L.48599244 .38136292Z"/>
<path id="font_2_64" d="M.27598573 .18710327V.24511719H.010986328V.18710327H.27598573Z"/>
<path id="font_2_106" d="M.45700074 .17037964C.45700074 .252594 .3939972 .33088685 .2899933 .35191346 .37199403 .37893678 .42999269 .4490509 .42999269 .52809146 .42999269 .6100464 .34199525 .6660156 .24598694 .6660156 .14498902 .6660156 .068984989 .60606387 .068984989 .53009036 .068984989 .49710084 .09098816 .47808839 .11999512 .47808839 .15098572 .47808839 .17098999 .50009158 .17098999 .5290985 .17098999 .57910159 .12399292 .57910159 .10899353 .57910159 .13999939 .62802127 .20599365 .64100649 .24198914 .64100649 .2829895 .64100649 .33799745 .6190338 .33799745 .5290985 .33799745 .51708987 .33599855 .45906068 .30999757 .4149933 .27999879 .36691285 .24598694 .36390687 .22099304 .36291505 .21299744 .36190797 .18899536 .35990907 .18199158 .35990907 .17399597 .35890199 .16699219 .35791017 .16699219 .3479004 .16699219 .33691407 .17399597 .33691407 .19099427 .33691407H.23498535C.31698609 .33691407 .35398866 .2686615 .35398866 .17037964 .35398866 .034469606 .2849884 .0055389406 .24099732 .0055389406 .19799805 .0055389406 .12298584 .022491456 .08799744 .08137512 .12298584 .07637024 .1539917 .09837341 .1539917 .1363678 .1539917 .17237854 .1269989 .19238281 .09799194 .19238281 .07398987 .19238281 .041992189 .17837525 .041992189 .1343689 .041992189 .043441774 .1349945-.022460938 .24398804-.022460938 .3659973-.022460938 .45700074 .06838989 .45700074 .17037964Z"/>
<path id="font_2_107" d="M.44898988 .17396546H.42399598C.4189911 .14398194 .4119873 .099990848 .4019928 .084991458 .394989 .07699585 .32899476 .07699585 .30699159 .07699585H.1269989L.23298645 .17996216C.3889923 .31803895 .44898988 .37210084 .44898988 .47216798 .44898988 .5860901 .35899354 .6660156 .23699951 .6660156 .12399292 .6660156 .049987794 .57411196 .049987794 .48516847 .049987794 .4291687 .099990848 .4291687 .102996829 .4291687 .11999512 .4291687 .15499878 .44117738 .15499878 .48217774 .15499878 .5081787 .13699341 .5341797 .101989749 .5341797 .09399414 .5341797 .09199524 .5341797 .08898926 .5331726 .11199951 .59806826 .1659851 .63500979 .22399903 .63500979 .31498719 .63500979 .35798646 .5541382 .35798646 .47216798 .35798646 .39196778 .30799867 .31297303 .25299073 .25097657L.06098938 .036987306C.049987794 .025985718 .049987794 .023986817 .049987794 0H.42099L.44898988 .17396546Z"/>
<path id="font_2_82" d="M.4189911 0V.0309906H.3869934C.29699708 .0309906 .2939911 .041992189 .2939911 .07902527V.64012148C.2939911 .6640167 .2939911 .6660156 .2709961 .6660156 .20899964 .60227969 .12098694 .60227969 .08898926 .60227969V.57128909C.10899353 .57128909 .16799927 .57128909 .21998596 .5972748V.07902527C.21998596 .042999269 .21699524 .0309906 .1269989 .0309906H.09498596V0C.12998963 .0029907227 .21699524 .0029907227 .25698854 .0029907227 .29699708 .0029907227 .38398744 .0029907227 .4189911 0Z"/>
<path id="font_1_1" d="M.2649994 .37265016H.37799073C.34498597 .22489929 .33599855 .18196106 .33599855 .11508179 .33599855 .100097659 .33599855 .073150638 .34399415 .03919983 .35398866-.0047454836 .36499024-.0107421879 .37998963-.0107421879 .3999939-.0107421879 .42099 .007247925 .42099 .02722168 .42099 .033218385 .42099 .035202028 .4149933 .049179079 .38598634 .12106323 .38598634 .18595886 .38598634 .21391297 .38598634 .26683045 .3929901 .32073976 .4039917 .37265016H.5179901C.5309906 .37265016 .5669861 .37265016 .5669861 .406662 .5669861 .43066407 .54599 .43066407 .5269928 .43066407H.19198609C.16999817 .43066407 .13198853 .43066407 .08799744 .38365174 .052993776 .34469605 .026992798 .29878236 .026992798 .29379273 .026992798 .29278565 .026992798 .28379823 .038986207 .28379823 .04699707 .28379823 .04899597 .28779603 .054992677 .29577638 .10398865 .37265016 .1619873 .37265016 .18199158 .37265016H.23899842C.20698548 .25186158 .15299988 .13105774 .11099243 .04020691 .102996829 .025222779 .102996829 .023223877 .102996829 .016235352 .102996829-.002746582 .11898804-.0107421879 .13198853-.0107421879 .1619873-.0107421879 .16999817 .017242432 .18199158 .05418396 .19599915 .100097659 .19599915 .10209656 .20899964 .15202332L.2649994 .37265016Z"/>
<path id="font_3_3" d="M.1269989 .07699585 .23298645 .18003845C.3889923 .31811524 .44898988 .3721466 .44898988 .47216798 .44898988 .5860901 .35899354 .6660156 .23699951 .6660156 .12399292 .6660156 .049987794 .57411196 .049987794 .48516847 .049987794 .4291687 .099990848 .4291687 .102996829 .4291687 .11999512 .4291687 .15499878 .44117738 .15499878 .48217774 .15499878 .5081787 .13699341 .5341797 .101989749 .5341797 .09399414 .5341797 .09199524 .5341797 .08898926 .5331726 .11199951 .59806826 .1659851 .63500979 .22399903 .63500979 .31498719 .63500979 .35798646 .5541382 .35798646 .47216798 .35798646 .39215089 .30799867 .31311036 .25299073 .25108338L.06098938 .036987306C.049987794 .025985718 .049987794 .023986817 .049987794 0H.42099L.44898988 .17404175H.42399598C.4189911 .14402771 .4119873 .1000061 .4019928 .084991458 .394989 .07699585 .32899476 .07699585 .30699159 .07699585H.1269989Z"/>
<path id="font_4_1" d="M.6589966 .23046875C.6759949 .23046875 .69400027 .23046875 .69400027 .25045777 .69400027 .27046205 .6759949 .27046205 .6589966 .27046205H.117996219C.100997928 .27046205 .08299255 .27046205 .08299255 .25045777 .08299255 .23046875 .100997928 .23046875 .117996219 .23046875H.6589966Z"/>
<path id="font_3_5" d="M.68699648 .32714845C.70199587 .32714845 .72099307 .32714845 .72099307 .34713746 .72099307 .36714173 .70199587 .36714173 .6879883 .36714173H.08898926C.07499695 .36714173 .055999757 .36714173 .055999757 .34713746 .055999757 .32714845 .07499695 .32714845 .08999634 .32714845H.68699648M.6879883 .13284302C.70199587 .13284302 .72099307 .13284302 .72099307 .15284729 .72099307 .17285156 .70199587 .17285156 .68699648 .17285156H.08999634C.07499695 .17285156 .055999757 .17285156 .055999757 .15284729 .055999757 .13284302 .07499695 .13284302 .08898926 .13284302H.6879883Z"/>
<path id="font_3_6" d="M.116989139 .21801758C.116989139 .38093568 .19898987 .42323304 .2519989 .42323304 .26098634 .42323304 .32398988 .42222596 .35899354 .38594056 .31799317 .38293458 .31199647 .3529358 .31199647 .3399353 .31199647 .31393434 .32998658 .2939453 .35798646 .2939453 .38398744 .2939453 .4039917 .3109436 .4039917 .34094239 .4039917 .40911866 .32798768 .4482422 .25099183 .4482422 .12599182 .4482422 .033996583 .3399353 .033996583 .21601868 .033996583 .08816528 .1329956-.0107421879 .24899292-.0107421879 .3829956-.0107421879 .4149933 .10914612 .4149933 .119140628 .4149933 .12911988 .40499879 .12911988 .4019928 .12911988 .3929901 .12911988 .3909912 .12512207 .3889923 .119140628 .3600006 .026229859 .29499818 .014251709 .2579956 .014251709 .20498657 .014251709 .116989139 .0572052 .116989139 .21801758Z"/>
<path id="font_3_7" d="M.47099305 .21424866C.47099305 .34223939 .37098695 .4482422 .25 .4482422 .125 .4482422 .027999878 .3392334 .027999878 .21424866 .027999878 .085250858 .13198853-.0107421879 .24899292-.0107421879 .36999513-.0107421879 .47099305 .087249759 .47099305 .21424866M.25 .014251709C.20698548 .014251709 .16299439 .035247804 .13598633 .08125305 .11099243 .12524414 .11099243 .18624878 .11099243 .22224427 .11099243 .26124574 .11099243 .31523133 .1349945 .35923768 .1619873 .40522767 .20899964 .426239 .24899292 .426239 .29299928 .426239 .33599855 .40423585 .3619995 .36123658 .3880005 .3182373 .3880005 .26023866 .3880005 .22224427 .3880005 .18624878 .3880005 .13224793 .3659973 .08824158 .34399415 .04324341 .2999878 .014251709 .25 .014251709Z"/>
<path id="font_3_8" d="M.20799256 .19424439C.22999573 .19024658 .31199647 .17424011 .31199647 .102249149 .31199647 .051254274 .2769928 .011245728 .19898987 .011245728 .114990238 .011245728 .07899475 .06825256 .05999756 .15324402 .056991579 .1662445 .055999757 .17024231 .04598999 .17024231 .032989503 .17024231 .032989503 .16323853 .032989503 .14524842V.013244629C.032989503-.003753662 .032989503-.0107421879 .04399109-.0107421879 .04899597-.0107421879 .049987794-.009750366 .068984989 .009246826 .070999149 .011245728 .070999149 .013244629 .08898926 .03224182 .1329956-.009750366 .17799378-.0107421879 .19898987-.0107421879 .31399537-.0107421879 .3600006 .056243898 .3600006 .12825012 .3600006 .1812439 .32998658 .21124268 .31799317 .22323609 .2849884 .25523377 .24598694 .26324464 .20399475 .27124024 .147995 .28224183 .08099365 .2952423 .08099365 .35324098 .08099365 .38822938 .10699463 .42922975 .19299317 .42922975 .30299378 .42922975 .30799867 .3392334 .30999757 .3082428 .31098939 .2992401 .31999208 .2992401 .32199098 .2992401 .33499146 .2992401 .33499146 .304245 .33499146 .3232422V.4242401C.33499146 .4412384 .33499146 .4482422 .32398988 .4482422 .31900025 .4482422 .31698609 .4482422 .3039856 .43623353 .30099488 .43223573 .29100038 .42323304 .2869873 .42022706 .24899292 .4482422 .20799256 .4482422 .19299317 .4482422 .070999149 .4482422 .032989503 .38124085 .032989503 .3252411 .032989503 .29023744 .04899597 .26223756 .07598877 .24023438 .10798645 .21424866 .13598633 .2082367 .20799256 .19424439Z"/>
<path id="font_3_1" d="M.33099366-.2400055C.33099366-.23701477 .33099366-.23500061 .31399537-.21800232 .18899536-.0920105 .15699768 .09700012 .15699768 .25 .15699768 .42399598 .19499207 .59799197 .31799317 .72299197 .33099366 .73498538 .33099366 .7369995 .33099366 .73999026 .33099366 .746994 .32699586 .75 .32099916 .75 .31098939 .75 .22099304 .6819916 .1619873 .5549927 .11099243 .44499208 .09899902 .33399964 .09899902 .25 .09899902 .17199707 .10998535 .050994874 .16499329-.06201172 .22499085-.18501282 .31098939-.25 .32099916-.25 .32699586-.25 .33099366-.24700928 .33099366-.2400055Z"/>
<path id="font_3_2" d="M.2889862 .25C.2889862 .32798768 .27799989 .44898988 .22299195 .56199648 .16299439 .68499758 .07699585 .75 .066986087 .75 .06098938 .75 .056991579 .74598696 .056991579 .73999026 .056991579 .7369995 .056991579 .73498538 .07598877 .71699526 .17399597 .6179962 .23098755 .45899964 .23098755 .25 .23098755 .07899475 .19400025-.09700012 .069992069-.2230072 .056991579-.23500061 .056991579-.23701477 .056991579-.2400055 .056991579-.2460022 .06098938-.25 .066986087-.25 .07699585-.25 .16699219-.18200684 .22599793-.055007936 .2769928 .054992677 .2889862 .16600037 .2889862 .25Z"/>
<path id="font_3_4" d="M.2899933 .35191346C.37199403 .37893678 .42999269 .4490509 .42999269 .52809146 .42999269 .6100464 .34199525 .6660156 .24598694 .6660156 .14498902 .6660156 .068984989 .60606387 .068984989 .53009036 .068984989 .49710084 .09098816 .47808839 .11999512 .47808839 .15098572 .47808839 .17098999 .50009158 .17098999 .5290985 .17098999 .57910159 .12399292 .57910159 .10899353 .57910159 .13999939 .62802127 .20599365 .64100649 .24198914 .64100649 .2829895 .64100649 .33799745 .6190338 .33799745 .5290985 .33799745 .51708987 .33599855 .45906068 .30999757 .4149933 .27999879 .36691285 .24598694 .36390687 .22099304 .36291505 .21299744 .36190797 .18899536 .35990907 .18199158 .35990907 .17399597 .35890199 .16699219 .35791017 .16699219 .3479004 .16699219 .33691407 .17399597 .33691407 .19099427 .33691407H.23498535C.31698609 .33691407 .35398866 .2686615 .35398866 .17037964 .35398866 .034469606 .2849884 .0055389406 .24099732 .0055389406 .19799805 .0055389406 .12298584 .022491456 .08799744 .08137512 .12298584 .07637024 .1539917 .09837341 .1539917 .1363678 .1539917 .17237854 .1269989 .19238281 .09799194 .19238281 .07398987 .19238281 .041992189 .17837525 .041992189 .1343689 .041992189 .043441774 .1349945-.022460938 .24398804-.022460938 .3659973-.022460938 .45700074 .06838989 .45700074 .17037964 .45700074 .252594 .3939972 .33088685 .2899933 .35191346Z"/>
</defs>
<path transform="matrix(1.00006,0,0,-1.00005,99.33492,64.85759)" stroke-width=".3985" stroke-linecap="butt" stroke-miterlimit="10" stroke-linejoin="miter" fill="none" stroke="#00aeef" d="M-89.05394-42.5202H89.05394M-89.05394-28.3468H89.05394M-89.05394-14.17339H89.05394M-89.05394 0H89.05394M-89.05394 14.17339H89.05394M-89.05394 28.3468H89.05394M-89.05394 42.51523H89.05394M-89.05263-42.5202V42.5202M-77.92105-42.5202V42.5202M-66.78947-42.5202V42.5202M-55.65788-42.5202V42.5202M-44.5263-42.5202V42.5202M-33.39473-42.5202V42.5202M-22.26315-42.5202V42.5202M-11.13156-42.5202V42.5202M0-42.5202V42.5202M11.13156-42.5202V42.5202M22.26315-42.5202V42.5202M33.39473-42.5202V42.5202M44.5263-42.5202V42.5202M55.65788-42.5202V42.5202M66.78947-42.5202V42.5202M77.92105-42.5202V42.5202M89.05263-42.5202V42.5202M89.05394 42.5202"/>
<path transform="matrix(1.00006,0,0,-1.00005,99.33492,64.85759)" stroke-width=".79701" stroke-linecap="butt" stroke-miterlimit="10" stroke-linejoin="miter" fill="none" stroke="#000000" d="M-89.05394 0H92.10994"/>
<path transform="matrix(1.00006,0,0,-1.00005,191.45038,64.85759)" d="M1.0361 0C-.25902 .25902-1.55415 .77707-3.1083 1.68365-1.55415 .51805-1.55415-.51805-3.1083-1.68365-1.55415-.77707-.25902-.25902 1.0361 0Z"/>
<path transform="matrix(1.00006,0,0,-1.00005,191.45038,64.85759)" stroke-width=".79701" stroke-linecap="butt" stroke-linejoin="round" fill="none" stroke="#000000" d="M1.0361 0C-.25902 .25902-1.55415 .77707-3.1083 1.68365-1.55415 .51805-1.55415-.51805-3.1083-1.68365-1.55415-.77707-.25902-.25902 1.0361 0Z"/>
<use data-text="x" xlink:href="#font_1_2" transform="matrix(9.963197,0,0,-9.963098,196.60475,67.0027)"/>
<path transform="matrix(1.00006,0,0,-1.00005,99.33492,64.85759)" stroke-width=".79701" stroke-linecap="butt" stroke-miterlimit="10" stroke-linejoin="miter" fill="none" stroke="#000000" d="M0-42.5202V48.1723"/>
<path transform="matrix(0,-1.00005,-1.00006,-0,99.33492,16.682885)" d="M1.0361 0C-.25902 .25902-1.55415 .77707-3.1083 1.68365-1.55415 .51805-1.55415-.51805-3.1083-1.68365-1.55415-.77707-.25902-.25902 1.0361 0Z"/>
<path transform="matrix(0,-1.00005,-1.00006,-0,99.33492,16.682885)" stroke-width=".79701" stroke-linecap="butt" stroke-linejoin="round" fill="none" stroke="#000000" d="M1.0361 0C-.25902 .25902-1.55415 .77707-3.1083 1.68365-1.55415 .51805-1.55415-.51805-3.1083-1.68365-1.55415-.77707-.25902-.25902 1.0361 0Z"/>
<use data-text="y" xlink:href="#font_1_3" transform="matrix(9.963197,0,0,-9.963098,96.71377,9.591827)"/>
<path transform="matrix(1.00006,0,0,-1.00005,99.33492,64.85759)" stroke-width=".79701" stroke-linecap="butt" stroke-miterlimit="10" stroke-linejoin="miter" fill="none" stroke="#000000" d="M1.13388-42.5202H-1.1339"/>
<use data-text="-" xlink:href="#font_2_64" transform="matrix(9.963197,0,0,-9.963098,86.18214,110.587879)"/>
<use data-text="3" xlink:href="#font_2_106" transform="matrix(9.963197,0,0,-9.963098,89.4999,110.587879)"/>
<path transform="matrix(1.00006,0,0,-1.00005,99.33492,64.85759)" stroke-width=".79701" stroke-linecap="butt" stroke-miterlimit="10" stroke-linejoin="miter" fill="none" stroke="#000000" d="M1.13388-28.3468H-1.1339"/>
<use data-text="-" xlink:href="#font_2_64" transform="matrix(9.963197,0,0,-9.963098,86.18214,96.52317)"/>
<use data-text="2" xlink:href="#font_2_107" transform="matrix(9.963197,0,0,-9.963098,89.4999,96.52317)"/>
<path transform="matrix(1.00006,0,0,-1.00005,99.33492,64.85759)" stroke-width=".79701" stroke-linecap="butt" stroke-miterlimit="10" stroke-linejoin="miter" fill="none" stroke="#000000" d="M1.13388-14.17339H-1.1339"/>
<use data-text="-" xlink:href="#font_2_64" transform="matrix(9.963197,0,0,-9.963098,86.18214,82.349468)"/>
<use data-text="1" xlink:href="#font_2_82" transform="matrix(9.963197,0,0,-9.963098,89.4999,82.349468)"/>
<path transform="matrix(1.00006,0,0,-1.00005,99.33492,64.85759)" stroke-width=".79701" stroke-linecap="butt" stroke-miterlimit="10" stroke-linejoin="miter" fill="none" stroke="#000000" d="M1.13388 14.17339H-1.1339"/>
<use data-text="1" xlink:href="#font_2_82" transform="matrix(9.963197,0,0,-9.963098,89.500339,54.001047)"/>
<path transform="matrix(1.00006,0,0,-1.00005,99.33492,64.85759)" stroke-width=".79701" stroke-linecap="butt" stroke-miterlimit="10" stroke-linejoin="miter" fill="none" stroke="#000000" d="M1.13388 28.3468H-1.1339"/>
<use data-text="2" xlink:href="#font_2_107" transform="matrix(9.963197,0,0,-9.963098,89.500339,39.82734)"/>
<path transform="matrix(1.00006,0,0,-1.00005,99.33492,64.85759)" stroke-width=".79701" stroke-linecap="butt" stroke-miterlimit="10" stroke-linejoin="miter" fill="none" stroke="#000000" d="M1.13388 42.5202H-1.1339"/>
<use data-text="3" xlink:href="#font_2_106" transform="matrix(9.963197,0,0,-9.963098,89.500339,25.543625)"/>
<path transform="matrix(1.00006,0,0,-1.00005,99.33492,64.85759)" stroke-width=".79701" stroke-linecap="butt" stroke-miterlimit="10" stroke-linejoin="miter" fill="none" stroke="#000000" d="M44.52696 1.13388V-1.1339"/>
<path transform="matrix(1.00006,0,0,-1.00005,99.33492,64.85759)" d="M40.51245-11.79958H48.541494V-5.5175197H40.51245Z" fill="#ffffff"/>
<use data-text="&#x03c0;" xlink:href="#font_1_1" transform="matrix(9.963197,0,0,-9.963098,140.8464,75.66113)"/>
<path transform="matrix(1.00006,0,0,-1.00005,99.33492,64.85759)" stroke-width=".79701" stroke-linecap="butt" stroke-miterlimit="10" stroke-linejoin="miter" fill="none" stroke="#000000" d="M89.05394 1.13388V-1.1339"/>
<path transform="matrix(1.00006,0,0,-1.00005,99.33492,64.85759)" d="M82.54872-13.9305H95.55914V-5.51752H82.54872Z" fill="#ffffff"/>
<use data-text="2" xlink:href="#font_3_3" transform="matrix(9.963197,0,0,-9.963098,182.88494,77.79224)"/>
<use data-text="&#x03c0;" xlink:href="#font_1_1" transform="matrix(9.963197,0,0,-9.963098,187.86624,77.79224)"/>
<path transform="matrix(1.00006,0,0,-1.00005,99.33492,64.85759)" stroke-width=".79701" stroke-linecap="butt" stroke-miterlimit="10" stroke-linejoin="miter" fill="none" stroke="#000000" d="M-44.52696 1.13388V-1.1339"/>
<path transform="matrix(1.00006,0,0,-1.00005,99.33492,64.85759)" d="M-52.41591-12.15935H-36.63803V-3.52497H-52.41591Z" fill="#ffffff"/>
<use data-text="&#x2212;" xlink:href="#font_4_1" transform="matrix(9.963197,0,0,-9.963098,47.91185,75.1911)"/>
<use data-text="&#x03c0;" xlink:href="#font_1_1" transform="matrix(9.963197,0,0,-9.963098,55.661317,75.1911)"/>
<path transform="matrix(1.00006,0,0,-1.00005,99.33492,64.85759)" stroke-width=".79701" stroke-linecap="butt" stroke-miterlimit="10" stroke-linejoin="miter" fill="none" stroke="#000000" d="M-89.05394 1.13388V-1.1339"/>
<path transform="matrix(1.00006,0,0,-1.00005,99.33492,64.85759)" d="M-99.43358-14.76073H-78.67432V-5.5175H-99.43358Z" fill="#ffffff"/>
<use data-text="&#x2212;" xlink:href="#font_4_1" transform="matrix(9.963197,0,0,-9.963098,.89201357,77.79224)"/>
<use data-text="2" xlink:href="#font_3_3" transform="matrix(9.963197,0,0,-9.963098,8.6414799,77.79224)"/>
<use data-text="&#x03c0;" xlink:href="#font_1_1" transform="matrix(9.963197,0,0,-9.963098,13.622787,77.79224)"/>
<path transform="matrix(1.00006,0,0,-1.00005,99.33492,64.85759)" stroke-width="1.19553" stroke-linecap="butt" stroke-miterlimit="10" stroke-linejoin="miter" fill="none" stroke="#ff0000" d="M-89.05394 14.17317C-89.05394 14.17317-87.0434 14.05022-86.27121 13.90045-85.49901 13.7507-84.26067 13.38736-83.48846 13.09378-82.71628 12.8002-81.47794 12.2106-80.70573 11.78447-79.93355 11.35835-78.69519 10.56503-77.923 10.02254-77.1508 9.48006-75.91246 8.51253-75.14027 7.87456-74.36807 7.23657-73.12973 6.13322-72.35753 5.42444-71.58534 4.71565-70.347 3.51852-69.5748 2.76607-68.80261 2.01361-67.56425 .76846-66.79207 .00128-66.01987-.76588-64.78152-2.01083-64.00934-2.76326-63.23714-3.51567-61.9988-4.71277-61.2266-5.42163-60.4544-6.13048-59.21606-7.23415-58.44388-7.87218-57.67168-8.51021-56.43332-9.47757-55.66113-10.02016-54.88895-10.56274-53.6506-11.35645-52.8784-11.78276-52.10622-12.20905-50.86786-12.79897-50.09566-13.0927-49.32349-13.38643-48.08513-13.7499-47.31294-13.89981-46.54074-14.04973-45.30238-14.17299-44.53021-14.17317-43.75801-14.17334-42.51967-14.05064-41.74747-13.90111-40.97528-13.75156-39.73692-13.38872-38.96474-13.09529-38.19255-12.80185-36.9542-12.21225-36.182-11.78621-35.4098-11.36017-34.17146-10.56705-33.39928-10.0247-32.62708-9.48236-31.38873-8.51518-30.61653-7.87737-29.84435-7.23953-28.606-6.13643-27.83382-5.42769-27.06161-4.71896-25.82326-3.52173-25.05107-2.7693-24.27887-2.01689-23.04054-.77188-22.26834-.00473-21.49615 .76239-20.2578 2.00732-19.4856 2.7598-18.71341 3.51227-17.47507 4.7097-16.70288 5.4186-15.93068 6.12752-14.69232 7.23103-13.92014 7.86914-13.14793 8.50728-11.9096 9.47502-11.1374 10.01778-10.36522 10.56055-9.12686 11.35454-8.35466 11.78102-7.58247 12.2075-6.34413 12.79773-5.57195 13.09161-4.79974 13.3855-3.5614 13.7491-2.7892 13.89915-2.01703 14.04922-.77867 14.1728-.00647 14.17317 .7657 14.17352 2.00404 14.05115 2.77623 13.90176 3.54842 13.75235 4.78677 13.38962 5.55896 13.09637 6.33116 12.80312 7.5695 12.214 8.3417 11.78815 9.11388 11.3623 10.35223 10.5693 11.12444 10.02708 11.89662 9.48486 13.13498 8.51793 13.90715 7.88019 14.67935 7.24242 15.91771 6.13918 16.6899 5.43051 17.4621 4.72183 18.70044 3.52492 19.47263 2.77255 20.24481 2.0202 21.48317 .77515 22.25537 .008 23.02756-.75916 24.2659-2.00404 25.03809-2.75655 25.81029-3.50905 27.04863-4.70659 27.82083-5.41557 28.59302-6.12459 29.83136-7.22835 30.60356-7.86656 31.37575-8.50478 32.6141-9.47253 33.38629-10.01541 34.1585-10.55829 35.39684-11.35269 36.16902-11.7793 36.94122-12.2059 38.17957-12.79607 38.95177-13.0901 39.72395-13.38414 40.9623-13.74823 41.7345-13.89851 42.50668-14.04878 43.74504-14.17259 44.51723-14.17317 45.28943-14.17374 46.52777-14.05185 47.29996-13.90263 48.07216-13.7534 49.3105-13.39078 50.0827-13.09767 50.85489-12.80458 52.09323-12.21582 52.86542-11.7901 53.63762-11.3644 54.87598-10.57158 55.64816-10.02945 56.42035-9.48732 57.65869-8.52042 58.4309-7.88278 59.20308-7.24513 60.44144-6.14229 61.21364-5.43375 61.98581-4.72519 63.22417-3.52834 63.99635-2.77602 64.76855-2.02368 66.00691-.77863 66.7791-.01144 67.55128 .7557 68.78963 2.00073 69.56183 2.7533 70.33401 3.50587 71.57237 4.70349 72.34456 5.41255 73.11674 6.1216 74.3551 7.22545 75.12729 7.86375 75.89949 8.50204 77.13785 9.47002 77.91002 10.01302 78.68222 10.55602 79.92056 11.3506 80.69276 11.77734 81.46495 12.20412 82.7033 12.79456 83.47548 13.0888 84.24768 13.38304 85.48604 13.74763 86.25822 13.89809 87.03043 14.04854 89.04095 14.17317 89.04095 14.17317"/>
<path transform="matrix(1.00006,0,0,-1.00005,99.33492,64.85759)" stroke-width="1.19553" stroke-linecap="butt" stroke-miterlimit="10" stroke-linejoin="miter" fill="none" stroke="#0000ff" d="M-89.05394-42.51955C-89.05394-42.51955-87.0434-42.15068-86.27121-41.7014-85.49901-41.2521-84.26067-40.16211-83.48846-39.28136-82.71628-38.4006-81.47794-36.63185-80.70573-35.35347-79.93355-34.07509-78.69519-31.69513-77.923-30.06766-77.1508-28.44017-75.91246-25.53763-75.14027-23.6237-74.36807-21.70978-73.12973-18.39973-72.35753-16.27336-71.58534-14.14699-70.347-10.55557-69.5748-8.29822-68.80261-6.04086-67.56425-2.30544-66.79207-.00389-66.01987 2.29765-64.78152 6.03253-64.00934 8.2898-63.23714 10.54706-61.9988 14.13837-61.2266 16.26492-60.4544 18.39148-59.21606 21.70244-58.44388 23.61656-57.67168 25.53067-56.43332 28.43275-55.66113 30.0605-54.88895 31.68826-53.6506 34.06938-52.8784 35.34828-52.10622 36.62721-50.86786 38.39691-50.09566 39.2781-49.32349 40.15932-48.08513 41.24971-47.31294 41.69946-46.54074 42.1492-45.30238 42.51901-44.53021 42.51955-43.75801 42.5201-42.51967 42.15201-41.74747 41.70335-40.97528 41.2547-39.73692 40.1662-38.96474 39.2859-38.19255 38.4056-36.9542 36.63678-36.182 35.35867-35.4098 34.08055-34.17146 31.70117-33.39928 30.07414-32.62708 28.4471-31.38873 25.54561-30.61653 23.63214-29.84435 21.71864-28.606 18.40929-27.83382 16.2831-27.06161 14.15689-25.82326 10.56523-25.05107 8.30797-24.27887 6.0507-23.04054 2.31572-22.26834 .01425-21.49615-2.28719-20.2578-6.02197-19.4856-8.27942-18.71341-10.53687-17.47507-14.1291-16.70288-16.25584-15.93068-18.38257-14.69232-21.6931-13.92014-23.60748-13.14793-25.52185-11.9096-28.42508-11.1374-30.05338-10.36522-31.68166-9.12686-34.06364-8.35466-35.34311-7.58247-36.62256-6.34413-38.39322-5.57195-39.27487-4.79974-40.15654-3.5614-41.24733-2.7892-41.69751-2.01703-42.1477-.77867-42.51846-.00647-42.51955 .7657-42.52063 2.00404-42.15352 2.77623-41.70529 3.54842-41.2571 4.78677-40.16891 5.55896-39.28914 6.33116-38.40938 7.5695-36.64207 8.3417-35.3645 9.11388-34.08693 10.35223-31.70795 11.12444-30.08127 11.89662-28.4546 13.13498-25.55386 13.90715-23.64056 14.67935-21.72726 15.91771-18.41756 16.6899-16.29153 17.4621-14.16551 18.70044-10.57478 19.47263-8.31769 20.24481-6.0606 21.48317-2.32545 22.25537-.024 23.02756 2.27745 24.2659 6.01215 25.03809 8.26968 25.81029 10.52722 27.04863 14.11975 27.82083 16.24675 28.59302 18.37378 29.83136 21.68504 30.60356 23.5997 31.37575 25.51434 32.6141 28.41759 33.38629 30.04623 34.1585 31.67488 35.39684 34.05807 36.16902 35.3379 36.94122 36.61772 38.17957 38.38821 38.95177 39.27032 39.72395 40.15244 40.9623 41.24474 41.7345 41.69557 42.50668 42.14638 43.74504 42.51784 44.51723 42.51955 45.28943 42.52127 46.52777 42.15556 47.29996 41.7079 48.07216 41.26022 49.3105 40.17236 50.0827 39.29303 50.85489 38.41373 52.09323 36.64746 52.86542 35.37035 53.63762 34.09323 54.87598 31.7148 55.64816 30.0884 56.42035 28.462 57.65869 25.5613 58.4309 23.64836 59.20308 21.73541 60.44144 18.42693 61.21364 16.30125 61.98581 14.17561 63.22417 10.58507 63.99635 8.32808 64.76855 6.07108 66.00691 2.33592 66.7791 .03436 67.55128-2.26717 68.78963-6.00223 69.56183-8.25995 70.33401-10.51767 71.57237-14.11049 72.34456-16.23769 73.11674-18.36487 74.3551-21.67635 75.12729-23.59126 75.89949-25.50618 77.13785-28.4101 77.91002-30.03911 78.68222-31.66812 79.92056-34.0518 80.69276-35.33206 81.46495-36.61235 82.7033-38.3837 83.47548-39.26643 84.24768-40.14917 85.48604-41.2429 86.25822-41.69426 87.03043-42.14563 89.04095-42.51955 89.04095-42.51955"/>
<path transform="matrix(1.00006,0,0,-1.00005,99.33492,64.85759)" stroke-width="1.19553" stroke-linecap="butt" stroke-miterlimit="10" stroke-linejoin="miter" fill="none" stroke="#00b300" d="M-89.05394 42.51955C-89.05394 42.51955-87.0434 42.15068-86.27121 41.7014-85.49901 41.2521-84.26067 40.16211-83.48846 39.28136-82.71628 38.4006-81.47794 36.63185-80.70573 35.35347-79.93355 34.07509-78.69519 31.69513-77.923 30.06766-77.1508 28.44017-75.91246 25.53763-75.14027 23.6237-74.36807 21.70978-73.12973 18.39973-72.35753 16.27336-71.58534 14.14699-70.347 10.55557-69.5748 8.29822-68.80261 6.04086-67.56425 2.30544-66.79207 .00389-66.01987-2.29765-64.78152-6.03253-64.00934-8.2898-63.23714-10.54706-61.9988-14.13837-61.2266-16.26492-60.4544-18.39148-59.21606-21.70244-58.44388-23.61656-57.67168-25.53067-56.43332-28.43275-55.66113-30.0605-54.88895-31.68826-53.6506-34.06938-52.8784-35.34828-52.10622-36.62721-50.86786-38.39691-50.09566-39.2781-49.32349-40.15932-48.08513-41.24971-47.31294-41.69946-46.54074-42.1492-45.30238-42.51901-44.53021-42.51955-43.75801-42.5201-42.51967-42.15201-41.74747-41.70335-40.97528-41.2547-39.73692-40.1662-38.96474-39.2859-38.19255-38.4056-36.9542-36.63678-36.182-35.35867-35.4098-34.08055-34.17146-31.70117-33.39928-30.07414-32.62708-28.4471-31.38873-25.54561-30.61653-23.63214-29.84435-21.71864-28.606-18.40929-27.83382-16.2831-27.06161-14.15689-25.82326-10.56523-25.05107-8.30797-24.27887-6.0507-23.04054-2.31572-22.26834-.01425-21.49615 2.28719-20.2578 6.02197-19.4856 8.27942-18.71341 10.53687-17.47507 14.1291-16.70288 16.25584-15.93068 18.38257-14.69232 21.6931-13.92014 23.60748-13.14793 25.52185-11.9096 28.42508-11.1374 30.05338-10.36522 31.68166-9.12686 34.06364-8.35466 35.34311-7.58247 36.62256-6.34413 38.39322-5.57195 39.27487-4.79974 40.15654-3.5614 41.24733-2.7892 41.69751-2.01703 42.1477-.77867 42.51846-.00647 42.51955 .7657 42.52063 2.00404 42.15352 2.77623 41.70529 3.54842 41.2571 4.78677 40.16891 5.55896 39.28914 6.33116 38.40938 7.5695 36.64207 8.3417 35.3645 9.11388 34.08693 10.35223 31.70795 11.12444 30.08127 11.89662 28.4546 13.13498 25.55386 13.90715 23.64056 14.67935 21.72726 15.91771 18.41756 16.6899 16.29153 17.4621 14.16551 18.70044 10.57478 19.47263 8.31769 20.24481 6.0606 21.48317 2.32545 22.25537 .024 23.02756-2.27745 24.2659-6.01215 25.03809-8.26968 25.81029-10.52722 27.04863-14.11975 27.82083-16.24675 28.59302-18.37378 29.83136-21.68504 30.60356-23.5997 31.37575-25.51434 32.6141-28.41759 33.38629-30.04623 34.1585-31.67488 35.39684-34.05807 36.16902-35.3379 36.94122-36.61772 38.17957-38.38821 38.95177-39.27032 39.72395-40.15244 40.9623-41.24474 41.7345-41.69557 42.50668-42.14638 43.74504-42.51784 44.51723-42.51955 45.28943-42.52127 46.52777-42.15556 47.29996-41.7079 48.07216-41.26022 49.3105-40.17236 50.0827-39.29303 50.85489-38.41373 52.09323-36.64746 52.86542-35.37035 53.63762-34.09323 54.87598-31.7148 55.64816-30.0884 56.42035-28.462 57.65869-25.5613 58.4309-23.64836 59.20308-21.73541 60.44144-18.42693 61.21364-16.30125 61.98581-14.17561 63.22417-10.58507 63.99635-8.32808 64.76855-6.07108 66.00691-2.33592 66.7791-.03436 67.55128 2.26717 68.78963 6.00223 69.56183 8.25995 70.33401 10.51767 71.57237 14.11049 72.34456 16.23769 73.11674 18.36487 74.3551 21.67635 75.12729 23.59126 75.89949 25.50618 77.13785 28.4101 77.91002 30.03911 78.68222 31.66812 79.92056 34.0518 80.69276 35.33206 81.46495 36.61235 82.7033 38.3837 83.47548 39.26643 84.24768 40.14917 85.48604 41.2429 86.25822 41.69426 87.03043 42.14563 89.04095 42.51955 89.04095 42.51955"/>
<path transform="matrix(1.00006,0,0,-1.00005,99.33492,64.85759)" stroke-width=".3985" stroke-linecap="butt" stroke-miterlimit="10" stroke-linejoin="miter" fill="none" stroke="#ff0000" d="M13.01805 13.71707 21.2601 43.93764"/>
<path transform="matrix(-.26310579,.9647682,.9647779,.26310317,112.353778,51.139837)" d="M.797 0C-.19925 .19925-1.19551 .59775-2.39102 1.29512-1.19551 .3985-1.19551-.3985-2.39102-1.29512-1.19551-.59775-.19925-.19925 .797 0Z" fill="#ff0000"/>
<path transform="matrix(-.26310579,.9647682,.9647779,.26310317,112.353778,51.139837)" stroke-width=".3985" stroke-linecap="butt" stroke-linejoin="round" fill="none" stroke="#ff0000" d="M.797 0C-.19925 .19925-1.19551 .59775-2.39102 1.29512-1.19551 .3985-1.19551-.3985-2.39102-1.29512-1.19551-.59775-.19925-.19925 .797 0Z"/>
<use data-text="y" xlink:href="#font_1_3" transform="matrix(9.963197,0,0,-9.963098,122.12329,15.903145)" fill="#ff0000"/>
<use data-text="=" xlink:href="#font_3_5" transform="matrix(9.963197,0,0,-9.963098,130.13278,15.903145)" fill="#ff0000"/>
<use data-text="c" xlink:href="#font_3_6" transform="matrix(9.963197,0,0,-9.963098,140.63399,15.903145)" fill="#ff0000"/>
<use data-text="o" xlink:href="#font_3_7" transform="matrix(9.963197,0,0,-9.963098,145.05767,15.903145)" fill="#ff0000"/>
<use data-text="s" xlink:href="#font_3_8" transform="matrix(9.963197,0,0,-9.963098,150.03925,15.903145)" fill="#ff0000"/>
<use data-text="(" xlink:href="#font_3_1" transform="matrix(9.963197,0,0,-9.963098,153.96475,15.903145)" fill="#ff0000"/>
<use data-text="x" xlink:href="#font_1_2" transform="matrix(9.963197,0,0,-9.963098,157.86444,15.903145)" fill="#ff0000"/>
<use data-text=")" xlink:href="#font_3_2" transform="matrix(9.963197,0,0,-9.963098,163.55777,15.903145)" fill="#ff0000"/>
<path transform="matrix(1.00006,0,0,-1.00005,99.33492,64.85759)" stroke-width=".3985" stroke-linecap="butt" stroke-miterlimit="10" stroke-linejoin="miter" fill="none" stroke="#0000ff" d="M-44.69072 44.92029-45.94438 52.44176"/>
<path transform="matrix(.16438985,.9863893,.9863991,-.16438821,54.641515,19.935055)" d="M.797 0C-.19925 .19925-1.19551 .59775-2.39102 1.29512-1.19551 .3985-1.19551-.3985-2.39102-1.29512-1.19551-.59775-.19925-.19925 .797 0Z" fill="#0000ff"/>
<path transform="matrix(.16438985,.9863893,.9863991,-.16438821,54.641515,19.935055)" stroke-width=".3985" stroke-linecap="butt" stroke-linejoin="round" fill="none" stroke="#0000ff" d="M.797 0C-.19925 .19925-1.19551 .59775-2.39102 1.29512-1.19551 .3985-1.19551-.3985-2.39102-1.29512-1.19551-.59775-.19925-.19925 .797 0Z"/>
<use data-text="y" xlink:href="#font_1_3" transform="matrix(9.963197,0,0,-9.963098,21.544266,9.391819)" fill="#0000ff"/>
<use data-text="=" xlink:href="#font_3_5" transform="matrix(9.963197,0,0,-9.963098,29.553757,9.391819)" fill="#0000ff"/>
<use data-text="&#x2212;" xlink:href="#font_4_1" transform="matrix(9.963197,0,0,-9.963098,40.07039,9.391819)" fill="#0000ff"/>
<use data-text="3" xlink:href="#font_3_4" transform="matrix(9.963197,0,0,-9.963098,47.819856,9.391819)" fill="#0000ff"/>
<use data-text="c" xlink:href="#font_3_6" transform="matrix(9.963197,0,0,-9.963098,54.455339,9.391819)" fill="#0000ff"/>
<use data-text="o" xlink:href="#font_3_7" transform="matrix(9.963197,0,0,-9.963098,58.878999,9.391819)" fill="#0000ff"/>
<use data-text="s" xlink:href="#font_3_8" transform="matrix(9.963197,0,0,-9.963098,63.860597,9.391819)" fill="#0000ff"/>
<use data-text="(" xlink:href="#font_3_1" transform="matrix(9.963197,0,0,-9.963098,67.78609,9.391819)" fill="#0000ff"/>
<use data-text="x" xlink:href="#font_1_2" transform="matrix(9.963197,0,0,-9.963098,71.67627,9.391819)" fill="#0000ff"/>
<use data-text=")" xlink:href="#font_3_2" transform="matrix(9.963197,0,0,-9.963098,77.37062,9.391819)" fill="#0000ff"/>
<path transform="matrix(1.00006,0,0,-1.00005,99.33492,64.85759)" stroke-width=".3985" stroke-linecap="butt" stroke-miterlimit="10" stroke-linejoin="miter" fill="none" stroke="#00b300" d="M44.69072-44.92029 45.94438-52.44176"/>
<path transform="matrix(-.16438985,-.9863893,-.9863991,.16438821,144.02834,109.78012)" d="M.797 0C-.19925 .19925-1.19551 .59775-2.39102 1.29512-1.19551 .3985-1.19551-.3985-2.39102-1.29512-1.19551-.59775-.19925-.19925 .797 0Z" fill="#00b300"/>
<path transform="matrix(-.16438985,-.9863893,-.9863991,.16438821,144.02834,109.78012)" stroke-width=".3985" stroke-linecap="butt" stroke-linejoin="round" fill="none" stroke="#00b300" d="M.797 0C-.19925 .19925-1.19551 .59775-2.39102 1.29512-1.19551 .3985-1.19551-.3985-2.39102-1.29512-1.19551-.59775-.19925-.19925 .797 0Z"/>
<use data-text="y" xlink:href="#font_1_3" transform="matrix(9.963197,0,0,-9.963098,121.29824,125.3056)" fill="#00b300"/>
<use data-text="=" xlink:href="#font_3_5" transform="matrix(9.963197,0,0,-9.963098,129.30774,125.3056)" fill="#00b300"/>
<use data-text="3" xlink:href="#font_3_4" transform="matrix(9.963197,0,0,-9.963098,139.80893,125.3056)" fill="#00b300"/>
<use data-text="c" xlink:href="#font_3_6" transform="matrix(9.963197,0,0,-9.963098,146.45438,125.3056)" fill="#00b300"/>
<use data-text="o" xlink:href="#font_3_7" transform="matrix(9.963197,0,0,-9.963098,150.87805,125.3056)" fill="#00b300"/>
<use data-text="s" xlink:href="#font_3_8" transform="matrix(9.963197,0,0,-9.963098,155.85965,125.3056)" fill="#00b300"/>
<use data-text="(" xlink:href="#font_3_1" transform="matrix(9.963197,0,0,-9.963098,159.78516,125.3056)" fill="#00b300"/>
<use data-text="x" xlink:href="#font_1_2" transform="matrix(9.963197,0,0,-9.963098,163.68079,125.3056)" fill="#00b300"/>
<use data-text=")" xlink:href="#font_3_2" transform="matrix(9.963197,0,0,-9.963098,169.37512,125.3056)" fill="#00b300"/>
</svg>
