<svg xmlns="http://www.w3.org/2000/svg" xmlns:xlink="http://www.w3.org/1999/xlink" version="1.1" width="329" height="65" viewBox="0 0 329 65">
<defs>
<path id="font_1_2" d="M.1789856 .114868167C.13899231 .047973634 .099990848 .033981325 .055999757 .0309906 .04399109 .02999878 .034988405 .02999878 .034988405 .010986328 .034988405 .004989624 .039993287 0 .04798889 0 .07499695 0 .10598755 .0029907227 .13398743 .0029907227 .16699219 .0029907227 .20199585 0 .23399353 0 .23999024 0 .25299073 0 .25299073 .018997193 .25299073 .02999878 .24398804 .0309906 .23699951 .0309906 .21398926 .032989503 .18998719 .04096985 .18998719 .06593323 .18998719 .077926639 .19599915 .088897708 .20399475 .102890018L.27999879 .23068238H.5309906C.5329895 .2097168 .5469971 .07392883 .5469971 .063949588 .5469971 .033981325 .49499513 .0309906 .47499085 .0309906 .46099855 .0309906 .45098878 .0309906 .45098878 .010986328 .45098878 0 .46299745 0 .46499635 0 .5059967 0 .548996 .0029907227 .58999636 .0029907227 .61499026 .0029907227 .6779938 0 .7029877 0 .70899966 0 .72099307 0 .72099307 .019989014 .72099307 .0309906 .71099856 .0309906 .69799807 .0309906 .6359863 .0309906 .6359863 .037979127 .6329956 .06694031L.57199099 .691803C.56999209 .71180728 .56999209 .7158203 .5529938 .7158203 .5369873 .7158203 .5329895 .7088165 .5269928 .69880679L.1789856 .114868167M.29899598 .26168824 .49598695 .5917816 .5279999 .26168824H.29899598Z"/>
<path id="font_1_3" d="M.1599884 .07795715C.1499939 .038986207 .147995 .0309906 .068984989 .0309906 .051986696 .0309906 .041992189 .0309906 .041992189 .010986328 .041992189 0 .050994874 0 .068984989 0H.42599488C.58399966 0 .70199587 .11791992 .70199587 .21585083 .70199587 .28778077 .6439972 .3457489 .5469971 .35673524 .651001 .37573243 .7559967 .44970704 .7559967 .5446625 .7559967 .6186218 .6899872 .6826172 .56999209 .6826172H.23399353C.21499634 .6826172 .20498657 .6826172 .20498657 .6626129 .20498657 .6516113 .21398926 .6516113 .23298645 .6516113 .23498535 .6516113 .2539978 .6516113 .2709961 .6496124 .2889862 .6476135 .2979889 .64660647 .2979889 .6336212 .2979889 .6296234 .29699708 .62661746 .2939911 .614624L.1599884 .07795715M.31098939 .36573792 .37298585 .6136322C.38198854 .64860537 .38398744 .6516113 .4269867 .6516113H.55599978C.6439972 .6516113 .6649933 .5926361 .6649933 .5486603 .6649933 .46069337 .57899478 .36573792 .45700074 .36573792H.31098939M.2659912 .0309906C.2519989 .0309906 .25 .0309906 .24398804 .03199768 .23399353 .032989503 .23098755 .033996583 .23098755 .04197693 .23098755 .04498291 .23098755 .04698181 .23599243 .064971927L.30499269 .34375H.49398805C.58999636 .34375 .60899356 .2698059 .60899356 .22683716 .60899356 .12791443 .519989 .0309906 .4019928 .0309906H.2659912Z"/>
<path id="font_1_4" d="M.7599945 .69506838C.7599945 .69807437 .7579956 .7050781 .7489929 .7050781 .74598696 .7050781 .7449951 .70407107 .73399356 .69306948L.6639862 .61602786C.6549988 .6300354 .60899356 .7050781 .49798585 .7050781 .2749939 .7050781 .049987794 .48391725 .049987794 .25172425 .049987794 .08659363 .16799927-.022460938 .32099916-.022460938 .4079895-.022460938 .48399354 .017532349 .5369873 .063583377 .6299896 .14564514 .6469879 .2367096 .6469879 .23971558 .6469879 .24972534 .6369934 .24972534 .6349945 .24972534 .6289978 .24972534 .6239929 .24772644 .621994 .23971558 .61299136 .21069336 .58999636 .13963318 .5209961 .081588748 .45199586 .025543213 .3889923 .008529663 .33699037 .008529663 .24699402 .008529663 .14099121 .060577394 .14099121 .21670532 .14099121 .27374269 .1619873 .43588258 .2619934 .55296328 .32299806 .62402346 .4169922 .67407229 .5059967 .67407229 .60798647 .67407229 .6669922 .5970001 .6669922 .48091126 .6669922 .44088746 .6639862 .43988038 .6639862 .4298706 .6639862 .41986085 .6749878 .41986085 .67900088 .41986085 .69200137 .41986085 .69200137 .42185975 .69699099 .43988038L.7599945 .69506838Z"/>
<path id="font_2_1" d="M.2939911 .64004519C.2939911 .66400149 .2939911 .6660156 .2709961 .6660156 .20899964 .60227969 .12098694 .60227969 .08898926 .60227969V.57128909C.10899353 .57128909 .16799927 .57128909 .21998596 .5972748V.07902527C.21998596 .042999269 .21699524 .0309906 .1269989 .0309906H.09498596V0C.12998963 .0029907227 .21699524 .0029907227 .25698854 .0029907227 .29699708 .0029907227 .38398744 .0029907227 .4189911 0V.0309906H.3869934C.29699708 .0309906 .2939911 .041992189 .2939911 .07902527V.64004519Z"/>
<path id="font_2_4" d="M.2939911 .16503906V.07800293C.2939911 .041992189 .2919922 .0309906 .21798706 .0309906H.19699097V0C.23799134 .0029907227 .2899933 .0029907227 .33198548 .0029907227 .37399293 .0029907227 .4269867 .0029907227 .46798707 0V.0309906H.44699098C.37298585 .0309906 .37098695 .041992189 .37098695 .07800293V.16503906H.47099305V.19602967H.37098695V.65075686C.37098695 .67074587 .37098695 .6767578 .35499574 .6767578 .34599305 .6767578 .34298707 .6767578 .33499146 .66474917L.027999878 .19602967V.16503906H.2939911M.2999878 .19602967H.055999757L.2999878 .5688019V.19602967Z"/>
<path id="font_1_1" d="M.19198609 .052993776C.19198609 .08198547 .16799927 .10598755 .13899231 .10598755 .10998535 .10598755 .085998538 .08198547 .085998538 .052993776 .085998538 .023986817 .10998535 0 .13899231 0 .16799927 0 .19198609 .023986817 .19198609 .052993776Z"/>
<path id="font_3_1" d="M.5069885 .24998474C.5069885 .3710022 .4099884 .4650116 .2919922 .4650116 .17199707 .4650116 .07699585 .36799623 .07699585 .25097657 .07699585 .1299591 .17399597 .035949708 .2919922 .035949708 .4119873 .035949708 .5069885 .13296509 .5069885 .24998474M.2919922 .08496094C.19799805 .08496094 .12599182 .16096497 .12599182 .24998474 .12599182 .34300233 .19999695 .41601563 .2919922 .41601563 .38598634 .41601563 .45799256 .33999635 .45799256 .25097657 .45799256 .15795899 .38398744 .08496094 .2919922 .08496094Z"/>
<path id="font_2_3" d="M.2899933 .35191346C.37199403 .37893678 .42999269 .4490509 .42999269 .52809146 .42999269 .6100464 .34199525 .6660156 .24598694 .6660156 .14498902 .6660156 .068984989 .60606387 .068984989 .53009036 .068984989 .49710084 .09098816 .47808839 .11999512 .47808839 .15098572 .47808839 .17098999 .50009158 .17098999 .5290985 .17098999 .57910159 .12399292 .57910159 .10899353 .57910159 .13999939 .62802127 .20599365 .64100649 .24198914 .64100649 .2829895 .64100649 .33799745 .6190338 .33799745 .5290985 .33799745 .51708987 .33599855 .45906068 .30999757 .4149933 .27999879 .36691285 .24598694 .36390687 .22099304 .36291505 .21299744 .36190797 .18899536 .35990907 .18199158 .35990907 .17399597 .35890199 .16699219 .35791017 .16699219 .3479004 .16699219 .33691407 .17399597 .33691407 .19099427 .33691407H.23498535C.31698609 .33691407 .35398866 .2686615 .35398866 .17037964 .35398866 .034469606 .2849884 .0055389406 .24099732 .0055389406 .19799805 .0055389406 .12298584 .022491456 .08799744 .08137512 .12298584 .07637024 .1539917 .09837341 .1539917 .1363678 .1539917 .17237854 .1269989 .19238281 .09799194 .19238281 .07398987 .19238281 .041992189 .17837525 .041992189 .1343689 .041992189 .043441774 .1349945-.022460938 .24398804-.022460938 .3659973-.022460938 .45700074 .06838989 .45700074 .17037964 .45700074 .252594 .3939972 .33088685 .2899933 .35191346Z"/>
<path id="font_2_7" d="M.16299439 .4569702C.116989139 .486969 .11299133 .52098086 .11299133 .5379791 .11299133 .598999 .17799378 .64100649 .24899292 .64100649 .32199098 .64100649 .38598634 .58898928 .38598634 .51698306 .38598634 .45996095 .34700013 .4119568 .2869873 .37695313L.16299439 .4569702M.30899049 .36193849C.3809967 .3989563 .42999269 .45095826 .42999269 .51698306 .42999269 .6090088 .34098817 .6660156 .25 .6660156 .1499939 .6660156 .068984989 .59199526 .068984989 .49897767 .068984989 .4809723 .070999149 .43595887 .11299133 .38894654 .12399292 .37695313 .16099549 .35194398 .18598938 .33494569 .12799073 .30592347 .041992189 .24984741 .041992189 .15072632 .041992189 .04458618 .14399719-.022460938 .24899292-.022460938 .3619995-.022460938 .45700074 .06060791 .45700074 .16773987 .45700074 .20379639 .44599916 .24885559 .4079895 .2909088 .3889923 .31193543 .37298585 .3219452 .30899049 .36193849M.20899964 .3199463 .33198548 .24183655C.3600006 .2228241 .40699769 .19277954 .40699769 .13169861 .40699769 .05760193 .33198548 .0055389406 .25 .0055389406 .1639862 .0055389406 .09199524 .067611698 .09199524 .15072632 .09199524 .20880127 .12399292 .27288819 .20899964 .3199463Z"/>
<path id="font_2_5" d="M.44898988 .20022583C.44898988 .3193512 .36698915 .41944886 .25898744 .41944886 .21099854 .41944886 .16799927 .40345765 .13198853 .36842347V.5637665C.1519928 .5577698 .18499756 .55078127 .21699524 .55078127 .33999635 .55078127 .4099884 .6417694 .4099884 .6547699 .4099884 .6607666 .40699769 .6657715 .3999939 .6657715 .39898683 .6657715 .39698792 .6657715 .3919983 .66278079 .37199403 .6537781 .32299806 .6337738 .2559967 .6337738 .21598816 .6337738 .16999817 .6407776 .12298584 .6617737 .114990238 .66477969 .11299133 .66477969 .11099243 .66477969 .100997928 .66477969 .100997928 .6567688 .100997928 .6407776V.34439088C.100997928 .32637025 .100997928 .31835938 .114990238 .31835938 .12199402 .31835938 .12399292 .32136537 .12799073 .32736207 .13899231 .3433838 .17599488 .39746095 .25698854 .39746095 .30899049 .39746095 .33399964 .35139466 .34199525 .33337403 .35798646 .29632569 .3600006 .25727845 .3600006 .20722962 .3600006 .17222595 .3600006 .11222839 .33599855 .07035828 .31199647 .031463624 .2749939 .0055389406 .22898865 .0055389406 .1559906 .0055389406 .09899902 .058380128 .08198547 .11723328 .084991458 .1162262 .08799744 .115234378 .09899902 .115234378 .13198853 .115234378 .14898682 .14022827 .14898682 .16423035 .14898682 .18823242 .13198853 .21322632 .09899902 .21322632 .084991458 .21322632 .049987794 .20622254 .049987794 .16023255 .049987794 .07434082 .11898804-.022460938 .23098755-.022460938 .34700013-.022460938 .44898988 .073349 .44898988 .20022583Z"/>
<path id="font_2_2" d="M.1269989 .07699585 .23298645 .18003845C.3889923 .31811524 .44898988 .3721466 .44898988 .47216798 .44898988 .5860901 .35899354 .6660156 .23699951 .6660156 .12399292 .6660156 .049987794 .57411196 .049987794 .48516847 .049987794 .4291687 .099990848 .4291687 .102996829 .4291687 .11999512 .4291687 .15499878 .44117738 .15499878 .48217774 .15499878 .5081787 .13699341 .5341797 .101989749 .5341797 .09399414 .5341797 .09199524 .5341797 .08898926 .5331726 .11199951 .59806826 .1659851 .63500979 .22399903 .63500979 .31498719 .63500979 .35798646 .5541382 .35798646 .47216798 .35798646 .39215089 .30799867 .31311036 .25299073 .25108338L.06098938 .036987306C.049987794 .025985718 .049987794 .023986817 .049987794 0H.42099L.44898988 .17404175H.42399598C.4189911 .14402771 .4119873 .1000061 .4019928 .084991458 .394989 .07699585 .32899476 .07699585 .30699159 .07699585H.1269989Z"/>
<path id="font_2_6" d="M.47599793 .609375C.4850006 .6213684 .4850006 .62338259 .4850006 .64437869H.24198914C.11999512 .64437869 .117996219 .65737918 .11399841 .67637637H.08898926L.055999757 .4702301H.08099365C.083999637 .48625184 .09298706 .5493469 .10598755 .56137087 .11299133 .5673828 .19099427 .5673828 .20399475 .5673828H.41099549C.3999939 .5513611 .32099916 .4421997 .29899598 .40914918 .20899964 .27394105 .17599488 .1347351 .17599488 .032577516 .17599488 .022567749 .17599488-.022460938 .22200012-.022460938 .2679901-.022460938 .2679901 .022567749 .2679901 .032577516V.08366394C.2679901 .13873291 .2709961 .19381714 .2789917 .24790955 .2829895 .27093507 .29699708 .35707093 .34098817 .41915895L.47599793 .609375Z"/>
<path id="font_2_8" d="M.36698915 .31781007V.28579713C.36698915 .05178833 .2630005 .0055389406 .20498657 .0055389406 .18798828 .0055389406 .13398743 .007537842 .10699463 .041778566 .15098572 .041778566 .15899658 .07078552 .15899658 .08778381 .15899658 .118774417 .1349945 .13378906 .11299133 .13378906 .09700012 .13378906 .066986087 .12478638 .066986087 .08578491 .066986087 .018615723 .12098694-.022460938 .20599365-.022460938 .33499146-.022460938 .45700074 .11378479 .45700074 .32881166 .45700074 .5979767 .34199525 .6660156 .25299073 .6660156 .19799805 .6660156 .14898682 .64801028 .10598755 .60298159 .06498718 .5579529 .041992189 .5159302 .041992189 .44088746 .041992189 .31581117 .12998963 .21777344 .24198914 .21777344 .30299378 .21777344 .34399415 .25978089 .36698915 .31781007M.24299622 .24076844C.22698975 .24076844 .18099976 .24076844 .1499939 .3038025 .13198853 .3408203 .13198853 .39085389 .13198853 .43988038 .13198853 .49391175 .13198853 .54093936 .15299988 .5779724 .17999268 .6279907 .21798706 .64100649 .25299073 .64100649 .29899598 .64100649 .33198548 .60697939 .34899903 .5619507 .36099244 .52993777 .36499024 .4669037 .36499024 .42086793 .36499024 .3378296 .33099366 .24076844 .24299622 .24076844Z"/>
</defs>
<path transform="matrix(1,0,0,-1.00005,12.793999,51.256914)" d="M84.75092 21.7717C84.75092 21.85973 84.67953 21.93109 84.59152 21.93109 84.50351 21.93109 84.43213 21.85973 84.43213 21.7717 84.43213 21.68369 84.50351 21.6123 84.59152 21.6123 84.67953 21.6123 84.75092 21.68369 84.75092 21.7717ZM84.59152 21.7717"/>
<path transform="matrix(1,0,0,-1.00005,12.793999,51.256914)" stroke-width=".3985" stroke-linecap="butt" stroke-miterlimit="10" stroke-linejoin="miter" fill="none" stroke="#000000" d="M84.75092 21.7717C84.75092 21.85973 84.67953 21.93109 84.59152 21.93109 84.50351 21.93109 84.43213 21.85973 84.43213 21.7717 84.43213 21.68369 84.50351 21.6123 84.59152 21.6123 84.67953 21.6123 84.75092 21.68369 84.75092 21.7717ZM84.59152 21.7717"/>
<use data-text="A" xlink:href="#font_1_2" transform="matrix(9.9626,0,0,-9.963098,86.394,25.96365)"/>
<path transform="matrix(1,0,0,-1.00005,12.793999,51.256914)" d="M.15938 0C.15938 .08801 .08801 .15938 0 .15938-.08801 .15938-.15938 .08801-.15938 0-.15938-.08801-.08801-.15938 0-.15938 .08801-.15938 .15938-.08801 .15938 0ZM0 0"/>
<path transform="matrix(1,0,0,-1.00005,12.793999,51.256914)" stroke-width=".3985" stroke-linecap="butt" stroke-miterlimit="10" stroke-linejoin="miter" fill="none" stroke="#000000" d="M.15938 0C.15938 .08801 .08801 .15938 0 .15938-.08801 .15938-.15938 .08801-.15938 0-.15938-.08801-.08801-.15938 0-.15938 .08801-.15938 .15938-.08801 .15938 0ZM0 0"/>
<use data-text="B" xlink:href="#font_1_3" transform="matrix(9.9626,0,0,-9.963098,1.2179947,54.661085)"/>
<path transform="matrix(1,0,0,-1.00005,12.793999,51.256914)" d="M127.16037 0C127.16037 .08801 127.089 .15938 127.00098 .15938 126.91296 .15938 126.84158 .08801 126.84158 0 126.84158-.08801 126.91296-.15938 127.00098-.15938 127.089-.15938 127.16037-.08801 127.16037 0ZM127.00098 0"/>
<path transform="matrix(1,0,0,-1.00005,12.793999,51.256914)" stroke-width=".3985" stroke-linecap="butt" stroke-miterlimit="10" stroke-linejoin="miter" fill="none" stroke="#000000" d="M127.16037 0C127.16037 .08801 127.089 .15938 127.00098 .15938 126.91296 .15938 126.84158 .08801 126.84158 0 126.84158-.08801 126.91296-.15938 127.00098-.15938 127.089-.15938 127.16037-.08801 127.16037 0ZM127.00098 0"/>
<use data-text="C" xlink:href="#font_1_4" transform="matrix(9.9626,0,0,-9.963098,143.315,61.585428)"/>
<path transform="matrix(1,0,0,-1.00005,12.793999,51.256914)" stroke-width=".79701" stroke-linecap="butt" stroke-miterlimit="10" stroke-linejoin="miter" fill="none" stroke="#000000" d="M34.01628 0C34.01628 2.8532 33.655 5.69498 32.946 8.45837"/>
<use data-text="1" xlink:href="#font_2_1" transform="matrix(9.9626,0,0,-9.963098,50.26,49.427824)"/>
<use data-text="4" xlink:href="#font_2_4" transform="matrix(9.9626,0,0,-9.963098,55.2413,49.427824)"/>
<use data-text="." xlink:href="#font_1_1" transform="matrix(9.9626,0,0,-9.963098,60.221998,49.427824)"/>
<use data-text="4" xlink:href="#font_2_4" transform="matrix(9.9626,0,0,-9.963098,62.989995,49.427824)"/>
<use data-text="&#x25e6;" xlink:href="#font_3_1" transform="matrix(6.9738,0,0,-6.9741489,67.97099,45.81264)"/>
<path transform="matrix(1,0,0,-1.00005,12.793999,51.256914)" stroke-width=".79701" stroke-linecap="butt" stroke-miterlimit="10" stroke-linejoin="miter" fill="none" stroke="#ff0000" d="M78.0152 20.1841C78.94948 16.54492 82.65697 14.35225 86.29614 15.28654 88.18318 15.77101 89.77316 17.0424 90.66063 18.77675"/>
<use data-text="1" xlink:href="#font_2_1" transform="matrix(9.9626,0,0,-9.963098,79.024,44.728586)" fill="#ff0000"/>
<use data-text="3" xlink:href="#font_2_3" transform="matrix(9.9626,0,0,-9.963098,84.0053,44.728586)" fill="#ff0000"/>
<use data-text="8" xlink:href="#font_2_7" transform="matrix(9.9626,0,0,-9.963098,88.9866,44.728586)" fill="#ff0000"/>
<use data-text="." xlink:href="#font_1_1" transform="matrix(9.9626,0,0,-9.963098,93.968,44.728586)" fill="#ff0000"/>
<use data-text="5" xlink:href="#font_2_5" transform="matrix(9.9626,0,0,-9.963098,96.735,44.728586)" fill="#ff0000"/>
<use data-text="&#x25e6;" xlink:href="#font_3_1" transform="matrix(6.9738,0,0,-6.9741489,101.716,41.113405)" fill="#ff0000"/>
<path transform="matrix(1,0,0,-1.00005,12.793999,51.256914)" stroke-width=".79701" stroke-linecap="butt" stroke-miterlimit="10" stroke-linejoin="miter" fill="none" stroke="#ff0000" d="M115.66222 0C115.66222 1.79555 116.0896 3.56671 116.90742 5.16502"/>
<use data-text="2" xlink:href="#font_2_2" transform="matrix(9.9626,0,0,-9.963098,102.762,50.03785)" fill="#ff0000"/>
<use data-text="7" xlink:href="#font_2_6" transform="matrix(9.9626,0,0,-9.963098,107.7433,50.03785)" fill="#ff0000"/>
<use data-text="." xlink:href="#font_1_1" transform="matrix(9.9626,0,0,-9.963098,112.724,50.03785)" fill="#ff0000"/>
<use data-text="1" xlink:href="#font_2_1" transform="matrix(9.9626,0,0,-9.963098,115.492,50.03785)" fill="#ff0000"/>
<use data-text="&#x25e6;" xlink:href="#font_3_1" transform="matrix(6.9738,0,0,-6.9741489,120.473,46.42267)" fill="#ff0000"/>
<path transform="matrix(1,0,0,-1.00005,12.793999,51.256914)" stroke-width=".79701" stroke-linecap="butt" stroke-miterlimit="10" stroke-linejoin="miter" fill="none" stroke="#000000" d="M84.59152 21.7717 0 0"/>
<use data-text="5" xlink:href="#font_2_5" transform="matrix(9.9626,0,0,-9.963098,43.621999,36.651185)" fill="#ff0000"/>
<use data-text="." xlink:href="#font_1_1" transform="matrix(9.9626,0,0,-9.963098,48.603,36.651185)" fill="#ff0000"/>
<use data-text="5" xlink:href="#font_2_5" transform="matrix(9.9626,0,0,-9.963098,51.37,36.651185)" fill="#ff0000"/>
<path transform="matrix(1,0,0,-1.00005,12.793999,51.256914)" stroke-width=".79701" stroke-linecap="butt" stroke-miterlimit="10" stroke-linejoin="miter" fill="none" stroke="#000000" d="M127.00098 0H0"/>
<use data-text="8" xlink:href="#font_2_7" transform="matrix(9.9626,0,0,-9.963098,73.804,63.38952)"/>
<path transform="matrix(1,0,0,-1.00005,12.793999,51.256914)" stroke-width=".79701" stroke-linecap="butt" stroke-miterlimit="10" stroke-linejoin="miter" fill="none" stroke="#000000" d="M84.59152 21.7717 127.00098 0"/>
<use data-text="3" xlink:href="#font_2_3" transform="matrix(9.9626,0,0,-9.963098,122.309,36.651185)"/>
<path transform="matrix(1,0,0,-1.00005,12.793999,51.256914)" d="M311.08488 39.0074C311.08488 39.09543 311.0135 39.1668 310.92549 39.1668 310.83747 39.1668 310.76609 39.09543 310.76609 39.0074 310.76609 38.91939 310.83747 38.848 310.92549 38.848 311.0135 38.848 311.08488 38.91939 311.08488 39.0074ZM310.92549 39.0074"/>
<path transform="matrix(1,0,0,-1.00005,12.793999,51.256914)" stroke-width=".3985" stroke-linecap="butt" stroke-miterlimit="10" stroke-linejoin="miter" fill="none" stroke="#000000" d="M311.08488 39.0074C311.08488 39.09543 311.0135 39.1668 310.92549 39.1668 310.83747 39.1668 310.76609 39.09543 310.76609 39.0074 310.76609 38.91939 310.83747 38.848 310.92549 38.848 311.0135 38.848 311.08488 38.91939 311.08488 39.0074ZM310.92549 39.0074"/>
<use data-text="A" xlink:href="#font_1_2" transform="matrix(9.9626,0,0,-9.963098,319.983,8.727787)"/>
<path transform="matrix(1,0,0,-1.00005,12.793999,51.256914)" d="M158.91046 0C158.91046 .08801 158.8391 .15938 158.75107 .15938 158.66306 .15938 158.59169 .08801 158.59169 0 158.59169-.08801 158.66306-.15938 158.75107-.15938 158.8391-.15938 158.91046-.08801 158.91046 0ZM158.75107 0"/>
<path transform="matrix(1,0,0,-1.00005,12.793999,51.256914)" stroke-width=".3985" stroke-linecap="butt" stroke-miterlimit="10" stroke-linejoin="miter" fill="none" stroke="#000000" d="M158.91046 0C158.91046 .08801 158.8391 .15938 158.75107 .15938 158.66306 .15938 158.59169 .08801 158.59169 0 158.59169-.08801 158.66306-.15938 158.75107-.15938 158.8391-.15938 158.91046-.08801 158.91046 0ZM158.75107 0"/>
<use data-text="B" xlink:href="#font_1_3" transform="matrix(9.9626,0,0,-9.963098,159.969,54.661085)"/>
<path transform="matrix(1,0,0,-1.00005,12.793999,51.256914)" d="M285.91148 0C285.91148 .08801 285.8401 .15938 285.75209 .15938 285.66407 .15938 285.59269 .08801 285.59269 0 285.59269-.08801 285.66407-.15938 285.75209-.15938 285.8401-.15938 285.91148-.08801 285.91148 0ZM285.75209 0"/>
<path transform="matrix(1,0,0,-1.00005,12.793999,51.256914)" stroke-width=".3985" stroke-linecap="butt" stroke-miterlimit="10" stroke-linejoin="miter" fill="none" stroke="#000000" d="M285.91148 0C285.91148 .08801 285.8401 .15938 285.75209 .15938 285.66407 .15938 285.59269 .08801 285.59269 0 285.59269-.08801 285.66407-.15938 285.75209-.15938 285.8401-.15938 285.91148-.08801 285.91148 0ZM285.75209 0"/>
<use data-text="C" xlink:href="#font_1_4" transform="matrix(9.9626,0,0,-9.963098,302.066,61.585428)"/>
<path transform="matrix(1,0,0,-1.00005,12.793999,51.256914)" stroke-width=".79701" stroke-linecap="butt" stroke-miterlimit="10" stroke-linejoin="miter" fill="none" stroke="#000000" d="M192.76735 0C192.76735 2.8532 192.40608 5.69498 191.69709 8.45837"/>
<use data-text="1" xlink:href="#font_2_1" transform="matrix(9.9626,0,0,-9.963098,209.01099,49.427824)"/>
<use data-text="4" xlink:href="#font_2_4" transform="matrix(9.9626,0,0,-9.963098,213.9923,49.427824)"/>
<use data-text="." xlink:href="#font_1_1" transform="matrix(9.9626,0,0,-9.963098,218.97299,49.427824)"/>
<use data-text="4" xlink:href="#font_2_4" transform="matrix(9.9626,0,0,-9.963098,221.741,49.427824)"/>
<use data-text="&#x25e6;" xlink:href="#font_3_1" transform="matrix(6.9738,0,0,-6.9741489,226.72199,45.81264)"/>
<path transform="matrix(1,0,0,-1.00005,12.793999,51.256914)" stroke-width=".79701" stroke-linecap="butt" stroke-miterlimit="10" stroke-linejoin="miter" fill="none" stroke="#ff0000" d="M299.94349 36.18796C300.63157 33.50795 302.27748 31.1698 304.5687 29.61855"/>
<use data-text="4" xlink:href="#font_2_4" transform="matrix(9.9626,0,0,-9.963098,290.43,29.354819)" fill="#ff0000"/>
<use data-text="1" xlink:href="#font_2_1" transform="matrix(9.9626,0,0,-9.963098,295.4113,29.354819)" fill="#ff0000"/>
<use data-text="." xlink:href="#font_1_1" transform="matrix(9.9626,0,0,-9.963098,300.39198,29.354819)" fill="#ff0000"/>
<use data-text="5" xlink:href="#font_2_5" transform="matrix(9.9626,0,0,-9.963098,303.15998,29.354819)" fill="#ff0000"/>
<use data-text="&#x25e6;" xlink:href="#font_3_1" transform="matrix(6.9738,0,0,-6.9741489,308.141,25.739638)" fill="#ff0000"/>
<path transform="matrix(1,0,0,-1.00005,12.793999,51.256914)" stroke-width=".79701" stroke-linecap="butt" stroke-miterlimit="10" stroke-linejoin="miter" fill="none" stroke="#ff0000" d="M278.94877 0C278.94877 3.7574 281.99467 6.8033 285.75209 6.8033 287.11149 6.8033 288.44056 6.39542 289.56617 5.63336"/>
<use data-text="1" xlink:href="#font_2_1" transform="matrix(9.9626,0,0,-9.963098,264.365,46.684686)" fill="#ff0000"/>
<use data-text="2" xlink:href="#font_2_2" transform="matrix(9.9626,0,0,-9.963098,269.3463,46.684686)" fill="#ff0000"/>
<use data-text="4" xlink:href="#font_2_4" transform="matrix(9.9626,0,0,-9.963098,274.3276,46.684686)" fill="#ff0000"/>
<use data-text="." xlink:href="#font_1_1" transform="matrix(9.9626,0,0,-9.963098,279.309,46.684686)" fill="#ff0000"/>
<use data-text="1" xlink:href="#font_2_1" transform="matrix(9.9626,0,0,-9.963098,282.076,46.684686)" fill="#ff0000"/>
<use data-text="&#x25e6;" xlink:href="#font_3_1" transform="matrix(6.9738,0,0,-6.9741489,287.057,43.069505)" fill="#ff0000"/>
<path transform="matrix(1,0,0,-1.00005,12.793999,51.256914)" stroke-width=".79701" stroke-linecap="butt" stroke-miterlimit="10" stroke-linejoin="miter" fill="none" stroke="#000000" d="M310.92549 39.0074 158.75107 0"/>
<use data-text="9" xlink:href="#font_2_8" transform="matrix(9.9626,0,0,-9.963098,231.18302,28.032753)" fill="#ff0000"/>
<use data-text="." xlink:href="#font_1_1" transform="matrix(9.9626,0,0,-9.963098,236.164,28.032753)" fill="#ff0000"/>
<use data-text="9" xlink:href="#font_2_8" transform="matrix(9.9626,0,0,-9.963098,238.931,28.032753)" fill="#ff0000"/>
<use data-text="9" xlink:href="#font_2_8" transform="matrix(9.9626,0,0,-9.963098,243.91231,28.032753)" fill="#ff0000"/>
<path transform="matrix(1,0,0,-1.00005,12.793999,51.256914)" stroke-width=".79701" stroke-linecap="butt" stroke-miterlimit="10" stroke-linejoin="miter" fill="none" stroke="#000000" d="M285.75209 0H158.75107"/>
<use data-text="8" xlink:href="#font_2_7" transform="matrix(9.9626,0,0,-9.963098,232.555,63.38952)"/>
<path transform="matrix(1,0,0,-1.00005,12.793999,51.256914)" stroke-width=".79701" stroke-linecap="butt" stroke-miterlimit="10" stroke-linejoin="miter" fill="none" stroke="#000000" d="M310.92549 39.0074 285.75209 0"/>
<use data-text="3" xlink:href="#font_2_3" transform="matrix(9.9626,0,0,-9.963098,314.85203,41.892446)"/>
</svg>
