<svg xmlns="http://www.w3.org/2000/svg" xmlns:xlink="http://www.w3.org/1999/xlink" version="1.1" width="232" height="104" viewBox="0 0 232 104">
<defs>
<path id="font_1_109" d="M.61499026 .0001373291V.0471344C.5529938 .0471344 .54599 .0471344 .54599 .086135867V.4501953L.36299134 .44218446V.39518739C.4249878 .39518739 .43199159 .39518739 .43199159 .3561859V.16514588C.43199159 .08314514 .3809967 .030136109 .30799867 .030136109 .23098755 .030136109 .22799683 .055130006 .22799683 .10914612V.4501953L.04499817 .44218446V.39518739C.10699463 .39518739 .11399841 .39518739 .11399841 .3561859V.12313843C.11399841 .01612854 .19499207-.005859375 .2939911-.005859375 .31999208-.005859375 .3919983-.005859375 .43798829 .072143558V-.005859375L.61499026 .0001373291Z"/>
<path id="font_1_112" d="M.5799866 .3973236V.44433595C.5549927 .44232179 .526001 .44132997 .5009918 .44132997L.4099884 .44433595V.3973236C.42900086 .3973236 .45799256 .39431764 .45799256 .38632203 .45799256 .38632203 .45799256 .38432313 .45298768 .37431336L.33699037 .12416077 .20999146 .3973236H.2639923V.44433595L.13999939 .44132997 .025985718 .44433595V.3973236H.08999634L.2649994 .021102906C.2769928-.00390625 .2899933-.00390625 .30299378-.00390625 .31999208-.00390625 .32998658-.00091552737 .33999635 .020095826L.5059967 .37631227C.5119934 .39031983 .5159912 .3973236 .5799866 .3973236Z"/>
<path id="font_2_28" d="M.48298646 .08912659V.14511109H.45799256V.08912659C.45799256 .03112793 .43299867 .025131226 .42199708 .025131226 .3889923 .025131226 .3849945 .070129398 .3849945 .07511902V.27508546C.3849945 .31707765 .3849945 .3560791 .34899903 .39312745 .30999757 .43223573 .2599945 .4482422 .21199036 .4482422 .12998963 .4482422 .06098938 .40115357 .06098938 .335083 .06098938 .30508424 .08099365 .28808595 .10699463 .28808595 .1349945 .28808595 .15299988 .30807496 .15299988 .33407594 .15299988 .3460846 .147995 .37908937 .101989749 .38008119 .1289978 .41519166 .17799378 .426239 .20999146 .426239 .25898744 .426239 .31599427 .38710023 .31599427 .29808045V.26107789C.2649994 .25808717 .19499207 .25508119 .13198853 .22509766 .056991579 .19110108 .03199768 .13911438 .03199768 .09512329 .03199768 .014251709 .1289978-.0107421879 .19198609-.0107421879 .2579956-.0107421879 .3039856 .029251099 .32299806 .07624817 .32699586 .036132814 .35398866-.005859375 .40098573-.005859375 .42199708-.005859375 .48298646 .008132935 .48298646 .08912659M.31599427 .14013672C.31599427 .04525757 .24398804 .011245728 .19898987 .011245728 .1499939 .011245728 .10899353 .04624939 .10899353 .09625244 .10899353 .15124512 .15098572 .23425293 .31599427 .24024964V.14013672Z"/>
<path id="font_2_88" d="M.19198609 .052993776C.19198609 .08198547 .16799927 .10598755 .13899231 .10598755 .10998535 .10598755 .085998538 .08198547 .085998538 .052993776 .085998538 .023986817 .10998535 0 .13899231 0 .16799927 0 .19198609 .023986817 .19198609 .052993776Z"/>
<path id="font_2_35" d="M.5209961 .2163086C.5209961 .34335328 .4229889 .4423828 .30899049 .4423828 .23098755 .4423828 .18798828 .39537049 .17199707 .3773651V.69433596L.027999878 .68333438V.6523285C.09799194 .6523285 .10598755 .6453247 .10598755 .596344V.00024414063H.1309967L.16699219 .06227112C.18199158 .039260866 .22399903-.0107421879 .2979889-.0107421879 .4169922-.0107421879 .5209961 .08728027 .5209961 .2163086M.43798829 .21731568C.43798829 .18029785 .43598939 .120285037 .40699769 .07527161 .38598634 .044265748 .34799195 .011245728 .2939911 .011245728 .24899292 .011260986 .21299744 .03526306 .18899536 .072265628 .1749878 .09326172 .1749878 .09625244 .1749878 .11425781V.32034303C.1749878 .3393402 .1749878 .3403473 .18598938 .35635377 .22499085 .41236878 .27999879 .42037965 .3039856 .42037965 .34899903 .42037965 .3849945 .3943634 .40899659 .35635377 .43499757 .31533814 .43798829 .25831605 .43798829 .21730042V.21731568Z"/>
<path id="font_2_43" d="M.4149933 .119140628C.4149933 .12911988 .40499879 .12911988 .4019928 .12911988 .3929901 .12911988 .3909912 .12512207 .3889923 .119140628 .3600006 .026229859 .29499818 .014251709 .2579956 .014251709 .20498657 .014251709 .116989139 .0572052 .116989139 .21801758 .116989139 .38093568 .19898987 .42323304 .2519989 .42323304 .26098634 .42323304 .32398988 .42222596 .35899354 .38594056 .31799317 .38293458 .31199647 .3529358 .31199647 .3399353 .31199647 .31393434 .32998658 .2939453 .35798646 .2939453 .38398744 .2939453 .4039917 .3109436 .4039917 .34094239 .4039917 .40911866 .32798768 .4482422 .25099183 .4482422 .12599182 .4482422 .033996583 .3399353 .033996583 .21601868 .033996583 .08816528 .1329956-.0107421879 .24899292-.0107421879 .3829956-.0107421879 .4149933 .10914612 .4149933 .119140628Z"/>
</defs>
<path transform="matrix(1.00005,0,0,-1.00003,2.0961533,91.09426)" stroke-width=".3985" stroke-linecap="butt" stroke-miterlimit="10" stroke-linejoin="miter" fill="none" stroke="#00aeef" d="M0 0H49.60777M0 9.92155H49.60777M0 19.84311H49.60777M0 29.76466H49.60777M0 39.68622H49.60777M0 49.60777H49.60777M0 59.52583H49.60777M0 0V59.52933M9.92155 0V59.52933M19.84311 0V59.52933M29.76466 0V59.52933M39.68622 0V59.52933M49.60428 0V59.52933M49.60777 59.52933"/>
<path transform="matrix(1.00005,0,0,-1.00003,2.0961533,91.09426)" stroke-width="1.19553" stroke-linecap="butt" stroke-miterlimit="10" stroke-linejoin="miter" fill="none" stroke="#ff0000" d="M39.68622 49.60777 11.4799 30.80351"/>
<path transform="matrix(-.8320615,.5546767,.55468776,.83204498,13.576627,60.289808)" d="M1.27522 0C-.31879 .31879-1.91284 .9564-3.8257 2.07224-1.91284 .6376-1.91284-.6376-3.8257-2.07224-1.91284-.9564-.31879-.31879 1.27522 0Z" fill="#ff0000"/>
<path transform="matrix(-.8320615,.5546767,.55468776,.83204498,13.576627,60.289808)" stroke-width="1.19553" stroke-linecap="butt" stroke-linejoin="round" fill="none" stroke="#ff0000" d="M1.27522 0C-.31879 .31879-1.91284 .9564-3.8257 2.07224-1.91284 .6376-1.91284-.6376-3.8257-2.07224-1.91284-.9564-.31879-.31879 1.27522 0Z"/>
<path transform="matrix(1.00005,0,0,-1.00003,2.0961533,91.09426)" d="M5.74217 37.33635H14.100901V43.87189H5.74217Z" fill="#ffffff"/>
<use data-text="u" xlink:href="#font_1_109" transform="matrix(9.963098,0,0,-9.962899,8.834488,52.70111)" fill="#ff0000"/>
<path transform="matrix(1.00005,0,0,-1.00003,2.0961533,91.09426)" stroke-width="1.19553" stroke-linecap="butt" stroke-miterlimit="10" stroke-linejoin="miter" fill="none" stroke="#0000ff" d="M29.76466 29.76466 38.84868 11.59666"/>
<path transform="matrix(.4471923,.8943869,.89440467,-.44718344,40.946756,79.49723)" d="M1.27522 0C-.31879 .31879-1.91284 .9564-3.8257 2.07224-1.91284 .6376-1.91284-.6376-3.8257-2.07224-1.91284-.9564-.31879-.31879 1.27522 0Z" fill="#0000ff"/>
<path transform="matrix(.4471923,.8943869,.89440467,-.44718344,40.946756,79.49723)" stroke-width="1.19553" stroke-linecap="butt" stroke-linejoin="round" fill="none" stroke="#0000ff" d="M1.27522 0C-.31879 .31879-1.91284 .9564-3.8257 2.07224-1.91284 .6376-1.91284-.6376-3.8257-2.07224-1.91284-.9564-.31879-.31879 1.27522 0Z"/>
<path transform="matrix(1.00005,0,0,-1.00003,2.0961533,91.09426)" d="M40.28397 13.50813H48.32392V19.96397H40.28397Z" fill="#ffffff"/>
<use data-text="v" xlink:href="#font_1_112" transform="matrix(9.963098,0,0,-9.962899,43.378217,76.54983)" fill="#0000ff"/>
<use data-text="a" xlink:href="#font_2_28" transform="matrix(9.963098,0,0,-9.962899,23.0252,101.208568)"/>
<use data-text="." xlink:href="#font_2_88" transform="matrix(9.963098,0,0,-9.962899,28.006752,101.208568)"/>
<path transform="matrix(1.00005,0,0,-1.00003,2.0961533,91.09426)" stroke-width=".3985" stroke-linecap="butt" stroke-miterlimit="10" stroke-linejoin="miter" fill="none" stroke="#00aeef" d="M59.52362 0H119.06296M59.52362 9.92155H119.06296M59.52362 19.84311H119.06296M59.52362 29.76466H119.06296M59.52362 39.68622H119.06296M59.52362 49.60428H119.06296M59.52933 0V49.60777M69.45088 0V49.60777M79.37244 0V49.60777M89.29399 0V49.60777M99.21555 0V49.60777M109.13712 0V49.60777M119.05867 0V49.60777M119.06296 49.60777"/>
<path transform="matrix(1.00005,0,0,-1.00003,2.0961533,91.09426)" stroke-width="1.19553" stroke-linecap="butt" stroke-miterlimit="10" stroke-linejoin="miter" fill="none" stroke="#ff0000" d="M69.44519 19.84311 107.45628 38.84868"/>
<path transform="matrix(.89440467,-.44718344,-.4471923,-.8943869,109.55779,52.244436)" d="M1.27522 0C-.31879 .31879-1.91284 .9564-3.8257 2.07224-1.91284 .6376-1.91284-.6376-3.8257-2.07224-1.91284-.9564-.31879-.31879 1.27522 0Z" fill="#ff0000"/>
<path transform="matrix(.89440467,-.44718344,-.4471923,-.8943869,109.55779,52.244436)" stroke-width="1.19553" stroke-linecap="butt" stroke-linejoin="round" fill="none" stroke="#ff0000" d="M1.27522 0C-.31879 .31879-1.91284 .9564-3.8257 2.07224-1.91284 .6376-1.91284-.6376-3.8257-2.07224-1.91284-.9564-.31879-.31879 1.27522 0Z"/>
<path transform="matrix(1.00005,0,0,-1.00003,2.0961533,91.09426)" d="M100.1749 42.27652H108.53363V48.81206H100.1749Z" fill="#ffffff"/>
<use data-text="u" xlink:href="#font_1_109" transform="matrix(9.963098,0,0,-9.962899,103.2722,47.75996)" fill="#ff0000"/>
<path transform="matrix(1.00005,0,0,-1.00003,2.0961533,91.09426)" stroke-width="1.19553" stroke-linecap="butt" stroke-miterlimit="10" stroke-linejoin="miter" fill="none" stroke="#0000ff" d="M79.36674 9.92155 97.53473 19.00557"/>
<path transform="matrix(.89440467,-.44718344,-.4471923,-.8943869,99.63574,72.08814)" d="M1.27522 0C-.31879 .31879-1.91284 .9564-3.8257 2.07224-1.91284 .6376-1.91284-.6376-3.8257-2.07224-1.91284-.9564-.31879-.31879 1.27522 0Z" fill="#0000ff"/>
<path transform="matrix(.89440467,-.44718344,-.4471923,-.8943869,99.63574,72.08814)" stroke-width="1.19553" stroke-linecap="butt" stroke-linejoin="round" fill="none" stroke="#0000ff" d="M1.27522 0C-.31879 .31879-1.91284 .9564-3.8257 2.07224-1.91284 .6376-1.91284-.6376-3.8257-2.07224-1.91284-.9564-.31879-.31879 1.27522 0Z"/>
<path transform="matrix(1.00005,0,0,-1.00003,2.0961533,91.09426)" d="M93.19731 5.81555H101.23726V12.27139H93.19731Z" fill="#ffffff"/>
<use data-text="v" xlink:href="#font_1_112" transform="matrix(9.963098,0,0,-9.962899,96.29486,84.24206)" fill="#0000ff"/>
<use data-text="b" xlink:href="#font_2_35" transform="matrix(9.963098,0,0,-9.962899,87.234409,102.4346)"/>
<use data-text="." xlink:href="#font_2_88" transform="matrix(9.963098,0,0,-9.962899,92.77389,102.4346)"/>
<path transform="matrix(1.00005,0,0,-1.00003,2.0961533,91.09426)" stroke-width=".3985" stroke-linecap="butt" stroke-miterlimit="10" stroke-linejoin="miter" fill="none" stroke="#00aeef" d="M128.97956 0H228.19512M128.97956 9.92155H228.19512M128.97956 19.84311H228.19512M128.97956 29.76466H228.19512M128.97956 39.68622H228.19512M128.97956 49.60777H228.19512M128.97956 59.52933H228.19512M128.97956 69.45088H228.19512M128.97956 79.37244H228.19512M128.97956 89.29051H228.19512M128.98023 0V89.29399M138.90178 0V89.29399M148.82334 0V89.29399M158.74489 0V89.29399M168.66645 0V89.29399M178.588 0V89.29399M188.50955 0V89.29399M198.4311 0V89.29399M208.35266 0V89.29399M218.27423 0V89.29399M228.1923 0V89.29399M228.19512 89.29399"/>
<path transform="matrix(1.00005,0,0,-1.00003,2.0961533,91.09426)" stroke-width="1.19553" stroke-linecap="butt" stroke-miterlimit="10" stroke-linejoin="miter" fill="none" stroke="#ff0000" d="M148.82266 79.37244 216.94916 11.24594"/>
<path transform="matrix(.7071353,.7071212,.7071353,-.7071212,219.05612,79.84796)" d="M1.27522 0C-.31879 .31879-1.91284 .9564-3.8257 2.07224-1.91284 .6376-1.91284-.6376-3.8257-2.07224-1.91284-.9564-.31879-.31879 1.27522 0Z" fill="#ff0000"/>
<path transform="matrix(.7071353,.7071212,.7071353,-.7071212,219.05612,79.84796)" stroke-width="1.19553" stroke-linecap="butt" stroke-linejoin="round" fill="none" stroke="#ff0000" d="M1.27522 0C-.31879 .31879-1.91284 .9564-3.8257 2.07224-1.91284 .6376-1.91284-.6376-3.8257-2.07224-1.91284-.9564-.31879-.31879 1.27522 0Z"/>
<path transform="matrix(1.00005,0,0,-1.00003,2.0961533,91.09426)" d="M214.09418 17.49324H222.45291V24.02878H214.09418Z" fill="#ffffff"/>
<use data-text="u" xlink:href="#font_1_109" transform="matrix(9.963098,0,0,-9.962899,217.1969,72.54471)" fill="#ff0000"/>
<path transform="matrix(1.00005,0,0,-1.00003,2.0961533,91.09426)" stroke-width="1.19553" stroke-linecap="butt" stroke-miterlimit="10" stroke-linejoin="miter" fill="none" stroke="#0000ff" d="M188.50888 19.84311 140.22551 68.1265"/>
<path transform="matrix(-.7071353,-.7071212,-.7071353,.7071212,142.32868,22.965737)" d="M1.27522 0C-.31879 .31879-1.91284 .9564-3.8257 2.07224-1.91284 .6376-1.91284-.6376-3.8257-2.07224-1.91284-.9564-.31879-.31879 1.27522 0Z" fill="#0000ff"/>
<path transform="matrix(-.7071353,-.7071212,-.7071353,.7071212,142.32868,22.965737)" stroke-width="1.19553" stroke-linecap="butt" stroke-linejoin="round" fill="none" stroke="#0000ff" d="M1.27522 0C-.31879 .31879-1.91284 .9564-3.8257 2.07224-1.91284 .6376-1.91284-.6376-3.8257-2.07224-1.91284-.9564-.31879-.31879 1.27522 0Z"/>
<path transform="matrix(1.00005,0,0,-1.00003,2.0961533,91.09426)" d="M134.88114 55.42334H142.92108V61.87918H134.88114Z" fill="#ffffff"/>
<use data-text="v" xlink:href="#font_1_112" transform="matrix(9.963098,0,0,-9.962899,137.97995,34.633565)" fill="#0000ff"/>
<use data-text="c" xlink:href="#font_2_43" transform="matrix(9.963098,0,0,-9.962899,177.09589,101.208568)"/>
<use data-text="." xlink:href="#font_2_88" transform="matrix(9.963098,0,0,-9.962899,181.5195,101.208568)"/>
</svg>
