<svg xmlns="http://www.w3.org/2000/svg" xmlns:xlink="http://www.w3.org/1999/xlink" version="1.1" width="99" height="96" viewBox="0 0 99 96">
<defs>
<path id="font_1_1" d="M.44898988 .20022583C.44898988 .3193512 .36698915 .41944886 .25898744 .41944886 .21099854 .41944886 .16799927 .40345765 .13198853 .36842347V.5637665C.1519928 .5577698 .18499756 .55078127 .21699524 .55078127 .33999635 .55078127 .4099884 .6417694 .4099884 .6547699 .4099884 .6607666 .40699769 .6657715 .3999939 .6657715 .39898683 .6657715 .39698792 .6657715 .3919983 .66278079 .37199403 .6537781 .32299806 .6337738 .2559967 .6337738 .21598816 .6337738 .16999817 .6407776 .12298584 .6617737 .114990238 .66477969 .11299133 .66477969 .11099243 .66477969 .100997928 .66477969 .100997928 .6567688 .100997928 .6407776V.34439088C.100997928 .32637025 .100997928 .31835938 .114990238 .31835938 .12199402 .31835938 .12399292 .32136537 .12799073 .32736207 .13899231 .3433838 .17599488 .39746095 .25698854 .39746095 .30899049 .39746095 .33399964 .35139466 .34199525 .33337403 .35798646 .29632569 .3600006 .25727845 .3600006 .20722962 .3600006 .17222595 .3600006 .11222839 .33599855 .07035828 .31199647 .031463624 .2749939 .0055389406 .22898865 .0055389406 .1559906 .0055389406 .09899902 .058380128 .08198547 .11723328 .084991458 .1162262 .08799744 .115234378 .09899902 .115234378 .13198853 .115234378 .14898682 .14022827 .14898682 .16423035 .14898682 .18823242 .13198853 .21322632 .09899902 .21322632 .084991458 .21322632 .049987794 .20622254 .049987794 .16023255 .049987794 .07434082 .11898804-.022460938 .23098755-.022460938 .34700013-.022460938 .44898988 .073349 .44898988 .20022583Z"/>
<path id="font_2_1" d="M.28399659 .6252594C.28399659 .6452637 .269989 .6612549 .24699402 .6612549 .21998596 .6612549 .19299317 .6352539 .19299317 .6082611 .19299317 .5892639 .20698548 .5722656 .23098755 .5722656 .2539978 .5722656 .28399659 .5952606 .28399659 .6252594M.20799256 .24932862C.21998596 .27833558 .21998596 .28033448 .22999573 .30734254 .23799134 .3273468 .24299622 .34135438 .24299622 .36035157 .24299622 .405365 .21099854 .4423828 .16099549 .4423828 .066986087 .4423828 .0289917 .29733277 .0289917 .28833009 .0289917 .27833558 .038986207 .27833558 .040985109 .27833558 .050994874 .27833558 .051986696 .28033448 .056991579 .29634095 .083999637 .3903656 .12399292 .42037965 .1579895 .42037965 .1659851 .42037965 .18299866 .42037965 .18299866 .3883667 .18299866 .36735536 .17599488 .346344 .17199707 .3363495 .1639862 .31033326 .11898804 .19430542 .102996829 .1512909 .09298706 .12528992 .07998657 .0922699 .07998657 .0712738 .07998657 .024261475 .11399841-.0107421879 .1619873-.0107421879 .2559967-.0107421879 .29299928 .1342926 .29299928 .14329529 .29299928 .1532898 .28399659 .1532898 .2809906 .1532898 .2709961 .1532898 .2709961 .15029907 .2659912 .13528443 .24798584 .072265628 .21499634 .011245728 .1639862 .011245728 .14698792 .011245728 .13999939 .021255494 .13999939 .044265748 .13999939 .0692749 .1459961 .08326721 .16899109 .14428711L.20799256 .24932862Z"/>
<path id="font_3_1" d="M.6589966 .23046875C.6759949 .23046875 .69400027 .23046875 .69400027 .25045777 .69400027 .27046205 .6759949 .27046205 .6589966 .27046205H.117996219C.100997928 .27046205 .08299255 .27046205 .08299255 .25045777 .08299255 .23046875 .100997928 .23046875 .117996219 .23046875H.6589966Z"/>
</defs>
<path transform="matrix(1.00006,0,0,-1,49.784906,48.621)" stroke-width=".3985" stroke-linecap="butt" stroke-miterlimit="10" stroke-linejoin="miter" fill="none" stroke="#00aeef" d="M-42.52063-42.52063H42.52063M-42.52063-34.0165H42.52063M-42.52063-25.51237H42.52063M-42.52063-17.00824H42.52063M-42.52063-8.50412H42.52063M-42.52063 0H42.52063M-42.52063 8.50412H42.52063M-42.52063 17.00824H42.52063M-42.52063 25.51237H42.52063M-42.52063 34.0165H42.52063M-42.52063 42.51764H42.52063M-42.52063-42.52063V42.52063M-34.0165-42.52063V42.52063M-25.51237-42.52063V42.52063M-17.00824-42.52063V42.52063M-8.50412-42.52063V42.52063M0-42.52063V42.52063M8.50412-42.52063V42.52063M17.00824-42.52063V42.52063M25.51237-42.52063V42.52063M34.0165-42.52063V42.52063M42.51764-42.52063V42.52063M42.52063 42.52063"/>
<path transform="matrix(1.00006,0,0,-1,49.784906,48.621)" stroke-width=".79701" stroke-linecap="butt" stroke-miterlimit="10" stroke-linejoin="miter" fill="none" stroke="#000000" d="M-42.52063 0H46.18854"/>
<path transform="matrix(1.00006,0,0,-1,95.97621,48.621)" d="M1.0361 0C-.25902 .25902-1.55415 .77707-3.1083 1.68365-1.55415 .51805-1.55415-.51805-3.1083-1.68365-1.55415-.77707-.25902-.25902 1.0361 0Z"/>
<path transform="matrix(1.00006,0,0,-1,95.97621,48.621)" stroke-width=".79701" stroke-linecap="butt" stroke-linejoin="round" fill="none" stroke="#000000" d="M1.0361 0C-.25902 .25902-1.55415 .77707-3.1083 1.68365-1.55415 .51805-1.55415-.51805-3.1083-1.68365-1.55415-.77707-.25902-.25902 1.0361 0Z"/>
<path transform="matrix(1.00006,0,0,-1,49.784906,48.621)" stroke-width=".79701" stroke-linecap="butt" stroke-miterlimit="10" stroke-linejoin="miter" fill="none" stroke="#000000" d="M0-42.52063V46.18854"/>
<path transform="matrix(0,-1,-1.00006,-0,49.784906,2.432457)" d="M1.0361 0C-.25902 .25902-1.55415 .77707-3.1083 1.68365-1.55415 .51805-1.55415-.51805-3.1083-1.68365-1.55415-.77707-.25902-.25902 1.0361 0Z"/>
<path transform="matrix(0,-1,-1.00006,-0,49.784906,2.432457)" stroke-width=".79701" stroke-linecap="butt" stroke-linejoin="round" fill="none" stroke="#000000" d="M1.0361 0C-.25902 .25902-1.55415 .77707-3.1083 1.68365-1.55415 .51805-1.55415-.51805-3.1083-1.68365-1.55415-.77707-.25902-.25902 1.0361 0Z"/>
<path transform="matrix(1.00006,0,0,-1,49.784906,48.621)" stroke-width=".3985" stroke-linecap="butt" stroke-miterlimit="10" stroke-linejoin="miter" fill="none" stroke="#000000" d="M1.27554 42.52063H-1.27568"/>
<path transform="matrix(1.00006,0,0,-1,49.784906,48.621)" d="M-11.88118 39.23528H-3.4674998V45.805959H-11.88118Z" fill="#ffffff"/>
<use data-text="5" xlink:href="#font_1_1" transform="matrix(9.963197,0,0,-9.9626,37.90319,9.385998)"/>
<use data-text="i" xlink:href="#font_2_1" transform="matrix(9.963197,0,0,-9.9626,42.884485,9.385998)"/>
<path transform="matrix(1.00006,0,0,-1,49.784906,48.621)" stroke-width=".3985" stroke-linecap="butt" stroke-miterlimit="10" stroke-linejoin="miter" fill="none" stroke="#000000" d="M1.27554-42.52063H-1.27568"/>
<path transform="matrix(1.00006,0,0,-1,49.784906,48.621)" d="M-19.63002-46.22107H-3.4675008V-38.820169H-19.63002Z" fill="#ffffff"/>
<use data-text="&#x2212;" xlink:href="#font_3_1" transform="matrix(9.963197,0,0,-9.9626,30.153733,94.01199)"/>
<use data-text="5" xlink:href="#font_1_1" transform="matrix(9.963197,0,0,-9.9626,37.903184,94.01199)"/>
<use data-text="i" xlink:href="#font_2_1" transform="matrix(9.963197,0,0,-9.9626,42.88449,94.01199)"/>
<path transform="matrix(1.00006,0,0,-1,49.784906,48.621)" stroke-width=".3985" stroke-linecap="butt" stroke-miterlimit="10" stroke-linejoin="miter" fill="none" stroke="#000000" d="M42.52063 1.27554V-1.27568"/>
<path transform="matrix(1.00006,0,0,-1,49.784906,48.621)" d="M40.02994-9.88792H45.011323V-3.4674903H40.02994Z" fill="#ffffff"/>
<use data-text="5" xlink:href="#font_1_1" transform="matrix(9.963197,0,0,-9.9626,89.81731,58.509)"/>
<path transform="matrix(1.00006,0,0,-1,49.784906,48.621)" stroke-width=".3985" stroke-linecap="butt" stroke-miterlimit="10" stroke-linejoin="miter" fill="none" stroke="#000000" d="M-42.52063 1.27554V-1.27568"/>
<path transform="matrix(1.00006,0,0,-1,49.784906,48.621)" d="M-48.88574-10.71815H-36.155519V-3.4674803H-48.88574Z" fill="#ffffff"/>
<use data-text="&#x2212;" xlink:href="#font_3_1" transform="matrix(9.963197,0,0,-9.9626,.89598086,58.509)"/>
<use data-text="5" xlink:href="#font_1_1" transform="matrix(9.963197,0,0,-9.9626,8.6454319,58.509)"/>
<path transform="matrix(1.00006,0,0,-1,49.784906,48.621)" stroke-width="1.19553" stroke-linecap="butt" stroke-miterlimit="10" stroke-linejoin="miter" fill="none" stroke="#ff0000" d="M34.01651 0C34.01651 18.78703 18.78703 34.01651 0 34.01651-18.78703 34.01651-34.01651 18.78703-34.01651 0-34.01651-18.78703-18.78703-34.01651 0-34.01651 18.78703-34.01651 34.01651-18.78703 34.01651 0ZM0 0"/>
</svg>
