<svg xmlns="http://www.w3.org/2000/svg" xmlns:xlink="http://www.w3.org/1999/xlink" version="1.1" width="231" height="72" viewBox="0 0 231 72">
<defs>
<path id="font_1_4" d="M.13198853 .327713V.35173036C.13198853 .6047821 .2559967 .64100649 .30699159 .64100649 .33099366 .64100649 .37298585 .634964 .394989 .6007538 .37998963 .6007538 .33999635 .6007538 .33999635 .5557556 .33999635 .524765 .3639984 .5097656 .38598634 .5097656 .4019928 .5097656 .43199159 .51875308 .43199159 .5577545 .43199159 .6178589 .3880005 .6660156 .30499269 .6660156 .1769867 .6660156 .041992189 .5367584 .041992189 .31570436 .041992189 .048553468 .1579895-.022460938 .25099183-.022460938 .3619995-.022460938 .45700074 .07156372 .45700074 .2036438 .45700074 .33070375 .36799623 .4267578 .25698854 .4267578 .18899536 .4267578 .1519928 .37573243 .13198853 .327713M.25099183 .0055389406C.18798828 .0055389406 .1579895 .06556702 .1519928 .080566409 .13398743 .127594 .13398743 .2076416 .13398743 .22564698 .13398743 .30369569 .1659851 .40374757 .2559967 .40374757 .27198792 .40374757 .31799317 .40374757 .34899903 .34172059 .36698915 .30470277 .36698915 .2536621 .36698915 .20463562 .36698915 .15661621 .36698915 .10658264 .34999085 .0705719 .31999208 .010528564 .27398683 .0055389406 .25099183 .0055389406Z"/>
<path id="font_1_1" d="M.45999146 .31976319C.45999146 .39982606 .45498658 .47988893 .41999818 .5539398 .37399293 .65000918 .2919922 .6660156 .25 .6660156 .18998719 .6660156 .116989139 .64001467 .07598877 .54693606 .04399109 .47789 .038986207 .39982606 .038986207 .31976319 .038986207 .24472046 .042999269 .15464783 .083999637 .07859802 .1269989-.0024719239 .19999695-.022460938 .24899292-.022460938 .30299378-.022460938 .3789978-.0014648438 .4229889 .09359741 .45498658 .16265869 .45999146 .2407074 .45999146 .31976319M.24899292-.00047302247C.20999146-.00047302247 .15098572 .024551392 .1329956 .12062073 .12199402 .18066406 .12199402 .2727356 .12199402 .3317871 .12199402 .39582826 .12199402 .46188355 .12998963 .5159149 .14898682 .63500979 .22399903 .64401248 .24899292 .64401248 .28199769 .64401248 .34799195 .6259918 .36698915 .52693179 .3769989 .47088624 .3769989 .39482118 .3769989 .3317871 .3769989 .25672914 .3769989 .18867493 .3659973 .12461853 .35099793 .029556275 .2939911-.00047302247 .24899292-.00047302247Z"/>
<path id="font_2_1" d="M.5069885 .24998474C.5069885 .3710022 .4099884 .4650116 .2919922 .4650116 .17199707 .4650116 .07699585 .36799623 .07699585 .25097657 .07699585 .1299591 .17399597 .035949708 .2919922 .035949708 .4119873 .035949708 .5069885 .13296509 .5069885 .24998474M.2919922 .08496094C.19799805 .08496094 .12599182 .16096497 .12599182 .24998474 .12599182 .34300233 .19999695 .41601563 .2919922 .41601563 .38598634 .41601563 .45799256 .33999635 .45799256 .25097657 .45799256 .15795899 .38398744 .08496094 .2919922 .08496094Z"/>
<path id="font_1_5" d="M.16299439 .4569702C.116989139 .486969 .11299133 .52098086 .11299133 .5379791 .11299133 .598999 .17799378 .64100649 .24899292 .64100649 .32199098 .64100649 .38598634 .58898928 .38598634 .51698306 .38598634 .45996095 .34700013 .4119568 .2869873 .37695313L.16299439 .4569702M.30899049 .36193849C.3809967 .3989563 .42999269 .45095826 .42999269 .51698306 .42999269 .6090088 .34098817 .6660156 .25 .6660156 .1499939 .6660156 .068984989 .59199526 .068984989 .49897767 .068984989 .4809723 .070999149 .43595887 .11299133 .38894654 .12399292 .37695313 .16099549 .35194398 .18598938 .33494569 .12799073 .30592347 .041992189 .24984741 .041992189 .15072632 .041992189 .04458618 .14399719-.022460938 .24899292-.022460938 .3619995-.022460938 .45700074 .06060791 .45700074 .16773987 .45700074 .20379639 .44599916 .24885559 .4079895 .2909088 .3889923 .31193543 .37298585 .3219452 .30899049 .36193849M.20899964 .3199463 .33198548 .24183655C.3600006 .2228241 .40699769 .19277954 .40699769 .13169861 .40699769 .05760193 .33198548 .0055389406 .25 .0055389406 .1639862 .0055389406 .09199524 .067611698 .09199524 .15072632 .09199524 .20880127 .12399292 .27288819 .20899964 .3199463Z"/>
<path id="font_1_2" d="M.2899933 .35191346C.37199403 .37893678 .42999269 .4490509 .42999269 .52809146 .42999269 .6100464 .34199525 .6660156 .24598694 .6660156 .14498902 .6660156 .068984989 .60606387 .068984989 .53009036 .068984989 .49710084 .09098816 .47808839 .11999512 .47808839 .15098572 .47808839 .17098999 .50009158 .17098999 .5290985 .17098999 .57910159 .12399292 .57910159 .10899353 .57910159 .13999939 .62802127 .20599365 .64100649 .24198914 .64100649 .2829895 .64100649 .33799745 .6190338 .33799745 .5290985 .33799745 .51708987 .33599855 .45906068 .30999757 .4149933 .27999879 .36691285 .24598694 .36390687 .22099304 .36291505 .21299744 .36190797 .18899536 .35990907 .18199158 .35990907 .17399597 .35890199 .16699219 .35791017 .16699219 .3479004 .16699219 .33691407 .17399597 .33691407 .19099427 .33691407H.23498535C.31698609 .33691407 .35398866 .2686615 .35398866 .17037964 .35398866 .034469606 .2849884 .0055389406 .24099732 .0055389406 .19799805 .0055389406 .12298584 .022491456 .08799744 .08137512 .12298584 .07637024 .1539917 .09837341 .1539917 .1363678 .1539917 .17237854 .1269989 .19238281 .09799194 .19238281 .07398987 .19238281 .041992189 .17837525 .041992189 .1343689 .041992189 .043441774 .1349945-.022460938 .24398804-.022460938 .3659973-.022460938 .45700074 .06838989 .45700074 .17037964 .45700074 .252594 .3939972 .33088685 .2899933 .35191346Z"/>
<path id="font_1_3" d="M.2939911 .16503906V.07800293C.2939911 .041992189 .2919922 .0309906 .21798706 .0309906H.19699097V0C.23799134 .0029907227 .2899933 .0029907227 .33198548 .0029907227 .37399293 .0029907227 .4269867 .0029907227 .46798707 0V.0309906H.44699098C.37298585 .0309906 .37098695 .041992189 .37098695 .07800293V.16503906H.47099305V.19602967H.37098695V.65075686C.37098695 .67074587 .37098695 .6767578 .35499574 .6767578 .34599305 .6767578 .34298707 .6767578 .33499146 .66474917L.027999878 .19602967V.16503906H.2939911M.2999878 .19602967H.055999757L.2999878 .5688019V.19602967Z"/>
</defs>
<path transform="matrix(1.00003,0,0,-1,2.0964967,60.763)" stroke-width=".3985" stroke-linecap="butt" stroke-miterlimit="10" stroke-linejoin="miter" fill="none" stroke="#ff0000" d="M9.07086 0C9.07086 3.24031 7.34155 6.23552 4.53543 7.85562"/>
<use data-text="6" xlink:href="#font_1_4" transform="matrix(9.962899,0,0,-9.9626,13.47184,57.665)" fill="#ff0000"/>
<use data-text="0" xlink:href="#font_1_1" transform="matrix(9.962899,0,0,-9.9626,18.453293,57.665)" fill="#ff0000"/>
<use data-text="&#x25e6;" xlink:href="#font_2_1" transform="matrix(6.9740097,0,0,-6.9738,23.435135,54.05)" fill="#ff0000"/>
<path transform="matrix(1.00003,0,0,-1,2.0964967,60.763)" stroke-width=".3985" stroke-linecap="butt" stroke-miterlimit="10" stroke-linejoin="miter" fill="none" stroke="#ff0000" d="M58.96527 0C58.96527 3.24031 60.69458 6.23552 63.5007 7.85562"/>
<use data-text="6" xlink:href="#font_1_4" transform="matrix(9.962899,0,0,-9.9626,46.20782,57.665)" fill="#ff0000"/>
<use data-text="0" xlink:href="#font_1_1" transform="matrix(9.962899,0,0,-9.9626,51.189275,57.665)" fill="#ff0000"/>
<use data-text="&#x25e6;" xlink:href="#font_2_1" transform="matrix(6.9740097,0,0,-6.9738,56.171117,54.05)" fill="#ff0000"/>
<path transform="matrix(1.00003,0,0,-1,2.0964967,60.763)" stroke-width=".3985" stroke-linecap="butt" stroke-miterlimit="10" stroke-linejoin="miter" fill="none" stroke="#ff0000" d="M29.48262 51.06558C32.28876 49.4455 35.74736 49.4455 38.55348 51.06558"/>
<use data-text="6" xlink:href="#font_1_4" transform="matrix(9.962899,0,0,-9.9626,28.8443,21.293)" fill="#ff0000"/>
<use data-text="0" xlink:href="#font_1_1" transform="matrix(9.962899,0,0,-9.9626,33.825754,21.293)" fill="#ff0000"/>
<use data-text="&#x25e6;" xlink:href="#font_2_1" transform="matrix(6.9740097,0,0,-6.9738,38.807596,17.677998)" fill="#ff0000"/>
<path transform="matrix(1.00003,0,0,-1,2.0964967,60.763)" stroke-width=".3985" stroke-linecap="butt" stroke-miterlimit="10" stroke-linejoin="miter" fill="none" stroke="#000000" d="M0 0H68.03616L34.01805 58.92119Z"/>
<use data-text="8" xlink:href="#font_1_5" transform="matrix(9.962899,0,0,-9.9626,56.645139,31.768)" fill="#0000ff"/>
<use data-text="8" xlink:href="#font_1_5" transform="matrix(9.962899,0,0,-9.9626,10.604752,31.768)" fill="#0000ff"/>
<path transform="matrix(1.00003,0,0,-1,2.0964967,60.763)" stroke-width=".3985" stroke-linecap="butt" stroke-miterlimit="10" stroke-linejoin="miter" fill="none" stroke="#ff0000" d="M88.44638 0C88.44638 3.24031 86.71707 6.23552 83.91095 7.85562"/>
<use data-text="6" xlink:href="#font_1_4" transform="matrix(9.962899,0,0,-9.9626,92.85022,57.665)" fill="#ff0000"/>
<use data-text="0" xlink:href="#font_1_1" transform="matrix(9.962899,0,0,-9.9626,97.83167,57.665)" fill="#ff0000"/>
<use data-text="&#x25e6;" xlink:href="#font_2_1" transform="matrix(6.9740097,0,0,-6.9738,102.813518,54.05)" fill="#ff0000"/>
<path transform="matrix(1.00003,0,0,-1,2.0964967,60.763)" stroke-width=".3985" stroke-linecap="butt" stroke-miterlimit="10" stroke-linejoin="miter" fill="none" stroke="#ff0000" d="M138.34082 0C138.34082 3.24031 140.07013 6.23552 142.87625 7.85562"/>
<use data-text="6" xlink:href="#font_1_4" transform="matrix(9.962899,0,0,-9.9626,125.586208,57.665)" fill="#ff0000"/>
<use data-text="0" xlink:href="#font_1_1" transform="matrix(9.962899,0,0,-9.9626,130.56766,57.665)" fill="#ff0000"/>
<use data-text="&#x25e6;" xlink:href="#font_2_1" transform="matrix(6.9740097,0,0,-6.9738,135.5495,54.05)" fill="#ff0000"/>
<path transform="matrix(1.00003,0,0,-1,2.0964967,60.763)" stroke-width=".3985" stroke-linecap="butt" stroke-miterlimit="10" stroke-linejoin="miter" fill="none" stroke="#0000ff" d="M113.39362 0V5.66936H119.063V0ZM119.063 5.66936"/>
<path transform="matrix(1.00003,0,0,-1,2.0964967,60.763)" stroke-width=".3985" stroke-linecap="butt" stroke-miterlimit="10" stroke-linejoin="miter" fill="none" stroke="#000000" d="M79.3755 0H147.4117"/>
<path transform="matrix(1.00003,0,0,-1,2.0964967,60.763)" stroke-width=".3985" stroke-linecap="butt" stroke-miterlimit="10" stroke-linejoin="miter" fill="none" stroke="#929292" d="M113.39362 58.96478V0"/>
<path transform="matrix(1.00003,0,0,-1,2.0964967,60.763)" stroke-width=".3985" stroke-linecap="butt" stroke-miterlimit="10" stroke-linejoin="miter" fill="none" stroke="#000000" d="M79.3755 0 113.39362 58.96478"/>
<use data-text="8" xlink:href="#font_1_5" transform="matrix(9.962899,0,0,-9.9626,89.98214,31.746)" fill="#0000ff"/>
<path transform="matrix(1.00003,0,0,-1,2.0964967,60.763)" stroke-width=".3985" stroke-linecap="butt" stroke-miterlimit="10" stroke-linejoin="miter" fill="none" stroke="#000000" d="M113.39362 58.96478 147.4117 0"/>
<use data-text="8" xlink:href="#font_1_5" transform="matrix(9.962899,0,0,-9.9626,136.02252,31.746)" fill="#0000ff"/>
<path transform="matrix(1.00003,0,0,-1,2.0964967,60.763)" stroke-width=".3985" stroke-linecap="butt" stroke-miterlimit="10" stroke-linejoin="miter" fill="none" stroke="#ff0000" d="M167.82195 0C167.82195 3.24031 166.09264 6.23552 163.28652 7.85562"/>
<use data-text="6" xlink:href="#font_1_4" transform="matrix(9.962899,0,0,-9.9626,172.2286,57.665)" fill="#ff0000"/>
<use data-text="0" xlink:href="#font_1_1" transform="matrix(9.962899,0,0,-9.9626,177.21006,57.665)" fill="#ff0000"/>
<use data-text="&#x25e6;" xlink:href="#font_2_1" transform="matrix(6.9740097,0,0,-6.9738,182.1919,54.05)" fill="#ff0000"/>
<path transform="matrix(1.00003,0,0,-1,2.0964967,60.763)" stroke-width=".3985" stroke-linecap="butt" stroke-miterlimit="10" stroke-linejoin="miter" fill="none" stroke="#ff0000" d="M217.71637 0C217.71637 3.24031 219.44568 6.23552 222.2518 7.85562"/>
<use data-text="6" xlink:href="#font_1_4" transform="matrix(9.962899,0,0,-9.9626,204.96358,57.665)" fill="#ff0000"/>
<use data-text="0" xlink:href="#font_1_1" transform="matrix(9.962899,0,0,-9.9626,209.94504,57.665)" fill="#ff0000"/>
<use data-text="&#x25e6;" xlink:href="#font_2_1" transform="matrix(6.9740097,0,0,-6.9738,214.92688,54.05)" fill="#ff0000"/>
<path transform="matrix(1.00003,0,0,-1,2.0964967,60.763)" stroke-width=".3985" stroke-linecap="butt" stroke-miterlimit="10" stroke-linejoin="miter" fill="none" stroke="#ff0000" d="M181.15923 36.86357C184.08759 35.17302 188.39147 34.01968 191.7729 34.01968"/>
<path transform="matrix(-.866036,-.49998,-.49999503,.86601,183.26117,23.89944)" d="M.797 0C-.19925 .19925-1.19551 .59775-2.39102 1.29512-1.19551 .3985-1.19551-.3985-2.39102-1.29512-1.19551-.59775-.19925-.19925 .797 0Z" fill="#ff0000"/>
<path transform="matrix(-.866036,-.49998,-.49999503,.86601,183.26117,23.89944)" stroke-width=".3985" stroke-linecap="butt" stroke-linejoin="round" fill="none" stroke="#ff0000" d="M.797 0C-.19925 .19925-1.19551 .59775-2.39102 1.29512-1.19551 .3985-1.19551-.3985-2.39102-1.29512-1.19551-.59775-.19925-.19925 .797 0Z"/>
<path transform="matrix(1.00003,0,0,-1,193.87517,26.74332)" d="M.797 0C-.19925 .19925-1.19551 .59775-2.39102 1.29512-1.19551 .3985-1.19551-.3985-2.39102-1.29512-1.19551-.59775-.19925-.19925 .797 0Z" fill="#ff0000"/>
<path transform="matrix(1.00003,0,0,-1,193.87517,26.74332)" stroke-width=".3985" stroke-linecap="butt" stroke-linejoin="round" fill="none" stroke="#ff0000" d="M.797 0C-.19925 .19925-1.19551 .59775-2.39102 1.29512-1.19551 .3985-1.19551-.3985-2.39102-1.29512-1.19551-.59775-.19925-.19925 .797 0Z"/>
<use data-text="3" xlink:href="#font_1_2" transform="matrix(9.962899,0,0,-9.9626,179.15082,37.27)" fill="#ff0000"/>
<use data-text="0" xlink:href="#font_1_1" transform="matrix(9.962899,0,0,-9.9626,184.13227,37.27)" fill="#ff0000"/>
<use data-text="&#x25e6;" xlink:href="#font_2_1" transform="matrix(6.9740097,0,0,-6.9738,189.1141,33.655)" fill="#ff0000"/>
<path transform="matrix(1.00003,0,0,-1,2.0964967,60.763)" stroke-width=".3985" stroke-linecap="butt" stroke-miterlimit="10" stroke-linejoin="miter" fill="none" stroke="#ff0000" d="M193.76543 34.01938C197.14687 34.01938 201.45075 35.17271 204.3791 36.86327"/>
<path transform="matrix(-1.00003,-0,0,1,195.86774,26.743622)" d="M.797 0C-.19925 .19925-1.19551 .59775-2.39102 1.29512-1.19551 .3985-1.19551-.3985-2.39102-1.29512-1.19551-.59775-.19925-.19925 .797 0Z" fill="#ff0000"/>
<path transform="matrix(-1.00003,-0,0,1,195.86774,26.743622)" stroke-width=".3985" stroke-linecap="butt" stroke-linejoin="round" fill="none" stroke="#ff0000" d="M.797 0C-.19925 .19925-1.19551 .59775-2.39102 1.29512-1.19551 .3985-1.19551-.3985-2.39102-1.29512-1.19551-.59775-.19925-.19925 .797 0Z"/>
<path transform="matrix(.866036,-.49998,-.49999503,-.86601,206.48174,23.89975)" d="M.797 0C-.19925 .19925-1.19551 .59775-2.39102 1.29512-1.19551 .3985-1.19551-.3985-2.39102-1.29512-1.19551-.59775-.19925-.19925 .797 0Z" fill="#ff0000"/>
<path transform="matrix(.866036,-.49998,-.49999503,-.86601,206.48174,23.89975)" stroke-width=".3985" stroke-linecap="butt" stroke-linejoin="round" fill="none" stroke="#ff0000" d="M.797 0C-.19925 .19925-1.19551 .59775-2.39102 1.29512-1.19551 .3985-1.19551-.3985-2.39102-1.29512-1.19551-.59775-.19925-.19925 .797 0Z"/>
<use data-text="3" xlink:href="#font_1_2" transform="matrix(9.962899,0,0,-9.9626,196.04933,37.27)" fill="#ff0000"/>
<use data-text="0" xlink:href="#font_1_1" transform="matrix(9.962899,0,0,-9.9626,201.03079,37.27)" fill="#ff0000"/>
<use data-text="&#x25e6;" xlink:href="#font_2_1" transform="matrix(6.9740097,0,0,-6.9738,206.01264,33.655)" fill="#ff0000"/>
<path transform="matrix(1.00003,0,0,-1,2.0964967,60.763)" stroke-width=".3985" stroke-linecap="butt" stroke-miterlimit="10" stroke-linejoin="miter" fill="none" stroke="#0000ff" d="M192.76917 0V5.66936H198.43854V0ZM198.43854 5.66936"/>
<path transform="matrix(1.00003,0,0,-1,2.0964967,60.763)" stroke-width=".3985" stroke-linecap="butt" stroke-miterlimit="10" stroke-linejoin="miter" fill="none" stroke="#000000" d="M158.75107 0H192.76917"/>
<use data-text="4" xlink:href="#font_1_3" transform="matrix(9.962899,0,0,-9.9626,175.3707,70.703)" fill="#0000ff"/>
<path transform="matrix(1.00003,0,0,-1,2.0964967,60.763)" stroke-width=".3985" stroke-linecap="butt" stroke-miterlimit="10" stroke-linejoin="miter" fill="none" stroke="#000000" d="M226.78725 0H192.76917"/>
<use data-text="4" xlink:href="#font_1_3" transform="matrix(9.962899,0,0,-9.9626,209.39072,70.703)" fill="#0000ff"/>
<path transform="matrix(1.00003,0,0,-1,2.0964967,60.763)" stroke-width=".3985" stroke-linecap="butt" stroke-miterlimit="10" stroke-linejoin="miter" fill="none" stroke="#929292" d="M192.76917 58.96478V0"/>
<path transform="matrix(1.00003,0,0,-1,2.0964967,60.763)" stroke-width=".3985" stroke-linecap="butt" stroke-miterlimit="10" stroke-linejoin="miter" fill="none" stroke="#000000" d="M158.75107 0 192.76917 58.96478"/>
<use data-text="8" xlink:href="#font_1_5" transform="matrix(9.962899,0,0,-9.9626,169.36052,31.746)" fill="#0000ff"/>
<path transform="matrix(1.00003,0,0,-1,2.0964967,60.763)" stroke-width=".3985" stroke-linecap="butt" stroke-miterlimit="10" stroke-linejoin="miter" fill="none" stroke="#000000" d="M192.76917 58.96478 226.78725 0"/>
<use data-text="8" xlink:href="#font_1_5" transform="matrix(9.962899,0,0,-9.9626,215.40091,31.746)" fill="#0000ff"/>
</svg>
