<svg xmlns="http://www.w3.org/2000/svg" xmlns:xlink="http://www.w3.org/1999/xlink" version="1.1" width="83" height="83" viewBox="0 0 83 83">
<defs>
<path id="font_1_1" d="M.3889923-.8549652 .21299744-.4659729C.20599365-.44996644 .20098877-.44996644 .19799805-.44996644 .19699097-.44996644 .19198609-.44996644 .18099976-.45796205L.085998538-.52996829C.07299805-.53996279 .07299805-.54296877 .07299805-.54597476 .07299805-.55096438 .07598877-.55696108 .08299255-.55696108 .08898926-.55696108 .10598755-.54296877 .116989139-.53497317 .12298584-.52996829 .13798523-.5189667 .14898682-.51097109L.34599305-.9439697C.35299684-.95996096 .35798646-.95996096 .36698915-.95996096 .38198854-.95996096 .3849945-.95396426 .3919983-.9399719L.84599307 .000030517579C.8529968 .014038086 .8529968 .018035889 .8529968 .02003479 .8529968 .030029297 .8450012 .040039064 .83299258 .040039064 .82499697 .040039064 .81799319 .03503418 .80999758 .01902771L.3889923-.8549652Z"/>
<path id="font_2_1" d="M.2939911 .64004519C.2939911 .66400149 .2939911 .6660156 .2709961 .6660156 .20899964 .60227969 .12098694 .60227969 .08898926 .60227969V.57128909C.10899353 .57128909 .16799927 .57128909 .21998596 .5972748V.07902527C.21998596 .042999269 .21699524 .0309906 .1269989 .0309906H.09498596V0C.12998963 .0029907227 .21699524 .0029907227 .25698854 .0029907227 .29699708 .0029907227 .38398744 .0029907227 .4189911 0V.0309906H.3869934C.29699708 .0309906 .2939911 .041992189 .2939911 .07902527V.64004519Z"/>
<path id="font_2_2" d="M.47599793 .609375C.4850006 .6213684 .4850006 .62338259 .4850006 .64437869H.24198914C.11999512 .64437869 .117996219 .65737918 .11399841 .67637637H.08898926L.055999757 .4702301H.08099365C.083999637 .48625184 .09298706 .5493469 .10598755 .56137087 .11299133 .5673828 .19099427 .5673828 .20399475 .5673828H.41099549C.3999939 .5513611 .32099916 .4421997 .29899598 .40914918 .20899964 .27394105 .17599488 .1347351 .17599488 .032577516 .17599488 .022567749 .17599488-.022460938 .22200012-.022460938 .2679901-.022460938 .2679901 .022567749 .2679901 .032577516V.08366394C.2679901 .13873291 .2709961 .19381714 .2789917 .24790955 .2829895 .27093507 .29699708 .35707093 .34098817 .41915895L.47599793 .609375Z"/>
<path id="font_3_114" d="M.8049927 .3973236V.44433595C.7819977 .44232179 .7519989 .44132997 .7279968 .44132997L.6319885 .44433595V.3973236C.6409912 .3973236 .6899872 .3963318 .6899872 .3853302 .6899872 .38232423 .68699648 .3763275 .6859894 .37332154L.58099368 .11732483 .46699525 .3973236H.522995V.44433595L.40899659 .44132997C.36698915 .44132997 .32499696 .44332887 .30899049 .44433595V.3973236H.36799623C.3889923 .34732057 .3889923 .34432984 .3889923 .34432984 .3889923 .34033204 .38598634 .33433534 .3849945 .33132936L.30599977 .139328 .20098877 .3973236H.25698854V.44433595L.13398743 .44132997 .024993897 .44433595V.3973236H.083999637L.23699951 .023101807C.24398804 .006088257 .24798584-.00390625 .272995-.00390625 .2979889-.00390625 .3019867 .006088257 .30899049 .023101807L.4149933 .28208924 .5209961 .023086548C.5279999 .006088257 .5319977-.00390625 .5569916-.00390625 .58200076-.00390625 .58599856 .006088257 .59298709 .023086548L.7369995 .37608338C.74198916 .389328 .74598696 .3973236 .8049927 .3973236Z"/>
<path id="font_3_112" d="M.5799866 .3973236V.44433595C.5549927 .44232179 .526001 .44132997 .5009918 .44132997L.4099884 .44433595V.3973236C.42900086 .3973236 .45799256 .39431764 .45799256 .38632203 .45799256 .38632203 .45799256 .38432313 .45298768 .37431336L.33699037 .12416077 .20999146 .3973236H.2639923V.44433595L.13999939 .44132997 .025985718 .44433595V.3973236H.08999634L.2649994 .021102906C.2769928-.00390625 .2899933-.00390625 .30299378-.00390625 .31999208-.00390625 .32998658-.00091552737 .33999635 .020095826L.5059967 .37631227C.5119934 .39031983 .5159912 .3973236 .5799866 .3973236Z"/>
</defs>
<path transform="matrix(1.00008,0,0,-1.00003,2.0966492,81.17096)" stroke-width=".3985" stroke-linecap="butt" stroke-miterlimit="10" stroke-linejoin="miter" fill="none" stroke="#00aeef" d="M0 0H79.36984M0 11.33855H79.36984M0 22.6771H79.36984M0 34.01564H79.36984M0 45.35419H79.36984M0 56.69275H79.36984M0 68.0313H79.36984M0 79.36586H79.36984M0 0V79.36984M11.33855 0V79.36984M22.6771 0V79.36984M34.01564 0V79.36984M45.35419 0V79.36984M56.69275 0V79.36984M68.0313 0V79.36984M79.36586 0V79.36984M79.36984 79.36984"/>
<path transform="matrix(1.00008,0,0,-1.00003,2.0966492,81.17096)" stroke-width=".3985" stroke-linecap="butt" stroke-miterlimit="10" stroke-linejoin="miter" fill="none" stroke="#cbcbcb" d="M10.65858 48.07701 7.25676 61.68431"/>
<path transform="matrix(1.00008,0,0,-1.00003,2.0966492,81.17096)" stroke-width=".3985" stroke-linecap="butt" stroke-miterlimit="10" stroke-linejoin="miter" fill="none" stroke="#cbcbcb" d="M56.0143 59.41594 52.61247 73.02324"/>
<path transform="matrix(1.00008,0,0,-1.00003,2.0966492,81.17096)" stroke-width=".79701" stroke-linecap="butt" stroke-miterlimit="10" stroke-linejoin="miter" fill="none" stroke="#cbcbcb" d="M10.46284 54.77489 53.03505 65.41803"/>
<path transform="matrix(-.9702176,.24251729,.2425294,.9701691,12.560347,26.394425)" d="M1.0361 0C-.25902 .25902-1.55415 .77707-3.1083 1.68365-1.55415 .51805-1.55415-.51805-3.1083-1.68365-1.55415-.77707-.25902-.25902 1.0361 0Z" fill="#cbcbcb"/>
<path transform="matrix(-.9702176,.24251729,.2425294,.9701691,12.560347,26.394425)" stroke-width=".79701" stroke-linecap="butt" stroke-linejoin="round" fill="none" stroke="#cbcbcb" d="M1.0361 0C-.25902 .25902-1.55415 .77707-3.1083 1.68365-1.55415 .51805-1.55415-.51805-3.1083-1.68365-1.55415-.77707-.25902-.25902 1.0361 0Z"/>
<path transform="matrix(.9702176,-.24251729,-.2425294,-.9701691,55.13592,15.750961)" d="M1.0361 0C-.25902 .25902-1.55415 .77707-3.1083 1.68365-1.55415 .51805-1.55415-.51805-3.1083-1.68365-1.55415-.77707-.25902-.25902 1.0361 0Z" fill="#cbcbcb"/>
<path transform="matrix(.9702176,-.24251729,-.2425294,-.9701691,55.13592,15.750961)" stroke-width=".79701" stroke-linecap="butt" stroke-linejoin="round" fill="none" stroke="#cbcbcb" d="M1.0361 0C-.25902 .25902-1.55415 .77707-3.1083 1.68365-1.55415 .51805-1.55415-.51805-3.1083-1.68365-1.55415-.77707-.25902-.25902 1.0361 0Z"/>
<path transform="matrix(1.00008,0,0,-1.00003,2.0966492,81.17096)" d="M21.6201 53.91957H41.87776V66.27336H21.6201Z" fill="#ffffff"/>
<use data-text="&#x221a;" xlink:href="#font_1_1" transform="matrix(9.963397,0,0,-9.962899,24.714455,16.688023)"/>
<path transform="matrix(1.00008,0,0,-1.00003,-58.38819,-40.242689)" stroke-width=".3985" stroke-linecap="butt" stroke-miterlimit="10" stroke-linejoin="miter" fill="none" stroke="#000000" d="M91.398-56.73H101.361"/>
<use data-text="1" xlink:href="#font_2_1" transform="matrix(9.963397,0,0,-9.962899,33.01712,24.930272)"/>
<use data-text="7" xlink:href="#font_2_2" transform="matrix(9.963397,0,0,-9.962899,37.998819,24.930272)"/>
<path transform="matrix(1.00008,0,0,-1.00003,2.0966492,81.17096)" stroke-width=".79701" stroke-linecap="butt" stroke-miterlimit="10" stroke-linejoin="miter" fill="none" stroke="#00ff00" d="M56.69463 56.69463 67.68602 12.72916"/>
<path transform="matrix(.2425294,.9701691,.9702176,-.24251729,69.788089,68.44141)" d="M1.0361 0C-.25902 .25902-1.55415 .77707-3.1083 1.68365-1.55415 .51805-1.55415-.51805-3.1083-1.68365-1.55415-.77707-.25902-.25902 1.0361 0Z" fill="#00ff00"/>
<path transform="matrix(.2425294,.9701691,.9702176,-.24251729,69.788089,68.44141)" stroke-width=".79701" stroke-linecap="butt" stroke-linejoin="round" fill="none" stroke="#00ff00" d="M1.0361 0C-.25902 .25902-1.55415 .77707-3.1083 1.68365-1.55415 .51805-1.55415-.51805-3.1083-1.68365-1.55415-.77707-.25902-.25902 1.0361 0Z"/>
<path transform="matrix(1.00008,0,0,-1.00003,2.0966492,81.17096)" stroke-width=".79701" stroke-linecap="butt" stroke-miterlimit="10" stroke-linejoin="miter" fill="none" stroke="#0000ff" d="M11.33891 45.3557 55.30287 56.34674"/>
<path transform="matrix(.9702176,-.24251729,-.2425294,-.9701691,57.403936,24.822525)" d="M1.0361 0C-.25902 .25902-1.55415 .77707-3.1083 1.68365-1.55415 .51805-1.55415-.51805-3.1083-1.68365-1.55415-.77707-.25902-.25902 1.0361 0Z" fill="#0000ff"/>
<path transform="matrix(.9702176,-.24251729,-.2425294,-.9701691,57.403936,24.822525)" stroke-width=".79701" stroke-linecap="butt" stroke-linejoin="round" fill="none" stroke="#0000ff" d="M1.0361 0C-.25902 .25902-1.55415 .77707-3.1083 1.68365-1.55415 .51805-1.55415-.51805-3.1083-1.68365-1.55415-.77707-.25902-.25902 1.0361 0Z"/>
<path transform="matrix(1.00008,0,0,-1.00003,2.0966492,81.17096)" d="M60.08197 53.4667H70.35357V59.922544H60.08197Z" fill="#ffffff"/>
<use data-text="w" xlink:href="#font_3_114" transform="matrix(9.963397,0,0,-9.962899,63.179536,26.666325)" fill="#0000ff"/>
<path transform="matrix(1.00008,0,0,-1.00003,2.0966492,81.17096)" stroke-width="1.19553" stroke-linecap="butt" stroke-miterlimit="10" stroke-linejoin="miter" fill="none" stroke="#ff0000" d="M11.33891 45.3557 66.42754 12.30255"/>
<path transform="matrix(.8575386,.51451548,.51454117,-.8574957,68.5295,68.86804)" d="M1.27522 0C-.31879 .31879-1.91284 .9564-3.8257 2.07224-1.91284 .6376-1.91284-.6376-3.8257-2.07224-1.91284-.9564-.31879-.31879 1.27522 0Z" fill="#ff0000"/>
<path transform="matrix(.8575386,.51451548,.51454117,-.8574957,68.5295,68.86804)" stroke-width="1.19553" stroke-linecap="butt" stroke-linejoin="round" fill="none" stroke="#ff0000" d="M1.27522 0C-.31879 .31879-1.91284 .9564-3.8257 2.07224-1.91284 .6376-1.91284-.6376-3.8257-2.07224-1.91284-.9564-.31879-.31879 1.27522 0Z"/>
<path transform="matrix(1.00008,0,0,-1.00003,2.0966492,81.17096)" d="M64.01358-1.69234H72.05353V4.7635H64.01358Z" fill="#ffffff"/>
<use data-text="v" xlink:href="#font_3_112" transform="matrix(9.963397,0,0,-9.962899,67.111858,81.82698)" fill="#ff0000"/>
</svg>
