<svg xmlns="http://www.w3.org/2000/svg" xmlns:xlink="http://www.w3.org/1999/xlink" version="1.1" width="209" height="112" viewBox="0 0 209 112">
<defs>
<path id="font_1_2" d="M.33399964 .30233766C.33999635 .32835389 .36299134 .42037965 .43299867 .42037965 .43798829 .42037965 .46199037 .42037965 .48298646 .40734864 .45498658 .402359 .43499757 .37734986 .43499757 .35334779 .43499757 .33735658 .44599916 .31835938 .47299195 .31835938 .49499513 .31835938 .5269928 .3363495 .5269928 .37635804 .5269928 .42837525 .46798707 .4423828 .43399049 .4423828 .37599183 .4423828 .34098817 .38935853 .32899476 .36634828 .3039856 .43237306 .25 .4423828 .22099304 .4423828 .116989139 .4423828 .05999756 .3133545 .05999756 .28834535 .05999756 .27833558 .069992069 .27833558 .07199097 .27833558 .07998657 .27833558 .08299255 .28033448 .084991458 .28933717 .11898804 .39535523 .18499756 .42037965 .21899414 .42037965 .23799134 .42037965 .272995 .4113617 .272995 .35334779 .272995 .32235719 .2559967 .25532533 .21899414 .11528015 .20298767 .053268434 .16799927 .011245728 .12399292 .011245728 .117996219 .011245728 .09498596 .011245728 .07398987 .024276734 .09899902 .029266358 .12098694 .05027771 .12098694 .07827759 .12098694 .105270389 .09899902 .11328125 .083999637 .11328125 .053985597 .11328125 .0289917 .08728027 .0289917 .055267335 .0289917 .009246826 .07899475-.0107421879 .12298584-.0107421879 .18899536-.0107421879 .22499085 .059280397 .22799683 .0652771 .23999024 .028274537 .27598573-.0107421879 .33599855-.0107421879 .43899537-.0107421879 .49598695 .118270877 .49598695 .14328003 .49598695 .1532898 .4869995 .1532898 .48399354 .1532898 .47499085 .1532898 .47299195 .14929199 .47099305 .14228821 .43798829 .03527832 .36999513 .011245728 .33799745 .011245728 .29899598 .011245728 .2829895 .043273927 .2829895 .07727051 .2829895 .09927368 .2889862 .121276859 .2999878 .16529846L.33399964 .30233766Z"/>
<path id="font_1_3" d="M.48599244 .38136292C.48999024 .39537049 .48999024 .39736939 .48999024 .40437318 .48999024 .42237855 .47599793 .43138124 .46099855 .43138124 .45098878 .43138124 .43499757 .42536927 .42599488 .41036988 .42399598 .405365 .41600038 .37435914 .4119873 .35635377 .40499879 .33035279 .397995 .30334474 .3919983 .27633668L.34700013 .09628296C.34298707 .08126831 .2999878 .011245728 .23399353 .011245728 .18299866 .011245728 .17199707 .055267335 .17199707 .0922699 .17199707 .1382904 .18899536 .20030213 .22299195 .28833009 .23899842 .3293457 .24299622 .3403473 .24299622 .36035157 .24299622 .405365 .21099854 .4423828 .16099549 .4423828 .06599426 .4423828 .0289917 .29733277 .0289917 .28833009 .0289917 .27833558 .038986207 .27833558 .040985109 .27833558 .050994874 .27833558 .051986696 .28033448 .056991579 .29634095 .083999637 .3903656 .12399292 .42037965 .1579895 .42037965 .1659851 .42037965 .18299866 .42037965 .18299866 .3883667 .18299866 .36335755 .17298889 .3373413 .1659851 .31834413 .12599182 .21231079 .10798645 .1552887 .10798645 .10827637 .10798645 .019256592 .17098999-.0107421879 .22999573-.0107421879 .2689972-.0107421879 .30299378 .0062561037 .33099366 .03425598 .31799317-.017745972 .30599977-.06674194 .2659912-.11973572 .23999024-.15385437 .20199585-.18309021 .1559906-.18309021 .14199829-.18309021 .09700012-.18005371 .07998657-.14074707 .09599304-.14074707 .10899353-.14074707 .12298584-.1287384 .1329956-.11973572 .14299011-.10673523 .14299011-.08773804 .14299011-.056747438 .115997318-.052734376 .10598755-.052734376 .08299255-.052734376 .049987794-.068740848 .049987794-.11773682 .049987794-.16796875 .09399414-.20507813 .1559906-.20507813 .25898744-.20507813 .3619995-.11373901 .3899994-.00074768069L.48599244 .38136292Z"/>
<path id="font_2_64" d="M.27598573 .18710327V.24511719H.010986328V.18710327H.27598573Z"/>
<path id="font_2_106" d="M.45700074 .17037964C.45700074 .252594 .3939972 .33088685 .2899933 .35191346 .37199403 .37893678 .42999269 .4490509 .42999269 .52809146 .42999269 .6100464 .34199525 .6660156 .24598694 .6660156 .14498902 .6660156 .068984989 .60606387 .068984989 .53009036 .068984989 .49710084 .09098816 .47808839 .11999512 .47808839 .15098572 .47808839 .17098999 .50009158 .17098999 .5290985 .17098999 .57910159 .12399292 .57910159 .10899353 .57910159 .13999939 .62802127 .20599365 .64100649 .24198914 .64100649 .2829895 .64100649 .33799745 .6190338 .33799745 .5290985 .33799745 .51708987 .33599855 .45906068 .30999757 .4149933 .27999879 .36691285 .24598694 .36390687 .22099304 .36291505 .21299744 .36190797 .18899536 .35990907 .18199158 .35990907 .17399597 .35890199 .16699219 .35791017 .16699219 .3479004 .16699219 .33691407 .17399597 .33691407 .19099427 .33691407H.23498535C.31698609 .33691407 .35398866 .2686615 .35398866 .17037964 .35398866 .034469606 .2849884 .0055389406 .24099732 .0055389406 .19799805 .0055389406 .12298584 .022491456 .08799744 .08137512 .12298584 .07637024 .1539917 .09837341 .1539917 .1363678 .1539917 .17237854 .1269989 .19238281 .09799194 .19238281 .07398987 .19238281 .041992189 .17837525 .041992189 .1343689 .041992189 .043441774 .1349945-.022460938 .24398804-.022460938 .3659973-.022460938 .45700074 .06838989 .45700074 .17037964Z"/>
<path id="font_2_107" d="M.44898988 .17396546H.42399598C.4189911 .14398194 .4119873 .099990848 .4019928 .084991458 .394989 .07699585 .32899476 .07699585 .30699159 .07699585H.1269989L.23298645 .17996216C.3889923 .31803895 .44898988 .37210084 .44898988 .47216798 .44898988 .5860901 .35899354 .6660156 .23699951 .6660156 .12399292 .6660156 .049987794 .57411196 .049987794 .48516847 .049987794 .4291687 .099990848 .4291687 .102996829 .4291687 .11999512 .4291687 .15499878 .44117738 .15499878 .48217774 .15499878 .5081787 .13699341 .5341797 .101989749 .5341797 .09399414 .5341797 .09199524 .5341797 .08898926 .5331726 .11199951 .59806826 .1659851 .63500979 .22399903 .63500979 .31498719 .63500979 .35798646 .5541382 .35798646 .47216798 .35798646 .39196778 .30799867 .31297303 .25299073 .25097657L.06098938 .036987306C.049987794 .025985718 .049987794 .023986817 .049987794 0H.42099L.44898988 .17396546Z"/>
<path id="font_2_82" d="M.4189911 0V.0309906H.3869934C.29699708 .0309906 .2939911 .041992189 .2939911 .07902527V.64012148C.2939911 .6640167 .2939911 .6660156 .2709961 .6660156 .20899964 .60227969 .12098694 .60227969 .08898926 .60227969V.57128909C.10899353 .57128909 .16799927 .57128909 .21998596 .5972748V.07902527C.21998596 .042999269 .21699524 .0309906 .1269989 .0309906H.09498596V0C.12998963 .0029907227 .21699524 .0029907227 .25698854 .0029907227 .29699708 .0029907227 .38398744 .0029907227 .4189911 0Z"/>
<path id="font_1_1" d="M.2649994 .37265016H.37799073C.34498597 .22489929 .33599855 .18196106 .33599855 .11508179 .33599855 .100097659 .33599855 .073150638 .34399415 .03919983 .35398866-.0047454836 .36499024-.0107421879 .37998963-.0107421879 .3999939-.0107421879 .42099 .007247925 .42099 .02722168 .42099 .033218385 .42099 .035202028 .4149933 .049179079 .38598634 .12106323 .38598634 .18595886 .38598634 .21391297 .38598634 .26683045 .3929901 .32073976 .4039917 .37265016H.5179901C.5309906 .37265016 .5669861 .37265016 .5669861 .406662 .5669861 .43066407 .54599 .43066407 .5269928 .43066407H.19198609C.16999817 .43066407 .13198853 .43066407 .08799744 .38365174 .052993776 .34469605 .026992798 .29878236 .026992798 .29379273 .026992798 .29278565 .026992798 .28379823 .038986207 .28379823 .04699707 .28379823 .04899597 .28779603 .054992677 .29577638 .10398865 .37265016 .1619873 .37265016 .18199158 .37265016H.23899842C.20698548 .25186158 .15299988 .13105774 .11099243 .04020691 .102996829 .025222779 .102996829 .023223877 .102996829 .016235352 .102996829-.002746582 .11898804-.0107421879 .13198853-.0107421879 .1619873-.0107421879 .16999817 .017242432 .18199158 .05418396 .19599915 .100097659 .19599915 .10209656 .20899964 .15202332L.2649994 .37265016Z"/>
<path id="font_3_3" d="M.1269989 .07699585 .23298645 .18003845C.3889923 .31811524 .44898988 .3721466 .44898988 .47216798 .44898988 .5860901 .35899354 .6660156 .23699951 .6660156 .12399292 .6660156 .049987794 .57411196 .049987794 .48516847 .049987794 .4291687 .099990848 .4291687 .102996829 .4291687 .11999512 .4291687 .15499878 .44117738 .15499878 .48217774 .15499878 .5081787 .13699341 .5341797 .101989749 .5341797 .09399414 .5341797 .09199524 .5341797 .08898926 .5331726 .11199951 .59806826 .1659851 .63500979 .22399903 .63500979 .31498719 .63500979 .35798646 .5541382 .35798646 .47216798 .35798646 .39215089 .30799867 .31311036 .25299073 .25108338L.06098938 .036987306C.049987794 .025985718 .049987794 .023986817 .049987794 0H.42099L.44898988 .17404175H.42399598C.4189911 .14402771 .4119873 .1000061 .4019928 .084991458 .394989 .07699585 .32899476 .07699585 .30699159 .07699585H.1269989Z"/>
<path id="font_4_1" d="M.6589966 .23046875C.6759949 .23046875 .69400027 .23046875 .69400027 .25045777 .69400027 .27046205 .6759949 .27046205 .6589966 .27046205H.117996219C.100997928 .27046205 .08299255 .27046205 .08299255 .25045777 .08299255 .23046875 .100997928 .23046875 .117996219 .23046875H.6589966Z"/>
<path id="font_3_4" d="M.68699648 .32714845C.70199587 .32714845 .72099307 .32714845 .72099307 .34713746 .72099307 .36714173 .70199587 .36714173 .6879883 .36714173H.08898926C.07499695 .36714173 .055999757 .36714173 .055999757 .34713746 .055999757 .32714845 .07499695 .32714845 .08999634 .32714845H.68699648M.6879883 .13284302C.70199587 .13284302 .72099307 .13284302 .72099307 .15284729 .72099307 .17285156 .70199587 .17285156 .68699648 .17285156H.08999634C.07499695 .17285156 .055999757 .17285156 .055999757 .15284729 .055999757 .13284302 .07499695 .13284302 .08898926 .13284302H.6879883Z"/>
<path id="font_3_7" d="M.20799256 .19424439C.22999573 .19024658 .31199647 .17424011 .31199647 .102249149 .31199647 .051254274 .2769928 .011245728 .19898987 .011245728 .114990238 .011245728 .07899475 .06825256 .05999756 .15324402 .056991579 .1662445 .055999757 .17024231 .04598999 .17024231 .032989503 .17024231 .032989503 .16323853 .032989503 .14524842V.013244629C.032989503-.003753662 .032989503-.0107421879 .04399109-.0107421879 .04899597-.0107421879 .049987794-.009750366 .068984989 .009246826 .070999149 .011245728 .070999149 .013244629 .08898926 .03224182 .1329956-.009750366 .17799378-.0107421879 .19898987-.0107421879 .31399537-.0107421879 .3600006 .056243898 .3600006 .12825012 .3600006 .1812439 .32998658 .21124268 .31799317 .22323609 .2849884 .25523377 .24598694 .26324464 .20399475 .27124024 .147995 .28224183 .08099365 .2952423 .08099365 .35324098 .08099365 .38822938 .10699463 .42922975 .19299317 .42922975 .30299378 .42922975 .30799867 .3392334 .30999757 .3082428 .31098939 .2992401 .31999208 .2992401 .32199098 .2992401 .33499146 .2992401 .33499146 .304245 .33499146 .3232422V.4242401C.33499146 .4412384 .33499146 .4482422 .32398988 .4482422 .31900025 .4482422 .31698609 .4482422 .3039856 .43623353 .30099488 .43223573 .29100038 .42323304 .2869873 .42022706 .24899292 .4482422 .20799256 .4482422 .19299317 .4482422 .070999149 .4482422 .032989503 .38124085 .032989503 .3252411 .032989503 .29023744 .04899597 .26223756 .07598877 .24023438 .10798645 .21424866 .13598633 .2082367 .20799256 .19424439Z"/>
<path id="font_3_5" d="M.1769867 .4423828 .036987306 .43138124V.40037538C.101989749 .40037538 .11099243 .3943634 .11099243 .34532167V.076034549C.11099243 .0309906 .099990848 .0309906 .032989503 .0309906V0C.06498718 .0009918213 .11898804 .0029907227 .14299011 .0029907227 .17799378 .0029907227 .21299744 .0009918213 .24699402 0V.0309906C.18099976 .0309906 .1769867 .035995485 .1769867 .075042728V.4423828M.18099976 .6159363C.18099976 .64793398 .1559906 .6689453 .12799073 .6689453 .09700012 .6689453 .07499695 .64193728 .07499695 .6159363 .07499695 .5889435 .09700012 .5629425 .12799073 .5629425 .1559906 .5629425 .18099976 .5839386 .18099976 .6159363Z"/>
<path id="font_3_6" d="M.10998535 .34429933V.076034549C.10998535 .0309906 .09899902 .0309906 .03199768 .0309906V0C.066986087 .0009918213 .117996219 .0029907227 .14498902 .0029907227 .17098999 .0029907227 .22299195 .0009918213 .25698854 0V.0309906C.18998719 .0309906 .1789856 .0309906 .1789856 .076034549V.2602234C.1789856 .36431886 .25 .42037965 .31399537 .42037965 .3769989 .42037965 .3880005 .36631776 .3880005 .30926515V.076034549C.3880005 .0309906 .3769989 .0309906 .30999757 .0309906V0C.34498597 .0009918213 .3959961 .0029907227 .4229889 .0029907227 .44898988 .0029907227 .5009918 .0009918213 .5349884 0V.0309906C.48298646 .0309906 .45799256 .0309906 .45700074 .061019899V.25221253C.45700074 .3383026 .45700074 .36932374 .42599488 .405365 .4119873 .42237855 .3789978 .4423828 .32099916 .4423828 .24798584 .4423828 .20098877 .39935304 .17298889 .33729554V.4423828L.03199768 .43138124V.40037538C.101989749 .4003601 .10998535 .39335633 .10998535 .34429933Z"/>
<path id="font_3_1" d="M.33099366-.2400055C.33099366-.23701477 .33099366-.23500061 .31399537-.21800232 .18899536-.0920105 .15699768 .09700012 .15699768 .25 .15699768 .42399598 .19499207 .59799197 .31799317 .72299197 .33099366 .73498538 .33099366 .7369995 .33099366 .73999026 .33099366 .746994 .32699586 .75 .32099916 .75 .31098939 .75 .22099304 .6819916 .1619873 .5549927 .11099243 .44499208 .09899902 .33399964 .09899902 .25 .09899902 .17199707 .10998535 .050994874 .16499329-.06201172 .22499085-.18501282 .31098939-.25 .32099916-.25 .32699586-.25 .33099366-.24700928 .33099366-.2400055Z"/>
<path id="font_3_2" d="M.2889862 .25C.2889862 .32798768 .27799989 .44898988 .22299195 .56199648 .16299439 .68499758 .07699585 .75 .066986087 .75 .06098938 .75 .056991579 .74598696 .056991579 .73999026 .056991579 .7369995 .056991579 .73498538 .07598877 .71699526 .17399597 .6179962 .23098755 .45899964 .23098755 .25 .23098755 .07899475 .19400025-.09700012 .069992069-.2230072 .056991579-.23500061 .056991579-.23701477 .056991579-.2400055 .056991579-.2460022 .06098938-.25 .066986087-.25 .07699585-.25 .16699219-.18200684 .22599793-.055007936 .2769928 .054992677 .2889862 .16600037 .2889862 .25Z"/>
<path id="font_5_1" d="M.31098939 .36265565H.42999269C.4149933 .30274964 .3929901 .2118988 .3929901 .13302613 .3929901 .09309387 .397995 .06613159 .4039917 .044174196 .41999818-.0057678224 .43299867-.009765625 .44898988-.009765625 .47200013-.009765625 .49598695 .011230469 .49598695 .035186769 .49598695 .043182374 .49398805 .047164918 .48799134 .057159425 .46899415 .09408569 .45098878 .15100098 .45098878 .23286438 .45098878 .25183106 .45098878 .29177857 .46499635 .36265565H.58999636C.60798647 .36265565 .6159973 .36265565 .6269989 .37065126 .6409912 .380661 .6439972 .39665223 .6439972 .4016571 .6439972 .43066407 .6179962 .43066407 .6009979 .43066407H.22399903C.18299866 .43066407 .15499878 .42166139 .10998535 .37965394 .083999637 .35665895 .04499817 .30274964 .04499817 .2937622 .04499817 .28178407 .057998659 .28178407 .06199646 .28178407 .07299805 .28178407 .07398987 .28378297 .07998657 .2927704 .1309967 .36265565 .19299317 .36265565 .21499634 .36265565H.27598573C.24499512 .25283814 .19099427 .13502503 .16099549 .07511902 .15499878 .062149049 .14498902 .04118347 .14199829 .03718567 .14099121 .033187868 .13899231 .029190064 .13899231 .022201539 .13899231 .006225586 .15098572-.009765625 .17399597-.009765625 .21398926-.009765625 .22499085 .035186769 .24899292 .12504578L.31098939 .36265565Z"/>
<path id="font_6_1" d="M.5289917 .1640625V.20005799H.41799928V.64582827C.41799928 .66682437 .41799928 .6738281 .3959961 .6738281 .38398744 .6738281 .37998963 .6738281 .36999513 .65982058L.038986207 .20005799V.1640625H.33299256V.08201599C.33299256 .04800415 .33299256 .035995485 .2519989 .035995485H.22499085V0C.2749939 .0019989014 .33898927 .0039978029 .375 .0039978029 .4119873 .0039978029 .47599793 .0019989014 .526001 0V.035995485H.49899293C.41799928 .035995485 .41799928 .04800415 .41799928 .08201599V.1640625H.5289917M.33999635 .5658722V.20005799H.07598877L.33999635 .5658722Z"/>
</defs>
<path transform="matrix(1.00005,0,0,-1.00006,99.33411,64.31108)" stroke-width=".3985" stroke-linecap="butt" stroke-miterlimit="10" stroke-linejoin="miter" fill="none" stroke="#00aeef" d="M-89.05394-42.5202H89.05394M-89.05394-28.3468H89.05394M-89.05394-14.17339H89.05394M-89.05394 0H89.05394M-89.05394 14.17339H89.05394M-89.05394 28.3468H89.05394M-89.05394 42.51523H89.05394M-89.05263-42.5202V42.5202M-77.92105-42.5202V42.5202M-66.78947-42.5202V42.5202M-55.65788-42.5202V42.5202M-44.5263-42.5202V42.5202M-33.39473-42.5202V42.5202M-22.26315-42.5202V42.5202M-11.13156-42.5202V42.5202M0-42.5202V42.5202M11.13156-42.5202V42.5202M22.26315-42.5202V42.5202M33.39473-42.5202V42.5202M44.5263-42.5202V42.5202M55.65788-42.5202V42.5202M66.78947-42.5202V42.5202M77.92105-42.5202V42.5202M89.05263-42.5202V42.5202M89.05394 42.5202"/>
<path transform="matrix(1.00005,0,0,-1.00006,99.33411,64.31108)" stroke-width=".79701" stroke-linecap="butt" stroke-miterlimit="10" stroke-linejoin="miter" fill="none" stroke="#000000" d="M-89.05394 0H92.10994"/>
<path transform="matrix(1.00005,0,0,-1.00006,191.44864,64.31108)" d="M1.0361 0C-.25902 .25902-1.55415 .77707-3.1083 1.68365-1.55415 .51805-1.55415-.51805-3.1083-1.68365-1.55415-.77707-.25902-.25902 1.0361 0Z"/>
<path transform="matrix(1.00005,0,0,-1.00006,191.44864,64.31108)" stroke-width=".79701" stroke-linecap="butt" stroke-linejoin="round" fill="none" stroke="#000000" d="M1.0361 0C-.25902 .25902-1.55415 .77707-3.1083 1.68365-1.55415 .51805-1.55415-.51805-3.1083-1.68365-1.55415-.77707-.25902-.25902 1.0361 0Z"/>
<use data-text="x" xlink:href="#font_1_2" transform="matrix(9.963098,0,0,-9.963197,196.60297,66.45621)"/>
<path transform="matrix(1.00005,0,0,-1.00006,99.33411,64.31108)" stroke-width=".79701" stroke-linecap="butt" stroke-miterlimit="10" stroke-linejoin="miter" fill="none" stroke="#000000" d="M0-42.5202V51.00693"/>
<path transform="matrix(0,-1.00006,-1.00005,-0,99.33411,13.30109)" d="M1.0361 0C-.25902 .25902-1.55415 .77707-3.1083 1.68365-1.55415 .51805-1.55415-.51805-3.1083-1.68365-1.55415-.77707-.25902-.25902 1.0361 0Z"/>
<path transform="matrix(0,-1.00006,-1.00005,-0,99.33411,13.30109)" stroke-width=".79701" stroke-linecap="butt" stroke-linejoin="round" fill="none" stroke="#000000" d="M1.0361 0C-.25902 .25902-1.55415 .77707-3.1083 1.68365-1.55415 .51805-1.55415-.51805-3.1083-1.68365-1.55415-.77707-.25902-.25902 1.0361 0Z"/>
<use data-text="y" xlink:href="#font_1_3" transform="matrix(9.963098,0,0,-9.963197,96.712978,6.2095987)"/>
<path transform="matrix(1.00005,0,0,-1.00006,99.33411,64.31108)" stroke-width=".79701" stroke-linecap="butt" stroke-miterlimit="10" stroke-linejoin="miter" fill="none" stroke="#000000" d="M1.13388-42.5202H-1.1339"/>
<use data-text="-" xlink:href="#font_2_64" transform="matrix(9.963098,0,0,-9.963197,86.18145,110.041828)"/>
<use data-text="3" xlink:href="#font_2_106" transform="matrix(9.963098,0,0,-9.963197,89.49917,110.041828)"/>
<path transform="matrix(1.00005,0,0,-1.00006,99.33411,64.31108)" stroke-width=".79701" stroke-linecap="butt" stroke-miterlimit="10" stroke-linejoin="miter" fill="none" stroke="#000000" d="M1.13388-28.3468H-1.1339"/>
<use data-text="-" xlink:href="#font_2_64" transform="matrix(9.963098,0,0,-9.963197,86.18145,95.976978)"/>
<use data-text="2" xlink:href="#font_2_107" transform="matrix(9.963098,0,0,-9.963197,89.49917,95.976978)"/>
<path transform="matrix(1.00005,0,0,-1.00006,99.33411,64.31108)" stroke-width=".79701" stroke-linecap="butt" stroke-miterlimit="10" stroke-linejoin="miter" fill="none" stroke="#000000" d="M1.13388-14.17339H-1.1339"/>
<use data-text="-" xlink:href="#font_2_64" transform="matrix(9.963098,0,0,-9.963197,86.18145,81.80313)"/>
<use data-text="1" xlink:href="#font_2_82" transform="matrix(9.963098,0,0,-9.963197,89.49917,81.80313)"/>
<path transform="matrix(1.00005,0,0,-1.00006,99.33411,64.31108)" stroke-width=".79701" stroke-linecap="butt" stroke-miterlimit="10" stroke-linejoin="miter" fill="none" stroke="#000000" d="M1.13388 14.17339H-1.1339"/>
<use data-text="1" xlink:href="#font_2_82" transform="matrix(9.963098,0,0,-9.963197,89.49962,53.45443)"/>
<path transform="matrix(1.00005,0,0,-1.00006,99.33411,64.31108)" stroke-width=".79701" stroke-linecap="butt" stroke-miterlimit="10" stroke-linejoin="miter" fill="none" stroke="#000000" d="M1.13388 28.3468H-1.1339"/>
<use data-text="2" xlink:href="#font_2_107" transform="matrix(9.963098,0,0,-9.963197,89.49962,39.28058)"/>
<path transform="matrix(1.00005,0,0,-1.00006,99.33411,64.31108)" stroke-width=".79701" stroke-linecap="butt" stroke-miterlimit="10" stroke-linejoin="miter" fill="none" stroke="#000000" d="M1.13388 42.5202H-1.1339"/>
<use data-text="3" xlink:href="#font_2_106" transform="matrix(9.963098,0,0,-9.963197,89.49962,24.996724)"/>
<path transform="matrix(1.00005,0,0,-1.00006,99.33411,64.31108)" stroke-width=".79701" stroke-linecap="butt" stroke-miterlimit="10" stroke-linejoin="miter" fill="none" stroke="#000000" d="M44.52696 1.13388V-1.1339"/>
<path transform="matrix(1.00005,0,0,-1.00006,99.33411,64.31108)" d="M40.51245-11.79958H48.541494V-5.5175197H40.51245Z" fill="#ffffff"/>
<use data-text="&#x03c0;" xlink:href="#font_1_1" transform="matrix(9.963098,0,0,-9.963197,140.84519,75.11473)"/>
<path transform="matrix(1.00005,0,0,-1.00006,99.33411,64.31108)" stroke-width=".79701" stroke-linecap="butt" stroke-miterlimit="10" stroke-linejoin="miter" fill="none" stroke="#000000" d="M89.05394 1.13388V-1.1339"/>
<path transform="matrix(1.00005,0,0,-1.00006,99.33411,64.31108)" d="M82.54872-13.9305H95.55914V-5.51752H82.54872Z" fill="#ffffff"/>
<use data-text="2" xlink:href="#font_3_3" transform="matrix(9.963098,0,0,-9.963197,182.88327,77.24586)"/>
<use data-text="&#x03c0;" xlink:href="#font_1_1" transform="matrix(9.963098,0,0,-9.963197,187.86454,77.24586)"/>
<path transform="matrix(1.00005,0,0,-1.00006,99.33411,64.31108)" stroke-width=".79701" stroke-linecap="butt" stroke-miterlimit="10" stroke-linejoin="miter" fill="none" stroke="#000000" d="M-44.52696 1.13388V-1.1339"/>
<path transform="matrix(1.00005,0,0,-1.00006,99.33411,64.31108)" d="M-52.41591-12.15935H-36.63803V-3.52497H-52.41591Z" fill="#ffffff"/>
<use data-text="&#x2212;" xlink:href="#font_4_1" transform="matrix(9.963098,0,0,-9.963197,47.911546,74.6447)"/>
<use data-text="&#x03c0;" xlink:href="#font_1_1" transform="matrix(9.963098,0,0,-9.963197,55.66092,74.6447)"/>
<path transform="matrix(1.00005,0,0,-1.00006,99.33411,64.31108)" stroke-width=".79701" stroke-linecap="butt" stroke-miterlimit="10" stroke-linejoin="miter" fill="none" stroke="#000000" d="M-89.05394 1.13388V-1.1339"/>
<path transform="matrix(1.00005,0,0,-1.00006,99.33411,64.31108)" d="M-99.43358-14.76073H-78.67432V-5.5175H-99.43358Z" fill="#ffffff"/>
<use data-text="&#x2212;" xlink:href="#font_4_1" transform="matrix(9.963098,0,0,-9.963197,.89219668,77.24586)"/>
<use data-text="2" xlink:href="#font_3_3" transform="matrix(9.963098,0,0,-9.963197,8.641571,77.24586)"/>
<use data-text="&#x03c0;" xlink:href="#font_1_1" transform="matrix(9.963098,0,0,-9.963197,13.622833,77.24586)"/>
<path transform="matrix(1.00005,0,0,-1.00006,99.33411,64.31108)" stroke-width="1.19553" stroke-linecap="butt" stroke-miterlimit="10" stroke-linejoin="miter" fill="none" stroke="#ff0000" d="M-89.05394 0C-89.05394 0-87.0434 2.01231-86.27121 2.76476-85.49901 3.51721-84.26067 4.71432-83.48846 5.42314-82.71628 6.13197-81.47794 7.23546-80.70573 7.87347-79.93355 8.51147-78.69519 9.47891-77.923 10.02145-77.1508 10.56401-75.91246 11.35762-75.14027 11.78383-74.36807 12.21004-73.12973 12.7997-72.35753 13.09334-71.58534 13.38698-70.347 13.75043-69.5748 13.90024-68.80261 14.05006-67.56425 14.17311-66.79207 14.17317-66.01987 14.17322-64.78152 14.05034-64.00934 13.90068-63.23714 13.751-61.9988 13.38792-61.2266 13.09444-60.4544 12.80092-59.21606 12.21144-58.44388 11.78534-57.67168 11.35924-56.43332 10.56581-55.66113 10.0234-54.88895 9.481-53.6506 8.51395-52.8784 7.87608-52.10622 7.23819-50.86786 6.13472-50.09566 5.42596-49.32349 4.7172-48.08513 3.52022-47.31294 2.7678-46.54074 2.01538-45.30238 .7702-44.53021 .00302-43.75801-.76414-42.51967-2.00903-41.74747-2.76152-40.97528-3.514-39.73692-4.71144-38.96474-5.42033-38.19255-6.12924-36.9542-7.23282-36.182-7.87088-35.4098-8.50896-34.17146-9.47644-33.39928-10.01909-32.62708-10.56172-31.38873-11.35551-30.61653-11.78189-29.84435-12.20825-28.606-12.79822-27.83382-13.09204-27.06161-13.38586-25.82326-13.74959-25.05107-13.89958-24.27887-14.04959-23.04054-14.1729-22.26834-14.17317-21.49615-14.17343-20.2578-14.051-19.4856-13.90154-18.71341-13.75208-17.47507-13.38928-16.70288-13.09593-15.93068-12.8026-14.69232-12.21326-13.92014-11.7873-13.14793-11.36131-11.9096-10.56808-11.1374-10.02579-10.36522-9.48347-9.12686-8.51646-8.35466-7.87866-7.58247-7.24088-6.34413-6.13765-5.57195-5.42899-4.79974-4.7203-3.5614-3.52344-2.7892-2.77104-2.01703-2.01865-.77867-.77344-.00647-.00626 .7657 .7609 2.00404 2.0058 2.77623 2.75829 3.54842 3.51077 4.78677 4.70811 5.55896 5.4171 6.33116 6.12605 7.5695 7.22989 8.3417 7.86807 9.11388 8.50626 10.35223 9.47394 11.12444 10.0167 11.89662 10.55946 13.13498 11.35342 13.90715 11.77994 14.67935 12.20645 15.91771 12.79677 16.6899 13.09074 17.4621 13.38472 18.70044 13.74855 19.47263 13.89874 20.24481 14.04892 21.48317 14.17268 22.25537 14.17317 23.02756 14.17365 24.2659 14.0515 25.03809 13.90219 25.81029 13.75287 27.04863 13.39021 27.82083 13.09702 28.59302 12.80383 29.83136 12.21481 30.60356 11.78902 31.37575 11.36324 32.6141 10.57033 33.38629 10.02815 34.1585 9.486 35.39684 8.51915 36.16902 7.88147 36.94122 7.2438 38.17957 6.14085 38.95177 5.43224 39.72395 4.72363 40.9623 3.52664 41.7345 2.77428 42.50668 2.02191 43.74504 .7769 44.51723 .00972 45.28943-.75745 46.52777-2.0025 47.29996-2.75504 48.07216-3.50757 49.3105-4.70506 50.0827-5.41406 50.85489-6.12306 52.09323-7.22676 52.86542-7.86504 53.63762-8.50331 54.87598-9.47139 55.64816-10.01433 56.42035-10.55727 57.65869-11.35153 58.4309-11.77821 59.20308-12.20486 60.44144-12.79532 61.21364-13.08945 61.98581-13.38358 63.22417-13.74773 63.99635-13.89809 64.76855-14.04845 66.00691-14.17252 66.7791-14.17317 67.55128-14.17383 68.78963-14.05197 69.56183-13.90285 70.33401-13.75371 71.57237-13.39136 72.34456-13.09833 73.11674-12.80527 74.3551-12.21642 75.12729-11.79076 75.89949-11.36511 77.13785-10.57256 77.91002-10.03055 78.68222-9.48854 79.92056-8.52187 80.69276-7.8843 81.46495-7.2467 82.7033-6.14381 83.47548-5.43526 84.24768-4.72672 85.48604-3.52986 86.25822-2.77753 87.03043-2.0252 89.04095-.01295 89.04095-.01295"/>
<path transform="matrix(1.00005,0,0,-1.00006,99.33411,64.31108)" stroke-width="1.19553" stroke-linecap="butt" stroke-miterlimit="10" stroke-linejoin="miter" fill="none" stroke="#0000ff" d="M-89.05394-10.02145C-89.05394-10.02145-87.0434-8.51164-86.27121-7.87369-85.49901-7.23575-84.26067-6.1324-83.48846-5.42357-82.71628-4.71475-81.47794-3.51744-80.70573-2.76498-79.93355-2.01254-78.69519-.76758-77.923-.00041-77.1508 .76672-75.91246 2.01167-75.14027 2.76413-74.36807 3.51657-73.12973 4.71387-72.35753 5.42271-71.58534 6.13158-70.347 7.23505-69.5748 7.87303-68.80261 8.51105-67.56425 9.47847-66.79207 10.02103-66.01987 10.56357-64.78152 11.35716-64.00934 11.7834-63.23714 12.20964-61.9988 12.79945-61.2266 13.09312-60.4544 13.3868-59.21606 13.75017-58.44388 13.90002-57.67168 14.04988-56.43332 14.17305-55.66113 14.17317-54.88895 14.17328-53.6506 14.05052-52.8784 13.9009-52.10622 13.75125-50.86786 13.38814-50.09566 13.09464-49.32349 12.80113-48.08513 12.21164-47.31294 11.78557-46.54074 11.3595-45.30238 10.56621-44.53021 10.02385-43.75801 9.48146-42.51967 8.51434-41.74747 7.8765-40.97528 7.23865-39.73692 6.13535-38.96474 5.4266-38.19255 4.71788-36.9542 3.52086-36.182 2.76843-35.4098 2.01602-34.17146 .77084-33.39928 .00366-32.62708-.7635-31.38873-2.0084-30.61653-2.76086-29.84435-3.51335-28.606-4.7108-27.83382-5.41968-27.06161-6.12857-25.82326-7.23192-25.05107-7.87001-24.27887-8.50812-23.04054-9.47595-22.26834-10.01865-21.49615-10.56136-20.2578-11.35507-19.4856-11.78145-18.71341-12.20786-17.47507-12.79797-16.70288-13.09183-15.93068-13.38568-14.69232-13.74934-13.92014-13.89937-13.14793-14.04941-11.9096-14.17287-11.1374-14.17317-10.36522-14.17346-9.12686-14.051-8.35466-13.90154-7.58247-13.75208-6.34413-13.38925-5.57195-13.09593-4.79974-12.80263-3.5614-12.21342-2.7892-11.78752-2.01703-11.3616-.77867-10.5685-.00647-10.02621 .7657-9.48393 2.00404-8.51683 2.77623-7.8791 3.54842-7.24136 4.78677-6.13849 5.55896-5.42986 6.33116-4.7212 7.5695-3.52411 8.3417-2.7717 9.11388-2.01927 10.35223-.7741 11.12444-.00691 11.89662 .76025 13.13498 2.00514 13.90715 2.75763 14.67935 3.5101 15.91771 4.7075 16.6899 5.41644 17.4621 6.12537 18.70044 7.22899 19.47263 7.8672 20.24481 8.50542 21.48317 9.4734 22.25537 10.01627 23.02756 10.55911 24.2659 11.35318 25.03809 11.77974 25.81029 12.20627 27.04863 12.79652 27.82083 13.09053 28.59302 13.38454 29.83136 13.74852 30.60356 13.89874 31.37575 14.04895 32.6141 14.17265 33.38629 14.17317 34.1585 14.17368 35.39684 14.05165 36.16902 13.9024 36.94122 13.75314 38.17957 13.39061 38.95177 13.09746 39.72395 12.80429 40.9623 12.21523 41.7345 11.78946 42.50668 11.3637 43.74504 10.57095 44.51723 10.02881 45.28943 9.48668 46.52777 8.51982 47.29996 7.88213 48.07216 7.24442 49.3105 6.14127 50.0827 5.43266 50.85489 4.72406 52.09323 3.52727 52.86542 2.77493 53.63762 2.0226 54.87598 .77754 55.64816 .01036 56.42035-.75679 57.65869-2.00185 58.4309-2.7544 59.20308-3.50693 60.44144-4.70438 61.21364-5.41342 61.98581-6.12244 63.22417-7.22632 63.99635-7.86461 64.76855-8.50291 66.00691-9.47095 66.7791-10.01389 67.55128-10.55682 68.78963-11.35107 69.56183-11.77777 70.33401-12.20447 71.57237-12.79506 72.34456-13.08923 73.11674-13.38342 74.3551-13.7477 75.12729-13.89809 75.89949-14.04848 77.13785-14.17252 77.91002-14.17317 78.68222-14.17383 79.92056-14.05194 80.69276-13.90285 81.46495-13.75374 82.7033-13.39151 83.47548-13.09854 84.24768-12.80554 85.48604-12.2168 86.25822-11.7912 87.03043-11.36557 89.04095-10.03098 89.04095-10.03098"/>
<path transform="matrix(1.00005,0,0,-1.00006,99.33411,64.31108)" stroke-width=".3985" stroke-linecap="butt" stroke-miterlimit="10" stroke-linejoin="miter" fill="none" stroke="#ff0000" d="M22.89359 16.56331 25.51215 28.34679"/>
<path transform="matrix(-.21690084,.97619858,.9761888,.21690302,122.22885,47.746778)" d="M.797 0C-.19925 .19925-1.19551 .59775-2.39102 1.29512-1.19551 .3985-1.19551-.3985-2.39102-1.29512-1.19551-.59775-.19925-.19925 .797 0Z" fill="#ff0000"/>
<path transform="matrix(-.21690084,.97619858,.9761888,.21690302,122.22885,47.746778)" stroke-width=".3985" stroke-linecap="butt" stroke-linejoin="round" fill="none" stroke="#ff0000" d="M.797 0C-.19925 .19925-1.19551 .59775-2.39102 1.29512-1.19551 .3985-1.19551-.3985-2.39102-1.29512-1.19551-.59775-.19925-.19925 .797 0Z"/>
<path transform="matrix(1.00005,0,0,-1.00006,99.33411,64.31108)" d="M2.41562 30.53859H48.60867V42.49391H2.41562Z" fill="#ffffff"/>
<use data-text="y" xlink:href="#font_1_3" transform="matrix(9.963098,0,0,-9.963197,102.74628,30.28304)" fill="#ff0000"/>
<use data-text="=" xlink:href="#font_3_4" transform="matrix(9.963098,0,0,-9.963197,110.75568,30.28304)" fill="#ff0000"/>
<use data-text="s" xlink:href="#font_3_7" transform="matrix(9.963098,0,0,-9.963197,121.256778,30.28304)" fill="#ff0000"/>
<use data-text="i" xlink:href="#font_3_5" transform="matrix(9.963098,0,0,-9.963197,125.182239,30.28304)" fill="#ff0000"/>
<use data-text="n" xlink:href="#font_3_6" transform="matrix(9.963098,0,0,-9.963197,127.94202,30.28304)" fill="#ff0000"/>
<use data-text="(" xlink:href="#font_3_1" transform="matrix(9.963098,0,0,-9.963197,133.47153,30.28304)" fill="#ff0000"/>
<use data-text="x" xlink:href="#font_1_2" transform="matrix(9.963098,0,0,-9.963197,137.38,30.28304)" fill="#ff0000"/>
<use data-text=")" xlink:href="#font_3_2" transform="matrix(9.963098,0,0,-9.963197,143.0743,30.28304)" fill="#ff0000"/>
<path transform="matrix(1.00005,0,0,-1.00006,99.33411,64.31108)" stroke-width=".3985" stroke-linecap="butt" stroke-miterlimit="10" stroke-linejoin="miter" fill="none" stroke="#0000ff" d="M41.65535 16.41972 43.93741 19.84288"/>
<path transform="matrix(-.55468776,.8320699,.8320615,.5546933,140.99155,47.890378)" d="M.797 0C-.19925 .19925-1.19551 .59775-2.39102 1.29512-1.19551 .3985-1.19551-.3985-2.39102-1.29512-1.19551-.59775-.19925-.19925 .797 0Z" fill="#0000ff"/>
<path transform="matrix(-.55468776,.8320699,.8320615,.5546933,140.99155,47.890378)" stroke-width=".3985" stroke-linecap="butt" stroke-linejoin="round" fill="none" stroke="#0000ff" d="M.797 0C-.19925 .19925-1.19551 .59775-2.39102 1.29512-1.19551 .3985-1.19551-.3985-2.39102-1.29512-1.19551-.59775-.19925-.19925 .797 0Z"/>
<path transform="matrix(1.00005,0,0,-1.00006,99.33411,64.31108)" d="M44.13666 18.04958H109.80652V30.94976H44.13666Z" fill="#ffffff"/>
<use data-text="y" xlink:href="#font_1_3" transform="matrix(9.963098,0,0,-9.963197,144.46936,41.82873)" fill="#0000ff"/>
<use data-text="=" xlink:href="#font_3_4" transform="matrix(9.963098,0,0,-9.963197,152.47876,41.82873)" fill="#0000ff"/>
<use data-text="s" xlink:href="#font_3_7" transform="matrix(9.963098,0,0,-9.963197,162.97986,41.82873)" fill="#0000ff"/>
<use data-text="i" xlink:href="#font_3_5" transform="matrix(9.963098,0,0,-9.963197,166.90532,41.82873)" fill="#0000ff"/>
<use data-text="n" xlink:href="#font_3_6" transform="matrix(9.963098,0,0,-9.963197,169.6651,41.82873)" fill="#0000ff"/>
<use data-text="(" xlink:href="#font_3_1" transform="matrix(9.963098,0,0,-9.963197,175.19461,41.82873)" fill="#0000ff"/>
<use data-text="x" xlink:href="#font_1_2" transform="matrix(9.963098,0,0,-9.963197,179.10309,41.82873)" fill="#0000ff"/>
<use data-text="&#x2212;" xlink:href="#font_4_1" transform="matrix(9.963098,0,0,-9.963197,187.01049,41.82873)" fill="#0000ff"/>
<use data-text="&#x03c0;" xlink:href="#font_5_1" transform="matrix(6.9741489,0,0,-6.9742186,198.17005,37.905496)" fill="#0000ff"/>
<path transform="matrix(1.00005,0,0,-1.00006,-37.868745,-9.488346)" stroke-width=".3985" stroke-linecap="butt" stroke-miterlimit="10" stroke-linejoin="miter" fill="none" stroke="#0000ff" d="M236.027-48.823H240.936"/>
<use data-text="4" xlink:href="#font_6_1" transform="matrix(6.9741489,0,0,-6.9742186,198.63806,45.26494)" fill="#0000ff"/>
<use data-text=")" xlink:href="#font_3_2" transform="matrix(9.963098,0,0,-9.963197,204.27436,41.82873)" fill="#0000ff"/>
</svg>
