<svg xmlns="http://www.w3.org/2000/svg" xmlns:xlink="http://www.w3.org/1999/xlink" version="1.1" width="177" height="142" viewBox="0 0 177 142">
<defs>
<path id="font_1_4" d="M.33399964 .30233766C.33999635 .32835389 .36299134 .42037965 .43299867 .42037965 .43798829 .42037965 .46199037 .42037965 .48298646 .40734864 .45498658 .402359 .43499757 .37734986 .43499757 .35334779 .43499757 .33735658 .44599916 .31835938 .47299195 .31835938 .49499513 .31835938 .5269928 .3363495 .5269928 .37635804 .5269928 .42837525 .46798707 .4423828 .43399049 .4423828 .37599183 .4423828 .34098817 .38935853 .32899476 .36634828 .3039856 .43237306 .25 .4423828 .22099304 .4423828 .116989139 .4423828 .05999756 .3133545 .05999756 .28834535 .05999756 .27833558 .069992069 .27833558 .07199097 .27833558 .07998657 .27833558 .08299255 .28033448 .084991458 .28933717 .11898804 .39535523 .18499756 .42037965 .21899414 .42037965 .23799134 .42037965 .272995 .4113617 .272995 .35334779 .272995 .32235719 .2559967 .25532533 .21899414 .11528015 .20298767 .053268434 .16799927 .011245728 .12399292 .011245728 .117996219 .011245728 .09498596 .011245728 .07398987 .024276734 .09899902 .029266358 .12098694 .05027771 .12098694 .07827759 .12098694 .105270389 .09899902 .11328125 .083999637 .11328125 .053985597 .11328125 .0289917 .08728027 .0289917 .055267335 .0289917 .009246826 .07899475-.0107421879 .12298584-.0107421879 .18899536-.0107421879 .22499085 .059280397 .22799683 .0652771 .23999024 .028274537 .27598573-.0107421879 .33599855-.0107421879 .43899537-.0107421879 .49598695 .118270877 .49598695 .14328003 .49598695 .1532898 .4869995 .1532898 .48399354 .1532898 .47499085 .1532898 .47299195 .14929199 .47099305 .14228821 .43798829 .03527832 .36999513 .011245728 .33799745 .011245728 .29899598 .011245728 .2829895 .043273927 .2829895 .07727051 .2829895 .09927368 .2889862 .121276859 .2999878 .16529846L.33399964 .30233766Z"/>
<path id="font_1_5" d="M.48599244 .38136292C.48999024 .39537049 .48999024 .39736939 .48999024 .40437318 .48999024 .42237855 .47599793 .43138124 .46099855 .43138124 .45098878 .43138124 .43499757 .42536927 .42599488 .41036988 .42399598 .405365 .41600038 .37435914 .4119873 .35635377 .40499879 .33035279 .397995 .30334474 .3919983 .27633668L.34700013 .09628296C.34298707 .08126831 .2999878 .011245728 .23399353 .011245728 .18299866 .011245728 .17199707 .055267335 .17199707 .0922699 .17199707 .1382904 .18899536 .20030213 .22299195 .28833009 .23899842 .3293457 .24299622 .3403473 .24299622 .36035157 .24299622 .405365 .21099854 .4423828 .16099549 .4423828 .06599426 .4423828 .0289917 .29733277 .0289917 .28833009 .0289917 .27833558 .038986207 .27833558 .040985109 .27833558 .050994874 .27833558 .051986696 .28033448 .056991579 .29634095 .083999637 .3903656 .12399292 .42037965 .1579895 .42037965 .1659851 .42037965 .18299866 .42037965 .18299866 .3883667 .18299866 .36335755 .17298889 .3373413 .1659851 .31834413 .12599182 .21231079 .10798645 .1552887 .10798645 .10827637 .10798645 .019256592 .17098999-.0107421879 .22999573-.0107421879 .2689972-.0107421879 .30299378 .0062561037 .33099366 .03425598 .31799317-.017745972 .30599977-.06674194 .2659912-.11973572 .23999024-.15385437 .20199585-.18309021 .1559906-.18309021 .14199829-.18309021 .09700012-.18005371 .07998657-.14074707 .09599304-.14074707 .10899353-.14074707 .12298584-.1287384 .1329956-.11973572 .14299011-.10673523 .14299011-.08773804 .14299011-.056747438 .115997318-.052734376 .10598755-.052734376 .08299255-.052734376 .049987794-.068740848 .049987794-.11773682 .049987794-.16796875 .09399414-.20507813 .1559906-.20507813 .25898744-.20507813 .3619995-.11373901 .3899994-.00074768069L.48599244 .38136292Z"/>
<path id="font_1_1" d="M.2649994 .37265016H.37799073C.34498597 .22489929 .33599855 .18196106 .33599855 .11508179 .33599855 .100097659 .33599855 .073150638 .34399415 .03919983 .35398866-.0047454836 .36499024-.0107421879 .37998963-.0107421879 .3999939-.0107421879 .42099 .007247925 .42099 .02722168 .42099 .033218385 .42099 .035202028 .4149933 .049179079 .38598634 .12106323 .38598634 .18595886 .38598634 .21391297 .38598634 .26683045 .3929901 .32073976 .4039917 .37265016H.5179901C.5309906 .37265016 .5669861 .37265016 .5669861 .406662 .5669861 .43066407 .54599 .43066407 .5269928 .43066407H.19198609C.16999817 .43066407 .13198853 .43066407 .08799744 .38365174 .052993776 .34469605 .026992798 .29878236 .026992798 .29379273 .026992798 .29278565 .026992798 .28379823 .038986207 .28379823 .04699707 .28379823 .04899597 .28779603 .054992677 .29577638 .10398865 .37265016 .1619873 .37265016 .18199158 .37265016H.23899842C.20698548 .25186158 .15299988 .13105774 .11099243 .04020691 .102996829 .025222779 .102996829 .023223877 .102996829 .016235352 .102996829-.002746582 .11898804-.0107421879 .13198853-.0107421879 .1619873-.0107421879 .16999817 .017242432 .18199158 .05418396 .19599915 .100097659 .19599915 .10209656 .20899964 .15202332L.2649994 .37265016Z"/>
<path id="font_2_6" d="M.1269989 .07699585 .23298645 .18003845C.3889923 .31811524 .44898988 .3721466 .44898988 .47216798 .44898988 .5860901 .35899354 .6660156 .23699951 .6660156 .12399292 .6660156 .049987794 .57411196 .049987794 .48516847 .049987794 .4291687 .099990848 .4291687 .102996829 .4291687 .11999512 .4291687 .15499878 .44117738 .15499878 .48217774 .15499878 .5081787 .13699341 .5341797 .101989749 .5341797 .09399414 .5341797 .09199524 .5341797 .08898926 .5331726 .11199951 .59806826 .1659851 .63500979 .22399903 .63500979 .31498719 .63500979 .35798646 .5541382 .35798646 .47216798 .35798646 .39215089 .30799867 .31311036 .25299073 .25108338L.06098938 .036987306C.049987794 .025985718 .049987794 .023986817 .049987794 0H.42099L.44898988 .17404175H.42399598C.4189911 .14402771 .4119873 .1000061 .4019928 .084991458 .394989 .07699585 .32899476 .07699585 .30699159 .07699585H.1269989Z"/>
<path id="font_3_1" d="M.6589966 .23046875C.6759949 .23046875 .69400027 .23046875 .69400027 .25045777 .69400027 .27046205 .6759949 .27046205 .6589966 .27046205H.117996219C.100997928 .27046205 .08299255 .27046205 .08299255 .25045777 .08299255 .23046875 .100997928 .23046875 .117996219 .23046875H.6589966Z"/>
<path id="font_2_5" d="M.2939911 .64004519C.2939911 .66400149 .2939911 .6660156 .2709961 .6660156 .20899964 .60227969 .12098694 .60227969 .08898926 .60227969V.57128909C.10899353 .57128909 .16799927 .57128909 .21998596 .5972748V.07902527C.21998596 .042999269 .21699524 .0309906 .1269989 .0309906H.09498596V0C.12998963 .0029907227 .21699524 .0029907227 .25698854 .0029907227 .29699708 .0029907227 .38398744 .0029907227 .4189911 0V.0309906H.3869934C.29699708 .0309906 .2939911 .041992189 .2939911 .07902527V.64004519Z"/>
<path id="font_2_8" d="M.2939911 .16503906V.07800293C.2939911 .041992189 .2919922 .0309906 .21798706 .0309906H.19699097V0C.23799134 .0029907227 .2899933 .0029907227 .33198548 .0029907227 .37399293 .0029907227 .4269867 .0029907227 .46798707 0V.0309906H.44699098C.37298585 .0309906 .37098695 .041992189 .37098695 .07800293V.16503906H.47099305V.19602967H.37098695V.65075686C.37098695 .67074587 .37098695 .6767578 .35499574 .6767578 .34599305 .6767578 .34298707 .6767578 .33499146 .66474917L.027999878 .19602967V.16503906H.2939911M.2999878 .19602967H.055999757L.2999878 .5688019V.19602967Z"/>
<path id="font_2_10" d="M.13198853 .327713V.35173036C.13198853 .6047821 .2559967 .64100649 .30699159 .64100649 .33099366 .64100649 .37298585 .634964 .394989 .6007538 .37998963 .6007538 .33999635 .6007538 .33999635 .5557556 .33999635 .524765 .3639984 .5097656 .38598634 .5097656 .4019928 .5097656 .43199159 .51875308 .43199159 .5577545 .43199159 .6178589 .3880005 .6660156 .30499269 .6660156 .1769867 .6660156 .041992189 .5367584 .041992189 .31570436 .041992189 .048553468 .1579895-.022460938 .25099183-.022460938 .3619995-.022460938 .45700074 .07156372 .45700074 .2036438 .45700074 .33070375 .36799623 .4267578 .25698854 .4267578 .18899536 .4267578 .1519928 .37573243 .13198853 .327713M.25099183 .0055389406C.18798828 .0055389406 .1579895 .06556702 .1519928 .080566409 .13398743 .127594 .13398743 .2076416 .13398743 .22564698 .13398743 .30369569 .1659851 .40374757 .2559967 .40374757 .27198792 .40374757 .31799317 .40374757 .34899903 .34172059 .36698915 .30470277 .36698915 .2536621 .36698915 .20463562 .36698915 .15661621 .36698915 .10658264 .34999085 .0705719 .31999208 .010528564 .27398683 .0055389406 .25099183 .0055389406Z"/>
<path id="font_1_3" d="M.36698915 .3996582H.45298768C.47299195 .3996582 .48298646 .3996582 .48298646 .41966249 .48298646 .43066407 .47299195 .43066407 .45599366 .43066407H.37298585L.3939972 .5449524C.397995 .5660095 .4119873 .6370239 .41799928 .6490326 .4269867 .66804507 .44400025 .68307498 .46499635 .68307498 .46899415 .68307498 .49499513 .68307498 .5139923 .66503909 .46998597 .661026 .45999146 .6260376 .45999146 .6110382 .45999146 .58802798 .47799684 .57603457 .49699403 .57603457 .522995 .57603457 .5519867 .5980377 .5519867 .6360321 .5519867 .6820679 .5059967 .7050781 .46499635 .7050781 .43099977 .7050781 .36799623 .68707278 .33799745 .58802798 .33198548 .56700137 .32899476 .5569763 .30499269 .43066407H.23599243C.21699524 .43066407 .20599365 .43066407 .20599365 .4116516 .20599365 .3996582 .21499634 .3996582 .23399353 .3996582H.2999878L.22499085 .0048828127C.20698548-.09207153 .18998719-.18309021 .13798523-.18309021 .13398743-.18309021 .10899353-.18309021 .08999634-.16506958 .13598633-.1620636 .14498902-.12606812 .14498902-.111068729 .14498902-.08807373 .1269989-.07606506 .10798645-.07606506 .08198547-.07606506 .052993776-.09806824 .052993776-.13606262 .052993776-.18109131 .09700012-.20507813 .13798523-.20507813 .19299317-.20507813 .23298645-.14607239 .25099183-.108062747 .2829895-.04508972 .30599977 .07583618 .30699159 .082839969L.36698915 .3996582Z"/>
<path id="font_2_1" d="M.33099366-.2400055C.33099366-.23701477 .33099366-.23500061 .31399537-.21800232 .18899536-.0920105 .15699768 .09700012 .15699768 .25 .15699768 .42399598 .19499207 .59799197 .31799317 .72299197 .33099366 .73498538 .33099366 .7369995 .33099366 .73999026 .33099366 .746994 .32699586 .75 .32099916 .75 .31098939 .75 .22099304 .6819916 .1619873 .5549927 .11099243 .44499208 .09899902 .33399964 .09899902 .25 .09899902 .17199707 .10998535 .050994874 .16499329-.06201172 .22499085-.18501282 .31098939-.25 .32099916-.25 .32699586-.25 .33099366-.24700928 .33099366-.2400055Z"/>
<path id="font_2_2" d="M.2889862 .25C.2889862 .32798768 .27799989 .44898988 .22299195 .56199648 .16299439 .68499758 .07699585 .75 .066986087 .75 .06098938 .75 .056991579 .74598696 .056991579 .73999026 .056991579 .7369995 .056991579 .73498538 .07598877 .71699526 .17399597 .6179962 .23098755 .45899964 .23098755 .25 .23098755 .07899475 .19400025-.09700012 .069992069-.2230072 .056991579-.23500061 .056991579-.23701477 .056991579-.2400055 .056991579-.2460022 .06098938-.25 .066986087-.25 .07699585-.25 .16699219-.18200684 .22599793-.055007936 .2769928 .054992677 .2889862 .16600037 .2889862 .25Z"/>
<path id="font_2_11" d="M.68699648 .32714845C.70199587 .32714845 .72099307 .32714845 .72099307 .34713746 .72099307 .36714173 .70199587 .36714173 .6879883 .36714173H.08898926C.07499695 .36714173 .055999757 .36714173 .055999757 .34713746 .055999757 .32714845 .07499695 .32714845 .08999634 .32714845H.68699648M.6879883 .13284302C.70199587 .13284302 .72099307 .13284302 .72099307 .15284729 .72099307 .17285156 .70199587 .17285156 .68699648 .17285156H.08999634C.07499695 .17285156 .055999757 .17285156 .055999757 .15284729 .055999757 .13284302 .07499695 .13284302 .08898926 .13284302H.6879883Z"/>
<path id="font_2_9" d="M.44898988 .20022583C.44898988 .3193512 .36698915 .41944886 .25898744 .41944886 .21099854 .41944886 .16799927 .40345765 .13198853 .36842347V.5637665C.1519928 .5577698 .18499756 .55078127 .21699524 .55078127 .33999635 .55078127 .4099884 .6417694 .4099884 .6547699 .4099884 .6607666 .40699769 .6657715 .3999939 .6657715 .39898683 .6657715 .39698792 .6657715 .3919983 .66278079 .37199403 .6537781 .32299806 .6337738 .2559967 .6337738 .21598816 .6337738 .16999817 .6407776 .12298584 .6617737 .114990238 .66477969 .11299133 .66477969 .11099243 .66477969 .100997928 .66477969 .100997928 .6567688 .100997928 .6407776V.34439088C.100997928 .32637025 .100997928 .31835938 .114990238 .31835938 .12199402 .31835938 .12399292 .32136537 .12799073 .32736207 .13899231 .3433838 .17599488 .39746095 .25698854 .39746095 .30899049 .39746095 .33399964 .35139466 .34199525 .33337403 .35798646 .29632569 .3600006 .25727845 .3600006 .20722962 .3600006 .17222595 .3600006 .11222839 .33599855 .07035828 .31199647 .031463624 .2749939 .0055389406 .22898865 .0055389406 .1559906 .0055389406 .09899902 .058380128 .08198547 .11723328 .084991458 .1162262 .08799744 .115234378 .09899902 .115234378 .13198853 .115234378 .14898682 .14022827 .14898682 .16423035 .14898682 .18823242 .13198853 .21322632 .09899902 .21322632 .084991458 .21322632 .049987794 .20622254 .049987794 .16023255 .049987794 .07434082 .11898804-.022460938 .23098755-.022460938 .34700013-.022460938 .44898988 .073349 .44898988 .20022583Z"/>
<path id="font_2_3" d="M.40899659 .23046875H.6879883C.70199587 .23046875 .72099307 .23046875 .72099307 .25045777 .72099307 .27046205 .70199587 .27046205 .6879883 .27046205H.40899659V.5500183C.40899659 .56399539 .40899659 .5830078 .3889923 .5830078 .36898805 .5830078 .36898805 .56399539 .36898805 .5500183V.27046205H.08898926C.07499695 .27046205 .055999757 .27046205 .055999757 .25045777 .055999757 .23046875 .07499695 .23046875 .08898926 .23046875H.36898805V-.05000305C.36898805-.06401062 .36898805-.08300781 .3889923-.08300781 .40899659-.08300781 .40899659-.06401062 .40899659-.05000305V.23046875Z"/>
<path id="font_2_4" d="M.45999146 .31976319C.45999146 .39982606 .45498658 .47988893 .41999818 .5539398 .37399293 .65000918 .2919922 .6660156 .25 .6660156 .18998719 .6660156 .116989139 .64001467 .07598877 .54693606 .04399109 .47789 .038986207 .39982606 .038986207 .31976319 .038986207 .24472046 .042999269 .15464783 .083999637 .07859802 .1269989-.0024719239 .19999695-.022460938 .24899292-.022460938 .30299378-.022460938 .3789978-.0014648438 .4229889 .09359741 .45498658 .16265869 .45999146 .2407074 .45999146 .31976319M.24899292-.00047302247C.20999146-.00047302247 .15098572 .024551392 .1329956 .12062073 .12199402 .18066406 .12199402 .2727356 .12199402 .3317871 .12199402 .39582826 .12199402 .46188355 .12998963 .5159149 .14898682 .63500979 .22399903 .64401248 .24899292 .64401248 .28199769 .64401248 .34799195 .6259918 .36698915 .52693179 .3769989 .47088624 .3769989 .39482118 .3769989 .3317871 .3769989 .25672914 .3769989 .18867493 .3659973 .12461853 .35099793 .029556275 .2939911-.00047302247 .24899292-.00047302247Z"/>
<path id="font_1_2" d="M.19198609 .052993776C.19198609 .08198547 .16799927 .10598755 .13899231 .10598755 .10998535 .10598755 .085998538 .08198547 .085998538 .052993776 .085998538 .023986817 .10998535 0 .13899231 0 .16799927 0 .19198609 .023986817 .19198609 .052993776Z"/>
<path id="font_2_14" d="M.17298889 .3996582H.31599427V.43066407H.17298889V.6147156H.147995C.14698792 .5326996 .116989139 .42565919 .018997193 .42166139V.3996582H.10398865V.12416077C.10398865 .0012512207 .19699097-.0107421879 .23298645-.0107421879 .3039856-.0107421879 .33198548 .06021118 .33198548 .12416077V.18112183H.30699159V.12615967C.30699159 .052215578 .2769928 .014251709 .23999024 .014251709 .17298889 .014251709 .17298889 .10517883 .17298889 .122161868V.3996582Z"/>
<path id="font_2_12" d="M.33299256 .076156619C.33699037 .036132814 .3639984-.005859375 .41099549-.005859375 .43199159-.005859375 .49299623 .008132935 .49299623 .089157108V.14518738H.46798707V.089157108C.46798707 .031143189 .44299317 .025131226 .43199159 .025131226 .39898683 .025131226 .394989 .07015991 .394989 .075149539V.27514649C.394989 .31707765 .394989 .3560791 .35899354 .39312745 .31999208 .43223573 .269989 .4482422 .22200012 .4482422 .13999939 .4482422 .070999149 .40115357 .070999149 .335083 .070999149 .30508424 .09098816 .28808595 .116989139 .28808595 .14498902 .28808595 .16299439 .30807496 .16299439 .33407594 .16299439 .3460846 .1579895 .3790741 .11199951 .38008119 .13899231 .41519166 .18798828 .426239 .21998596 .426239 .2689972 .426239 .32598878 .38710023 .32598878 .29808045V.26123048C.2749939 .2582245 .20498657 .25523377 .14199829 .22523499 .066986087 .1912384 .041992189 .13923645 .041992189 .09524536 .041992189 .014251709 .13899231-.0107421879 .20199585-.0107421879 .2679901-.010864258 .31399537 .029129029 .33299256 .076156619M.32598878 .24023438V.1401825C.32598878 .045135499 .2539978 .011138916 .20899964 .011138916 .1599884 .011138916 .11898804 .046142579 .11898804 .09616089 .11898804 .15118408 .16099549 .23422241 .32598878 .24023438Z"/>
<path id="font_2_13" d="M.10998535 .34429933V.076034549C.10998535 .0309906 .09899902 .0309906 .03199768 .0309906V0C.066986087 .0009918213 .117996219 .0029907227 .14498902 .0029907227 .17098999 .0029907227 .22299195 .0009918213 .25698854 0V.0309906C.18998719 .0309906 .1789856 .0309906 .1789856 .076034549V.2602234C.1789856 .36431886 .25 .42037965 .31399537 .42037965 .3769989 .42037965 .3880005 .36631776 .3880005 .30926515V.076034549C.3880005 .0309906 .3769989 .0309906 .30999757 .0309906V0C.34498597 .0009918213 .3959961 .0029907227 .4229889 .0029907227 .44898988 .0029907227 .5009918 .0009918213 .5349884 0V.0309906C.48298646 .0309906 .45799256 .0309906 .45700074 .061019899V.25221253C.45700074 .3383026 .45700074 .36932374 .42599488 .405365 .4119873 .42237855 .3789978 .4423828 .32099916 .4423828 .24798584 .4423828 .20098877 .39935304 .17298889 .33729554V.4423828L.03199768 .43138124V.40037538C.101989749 .4003601 .10998535 .39335633 .10998535 .34429933Z"/>
<path id="font_2_7" d="M.2899933 .35191346C.37199403 .37893678 .42999269 .4490509 .42999269 .52809146 .42999269 .6100464 .34199525 .6660156 .24598694 .6660156 .14498902 .6660156 .068984989 .60606387 .068984989 .53009036 .068984989 .49710084 .09098816 .47808839 .11999512 .47808839 .15098572 .47808839 .17098999 .50009158 .17098999 .5290985 .17098999 .57910159 .12399292 .57910159 .10899353 .57910159 .13999939 .62802127 .20599365 .64100649 .24198914 .64100649 .2829895 .64100649 .33799745 .6190338 .33799745 .5290985 .33799745 .51708987 .33599855 .45906068 .30999757 .4149933 .27999879 .36691285 .24598694 .36390687 .22099304 .36291505 .21299744 .36190797 .18899536 .35990907 .18199158 .35990907 .17399597 .35890199 .16699219 .35791017 .16699219 .3479004 .16699219 .33691407 .17399597 .33691407 .19099427 .33691407H.23498535C.31698609 .33691407 .35398866 .2686615 .35398866 .17037964 .35398866 .034469606 .2849884 .0055389406 .24099732 .0055389406 .19799805 .0055389406 .12298584 .022491456 .08799744 .08137512 .12298584 .07637024 .1539917 .09837341 .1539917 .1363678 .1539917 .17237854 .1269989 .19238281 .09799194 .19238281 .07398987 .19238281 .041992189 .17837525 .041992189 .1343689 .041992189 .043441774 .1349945-.022460938 .24398804-.022460938 .3659973-.022460938 .45700074 .06838989 .45700074 .17037964 .45700074 .252594 .3939972 .33088685 .2899933 .35191346Z"/>
</defs>
<path transform="matrix(1,0,0,-1.00008,18.933999,111.19986)" stroke-width=".3985" stroke-linecap="butt" stroke-miterlimit="10" stroke-linejoin="miter" fill="none" stroke="#00aeef" d="M0-13.60632H142.48685M0 0H142.48685M0 13.60632H142.48685M0 27.21268H142.48685M0 40.81902H142.48685M0 54.42537H142.48685M0 68.03172H142.48685M0 81.63806H142.48685M0 95.23964H142.48685M0-13.60632V95.24442M11.8737-13.60632V95.24442M23.74744-13.60632V95.24442M35.62115-13.60632V95.24442M47.49489-13.60632V95.24442M59.3686-13.60632V95.24442M71.24234-13.60632V95.24442M83.11607-13.60632V95.24442M94.98979-13.60632V95.24442M106.86353-13.60632V95.24442M118.73724-13.60632V95.24442M130.61098-13.60632V95.24442M142.4847-13.60632V95.24442M142.48685 95.24442"/>
<path transform="matrix(1,0,0,-1.00008,18.933999,111.19986)" stroke-width=".79701" stroke-linecap="butt" stroke-miterlimit="10" stroke-linejoin="miter" fill="none" stroke="#000000" d="M-4.53543 0H145.96935"/>
<path transform="matrix(1,0,0,-1.00008,164.90335,111.19986)" d="M1.0361 0C-.25902 .25902-1.55415 .77707-3.1083 1.68365-1.55415 .51805-1.55415-.51805-3.1083-1.68365-1.55415-.77707-.25902-.25902 1.0361 0Z"/>
<path transform="matrix(1,0,0,-1.00008,164.90335,111.19986)" stroke-width=".79701" stroke-linecap="butt" stroke-linejoin="round" fill="none" stroke="#000000" d="M1.0361 0C-.25902 .25902-1.55415 .77707-3.1083 1.68365-1.55415 .51805-1.55415-.51805-3.1083-1.68365-1.55415-.77707-.25902-.25902 1.0361 0Z"/>
<use data-text="x" xlink:href="#font_1_4" transform="matrix(9.9626,0,0,-9.963397,170.057,113.34503)"/>
<path transform="matrix(1,0,0,-1.00008,18.933999,111.19986)" stroke-width=".79701" stroke-linecap="butt" stroke-miterlimit="10" stroke-linejoin="miter" fill="none" stroke="#000000" d="M0-13.60632V97.89175"/>
<path transform="matrix(0,-1.00008,-1,-0,18.933999,13.300285)" d="M1.0361 0C-.25902 .25902-1.55415 .77707-3.1083 1.68365-1.55415 .51805-1.55415-.51805-3.1083-1.68365-1.55415-.77707-.25902-.25902 1.0361 0Z"/>
<path transform="matrix(0,-1.00008,-1,-0,18.933999,13.300285)" stroke-width=".79701" stroke-linecap="butt" stroke-linejoin="round" fill="none" stroke="#000000" d="M1.0361 0C-.25902 .25902-1.55415 .77707-3.1083 1.68365-1.55415 .51805-1.55415-.51805-3.1083-1.68365-1.55415-.77707-.25902-.25902 1.0361 0Z"/>
<use data-text="y" xlink:href="#font_1_5" transform="matrix(9.9626,0,0,-9.963397,16.312996,6.208458)"/>
<path transform="matrix(1,0,0,-1.00008,18.933999,111.19986)" stroke-width=".79701" stroke-linecap="butt" stroke-miterlimit="10" stroke-linejoin="miter" fill="none" stroke="#000000" d="M71.24341 1.3607V-1.36049"/>
<path transform="matrix(1,0,0,-1.00008,18.933999,111.19986)" d="M67.22888-12.02617H75.25792V-5.7441098H67.22888Z" fill="#ffffff"/>
<use data-text="&#x03c0;" xlink:href="#font_1_1" transform="matrix(9.9626,0,0,-9.963397,87.159,122.23074)"/>
<path transform="matrix(1,0,0,-1.00008,18.933999,111.19986)" stroke-width=".79701" stroke-linecap="butt" stroke-miterlimit="10" stroke-linejoin="miter" fill="none" stroke="#000000" d="M142.48685 1.3607V-1.36049"/>
<path transform="matrix(1,0,0,-1.00008,18.933999,111.19986)" d="M135.98163-14.15709H148.99205V-5.74411H135.98163Z" fill="#ffffff"/>
<use data-text="2" xlink:href="#font_2_6" transform="matrix(9.9626,0,0,-9.963397,155.91199,124.36191)"/>
<use data-text="&#x03c0;" xlink:href="#font_1_1" transform="matrix(9.9626,0,0,-9.963397,160.893,124.36191)"/>
<path transform="matrix(1,0,0,-1.00008,18.933999,111.19986)" stroke-width=".79701" stroke-linecap="butt" stroke-miterlimit="10" stroke-linejoin="miter" fill="none" stroke="#000000" d="M2.26787-13.60632H-2.26753"/>
<use data-text="&#x2212;" xlink:href="#font_3_1" transform="matrix(9.9626,0,0,-9.963397,.21700287,127.60217)"/>
<use data-text="1" xlink:href="#font_2_5" transform="matrix(9.9626,0,0,-9.963397,7.9660036,127.60217)"/>
<path transform="matrix(1,0,0,-1.00008,18.933999,111.19986)" stroke-width=".79701" stroke-linecap="butt" stroke-miterlimit="10" stroke-linejoin="miter" fill="none" stroke="#000000" d="M2.26787 27.21268H-2.26753"/>
<use data-text="2" xlink:href="#font_2_6" transform="matrix(9.9626,0,0,-9.963397,7.965996,87.19594)"/>
<path transform="matrix(1,0,0,-1.00008,18.933999,111.19986)" stroke-width=".79701" stroke-linecap="butt" stroke-miterlimit="10" stroke-linejoin="miter" fill="none" stroke="#000000" d="M2.26787 54.42537H-2.26753"/>
<use data-text="4" xlink:href="#font_2_8" transform="matrix(9.9626,0,0,-9.963397,7.965996,59.980764)"/>
<path transform="matrix(1,0,0,-1.00008,18.933999,111.19986)" stroke-width=".79701" stroke-linecap="butt" stroke-miterlimit="10" stroke-linejoin="miter" fill="none" stroke="#000000" d="M2.26787 81.63806H-2.26753"/>
<use data-text="6" xlink:href="#font_2_10" transform="matrix(9.9626,0,0,-9.963397,7.965996,32.765588)"/>
<path transform="matrix(1,0,0,-1.00008,18.933999,111.19986)" stroke-width=".79701" stroke-linecap="butt" stroke-miterlimit="10" stroke-linejoin="miter" fill="none" stroke="#ff0000" d="M0 65.05865C0 65.05865 .42625 65.44681 .58995 65.58891 .75366 65.731 1.01624 65.9495 1.17995 66.08282 1.34364 66.21617 1.60622 66.42305 1.76993 66.54996 1.93364 66.67688 2.19621 66.87515 2.35992 66.99757 2.52362 67.12 2.7862 67.31276 2.94989 67.43233 3.1136 67.5519 3.37617 67.74124 3.53989 67.8594 3.70358 67.97755 3.96616 68.16568 4.12987 68.28398 4.29358 68.40228 4.55615 68.59212 4.71986 68.71208 4.88356 68.83203 5.14613 69.02538 5.30983 69.14848 5.47354 69.2716 5.73611 69.47145 5.89983 69.59943 6.06352 69.7274 6.3261 69.93611 6.4898 70.07092 6.65352 70.20573 6.91609 70.42705 7.0798 70.57108 7.2435 70.7151 7.50607 70.95285 7.66977 71.10901 7.83348 71.26517 8.09605 71.52438 8.25975 71.69656 8.42345 71.86873 8.68602 72.1567 8.84973 72.34993 9.01344 72.54317 9.27602 72.86794 9.43973 73.08925 9.60344 73.31056 9.866 73.6856 10.02971 73.94504 10.1934 74.20451 10.456 74.64662 10.61969 74.95926 10.7834 75.2719 11.04596 75.80899 11.20967 76.19832 11.37338 76.58762 11.63596 77.25941 11.79967 77.7652 11.96338 78.27097 12.22594 79.14903 12.38965 79.84364 12.55334 80.53824 12.81593 81.74066 12.97963 82.77145 13.14334 83.80222 13.4059 85.54672 13.56961 87.27277 13.73332 88.99883 14.1596 95.21161 14.1596 95.21161"/>
<path transform="matrix(1,0,0,-1.00008,18.933999,111.19986)" stroke-width=".79701" stroke-linecap="butt" stroke-miterlimit="10" stroke-linejoin="miter" fill="none" stroke="#ff0000" d="M39.90436-13.64911C39.90436-13.64911 40.55914 30.23053 40.81061 39.17595 41.0621 48.12137 41.4654 48.48267 41.71687 50.82323 41.96834 53.16379 42.37164 54.90015 42.62314 56.0452 42.8746 57.19025 43.27791 58.37396 43.52939 59.07597 43.78087 59.77798 44.18416 60.61664 44.43565 61.1048 44.68712 61.59299 45.09041 62.22551 45.3419 62.59445 45.59337 62.96341 45.99667 63.46747 46.24815 63.76396 46.49963 64.06046 46.90292 64.48126 47.15442 64.73145 47.40588 64.98164 47.80919 65.3472 48.06068 65.5671 48.31215 65.787 48.71545 66.1161 48.96692 66.31639 49.2184 66.51668 49.62172 66.82225 49.87318 67.01067 50.12465 67.19908 50.52797 67.49173 50.77945 67.67441 51.03091 67.85709 51.43422 68.14496 51.68568 68.32736 51.93716 68.50977 52.34048 68.80142 52.59195 68.98903 52.84344 69.17664 53.24673 69.48067 53.49821 69.67957 53.7497 69.87846 54.153 70.20493 54.40446 70.42262 54.65596 70.64032 55.05925 71.00177 55.31071 71.24852 55.56221 71.49527 55.9655 71.90982 56.21698 72.20108 56.46846 72.49232 56.87177 72.98717 57.12323 73.34775 57.37473 73.7083 57.77803 74.32579 58.0295 74.7998 58.28099 75.2738 58.68427 76.08867 58.93575 76.76407 59.18723 77.43947 59.59053 78.5822 59.84201 79.66759 60.09349 80.75298 60.4968 82.43181 60.74828 84.58684 60.99976 86.74187 61.65454 95.19957 61.65454 95.19957"/>
<path transform="matrix(1,0,0,-1.00008,18.933999,111.19986)" stroke-width=".79701" stroke-linecap="butt" stroke-miterlimit="10" stroke-linejoin="miter" fill="none" stroke="#ff0000" d="M16.15656-13.64911C16.15656-13.64911 16.81133 30.23053 17.0628 39.17595 17.31427 48.12137 17.71758 48.48267 17.96907 50.82323 18.22054 53.16379 18.62384 54.90015 18.87532 56.0452 19.1268 57.19025 19.53009 58.37396 19.78157 59.07597 20.03305 59.77798 20.43634 60.61664 20.68784 61.1048 20.9393 61.59299 21.3426 62.22551 21.59409 62.59445 21.84557 62.96341 22.24886 63.46747 22.50035 63.76396 22.75182 64.06046 23.15512 64.48126 23.4066 64.73145 23.65807 64.98164 24.06139 65.3472 24.31285 65.5671 24.56433 65.787 24.96765 66.1161 25.21912 66.31639 25.47058 66.51668 25.8739 66.82225 26.12538 67.01067 26.37685 67.19908 26.78015 67.49173 27.03162 67.67441 27.28311 67.85709 27.68642 68.14496 27.93788 68.32736 28.18938 68.50977 28.59267 68.80142 28.84415 68.98903 29.09563 69.17664 29.49893 69.48067 29.7504 69.67957 30.00189 69.87846 30.40518 70.20493 30.65665 70.42262 30.90814 70.64032 31.31143 71.00177 31.56291 71.24852 31.81439 71.49527 32.2177 71.90982 32.46916 72.20108 32.72066 72.49232 33.12396 72.98717 33.37543 73.34775 33.62692 73.7083 34.0302 74.32579 34.2817 74.7998 34.53316 75.2738 34.93646 76.08867 35.18796 76.76407 35.43942 77.43947 35.84273 78.5822 36.09421 79.66759 36.34569 80.75298 36.74898 82.43181 37.00046 84.58684 37.25192 86.74187 37.90672 95.19957 37.90672 95.19957"/>
<path transform="matrix(1,0,0,-1.00008,18.933999,111.19986)" stroke-width=".79701" stroke-linecap="butt" stroke-miterlimit="10" stroke-linejoin="miter" fill="none" stroke="#ff0000" d="M63.65216-13.64911C63.65216-13.64911 64.30695 30.23053 64.55841 39.17595 64.8099 48.12137 65.21321 48.48267 65.46468 50.82323 65.71617 53.16379 66.11945 54.90015 66.37093 56.0452 66.6224 57.19025 67.02571 58.37396 67.2772 59.07597 67.52867 59.77798 67.93198 60.61664 68.18346 61.1048 68.43494 61.59299 68.83823 62.22551 69.08972 62.59445 69.34119 62.96341 69.74448 63.46747 69.99597 63.76396 70.24744 64.06046 70.65074 64.48126 70.90222 64.73145 71.1537 64.98164 71.55699 65.3472 71.80849 65.5671 72.05995 65.787 72.46326 66.1161 72.71475 66.31639 72.96622 66.51668 73.3695 66.82225 73.62099 67.01067 73.87247 67.19908 74.27577 67.49173 74.52725 67.67441 74.77872 67.85709 75.18204 68.14496 75.43352 68.32736 75.68498 68.50977 76.0883 68.80142 76.33977 68.98903 76.59125 69.17664 76.99455 69.48067 77.24602 69.67957 77.4975 69.87846 77.9008 70.20493 78.15228 70.42262 78.40375 70.64032 78.80707 71.00177 79.05853 71.24852 79.31003 71.49527 79.71332 71.90982 79.96478 72.20108 80.21628 72.49232 80.61957 72.98717 80.87105 73.34775 81.12253 73.7083 81.52583 74.32579 81.7773 74.7998 82.0288 75.2738 82.4321 76.08867 82.68356 76.76407 82.93506 77.43947 83.33833 78.5822 83.58981 79.66759 83.8413 80.75298 84.2446 82.43181 84.49608 84.58684 84.74756 86.74187 85.40233 95.19957 85.40233 95.19957"/>
<path transform="matrix(1,0,0,-1.00008,18.933999,111.19986)" stroke-width=".79701" stroke-linecap="butt" stroke-miterlimit="10" stroke-linejoin="miter" fill="none" stroke="#ff0000" d="M87.39998-13.64911C87.39998-13.64911 88.05475 30.23053 88.30623 39.17595 88.55771 48.12137 88.96101 48.48267 89.21248 50.82323 89.46397 53.16379 89.86728 54.90015 90.11874 56.0452 90.37024 57.19025 90.77351 58.37396 91.025 59.07597 91.27647 59.77798 91.67978 60.61664 91.93126 61.1048 92.18274 61.59299 92.58604 62.22551 92.83751 62.59445 93.089 62.96341 93.4923 63.46747 93.74379 63.76396 93.99525 64.06046 94.39854 64.48126 94.65004 64.73145 94.9015 64.98164 95.30481 65.3472 95.55629 65.5671 95.80777 65.787 96.21106 66.1161 96.46255 66.31639 96.71402 66.51668 97.11732 66.82225 97.36882 67.01067 97.62029 67.19908 98.02357 67.49173 98.27505 67.67441 98.52654 67.85709 98.92984 68.14496 99.18132 68.32736 99.43279 68.50977 99.83609 68.80142 100.08759 68.98903 100.33905 69.17664 100.74237 69.48067 100.99384 69.67957 101.24532 69.87846 101.64862 70.20493 101.90009 70.42262 102.15157 70.64032 102.55487 71.00177 102.80635 71.24852 103.05782 71.49527 103.46114 71.90982 103.7126 72.20108 103.96408 72.49232 104.36739 72.98717 104.61887 73.34775 104.87035 73.7083 105.27364 74.32579 105.52512 74.7998 105.7766 75.2738 106.1799 76.08867 106.43137 76.76407 106.68286 77.43947 107.08617 78.5822 107.33763 79.66759 107.58911 80.75298 107.9924 82.43181 108.24388 84.58684 108.49536 86.74187 109.15013 95.19957 109.15013 95.19957"/>
<path transform="matrix(1,0,0,-1.00008,18.933999,111.19986)" stroke-width=".79701" stroke-linecap="butt" stroke-miterlimit="10" stroke-linejoin="miter" fill="none" stroke="#ff0000" d="M111.14778-13.64911C111.14778-13.64911 111.80258 30.23053 112.05405 39.17595 112.30553 48.12137 112.70882 48.48267 112.9603 50.82323 113.21178 53.16379 113.61508 54.90015 113.86655 56.0452 114.11804 57.19025 114.52135 58.37396 114.77281 59.07597 115.0243 59.77798 115.4276 60.61664 115.67908 61.1048 115.93056 61.59299 116.33385 62.22551 116.58533 62.59445 116.8368 62.96341 117.24011 63.46747 117.49158 63.76396 117.74307 64.06046 118.14636 64.48126 118.39784 64.73145 118.64932 64.98164 119.05263 65.3472 119.30411 65.5671 119.55559 65.787 119.95888 66.1161 120.21036 66.31639 120.46184 66.51668 120.86513 66.82225 121.11662 67.01067 121.36809 67.19908 121.7714 67.49173 122.02289 67.67441 122.27435 67.85709 122.67764 68.14496 122.92912 68.32736 123.1806 68.50977 123.58391 68.80142 123.83539 68.98903 124.08685 69.17664 124.49016 69.48067 124.74165 69.67957 124.99312 69.87846 125.39642 70.20493 125.6479 70.42262 125.89938 70.64032 126.30267 71.00177 126.55415 71.24852 126.80563 71.49527 127.20894 71.90982 127.46042 72.20108 127.71188 72.49232 128.1152 72.98717 128.36667 73.34775 128.61815 73.7083 129.02146 74.32579 129.27294 74.7998 129.5244 75.2738 129.9277 76.08867 130.17919 76.76407 130.43065 77.43947 130.83397 78.5822 131.08544 79.66759 131.33693 80.75298 131.74024 82.43181 131.9917 84.58684 132.24318 86.74187 132.89797 95.19957 132.89797 95.19957"/>
<path transform="matrix(1,0,0,-1.00008,18.933999,111.19986)" stroke-width=".79701" stroke-linecap="butt" stroke-miterlimit="10" stroke-linejoin="miter" fill="none" stroke="#ff0000" d="M134.8956-13.64911C134.8956-13.64911 135.12412 11.66193 135.21189 18.00572 135.29962 24.34952 135.4404 29.01495 135.52816 32.07257 135.6159 35.13016 135.75667 38.22299 135.84442 40.04276 135.93218 41.8625 136.07294 43.97348 136.16068 45.1881 136.24845 46.40273 136.3892 47.92464 136.47696 48.7969 136.56472 49.66914 136.70548 50.81581 136.79323 51.47473 136.881 52.13364 137.02175 53.02855 137.10951 53.5459 137.19727 54.06328 137.33803 54.78485 137.42578 55.20352 137.51355 55.62218 137.65428 56.21663 137.74205 56.5634 137.8298 56.91019 137.97057 57.41008 138.05832 57.7028 138.14609 57.99554 138.28684 58.42186 138.3746 58.6732 138.46236 58.92453 138.60312 59.29524 138.69087 59.51427 138.77864 59.73326 138.91939 60.0586 139.00716 60.25171 139.09491 60.44482 139.23567 60.73395 139.32343 60.90611 139.41118 61.0783 139.55194 61.33765 139.6397 61.49263 139.72745 61.64761 139.86821 61.88249 139.95597 62.02309 140.04372 62.1637 140.18448 62.3774 140.27223 62.50601 140.36 62.63463 140.50075 62.83151 140.58852 62.95009 140.67627 63.06868 140.81703 63.2508 140.90479 63.36078 140.99256 63.47075 141.13329 63.64018 141.22106 63.74278 141.3088 63.84538 141.44957 64.004 141.53733 64.1003 141.62509 64.1966 141.76584 64.34595 141.8536 64.43684 141.94136 64.52773 142.08213 64.66917 142.16988 64.75533 142.25765 64.84148 142.48616 65.05782 142.48616 65.05782"/>
<path transform="matrix(1,0,0,-1.00008,18.933999,111.19986)" stroke-width="1.19553" stroke-linecap="butt" stroke-dasharray="2.98883,2.98883" stroke-miterlimit="10" stroke-linejoin="miter" fill="none" stroke="#00ff00" d="M0 61.22855H142.48685"/>
<use data-text="f" xlink:href="#font_1_3" transform="matrix(9.9626,0,0,-9.963397,29.204003,137.50397)" fill="#0000ff"/>
<use data-text="(" xlink:href="#font_2_1" transform="matrix(9.9626,0,0,-9.963397,35.154,137.50397)" fill="#0000ff"/>
<use data-text="x" xlink:href="#font_1_4" transform="matrix(9.9626,0,0,-9.963397,39.028,137.50397)" fill="#0000ff"/>
<use data-text=")" xlink:href="#font_2_2" transform="matrix(9.9626,0,0,-9.963397,44.722,137.50397)" fill="#0000ff"/>
<use data-text="=" xlink:href="#font_2_11" transform="matrix(9.9626,0,0,-9.963397,51.34713,137.50397)" fill="#0000ff"/>
<use data-text="5" xlink:href="#font_2_9" transform="matrix(9.9626,0,0,-9.963397,61.85768,137.50397)" fill="#0000ff"/>
<use data-text="+" xlink:href="#font_2_3" transform="matrix(9.9626,0,0,-9.963397,69.050678,137.50397)" fill="#0000ff"/>
<use data-text="0" xlink:href="#font_2_4" transform="matrix(9.9626,0,0,-9.963397,79.00331,137.50397)" fill="#0000ff"/>
<use data-text="." xlink:href="#font_1_2" transform="matrix(9.9626,0,0,-9.963397,84.019,137.50397)" fill="#0000ff"/>
<use data-text="4" xlink:href="#font_2_8" transform="matrix(9.9626,0,0,-9.963397,86.785999,137.50397)" fill="#0000ff"/>
<use data-text="t" xlink:href="#font_2_14" transform="matrix(9.9626,0,0,-9.963397,93.42108,137.50397)" fill="#0000ff"/>
<use data-text="a" xlink:href="#font_2_12" transform="matrix(9.9626,0,0,-9.963397,97.286579,137.50397)" fill="#0000ff"/>
<use data-text="n" xlink:href="#font_2_13" transform="matrix(9.9626,0,0,-9.963397,102.26787,137.50397)" fill="#0000ff"/>
<use data-text="(" xlink:href="#font_2_1" transform="matrix(9.9626,0,0,-9.963397,107.797107,137.50397)" fill="#0000ff"/>
<use data-text="3" xlink:href="#font_2_7" transform="matrix(9.9626,0,0,-9.963397,111.6626,137.50397)" fill="#0000ff"/>
<use data-text="x" xlink:href="#font_1_4" transform="matrix(9.9626,0,0,-9.963397,116.673999,137.50397)" fill="#0000ff"/>
<use data-text="&#x2212;" xlink:href="#font_3_1" transform="matrix(9.9626,0,0,-9.963397,124.582,137.50397)" fill="#0000ff"/>
<use data-text="0" xlink:href="#font_2_4" transform="matrix(9.9626,0,0,-9.963397,134.545,137.50397)" fill="#0000ff"/>
<use data-text="." xlink:href="#font_1_2" transform="matrix(9.9626,0,0,-9.963397,139.526,137.50397)" fill="#0000ff"/>
<use data-text="5" xlink:href="#font_2_9" transform="matrix(9.9626,0,0,-9.963397,142.293,137.50397)" fill="#0000ff"/>
<use data-text=")" xlink:href="#font_2_2" transform="matrix(9.9626,0,0,-9.963397,147.27429,137.50397)" fill="#0000ff"/>
</svg>
