<svg xmlns="http://www.w3.org/2000/svg" xmlns:xlink="http://www.w3.org/1999/xlink" version="1.1" width="85" height="82" viewBox="0 0 85 82">
<defs>
<path id="font_1_1" d="M.6589966 .23046875C.6759949 .23046875 .69400027 .23046875 .69400027 .25045777 .69400027 .27046205 .6759949 .27046205 .6589966 .27046205H.117996219C.100997928 .27046205 .08299255 .27046205 .08299255 .25045777 .08299255 .23046875 .100997928 .23046875 .117996219 .23046875H.6589966Z"/>
<path id="font_2_2" d="M.2939911 .16503906V.07800293C.2939911 .041992189 .2919922 .0309906 .21798706 .0309906H.19699097V0C.23799134 .0029907227 .2899933 .0029907227 .33198548 .0029907227 .37399293 .0029907227 .4269867 .0029907227 .46798707 0V.0309906H.44699098C.37298585 .0309906 .37098695 .041992189 .37098695 .07800293V.16503906H.47099305V.19602967H.37098695V.65075686C.37098695 .67074587 .37098695 .6767578 .35499574 .6767578 .34599305 .6767578 .34298707 .6767578 .33499146 .66474917L.027999878 .19602967V.16503906H.2939911M.2999878 .19602967H.055999757L.2999878 .5688019V.19602967Z"/>
<path id="font_3_1" d="M.28399659 .6252594C.28399659 .6452637 .269989 .6612549 .24699402 .6612549 .21998596 .6612549 .19299317 .6352539 .19299317 .6082611 .19299317 .5892639 .20698548 .5722656 .23098755 .5722656 .2539978 .5722656 .28399659 .5952606 .28399659 .6252594M.20799256 .24932862C.21998596 .27833558 .21998596 .28033448 .22999573 .30734254 .23799134 .3273468 .24299622 .34135438 .24299622 .36035157 .24299622 .405365 .21099854 .4423828 .16099549 .4423828 .066986087 .4423828 .0289917 .29733277 .0289917 .28833009 .0289917 .27833558 .038986207 .27833558 .040985109 .27833558 .050994874 .27833558 .051986696 .28033448 .056991579 .29634095 .083999637 .3903656 .12399292 .42037965 .1579895 .42037965 .1659851 .42037965 .18299866 .42037965 .18299866 .3883667 .18299866 .36735536 .17599488 .346344 .17199707 .3363495 .1639862 .31033326 .11898804 .19430542 .102996829 .1512909 .09298706 .12528992 .07998657 .0922699 .07998657 .0712738 .07998657 .024261475 .11399841-.0107421879 .1619873-.0107421879 .2559967-.0107421879 .29299928 .1342926 .29299928 .14329529 .29299928 .1532898 .28399659 .1532898 .2809906 .1532898 .2709961 .1532898 .2709961 .15029907 .2659912 .13528443 .24798584 .072265628 .21499634 .011245728 .1639862 .011245728 .14698792 .011245728 .13999939 .021255494 .13999939 .044265748 .13999939 .0692749 .1459961 .08326721 .16899109 .14428711L.20799256 .24932862Z"/>
<path id="font_2_1" d="M.1269989 .07699585 .23298645 .18003845C.3889923 .31811524 .44898988 .3721466 .44898988 .47216798 .44898988 .5860901 .35899354 .6660156 .23699951 .6660156 .12399292 .6660156 .049987794 .57411196 .049987794 .48516847 .049987794 .4291687 .099990848 .4291687 .102996829 .4291687 .11999512 .4291687 .15499878 .44117738 .15499878 .48217774 .15499878 .5081787 .13699341 .5341797 .101989749 .5341797 .09399414 .5341797 .09199524 .5341797 .08898926 .5331726 .11199951 .59806826 .1659851 .63500979 .22399903 .63500979 .31498719 .63500979 .35798646 .5541382 .35798646 .47216798 .35798646 .39215089 .30799867 .31311036 .25299073 .25108338L.06098938 .036987306C.049987794 .025985718 .049987794 .023986817 .049987794 0H.42099L.44898988 .17404175H.42399598C.4189911 .14402771 .4119873 .1000061 .4019928 .084991458 .394989 .07699585 .32899476 .07699585 .30699159 .07699585H.1269989Z"/>
<path id="font_3_2" d="M.1329956 .08345032C.18699646 .14138794 .21598816 .16636658 .2519989 .19732666 .2519989 .19833374 .31399537 .25128175 .34999085 .2872467 .44499208 .3803711 .46699525 .42837525 .46699525 .43237306 .46699525 .4423828 .45799256 .4423828 .45599366 .4423828 .44898988 .4423828 .44599916 .44036866 .44099427 .43138124 .41099549 .38337709 .3899994 .3671875 .3659973 .3671875 .34199525 .3671875 .32998658 .38237 .31498719 .3993683 .29599 .42237855 .2789917 .4423828 .24598694 .4423828 .17098999 .4423828 .125 .34918214 .125 .3282013 .125 .3231964 .12799073 .31721498 .13699341 .31721498 .1459961 .31721498 .147995 .3222046 .1499939 .3282013 .16899109 .37434388 .22698975 .37538148 .23498535 .37538148 .2559967 .37538148 .2749939 .36820985 .2979889 .36018373 .33799745 .34518434 .34899903 .34518434 .375 .34518434 .33898927 .30223084 .25498963 .2303009 .23599243 .21430969L.1459961 .13040161C.07798767 .06341553 .042999269 .0062561037 .042999269-.00074768069 .042999269-.0107421879 .052993776-.0107421879 .054992677-.0107421879 .06298828-.0107421879 .06498718-.008743286 .070999149 .002243042 .09399414 .037246705 .12399292 .064453128 .1559906 .064453128 .1789856 .064453128 .18899536 .055252077 .21398926 .026245118 .23098755 .0052490236 .24899292-.0107421879 .27799989-.0107421879 .3769989-.0107421879 .43499757 .1164093 .43499757 .14338684 .43499757 .14837647 .43099977 .15338135 .4229889 .15338135 .4139862 .15338135 .4119873 .14738465 .40899659 .14039612 .38598634 .07543945 .32199098 .056243898 .2889862 .056243898 .2689972 .056243898 .25099183 .06239319 .22999573 .06944275 .19599915 .08244324 .18099976 .08644104 .1599884 .08644104 .1579895 .08644104 .14199829 .08644104 .1329956 .08345032Z"/>
</defs>
<path transform="matrix(1.00002,0,0,-1.00003,43.546518,40.912778)" stroke-width=".3985" stroke-linecap="butt" stroke-miterlimit="10" stroke-linejoin="miter" fill="none" stroke="#00aeef" d="M-36.28473-36.28473H36.28473M-36.28473-27.21355H36.28473M-36.28473-18.14235H36.28473M-36.28473-9.07117H36.28473M-36.28473 0H36.28473M-36.28473 9.07117H36.28473M-36.28473 18.14235H36.28473M-36.28473 27.21355H36.28473M-36.28473 36.28156H36.28473M-36.28473-36.28473V36.28473M-27.21355-36.28473V36.28473M-18.14235-36.28473V36.28473M-9.07117-36.28473V36.28473M0-36.28473V36.28473M9.07117-36.28473V36.28473M18.14235-36.28473V36.28473M27.21355-36.28473V36.28473M36.28156-36.28473V36.28473M36.28473 36.28473"/>
<path transform="matrix(1.00002,0,0,-1.00003,43.546518,40.912778)" stroke-width=".3985" stroke-linecap="butt" stroke-miterlimit="10" stroke-linejoin="miter" fill="none" stroke="#000000" d="M.90715-36.28473H-.90701"/>
<path transform="matrix(1.00002,0,0,-1.00003,43.546518,40.912778)" d="M-19.26135-39.98518H-3.0988312V-32.584283H-19.26135Z" fill="#ffffff"/>
<use data-text="&#x2212;" xlink:href="#font_1_1" transform="matrix(9.962799,0,0,-9.962899,24.285134,80.068958)"/>
<use data-text="4" xlink:href="#font_2_2" transform="matrix(9.962799,0,0,-9.962899,32.034288,80.068958)"/>
<use data-text="i" xlink:href="#font_3_1" transform="matrix(9.962799,0,0,-9.962899,37.01538,80.068958)"/>
<path transform="matrix(1.00002,0,0,-1.00003,43.546518,40.912778)" stroke-width=".3985" stroke-linecap="butt" stroke-miterlimit="10" stroke-linejoin="miter" fill="none" stroke="#000000" d="M.90715-18.14235H-.90701"/>
<path transform="matrix(1.00002,0,0,-1.00003,43.546518,40.912778)" d="M-19.26135-21.8428H-3.0988312V-14.4419H-19.26135Z" fill="#ffffff"/>
<use data-text="&#x2212;" xlink:href="#font_1_1" transform="matrix(9.962799,0,0,-9.962899,24.285134,61.926408)"/>
<use data-text="2" xlink:href="#font_2_1" transform="matrix(9.962799,0,0,-9.962899,32.034288,61.926408)"/>
<use data-text="i" xlink:href="#font_3_1" transform="matrix(9.962799,0,0,-9.962899,37.01538,61.926408)"/>
<path transform="matrix(1.00002,0,0,-1.00003,43.546518,40.912778)" stroke-width=".3985" stroke-linecap="butt" stroke-miterlimit="10" stroke-linejoin="miter" fill="none" stroke="#000000" d="M.90715 18.14235H-.90701"/>
<path transform="matrix(1.00002,0,0,-1.00003,43.546518,40.912778)" d="M-11.51251 14.85701H-3.0988303V21.42769H-11.51251Z" fill="#ffffff"/>
<use data-text="2" xlink:href="#font_2_1" transform="matrix(9.962799,0,0,-9.962899,32.033288,26.05533)"/>
<use data-text="i" xlink:href="#font_3_1" transform="matrix(9.962799,0,0,-9.962899,37.014375,26.05533)"/>
<path transform="matrix(1.00002,0,0,-1.00003,43.546518,40.912778)" stroke-width=".3985" stroke-linecap="butt" stroke-miterlimit="10" stroke-linejoin="miter" fill="none" stroke="#000000" d="M.90715 36.28473H-.90701"/>
<path transform="matrix(1.00002,0,0,-1.00003,43.546518,40.912778)" d="M-11.51251 32.99939H-3.0988303V39.57007H-11.51251Z" fill="#ffffff"/>
<use data-text="4" xlink:href="#font_2_2" transform="matrix(9.962799,0,0,-9.962899,32.033288,7.9127848)"/>
<use data-text="i" xlink:href="#font_3_1" transform="matrix(9.962799,0,0,-9.962899,37.014375,7.9127848)"/>
<path transform="matrix(1.00002,0,0,-1.00003,43.546518,40.912778)" stroke-width=".3985" stroke-linecap="butt" stroke-miterlimit="10" stroke-linejoin="miter" fill="none" stroke="#000000" d="M-36.28473 .90715V-.90701"/>
<path transform="matrix(1.00002,0,0,-1.00003,43.546518,40.912778)" d="M-42.64984-10.3495H-29.91962V-3.0988298H-42.64984Z" fill="#ffffff"/>
<use data-text="&#x2212;" xlink:href="#font_1_1" transform="matrix(9.962799,0,0,-9.962899,.8956604,50.43206)"/>
<use data-text="4" xlink:href="#font_2_2" transform="matrix(9.962799,0,0,-9.962899,8.644814,50.43206)"/>
<path transform="matrix(1.00002,0,0,-1.00003,43.546518,40.912778)" stroke-width=".3985" stroke-linecap="butt" stroke-miterlimit="10" stroke-linejoin="miter" fill="none" stroke="#000000" d="M-18.14235 .90715V-.90701"/>
<path transform="matrix(1.00002,0,0,-1.00003,43.546518,40.912778)" d="M-24.50746-10.3495H-11.77724V-3.0988298H-24.50746Z" fill="#ffffff"/>
<use data-text="&#x2212;" xlink:href="#font_1_1" transform="matrix(9.962799,0,0,-9.962899,19.039025,50.43206)"/>
<use data-text="2" xlink:href="#font_2_1" transform="matrix(9.962799,0,0,-9.962899,26.788178,50.43206)"/>
<path transform="matrix(1.00002,0,0,-1.00003,43.546518,40.912778)" stroke-width=".3985" stroke-linecap="butt" stroke-miterlimit="10" stroke-linejoin="miter" fill="none" stroke="#000000" d="M18.14235 .90715V-.90701"/>
<path transform="matrix(1.00002,0,0,-1.00003,43.546518,40.912778)" d="M15.65166-9.51926H20.63304V-3.0988303H15.65166Z" fill="#ffffff"/>
<use data-text="2" xlink:href="#font_2_1" transform="matrix(9.962799,0,0,-9.962899,59.19883,50.43206)"/>
<path transform="matrix(1.00002,0,0,-1.00003,43.546518,40.912778)" stroke-width=".3985" stroke-linecap="butt" stroke-miterlimit="10" stroke-linejoin="miter" fill="none" stroke="#000000" d="M36.28473 .90715V-.90701"/>
<path transform="matrix(1.00002,0,0,-1.00003,43.546518,40.912778)" d="M33.79404-9.51926H38.77542V-3.0988303H33.79404Z" fill="#ffffff"/>
<use data-text="4" xlink:href="#font_2_2" transform="matrix(9.962799,0,0,-9.962899,77.34119,50.43206)"/>
<path transform="matrix(1.00002,0,0,-1.00003,43.546518,40.912778)" stroke-width=".79701" stroke-linecap="butt" stroke-miterlimit="10" stroke-linejoin="miter" fill="none" stroke="#000000" d="M-36.28473 0H38.47855"/>
<path transform="matrix(1.00002,0,0,-1.00003,82.02583,40.912778)" d="M1.0361 0C-.25902 .25902-1.55415 .77707-3.1083 1.68365-1.55415 .51805-1.55415-.51805-3.1083-1.68365-1.55415-.77707-.25902-.25902 1.0361 0Z"/>
<path transform="matrix(1.00002,0,0,-1.00003,82.02583,40.912778)" stroke-width=".79701" stroke-linecap="butt" stroke-linejoin="round" fill="none" stroke="#000000" d="M1.0361 0C-.25902 .25902-1.55415 .77707-3.1083 1.68365-1.55415 .51805-1.55415-.51805-3.1083-1.68365-1.55415-.77707-.25902-.25902 1.0361 0Z"/>
<path transform="matrix(1.00002,0,0,-1.00003,43.546518,40.912778)" stroke-width=".79701" stroke-linecap="butt" stroke-miterlimit="10" stroke-linejoin="miter" fill="none" stroke="#000000" d="M0-36.28473V38.47855"/>
<path transform="matrix(0,-1.00003,-1.00002,-0,43.546518,2.4330712)" d="M1.0361 0C-.25902 .25902-1.55415 .77707-3.1083 1.68365-1.55415 .51805-1.55415-.51805-3.1083-1.68365-1.55415-.77707-.25902-.25902 1.0361 0Z"/>
<path transform="matrix(0,-1.00003,-1.00002,-0,43.546518,2.4330712)" stroke-width=".79701" stroke-linecap="butt" stroke-linejoin="round" fill="none" stroke="#000000" d="M1.0361 0C-.25902 .25902-1.55415 .77707-3.1083 1.68365-1.55415 .51805-1.55415-.51805-3.1083-1.68365-1.55415-.77707-.25902-.25902 1.0361 0Z"/>
<path transform="matrix(1.00002,0,0,-1.00003,43.546518,40.912778)" stroke-width=".79701" stroke-linecap="butt" stroke-miterlimit="10" stroke-linejoin="miter" fill="none" stroke="#ff0000" d="M0 0 17.3472 26.02081"/>
<path transform="matrix(.55468109,-.83204498,-.8320367,-.55468669,60.894044,14.891186)" d="M1.0361 0C-.25902 .25902-1.55415 .77707-3.1083 1.68365-1.55415 .51805-1.55415-.51805-3.1083-1.68365-1.55415-.77707-.25902-.25902 1.0361 0Z" fill="#ff0000"/>
<path transform="matrix(.55468109,-.83204498,-.8320367,-.55468669,60.894044,14.891186)" stroke-width=".79701" stroke-linecap="butt" stroke-linejoin="round" fill="none" stroke="#ff0000" d="M1.0361 0C-.25902 .25902-1.55415 .77707-3.1083 1.68365-1.55415 .51805-1.55415-.51805-3.1083-1.68365-1.55415-.77707-.25902-.25902 1.0361 0Z"/>
<path transform="matrix(1.00002,0,0,-1.00003,43.546518,40.912778)" d="M18.54143 24.77808H23.612759V29.067582H18.54143Z" fill="#ffffff"/>
<use data-text="z" xlink:href="#font_3_2" transform="matrix(9.962799,0,0,-9.962899,62.08789,16.134034)" fill="#ff0000"/>
<path transform="matrix(1.00002,0,0,-1.00003,43.546518,40.912778)" stroke-width=".79701" stroke-linecap="butt" stroke-miterlimit="10" stroke-linejoin="miter" fill="none" stroke="#0000ff" d="M0 0-26.02081 17.3472"/>
<path transform="matrix(-.8320367,-.55468669,-.55468109,.83204498,17.525187,23.565077)" d="M1.0361 0C-.25902 .25902-1.55415 .77707-3.1083 1.68365-1.55415 .51805-1.55415-.51805-3.1083-1.68365-1.55415-.77707-.25902-.25902 1.0361 0Z" fill="#0000ff"/>
<path transform="matrix(-.8320367,-.55468669,-.55468109,.83204498,17.525187,23.565077)" stroke-width=".79701" stroke-linecap="butt" stroke-linejoin="round" fill="none" stroke="#0000ff" d="M1.0361 0C-.25902 .25902-1.55415 .77707-3.1083 1.68365-1.55415 .51805-1.55415-.51805-3.1083-1.68365-1.55415-.77707-.25902-.25902 1.0361 0Z"/>
<path transform="matrix(1.00002,0,0,-1.00003,43.546518,40.912778)" d="M-36.11658 15.70659H-27.61293V22.27727H-36.11658Z" fill="#ffffff"/>
<use data-text="i" xlink:href="#font_3_1" transform="matrix(9.962799,0,0,-9.962899,7.428795,25.205306)" fill="#0000ff"/>
<use data-text="z" xlink:href="#font_3_2" transform="matrix(9.962799,0,0,-9.962899,10.855988,25.205306)" fill="#0000ff"/>
</svg>
