<svg xmlns="http://www.w3.org/2000/svg" xmlns:xlink="http://www.w3.org/1999/xlink" version="1.1" width="89" height="83" viewBox="0 0 89 83">
<defs>
<path id="font_1_1" d="M.2939911 .64004519C.2939911 .66400149 .2939911 .6660156 .2709961 .6660156 .20899964 .60227969 .12098694 .60227969 .08898926 .60227969V.57128909C.10899353 .57128909 .16799927 .57128909 .21998596 .5972748V.07902527C.21998596 .042999269 .21699524 .0309906 .1269989 .0309906H.09498596V0C.12998963 .0029907227 .21699524 .0029907227 .25698854 .0029907227 .29699708 .0029907227 .38398744 .0029907227 .4189911 0V.0309906H.3869934C.29699708 .0309906 .2939911 .041992189 .2939911 .07902527V.64004519Z"/>
<path id="font_1_2" d="M.1269989 .07699585 .23298645 .18003845C.3889923 .31811524 .44898988 .3721466 .44898988 .47216798 .44898988 .5860901 .35899354 .6660156 .23699951 .6660156 .12399292 .6660156 .049987794 .57411196 .049987794 .48516847 .049987794 .4291687 .099990848 .4291687 .102996829 .4291687 .11999512 .4291687 .15499878 .44117738 .15499878 .48217774 .15499878 .5081787 .13699341 .5341797 .101989749 .5341797 .09399414 .5341797 .09199524 .5341797 .08898926 .5331726 .11199951 .59806826 .1659851 .63500979 .22399903 .63500979 .31498719 .63500979 .35798646 .5541382 .35798646 .47216798 .35798646 .39215089 .30799867 .31311036 .25299073 .25108338L.06098938 .036987306C.049987794 .025985718 .049987794 .023986817 .049987794 0H.42099L.44898988 .17404175H.42399598C.4189911 .14402771 .4119873 .1000061 .4019928 .084991458 .394989 .07699585 .32899476 .07699585 .30699159 .07699585H.1269989Z"/>
<path id="font_1_3" d="M.2899933 .35191346C.37199403 .37893678 .42999269 .4490509 .42999269 .52809146 .42999269 .6100464 .34199525 .6660156 .24598694 .6660156 .14498902 .6660156 .068984989 .60606387 .068984989 .53009036 .068984989 .49710084 .09098816 .47808839 .11999512 .47808839 .15098572 .47808839 .17098999 .50009158 .17098999 .5290985 .17098999 .57910159 .12399292 .57910159 .10899353 .57910159 .13999939 .62802127 .20599365 .64100649 .24198914 .64100649 .2829895 .64100649 .33799745 .6190338 .33799745 .5290985 .33799745 .51708987 .33599855 .45906068 .30999757 .4149933 .27999879 .36691285 .24598694 .36390687 .22099304 .36291505 .21299744 .36190797 .18899536 .35990907 .18199158 .35990907 .17399597 .35890199 .16699219 .35791017 .16699219 .3479004 .16699219 .33691407 .17399597 .33691407 .19099427 .33691407H.23498535C.31698609 .33691407 .35398866 .2686615 .35398866 .17037964 .35398866 .034469606 .2849884 .0055389406 .24099732 .0055389406 .19799805 .0055389406 .12298584 .022491456 .08799744 .08137512 .12298584 .07637024 .1539917 .09837341 .1539917 .1363678 .1539917 .17237854 .1269989 .19238281 .09799194 .19238281 .07398987 .19238281 .041992189 .17837525 .041992189 .1343689 .041992189 .043441774 .1349945-.022460938 .24398804-.022460938 .3659973-.022460938 .45700074 .06838989 .45700074 .17037964 .45700074 .252594 .3939972 .33088685 .2899933 .35191346Z"/>
<path id="font_1_4" d="M.2939911 .16503906V.07800293C.2939911 .041992189 .2919922 .0309906 .21798706 .0309906H.19699097V0C.23799134 .0029907227 .2899933 .0029907227 .33198548 .0029907227 .37399293 .0029907227 .4269867 .0029907227 .46798707 0V.0309906H.44699098C.37298585 .0309906 .37098695 .041992189 .37098695 .07800293V.16503906H.47099305V.19602967H.37098695V.65075686C.37098695 .67074587 .37098695 .6767578 .35499574 .6767578 .34599305 .6767578 .34298707 .6767578 .33499146 .66474917L.027999878 .19602967V.16503906H.2939911M.2999878 .19602967H.055999757L.2999878 .5688019V.19602967Z"/>
<path id="font_1_5" d="M.44898988 .20022583C.44898988 .3193512 .36698915 .41944886 .25898744 .41944886 .21099854 .41944886 .16799927 .40345765 .13198853 .36842347V.5637665C.1519928 .5577698 .18499756 .55078127 .21699524 .55078127 .33999635 .55078127 .4099884 .6417694 .4099884 .6547699 .4099884 .6607666 .40699769 .6657715 .3999939 .6657715 .39898683 .6657715 .39698792 .6657715 .3919983 .66278079 .37199403 .6537781 .32299806 .6337738 .2559967 .6337738 .21598816 .6337738 .16999817 .6407776 .12298584 .6617737 .114990238 .66477969 .11299133 .66477969 .11099243 .66477969 .100997928 .66477969 .100997928 .6567688 .100997928 .6407776V.34439088C.100997928 .32637025 .100997928 .31835938 .114990238 .31835938 .12199402 .31835938 .12399292 .32136537 .12799073 .32736207 .13899231 .3433838 .17599488 .39746095 .25698854 .39746095 .30899049 .39746095 .33399964 .35139466 .34199525 .33337403 .35798646 .29632569 .3600006 .25727845 .3600006 .20722962 .3600006 .17222595 .3600006 .11222839 .33599855 .07035828 .31199647 .031463624 .2749939 .0055389406 .22898865 .0055389406 .1559906 .0055389406 .09899902 .058380128 .08198547 .11723328 .084991458 .1162262 .08799744 .115234378 .09899902 .115234378 .13198853 .115234378 .14898682 .14022827 .14898682 .16423035 .14898682 .18823242 .13198853 .21322632 .09899902 .21322632 .084991458 .21322632 .049987794 .20622254 .049987794 .16023255 .049987794 .07434082 .11898804-.022460938 .23098755-.022460938 .34700013-.022460938 .44898988 .073349 .44898988 .20022583Z"/>
<path id="font_2_2" d="M.1329956 .08345032C.18699646 .14138794 .21598816 .16636658 .2519989 .19732666 .2519989 .19833374 .31399537 .25128175 .34999085 .2872467 .44499208 .3803711 .46699525 .42837525 .46699525 .43237306 .46699525 .4423828 .45799256 .4423828 .45599366 .4423828 .44898988 .4423828 .44599916 .44036866 .44099427 .43138124 .41099549 .38337709 .3899994 .3671875 .3659973 .3671875 .34199525 .3671875 .32998658 .38237 .31498719 .3993683 .29599 .42237855 .2789917 .4423828 .24598694 .4423828 .17098999 .4423828 .125 .34918214 .125 .3282013 .125 .3231964 .12799073 .31721498 .13699341 .31721498 .1459961 .31721498 .147995 .3222046 .1499939 .3282013 .16899109 .37434388 .22698975 .37538148 .23498535 .37538148 .2559967 .37538148 .2749939 .36820985 .2979889 .36018373 .33799745 .34518434 .34899903 .34518434 .375 .34518434 .33898927 .30223084 .25498963 .2303009 .23599243 .21430969L.1459961 .13040161C.07798767 .06341553 .042999269 .0062561037 .042999269-.00074768069 .042999269-.0107421879 .052993776-.0107421879 .054992677-.0107421879 .06298828-.0107421879 .06498718-.008743286 .070999149 .002243042 .09399414 .037246705 .12399292 .064453128 .1559906 .064453128 .1789856 .064453128 .18899536 .055252077 .21398926 .026245118 .23098755 .0052490236 .24899292-.0107421879 .27799989-.0107421879 .3769989-.0107421879 .43499757 .1164093 .43499757 .14338684 .43499757 .14837647 .43099977 .15338135 .4229889 .15338135 .4139862 .15338135 .4119873 .14738465 .40899659 .14039612 .38598634 .07543945 .32199098 .056243898 .2889862 .056243898 .2689972 .056243898 .25099183 .06239319 .22999573 .06944275 .19599915 .08244324 .18099976 .08644104 .1599884 .08644104 .1579895 .08644104 .14199829 .08644104 .1329956 .08345032Z"/>
<path id="font_2_1" d="M.46199037 .33935548C.46699525 .36135865 .47698976 .3983612 .47698976 .40437318 .47698976 .42237855 .46299745 .43138124 .44799806 .43138124 .43598939 .43138124 .41799928 .42337037 .41099549 .4033661 .4079895 .3963623 .36099244 .205307 .35398866 .17930603 .34700013 .14929199 .34498597 .13128662 .34498597 .11328125 .34498597 .10227966 .34498597 .10028076 .34599305 .09527588 .32299806 .042266847 .29299928 .011245728 .2539978 .011245728 .17399597 .011245728 .17399597 .08526611 .17399597 .10227966 .17399597 .1342926 .1789856 .17329407 .22599793 .29634095 .23699951 .32633973 .24299622 .3403473 .24299622 .36035157 .24299622 .405365 .20999146 .4423828 .16099549 .4423828 .06599426 .4423828 .0289917 .29733277 .0289917 .28833009 .0289917 .27833558 .038986207 .27833558 .040985109 .27833558 .050994874 .27833558 .051986696 .28033448 .056991579 .29634095 .083999637 .38935853 .12298584 .42037965 .1579895 .42037965 .16699219 .42037965 .18299866 .41937257 .18299866 .38735963 .18299866 .36235047 .17199707 .3343506 .16499329 .31733705 .12098694 .1993103 .10899353 .1532898 .10899353 .11528015 .10899353 .024261475 .17599488-.0107421879 .25099183-.0107421879 .2679901-.0107421879 .31498719-.0107421879 .35499574 .059265138 .3809967-.0047454836 .44999696-.0107421879 .47999574-.0107421879 .5549927-.0107421879 .598999 .052261354 .625 .11227417 .6589966 .19030762 .69099429 .32434083 .69099429 .37236024 .69099429 .42736817 .6639862 .4423828 .6469879 .4423828 .621994 .4423828 .5970001 .41636659 .5970001 .3943634 .5970001 .38136292 .6029968 .3753662 .6119995 .36735536 .6230011 .35635377 .647995 .33035279 .647995 .28233338 .647995 .24832154 .61898806 .15029907 .59298709 .09927368 .5669861 .04626465 .5319977 .011245728 .48298646 .011245728 .43598939 .011245728 .40899659 .041259767 .40899659 .09828186 .40899659 .12628174 .41600038 .1572876 .41999818 .17129517L.46199037 .33935548Z"/>
</defs>
<path transform="matrix(1.00003,0,0,-1.00005,41.782686,41.486276)" stroke-width=".3985" stroke-linecap="butt" stroke-miterlimit="10" stroke-linejoin="miter" fill="none" stroke="#00ff00" d="M0 0H39.68535"/>
<path transform="matrix(1.00003,0,0,-1.00005,41.782686,41.486276)" stroke-width=".3985" stroke-linecap="butt" stroke-miterlimit="10" stroke-linejoin="miter" fill="none" stroke="#00ff00" d="M0 0 38.33315 10.27133"/>
<path transform="matrix(1.00003,0,0,-1.00005,41.782686,41.486276)" stroke-width=".3985" stroke-linecap="butt" stroke-miterlimit="10" stroke-linejoin="miter" fill="none" stroke="#00ff00" d="M0 0 34.3686 19.84267"/>
<path transform="matrix(1.00003,0,0,-1.00005,41.782686,41.486276)" stroke-width=".3985" stroke-linecap="butt" stroke-miterlimit="10" stroke-linejoin="miter" fill="none" stroke="#00ff00" d="M0 0 28.0618 28.0618"/>
<path transform="matrix(1.00003,0,0,-1.00005,41.782686,41.486276)" stroke-width=".3985" stroke-linecap="butt" stroke-miterlimit="10" stroke-linejoin="miter" fill="none" stroke="#00ff00" d="M0 0 19.84267 34.3686"/>
<path transform="matrix(1.00003,0,0,-1.00005,41.782686,41.486276)" stroke-width=".3985" stroke-linecap="butt" stroke-miterlimit="10" stroke-linejoin="miter" fill="none" stroke="#00ff00" d="M0 0 10.27133 38.33315"/>
<path transform="matrix(1.00003,0,0,-1.00005,41.782686,41.486276)" stroke-width=".3985" stroke-linecap="butt" stroke-miterlimit="10" stroke-linejoin="miter" fill="none" stroke="#00ff00" d="M0 0V39.68535"/>
<path transform="matrix(1.00003,0,0,-1.00005,41.782686,41.486276)" stroke-width=".3985" stroke-linecap="butt" stroke-miterlimit="10" stroke-linejoin="miter" fill="none" stroke="#00ff00" d="M0 0-10.27133 38.33315"/>
<path transform="matrix(1.00003,0,0,-1.00005,41.782686,41.486276)" stroke-width=".3985" stroke-linecap="butt" stroke-miterlimit="10" stroke-linejoin="miter" fill="none" stroke="#00ff00" d="M0 0-19.84267 34.3686"/>
<path transform="matrix(1.00003,0,0,-1.00005,41.782686,41.486276)" stroke-width=".3985" stroke-linecap="butt" stroke-miterlimit="10" stroke-linejoin="miter" fill="none" stroke="#00ff00" d="M0 0-28.0618 28.0618"/>
<path transform="matrix(1.00003,0,0,-1.00005,41.782686,41.486276)" stroke-width=".3985" stroke-linecap="butt" stroke-miterlimit="10" stroke-linejoin="miter" fill="none" stroke="#00ff00" d="M0 0-34.3686 19.84267"/>
<path transform="matrix(1.00003,0,0,-1.00005,41.782686,41.486276)" stroke-width=".3985" stroke-linecap="butt" stroke-miterlimit="10" stroke-linejoin="miter" fill="none" stroke="#00ff00" d="M0 0-38.33315 10.27133"/>
<path transform="matrix(1.00003,0,0,-1.00005,41.782686,41.486276)" stroke-width=".3985" stroke-linecap="butt" stroke-miterlimit="10" stroke-linejoin="miter" fill="none" stroke="#00ff00" d="M0 0H-39.68535"/>
<path transform="matrix(1.00003,0,0,-1.00005,41.782686,41.486276)" stroke-width=".3985" stroke-linecap="butt" stroke-miterlimit="10" stroke-linejoin="miter" fill="none" stroke="#00ff00" d="M0 0-38.33315-10.27133"/>
<path transform="matrix(1.00003,0,0,-1.00005,41.782686,41.486276)" stroke-width=".3985" stroke-linecap="butt" stroke-miterlimit="10" stroke-linejoin="miter" fill="none" stroke="#00ff00" d="M0 0-34.3686-19.84267"/>
<path transform="matrix(1.00003,0,0,-1.00005,41.782686,41.486276)" stroke-width=".3985" stroke-linecap="butt" stroke-miterlimit="10" stroke-linejoin="miter" fill="none" stroke="#00ff00" d="M0 0-28.0618-28.0618"/>
<path transform="matrix(1.00003,0,0,-1.00005,41.782686,41.486276)" stroke-width=".3985" stroke-linecap="butt" stroke-miterlimit="10" stroke-linejoin="miter" fill="none" stroke="#00ff00" d="M0 0-19.84267-34.3686"/>
<path transform="matrix(1.00003,0,0,-1.00005,41.782686,41.486276)" stroke-width=".3985" stroke-linecap="butt" stroke-miterlimit="10" stroke-linejoin="miter" fill="none" stroke="#00ff00" d="M0 0-10.27133-38.33315"/>
<path transform="matrix(1.00003,0,0,-1.00005,41.782686,41.486276)" stroke-width=".3985" stroke-linecap="butt" stroke-miterlimit="10" stroke-linejoin="miter" fill="none" stroke="#00ff00" d="M0 0V-39.68535"/>
<path transform="matrix(1.00003,0,0,-1.00005,41.782686,41.486276)" stroke-width=".3985" stroke-linecap="butt" stroke-miterlimit="10" stroke-linejoin="miter" fill="none" stroke="#00ff00" d="M0 0 10.27133-38.33315"/>
<path transform="matrix(1.00003,0,0,-1.00005,41.782686,41.486276)" stroke-width=".3985" stroke-linecap="butt" stroke-miterlimit="10" stroke-linejoin="miter" fill="none" stroke="#00ff00" d="M0 0 19.84267-34.3686"/>
<path transform="matrix(1.00003,0,0,-1.00005,41.782686,41.486276)" stroke-width=".3985" stroke-linecap="butt" stroke-miterlimit="10" stroke-linejoin="miter" fill="none" stroke="#00ff00" d="M0 0 28.0618-28.0618"/>
<path transform="matrix(1.00003,0,0,-1.00005,41.782686,41.486276)" stroke-width=".3985" stroke-linecap="butt" stroke-miterlimit="10" stroke-linejoin="miter" fill="none" stroke="#00ff00" d="M0 0 34.3686-19.84267"/>
<path transform="matrix(1.00003,0,0,-1.00005,41.782686,41.486276)" stroke-width=".3985" stroke-linecap="butt" stroke-miterlimit="10" stroke-linejoin="miter" fill="none" stroke="#00ff00" d="M0 0 38.33315-10.27133"/>
<path transform="matrix(1.00003,0,0,-1.00005,41.782686,41.486276)" stroke-width=".79701" stroke-linecap="butt" stroke-miterlimit="10" stroke-linejoin="miter" fill="none" stroke="#000000" d="M0 0H44.6004"/>
<path transform="matrix(1.00003,0,0,-1.00005,86.38442,41.486276)" d="M1.0361 0C-.25902 .25902-1.55415 .77707-3.1083 1.68365-1.55415 .51805-1.55415-.51805-3.1083-1.68365-1.55415-.77707-.25902-.25902 1.0361 0Z"/>
<path transform="matrix(1.00003,0,0,-1.00005,86.38442,41.486276)" stroke-width=".79701" stroke-linecap="butt" stroke-linejoin="round" fill="none" stroke="#000000" d="M1.0361 0C-.25902 .25902-1.55415 .77707-3.1083 1.68365-1.55415 .51805-1.55415-.51805-3.1083-1.68365-1.55415-.77707-.25902-.25902 1.0361 0Z"/>
<path transform="matrix(1.00003,0,0,-1.00005,41.782686,41.486276)" stroke-width=".3985" stroke-linecap="butt" stroke-miterlimit="10" stroke-linejoin="miter" fill="none" stroke="#00ff00" d="M7.93706 0C7.93706 4.38356 4.38356 7.93706 0 7.93706-4.38356 7.93706-7.93706 4.38356-7.93706 0-7.93706-4.38356-4.38356-7.93706 0-7.93706 4.38356-7.93706 7.93706-4.38356 7.93706 0ZM0 0"/>
<path transform="matrix(1.00003,0,0,-1.00005,41.782686,41.486276)" stroke-width=".3985" stroke-linecap="butt" stroke-miterlimit="10" stroke-linejoin="miter" fill="none" stroke="#000000" d="M7.93706 1.19049V-1.19061"/>
<path transform="matrix(1.00003,0,0,-1.00005,41.782686,41.486276)" d="M11.0753-3.36249H4.7988V-10.93413H11.0753ZM4.7988-10.93413" fill="#ffffff"/>
<use data-text="1" xlink:href="#font_1_1" transform="matrix(8.966609,0,0,-8.966787,47.47876,51.523977)"/>
<path transform="matrix(1.00003,0,0,-1.00005,41.782686,41.486276)" stroke-width=".3985" stroke-linecap="butt" stroke-miterlimit="10" stroke-linejoin="miter" fill="none" stroke="#00ff00" d="M15.87413 0C15.87413 8.76714 8.76714 15.87413 0 15.87413-8.76714 15.87413-15.87413 8.76714-15.87413 0-15.87413-8.76714-8.76714-15.87413 0-15.87413 8.76714-15.87413 15.87413-8.76714 15.87413 0ZM0 0"/>
<path transform="matrix(1.00003,0,0,-1.00005,41.782686,41.486276)" stroke-width=".3985" stroke-linecap="butt" stroke-miterlimit="10" stroke-linejoin="miter" fill="none" stroke="#000000" d="M15.87413 1.19049V-1.19061"/>
<path transform="matrix(1.00003,0,0,-1.00005,41.782686,41.486276)" d="M19.01237-3.36249H12.73587V-10.93413H19.01237ZM12.73587-10.93413" fill="#ffffff"/>
<use data-text="2" xlink:href="#font_1_2" transform="matrix(8.966609,0,0,-8.966787,55.415998,51.523977)"/>
<path transform="matrix(1.00003,0,0,-1.00005,41.782686,41.486276)" stroke-width=".3985" stroke-linecap="butt" stroke-miterlimit="10" stroke-linejoin="miter" fill="none" stroke="#00ff00" d="M23.8112 0C23.8112 13.15073 13.15073 23.8112 0 23.8112-13.15073 23.8112-23.8112 13.15073-23.8112 0-23.8112-13.15073-13.15073-23.8112 0-23.8112 13.15073-23.8112 23.8112-13.15073 23.8112 0ZM0 0"/>
<path transform="matrix(1.00003,0,0,-1.00005,41.782686,41.486276)" stroke-width=".3985" stroke-linecap="butt" stroke-miterlimit="10" stroke-linejoin="miter" fill="none" stroke="#000000" d="M23.8112 1.19049V-1.19061"/>
<path transform="matrix(1.00003,0,0,-1.00005,41.782686,41.486276)" d="M26.94945-3.36249H20.67294V-10.93413H26.94945ZM20.67294-10.93413" fill="#ffffff"/>
<use data-text="3" xlink:href="#font_1_3" transform="matrix(8.966609,0,0,-8.966787,63.353239,51.523977)"/>
<path transform="matrix(1.00003,0,0,-1.00005,41.782686,41.486276)" stroke-width=".3985" stroke-linecap="butt" stroke-miterlimit="10" stroke-linejoin="miter" fill="none" stroke="#00ff00" d="M31.74828 0C31.74828 17.5343 17.5343 31.74828 0 31.74828-17.5343 31.74828-31.74828 17.5343-31.74828 0-31.74828-17.5343-17.5343-31.74828 0-31.74828 17.5343-31.74828 31.74828-17.5343 31.74828 0ZM0 0"/>
<path transform="matrix(1.00003,0,0,-1.00005,41.782686,41.486276)" stroke-width=".3985" stroke-linecap="butt" stroke-miterlimit="10" stroke-linejoin="miter" fill="none" stroke="#000000" d="M31.74828 1.19049V-1.19061"/>
<path transform="matrix(1.00003,0,0,-1.00005,41.782686,41.486276)" d="M34.88652-3.36249H28.61003V-10.93413H34.88652ZM28.61003-10.93413" fill="#ffffff"/>
<use data-text="4" xlink:href="#font_1_4" transform="matrix(8.966609,0,0,-8.966787,71.290477,51.523977)"/>
<path transform="matrix(1.00003,0,0,-1.00005,41.782686,41.486276)" stroke-width=".3985" stroke-linecap="butt" stroke-miterlimit="10" stroke-linejoin="miter" fill="none" stroke="#00ff00" d="M39.68535 0C39.68535 21.9179 21.9179 39.68535 0 39.68535-21.9179 39.68535-39.68535 21.9179-39.68535 0-39.68535-21.9179-21.9179-39.68535 0-39.68535 21.9179-39.68535 39.68535-21.9179 39.68535 0ZM0 0"/>
<path transform="matrix(1.00003,0,0,-1.00005,41.782686,41.486276)" stroke-width=".3985" stroke-linecap="butt" stroke-miterlimit="10" stroke-linejoin="miter" fill="none" stroke="#000000" d="M39.68535 1.19049V-1.19061"/>
<path transform="matrix(1.00003,0,0,-1.00005,41.782686,41.486276)" d="M42.8236-3.36249H36.5471V-10.93413H42.8236ZM36.5471-10.93413" fill="#ffffff"/>
<use data-text="5" xlink:href="#font_1_5" transform="matrix(8.966609,0,0,-8.966787,79.227718,51.523977)"/>
<path transform="matrix(1.00003,0,0,-1.00005,41.782686,41.486276)" stroke-width=".79701" stroke-linecap="butt" stroke-miterlimit="10" stroke-linejoin="miter" fill="none" stroke="#ff0000" d="M0 0 12.50539 7.21996"/>
<path transform="matrix(.866036,-.50000497,-.49999503,-.8660533,54.28843,34.265977)" d="M1.0361 0C-.25902 .25902-1.55415 .77707-3.1083 1.68365-1.55415 .51805-1.55415-.51805-3.1083-1.68365-1.55415-.77707-.25902-.25902 1.0361 0Z" fill="#ff0000"/>
<path transform="matrix(.866036,-.50000497,-.49999503,-.8660533,54.28843,34.265977)" stroke-width=".79701" stroke-linecap="butt" stroke-linejoin="round" fill="none" stroke="#ff0000" d="M1.0361 0C-.25902 .25902-1.55415 .77707-3.1083 1.68365-1.55415 .51805-1.55415-.51805-3.1083-1.68365-1.55415-.77707-.25902-.25902 1.0361 0Z"/>
<path transform="matrix(1.00003,0,0,-1.00005,41.782686,41.486276)" d="M15.14255 5.50089H22.20644V11.782949H15.14255Z" fill="#ffffff"/>
<use data-text="z" xlink:href="#font_2_2" transform="matrix(9.962899,0,0,-9.963098,57.922166,34.98895)" fill="#ff0000"/>
<path transform="matrix(1.00003,0,0,-1.00005,41.782686,41.486276)" stroke-width=".79701" stroke-linecap="butt" stroke-miterlimit="10" stroke-linejoin="miter" fill="none" stroke="#0000ff" d="M0 0 7.21996 12.50539"/>
<path transform="matrix(.49999503,-.8660533,-.866036,-.50000497,49.002843,28.98028)" d="M1.0361 0C-.25902 .25902-1.55415 .77707-3.1083 1.68365-1.55415 .51805-1.55415-.51805-3.1083-1.68365-1.55415-.77707-.25902-.25902 1.0361 0Z" fill="#0000ff"/>
<path transform="matrix(.49999503,-.8660533,-.866036,-.50000497,49.002843,28.98028)" stroke-width=".79701" stroke-linecap="butt" stroke-linejoin="round" fill="none" stroke="#0000ff" d="M1.0361 0C-.25902 .25902-1.55415 .77707-3.1083 1.68365-1.55415 .51805-1.55415-.51805-3.1083-1.68365-1.55415-.77707-.25902-.25902 1.0361 0Z"/>
<path transform="matrix(1.00003,0,0,-1.00005,41.782686,41.486276)" d="M8.33574 14.14627H17.72888V20.42833H8.33574Z" fill="#ffffff"/>
<use data-text="w" xlink:href="#font_2_1" transform="matrix(9.962899,0,0,-9.963098,51.114969,26.342518)" fill="#0000ff"/>
<path transform="matrix(1.00003,0,0,-1.00005,41.782686,41.486276)" stroke-width="1.19553" stroke-linecap="butt" stroke-miterlimit="10" stroke-linejoin="miter" fill="none" stroke="#000000" d="M0 0V29.87529"/>
<path transform="matrix(0,-1.00005,-1.00003,-0,41.782686,11.609493)" d="M1.27522 0C-.31879 .31879-1.91284 .9564-3.8257 2.07224-1.91284 .6376-1.91284-.6376-3.8257-2.07224-1.91284-.9564-.31879-.31879 1.27522 0Z"/>
<path transform="matrix(0,-1.00005,-1.00003,-0,41.782686,11.609493)" stroke-width="1.19553" stroke-linecap="butt" stroke-linejoin="round" fill="none" stroke="#000000" d="M1.27522 0C-.31879 .31879-1.91284 .9564-3.8257 2.07224-1.91284 .6376-1.91284-.6376-3.8257-2.07224-1.91284-.9564-.31879-.31879 1.27522 0Z"/>
<path transform="matrix(1.00003,0,0,-1.00005,41.782686,41.486276)" d="M-7.23224 32.34604H7.23226V38.628099H-7.23224Z" fill="#ffffff"/>
<use data-text="z" xlink:href="#font_2_2" transform="matrix(9.962899,0,0,-9.963098,35.546495,8.142609)"/>
<use data-text="w" xlink:href="#font_2_1" transform="matrix(9.962899,0,0,-9.963098,40.607645,8.142609)"/>
</svg>
