<svg xmlns="http://www.w3.org/2000/svg" xmlns:xlink="http://www.w3.org/1999/xlink" version="1.1" width="156" height="97" viewBox="0 0 156 97">
<defs>
<path id="font_1_76" d="M.71598818 .6516113V.6826172L.598999 .6796112 .48199464 .6826172V.6516113C.58499148 .6516113 .58499148 .6046295 .58499148 .577652V.15092469L.23199463 .6696167C.22299195 .6816101 .22200012 .6826172 .20298767 .6826172H.032989503V.6516113H.06199646C.07699585 .6516113 .09700012 .65060427 .11199951 .6496124 .1349945 .64660647 .13598633 .6456146 .13598633 .62661746V.10494995C.13598633 .07795715 .13598633 .0309906 .032989503 .0309906V0L.1499939 .0029907227 .2669983 0V.0309906C.1639862 .0309906 .1639862 .07795715 .1639862 .10494995V.62461856C.16899109 .6196289 .16999817 .6186218 .17399597 .6126251L.58200076 .0129852299C.59098818 .0009918213 .59199526 0 .598999 0 .61299136 0 .61299136 .0069885256 .61299136 .025985718V.577652C.61299136 .6046295 .61299136 .6516113 .71598818 .6516113Z"/>
<path id="font_1_49" d="M.6519928 .2579193H.6269989C.60198977 .10397339 .57899478 .0309906 .40699769 .0309906H.27398683C.22698975 .0309906 .22499085 .037994386 .22499085 .07098389V.33789063H.31498719C.4119873 .33789063 .4229889 .30589295 .4229889 .220932H.44799806V.48606874H.4229889C.4229889 .39994813 .4119873 .36888124 .31498719 .36888124H.22499085V.6087799C.22499085 .6416931 .22698975 .64868167 .27398683 .64868167H.40299989C.55599978 .64868167 .58299258 .59381106 .598999 .45507813H.6239929L.59599307 .6796875H.032989503V.64868167H.056991579C.13398743 .64868167 .13598633 .6377106 .13598633 .6017914V.07797241C.13598633 .041992189 .13398743 .0309906 .056991579 .0309906H.032989503V0H.6100006L.6519928 .2579193Z"/>
<path id="font_2_1" d="M.47698976 .23631287C.47698976 .39337159 .38398744 .4423828 .30999757 .4423828 .17298889 .4423828 .040985109 .29933167 .040985109 .15829468 .040985109 .06526184 .100997928-.0107421879 .20298767-.0107421879 .2659912-.0107421879 .33799745 .012252808 .4139862 .073272708 .4269867 .020248414 .45999146-.0107421879 .5049896-.0107421879 .55799868-.0107421879 .58898928 .044265748 .58898928 .060272218 .58898928 .06726074 .58299258 .07026672 .57699587 .07026672 .56999209 .07026672 .5669861 .06726074 .56399539 .060272218 .54599 .011245728 .5099945 .011245728 .5079956 .011245728 .47698976 .011245728 .47698976 .089279178 .47698976 .11328125 .47698976 .1342926 .47698976 .1362915 .4869995 .14828491 .58099368 .2663269 .60198977 .38235475 .60198977 .38336183 .60198977 .38536073 .6009979 .39337159 .58999636 .39337159 .5799866 .39337159 .5799866 .3903656 .57499697 .37236024 .5569916 .30934144 .5239868 .23332215 .47698976 .17430115V.23631287M.4099884 .09927368C.32199098 .022247315 .24499512 .011245728 .20498657 .011245728 .14498902 .011245728 .114990238 .056259157 .114990238 .120285037 .114990238 .16929627 .14099121 .2773285 .17298889 .32833863 .21998596 .4013672 .27398683 .42037965 .30899049 .42037965 .4079895 .42037965 .4079895 .28933717 .4079895 .21130371 .4079895 .17430115 .4079895 .11628723 .4099884 .09927368Z"/>
<path id="font_2_2" d="M.57499697 .5688782C.57499697 .64401248 .519989 .70606997 .43899537 .70606997 .3809967 .70606997 .35299684 .6900635 .31799317 .664032 .2630005 .62397769 .20799256 .5268097 .18899536 .4506836L.02999878-.18434143C.0289917-.18833924 .033996583-.19433594 .041992189-.19433594 .049987794-.19433594 .052993776-.19233704 .053985597-.18934632L.12399292 .08711243C.14299011 .027236939 .18699646-.009719849 .2599945-.009719849 .33299256-.009719849 .4079895 .025238038 .45298768 .06915283 .5009918 .11505127 .5329895 .17892456 .5329895 .2527771 .5329895 .32461549 .49598695 .37652589 .45999146 .40159608 .5179901 .43466188 .57499697 .49676515 .57499697 .5688782M.394989 .40260316C.38198854 .3975525 .37098695 .39553834 .34700013 .39553834 .33299256 .39553834 .31298829 .39453126 .30299378 .39956666 .30499269 .4096527 .34098817 .4076538 .35198976 .4076538 .37298585 .4076538 .38198854 .4076538 .394989 .40260316M.5189972 .59191897C.5189972 .5218048 .48098756 .44969178 .42900086 .4186554 .4019928 .4286499 .38198854 .43066407 .35198976 .43066407 .33099366 .43066407 .2749939 .43165589 .2749939 .39855958 .27398683 .37052918 .32598878 .3735199 .34399415 .3735199 .3809967 .3735199 .3959961 .37452699 .42599488 .3865204 .46398927 .35057069 .46899415 .31962586 .46998597 .27372743 .47200013 .21585083 .44799806 .14100647 .41999818 .1020813 .3809967 .048202516 .31399537 .012268066 .25698854 .012268066 .18099976 .012268066 .14299011 .07014465 .14299011 .14100647 .14299011 .15098572 .14299011 .16595459 .147995 .184906L.21199036 .43766786C.23399353 .5238037 .30599977 .68307498 .42599488 .68307498 .48399354 .68307498 .5189972 .6520233 .5189972 .59191897Z"/>
<path id="font_3_112" d="M.5799866 .3973236V.44433595C.5549927 .44232179 .526001 .44132997 .5009918 .44132997L.4099884 .44433595V.3973236C.42900086 .3973236 .45799256 .39431764 .45799256 .38632203 .45799256 .38632203 .45799256 .38432313 .45298768 .37431336L.33699037 .12416077 .20999146 .3973236H.2639923V.44433595L.13999939 .44132997 .025985718 .44433595V.3973236H.08999634L.2649994 .021102906C.2769928-.00390625 .2899933-.00390625 .30299378-.00390625 .31999208-.00390625 .32998658-.00091552737 .33999635 .020095826L.5059967 .37631227C.5119934 .39031983 .5159912 .3973236 .5799866 .3973236Z"/>
<path id="font_1_82" d="M.4189911 0V.0309906H.3869934C.29699708 .0309906 .2939911 .041992189 .2939911 .07902527V.64012148C.2939911 .6640167 .2939911 .6660156 .2709961 .6660156 .20899964 .60227969 .12098694 .60227969 .08898926 .60227969V.57128909C.10899353 .57128909 .16799927 .57128909 .21998596 .5972748V.07902527C.21998596 .042999269 .21699524 .0309906 .1269989 .0309906H.09498596V0C.12998963 .0029907227 .21699524 .0029907227 .25698854 .0029907227 .29699708 .0029907227 .38398744 .0029907227 .4189911 0Z"/>
<path id="font_1_56" d="M.44898988 .20091248C.44898988 .31991578 .36698915 .41992188 .25898744 .41992188 .21099854 .41992188 .16799927 .4039154 .13198853 .36891175V.5641022C.1519928 .55778506 .18499756 .55078127 .21699524 .55078127 .33999635 .55078127 .4099884 .6418457 .4099884 .65493777 .4099884 .6609802 .40699769 .6660156 .3999939 .6660156 .3999939 .66607668 .39698792 .66607668 .3919983 .66308596 .37199403 .65408328 .32299806 .63378909 .2559967 .63378909 .21598816 .63409426 .16999817 .641098 .12298584 .6621094 .114990238 .6651001 .11099243 .6651001 .11099243 .6651001 .100997928 .66508486 .100997928 .657074 .100997928 .64108279V.3447113C.100997928 .3266449 .100997928 .31861878 .114990238 .31861878 .12199402 .31861878 .12399292 .32164 .12799073 .32765199 .13899231 .34371949 .17599488 .3979187 .25698854 .3979187 .30899049 .3979187 .33399964 .3517456 .34199525 .3336792 .35798646 .2965393 .3600006 .2574005 .3600006 .20721436 .3600006 .17218018 .3600006 .112197879 .33599855 .07032776 .31199647 .031448366 .2749939 .0055389406 .22898865 .0055389406 .1559906 .0055389406 .09899902 .05836487 .08198547 .1171875 .084991458 .11685181 .08799744 .115859989 .09899902 .115859989 .13198853 .115859989 .14898682 .14085388 .14898682 .16485596 .14898682 .18885803 .13198853 .21386719 .09899902 .21386719 .084991458 .21386719 .049987794 .2068634 .049987794 .16085816 .049987794 .07432556 .11898804-.022460938 .23098755-.022460938 .34700013-.022460938 .44898988 .07331848 .44898988 .20019531V.20091248Z"/>
<path id="font_3_114" d="M.8049927 .3973236V.44433595C.7819977 .44232179 .7519989 .44132997 .7279968 .44132997L.6319885 .44433595V.3973236C.6409912 .3973236 .6899872 .3963318 .6899872 .3853302 .6899872 .38232423 .68699648 .3763275 .6859894 .37332154L.58099368 .11732483 .46699525 .3973236H.522995V.44433595L.40899659 .44132997C.36698915 .44132997 .32499696 .44332887 .30899049 .44433595V.3973236H.36799623C.3889923 .34732057 .3889923 .34432984 .3889923 .34432984 .3889923 .34033204 .38598634 .33433534 .3849945 .33132936L.30599977 .139328 .20098877 .3973236H.25698854V.44433595L.13398743 .44132997 .024993897 .44433595V.3973236H.083999637L.23699951 .023101807C.24398804 .006088257 .24798584-.00390625 .272995-.00390625 .2979889-.00390625 .3019867 .006088257 .30899049 .023101807L.4149933 .28208924 .5209961 .023086548C.5279999 .006088257 .5319977-.00390625 .5569916-.00390625 .58200076-.00390625 .58599856 .006088257 .59298709 .023086548L.7369995 .37608338C.74198916 .389328 .74598696 .3973236 .8049927 .3973236Z"/>
<path id="font_1_101" d="M.45700074 .2036438C.45700074 .33070375 .36799623 .4267578 .25698854 .4267578 .18899536 .4267578 .1519928 .37573243 .13198853 .327713V.35173036C.13198853 .6047821 .2559967 .64100649 .30699159 .64100649 .33099366 .64100649 .37298585 .634964 .394989 .6007538 .37998963 .6007538 .33999635 .6007538 .33999635 .5557556 .33999635 .524765 .3639984 .5097656 .38598634 .5097656 .4019928 .5097656 .43199159 .51875308 .43199159 .5577545 .43199159 .6178589 .3880005 .6660156 .30499269 .6660156 .1769867 .6660156 .041992189 .5367584 .041992189 .31570436 .041992189 .048553468 .1579895-.022460938 .25099183-.022460938 .3619995-.022460938 .45700074 .07156372 .45700074 .2036438M.36698915 .20463562C.36698915 .15661621 .36698915 .10658264 .34999085 .0705719 .31999208 .010528564 .27398683 .0055389406 .25099183 .0055389406 .18798828 .0055389406 .1579895 .06556702 .1519928 .080566409 .13398743 .127594 .13398743 .2076416 .13398743 .22564698 .13398743 .30369569 .1659851 .40374757 .2559967 .40374757 .27198792 .40374757 .31799317 .40374757 .34899903 .34172059 .36698915 .30470277 .36698915 .2536621 .36698915 .20463562Z"/>
<path id="font_4_2" d="M.2939911 .64004519C.2939911 .66400149 .2939911 .6660156 .2709961 .6660156 .20899964 .60227969 .12098694 .60227969 .08898926 .60227969V.57128909C.10899353 .57128909 .16799927 .57128909 .21998596 .5972748V.07902527C.21998596 .042999269 .21699524 .0309906 .1269989 .0309906H.09498596V0C.12998963 .0029907227 .21699524 .0029907227 .25698854 .0029907227 .29699708 .0029907227 .38398744 .0029907227 .4189911 0V.0309906H.3869934C.29699708 .0309906 .2939911 .041992189 .2939911 .07902527V.64004519Z"/>
<path id="font_4_4" d="M.13198853 .327713V.35173036C.13198853 .6047821 .2559967 .64100649 .30699159 .64100649 .33099366 .64100649 .37298585 .634964 .394989 .6007538 .37998963 .6007538 .33999635 .6007538 .33999635 .5557556 .33999635 .524765 .3639984 .5097656 .38598634 .5097656 .4019928 .5097656 .43199159 .51875308 .43199159 .5577545 .43199159 .6178589 .3880005 .6660156 .30499269 .6660156 .1769867 .6660156 .041992189 .5367584 .041992189 .31570436 .041992189 .048553468 .1579895-.022460938 .25099183-.022460938 .3619995-.022460938 .45700074 .07156372 .45700074 .2036438 .45700074 .33070375 .36799623 .4267578 .25698854 .4267578 .18899536 .4267578 .1519928 .37573243 .13198853 .327713M.25099183 .0055389406C.18798828 .0055389406 .1579895 .06556702 .1519928 .080566409 .13398743 .127594 .13398743 .2076416 .13398743 .22564698 .13398743 .30369569 .1659851 .40374757 .2559967 .40374757 .27198792 .40374757 .31799317 .40374757 .34899903 .34172059 .36698915 .30470277 .36698915 .2536621 .36698915 .20463562 .36698915 .15661621 .36698915 .10658264 .34999085 .0705719 .31999208 .010528564 .27398683 .0055389406 .25099183 .0055389406Z"/>
<path id="font_4_1" d="M.45999146 .31976319C.45999146 .39982606 .45498658 .47988893 .41999818 .5539398 .37399293 .65000918 .2919922 .6660156 .25 .6660156 .18998719 .6660156 .116989139 .64001467 .07598877 .54693606 .04399109 .47789 .038986207 .39982606 .038986207 .31976319 .038986207 .24472046 .042999269 .15464783 .083999637 .07859802 .1269989-.0024719239 .19999695-.022460938 .24899292-.022460938 .30299378-.022460938 .3789978-.0014648438 .4229889 .09359741 .45498658 .16265869 .45999146 .2407074 .45999146 .31976319M.24899292-.00047302247C.20999146-.00047302247 .15098572 .024551392 .1329956 .12062073 .12199402 .18066406 .12199402 .2727356 .12199402 .3317871 .12199402 .39582826 .12199402 .46188355 .12998963 .5159149 .14898682 .63500979 .22399903 .64401248 .24899292 .64401248 .28199769 .64401248 .34799195 .6259918 .36698915 .52693179 .3769989 .47088624 .3769989 .39482118 .3769989 .3317871 .3769989 .25672914 .3769989 .18867493 .3659973 .12461853 .35099793 .029556275 .2939911-.00047302247 .24899292-.00047302247Z"/>
<path id="font_5_1" d="M.5069885 .24998474C.5069885 .3710022 .4099884 .4650116 .2919922 .4650116 .17199707 .4650116 .07699585 .36799623 .07699585 .25097657 .07699585 .1299591 .17399597 .035949708 .2919922 .035949708 .4119873 .035949708 .5069885 .13296509 .5069885 .24998474M.2919922 .08496094C.19799805 .08496094 .12599182 .16096497 .12599182 .24998474 .12599182 .34300233 .19999695 .41601563 .2919922 .41601563 .38598634 .41601563 .45799256 .33999635 .45799256 .25097657 .45799256 .15795899 .38398744 .08496094 .2919922 .08496094Z"/>
<path id="font_4_3" d="M.1269989 .07699585 .23298645 .18003845C.3889923 .31811524 .44898988 .3721466 .44898988 .47216798 .44898988 .5860901 .35899354 .6660156 .23699951 .6660156 .12399292 .6660156 .049987794 .57411196 .049987794 .48516847 .049987794 .4291687 .099990848 .4291687 .102996829 .4291687 .11999512 .4291687 .15499878 .44117738 .15499878 .48217774 .15499878 .5081787 .13699341 .5341797 .101989749 .5341797 .09399414 .5341797 .09199524 .5341797 .08898926 .5331726 .11199951 .59806826 .1659851 .63500979 .22399903 .63500979 .31498719 .63500979 .35798646 .5541382 .35798646 .47216798 .35798646 .39215089 .30799867 .31311036 .25299073 .25108338L.06098938 .036987306C.049987794 .025985718 .049987794 .023986817 .049987794 0H.42099L.44898988 .17404175H.42399598C.4189911 .14402771 .4119873 .1000061 .4019928 .084991458 .394989 .07699585 .32899476 .07699585 .30699159 .07699585H.1269989Z"/>
<path id="font_4_5" d="M.16299439 .4569702C.116989139 .486969 .11299133 .52098086 .11299133 .5379791 .11299133 .598999 .17799378 .64100649 .24899292 .64100649 .32199098 .64100649 .38598634 .58898928 .38598634 .51698306 .38598634 .45996095 .34700013 .4119568 .2869873 .37695313L.16299439 .4569702M.30899049 .36193849C.3809967 .3989563 .42999269 .45095826 .42999269 .51698306 .42999269 .6090088 .34098817 .6660156 .25 .6660156 .1499939 .6660156 .068984989 .59199526 .068984989 .49897767 .068984989 .4809723 .070999149 .43595887 .11299133 .38894654 .12399292 .37695313 .16099549 .35194398 .18598938 .33494569 .12799073 .30592347 .041992189 .24984741 .041992189 .15072632 .041992189 .04458618 .14399719-.022460938 .24899292-.022460938 .3619995-.022460938 .45700074 .06060791 .45700074 .16773987 .45700074 .20379639 .44599916 .24885559 .4079895 .2909088 .3889923 .31193543 .37298585 .3219452 .30899049 .36193849M.20899964 .3199463 .33198548 .24183655C.3600006 .2228241 .40699769 .19277954 .40699769 .13169861 .40699769 .05760193 .33198548 .0055389406 .25 .0055389406 .1639862 .0055389406 .09199524 .067611698 .09199524 .15072632 .09199524 .20880127 .12399292 .27288819 .20899964 .3199463Z"/>
<path id="font_1_28" d="M.48298646 .08912659V.14511109H.45799256V.08912659C.45799256 .03112793 .43299867 .025131226 .42199708 .025131226 .3889923 .025131226 .3849945 .070129398 .3849945 .07511902V.27508546C.3849945 .31707765 .3849945 .3560791 .34899903 .39312745 .30999757 .43223573 .2599945 .4482422 .21199036 .4482422 .12998963 .4482422 .06098938 .40115357 .06098938 .335083 .06098938 .30508424 .08099365 .28808595 .10699463 .28808595 .1349945 .28808595 .15299988 .30807496 .15299988 .33407594 .15299988 .3460846 .147995 .37908937 .101989749 .38008119 .1289978 .41519166 .17799378 .426239 .20999146 .426239 .25898744 .426239 .31599427 .38710023 .31599427 .29808045V.26107789C.2649994 .25808717 .19499207 .25508119 .13198853 .22509766 .056991579 .19110108 .03199768 .13911438 .03199768 .09512329 .03199768 .014251709 .1289978-.0107421879 .19198609-.0107421879 .2579956-.0107421879 .3039856 .029251099 .32299806 .07624817 .32699586 .036132814 .35398866-.005859375 .40098573-.005859375 .42199708-.005859375 .48298646 .008132935 .48298646 .08912659M.31599427 .14013672C.31599427 .04525757 .24398804 .011245728 .19898987 .011245728 .1499939 .011245728 .10899353 .04624939 .10899353 .09625244 .10899353 .15124512 .15098572 .23425293 .31599427 .24024964V.14013672Z"/>
<path id="font_1_88" d="M.19198609 .052993776C.19198609 .08198547 .16799927 .10598755 .13899231 .10598755 .10998535 .10598755 .085998538 .08198547 .085998538 .052993776 .085998538 .023986817 .10998535 0 .13899231 0 .16799927 0 .19198609 .023986817 .19198609 .052993776Z"/>
</defs>
<path transform="matrix(1.00002,0,0,-1,108.92789,46.678)" stroke-width=".3985" stroke-linecap="butt" stroke-miterlimit="10" stroke-linejoin="miter" fill="none" stroke="#929292" d="M0-35.43349V34.43723"/>
<path transform="matrix(0,-1,-1.00002,-0,108.92789,12.240772)" d="M.797 0C-.19925 .19925-1.19551 .59775-2.39102 1.29512-1.19551 .3985-1.19551-.3985-2.39102-1.29512-1.19551-.59775-.19925-.19925 .797 0Z" fill="#929292"/>
<path transform="matrix(0,-1,-1.00002,-0,108.92789,12.240772)" stroke-width=".3985" stroke-linecap="butt" stroke-linejoin="round" fill="none" stroke="#929292" d="M.797 0C-.19925 .19925-1.19551 .59775-2.39102 1.29512-1.19551 .3985-1.19551-.3985-2.39102-1.29512-1.19551-.59775-.19925-.19925 .797 0Z"/>
<use data-text="N" xlink:href="#font_1_76" transform="matrix(9.962799,0,0,-9.9626,105.19181,7.7250025)"/>
<path transform="matrix(1.00002,0,0,-1,108.92789,46.678)" stroke-width=".3985" stroke-linecap="butt" stroke-miterlimit="10" stroke-linejoin="miter" fill="none" stroke="#929292" d="M-85.04042 0H34.43723"/>
<path transform="matrix(1.00002,0,0,-1,143.36582,46.678)" d="M.797 0C-.19925 .19925-1.19551 .59775-2.39102 1.29512-1.19551 .3985-1.19551-.3985-2.39102-1.29512-1.19551-.59775-.19925-.19925 .797 0Z" fill="#929292"/>
<path transform="matrix(1.00002,0,0,-1,143.36582,46.678)" stroke-width=".3985" stroke-linecap="butt" stroke-linejoin="round" fill="none" stroke="#929292" d="M.797 0C-.19925 .19925-1.19551 .59775-2.39102 1.29512-1.19551 .3985-1.19551-.3985-2.39102-1.29512-1.19551-.59775-.19925-.19925 .797 0Z"/>
<use data-text="E" xlink:href="#font_1_49" transform="matrix(9.962799,0,0,-9.9626,147.88167,50.065004)"/>
<path transform="matrix(1.00002,0,0,-1,108.92789,46.678)" stroke-width=".3985" stroke-linecap="butt" stroke-miterlimit="10" stroke-linejoin="miter" fill="none" stroke="#ff0000" d="M-70.867 .99626C-70.867 4.12315-70.50691 8.24524-69.96397 11.32457"/>
<path transform="matrix(0,1,1.00002,0,38.05947,45.68174)" d="M.797 0C-.19925 .19925-1.19551 .59775-2.39102 1.29512-1.19551 .3985-1.19551-.3985-2.39102-1.29512-1.19551-.59775-.19925-.19925 .797 0Z" fill="#ff0000"/>
<path transform="matrix(0,1,1.00002,0,38.05947,45.68174)" stroke-width=".3985" stroke-linecap="butt" stroke-linejoin="round" fill="none" stroke="#ff0000" d="M.797 0C-.19925 .19925-1.19551 .59775-2.39102 1.29512-1.19551 .3985-1.19551-.3985-2.39102-1.29512-1.19551-.59775-.19925-.19925 .797 0Z"/>
<path transform="matrix(.17358348,-.9848,-.9848197,-.17358,38.962518,35.35343)" d="M.797 0C-.19925 .19925-1.19551 .59775-2.39102 1.29512-1.19551 .3985-1.19551-.3985-2.39102-1.29512-1.19551-.59775-.19925-.19925 .797 0Z" fill="#ff0000"/>
<path transform="matrix(.17358348,-.9848,-.9848197,-.17358,38.962518,35.35343)" stroke-width=".3985" stroke-linecap="butt" stroke-linejoin="round" fill="none" stroke="#ff0000" d="M.797 0C-.19925 .19925-1.19551 .59775-2.39102 1.29512-1.19551 .3985-1.19551-.3985-2.39102-1.29512-1.19551-.59775-.19925-.19925 .797 0Z"/>
<use data-text="&#x03b1;" xlink:href="#font_2_1" transform="matrix(9.962799,0,0,-9.9626,28.399277,42.646)" fill="#ff0000"/>
<path transform="matrix(1.00002,0,0,-1,108.92789,46.678)" stroke-width=".3985" stroke-linecap="butt" stroke-miterlimit="10" stroke-linejoin="miter" fill="none" stroke="#ff0000" d="M.99626-31.89014C3.71912-31.89014 7.41245-31.23906 9.97105-30.3078"/>
<path transform="matrix(-1.00002,-0,0,1,109.924167,78.568149)" d="M.797 0C-.19925 .19925-1.19551 .59775-2.39102 1.29512-1.19551 .3985-1.19551-.3985-2.39102-1.29512-1.19551-.59775-.19925-.19925 .797 0Z" fill="#ff0000"/>
<path transform="matrix(-1.00002,-0,0,1,109.924167,78.568149)" stroke-width=".3985" stroke-linecap="butt" stroke-linejoin="round" fill="none" stroke="#ff0000" d="M.797 0C-.19925 .19925-1.19551 .59775-2.39102 1.29512-1.19551 .3985-1.19551-.3985-2.39102-1.29512-1.19551-.59775-.19925-.19925 .797 0Z"/>
<path transform="matrix(.9396988,-.34201,-.34201686,-.93968,118.89914,76.985828)" d="M.797 0C-.19925 .19925-1.19551 .59775-2.39102 1.29512-1.19551 .3985-1.19551-.3985-2.39102-1.29512-1.19551-.59775-.19925-.19925 .797 0Z" fill="#ff0000"/>
<path transform="matrix(.9396988,-.34201,-.34201686,-.93968,118.89914,76.985828)" stroke-width=".3985" stroke-linecap="butt" stroke-linejoin="round" fill="none" stroke="#ff0000" d="M.797 0C-.19925 .19925-1.19551 .59775-2.39102 1.29512-1.19551 .3985-1.19551-.3985-2.39102-1.29512-1.19551-.59775-.19925-.19925 .797 0Z"/>
<use data-text="&#x03b2;" xlink:href="#font_2_2" transform="matrix(9.962799,0,0,-9.9626,111.38493,88.522)" fill="#ff0000"/>
<path transform="matrix(1.00002,0,0,-1,108.92789,46.678)" stroke-width=".79701" stroke-linecap="butt" stroke-miterlimit="10" stroke-linejoin="miter" fill="none" stroke="#00b300" d="M0 0-103.27382 18.20946"/>
<path transform="matrix(-.9848197,-.17363,-.17363347,.9848,5.6520006,28.468543)" d="M1.0361 0C-.25902 .25902-1.55415 .77707-3.1083 1.68365-1.55415 .51805-1.55415-.51805-3.1083-1.68365-1.55415-.77707-.25902-.25902 1.0361 0Z" fill="#00b300"/>
<path transform="matrix(-.9848197,-.17363,-.17363347,.9848,5.6520006,28.468543)" stroke-width=".79701" stroke-linecap="butt" stroke-linejoin="round" fill="none" stroke="#00b300" d="M1.0361 0C-.25902 .25902-1.55415 .77707-3.1083 1.68365-1.55415 .51805-1.55415-.51805-3.1083-1.68365-1.55415-.77707-.25902-.25902 1.0361 0Z"/>
<use data-text="v" xlink:href="#font_3_112" transform="matrix(9.962799,0,0,-9.9626,1.2157288,24.461003)" fill="#00b300"/>
<use data-text="1" xlink:href="#font_1_82" transform="matrix(9.962799,0,0,-9.9626,51.60173,33.71)" fill="#0000ff"/>
<use data-text="5" xlink:href="#font_1_56" transform="matrix(9.962799,0,0,-9.9626,56.583116,33.71)" fill="#0000ff"/>
<path transform="matrix(1.00002,0,0,-1,108.92789,46.678)" stroke-width=".79701" stroke-linecap="butt" stroke-miterlimit="10" stroke-linejoin="miter" fill="none" stroke="#00b300" d="M0 0 14.05235-38.60805"/>
<path transform="matrix(.34201686,.93968,.9396988,-.34201,122.98051,85.286029)" d="M1.0361 0C-.25902 .25902-1.55415 .77707-3.1083 1.68365-1.55415 .51805-1.55415-.51805-3.1083-1.68365-1.55415-.77707-.25902-.25902 1.0361 0Z" fill="#00b300"/>
<path transform="matrix(.34201686,.93968,.9396988,-.34201,122.98051,85.286029)" stroke-width=".79701" stroke-linecap="butt" stroke-linejoin="round" fill="none" stroke="#00b300" d="M1.0361 0C-.25902 .25902-1.55415 .77707-3.1083 1.68365-1.55415 .51805-1.55415-.51805-3.1083-1.68365-1.55415-.77707-.25902-.25902 1.0361 0Z"/>
<use data-text="w" xlink:href="#font_3_114" transform="matrix(9.962799,0,0,-9.9626,127.190258,88.826007)" fill="#00b300"/>
<use data-text="6" xlink:href="#font_1_101" transform="matrix(9.962799,0,0,-9.9626,119.4181,71.94)" fill="#0000ff"/>
<path transform="matrix(1.00002,0,0,-1,108.92789,46.678)" stroke-width=".3985" stroke-linecap="butt" stroke-miterlimit="10" stroke-linejoin="miter" fill="none" stroke="#ff0000" d="M0 14.17339C7.82784 14.17339 14.17339 7.82784 14.17339 0 14.17339-5.95753 10.44576-11.28123 5.78383-12.97798"/>
<path transform="matrix(-.93971887,.342,.34200687,.9397,114.711849,59.65597)" d="M.797 0C-.19925 .19925-1.19551 .59775-2.39102 1.29512-1.19551 .3985-1.19551-.3985-2.39102-1.29512-1.19551-.59775-.19925-.19925 .797 0Z" fill="#ff0000"/>
<path transform="matrix(-.93971887,.342,.34200687,.9397,114.711849,59.65597)" stroke-width=".3985" stroke-linecap="butt" stroke-linejoin="round" fill="none" stroke="#ff0000" d="M.797 0C-.19925 .19925-1.19551 .59775-2.39102 1.29512-1.19551 .3985-1.19551-.3985-2.39102-1.29512-1.19551-.59775-.19925-.19925 .797 0Z"/>
<use data-text="1" xlink:href="#font_4_2" transform="matrix(9.962799,0,0,-9.9626,121.42514,58.582)" fill="#ff0000"/>
<use data-text="6" xlink:href="#font_4_4" transform="matrix(9.962799,0,0,-9.9626,126.406528,58.582)" fill="#ff0000"/>
<use data-text="0" xlink:href="#font_4_1" transform="matrix(9.962799,0,0,-9.9626,131.38793,58.582)" fill="#ff0000"/>
<use data-text="&#x25e6;" xlink:href="#font_5_1" transform="matrix(6.97394,0,0,-6.9738,136.36943,54.966005)" fill="#ff0000"/>
<path transform="matrix(1.00002,0,0,-1,108.92789,46.678)" stroke-width=".3985" stroke-linecap="butt" stroke-miterlimit="10" stroke-linejoin="miter" fill="none" stroke="#ff0000" d="M0 10.63004C5.87088 10.63004 10.63004 5.87088 10.63004 0 10.63004-5.87088 5.87088-10.63004 0-10.63004-3.79727-10.63004-7.30734-8.60347-9.2059-5.31502-10.45534-3.15092-10.90251-.61507-10.64157 .86472"/>
<path transform="matrix(.17360348,-.9848,-.9848197,-.1736,98.28609,45.813283)" d="M.797 0C-.19925 .19925-1.19551 .59775-2.39102 1.29512-1.19551 .3985-1.19551-.3985-2.39102-1.29512-1.19551-.59775-.19925-.19925 .797 0Z" fill="#ff0000"/>
<path transform="matrix(.17360348,-.9848,-.9848197,-.1736,98.28609,45.813283)" stroke-width=".3985" stroke-linecap="butt" stroke-linejoin="round" fill="none" stroke="#ff0000" d="M.797 0C-.19925 .19925-1.19551 .59775-2.39102 1.29512-1.19551 .3985-1.19551-.3985-2.39102-1.29512-1.19551-.59775-.19925-.19925 .797 0Z"/>
<use data-text="2" xlink:href="#font_4_3" transform="matrix(9.962799,0,0,-9.9626,75.414218,58.225004)" fill="#ff0000"/>
<use data-text="8" xlink:href="#font_4_5" transform="matrix(9.962799,0,0,-9.9626,80.3956,58.225004)" fill="#ff0000"/>
<use data-text="0" xlink:href="#font_4_1" transform="matrix(9.962799,0,0,-9.9626,85.377,58.225004)" fill="#ff0000"/>
<use data-text="&#x25e6;" xlink:href="#font_5_1" transform="matrix(6.97394,0,0,-6.9738,90.358509,54.609)" fill="#ff0000"/>
<use data-text="a" xlink:href="#font_1_28" transform="matrix(9.962799,0,0,-9.9626,55.44481,94.918)"/>
<use data-text="." xlink:href="#font_1_88" transform="matrix(9.962799,0,0,-9.9626,60.426195,94.918)"/>
</svg>
