<svg xmlns="http://www.w3.org/2000/svg" xmlns:xlink="http://www.w3.org/1999/xlink" version="1.1" width="80" height="96" viewBox="0 0 80 96">
<defs>
<path id="font_1_1" d="M.2939911 .64004519C.2939911 .66400149 .2939911 .6660156 .2709961 .6660156 .20899964 .60227969 .12098694 .60227969 .08898926 .60227969V.57128909C.10899353 .57128909 .16799927 .57128909 .21998596 .5972748V.07902527C.21998596 .042999269 .21699524 .0309906 .1269989 .0309906H.09498596V0C.12998963 .0029907227 .21699524 .0029907227 .25698854 .0029907227 .29699708 .0029907227 .38398744 .0029907227 .4189911 0V.0309906H.3869934C.29699708 .0309906 .2939911 .041992189 .2939911 .07902527V.64004519Z"/>
<path id="font_1_2" d="M.1269989 .07699585 .23298645 .18003845C.3889923 .31811524 .44898988 .3721466 .44898988 .47216798 .44898988 .5860901 .35899354 .6660156 .23699951 .6660156 .12399292 .6660156 .049987794 .57411196 .049987794 .48516847 .049987794 .4291687 .099990848 .4291687 .102996829 .4291687 .11999512 .4291687 .15499878 .44117738 .15499878 .48217774 .15499878 .5081787 .13699341 .5341797 .101989749 .5341797 .09399414 .5341797 .09199524 .5341797 .08898926 .5331726 .11199951 .59806826 .1659851 .63500979 .22399903 .63500979 .31498719 .63500979 .35798646 .5541382 .35798646 .47216798 .35798646 .39215089 .30799867 .31311036 .25299073 .25108338L.06098938 .036987306C.049987794 .025985718 .049987794 .023986817 .049987794 0H.42099L.44898988 .17404175H.42399598C.4189911 .14402771 .4119873 .1000061 .4019928 .084991458 .394989 .07699585 .32899476 .07699585 .30699159 .07699585H.1269989Z"/>
<path id="font_1_3" d="M.2899933 .35191346C.37199403 .37893678 .42999269 .4490509 .42999269 .52809146 .42999269 .6100464 .34199525 .6660156 .24598694 .6660156 .14498902 .6660156 .068984989 .60606387 .068984989 .53009036 .068984989 .49710084 .09098816 .47808839 .11999512 .47808839 .15098572 .47808839 .17098999 .50009158 .17098999 .5290985 .17098999 .57910159 .12399292 .57910159 .10899353 .57910159 .13999939 .62802127 .20599365 .64100649 .24198914 .64100649 .2829895 .64100649 .33799745 .6190338 .33799745 .5290985 .33799745 .51708987 .33599855 .45906068 .30999757 .4149933 .27999879 .36691285 .24598694 .36390687 .22099304 .36291505 .21299744 .36190797 .18899536 .35990907 .18199158 .35990907 .17399597 .35890199 .16699219 .35791017 .16699219 .3479004 .16699219 .33691407 .17399597 .33691407 .19099427 .33691407H.23498535C.31698609 .33691407 .35398866 .2686615 .35398866 .17037964 .35398866 .034469606 .2849884 .0055389406 .24099732 .0055389406 .19799805 .0055389406 .12298584 .022491456 .08799744 .08137512 .12298584 .07637024 .1539917 .09837341 .1539917 .1363678 .1539917 .17237854 .1269989 .19238281 .09799194 .19238281 .07398987 .19238281 .041992189 .17837525 .041992189 .1343689 .041992189 .043441774 .1349945-.022460938 .24398804-.022460938 .3659973-.022460938 .45700074 .06838989 .45700074 .17037964 .45700074 .252594 .3939972 .33088685 .2899933 .35191346Z"/>
<path id="font_2_35" d="M.5209961 .2163086C.5209961 .34335328 .4229889 .4423828 .30899049 .4423828 .23098755 .4423828 .18798828 .39537049 .17199707 .3773651V.69433596L.027999878 .68333438V.6523285C.09799194 .6523285 .10598755 .6453247 .10598755 .596344V.00024414063H.1309967L.16699219 .06227112C.18199158 .039260866 .22399903-.0107421879 .2979889-.0107421879 .4169922-.0107421879 .5209961 .08728027 .5209961 .2163086M.43798829 .21731568C.43798829 .18029785 .43598939 .120285037 .40699769 .07527161 .38598634 .044265748 .34799195 .011245728 .2939911 .011245728 .24899292 .011260986 .21299744 .03526306 .18899536 .072265628 .1749878 .09326172 .1749878 .09625244 .1749878 .11425781V.32034303C.1749878 .3393402 .1749878 .3403473 .18598938 .35635377 .22499085 .41236878 .27999879 .42037965 .3039856 .42037965 .34899903 .42037965 .3849945 .3943634 .40899659 .35635377 .43499757 .31533814 .43798829 .25831605 .43798829 .21730042V.21731568Z"/>
<path id="font_2_88" d="M.19198609 .052993776C.19198609 .08198547 .16799927 .10598755 .13899231 .10598755 .10998535 .10598755 .085998538 .08198547 .085998538 .052993776 .085998538 .023986817 .10998535 0 .13899231 0 .16799927 0 .19198609 .023986817 .19198609 .052993776Z"/>
</defs>
<path transform="matrix(1.00008,0,0,-1.00005,40.366708,43.0754)" stroke-width=".3985" stroke-linecap="butt" stroke-miterlimit="10" stroke-linejoin="miter" fill="none" stroke="#00aeef" d="M0 0H38.26791"/>
<path transform="matrix(1.00008,0,0,-1.00005,40.366708,43.0754)" stroke-width=".3985" stroke-linecap="butt" stroke-miterlimit="10" stroke-linejoin="miter" fill="none" stroke="#00aeef" d="M0 0 36.96402 9.90448"/>
<path transform="matrix(1.00008,0,0,-1.00005,40.366708,43.0754)" stroke-width=".3985" stroke-linecap="butt" stroke-miterlimit="10" stroke-linejoin="miter" fill="none" stroke="#00aeef" d="M0 0 33.14108 19.13394"/>
<path transform="matrix(1.00008,0,0,-1.00005,40.366708,43.0754)" stroke-width=".3985" stroke-linecap="butt" stroke-miterlimit="10" stroke-linejoin="miter" fill="none" stroke="#00aeef" d="M0 0 27.05952 27.05952"/>
<path transform="matrix(1.00008,0,0,-1.00005,40.366708,43.0754)" stroke-width=".3985" stroke-linecap="butt" stroke-miterlimit="10" stroke-linejoin="miter" fill="none" stroke="#00aeef" d="M0 0 19.13394 33.14108"/>
<path transform="matrix(1.00008,0,0,-1.00005,40.366708,43.0754)" stroke-width=".3985" stroke-linecap="butt" stroke-miterlimit="10" stroke-linejoin="miter" fill="none" stroke="#00aeef" d="M0 0 9.90448 36.96402"/>
<path transform="matrix(1.00008,0,0,-1.00005,40.366708,43.0754)" stroke-width=".3985" stroke-linecap="butt" stroke-miterlimit="10" stroke-linejoin="miter" fill="none" stroke="#00aeef" d="M0 0V38.26791"/>
<path transform="matrix(1.00008,0,0,-1.00005,40.366708,43.0754)" stroke-width=".3985" stroke-linecap="butt" stroke-miterlimit="10" stroke-linejoin="miter" fill="none" stroke="#00aeef" d="M0 0-9.90448 36.96402"/>
<path transform="matrix(1.00008,0,0,-1.00005,40.366708,43.0754)" stroke-width=".3985" stroke-linecap="butt" stroke-miterlimit="10" stroke-linejoin="miter" fill="none" stroke="#00aeef" d="M0 0-19.13394 33.14108"/>
<path transform="matrix(1.00008,0,0,-1.00005,40.366708,43.0754)" stroke-width=".3985" stroke-linecap="butt" stroke-miterlimit="10" stroke-linejoin="miter" fill="none" stroke="#00aeef" d="M0 0-27.05952 27.05952"/>
<path transform="matrix(1.00008,0,0,-1.00005,40.366708,43.0754)" stroke-width=".3985" stroke-linecap="butt" stroke-miterlimit="10" stroke-linejoin="miter" fill="none" stroke="#00aeef" d="M0 0-33.14108 19.13394"/>
<path transform="matrix(1.00008,0,0,-1.00005,40.366708,43.0754)" stroke-width=".3985" stroke-linecap="butt" stroke-miterlimit="10" stroke-linejoin="miter" fill="none" stroke="#00aeef" d="M0 0-36.96402 9.90448"/>
<path transform="matrix(1.00008,0,0,-1.00005,40.366708,43.0754)" stroke-width=".3985" stroke-linecap="butt" stroke-miterlimit="10" stroke-linejoin="miter" fill="none" stroke="#00aeef" d="M0 0H-38.26791"/>
<path transform="matrix(1.00008,0,0,-1.00005,40.366708,43.0754)" stroke-width=".3985" stroke-linecap="butt" stroke-miterlimit="10" stroke-linejoin="miter" fill="none" stroke="#00aeef" d="M0 0-36.96402-9.90448"/>
<path transform="matrix(1.00008,0,0,-1.00005,40.366708,43.0754)" stroke-width=".3985" stroke-linecap="butt" stroke-miterlimit="10" stroke-linejoin="miter" fill="none" stroke="#00aeef" d="M0 0-33.14108-19.13394"/>
<path transform="matrix(1.00008,0,0,-1.00005,40.366708,43.0754)" stroke-width=".3985" stroke-linecap="butt" stroke-miterlimit="10" stroke-linejoin="miter" fill="none" stroke="#00aeef" d="M0 0-27.05952-27.05952"/>
<path transform="matrix(1.00008,0,0,-1.00005,40.366708,43.0754)" stroke-width=".3985" stroke-linecap="butt" stroke-miterlimit="10" stroke-linejoin="miter" fill="none" stroke="#00aeef" d="M0 0-19.13394-33.14108"/>
<path transform="matrix(1.00008,0,0,-1.00005,40.366708,43.0754)" stroke-width=".3985" stroke-linecap="butt" stroke-miterlimit="10" stroke-linejoin="miter" fill="none" stroke="#00aeef" d="M0 0-9.90448-36.96402"/>
<path transform="matrix(1.00008,0,0,-1.00005,40.366708,43.0754)" stroke-width=".3985" stroke-linecap="butt" stroke-miterlimit="10" stroke-linejoin="miter" fill="none" stroke="#00aeef" d="M0 0V-38.26791"/>
<path transform="matrix(1.00008,0,0,-1.00005,40.366708,43.0754)" stroke-width=".3985" stroke-linecap="butt" stroke-miterlimit="10" stroke-linejoin="miter" fill="none" stroke="#00aeef" d="M0 0 9.90448-36.96402"/>
<path transform="matrix(1.00008,0,0,-1.00005,40.366708,43.0754)" stroke-width=".3985" stroke-linecap="butt" stroke-miterlimit="10" stroke-linejoin="miter" fill="none" stroke="#00aeef" d="M0 0 19.13394-33.14108"/>
<path transform="matrix(1.00008,0,0,-1.00005,40.366708,43.0754)" stroke-width=".3985" stroke-linecap="butt" stroke-miterlimit="10" stroke-linejoin="miter" fill="none" stroke="#00aeef" d="M0 0 27.05952-27.05952"/>
<path transform="matrix(1.00008,0,0,-1.00005,40.366708,43.0754)" stroke-width=".3985" stroke-linecap="butt" stroke-miterlimit="10" stroke-linejoin="miter" fill="none" stroke="#00aeef" d="M0 0 33.14108-19.13394"/>
<path transform="matrix(1.00008,0,0,-1.00005,40.366708,43.0754)" stroke-width=".3985" stroke-linecap="butt" stroke-miterlimit="10" stroke-linejoin="miter" fill="none" stroke="#00aeef" d="M0 0 36.96402-9.90448"/>
<path transform="matrix(1.00008,0,0,-1.00005,40.366708,43.0754)" stroke-width=".3985" stroke-linecap="butt" stroke-miterlimit="10" stroke-linejoin="miter" fill="none" stroke="#00aeef" d="M6.37796 0C6.37796 3.52249 3.52249 6.37796 0 6.37796-3.52249 6.37796-6.37796 3.52249-6.37796 0-6.37796-3.52249-3.52249-6.37796 0-6.37796 3.52249-6.37796 6.37796-3.52249 6.37796 0ZM0 0"/>
<path transform="matrix(1.00008,0,0,-1.00005,40.366708,43.0754)" stroke-width=".3985" stroke-linecap="butt" stroke-miterlimit="10" stroke-linejoin="miter" fill="none" stroke="#00aeef" d="M12.75595 0C12.75595 7.045 7.045 12.75595 0 12.75595-7.045 12.75595-12.75595 7.045-12.75595 0-12.75595-7.045-7.045-12.75595 0-12.75595 7.045-12.75595 12.75595-7.045 12.75595 0ZM0 0"/>
<path transform="matrix(1.00008,0,0,-1.00005,40.366708,43.0754)" stroke-width=".3985" stroke-linecap="butt" stroke-miterlimit="10" stroke-linejoin="miter" fill="none" stroke="#00aeef" d="M19.13394 0C19.13394 10.5675 10.5675 19.13394 0 19.13394-10.5675 19.13394-19.13394 10.5675-19.13394 0-19.13394-10.5675-10.5675-19.13394 0-19.13394 10.5675-19.13394 19.13394-10.5675 19.13394 0ZM0 0"/>
<path transform="matrix(1.00008,0,0,-1.00005,40.366708,43.0754)" stroke-width=".3985" stroke-linecap="butt" stroke-miterlimit="10" stroke-linejoin="miter" fill="none" stroke="#00aeef" d="M25.51193 0C25.51193 14.09003 14.09003 25.51193 0 25.51193-14.09003 25.51193-25.51193 14.09003-25.51193 0-25.51193-14.09003-14.09003-25.51193 0-25.51193 14.09003-25.51193 25.51193-14.09003 25.51193 0ZM0 0"/>
<path transform="matrix(1.00008,0,0,-1.00005,40.366708,43.0754)" stroke-width=".3985" stroke-linecap="butt" stroke-miterlimit="10" stroke-linejoin="miter" fill="none" stroke="#00aeef" d="M31.88992 0C31.88992 17.61253 17.61253 31.88992 0 31.88992-17.61253 31.88992-31.88992 17.61253-31.88992 0-31.88992-17.61253-17.61253-31.88992 0-31.88992 17.61253-31.88992 31.88992-17.61253 31.88992 0ZM0 0"/>
<path transform="matrix(1.00008,0,0,-1.00005,40.366708,43.0754)" stroke-width=".3985" stroke-linecap="butt" stroke-miterlimit="10" stroke-linejoin="miter" fill="none" stroke="#00aeef" d="M38.26791 0C38.26791 21.13504 21.13504 38.26791 0 38.26791-21.13504 38.26791-38.26791 21.13504-38.26791 0-38.26791-21.13504-21.13504-38.26791 0-38.26791 21.13504-38.26791 38.26791-21.13504 38.26791 0ZM0 0"/>
<path transform="matrix(1.00008,0,0,-1.00005,40.366708,43.0754)" stroke-width=".3985" stroke-linecap="butt" stroke-miterlimit="10" stroke-linejoin="miter" fill="none" stroke="#00aeef" d="M12.75595 0C12.75595 7.045 7.045 12.75595 0 12.75595-7.045 12.75595-12.75595 7.045-12.75595 0-12.75595-7.045-7.045-12.75595 0-12.75595 7.045-12.75595 12.75595-7.045 12.75595 0ZM0 0"/>
<path transform="matrix(1.00008,0,0,-1.00005,40.366708,43.0754)" d="M-3.48697 8.54947H3.48697V16.96245H-3.48697Z" fill="#ffffff"/>
<use data-text="1" xlink:href="#font_1_1" transform="matrix(9.963397,0,0,-9.963098,37.87551,33.528924)"/>
<path transform="matrix(1.00008,0,0,-1.00005,40.366708,43.0754)" stroke-width=".3985" stroke-linecap="butt" stroke-miterlimit="10" stroke-linejoin="miter" fill="none" stroke="#00aeef" d="M25.51193 0C25.51193 14.09003 14.09003 25.51193 0 25.51193-14.09003 25.51193-25.51193 14.09003-25.51193 0-25.51193-14.09003-14.09003-25.51193 0-25.51193 14.09003-25.51193 25.51193-14.09003 25.51193 0ZM0 0"/>
<path transform="matrix(1.00008,0,0,-1.00005,40.366708,43.0754)" d="M-3.48697 21.30545H3.48697V29.71843H-3.48697Z" fill="#ffffff"/>
<use data-text="2" xlink:href="#font_1_2" transform="matrix(9.963397,0,0,-9.963098,37.87551,20.772288)"/>
<path transform="matrix(1.00008,0,0,-1.00005,40.366708,43.0754)" stroke-width=".3985" stroke-linecap="butt" stroke-miterlimit="10" stroke-linejoin="miter" fill="none" stroke="#00aeef" d="M38.26791 0C38.26791 21.13504 21.13504 38.26791 0 38.26791-21.13504 38.26791-38.26791 21.13504-38.26791 0-38.26791-21.13504-21.13504-38.26791 0-38.26791 21.13504-38.26791 38.26791-21.13504 38.26791 0ZM0 0"/>
<path transform="matrix(1.00008,0,0,-1.00005,40.366708,43.0754)" d="M-3.48697 34.06142H3.48697V42.4744H-3.48697Z" fill="#ffffff"/>
<use data-text="3" xlink:href="#font_1_3" transform="matrix(9.963397,0,0,-9.963098,37.87551,8.015652)"/>
<path transform="matrix(1.00008,0,0,-1.00005,40.366708,43.0754)" stroke-width="1.19553" stroke-linecap="butt" stroke-miterlimit="10" stroke-linejoin="miter" fill="none" stroke="#ff0000" d="M25.51193 0C25.51193 0 25.50514 .4523 25.4985 .62575 25.49185 .79921 25.47678 1.07703 25.46405 1.25015 25.45134 1.4233 25.426 1.701 25.40683 1.8736 25.38766 2.04619 25.35115 2.32245 25.32587 2.49411 25.30058 2.66579 25.25641 2.94049 25.22466 3.11093 25.19289 3.28136 25.13507 3.55356 25.09697 3.72249 25.05885 3.8914 24.99394 4.16104 24.95001 4.3284 24.90608 4.49576 24.8306 4.76324 24.78029 4.92867 24.72998 5.09412 24.64351 5.35748 24.5874 5.52077 24.53127 5.68404 24.43787 5.94461 24.37582 6.10547 24.31377 6.26634 24.20801 6.52205 24.1401 6.68024 24.07222 6.83844 23.95988 7.09029 23.88649 7.24568 23.81308 7.40106 23.69005 7.648 23.61108 7.8002 23.5321 7.95241 23.4016 8.19377 23.31737 8.34267 23.23312 8.4916 23.0936 8.72807 23.004 8.87346 22.91438 9.01886 22.7662 9.24898 22.67155 9.39063 22.57689 9.53226 22.42137 9.75668 22.32178 9.89435 22.22218 10.03203 22.0581 10.24933 21.95372 10.3829 21.8493 10.51646 21.67807 10.72766 21.56929 10.85704 21.46053 10.98643 21.28282 11.19055 21.1697 11.31541 21.05656 11.4403 20.87115 11.63676 20.75395 11.75706 20.63673 11.87738 20.44612 12.06715 20.32495 12.18256 20.20378 12.29794 20.00563 12.47836 19.8806 12.58876 19.75555 12.69916 19.55226 12.87277 19.42377 12.97824 19.29527 13.08372 19.08627 13.2488 18.95448 13.34903 18.82271 13.44928 18.60867 13.60568 18.47392 13.70074 18.33917 13.7958 18.12096 13.9446 17.98323 14.03416 17.8455 14.12373 17.62163 14.26233 17.48125 14.34637 17.34088 14.4304 17.11414 14.56136 16.9715 14.6399 16.82884 14.71843 16.5979 14.83957 16.45316 14.91238 16.3084 14.98518 16.07465 15.09729 15.9282 15.16463 15.78178 15.23198 15.54611 15.33638 15.39781 15.39781 15.24954 15.45926 15.00925 15.55202 14.85944 15.60744 14.70964 15.66287 14.46884 15.74757 14.31815 15.79742 14.16747 15.84726 13.92506 15.92278 13.77335 15.96675 13.62163 16.01074 13.37694 16.07625 13.22466 16.11449 13.07237 16.15274 12.82849 16.20998 12.67577 16.24237 12.52304 16.27475 12.27692 16.3214 12.12395 16.34785 11.97101 16.37431 11.72604 16.41235 11.57332 16.43312 11.42061 16.45389 11.17574 16.48254 11.02327 16.49754 10.87079 16.51254 10.62617 16.53189 10.47438 16.54132 10.32257 16.55078 10.08023 16.56194 9.9292 16.56566 9.77815 16.56938 9.5359 16.5701 9.38576 16.56819 9.23561 16.56627 8.99582 16.55916 8.84698 16.55185 8.69815 16.54454 8.46045 16.52817 8.3131 16.51544 8.16573 16.50273 7.93044 16.47804 7.78484 16.46017 7.63922 16.4423 7.4073 16.40967 7.2636 16.3866 7.11987 16.36354 6.89063 16.32208 6.74896 16.29395 6.60728 16.26581 6.38185 16.21686 6.24251 16.18378 6.10315 16.1507 5.88145 16.09341 5.74461 16.0555 5.60777 16.01761 5.39047 15.95297 5.25626 15.9105 5.12204 15.86803 4.90865 15.79639 4.77724 15.74933 4.64584 15.7023 4.4375 15.62271 4.30913 15.57144 4.18079 15.52016 3.97734 15.43518 3.85211 15.37971 3.7269 15.32425 3.52847 15.23112 3.40659 15.17165 3.28468 15.11215 3.09195 15.01416 2.97351 14.95093 2.85506 14.88768 2.66771 14.78276 2.55289 14.71579 2.43806 14.64883 2.25697 14.53845 2.14589 14.46822 2.03482 14.39796 1.85962 14.28313 1.75233 14.20953 1.64505 14.13594 1.476 14.01457 1.37257 13.93782 1.26918 13.86108 1.10646 13.7359 1.00705 13.65637 .90764 13.57683 .75136 13.44675 .65613 13.3646 .56087 13.28244 .41159 13.14871 .32056 13.06427 .22952 12.97984 .08679 12.84279 0 12.75595-.08679 12.66914-.22264 12.5274-.30518 12.43849-.38771 12.3496-.51657 12.20583-.5948 12.11519-.67303 12.02458-.79514 11.87762-.86906 11.78528-.94298 11.69296-1.05798 11.54337-1.12753 11.44972-1.19707 11.35606-1.30515 11.20514-1.37025 11.11026-1.43536 11.01541-1.53613 10.86179-1.5968 10.76596-1.6575 10.6701-1.75128 10.51607-1.80762 10.4195-1.86394 10.32292-1.95088 10.16713-2.00284 10.06992-2.05478 9.9727-2.13448 9.8163-2.1821 9.71878-2.22972 9.62126-2.30284 9.46477-2.34619 9.36707-2.38953 9.26936-2.45543 9.11226-2.4945 9.01457-2.53357 8.9169-2.59293 8.76048-2.62782 8.66306-2.6627 8.56563-2.71526 8.40929-2.74597 8.31232-2.7767 8.21533-2.82262 8.06044-2.84933 7.9641-2.87604 7.86775-2.91574 7.71346-2.93848 7.61783-2.9612 7.5222-2.99437 7.3695-3.01321 7.27487-3.03206 7.18025-3.05927 7.02931-3.07434 6.93582-3.0894 6.84233-3.11044 6.69327-3.12183 6.60103-3.13321 6.50877-3.14862 6.36172-3.15646 6.27092-3.16434 6.1801-3.17407 6.03564-3.17847 5.94644-3.18286 5.85725-3.18712 5.7155-3.1882 5.62802-3.18925 5.54056-3.18832 5.40157-3.18625 5.31602-3.18419 5.23045-3.17831 5.09496-3.1732 5.0114-3.16812 4.92784-3.15746 4.79529-3.14946 4.71379-3.14146 4.6323-3.12633 4.50323-3.11559 4.42397-3.10487 4.34471-3.08554 4.21948-3.07219 4.14252-3.05885 4.06555-3.03519 3.94382-3.01944 3.86925-3.00371 3.7947-2.97673 3.67717-2.95872 3.60512-2.9407 3.53307-2.90977 3.41943-2.88962 3.34995-2.86948 3.28046-2.83554 3.17111-2.8135 3.10431-2.79149 3.0375-2.75462 2.93259-2.73079 2.86841-2.70695 2.80421-2.66705 2.70308-2.64165 2.64165-2.61624 2.58022-2.57442 2.48419-2.54764 2.4256-2.52084 2.367-2.47664 2.27512-2.44856 2.21928-2.42049 2.16344-2.37437 2.07611-2.34521 2.02307-2.31604 1.97003-2.26843 1.88722-2.23834 1.837-2.20828 1.78677-2.15916 1.70844-2.12837 1.66106-2.0976 1.61365-2.04779 1.53996-2.01646 1.4954-1.98514 1.45085-1.93436 1.38164-1.9026 1.33989-1.87083 1.29814-1.81953 1.23347-1.78757 1.19449-1.75558 1.1555-1.70416 1.09511-1.67213 1.05882-1.64012 1.02254-1.58861 .96646-1.55672 .93289-1.52483 .89932-1.47392 .84781-1.44226 .81688-1.41061 .78596-1.35983 .73839-1.3286 .71004-1.29736 .68169-1.24774 .63835-1.21707 .6125-1.1864 .58669-1.13751 .5472-1.10748 .52376-1.07747 .50032-1.02979 .46469-1.00063 .44357-.97147 .42245-.92545 .39043-.89728 .37155-.86913 .35268-.82468 .3242-.79762 .30751-.77057 .29083-.72803 .26588-.70226 .25127-.67645 .23663-.6362 .21477-.61174 .20201-.58728 .18927-.5489 .1703-.52591 .15938-.50288 .14848-.46739 .13261-.4459 .12338-.42442 .11415-.39078 .10052-.37097 .09282-.35114 .08513-.32112 .07417-.30302 .06792-.28496 .06165-.2569 .05264-.24057 .04767-.22423 .0427-.19963 .0359-.18529 .0321-.17094 .0283-.1497 .02306-.1372 .02023-.12471 .0174-.10564 .01363-.09515 .01167-.08469 .00969-.07004 .0073-.06168 .00601-.05331 .00475-.04118 .00323-.03482 .00252-.02846 .00179-.01999 .0011-.01575 .00075-.01152 .0004-.00644 .00008-.00426 0-.00208-.00008 0 0 0 0 0 0-.00208 .00008-.00426 0-.00644-.00008-.01152-.0004-.01575-.00075-.01999-.0011-.02846-.00179-.03482-.00252-.04118-.00323-.05331-.00475-.06168-.00601-.07004-.0073-.08469-.00969-.09515-.01167-.10564-.01363-.12471-.0174-.1372-.02023-.1497-.02306-.17094-.0283-.18529-.0321-.19963-.0359-.22423-.0427-.24057-.04767-.2569-.05264-.28496-.06165-.30302-.06792-.32112-.07417-.35114-.08513-.37097-.09282-.39078-.10052-.42442-.11415-.4459-.12338-.46739-.13261-.50288-.14848-.52591-.15938-.5489-.1703-.58728-.18927-.61174-.20201-.6362-.21477-.67645-.23663-.70226-.25127-.72803-.26588-.77057-.29083-.79762-.30751-.82468-.3242-.86913-.35268-.89728-.37155-.92545-.39043-.97147-.42245-1.00063-.44357-1.02979-.46469-1.07747-.50032-1.10748-.52376-1.13751-.5472-1.1864-.58669-1.21707-.6125-1.24774-.63835-1.29736-.68169-1.3286-.71004-1.35983-.73839-1.41061-.78596-1.44226-.81688-1.47392-.84781-1.52483-.89932-1.55672-.93289-1.58861-.96646-1.64012-1.02254-1.67213-1.05882-1.70416-1.09511-1.75558-1.1555-1.78757-1.19449-1.81953-1.23347-1.87083-1.29814-1.9026-1.33989-1.93436-1.38164-1.98514-1.45085-2.01646-1.4954-2.04779-1.53996-2.0976-1.61365-2.12837-1.66106-2.15916-1.70844-2.20828-1.78677-2.23834-1.837-2.26843-1.88722-2.31604-1.97003-2.34521-2.02307-2.37437-2.07611-2.42049-2.16344-2.44856-2.21928-2.47664-2.27512-2.52084-2.367-2.54764-2.4256-2.57442-2.48419-2.61624-2.58022-2.64165-2.64165-2.66705-2.70308-2.70695-2.80421-2.73079-2.86841-2.75462-2.93259-2.79149-3.0375-2.8135-3.10431-2.83554-3.17111-2.86948-3.28046-2.88962-3.34995-2.90977-3.41943-2.9407-3.53307-2.95872-3.60512-2.97673-3.67717-3.00371-3.7947-3.01944-3.86925-3.03519-3.94382-3.05885-4.06555-3.07219-4.14252-3.08554-4.21948-3.10487-4.34471-3.11559-4.42397-3.12633-4.50323-3.14146-4.6323-3.14946-4.71379-3.15746-4.79529-3.16812-4.92784-3.1732-5.0114-3.17831-5.09496-3.18419-5.23045-3.18625-5.31602-3.18832-5.40157-3.18925-5.54056-3.1882-5.62802-3.18712-5.7155-3.18286-5.85725-3.17847-5.94644-3.17407-6.03564-3.16434-6.1801-3.15646-6.27092-3.14862-6.36172-3.13321-6.50877-3.12183-6.60103-3.11044-6.69327-3.0894-6.84233-3.07434-6.93582-3.05927-7.02931-3.03206-7.18025-3.01321-7.27487-2.99437-7.3695-2.9612-7.5222-2.93848-7.61783-2.91574-7.71346-2.87604-7.86775-2.84933-7.9641-2.82262-8.06044-2.7767-8.21533-2.74597-8.31232-2.71526-8.40929-2.6627-8.56563-2.62782-8.66306-2.59293-8.76048-2.53357-8.9169-2.4945-9.01457-2.45543-9.11226-2.38953-9.26936-2.34619-9.36707-2.30284-9.46477-2.22972-9.62126-2.1821-9.71878-2.13448-9.8163-2.05478-9.9727-2.00284-10.06992-1.95088-10.16713-1.86394-10.32292-1.80762-10.4195-1.75128-10.51607-1.6575-10.6701-1.5968-10.76596-1.53613-10.86179-1.43536-11.01541-1.37025-11.11026-1.30515-11.20514-1.19707-11.35606-1.12753-11.44972-1.05798-11.54337-.94298-11.69296-.86906-11.78528-.79514-11.87762-.67303-12.02458-.5948-12.11519-.51657-12.20583-.38771-12.3496-.30518-12.43849-.22264-12.5274-.08679-12.66914 0-12.75595 .08679-12.84279 .22952-12.97984 .32056-13.06427 .41159-13.14871 .56087-13.28244 .65613-13.3646 .75136-13.44675 .90764-13.57683 1.00705-13.65637 1.10646-13.7359 1.26918-13.86108 1.37257-13.93782 1.476-14.01457 1.64505-14.13594 1.75233-14.20953 1.85962-14.28313 2.03482-14.39796 2.14589-14.46822 2.25697-14.53845 2.43806-14.64883 2.55289-14.71579 2.66771-14.78276 2.85506-14.88768 2.97351-14.95093 3.09195-15.01416 3.28468-15.11215 3.40659-15.17165 3.52847-15.23112 3.7269-15.32425 3.85211-15.37971 3.97734-15.43518 4.18079-15.52016 4.30913-15.57144 4.4375-15.62271 4.64584-15.7023 4.77724-15.74933 4.90865-15.79639 5.12204-15.86803 5.25626-15.9105 5.39047-15.95297 5.60777-16.01761 5.74461-16.0555 5.88145-16.09341 6.10315-16.1507 6.24251-16.18378 6.38185-16.21686 6.60728-16.26581 6.74896-16.29395 6.89063-16.32208 7.11987-16.36354 7.2636-16.3866 7.4073-16.40967 7.63922-16.4423 7.78484-16.46017 7.93044-16.47804 8.16573-16.50273 8.3131-16.51544 8.46045-16.52817 8.69815-16.54454 8.84698-16.55185 8.99582-16.55916 9.23561-16.56627 9.38576-16.56819 9.5359-16.5701 9.77815-16.56938 9.9292-16.56566 10.08023-16.56194 10.32257-16.55078 10.47438-16.54132 10.62617-16.53189 10.87079-16.51254 11.02327-16.49754 11.17574-16.48254 11.42061-16.45389 11.57332-16.43312 11.72604-16.41235 11.97101-16.37431 12.12395-16.34785 12.27692-16.3214 12.52304-16.27475 12.67577-16.24237 12.82849-16.20998 13.07237-16.15274 13.22466-16.11449 13.37694-16.07625 13.62163-16.01074 13.77335-15.96675 13.92506-15.92278 14.16747-15.84726 14.31815-15.79742 14.46884-15.74757 14.70964-15.66287 14.85944-15.60744 15.00925-15.55202 15.24954-15.45926 15.39781-15.39781 15.54611-15.33638 15.78178-15.23198 15.9282-15.16463 16.07465-15.09729 16.3084-14.98518 16.45316-14.91238 16.5979-14.83957 16.82884-14.71843 16.9715-14.6399 17.11414-14.56136 17.34088-14.4304 17.48125-14.34637 17.62163-14.26233 17.8455-14.12373 17.98323-14.03416 18.12096-13.9446 18.33917-13.7958 18.47392-13.70074 18.60867-13.60568 18.82271-13.44928 18.95448-13.34903 19.08627-13.2488 19.29527-13.08372 19.42377-12.97824 19.55226-12.87277 19.75555-12.69916 19.8806-12.58876 20.00563-12.47836 20.20378-12.29794 20.32495-12.18256 20.44612-12.06715 20.63673-11.87738 20.75395-11.75706 20.87115-11.63676 21.05656-11.4403 21.1697-11.31541 21.28282-11.19055 21.46053-10.98643 21.56929-10.85704 21.67807-10.72766 21.8493-10.51646 21.95372-10.3829 22.0581-10.24933 22.22218-10.03203 22.32178-9.89435 22.42137-9.75668 22.57689-9.53226 22.67155-9.39063 22.7662-9.24898 22.91438-9.01886 23.004-8.87346 23.0936-8.72807 23.23312-8.4916 23.31737-8.34267 23.4016-8.19377 23.5321-7.95241 23.61108-7.8002 23.69005-7.648 23.81308-7.40106 23.88649-7.24568 23.95988-7.09029 24.07222-6.83844 24.1401-6.68024 24.20801-6.52205 24.31377-6.26634 24.37582-6.10547 24.43787-5.94461 24.53127-5.68404 24.5874-5.52077 24.64351-5.35748 24.72998-5.09412 24.78029-4.92867 24.8306-4.76324 24.90608-4.49576 24.95001-4.3284 24.99394-4.16104 25.05885-3.8914 25.09697-3.72249 25.13507-3.55356 25.19289-3.28136 25.22466-3.11093 25.25641-2.94049 25.30058-2.66579 25.32587-2.49411 25.35115-2.32245 25.38766-2.04619 25.40683-1.8736 25.426-1.701 25.45134-1.4233 25.46405-1.25015 25.47678-1.07703 25.49185-.79921 25.4985-.62575 25.50514-.4523 25.51193 0 25.51193 0"/>
<use data-text="b" xlink:href="#font_2_35" transform="matrix(9.963397,0,0,-9.963098,36.21237,94.31496)"/>
<use data-text="." xlink:href="#font_2_88" transform="matrix(9.963397,0,0,-9.963098,41.75202,94.31496)"/>
</svg>
