<svg xmlns="http://www.w3.org/2000/svg" xmlns:xlink="http://www.w3.org/1999/xlink" version="1.1" width="170" height="125" viewBox="0 0 170 125">
<defs>
<path id="font_1_2" d="M.20599365 .3996582H.2999878C.31999208 .3996582 .32998658 .3996582 .32998658 .41966249 .32998658 .43066407 .31999208 .43066407 .3019867 .43066407H.21398926C.25 .5724945 .25498963 .59246829 .25498963 .59846499 .25498963 .61546328 .24299622 .62545779 .22599793 .62545779 .22299195 .62545779 .19499207 .62446597 .18598938 .58947756L.14698792 .43066407H.052993776C.032989503 .43066407 .022994996 .43066407 .022994996 .4116516 .022994996 .3996582 .0309906 .3996582 .050994874 .3996582H.13899231C.066986087 .11608887 .06298828 .099121097 .06298828 .08114624 .06298828 .02722168 .100997928-.0107421879 .15499878-.0107421879 .25698854-.0107421879 .31399537 .13505554 .31399537 .14305115 .31399537 .1530304 .30599977 .1530304 .3019867 .1530304 .29299928 .1530304 .2919922 .15003968 .2869873 .13905335 .24398804 .035217287 .19099427 .011245728 .15699768 .011245728 .13598633 .011245728 .12599182 .024230957 .12599182 .057174684 .12599182 .08114624 .12799073 .088134769 .13198853 .10510254L.20599365 .3996582Z"/>
<path id="font_1_3" d="M.48599244 .38136292C.48999024 .39537049 .48999024 .39736939 .48999024 .40437318 .48999024 .42237855 .47599793 .43138124 .46099855 .43138124 .45098878 .43138124 .43499757 .42536927 .42599488 .41036988 .42399598 .405365 .41600038 .37435914 .4119873 .35635377 .40499879 .33035279 .397995 .30334474 .3919983 .27633668L.34700013 .09628296C.34298707 .08126831 .2999878 .011245728 .23399353 .011245728 .18299866 .011245728 .17199707 .055267335 .17199707 .0922699 .17199707 .1382904 .18899536 .20030213 .22299195 .28833009 .23899842 .3293457 .24299622 .3403473 .24299622 .36035157 .24299622 .405365 .21099854 .4423828 .16099549 .4423828 .06599426 .4423828 .0289917 .29733277 .0289917 .28833009 .0289917 .27833558 .038986207 .27833558 .040985109 .27833558 .050994874 .27833558 .051986696 .28033448 .056991579 .29634095 .083999637 .3903656 .12399292 .42037965 .1579895 .42037965 .1659851 .42037965 .18299866 .42037965 .18299866 .3883667 .18299866 .36335755 .17298889 .3373413 .1659851 .31834413 .12599182 .21231079 .10798645 .1552887 .10798645 .10827637 .10798645 .019256592 .17098999-.0107421879 .22999573-.0107421879 .2689972-.0107421879 .30299378 .0062561037 .33099366 .03425598 .31799317-.017745972 .30599977-.06674194 .2659912-.11973572 .23999024-.15385437 .20199585-.18309021 .1559906-.18309021 .14199829-.18309021 .09700012-.18005371 .07998657-.14074707 .09599304-.14074707 .10899353-.14074707 .12298584-.1287384 .1329956-.11973572 .14299011-.10673523 .14299011-.08773804 .14299011-.056747438 .115997318-.052734376 .10598755-.052734376 .08299255-.052734376 .049987794-.068740848 .049987794-.11773682 .049987794-.16796875 .09399414-.20507813 .1559906-.20507813 .25898744-.20507813 .3619995-.11373901 .3899994-.00074768069L.48599244 .38136292Z"/>
<path id="font_2_107" d="M.44898988 .17396546H.42399598C.4189911 .14398194 .4119873 .099990848 .4019928 .084991458 .394989 .07699585 .32899476 .07699585 .30699159 .07699585H.1269989L.23298645 .17996216C.3889923 .31803895 .44898988 .37210084 .44898988 .47216798 .44898988 .5860901 .35899354 .6660156 .23699951 .6660156 .12399292 .6660156 .049987794 .57411196 .049987794 .48516847 .049987794 .4291687 .099990848 .4291687 .102996829 .4291687 .11999512 .4291687 .15499878 .44117738 .15499878 .48217774 .15499878 .5081787 .13699341 .5341797 .101989749 .5341797 .09399414 .5341797 .09199524 .5341797 .08898926 .5331726 .11199951 .59806826 .1659851 .63500979 .22399903 .63500979 .31498719 .63500979 .35798646 .5541382 .35798646 .47216798 .35798646 .39196778 .30799867 .31297303 .25299073 .25097657L.06098938 .036987306C.049987794 .025985718 .049987794 .023986817 .049987794 0H.42099L.44898988 .17396546Z"/>
<path id="font_2_57" d="M.47099305 .16503906V.19602967H.37098695V.6507721C.37098695 .6707611 .37098695 .6767578 .35499574 .6767578 .34599305 .6767578 .34298707 .6767578 .33499146 .6647644L.027999878 .19602967V.16503906H.2939911V.07800293C.2939911 .041992189 .2919922 .0309906 .21798706 .0309906H.19699097V0C.23799134 .0029907227 .2899933 .0029907227 .33198548 .0029907227 .37399293 .0029907227 .4269867 .0029907227 .46798707 0V.0309906H.44699098C.37298585 .0309906 .37098695 .041992189 .37098695 .07800293V.16503906H.47099305M.2999878 .19602967H.055999757L.2999878 .56881716V.19602967Z"/>
<path id="font_2_101" d="M.45700074 .2036438C.45700074 .33070375 .36799623 .4267578 .25698854 .4267578 .18899536 .4267578 .1519928 .37573243 .13198853 .327713V.35173036C.13198853 .6047821 .2559967 .64100649 .30699159 .64100649 .33099366 .64100649 .37298585 .634964 .394989 .6007538 .37998963 .6007538 .33999635 .6007538 .33999635 .5557556 .33999635 .524765 .3639984 .5097656 .38598634 .5097656 .4019928 .5097656 .43199159 .51875308 .43199159 .5577545 .43199159 .6178589 .3880005 .6660156 .30499269 .6660156 .1769867 .6660156 .041992189 .5367584 .041992189 .31570436 .041992189 .048553468 .1579895-.022460938 .25099183-.022460938 .3619995-.022460938 .45700074 .07156372 .45700074 .2036438M.36698915 .20463562C.36698915 .15661621 .36698915 .10658264 .34999085 .0705719 .31999208 .010528564 .27398683 .0055389406 .25099183 .0055389406 .18798828 .0055389406 .1579895 .06556702 .1519928 .080566409 .13398743 .127594 .13398743 .2076416 .13398743 .22564698 .13398743 .30369569 .1659851 .40374757 .2559967 .40374757 .27198792 .40374757 .31799317 .40374757 .34899903 .34172059 .36698915 .30470277 .36698915 .2536621 .36698915 .20463562Z"/>
<path id="font_2_51" d="M.45700074 .16764832C.45700074 .20367432 .44599916 .24871826 .4079895 .29074098 .3889923 .31176759 .37298585 .32176209 .30899049 .36180116 .3809967 .39881898 .42999269 .4508667 .42999269 .51690676 .42999269 .6089783 .34098817 .6660156 .25 .6660156 .1499939 .6660156 .068984989 .5919647 .068984989 .49890138 .068984989 .48088075 .070999149 .43585206 .11299133 .38882447 .12399292 .3768158 .16099549 .35179139 .18598938 .33477784 .12799073 .30575563 .041992189 .24971009 .041992189 .15063477 .041992189 .044555665 .14399719-.022460938 .24899292-.022460938 .3619995-.022460938 .45700074 .060577394 .45700074 .16764832M.38598634 .51690676C.38598634 .45986939 .34700013 .41183473 .2869873 .3768158L.16299439 .4568634C.116989139 .4868927 .11299133 .5209198 .11299133 .53793337 .11299133 .5989685 .17799378 .64100649 .24899292 .64100649 .32199098 .64100649 .38598634 .588974 .38598634 .51690676M.40699769 .13162232C.40699769 .05757141 .33198548 .0055389406 .25 .0055389406 .1639862 .0055389406 .09199524 .06758118 .09199524 .15063477 .09199524 .2086792 .12399292 .2727356 .20899964 .31976319L.33198548 .24171448C.3600006 .22268677 .40699769 .19267273 .40699769 .13162232Z"/>
<path id="font_3_1" d="M.2899933 .35191346C.37199403 .37893678 .42999269 .4490509 .42999269 .52809146 .42999269 .6100464 .34199525 .6660156 .24598694 .6660156 .14498902 .6660156 .068984989 .60606387 .068984989 .53009036 .068984989 .49710084 .09098816 .47808839 .11999512 .47808839 .15098572 .47808839 .17098999 .50009158 .17098999 .5290985 .17098999 .57910159 .12399292 .57910159 .10899353 .57910159 .13999939 .62802127 .20599365 .64100649 .24198914 .64100649 .2829895 .64100649 .33799745 .6190338 .33799745 .5290985 .33799745 .51708987 .33599855 .45906068 .30999757 .4149933 .27999879 .36691285 .24598694 .36390687 .22099304 .36291505 .21299744 .36190797 .18899536 .35990907 .18199158 .35990907 .17399597 .35890199 .16699219 .35791017 .16699219 .3479004 .16699219 .33691407 .17399597 .33691407 .19099427 .33691407H.23498535C.31698609 .33691407 .35398866 .2686615 .35398866 .17037964 .35398866 .034469606 .2849884 .0055389406 .24099732 .0055389406 .19799805 .0055389406 .12298584 .022491456 .08799744 .08137512 .12298584 .07637024 .1539917 .09837341 .1539917 .1363678 .1539917 .17237854 .1269989 .19238281 .09799194 .19238281 .07398987 .19238281 .041992189 .17837525 .041992189 .1343689 .041992189 .043441774 .1349945-.022460938 .24398804-.022460938 .3659973-.022460938 .45700074 .06838989 .45700074 .17037964 .45700074 .252594 .3939972 .33088685 .2899933 .35191346Z"/>
<path id="font_1_1" d="M.2649994 .37265016H.37799073C.34498597 .22489929 .33599855 .18196106 .33599855 .11508179 .33599855 .100097659 .33599855 .073150638 .34399415 .03919983 .35398866-.0047454836 .36499024-.0107421879 .37998963-.0107421879 .3999939-.0107421879 .42099 .007247925 .42099 .02722168 .42099 .033218385 .42099 .035202028 .4149933 .049179079 .38598634 .12106323 .38598634 .18595886 .38598634 .21391297 .38598634 .26683045 .3929901 .32073976 .4039917 .37265016H.5179901C.5309906 .37265016 .5669861 .37265016 .5669861 .406662 .5669861 .43066407 .54599 .43066407 .5269928 .43066407H.19198609C.16999817 .43066407 .13198853 .43066407 .08799744 .38365174 .052993776 .34469605 .026992798 .29878236 .026992798 .29379273 .026992798 .29278565 .026992798 .28379823 .038986207 .28379823 .04699707 .28379823 .04899597 .28779603 .054992677 .29577638 .10398865 .37265016 .1619873 .37265016 .18199158 .37265016H.23899842C.20698548 .25186158 .15299988 .13105774 .11099243 .04020691 .102996829 .025222779 .102996829 .023223877 .102996829 .016235352 .102996829-.002746582 .11898804-.0107421879 .13198853-.0107421879 .1619873-.0107421879 .16999817 .017242432 .18199158 .05418396 .19599915 .100097659 .19599915 .10209656 .20899964 .15202332L.2649994 .37265016Z"/>
<path id="font_3_2" d="M.13198853 .327713V.35173036C.13198853 .6047821 .2559967 .64100649 .30699159 .64100649 .33099366 .64100649 .37298585 .634964 .394989 .6007538 .37998963 .6007538 .33999635 .6007538 .33999635 .5557556 .33999635 .524765 .3639984 .5097656 .38598634 .5097656 .4019928 .5097656 .43199159 .51875308 .43199159 .5577545 .43199159 .6178589 .3880005 .6660156 .30499269 .6660156 .1769867 .6660156 .041992189 .5367584 .041992189 .31570436 .041992189 .048553468 .1579895-.022460938 .25099183-.022460938 .3619995-.022460938 .45700074 .07156372 .45700074 .2036438 .45700074 .33070375 .36799623 .4267578 .25698854 .4267578 .18899536 .4267578 .1519928 .37573243 .13198853 .327713M.25099183 .0055389406C.18798828 .0055389406 .1579895 .06556702 .1519928 .080566409 .13398743 .127594 .13398743 .2076416 .13398743 .22564698 .13398743 .30369569 .1659851 .40374757 .2559967 .40374757 .27198792 .40374757 .31799317 .40374757 .34899903 .34172059 .36698915 .30470277 .36698915 .2536621 .36698915 .20463562 .36698915 .15661621 .36698915 .10658264 .34999085 .0705719 .31999208 .010528564 .27398683 .0055389406 .25099183 .0055389406Z"/>
</defs>
<path transform="matrix(1.00008,0,0,-1.0001,11.619728,111.65686)" stroke-width=".3985" stroke-linecap="butt" stroke-miterlimit="10" stroke-linejoin="miter" fill="none" stroke="#00aeef" d="M0 0H136.06606M0 11.33855H136.06606M0 22.6771H136.06606M0 34.01564H136.06606M0 45.35419H136.06606M0 56.69275H136.06606M0 68.0313H136.06606M0 79.36984H136.06606M0 90.7044H136.06606M0 0V90.70839M17.00824 0V90.70839M34.0165 0V90.70839M51.02477 0V90.70839M68.03302 0V90.70839M85.04128 0V90.70839M102.04953 0V90.70839M119.0578 0V90.70839M136.06009 0V90.70839M136.06606 90.70839"/>
<path transform="matrix(1.00008,0,0,-1.0001,11.619728,111.65686)" stroke-width=".79701" stroke-linecap="butt" stroke-miterlimit="10" stroke-linejoin="miter" fill="none" stroke="#000000" d="M0 0H148.2381"/>
<path transform="matrix(1.00008,0,0,-1.0001,159.86969,111.65686)" d="M1.0361 0C-.25902 .25902-1.55415 .77707-3.1083 1.68365-1.55415 .51805-1.55415-.51805-3.1083-1.68365-1.55415-.77707-.25902-.25902 1.0361 0Z"/>
<path transform="matrix(1.00008,0,0,-1.0001,159.86969,111.65686)" stroke-width=".79701" stroke-linecap="butt" stroke-linejoin="round" fill="none" stroke="#000000" d="M1.0361 0C-.25902 .25902-1.55415 .77707-3.1083 1.68365-1.55415 .51805-1.55415-.51805-3.1083-1.68365-1.55415-.77707-.25902-.25902 1.0361 0Z"/>
<use data-text="t" xlink:href="#font_1_2" transform="matrix(9.963397,0,0,-9.963596,165.02399,114.72117)"/>
<path transform="matrix(1.00008,0,0,-1.0001,11.619728,111.65686)" stroke-width=".79701" stroke-linecap="butt" stroke-miterlimit="10" stroke-linejoin="miter" fill="none" stroke="#000000" d="M0 0V98.34465"/>
<path transform="matrix(0,-1.0001,-1.00008,-0,11.619728,13.302376)" d="M1.0361 0C-.25902 .25902-1.55415 .77707-3.1083 1.68365-1.55415 .51805-1.55415-.51805-3.1083-1.68365-1.55415-.77707-.25902-.25902 1.0361 0Z"/>
<path transform="matrix(0,-1.0001,-1.00008,-0,11.619728,13.302376)" stroke-width=".79701" stroke-linecap="butt" stroke-linejoin="round" fill="none" stroke="#000000" d="M1.0361 0C-.25902 .25902-1.55415 .77707-3.1083 1.68365-1.55415 .51805-1.55415-.51805-3.1083-1.68365-1.55415-.77707-.25902-.25902 1.0361 0Z"/>
<use data-text="y" xlink:href="#font_1_3" transform="matrix(9.963397,0,0,-9.963596,8.99852,6.2103197)"/>
<path transform="matrix(1.00008,0,0,-1.0001,11.619728,111.65686)" stroke-width=".79701" stroke-linecap="butt" stroke-miterlimit="10" stroke-linejoin="miter" fill="none" stroke="#000000" d="M1.70091 22.6771H-1.70065"/>
<use data-text="2" xlink:href="#font_2_107" transform="matrix(9.963397,0,0,-9.963596,1.2178955,92.29593)"/>
<path transform="matrix(1.00008,0,0,-1.0001,11.619728,111.65686)" stroke-width=".79701" stroke-linecap="butt" stroke-miterlimit="10" stroke-linejoin="miter" fill="none" stroke="#000000" d="M1.70091 45.35419H-1.70065"/>
<use data-text="4" xlink:href="#font_2_57" transform="matrix(9.963397,0,0,-9.963596,1.2178955,69.67066)"/>
<path transform="matrix(1.00008,0,0,-1.0001,11.619728,111.65686)" stroke-width=".79701" stroke-linecap="butt" stroke-miterlimit="10" stroke-linejoin="miter" fill="none" stroke="#000000" d="M1.70091 68.0313H-1.70065"/>
<use data-text="6" xlink:href="#font_2_101" transform="matrix(9.963397,0,0,-9.963596,1.2178955,46.827379)"/>
<path transform="matrix(1.00008,0,0,-1.0001,11.619728,111.65686)" stroke-width=".79701" stroke-linecap="butt" stroke-miterlimit="10" stroke-linejoin="miter" fill="none" stroke="#000000" d="M1.70091 90.70839H-1.70065"/>
<use data-text="8" xlink:href="#font_2_51" transform="matrix(9.963397,0,0,-9.963596,1.2178955,24.14811)"/>
<path transform="matrix(1.00008,0,0,-1.0001,11.619728,111.65686)" stroke-width=".79701" stroke-linecap="butt" stroke-miterlimit="10" stroke-linejoin="miter" fill="none" stroke="#000000" d="M68.03302 1.7007V-1.70087"/>
<use data-text="3" xlink:href="#font_3_1" transform="matrix(9.963397,0,0,-9.963596,74.14873,123.49805)"/>
<use data-text="&#x03c0;" xlink:href="#font_1_1" transform="matrix(9.963397,0,0,-9.963596,79.13013,123.49805)"/>
<path transform="matrix(1.00008,0,0,-1.0001,11.619728,111.65686)" stroke-width=".79701" stroke-linecap="butt" stroke-miterlimit="10" stroke-linejoin="miter" fill="none" stroke="#000000" d="M136.06606 1.7007V-1.70087"/>
<use data-text="6" xlink:href="#font_3_2" transform="matrix(9.963397,0,0,-9.963596,142.18717,123.49805)"/>
<use data-text="&#x03c0;" xlink:href="#font_1_1" transform="matrix(9.963397,0,0,-9.963596,147.16858,123.49805)"/>
<path transform="matrix(1.00008,0,0,-1.0001,11.619728,111.65686)" stroke-width="1.19553" stroke-linecap="butt" stroke-miterlimit="10" stroke-linejoin="miter" fill="none" stroke="#ff0000" d="M0 45.35419C0 45.35419 1.53604 43.74544 2.126 43.13167 2.71597 42.5179 3.66208 41.53552 4.25204 40.9306 4.84201 40.32567 5.78812 39.36198 6.37807 38.77174 6.96805 38.1815 7.91414 37.2464 8.50412 36.67657 9.09407 36.10674 10.04019 35.20872 10.63014 34.66478 11.22011 34.12082 12.16621 33.2689 12.75616 32.7561 13.34615 32.24332 14.29224 31.44577 14.88222 30.96889 15.47217 30.492 16.41827 29.75516 17.00824 29.31903 17.5982 28.88292 18.54431 28.21678 19.13426 27.82559 19.72423 27.4344 20.67033 26.84232 21.26031 26.49962 21.85027 26.15692 22.79637 25.64641 23.38634 25.35567 23.97629 25.06493 24.92241 24.64017 25.51236 24.4041 26.10234 24.16803 27.04843 23.83333 27.63841 23.65425 28.22836 23.47519 29.17447 23.23367 29.76443 23.11342 30.3544 22.99315 31.3005 22.848 31.89047 22.78748 32.48044 22.72691 33.42654 22.6771 34.0165 22.6771 34.60646 22.6771 35.55255 22.72691 36.14253 22.78748 36.73248 22.848 37.6786 22.99315 38.26855 23.11342 38.85854 23.23367 39.80463 23.47519 40.39459 23.65425 40.98456 23.83333 41.93066 24.16803 42.52063 24.4041 43.1106 24.64017 44.05669 25.06493 44.64667 25.35567 45.23663 25.64641 46.18274 26.15692 46.77269 26.49962 47.36266 26.84232 48.30876 27.4344 48.89873 27.82559 49.4887 28.21678 50.43478 28.88292 51.02477 29.31903 51.61472 29.75516 52.56082 30.492 53.15079 30.96889 53.74075 31.44577 54.68686 32.24332 55.27682 32.7561 55.86678 33.2689 56.81288 34.12082 57.40286 34.66478 57.99281 35.20872 58.93893 36.10674 59.52888 36.67657 60.11885 37.2464 61.06496 38.1815 61.6549 38.77174 62.24489 39.36198 63.19098 40.32567 63.78096 40.9306 64.37091 41.53552 65.31703 42.5179 65.90698 43.13167 66.49696 43.74544 67.44305 44.73746 68.03302 45.35419 68.62299 45.97093 69.56908 46.96295 70.15904 47.57669 70.74901 48.19046 71.69511 49.17284 72.28508 49.77777 72.87505 50.38269 73.82115 51.34639 74.4111 51.93663 75.00108 52.52686 75.94717 53.46196 76.53716 54.0318 77.1271 54.60164 78.07321 55.49963 78.66318 56.0436 79.25314 56.58755 80.19925 57.43947 80.78922 57.95226 81.37918 58.46507 82.32529 59.26259 82.91525 59.73949 83.5052 60.21637 84.45131 60.9532 85.04128 61.38934 85.63124 61.82547 86.57735 62.49161 87.1673 62.88278 87.75728 63.27397 88.70337 63.86606 89.29335 64.20876 89.8833 64.55145 90.8294 65.06195 91.41937 65.3527 92.00932 65.64346 92.95544 66.06822 93.5454 66.30428 94.13538 66.54034 95.08148 66.87503 95.67143 67.05411 96.2614 67.23318 97.2075 67.47469 97.79747 67.59496 98.38744 67.71521 99.33354 67.86037 99.92351 67.92091 100.51347 67.98145 101.45958 68.0313 102.04953 68.0313 102.63951 68.0313 103.5856 67.98145 104.17557 67.92091 104.76552 67.86037 105.71162 67.71521 106.30159 67.59496 106.89156 67.47469 107.83766 67.23318 108.42763 67.05411 109.0176 66.87503 109.9637 66.54034 110.55367 66.30428 111.14363 66.06822 112.08972 65.64346 112.6797 65.3527 113.26965 65.06195 114.21577 64.55145 114.80573 64.20876 115.3957 63.86606 116.3418 63.27397 116.93178 62.88278 117.52173 62.49161 118.46783 61.82547 119.0578 61.38934 119.64775 60.9532 120.59386 60.21637 121.18382 59.73949 121.77379 59.26259 122.7199 58.46507 123.30984 57.95226 123.89983 57.43947 124.84592 56.58755 125.4359 56.0436 126.02585 55.49963 126.97197 54.60164 127.56192 54.0318 128.15189 53.46196 129.09799 52.52686 129.68795 51.93663 130.27793 51.34639 131.22403 50.38269 131.814 49.77777 132.40395 49.17284 133.35005 48.19046 133.94002 47.57669 134.53 46.96295 136.06606 45.35419 136.06606 45.35419"/>
</svg>
