<svg xmlns="http://www.w3.org/2000/svg" xmlns:xlink="http://www.w3.org/1999/xlink" version="1.1" width="346" height="128" viewBox="0 0 346 128">
<defs>
<path id="font_1_1" d="M.33399964 .30233766C.33999635 .32835389 .36299134 .42037965 .43299867 .42037965 .43798829 .42037965 .46199037 .42037965 .48298646 .40734864 .45498658 .402359 .43499757 .37734986 .43499757 .35334779 .43499757 .33735658 .44599916 .31835938 .47299195 .31835938 .49499513 .31835938 .5269928 .3363495 .5269928 .37635804 .5269928 .42837525 .46798707 .4423828 .43399049 .4423828 .37599183 .4423828 .34098817 .38935853 .32899476 .36634828 .3039856 .43237306 .25 .4423828 .22099304 .4423828 .116989139 .4423828 .05999756 .3133545 .05999756 .28834535 .05999756 .27833558 .069992069 .27833558 .07199097 .27833558 .07998657 .27833558 .08299255 .28033448 .084991458 .28933717 .11898804 .39535523 .18499756 .42037965 .21899414 .42037965 .23799134 .42037965 .272995 .4113617 .272995 .35334779 .272995 .32235719 .2559967 .25532533 .21899414 .11528015 .20298767 .053268434 .16799927 .011245728 .12399292 .011245728 .117996219 .011245728 .09498596 .011245728 .07398987 .024276734 .09899902 .029266358 .12098694 .05027771 .12098694 .07827759 .12098694 .105270389 .09899902 .11328125 .083999637 .11328125 .053985597 .11328125 .0289917 .08728027 .0289917 .055267335 .0289917 .009246826 .07899475-.0107421879 .12298584-.0107421879 .18899536-.0107421879 .22499085 .059280397 .22799683 .0652771 .23999024 .028274537 .27598573-.0107421879 .33599855-.0107421879 .43899537-.0107421879 .49598695 .118270877 .49598695 .14328003 .49598695 .1532898 .4869995 .1532898 .48399354 .1532898 .47499085 .1532898 .47299195 .14929199 .47099305 .14228821 .43798829 .03527832 .36999513 .011245728 .33799745 .011245728 .29899598 .011245728 .2829895 .043273927 .2829895 .07727051 .2829895 .09927368 .2889862 .121276859 .2999878 .16529846L.33399964 .30233766Z"/>
<path id="font_1_2" d="M.48599244 .38136292C.48999024 .39537049 .48999024 .39736939 .48999024 .40437318 .48999024 .42237855 .47599793 .43138124 .46099855 .43138124 .45098878 .43138124 .43499757 .42536927 .42599488 .41036988 .42399598 .405365 .41600038 .37435914 .4119873 .35635377 .40499879 .33035279 .397995 .30334474 .3919983 .27633668L.34700013 .09628296C.34298707 .08126831 .2999878 .011245728 .23399353 .011245728 .18299866 .011245728 .17199707 .055267335 .17199707 .0922699 .17199707 .1382904 .18899536 .20030213 .22299195 .28833009 .23899842 .3293457 .24299622 .3403473 .24299622 .36035157 .24299622 .405365 .21099854 .4423828 .16099549 .4423828 .06599426 .4423828 .0289917 .29733277 .0289917 .28833009 .0289917 .27833558 .038986207 .27833558 .040985109 .27833558 .050994874 .27833558 .051986696 .28033448 .056991579 .29634095 .083999637 .3903656 .12399292 .42037965 .1579895 .42037965 .1659851 .42037965 .18299866 .42037965 .18299866 .3883667 .18299866 .36335755 .17298889 .3373413 .1659851 .31834413 .12599182 .21231079 .10798645 .1552887 .10798645 .10827637 .10798645 .019256592 .17098999-.0107421879 .22999573-.0107421879 .2689972-.0107421879 .30299378 .0062561037 .33099366 .03425598 .31799317-.017745972 .30599977-.06674194 .2659912-.11973572 .23999024-.15385437 .20199585-.18309021 .1559906-.18309021 .14199829-.18309021 .09700012-.18005371 .07998657-.14074707 .09599304-.14074707 .10899353-.14074707 .12298584-.1287384 .1329956-.11973572 .14299011-.10673523 .14299011-.08773804 .14299011-.056747438 .115997318-.052734376 .10598755-.052734376 .08299255-.052734376 .049987794-.068740848 .049987794-.11773682 .049987794-.16796875 .09399414-.20507813 .1559906-.20507813 .25898744-.20507813 .3619995-.11373901 .3899994-.00074768069L.48599244 .38136292Z"/>
<path id="font_2_1" d="M.6589966 .23046875C.6759949 .23046875 .69400027 .23046875 .69400027 .25045777 .69400027 .27046205 .6759949 .27046205 .6589966 .27046205H.117996219C.100997928 .27046205 .08299255 .27046205 .08299255 .25045777 .08299255 .23046875 .100997928 .23046875 .117996219 .23046875H.6589966Z"/>
<path id="font_3_3" d="M.13198853 .327713V.35173036C.13198853 .6047821 .2559967 .64100649 .30699159 .64100649 .33099366 .64100649 .37298585 .634964 .394989 .6007538 .37998963 .6007538 .33999635 .6007538 .33999635 .5557556 .33999635 .524765 .3639984 .5097656 .38598634 .5097656 .4019928 .5097656 .43199159 .51875308 .43199159 .5577545 .43199159 .6178589 .3880005 .6660156 .30499269 .6660156 .1769867 .6660156 .041992189 .5367584 .041992189 .31570436 .041992189 .048553468 .1579895-.022460938 .25099183-.022460938 .3619995-.022460938 .45700074 .07156372 .45700074 .2036438 .45700074 .33070375 .36799623 .4267578 .25698854 .4267578 .18899536 .4267578 .1519928 .37573243 .13198853 .327713M.25099183 .0055389406C.18798828 .0055389406 .1579895 .06556702 .1519928 .080566409 .13398743 .127594 .13398743 .2076416 .13398743 .22564698 .13398743 .30369569 .1659851 .40374757 .2559967 .40374757 .27198792 .40374757 .31799317 .40374757 .34899903 .34172059 .36698915 .30470277 .36698915 .2536621 .36698915 .20463562 .36698915 .15661621 .36698915 .10658264 .34999085 .0705719 .31999208 .010528564 .27398683 .0055389406 .25099183 .0055389406Z"/>
<path id="font_3_2" d="M.2939911 .16503906V.07800293C.2939911 .041992189 .2919922 .0309906 .21798706 .0309906H.19699097V0C.23799134 .0029907227 .2899933 .0029907227 .33198548 .0029907227 .37399293 .0029907227 .4269867 .0029907227 .46798707 0V.0309906H.44699098C.37298585 .0309906 .37098695 .041992189 .37098695 .07800293V.16503906H.47099305V.19602967H.37098695V.65075686C.37098695 .67074587 .37098695 .6767578 .35499574 .6767578 .34599305 .6767578 .34298707 .6767578 .33499146 .66474917L.027999878 .19602967V.16503906H.2939911M.2999878 .19602967H.055999757L.2999878 .5688019V.19602967Z"/>
<path id="font_3_1" d="M.1269989 .07699585 .23298645 .18003845C.3889923 .31811524 .44898988 .3721466 .44898988 .47216798 .44898988 .5860901 .35899354 .6660156 .23699951 .6660156 .12399292 .6660156 .049987794 .57411196 .049987794 .48516847 .049987794 .4291687 .099990848 .4291687 .102996829 .4291687 .11999512 .4291687 .15499878 .44117738 .15499878 .48217774 .15499878 .5081787 .13699341 .5341797 .101989749 .5341797 .09399414 .5341797 .09199524 .5341797 .08898926 .5331726 .11199951 .59806826 .1659851 .63500979 .22399903 .63500979 .31498719 .63500979 .35798646 .5541382 .35798646 .47216798 .35798646 .39215089 .30799867 .31311036 .25299073 .25108338L.06098938 .036987306C.049987794 .025985718 .049987794 .023986817 .049987794 0H.42099L.44898988 .17404175H.42399598C.4189911 .14402771 .4119873 .1000061 .4019928 .084991458 .394989 .07699585 .32899476 .07699585 .30699159 .07699585H.1269989Z"/>
<path id="font_4_65" d="M.33299256 0V.0309906H.30699159C.22799683 .0309906 .22499085 .041992189 .22499085 .07795715V.6046295C.22499085 .64060977 .22799683 .6516113 .30699159 .6516113H.33299256V.6826172C.2979889 .6796112 .21899414 .6796112 .18099976 .6796112 .14199829 .6796112 .06298828 .6796112 .027999878 .6826172V.6516113H.053985597C.1329956 .6516113 .13598633 .64060977 .13598633 .6046295V.07795715C.13598633 .041992189 .1329956 .0309906 .053985597 .0309906H.027999878V0C.06298828 .0029907227 .14199829 .0029907227 .17999268 .0029907227 .21899414 .0029907227 .2979889 .0029907227 .33299256 0Z"/>
<path id="font_3_4" d="M.16299439 .4569702C.116989139 .486969 .11299133 .52098086 .11299133 .5379791 .11299133 .598999 .17799378 .64100649 .24899292 .64100649 .32199098 .64100649 .38598634 .58898928 .38598634 .51698306 .38598634 .45996095 .34700013 .4119568 .2869873 .37695313L.16299439 .4569702M.30899049 .36193849C.3809967 .3989563 .42999269 .45095826 .42999269 .51698306 .42999269 .6090088 .34098817 .6660156 .25 .6660156 .1499939 .6660156 .068984989 .59199526 .068984989 .49897767 .068984989 .4809723 .070999149 .43595887 .11299133 .38894654 .12399292 .37695313 .16099549 .35194398 .18598938 .33494569 .12799073 .30592347 .041992189 .24984741 .041992189 .15072632 .041992189 .04458618 .14399719-.022460938 .24899292-.022460938 .3619995-.022460938 .45700074 .06060791 .45700074 .16773987 .45700074 .20379639 .44599916 .24885559 .4079895 .2909088 .3889923 .31193543 .37298585 .3219452 .30899049 .36193849M.20899964 .3199463 .33198548 .24183655C.3600006 .2228241 .40699769 .19277954 .40699769 .13169861 .40699769 .05760193 .33198548 .0055389406 .25 .0055389406 .1639862 .0055389406 .09199524 .067611698 .09199524 .15072632 .09199524 .20880127 .12399292 .27288819 .20899964 .3199463Z"/>
</defs>
<path transform="matrix(1.00008,0,0,-1.00005,53.18489,62.38247)" stroke-width=".3985" stroke-linecap="butt" stroke-miterlimit="10" stroke-linejoin="miter" fill="none" stroke="#00aeef" d="M-45.92255-45.92255H45.92255M-45.92255-38.26878H45.92255M-45.92255-30.61504H45.92255M-45.92255-22.96126H45.92255M-45.92255-15.30751H45.92255M-45.92255-7.65375H45.92255M-45.92255 0H45.92255M-45.92255 7.65375H45.92255M-45.92255 15.30751H45.92255M-45.92255 22.96126H45.92255M-45.92255 30.61504H45.92255M-45.92255 38.26878H45.92255M-45.92255 45.91985H45.92255M-45.92255-45.92255V45.92255M-38.26878-45.92255V45.92255M-30.61504-45.92255V45.92255M-22.96126-45.92255V45.92255M-15.30751-45.92255V45.92255M-7.65375-45.92255V45.92255M0-45.92255V45.92255M7.65375-45.92255V45.92255M15.30751-45.92255V45.92255M22.96126-45.92255V45.92255M30.61504-45.92255V45.92255M38.26878-45.92255V45.92255M45.91985-45.92255V45.92255M45.92255 45.92255"/>
<path transform="matrix(1.00008,0,0,-1.00005,53.18489,62.38247)" stroke-width=".79701" stroke-linecap="butt" stroke-miterlimit="10" stroke-linejoin="miter" fill="none" stroke="#000000" d="M-45.92255 0H47.92458"/>
<path transform="matrix(1.00008,0,0,-1.00005,101.113307,62.38247)" d="M2.59026 0-1.55415 2.0722 0 0-1.55415-2.0722"/>
<use data-text="x" xlink:href="#font_1_1" transform="matrix(9.963397,0,0,-9.963098,107.42323,64.52757)"/>
<path transform="matrix(1.00008,0,0,-1.00005,53.18489,62.38247)" stroke-width=".79701" stroke-linecap="butt" stroke-miterlimit="10" stroke-linejoin="miter" fill="none" stroke="#000000" d="M0-45.92255V49.08023"/>
<path transform="matrix(0,-1.00005,-1.00008,-0,53.18489,13.299786)" d="M1.0361 0C-.25902 .25902-1.55415 .77707-3.1083 1.68365-1.55415 .51805-1.55415-.51805-3.1083-1.68365-1.55415-.77707-.25902-.25902 1.0361 0Z"/>
<path transform="matrix(0,-1.00005,-1.00008,-0,53.18489,13.299786)" stroke-width=".79701" stroke-linecap="butt" stroke-linejoin="round" fill="none" stroke="#000000" d="M1.0361 0C-.25902 .25902-1.55415 .77707-3.1083 1.68365-1.55415 .51805-1.55415-.51805-3.1083-1.68365-1.55415-.77707-.25902-.25902 1.0361 0Z"/>
<use data-text="y" xlink:href="#font_1_2" transform="matrix(9.963397,0,0,-9.963098,50.563684,6.208664)"/>
<path transform="matrix(1.00008,0,0,-1.00005,53.18489,62.38247)" stroke-width=".79701" stroke-linecap="butt" stroke-miterlimit="10" stroke-linejoin="miter" fill="none" stroke="#000000" d="M-45.92255 3.06145V-3.06155"/>
<path transform="matrix(1.00008,0,0,-1.00005,53.18489,62.38247)" d="M-53.28394-14.69583H-38.561159V-5.4526007H-53.28394Z" fill="#ffffff"/>
<use data-text="&#x2212;" xlink:href="#font_2_1" transform="matrix(9.963397,0,0,-9.963098,.89271548,75.25211)"/>
<use data-text="6" xlink:href="#font_3_3" transform="matrix(9.963397,0,0,-9.963098,8.642334,75.25211)"/>
<path transform="matrix(1.00008,0,0,-1.00005,53.18489,62.38247)" stroke-width=".79701" stroke-linecap="butt" stroke-miterlimit="10" stroke-linejoin="miter" fill="none" stroke="#000000" d="M3.06145-45.92255H-3.06155"/>
<path transform="matrix(1.00008,0,0,-1.00005,53.18489,62.38247)" d="M-20.17538-50.54416H-5.4526007V-41.30093H-20.17538Z" fill="#ffffff"/>
<use data-text="&#x2212;" xlink:href="#font_2_1" transform="matrix(9.963397,0,0,-9.963098,34.004358,111.102909)"/>
<use data-text="6" xlink:href="#font_3_3" transform="matrix(9.963397,0,0,-9.963098,41.753976,111.102909)"/>
<path transform="matrix(1.00008,0,0,-1.00005,53.18489,62.38247)" stroke-width=".79701" stroke-linecap="butt" stroke-miterlimit="10" stroke-linejoin="miter" fill="none" stroke="#000000" d="M-30.61504 3.06145V-3.06155"/>
<path transform="matrix(1.00008,0,0,-1.00005,53.18489,62.38247)" d="M-37.97643-14.69583H-23.253649V-5.4526007H-37.97643Z" fill="#ffffff"/>
<use data-text="&#x2212;" xlink:href="#font_2_1" transform="matrix(9.963397,0,0,-9.963098,16.201935,75.25211)"/>
<use data-text="4" xlink:href="#font_3_2" transform="matrix(9.963397,0,0,-9.963098,23.951554,75.25211)"/>
<path transform="matrix(1.00008,0,0,-1.00005,53.18489,62.38247)" stroke-width=".79701" stroke-linecap="butt" stroke-miterlimit="10" stroke-linejoin="miter" fill="none" stroke="#000000" d="M3.06145-30.61504H-3.06155"/>
<path transform="matrix(1.00008,0,0,-1.00005,53.18489,62.38247)" d="M-20.17538-35.23665H-5.4526007V-25.99342H-20.17538Z" fill="#ffffff"/>
<use data-text="&#x2212;" xlink:href="#font_2_1" transform="matrix(9.963397,0,0,-9.963098,34.004358,95.794139)"/>
<use data-text="4" xlink:href="#font_3_2" transform="matrix(9.963397,0,0,-9.963098,41.753976,95.794139)"/>
<path transform="matrix(1.00008,0,0,-1.00005,53.18489,62.38247)" stroke-width=".79701" stroke-linecap="butt" stroke-miterlimit="10" stroke-linejoin="miter" fill="none" stroke="#000000" d="M-15.30751 3.06145V-3.06155"/>
<path transform="matrix(1.00008,0,0,-1.00005,53.18489,62.38247)" d="M-22.6689-14.69583H-7.9461195V-5.4526007H-22.6689Z" fill="#ffffff"/>
<use data-text="&#x2212;" xlink:href="#font_2_1" transform="matrix(9.963397,0,0,-9.963098,31.510155,75.25211)"/>
<use data-text="2" xlink:href="#font_3_1" transform="matrix(9.963397,0,0,-9.963098,39.259775,75.25211)"/>
<path transform="matrix(1.00008,0,0,-1.00005,53.18489,62.38247)" stroke-width=".79701" stroke-linecap="butt" stroke-miterlimit="10" stroke-linejoin="miter" fill="none" stroke="#000000" d="M3.06145-15.30751H-3.06155"/>
<path transform="matrix(1.00008,0,0,-1.00005,53.18489,62.38247)" d="M-20.17538-19.92912H-5.4526007V-10.685889H-20.17538Z" fill="#ffffff"/>
<use data-text="&#x2212;" xlink:href="#font_2_1" transform="matrix(9.963397,0,0,-9.963098,34.004358,80.486377)"/>
<use data-text="2" xlink:href="#font_3_1" transform="matrix(9.963397,0,0,-9.963098,41.753976,80.486377)"/>
<path transform="matrix(1.00008,0,0,-1.00005,53.18489,62.38247)" stroke-width=".79701" stroke-linecap="butt" stroke-miterlimit="10" stroke-linejoin="miter" fill="none" stroke="#000000" d="M15.30751 3.06145V-3.06155"/>
<path transform="matrix(1.00008,0,0,-1.00005,53.18489,62.38247)" d="M11.82054-13.8656H18.79448V-5.4526197H11.82054Z" fill="#ffffff"/>
<use data-text="2" xlink:href="#font_3_1" transform="matrix(9.963397,0,0,-9.963098,66.002918,75.25211)"/>
<path transform="matrix(1.00008,0,0,-1.00005,53.18489,62.38247)" stroke-width=".79701" stroke-linecap="butt" stroke-miterlimit="10" stroke-linejoin="miter" fill="none" stroke="#000000" d="M3.06145 15.30751H-3.06155"/>
<path transform="matrix(1.00008,0,0,-1.00005,53.18489,62.38247)" d="M-12.42654 11.10101H-5.4526007V19.51399H-12.42654Z" fill="#ffffff"/>
<use data-text="2" xlink:href="#font_3_1" transform="matrix(9.963397,0,0,-9.963098,41.753976,50.284868)"/>
<path transform="matrix(1.00008,0,0,-1.00005,53.18489,62.38247)" stroke-width=".79701" stroke-linecap="butt" stroke-miterlimit="10" stroke-linejoin="miter" fill="none" stroke="#000000" d="M30.61504 3.06145V-3.06155"/>
<path transform="matrix(1.00008,0,0,-1.00005,53.18489,62.38247)" d="M27.12807-13.8656H34.102014V-5.4526197H27.12807Z" fill="#ffffff"/>
<use data-text="4" xlink:href="#font_3_2" transform="matrix(9.963397,0,0,-9.963098,81.31114,75.25211)"/>
<path transform="matrix(1.00008,0,0,-1.00005,53.18489,62.38247)" stroke-width=".79701" stroke-linecap="butt" stroke-miterlimit="10" stroke-linejoin="miter" fill="none" stroke="#000000" d="M3.06145 30.61504H-3.06155"/>
<path transform="matrix(1.00008,0,0,-1.00005,53.18489,62.38247)" d="M-12.42654 26.40854H-5.4526007V34.82152H-12.42654Z" fill="#ffffff"/>
<use data-text="4" xlink:href="#font_3_2" transform="matrix(9.963397,0,0,-9.963098,41.753976,34.976099)"/>
<path transform="matrix(1.00008,0,0,-1.00005,53.18489,62.38247)" stroke-width=".79701" stroke-linecap="butt" stroke-miterlimit="10" stroke-linejoin="miter" fill="none" stroke="#000000" d="M45.92255 3.06145V-3.06155"/>
<path transform="matrix(1.00008,0,0,-1.00005,53.18489,62.38247)" d="M42.43558-13.8656H49.409524V-5.4526197H42.43558Z" fill="#ffffff"/>
<use data-text="6" xlink:href="#font_3_3" transform="matrix(9.963397,0,0,-9.963098,96.62036,75.25211)"/>
<path transform="matrix(1.00008,0,0,-1.00005,53.18489,62.38247)" stroke-width=".79701" stroke-linecap="butt" stroke-miterlimit="10" stroke-linejoin="miter" fill="none" stroke="#000000" d="M3.06145 45.92255H-3.06155"/>
<path transform="matrix(1.00008,0,0,-1.00005,53.18489,62.38247)" d="M-12.42654 41.71605H-5.4526007V50.12903H-12.42654Z" fill="#ffffff"/>
<use data-text="6" xlink:href="#font_3_3" transform="matrix(9.963397,0,0,-9.963098,41.753976,19.668335)"/>
<use data-text="I" xlink:href="#font_4_65" transform="matrix(9.963397,0,0,-9.963098,51.38675,127.0177)"/>
<path transform="matrix(1.00008,0,0,-1.00005,53.18489,62.38247)" stroke-width=".79701" stroke-linecap="butt" stroke-miterlimit="10" stroke-linejoin="miter" fill="none" stroke="#ff0000" d="M-45.92255-.9567C-45.92255-.9567-44.11768-.98555-43.42445-.99734-42.73126-1.00914-41.61958-1.02887-40.92639-1.04172-40.23318-1.05458-39.12152-1.07597-38.42831-1.09007-37.7351-1.10417-36.62344-1.1278-35.93024-1.14333-35.23705-1.15886-34.12537-1.18483-33.43217-1.20195-32.73895-1.21909-31.62729-1.24776-30.93408-1.26677-30.24088-1.2858-29.12921-1.31776-28.436-1.33907-27.7428-1.36037-26.63113-1.3964-25.93793-1.42035-25.24474-1.44432-24.13306-1.48465-23.43987-1.51178-22.74666-1.53894-21.635-1.58492-20.94179-1.61597-20.24857-1.647-19.13692-1.69972-18.4437-1.73555-17.75049-1.7714-16.63882-1.83232-15.94562-1.87418-15.25243-1.91605-14.14075-1.98782-13.44756-2.03734-12.75435-2.08685-11.64268-2.17168-10.94948-2.23108-10.25627-2.29051-9.1446-2.39287-8.4514-2.46559-7.7582-2.53831-6.64653-2.66415-5.95332-2.75523-5.26012-2.84628-4.14844-3.00458-3.45525-3.12193-2.76204-3.23929-1.65038-3.44395-.95717-3.60112-.26396-3.75827 .84767-4.03304 1.54086-4.25464 2.23407-4.47627 3.34573-4.86198 4.03894-5.19841 4.73216-5.53484 5.84381-6.10483 6.53703-6.6794 7.23022-7.25395 8.34189-8.1128 9.03511-9.33945 9.7283-10.5661 10.83998-10.44739 11.53317-15.52028 12.22638-20.59319 14.03125-45.90141 14.03125-45.90141"/>
<path transform="matrix(1.00008,0,0,-1.00005,53.18489,62.38247)" stroke-width=".79701" stroke-linecap="butt" stroke-miterlimit="10" stroke-linejoin="miter" fill="none" stroke="#ff0000" d="M16.58305 45.92406C16.58305 45.92406 17.46625 27.63843 17.80547 23.45119 18.14468 19.26395 18.68866 17.3547 19.02786 15.74533 19.36708 14.13597 19.91107 12.71829 20.25029 11.852 20.5895 10.98573 21.13348 10.04605 21.4727 9.50177 21.81192 8.95752 22.3559 8.30353 22.6951 7.92924 23.03432 7.55496 23.57831 7.07779 23.91753 6.80423 24.25673 6.53067 24.80072 6.16664 25.13992 5.95764 25.47913 5.74866 26.02312 5.46252 26.36234 5.29791 26.70155 5.13332 27.24554 4.90437 27.58475 4.77132 27.92397 4.63826 28.46794 4.44887 28.80716 4.33887 29.14636 4.22885 29.69035 4.07074 30.02957 3.97845 30.36879 3.88618 30.91278 3.75233 31.25198 3.67375 31.59119 3.59518 32.13518 3.47987 32.4744 3.41216 32.8136 3.34442 33.35759 3.24458 33.69681 3.18558 34.03601 3.12659 34.57999 3.03879 34.9192 2.98692 35.25842 2.93507 35.80241 2.85771 36.14162 2.81175 36.48083 2.7658 37.02483 2.69669 37.36404 2.65572 37.70325 2.61476 38.24722 2.55327 38.58644 2.51651 38.92566 2.47974 39.46965 2.42393 39.80885 2.39073 40.14807 2.35753 40.69206 2.30727 41.03127 2.27722 41.37047 2.24716 41.91446 2.2015 42.25368 2.17409 42.5929 2.14668 43.13687 2.10472 43.47609 2.0796 43.8153 2.05449 44.35928 2.01611 44.69849 1.99307 45.0377 1.97003 45.92091 1.91354 45.92091 1.91354"/>
<path transform="matrix(1.00008,0,0,-1.00005,53.18489,62.38247)" stroke-width=".3985" stroke-linecap="butt" stroke-miterlimit="10" stroke-linejoin="miter" fill="none" stroke="#00aeef" d="M68.88382-45.92255H160.72895M68.88382-38.26878H160.72895M68.88382-30.61504H160.72895M68.88382-22.96126H160.72895M68.88382-15.30751H160.72895M68.88382-7.65375H160.72895M68.88382 0H160.72895M68.88382 7.65375H160.72895M68.88382 15.30751H160.72895M68.88382 22.96126H160.72895M68.88382 30.61504H160.72895M68.88382 38.26878H160.72895M68.88382 45.91985H160.72895M68.88382-45.92255V45.92255M76.53758-45.92255V45.92255M84.19135-45.92255V45.92255M91.84511-45.92255V45.92255M99.49886-45.92255V45.92255M107.15263-45.92255V45.92255M114.80638-45.92255V45.92255M122.46014-45.92255V45.92255M130.1139-45.92255V45.92255M137.76767-45.92255V45.92255M145.42142-45.92255V45.92255M153.07518-45.92255V45.92255M160.72626-45.92255V45.92255M160.72895 45.92255"/>
<path transform="matrix(1.00008,0,0,-1.00005,53.18489,62.38247)" stroke-width=".79701" stroke-linecap="butt" stroke-miterlimit="10" stroke-linejoin="miter" fill="none" stroke="#000000" d="M68.88382 0H162.73097"/>
<path transform="matrix(1.00008,0,0,-1.00005,215.92888,62.38247)" d="M2.59026 0-1.55415 2.0722 0 0-1.55415-2.0722"/>
<use data-text="x" xlink:href="#font_1_1" transform="matrix(9.963397,0,0,-9.963098,222.2384,64.52757)"/>
<path transform="matrix(1.00008,0,0,-1.00005,53.18489,62.38247)" stroke-width=".79701" stroke-linecap="butt" stroke-miterlimit="10" stroke-linejoin="miter" fill="none" stroke="#000000" d="M114.80638-45.92255V49.08023"/>
<path transform="matrix(0,-1.00005,-1.00008,-0,168.00046,13.299786)" d="M1.0361 0C-.25902 .25902-1.55415 .77707-3.1083 1.68365-1.55415 .51805-1.55415-.51805-3.1083-1.68365-1.55415-.77707-.25902-.25902 1.0361 0Z"/>
<path transform="matrix(0,-1.00005,-1.00008,-0,168.00046,13.299786)" stroke-width=".79701" stroke-linecap="butt" stroke-linejoin="round" fill="none" stroke="#000000" d="M1.0361 0C-.25902 .25902-1.55415 .77707-3.1083 1.68365-1.55415 .51805-1.55415-.51805-3.1083-1.68365-1.55415-.77707-.25902-.25902 1.0361 0Z"/>
<use data-text="y" xlink:href="#font_1_2" transform="matrix(9.963397,0,0,-9.963098,165.37886,6.208664)"/>
<path transform="matrix(1.00008,0,0,-1.00005,53.18489,62.38247)" stroke-width=".79701" stroke-linecap="butt" stroke-miterlimit="10" stroke-linejoin="miter" fill="none" stroke="#000000" d="M68.88382 3.06145V-3.06155"/>
<path transform="matrix(1.00008,0,0,-1.00005,53.18489,62.38247)" d="M61.52243-14.69583H76.24521V-5.4526007H61.52243Z" fill="#ffffff"/>
<use data-text="&#x2212;" xlink:href="#font_2_1" transform="matrix(9.963397,0,0,-9.963098,115.70889,75.25211)"/>
<use data-text="6" xlink:href="#font_3_3" transform="matrix(9.963397,0,0,-9.963098,123.45851,75.25211)"/>
<path transform="matrix(1.00008,0,0,-1.00005,53.18489,62.38247)" stroke-width=".79701" stroke-linecap="butt" stroke-miterlimit="10" stroke-linejoin="miter" fill="none" stroke="#000000" d="M117.86783-45.92255H111.74481"/>
<path transform="matrix(1.00008,0,0,-1.00005,53.18489,62.38247)" d="M94.63097-50.54416H109.353748V-41.30093H94.63097Z" fill="#ffffff"/>
<use data-text="&#x2212;" xlink:href="#font_2_1" transform="matrix(9.963397,0,0,-9.963098,148.81955,111.102909)"/>
<use data-text="6" xlink:href="#font_3_3" transform="matrix(9.963397,0,0,-9.963098,156.56916,111.102909)"/>
<path transform="matrix(1.00008,0,0,-1.00005,53.18489,62.38247)" stroke-width=".79701" stroke-linecap="butt" stroke-miterlimit="10" stroke-linejoin="miter" fill="none" stroke="#000000" d="M84.19135 3.06145V-3.06155"/>
<path transform="matrix(1.00008,0,0,-1.00005,53.18489,62.38247)" d="M76.82996-14.69583H91.55274V-5.4526007H76.82996Z" fill="#ffffff"/>
<use data-text="&#x2212;" xlink:href="#font_2_1" transform="matrix(9.963397,0,0,-9.963098,131.01712,75.25211)"/>
<use data-text="4" xlink:href="#font_3_2" transform="matrix(9.963397,0,0,-9.963098,138.76673,75.25211)"/>
<path transform="matrix(1.00008,0,0,-1.00005,53.18489,62.38247)" stroke-width=".79701" stroke-linecap="butt" stroke-miterlimit="10" stroke-linejoin="miter" fill="none" stroke="#000000" d="M117.86783-30.61504H111.74481"/>
<path transform="matrix(1.00008,0,0,-1.00005,53.18489,62.38247)" d="M94.63097-35.23665H109.353748V-25.99342H94.63097Z" fill="#ffffff"/>
<use data-text="&#x2212;" xlink:href="#font_2_1" transform="matrix(9.963397,0,0,-9.963098,148.81955,95.794139)"/>
<use data-text="4" xlink:href="#font_3_2" transform="matrix(9.963397,0,0,-9.963098,156.56916,95.794139)"/>
<path transform="matrix(1.00008,0,0,-1.00005,53.18489,62.38247)" stroke-width=".79701" stroke-linecap="butt" stroke-miterlimit="10" stroke-linejoin="miter" fill="none" stroke="#000000" d="M99.49886 3.06145V-3.06155"/>
<path transform="matrix(1.00008,0,0,-1.00005,53.18489,62.38247)" d="M92.13747-14.69583H106.860248V-5.4526007H92.13747Z" fill="#ffffff"/>
<use data-text="&#x2212;" xlink:href="#font_2_1" transform="matrix(9.963397,0,0,-9.963098,146.32634,75.25211)"/>
<use data-text="2" xlink:href="#font_3_1" transform="matrix(9.963397,0,0,-9.963098,154.07596,75.25211)"/>
<path transform="matrix(1.00008,0,0,-1.00005,53.18489,62.38247)" stroke-width=".79701" stroke-linecap="butt" stroke-miterlimit="10" stroke-linejoin="miter" fill="none" stroke="#000000" d="M117.86783-15.30751H111.74481"/>
<path transform="matrix(1.00008,0,0,-1.00005,53.18489,62.38247)" d="M94.63097-19.92912H109.353748V-10.685889H94.63097Z" fill="#ffffff"/>
<use data-text="&#x2212;" xlink:href="#font_2_1" transform="matrix(9.963397,0,0,-9.963098,148.81955,80.486377)"/>
<use data-text="2" xlink:href="#font_3_1" transform="matrix(9.963397,0,0,-9.963098,156.56916,80.486377)"/>
<path transform="matrix(1.00008,0,0,-1.00005,53.18489,62.38247)" stroke-width=".79701" stroke-linecap="butt" stroke-miterlimit="10" stroke-linejoin="miter" fill="none" stroke="#000000" d="M130.1139 3.06145V-3.06155"/>
<path transform="matrix(1.00008,0,0,-1.00005,53.18489,62.38247)" d="M126.62694-13.8656H133.60088V-5.4526197H126.62694Z" fill="#ffffff"/>
<use data-text="2" xlink:href="#font_3_1" transform="matrix(9.963397,0,0,-9.963098,180.8181,75.25211)"/>
<path transform="matrix(1.00008,0,0,-1.00005,53.18489,62.38247)" stroke-width=".79701" stroke-linecap="butt" stroke-miterlimit="10" stroke-linejoin="miter" fill="none" stroke="#000000" d="M117.86783 15.30751H111.74481"/>
<path transform="matrix(1.00008,0,0,-1.00005,53.18489,62.38247)" d="M102.3798 11.10101H109.35374V19.51399H102.3798Z" fill="#ffffff"/>
<use data-text="2" xlink:href="#font_3_1" transform="matrix(9.963397,0,0,-9.963098,156.56916,50.284868)"/>
<path transform="matrix(1.00008,0,0,-1.00005,53.18489,62.38247)" stroke-width=".79701" stroke-linecap="butt" stroke-miterlimit="10" stroke-linejoin="miter" fill="none" stroke="#000000" d="M145.42142 3.06145V-3.06155"/>
<path transform="matrix(1.00008,0,0,-1.00005,53.18489,62.38247)" d="M141.93445-13.8656H148.90839V-5.4526197H141.93445Z" fill="#ffffff"/>
<use data-text="4" xlink:href="#font_3_2" transform="matrix(9.963397,0,0,-9.963098,196.12732,75.25211)"/>
<path transform="matrix(1.00008,0,0,-1.00005,53.18489,62.38247)" stroke-width=".79701" stroke-linecap="butt" stroke-miterlimit="10" stroke-linejoin="miter" fill="none" stroke="#000000" d="M117.86783 30.61504H111.74481"/>
<path transform="matrix(1.00008,0,0,-1.00005,53.18489,62.38247)" d="M102.3798 26.40854H109.35374V34.82152H102.3798Z" fill="#ffffff"/>
<use data-text="4" xlink:href="#font_3_2" transform="matrix(9.963397,0,0,-9.963098,156.56916,34.976099)"/>
<path transform="matrix(1.00008,0,0,-1.00005,53.18489,62.38247)" stroke-width=".79701" stroke-linecap="butt" stroke-miterlimit="10" stroke-linejoin="miter" fill="none" stroke="#000000" d="M160.72895 3.06145V-3.06155"/>
<path transform="matrix(1.00008,0,0,-1.00005,53.18489,62.38247)" d="M157.24198-13.8656H164.21591V-5.4526197H157.24198Z" fill="#ffffff"/>
<use data-text="6" xlink:href="#font_3_3" transform="matrix(9.963397,0,0,-9.963098,211.43556,75.25211)"/>
<path transform="matrix(1.00008,0,0,-1.00005,53.18489,62.38247)" stroke-width=".79701" stroke-linecap="butt" stroke-miterlimit="10" stroke-linejoin="miter" fill="none" stroke="#000000" d="M117.86783 45.92255H111.74481"/>
<path transform="matrix(1.00008,0,0,-1.00005,53.18489,62.38247)" d="M102.3798 41.71605H109.35374V50.12903H102.3798Z" fill="#ffffff"/>
<use data-text="6" xlink:href="#font_3_3" transform="matrix(9.963397,0,0,-9.963098,156.56916,19.668335)"/>
<use data-text="I" xlink:href="#font_4_65" transform="matrix(9.963397,0,0,-9.963098,164.26377,127.0177)"/>
<use data-text="I" xlink:href="#font_4_65" transform="matrix(9.963397,0,0,-9.963098,168.12958,127.0177)"/>
<path transform="matrix(1.00008,0,0,-1.00005,53.18489,62.38247)" stroke-width=".79701" stroke-linecap="butt" stroke-miterlimit="10" stroke-linejoin="miter" fill="none" stroke="#ff0000" d="M68.88382 22.04576C68.88382 22.04576 71.64876 18.42668 72.71071 16.27145 73.77264 14.11624 75.47565 9.44165 76.53758 6.51251 77.59952 3.58334 79.3025-1.85393 80.36446-4.83987 81.42639-7.82582 83.1294-12.69632 84.19135-15.00806 85.25328-17.31981 86.95628-20.42981 88.01822-21.50131 89.08017-22.5728 90.78317-23.16177 91.84511-22.73071 92.90704-22.29968 94.61003-20.22281 95.67198-18.39464 96.73392-16.5665 98.43692-12.33223 99.49886-9.55469 100.5608-6.77715 102.2638-1.42302 103.32574 1.62392 104.38768 4.67087 106.09068 9.83522 107.15263 12.40558 108.21455 14.97594 109.91756 18.68468 110.97949 20.14926 112.04144 21.61385 113.74443 22.96126 114.80638 22.96126 115.86832 22.96126 117.57132 21.61385 118.63326 20.14926 119.6952 18.68468 121.39821 14.97594 122.46014 12.40558 123.52208 9.83522 125.22507 4.67087 126.28702 1.62392 127.34895-1.42302 129.05196-6.77715 130.1139-9.55469 131.17584-12.33223 132.87885-16.5665 133.94078-18.39464 135.00273-20.22281 136.70572-22.29968 137.76767-22.73071 138.82959-23.16177 140.5326-22.5728 141.59453-21.50131 142.65648-20.42981 144.35948-17.31981 145.42142-15.00806 146.48337-12.69632 148.18636-7.82582 149.2483-4.83987 150.31024-1.85393 152.01325 3.58334 153.07518 6.51251 154.13712 9.44165 155.8401 14.11624 156.90206 16.27145 157.96399 18.42668 160.72895 22.04576 160.72895 22.04576"/>
<path transform="matrix(1.00008,0,0,-1.00005,53.18489,62.38247)" stroke-width=".3985" stroke-linecap="butt" stroke-miterlimit="10" stroke-linejoin="miter" fill="none" stroke="#00aeef" d="M183.69023-45.92255H275.53535M183.69023-38.26878H275.53535M183.69023-30.61504H275.53535M183.69023-22.96126H275.53535M183.69023-15.30751H275.53535M183.69023-7.65375H275.53535M183.69023 0H275.53535M183.69023 7.65375H275.53535M183.69023 15.30751H275.53535M183.69023 22.96126H275.53535M183.69023 30.61504H275.53535M183.69023 38.26878H275.53535M183.69023 45.91985H275.53535M183.69023-45.92255V45.92255M191.34398-45.92255V45.92255M198.99774-45.92255V45.92255M206.6515-45.92255V45.92255M214.30527-45.92255V45.92255M221.95902-45.92255V45.92255M229.61278-45.92255V45.92255M237.26654-45.92255V45.92255M244.9203-45.92255V45.92255M252.57405-45.92255V45.92255M260.22785-45.92255V45.92255M267.8816-45.92255V45.92255M275.53266-45.92255V45.92255M275.53535 45.92255"/>
<path transform="matrix(1.00008,0,0,-1.00005,53.18489,62.38247)" stroke-width=".79701" stroke-linecap="butt" stroke-miterlimit="10" stroke-linejoin="miter" fill="none" stroke="#000000" d="M183.69023 0H279.8334"/>
<path transform="matrix(1.00008,0,0,-1.00005,333.04066,62.38247)" d="M2.59026 0-1.55415 2.0722 0 0-1.55415-2.0722"/>
<use data-text="x" xlink:href="#font_1_1" transform="matrix(9.963397,0,0,-9.963098,339.35078,64.52757)"/>
<path transform="matrix(1.00008,0,0,-1.00005,53.18489,62.38247)" stroke-width=".79701" stroke-linecap="butt" stroke-miterlimit="10" stroke-linejoin="miter" fill="none" stroke="#000000" d="M214.30527-45.92255V49.08023"/>
<path transform="matrix(0,-1.00005,-1.00008,-0,267.5073,13.299786)" d="M1.0361 0C-.25902 .25902-1.55415 .77707-3.1083 1.68365-1.55415 .51805-1.55415-.51805-3.1083-1.68365-1.55415-.77707-.25902-.25902 1.0361 0Z"/>
<path transform="matrix(0,-1.00005,-1.00008,-0,267.5073,13.299786)" stroke-width=".79701" stroke-linecap="butt" stroke-linejoin="round" fill="none" stroke="#000000" d="M1.0361 0C-.25902 .25902-1.55415 .77707-3.1083 1.68365-1.55415 .51805-1.55415-.51805-3.1083-1.68365-1.55415-.77707-.25902-.25902 1.0361 0Z"/>
<use data-text="y" xlink:href="#font_1_2" transform="matrix(9.963397,0,0,-9.963098,264.88584,6.208664)"/>
<path transform="matrix(1.00008,0,0,-1.00005,53.18489,62.38247)" stroke-width=".79701" stroke-linecap="butt" stroke-miterlimit="10" stroke-linejoin="miter" fill="none" stroke="#000000" d="M217.36672-45.92255H211.24369"/>
<path transform="matrix(1.00008,0,0,-1.00005,53.18489,62.38247)" d="M194.12985-50.54416H208.85263V-41.30093H194.12985Z" fill="#ffffff"/>
<use data-text="&#x2212;" xlink:href="#font_2_1" transform="matrix(9.963397,0,0,-9.963098,248.3265,111.102909)"/>
<use data-text="6" xlink:href="#font_3_3" transform="matrix(9.963397,0,0,-9.963098,256.0761,111.102909)"/>
<path transform="matrix(1.00008,0,0,-1.00005,53.18489,62.38247)" stroke-width=".79701" stroke-linecap="butt" stroke-miterlimit="10" stroke-linejoin="miter" fill="none" stroke="#000000" d="M217.36672-30.61504H211.24369"/>
<path transform="matrix(1.00008,0,0,-1.00005,53.18489,62.38247)" d="M194.12985-35.23665H208.85263V-25.99342H194.12985Z" fill="#ffffff"/>
<use data-text="&#x2212;" xlink:href="#font_2_1" transform="matrix(9.963397,0,0,-9.963098,248.3265,95.794139)"/>
<use data-text="4" xlink:href="#font_3_2" transform="matrix(9.963397,0,0,-9.963098,256.0761,95.794139)"/>
<path transform="matrix(1.00008,0,0,-1.00005,53.18489,62.38247)" stroke-width=".79701" stroke-linecap="butt" stroke-miterlimit="10" stroke-linejoin="miter" fill="none" stroke="#000000" d="M217.36672-15.30751H211.24369"/>
<path transform="matrix(1.00008,0,0,-1.00005,53.18489,62.38247)" d="M194.12985-19.92912H208.85263V-10.685889H194.12985Z" fill="#ffffff"/>
<use data-text="&#x2212;" xlink:href="#font_2_1" transform="matrix(9.963397,0,0,-9.963098,248.3265,80.486377)"/>
<use data-text="2" xlink:href="#font_3_1" transform="matrix(9.963397,0,0,-9.963098,256.0761,80.486377)"/>
<path transform="matrix(1.00008,0,0,-1.00005,53.18489,62.38247)" stroke-width=".79701" stroke-linecap="butt" stroke-miterlimit="10" stroke-linejoin="miter" fill="none" stroke="#000000" d="M217.36672 15.30751H211.24369"/>
<path transform="matrix(1.00008,0,0,-1.00005,53.18489,62.38247)" d="M201.8787 11.10101H208.85263V19.51399H201.8787Z" fill="#ffffff"/>
<use data-text="2" xlink:href="#font_3_1" transform="matrix(9.963397,0,0,-9.963098,256.0761,50.284868)"/>
<path transform="matrix(1.00008,0,0,-1.00005,53.18489,62.38247)" stroke-width=".79701" stroke-linecap="butt" stroke-miterlimit="10" stroke-linejoin="miter" fill="none" stroke="#000000" d="M217.36672 30.61504H211.24369"/>
<path transform="matrix(1.00008,0,0,-1.00005,53.18489,62.38247)" d="M201.8787 26.40854H208.85263V34.82152H201.8787Z" fill="#ffffff"/>
<use data-text="4" xlink:href="#font_3_2" transform="matrix(9.963397,0,0,-9.963098,256.0761,34.976099)"/>
<path transform="matrix(1.00008,0,0,-1.00005,53.18489,62.38247)" stroke-width=".79701" stroke-linecap="butt" stroke-miterlimit="10" stroke-linejoin="miter" fill="none" stroke="#000000" d="M217.36672 45.92255H211.24369"/>
<path transform="matrix(1.00008,0,0,-1.00005,53.18489,62.38247)" d="M201.8787 41.71605H208.85263V50.12903H201.8787Z" fill="#ffffff"/>
<use data-text="6" xlink:href="#font_3_3" transform="matrix(9.963397,0,0,-9.963098,256.0761,19.668335)"/>
<path transform="matrix(1.00008,0,0,-1.00005,53.18489,62.38247)" stroke-width=".79701" stroke-linecap="butt" stroke-miterlimit="10" stroke-linejoin="miter" fill="none" stroke="#000000" d="M183.69023 3.06145V-3.06155"/>
<path transform="matrix(1.00008,0,0,-1.00005,53.18489,62.38247)" d="M176.32883-14.69583H191.0516V-5.4526007H176.32883Z" fill="#ffffff"/>
<use data-text="&#x2212;" xlink:href="#font_2_1" transform="matrix(9.963397,0,0,-9.963098,230.52408,75.25211)"/>
<use data-text="4" xlink:href="#font_3_2" transform="matrix(9.963397,0,0,-9.963098,238.2737,75.25211)"/>
<path transform="matrix(1.00008,0,0,-1.00005,53.18489,62.38247)" stroke-width=".79701" stroke-linecap="butt" stroke-miterlimit="10" stroke-linejoin="miter" fill="none" stroke="#000000" d="M198.99774 3.06145V-3.06155"/>
<path transform="matrix(1.00008,0,0,-1.00005,53.18489,62.38247)" d="M191.63634-14.69583H206.35912V-5.4526007H191.63634Z" fill="#ffffff"/>
<use data-text="&#x2212;" xlink:href="#font_2_1" transform="matrix(9.963397,0,0,-9.963098,245.8333,75.25211)"/>
<use data-text="2" xlink:href="#font_3_1" transform="matrix(9.963397,0,0,-9.963098,253.58292,75.25211)"/>
<path transform="matrix(1.00008,0,0,-1.00005,53.18489,62.38247)" stroke-width=".79701" stroke-linecap="butt" stroke-miterlimit="10" stroke-linejoin="miter" fill="none" stroke="#000000" d="M229.61278 3.06145V-3.06155"/>
<path transform="matrix(1.00008,0,0,-1.00005,53.18489,62.38247)" d="M226.12581-13.8656H233.09975V-5.4526197H226.12581Z" fill="#ffffff"/>
<use data-text="2" xlink:href="#font_3_1" transform="matrix(9.963397,0,0,-9.963098,280.32508,75.25211)"/>
<path transform="matrix(1.00008,0,0,-1.00005,53.18489,62.38247)" stroke-width=".79701" stroke-linecap="butt" stroke-miterlimit="10" stroke-linejoin="miter" fill="none" stroke="#000000" d="M244.9203 3.06145V-3.06155"/>
<path transform="matrix(1.00008,0,0,-1.00005,53.18489,62.38247)" d="M241.43334-13.8656H248.40727V-5.4526197H241.43334Z" fill="#ffffff"/>
<use data-text="4" xlink:href="#font_3_2" transform="matrix(9.963397,0,0,-9.963098,295.63429,75.25211)"/>
<path transform="matrix(1.00008,0,0,-1.00005,53.18489,62.38247)" stroke-width=".79701" stroke-linecap="butt" stroke-miterlimit="10" stroke-linejoin="miter" fill="none" stroke="#000000" d="M260.22785 3.06145V-3.06155"/>
<path transform="matrix(1.00008,0,0,-1.00005,53.18489,62.38247)" d="M256.74089-13.8656H263.7148V-5.4526197H256.74089Z" fill="#ffffff"/>
<use data-text="6" xlink:href="#font_3_3" transform="matrix(9.963397,0,0,-9.963098,310.9425,75.25211)"/>
<path transform="matrix(1.00008,0,0,-1.00005,53.18489,62.38247)" stroke-width=".79701" stroke-linecap="butt" stroke-miterlimit="10" stroke-linejoin="miter" fill="none" stroke="#000000" d="M275.53535 3.06145V-3.06155"/>
<path transform="matrix(1.00008,0,0,-1.00005,53.18489,62.38247)" d="M272.04838-13.8656H279.0223V-5.4526197H272.04838Z" fill="#ffffff"/>
<use data-text="8" xlink:href="#font_3_4" transform="matrix(9.963397,0,0,-9.963098,326.25178,75.25211)"/>
<use data-text="I" xlink:href="#font_4_65" transform="matrix(9.963397,0,0,-9.963098,277.14179,127.0177)"/>
<use data-text="I" xlink:href="#font_4_65" transform="matrix(9.963397,0,0,-9.963098,281.0076,127.0177)"/>
<use data-text="I" xlink:href="#font_4_65" transform="matrix(9.963397,0,0,-9.963098,284.88337,127.0177)"/>
<path transform="matrix(1.00008,0,0,-1.00005,53.18489,62.38247)" stroke-width=".79701" stroke-linecap="butt" stroke-miterlimit="10" stroke-linejoin="miter" fill="none" stroke="#ff0000" d="M183.69023 .68727C183.69023 .68727 184.72708 .7814 185.12529 .82356 185.52353 .86572 186.16214 .94029 186.56038 .99117 186.9586 1.042 187.59723 1.12996 187.99546 1.19016 188.39369 1.25037 189.0323 1.35345 189.43054 1.42513 189.82877 1.49681 190.46739 1.62102 190.86562 1.70682 191.26386 1.79262 191.90247 1.94221 192.3007 2.04352 192.69892 2.14482 193.33756 2.31805 193.73578 2.43698 194.134 2.55592 194.77263 2.76047 195.17086 2.90074 195.56908 3.04102 196.2077 3.28403 196.60593 3.448 197.00417 3.61197 197.64278 3.89253 198.04102 4.08252 198.43924 4.27248 199.07787 4.59772 199.47609 4.81721 199.87433 5.03671 200.51296 5.41272 200.91118 5.6645 201.3094 5.9163 201.94803 6.34631 202.34627 6.63197 202.74449 6.91763 203.38312 7.40244 203.78134 7.72334 204.17957 8.04427 204.81819 8.58855 205.21642 8.94495 205.61464 9.30133 206.25328 9.90106 206.6515 10.29196 207.04973 10.68286 207.68834 11.339 208.08658 11.76231 208.4848 12.18561 209.12343 12.89146 209.52165 13.3428 209.91989 13.79411 210.5585 14.54155 210.95674 15.01518 211.35497 15.4888 211.99359 16.26755 212.39182 16.75636 212.79006 17.24518 213.42867 18.04257 213.8269 18.53818 214.22513 19.0338 214.86376 19.83429 215.26197 20.32841 215.6602 20.82254 216.29883 21.61504 216.69707 22.09949 217.09528 22.58395 217.73392 23.3534 218.13213 23.82011 218.53037 24.28683 219.16898 25.02089 219.56722 25.4633 219.96544 25.90575 220.60407 26.59592 221.00229 27.00888 221.40053 27.42183 222.03914 28.05992 222.43738 28.43962 222.8356 28.81932 223.47423 29.40097 223.87245 29.74553 224.27069 30.09012 224.90932 30.61415 225.30754 30.92311 225.70577 31.23206 226.34439 31.69836 226.74263 31.97232 227.14084 32.24628 227.77948 32.65694 228.17769 32.89761 228.57593 33.1383 229.21456 33.49745 229.61278 33.70695 230.011 33.91647 230.64963 34.22667 231.04785 34.40768 231.44609 34.58868 232.0847 34.85603 232.48294 35.0116 232.88117 35.16714 233.51979 35.39603 233.91802 35.52884 234.31626 35.66167 234.95487 35.85602 235.3531 35.96889 235.75133 36.08177 236.38996 36.2468 236.78818 36.34238 237.1864 36.43796 237.82503 36.57716 238.22325 36.65782 238.62148 36.73846 239.26012 36.85579 239.65833 36.92361 240.05657 36.99147 240.69518 37.08989 241.09342 37.1468 241.49164 37.20374 242.13027 37.28622 242.52849 37.3339 242.92673 37.38158 243.56534 37.45062 243.96358 37.49051 244.3618 37.5304 245.00043 37.58801 245.39865 37.62132 245.79689 37.6546 246.43552 37.70276 246.83374 37.73051 247.23195 37.75827 247.87059 37.79825 248.26883 37.82138 248.66704 37.8445 249.30568 37.8779 249.70389 37.89717 250.10213 37.91643 250.74074 37.94421 251.13898 37.96024 251.5372 37.97626 252.17583 37.99936 252.57405 38.01268 252.97229 38.02597 253.6109 38.04506 254.00914 38.0561 254.40737 38.06715 255.04599 38.08311 255.44422 38.09232 255.84246 38.1015 256.48106 38.1147 256.8793 38.12233 257.2775 38.12996 257.91615 38.14099 258.3144 38.14732 258.71263 38.15366 259.35124 38.16273 259.74946 38.168 260.14768 38.17325 260.7863 38.18091 261.1845 38.18527 261.58277 38.18965 262.2214 38.19592 262.6196 38.19952 263.01786 38.20314 263.65647 38.20833 264.0547 38.21132 264.45295 38.21431 265.09156 38.21864 265.48979 38.22115 265.888 38.22362 266.52665 38.22725 266.92485 38.22931 267.3231 38.23135 267.96174 38.23425 268.35997 38.23596 268.75816 38.23767 269.3968 38.24014 269.79505 38.24158 270.19325 38.243 270.83189 38.24506 271.2301 38.24625 271.62834 38.24742 272.26695 38.24913 272.6652 38.2501 273.0634 38.25105 273.70204 38.25244 274.10026 38.25325 274.4985 38.25406 275.53535 38.25594 275.53535 38.25594"/>
</svg>
