<svg xmlns="http://www.w3.org/2000/svg" xmlns:xlink="http://www.w3.org/1999/xlink" version="1.1" width="193" height="80" viewBox="0 0 193 80">
<defs>
<path id="font_1_2" d="M.33399964 .30233766C.33999635 .32835389 .36299134 .42037965 .43299867 .42037965 .43798829 .42037965 .46199037 .42037965 .48298646 .40734864 .45498658 .402359 .43499757 .37734986 .43499757 .35334779 .43499757 .33735658 .44599916 .31835938 .47299195 .31835938 .49499513 .31835938 .5269928 .3363495 .5269928 .37635804 .5269928 .42837525 .46798707 .4423828 .43399049 .4423828 .37599183 .4423828 .34098817 .38935853 .32899476 .36634828 .3039856 .43237306 .25 .4423828 .22099304 .4423828 .116989139 .4423828 .05999756 .3133545 .05999756 .28834535 .05999756 .27833558 .069992069 .27833558 .07199097 .27833558 .07998657 .27833558 .08299255 .28033448 .084991458 .28933717 .11898804 .39535523 .18499756 .42037965 .21899414 .42037965 .23799134 .42037965 .272995 .4113617 .272995 .35334779 .272995 .32235719 .2559967 .25532533 .21899414 .11528015 .20298767 .053268434 .16799927 .011245728 .12399292 .011245728 .117996219 .011245728 .09498596 .011245728 .07398987 .024276734 .09899902 .029266358 .12098694 .05027771 .12098694 .07827759 .12098694 .105270389 .09899902 .11328125 .083999637 .11328125 .053985597 .11328125 .0289917 .08728027 .0289917 .055267335 .0289917 .009246826 .07899475-.0107421879 .12298584-.0107421879 .18899536-.0107421879 .22499085 .059280397 .22799683 .0652771 .23999024 .028274537 .27598573-.0107421879 .33599855-.0107421879 .43899537-.0107421879 .49598695 .118270877 .49598695 .14328003 .49598695 .1532898 .4869995 .1532898 .48399354 .1532898 .47499085 .1532898 .47299195 .14929199 .47099305 .14228821 .43798829 .03527832 .36999513 .011245728 .33799745 .011245728 .29899598 .011245728 .2829895 .043273927 .2829895 .07727051 .2829895 .09927368 .2889862 .121276859 .2999878 .16529846L.33399964 .30233766Z"/>
<path id="font_1_3" d="M.48599244 .38136292C.48999024 .39537049 .48999024 .39736939 .48999024 .40437318 .48999024 .42237855 .47599793 .43138124 .46099855 .43138124 .45098878 .43138124 .43499757 .42536927 .42599488 .41036988 .42399598 .405365 .41600038 .37435914 .4119873 .35635377 .40499879 .33035279 .397995 .30334474 .3919983 .27633668L.34700013 .09628296C.34298707 .08126831 .2999878 .011245728 .23399353 .011245728 .18299866 .011245728 .17199707 .055267335 .17199707 .0922699 .17199707 .1382904 .18899536 .20030213 .22299195 .28833009 .23899842 .3293457 .24299622 .3403473 .24299622 .36035157 .24299622 .405365 .21099854 .4423828 .16099549 .4423828 .06599426 .4423828 .0289917 .29733277 .0289917 .28833009 .0289917 .27833558 .038986207 .27833558 .040985109 .27833558 .050994874 .27833558 .051986696 .28033448 .056991579 .29634095 .083999637 .3903656 .12399292 .42037965 .1579895 .42037965 .1659851 .42037965 .18299866 .42037965 .18299866 .3883667 .18299866 .36335755 .17298889 .3373413 .1659851 .31834413 .12599182 .21231079 .10798645 .1552887 .10798645 .10827637 .10798645 .019256592 .17098999-.0107421879 .22999573-.0107421879 .2689972-.0107421879 .30299378 .0062561037 .33099366 .03425598 .31799317-.017745972 .30599977-.06674194 .2659912-.11973572 .23999024-.15385437 .20199585-.18309021 .1559906-.18309021 .14199829-.18309021 .09700012-.18005371 .07998657-.14074707 .09599304-.14074707 .10899353-.14074707 .12298584-.1287384 .1329956-.11973572 .14299011-.10673523 .14299011-.08773804 .14299011-.056747438 .115997318-.052734376 .10598755-.052734376 .08299255-.052734376 .049987794-.068740848 .049987794-.11773682 .049987794-.16796875 .09399414-.20507813 .1559906-.20507813 .25898744-.20507813 .3619995-.11373901 .3899994-.00074768069L.48599244 .38136292Z"/>
<path id="font_2_1" d="M.6589966 .23046875C.6759949 .23046875 .69400027 .23046875 .69400027 .25045777 .69400027 .27046205 .6759949 .27046205 .6589966 .27046205H.117996219C.100997928 .27046205 .08299255 .27046205 .08299255 .25045777 .08299255 .23046875 .100997928 .23046875 .117996219 .23046875H.6589966Z"/>
<path id="font_3_2" d="M.2939911 .16503906V.07800293C.2939911 .041992189 .2919922 .0309906 .21798706 .0309906H.19699097V0C.23799134 .0029907227 .2899933 .0029907227 .33198548 .0029907227 .37399293 .0029907227 .4269867 .0029907227 .46798707 0V.0309906H.44699098C.37298585 .0309906 .37098695 .041992189 .37098695 .07800293V.16503906H.47099305V.19602967H.37098695V.65075686C.37098695 .67074587 .37098695 .6767578 .35499574 .6767578 .34599305 .6767578 .34298707 .6767578 .33499146 .66474917L.027999878 .19602967V.16503906H.2939911M.2999878 .19602967H.055999757L.2999878 .5688019V.19602967Z"/>
<path id="font_1_1" d="M.2649994 .37265016H.37799073C.34498597 .22489929 .33599855 .18196106 .33599855 .11508179 .33599855 .100097659 .33599855 .073150638 .34399415 .03919983 .35398866-.0047454836 .36499024-.0107421879 .37998963-.0107421879 .3999939-.0107421879 .42099 .007247925 .42099 .02722168 .42099 .033218385 .42099 .035202028 .4149933 .049179079 .38598634 .12106323 .38598634 .18595886 .38598634 .21391297 .38598634 .26683045 .3929901 .32073976 .4039917 .37265016H.5179901C.5309906 .37265016 .5669861 .37265016 .5669861 .406662 .5669861 .43066407 .54599 .43066407 .5269928 .43066407H.19198609C.16999817 .43066407 .13198853 .43066407 .08799744 .38365174 .052993776 .34469605 .026992798 .29878236 .026992798 .29379273 .026992798 .29278565 .026992798 .28379823 .038986207 .28379823 .04699707 .28379823 .04899597 .28779603 .054992677 .29577638 .10398865 .37265016 .1619873 .37265016 .18199158 .37265016H.23899842C.20698548 .25186158 .15299988 .13105774 .11099243 .04020691 .102996829 .025222779 .102996829 .023223877 .102996829 .016235352 .102996829-.002746582 .11898804-.0107421879 .13198853-.0107421879 .1619873-.0107421879 .16999817 .017242432 .18199158 .05418396 .19599915 .100097659 .19599915 .10209656 .20899964 .15202332L.2649994 .37265016Z"/>
<path id="font_3_1" d="M.1269989 .07699585 .23298645 .18003845C.3889923 .31811524 .44898988 .3721466 .44898988 .47216798 .44898988 .5860901 .35899354 .6660156 .23699951 .6660156 .12399292 .6660156 .049987794 .57411196 .049987794 .48516847 .049987794 .4291687 .099990848 .4291687 .102996829 .4291687 .11999512 .4291687 .15499878 .44117738 .15499878 .48217774 .15499878 .5081787 .13699341 .5341797 .101989749 .5341797 .09399414 .5341797 .09199524 .5341797 .08898926 .5331726 .11199951 .59806826 .1659851 .63500979 .22399903 .63500979 .31498719 .63500979 .35798646 .5541382 .35798646 .47216798 .35798646 .39215089 .30799867 .31311036 .25299073 .25108338L.06098938 .036987306C.049987794 .025985718 .049987794 .023986817 .049987794 0H.42099L.44898988 .17404175H.42399598C.4189911 .14402771 .4119873 .1000061 .4019928 .084991458 .394989 .07699585 .32899476 .07699585 .30699159 .07699585H.1269989Z"/>
</defs>
<path transform="matrix(1.00005,0,0,-1.00008,55.875947,47.074728)" stroke-width=".3985" stroke-linecap="butt" stroke-miterlimit="10" stroke-linejoin="miter" fill="none" stroke="#00aeef" d="M-48.08852-30.6133H120.2212M-48.08852-20.40886H120.2212M-48.08852-10.20442H120.2212M-48.08852 0H120.2212M-48.08852 10.20442H120.2212M-48.08852 20.40886H120.2212M-48.08852 30.6115H120.2212M-48.08781-30.6133V30.6133M-36.06586-30.6133V30.6133M-24.0439-30.6133V30.6133M-12.02194-30.6133V30.6133M0-30.6133V30.6133M12.02194-30.6133V30.6133M24.0439-30.6133V30.6133M36.06586-30.6133V30.6133M48.08781-30.6133V30.6133M60.10977-30.6133V30.6133M72.13173-30.6133V30.6133M84.15369-30.6133V30.6133M96.17564-30.6133V30.6133M108.1976-30.6133V30.6133M120.21956-30.6133V30.6133M120.2212 30.6133"/>
<path transform="matrix(1.00005,0,0,-1.00008,55.875947,47.074728)" stroke-width=".79701" stroke-linecap="butt" stroke-miterlimit="10" stroke-linejoin="miter" fill="none" stroke="#000000" d="M-48.08852 0H125.61424"/>
<path transform="matrix(1.00005,0,0,-1.00008,181.49646,47.074728)" d="M1.0361 0C-.25902 .25902-1.55415 .77707-3.1083 1.68365-1.55415 .51805-1.55415-.51805-3.1083-1.68365-1.55415-.77707-.25902-.25902 1.0361 0Z"/>
<path transform="matrix(1.00005,0,0,-1.00008,181.49646,47.074728)" stroke-width=".79701" stroke-linecap="butt" stroke-linejoin="round" fill="none" stroke="#000000" d="M1.0361 0C-.25902 .25902-1.55415 .77707-3.1083 1.68365-1.55415 .51805-1.55415-.51805-3.1083-1.68365-1.55415-.77707-.25902-.25902 1.0361 0Z"/>
<use data-text="x" xlink:href="#font_1_2" transform="matrix(9.963098,0,0,-9.963397,186.65048,49.2199)"/>
<path transform="matrix(1.00005,0,0,-1.00008,55.875947,47.074728)" stroke-width=".79701" stroke-linecap="butt" stroke-miterlimit="10" stroke-linejoin="miter" fill="none" stroke="#000000" d="M0-30.6133V33.77065"/>
<path transform="matrix(0,-1.00008,-1.00005,-0,55.875947,13.301376)" d="M1.0361 0C-.25902 .25902-1.55415 .77707-3.1083 1.68365-1.55415 .51805-1.55415-.51805-3.1083-1.68365-1.55415-.77707-.25902-.25902 1.0361 0Z"/>
<path transform="matrix(0,-1.00008,-1.00005,-0,55.875947,13.301376)" stroke-width=".79701" stroke-linecap="butt" stroke-linejoin="round" fill="none" stroke="#000000" d="M1.0361 0C-.25902 .25902-1.55415 .77707-3.1083 1.68365-1.55415 .51805-1.55415-.51805-3.1083-1.68365-1.55415-.77707-.25902-.25902 1.0361 0Z"/>
<use data-text="y" xlink:href="#font_1_3" transform="matrix(9.963098,0,0,-9.963397,53.254816,6.2094576)"/>
<path transform="matrix(1.00005,0,0,-1.00008,55.875947,47.074728)" stroke-width=".79701" stroke-linecap="butt" stroke-miterlimit="10" stroke-linejoin="miter" fill="none" stroke="#000000" d="M.76538-20.40886H-.76538"/>
<path transform="matrix(1.00005,0,0,-1.00008,55.875947,47.074728)" d="M-17.87923-25.03047H-3.1564503V-15.78724H-17.87923Z" fill="#ffffff"/>
<use data-text="&#x2212;" xlink:href="#font_2_1" transform="matrix(9.963098,0,0,-9.963397,38.992105,70.28058)"/>
<use data-text="4" xlink:href="#font_3_2" transform="matrix(9.963098,0,0,-9.963397,46.741479,70.28058)"/>
<path transform="matrix(1.00005,0,0,-1.00008,55.875947,47.074728)" stroke-width=".79701" stroke-linecap="butt" stroke-miterlimit="10" stroke-linejoin="miter" fill="none" stroke="#000000" d="M.76538 20.40886H-.76538"/>
<path transform="matrix(1.00005,0,0,-1.00008,55.875947,47.074728)" d="M-10.13037 16.20236H-3.1564303V24.615342H-10.13037Z" fill="#ffffff"/>
<use data-text="4" xlink:href="#font_3_2" transform="matrix(9.963098,0,0,-9.963397,46.741495,29.874352)"/>
<path transform="matrix(1.00005,0,0,-1.00008,55.875947,47.074728)" stroke-width=".79701" stroke-linecap="butt" stroke-miterlimit="10" stroke-linejoin="miter" fill="none" stroke="#000000" d="M-48.08852 .51024V-.51016"/>
<path transform="matrix(1.00005,0,0,-1.00008,55.875947,47.074728)" d="M-55.97746-13.52815H-40.199579V-4.8937695H-55.97746Z" fill="#ffffff"/>
<use data-text="&#x2212;" xlink:href="#font_2_1" transform="matrix(9.963098,0,0,-9.963397,.89219668,58.777666)"/>
<use data-text="&#x03c0;" xlink:href="#font_1_1" transform="matrix(9.963098,0,0,-9.963397,8.641571,58.777666)"/>
<path transform="matrix(1.00005,0,0,-1.00008,55.875947,47.074728)" stroke-width=".79701" stroke-linecap="butt" stroke-miterlimit="10" stroke-linejoin="miter" fill="none" stroke="#000000" d="M48.08852 .51024V-.51016"/>
<path transform="matrix(1.00005,0,0,-1.00008,55.875947,47.074728)" d="M44.07399-11.17583H52.10303V-4.8937699H44.07399Z" fill="#ffffff"/>
<use data-text="&#x03c0;" xlink:href="#font_1_1" transform="matrix(9.963098,0,0,-9.963397,100.9482,57.25554)"/>
<path transform="matrix(1.00005,0,0,-1.00008,55.875947,47.074728)" stroke-width=".79701" stroke-linecap="butt" stroke-miterlimit="10" stroke-linejoin="miter" fill="none" stroke="#000000" d="M96.17706 .51024V-.51016"/>
<path transform="matrix(1.00005,0,0,-1.00008,55.875947,47.074728)" d="M89.67184-13.30676H102.68226V-4.8937799H89.67184Z" fill="#ffffff"/>
<use data-text="2" xlink:href="#font_3_1" transform="matrix(9.963098,0,0,-9.963397,146.54848,59.38571)"/>
<use data-text="&#x03c0;" xlink:href="#font_1_1" transform="matrix(9.963098,0,0,-9.963397,151.53072,59.38571)"/>
<path transform="matrix(1.00005,0,0,-1.00008,55.875947,47.074728)" stroke-width="1.19553" stroke-linecap="butt" stroke-miterlimit="10" stroke-linejoin="miter" fill="none" stroke="#ff0000" d="M-48.08852 21.64595C-48.08852 21.64595-46.1885 18.81374-45.45877 17.62637-44.72905 16.439-43.55878 14.40111-42.82904 13.08827-42.0993 11.77545-40.92903 9.56403-40.1993 8.16434-39.46956 6.76466-38.29932 4.4455-37.56956 3.0003-36.83983 1.55513-35.66957-.80334-34.93982-2.25151-34.21008-3.69968-33.03983-6.02834-32.31009-7.43703-31.58035-8.84573-30.4101-11.07674-29.68034-12.40442-28.9506-13.73209-27.78035-15.79857-27.05061-17.00604-26.32088-18.21349-25.15062-20.05505-24.42088-21.10689-23.69115-22.15874-22.52087-23.72185-21.79114-24.58694-21.0614-25.45206-19.89114-26.68898-19.1614-27.34204-18.43166-27.99509-17.2614-28.8718-16.53166-29.29367-15.80193-29.71553-14.63167-30.2047-13.90193-30.38252-13.17218-30.56038-12.00192-30.64682-11.27219-30.57545-10.54245-30.5041-9.37218-30.18634-8.64246-29.86823-7.91272-29.55013-6.74245-28.83833-6.01271-28.28282-5.28297-27.72733-4.1127-26.64137-3.38298-25.86453-2.65324-25.08769-1.48297-23.659-.75323-22.6839-.02351-21.7088 1.14673-19.9814 1.87646-18.83667 2.6062-17.69197 3.77647-15.71434 4.5062-14.4336 5.23593-13.15283 6.4062-10.98476 7.13594-9.60588 7.86568-8.227 9.03593-5.93195 9.76567-4.49556 10.4954-3.05919 11.66568-.7052 12.39542 .74644 13.12515 2.1981 14.29541 4.54262 15.02516 5.967 15.75488 7.39137 16.92514 9.65729 17.65489 11.01237 18.38463 12.3675 19.55489 14.48782 20.28464 15.73358 21.01437 16.97934 22.18462 18.8912 22.91437 19.99094 23.6441 21.09067 24.81436 22.73828 25.5441 23.65971 26.27385 24.58115 27.4441 25.91595 28.17383 26.632 28.90358 27.34807 30.07384 28.33089 30.80357 28.82048 31.53333 29.31007 32.70358 29.91197 33.4333 30.16066 34.16306 30.40933 35.33333 30.61256 36.06305 30.61282 36.7928 30.61308 37.96306 30.41063 38.6928 30.16252 39.42252 29.91441 40.59279 29.31369 41.32253 28.82468 42.05226 28.33568 43.22253 27.3536 43.95227 26.63809 44.68199 25.92256 45.85226 24.58856 46.582 23.66765 47.31174 22.74675 48.48201 21.10004 49.21175 20.00075 49.94148 18.90146 51.11176 16.99022 51.84148 15.7448 52.57121 14.49936 53.74149 12.37944 54.47122 11.02452 55.20096 9.66963 56.37123 7.40393 57.10095 5.97961 57.83069 4.5553 59.00096 2.21072 59.7307 .75906 60.46043-.69258 61.63069-3.04651 62.36044-4.48296 63.09016-5.91939 64.26042-8.21466 64.99017-9.59373 65.71991-10.97281 66.89017-13.14136 67.61992-14.42236 68.34964-15.7034 69.5199-17.68137 70.24965-18.8264 70.97939-19.97144 72.14964-21.69954 72.87938-22.67502 73.60913-23.65051 74.77937-25.0797 75.50911-25.85706 76.23886-26.63441 77.40912-27.72153 78.13885-28.27768 78.8686-28.83383 80.03886-29.54668 80.76859-29.86543 81.49834-30.18417 82.6686-30.50305 83.39833-30.57498 84.12807-30.64694 85.29834-30.56126 86.02806-30.38394 86.7578-30.20662 87.92807-29.71815 88.6578-29.29694 89.38753-28.87572 90.55782-28.00058 91.28755-27.34811 92.01727-26.69563 93.18755-25.45908 93.91728-24.59442 94.64702-23.72977 95.81729-22.16762 96.54703-21.11624 97.27676-20.06485 98.44702-18.22389 99.17676-17.01677 99.9065-15.80965 101.07677-13.74352 101.8065-12.41609 102.53624-11.08867 103.70651-8.85822 104.43623-7.44965 105.16597-6.04108 106.33623-3.71228 107.06598-2.26413 107.7957-.81596 108.96597 1.54245 109.69571 2.9877 110.42545 4.43295 111.5957 6.75246 112.32545 8.15219 113.05518 9.55194 114.22545 11.76305 114.9552 13.07613 115.68492 14.38922 116.85518 16.42827 117.58493 17.61609 118.31467 18.80391 120.21468 21.63707 120.21468 21.63707"/>
</svg>
