<svg xmlns="http://www.w3.org/2000/svg" xmlns:xlink="http://www.w3.org/1999/xlink" version="1.1" width="84" height="86" viewBox="0 0 84 86">
<defs>
<path id="font_1_1" d="M.2939911 .64004519C.2939911 .66400149 .2939911 .6660156 .2709961 .6660156 .20899964 .60227969 .12098694 .60227969 .08898926 .60227969V.57128909C.10899353 .57128909 .16799927 .57128909 .21998596 .5972748V.07902527C.21998596 .042999269 .21699524 .0309906 .1269989 .0309906H.09498596V0C.12998963 .0029907227 .21699524 .0029907227 .25698854 .0029907227 .29699708 .0029907227 .38398744 .0029907227 .4189911 0V.0309906H.3869934C.29699708 .0309906 .2939911 .041992189 .2939911 .07902527V.64004519Z"/>
<path id="font_1_2" d="M.1269989 .07699585 .23298645 .18003845C.3889923 .31811524 .44898988 .3721466 .44898988 .47216798 .44898988 .5860901 .35899354 .6660156 .23699951 .6660156 .12399292 .6660156 .049987794 .57411196 .049987794 .48516847 .049987794 .4291687 .099990848 .4291687 .102996829 .4291687 .11999512 .4291687 .15499878 .44117738 .15499878 .48217774 .15499878 .5081787 .13699341 .5341797 .101989749 .5341797 .09399414 .5341797 .09199524 .5341797 .08898926 .5331726 .11199951 .59806826 .1659851 .63500979 .22399903 .63500979 .31498719 .63500979 .35798646 .5541382 .35798646 .47216798 .35798646 .39215089 .30799867 .31311036 .25299073 .25108338L.06098938 .036987306C.049987794 .025985718 .049987794 .023986817 .049987794 0H.42099L.44898988 .17404175H.42399598C.4189911 .14402771 .4119873 .1000061 .4019928 .084991458 .394989 .07699585 .32899476 .07699585 .30699159 .07699585H.1269989Z"/>
<path id="font_1_3" d="M.2899933 .35191346C.37199403 .37893678 .42999269 .4490509 .42999269 .52809146 .42999269 .6100464 .34199525 .6660156 .24598694 .6660156 .14498902 .6660156 .068984989 .60606387 .068984989 .53009036 .068984989 .49710084 .09098816 .47808839 .11999512 .47808839 .15098572 .47808839 .17098999 .50009158 .17098999 .5290985 .17098999 .57910159 .12399292 .57910159 .10899353 .57910159 .13999939 .62802127 .20599365 .64100649 .24198914 .64100649 .2829895 .64100649 .33799745 .6190338 .33799745 .5290985 .33799745 .51708987 .33599855 .45906068 .30999757 .4149933 .27999879 .36691285 .24598694 .36390687 .22099304 .36291505 .21299744 .36190797 .18899536 .35990907 .18199158 .35990907 .17399597 .35890199 .16699219 .35791017 .16699219 .3479004 .16699219 .33691407 .17399597 .33691407 .19099427 .33691407H.23498535C.31698609 .33691407 .35398866 .2686615 .35398866 .17037964 .35398866 .034469606 .2849884 .0055389406 .24099732 .0055389406 .19799805 .0055389406 .12298584 .022491456 .08799744 .08137512 .12298584 .07637024 .1539917 .09837341 .1539917 .1363678 .1539917 .17237854 .1269989 .19238281 .09799194 .19238281 .07398987 .19238281 .041992189 .17837525 .041992189 .1343689 .041992189 .043441774 .1349945-.022460938 .24398804-.022460938 .3659973-.022460938 .45700074 .06838989 .45700074 .17037964 .45700074 .252594 .3939972 .33088685 .2899933 .35191346Z"/>
<path id="font_1_4" d="M.2939911 .16503906V.07800293C.2939911 .041992189 .2919922 .0309906 .21798706 .0309906H.19699097V0C.23799134 .0029907227 .2899933 .0029907227 .33198548 .0029907227 .37399293 .0029907227 .4269867 .0029907227 .46798707 0V.0309906H.44699098C.37298585 .0309906 .37098695 .041992189 .37098695 .07800293V.16503906H.47099305V.19602967H.37098695V.65075686C.37098695 .67074587 .37098695 .6767578 .35499574 .6767578 .34599305 .6767578 .34298707 .6767578 .33499146 .66474917L.027999878 .19602967V.16503906H.2939911M.2999878 .19602967H.055999757L.2999878 .5688019V.19602967Z"/>
</defs>
<path transform="matrix(1.00005,0,0,-1.00006,41.784135,44.49183)" stroke-width=".3985" stroke-linecap="butt" stroke-miterlimit="10" stroke-linejoin="miter" fill="none" stroke="#00aeef" d="M0 0H39.68622"/>
<path transform="matrix(1.00005,0,0,-1.00006,41.784135,44.49183)" stroke-width=".3985" stroke-linecap="butt" stroke-miterlimit="10" stroke-linejoin="miter" fill="none" stroke="#00aeef" d="M0 0 38.33398 10.27156"/>
<path transform="matrix(1.00005,0,0,-1.00006,41.784135,44.49183)" stroke-width=".3985" stroke-linecap="butt" stroke-miterlimit="10" stroke-linejoin="miter" fill="none" stroke="#00aeef" d="M0 0 34.36935 19.84311"/>
<path transform="matrix(1.00005,0,0,-1.00006,41.784135,44.49183)" stroke-width=".3985" stroke-linecap="butt" stroke-miterlimit="10" stroke-linejoin="miter" fill="none" stroke="#00aeef" d="M0 0 28.06242 28.06242"/>
<path transform="matrix(1.00005,0,0,-1.00006,41.784135,44.49183)" stroke-width=".3985" stroke-linecap="butt" stroke-miterlimit="10" stroke-linejoin="miter" fill="none" stroke="#00aeef" d="M0 0 19.84311 34.36935"/>
<path transform="matrix(1.00005,0,0,-1.00006,41.784135,44.49183)" stroke-width=".3985" stroke-linecap="butt" stroke-miterlimit="10" stroke-linejoin="miter" fill="none" stroke="#00aeef" d="M0 0 10.27156 38.33398"/>
<path transform="matrix(1.00005,0,0,-1.00006,41.784135,44.49183)" stroke-width=".3985" stroke-linecap="butt" stroke-miterlimit="10" stroke-linejoin="miter" fill="none" stroke="#00aeef" d="M0 0V39.68622"/>
<path transform="matrix(1.00005,0,0,-1.00006,41.784135,44.49183)" stroke-width=".3985" stroke-linecap="butt" stroke-miterlimit="10" stroke-linejoin="miter" fill="none" stroke="#00aeef" d="M0 0-10.27156 38.33398"/>
<path transform="matrix(1.00005,0,0,-1.00006,41.784135,44.49183)" stroke-width=".3985" stroke-linecap="butt" stroke-miterlimit="10" stroke-linejoin="miter" fill="none" stroke="#00aeef" d="M0 0-19.84311 34.36935"/>
<path transform="matrix(1.00005,0,0,-1.00006,41.784135,44.49183)" stroke-width=".3985" stroke-linecap="butt" stroke-miterlimit="10" stroke-linejoin="miter" fill="none" stroke="#00aeef" d="M0 0-28.06242 28.06242"/>
<path transform="matrix(1.00005,0,0,-1.00006,41.784135,44.49183)" stroke-width=".3985" stroke-linecap="butt" stroke-miterlimit="10" stroke-linejoin="miter" fill="none" stroke="#00aeef" d="M0 0-34.36935 19.84311"/>
<path transform="matrix(1.00005,0,0,-1.00006,41.784135,44.49183)" stroke-width=".3985" stroke-linecap="butt" stroke-miterlimit="10" stroke-linejoin="miter" fill="none" stroke="#00aeef" d="M0 0-38.33398 10.27156"/>
<path transform="matrix(1.00005,0,0,-1.00006,41.784135,44.49183)" stroke-width=".3985" stroke-linecap="butt" stroke-miterlimit="10" stroke-linejoin="miter" fill="none" stroke="#00aeef" d="M0 0H-39.68622"/>
<path transform="matrix(1.00005,0,0,-1.00006,41.784135,44.49183)" stroke-width=".3985" stroke-linecap="butt" stroke-miterlimit="10" stroke-linejoin="miter" fill="none" stroke="#00aeef" d="M0 0-38.33398-10.27156"/>
<path transform="matrix(1.00005,0,0,-1.00006,41.784135,44.49183)" stroke-width=".3985" stroke-linecap="butt" stroke-miterlimit="10" stroke-linejoin="miter" fill="none" stroke="#00aeef" d="M0 0-34.36935-19.84311"/>
<path transform="matrix(1.00005,0,0,-1.00006,41.784135,44.49183)" stroke-width=".3985" stroke-linecap="butt" stroke-miterlimit="10" stroke-linejoin="miter" fill="none" stroke="#00aeef" d="M0 0-28.06242-28.06242"/>
<path transform="matrix(1.00005,0,0,-1.00006,41.784135,44.49183)" stroke-width=".3985" stroke-linecap="butt" stroke-miterlimit="10" stroke-linejoin="miter" fill="none" stroke="#00aeef" d="M0 0-19.84311-34.36935"/>
<path transform="matrix(1.00005,0,0,-1.00006,41.784135,44.49183)" stroke-width=".3985" stroke-linecap="butt" stroke-miterlimit="10" stroke-linejoin="miter" fill="none" stroke="#00aeef" d="M0 0-10.27156-38.33398"/>
<path transform="matrix(1.00005,0,0,-1.00006,41.784135,44.49183)" stroke-width=".3985" stroke-linecap="butt" stroke-miterlimit="10" stroke-linejoin="miter" fill="none" stroke="#00aeef" d="M0 0V-39.68622"/>
<path transform="matrix(1.00005,0,0,-1.00006,41.784135,44.49183)" stroke-width=".3985" stroke-linecap="butt" stroke-miterlimit="10" stroke-linejoin="miter" fill="none" stroke="#00aeef" d="M0 0 10.27156-38.33398"/>
<path transform="matrix(1.00005,0,0,-1.00006,41.784135,44.49183)" stroke-width=".3985" stroke-linecap="butt" stroke-miterlimit="10" stroke-linejoin="miter" fill="none" stroke="#00aeef" d="M0 0 19.84311-34.36935"/>
<path transform="matrix(1.00005,0,0,-1.00006,41.784135,44.49183)" stroke-width=".3985" stroke-linecap="butt" stroke-miterlimit="10" stroke-linejoin="miter" fill="none" stroke="#00aeef" d="M0 0 28.06242-28.06242"/>
<path transform="matrix(1.00005,0,0,-1.00006,41.784135,44.49183)" stroke-width=".3985" stroke-linecap="butt" stroke-miterlimit="10" stroke-linejoin="miter" fill="none" stroke="#00aeef" d="M0 0 34.36935-19.84311"/>
<path transform="matrix(1.00005,0,0,-1.00006,41.784135,44.49183)" stroke-width=".3985" stroke-linecap="butt" stroke-miterlimit="10" stroke-linejoin="miter" fill="none" stroke="#00aeef" d="M0 0 38.33398-10.27156"/>
<path transform="matrix(1.00005,0,0,-1.00006,41.784135,44.49183)" stroke-width=".3985" stroke-linecap="butt" stroke-miterlimit="10" stroke-linejoin="miter" fill="none" stroke="#00aeef" d="M9.92155 0C9.92155 5.47957 5.47957 9.92155 0 9.92155-5.47957 9.92155-9.92155 5.47957-9.92155 0-9.92155-5.47957-5.47957-9.92155 0-9.92155 5.47957-9.92155 9.92155-5.47957 9.92155 0ZM0 0"/>
<path transform="matrix(1.00005,0,0,-1.00006,41.784135,44.49183)" d="M-4.48325 4.71878H4.4832398V15.12431H-4.48325Z" fill="#ffffff"/>
<use data-text="1" xlink:href="#font_1_1" transform="matrix(9.963098,0,0,-9.963197,39.293008,37.780427)"/>
<path transform="matrix(1.00005,0,0,-1.00006,41.784135,44.49183)" stroke-width=".3985" stroke-linecap="butt" stroke-miterlimit="10" stroke-linejoin="miter" fill="none" stroke="#00aeef" d="M19.84311 0C19.84311 10.95917 10.95917 19.84311 0 19.84311-10.95917 19.84311-19.84311 10.95917-19.84311 0-19.84311-10.95917-10.95917-19.84311 0-19.84311 10.95917-19.84311 19.84311-10.95917 19.84311 0ZM0 0"/>
<path transform="matrix(1.00005,0,0,-1.00006,41.784135,44.49183)" d="M-4.48325 14.64034H4.4832398V25.04587H-4.48325Z" fill="#ffffff"/>
<use data-text="2" xlink:href="#font_1_2" transform="matrix(9.963098,0,0,-9.963197,39.293008,27.857832)"/>
<path transform="matrix(1.00005,0,0,-1.00006,41.784135,44.49183)" stroke-width=".3985" stroke-linecap="butt" stroke-miterlimit="10" stroke-linejoin="miter" fill="none" stroke="#00aeef" d="M29.76466 0C29.76466 16.43877 16.43877 29.76466 0 29.76466-16.43877 29.76466-29.76466 16.43877-29.76466 0-29.76466-16.43877-16.43877-29.76466 0-29.76466 16.43877-29.76466 29.76466-16.43877 29.76466 0ZM0 0"/>
<path transform="matrix(1.00005,0,0,-1.00006,41.784135,44.49183)" d="M-4.48325 24.56189H4.4832398V34.96742H-4.48325Z" fill="#ffffff"/>
<use data-text="3" xlink:href="#font_1_3" transform="matrix(9.963098,0,0,-9.963197,39.293008,17.936236)"/>
<path transform="matrix(1.00005,0,0,-1.00006,41.784135,44.49183)" stroke-width=".3985" stroke-linecap="butt" stroke-miterlimit="10" stroke-linejoin="miter" fill="none" stroke="#00aeef" d="M39.68622 0C39.68622 21.91835 21.91835 39.68622 0 39.68622-21.91835 39.68622-39.68622 21.91835-39.68622 0-39.68622-21.91835-21.91835-39.68622 0-39.68622 21.91835-39.68622 39.68622-21.91835 39.68622 0ZM0 0"/>
<path transform="matrix(1.00005,0,0,-1.00006,41.784135,44.49183)" d="M-4.48325 34.48344H4.4832398V44.88897H-4.48325Z" fill="#ffffff"/>
<use data-text="4" xlink:href="#font_1_4" transform="matrix(9.963098,0,0,-9.963197,39.293008,8.013641)"/>
<path transform="matrix(1.00005,0,0,-1.00006,41.784135,44.49183)" stroke-width="1.19553" stroke-linecap="butt" stroke-miterlimit="10" stroke-linejoin="miter" fill="none" stroke="#ff0000" d="M39.68622 0C39.68622 0 39.37607 3.75827 39.00722 5.13486 38.63838 6.51146 37.74034 8.68741 37.02779 9.92155 36.31522 11.15567 34.8793 13.02194 33.87158 14.02968 32.86386 15.03743 30.99896 16.47212 29.7648 17.18468 28.53064 17.8972 26.35323 18.79631 24.97661 19.16518 23.6 19.53401 21.26814 19.84311 19.84311 19.84311 18.41808 19.84311 16.08255 19.53401 14.70595 19.16518 13.32936 18.79631 11.15567 17.8972 9.92155 17.18468 8.68741 16.47212 6.81886 15.03743 5.81111 14.02968 4.80338 13.02194 3.37093 11.15567 2.6584 9.92155 1.94589 8.68741 1.04465 6.51146 .6758 5.13486 .30695 3.75827 0 1.4249 0 0 0-1.4249 .30695-3.75827 .6758-5.13486 1.04465-6.51146 1.94589-8.68741 2.6584-9.92155 3.37093-11.15567 4.80338-13.02194 5.81111-14.02968 6.81886-15.03743 8.68741-16.47212 9.92155-17.18468 11.15567-17.8972 13.32936-18.79631 14.70595-19.16518 16.08255-19.53401 18.41808-19.84311 19.84311-19.84311 21.26814-19.84311 23.6-19.53401 24.97661-19.16518 26.35323-18.79631 28.53064-17.8972 29.7648-17.18468 30.99896-16.47212 32.86386-15.03743 33.87158-14.02968 34.8793-13.02194 36.31522-11.15567 37.02779-9.92155 37.74034-8.68741 38.63838-6.51146 39.00722-5.13486 39.37607-3.75827 39.68622 0 39.68622 0"/>
</svg>
