<svg xmlns="http://www.w3.org/2000/svg" xmlns:xlink="http://www.w3.org/1999/xlink" version="1.1" width="288" height="153" viewBox="0 0 288 153">
<defs>
<path id="font_1_2" d="M.20599365 .3996582H.2999878C.31999208 .3996582 .32998658 .3996582 .32998658 .41966249 .32998658 .43066407 .31999208 .43066407 .3019867 .43066407H.21398926C.25 .5724945 .25498963 .59246829 .25498963 .59846499 .25498963 .61546328 .24299622 .62545779 .22599793 .62545779 .22299195 .62545779 .19499207 .62446597 .18598938 .58947756L.14698792 .43066407H.052993776C.032989503 .43066407 .022994996 .43066407 .022994996 .4116516 .022994996 .3996582 .0309906 .3996582 .050994874 .3996582H.13899231C.066986087 .11608887 .06298828 .099121097 .06298828 .08114624 .06298828 .02722168 .100997928-.0107421879 .15499878-.0107421879 .25698854-.0107421879 .31399537 .13505554 .31399537 .14305115 .31399537 .1530304 .30599977 .1530304 .3019867 .1530304 .29299928 .1530304 .2919922 .15003968 .2869873 .13905335 .24398804 .035217287 .19099427 .011245728 .15699768 .011245728 .13598633 .011245728 .12599182 .024230957 .12599182 .057174684 .12599182 .08114624 .12799073 .088134769 .13198853 .10510254L.20599365 .3996582Z"/>
<path id="font_1_3" d="M.48599244 .38136292C.48999024 .39537049 .48999024 .39736939 .48999024 .40437318 .48999024 .42237855 .47599793 .43138124 .46099855 .43138124 .45098878 .43138124 .43499757 .42536927 .42599488 .41036988 .42399598 .405365 .41600038 .37435914 .4119873 .35635377 .40499879 .33035279 .397995 .30334474 .3919983 .27633668L.34700013 .09628296C.34298707 .08126831 .2999878 .011245728 .23399353 .011245728 .18299866 .011245728 .17199707 .055267335 .17199707 .0922699 .17199707 .1382904 .18899536 .20030213 .22299195 .28833009 .23899842 .3293457 .24299622 .3403473 .24299622 .36035157 .24299622 .405365 .21099854 .4423828 .16099549 .4423828 .06599426 .4423828 .0289917 .29733277 .0289917 .28833009 .0289917 .27833558 .038986207 .27833558 .040985109 .27833558 .050994874 .27833558 .051986696 .28033448 .056991579 .29634095 .083999637 .3903656 .12399292 .42037965 .1579895 .42037965 .1659851 .42037965 .18299866 .42037965 .18299866 .3883667 .18299866 .36335755 .17298889 .3373413 .1659851 .31834413 .12599182 .21231079 .10798645 .1552887 .10798645 .10827637 .10798645 .019256592 .17098999-.0107421879 .22999573-.0107421879 .2689972-.0107421879 .30299378 .0062561037 .33099366 .03425598 .31799317-.017745972 .30599977-.06674194 .2659912-.11973572 .23999024-.15385437 .20199585-.18309021 .1559906-.18309021 .14199829-.18309021 .09700012-.18005371 .07998657-.14074707 .09599304-.14074707 .10899353-.14074707 .12298584-.1287384 .1329956-.11973572 .14299011-.10673523 .14299011-.08773804 .14299011-.056747438 .115997318-.052734376 .10598755-.052734376 .08299255-.052734376 .049987794-.068740848 .049987794-.11773682 .049987794-.16796875 .09399414-.20507813 .1559906-.20507813 .25898744-.20507813 .3619995-.11373901 .3899994-.00074768069L.48599244 .38136292Z"/>
<path id="font_2_2" d="M.2939911 .64004519C.2939911 .66400149 .2939911 .6660156 .2709961 .6660156 .20899964 .60227969 .12098694 .60227969 .08898926 .60227969V.57128909C.10899353 .57128909 .16799927 .57128909 .21998596 .5972748V.07902527C.21998596 .042999269 .21699524 .0309906 .1269989 .0309906H.09498596V0C.12998963 .0029907227 .21699524 .0029907227 .25698854 .0029907227 .29699708 .0029907227 .38398744 .0029907227 .4189911 0V.0309906H.3869934C.29699708 .0309906 .2939911 .041992189 .2939911 .07902527V.64004519Z"/>
<path id="font_2_3" d="M.1269989 .07699585 .23298645 .18003845C.3889923 .31811524 .44898988 .3721466 .44898988 .47216798 .44898988 .5860901 .35899354 .6660156 .23699951 .6660156 .12399292 .6660156 .049987794 .57411196 .049987794 .48516847 .049987794 .4291687 .099990848 .4291687 .102996829 .4291687 .11999512 .4291687 .15499878 .44117738 .15499878 .48217774 .15499878 .5081787 .13699341 .5341797 .101989749 .5341797 .09399414 .5341797 .09199524 .5341797 .08898926 .5331726 .11199951 .59806826 .1659851 .63500979 .22399903 .63500979 .31498719 .63500979 .35798646 .5541382 .35798646 .47216798 .35798646 .39215089 .30799867 .31311036 .25299073 .25108338L.06098938 .036987306C.049987794 .025985718 .049987794 .023986817 .049987794 0H.42099L.44898988 .17404175H.42399598C.4189911 .14402771 .4119873 .1000061 .4019928 .084991458 .394989 .07699585 .32899476 .07699585 .30699159 .07699585H.1269989Z"/>
<path id="font_2_4" d="M.2899933 .35191346C.37199403 .37893678 .42999269 .4490509 .42999269 .52809146 .42999269 .6100464 .34199525 .6660156 .24598694 .6660156 .14498902 .6660156 .068984989 .60606387 .068984989 .53009036 .068984989 .49710084 .09098816 .47808839 .11999512 .47808839 .15098572 .47808839 .17098999 .50009158 .17098999 .5290985 .17098999 .57910159 .12399292 .57910159 .10899353 .57910159 .13999939 .62802127 .20599365 .64100649 .24198914 .64100649 .2829895 .64100649 .33799745 .6190338 .33799745 .5290985 .33799745 .51708987 .33599855 .45906068 .30999757 .4149933 .27999879 .36691285 .24598694 .36390687 .22099304 .36291505 .21299744 .36190797 .18899536 .35990907 .18199158 .35990907 .17399597 .35890199 .16699219 .35791017 .16699219 .3479004 .16699219 .33691407 .17399597 .33691407 .19099427 .33691407H.23498535C.31698609 .33691407 .35398866 .2686615 .35398866 .17037964 .35398866 .034469606 .2849884 .0055389406 .24099732 .0055389406 .19799805 .0055389406 .12298584 .022491456 .08799744 .08137512 .12298584 .07637024 .1539917 .09837341 .1539917 .1363678 .1539917 .17237854 .1269989 .19238281 .09799194 .19238281 .07398987 .19238281 .041992189 .17837525 .041992189 .1343689 .041992189 .043441774 .1349945-.022460938 .24398804-.022460938 .3659973-.022460938 .45700074 .06838989 .45700074 .17037964 .45700074 .252594 .3939972 .33088685 .2899933 .35191346Z"/>
<path id="font_2_5" d="M.2939911 .16503906V.07800293C.2939911 .041992189 .2919922 .0309906 .21798706 .0309906H.19699097V0C.23799134 .0029907227 .2899933 .0029907227 .33198548 .0029907227 .37399293 .0029907227 .4269867 .0029907227 .46798707 0V.0309906H.44699098C.37298585 .0309906 .37098695 .041992189 .37098695 .07800293V.16503906H.47099305V.19602967H.37098695V.65075686C.37098695 .67074587 .37098695 .6767578 .35499574 .6767578 .34599305 .6767578 .34298707 .6767578 .33499146 .66474917L.027999878 .19602967V.16503906H.2939911M.2999878 .19602967H.055999757L.2999878 .5688019V.19602967Z"/>
<path id="font_2_6" d="M.44898988 .20022583C.44898988 .3193512 .36698915 .41944886 .25898744 .41944886 .21099854 .41944886 .16799927 .40345765 .13198853 .36842347V.5637665C.1519928 .5577698 .18499756 .55078127 .21699524 .55078127 .33999635 .55078127 .4099884 .6417694 .4099884 .6547699 .4099884 .6607666 .40699769 .6657715 .3999939 .6657715 .39898683 .6657715 .39698792 .6657715 .3919983 .66278079 .37199403 .6537781 .32299806 .6337738 .2559967 .6337738 .21598816 .6337738 .16999817 .6407776 .12298584 .6617737 .114990238 .66477969 .11299133 .66477969 .11099243 .66477969 .100997928 .66477969 .100997928 .6567688 .100997928 .6407776V.34439088C.100997928 .32637025 .100997928 .31835938 .114990238 .31835938 .12199402 .31835938 .12399292 .32136537 .12799073 .32736207 .13899231 .3433838 .17599488 .39746095 .25698854 .39746095 .30899049 .39746095 .33399964 .35139466 .34199525 .33337403 .35798646 .29632569 .3600006 .25727845 .3600006 .20722962 .3600006 .17222595 .3600006 .11222839 .33599855 .07035828 .31199647 .031463624 .2749939 .0055389406 .22898865 .0055389406 .1559906 .0055389406 .09899902 .058380128 .08198547 .11723328 .084991458 .1162262 .08799744 .115234378 .09899902 .115234378 .13198853 .115234378 .14898682 .14022827 .14898682 .16423035 .14898682 .18823242 .13198853 .21322632 .09899902 .21322632 .084991458 .21322632 .049987794 .20622254 .049987794 .16023255 .049987794 .07434082 .11898804-.022460938 .23098755-.022460938 .34700013-.022460938 .44898988 .073349 .44898988 .20022583Z"/>
<path id="font_2_7" d="M.13198853 .327713V.35173036C.13198853 .6047821 .2559967 .64100649 .30699159 .64100649 .33099366 .64100649 .37298585 .634964 .394989 .6007538 .37998963 .6007538 .33999635 .6007538 .33999635 .5557556 .33999635 .524765 .3639984 .5097656 .38598634 .5097656 .4019928 .5097656 .43199159 .51875308 .43199159 .5577545 .43199159 .6178589 .3880005 .6660156 .30499269 .6660156 .1769867 .6660156 .041992189 .5367584 .041992189 .31570436 .041992189 .048553468 .1579895-.022460938 .25099183-.022460938 .3619995-.022460938 .45700074 .07156372 .45700074 .2036438 .45700074 .33070375 .36799623 .4267578 .25698854 .4267578 .18899536 .4267578 .1519928 .37573243 .13198853 .327713M.25099183 .0055389406C.18798828 .0055389406 .1579895 .06556702 .1519928 .080566409 .13398743 .127594 .13398743 .2076416 .13398743 .22564698 .13398743 .30369569 .1659851 .40374757 .2559967 .40374757 .27198792 .40374757 .31799317 .40374757 .34899903 .34172059 .36698915 .30470277 .36698915 .2536621 .36698915 .20463562 .36698915 .15661621 .36698915 .10658264 .34999085 .0705719 .31999208 .010528564 .27398683 .0055389406 .25099183 .0055389406Z"/>
<path id="font_3_1" d="M.6589966 .23046875C.6759949 .23046875 .69400027 .23046875 .69400027 .25045777 .69400027 .27046205 .6759949 .27046205 .6589966 .27046205H.117996219C.100997928 .27046205 .08299255 .27046205 .08299255 .25045777 .08299255 .23046875 .100997928 .23046875 .117996219 .23046875H.6589966Z"/>
<path id="font_2_1" d="M.45999146 .31976319C.45999146 .39982606 .45498658 .47988893 .41999818 .5539398 .37399293 .65000918 .2919922 .6660156 .25 .6660156 .18998719 .6660156 .116989139 .64001467 .07598877 .54693606 .04399109 .47789 .038986207 .39982606 .038986207 .31976319 .038986207 .24472046 .042999269 .15464783 .083999637 .07859802 .1269989-.0024719239 .19999695-.022460938 .24899292-.022460938 .30299378-.022460938 .3789978-.0014648438 .4229889 .09359741 .45498658 .16265869 .45999146 .2407074 .45999146 .31976319M.24899292-.00047302247C.20999146-.00047302247 .15098572 .024551392 .1329956 .12062073 .12199402 .18066406 .12199402 .2727356 .12199402 .3317871 .12199402 .39582826 .12199402 .46188355 .12998963 .5159149 .14898682 .63500979 .22399903 .64401248 .24899292 .64401248 .28199769 .64401248 .34799195 .6259918 .36698915 .52693179 .3769989 .47088624 .3769989 .39482118 .3769989 .3317871 .3769989 .25672914 .3769989 .18867493 .3659973 .12461853 .35099793 .029556275 .2939911-.00047302247 .24899292-.00047302247Z"/>
<path id="font_1_1" d="M.19198609 .052993776C.19198609 .08198547 .16799927 .10598755 .13899231 .10598755 .10998535 .10598755 .085998538 .08198547 .085998538 .052993776 .085998538 .023986817 .10998535 0 .13899231 0 .16799927 0 .19198609 .023986817 .19198609 .052993776Z"/>
<path id="font_2_8" d="M.16299439 .4569702C.116989139 .486969 .11299133 .52098086 .11299133 .5379791 .11299133 .598999 .17799378 .64100649 .24899292 .64100649 .32199098 .64100649 .38598634 .58898928 .38598634 .51698306 .38598634 .45996095 .34700013 .4119568 .2869873 .37695313L.16299439 .4569702M.30899049 .36193849C.3809967 .3989563 .42999269 .45095826 .42999269 .51698306 .42999269 .6090088 .34098817 .6660156 .25 .6660156 .1499939 .6660156 .068984989 .59199526 .068984989 .49897767 .068984989 .4809723 .070999149 .43595887 .11299133 .38894654 .12399292 .37695313 .16099549 .35194398 .18598938 .33494569 .12799073 .30592347 .041992189 .24984741 .041992189 .15072632 .041992189 .04458618 .14399719-.022460938 .24899292-.022460938 .3619995-.022460938 .45700074 .06060791 .45700074 .16773987 .45700074 .20379639 .44599916 .24885559 .4079895 .2909088 .3889923 .31193543 .37298585 .3219452 .30899049 .36193849M.20899964 .3199463 .33198548 .24183655C.3600006 .2228241 .40699769 .19277954 .40699769 .13169861 .40699769 .05760193 .33198548 .0055389406 .25 .0055389406 .1639862 .0055389406 .09199524 .067611698 .09199524 .15072632 .09199524 .20880127 .12399292 .27288819 .20899964 .3199463Z"/>
</defs>
<path transform="matrix(1.00008,0,0,-1.00008,30.455323,86.706897)" stroke-width=".3985" stroke-linecap="butt" stroke-miterlimit="10" stroke-linejoin="miter" fill="none" stroke="#00aeef" d="M0-62.36191H243.21488M0-49.88953H243.21488M0-37.41714H243.21488M0-24.94475H243.21488M0-12.47237H243.21488M0 0H243.21488M0 12.47237H243.21488M0 24.94475H243.21488M0 37.41714H243.21488M0 49.88953H243.21488M0 62.36191H243.21488M0-62.36952V62.36288M9.35403-62.36952V62.36288M18.70807-62.36952V62.36288M28.0621-62.36952V62.36288M37.41614-62.36952V62.36288M46.77017-62.36952V62.36288M56.1242-62.36952V62.36288M65.47826-62.36952V62.36288M74.83229-62.36952V62.36288M84.18633-62.36952V62.36288M93.54036-62.36952V62.36288M102.8944-62.36952V62.36288M112.24844-62.36952V62.36288M121.60248-62.36952V62.36288M130.95653-62.36952V62.36288M140.31056-62.36952V62.36288M149.6646-62.36952V62.36288M159.01863-62.36952V62.36288M168.37267-62.36952V62.36288M177.7267-62.36952V62.36288M187.08074-62.36952V62.36288M196.43479-62.36952V62.36288M205.78882-62.36952V62.36288M215.14286-62.36952V62.36288M224.4969-62.36952V62.36288M233.85094-62.36952V62.36288M243.20497-62.36952V62.36288M243.21488 62.36288"/>
<path transform="matrix(1.00008,0,0,-1.00008,30.455323,86.706897)" stroke-width=".79701" stroke-linecap="butt" stroke-miterlimit="10" stroke-linejoin="miter" fill="none" stroke="#000000" d="M-3.1183 0H248.01696"/>
<path transform="matrix(1.00008,0,0,-1.00008,278.49214,86.706897)" d="M1.0361 0C-.25902 .25902-1.55415 .77707-3.1083 1.68365-1.55415 .51805-1.55415-.51805-3.1083-1.68365-1.55415-.77707-.25902-.25902 1.0361 0Z"/>
<path transform="matrix(1.00008,0,0,-1.00008,278.49214,86.706897)" stroke-width=".79701" stroke-linecap="butt" stroke-linejoin="round" fill="none" stroke="#000000" d="M1.0361 0C-.25902 .25902-1.55415 .77707-3.1083 1.68365-1.55415 .51805-1.55415-.51805-3.1083-1.68365-1.55415-.77707-.25902-.25902 1.0361 0Z"/>
<use data-text="t" xlink:href="#font_1_2" transform="matrix(9.963397,0,0,-9.963397,283.64659,89.77114)"/>
<path transform="matrix(1.00008,0,0,-1.00008,30.455323,86.706897)" stroke-width=".79701" stroke-linecap="butt" stroke-miterlimit="10" stroke-linejoin="miter" fill="none" stroke="#000000" d="M0-62.36288V73.40065"/>
<path transform="matrix(0,-1.00008,-1.00008,-0,30.455323,13.300369)" d="M1.0361 0C-.25902 .25902-1.55415 .77707-3.1083 1.68365-1.55415 .51805-1.55415-.51805-3.1083-1.68365-1.55415-.77707-.25902-.25902 1.0361 0Z"/>
<path transform="matrix(0,-1.00008,-1.00008,-0,30.455323,13.300369)" stroke-width=".79701" stroke-linecap="butt" stroke-linejoin="round" fill="none" stroke="#000000" d="M1.0361 0C-.25902 .25902-1.55415 .77707-3.1083 1.68365-1.55415 .51805-1.55415-.51805-3.1083-1.68365-1.55415-.77707-.25902-.25902 1.0361 0Z"/>
<use data-text="y" xlink:href="#font_1_3" transform="matrix(9.963397,0,0,-9.963397,27.834115,6.208458)"/>
<path transform="matrix(1.00008,0,0,-1.00008,30.455323,86.706897)" stroke-width=".3985" stroke-linecap="butt" stroke-miterlimit="10" stroke-linejoin="miter" fill="none" stroke="#000000" d="M37.41808 3.1183V-3.11833"/>
<path transform="matrix(1.00008,0,0,-1.00008,30.455323,86.706897)" d="M33.9311-13.72313H40.905038V-5.31015H33.9311Z" fill="#ffffff"/>
<use data-text="1" xlink:href="#font_2_2" transform="matrix(9.963397,0,0,-9.963397,65.38512,99.43491)"/>
<path transform="matrix(1.00008,0,0,-1.00008,30.455323,86.706897)" stroke-width=".3985" stroke-linecap="butt" stroke-miterlimit="10" stroke-linejoin="miter" fill="none" stroke="#000000" d="M74.8362 3.1183V-3.11833"/>
<path transform="matrix(1.00008,0,0,-1.00008,30.455323,86.706897)" d="M71.34923-13.72313H78.323169V-5.31015H71.34923Z" fill="#ffffff"/>
<use data-text="2" xlink:href="#font_2_3" transform="matrix(9.963397,0,0,-9.963397,102.80711,99.43491)"/>
<path transform="matrix(1.00008,0,0,-1.00008,30.455323,86.706897)" stroke-width=".3985" stroke-linecap="butt" stroke-miterlimit="10" stroke-linejoin="miter" fill="none" stroke="#000000" d="M112.25432 3.1183V-3.11833"/>
<path transform="matrix(1.00008,0,0,-1.00008,30.455323,86.706897)" d="M108.76735-13.72313H115.74129V-5.31015H108.76735Z" fill="#ffffff"/>
<use data-text="3" xlink:href="#font_2_4" transform="matrix(9.963397,0,0,-9.963397,140.2281,99.43491)"/>
<path transform="matrix(1.00008,0,0,-1.00008,30.455323,86.706897)" stroke-width=".3985" stroke-linecap="butt" stroke-miterlimit="10" stroke-linejoin="miter" fill="none" stroke="#000000" d="M149.67246 3.1183V-3.11833"/>
<path transform="matrix(1.00008,0,0,-1.00008,30.455323,86.706897)" d="M146.18549-13.72313H153.15943V-5.31015H146.18549Z" fill="#ffffff"/>
<use data-text="4" xlink:href="#font_2_5" transform="matrix(9.963397,0,0,-9.963397,177.64911,99.43491)"/>
<path transform="matrix(1.00008,0,0,-1.00008,30.455323,86.706897)" stroke-width=".3985" stroke-linecap="butt" stroke-miterlimit="10" stroke-linejoin="miter" fill="none" stroke="#000000" d="M187.09055 3.1183V-3.11833"/>
<path transform="matrix(1.00008,0,0,-1.00008,30.455323,86.706897)" d="M183.60358-13.72313H190.57752V-5.31015H183.60358Z" fill="#ffffff"/>
<use data-text="5" xlink:href="#font_2_6" transform="matrix(9.963397,0,0,-9.963397,215.0701,99.43491)"/>
<path transform="matrix(1.00008,0,0,-1.00008,30.455323,86.706897)" stroke-width=".3985" stroke-linecap="butt" stroke-miterlimit="10" stroke-linejoin="miter" fill="none" stroke="#000000" d="M224.50867 3.1183V-3.11833"/>
<path transform="matrix(1.00008,0,0,-1.00008,30.455323,86.706897)" d="M221.0217-13.72313H227.99564V-5.31015H221.0217Z" fill="#ffffff"/>
<use data-text="6" xlink:href="#font_2_7" transform="matrix(9.963397,0,0,-9.963397,252.49109,99.43491)"/>
<path transform="matrix(1.00008,0,0,-1.00008,30.455323,86.706897)" stroke-width=".3985" stroke-linecap="butt" stroke-miterlimit="10" stroke-linejoin="miter" fill="none" stroke="#000000" d="M0-62.36288H-6.23665"/>
<use data-text="&#x2212;" xlink:href="#font_3_1" transform="matrix(9.963397,0,0,-9.963397,7.966522,151.8701)"/>
<use data-text="1" xlink:href="#font_2_2" transform="matrix(9.963397,0,0,-9.963397,15.716141,151.8701)"/>
<path transform="matrix(1.00008,0,0,-1.00008,30.455323,86.706897)" stroke-width=".3985" stroke-linecap="butt" stroke-miterlimit="10" stroke-linejoin="miter" fill="none" stroke="#000000" d="M0-49.89047H-6.23665"/>
<use data-text="&#x2212;" xlink:href="#font_3_1" transform="matrix(9.963397,0,0,-9.963397,.21690369,139.39711)"/>
<use data-text="0" xlink:href="#font_2_1" transform="matrix(9.963397,0,0,-9.963397,7.966522,139.39711)"/>
<use data-text="." xlink:href="#font_1_1" transform="matrix(9.963397,0,0,-9.963397,12.947922,139.39711)"/>
<use data-text="8" xlink:href="#font_2_8" transform="matrix(9.963397,0,0,-9.963397,15.716156,139.39711)"/>
<path transform="matrix(1.00008,0,0,-1.00008,30.455323,86.706897)" stroke-width=".3985" stroke-linecap="butt" stroke-miterlimit="10" stroke-linejoin="miter" fill="none" stroke="#000000" d="M0-37.41808H-6.23665"/>
<use data-text="&#x2212;" xlink:href="#font_3_1" transform="matrix(9.963397,0,0,-9.963397,.21690369,126.92311)"/>
<use data-text="0" xlink:href="#font_2_1" transform="matrix(9.963397,0,0,-9.963397,7.966522,126.92311)"/>
<use data-text="." xlink:href="#font_1_1" transform="matrix(9.963397,0,0,-9.963397,12.947922,126.92311)"/>
<use data-text="6" xlink:href="#font_2_7" transform="matrix(9.963397,0,0,-9.963397,15.716156,126.92311)"/>
<path transform="matrix(1.00008,0,0,-1.00008,30.455323,86.706897)" stroke-width=".3985" stroke-linecap="butt" stroke-miterlimit="10" stroke-linejoin="miter" fill="none" stroke="#000000" d="M0-24.94475H-6.23665"/>
<use data-text="&#x2212;" xlink:href="#font_3_1" transform="matrix(9.963397,0,0,-9.963397,.21690369,114.44911)"/>
<use data-text="0" xlink:href="#font_2_1" transform="matrix(9.963397,0,0,-9.963397,7.966522,114.44911)"/>
<use data-text="." xlink:href="#font_1_1" transform="matrix(9.963397,0,0,-9.963397,12.947922,114.44911)"/>
<use data-text="4" xlink:href="#font_2_5" transform="matrix(9.963397,0,0,-9.963397,15.716156,114.44911)"/>
<path transform="matrix(1.00008,0,0,-1.00008,30.455323,86.706897)" stroke-width=".3985" stroke-linecap="butt" stroke-miterlimit="10" stroke-linejoin="miter" fill="none" stroke="#000000" d="M0-12.47237H-6.23665"/>
<use data-text="&#x2212;" xlink:href="#font_3_1" transform="matrix(9.963397,0,0,-9.963397,.21690369,101.97511)"/>
<use data-text="0" xlink:href="#font_2_1" transform="matrix(9.963397,0,0,-9.963397,7.966522,101.97511)"/>
<use data-text="." xlink:href="#font_1_1" transform="matrix(9.963397,0,0,-9.963397,12.947922,101.97511)"/>
<use data-text="2" xlink:href="#font_2_3" transform="matrix(9.963397,0,0,-9.963397,15.716156,101.97511)"/>
<path transform="matrix(1.00008,0,0,-1.00008,30.455323,86.706897)" stroke-width=".3985" stroke-linecap="butt" stroke-miterlimit="10" stroke-linejoin="miter" fill="none" stroke="#000000" d="M0 12.47237H-6.23665"/>
<use data-text="0" xlink:href="#font_2_1" transform="matrix(9.963397,0,0,-9.963397,7.966522,77.44415)"/>
<use data-text="." xlink:href="#font_1_1" transform="matrix(9.963397,0,0,-9.963397,12.948921,77.44415)"/>
<use data-text="2" xlink:href="#font_2_3" transform="matrix(9.963397,0,0,-9.963397,15.716141,77.44415)"/>
<path transform="matrix(1.00008,0,0,-1.00008,30.455323,86.706897)" stroke-width=".3985" stroke-linecap="butt" stroke-miterlimit="10" stroke-linejoin="miter" fill="none" stroke="#000000" d="M0 24.94475H-6.23665"/>
<use data-text="0" xlink:href="#font_2_1" transform="matrix(9.963397,0,0,-9.963397,7.966522,64.97015)"/>
<use data-text="." xlink:href="#font_1_1" transform="matrix(9.963397,0,0,-9.963397,12.948921,64.97015)"/>
<use data-text="4" xlink:href="#font_2_5" transform="matrix(9.963397,0,0,-9.963397,15.716141,64.97015)"/>
<path transform="matrix(1.00008,0,0,-1.00008,30.455323,86.706897)" stroke-width=".3985" stroke-linecap="butt" stroke-miterlimit="10" stroke-linejoin="miter" fill="none" stroke="#000000" d="M0 37.41808H-6.23665"/>
<use data-text="0" xlink:href="#font_2_1" transform="matrix(9.963397,0,0,-9.963397,7.966522,52.49616)"/>
<use data-text="." xlink:href="#font_1_1" transform="matrix(9.963397,0,0,-9.963397,12.948921,52.49616)"/>
<use data-text="6" xlink:href="#font_2_7" transform="matrix(9.963397,0,0,-9.963397,15.716141,52.49616)"/>
<path transform="matrix(1.00008,0,0,-1.00008,30.455323,86.706897)" stroke-width=".3985" stroke-linecap="butt" stroke-miterlimit="10" stroke-linejoin="miter" fill="none" stroke="#000000" d="M0 49.89047H-6.23665"/>
<use data-text="0" xlink:href="#font_2_1" transform="matrix(9.963397,0,0,-9.963397,7.966522,40.02316)"/>
<use data-text="." xlink:href="#font_1_1" transform="matrix(9.963397,0,0,-9.963397,12.948921,40.02316)"/>
<use data-text="8" xlink:href="#font_2_8" transform="matrix(9.963397,0,0,-9.963397,15.716141,40.02316)"/>
<path transform="matrix(1.00008,0,0,-1.00008,30.455323,86.706897)" stroke-width=".3985" stroke-linecap="butt" stroke-miterlimit="10" stroke-linejoin="miter" fill="none" stroke="#000000" d="M0 62.36288H-6.23665"/>
<use data-text="1" xlink:href="#font_2_2" transform="matrix(9.963397,0,0,-9.963397,15.716141,27.549164)"/>
<path transform="matrix(1.00008,0,0,-1.00008,30.455323,86.706897)" stroke-width="1.19553" stroke-linecap="butt" stroke-miterlimit="10" stroke-linejoin="miter" fill="none" stroke="#929292" d="M0-53.0088H243.21488"/>
<path transform="matrix(1.00008,0,0,-1.00008,30.455323,86.706897)" stroke-width="1.19553" stroke-linecap="butt" stroke-miterlimit="10" stroke-linejoin="miter" fill="none" stroke="#ff0000" d="M0 0C0 0 7.32141 12.22127 10.13338 16.68217 12.94534 21.14307 17.4548 28.18423 20.26677 32.15106 23.07872 36.1179 27.5882 42.08867 30.40016 45.27245 33.21211 48.4562 37.72162 52.92896 40.53357 55.09753 43.34555 57.26613 47.85501 59.9071 50.66698 60.9022 53.47894 61.8973 57.98839 62.52031 60.80037 62.2696 63.61232 62.0189 68.1218 60.57361 70.93375 59.09514 73.74571 57.61665 78.25522 54.21199 81.06717 51.61378 83.87915 49.01556 88.3886 43.89742 91.20056 40.36894 94.01254 36.84047 98.52199 30.38461 101.33397 26.18277 104.14592 21.98091 108.6554 14.65335 111.46735 10.08485 114.27931 5.51634 118.78882-2.1418 121.60077-6.74384 124.41273-11.34587 128.9222-18.7827 131.73416-23.08345 134.54613-27.38419 139.05559-34.05522 141.86756-37.74068 144.67952-41.42615 149.18898-46.84439 152.00095-49.64592 154.81291-52.44743 159.32242-56.21896 162.13437-57.93231 164.94634-59.64568 169.4558-61.49434 172.26776-61.99458 175.07971-62.49486 179.58919-62.28697 182.40114-61.53784 185.21312-60.78873 189.72261-58.53955 192.53458-56.59532 195.34654-54.65106 199.85599-50.52246 202.66797-47.52484 205.47994-44.52722 209.9894-38.82263 212.80136-34.99059 215.61331-31.15854 220.12279-24.29346 222.93474-19.9061 225.7467-15.51875 230.25621-7.99214 233.06816-3.36952 235.88014 1.25305 243.20157 13.41061 243.20157 13.41061"/>
</svg>
