<svg xmlns="http://www.w3.org/2000/svg" xmlns:xlink="http://www.w3.org/1999/xlink" version="1.1" width="126" height="88" viewBox="0 0 126 88">
<defs>
<path id="font_1_1" d="M.57499697 .5688782C.57499697 .64401248 .519989 .70606997 .43899537 .70606997 .3809967 .70606997 .35299684 .6900635 .31799317 .664032 .2630005 .62397769 .20799256 .5268097 .18899536 .4506836L.02999878-.18434143C.0289917-.18833924 .033996583-.19433594 .041992189-.19433594 .049987794-.19433594 .052993776-.19233704 .053985597-.18934632L.12399292 .08711243C.14299011 .027236939 .18699646-.009719849 .2599945-.009719849 .33299256-.009719849 .4079895 .025238038 .45298768 .06915283 .5009918 .11505127 .5329895 .17892456 .5329895 .2527771 .5329895 .32461549 .49598695 .37652589 .45999146 .40159608 .5179901 .43466188 .57499697 .49676515 .57499697 .5688782M.394989 .40260316C.38198854 .3975525 .37098695 .39553834 .34700013 .39553834 .33299256 .39553834 .31298829 .39453126 .30299378 .39956666 .30499269 .4096527 .34098817 .4076538 .35198976 .4076538 .37298585 .4076538 .38198854 .4076538 .394989 .40260316M.5189972 .59191897C.5189972 .5218048 .48098756 .44969178 .42900086 .4186554 .4019928 .4286499 .38198854 .43066407 .35198976 .43066407 .33099366 .43066407 .2749939 .43165589 .2749939 .39855958 .27398683 .37052918 .32598878 .3735199 .34399415 .3735199 .3809967 .3735199 .3959961 .37452699 .42599488 .3865204 .46398927 .35057069 .46899415 .31962586 .46998597 .27372743 .47200013 .21585083 .44799806 .14100647 .41999818 .1020813 .3809967 .048202516 .31399537 .012268066 .25698854 .012268066 .18099976 .012268066 .14299011 .07014465 .14299011 .14100647 .14299011 .15098572 .14299011 .16595459 .147995 .184906L.21199036 .43766786C.23399353 .5238037 .30599977 .68307498 .42599488 .68307498 .48399354 .68307498 .5189972 .6520233 .5189972 .59191897Z"/>
<path id="font_1_2" d="M.20599365 .3996582H.2999878C.31999208 .3996582 .32998658 .3996582 .32998658 .41966249 .32998658 .43066407 .31999208 .43066407 .3019867 .43066407H.21398926C.25 .5724945 .25498963 .59246829 .25498963 .59846499 .25498963 .61546328 .24299622 .62545779 .22599793 .62545779 .22299195 .62545779 .19499207 .62446597 .18598938 .58947756L.14698792 .43066407H.052993776C.032989503 .43066407 .022994996 .43066407 .022994996 .4116516 .022994996 .3996582 .0309906 .3996582 .050994874 .3996582H.13899231C.066986087 .11608887 .06298828 .099121097 .06298828 .08114624 .06298828 .02722168 .100997928-.0107421879 .15499878-.0107421879 .25698854-.0107421879 .31399537 .13505554 .31399537 .14305115 .31399537 .1530304 .30599977 .1530304 .3019867 .1530304 .29299928 .1530304 .2919922 .15003968 .2869873 .13905335 .24398804 .035217287 .19099427 .011245728 .15699768 .011245728 .13598633 .011245728 .12599182 .024230957 .12599182 .057174684 .12599182 .08114624 .12799073 .088134769 .13198853 .10510254L.20599365 .3996582Z"/>
<path id="font_2_1" d="M.74398806 .2263794C.7599945 .2263794 .7839966 .2263794 .7839966 .25038148 .7839966 .27539063 .7609863 .27539063 .74398806 .27539063H.147995C.13198853 .27539063 .10798645 .27539063 .10798645 .25138856 .10798645 .2263794 .1309967 .2263794 .147995 .2263794H.74398806Z"/>
<path id="font_3_10" d="M.41799928 .29803468C.41799928 .05064392 .29499818 .012466431 .23498535 .012466431 .21299744 .012466431 .1599884 .014465332 .1329956 .045639039 .17399597 .04963684 .1769867 .08363342 .1769867 .09263611 .1769867 .11764526 .1599884 .13964844 .12998963 .13964844 .099990848 .13964844 .08198547 .119644168 .08198547 .09063721 .08198547 .022521973 .13899231-.01953125 .23599243-.01953125 .3789978-.01953125 .5139923 .11564636 .5139923 .32904054 .5139923 .5770569 .4039917 .6640625 .2869873 .6640625 .2539978 .6640625 .18499756 .6590576 .12799073 .60305789 .09399414 .5700531 .053985597 .53105166 .053985597 .4410553 .053985597 .31404115 .15499878 .22003174 .27198792 .22003174 .35198976 .22003174 .394989 .27304078 .41799928 .31803895V.29803468M.2769928 .24804688C.23799134 .24804688 .20098877 .26104737 .17298889 .30703736 .1499939 .34403993 .1499939 .38604737 .1499939 .4410553 .1499939 .49905396 .1499939 .53904727 .1789856 .5790558 .20298767 .61405947 .23599243 .63505557 .28799439 .63505557 .33898927 .63505557 .36898805 .60305789 .3849945 .5770569 .4119873 .53504946 .4149933 .4650421 .4149933 .4300537 .4149933 .30004884 .33999635 .24804688 .2769928 .24804688Z"/>
<path id="font_3_1" d="M.5159912 .31925965C.5159912 .42918397 .5029907 .50813296 .45700074 .5780945 .42599488 .62405398 .3639984 .6640625 .28399659 .6640625 .051986696 .6640625 .051986696 .39120484 .051986696 .31925965 .051986696 .2472992 .051986696-.01953125 .28399659-.01953125 .5159912-.01953125 .5159912 .2472992 .5159912 .31925965M.28399659 .008468628C.23799134 .008468628 .1769867 .035446168 .15699768 .117385867 .14299011 .17634583 .14299011 .25830079 .14299011 .33224488 .14299011 .40519715 .14299011 .4811554 .1579895 .53611758 .1789856 .6150665 .24299622 .63604739 .28399659 .63604739 .33799745 .63604739 .3899994 .6030731 .4079895 .545105 .42399598 .4911499 .4249878 .41918946 .4249878 .33224488 .4249878 .25830079 .4249878 .18434143 .4119873 .12138367 .3919983 .030441285 .32398988 .008468628 .28399659 .008468628Z"/>
<path id="font_4_1" d="M.61099246 .25C.61099246 .3841095 .5019989 .49316407 .36799623 .49316407 .23399353 .49316407 .125 .3841095 .125 .25 .125 .115875247 .23399353 .0068359377 .36799623 .0068359377 .5019989 .0068359377 .61099246 .115875247 .61099246 .25M.36799623 .06283569C.2649994 .06283569 .18099976 .14689636 .18099976 .25 .18099976 .35308839 .2649994 .43714906 .36799623 .43714906 .47099305 .43714906 .5549927 .35308839 .5549927 .25 .5549927 .14689636 .47099305 .06283569 .36799623 .06283569Z"/>
<path id="font_3_2" d="M.33499146 .63612368C.33499146 .6630554 .33299256 .6640625 .30499269 .6640625 .24099732 .6014404 .1499939 .6004486 .10899353 .6004486V.5644531C.1329956 .5644531 .19898987 .5644531 .2539978 .592453V.08203125C.2539978 .04899597 .2539978 .035995485 .1539917 .035995485H.115997318V0C.13398743 .0009918213 .25698854 .0039978029 .2939911 .0039978029 .32499696 .0039978029 .45098878 .0009918213 .47299195 0V.035995485H.43499757C.33499146 .035995485 .33499146 .04899597 .33499146 .08203125V.63612368Z"/>
<path id="font_3_9" d="M.35499574 .36123658C.43299867 .3992157 .48298646 .44618226 .48298646 .5151367 .48298646 .6120758 .38198854 .6640625 .2849884 .6640625 .1749878 .6640625 .084991458 .5920868 .084991458 .4971466 .084991458 .45018006 .10699463 .41619874 .125 .39620973 .14299011 .37522889 .1499939 .37123109 .20899964 .33624269 .15299988 .31227113 .053985597 .25830079 .053985597 .15336609 .053985597 .042434694 .16899109-.01953125 .2829895-.01953125 .4099884-.01953125 .5139923 .061431886 .5139923 .1693573 .5139923 .23532105 .47499085 .29127503 .4169922 .32525636 .4039917 .33325196 .36898805 .35324098 .35499574 .36123658M.19198609 .45617677C.1659851 .4711609 .13798523 .49813844 .13798523 .53512576 .13798523 .5980835 .21099854 .63505557 .2829895 .63505557 .36099244 .63505557 .42999269 .5860901 .42999269 .5151367 .42999269 .42619325 .32598878 .3812256 .32398988 .3812256 .32199098 .3812256 .31999208 .3822174 .31298829 .3862152L.19198609 .45617677M.24099732 .31726075 .37799073 .23831177C.4039917 .22332764 .45399476 .19334412 .45399476 .13438416 .45399476 .059432985 .37098695 .012466431 .2849884 .012466431 .19299317 .012466431 .11399841 .07142639 .11399841 .15336609 .11399841 .22732544 .16899109 .2842865 .24099732 .31726075Z"/>
<path id="font_3_3" d="M.5049896 .18203736H.47099305C.46798707 .16001892 .45799256 .100997928 .44499208 .09098816 .43699647 .084991458 .3600006 .084991458 .34599305 .084991458H.1619873C.2669983 .17803955 .3019867 .20603943 .3619995 .25306703 .43598939 .312088 .5049896 .374115 .5049896 .46914674 .5049896 .5900879 .39898683 .6640625 .2709961 .6640625 .14698792 .6640625 .06298828 .57710269 .06298828 .4851532 .06298828 .43414308 .10598755 .42915345 .115997318 .42915345 .13999939 .42915345 .16899109 .44615174 .16899109 .48214723 .16899109 .5001526 .1619873 .53515627 .10998535 .53515627 .14099121 .6060791 .20899964 .62805178 .2559967 .62805178 .35598756 .62805178 .4079895 .5501404 .4079895 .46914674 .4079895 .38212586 .34599305 .3130951 .31399537 .27708436L.07299805 .038986207C.06298828 .02999878 .06298828 .027999878 .06298828 0H.47499085L.5049896 .18203736Z"/>
<path id="font_3_8" d="M.5349884 .6045227C.54499819 .6165161 .54499819 .6185303 .54499819 .64453127H.2829895C.24299622 .64453127 .23199463 .6455078 .19599915 .6484375 .14399719 .65234377 .14199829 .6592407 .13899231 .676239H.10499573L.069992069 .46250917H.10398865C.10598755 .47750855 .115997318 .54351809 .13198853 .5535126 .13999939 .55952456 .22099304 .55952456 .23599243 .55952456H.45399476C.42199708 .5175171 .37098695 .45550538 .34999085 .4275055 .21899414 .25549317 .20698548 .096466068 .20698548 .037460329 .20698548 .02645874 .20698548-.01953125 .2539978-.01953125 .3019867-.01953125 .3019867 .025466919 .3019867 .038467409V.07847595C.3019867 .27249146 .34199525 .36149598 .3849945 .41551209L.5349884 .6045227Z"/>
<path id="font_3_4" d="M.272995 .33428956C.35099793 .33428956 .40699769 .2803192 .40699769 .1733551 .40699769 .04940796 .33499146 .012466431 .2769928 .012466431 .23699951 .012466431 .14898682 .0234375 .10699463 .082351688 .1539917 .084350589 .16499329 .11735535 .16499329 .13835144 .16499329 .17034912 .14099121 .19335938 .10998535 .19335938 .08198547 .19335938 .053985597 .17634583 .053985597 .13534546 .053985597 .041412355 .1579895-.01953125 .2789917-.01953125 .41799928-.01953125 .5139923 .07336426 .5139923 .1733551 .5139923 .2513275 .44999696 .32929994 .33999635 .35229493 .44499208 .39024354 .48298646 .4650879 .48298646 .5260773 .48298646 .60505679 .3919983 .6640625 .2809906 .6640625 .16999817 .6640625 .084991458 .61006167 .084991458 .5300751 .084991458 .49606324 .10699463 .47706605 .13699341 .47706605 .16799927 .47706605 .18798828 .5000763 .18798828 .5280762 .18798828 .5570679 .16799927 .57806399 .13699341 .5800781 .17199707 .62405398 .24099732 .63505557 .27799989 .63505557 .32299806 .63505557 .38598634 .6130676 .38598634 .5260773 .38598634 .48406983 .37199403 .43814088 .34599305 .4072113 .31298829 .36927796 .2849884 .3672943 .23498535 .36428834 .20999146 .3623047 .20799256 .3623047 .20298767 .3612976 .20098877 .3612976 .19299317 .3592987 .19299317 .34829713 .19299317 .33428956 .20199585 .33428956 .21899414 .33428956H.272995Z"/>
<path id="font_3_7" d="M.1499939 .3274536C.1499939 .40945436 .15699768 .48303224 .19499207 .543869 .22898865 .5978699 .2829895 .63505557 .34700013 .63505557 .3769989 .63505557 .4169922 .62701418 .43699647 .5998688 .4119873 .5978699 .3909912 .5808716 .3909912 .5518799 .3909912 .5268707 .4079895 .5048828 .43798829 .5048828 .46798707 .5048828 .48599244 .5248718 .48599244 .5538788 .48599244 .6119385 .44400025 .6640625 .34498597 .6640625 .20098877 .6640625 .053985597 .5318756 .053985597 .3174591 .053985597 .05845642 .17599488-.01953125 .28599549-.01953125 .4079895-.01953125 .5139923 .07345581 .5139923 .20445252 .5139923 .33145143 .41299439 .42546083 .29599 .42546083 .21598816 .42546083 .17199707 .37245179 .1499939 .3274536M.28599549 .012466431C.23599243 .012466431 .19699097 .04145813 .17599488 .08546448 .16099549 .11546326 .15299988 .16545105 .15299988 .22544861 .15299988 .32244874 .21099854 .39746095 .29100038 .39746095 .33699037 .39746095 .36799623 .37945558 .3929901 .342453 .4169922 .30445863 .41799928 .26245118 .41799928 .20445252 .41799928 .14746094 .41799928 .10545349 .3909912 .066467288 .36698915 .031463624 .33499146 .012466431 .28599549 .012466431Z"/>
<path id="font_3_5" d="M.5289917 .1640625V.20005799H.41799928V.64582827C.41799928 .66682437 .41799928 .6738281 .3959961 .6738281 .38398744 .6738281 .37998963 .6738281 .36999513 .65982058L.038986207 .20005799V.1640625H.33299256V.08201599C.33299256 .04800415 .33299256 .035995485 .2519989 .035995485H.22499085V0C.2749939 .0019989014 .33898927 .0039978029 .375 .0039978029 .4119873 .0039978029 .47599793 .0019989014 .526001 0V.035995485H.49899293C.41799928 .035995485 .41799928 .04800415 .41799928 .08201599V.1640625H.5289917M.33999635 .5658722V.20005799H.07598877L.33999635 .5658722Z"/>
<path id="font_3_6" d="M.15499878 .5588074C.20599365 .5458069 .23599243 .5458069 .2519989 .5458069 .38398744 .5458069 .46199037 .6358032 .46199037 .6508026 .46199037 .6618042 .45498658 .6648102 .44999696 .6648102 .44799806 .6648102 .44599916 .6648102 .44198609 .6618042 .41799928 .6528015 .36499024 .6328125 .29100038 .6328125 .2630005 .6328125 .20999146 .6348114 .14498902 .6598053 .1349945 .6648102 .1329956 .6648102 .13198853 .6648102 .11898804 .6648102 .11898804 .6538086 .11898804 .6378021V.34251405C.11898804 .32548524 .11898804 .3134613 .1349945 .3134613 .14399719 .3134613 .14498902 .3154602 .15499878 .32748414 .19799805 .38259889 .25898744 .390625 .2939911 .390625 .35398866 .390625 .3809967 .34251405 .38598634 .33450318 .4039917 .30143739 .4099884 .26335145 .4099884 .20524597 .4099884 .17524719 .4099884 .116256717 .37998963 .07234192 .35499574 .03640747 .31199647 .012466431 .2630005 .012466431 .19799805 .012466431 .1309967 .04838562 .10598755 .11425781 .14399719 .11125183 .16299439 .13624573 .16299439 .16325379 .16299439 .20625305 .12599182 .21424866 .11299133 .21424866 .11099243 .21424866 .06298828 .21424866 .06298828 .1602478 .06298828 .07034302 .14498902-.01953125 .2649994-.01953125 .3929901-.01953125 .5049896 .07533264 .5049896 .20124817 .5049896 .31445313 .4189911 .41862489 .29499818 .41862489 .25099183 .41862489 .19898987 .4076233 .15499878 .36956788V.5588074Z"/>
<path id="font_5_64" d="M.31399537 .18101502V.24902344H.019989014V.18101502H.31399537Z"/>
<path id="font_5_82" d="M.47299195 0V.035995485H.43499757C.33499146 .035995485 .33499146 .048980714 .33499146 .081970218V.6357422C.33499146 .66304019 .33299256 .6640625 .30499269 .6640625 .24099732 .6007385 .1499939 .59973147 .10899353 .59973147V.5644531C.1329956 .5644531 .19898987 .5644531 .2539978 .592453V.08203125C.2539978 .04899597 .2539978 .035995485 .1539917 .035995485H.115997318V0L.2939911 .0039978029 .47299195 0Z"/>
</defs>
<path transform="matrix(1.00005,0,0,-1.00005,27.069504,50.68889)" stroke-width=".3985" stroke-linecap="butt" stroke-miterlimit="10" stroke-linejoin="miter" fill="none" stroke="#00aeef" d="M-17.00824-34.0165H85.04128M-17.00824-17.00824H85.04128M-17.00824 0H85.04128M-17.00824 17.00824H85.04128M-17.00824 34.01053H85.04128M-17.00824-34.0165V34.0165M0-34.0165V34.0165M17.00824-34.0165V34.0165M34.0165-34.0165V34.0165M51.02477-34.0165V34.0165M68.03302-34.0165V34.0165M85.0353-34.0165V34.0165M85.04128 34.0165"/>
<path transform="matrix(1.00005,0,0,-1.00005,27.069504,50.68889)" stroke-width=".3985" stroke-linecap="butt" stroke-miterlimit="10" stroke-linejoin="miter" fill="none" stroke="#000000" d="M-18.70917 0H87.44662"/>
<path transform="matrix(1.00005,0,0,-1.00005,114.52049,50.68889)" d="M.797 0C-.19925 .19925-1.19551 .59775-2.39102 1.29512-1.19551 .3985-1.19551-.3985-2.39102-1.29512-1.19551-.59775-.19925-.19925 .797 0Z"/>
<path transform="matrix(1.00005,0,0,-1.00005,114.52049,50.68889)" stroke-width=".3985" stroke-linecap="butt" stroke-linejoin="round" fill="none" stroke="#000000" d="M.797 0C-.19925 .19925-1.19551 .59775-2.39102 1.29512-1.19551 .3985-1.19551-.3985-2.39102-1.29512-1.19551-.59775-.19925-.19925 .797 0Z"/>
<use data-text="&#x03b2;" xlink:href="#font_1_1" transform="matrix(9.963098,0,0,-9.963098,119.037097,53.18001)"/>
<path transform="matrix(1.00005,0,0,-1.00005,27.069504,50.68889)" stroke-width=".3985" stroke-linecap="butt" stroke-miterlimit="10" stroke-linejoin="miter" fill="none" stroke="#000000" d="M0-35.71744V38.12277"/>
<path transform="matrix(0,-1.00005,-1.00005,-0,27.069504,12.564217)" d="M.797 0C-.19925 .19925-1.19551 .59775-2.39102 1.29512-1.19551 .3985-1.19551-.3985-2.39102-1.29512-1.19551-.59775-.19925-.19925 .797 0Z"/>
<path transform="matrix(0,-1.00005,-1.00005,-0,27.069504,12.564217)" stroke-width=".3985" stroke-linecap="butt" stroke-linejoin="round" fill="none" stroke="#000000" d="M.797 0C-.19925 .19925-1.19551 .59775-2.39102 1.29512-1.19551 .3985-1.19551-.3985-2.39102-1.29512-1.19551-.59775-.19925-.19925 .797 0Z"/>
<use data-text="t" xlink:href="#font_1_2" transform="matrix(9.963098,0,0,-9.963098,25.270417,8.04776)"/>
<path transform="matrix(1.00005,0,0,-1.00005,27.069504,50.68889)" stroke-width=".3985" stroke-linecap="butt" stroke-miterlimit="10" stroke-linejoin="miter" fill="none" stroke="#000000" d="M-17.00824 1.36067V-1.36067"/>
<path transform="matrix(1.00005,0,0,-1.00005,27.069504,50.68889)" d="M-27.17169-12.8342H-6.844799V-4.54877H-27.17169Z" fill="#ffffff"/>
<use data-text="&#x2212;" xlink:href="#font_2_1" transform="matrix(6.9741489,0,0,-6.9741489,.8931961,61.69744)"/>
<use data-text="9" xlink:href="#font_3_10" transform="matrix(6.9741489,0,0,-6.9741489,7.1204988,61.69744)"/>
<use data-text="0" xlink:href="#font_3_1" transform="matrix(6.9741489,0,0,-6.9741489,11.088791,61.69744)"/>
<use data-text="&#x25e6;" xlink:href="#font_4_1" transform="matrix(4.981549,0,0,-4.981549,15.062897,58.690286)"/>
<path transform="matrix(1.00005,0,0,-1.00005,27.069504,50.68889)" stroke-width=".3985" stroke-linecap="butt" stroke-miterlimit="10" stroke-linejoin="miter" fill="none" stroke="#000000" d="M17.00824 1.36067V-1.36067"/>
<path transform="matrix(1.00005,0,0,-1.00005,27.069504,50.68889)" d="M9.95818-12.00397H24.058312V-4.54877H9.95818Z" fill="#ffffff"/>
<use data-text="9" xlink:href="#font_3_10" transform="matrix(6.9741489,0,0,-6.9741489,38.024049,61.69744)"/>
<use data-text="0" xlink:href="#font_3_1" transform="matrix(6.9741489,0,0,-6.9741489,41.99234,61.69744)"/>
<use data-text="&#x25e6;" xlink:href="#font_4_1" transform="matrix(4.981549,0,0,-4.981549,45.966447,58.690286)"/>
<path transform="matrix(1.00005,0,0,-1.00005,27.069504,50.68889)" stroke-width=".3985" stroke-linecap="butt" stroke-miterlimit="10" stroke-linejoin="miter" fill="none" stroke="#000000" d="M34.0165 1.36067V-1.36067"/>
<path transform="matrix(1.00005,0,0,-1.00005,27.069504,50.68889)" d="M24.98077-12.00397H43.052209V-4.54877H24.98077Z" fill="#ffffff"/>
<use data-text="1" xlink:href="#font_3_2" transform="matrix(6.9741489,0,0,-6.9741489,53.0478,61.69744)"/>
<use data-text="8" xlink:href="#font_3_9" transform="matrix(6.9741489,0,0,-6.9741489,57.01609,61.69744)"/>
<use data-text="0" xlink:href="#font_3_1" transform="matrix(6.9741489,0,0,-6.9741489,60.984384,61.69744)"/>
<use data-text="&#x25e6;" xlink:href="#font_4_1" transform="matrix(4.981549,0,0,-4.981549,64.962398,58.690286)"/>
<path transform="matrix(1.00005,0,0,-1.00005,27.069504,50.68889)" stroke-width=".3985" stroke-linecap="butt" stroke-miterlimit="10" stroke-linejoin="miter" fill="none" stroke="#000000" d="M51.02477 1.36067V-1.36067"/>
<path transform="matrix(1.00005,0,0,-1.00005,27.069504,50.68889)" d="M41.98904-12.00397H60.06048V-4.54877H41.98904Z" fill="#ffffff"/>
<use data-text="2" xlink:href="#font_3_3" transform="matrix(6.9741489,0,0,-6.9741489,70.056659,61.69744)"/>
<use data-text="7" xlink:href="#font_3_8" transform="matrix(6.9741489,0,0,-6.9741489,74.02495,61.69744)"/>
<use data-text="0" xlink:href="#font_3_1" transform="matrix(6.9741489,0,0,-6.9741489,77.99324,61.69744)"/>
<use data-text="&#x25e6;" xlink:href="#font_4_1" transform="matrix(4.981549,0,0,-4.981549,81.97125,58.690286)"/>
<path transform="matrix(1.00005,0,0,-1.00005,27.069504,50.68889)" stroke-width=".3985" stroke-linecap="butt" stroke-miterlimit="10" stroke-linejoin="miter" fill="none" stroke="#000000" d="M68.03302 1.36067V-1.36067"/>
<path transform="matrix(1.00005,0,0,-1.00005,27.069504,50.68889)" d="M58.9973-12.00397H77.06874V-4.54877H58.9973Z" fill="#ffffff"/>
<use data-text="3" xlink:href="#font_3_4" transform="matrix(6.9741489,0,0,-6.9741489,87.0665,61.69744)"/>
<use data-text="6" xlink:href="#font_3_7" transform="matrix(6.9741489,0,0,-6.9741489,91.03479,61.69744)"/>
<use data-text="0" xlink:href="#font_3_1" transform="matrix(6.9741489,0,0,-6.9741489,95.00308,61.69744)"/>
<use data-text="&#x25e6;" xlink:href="#font_4_1" transform="matrix(4.981549,0,0,-4.981549,98.981098,58.690286)"/>
<path transform="matrix(1.00005,0,0,-1.00005,27.069504,50.68889)" stroke-width=".3985" stroke-linecap="butt" stroke-miterlimit="10" stroke-linejoin="miter" fill="none" stroke="#000000" d="M85.04128 1.36067V-1.36067"/>
<path transform="matrix(1.00005,0,0,-1.00005,27.069504,50.68889)" d="M76.00555-12.00397H94.07699V-4.54877H76.00555Z" fill="#ffffff"/>
<use data-text="4" xlink:href="#font_3_5" transform="matrix(6.9741489,0,0,-6.9741489,104.07535,61.69744)"/>
<use data-text="5" xlink:href="#font_3_6" transform="matrix(6.9741489,0,0,-6.9741489,108.04364,61.69744)"/>
<use data-text="0" xlink:href="#font_3_1" transform="matrix(6.9741489,0,0,-6.9741489,112.01193,61.69744)"/>
<use data-text="&#x25e6;" xlink:href="#font_4_1" transform="matrix(4.981549,0,0,-4.981549,115.989948,58.690286)"/>
<path transform="matrix(1.00005,0,0,-1.00005,27.069504,50.68889)" stroke-width=".3985" stroke-linecap="butt" stroke-miterlimit="10" stroke-linejoin="miter" fill="none" stroke="#000000" d="M1.36067-17.00824H-1.36067"/>
<path transform="matrix(1.00005,0,0,-1.00005,27.069504,50.68889)" d="M-13.19443-20.31985H-4.54877V-13.696641H-13.19443Z" fill="#ffffff"/>
<use data-text="-" xlink:href="#font_5_64" transform="matrix(6.9741489,0,0,-6.9741489,14.870895,70.013858)"/>
<use data-text="1" xlink:href="#font_5_82" transform="matrix(6.9741489,0,0,-6.9741489,17.555939,70.013858)"/>
<path transform="matrix(1.00005,0,0,-1.00005,27.069504,50.68889)" stroke-width=".3985" stroke-linecap="butt" stroke-miterlimit="10" stroke-linejoin="miter" fill="none" stroke="#000000" d="M1.36067 17.00824H-1.36067"/>
<path transform="matrix(1.00005,0,0,-1.00005,27.069504,50.68889)" d="M-10.50949 13.69662H-4.54877V20.31983H-10.50949Z" fill="#ffffff"/>
<use data-text="1" xlink:href="#font_5_82" transform="matrix(6.9741489,0,0,-6.9741489,17.55603,35.995157)"/>
<path transform="matrix(1.00005,0,0,-1.00005,27.069504,50.68889)" stroke-width="1.19553" stroke-linecap="butt" stroke-miterlimit="10" stroke-linejoin="miter" fill="none" stroke="#ff0000" d="M-17.00824 0C-17.00824 0-13.9361 4.83968-12.75616 6.50836-11.57625 8.17703-9.68404 10.74957-8.50412 12.02664-7.32419 13.30373-5.43198 15.02151-4.25204 15.71268-3.07211 16.40387-1.17992 17.00824 0 17.00824 1.17992 17.00824 3.07211 16.40387 4.25204 15.71268 5.43198 15.02151 7.32419 13.30373 8.50412 12.02664 9.68404 10.74957 11.57625 8.17703 12.75616 6.50836 13.9361 4.83968 15.82831 1.806 17.00824 0 18.18817-1.806 20.08038-4.83946 21.26031-6.5081 22.44023-8.17674 24.33244-10.74928 25.51236-12.0264 26.69229-13.3035 28.5845-15.02151 29.76443-15.71268 30.94437-16.40387 32.83656-17.00793 34.0165-17.00798 35.19643-17.00801 37.08864-16.40405 38.26855-15.71295 39.44849-15.02184 41.3407-13.30399 42.52063-12.02692 43.70056-10.74983 45.59276-8.17726 46.77269-6.5086 47.95262-4.83998 49.84483-1.80647 51.02477-.00049 52.2047 1.80545 54.0969 4.8389 55.27682 6.50758 56.45676 8.17625 58.34895 10.74898 59.52888 12.02612 60.70882 13.30327 62.60103 15.02121 63.78096 15.71242 64.96089 16.40364 66.85309 17.00792 68.03302 17.00798 69.21294 17.00804 71.10515 16.40402 72.28508 15.71295 73.46501 15.02187 75.35722 13.30421 76.53716 12.02718 77.71709 10.75012 79.60928 8.17752 80.78922 6.50887 81.96913 4.84024 85.04128 .00076 85.04128 .00076"/>
</svg>
