<svg xmlns="http://www.w3.org/2000/svg" xmlns:xlink="http://www.w3.org/1999/xlink" version="1.1" width="89" height="91" viewBox="0 0 89 91">
<defs>
<path id="font_1_1" d="M.2939911 .64004519C.2939911 .66400149 .2939911 .6660156 .2709961 .6660156 .20899964 .60227969 .12098694 .60227969 .08898926 .60227969V.57128909C.10899353 .57128909 .16799927 .57128909 .21998596 .5972748V.07902527C.21998596 .042999269 .21699524 .0309906 .1269989 .0309906H.09498596V0C.12998963 .0029907227 .21699524 .0029907227 .25698854 .0029907227 .29699708 .0029907227 .38398744 .0029907227 .4189911 0V.0309906H.3869934C.29699708 .0309906 .2939911 .041992189 .2939911 .07902527V.64004519Z"/>
<path id="font_1_2" d="M.1269989 .07699585 .23298645 .18003845C.3889923 .31811524 .44898988 .3721466 .44898988 .47216798 .44898988 .5860901 .35899354 .6660156 .23699951 .6660156 .12399292 .6660156 .049987794 .57411196 .049987794 .48516847 .049987794 .4291687 .099990848 .4291687 .102996829 .4291687 .11999512 .4291687 .15499878 .44117738 .15499878 .48217774 .15499878 .5081787 .13699341 .5341797 .101989749 .5341797 .09399414 .5341797 .09199524 .5341797 .08898926 .5331726 .11199951 .59806826 .1659851 .63500979 .22399903 .63500979 .31498719 .63500979 .35798646 .5541382 .35798646 .47216798 .35798646 .39215089 .30799867 .31311036 .25299073 .25108338L.06098938 .036987306C.049987794 .025985718 .049987794 .023986817 .049987794 0H.42099L.44898988 .17404175H.42399598C.4189911 .14402771 .4119873 .1000061 .4019928 .084991458 .394989 .07699585 .32899476 .07699585 .30699159 .07699585H.1269989Z"/>
<path id="font_1_3" d="M.2899933 .35191346C.37199403 .37893678 .42999269 .4490509 .42999269 .52809146 .42999269 .6100464 .34199525 .6660156 .24598694 .6660156 .14498902 .6660156 .068984989 .60606387 .068984989 .53009036 .068984989 .49710084 .09098816 .47808839 .11999512 .47808839 .15098572 .47808839 .17098999 .50009158 .17098999 .5290985 .17098999 .57910159 .12399292 .57910159 .10899353 .57910159 .13999939 .62802127 .20599365 .64100649 .24198914 .64100649 .2829895 .64100649 .33799745 .6190338 .33799745 .5290985 .33799745 .51708987 .33599855 .45906068 .30999757 .4149933 .27999879 .36691285 .24598694 .36390687 .22099304 .36291505 .21299744 .36190797 .18899536 .35990907 .18199158 .35990907 .17399597 .35890199 .16699219 .35791017 .16699219 .3479004 .16699219 .33691407 .17399597 .33691407 .19099427 .33691407H.23498535C.31698609 .33691407 .35398866 .2686615 .35398866 .17037964 .35398866 .034469606 .2849884 .0055389406 .24099732 .0055389406 .19799805 .0055389406 .12298584 .022491456 .08799744 .08137512 .12298584 .07637024 .1539917 .09837341 .1539917 .1363678 .1539917 .17237854 .1269989 .19238281 .09799194 .19238281 .07398987 .19238281 .041992189 .17837525 .041992189 .1343689 .041992189 .043441774 .1349945-.022460938 .24398804-.022460938 .3659973-.022460938 .45700074 .06838989 .45700074 .17037964 .45700074 .252594 .3939972 .33088685 .2899933 .35191346Z"/>
<path id="font_1_4" d="M.2939911 .16503906V.07800293C.2939911 .041992189 .2919922 .0309906 .21798706 .0309906H.19699097V0C.23799134 .0029907227 .2899933 .0029907227 .33198548 .0029907227 .37399293 .0029907227 .4269867 .0029907227 .46798707 0V.0309906H.44699098C.37298585 .0309906 .37098695 .041992189 .37098695 .07800293V.16503906H.47099305V.19602967H.37098695V.65075686C.37098695 .67074587 .37098695 .6767578 .35499574 .6767578 .34599305 .6767578 .34298707 .6767578 .33499146 .66474917L.027999878 .19602967V.16503906H.2939911M.2999878 .19602967H.055999757L.2999878 .5688019V.19602967Z"/>
<path id="font_1_5" d="M.44898988 .20022583C.44898988 .3193512 .36698915 .41944886 .25898744 .41944886 .21099854 .41944886 .16799927 .40345765 .13198853 .36842347V.5637665C.1519928 .5577698 .18499756 .55078127 .21699524 .55078127 .33999635 .55078127 .4099884 .6417694 .4099884 .6547699 .4099884 .6607666 .40699769 .6657715 .3999939 .6657715 .39898683 .6657715 .39698792 .6657715 .3919983 .66278079 .37199403 .6537781 .32299806 .6337738 .2559967 .6337738 .21598816 .6337738 .16999817 .6407776 .12298584 .6617737 .114990238 .66477969 .11299133 .66477969 .11099243 .66477969 .100997928 .66477969 .100997928 .6567688 .100997928 .6407776V.34439088C.100997928 .32637025 .100997928 .31835938 .114990238 .31835938 .12199402 .31835938 .12399292 .32136537 .12799073 .32736207 .13899231 .3433838 .17599488 .39746095 .25698854 .39746095 .30899049 .39746095 .33399964 .35139466 .34199525 .33337403 .35798646 .29632569 .3600006 .25727845 .3600006 .20722962 .3600006 .17222595 .3600006 .11222839 .33599855 .07035828 .31199647 .031463624 .2749939 .0055389406 .22898865 .0055389406 .1559906 .0055389406 .09899902 .058380128 .08198547 .11723328 .084991458 .1162262 .08799744 .115234378 .09899902 .115234378 .13198853 .115234378 .14898682 .14022827 .14898682 .16423035 .14898682 .18823242 .13198853 .21322632 .09899902 .21322632 .084991458 .21322632 .049987794 .20622254 .049987794 .16023255 .049987794 .07434082 .11898804-.022460938 .23098755-.022460938 .34700013-.022460938 .44898988 .073349 .44898988 .20022583Z"/>
</defs>
<path transform="matrix(1.00005,0,0,-1,44.61827,47.323)" stroke-width=".3985" stroke-linecap="butt" stroke-miterlimit="10" stroke-linejoin="miter" fill="none" stroke="#00aeef" d="M0 0H42.52063"/>
<path transform="matrix(1.00005,0,0,-1,44.61827,47.323)" stroke-width=".3985" stroke-linecap="butt" stroke-miterlimit="10" stroke-linejoin="miter" fill="none" stroke="#00aeef" d="M0 0 41.07184 11.00516"/>
<path transform="matrix(1.00005,0,0,-1,44.61827,47.323)" stroke-width=".3985" stroke-linecap="butt" stroke-miterlimit="10" stroke-linejoin="miter" fill="none" stroke="#00aeef" d="M0 0 36.82405 21.26031"/>
<path transform="matrix(1.00005,0,0,-1,44.61827,47.323)" stroke-width=".3985" stroke-linecap="butt" stroke-miterlimit="10" stroke-linejoin="miter" fill="none" stroke="#00aeef" d="M0 0 30.06665 30.06665"/>
<path transform="matrix(1.00005,0,0,-1,44.61827,47.323)" stroke-width=".3985" stroke-linecap="butt" stroke-miterlimit="10" stroke-linejoin="miter" fill="none" stroke="#00aeef" d="M0 0 21.26031 36.82405"/>
<path transform="matrix(1.00005,0,0,-1,44.61827,47.323)" stroke-width=".3985" stroke-linecap="butt" stroke-miterlimit="10" stroke-linejoin="miter" fill="none" stroke="#00aeef" d="M0 0 11.00516 41.07184"/>
<path transform="matrix(1.00005,0,0,-1,44.61827,47.323)" stroke-width=".3985" stroke-linecap="butt" stroke-miterlimit="10" stroke-linejoin="miter" fill="none" stroke="#00aeef" d="M0 0V42.52063"/>
<path transform="matrix(1.00005,0,0,-1,44.61827,47.323)" stroke-width=".3985" stroke-linecap="butt" stroke-miterlimit="10" stroke-linejoin="miter" fill="none" stroke="#00aeef" d="M0 0-11.00516 41.07184"/>
<path transform="matrix(1.00005,0,0,-1,44.61827,47.323)" stroke-width=".3985" stroke-linecap="butt" stroke-miterlimit="10" stroke-linejoin="miter" fill="none" stroke="#00aeef" d="M0 0-21.26031 36.82405"/>
<path transform="matrix(1.00005,0,0,-1,44.61827,47.323)" stroke-width=".3985" stroke-linecap="butt" stroke-miterlimit="10" stroke-linejoin="miter" fill="none" stroke="#00aeef" d="M0 0-30.06665 30.06665"/>
<path transform="matrix(1.00005,0,0,-1,44.61827,47.323)" stroke-width=".3985" stroke-linecap="butt" stroke-miterlimit="10" stroke-linejoin="miter" fill="none" stroke="#00aeef" d="M0 0-36.82405 21.26031"/>
<path transform="matrix(1.00005,0,0,-1,44.61827,47.323)" stroke-width=".3985" stroke-linecap="butt" stroke-miterlimit="10" stroke-linejoin="miter" fill="none" stroke="#00aeef" d="M0 0-41.07184 11.00516"/>
<path transform="matrix(1.00005,0,0,-1,44.61827,47.323)" stroke-width=".3985" stroke-linecap="butt" stroke-miterlimit="10" stroke-linejoin="miter" fill="none" stroke="#00aeef" d="M0 0H-42.52063"/>
<path transform="matrix(1.00005,0,0,-1,44.61827,47.323)" stroke-width=".3985" stroke-linecap="butt" stroke-miterlimit="10" stroke-linejoin="miter" fill="none" stroke="#00aeef" d="M0 0-41.07184-11.00516"/>
<path transform="matrix(1.00005,0,0,-1,44.61827,47.323)" stroke-width=".3985" stroke-linecap="butt" stroke-miterlimit="10" stroke-linejoin="miter" fill="none" stroke="#00aeef" d="M0 0-36.82405-21.26031"/>
<path transform="matrix(1.00005,0,0,-1,44.61827,47.323)" stroke-width=".3985" stroke-linecap="butt" stroke-miterlimit="10" stroke-linejoin="miter" fill="none" stroke="#00aeef" d="M0 0-30.06665-30.06665"/>
<path transform="matrix(1.00005,0,0,-1,44.61827,47.323)" stroke-width=".3985" stroke-linecap="butt" stroke-miterlimit="10" stroke-linejoin="miter" fill="none" stroke="#00aeef" d="M0 0-21.26031-36.82405"/>
<path transform="matrix(1.00005,0,0,-1,44.61827,47.323)" stroke-width=".3985" stroke-linecap="butt" stroke-miterlimit="10" stroke-linejoin="miter" fill="none" stroke="#00aeef" d="M0 0-11.00516-41.07184"/>
<path transform="matrix(1.00005,0,0,-1,44.61827,47.323)" stroke-width=".3985" stroke-linecap="butt" stroke-miterlimit="10" stroke-linejoin="miter" fill="none" stroke="#00aeef" d="M0 0V-42.52063"/>
<path transform="matrix(1.00005,0,0,-1,44.61827,47.323)" stroke-width=".3985" stroke-linecap="butt" stroke-miterlimit="10" stroke-linejoin="miter" fill="none" stroke="#00aeef" d="M0 0 11.00516-41.07184"/>
<path transform="matrix(1.00005,0,0,-1,44.61827,47.323)" stroke-width=".3985" stroke-linecap="butt" stroke-miterlimit="10" stroke-linejoin="miter" fill="none" stroke="#00aeef" d="M0 0 21.26031-36.82405"/>
<path transform="matrix(1.00005,0,0,-1,44.61827,47.323)" stroke-width=".3985" stroke-linecap="butt" stroke-miterlimit="10" stroke-linejoin="miter" fill="none" stroke="#00aeef" d="M0 0 30.06665-30.06665"/>
<path transform="matrix(1.00005,0,0,-1,44.61827,47.323)" stroke-width=".3985" stroke-linecap="butt" stroke-miterlimit="10" stroke-linejoin="miter" fill="none" stroke="#00aeef" d="M0 0 36.82405-21.26031"/>
<path transform="matrix(1.00005,0,0,-1,44.61827,47.323)" stroke-width=".3985" stroke-linecap="butt" stroke-miterlimit="10" stroke-linejoin="miter" fill="none" stroke="#00aeef" d="M0 0 41.07184-11.00516"/>
<path transform="matrix(1.00005,0,0,-1,44.61827,47.323)" stroke-width=".3985" stroke-linecap="butt" stroke-miterlimit="10" stroke-linejoin="miter" fill="none" stroke="#00aeef" d="M8.50412 0C8.50412 4.69675 4.69675 8.50412 0 8.50412-4.69675 8.50412-8.50412 4.69675-8.50412 0-8.50412-4.69675-4.69675-8.50412 0-8.50412 4.69675-8.50412 8.50412-4.69675 8.50412 0ZM0 0"/>
<path transform="matrix(1.00005,0,0,-1,44.61827,47.323)" d="M-4.48325 3.30135H4.4832398V13.706881H-4.48325Z" fill="#ffffff"/>
<use data-text="1" xlink:href="#font_1_1" transform="matrix(9.963098,0,0,-9.9626,42.127145,42.029)"/>
<path transform="matrix(1.00005,0,0,-1,44.61827,47.323)" stroke-width=".3985" stroke-linecap="butt" stroke-miterlimit="10" stroke-linejoin="miter" fill="none" stroke="#00aeef" d="M17.00824 0C17.00824 9.39351 9.39351 17.00824 0 17.00824-9.39351 17.00824-17.00824 9.39351-17.00824 0-17.00824-9.39351-9.39351-17.00824 0-17.00824 9.39351-17.00824 17.00824-9.39351 17.00824 0ZM0 0"/>
<path transform="matrix(1.00005,0,0,-1,44.61827,47.323)" d="M-4.48325 11.80547H4.4832398V22.211H-4.48325Z" fill="#ffffff"/>
<use data-text="2" xlink:href="#font_1_2" transform="matrix(9.963098,0,0,-9.9626,42.127145,33.525)"/>
<path transform="matrix(1.00005,0,0,-1,44.61827,47.323)" stroke-width=".3985" stroke-linecap="butt" stroke-miterlimit="10" stroke-linejoin="miter" fill="none" stroke="#00aeef" d="M25.51237 0C25.51237 14.09027 14.09027 25.51237 0 25.51237-14.09027 25.51237-25.51237 14.09027-25.51237 0-25.51237-14.09027-14.09027-25.51237 0-25.51237 14.09027-25.51237 25.51237-14.09027 25.51237 0ZM0 0"/>
<path transform="matrix(1.00005,0,0,-1,44.61827,47.323)" d="M-4.48325 20.3096H4.4832398V30.71513H-4.48325Z" fill="#ffffff"/>
<use data-text="3" xlink:href="#font_1_3" transform="matrix(9.963098,0,0,-9.9626,42.127145,25.021002)"/>
<path transform="matrix(1.00005,0,0,-1,44.61827,47.323)" stroke-width=".3985" stroke-linecap="butt" stroke-miterlimit="10" stroke-linejoin="miter" fill="none" stroke="#00aeef" d="M34.0165 0C34.0165 18.78702 18.78702 34.0165 0 34.0165-18.78702 34.0165-34.0165 18.78702-34.0165 0-34.0165-18.78702-18.78702-34.0165 0-34.0165 18.78702-34.0165 34.0165-18.78702 34.0165 0ZM0 0"/>
<path transform="matrix(1.00005,0,0,-1,44.61827,47.323)" d="M-4.48325 28.81374H4.4832398V39.21927H-4.48325Z" fill="#ffffff"/>
<use data-text="4" xlink:href="#font_1_4" transform="matrix(9.963098,0,0,-9.9626,42.127145,16.517003)"/>
<path transform="matrix(1.00005,0,0,-1,44.61827,47.323)" stroke-width=".3985" stroke-linecap="butt" stroke-miterlimit="10" stroke-linejoin="miter" fill="none" stroke="#00aeef" d="M42.52063 0C42.52063 23.48378 23.48378 42.52063 0 42.52063-23.48378 42.52063-42.52063 23.48378-42.52063 0-42.52063-23.48378-23.48378-42.52063 0-42.52063 23.48378-42.52063 42.52063-23.48378 42.52063 0ZM0 0"/>
<path transform="matrix(1.00005,0,0,-1,44.61827,47.323)" d="M-4.48325 37.31786H4.4832398V47.72339H-4.48325Z" fill="#ffffff"/>
<use data-text="5" xlink:href="#font_1_5" transform="matrix(9.963098,0,0,-9.9626,42.127145,8.0130009)"/>
<path transform="matrix(1.00005,0,0,-1,44.61827,47.323)" stroke-width="1.19553" stroke-linecap="butt" stroke-miterlimit="10" stroke-linejoin="miter" fill="none" stroke="#ff0000" d="M8.50412 0C8.50412 0 8.05014 .14384 7.87529 .19319 7.70044 .24254 7.41948 .31483 7.24385 .35565 7.06822 .39647 6.78558 .4551 6.60945 .48737 6.43332 .51965 6.1504 .56456 5.97438 .58832 5.79836 .61209 5.5163 .64337 5.34074 .65866 5.1652 .67393 4.88383 .69164 4.7092 .69849 4.53456 .70535 4.25545 .70955 4.08206 .7081 3.90866 .70663 3.63123 .69765 3.45946 .68799 3.28767 .67833 3.01369 .6563 2.844 .63853 2.67429 .62079 2.4036 .58572 2.23631 .56003 2.06905 .53436 1.80278 .48683 1.63837 .45337 1.47397 .4199 1.2126 .3599 1.05132 .3188 .89006 .27773 .63373 .2057 .47609 .15726 .31845 .10881 .06885 .02525-.08485-.03035-.23857-.08597-.48227-.18108-.6318-.24368-.78133-.30627-1.01755-.41225-1.16254-.48154-1.3075-.55083-1.53658-.66742-1.67665-.74312-1.81673-.81883-2.03719-.9453-2.17209-1.02718-2.30698-1.10907-2.51941-1.24548-2.64896-1.3333-2.7785-1.4211-2.98192-1.56671-3.10573-1.66003-3.22952-1.75337-3.4233-1.90735-3.5412-2.00598-3.6591-2.1046-3.84393-2.26741-3.95554-2.37088-4.06714-2.47435-4.24046-2.64372-4.3456-2.75174-4.45074-2.85973-4.61469-3.03702-4.71335-3.14932-4.81201-3.26164-4.96489-3.44505-5.0567-3.56119-5.14853-3.67734-5.29015-3.86667-5.37514-3.98642-5.46013-4.10619-5.59148-4.30156-5.66931-4.42438-5.74715-4.54718-5.86554-4.74599-5.93611-4.87152-6.00668-4.99709-6.11467-5.20123-6.17798-5.32921-6.2413-5.45718-6.33664-5.66402-6.39249-5.7939-6.44832-5.92375-6.5319-6.13351-6.5805-6.26518-6.62912-6.39685-6.70187-6.6101-6.74284-6.74284-6.7838-6.8756-6.84247-7.08856-6.87573-7.22192-6.90897-7.35529-6.9566-7.57005-6.98251-7.704-7.00844-7.83795-7.04422-8.05339-7.06258-8.18735-7.08093-8.32133-7.10393-8.53587-7.11487-8.66956-7.12581-8.80324-7.13799-9.01794-7.14146-9.15085-7.14496-9.28375-7.14389-9.49583-7.13992-9.62747-7.13594-9.7591-7.12395-9.96938-7.1128-10.09955-7.10165-10.2297-7.07793-10.43736-7.0596-10.56566-7.04128-10.69392-7.00594-10.898-6.9807-11.02411-6.95546-11.1502-6.90985-11.35115-6.87767-11.4745-6.84547-11.59785-6.78766-11.79279-6.74869-11.91312-6.7097-12.03342-6.64217-12.22464-6.59674-12.34172-6.5513-12.45879-6.47305-12.64354-6.4213-12.75696-6.36954-12.87038-6.28143-13.04959-6.22366-13.15923-6.16588-13.26884-6.06854-13.4418-6.00488-13.54709-5.94121-13.65234-5.83412-13.81728-5.76483-13.91794-5.69553-14.0186-5.58008-14.17676-5.50542-14.27258-5.43077-14.36841-5.30656-14.51802-5.22682-14.60855-5.1471-14.69907-5.01521-14.83972-4.93071-14.92503-4.8462-15.01033-4.70676-15.14375-4.61772-15.22336-4.52869-15.30298-4.38216-15.42493-4.28903-15.49884-4.19589-15.57277-4.04346-15.68832-3.94646-15.75616-3.84946-15.824-3.69038-15.92628-3.58986-15.9878-3.48935-16.04929-3.32564-16.14415-3.22198-16.19943-3.11835-16.25473-2.9493-16.33784-2.84282-16.38629-2.73634-16.43474-2.56343-16.50652-2.45457-16.54863-2.34572-16.59073-2.16925-16.65468-2.05827-16.6898-1.94731-16.72491-1.76746-16.77379-1.65471-16.80179-1.54198-16.82979-1.35979-16.87033-1.2457-16.89159-1.1316-16.91284-.94737-16.94092-.83241-16.95503-.71744-16.96916-.53253-16.98593-.41704-16.99332-.30156-17.0007-.1157-17.00824 0-17.00824 .1157-17.00824 .30156-17.0007 .41704-16.99332 .53253-16.98593 .71744-16.96916 .83241-16.95503 .94737-16.94092 1.1316-16.91284 1.2457-16.89159 1.35979-16.87033 1.54198-16.82979 1.65471-16.80179 1.76746-16.77379 1.94731-16.72491 2.05827-16.6898 2.16925-16.65468 2.34572-16.59073 2.45457-16.54863 2.56343-16.50652 2.73634-16.43474 2.84282-16.38629 2.9493-16.33784 3.11835-16.25473 3.22198-16.19943 3.32564-16.14415 3.48935-16.04929 3.58986-15.9878 3.69038-15.92628 3.84946-15.824 3.94646-15.75616 4.04346-15.68832 4.19589-15.57277 4.28903-15.49884 4.38216-15.42493 4.52869-15.30298 4.61772-15.22336 4.70676-15.14375 4.8462-15.01033 4.93071-14.92503 5.01521-14.83972 5.1471-14.69907 5.22682-14.60855 5.30656-14.51802 5.43077-14.36841 5.50542-14.27258 5.58008-14.17676 5.69553-14.0186 5.76483-13.91794 5.83412-13.81728 5.94121-13.65234 6.00488-13.54709 6.06854-13.4418 6.16588-13.26884 6.22366-13.15923 6.28143-13.04959 6.36954-12.87038 6.4213-12.75696 6.47305-12.64354 6.5513-12.45879 6.59674-12.34172 6.64217-12.22464 6.7097-12.03342 6.74869-11.91312 6.78766-11.79279 6.84547-11.59785 6.87767-11.4745 6.90985-11.35115 6.95546-11.1502 6.9807-11.02411 7.00594-10.898 7.04128-10.69392 7.0596-10.56566 7.07793-10.43736 7.10165-10.2297 7.1128-10.09955 7.12395-9.96938 7.13594-9.7591 7.13992-9.62747 7.14389-9.49583 7.14496-9.28375 7.14146-9.15085 7.13799-9.01794 7.12581-8.80324 7.11487-8.66956 7.10393-8.53587 7.08093-8.32133 7.06258-8.18735 7.04422-8.05339 7.00844-7.83795 6.98251-7.704 6.9566-7.57005 6.90897-7.35529 6.87573-7.22192 6.84247-7.08856 6.7838-6.8756 6.74284-6.74284 6.70187-6.6101 6.62912-6.39685 6.5805-6.26518 6.5319-6.13351 6.44832-5.92375 6.39249-5.7939 6.33664-5.66402 6.2413-5.45718 6.17798-5.32921 6.11467-5.20123 6.00668-4.99709 5.93611-4.87152 5.86554-4.74599 5.74715-4.54718 5.66931-4.42438 5.59148-4.30156 5.46013-4.10619 5.37514-3.98642 5.29015-3.86667 5.14853-3.67734 5.0567-3.56119 4.96489-3.44505 4.81201-3.26164 4.71335-3.14932 4.61469-3.03702 4.45074-2.85973 4.3456-2.75174 4.24046-2.64372 4.06714-2.47435 3.95554-2.37088 3.84393-2.26741 3.6591-2.1046 3.5412-2.00598 3.4233-1.90735 3.22952-1.75337 3.10573-1.66003 2.98192-1.56671 2.7785-1.4211 2.64896-1.3333 2.51941-1.24548 2.30698-1.10907 2.17209-1.02718 2.03719-.9453 1.81673-.81883 1.67665-.74312 1.53658-.66742 1.3075-.55083 1.16254-.48154 1.01755-.41225 .78133-.30627 .6318-.24368 .48227-.18108 .23857-.08597 .08485-.03035-.06885 .02525-.31845 .10881-.47609 .15726-.63373 .2057-.89006 .27773-1.05132 .3188-1.2126 .3599-1.47397 .4199-1.63837 .45337-1.80278 .48683-2.06905 .53436-2.23631 .56003-2.4036 .58572-2.67429 .62079-2.844 .63853-3.01369 .6563-3.28767 .67833-3.45946 .68799-3.63123 .69765-3.90866 .70663-4.08206 .7081-4.25545 .70955-4.53456 .70535-4.7092 .69849-4.88383 .69164-5.1652 .67393-5.34074 .65866-5.5163 .64337-5.79836 .61209-5.97438 .58832-6.1504 .56456-6.43332 .51965-6.60945 .48737-6.78558 .4551-7.06822 .39647-7.24385 .35565-7.41948 .31483-7.70044 .24254-7.87529 .19319-8.05014 .14384-8.33046 .05786-8.50412 0-8.67776-.05786-8.95496-.1576-9.12685-.22395-9.29872-.29031-9.57298-.40346-9.74295-.47829-9.91293-.55313-10.18433-.68011-10.35193-.76338-10.51953-.84665-10.78616-.98691-10.95091-1.07843-11.11566-1.16997-11.37805-1.32344-11.53938-1.4231-11.70074-1.52275-11.95628-1.68904-12.11386-1.79668-12.27142-1.90431-12.52141-2.08337-12.67506-2.19894-12.82875-2.31451-13.07225-2.50638-13.22137-2.62961-13.3705-2.75287-13.60553-2.95651-13.7499-3.0873-13.89426-3.21808-14.1227-3.43414-14.26183-3.57222-14.40094-3.7103-14.6191-3.93735-14.75256-4.08246-14.88606-4.22754-15.0962-4.46603-15.22388-4.61798-15.35155-4.76993-15.5514-5.0192-15.67273-5.17764-15.79405-5.33609-15.98357-5.5952-16.09834-5.75989-16.21312-5.92458-16.39214-6.19394-16.49995-6.3646-16.60779-6.53525-16.77484-6.8136-16.87549-6.98991-16.97614-7.16621-17.13223-7.45378-17.22534-7.63536-17.31845-7.81693-17.4613-8.11201-17.54663-8.29857-17.63194-8.48512-17.7628-8.78865-17.84027-8.97995-17.91774-9.17125-18.03578-9.48181-18.105-9.67729-18.1742-9.87279-18.27821-10.18947-18.33908-10.38892-18.39996-10.58836-18.49165-10.91203-18.54373-11.1148-18.59581-11.3176-18.67136-11.64464-18.7145-11.85043-18.75763-12.05624-18.82031-12.3895-18.85464-12.59813-18.88895-12.80676-18.93669-13.14331-18.96182-13.35413-18.98695-13.56493-19.01974-13.90468-19.03578-14.11752-19.05182-14.33037-19.0709-14.67406-19.07744-14.88818-19.08397-15.10231-19.08583-15.44572-19.08289-15.66078-19.07994-15.87584-19.06848-16.2225-19.05615-16.4382-19.04382-16.65388-19.01593-16.99971-18.994-17.21533-18.97208-17.43097-18.92926-17.77673-18.8981-17.99236-18.86696-18.208-18.81047-18.55484-18.76952-18.76952-18.72856-18.98418-18.65361-19.3264-18.60289-19.53952-18.55219-19.75264-18.4638-20.09378-18.40396-20.30551-18.34413-20.51724-18.2409-20.85591-18.17155-21.06552-18.10222-21.27515-17.98268-21.60913-17.90413-21.81633-17.82556-22.02356-17.69312-22.35478-17.60529-22.55898-17.51744-22.76318-17.36807-23.08752-17.27101-23.2881-17.17395-23.4887-17.01154-23.8078-16.90573-24.00465-16.79993-24.2015-16.62305-24.51431-16.50839-24.70692-16.39374-24.89955-16.20244-25.2049-16.07939-25.39297-15.95636-25.58109-15.7531-25.87982-15.6216-26.06268-15.4901-26.24557-15.27141-26.53363-15.13162-26.711-14.99182-26.88834-14.76157-27.16931-14.61398-27.34099-14.46642-27.51265-14.22319-27.78278-14.06795-27.94829-13.9127-28.11377-13.6575-28.37454-13.49504-28.53377-13.3326-28.69298-13.06662-28.94354-12.89711-29.09578-12.72757-29.24799-12.44951-29.48592-12.27321-29.63092-12.0969-29.7759-11.80904-30.00322-11.62633-30.14075-11.44363-30.27826-11.14514-30.49255-10.95636-30.62204-10.7676-30.75153-10.46025-30.95236-10.26576-31.074-10.07129-31.19563-9.75456-31.38551-9.55466-31.49872-9.35477-31.61192-9.02977-31.7851-8.82501-31.88994-8.62025-31.99481-8.28827-32.15846-8.07889-32.25446-7.86949-32.35045-7.52942-32.495-7.31587-32.58185-7.10233-32.6687-6.75702-32.80249-6.53976-32.88043-6.32251-32.95837-5.97061-33.07541-5.75002-33.14359-5.52943-33.21178-5.17328-33.31267-4.9499-33.37183-4.72656-33.43102-4.3661-33.52081-4.1402-33.57011-3.91428-33.61943-3.54968-33.68799-3.32166-33.72725-3.09361-33.76653-2.72626-33.82333-2.49661-33.85312-2.26697-33.88292-1.89716-33.92226-1.66652-33.94202-1.4359-33.96179-1.0656-33.98528-.83435-33.99562-.60313-34.00595-.23152-34.0165 0-34.0165 .23152-34.0165 .60313-34.00595 .83435-33.99562 1.0656-33.98528 1.4359-33.96179 1.66652-33.94202 1.89716-33.92226 2.26697-33.88292 2.49661-33.85312 2.72626-33.82333 3.09361-33.76653 3.32166-33.72725 3.54968-33.68799 3.91428-33.61943 4.1402-33.57011 4.3661-33.52081 4.72656-33.43102 4.9499-33.37183 5.17328-33.31267 5.52943-33.21178 5.75002-33.14359 5.97061-33.07541 6.32251-32.95837 6.53976-32.88043 6.75702-32.80249 7.10233-32.6687 7.31587-32.58185 7.52942-32.495 7.86949-32.35045 8.07889-32.25446 8.28827-32.15846 8.62025-31.99481 8.82501-31.88994 9.02977-31.7851 9.35477-31.61192 9.55466-31.49872 9.75456-31.38551 10.07129-31.19563 10.26576-31.074 10.46025-30.95236 10.7676-30.75153 10.95636-30.62204 11.14514-30.49255 11.44363-30.27826 11.62633-30.14075 11.80904-30.00322 12.0969-29.7759 12.27321-29.63092 12.44951-29.48592 12.72757-29.24799 12.89711-29.09578 13.06662-28.94354 13.3326-28.69298 13.49504-28.53377 13.6575-28.37454 13.9127-28.11377 14.06795-27.94829 14.22319-27.78278 14.46642-27.51265 14.61398-27.34099 14.76157-27.16931 14.99182-26.88834 15.13162-26.711 15.27141-26.53363 15.4901-26.24557 15.6216-26.06268 15.7531-25.87982 15.95636-25.58109 16.07939-25.39297 16.20244-25.2049 16.39374-24.89955 16.50839-24.70692 16.62305-24.51431 16.79993-24.2015 16.90573-24.00465 17.01154-23.8078 17.17395-23.4887 17.27101-23.2881 17.36807-23.08752 17.51744-22.76318 17.60529-22.55898 17.69312-22.35478 17.82556-22.02356 17.90413-21.81633 17.98268-21.60913 18.10222-21.27515 18.17155-21.06552 18.2409-20.85591 18.34413-20.51724 18.40396-20.30551 18.4638-20.09378 18.55219-19.75264 18.60289-19.53952 18.65361-19.3264 18.72856-18.98418 18.76952-18.76952 18.81047-18.55484 18.86696-18.208 18.8981-17.99236 18.92926-17.77673 18.97208-17.43097 18.994-17.21533 19.01593-16.99971 19.04382-16.65388 19.05615-16.4382 19.06848-16.2225 19.07994-15.87584 19.08289-15.66078 19.08583-15.44572 19.08397-15.10231 19.07744-14.88818 19.0709-14.67406 19.05182-14.33037 19.03578-14.11752 19.01974-13.90468 18.98695-13.56493 18.96182-13.35413 18.93669-13.14331 18.88895-12.80676 18.85464-12.59813 18.82031-12.3895 18.75763-12.05624 18.7145-11.85043 18.67136-11.64464 18.59581-11.3176 18.54373-11.1148 18.49165-10.91203 18.39996-10.58836 18.33908-10.38892 18.27821-10.18947 18.1742-9.87279 18.105-9.67729 18.03578-9.48181 17.91774-9.17125 17.84027-8.97995 17.7628-8.78865 17.63194-8.48512 17.54663-8.29857 17.4613-8.11201 17.31845-7.81693 17.22534-7.63536 17.13223-7.45378 16.97614-7.16621 16.87549-6.98991 16.77484-6.8136 16.60779-6.53525 16.49995-6.3646 16.39214-6.19394 16.21312-5.92458 16.09834-5.75989 15.98357-5.5952 15.79405-5.33609 15.67273-5.17764 15.5514-5.0192 15.35155-4.76993 15.22388-4.61798 15.0962-4.46603 14.88606-4.22754 14.75256-4.08246 14.6191-3.93735 14.40094-3.7103 14.26183-3.57222 14.1227-3.43414 13.89426-3.21808 13.7499-3.0873 13.60553-2.95651 13.3705-2.75287 13.22137-2.62961 13.07225-2.50638 12.82875-2.31451 12.67506-2.19894 12.52141-2.08337 12.27142-1.90431 12.11386-1.79668 11.95628-1.68904 11.70074-1.52275 11.53938-1.4231 11.37805-1.32344 11.11566-1.16997 10.95091-1.07843 10.78616-.98691 10.51953-.84665 10.35193-.76338 10.18433-.68011 9.91293-.55313 9.74295-.47829 9.57298-.40346 9.29872-.29031 9.12685-.22395 8.95496-.1576 8.50412 0 8.50412 0"/>
</svg>
