<svg xmlns="http://www.w3.org/2000/svg" xmlns:xlink="http://www.w3.org/1999/xlink" version="1.1" width="132" height="132" viewBox="0 0 132 132">
<defs>
<path id="font_1_1" d="M.6589966 .23046875C.6759949 .23046875 .69400027 .23046875 .69400027 .25045777 .69400027 .27046205 .6759949 .27046205 .6589966 .27046205H.117996219C.100997928 .27046205 .08299255 .27046205 .08299255 .25045777 .08299255 .23046875 .100997928 .23046875 .117996219 .23046875H.6589966Z"/>
<path id="font_2_1" d="M.44898988 .20022583C.44898988 .3193512 .36698915 .41944886 .25898744 .41944886 .21099854 .41944886 .16799927 .40345765 .13198853 .36842347V.5637665C.1519928 .5577698 .18499756 .55078127 .21699524 .55078127 .33999635 .55078127 .4099884 .6417694 .4099884 .6547699 .4099884 .6607666 .40699769 .6657715 .3999939 .6657715 .39898683 .6657715 .39698792 .6657715 .3919983 .66278079 .37199403 .6537781 .32299806 .6337738 .2559967 .6337738 .21598816 .6337738 .16999817 .6407776 .12298584 .6617737 .114990238 .66477969 .11299133 .66477969 .11099243 .66477969 .100997928 .66477969 .100997928 .6567688 .100997928 .6407776V.34439088C.100997928 .32637025 .100997928 .31835938 .114990238 .31835938 .12199402 .31835938 .12399292 .32136537 .12799073 .32736207 .13899231 .3433838 .17599488 .39746095 .25698854 .39746095 .30899049 .39746095 .33399964 .35139466 .34199525 .33337403 .35798646 .29632569 .3600006 .25727845 .3600006 .20722962 .3600006 .17222595 .3600006 .11222839 .33599855 .07035828 .31199647 .031463624 .2749939 .0055389406 .22898865 .0055389406 .1559906 .0055389406 .09899902 .058380128 .08198547 .11723328 .084991458 .1162262 .08799744 .115234378 .09899902 .115234378 .13198853 .115234378 .14898682 .14022827 .14898682 .16423035 .14898682 .18823242 .13198853 .21322632 .09899902 .21322632 .084991458 .21322632 .049987794 .20622254 .049987794 .16023255 .049987794 .07434082 .11898804-.022460938 .23098755-.022460938 .34700013-.022460938 .44898988 .073349 .44898988 .20022583Z"/>
<path id="font_3_1" d="M.28399659 .6252594C.28399659 .6452637 .269989 .6612549 .24699402 .6612549 .21998596 .6612549 .19299317 .6352539 .19299317 .6082611 .19299317 .5892639 .20698548 .5722656 .23098755 .5722656 .2539978 .5722656 .28399659 .5952606 .28399659 .6252594M.20799256 .24932862C.21998596 .27833558 .21998596 .28033448 .22999573 .30734254 .23799134 .3273468 .24299622 .34135438 .24299622 .36035157 .24299622 .405365 .21099854 .4423828 .16099549 .4423828 .066986087 .4423828 .0289917 .29733277 .0289917 .28833009 .0289917 .27833558 .038986207 .27833558 .040985109 .27833558 .050994874 .27833558 .051986696 .28033448 .056991579 .29634095 .083999637 .3903656 .12399292 .42037965 .1579895 .42037965 .1659851 .42037965 .18299866 .42037965 .18299866 .3883667 .18299866 .36735536 .17599488 .346344 .17199707 .3363495 .1639862 .31033326 .11898804 .19430542 .102996829 .1512909 .09298706 .12528992 .07998657 .0922699 .07998657 .0712738 .07998657 .024261475 .11399841-.0107421879 .1619873-.0107421879 .2559967-.0107421879 .29299928 .1342926 .29299928 .14329529 .29299928 .1532898 .28399659 .1532898 .2809906 .1532898 .2709961 .1532898 .2709961 .15029907 .2659912 .13528443 .24798584 .072265628 .21499634 .011245728 .1639862 .011245728 .14698792 .011245728 .13999939 .021255494 .13999939 .044265748 .13999939 .0692749 .1459961 .08326721 .16899109 .14428711L.20799256 .24932862Z"/>
<path id="font_3_2" d="M.1329956 .08345032C.18699646 .14138794 .21598816 .16636658 .2519989 .19732666 .2519989 .19833374 .31399537 .25128175 .34999085 .2872467 .44499208 .3803711 .46699525 .42837525 .46699525 .43237306 .46699525 .4423828 .45799256 .4423828 .45599366 .4423828 .44898988 .4423828 .44599916 .44036866 .44099427 .43138124 .41099549 .38337709 .3899994 .3671875 .3659973 .3671875 .34199525 .3671875 .32998658 .38237 .31498719 .3993683 .29599 .42237855 .2789917 .4423828 .24598694 .4423828 .17098999 .4423828 .125 .34918214 .125 .3282013 .125 .3231964 .12799073 .31721498 .13699341 .31721498 .1459961 .31721498 .147995 .3222046 .1499939 .3282013 .16899109 .37434388 .22698975 .37538148 .23498535 .37538148 .2559967 .37538148 .2749939 .36820985 .2979889 .36018373 .33799745 .34518434 .34899903 .34518434 .375 .34518434 .33898927 .30223084 .25498963 .2303009 .23599243 .21430969L.1459961 .13040161C.07798767 .06341553 .042999269 .0062561037 .042999269-.00074768069 .042999269-.0107421879 .052993776-.0107421879 .054992677-.0107421879 .06298828-.0107421879 .06498718-.008743286 .070999149 .002243042 .09399414 .037246705 .12399292 .064453128 .1559906 .064453128 .1789856 .064453128 .18899536 .055252077 .21398926 .026245118 .23098755 .0052490236 .24899292-.0107421879 .27799989-.0107421879 .3769989-.0107421879 .43499757 .1164093 .43499757 .14338684 .43499757 .14837647 .43099977 .15338135 .4229889 .15338135 .4139862 .15338135 .4119873 .14738465 .40899659 .14039612 .38598634 .07543945 .32199098 .056243898 .2889862 .056243898 .2689972 .056243898 .25099183 .06239319 .22999573 .06944275 .19599915 .08244324 .18099976 .08644104 .1599884 .08644104 .1579895 .08644104 .14199829 .08644104 .1329956 .08345032Z"/>
<path id="font_4_1" d="M.33499146 .63612368C.33499146 .6630554 .33299256 .6640625 .30499269 .6640625 .24099732 .6014404 .1499939 .6004486 .10899353 .6004486V.5644531C.1329956 .5644531 .19898987 .5644531 .2539978 .592453V.08203125C.2539978 .04899597 .2539978 .035995485 .1539917 .035995485H.115997318V0C.13398743 .0009918213 .25698854 .0039978029 .2939911 .0039978029 .32499696 .0039978029 .45098878 .0009918213 .47299195 0V.035995485H.43499757C.33499146 .035995485 .33499146 .04899597 .33499146 .08203125V.63612368Z"/>
<path id="font_4_2" d="M.5049896 .18203736H.47099305C.46798707 .16001892 .45799256 .100997928 .44499208 .09098816 .43699647 .084991458 .3600006 .084991458 .34599305 .084991458H.1619873C.2669983 .17803955 .3019867 .20603943 .3619995 .25306703 .43598939 .312088 .5049896 .374115 .5049896 .46914674 .5049896 .5900879 .39898683 .6640625 .2709961 .6640625 .14698792 .6640625 .06298828 .57710269 .06298828 .4851532 .06298828 .43414308 .10598755 .42915345 .115997318 .42915345 .13999939 .42915345 .16899109 .44615174 .16899109 .48214723 .16899109 .5001526 .1619873 .53515627 .10998535 .53515627 .14099121 .6060791 .20899964 .62805178 .2559967 .62805178 .35598756 .62805178 .4079895 .5501404 .4079895 .46914674 .4079895 .38212586 .34599305 .3130951 .31399537 .27708436L.07299805 .038986207C.06298828 .02999878 .06298828 .027999878 .06298828 0H.47499085L.5049896 .18203736Z"/>
<path id="font_5_64" d="M.27598573 .18710327V.24511719H.010986328V.18710327H.27598573Z"/>
</defs>
<path transform="matrix(1.00008,0,0,-1.0001,62.52957,69.12341)" stroke-width=".3985" stroke-linecap="butt" stroke-miterlimit="10" stroke-linejoin="miter" fill="none" stroke="#00aeef" d="M-45.92255-61.23007H61.23007M-45.92255-53.57631H61.23007M-45.92255-45.92255H61.23007M-45.92255-38.26878H61.23007M-45.92255-30.61504H61.23007M-45.92255-22.96126H61.23007M-45.92255-15.30751H61.23007M-45.92255-7.65375H61.23007M-45.92255 0H61.23007M-45.92255 7.65375H61.23007M-45.92255 15.30751H61.23007M-45.92255 22.96126H61.23007M-45.92255 30.61504H61.23007M-45.92255 38.26878H61.23007M-45.92255 45.92255H61.23007M-45.92255 53.57631H61.23007M-45.92255 61.22737H61.23007M-45.92255-61.23007V61.23007M-38.26878-61.23007V61.23007M-30.61504-61.23007V61.23007M-22.96126-61.23007V61.23007M-15.30751-61.23007V61.23007M-7.65375-61.23007V61.23007M0-61.23007V61.23007M7.65375-61.23007V61.23007M15.30751-61.23007V61.23007M22.96126-61.23007V61.23007M30.61504-61.23007V61.23007M38.26878-61.23007V61.23007M45.92255-61.23007V61.23007M53.57631-61.23007V61.23007M61.22737-61.23007V61.23007M61.23007 61.23007"/>
<path transform="matrix(1.00008,0,0,-1.0001,62.52957,69.12341)" stroke-width=".3985" stroke-linecap="butt" stroke-miterlimit="10" stroke-linejoin="miter" fill="none" stroke="#000000" d="M.76541-38.26878H-.76529"/>
<path transform="matrix(1.00008,0,0,-1.0001,62.52957,69.12341)" d="M-19.11963-41.96924H-2.9571114V-34.568338H-19.11963Z" fill="#ffffff"/>
<use data-text="&#x2212;" xlink:href="#font_1_1" transform="matrix(9.963397,0,0,-9.963596,43.408044,110.266529)"/>
<use data-text="5" xlink:href="#font_2_1" transform="matrix(9.963397,0,0,-9.963596,51.157648,110.266529)"/>
<use data-text="i" xlink:href="#font_3_1" transform="matrix(9.963397,0,0,-9.963596,56.140039,110.266529)"/>
<path transform="matrix(1.00008,0,0,-1.0001,62.52957,69.12341)" stroke-width=".3985" stroke-linecap="butt" stroke-miterlimit="10" stroke-linejoin="miter" fill="none" stroke="#000000" d="M.76541 38.26878H-.76529"/>
<path transform="matrix(1.00008,0,0,-1.0001,62.52957,69.12341)" d="M-11.37079 34.98344H-2.9571095V41.55412H-11.37079Z" fill="#ffffff"/>
<use data-text="5" xlink:href="#font_2_1" transform="matrix(9.963397,0,0,-9.963596,51.15766,34.136915)"/>
<use data-text="i" xlink:href="#font_3_1" transform="matrix(9.963397,0,0,-9.963596,56.140054,34.136915)"/>
<path transform="matrix(1.00008,0,0,-1.0001,62.52957,69.12341)" stroke-width=".3985" stroke-linecap="butt" stroke-miterlimit="10" stroke-linejoin="miter" fill="none" stroke="#000000" d="M-38.26878 .76541V-.76529"/>
<path transform="matrix(1.00008,0,0,-1.0001,62.52957,69.12341)" d="M-44.6339-10.20776H-31.903679V-2.95709H-44.6339Z" fill="#ffffff"/>
<use data-text="&#x2212;" xlink:href="#font_1_1" transform="matrix(9.963397,0,0,-9.963596,17.891999,78.50235)"/>
<use data-text="5" xlink:href="#font_2_1" transform="matrix(9.963397,0,0,-9.963596,25.641602,78.50235)"/>
<path transform="matrix(1.00008,0,0,-1.0001,62.52957,69.12341)" stroke-width=".3985" stroke-linecap="butt" stroke-miterlimit="10" stroke-linejoin="miter" fill="none" stroke="#000000" d="M38.26878 .76541V-.76529"/>
<path transform="matrix(1.00008,0,0,-1.0001,62.52957,69.12341)" d="M35.77809-9.37753H40.75947V-2.9571H35.77809Z" fill="#ffffff"/>
<use data-text="5" xlink:href="#font_2_1" transform="matrix(9.963397,0,0,-9.963596,98.31043,78.50235)"/>
<path transform="matrix(1.00008,0,0,-1.0001,62.52957,69.12341)" stroke-width=".79701" stroke-linecap="butt" stroke-miterlimit="10" stroke-linejoin="miter" fill="none" stroke="#000000" d="M-61.23007 0H66.68379"/>
<path transform="matrix(1.00008,0,0,-1.0001,129.21869,69.12341)" d="M1.0361 0C-.25902 .25902-1.55415 .77707-3.1083 1.68365-1.55415 .51805-1.55415-.51805-3.1083-1.68365-1.55415-.77707-.25902-.25902 1.0361 0Z"/>
<path transform="matrix(1.00008,0,0,-1.0001,129.21869,69.12341)" stroke-width=".79701" stroke-linecap="butt" stroke-linejoin="round" fill="none" stroke="#000000" d="M1.0361 0C-.25902 .25902-1.55415 .77707-3.1083 1.68365-1.55415 .51805-1.55415-.51805-3.1083-1.68365-1.55415-.77707-.25902-.25902 1.0361 0Z"/>
<path transform="matrix(1.00008,0,0,-1.0001,62.52957,69.12341)" stroke-width=".79701" stroke-linecap="butt" stroke-miterlimit="10" stroke-linejoin="miter" fill="none" stroke="#000000" d="M0-22.96126V66.68379"/>
<path transform="matrix(0,-1.0001,-1.00008,-0,62.52957,2.432953)" d="M1.0361 0C-.25902 .25902-1.55415 .77707-3.1083 1.68365-1.55415 .51805-1.55415-.51805-3.1083-1.68365-1.55415-.77707-.25902-.25902 1.0361 0Z"/>
<path transform="matrix(0,-1.0001,-1.00008,-0,62.52957,2.432953)" stroke-width=".79701" stroke-linecap="butt" stroke-linejoin="round" fill="none" stroke="#000000" d="M1.0361 0C-.25902 .25902-1.55415 .77707-3.1083 1.68365-1.55415 .51805-1.55415-.51805-3.1083-1.68365-1.55415-.77707-.25902-.25902 1.0361 0Z"/>
<path transform="matrix(1.00008,0,0,-1.0001,62.52957,69.12341)" stroke-width=".79701" stroke-linecap="butt" stroke-miterlimit="10" stroke-linejoin="miter" fill="none" stroke="#ff0000" d="M0 0 21.76895-14.51263"/>
<path transform="matrix(.83208659,.55472549,.5547143,-.8321032,84.30026,83.63748)" d="M1.0361 0C-.25902 .25902-1.55415 .77707-3.1083 1.68365-1.55415 .51805-1.55415-.51805-3.1083-1.68365-1.55415-.77707-.25902-.25902 1.0361 0Z" fill="#ff0000"/>
<path transform="matrix(.83208659,.55472549,.5547143,-.8321032,84.30026,83.63748)" stroke-width=".79701" stroke-linecap="butt" stroke-linejoin="round" fill="none" stroke="#ff0000" d="M1.0361 0C-.25902 .25902-1.55415 .77707-3.1083 1.68365-1.55415 .51805-1.55415-.51805-3.1083-1.68365-1.55415-.77707-.25902-.25902 1.0361 0Z"/>
<path transform="matrix(1.00008,0,0,-1.0001,62.52957,69.12341)" d="M25.35362-18.20032H34.456224V-12.4164299H25.35362Z" fill="#ffffff"/>
<use data-text="z" xlink:href="#font_3_2" transform="matrix(9.963397,0,0,-9.963596,87.8856,85.831089)" fill="#ff0000"/>
<use data-text="1" xlink:href="#font_4_1" transform="matrix(6.974358,0,0,-6.974498,92.519969,87.32523)" fill="#ff0000"/>
<path transform="matrix(1.00008,0,0,-1.0001,62.52957,69.12341)" stroke-width=".79701" stroke-linecap="butt" stroke-miterlimit="10" stroke-linejoin="miter" fill="none" stroke="#ff0000" d="M30.61678-38.27097 52.38574-52.78362"/>
<path transform="matrix(.83208659,.55472549,.5547143,-.8321032,114.919498,121.91229)" d="M1.0361 0C-.25902 .25902-1.55415 .77707-3.1083 1.68365-1.55415 .51805-1.55415-.51805-3.1083-1.68365-1.55415-.77707-.25902-.25902 1.0361 0Z" fill="#ff0000"/>
<path transform="matrix(.83208659,.55472549,.5547143,-.8321032,114.919498,121.91229)" stroke-width=".79701" stroke-linecap="butt" stroke-linejoin="round" fill="none" stroke="#ff0000" d="M1.0361 0C-.25902 .25902-1.55415 .77707-3.1083 1.68365-1.55415 .51805-1.55415-.51805-3.1083-1.68365-1.55415-.77707-.25902-.25902 1.0361 0Z"/>
<path transform="matrix(1.00008,0,0,-1.0001,62.52957,69.12341)" stroke-width=".79701" stroke-linecap="butt" stroke-miterlimit="10" stroke-linejoin="miter" fill="none" stroke="#0000ff" d="M0 0-29.72064 37.1508"/>
<path transform="matrix(-.62470999,-.7808981,-.7808825,.6247225,32.806566,31.968899)" d="M1.0361 0C-.25902 .25902-1.55415 .77707-3.1083 1.68365-1.55415 .51805-1.55415-.51805-3.1083-1.68365-1.55415-.77707-.25902-.25902 1.0361 0Z" fill="#0000ff"/>
<path transform="matrix(-.62470999,-.7808981,-.7808825,.6247225,32.806566,31.968899)" stroke-width=".79701" stroke-linecap="butt" stroke-linejoin="round" fill="none" stroke="#0000ff" d="M1.0361 0C-.25902 .25902-1.55415 .77707-3.1083 1.68365-1.55415 .51805-1.55415-.51805-3.1083-1.68365-1.55415-.77707-.25902-.25902 1.0361 0Z"/>
<path transform="matrix(1.00008,0,0,-1.0001,62.52957,69.12341)" d="M-40.11789 41.50433H-31.01529V47.28822H-40.11789Z" fill="#ffffff"/>
<use data-text="z" xlink:href="#font_3_2" transform="matrix(9.963397,0,0,-9.963596,22.408364,26.120114)" fill="#0000ff"/>
<use data-text="2" xlink:href="#font_4_2" transform="matrix(6.974358,0,0,-6.974498,27.042733,27.614262)" fill="#0000ff"/>
<path transform="matrix(1.00008,0,0,-1.0001,62.52957,69.12341)" stroke-width=".79701" stroke-linecap="butt" stroke-miterlimit="10" stroke-linejoin="miter" fill="none" stroke="#008080" d="M0 0 29.72064-37.1508"/>
<path transform="matrix(.62470999,.7808981,.7808825,-.6247225,92.25258,106.27792)" d="M1.0361 0C-.25902 .25902-1.55415 .77707-3.1083 1.68365-1.55415 .51805-1.55415-.51805-3.1083-1.68365-1.55415-.77707-.25902-.25902 1.0361 0Z" fill="#008080"/>
<path transform="matrix(.62470999,.7808981,.7808825,-.6247225,92.25258,106.27792)" stroke-width=".79701" stroke-linecap="butt" stroke-linejoin="round" fill="none" stroke="#008080" d="M1.0361 0C-.25902 .25902-1.55415 .77707-3.1083 1.68365-1.55415 .51805-1.55415-.51805-3.1083-1.68365-1.55415-.77707-.25902-.25902 1.0361 0Z"/>
<path transform="matrix(1.00008,0,0,-1.0001,62.52957,69.12341)" d="M12.1288-41.16292H24.549V-35.379034H12.1288Z" fill="#ffffff"/>
<use data-text="-" xlink:href="#font_5_64" transform="matrix(9.963397,0,0,-9.963596,74.65954,108.79638)" fill="#008080"/>
<use data-text="z" xlink:href="#font_3_2" transform="matrix(9.963397,0,0,-9.963596,77.97779,108.79638)" fill="#008080"/>
<use data-text="2" xlink:href="#font_4_2" transform="matrix(6.974358,0,0,-6.974498,82.61115,110.29053)" fill="#008080"/>
<path transform="matrix(1.00008,0,0,-1.0001,62.52957,69.12341)" stroke-width=".79701" stroke-linecap="butt" stroke-miterlimit="10" stroke-linejoin="miter" fill="none" stroke="#008080" d="M22.96257-15.30836 52.68321-52.45918"/>
<path transform="matrix(.62470999,.7808981,.7808825,-.6247225,115.21699,121.58784)" d="M1.0361 0C-.25902 .25902-1.55415 .77707-3.1083 1.68365-1.55415 .51805-1.55415-.51805-3.1083-1.68365-1.55415-.77707-.25902-.25902 1.0361 0Z" fill="#008080"/>
<path transform="matrix(.62470999,.7808981,.7808825,-.6247225,115.21699,121.58784)" stroke-width=".79701" stroke-linecap="butt" stroke-linejoin="round" fill="none" stroke="#008080" d="M1.0361 0C-.25902 .25902-1.55415 .77707-3.1083 1.68365-1.55415 .51805-1.55415-.51805-3.1083-1.68365-1.55415-.77707-.25902-.25902 1.0361 0Z"/>
<path transform="matrix(1.00008,0,0,-1.0001,62.52957,69.12341)" stroke-width="1.59404" stroke-linecap="butt" stroke-miterlimit="10" stroke-linejoin="miter" fill="none" stroke="#000000" d="M0 0 51.94499-51.94499"/>
<path transform="matrix(.70715656,.7071707,.70715656,-.7071707,114.47871,121.07359)" d="M1.51433 0C-.37857 .37857-2.27148 1.13573-4.54298 2.46077-2.27148 .75716-2.27148-.75716-4.54298-2.46077-2.27148-1.13573-.37857-.37857 1.51433 0Z"/>
<path transform="matrix(.70715656,.7071707,.70715656,-.7071707,114.47871,121.07359)" stroke-width="1.59404" stroke-linecap="butt" stroke-linejoin="round" fill="none" stroke="#000000" d="M1.51433 0C-.37857 .37857-2.27148 1.13573-4.54298 2.46077-2.27148 .75716-2.27148-.75716-4.54298-2.46077-2.27148-1.13573-.37857-.37857 1.51433 0Z"/>
<path transform="matrix(1.00008,0,0,-1.0001,62.52957,69.12341)" d="M32.71915-61.68239H63.100999V-54.37639H32.71915Z" fill="#ffffff"/>
<use data-text="z" xlink:href="#font_3_2" transform="matrix(9.963397,0,0,-9.963596,95.25119,129.31745)"/>
<use data-text="1" xlink:href="#font_4_1" transform="matrix(6.974358,0,0,-6.974498,99.88556,130.81159)"/>
<use data-text="&#x2212;" xlink:href="#font_1_1" transform="matrix(9.963397,0,0,-9.963596,106.56909,129.31745)"/>
<use data-text="z" xlink:href="#font_3_2" transform="matrix(9.963397,0,0,-9.963596,116.53189,129.31745)"/>
<use data-text="2" xlink:href="#font_4_2" transform="matrix(6.974358,0,0,-6.974498,121.16626,130.81159)"/>
</svg>
