<svg xmlns="http://www.w3.org/2000/svg" xmlns:xlink="http://www.w3.org/1999/xlink" version="1.1" width="123" height="100" viewBox="0 0 123 100">
<defs>
<path id="font_1_1" d="M.33399964 .30233766C.33999635 .32835389 .36299134 .42037965 .43299867 .42037965 .43798829 .42037965 .46199037 .42037965 .48298646 .40734864 .45498658 .402359 .43499757 .37734986 .43499757 .35334779 .43499757 .33735658 .44599916 .31835938 .47299195 .31835938 .49499513 .31835938 .5269928 .3363495 .5269928 .37635804 .5269928 .42837525 .46798707 .4423828 .43399049 .4423828 .37599183 .4423828 .34098817 .38935853 .32899476 .36634828 .3039856 .43237306 .25 .4423828 .22099304 .4423828 .116989139 .4423828 .05999756 .3133545 .05999756 .28834535 .05999756 .27833558 .069992069 .27833558 .07199097 .27833558 .07998657 .27833558 .08299255 .28033448 .084991458 .28933717 .11898804 .39535523 .18499756 .42037965 .21899414 .42037965 .23799134 .42037965 .272995 .4113617 .272995 .35334779 .272995 .32235719 .2559967 .25532533 .21899414 .11528015 .20298767 .053268434 .16799927 .011245728 .12399292 .011245728 .117996219 .011245728 .09498596 .011245728 .07398987 .024276734 .09899902 .029266358 .12098694 .05027771 .12098694 .07827759 .12098694 .105270389 .09899902 .11328125 .083999637 .11328125 .053985597 .11328125 .0289917 .08728027 .0289917 .055267335 .0289917 .009246826 .07899475-.0107421879 .12298584-.0107421879 .18899536-.0107421879 .22499085 .059280397 .22799683 .0652771 .23999024 .028274537 .27598573-.0107421879 .33599855-.0107421879 .43899537-.0107421879 .49598695 .118270877 .49598695 .14328003 .49598695 .1532898 .4869995 .1532898 .48399354 .1532898 .47499085 .1532898 .47299195 .14929199 .47099305 .14228821 .43798829 .03527832 .36999513 .011245728 .33799745 .011245728 .29899598 .011245728 .2829895 .043273927 .2829895 .07727051 .2829895 .09927368 .2889862 .121276859 .2999878 .16529846L.33399964 .30233766Z"/>
<path id="font_1_2" d="M.48599244 .38136292C.48999024 .39537049 .48999024 .39736939 .48999024 .40437318 .48999024 .42237855 .47599793 .43138124 .46099855 .43138124 .45098878 .43138124 .43499757 .42536927 .42599488 .41036988 .42399598 .405365 .41600038 .37435914 .4119873 .35635377 .40499879 .33035279 .397995 .30334474 .3919983 .27633668L.34700013 .09628296C.34298707 .08126831 .2999878 .011245728 .23399353 .011245728 .18299866 .011245728 .17199707 .055267335 .17199707 .0922699 .17199707 .1382904 .18899536 .20030213 .22299195 .28833009 .23899842 .3293457 .24299622 .3403473 .24299622 .36035157 .24299622 .405365 .21099854 .4423828 .16099549 .4423828 .06599426 .4423828 .0289917 .29733277 .0289917 .28833009 .0289917 .27833558 .038986207 .27833558 .040985109 .27833558 .050994874 .27833558 .051986696 .28033448 .056991579 .29634095 .083999637 .3903656 .12399292 .42037965 .1579895 .42037965 .1659851 .42037965 .18299866 .42037965 .18299866 .3883667 .18299866 .36335755 .17298889 .3373413 .1659851 .31834413 .12599182 .21231079 .10798645 .1552887 .10798645 .10827637 .10798645 .019256592 .17098999-.0107421879 .22999573-.0107421879 .2689972-.0107421879 .30299378 .0062561037 .33099366 .03425598 .31799317-.017745972 .30599977-.06674194 .2659912-.11973572 .23999024-.15385437 .20199585-.18309021 .1559906-.18309021 .14199829-.18309021 .09700012-.18005371 .07998657-.14074707 .09599304-.14074707 .10899353-.14074707 .12298584-.1287384 .1329956-.11973572 .14299011-.10673523 .14299011-.08773804 .14299011-.056747438 .115997318-.052734376 .10598755-.052734376 .08299255-.052734376 .049987794-.068740848 .049987794-.11773682 .049987794-.16796875 .09399414-.20507813 .1559906-.20507813 .25898744-.20507813 .3619995-.11373901 .3899994-.00074768069L.48599244 .38136292Z"/>
<path id="font_2_64" d="M.27598573 .18710327V.24511719H.010986328V.18710327H.27598573Z"/>
<path id="font_2_101" d="M.45700074 .2036438C.45700074 .33070375 .36799623 .4267578 .25698854 .4267578 .18899536 .4267578 .1519928 .37573243 .13198853 .327713V.35173036C.13198853 .6047821 .2559967 .64100649 .30699159 .64100649 .33099366 .64100649 .37298585 .634964 .394989 .6007538 .37998963 .6007538 .33999635 .6007538 .33999635 .5557556 .33999635 .524765 .3639984 .5097656 .38598634 .5097656 .4019928 .5097656 .43199159 .51875308 .43199159 .5577545 .43199159 .6178589 .3880005 .6660156 .30499269 .6660156 .1769867 .6660156 .041992189 .5367584 .041992189 .31570436 .041992189 .048553468 .1579895-.022460938 .25099183-.022460938 .3619995-.022460938 .45700074 .07156372 .45700074 .2036438M.36698915 .20463562C.36698915 .15661621 .36698915 .10658264 .34999085 .0705719 .31999208 .010528564 .27398683 .0055389406 .25099183 .0055389406 .18798828 .0055389406 .1579895 .06556702 .1519928 .080566409 .13398743 .127594 .13398743 .2076416 .13398743 .22564698 .13398743 .30369569 .1659851 .40374757 .2559967 .40374757 .27198792 .40374757 .31799317 .40374757 .34899903 .34172059 .36698915 .30470277 .36698915 .2536621 .36698915 .20463562Z"/>
<path id="font_2_106" d="M.45700074 .17037964C.45700074 .252594 .3939972 .33088685 .2899933 .35191346 .37199403 .37893678 .42999269 .4490509 .42999269 .52809146 .42999269 .6100464 .34199525 .6660156 .24598694 .6660156 .14498902 .6660156 .068984989 .60606387 .068984989 .53009036 .068984989 .49710084 .09098816 .47808839 .11999512 .47808839 .15098572 .47808839 .17098999 .50009158 .17098999 .5290985 .17098999 .57910159 .12399292 .57910159 .10899353 .57910159 .13999939 .62802127 .20599365 .64100649 .24198914 .64100649 .2829895 .64100649 .33799745 .6190338 .33799745 .5290985 .33799745 .51708987 .33599855 .45906068 .30999757 .4149933 .27999879 .36691285 .24598694 .36390687 .22099304 .36291505 .21299744 .36190797 .18899536 .35990907 .18199158 .35990907 .17399597 .35890199 .16699219 .35791017 .16699219 .3479004 .16699219 .33691407 .17399597 .33691407 .19099427 .33691407H.23498535C.31698609 .33691407 .35398866 .2686615 .35398866 .17037964 .35398866 .034469606 .2849884 .0055389406 .24099732 .0055389406 .19799805 .0055389406 .12298584 .022491456 .08799744 .08137512 .12298584 .07637024 .1539917 .09837341 .1539917 .1363678 .1539917 .17237854 .1269989 .19238281 .09799194 .19238281 .07398987 .19238281 .041992189 .17837525 .041992189 .1343689 .041992189 .043441774 .1349945-.022460938 .24398804-.022460938 .3659973-.022460938 .45700074 .06838989 .45700074 .17037964Z"/>
<path id="font_2_82" d="M.4189911 0V.0309906H.3869934C.29699708 .0309906 .2939911 .041992189 .2939911 .07902527V.64012148C.2939911 .6640167 .2939911 .6660156 .2709961 .6660156 .20899964 .60227969 .12098694 .60227969 .08898926 .60227969V.57128909C.10899353 .57128909 .16799927 .57128909 .21998596 .5972748V.07902527C.21998596 .042999269 .21699524 .0309906 .1269989 .0309906H.09498596V0C.12998963 .0029907227 .21699524 .0029907227 .25698854 .0029907227 .29699708 .0029907227 .38398744 .0029907227 .4189911 0Z"/>
<path id="font_2_107" d="M.44898988 .17396546H.42399598C.4189911 .14398194 .4119873 .099990848 .4019928 .084991458 .394989 .07699585 .32899476 .07699585 .30699159 .07699585H.1269989L.23298645 .17996216C.3889923 .31803895 .44898988 .37210084 .44898988 .47216798 .44898988 .5860901 .35899354 .6660156 .23699951 .6660156 .12399292 .6660156 .049987794 .57411196 .049987794 .48516847 .049987794 .4291687 .099990848 .4291687 .102996829 .4291687 .11999512 .4291687 .15499878 .44117738 .15499878 .48217774 .15499878 .5081787 .13699341 .5341797 .101989749 .5341797 .09399414 .5341797 .09199524 .5341797 .08898926 .5331726 .11199951 .59806826 .1659851 .63500979 .22399903 .63500979 .31498719 .63500979 .35798646 .5541382 .35798646 .47216798 .35798646 .39196778 .30799867 .31297303 .25299073 .25097657L.06098938 .036987306C.049987794 .025985718 .049987794 .023986817 .049987794 0H.42099L.44898988 .17396546Z"/>
<path id="font_2_57" d="M.47099305 .16503906V.19602967H.37098695V.6507721C.37098695 .6707611 .37098695 .6767578 .35499574 .6767578 .34599305 .6767578 .34298707 .6767578 .33499146 .6647644L.027999878 .19602967V.16503906H.2939911V.07800293C.2939911 .041992189 .2919922 .0309906 .21798706 .0309906H.19699097V0C.23799134 .0029907227 .2899933 .0029907227 .33198548 .0029907227 .37399293 .0029907227 .4269867 .0029907227 .46798707 0V.0309906H.44699098C.37298585 .0309906 .37098695 .041992189 .37098695 .07800293V.16503906H.47099305M.2999878 .19602967H.055999757L.2999878 .56881716V.19602967Z"/>
</defs>
<path transform="matrix(1.00003,0,0,-1.00005,15.050011,46.790689)" stroke-width=".3985" stroke-linecap="butt" stroke-miterlimit="10" stroke-linejoin="miter" fill="none" stroke="#00aeef" d="M0-47.62242H90.71013M0-39.68535H90.71013M0-31.74828H90.71013M0-23.8112H90.71013M0-15.87413H90.71013M0-7.93706H90.71013M0 0H90.71013M0 7.93706H90.71013M0 15.87413H90.71013M0 23.8112H90.71013M0 31.74548H90.71013M0-47.62242V31.74828M11.33876-47.62242V31.74828M22.67752-47.62242V31.74828M34.01628-47.62242V31.74828M45.35504-47.62242V31.74828M56.6938-47.62242V31.74828M68.03256-47.62242V31.74828M79.37132-47.62242V31.74828M90.71008-47.62242V31.74828M90.71013 31.74828"/>
<path transform="matrix(1.00003,0,0,-1.00005,15.050011,46.790689)" stroke-width=".79701" stroke-linecap="butt" stroke-miterlimit="10" stroke-linejoin="miter" fill="none" stroke="#000000" d="M0 0H96.07884"/>
<path transform="matrix(1.00003,0,0,-1.00005,111.13174,46.790689)" d="M1.0361 0C-.25902 .25902-1.55415 .77707-3.1083 1.68365-1.55415 .51805-1.55415-.51805-3.1083-1.68365-1.55415-.77707-.25902-.25902 1.0361 0Z"/>
<path transform="matrix(1.00003,0,0,-1.00005,111.13174,46.790689)" stroke-width=".79701" stroke-linecap="butt" stroke-linejoin="round" fill="none" stroke="#000000" d="M1.0361 0C-.25902 .25902-1.55415 .77707-3.1083 1.68365-1.55415 .51805-1.55415-.51805-3.1083-1.68365-1.55415-.77707-.25902-.25902 1.0361 0Z"/>
<use data-text="x" xlink:href="#font_1_1" transform="matrix(9.962899,0,0,-9.963098,116.28606,48.935796)"/>
<path transform="matrix(1.00003,0,0,-1.00005,15.050011,46.790689)" stroke-width=".79701" stroke-linecap="butt" stroke-miterlimit="10" stroke-linejoin="miter" fill="none" stroke="#000000" d="M0-47.62242V33.48845"/>
<path transform="matrix(0,-1.00005,-1.00003,-0,15.050011,13.300568)" d="M1.0361 0C-.25902 .25902-1.55415 .77707-3.1083 1.68365-1.55415 .51805-1.55415-.51805-3.1083-1.68365-1.55415-.77707-.25902-.25902 1.0361 0Z"/>
<path transform="matrix(0,-1.00005,-1.00003,-0,15.050011,13.300568)" stroke-width=".79701" stroke-linecap="butt" stroke-linejoin="round" fill="none" stroke="#000000" d="M1.0361 0C-.25902 .25902-1.55415 .77707-3.1083 1.68365-1.55415 .51805-1.55415-.51805-3.1083-1.68365-1.55415-.77707-.25902-.25902 1.0361 0Z"/>
<use data-text="y" xlink:href="#font_1_2" transform="matrix(9.962899,0,0,-9.963098,12.428932,6.2096636)"/>
<path transform="matrix(1.00003,0,0,-1.00005,15.050011,46.790689)" stroke-width=".79701" stroke-linecap="butt" stroke-miterlimit="10" stroke-linejoin="miter" fill="none" stroke="#000000" d="M1.81422-47.62242H-1.81422"/>
<use data-text="-" xlink:href="#font_2_64" transform="matrix(9.962899,0,0,-9.963098,1.217598,97.62323)"/>
<use data-text="6" xlink:href="#font_2_101" transform="matrix(9.962899,0,0,-9.963098,4.53524,97.62323)"/>
<path transform="matrix(1.00003,0,0,-1.00005,15.050011,46.790689)" stroke-width=".79701" stroke-linecap="butt" stroke-miterlimit="10" stroke-linejoin="miter" fill="none" stroke="#000000" d="M1.81422-23.8112H-1.81422"/>
<use data-text="-" xlink:href="#font_2_64" transform="matrix(9.962899,0,0,-9.963098,1.217598,73.811038)"/>
<use data-text="3" xlink:href="#font_2_106" transform="matrix(9.962899,0,0,-9.963098,4.53524,73.811038)"/>
<path transform="matrix(1.00003,0,0,-1.00005,15.050011,46.790689)" stroke-width=".79701" stroke-linecap="butt" stroke-miterlimit="10" stroke-linejoin="miter" fill="none" stroke="#000000" d="M1.81422 23.8112H-1.81422"/>
<use data-text="3" xlink:href="#font_2_106" transform="matrix(9.962899,0,0,-9.963098,4.534691,26.186657)"/>
<path transform="matrix(1.00003,0,0,-1.00005,15.050011,46.790689)" stroke-width=".79701" stroke-linecap="butt" stroke-miterlimit="10" stroke-linejoin="miter" fill="none" stroke="#000000" d="M22.67752 1.19049V-1.19061"/>
<path transform="matrix(1.00003,0,0,-1.00005,15.050011,46.790689)" d="M19.19055-12.20943H26.16449V-3.5816794H19.19055Z" fill="#ffffff"/>
<use data-text="1" xlink:href="#font_2_82" transform="matrix(9.962899,0,0,-9.963098,35.237619,58.00425)"/>
<path transform="matrix(1.00003,0,0,-1.00005,15.050011,46.790689)" stroke-width=".79701" stroke-linecap="butt" stroke-miterlimit="10" stroke-linejoin="miter" fill="none" stroke="#000000" d="M45.35506 1.19049V-1.19061"/>
<path transform="matrix(1.00003,0,0,-1.00005,15.050011,46.790689)" d="M41.86809-12.20943H48.842035V-3.5816794H41.86809Z" fill="#ffffff"/>
<use data-text="2" xlink:href="#font_2_107" transform="matrix(9.962899,0,0,-9.963098,57.9153,58.00425)"/>
<path transform="matrix(1.00003,0,0,-1.00005,15.050011,46.790689)" stroke-width=".79701" stroke-linecap="butt" stroke-miterlimit="10" stroke-linejoin="miter" fill="none" stroke="#000000" d="M68.0326 1.19049V-1.19061"/>
<path transform="matrix(1.00003,0,0,-1.00005,15.050011,46.790689)" d="M64.54562-12.42859H71.51956V-3.5816794H64.54562Z" fill="#ffffff"/>
<use data-text="3" xlink:href="#font_2_106" transform="matrix(9.962899,0,0,-9.963098,80.59398,58.00425)"/>
<path transform="matrix(1.00003,0,0,-1.00005,15.050011,46.790689)" stroke-width=".79701" stroke-linecap="butt" stroke-miterlimit="10" stroke-linejoin="miter" fill="none" stroke="#000000" d="M90.71013 1.19049V-1.19061"/>
<path transform="matrix(1.00003,0,0,-1.00005,15.050011,46.790689)" d="M87.22316-12.319H94.1971V-3.5816603H87.22316Z" fill="#ffffff"/>
<use data-text="4" xlink:href="#font_2_57" transform="matrix(9.962899,0,0,-9.963098,103.27166,58.114255)"/>
<path transform="matrix(1.00003,0,0,-1.00005,15.050011,46.790689)" stroke-width=".79701" stroke-linecap="butt" stroke-dasharray="2.98883,2.98883" stroke-miterlimit="10" stroke-linejoin="miter" fill="none" stroke="#515151" d="M11.33876-47.62242V31.74828"/>
<path transform="matrix(1.00003,0,0,-1.00005,15.050011,46.790689)" stroke-width=".79701" stroke-linecap="butt" stroke-dasharray="2.98883,2.98883" stroke-miterlimit="10" stroke-linejoin="miter" fill="none" stroke="#515151" d="M34.01628-47.62242V31.74828"/>
<path transform="matrix(1.00003,0,0,-1.00005,15.050011,46.790689)" stroke-width=".79701" stroke-linecap="butt" stroke-dasharray="2.98883,2.98883" stroke-miterlimit="10" stroke-linejoin="miter" fill="none" stroke="#515151" d="M56.69382-47.62242V31.74828"/>
<path transform="matrix(1.00003,0,0,-1.00005,15.050011,46.790689)" stroke-width=".79701" stroke-linecap="butt" stroke-dasharray="2.98883,2.98883" stroke-miterlimit="10" stroke-linejoin="miter" fill="none" stroke="#515151" d="M79.37135-47.62242V31.74828"/>
<path transform="matrix(1.00003,0,0,-1.00005,15.050011,46.790689)" stroke-width=".79701" stroke-linecap="butt" stroke-miterlimit="10" stroke-linejoin="miter" fill="none" stroke="#ff0000" d="M0-23.8112C0-23.8112 .28075-23.19438 .38857-22.9564 .4964-22.71843 .66934-22.3362 .77716-22.09604 .885-21.85588 1.05794-21.46918 1.16576-21.2255 1.27359-20.98181 1.44652-20.58849 1.55435-20.33969 1.66217-20.0909 1.83513-19.68779 1.94296-19.43234 2.05077-19.1769 2.22371-18.7626 2.33153-18.49858 2.43936-18.23457 2.61232-17.80417 2.72014-17.52945 2.82797-17.25476 3.00092-16.8063 3.10872-16.51868 3.21655-16.23103 3.38948-15.7597 3.49731-15.4563 3.60515-15.1529 3.77809-14.65427 3.88593-14.33191 3.99374-14.00954 4.16669-13.47813 4.2745-13.13292 4.38232-12.78772 4.55528-12.21675 4.6631-11.84383 4.77094-11.47089 4.94388-10.85152 5.0517-10.44499 5.15952-10.03848 5.33247-9.36159 5.44029-8.91393 5.54813-8.46628 5.72105-7.71696 5.82889-7.21864 5.93672-6.7203 6.10965-5.88387 6.21747-5.32228 6.32529-4.76071 6.49825-3.81317 6.60608-3.17113 6.7139-2.52908 6.88684-1.4402 6.99466-.6949 7.10248 .05034 7.27544 1.31915 7.38326 2.20032 7.49109 3.08147 7.66402 4.58992 7.77185 5.65582 7.87968 6.72173 8.05263 8.55818 8.16045 9.88257 8.26828 11.20694 8.44121 13.50089 8.54904 15.201 8.65686 16.9011 8.8298 19.85387 8.93764 22.13576 9.04546 24.41765 9.32622 31.64728 9.27063 30.2138"/>
<path transform="matrix(.038761166,-.9992499,-.99923,-.038761937,24.3209,16.575388)" d="M1.0361 0C-.25902 .25902-1.55415 .77707-3.1083 1.68365-1.55415 .51805-1.55415-.51805-3.1083-1.68365-1.55415-.77707-.25902-.25902 1.0361 0Z" fill="#ff0000"/>
<path transform="matrix(.038761166,-.9992499,-.99923,-.038761937,24.3209,16.575388)" stroke-width=".79701" stroke-linecap="butt" stroke-linejoin="round" fill="none" stroke="#ff0000" d="M1.0361 0C-.25902 .25902-1.55415 .77707-3.1083 1.68365-1.55415 .51805-1.55415-.51805-3.1083-1.68365-1.55415-.77707-.25902-.25902 1.0361 0Z"/>
<path transform="matrix(1.00003,0,0,-1.00005,15.050011,46.790689)" stroke-width=".79701" stroke-linecap="butt" stroke-miterlimit="10" stroke-linejoin="miter" fill="none" stroke="#ff0000" d="M15.8011-46.20175C16.07814-44.39339 16.07814-44.39339 16.26796-43.32712 16.4578-42.26085 16.76224-40.79347 16.95207-39.93483 17.14189-39.07619 17.44635-37.85724 17.63617-37.13864 17.826-36.42004 18.13045-35.37613 18.3203-34.75568 18.51012-34.13521 18.81456-33.21742 19.0044-32.66676 19.19423-32.11612 19.49866-31.28746 19.6885-30.7869 19.87833-30.28635 20.18277-29.52411 20.3726-29.05914 20.56244-28.59418 20.86687-27.87654 21.0567-27.43578 21.24654-26.99503 21.55096-26.30826 21.74081-25.88243 21.93063-25.45659 22.23508-24.78577 22.42491-24.36661 22.61475-23.94745 22.91917-23.28156 23.10901-22.86145 23.29884-22.44136 23.60329-21.76778 23.7931-21.33885 23.98296-20.90991 24.28738-20.21617 24.47722-19.77 24.66705-19.32382 24.9715-18.59627 25.16132-18.12314 25.35117-17.65002 25.6556-16.87202 25.84543-16.36003 26.03526-15.848 26.3397-14.99951 26.52953-14.43292 26.71938-13.86632 27.02382-12.9194 27.21365-12.27643 27.40347-11.63344 27.70792-10.54922 27.89775-9.79877 28.08759-9.0483 28.39203-7.77284 28.58185-6.86766 28.77168-5.96246 29.07613-4.41168 29.26596-3.2748 29.45578-2.13792 29.76024-.17595 29.95006 1.32614 30.1399 2.82826 30.44434 5.42279 30.63417 7.55144 30.82399 9.68008 31.12845 13.33002 31.31827 16.66788 31.5081 20.00575 32.00238 31.6085 31.94136 30.17528"/>
<path transform="matrix(-.15143454,.98846939,.9884497,.15143757,30.851605,92.99475)" d="M1.0361 0C-.25902 .25902-1.55415 .77707-3.1083 1.68365-1.55415 .51805-1.55415-.51805-3.1083-1.68365-1.55415-.77707-.25902-.25902 1.0361 0Z" fill="#ff0000"/>
<path transform="matrix(-.15143454,.98846939,.9884497,.15143757,30.851605,92.99475)" stroke-width=".79701" stroke-linecap="butt" stroke-linejoin="round" fill="none" stroke="#ff0000" d="M1.0361 0C-.25902 .25902-1.55415 .77707-3.1083 1.68365-1.55415 .51805-1.55415-.51805-3.1083-1.68365-1.55415-.77707-.25902-.25902 1.0361 0Z"/>
<path transform="matrix(.042541278,-.9990899,-.99907007,-.042542124,46.99232,16.613902)" d="M1.0361 0C-.25902 .25902-1.55415 .77707-3.1083 1.68365-1.55415 .51805-1.55415-.51805-3.1083-1.68365-1.55415-.77707-.25902-.25902 1.0361 0Z" fill="#ff0000"/>
<path transform="matrix(.042541278,-.9990899,-.99907007,-.042542124,46.99232,16.613902)" stroke-width=".79701" stroke-linecap="butt" stroke-linejoin="round" fill="none" stroke="#ff0000" d="M1.0361 0C-.25902 .25902-1.55415 .77707-3.1083 1.68365-1.55415 .51805-1.55415-.51805-3.1083-1.68365-1.55415-.77707-.25902-.25902 1.0361 0Z"/>
<path transform="matrix(1.00003,0,0,-1.00005,15.050011,46.790689)" stroke-width=".79701" stroke-linecap="butt" stroke-miterlimit="10" stroke-linejoin="miter" fill="none" stroke="#ff0000" d="M38.47864-46.20175C38.75568-44.39339 38.75568-44.39339 38.9455-43.32712 39.13533-42.26085 39.43977-40.79347 39.62961-39.93483 39.81943-39.07619 40.12389-37.85724 40.3137-37.13864 40.50354-36.42004 40.80798-35.37613 40.99783-34.75568 41.18765-34.13521 41.4921-33.21742 41.68193-32.66676 41.87177-32.11612 42.1762-31.28746 42.36604-30.7869 42.55586-30.28635 42.8603-29.52411 43.05014-29.05914 43.23997-28.59418 43.5444-27.87654 43.73422-27.43578 43.92407-26.99503 44.2285-26.30826 44.41833-25.88243 44.60817-25.45659 44.91261-24.78577 45.10243-24.36661 45.29228-23.94745 45.59671-23.28156 45.78654-22.86145 45.97638-22.44136 46.28082-21.76778 46.47064-21.33885 46.66049-20.90991 46.96492-20.21617 47.15475-19.77 47.34459-19.32382 47.64903-18.59627 47.83885-18.12314 48.0287-17.65002 48.33313-16.87202 48.52296-16.36003 48.7128-15.848 49.01724-14.99951 49.20706-14.43292 49.3969-13.86632 49.70135-12.9194 49.89119-12.27643 50.08101-11.63344 50.38547-10.54922 50.57529-9.79877 50.76512-9.0483 51.06956-7.77284 51.25938-6.86766 51.44922-5.96246 51.75366-4.41168 51.9435-3.2748 52.13332-2.13792 52.43777-.17595 52.6276 1.32614 52.81743 2.82826 53.12187 5.42279 53.3117 7.55144 53.50153 9.68008 53.80598 13.33002 53.9958 16.66788 54.18564 20.00575 54.67992 31.6085 54.6189 30.17528"/>
<path transform="matrix(-.15143454,.98846939,.9884497,.15143757,53.529817,92.99475)" d="M1.0361 0C-.25902 .25902-1.55415 .77707-3.1083 1.68365-1.55415 .51805-1.55415-.51805-3.1083-1.68365-1.55415-.77707-.25902-.25902 1.0361 0Z" fill="#ff0000"/>
<path transform="matrix(-.15143454,.98846939,.9884497,.15143757,53.529817,92.99475)" stroke-width=".79701" stroke-linecap="butt" stroke-linejoin="round" fill="none" stroke="#ff0000" d="M1.0361 0C-.25902 .25902-1.55415 .77707-3.1083 1.68365-1.55415 .51805-1.55415-.51805-3.1083-1.68365-1.55415-.77707-.25902-.25902 1.0361 0Z"/>
<path transform="matrix(.042541278,-.9990899,-.99907007,-.042542124,69.67053,16.613902)" d="M1.0361 0C-.25902 .25902-1.55415 .77707-3.1083 1.68365-1.55415 .51805-1.55415-.51805-3.1083-1.68365-1.55415-.77707-.25902-.25902 1.0361 0Z" fill="#ff0000"/>
<path transform="matrix(.042541278,-.9990899,-.99907007,-.042542124,69.67053,16.613902)" stroke-width=".79701" stroke-linecap="butt" stroke-linejoin="round" fill="none" stroke="#ff0000" d="M1.0361 0C-.25902 .25902-1.55415 .77707-3.1083 1.68365-1.55415 .51805-1.55415-.51805-3.1083-1.68365-1.55415-.77707-.25902-.25902 1.0361 0Z"/>
<path transform="matrix(1.00003,0,0,-1.00005,15.050011,46.790689)" stroke-width=".79701" stroke-linecap="butt" stroke-miterlimit="10" stroke-linejoin="miter" fill="none" stroke="#ff0000" d="M61.15617-46.20175C61.43321-44.39339 61.43321-44.39339 61.62303-43.32712 61.81287-42.26085 62.1173-40.79347 62.30714-39.93483 62.49696-39.07619 62.8014-37.85724 62.99124-37.13864 63.18108-36.42004 63.48552-35.37613 63.67535-34.75568 63.86519-34.13521 64.16963-33.21742 64.35945-32.66676 64.5493-32.11612 64.85373-31.28746 65.04356-30.7869 65.2334-30.28635 65.53784-29.52411 65.72766-29.05914 65.91751-28.59418 66.22194-27.87654 66.41176-27.43578 66.60161-26.99503 66.90604-26.30826 67.09587-25.88243 67.2857-25.45659 67.59015-24.78577 67.77997-24.36661 67.96982-23.94745 68.27425-23.28156 68.46408-22.86145 68.65392-22.44136 68.95836-21.76778 69.14818-21.33885 69.33801-20.90991 69.64246-20.21617 69.83229-19.77 70.02211-19.32382 70.32657-18.59627 70.51639-18.12314 70.70622-17.65002 71.01067-16.87202 71.2005-16.36003 71.39032-15.848 71.69478-14.99951 71.8846-14.43292 72.07443-13.86632 72.37889-12.9194 72.56873-12.27643 72.75854-11.63344 73.063-10.54922 73.25282-9.79877 73.44266-9.0483 73.7471-7.77284 73.93692-6.86766 74.12675-5.96246 74.4312-4.41168 74.62103-3.2748 74.81085-2.13792 75.11531-.17595 75.30513 1.32614 75.49496 2.82826 75.79941 5.42279 75.98924 7.55144 76.17906 9.68008 76.4835 13.33002 76.67334 16.66788 76.86317 20.00575 77.35745 31.6085 77.29643 30.17528"/>
<path transform="matrix(-.15143454,.98846939,.9884497,.15143757,76.20804,92.99475)" d="M1.0361 0C-.25902 .25902-1.55415 .77707-3.1083 1.68365-1.55415 .51805-1.55415-.51805-3.1083-1.68365-1.55415-.77707-.25902-.25902 1.0361 0Z" fill="#ff0000"/>
<path transform="matrix(-.15143454,.98846939,.9884497,.15143757,76.20804,92.99475)" stroke-width=".79701" stroke-linecap="butt" stroke-linejoin="round" fill="none" stroke="#ff0000" d="M1.0361 0C-.25902 .25902-1.55415 .77707-3.1083 1.68365-1.55415 .51805-1.55415-.51805-3.1083-1.68365-1.55415-.77707-.25902-.25902 1.0361 0Z"/>
<path transform="matrix(.042541278,-.9990899,-.99907007,-.042542124,92.34875,16.613902)" d="M1.0361 0C-.25902 .25902-1.55415 .77707-3.1083 1.68365-1.55415 .51805-1.55415-.51805-3.1083-1.68365-1.55415-.77707-.25902-.25902 1.0361 0Z" fill="#ff0000"/>
<path transform="matrix(.042541278,-.9990899,-.99907007,-.042542124,92.34875,16.613902)" stroke-width=".79701" stroke-linecap="butt" stroke-linejoin="round" fill="none" stroke="#ff0000" d="M1.0361 0C-.25902 .25902-1.55415 .77707-3.1083 1.68365-1.55415 .51805-1.55415-.51805-3.1083-1.68365-1.55415-.77707-.25902-.25902 1.0361 0Z"/>
<path transform="matrix(1.00003,0,0,-1.00005,15.050011,46.790689)" stroke-width=".79701" stroke-linecap="butt" stroke-miterlimit="10" stroke-linejoin="miter" fill="none" stroke="#ff0000" d="M83.82271-46.20012C83.82999-46.15155 83.82999-46.15155 83.91197-45.62846 83.99397-45.10536 84.1255-44.31871 84.20749-43.8496 84.28949-43.38046 84.421-42.67212 84.503-42.24731 84.58499-41.82251 84.7165-41.17569 84.79851-40.78793 84.88051-40.40016 85.01202-39.8087 85.09401-39.45256 85.17601-39.09642 85.30754-38.5507 85.38954-38.22113 85.47153-37.89153 85.60304-37.38393 85.68504-37.07712 85.76704-36.77031 85.89856-36.29713 85.98055-36.00989 86.06255-35.72266 86.19408-35.2774 86.27606-35.00687 86.35805-34.73631 86.48958-34.3159 86.57158-34.06003 86.65358-33.80412 86.7851-33.40578 86.86708-33.1626 86.94908-32.9194 87.0806-32.53957 87.1626-32.30731 87.24458-32.07506 87.37611-31.71132 87.45811-31.48862 87.54012-31.2659 87.67163-30.91661 87.75363-30.70212 87.83562-30.48764 87.96713-30.15018 88.04913-29.94276 88.13112-29.73534 88.26265-29.40845 88.34465-29.20714 88.42665-29.00583 88.55817-28.68802 88.64015-28.49187 88.72214-28.2957 88.85367-27.98506 88.93567-27.7933 89.01765-27.60155 89.14919-27.29799 89.23117-27.10976 89.31317-26.92152 89.44469-26.62202 89.52669-26.43663 89.60867-26.2512 89.7402-25.95657 89.8222-25.77342 89.90419-25.59027 90.03572-25.29817 90.1177-25.11652 90.1997-24.93488 90.33122-24.64494 90.41322-24.46423 90.49521-24.28352 90.70874-23.8141 90.70874-23.8141"/>
<path transform="matrix(-.14377432,.9896094,.98958978,.14377718,98.87525,92.99312)" d="M1.0361 0C-.25902 .25902-1.55415 .77707-3.1083 1.68365-1.55415 .51805-1.55415-.51805-3.1083-1.68365-1.55415-.77707-.25902-.25902 1.0361 0Z" fill="#ff0000"/>
<path transform="matrix(-.14377432,.9896094,.98958978,.14377718,98.87525,92.99312)" stroke-width=".79701" stroke-linecap="butt" stroke-linejoin="round" fill="none" stroke="#ff0000" d="M1.0361 0C-.25902 .25902-1.55415 .77707-3.1083 1.68365-1.55415 .51805-1.55415-.51805-3.1083-1.68365-1.55415-.77707-.25902-.25902 1.0361 0Z"/>
</svg>
