<svg xmlns="http://www.w3.org/2000/svg" xmlns:xlink="http://www.w3.org/1999/xlink" version="1.1" width="131" height="133" viewBox="0 0 131 133">
<defs>
<path id="font_1_2" d="M.33399964 .30233766C.33999635 .32835389 .36299134 .42037965 .43299867 .42037965 .43798829 .42037965 .46199037 .42037965 .48298646 .40734864 .45498658 .402359 .43499757 .37734986 .43499757 .35334779 .43499757 .33735658 .44599916 .31835938 .47299195 .31835938 .49499513 .31835938 .5269928 .3363495 .5269928 .37635804 .5269928 .42837525 .46798707 .4423828 .43399049 .4423828 .37599183 .4423828 .34098817 .38935853 .32899476 .36634828 .3039856 .43237306 .25 .4423828 .22099304 .4423828 .116989139 .4423828 .05999756 .3133545 .05999756 .28834535 .05999756 .27833558 .069992069 .27833558 .07199097 .27833558 .07998657 .27833558 .08299255 .28033448 .084991458 .28933717 .11898804 .39535523 .18499756 .42037965 .21899414 .42037965 .23799134 .42037965 .272995 .4113617 .272995 .35334779 .272995 .32235719 .2559967 .25532533 .21899414 .11528015 .20298767 .053268434 .16799927 .011245728 .12399292 .011245728 .117996219 .011245728 .09498596 .011245728 .07398987 .024276734 .09899902 .029266358 .12098694 .05027771 .12098694 .07827759 .12098694 .105270389 .09899902 .11328125 .083999637 .11328125 .053985597 .11328125 .0289917 .08728027 .0289917 .055267335 .0289917 .009246826 .07899475-.0107421879 .12298584-.0107421879 .18899536-.0107421879 .22499085 .059280397 .22799683 .0652771 .23999024 .028274537 .27598573-.0107421879 .33599855-.0107421879 .43899537-.0107421879 .49598695 .118270877 .49598695 .14328003 .49598695 .1532898 .4869995 .1532898 .48399354 .1532898 .47499085 .1532898 .47299195 .14929199 .47099305 .14228821 .43798829 .03527832 .36999513 .011245728 .33799745 .011245728 .29899598 .011245728 .2829895 .043273927 .2829895 .07727051 .2829895 .09927368 .2889862 .121276859 .2999878 .16529846L.33399964 .30233766Z"/>
<path id="font_1_3" d="M.48599244 .38136292C.48999024 .39537049 .48999024 .39736939 .48999024 .40437318 .48999024 .42237855 .47599793 .43138124 .46099855 .43138124 .45098878 .43138124 .43499757 .42536927 .42599488 .41036988 .42399598 .405365 .41600038 .37435914 .4119873 .35635377 .40499879 .33035279 .397995 .30334474 .3919983 .27633668L.34700013 .09628296C.34298707 .08126831 .2999878 .011245728 .23399353 .011245728 .18299866 .011245728 .17199707 .055267335 .17199707 .0922699 .17199707 .1382904 .18899536 .20030213 .22299195 .28833009 .23899842 .3293457 .24299622 .3403473 .24299622 .36035157 .24299622 .405365 .21099854 .4423828 .16099549 .4423828 .06599426 .4423828 .0289917 .29733277 .0289917 .28833009 .0289917 .27833558 .038986207 .27833558 .040985109 .27833558 .050994874 .27833558 .051986696 .28033448 .056991579 .29634095 .083999637 .3903656 .12399292 .42037965 .1579895 .42037965 .1659851 .42037965 .18299866 .42037965 .18299866 .3883667 .18299866 .36335755 .17298889 .3373413 .1659851 .31834413 .12599182 .21231079 .10798645 .1552887 .10798645 .10827637 .10798645 .019256592 .17098999-.0107421879 .22999573-.0107421879 .2689972-.0107421879 .30299378 .0062561037 .33099366 .03425598 .31799317-.017745972 .30599977-.06674194 .2659912-.11973572 .23999024-.15385437 .20199585-.18309021 .1559906-.18309021 .14199829-.18309021 .09700012-.18005371 .07998657-.14074707 .09599304-.14074707 .10899353-.14074707 .12298584-.1287384 .1329956-.11973572 .14299011-.10673523 .14299011-.08773804 .14299011-.056747438 .115997318-.052734376 .10598755-.052734376 .08299255-.052734376 .049987794-.068740848 .049987794-.11773682 .049987794-.16796875 .09399414-.20507813 .1559906-.20507813 .25898744-.20507813 .3619995-.11373901 .3899994-.00074768069L.48599244 .38136292Z"/>
<path id="font_2_1" d="M.6589966 .23046875C.6759949 .23046875 .69400027 .23046875 .69400027 .25045777 .69400027 .27046205 .6759949 .27046205 .6589966 .27046205H.117996219C.100997928 .27046205 .08299255 .27046205 .08299255 .25045777 .08299255 .23046875 .100997928 .23046875 .117996219 .23046875H.6589966Z"/>
<path id="font_3_1" d="M.45999146 .31976319C.45999146 .39982606 .45498658 .47988893 .41999818 .5539398 .37399293 .65000918 .2919922 .6660156 .25 .6660156 .18998719 .6660156 .116989139 .64001467 .07598877 .54693606 .04399109 .47789 .038986207 .39982606 .038986207 .31976319 .038986207 .24472046 .042999269 .15464783 .083999637 .07859802 .1269989-.0024719239 .19999695-.022460938 .24899292-.022460938 .30299378-.022460938 .3789978-.0014648438 .4229889 .09359741 .45498658 .16265869 .45999146 .2407074 .45999146 .31976319M.24899292-.00047302247C.20999146-.00047302247 .15098572 .024551392 .1329956 .12062073 .12199402 .18066406 .12199402 .2727356 .12199402 .3317871 .12199402 .39582826 .12199402 .46188355 .12998963 .5159149 .14898682 .63500979 .22399903 .64401248 .24899292 .64401248 .28199769 .64401248 .34799195 .6259918 .36698915 .52693179 .3769989 .47088624 .3769989 .39482118 .3769989 .3317871 .3769989 .25672914 .3769989 .18867493 .3659973 .12461853 .35099793 .029556275 .2939911-.00047302247 .24899292-.00047302247Z"/>
<path id="font_1_1" d="M.19198609 .052993776C.19198609 .08198547 .16799927 .10598755 .13899231 .10598755 .10998535 .10598755 .085998538 .08198547 .085998538 .052993776 .085998538 .023986817 .10998535 0 .13899231 0 .16799927 0 .19198609 .023986817 .19198609 .052993776Z"/>
<path id="font_3_3" d="M.16299439 .4569702C.116989139 .486969 .11299133 .52098086 .11299133 .5379791 .11299133 .598999 .17799378 .64100649 .24899292 .64100649 .32199098 .64100649 .38598634 .58898928 .38598634 .51698306 .38598634 .45996095 .34700013 .4119568 .2869873 .37695313L.16299439 .4569702M.30899049 .36193849C.3809967 .3989563 .42999269 .45095826 .42999269 .51698306 .42999269 .6090088 .34098817 .6660156 .25 .6660156 .1499939 .6660156 .068984989 .59199526 .068984989 .49897767 .068984989 .4809723 .070999149 .43595887 .11299133 .38894654 .12399292 .37695313 .16099549 .35194398 .18598938 .33494569 .12799073 .30592347 .041992189 .24984741 .041992189 .15072632 .041992189 .04458618 .14399719-.022460938 .24899292-.022460938 .3619995-.022460938 .45700074 .06060791 .45700074 .16773987 .45700074 .20379639 .44599916 .24885559 .4079895 .2909088 .3889923 .31193543 .37298585 .3219452 .30899049 .36193849M.20899964 .3199463 .33198548 .24183655C.3600006 .2228241 .40699769 .19277954 .40699769 .13169861 .40699769 .05760193 .33198548 .0055389406 .25 .0055389406 .1639862 .0055389406 .09199524 .067611698 .09199524 .15072632 .09199524 .20880127 .12399292 .27288819 .20899964 .3199463Z"/>
<path id="font_3_2" d="M.2939911 .16503906V.07800293C.2939911 .041992189 .2919922 .0309906 .21798706 .0309906H.19699097V0C.23799134 .0029907227 .2899933 .0029907227 .33198548 .0029907227 .37399293 .0029907227 .4269867 .0029907227 .46798707 0V.0309906H.44699098C.37298585 .0309906 .37098695 .041992189 .37098695 .07800293V.16503906H.47099305V.19602967H.37098695V.65075686C.37098695 .67074587 .37098695 .6767578 .35499574 .6767578 .34599305 .6767578 .34298707 .6767578 .33499146 .66474917L.027999878 .19602967V.16503906H.2939911M.2999878 .19602967H.055999757L.2999878 .5688019V.19602967Z"/>
</defs>
<path transform="matrix(1,0,0,-1.0001,57.811006,74.23713)" stroke-width=".19925" stroke-linecap="butt" stroke-miterlimit="10" stroke-linejoin="miter" fill="none" stroke="#00aeef" d="M-56.69362-56.69273H56.69362M-56.69362-45.35419H56.69362M-56.69362-34.01564H56.69362M-56.69362-22.6771H56.69362M-56.69362-11.33855H56.69362M-56.69362 0H56.69362M-56.69362 11.33855H56.69362M-56.69362 22.6771H56.69362M-56.69362 34.01564H56.69362M-56.69362 45.35419H56.69362M-56.69362 56.69273H56.69362M-56.69273-56.69362V56.69362M-45.35419-56.69362V56.69362M-34.01564-56.69362V56.69362M-22.6771-56.69362V56.69362M-11.33855-56.69362V56.69362M0-56.69362V56.69362M11.33855-56.69362V56.69362M22.6771-56.69362V56.69362M34.01564-56.69362V56.69362M45.35419-56.69362V56.69362M56.69273-56.69362V56.69362M56.69362 56.69362"/>
<path transform="matrix(1,0,0,-1.0001,57.811006,74.23713)" stroke-width=".79701" stroke-linecap="butt" stroke-miterlimit="10" stroke-linejoin="miter" fill="none" stroke="#000000" d="M-56.69362 0H60.9287"/>
<path transform="matrix(1,0,0,-1.0001,118.7397,74.23713)" d="M1.0361 0C-.25902 .25902-1.55415 .77707-3.1083 1.68365-1.55415 .51805-1.55415-.51805-3.1083-1.68365-1.55415-.77707-.25902-.25902 1.0361 0Z"/>
<path transform="matrix(1,0,0,-1.0001,118.7397,74.23713)" stroke-width=".79701" stroke-linecap="butt" stroke-linejoin="round" fill="none" stroke="#000000" d="M1.0361 0C-.25902 .25902-1.55415 .77707-3.1083 1.68365-1.55415 .51805-1.55415-.51805-3.1083-1.68365-1.55415-.77707-.25902-.25902 1.0361 0Z"/>
<use data-text="x" xlink:href="#font_1_2" transform="matrix(9.9626,0,0,-9.963596,123.893009,76.38234)"/>
<path transform="matrix(1,0,0,-1.0001,57.811006,74.23713)" stroke-width=".79701" stroke-linecap="butt" stroke-miterlimit="10" stroke-linejoin="miter" fill="none" stroke="#000000" d="M0-56.69362V60.9287"/>
<path transform="matrix(0,-1.0001,-1,-0,57.811006,13.302338)" d="M1.0361 0C-.25902 .25902-1.55415 .77707-3.1083 1.68365-1.55415 .51805-1.55415-.51805-3.1083-1.68365-1.55415-.77707-.25902-.25902 1.0361 0Z"/>
<path transform="matrix(0,-1.0001,-1,-0,57.811006,13.302338)" stroke-width=".79701" stroke-linecap="butt" stroke-linejoin="round" fill="none" stroke="#000000" d="M1.0361 0C-.25902 .25902-1.55415 .77707-3.1083 1.68365-1.55415 .51805-1.55415-.51805-3.1083-1.68365-1.55415-.77707-.25902-.25902 1.0361 0Z"/>
<use data-text="y" xlink:href="#font_1_3" transform="matrix(9.9626,0,0,-9.963596,55.190004,6.210327)"/>
<path transform="matrix(1,0,0,-1.0001,57.811006,74.23713)" stroke-width=".3985" stroke-linecap="butt" stroke-miterlimit="10" stroke-linejoin="miter" fill="none" stroke="#000000" d="M-45.35507 1.99255V-1.99255"/>
<use data-text="&#x2212;" xlink:href="#font_2_1" transform="matrix(9.9626,0,0,-9.963596,2.2160035,86.171329)"/>
<use data-text="0" xlink:href="#font_3_1" transform="matrix(9.9626,0,0,-9.963596,9.964996,86.171329)"/>
<use data-text="." xlink:href="#font_1_1" transform="matrix(9.9626,0,0,-9.963596,14.945999,86.171329)"/>
<use data-text="8" xlink:href="#font_3_3" transform="matrix(9.9626,0,0,-9.963596,17.714005,86.171329)"/>
<path transform="matrix(1,0,0,-1.0001,57.811006,74.23713)" stroke-width=".3985" stroke-linecap="butt" stroke-miterlimit="10" stroke-linejoin="miter" fill="none" stroke="#000000" d="M-22.6771 1.99255V-1.99255"/>
<use data-text="&#x2212;" xlink:href="#font_2_1" transform="matrix(9.9626,0,0,-9.963596,24.894005,86.171329)"/>
<use data-text="0" xlink:href="#font_3_1" transform="matrix(9.9626,0,0,-9.963596,32.642999,86.171329)"/>
<use data-text="." xlink:href="#font_1_1" transform="matrix(9.9626,0,0,-9.963596,37.624,86.171329)"/>
<use data-text="4" xlink:href="#font_3_2" transform="matrix(9.9626,0,0,-9.963596,40.392007,86.171329)"/>
<path transform="matrix(1,0,0,-1.0001,57.811006,74.23713)" stroke-width=".3985" stroke-linecap="butt" stroke-miterlimit="10" stroke-linejoin="miter" fill="none" stroke="#000000" d="M22.6771 1.99255V-1.99255"/>
<use data-text="0" xlink:href="#font_3_1" transform="matrix(9.9626,0,0,-9.963596,74.123,86.171329)"/>
<use data-text="." xlink:href="#font_1_1" transform="matrix(9.9626,0,0,-9.963596,79.104007,86.171329)"/>
<use data-text="4" xlink:href="#font_3_2" transform="matrix(9.9626,0,0,-9.963596,81.87201,86.171329)"/>
<path transform="matrix(1,0,0,-1.0001,57.811006,74.23713)" stroke-width=".3985" stroke-linecap="butt" stroke-miterlimit="10" stroke-linejoin="miter" fill="none" stroke="#000000" d="M45.35507 1.99255V-1.99255"/>
<use data-text="0" xlink:href="#font_3_1" transform="matrix(9.9626,0,0,-9.963596,96.80101,86.171329)"/>
<use data-text="." xlink:href="#font_1_1" transform="matrix(9.9626,0,0,-9.963596,101.78201,86.171329)"/>
<use data-text="8" xlink:href="#font_3_3" transform="matrix(9.9626,0,0,-9.963596,104.55002,86.171329)"/>
<path transform="matrix(1,0,0,-1.0001,57.811006,74.23713)" stroke-width=".3985" stroke-linecap="butt" stroke-miterlimit="10" stroke-linejoin="miter" fill="none" stroke="#000000" d="M1.99255-45.35507H-1.99255"/>
<use data-text="&#x2212;" xlink:href="#font_2_1" transform="matrix(9.9626,0,0,-9.963596,31.820008,122.391948)"/>
<use data-text="0" xlink:href="#font_3_1" transform="matrix(9.9626,0,0,-9.963596,39.569,122.391948)"/>
<use data-text="." xlink:href="#font_1_1" transform="matrix(9.9626,0,0,-9.963596,44.550004,122.391948)"/>
<use data-text="8" xlink:href="#font_3_3" transform="matrix(9.9626,0,0,-9.963596,47.31801,122.391948)"/>
<path transform="matrix(1,0,0,-1.0001,57.811006,74.23713)" stroke-width=".3985" stroke-linecap="butt" stroke-miterlimit="10" stroke-linejoin="miter" fill="none" stroke="#000000" d="M1.99255-22.6771H-1.99255"/>
<use data-text="&#x2212;" xlink:href="#font_2_1" transform="matrix(9.9626,0,0,-9.963596,31.820008,99.71168)"/>
<use data-text="0" xlink:href="#font_3_1" transform="matrix(9.9626,0,0,-9.963596,39.569,99.71168)"/>
<use data-text="." xlink:href="#font_1_1" transform="matrix(9.9626,0,0,-9.963596,44.550004,99.71168)"/>
<use data-text="4" xlink:href="#font_3_2" transform="matrix(9.9626,0,0,-9.963596,47.31801,99.71168)"/>
<path transform="matrix(1,0,0,-1.0001,57.811006,74.23713)" stroke-width=".3985" stroke-linecap="butt" stroke-miterlimit="10" stroke-linejoin="miter" fill="none" stroke="#000000" d="M1.99255 22.6771H-1.99255"/>
<use data-text="0" xlink:href="#font_3_1" transform="matrix(9.9626,0,0,-9.963596,39.56801,54.76818)"/>
<use data-text="." xlink:href="#font_1_1" transform="matrix(9.9626,0,0,-9.963596,44.54901,54.76818)"/>
<use data-text="4" xlink:href="#font_3_2" transform="matrix(9.9626,0,0,-9.963596,47.317018,54.76818)"/>
<path transform="matrix(1,0,0,-1.0001,57.811006,74.23713)" stroke-width=".3985" stroke-linecap="butt" stroke-miterlimit="10" stroke-linejoin="miter" fill="none" stroke="#000000" d="M1.99255 45.35507H-1.99255"/>
<use data-text="0" xlink:href="#font_3_1" transform="matrix(9.9626,0,0,-9.963596,39.56801,32.087915)"/>
<use data-text="." xlink:href="#font_1_1" transform="matrix(9.9626,0,0,-9.963596,44.54901,32.087915)"/>
<use data-text="8" xlink:href="#font_3_3" transform="matrix(9.9626,0,0,-9.963596,47.317018,32.087915)"/>
</svg>
