<svg xmlns="http://www.w3.org/2000/svg" xmlns:xlink="http://www.w3.org/1999/xlink" version="1.1" width="354" height="82" viewBox="0 0 354 82">
<defs>
<path id="font_1_2" d="M.1269989 .07699585 .23298645 .18003845C.3889923 .31811524 .44898988 .3721466 .44898988 .47216798 .44898988 .5860901 .35899354 .6660156 .23699951 .6660156 .12399292 .6660156 .049987794 .57411196 .049987794 .48516847 .049987794 .4291687 .099990848 .4291687 .102996829 .4291687 .11999512 .4291687 .15499878 .44117738 .15499878 .48217774 .15499878 .5081787 .13699341 .5341797 .101989749 .5341797 .09399414 .5341797 .09199524 .5341797 .08898926 .5331726 .11199951 .59806826 .1659851 .63500979 .22399903 .63500979 .31498719 .63500979 .35798646 .5541382 .35798646 .47216798 .35798646 .39215089 .30799867 .31311036 .25299073 .25108338L.06098938 .036987306C.049987794 .025985718 .049987794 .023986817 .049987794 0H.42099L.44898988 .17404175H.42399598C.4189911 .14402771 .4119873 .1000061 .4019928 .084991458 .394989 .07699585 .32899476 .07699585 .30699159 .07699585H.1269989Z"/>
<path id="font_1_5" d="M.16299439 .4569702C.116989139 .486969 .11299133 .52098086 .11299133 .5379791 .11299133 .598999 .17799378 .64100649 .24899292 .64100649 .32199098 .64100649 .38598634 .58898928 .38598634 .51698306 .38598634 .45996095 .34700013 .4119568 .2869873 .37695313L.16299439 .4569702M.30899049 .36193849C.3809967 .3989563 .42999269 .45095826 .42999269 .51698306 .42999269 .6090088 .34098817 .6660156 .25 .6660156 .1499939 .6660156 .068984989 .59199526 .068984989 .49897767 .068984989 .4809723 .070999149 .43595887 .11299133 .38894654 .12399292 .37695313 .16099549 .35194398 .18598938 .33494569 .12799073 .30592347 .041992189 .24984741 .041992189 .15072632 .041992189 .04458618 .14399719-.022460938 .24899292-.022460938 .3619995-.022460938 .45700074 .06060791 .45700074 .16773987 .45700074 .20379639 .44599916 .24885559 .4079895 .2909088 .3889923 .31193543 .37298585 .3219452 .30899049 .36193849M.20899964 .3199463 .33198548 .24183655C.3600006 .2228241 .40699769 .19277954 .40699769 .13169861 .40699769 .05760193 .33198548 .0055389406 .25 .0055389406 .1639862 .0055389406 .09199524 .067611698 .09199524 .15072632 .09199524 .20880127 .12399292 .27288819 .20899964 .3199463Z"/>
<path id="font_2_1" d="M.5069885 .24998474C.5069885 .3710022 .4099884 .4650116 .2919922 .4650116 .17199707 .4650116 .07699585 .36799623 .07699585 .25097657 .07699585 .1299591 .17399597 .035949708 .2919922 .035949708 .4119873 .035949708 .5069885 .13296509 .5069885 .24998474M.2919922 .08496094C.19799805 .08496094 .12599182 .16096497 .12599182 .24998474 .12599182 .34300233 .19999695 .41601563 .2919922 .41601563 .38598634 .41601563 .45799256 .33999635 .45799256 .25097657 .45799256 .15795899 .38398744 .08496094 .2919922 .08496094Z"/>
<path id="font_3_1" d="M.1789856 .114868167C.13899231 .047973634 .099990848 .033981325 .055999757 .0309906 .04399109 .02999878 .034988405 .02999878 .034988405 .010986328 .034988405 .004989624 .039993287 0 .04798889 0 .07499695 0 .10598755 .0029907227 .13398743 .0029907227 .16699219 .0029907227 .20199585 0 .23399353 0 .23999024 0 .25299073 0 .25299073 .018997193 .25299073 .02999878 .24398804 .0309906 .23699951 .0309906 .21398926 .032989503 .18998719 .04096985 .18998719 .06593323 .18998719 .077926639 .19599915 .088897708 .20399475 .102890018L.27999879 .23068238H.5309906C.5329895 .2097168 .5469971 .07392883 .5469971 .063949588 .5469971 .033981325 .49499513 .0309906 .47499085 .0309906 .46099855 .0309906 .45098878 .0309906 .45098878 .010986328 .45098878 0 .46299745 0 .46499635 0 .5059967 0 .548996 .0029907227 .58999636 .0029907227 .61499026 .0029907227 .6779938 0 .7029877 0 .70899966 0 .72099307 0 .72099307 .019989014 .72099307 .0309906 .71099856 .0309906 .69799807 .0309906 .6359863 .0309906 .6359863 .037979127 .6329956 .06694031L.57199099 .691803C.56999209 .71180728 .56999209 .7158203 .5529938 .7158203 .5369873 .7158203 .5329895 .7088165 .5269928 .69880679L.1789856 .114868167M.29899598 .26168824 .49598695 .5917816 .5279999 .26168824H.29899598Z"/>
<path id="font_3_2" d="M.1599884 .07795715C.1499939 .038986207 .147995 .0309906 .068984989 .0309906 .051986696 .0309906 .041992189 .0309906 .041992189 .010986328 .041992189 0 .050994874 0 .068984989 0H.42599488C.58399966 0 .70199587 .11791992 .70199587 .21585083 .70199587 .28778077 .6439972 .3457489 .5469971 .35673524 .651001 .37573243 .7559967 .44970704 .7559967 .5446625 .7559967 .6186218 .6899872 .6826172 .56999209 .6826172H.23399353C.21499634 .6826172 .20498657 .6826172 .20498657 .6626129 .20498657 .6516113 .21398926 .6516113 .23298645 .6516113 .23498535 .6516113 .2539978 .6516113 .2709961 .6496124 .2889862 .6476135 .2979889 .64660647 .2979889 .6336212 .2979889 .6296234 .29699708 .62661746 .2939911 .614624L.1599884 .07795715M.31098939 .36573792 .37298585 .6136322C.38198854 .64860537 .38398744 .6516113 .4269867 .6516113H.55599978C.6439972 .6516113 .6649933 .5926361 .6649933 .5486603 .6649933 .46069337 .57899478 .36573792 .45700074 .36573792H.31098939M.2659912 .0309906C.2519989 .0309906 .25 .0309906 .24398804 .03199768 .23399353 .032989503 .23098755 .033996583 .23098755 .04197693 .23098755 .04498291 .23098755 .04698181 .23599243 .064971927L.30499269 .34375H.49398805C.58999636 .34375 .60899356 .2698059 .60899356 .22683716 .60899356 .12791443 .519989 .0309906 .4019928 .0309906H.2659912Z"/>
<path id="font_3_3" d="M.7599945 .69506838C.7599945 .69807437 .7579956 .7050781 .7489929 .7050781 .74598696 .7050781 .7449951 .70407107 .73399356 .69306948L.6639862 .61602786C.6549988 .6300354 .60899356 .7050781 .49798585 .7050781 .2749939 .7050781 .049987794 .48391725 .049987794 .25172425 .049987794 .08659363 .16799927-.022460938 .32099916-.022460938 .4079895-.022460938 .48399354 .017532349 .5369873 .063583377 .6299896 .14564514 .6469879 .2367096 .6469879 .23971558 .6469879 .24972534 .6369934 .24972534 .6349945 .24972534 .6289978 .24972534 .6239929 .24772644 .621994 .23971558 .61299136 .21069336 .58999636 .13963318 .5209961 .081588748 .45199586 .025543213 .3889923 .008529663 .33699037 .008529663 .24699402 .008529663 .14099121 .060577394 .14099121 .21670532 .14099121 .27374269 .1619873 .43588258 .2619934 .55296328 .32299806 .62402346 .4169922 .67407229 .5059967 .67407229 .60798647 .67407229 .6669922 .5970001 .6669922 .48091126 .6669922 .44088746 .6639862 .43988038 .6639862 .4298706 .6639862 .41986085 .6749878 .41986085 .67900088 .41986085 .69200137 .41986085 .69200137 .42185975 .69699099 .43988038L.7599945 .69506838Z"/>
<path id="font_1_3" d="M.44898988 .20022583C.44898988 .3193512 .36698915 .41944886 .25898744 .41944886 .21099854 .41944886 .16799927 .40345765 .13198853 .36842347V.5637665C.1519928 .5577698 .18499756 .55078127 .21699524 .55078127 .33999635 .55078127 .4099884 .6417694 .4099884 .6547699 .4099884 .6607666 .40699769 .6657715 .3999939 .6657715 .39898683 .6657715 .39698792 .6657715 .3919983 .66278079 .37199403 .6537781 .32299806 .6337738 .2559967 .6337738 .21598816 .6337738 .16999817 .6407776 .12298584 .6617737 .114990238 .66477969 .11299133 .66477969 .11099243 .66477969 .100997928 .66477969 .100997928 .6567688 .100997928 .6407776V.34439088C.100997928 .32637025 .100997928 .31835938 .114990238 .31835938 .12199402 .31835938 .12399292 .32136537 .12799073 .32736207 .13899231 .3433838 .17599488 .39746095 .25698854 .39746095 .30899049 .39746095 .33399964 .35139466 .34199525 .33337403 .35798646 .29632569 .3600006 .25727845 .3600006 .20722962 .3600006 .17222595 .3600006 .11222839 .33599855 .07035828 .31199647 .031463624 .2749939 .0055389406 .22898865 .0055389406 .1559906 .0055389406 .09899902 .058380128 .08198547 .11723328 .084991458 .1162262 .08799744 .115234378 .09899902 .115234378 .13198853 .115234378 .14898682 .14022827 .14898682 .16423035 .14898682 .18823242 .13198853 .21322632 .09899902 .21322632 .084991458 .21322632 .049987794 .20622254 .049987794 .16023255 .049987794 .07434082 .11898804-.022460938 .23098755-.022460938 .34700013-.022460938 .44898988 .073349 .44898988 .20022583Z"/>
<path id="font_1_4" d="M.47599793 .609375C.4850006 .6213684 .4850006 .62338259 .4850006 .64437869H.24198914C.11999512 .64437869 .117996219 .65737918 .11399841 .67637637H.08898926L.055999757 .4702301H.08099365C.083999637 .48625184 .09298706 .5493469 .10598755 .56137087 .11299133 .5673828 .19099427 .5673828 .20399475 .5673828H.41099549C.3999939 .5513611 .32099916 .4421997 .29899598 .40914918 .20899964 .27394105 .17599488 .1347351 .17599488 .032577516 .17599488 .022567749 .17599488-.022460938 .22200012-.022460938 .2679901-.022460938 .2679901 .022567749 .2679901 .032577516V.08366394C.2679901 .13873291 .2709961 .19381714 .2789917 .24790955 .2829895 .27093507 .29699708 .35707093 .34098817 .41915895L.47599793 .609375Z"/>
<path id="font_4_104" d="M.68499758 .45214845 .66600039 .6767578H.054992677L.035995485 .45214845H.06098938C.07499695 .6128235 .08999634 .64575198 .24099732 .64575198 .25898744 .64575198 .2849884 .64575198 .29499818 .64375308 .31599427 .6397705 .31599427 .6287842 .31599427 .60583499V.07901001C.31599427 .04499817 .31599427 .0309906 .21099854 .0309906H.17098999V0C.21199036 .0029907227 .31399537 .0029907227 .3600006 .0029907227 .4059906 .0029907227 .5089874 .0029907227 .5499878 0V.0309906H.5099945C.40499879 .0309906 .40499879 .04499817 .40499879 .07901001V.60583499C.40499879 .62579348 .40499879 .6397705 .4229889 .64375308 .43399049 .64575198 .46099855 .64575198 .47999574 .64575198 .6309967 .64575198 .6459961 .6128235 .6599884 .45214845H.68499758Z"/>
<path id="font_4_114" d="M.7029877 .3996582V.43066407C.68099978 .4286499 .6519928 .42765809 .6299896 .42765809L.5369873 .43066407V.3996582C.57299807 .39866639 .59498599 .38075257 .59498599 .35176087 .59498599 .34576417 .59498599 .34376527 .58999636 .33078004L.49899293 .07513428 .3999939 .35375978C.3959961 .36575318 .394989 .36775209 .394989 .37275697 .394989 .3996582 .43399049 .3996582 .45399476 .3996582V.43066407L.34999085 .42765809C.31999208 .42765809 .29100038 .4286499 .26098634 .43066407V.3996582C.2979889 .3996582 .31399537 .39767457 .32398988 .38476563 .32899476 .37875367 .33999635 .34877015 .34700013 .3297882L.26098634 .08811951 .1659851 .3547516C.16099549 .36676026 .16099549 .36875917 .16099549 .37275697 .16099549 .3996582 .19999695 .3996582 .21998596 .3996582V.43066407L.11099243 .42765809 .017990113 .43066407V.3996582C.067993167 .3996582 .07998657 .39668275 .09199524 .36476136L.21798706 .01121521C.22299195-.0027618409 .22599793-.0107421879 .23899842-.0107421879 .2519989-.0107421879 .2539978-.004760742 .25898744 .009216309L.3600006 .2918396 .46199037 .008224487C.46598817-.0027618409 .46899415-.0107421879 .48199464-.0107421879 .49499513-.0107421879 .49798585-.0017547608 .5019989 .008224487L.61898806 .3357849C.6369934 .38575746 .66799929 .39866639 .7029877 .3996582Z"/>
<path id="font_4_81" d="M.47099305 .21424866C.47099305 .34223939 .37098695 .4482422 .25 .4482422 .125 .4482422 .027999878 .3392334 .027999878 .21424866 .027999878 .085250858 .13198853-.0107421879 .24899292-.0107421879 .36999513-.0107421879 .47099305 .087249759 .47099305 .21424866M.3880005 .22224427C.3880005 .18624878 .3880005 .13224793 .3659973 .08824158 .34399415 .04324341 .2999878 .014251709 .25 .014251709 .20698548 .014251709 .16299439 .035247804 .13598633 .08125305 .11099243 .12524414 .11099243 .18624878 .11099243 .22224427 .11099243 .26124574 .11099243 .31523133 .1349945 .35923768 .1619873 .40522767 .20899964 .426239 .24899292 .426239 .29299928 .426239 .33599855 .40423585 .3619995 .36123658 .3880005 .3182373 .3880005 .26023866 .3880005 .22224427Z"/>
<path id="font_4_98" d="M.3600006 .12823487C.3600006 .18122864 .32998658 .21122742 .31799317 .22323609 .2849884 .25523377 .24598694 .26322938 .20399475 .27124024 .147995 .28224183 .08099365 .29522706 .08099365 .35324098 .08099365 .38822938 .10699463 .42922975 .19299317 .42922975 .30299378 .42922975 .30799867 .3392334 .30999757 .30822755 .31098939 .2992401 .32199098 .2992401 .32199098 .2992401 .33499146 .2992401 .33499146 .30422975 .33499146 .32322694V.4242401C.33499146 .4412384 .33499146 .4482422 .32398988 .4482422 .31900025 .4482422 .31698609 .4482422 .3039856 .43623353 .30099488 .43223573 .29100038 .42323304 .2869873 .42022706 .24899292 .4482422 .20799256 .4482422 .19299317 .4482422 .070999149 .4482422 .032989503 .38124085 .032989503 .3252411 .032989503 .29023744 .04899597 .26223756 .07598877 .24023438 .10798645 .2142334 .13598633 .2082367 .20799256 .19422913 .22999573 .19021607 .31199647 .17422486 .31199647 .10221863 .31199647 .051223756 .2769928 .011245728 .19898987 .011245728 .114990238 .011245728 .07899475 .068222049 .05999756 .1532135 .056991579 .16621399 .055999757 .17021179 .04598999 .17021179 .032989503 .17021179 .032989503 .16322327 .032989503 .1452179V.013214111C.032989503-.003753662 .032989503-.0107421879 .04399109-.0107421879 .04899597-.0107421879 .049987794-.009750366 .068984989 .009246826 .070999149 .011245728 .070999149 .013214111 .08898926 .032226564 .1329956-.009750366 .17799378-.0107421879 .19898987-.0107421879 .31399537-.0107421879 .3600006 .05621338 .3600006 .1282196V.12823487Z"/>
<path id="font_4_66" d="M.24699402 0V.0309906C.18099976 .0309906 .1769867 .035995485 .1769867 .075042728V.4423828L.036987306 .43066407V.3996582C.101989749 .3996582 .11099243 .3936615 .11099243 .3447113V.07595825C.11099243 .0309906 .099990848 .0309906 .032989503 .0309906V0L.14299011 .0029907227C.17799378 .0029907227 .21299744 .0009918213 .24699402 0M.19198609 .603775C.19198609 .6307678 .16899109 .6567688 .13899231 .6567688 .10499573 .6567688 .084991458 .6287689 .084991458 .603775 .084991458 .57676699 .10798645 .55078127 .13798523 .55078127 .17199707 .55078127 .19198609 .5787811 .19198609 .603775Z"/>
<path id="font_4_47" d="M.5269928 0V.0309906C.45700074 .0309906 .44898988 .038009645 .44898988 .0871582V.69433596L.30499269 .6826172V.6516113C.375 .6516113 .3829956 .64463809 .3829956 .59580996V.38035584C.35398866 .41636659 .31098939 .4423828 .25698854 .4423828 .13899231 .4423828 .033996583 .3443451 .033996583 .21531677 .033996583 .088272098 .13198853-.0107421879 .24598694-.0107421879 .30999757-.0107421879 .35499574 .023254395 .37998963 .055267335V-.0107421879L.5269928 0M.37998963 .117996219C.37998963 .099990848 .37998963 .09799194 .36898805 .08099365 .33898927 .033218385 .2939911 .011245728 .25099183 .011245728 .20599365 .011245728 .16999817 .037216188 .1459961 .075164798 .11999512 .1161499 .116989139 .17320252 .116989139 .21421814 .116989139 .25125123 .11898804 .31129457 .147995 .35632325 .16899109 .38734437 .20698548 .42037965 .26098634 .42037965 .29599 .42037965 .33799745 .405365 .36898805 .3603363 .37998963 .34332276 .37998963 .34132386 .37998963 .32330323V.117996219Z"/>
<path id="font_4_50" d="M.4149933 .11933899C.4149933 .12934876 .40699769 .13134766 .4019928 .13134766 .3929901 .13134766 .3909912 .12535095 .3889923 .11734009 .35398866 .014251709 .2639923 .014251709 .2539978 .014251709 .20399475 .014251709 .1639862 .044281007 .14099121 .08131409 .11099243 .12934876 .11099243 .19540406 .11099243 .23144531H.3899994C.4119873 .23144531 .4149933 .23144531 .4149933 .2524414 .4149933 .35131837 .36099244 .4482422 .23599243 .4482422 .11999512 .4482422 .027999878 .34532167 .027999878 .22042847 .027999878 .08631897 .1329956-.0107421879 .24798584-.0107421879 .36999513-.0107421879 .4149933 .10032654 .4149933 .11933899M.34899903 .2524414H.11199951C.117996219 .40126039 .20199585 .426239 .23599243 .426239 .33898927 .426239 .34899903 .2913971 .34899903 .2524414Z"/>
<path id="font_4_28" d="M.48298646 .08912659V.14511109H.45799256V.08912659C.45799256 .03112793 .43299867 .025131226 .42199708 .025131226 .3889923 .025131226 .3849945 .070129398 .3849945 .07511902V.27508546C.3849945 .31707765 .3849945 .3560791 .34899903 .39312745 .30999757 .43223573 .2599945 .4482422 .21199036 .4482422 .12998963 .4482422 .06098938 .40115357 .06098938 .335083 .06098938 .30508424 .08099365 .28808595 .10699463 .28808595 .1349945 .28808595 .15299988 .30807496 .15299988 .33407594 .15299988 .3460846 .147995 .37908937 .101989749 .38008119 .1289978 .41519166 .17799378 .426239 .20999146 .426239 .25898744 .426239 .31599427 .38710023 .31599427 .29808045V.26107789C.2649994 .25808717 .19499207 .25508119 .13198853 .22509766 .056991579 .19110108 .03199768 .13911438 .03199768 .09512329 .03199768 .014251709 .1289978-.0107421879 .19198609-.0107421879 .2579956-.0107421879 .3039856 .029251099 .32299806 .07624817 .32699586 .036132814 .35398866-.005859375 .40098573-.005859375 .42199708-.005859375 .48298646 .008132935 .48298646 .08912659M.31599427 .14013672C.31599427 .04525757 .24398804 .011245728 .19898987 .011245728 .1499939 .011245728 .10899353 .04624939 .10899353 .09625244 .10899353 .15124512 .15098572 .23425293 .31599427 .24024964V.14013672Z"/>
<path id="font_4_77" d="M.5349884 0V.0309906C.48298646 .0309906 .45799256 .0309906 .45700074 .061019899V.25221253C.45700074 .3383026 .45700074 .36932374 .42599488 .405365 .4119873 .42237855 .3789978 .4423828 .32099916 .4423828 .24798584 .4423828 .20098877 .39935304 .17298889 .33729554V.4423828L.03199768 .43066407V.3996582C.101989749 .3996582 .10998535 .39266969 .10998535 .34370423V.07595825C.10998535 .0309906 .09899902 .0309906 .03199768 .0309906V0L.14498902 .0029907227 .25698854 0V.0309906C.18998719 .0309906 .1789856 .0309906 .1789856 .07595825V.25978089C.1789856 .36431886 .25 .42037965 .31399537 .42037965 .3769989 .42037965 .3880005 .36631776 .3880005 .30926515V.076034549C.3880005 .0309906 .3769989 .0309906 .30999757 .0309906V0L.4229889 .0029907227 .5349884 0Z"/>
<path id="font_4_59" d="M.4850006 .40411378C.4850006 .42111207 .47299195 .453125 .43399049 .453125 .4139862 .453125 .36999513 .44711305 .32798768 .40611268 .28599549 .43937684 .24398804 .4423828 .22200012 .4423828 .1289978 .4423828 .05999756 .37338258 .05999756 .29638673 .05999756 .25239564 .08198547 .21440125 .10699463 .19340515 .09399414 .17840576 .07598877 .14538574 .07598877 .11035156 .07598877 .07899475 .08898926 .04083252 .11999512 .020828248 .05999756 .003829956 .027999878-.039138795 .027999878-.07911682 .027999878-.15107727 .1269989-.20605469 .24899292-.20605469 .36698915-.20605469 .47099305-.15507508 .47099305-.07711792 .47099305-.042144777 .45700074 .008834839 .4059906 .036834718 .35299684 .064834598 .29499818 .064834598 .23399353 .064834598 .20899964 .064834598 .1659851 .064834598 .15899658 .065841678 .1269989 .069885257 .10598755 .101242069 .10598755 .13334656 .10598755 .13735962 .10598755 .16040039 .12298584 .18040467 .1619873 .15240479 .20298767 .14941406 .22200012 .14941406 .31498719 .14941406 .38398744 .21839905 .38398744 .2953949 .38398744 .3323822 .36799623 .36938478 .34298707 .39237977 .3789978 .42637635 .4149933 .43138124 .43299867 .43138124 .43299867 .43112184 .43998719 .43112184 .44299317 .43011476 .43199159 .42611695 .4269867 .41513063 .4269867 .40315248 .4269867 .38616944 .43998719 .37417604 .45599366 .37417604 .46598817 .37417604 .4850006 .3811798 .4850006 .4041443V.40411378M.30899049 .29626466C.30899049 .26930238 .30799867 .2373352 .29299928 .21235657 .2849884 .20037842 .2619934 .17240906 .22200012 .17240906 .1349945 .17240906 .1349945 .2722931 .1349945 .29527284 .1349945 .3222351 .13598633 .35420228 .15098572 .3791809 .15899658 .3913269 .18199158 .41937257 .22200012 .41937257 .30899049 .41937257 .30899049 .31922914 .30899049 .29618836V.29626466M.4189911-.07911682C.4189911-.13308716 .34799195-.18305969 .25-.18305969 .14898682-.18305969 .07998657-.13209534 .07998657-.07911682 .07998657-.03314209 .117996219 .003829956 .1619873 .0068359377H.22099304C.30699159 .0068359377 .4189911 .0068359377 .4189911-.07911682Z"/>
<path id="font_4_72" d="M.25498963 0V.0309906C.18798828 .0309906 .1769867 .0309906 .1769867 .07601929V.69433596L.032989503 .6826172V.6516113C.102996829 .6516113 .11099243 .64460757 .11099243 .5956421V.07595825C.11099243 .0309906 .099990848 .0309906 .032989503 .0309906V0L.14399719 .0029907227 .25498963 0Z"/>
<path id="font_4_84" d="M.5209961 .21636963C.5209961 .34336854 .42399598 .4423828 .31199647 .4423828 .23399353 .4423828 .19198609 .39837647 .17199707 .3763733V.4423828L.027999878 .43066407V.3996582C.09899902 .3996582 .10598755 .3936615 .10598755 .34973146V-.117996219C.10598755-.16308594 .09498596-.16308594 .027999878-.16308594V-.1940918L.13999939-.19110108 .25299073-.1940918V-.16308594C.18598938-.16308594 .1749878-.16308594 .1749878-.117996219V.050186159 .059173585C.17999268 .04319763 .22200012-.0107421879 .2979889-.0107421879 .4169922-.0107421879 .5209961 .087127689 .5209961 .21594239V.21636963M.43798829 .21594239C.43798829 .09512329 .36799623 .011245728 .2939911 .011245728 .2539978 .011245728 .21598816 .031219483 .18899536 .07215881 .1749878 .09312439 .1749878 .09411621 .1749878 .114089969V.33674623C.20399475 .38838197 .25299073 .41737367 .3039856 .41737367 .3769989 .41737367 .43798829 .32937623 .43798829 .21636963V.21594239Z"/>
<path id="font_4_105" d="M.33198548 .12385559V.18066406H.30699159V.12585449C.30699159 .052108766 .2769928 .014251709 .23999024 .014251709 .17298889 .014251709 .17298889 .10491943 .17298889 .12187195V.3996582H.31599427V.43066407H.17298889V.6142578H.147995C.14698792 .5324249 .116989139 .42565919 .018997193 .42166139V.3996582H.10398865V.12408447C.10398865 .0012512207 .19699097-.0107421879 .23298645-.0107421879 .3039856-.0107421879 .33198548 .060180665 .33198548 .12408447V.12385559Z"/>
<path id="font_4_55" d="M.35699464 .63479617C.35699464 .6717987 .31999208 .7050781 .2669983 .7050781 .19699097 .7050781 .11199951 .65179446 .11199951 .5457611V.43066407H.032989503V.3996582H.11199951V.07595825C.11199951 .0309906 .100997928 .0309906 .033996583 .0309906V0L.147995 .0029907227C.18798828 .0029907227 .23498535 .0029907227 .2749939 0V.0309906H.2539978C.17999268 .0309906 .17799378 .04197693 .17799378 .07795715V.3996582H.2919922V.43066407H.1749878V.5467529C.1749878 .63479617 .22299195 .68307498 .2669983 .68307498 .269989 .68307498 .2849884 .68307498 .2999878 .675827 .28799439 .6717987 .269989 .6587982 .269989 .6338043 .269989 .61079409 .28599549 .5907898 .31298829 .5907898 .34199525 .5907898 .35699464 .61079409 .35699464 .63479617Z"/>
<path id="font_4_63" d="M.5349884 0V.0309906C.48298646 .0309906 .45799256 .0309906 .45700074 .061019899V.25221253C.45700074 .3383026 .45700074 .36932374 .42599488 .405365 .4119873 .42237855 .3789978 .4423828 .32099916 .4423828 .23699951 .4423828 .19299317 .38233949 .1769867 .34629823H.17599488V.69433596L.03199768 .6826172V.6516113C.101989749 .6516113 .10998535 .64463809 .10998535 .59580996V.076034549C.10998535 .0309906 .09899902 .0309906 .03199768 .0309906V0L.14498902 .0029907227 .25698854 0V.0309906C.18998719 .0309906 .1789856 .0309906 .1789856 .076034549V.2602234C.1789856 .36431886 .25 .42037965 .31399537 .42037965 .3769989 .42037965 .3880005 .36631776 .3880005 .30926515V.076034549C.3880005 .0309906 .3769989 .0309906 .30999757 .0309906V0L.4229889 .0029907227 .5349884 0Z"/>
<path id="font_4_75" d="M.8129883 0V.0309906C.7609863 .0309906 .73599246 .0309906 .7350006 .061019899V.25221253C.7350006 .3383026 .7350006 .36932374 .70399478 .405365 .6899872 .42237855 .6569977 .4423828 .598999 .4423828 .5149994 .4423828 .47099305 .38233949 .45399476 .34429933 .43998719 .43138124 .3659973 .4423828 .32099916 .4423828 .24798584 .4423828 .20098877 .39935304 .17298889 .33729554V.4423828L.03199768 .43066407V.3996582C.101989749 .3996582 .10998535 .39266969 .10998535 .34370423V.07595825C.10998535 .0309906 .09899902 .0309906 .03199768 .0309906V0L.14498902 .0029907227 .25698854 0V.0309906C.18998719 .0309906 .1789856 .0309906 .1789856 .07595825V.25978089C.1789856 .36431886 .25 .42037965 .31399537 .42037965 .3769989 .42037965 .3880005 .36631776 .3880005 .30926515V.076034549C.3880005 .0309906 .3769989 .0309906 .30999757 .0309906V0L.4229889 .0029907227 .5349884 0V.0309906C.46798707 .0309906 .45700074 .0309906 .45700074 .076034549V.2602234C.45700074 .36431886 .5279999 .42037965 .59199526 .42037965 .6549988 .42037965 .66600039 .36631776 .66600039 .30926515V.076034549C.66600039 .0309906 .6549988 .0309906 .58799746 .0309906V0L.70098879 .0029907227 .8129883 0Z"/>
<path id="font_4_88" d="M.19198609 .052993776C.19198609 .08198547 .16799927 .10598755 .13899231 .10598755 .10998535 .10598755 .085998538 .08198547 .085998538 .052993776 .085998538 .023986817 .10998535 0 .13899231 0 .16799927 0 .19198609 .023986817 .19198609 .052993776Z"/>
<path id="font_4_113" d="M1.0089874 .6516113V.6826172C.97898867 .680603 .94799807 .6796112 .91799929 .6796112L.798996 .6826172V.6516113C.8659973 .65060427 .8860016 .6174164 .8860016 .5983734 .8860016 .59236147 .8829956 .58436587 .8809967 .57836917L.73098757 .116363529 .57099917 .606369C.56999209 .6103668 .56799319 .6164093 .56799319 .62142947 .56799319 .6516113 .6259918 .6516113 .6519928 .6516113V.6826172C.6159973 .6796112 .5479889 .6796112 .5099945 .6796112L.3880005 .6826172V.6516113C.44499208 .6516113 .46598817 .6516113 .47799684 .61595156L.5 .5459595 .36099244 .11695862 .19999695 .60894778C.19898987 .61195376 .19799805 .618927 .19799805 .62190249 .19799805 .6516113 .2559967 .6516113 .28199769 .6516113V.6826172C.24598694 .6796112 .17799378 .6796112 .13999939 .6796112L.017990113 .6826172V.6516113C.09298706 .6513672 .09700012 .6463623 .10899353 .609375L.30899049-.003479004C.31199647-.012466431 .31498719-.022460938 .32798768-.022460938 .34199525-.022460938 .34399415-.015472412 .34799195-.0024719239L.5130005 .50538638 .67900088-.003479004C.6819916-.012466431 .68499758-.022460938 .69799807-.022460938 .71199038-.022460938 .71398928-.015472412 .71798709-.0024719239L.9089966 .58496096C.9269867 .6417084 .9700012 .6516113 1.0089874 .6516113Z"/>
<path id="font_4_43" d="M.4149933 .119140628C.4149933 .12911988 .40499879 .12911988 .4019928 .12911988 .3929901 .12911988 .3909912 .12512207 .3889923 .119140628 .3600006 .026229859 .29499818 .014251709 .2579956 .014251709 .20498657 .014251709 .116989139 .0572052 .116989139 .21801758 .116989139 .38093568 .19898987 .42323304 .2519989 .42323304 .26098634 .42323304 .32398988 .42222596 .35899354 .38594056 .31799317 .38293458 .31199647 .3529358 .31199647 .3399353 .31199647 .31393434 .32998658 .2939453 .35798646 .2939453 .38398744 .2939453 .4039917 .3109436 .4039917 .34094239 .4039917 .40911866 .32798768 .4482422 .25099183 .4482422 .12599182 .4482422 .033996583 .3399353 .033996583 .21601868 .033996583 .08816528 .1329956-.0107421879 .24899292-.0107421879 .3829956-.0107421879 .4149933 .10914612 .4149933 .119140628Z"/>
<path id="font_4_109" d="M.5349884 0V.0309906C.46499635 .0309906 .45700074 .037994386 .45700074 .08705139V.4423828L.30999757 .43066407V.3996582C.37998963 .3996582 .3880005 .39266969 .3880005 .34373475V.16601563C.3880005 .07910156 .33999635 .011245728 .2669983 .011245728 .18299866 .011245728 .1789856 .058135988 .1789856 .11009216V.4423828L.03199768 .43066407V.3996582C.10998535 .3996582 .10998535 .39666749 .10998535 .3078003V.15802002C.10998535 .080093387 .10998535-.0107421879 .2619934-.0107421879 .31799317-.0107421879 .3619995 .017242432 .3909912 .07910156V-.0107421879L.5349884 0Z"/>
<path id="font_4_71" d="M.58200076 .2578125H.5569916C.54599 .15588379 .5319977 .0309906 .35598756 .0309906H.27398683C.22698975 .03060913 .22499085 .037612916 .22499085 .07060242V.6036072C.22499085 .63760378 .22499085 .6516113 .31999208 .6516113H.35299684V.6826172C.31698609 .6796112 .22599793 .6796112 .18499756 .6796112 .1459961 .6796112 .067993167 .6796112 .032989503 .6826172V.6516113H.056991579C.13398743 .6518097 .13598633 .6408081 .13598633 .6048126V.07795715C.13598633 .04197693 .13398743 .0309906 .056991579 .0309906H.032989503V0H.55400088L.58200076 .2578125Z"/>
<path id="font_4_97" d="M.49899293 .18579102C.49899293 .2858429 .43299867 .36791993 .34899903 .38793946L.22099304 .4189453C.15899658 .43388368 .11999512 .48773194 .11999512 .5458069 .11999512 .61595156 .17399597 .677063 .2519989 .677063 .4189911 .677063 .44099427 .5127411 .44699098 .46777345 .44799806 .461792 .44799806 .45581056 .45899964 .45581056 .47200013 .45581056 .47200013 .46080018 .47200013 .47973634V.68107607C.47200013 .69807437 .47200013 .7050781 .46099855 .7050781 .45399476 .7050781 .45298768 .70407107 .44599916 .69207766L.41099549 .63497927C.3809967 .66404727 .33999635 .7050781 .25099183 .7050781 .13999939 .7050781 .055999757 .61694338 .055999757 .5107422 .055999757 .42790223 .10899353 .35490418 .18699646 .32788087 .19799805 .32388307 .24899292 .3118744 .31900025 .29486085 .34599305 .28785707 .37599183 .280838 .4039917 .24382019 .4249878 .2177887 .43499757 .18478394 .43499757 .1517334 .43499757 .0806427 .3849945 .008529663 .30099488 .008529663 .27198792 .008529663 .19599915 .013534546 .14299011 .06260681 .084991458 .11668396 .08198547 .18078614 .08099365 .21679688 .07998657 .22679138 .07199097 .22679138 .068984989 .22679138 .055999757 .22679138 .055999757 .2197876 .055999757 .20178223V.0015258789C.055999757-.015472412 .055999757-.022460938 .066986087-.022460938 .07398987-.022460938 .07499695-.020462037 .08198547-.009475708 .08198547-.009475708 .084991458-.0054626467 .117996219 .047592164 .14898682 .013534546 .21299744-.022460938 .3019867-.022460938 .4189911-.022460938 .49899293 .07562256 .49899293 .18579102Z"/>
<path id="font_1_1" d="M.2939911 .64004519C.2939911 .66400149 .2939911 .6660156 .2709961 .6660156 .20899964 .60227969 .12098694 .60227969 .08898926 .60227969V.57128909C.10899353 .57128909 .16799927 .57128909 .21998596 .5972748V.07902527C.21998596 .042999269 .21699524 .0309906 .1269989 .0309906H.09498596V0C.12998963 .0029907227 .21699524 .0029907227 .25698854 .0029907227 .29699708 .0029907227 .38398744 .0029907227 .4189911 0V.0309906H.3869934C.29699708 .0309906 .2939911 .041992189 .2939911 .07902527V.64004519Z"/>
</defs>
<path transform="matrix(1,0,0,-1.00008,18.224999,47.536844)" stroke-width=".79701" stroke-linecap="butt" stroke-miterlimit="10" stroke-linejoin="miter" fill="none" stroke="#ff0000" d="M22.67752 0C22.67752 3.71185 21.76537 7.36908 20.0231 10.64633"/>
<use data-text="2" xlink:href="#font_1_2" transform="matrix(9.9626,0,0,-9.963397,43.947999,43.488519)" fill="#ff0000"/>
<use data-text="8" xlink:href="#font_1_5" transform="matrix(9.9626,0,0,-9.963397,48.9293,43.488519)" fill="#ff0000"/>
<use data-text="&#x25e6;" xlink:href="#font_2_1" transform="matrix(6.9738,0,0,-6.974358,53.909997,39.87323)" fill="#ff0000"/>
<path transform="matrix(1,0,0,-1.00008,18.224999,47.536844)" d="M.15938 0C.15938 .08801 .08801 .15938 0 .15938-.08801 .15938-.15938 .08801-.15938 0-.15938-.08801-.08801-.15938 0-.15938 .08801-.15938 .15938-.08801 .15938 0ZM0 0"/>
<path transform="matrix(1,0,0,-1.00008,18.224999,47.536844)" stroke-width=".3985" stroke-linecap="butt" stroke-miterlimit="10" stroke-linejoin="miter" fill="none" stroke="#000000" d="M.15938 0C.15938 .08801 .08801 .15938 0 .15938-.08801 .15938-.15938 .08801-.15938 0-.15938-.08801-.08801-.15938 0-.15938 .08801-.15938 .15938-.08801 .15938 0ZM0 0"/>
<use data-text="A" xlink:href="#font_3_1" transform="matrix(9.9626,0,0,-9.963397,7.2330019,50.941118)"/>
<path transform="matrix(1,0,0,-1.00008,18.224999,47.536844)" d="M50.05249 26.53404C50.05249 26.62206 49.98112 26.69344 49.8931 26.69344 49.80508 26.69344 49.7337 26.62206 49.7337 26.53404 49.7337 26.44603 49.80508 26.37465 49.8931 26.37465 49.98112 26.37465 50.05249 26.44603 50.05249 26.53404ZM49.8931 26.53404"/>
<path transform="matrix(1,0,0,-1.00008,18.224999,47.536844)" stroke-width=".3985" stroke-linecap="butt" stroke-miterlimit="10" stroke-linejoin="miter" fill="none" stroke="#000000" d="M50.05249 26.53404C50.05249 26.62206 49.98112 26.69344 49.8931 26.69344 49.80508 26.69344 49.7337 26.62206 49.7337 26.53404 49.7337 26.44603 49.80508 26.37465 49.8931 26.37465 49.98112 26.37465 50.05249 26.44603 50.05249 26.53404ZM49.8931 26.53404"/>
<use data-text="B" xlink:href="#font_3_2" transform="matrix(9.9626,0,0,-9.963397,64.09,17.480439)"/>
<path transform="matrix(1,0,0,-1.00008,18.224999,47.536844)" d="M124.89236 0C124.89236 .08801 124.82098 .15938 124.73297 .15938 124.64494 .15938 124.57358 .08801 124.57358 0 124.57358-.08801 124.64494-.15938 124.73297-.15938 124.82098-.15938 124.89236-.08801 124.89236 0ZM124.73297 0"/>
<path transform="matrix(1,0,0,-1.00008,18.224999,47.536844)" stroke-width=".3985" stroke-linecap="butt" stroke-miterlimit="10" stroke-linejoin="miter" fill="none" stroke="#000000" d="M124.89236 0C124.89236 .08801 124.82098 .15938 124.73297 .15938 124.64494 .15938 124.57358 .08801 124.57358 0 124.57358-.08801 124.64494-.15938 124.73297-.15938 124.82098-.15938 124.89236-.08801 124.89236 0ZM124.73297 0"/>
<use data-text="C" xlink:href="#font_3_3" transform="matrix(9.9626,0,0,-9.963397,146.478,50.941118)"/>
<path transform="matrix(1,0,0,-1.00008,18.224999,47.536844)" stroke-width=".79701" stroke-linecap="butt" stroke-miterlimit="10" stroke-linejoin="miter" fill="none" stroke="#000000" d="M49.8931 26.53404 0 0"/>
<use data-text="5" xlink:href="#font_1_3" transform="matrix(9.9626,0,0,-9.963397,34.471,30.549485)" fill="#0000ff"/>
<path transform="matrix(1,0,0,-1.00008,18.224999,47.536844)" stroke-width=".79701" stroke-linecap="butt" stroke-miterlimit="10" stroke-linejoin="miter" fill="none" stroke="#000000" d="M49.8931 26.53404 124.73297 0"/>
<use data-text="7" xlink:href="#font_1_4" transform="matrix(9.9626,0,0,-9.963397,109.256999,30.549485)" fill="#0000ff"/>
<path transform="matrix(1,0,0,-1.00008,18.224999,47.536844)" stroke-width=".79701" stroke-linecap="butt" stroke-miterlimit="10" stroke-linejoin="miter" fill="none" stroke="#000000" d="M0 0H124.73297"/>
<use data-text="T" xlink:href="#font_4_104" transform="matrix(9.9626,0,0,-9.963397,1.2170029,67.58545)" fill="#0000ff"/>
<use data-text="w" xlink:href="#font_4_114" transform="matrix(9.9626,0,0,-9.963397,7.583107,67.58545)" fill="#0000ff"/>
<use data-text="o" xlink:href="#font_4_81" transform="matrix(9.9626,0,0,-9.963397,14.497154,67.58545)" fill="#0000ff"/>
<use data-text="s" xlink:href="#font_4_98" transform="matrix(9.9626,0,0,-9.963397,22.795998,67.58545)" fill="#0000ff"/>
<use data-text="i" xlink:href="#font_4_66" transform="matrix(9.9626,0,0,-9.963397,26.721268,67.58545)" fill="#0000ff"/>
<use data-text="d" xlink:href="#font_4_47" transform="matrix(9.9626,0,0,-9.963397,29.490876,67.58545)" fill="#0000ff"/>
<use data-text="e" xlink:href="#font_4_50" transform="matrix(9.9626,0,0,-9.963397,35.030076,67.58545)" fill="#0000ff"/>
<use data-text="s" xlink:href="#font_4_98" transform="matrix(9.9626,0,0,-9.963397,39.453477,67.58545)" fill="#0000ff"/>
<use data-text="a" xlink:href="#font_4_28" transform="matrix(9.9626,0,0,-9.963397,46.69629,67.58545)" fill="#0000ff"/>
<use data-text="n" xlink:href="#font_4_77" transform="matrix(9.9626,0,0,-9.963397,51.67758,67.58545)" fill="#0000ff"/>
<use data-text="d" xlink:href="#font_4_47" transform="matrix(9.9626,0,0,-9.963397,57.21678,67.58545)" fill="#0000ff"/>
<use data-text="a" xlink:href="#font_4_28" transform="matrix(9.9626,0,0,-9.963397,66.07353,67.58545)" fill="#0000ff"/>
<use data-text="n" xlink:href="#font_4_77" transform="matrix(9.9626,0,0,-9.963397,71.054828,67.58545)" fill="#0000ff"/>
<use data-text="a" xlink:href="#font_4_28" transform="matrix(9.9626,0,0,-9.963397,79.92154,67.58545)" fill="#0000ff"/>
<use data-text="n" xlink:href="#font_4_77" transform="matrix(9.9626,0,0,-9.963397,84.90283,67.58545)" fill="#0000ff"/>
<use data-text="g" xlink:href="#font_4_59" transform="matrix(9.9626,0,0,-9.963397,90.44203,67.58545)" fill="#0000ff"/>
<use data-text="l" xlink:href="#font_4_72" transform="matrix(9.9626,0,0,-9.963397,95.423328,67.58545)" fill="#0000ff"/>
<use data-text="e" xlink:href="#font_4_50" transform="matrix(9.9626,0,0,-9.963397,98.19293,67.58545)" fill="#0000ff"/>
<use data-text="o" xlink:href="#font_4_81" transform="matrix(9.9626,0,0,-9.963397,105.93388,67.58545)" fill="#0000ff"/>
<use data-text="p" xlink:href="#font_4_84" transform="matrix(9.9626,0,0,-9.963397,110.91518,67.58545)" fill="#0000ff"/>
<use data-text="p" xlink:href="#font_4_84" transform="matrix(9.9626,0,0,-9.963397,116.45438,67.58545)" fill="#0000ff"/>
<use data-text="o" xlink:href="#font_4_81" transform="matrix(9.9626,0,0,-9.963397,122.27252,67.58545)" fill="#0000ff"/>
<use data-text="s" xlink:href="#font_4_98" transform="matrix(9.9626,0,0,-9.963397,127.253818,67.58545)" fill="#0000ff"/>
<use data-text="i" xlink:href="#font_4_66" transform="matrix(9.9626,0,0,-9.963397,131.17908,67.58545)" fill="#0000ff"/>
<use data-text="t" xlink:href="#font_4_105" transform="matrix(9.9626,0,0,-9.963397,133.94869,67.58545)" fill="#0000ff"/>
<use data-text="e" xlink:href="#font_4_50" transform="matrix(9.9626,0,0,-9.963397,137.82415,67.58545)" fill="#0000ff"/>
<use data-text="o" xlink:href="#font_4_81" transform="matrix(9.9626,0,0,-9.963397,145.5651,67.58545)" fill="#0000ff"/>
<use data-text="n" xlink:href="#font_4_77" transform="matrix(9.9626,0,0,-9.963397,150.54639,67.58545)" fill="#0000ff"/>
<use data-text="e" xlink:href="#font_4_50" transform="matrix(9.9626,0,0,-9.963397,156.0856,67.58545)" fill="#0000ff"/>
<use data-text="o" xlink:href="#font_4_81" transform="matrix(9.9626,0,0,-9.963397,1.2170029,79.541408)" fill="#0000ff"/>
<use data-text="f" xlink:href="#font_4_55" transform="matrix(9.9626,0,0,-9.963397,6.198303,79.541408)" fill="#0000ff"/>
<use data-text="t" xlink:href="#font_4_105" transform="matrix(9.9626,0,0,-9.963397,12.5644,79.541408)" fill="#0000ff"/>
<use data-text="h" xlink:href="#font_4_63" transform="matrix(9.9626,0,0,-9.963397,16.43985,79.541408)" fill="#0000ff"/>
<use data-text="e" xlink:href="#font_4_50" transform="matrix(9.9626,0,0,-9.963397,21.979058,79.541408)" fill="#0000ff"/>
<use data-text="m" xlink:href="#font_4_75" transform="matrix(9.9626,0,0,-9.963397,26.40245,79.541408)" fill="#0000ff"/>
<use data-text="." xlink:href="#font_4_88" transform="matrix(9.9626,0,0,-9.963397,34.701295,79.541408)" fill="#0000ff"/>
<use data-text="W" xlink:href="#font_4_113" transform="matrix(9.9626,0,0,-9.963397,42.452196,79.541408)" fill="#0000ff"/>
<use data-text="e" xlink:href="#font_4_50" transform="matrix(9.9626,0,0,-9.963397,51.8768,79.541408)" fill="#0000ff"/>
<use data-text="c" xlink:href="#font_4_43" transform="matrix(9.9626,0,0,-9.963397,59.607789,79.541408)" fill="#0000ff"/>
<use data-text="a" xlink:href="#font_4_28" transform="matrix(9.9626,0,0,-9.963397,64.03119,79.541408)" fill="#0000ff"/>
<use data-text="n" xlink:href="#font_4_77" transform="matrix(9.9626,0,0,-9.963397,69.01248,79.541408)" fill="#0000ff"/>
<use data-text="u" xlink:href="#font_4_109" transform="matrix(9.9626,0,0,-9.963397,77.86923,79.541408)" fill="#0000ff"/>
<use data-text="s" xlink:href="#font_4_98" transform="matrix(9.9626,0,0,-9.963397,83.40843,79.541408)" fill="#0000ff"/>
<use data-text="e" xlink:href="#font_4_50" transform="matrix(9.9626,0,0,-9.963397,87.333698,79.541408)" fill="#0000ff"/>
<use data-text="t" xlink:href="#font_4_105" transform="matrix(9.9626,0,0,-9.963397,95.08461,79.541408)" fill="#0000ff"/>
<use data-text="h" xlink:href="#font_4_63" transform="matrix(9.9626,0,0,-9.963397,98.96007,79.541408)" fill="#0000ff"/>
<use data-text="e" xlink:href="#font_4_50" transform="matrix(9.9626,0,0,-9.963397,104.49927,79.541408)" fill="#0000ff"/>
<use data-text="L" xlink:href="#font_4_71" transform="matrix(9.9626,0,0,-9.963397,112.24022,79.541408)" fill="#0000ff"/>
<use data-text="a" xlink:href="#font_4_28" transform="matrix(9.9626,0,0,-9.963397,118.46684,79.541408)" fill="#0000ff"/>
<use data-text="w" xlink:href="#font_4_114" transform="matrix(9.9626,0,0,-9.963397,123.17914,79.541408)" fill="#0000ff"/>
<use data-text="o" xlink:href="#font_4_81" transform="matrix(9.9626,0,0,-9.963397,133.67972,79.541408)" fill="#0000ff"/>
<use data-text="f" xlink:href="#font_4_55" transform="matrix(9.9626,0,0,-9.963397,138.66101,79.541408)" fill="#0000ff"/>
<use data-text="S" xlink:href="#font_4_97" transform="matrix(9.9626,0,0,-9.963397,145.03708,79.541408)" fill="#0000ff"/>
<use data-text="i" xlink:href="#font_4_66" transform="matrix(9.9626,0,0,-9.963397,150.57628,79.541408)" fill="#0000ff"/>
<use data-text="n" xlink:href="#font_4_77" transform="matrix(9.9626,0,0,-9.963397,153.34589,79.541408)" fill="#0000ff"/>
<use data-text="e" xlink:href="#font_4_50" transform="matrix(9.9626,0,0,-9.963397,158.8851,79.541408)" fill="#0000ff"/>
<use data-text="s" xlink:href="#font_4_98" transform="matrix(9.9626,0,0,-9.963397,163.3085,79.541408)" fill="#0000ff"/>
<use data-text="." xlink:href="#font_4_88" transform="matrix(9.9626,0,0,-9.963397,167.23377,79.541408)" fill="#0000ff"/>
<path transform="matrix(1,0,0,-1.00008,18.224999,47.536844)" stroke-width=".79701" stroke-linecap="butt" stroke-miterlimit="10" stroke-linejoin="miter" fill="none" stroke="#ff0000" d="M233.59142 29.0291C236.11814 25.86395 240.143 24.28658 244.14762 24.89212 247.80446 25.44508 250.96358 27.74863 252.60791 31.06134"/>
<use data-text="1" xlink:href="#font_1_1" transform="matrix(9.9626,0,0,-9.963397,252.12,33.286706)" fill="#ff0000"/>
<use data-text="1" xlink:href="#font_1_1" transform="matrix(9.9626,0,0,-9.963397,257.10133,33.286706)" fill="#ff0000"/>
<use data-text="5" xlink:href="#font_1_3" transform="matrix(9.9626,0,0,-9.963397,262.0826,33.286706)" fill="#ff0000"/>
<use data-text="&#x25e6;" xlink:href="#font_2_1" transform="matrix(6.9738,0,0,-6.974358,267.064,29.671416)" fill="#ff0000"/>
<path transform="matrix(1,0,0,-1.00008,18.224999,47.536844)" d="M197.46422 0C197.46422 .08801 197.39286 .15938 197.30483 .15938 197.21681 .15938 197.14543 .08801 197.14543 0 197.14543-.08801 197.21681-.15938 197.30483-.15938 197.39286-.15938 197.46422-.08801 197.46422 0ZM197.30483 0"/>
<path transform="matrix(1,0,0,-1.00008,18.224999,47.536844)" stroke-width=".3985" stroke-linecap="butt" stroke-miterlimit="10" stroke-linejoin="miter" fill="none" stroke="#000000" d="M197.46422 0C197.46422 .08801 197.39286 .15938 197.30483 .15938 197.21681 .15938 197.14543 .08801 197.14543 0 197.14543-.08801 197.21681-.15938 197.30483-.15938 197.39286-.15938 197.46422-.08801 197.46422 0ZM197.30483 0"/>
<use data-text="A" xlink:href="#font_3_1" transform="matrix(9.9626,0,0,-9.963397,204.538,50.941118)"/>
<path transform="matrix(1,0,0,-1.00008,18.224999,47.536844)" d="M242.8217 36.28607C242.8217 36.37408 242.75032 36.44547 242.66231 36.44547 242.57428 36.44547 242.50292 36.37408 242.50292 36.28607 242.50292 36.19804 242.57428 36.12668 242.66231 36.12668 242.75032 36.12668 242.8217 36.19804 242.8217 36.28607ZM242.66231 36.28607"/>
<path transform="matrix(1,0,0,-1.00008,18.224999,47.536844)" stroke-width=".3985" stroke-linecap="butt" stroke-miterlimit="10" stroke-linejoin="miter" fill="none" stroke="#000000" d="M242.8217 36.28607C242.8217 36.37408 242.75032 36.44547 242.66231 36.44547 242.57428 36.44547 242.50292 36.37408 242.50292 36.28607 242.50292 36.19804 242.57428 36.12668 242.66231 36.12668 242.75032 36.12668 242.8217 36.19804 242.8217 36.28607ZM242.66231 36.28607"/>
<use data-text="B" xlink:href="#font_3_2" transform="matrix(9.9626,0,0,-9.963397,256.859,7.7276575)"/>
<path transform="matrix(1,0,0,-1.00008,18.224999,47.536844)" d="M310.85786 0C310.85786 .08801 310.78648 .15938 310.69847 .15938 310.61045 .15938 310.5391 .08801 310.5391 0 310.5391-.08801 310.61045-.15938 310.69847-.15938 310.78648-.15938 310.85786-.08801 310.85786 0ZM310.69847 0"/>
<path transform="matrix(1,0,0,-1.00008,18.224999,47.536844)" stroke-width=".3985" stroke-linecap="butt" stroke-miterlimit="10" stroke-linejoin="miter" fill="none" stroke="#000000" d="M310.85786 0C310.85786 .08801 310.78648 .15938 310.69847 .15938 310.61045 .15938 310.5391 .08801 310.5391 0 310.5391-.08801 310.61045-.15938 310.69847-.15938 310.78648-.15938 310.85786-.08801 310.85786 0ZM310.69847 0"/>
<use data-text="C" xlink:href="#font_3_3" transform="matrix(9.9626,0,0,-9.963397,332.443,50.941118)"/>
<path transform="matrix(1,0,0,-1.00008,18.224999,47.536844)" stroke-width=".79701" stroke-linecap="butt" stroke-miterlimit="10" stroke-linejoin="miter" fill="none" stroke="#000000" d="M242.66231 36.28607 197.30483 0"/>
<use data-text="5" xlink:href="#font_1_3" transform="matrix(9.9626,0,0,-9.963397,229.508,25.673094)" fill="#0000ff"/>
<path transform="matrix(1,0,0,-1.00008,18.224999,47.536844)" stroke-width=".79701" stroke-linecap="butt" stroke-miterlimit="10" stroke-linejoin="miter" fill="none" stroke="#000000" d="M242.66231 36.28607 310.69847 0"/>
<use data-text="7" xlink:href="#font_1_4" transform="matrix(9.9626,0,0,-9.963397,298.624,25.673094)" fill="#0000ff"/>
<path transform="matrix(1,0,0,-1.00008,18.224999,47.536844)" stroke-width=".79701" stroke-linecap="butt" stroke-miterlimit="10" stroke-linejoin="miter" fill="none" stroke="#000000" d="M197.30483 0H310.69847"/>
<use data-text="T" xlink:href="#font_4_104" transform="matrix(9.9626,0,0,-9.963397,205.60901,67.58545)" fill="#0000ff"/>
<use data-text="w" xlink:href="#font_4_114" transform="matrix(9.9626,0,0,-9.963397,211.9751,67.58545)" fill="#0000ff"/>
<use data-text="o" xlink:href="#font_4_81" transform="matrix(9.9626,0,0,-9.963397,218.88916,67.58545)" fill="#0000ff"/>
<use data-text="s" xlink:href="#font_4_98" transform="matrix(9.9626,0,0,-9.963397,227.18799,67.58545)" fill="#0000ff"/>
<use data-text="i" xlink:href="#font_4_66" transform="matrix(9.9626,0,0,-9.963397,231.11327,67.58545)" fill="#0000ff"/>
<use data-text="d" xlink:href="#font_4_47" transform="matrix(9.9626,0,0,-9.963397,233.88288,67.58545)" fill="#0000ff"/>
<use data-text="e" xlink:href="#font_4_50" transform="matrix(9.9626,0,0,-9.963397,239.42208,67.58545)" fill="#0000ff"/>
<use data-text="s" xlink:href="#font_4_98" transform="matrix(9.9626,0,0,-9.963397,243.84548,67.58545)" fill="#0000ff"/>
<use data-text="a" xlink:href="#font_4_28" transform="matrix(9.9626,0,0,-9.963397,251.08829,67.58545)" fill="#0000ff"/>
<use data-text="n" xlink:href="#font_4_77" transform="matrix(9.9626,0,0,-9.963397,256.06959,67.58545)" fill="#0000ff"/>
<use data-text="d" xlink:href="#font_4_47" transform="matrix(9.9626,0,0,-9.963397,261.60877,67.58545)" fill="#0000ff"/>
<use data-text="t" xlink:href="#font_4_105" transform="matrix(9.9626,0,0,-9.963397,270.4655,67.58545)" fill="#0000ff"/>
<use data-text="h" xlink:href="#font_4_63" transform="matrix(9.9626,0,0,-9.963397,274.341,67.58545)" fill="#0000ff"/>
<use data-text="e" xlink:href="#font_4_50" transform="matrix(9.9626,0,0,-9.963397,279.8802,67.58545)" fill="#0000ff"/>
<use data-text="i" xlink:href="#font_4_66" transform="matrix(9.9626,0,0,-9.963397,287.6311,67.58545)" fill="#0000ff"/>
<use data-text="n" xlink:href="#font_4_77" transform="matrix(9.9626,0,0,-9.963397,290.4007,67.58545)" fill="#0000ff"/>
<use data-text="c" xlink:href="#font_4_43" transform="matrix(9.9626,0,0,-9.963397,295.9399,67.58545)" fill="#0000ff"/>
<use data-text="l" xlink:href="#font_4_72" transform="matrix(9.9626,0,0,-9.963397,300.3633,67.58545)" fill="#0000ff"/>
<use data-text="u" xlink:href="#font_4_109" transform="matrix(9.9626,0,0,-9.963397,303.13294,67.58545)" fill="#0000ff"/>
<use data-text="d" xlink:href="#font_4_47" transform="matrix(9.9626,0,0,-9.963397,308.67213,67.58545)" fill="#0000ff"/>
<use data-text="e" xlink:href="#font_4_50" transform="matrix(9.9626,0,0,-9.963397,314.2113,67.58545)" fill="#0000ff"/>
<use data-text="d" xlink:href="#font_4_47" transform="matrix(9.9626,0,0,-9.963397,318.6347,67.58545)" fill="#0000ff"/>
<use data-text="a" xlink:href="#font_4_28" transform="matrix(9.9626,0,0,-9.963397,327.49147,67.58545)" fill="#0000ff"/>
<use data-text="n" xlink:href="#font_4_77" transform="matrix(9.9626,0,0,-9.963397,332.47279,67.58545)" fill="#0000ff"/>
<use data-text="g" xlink:href="#font_4_59" transform="matrix(9.9626,0,0,-9.963397,338.01197,67.58545)" fill="#0000ff"/>
<use data-text="l" xlink:href="#font_4_72" transform="matrix(9.9626,0,0,-9.963397,342.99327,67.58545)" fill="#0000ff"/>
<use data-text="e" xlink:href="#font_4_50" transform="matrix(9.9626,0,0,-9.963397,345.76289,67.58545)" fill="#0000ff"/>
<use data-text="." xlink:href="#font_4_88" transform="matrix(9.9626,0,0,-9.963397,350.18629,67.58545)" fill="#0000ff"/>
<use data-text="W" xlink:href="#font_4_113" transform="matrix(9.9626,0,0,-9.963397,205.60901,79.541408)" fill="#0000ff"/>
<use data-text="e" xlink:href="#font_4_50" transform="matrix(9.9626,0,0,-9.963397,215.02365,79.541408)" fill="#0000ff"/>
<use data-text="c" xlink:href="#font_4_43" transform="matrix(9.9626,0,0,-9.963397,222.76459,79.541408)" fill="#0000ff"/>
<use data-text="a" xlink:href="#font_4_28" transform="matrix(9.9626,0,0,-9.963397,227.18799,79.541408)" fill="#0000ff"/>
<use data-text="n" xlink:href="#font_4_77" transform="matrix(9.9626,0,0,-9.963397,232.16928,79.541408)" fill="#0000ff"/>
<use data-text="n" xlink:href="#font_4_77" transform="matrix(9.9626,0,0,-9.963397,237.70848,79.541408)" fill="#0000ff"/>
<use data-text="o" xlink:href="#font_4_81" transform="matrix(9.9626,0,0,-9.963397,243.24768,79.541408)" fill="#0000ff"/>
<use data-text="t" xlink:href="#font_4_105" transform="matrix(9.9626,0,0,-9.963397,248.22898,79.541408)" fill="#0000ff"/>
<use data-text="u" xlink:href="#font_4_109" transform="matrix(9.9626,0,0,-9.963397,255.42198,79.541408)" fill="#0000ff"/>
<use data-text="s" xlink:href="#font_4_98" transform="matrix(9.9626,0,0,-9.963397,260.96119,79.541408)" fill="#0000ff"/>
<use data-text="e" xlink:href="#font_4_50" transform="matrix(9.9626,0,0,-9.963397,264.88645,79.541408)" fill="#0000ff"/>
<use data-text="t" xlink:href="#font_4_105" transform="matrix(9.9626,0,0,-9.963397,272.62739,79.541408)" fill="#0000ff"/>
<use data-text="h" xlink:href="#font_4_63" transform="matrix(9.9626,0,0,-9.963397,276.50288,79.541408)" fill="#0000ff"/>
<use data-text="e" xlink:href="#font_4_50" transform="matrix(9.9626,0,0,-9.963397,282.04206,79.541408)" fill="#0000ff"/>
<use data-text="L" xlink:href="#font_4_71" transform="matrix(9.9626,0,0,-9.963397,289.79298,79.541408)" fill="#0000ff"/>
<use data-text="a" xlink:href="#font_4_28" transform="matrix(9.9626,0,0,-9.963397,296.0196,79.541408)" fill="#0000ff"/>
<use data-text="w" xlink:href="#font_4_114" transform="matrix(9.9626,0,0,-9.963397,300.73188,79.541408)" fill="#0000ff"/>
<use data-text="o" xlink:href="#font_4_81" transform="matrix(9.9626,0,0,-9.963397,311.23249,79.541408)" fill="#0000ff"/>
<use data-text="f" xlink:href="#font_4_55" transform="matrix(9.9626,0,0,-9.963397,316.21376,79.541408)" fill="#0000ff"/>
<use data-text="S" xlink:href="#font_4_97" transform="matrix(9.9626,0,0,-9.963397,322.57987,79.541408)" fill="#0000ff"/>
<use data-text="i" xlink:href="#font_4_66" transform="matrix(9.9626,0,0,-9.963397,328.11909,79.541408)" fill="#0000ff"/>
<use data-text="n" xlink:href="#font_4_77" transform="matrix(9.9626,0,0,-9.963397,330.88868,79.541408)" fill="#0000ff"/>
<use data-text="e" xlink:href="#font_4_50" transform="matrix(9.9626,0,0,-9.963397,336.42787,79.541408)" fill="#0000ff"/>
<use data-text="s" xlink:href="#font_4_98" transform="matrix(9.9626,0,0,-9.963397,340.85127,79.541408)" fill="#0000ff"/>
<use data-text="." xlink:href="#font_4_88" transform="matrix(9.9626,0,0,-9.963397,344.77656,79.541408)" fill="#0000ff"/>
</svg>
