<svg xmlns="http://www.w3.org/2000/svg" xmlns:xlink="http://www.w3.org/1999/xlink" version="1.1" width="191" height="114" viewBox="0 0 191 114">
<defs>
<path id="font_1_2" d="M.33399964 .30233766C.33999635 .32835389 .36299134 .42037965 .43299867 .42037965 .43798829 .42037965 .46199037 .42037965 .48298646 .40734864 .45498658 .402359 .43499757 .37734986 .43499757 .35334779 .43499757 .33735658 .44599916 .31835938 .47299195 .31835938 .49499513 .31835938 .5269928 .3363495 .5269928 .37635804 .5269928 .42837525 .46798707 .4423828 .43399049 .4423828 .37599183 .4423828 .34098817 .38935853 .32899476 .36634828 .3039856 .43237306 .25 .4423828 .22099304 .4423828 .116989139 .4423828 .05999756 .3133545 .05999756 .28834535 .05999756 .27833558 .069992069 .27833558 .07199097 .27833558 .07998657 .27833558 .08299255 .28033448 .084991458 .28933717 .11898804 .39535523 .18499756 .42037965 .21899414 .42037965 .23799134 .42037965 .272995 .4113617 .272995 .35334779 .272995 .32235719 .2559967 .25532533 .21899414 .11528015 .20298767 .053268434 .16799927 .011245728 .12399292 .011245728 .117996219 .011245728 .09498596 .011245728 .07398987 .024276734 .09899902 .029266358 .12098694 .05027771 .12098694 .07827759 .12098694 .105270389 .09899902 .11328125 .083999637 .11328125 .053985597 .11328125 .0289917 .08728027 .0289917 .055267335 .0289917 .009246826 .07899475-.0107421879 .12298584-.0107421879 .18899536-.0107421879 .22499085 .059280397 .22799683 .0652771 .23999024 .028274537 .27598573-.0107421879 .33599855-.0107421879 .43899537-.0107421879 .49598695 .118270877 .49598695 .14328003 .49598695 .1532898 .4869995 .1532898 .48399354 .1532898 .47499085 .1532898 .47299195 .14929199 .47099305 .14228821 .43798829 .03527832 .36999513 .011245728 .33799745 .011245728 .29899598 .011245728 .2829895 .043273927 .2829895 .07727051 .2829895 .09927368 .2889862 .121276859 .2999878 .16529846L.33399964 .30233766Z"/>
<path id="font_1_3" d="M.48599244 .38136292C.48999024 .39537049 .48999024 .39736939 .48999024 .40437318 .48999024 .42237855 .47599793 .43138124 .46099855 .43138124 .45098878 .43138124 .43499757 .42536927 .42599488 .41036988 .42399598 .405365 .41600038 .37435914 .4119873 .35635377 .40499879 .33035279 .397995 .30334474 .3919983 .27633668L.34700013 .09628296C.34298707 .08126831 .2999878 .011245728 .23399353 .011245728 .18299866 .011245728 .17199707 .055267335 .17199707 .0922699 .17199707 .1382904 .18899536 .20030213 .22299195 .28833009 .23899842 .3293457 .24299622 .3403473 .24299622 .36035157 .24299622 .405365 .21099854 .4423828 .16099549 .4423828 .06599426 .4423828 .0289917 .29733277 .0289917 .28833009 .0289917 .27833558 .038986207 .27833558 .040985109 .27833558 .050994874 .27833558 .051986696 .28033448 .056991579 .29634095 .083999637 .3903656 .12399292 .42037965 .1579895 .42037965 .1659851 .42037965 .18299866 .42037965 .18299866 .3883667 .18299866 .36335755 .17298889 .3373413 .1659851 .31834413 .12599182 .21231079 .10798645 .1552887 .10798645 .10827637 .10798645 .019256592 .17098999-.0107421879 .22999573-.0107421879 .2689972-.0107421879 .30299378 .0062561037 .33099366 .03425598 .31799317-.017745972 .30599977-.06674194 .2659912-.11973572 .23999024-.15385437 .20199585-.18309021 .1559906-.18309021 .14199829-.18309021 .09700012-.18005371 .07998657-.14074707 .09599304-.14074707 .10899353-.14074707 .12298584-.1287384 .1329956-.11973572 .14299011-.10673523 .14299011-.08773804 .14299011-.056747438 .115997318-.052734376 .10598755-.052734376 .08299255-.052734376 .049987794-.068740848 .049987794-.11773682 .049987794-.16796875 .09399414-.20507813 .1559906-.20507813 .25898744-.20507813 .3619995-.11373901 .3899994-.00074768069L.48599244 .38136292Z"/>
<path id="font_2_64" d="M.27598573 .18710327V.24511719H.010986328V.18710327H.27598573Z"/>
<path id="font_2_106" d="M.45700074 .17037964C.45700074 .252594 .3939972 .33088685 .2899933 .35191346 .37199403 .37893678 .42999269 .4490509 .42999269 .52809146 .42999269 .6100464 .34199525 .6660156 .24598694 .6660156 .14498902 .6660156 .068984989 .60606387 .068984989 .53009036 .068984989 .49710084 .09098816 .47808839 .11999512 .47808839 .15098572 .47808839 .17098999 .50009158 .17098999 .5290985 .17098999 .57910159 .12399292 .57910159 .10899353 .57910159 .13999939 .62802127 .20599365 .64100649 .24198914 .64100649 .2829895 .64100649 .33799745 .6190338 .33799745 .5290985 .33799745 .51708987 .33599855 .45906068 .30999757 .4149933 .27999879 .36691285 .24598694 .36390687 .22099304 .36291505 .21299744 .36190797 .18899536 .35990907 .18199158 .35990907 .17399597 .35890199 .16699219 .35791017 .16699219 .3479004 .16699219 .33691407 .17399597 .33691407 .19099427 .33691407H.23498535C.31698609 .33691407 .35398866 .2686615 .35398866 .17037964 .35398866 .034469606 .2849884 .0055389406 .24099732 .0055389406 .19799805 .0055389406 .12298584 .022491456 .08799744 .08137512 .12298584 .07637024 .1539917 .09837341 .1539917 .1363678 .1539917 .17237854 .1269989 .19238281 .09799194 .19238281 .07398987 .19238281 .041992189 .17837525 .041992189 .1343689 .041992189 .043441774 .1349945-.022460938 .24398804-.022460938 .3659973-.022460938 .45700074 .06838989 .45700074 .17037964Z"/>
<path id="font_2_107" d="M.44898988 .17396546H.42399598C.4189911 .14398194 .4119873 .099990848 .4019928 .084991458 .394989 .07699585 .32899476 .07699585 .30699159 .07699585H.1269989L.23298645 .17996216C.3889923 .31803895 .44898988 .37210084 .44898988 .47216798 .44898988 .5860901 .35899354 .6660156 .23699951 .6660156 .12399292 .6660156 .049987794 .57411196 .049987794 .48516847 .049987794 .4291687 .099990848 .4291687 .102996829 .4291687 .11999512 .4291687 .15499878 .44117738 .15499878 .48217774 .15499878 .5081787 .13699341 .5341797 .101989749 .5341797 .09399414 .5341797 .09199524 .5341797 .08898926 .5331726 .11199951 .59806826 .1659851 .63500979 .22399903 .63500979 .31498719 .63500979 .35798646 .5541382 .35798646 .47216798 .35798646 .39196778 .30799867 .31297303 .25299073 .25097657L.06098938 .036987306C.049987794 .025985718 .049987794 .023986817 .049987794 0H.42099L.44898988 .17396546Z"/>
<path id="font_2_82" d="M.4189911 0V.0309906H.3869934C.29699708 .0309906 .2939911 .041992189 .2939911 .07902527V.64012148C.2939911 .6640167 .2939911 .6660156 .2709961 .6660156 .20899964 .60227969 .12098694 .60227969 .08898926 .60227969V.57128909C.10899353 .57128909 .16799927 .57128909 .21998596 .5972748V.07902527C.21998596 .042999269 .21699524 .0309906 .1269989 .0309906H.09498596V0C.12998963 .0029907227 .21699524 .0029907227 .25698854 .0029907227 .29699708 .0029907227 .38398744 .0029907227 .4189911 0Z"/>
<path id="font_1_1" d="M.2649994 .37265016H.37799073C.34498597 .22489929 .33599855 .18196106 .33599855 .11508179 .33599855 .100097659 .33599855 .073150638 .34399415 .03919983 .35398866-.0047454836 .36499024-.0107421879 .37998963-.0107421879 .3999939-.0107421879 .42099 .007247925 .42099 .02722168 .42099 .033218385 .42099 .035202028 .4149933 .049179079 .38598634 .12106323 .38598634 .18595886 .38598634 .21391297 .38598634 .26683045 .3929901 .32073976 .4039917 .37265016H.5179901C.5309906 .37265016 .5669861 .37265016 .5669861 .406662 .5669861 .43066407 .54599 .43066407 .5269928 .43066407H.19198609C.16999817 .43066407 .13198853 .43066407 .08799744 .38365174 .052993776 .34469605 .026992798 .29878236 .026992798 .29379273 .026992798 .29278565 .026992798 .28379823 .038986207 .28379823 .04699707 .28379823 .04899597 .28779603 .054992677 .29577638 .10398865 .37265016 .1619873 .37265016 .18199158 .37265016H.23899842C.20698548 .25186158 .15299988 .13105774 .11099243 .04020691 .102996829 .025222779 .102996829 .023223877 .102996829 .016235352 .102996829-.002746582 .11898804-.0107421879 .13198853-.0107421879 .1619873-.0107421879 .16999817 .017242432 .18199158 .05418396 .19599915 .100097659 .19599915 .10209656 .20899964 .15202332L.2649994 .37265016Z"/>
<path id="font_3_4" d="M.1269989 .07699585 .23298645 .18003845C.3889923 .31811524 .44898988 .3721466 .44898988 .47216798 .44898988 .5860901 .35899354 .6660156 .23699951 .6660156 .12399292 .6660156 .049987794 .57411196 .049987794 .48516847 .049987794 .4291687 .099990848 .4291687 .102996829 .4291687 .11999512 .4291687 .15499878 .44117738 .15499878 .48217774 .15499878 .5081787 .13699341 .5341797 .101989749 .5341797 .09399414 .5341797 .09199524 .5341797 .08898926 .5331726 .11199951 .59806826 .1659851 .63500979 .22399903 .63500979 .31498719 .63500979 .35798646 .5541382 .35798646 .47216798 .35798646 .39215089 .30799867 .31311036 .25299073 .25108338L.06098938 .036987306C.049987794 .025985718 .049987794 .023986817 .049987794 0H.42099L.44898988 .17404175H.42399598C.4189911 .14402771 .4119873 .1000061 .4019928 .084991458 .394989 .07699585 .32899476 .07699585 .30699159 .07699585H.1269989Z"/>
<path id="font_4_1" d="M.6589966 .23046875C.6759949 .23046875 .69400027 .23046875 .69400027 .25045777 .69400027 .27046205 .6759949 .27046205 .6589966 .27046205H.117996219C.100997928 .27046205 .08299255 .27046205 .08299255 .25045777 .08299255 .23046875 .100997928 .23046875 .117996219 .23046875H.6589966Z"/>
<path id="font_3_5" d="M.68699648 .32714845C.70199587 .32714845 .72099307 .32714845 .72099307 .34713746 .72099307 .36714173 .70199587 .36714173 .6879883 .36714173H.08898926C.07499695 .36714173 .055999757 .36714173 .055999757 .34713746 .055999757 .32714845 .07499695 .32714845 .08999634 .32714845H.68699648M.6879883 .13284302C.70199587 .13284302 .72099307 .13284302 .72099307 .15284729 .72099307 .17285156 .70199587 .17285156 .68699648 .17285156H.08999634C.07499695 .17285156 .055999757 .17285156 .055999757 .15284729 .055999757 .13284302 .07499695 .13284302 .08898926 .13284302H.6879883Z"/>
<path id="font_3_8" d="M.20799256 .19424439C.22999573 .19024658 .31199647 .17424011 .31199647 .102249149 .31199647 .051254274 .2769928 .011245728 .19898987 .011245728 .114990238 .011245728 .07899475 .06825256 .05999756 .15324402 .056991579 .1662445 .055999757 .17024231 .04598999 .17024231 .032989503 .17024231 .032989503 .16323853 .032989503 .14524842V.013244629C.032989503-.003753662 .032989503-.0107421879 .04399109-.0107421879 .04899597-.0107421879 .049987794-.009750366 .068984989 .009246826 .070999149 .011245728 .070999149 .013244629 .08898926 .03224182 .1329956-.009750366 .17799378-.0107421879 .19898987-.0107421879 .31399537-.0107421879 .3600006 .056243898 .3600006 .12825012 .3600006 .1812439 .32998658 .21124268 .31799317 .22323609 .2849884 .25523377 .24598694 .26324464 .20399475 .27124024 .147995 .28224183 .08099365 .2952423 .08099365 .35324098 .08099365 .38822938 .10699463 .42922975 .19299317 .42922975 .30299378 .42922975 .30799867 .3392334 .30999757 .3082428 .31098939 .2992401 .31999208 .2992401 .32199098 .2992401 .33499146 .2992401 .33499146 .304245 .33499146 .3232422V.4242401C.33499146 .4412384 .33499146 .4482422 .32398988 .4482422 .31900025 .4482422 .31698609 .4482422 .3039856 .43623353 .30099488 .43223573 .29100038 .42323304 .2869873 .42022706 .24899292 .4482422 .20799256 .4482422 .19299317 .4482422 .070999149 .4482422 .032989503 .38124085 .032989503 .3252411 .032989503 .29023744 .04899597 .26223756 .07598877 .24023438 .10798645 .21424866 .13598633 .2082367 .20799256 .19424439Z"/>
<path id="font_3_6" d="M.1769867 .4423828 .036987306 .43138124V.40037538C.101989749 .40037538 .11099243 .3943634 .11099243 .34532167V.076034549C.11099243 .0309906 .099990848 .0309906 .032989503 .0309906V0C.06498718 .0009918213 .11898804 .0029907227 .14299011 .0029907227 .17799378 .0029907227 .21299744 .0009918213 .24699402 0V.0309906C.18099976 .0309906 .1769867 .035995485 .1769867 .075042728V.4423828M.18099976 .6159363C.18099976 .64793398 .1559906 .6689453 .12799073 .6689453 .09700012 .6689453 .07499695 .64193728 .07499695 .6159363 .07499695 .5889435 .09700012 .5629425 .12799073 .5629425 .1559906 .5629425 .18099976 .5839386 .18099976 .6159363Z"/>
<path id="font_3_7" d="M.10998535 .34429933V.076034549C.10998535 .0309906 .09899902 .0309906 .03199768 .0309906V0C.066986087 .0009918213 .117996219 .0029907227 .14498902 .0029907227 .17098999 .0029907227 .22299195 .0009918213 .25698854 0V.0309906C.18998719 .0309906 .1789856 .0309906 .1789856 .076034549V.2602234C.1789856 .36431886 .25 .42037965 .31399537 .42037965 .3769989 .42037965 .3880005 .36631776 .3880005 .30926515V.076034549C.3880005 .0309906 .3769989 .0309906 .30999757 .0309906V0C.34498597 .0009918213 .3959961 .0029907227 .4229889 .0029907227 .44898988 .0029907227 .5009918 .0009918213 .5349884 0V.0309906C.48298646 .0309906 .45799256 .0309906 .45700074 .061019899V.25221253C.45700074 .3383026 .45700074 .36932374 .42599488 .405365 .4119873 .42237855 .3789978 .4423828 .32099916 .4423828 .24798584 .4423828 .20098877 .39935304 .17298889 .33729554V.4423828L.03199768 .43138124V.40037538C.101989749 .4003601 .10998535 .39335633 .10998535 .34429933Z"/>
<path id="font_3_1" d="M.33099366-.2400055C.33099366-.23701477 .33099366-.23500061 .31399537-.21800232 .18899536-.0920105 .15699768 .09700012 .15699768 .25 .15699768 .42399598 .19499207 .59799197 .31799317 .72299197 .33099366 .73498538 .33099366 .7369995 .33099366 .73999026 .33099366 .746994 .32699586 .75 .32099916 .75 .31098939 .75 .22099304 .6819916 .1619873 .5549927 .11099243 .44499208 .09899902 .33399964 .09899902 .25 .09899902 .17199707 .10998535 .050994874 .16499329-.06201172 .22499085-.18501282 .31098939-.25 .32099916-.25 .32699586-.25 .33099366-.24700928 .33099366-.2400055Z"/>
<path id="font_3_2" d="M.2889862 .25C.2889862 .32798768 .27799989 .44898988 .22299195 .56199648 .16299439 .68499758 .07699585 .75 .066986087 .75 .06098938 .75 .056991579 .74598696 .056991579 .73999026 .056991579 .7369995 .056991579 .73498538 .07598877 .71699526 .17399597 .6179962 .23098755 .45899964 .23098755 .25 .23098755 .07899475 .19400025-.09700012 .069992069-.2230072 .056991579-.23500061 .056991579-.23701477 .056991579-.2400055 .056991579-.2460022 .06098938-.25 .066986087-.25 .07699585-.25 .16699219-.18200684 .22599793-.055007936 .2769928 .054992677 .2889862 .16600037 .2889862 .25Z"/>
<path id="font_3_3" d="M.40899659 .23046875H.6879883C.70199587 .23046875 .72099307 .23046875 .72099307 .25045777 .72099307 .27046205 .70199587 .27046205 .6879883 .27046205H.40899659V.5500183C.40899659 .56399539 .40899659 .5830078 .3889923 .5830078 .36898805 .5830078 .36898805 .56399539 .36898805 .5500183V.27046205H.08898926C.07499695 .27046205 .055999757 .27046205 .055999757 .25045777 .055999757 .23046875 .07499695 .23046875 .08898926 .23046875H.36898805V-.05000305C.36898805-.06401062 .36898805-.08300781 .3889923-.08300781 .40899659-.08300781 .40899659-.06401062 .40899659-.05000305V.23046875Z"/>
<path id="font_2_27" d="M.71699526 0V.0309906H.69898989C.6389923 .0309906 .625 .037979127 .6139984 .07095337L.397995 .6958008C.3929901 .7088165 .3909912 .7158203 .375 .7158203 .35899354 .7158203 .35598756 .70980837 .35099793 .6958008L.14399719 .09791565C.12599182 .04698181 .085998538 .03199768 .03199768 .0309906V0L.13398743 .0029907227 .24899292 0V.0309906C.19898987 .0309906 .17399597 .05596924 .17399597 .0819397 .17399597 .08493042 .1749878 .09492493 .17599488 .09692383L.22200012 .2277832H.46899415L.5219879 .07495117C.522995 .07095337 .5249939 .064956668 .5249939 .060958864 .5249939 .0309906 .46899415 .0309906 .44198609 .0309906V0C.47799684 .0029907227 .5479889 .0029907227 .58599856 .0029907227L.71699526 0M.45799256 .25878907H.23298645L.34498597 .58380129 .45799256 .25878907Z"/>
<path id="font_2_112" d="M.5079956 .3996582V.43066407C.4850006 .4286499 .45599366 .42765809 .43299867 .42765809L.34599305 .43066407V.3996582C.3829956 .39865113 .3939972 .37568666 .3939972 .35671998 .3939972 .34773255 .3919983 .34373475 .3880005 .3327484L.28599549 .078125 .17399597 .35671998C.16799927 .3697052 .16799927 .37368775 .16799927 .37368775 .16799927 .3996582 .20698548 .3996582 .22499085 .3996582V.43066407L.115997318 .42765809C.08898926 .42765809 .04899597 .4286499 .018997193 .43066407V.3996582C.08198547 .3996582 .085998538 .3936615 .09899902 .36271668L.24299622 .008224487C.24899292-.0057525637 .25099183-.0107421879 .2639923-.0107421879 .2769928-.0107421879 .2809906-.0017700195 .2849884 .008224487L.41600038 .3327484C.4249878 .3557129 .44198609 .39865113 .5079956 .3996582Z"/>
<path id="font_2_50" d="M.4149933 .11933899C.4149933 .12934876 .40699769 .13134766 .4019928 .13134766 .3929901 .13134766 .3909912 .12535095 .3889923 .11734009 .35398866 .014251709 .2639923 .014251709 .2539978 .014251709 .20399475 .014251709 .1639862 .044281007 .14099121 .08131409 .11099243 .12934876 .11099243 .19540406 .11099243 .23144531H.3899994C.4119873 .23144531 .4149933 .23144531 .4149933 .2524414 .4149933 .35131837 .36099244 .4482422 .23599243 .4482422 .11999512 .4482422 .027999878 .34532167 .027999878 .22042847 .027999878 .08631897 .1329956-.0107421879 .24798584-.0107421879 .36999513-.0107421879 .4149933 .10032654 .4149933 .11933899M.34899903 .2524414H.11199951C.117996219 .40126039 .20199585 .426239 .23599243 .426239 .33898927 .426239 .34899903 .2913971 .34899903 .2524414Z"/>
<path id="font_2_96" d="M.3639984 .38137818C.3639984 .41337586 .33299256 .4423828 .2899933 .4423828 .21699524 .4423828 .18099976 .37538148 .16699219 .3323822V.4423828L.027999878 .43066407V.3996582C.09799194 .3996582 .10598755 .39266969 .10598755 .34370423V.07595825C.10598755 .0309906 .09498596 .0309906 .027999878 .0309906V0L.14199829 .0029907227C.18199158 .0029907227 .22898865 .0029907227 .2689972 0V.0309906H.24798584C.17399597 .0309906 .17199707 .04197693 .17199707 .07795715V.23181153C.17199707 .33137513 .21398926 .42037965 .2899933 .42037965 .29699708 .42037965 .29899598 .42037965 .30099488 .41937257 .2979889 .41838075 .27799989 .40637208 .27799989 .3803711 .27799989 .35237123 .29899598 .33737184 .32099916 .33737184 .33898927 .33737184 .3639984 .3493805 .3639984 .38137818Z"/>
<path id="font_2_105" d="M.33198548 .12385559V.18066406H.30699159V.12585449C.30699159 .052108766 .2769928 .014251709 .23999024 .014251709 .17298889 .014251709 .17298889 .10491943 .17298889 .12187195V.3996582H.31599427V.43066407H.17298889V.6142578H.147995C.14698792 .5324249 .116989139 .42565919 .018997193 .42166139V.3996582H.10398865V.12408447C.10398865 .0012512207 .19699097-.0107421879 .23298645-.0107421879 .3039856-.0107421879 .33198548 .060180665 .33198548 .12408447V.12385559Z"/>
<path id="font_2_66" d="M.24699402 0V.0309906C.18099976 .0309906 .1769867 .035995485 .1769867 .075042728V.4423828L.036987306 .43066407V.3996582C.101989749 .3996582 .11099243 .3936615 .11099243 .3447113V.07595825C.11099243 .0309906 .099990848 .0309906 .032989503 .0309906V0L.14299011 .0029907227C.17799378 .0029907227 .21299744 .0009918213 .24699402 0M.19198609 .603775C.19198609 .6307678 .16899109 .6567688 .13899231 .6567688 .10499573 .6567688 .084991458 .6287689 .084991458 .603775 .084991458 .57676699 .10798645 .55078127 .13798523 .55078127 .17199707 .55078127 .19198609 .5787811 .19198609 .603775Z"/>
<path id="font_2_43" d="M.4149933 .119140628C.4149933 .12911988 .40499879 .12911988 .4019928 .12911988 .3929901 .12911988 .3909912 .12512207 .3889923 .119140628 .3600006 .026229859 .29499818 .014251709 .2579956 .014251709 .20498657 .014251709 .116989139 .0572052 .116989139 .21801758 .116989139 .38093568 .19898987 .42323304 .2519989 .42323304 .26098634 .42323304 .32398988 .42222596 .35899354 .38594056 .31799317 .38293458 .31199647 .3529358 .31199647 .3399353 .31199647 .31393434 .32998658 .2939453 .35798646 .2939453 .38398744 .2939453 .4039917 .3109436 .4039917 .34094239 .4039917 .40911866 .32798768 .4482422 .25099183 .4482422 .12599182 .4482422 .033996583 .3399353 .033996583 .21601868 .033996583 .08816528 .1329956-.0107421879 .24899292-.0107421879 .3829956-.0107421879 .4149933 .10914612 .4149933 .119140628Z"/>
<path id="font_2_28" d="M.48298646 .08912659V.14511109H.45799256V.08912659C.45799256 .03112793 .43299867 .025131226 .42199708 .025131226 .3889923 .025131226 .3849945 .070129398 .3849945 .07511902V.27508546C.3849945 .31707765 .3849945 .3560791 .34899903 .39312745 .30999757 .43223573 .2599945 .4482422 .21199036 .4482422 .12998963 .4482422 .06098938 .40115357 .06098938 .335083 .06098938 .30508424 .08099365 .28808595 .10699463 .28808595 .1349945 .28808595 .15299988 .30807496 .15299988 .33407594 .15299988 .3460846 .147995 .37908937 .101989749 .38008119 .1289978 .41519166 .17799378 .426239 .20999146 .426239 .25898744 .426239 .31599427 .38710023 .31599427 .29808045V.26107789C.2649994 .25808717 .19499207 .25508119 .13198853 .22509766 .056991579 .19110108 .03199768 .13911438 .03199768 .09512329 .03199768 .014251709 .1289978-.0107421879 .19198609-.0107421879 .2579956-.0107421879 .3039856 .029251099 .32299806 .07624817 .32699586 .036132814 .35398866-.005859375 .40098573-.005859375 .42199708-.005859375 .48298646 .008132935 .48298646 .08912659M.31599427 .14013672C.31599427 .04525757 .24398804 .011245728 .19898987 .011245728 .1499939 .011245728 .10899353 .04624939 .10899353 .09625244 .10899353 .15124512 .15098572 .23425293 .31599427 .24024964V.14013672Z"/>
<path id="font_2_72" d="M.25498963 0V.0309906C.18798828 .0309906 .1769867 .0309906 .1769867 .07601929V.69433596L.032989503 .6826172V.6516113C.102996829 .6516113 .11099243 .64460757 .11099243 .5956421V.07595825C.11099243 .0309906 .099990848 .0309906 .032989503 .0309906V0L.14399719 .0029907227 .25498963 0Z"/>
<path id="font_2_98" d="M.3600006 .12823487C.3600006 .18122864 .32998658 .21122742 .31799317 .22323609 .2849884 .25523377 .24598694 .26322938 .20399475 .27124024 .147995 .28224183 .08099365 .29522706 .08099365 .35324098 .08099365 .38822938 .10699463 .42922975 .19299317 .42922975 .30299378 .42922975 .30799867 .3392334 .30999757 .30822755 .31098939 .2992401 .32199098 .2992401 .32199098 .2992401 .33499146 .2992401 .33499146 .30422975 .33499146 .32322694V.4242401C.33499146 .4412384 .33499146 .4482422 .32398988 .4482422 .31900025 .4482422 .31698609 .4482422 .3039856 .43623353 .30099488 .43223573 .29100038 .42323304 .2869873 .42022706 .24899292 .4482422 .20799256 .4482422 .19299317 .4482422 .070999149 .4482422 .032989503 .38124085 .032989503 .3252411 .032989503 .29023744 .04899597 .26223756 .07598877 .24023438 .10798645 .2142334 .13598633 .2082367 .20799256 .19422913 .22999573 .19021607 .31199647 .17422486 .31199647 .10221863 .31199647 .051223756 .2769928 .011245728 .19898987 .011245728 .114990238 .011245728 .07899475 .068222049 .05999756 .1532135 .056991579 .16621399 .055999757 .17021179 .04598999 .17021179 .032989503 .17021179 .032989503 .16322327 .032989503 .1452179V.013214111C.032989503-.003753662 .032989503-.0107421879 .04399109-.0107421879 .04899597-.0107421879 .049987794-.009750366 .068984989 .009246826 .070999149 .011245728 .070999149 .013214111 .08898926 .032226564 .1329956-.009750366 .17799378-.0107421879 .19898987-.0107421879 .31399537-.0107421879 .3600006 .05621338 .3600006 .1282196V.12823487Z"/>
<path id="font_2_63" d="M.5349884 0V.0309906C.48298646 .0309906 .45799256 .0309906 .45700074 .061019899V.25221253C.45700074 .3383026 .45700074 .36932374 .42599488 .405365 .4119873 .42237855 .3789978 .4423828 .32099916 .4423828 .23699951 .4423828 .19299317 .38233949 .1769867 .34629823H.17599488V.69433596L.03199768 .6826172V.6516113C.101989749 .6516113 .10998535 .64463809 .10998535 .59580996V.076034549C.10998535 .0309906 .09899902 .0309906 .03199768 .0309906V0L.14498902 .0029907227 .25698854 0V.0309906C.18998719 .0309906 .1789856 .0309906 .1789856 .076034549V.2602234C.1789856 .36431886 .25 .42037965 .31399537 .42037965 .3769989 .42037965 .3880005 .36631776 .3880005 .30926515V.076034549C.3880005 .0309906 .3769989 .0309906 .30999757 .0309906V0L.4229889 .0029907227 .5349884 0Z"/>
<path id="font_2_55" d="M.35699464 .63479617C.35699464 .6717987 .31999208 .7050781 .2669983 .7050781 .19699097 .7050781 .11199951 .65179446 .11199951 .5457611V.43066407H.032989503V.3996582H.11199951V.07595825C.11199951 .0309906 .100997928 .0309906 .033996583 .0309906V0L.147995 .0029907227C.18798828 .0029907227 .23498535 .0029907227 .2749939 0V.0309906H.2539978C.17999268 .0309906 .17799378 .04197693 .17799378 .07795715V.3996582H.2919922V.43066407H.1749878V.5467529C.1749878 .63479617 .22299195 .68307498 .2669983 .68307498 .269989 .68307498 .2849884 .68307498 .2999878 .675827 .28799439 .6717987 .269989 .6587982 .269989 .6338043 .269989 .61079409 .28599549 .5907898 .31298829 .5907898 .34199525 .5907898 .35699464 .61079409 .35699464 .63479617Z"/>
</defs>
<path transform="matrix(1.00005,0,0,-1.00005,89.745838,59.0653)" stroke-width=".3985" stroke-linecap="butt" stroke-miterlimit="10" stroke-linejoin="miter" fill="none" stroke="#00aeef" d="M-80.148-38.26791H80.148M-80.148-25.51193H80.148M-80.148-12.75595H80.148M-80.148 0H80.148M-80.148 12.75595H80.148M-80.148 25.51193H80.148M-80.148 38.26343H80.148M-80.14682-38.26791V38.26791M-70.12846-38.26791V38.26791M-60.1101-38.26791V38.26791M-50.09175-38.26791V38.26791M-40.0734-38.26791V38.26791M-30.05505-38.26791V38.26791M-20.03668-38.26791V38.26791M-10.01834-38.26791V38.26791M0-38.26791V38.26791M10.01834-38.26791V38.26791M20.03668-38.26791V38.26791M30.05505-38.26791V38.26791M40.0734-38.26791V38.26791M50.09175-38.26791V38.26791M60.1101-38.26791V38.26791M70.12846-38.26791V38.26791M80.14682-38.26791V38.26791M80.148 38.26791"/>
<path transform="matrix(1.00005,0,0,-1.00005,89.745838,59.0653)" stroke-width=".79701" stroke-linecap="butt" stroke-miterlimit="10" stroke-linejoin="miter" fill="none" stroke="#000000" d="M-80.148 0H82.7549"/>
<path transform="matrix(1.00005,0,0,-1.00005,172.50487,59.0653)" d="M1.0361 0C-.25902 .25902-1.55415 .77707-3.1083 1.68365-1.55415 .51805-1.55415-.51805-3.1083-1.68365-1.55415-.77707-.25902-.25902 1.0361 0Z"/>
<path transform="matrix(1.00005,0,0,-1.00005,172.50487,59.0653)" stroke-width=".79701" stroke-linecap="butt" stroke-linejoin="round" fill="none" stroke="#000000" d="M1.0361 0C-.25902 .25902-1.55415 .77707-3.1083 1.68365-1.55415 .51805-1.55415-.51805-3.1083-1.68365-1.55415-.77707-.25902-.25902 1.0361 0Z"/>
<use data-text="x" xlink:href="#font_1_2" transform="matrix(9.963098,0,0,-9.963098,177.65923,61.210409)"/>
<path transform="matrix(1.00005,0,0,-1.00005,89.745838,59.0653)" stroke-width=".79701" stroke-linecap="butt" stroke-miterlimit="10" stroke-linejoin="miter" fill="none" stroke="#000000" d="M0-38.26791V45.76245"/>
<path transform="matrix(0,-1.00005,-1.00005,-0,89.745838,13.300564)" d="M1.0361 0C-.25902 .25902-1.55415 .77707-3.1083 1.68365-1.55415 .51805-1.55415-.51805-3.1083-1.68365-1.55415-.77707-.25902-.25902 1.0361 0Z"/>
<path transform="matrix(0,-1.00005,-1.00005,-0,89.745838,13.300564)" stroke-width=".79701" stroke-linecap="butt" stroke-linejoin="round" fill="none" stroke="#000000" d="M1.0361 0C-.25902 .25902-1.55415 .77707-3.1083 1.68365-1.55415 .51805-1.55415-.51805-3.1083-1.68365-1.55415-.77707-.25902-.25902 1.0361 0Z"/>
<use data-text="y" xlink:href="#font_1_3" transform="matrix(9.963098,0,0,-9.963098,87.1247,6.2096598)"/>
<path transform="matrix(1.00005,0,0,-1.00005,89.745838,59.0653)" stroke-width=".79701" stroke-linecap="butt" stroke-miterlimit="10" stroke-linejoin="miter" fill="none" stroke="#000000" d="M1.0205-38.26791H-1.0205"/>
<use data-text="-" xlink:href="#font_2_64" transform="matrix(9.963098,0,0,-9.963098,76.706188,100.54337)"/>
<use data-text="3" xlink:href="#font_2_106" transform="matrix(9.963098,0,0,-9.963098,80.02389,100.54337)"/>
<path transform="matrix(1.00005,0,0,-1.00005,89.745838,59.0653)" stroke-width=".79701" stroke-linecap="butt" stroke-miterlimit="10" stroke-linejoin="miter" fill="none" stroke="#000000" d="M1.0205-25.51193H-1.0205"/>
<use data-text="-" xlink:href="#font_2_64" transform="matrix(9.963098,0,0,-9.963098,76.706188,87.89674)"/>
<use data-text="2" xlink:href="#font_2_107" transform="matrix(9.963098,0,0,-9.963098,80.02389,87.89674)"/>
<path transform="matrix(1.00005,0,0,-1.00005,89.745838,59.0653)" stroke-width=".79701" stroke-linecap="butt" stroke-miterlimit="10" stroke-linejoin="miter" fill="none" stroke="#000000" d="M1.0205-12.75595H-1.0205"/>
<use data-text="-" xlink:href="#font_2_64" transform="matrix(9.963098,0,0,-9.963098,76.706188,75.14011)"/>
<use data-text="1" xlink:href="#font_2_82" transform="matrix(9.963098,0,0,-9.963098,80.02389,75.14011)"/>
<path transform="matrix(1.00005,0,0,-1.00005,89.745838,59.0653)" stroke-width=".79701" stroke-linecap="butt" stroke-miterlimit="10" stroke-linejoin="miter" fill="none" stroke="#000000" d="M1.0205 12.75595H-1.0205"/>
<use data-text="1" xlink:href="#font_2_82" transform="matrix(9.963098,0,0,-9.963098,80.02435,49.62683)"/>
<path transform="matrix(1.00005,0,0,-1.00005,89.745838,59.0653)" stroke-width=".79701" stroke-linecap="butt" stroke-miterlimit="10" stroke-linejoin="miter" fill="none" stroke="#000000" d="M1.0205 25.51193H-1.0205"/>
<use data-text="2" xlink:href="#font_2_107" transform="matrix(9.963098,0,0,-9.963098,80.02435,36.870195)"/>
<path transform="matrix(1.00005,0,0,-1.00005,89.745838,59.0653)" stroke-width=".79701" stroke-linecap="butt" stroke-miterlimit="10" stroke-linejoin="miter" fill="none" stroke="#000000" d="M1.0205 38.26791H-1.0205"/>
<use data-text="3" xlink:href="#font_2_106" transform="matrix(9.963098,0,0,-9.963098,80.02435,24.003548)"/>
<path transform="matrix(1.00005,0,0,-1.00005,89.745838,59.0653)" stroke-width=".79701" stroke-linecap="butt" stroke-miterlimit="10" stroke-linejoin="miter" fill="none" stroke="#000000" d="M40.07399 1.0205V-1.0205"/>
<path transform="matrix(1.00005,0,0,-1.00005,89.745838,59.0653)" d="M36.05946-11.68616H44.0885V-5.4041H36.05946Z" fill="#ffffff"/>
<use data-text="&#x03c0;" xlink:href="#font_1_1" transform="matrix(9.963098,0,0,-9.963098,126.80368,69.75583)"/>
<path transform="matrix(1.00005,0,0,-1.00005,89.745838,59.0653)" stroke-width=".79701" stroke-linecap="butt" stroke-miterlimit="10" stroke-linejoin="miter" fill="none" stroke="#000000" d="M80.148 1.0205V-1.0205"/>
<path transform="matrix(1.00005,0,0,-1.00005,89.745838,59.0653)" d="M73.64279-13.8171H86.65321V-5.4041197H73.64279Z" fill="#ffffff"/>
<use data-text="2" xlink:href="#font_3_4" transform="matrix(9.963098,0,0,-9.963098,164.38857,71.88694)"/>
<use data-text="&#x03c0;" xlink:href="#font_1_1" transform="matrix(9.963098,0,0,-9.963098,169.36981,71.88694)"/>
<path transform="matrix(1.00005,0,0,-1.00005,89.745838,59.0653)" stroke-width=".79701" stroke-linecap="butt" stroke-miterlimit="10" stroke-linejoin="miter" fill="none" stroke="#000000" d="M-40.07399 1.0205V-1.0205"/>
<path transform="matrix(1.00005,0,0,-1.00005,89.745838,59.0653)" d="M-47.96294-12.04593H-32.18506V-3.4115496H-47.96294Z" fill="#ffffff"/>
<use data-text="&#x2212;" xlink:href="#font_4_1" transform="matrix(9.963098,0,0,-9.963098,42.77649,69.284809)"/>
<use data-text="&#x03c0;" xlink:href="#font_1_1" transform="matrix(9.963098,0,0,-9.963098,50.52487,69.284809)"/>
<path transform="matrix(1.00005,0,0,-1.00005,89.745838,59.0653)" stroke-width=".79701" stroke-linecap="butt" stroke-miterlimit="10" stroke-linejoin="miter" fill="none" stroke="#000000" d="M-80.148 1.0205V-1.0205"/>
<path transform="matrix(1.00005,0,0,-1.00005,89.745838,59.0653)" d="M-90.52763-14.64732H-69.76837V-5.40409H-90.52763Z" fill="#ffffff"/>
<use data-text="&#x2212;" xlink:href="#font_4_1" transform="matrix(9.963098,0,0,-9.963098,.21037293,71.88694)"/>
<use data-text="2" xlink:href="#font_3_4" transform="matrix(9.963098,0,0,-9.963098,7.9587557,71.88694)"/>
<use data-text="&#x03c0;" xlink:href="#font_1_1" transform="matrix(9.963098,0,0,-9.963098,12.940994,71.88694)"/>
<path transform="matrix(1.00005,0,0,-1.00005,89.745838,59.0653)" stroke-width="1.19553" stroke-linecap="butt" stroke-miterlimit="10" stroke-linejoin="miter" fill="none" stroke="#ff0000" d="M-80.148 0C-80.148 0-78.33852 1.81107-77.64355 2.48827-76.94858 3.16547-75.83408 4.24284-75.13911 4.88078-74.44414 5.51872-73.32962 6.51187-72.63466 7.08607-71.9397 7.66026-70.8252 8.53094-70.13023 9.01926-69.43526 9.50754-68.32074 10.22179-67.62578 10.60538-66.9308 10.98895-65.8163 11.51964-65.12134 11.7839-64.42638 12.0482-63.31186 12.37529-62.6169 12.51013-61.92192 12.64497-60.80742 12.7557-60.11244 12.75575-59.41748 12.7558-58.30296 12.64523-57.60802 12.51053-56.91304 12.37582-55.79854 12.04906-55.10356 11.7849-54.4086 11.52075-53.29408 10.99022-52.59912 10.60674-51.90416 10.22325-50.78966 9.50916-50.09468 9.021-49.3997 8.53285-48.2852 7.6625-47.59024 7.08841-46.89526 6.51433-45.78076 5.5212-45.08578 4.88333-44.39082 4.24544-43.27632 3.16818-42.58136 2.49098-41.88638 1.81381-40.77187 .69318-40.0769 .00272-39.38193-.68771-38.26743-1.80812-37.57246-2.48535-36.8775-3.16258-35.76299-4.24025-35.06802-4.87827-34.37305-5.51627-33.25854-6.50948-32.56357-7.08374-31.8686-7.65799-30.75409-8.52873-30.05914-9.0171-29.36417-9.50548-28.24966-10.21991-27.55469-10.60362-26.85973-10.98735-25.74522-11.51833-25.05025-11.78276-24.35529-12.0472-23.24078-12.37454-22.5458-12.50955-21.85085-12.64455-20.73633-12.75554-20.04137-12.75575-19.34639-12.756-18.23189-12.6458-17.53691-12.51129-16.84195-12.37677-15.72745-12.05026-15.03249-11.78625-14.33751-11.52226-13.223-10.99185-12.52803-10.60847-11.83305-10.22511-10.71855-9.51122-10.0236-9.02315-9.32863-8.53506-8.21411-7.66475-7.51915-7.09074-6.82417-6.51672-5.70967-5.52385-5.0147-4.88605-4.31975-4.24825-3.20523-3.17107-2.51027-2.49393-1.81529-1.81677-.70079-.69609-.00581-.00563 .68912 .6848 1.80362 1.80519 2.4986 2.48244 3.19354 3.15967 4.30806 4.23729 5.00302 4.87534 5.698 5.51341 6.8125 6.50685 7.50748 7.0812 8.20244 7.65558 9.31696 8.52647 10.0119 9.01497 10.70688 9.50345 11.82138 10.218 12.51636 10.60187 13.21132 10.98573 14.32584 11.51701 15.02081 11.78159 15.71577 12.04616 16.83028 12.37361 17.52524 12.50877 18.22021 12.64394 19.33472 12.75534 20.0297 12.75575 20.72466 12.7562 21.83916 12.64626 22.53413 12.51187 23.2291 12.3775 24.3436 12.0511 25.03856 11.78723 25.73354 11.52336 26.84804 10.99326 27.54301 10.61005 28.23799 10.22684 29.3525 9.51323 30.04745 9.02528 30.74242 8.53734 31.85693 7.66718 32.5519 7.09328 33.24687 6.51938 34.36137 5.52672 35.05635 4.88898 35.75131 4.25122 36.86583 3.17395 37.56078 2.49683 38.25575 1.81972 39.37025 .6992 40.06523 .00873 40.7602-.6817 41.87471-1.80223 42.56967-2.4795 43.26463-3.15678 44.37915-4.23451 45.07411-4.87262 45.76907-5.51071 46.88358-6.50404 47.57855-7.07848 48.27353-7.65292 49.38803-8.52419 50.08301-9.01282 50.77797-9.50146 51.89247-10.21631 52.58743-10.60031 53.28241-10.9843 54.39691-11.5157 55.09189-11.78041 55.78687-12.04514 56.90137-12.37285 57.59631-12.50818 58.29129-12.64351 59.40579-12.75519 60.10077-12.75575 60.79575-12.75635 61.91025-12.64668 62.60521-12.51247 63.30019-12.37825 64.4147-12.05214 65.10965-11.78839 65.80463-11.52467 66.91913-10.99469 67.6141-10.61162 68.30907-10.22852 69.42358-9.51523 70.11855-9.02744 70.8135-8.53961 71.92801-7.66963 72.62299-7.09581 73.31795-6.52199 74.43245-5.52937 75.12743-4.8917 75.8224-4.25401 76.9369-3.17683 77.63188-2.49974 78.32683-1.82266 80.1363-.01167 80.1363-.01167"/>
<path transform="matrix(1.00005,0,0,-1.00005,89.745838,59.0653)" stroke-width="1.19553" stroke-linecap="butt" stroke-miterlimit="10" stroke-linejoin="miter" fill="none" stroke="#0000ff" d="M-80.148 25.51193C-80.148 25.51193-78.33852 27.32303-77.64355 28.00023-76.94858 28.67743-75.83408 29.7548-75.13911 30.39275-74.44414 31.03069-73.32962 32.02382-72.63466 32.59804-71.9397 33.17223-70.8252 34.04291-70.13023 34.5312-69.43526 35.0195-68.32074 35.73375-67.62578 36.11732-66.9308 36.50092-65.8163 37.0316-65.12134 37.29587-64.42638 37.56015-63.31186 37.88724-62.6169 38.02208-61.92192 38.15692-60.80742 38.26767-60.11244 38.26772-59.41748 38.26776-58.30296 38.15718-57.60802 38.02248-56.91304 37.88777-55.79854 37.56099-55.10356 37.29686-54.4086 37.03271-53.29408 36.50218-52.59912 36.1187-51.90416 35.73521-50.78966 35.0211-50.09468 34.53296-49.3997 34.0448-48.2852 33.17447-47.59024 32.60036-46.89526 32.02628-45.78076 31.03316-45.08578 30.39528-44.39082 29.7574-43.27632 28.68011-42.58136 28.00294-41.88638 27.32578-40.77187 26.20512-40.0769 25.51466-39.38193 24.8242-38.26743 23.7038-37.57246 23.02657-36.8775 22.34933-35.76299 21.27167-35.06802 20.63365-34.37305 19.99564-33.25854 19.00244-32.56357 18.42818-31.8686 17.85393-30.75409 16.98318-30.05914 16.49481-29.36417 16.00644-28.24966 15.29202-27.55469 14.9083-26.85973 14.52457-25.74522 13.99359-25.05025 13.72916-24.35529 13.46472-23.24078 13.13737-22.5458 13.00238-21.85085 12.86737-20.73633 12.7564-20.04137 12.75615-19.34639 12.7559-18.23189 12.8661-17.53691 13.00063-16.84195 13.13515-15.72745 13.46165-15.03249 13.72566-14.33751 13.98967-13.223 14.52005-12.52803 14.90343-11.83305 15.28682-10.71855 16.0007-10.0236 16.48877-9.32863 16.97685-8.21411 17.84717-7.51915 18.42117-6.82417 18.99518-5.70967 19.98807-5.0147 20.62587-4.31975 21.26367-3.20523 22.34085-2.51027 23.018-1.81529 23.69514-.70079 24.81583-.00581 25.5063 .68912 26.19676 1.80362 27.31715 2.4986 27.99438 3.19354 28.67162 4.30806 29.74924 5.00302 30.3873 5.698 31.02536 6.8125 32.0188 7.50748 32.59317 8.20244 33.16753 9.31696 34.03844 10.0119 34.52692 10.70688 35.01541 11.82138 35.72997 12.51636 36.11383 13.21132 36.4977 14.32584 37.02898 15.02081 37.29355 15.71577 37.55812 16.83028 37.88556 17.52524 38.02072 18.22021 38.15588 19.33472 38.26729 20.0297 38.26772 20.72466 38.26814 21.83916 38.15822 22.53413 38.02383 23.2291 37.88945 24.3436 37.56306 25.03856 37.29918 25.73354 37.03531 26.84804 36.50522 27.54301 36.12201 28.23799 35.7388 29.3525 35.02518 30.04745 34.53723 30.74242 34.04929 31.85693 33.17914 32.5519 32.60522 33.24687 32.03134 34.36137 31.03868 35.05635 30.40092 35.75131 29.76318 36.86583 28.68591 37.56078 28.00879 38.25575 27.33167 39.37025 26.21115 40.06523 25.52069 40.7602 24.83023 41.87471 23.70969 42.56967 23.03241 43.26463 22.35512 44.37915 21.27739 45.07411 20.63931 45.76907 20.0012 46.88358 19.00789 47.57855 18.43344 48.27353 17.859 49.38803 16.98773 50.08301 16.4991 50.77797 16.01045 51.89247 15.2956 52.58743 14.9116 53.28241 14.52762 54.39691 13.99622 55.09189 13.73149 55.78687 13.46678 56.90137 13.13907 57.59631 13.00374 58.29129 12.86841 59.40579 12.75674 60.10077 12.75615 60.79575 12.75557 61.91025 12.86525 62.60521 12.99947 63.30019 13.13367 64.4147 13.45978 65.10965 13.72351 65.80463 13.98726 66.91913 14.51723 67.6141 14.90031 68.30907 15.28339 69.42358 15.99669 70.11855 16.4845 70.8135 16.9723 71.92801 17.84229 72.62299 18.4161 73.31795 18.98994 74.43245 19.98254 75.12743 20.62022 75.8224 21.2579 76.9369 22.33507 77.63188 23.01218 78.32683 23.68927 80.1363 25.50026 80.1363 25.50026"/>
<path transform="matrix(1.00005,0,0,-1.00005,89.745838,59.0653)" stroke-width=".3985" stroke-linecap="butt" stroke-miterlimit="10" stroke-linejoin="miter" fill="none" stroke="#ff0000" d="M51.48892-14.61064 43.37044-20.40962"/>
<path transform="matrix(.81373068,-.581219,-.581219,-.81373068,141.23732,73.67669)" d="M.797 0C-.19925 .19925-1.19551 .59775-2.39102 1.29512-1.19551 .3985-1.19551-.3985-2.39102-1.29512-1.19551-.59775-.19925-.19925 .797 0Z" fill="#ff0000"/>
<path transform="matrix(.81373068,-.581219,-.581219,-.81373068,141.23732,73.67669)" stroke-width=".3985" stroke-linecap="butt" stroke-linejoin="round" fill="none" stroke="#ff0000" d="M.797 0C-.19925 .19925-1.19551 .59775-2.39102 1.29512-1.19551 .3985-1.19551-.3985-2.39102-1.29512-1.19551-.59775-.19925-.19925 .797 0Z"/>
<path transform="matrix(1.00005,0,0,-1.00005,89.745838,59.0653)" d="M-5.01442-28.57909H41.17863V-16.62377H-5.01442Z" fill="#ffffff"/>
<use data-text="y" xlink:href="#font_1_3" transform="matrix(9.963098,0,0,-9.963098,85.72763,84.158557)" fill="#ff0000"/>
<use data-text="=" xlink:href="#font_3_5" transform="matrix(9.963098,0,0,-9.963098,93.73703,84.158557)" fill="#ff0000"/>
<use data-text="s" xlink:href="#font_3_8" transform="matrix(9.963098,0,0,-9.963098,104.23813,84.158557)" fill="#ff0000"/>
<use data-text="i" xlink:href="#font_3_6" transform="matrix(9.963098,0,0,-9.963098,108.16359,84.158557)" fill="#ff0000"/>
<use data-text="n" xlink:href="#font_3_7" transform="matrix(9.963098,0,0,-9.963098,110.92337,84.158557)" fill="#ff0000"/>
<use data-text="(" xlink:href="#font_3_1" transform="matrix(9.963098,0,0,-9.963098,116.45288,84.158557)" fill="#ff0000"/>
<use data-text="x" xlink:href="#font_1_2" transform="matrix(9.963098,0,0,-9.963098,120.36035,84.158557)" fill="#ff0000"/>
<use data-text=")" xlink:href="#font_3_2" transform="matrix(9.963098,0,0,-9.963098,126.05464,84.158557)" fill="#ff0000"/>
<path transform="matrix(1.00005,0,0,-1.00005,89.745838,59.0653)" stroke-width=".3985" stroke-linecap="butt" stroke-miterlimit="10" stroke-linejoin="miter" fill="none" stroke="#0000ff" d="M30.19304 40.05615 35.71675 43.37042"/>
<path transform="matrix(-.85751286,.5145257,.5145257,.85751286,119.940387,19.007153)" d="M.797 0C-.19925 .19925-1.19551 .59775-2.39102 1.29512-1.19551 .3985-1.19551-.3985-2.39102-1.29512-1.19551-.59775-.19925-.19925 .797 0Z" fill="#0000ff"/>
<path transform="matrix(-.85751286,.5145257,.5145257,.85751286,119.940387,19.007153)" stroke-width=".3985" stroke-linecap="butt" stroke-linejoin="round" fill="none" stroke="#0000ff" d="M.797 0C-.19925 .19925-1.19551 .59775-2.39102 1.29512-1.19551 .3985-1.19551-.3985-2.39102-1.29512-1.19551-.59775-.19925-.19925 .797 0Z"/>
<path transform="matrix(1.00005,0,0,-1.00005,89.745838,59.0653)" d="M37.90855 39.58456H101.25962V51.53988H37.90855Z" fill="#ffffff"/>
<use data-text="y" xlink:href="#font_1_3" transform="matrix(9.963098,0,0,-9.963098,128.65277,15.99115)" fill="#0000ff"/>
<use data-text="=" xlink:href="#font_3_5" transform="matrix(9.963098,0,0,-9.963098,136.66217,15.99115)" fill="#0000ff"/>
<use data-text="2" xlink:href="#font_3_4" transform="matrix(9.963098,0,0,-9.963098,147.16327,15.99115)" fill="#0000ff"/>
<use data-text="+" xlink:href="#font_3_3" transform="matrix(9.963098,0,0,-9.963098,154.35663,15.99115)" fill="#0000ff"/>
<use data-text="s" xlink:href="#font_3_8" transform="matrix(9.963098,0,0,-9.963098,164.31972,15.99115)" fill="#0000ff"/>
<use data-text="i" xlink:href="#font_3_6" transform="matrix(9.963098,0,0,-9.963098,168.24518,15.99115)" fill="#0000ff"/>
<use data-text="n" xlink:href="#font_3_7" transform="matrix(9.963098,0,0,-9.963098,171.00496,15.99115)" fill="#0000ff"/>
<use data-text="(" xlink:href="#font_3_1" transform="matrix(9.963098,0,0,-9.963098,176.53447,15.99115)" fill="#0000ff"/>
<use data-text="x" xlink:href="#font_1_2" transform="matrix(9.963098,0,0,-9.963098,180.44435,15.99115)" fill="#0000ff"/>
<use data-text=")" xlink:href="#font_3_2" transform="matrix(9.963098,0,0,-9.963098,186.13864,15.99115)" fill="#0000ff"/>
<use data-text="A" xlink:href="#font_2_27" transform="matrix(9.963098,0,0,-9.963098,57.046205,112.32796)" fill="#0000ff"/>
<use data-text="v" xlink:href="#font_2_112" transform="matrix(9.963098,0,0,-9.963098,67.82628,112.32796)" fill="#0000ff"/>
<use data-text="e" xlink:href="#font_2_50" transform="matrix(9.963098,0,0,-9.963098,72.81778,112.32796)" fill="#0000ff"/>
<use data-text="r" xlink:href="#font_2_96" transform="matrix(9.963098,0,0,-9.963098,77.24141,112.32796)" fill="#0000ff"/>
<use data-text="t" xlink:href="#font_2_105" transform="matrix(9.963098,0,0,-9.963098,81.14693,112.32796)" fill="#0000ff"/>
<use data-text="i" xlink:href="#font_2_66" transform="matrix(9.963098,0,0,-9.963098,85.02258,112.32796)" fill="#0000ff"/>
<use data-text="c" xlink:href="#font_2_43" transform="matrix(9.963098,0,0,-9.963098,87.79233,112.32796)" fill="#0000ff"/>
<use data-text="a" xlink:href="#font_2_28" transform="matrix(9.963098,0,0,-9.963098,92.21596,112.32796)" fill="#0000ff"/>
<use data-text="l" xlink:href="#font_2_72" transform="matrix(9.963098,0,0,-9.963098,97.197498,112.32796)" fill="#0000ff"/>
<use data-text="s" xlink:href="#font_2_98" transform="matrix(9.963098,0,0,-9.963098,103.274997,112.32796)" fill="#0000ff"/>
<use data-text="h" xlink:href="#font_2_63" transform="matrix(9.963098,0,0,-9.963098,107.200458,112.32796)" fill="#0000ff"/>
<use data-text="i" xlink:href="#font_2_66" transform="matrix(9.963098,0,0,-9.963098,112.73993,112.32796)" fill="#0000ff"/>
<use data-text="f" xlink:href="#font_2_55" transform="matrix(9.963098,0,0,-9.963098,115.509677,112.32796)" fill="#0000ff"/>
<use data-text="t" xlink:href="#font_2_105" transform="matrix(9.963098,0,0,-9.963098,118.55838,112.32796)" fill="#0000ff"/>
</svg>
