<svg xmlns="http://www.w3.org/2000/svg" xmlns:xlink="http://www.w3.org/1999/xlink" version="1.1" width="113" height="114" viewBox="0 0 113 114">
<defs>
<path id="font_1_1" d="M.33399964 .30233766C.33999635 .32835389 .36299134 .42037965 .43299867 .42037965 .43798829 .42037965 .46199037 .42037965 .48298646 .40734864 .45498658 .402359 .43499757 .37734986 .43499757 .35334779 .43499757 .33735658 .44599916 .31835938 .47299195 .31835938 .49499513 .31835938 .5269928 .3363495 .5269928 .37635804 .5269928 .42837525 .46798707 .4423828 .43399049 .4423828 .37599183 .4423828 .34098817 .38935853 .32899476 .36634828 .3039856 .43237306 .25 .4423828 .22099304 .4423828 .116989139 .4423828 .05999756 .3133545 .05999756 .28834535 .05999756 .27833558 .069992069 .27833558 .07199097 .27833558 .07998657 .27833558 .08299255 .28033448 .084991458 .28933717 .11898804 .39535523 .18499756 .42037965 .21899414 .42037965 .23799134 .42037965 .272995 .4113617 .272995 .35334779 .272995 .32235719 .2559967 .25532533 .21899414 .11528015 .20298767 .053268434 .16799927 .011245728 .12399292 .011245728 .117996219 .011245728 .09498596 .011245728 .07398987 .024276734 .09899902 .029266358 .12098694 .05027771 .12098694 .07827759 .12098694 .105270389 .09899902 .11328125 .083999637 .11328125 .053985597 .11328125 .0289917 .08728027 .0289917 .055267335 .0289917 .009246826 .07899475-.0107421879 .12298584-.0107421879 .18899536-.0107421879 .22499085 .059280397 .22799683 .0652771 .23999024 .028274537 .27598573-.0107421879 .33599855-.0107421879 .43899537-.0107421879 .49598695 .118270877 .49598695 .14328003 .49598695 .1532898 .4869995 .1532898 .48399354 .1532898 .47499085 .1532898 .47299195 .14929199 .47099305 .14228821 .43798829 .03527832 .36999513 .011245728 .33799745 .011245728 .29899598 .011245728 .2829895 .043273927 .2829895 .07727051 .2829895 .09927368 .2889862 .121276859 .2999878 .16529846L.33399964 .30233766Z"/>
<path id="font_1_2" d="M.48599244 .38136292C.48999024 .39537049 .48999024 .39736939 .48999024 .40437318 .48999024 .42237855 .47599793 .43138124 .46099855 .43138124 .45098878 .43138124 .43499757 .42536927 .42599488 .41036988 .42399598 .405365 .41600038 .37435914 .4119873 .35635377 .40499879 .33035279 .397995 .30334474 .3919983 .27633668L.34700013 .09628296C.34298707 .08126831 .2999878 .011245728 .23399353 .011245728 .18299866 .011245728 .17199707 .055267335 .17199707 .0922699 .17199707 .1382904 .18899536 .20030213 .22299195 .28833009 .23899842 .3293457 .24299622 .3403473 .24299622 .36035157 .24299622 .405365 .21099854 .4423828 .16099549 .4423828 .06599426 .4423828 .0289917 .29733277 .0289917 .28833009 .0289917 .27833558 .038986207 .27833558 .040985109 .27833558 .050994874 .27833558 .051986696 .28033448 .056991579 .29634095 .083999637 .3903656 .12399292 .42037965 .1579895 .42037965 .1659851 .42037965 .18299866 .42037965 .18299866 .3883667 .18299866 .36335755 .17298889 .3373413 .1659851 .31834413 .12599182 .21231079 .10798645 .1552887 .10798645 .10827637 .10798645 .019256592 .17098999-.0107421879 .22999573-.0107421879 .2689972-.0107421879 .30299378 .0062561037 .33099366 .03425598 .31799317-.017745972 .30599977-.06674194 .2659912-.11973572 .23999024-.15385437 .20199585-.18309021 .1559906-.18309021 .14199829-.18309021 .09700012-.18005371 .07998657-.14074707 .09599304-.14074707 .10899353-.14074707 .12298584-.1287384 .1329956-.11973572 .14299011-.10673523 .14299011-.08773804 .14299011-.056747438 .115997318-.052734376 .10598755-.052734376 .08299255-.052734376 .049987794-.068740848 .049987794-.11773682 .049987794-.16796875 .09399414-.20507813 .1559906-.20507813 .25898744-.20507813 .3619995-.11373901 .3899994-.00074768069L.48599244 .38136292Z"/>
<path id="font_2_1" d="M.6589966 .23046875C.6759949 .23046875 .69400027 .23046875 .69400027 .25045777 .69400027 .27046205 .6759949 .27046205 .6589966 .27046205H.117996219C.100997928 .27046205 .08299255 .27046205 .08299255 .25045777 .08299255 .23046875 .100997928 .23046875 .117996219 .23046875H.6589966Z"/>
<path id="font_3_1" d="M.2939911 .16503906V.07800293C.2939911 .041992189 .2919922 .0309906 .21798706 .0309906H.19699097V0C.23799134 .0029907227 .2899933 .0029907227 .33198548 .0029907227 .37399293 .0029907227 .4269867 .0029907227 .46798707 0V.0309906H.44699098C.37298585 .0309906 .37098695 .041992189 .37098695 .07800293V.16503906H.47099305V.19602967H.37098695V.65075686C.37098695 .67074587 .37098695 .6767578 .35499574 .6767578 .34599305 .6767578 .34298707 .6767578 .33499146 .66474917L.027999878 .19602967V.16503906H.2939911M.2999878 .19602967H.055999757L.2999878 .5688019V.19602967Z"/>
<path id="font_3_2" d="M.16299439 .4569702C.116989139 .486969 .11299133 .52098086 .11299133 .5379791 .11299133 .598999 .17799378 .64100649 .24899292 .64100649 .32199098 .64100649 .38598634 .58898928 .38598634 .51698306 .38598634 .45996095 .34700013 .4119568 .2869873 .37695313L.16299439 .4569702M.30899049 .36193849C.3809967 .3989563 .42999269 .45095826 .42999269 .51698306 .42999269 .6090088 .34098817 .6660156 .25 .6660156 .1499939 .6660156 .068984989 .59199526 .068984989 .49897767 .068984989 .4809723 .070999149 .43595887 .11299133 .38894654 .12399292 .37695313 .16099549 .35194398 .18598938 .33494569 .12799073 .30592347 .041992189 .24984741 .041992189 .15072632 .041992189 .04458618 .14399719-.022460938 .24899292-.022460938 .3619995-.022460938 .45700074 .06060791 .45700074 .16773987 .45700074 .20379639 .44599916 .24885559 .4079895 .2909088 .3889923 .31193543 .37298585 .3219452 .30899049 .36193849M.20899964 .3199463 .33198548 .24183655C.3600006 .2228241 .40699769 .19277954 .40699769 .13169861 .40699769 .05760193 .33198548 .0055389406 .25 .0055389406 .1639862 .0055389406 .09199524 .067611698 .09199524 .15072632 .09199524 .20880127 .12399292 .27288819 .20899964 .3199463Z"/>
<path id="font_4_107" d="M.44898988 .17396546H.42399598C.4189911 .14398194 .4119873 .099990848 .4019928 .084991458 .394989 .07699585 .32899476 .07699585 .30699159 .07699585H.1269989L.23298645 .17996216C.3889923 .31803895 .44898988 .37210084 .44898988 .47216798 .44898988 .5860901 .35899354 .6660156 .23699951 .6660156 .12399292 .6660156 .049987794 .57411196 .049987794 .48516847 .049987794 .4291687 .099990848 .4291687 .102996829 .4291687 .11999512 .4291687 .15499878 .44117738 .15499878 .48217774 .15499878 .5081787 .13699341 .5341797 .101989749 .5341797 .09399414 .5341797 .09199524 .5341797 .08898926 .5331726 .11199951 .59806826 .1659851 .63500979 .22399903 .63500979 .31498719 .63500979 .35798646 .5541382 .35798646 .47216798 .35798646 .39196778 .30799867 .31297303 .25299073 .25097657L.06098938 .036987306C.049987794 .025985718 .049987794 .023986817 .049987794 0H.42099L.44898988 .17396546Z"/>
<path id="font_4_57" d="M.47099305 .16503906V.19602967H.37098695V.6507721C.37098695 .6707611 .37098695 .6767578 .35499574 .6767578 .34599305 .6767578 .34298707 .6767578 .33499146 .6647644L.027999878 .19602967V.16503906H.2939911V.07800293C.2939911 .041992189 .2919922 .0309906 .21798706 .0309906H.19699097V0C.23799134 .0029907227 .2899933 .0029907227 .33198548 .0029907227 .37399293 .0029907227 .4269867 .0029907227 .46798707 0V.0309906H.44699098C.37298585 .0309906 .37098695 .041992189 .37098695 .07800293V.16503906H.47099305M.2999878 .19602967H.055999757L.2999878 .56881716V.19602967Z"/>
<path id="font_4_85" d="M.33099366-.2400055C.33099366-.23701477 .33099366-.23500061 .31399537-.21800232 .18899536-.0920105 .15699768 .09700012 .15699768 .25 .15699768 .42399598 .19499207 .59799197 .31799317 .72299197 .33099366 .7350006 .33099366 .7369995 .33099366 .73999026 .33099366 .746994 .32699586 .75 .32099916 .75 .31098939 .75 .22099304 .6819916 .1619873 .5549927 .11099243 .44499208 .09899902 .33399964 .09899902 .25 .09899902 .17199707 .10998535 .050994874 .16499329-.06201172 .22499085-.18501282 .31098939-.25 .32099916-.25 .32699586-.25 .33099366-.24700928 .33099366-.2400055Z"/>
<path id="font_4_43" d="M.4149933 .119140628C.4149933 .12911988 .40499879 .12911988 .4019928 .12911988 .3929901 .12911988 .3909912 .12512207 .3889923 .119140628 .3600006 .026229859 .29499818 .014251709 .2579956 .014251709 .20498657 .014251709 .116989139 .0572052 .116989139 .21801758 .116989139 .38093568 .19898987 .42323304 .2519989 .42323304 .26098634 .42323304 .32398988 .42222596 .35899354 .38594056 .31799317 .38293458 .31199647 .3529358 .31199647 .3399353 .31199647 .31393434 .32998658 .2939453 .35798646 .2939453 .38398744 .2939453 .4039917 .3109436 .4039917 .34094239 .4039917 .40911866 .32798768 .4482422 .25099183 .4482422 .12599182 .4482422 .033996583 .3399353 .033996583 .21601868 .033996583 .08816528 .1329956-.0107421879 .24899292-.0107421879 .3829956-.0107421879 .4149933 .10914612 .4149933 .119140628Z"/>
<path id="font_4_86" d="M.2889862 .25C.2889862 .32798768 .27799989 .44898988 .22299195 .56199648 .16299439 .68499758 .07699585 .75 .066986087 .75 .06098938 .75 .056991579 .74598696 .056991579 .73999026 .056991579 .7369995 .056991579 .7350006 .07598877 .71699526 .17399597 .6179962 .23098755 .45899964 .23098755 .25 .23098755 .07899475 .19400025-.09700012 .069992069-.2230072 .056991579-.23500061 .056991579-.23701477 .056991579-.2400055 .056991579-.2460022 .06098938-.25 .066986087-.25 .07699585-.25 .16699219-.18200684 .22599793-.055007936 .2769928 .054992677 .2889862 .16600037 .2889862 .25Z"/>
</defs>
<path transform="matrix(1.00002,0,0,-1,52.612718,84.8)" stroke-width=".3985" stroke-linecap="butt" stroke-miterlimit="10" stroke-linejoin="miter" fill="none" stroke="#00aeef" d="M-45.35419 0H45.35419M-45.35419 5.66927H45.35419M-45.35419 11.33855H45.35419M-45.35419 17.00781H45.35419M-45.35419 22.6771H45.35419M-45.35419 28.34636H45.35419M-45.35419 34.01564H45.35419M-45.35419 39.6849H45.35419M-45.35419 45.35419H45.35419M-45.35419 51.02345H45.35419M-45.35419 56.69275H45.35419M-45.35419 62.36201H45.35419M-45.35419 68.0293H45.35419M-45.35419 0V68.0313M-39.6849 0V68.0313M-34.01564 0V68.0313M-28.34636 0V68.0313M-22.6771 0V68.0313M-17.00781 0V68.0313M-11.33855 0V68.0313M-5.66927 0V68.0313M0 0V68.0313M5.66927 0V68.0313M11.33855 0V68.0313M17.00781 0V68.0313M22.6771 0V68.0313M28.34636 0V68.0313M34.01564 0V68.0313M39.6849 0V68.0313M45.35219 0V68.0313M45.35419 68.0313"/>
<path transform="matrix(1.00002,0,0,-1,52.612718,84.8)" stroke-width=".3985" stroke-linecap="butt" stroke-miterlimit="10" stroke-linejoin="miter" fill="none" stroke="#000000" d="M-45.35419 0H49.46024"/>
<path transform="matrix(1.00002,0,0,-1,102.073947,84.8)" d="M.797 0C-.19925 .19925-1.19551 .59775-2.39102 1.29512-1.19551 .3985-1.19551-.3985-2.39102-1.29512-1.19551-.59775-.19925-.19925 .797 0Z"/>
<path transform="matrix(1.00002,0,0,-1,102.073947,84.8)" stroke-width=".3985" stroke-linecap="butt" stroke-linejoin="round" fill="none" stroke="#000000" d="M.797 0C-.19925 .19925-1.19551 .59775-2.39102 1.29512-1.19551 .3985-1.19551-.3985-2.39102-1.29512-1.19551-.59775-.19925-.19925 .797 0Z"/>
<use data-text="x" xlink:href="#font_1_1" transform="matrix(9.962799,0,0,-9.9626,106.5898,86.94501)"/>
<path transform="matrix(1.00002,0,0,-1,52.612718,84.8)" stroke-width=".3985" stroke-linecap="butt" stroke-miterlimit="10" stroke-linejoin="miter" fill="none" stroke="#000000" d="M0 0V72.13733"/>
<path transform="matrix(0,-1,-1.00002,-0,52.612718,12.662674)" d="M.797 0C-.19925 .19925-1.19551 .59775-2.39102 1.29512-1.19551 .3985-1.19551-.3985-2.39102-1.29512-1.19551-.59775-.19925-.19925 .797 0Z"/>
<path transform="matrix(0,-1,-1.00002,-0,52.612718,12.662674)" stroke-width=".3985" stroke-linecap="butt" stroke-linejoin="round" fill="none" stroke="#000000" d="M.797 0C-.19925 .19925-1.19551 .59775-2.39102 1.29512-1.19551 .3985-1.19551-.3985-2.39102-1.29512-1.19551-.59775-.19925-.19925 .797 0Z"/>
<use data-text="y" xlink:href="#font_1_2" transform="matrix(9.962799,0,0,-9.9626,49.99166,6.2089998)"/>
<path transform="matrix(1.00002,0,0,-1,52.612718,84.8)" stroke-width=".3985" stroke-linecap="butt" stroke-miterlimit="10" stroke-linejoin="miter" fill="none" stroke="#000000" d="M-22.6771 .45352V-.45354"/>
<path transform="matrix(1.00002,0,0,-1,52.612718,84.8)" d="M-30.03848-12.88486H-15.315701V-3.6416302H-30.03848Z" fill="#ffffff"/>
<use data-text="&#x2212;" xlink:href="#font_2_1" transform="matrix(9.962799,0,0,-9.9626,23.570137,95.858)"/>
<use data-text="4" xlink:href="#font_3_1" transform="matrix(9.962799,0,0,-9.9626,31.31829,95.858)"/>
<path transform="matrix(1.00002,0,0,-1,52.612718,84.8)" stroke-width=".3985" stroke-linecap="butt" stroke-miterlimit="10" stroke-linejoin="miter" fill="none" stroke="#000000" d="M-45.35419 .45352V-.45354"/>
<path transform="matrix(1.00002,0,0,-1,52.612718,84.8)" d="M-52.71558-12.88486H-37.992799V-3.6416302H-52.71558Z" fill="#ffffff"/>
<use data-text="&#x2212;" xlink:href="#font_2_1" transform="matrix(9.962799,0,0,-9.9626,.8926697,95.858)"/>
<use data-text="8" xlink:href="#font_3_2" transform="matrix(9.962799,0,0,-9.9626,8.640823,95.858)"/>
<path transform="matrix(1.00002,0,0,-1,52.612718,84.8)" stroke-width=".3985" stroke-linecap="butt" stroke-miterlimit="10" stroke-linejoin="miter" fill="none" stroke="#000000" d="M22.6771 .45352V-.45354"/>
<path transform="matrix(1.00002,0,0,-1,52.612718,84.8)" d="M19.19012-12.05461H26.16406V-3.6416302H19.19012Z" fill="#ffffff"/>
<use data-text="4" xlink:href="#font_3_1" transform="matrix(9.962799,0,0,-9.9626,72.79912,95.858)"/>
<path transform="matrix(1.00002,0,0,-1,52.612718,84.8)" stroke-width=".3985" stroke-linecap="butt" stroke-miterlimit="10" stroke-linejoin="miter" fill="none" stroke="#000000" d="M45.35419 .45352V-.45354"/>
<path transform="matrix(1.00002,0,0,-1,52.612718,84.8)" d="M41.86722-12.05461H48.841165V-3.6416302H41.86722Z" fill="#ffffff"/>
<use data-text="8" xlink:href="#font_3_2" transform="matrix(9.962799,0,0,-9.9626,95.47757,95.858)"/>
<path transform="matrix(1.00002,0,0,-1,52.612718,84.8)" stroke-width=".3985" stroke-linecap="butt" stroke-miterlimit="10" stroke-linejoin="miter" fill="none" stroke="#000000" d="M.45352 22.6771H-.45354"/>
<path transform="matrix(1.00002,0,0,-1,52.612718,84.8)" d="M-8.62302 18.3632H-1.6490803V26.99095H-8.62302Z" fill="#ffffff"/>
<use data-text="2" xlink:href="#font_4_107" transform="matrix(9.962799,0,0,-9.9626,44.985567,65.441)"/>
<path transform="matrix(1.00002,0,0,-1,52.612718,84.8)" stroke-width=".3985" stroke-linecap="butt" stroke-miterlimit="10" stroke-linejoin="miter" fill="none" stroke="#000000" d="M.45352 45.35419H-.45354"/>
<path transform="matrix(1.00002,0,0,-1,52.612718,84.8)" d="M-8.62302 40.98552H-1.6490803V49.72286H-8.62302Z" fill="#ffffff"/>
<use data-text="4" xlink:href="#font_4_57" transform="matrix(9.962799,0,0,-9.9626,44.985567,42.818006)"/>
<path transform="matrix(1.00002,0,0,-1,52.612718,84.8)" stroke-width=".79701" stroke-linecap="butt" stroke-miterlimit="10" stroke-linejoin="miter" fill="none" stroke="#ff0000" d="M-39.6849 34.01564H-43.91957"/>
<path transform="matrix(-1.00002,-0,0,1,8.692265,50.784364)" d="M1.0361 0C-.25902 .25902-1.55415 .77707-3.1083 1.68365-1.55415 .51805-1.55415-.51805-3.1083-1.68365-1.55415-.77707-.25902-.25902 1.0361 0Z" fill="#ff0000"/>
<path transform="matrix(-1.00002,-0,0,1,8.692265,50.784364)" stroke-width=".79701" stroke-linecap="butt" stroke-linejoin="round" fill="none" stroke="#ff0000" d="M1.0361 0C-.25902 .25902-1.55415 .77707-3.1083 1.68365-1.55415 .51805-1.55415-.51805-3.1083-1.68365-1.55415-.77707-.25902-.25902 1.0361 0Z"/>
<path transform="matrix(1.00002,0,0,-1,52.612718,84.8)" stroke-width=".79701" stroke-linecap="butt" stroke-miterlimit="10" stroke-linejoin="miter" fill="none" stroke="#ff0000" d="M-39.6849 34.01564C-39.6849 34.01564-39.3436 32.68538-39.21251 32.20471-39.0814 31.72403-38.87117 30.98822-38.7401 30.55122-38.60901 30.11424-38.39877 29.44849-38.26767 29.0552-38.13658 28.6619-37.92636 28.0662-37.79527 27.71658-37.66417 27.367-37.45395 26.84149-37.32286 26.53561-37.19177 26.22975-36.98154 25.77428-36.85045 25.51207-36.71935 25.24988-36.50912 24.86432-36.37804 24.64578-36.24695 24.42728-36.03673 24.11194-35.90562 23.93713-35.77454 23.76233-35.5643 23.51703-35.43321 23.38591-35.30212 23.2548-35.09189 23.07956-34.9608 22.99213-34.82971 22.90472-34.61949 22.79951-34.48839 22.7558-34.3573 22.7121-34.14706 22.67711-34.01599 22.6771-33.88489 22.67708-33.67465 22.71199-33.54356 22.75563-33.41248 22.79929-33.20226 22.90427-33.07117 22.99162-32.94006 23.07898-32.72984 23.25415-32.59875 23.38522-32.46767 23.5163-32.25743 23.76152-32.12633 23.93626-31.99524 24.11102-31.78502 24.42632-31.65393 24.64476-31.52283 24.8632-31.3126 25.24855-31.18152 25.5107-31.05043 25.77281-30.8402 26.22824-30.70909 26.53406-30.57802 26.83987-30.36778 27.36534-30.2367 27.71486-30.1056 28.06438-29.89537 28.65991-29.76428 29.05312-29.6332 29.44632-29.42296 30.1119-29.29189 30.54881-29.16078 30.98573-28.95055 31.7215-28.81946 32.20212-28.68837 32.68274-28.34705 34.01286-28.34705 34.01286"/>
<path transform="matrix(1.00002,0,0,-1,52.612718,84.8)" stroke-width=".79701" stroke-linecap="butt" stroke-miterlimit="10" stroke-linejoin="miter" fill="none" stroke="#ff0000" d="M-28.34636 34.01564H-17.00781"/>
<path transform="matrix(1.00002,0,0,-1,52.612718,84.8)" stroke-width=".79701" stroke-linecap="butt" stroke-miterlimit="10" stroke-linejoin="miter" fill="none" stroke="#ff0000" d="M-17.00781 34.01564C-17.00781 34.01564-16.66649 35.34589-16.5354 35.82655-16.40431 36.30724-16.19408 37.04305-16.06299 37.48004-15.9319 37.91702-15.72166 38.58278-15.59058 38.97609-15.45949 39.36937-15.24927 39.9651-15.11816 40.31468-14.98708 40.66426-14.77684 41.18979-14.64577 41.49567-14.51466 41.80153-14.30443 42.25699-14.17334 42.5192-14.04225 42.78142-13.83203 43.16695-13.70093 43.38548-13.56984 43.60399-13.35962 43.91933-13.22853 44.09413-13.09744 44.26895-12.8872 44.51424-12.7561 44.64536-12.62502 44.77647-12.4148 44.9517-12.2837 45.03914-12.1526 45.12656-11.94238 45.23177-11.8113 45.27547-11.6802 45.31917-11.46997 45.35417-11.33887 45.35419-11.2078 45.35422-10.99756 45.31927-10.86647 45.27563-10.73538 45.232-10.52515 45.127-10.39406 45.03966-10.26297 44.9523-10.05273 44.77711-9.92166 44.64604-9.79056 44.51497-9.58032 44.26974-9.44923 44.095-9.31815 43.92024-9.10793 43.60497-8.97682 43.38652-8.84573 43.16806-8.63551 42.78273-8.50443 42.52058-8.37332 42.25845-8.16309 41.80304-8.032 41.49721-7.90091 41.19139-7.69069 40.66592-7.5596 40.31642-7.4285 39.96689-7.21828 39.37135-7.08719 38.97815-6.9561 38.58496-6.74586 37.91939-6.61476 37.48247-6.48369 37.04555-6.27345 36.30978-6.14236 35.82916-6.01126 35.34853-5.66995 34.0184-5.66995 34.0184"/>
<path transform="matrix(1.00002,0,0,-1,52.612718,84.8)" stroke-width=".79701" stroke-linecap="butt" stroke-miterlimit="10" stroke-linejoin="miter" fill="none" stroke="#ff0000" d="M-5.66927 34.01564H5.66927"/>
<path transform="matrix(1.00002,0,0,-1,52.612718,84.8)" stroke-width=".79701" stroke-linecap="butt" stroke-miterlimit="10" stroke-linejoin="miter" fill="none" stroke="#ff0000" d="M5.66927 34.01564C5.66927 34.01564 6.01057 32.68538 6.14166 32.20471 6.27275 31.72403 6.48299 30.98822 6.61409 30.55122 6.74518 30.11424 6.9554 29.44849 7.08649 29.0552 7.21759 28.6619 7.42781 28.0662 7.5589 27.71658 7.68999 27.367 7.90022 26.84149 8.03133 26.53561 8.1624 26.22975 8.37263 25.77428 8.50372 25.51207 8.63481 25.24988 8.84505 24.86432 8.97614 24.64578 9.10722 24.42728 9.31746 24.11194 9.44853 23.93713 9.57964 23.76233 9.78987 23.51703 9.92096 23.38591 10.05205 23.2548 10.26227 23.07956 10.39337 22.99213 10.52446 22.90472 10.73468 22.79951 10.86577 22.7558 10.99686 22.7121 11.2071 22.67711 11.3382 22.6771 11.46928 22.67708 11.6795 22.71199 11.8106 22.75563 11.9417 22.79929 12.15192 22.90427 12.283 22.99162 12.4141 23.07898 12.62433 23.25415 12.75543 23.38522 12.8865 23.5163 13.09674 23.76152 13.22783 23.93626 13.35892 24.11102 13.56915 24.42632 13.70024 24.64476 13.83133 24.8632 14.04156 25.24855 14.17264 25.5107 14.30374 25.77281 14.51398 26.22824 14.64507 26.53406 14.77615 26.83987 14.98637 27.36534 15.11748 27.71486 15.24857 28.06438 15.45879 28.65991 15.58987 29.05312 15.72098 29.44632 15.93121 30.1119 16.0623 30.54881 16.19339 30.98573 16.40361 31.7215 16.53471 32.20212 16.6658 32.68274 17.00711 34.01286 17.00711 34.01286"/>
<path transform="matrix(1.00002,0,0,-1,52.612718,84.8)" stroke-width=".79701" stroke-linecap="butt" stroke-miterlimit="10" stroke-linejoin="miter" fill="none" stroke="#ff0000" d="M17.00781 34.01564H28.34636"/>
<path transform="matrix(1.00002,0,0,-1,52.612718,84.8)" stroke-width=".79701" stroke-linecap="butt" stroke-miterlimit="10" stroke-linejoin="miter" fill="none" stroke="#ff0000" d="M28.34636 34.01564C28.34636 34.01564 28.68768 35.34589 28.81877 35.82655 28.94986 36.30724 29.1601 37.04305 29.29118 37.48004 29.42227 37.91702 29.6325 38.58278 29.7636 38.97609 29.89468 39.36937 30.1049 39.9651 30.236 40.31468 30.3671 40.66426 30.57733 41.18979 30.70842 41.49567 30.83951 41.80153 31.04973 42.25699 31.18083 42.5192 31.31192 42.78142 31.52214 43.16695 31.65323 43.38548 31.78433 43.60399 31.99457 43.91933 32.12566 44.09413 32.25673 44.26895 32.46696 44.51424 32.59805 44.64536 32.72916 44.77647 32.93938 44.9517 33.07047 45.03914 33.20155 45.12656 33.41179 45.23177 33.54288 45.27547 33.67397 45.31917 33.8842 45.35417 34.01529 45.35419 34.1464 45.35422 34.35661 45.31927 34.4877 45.27563 34.61879 45.232 34.82901 45.127 34.96011 45.03966 35.0912 44.9523 35.30144 44.77711 35.43253 44.64604 35.56361 44.51497 35.77383 44.26974 35.90494 44.095 36.03603 43.92024 36.24625 43.60497 36.37733 43.38652 36.50844 43.16806 36.71867 42.78273 36.84976 42.52058 36.98083 42.25845 37.19107 41.80304 37.32217 41.49721 37.45326 41.19139 37.66348 40.66592 37.79457 40.31642 37.92566 39.96689 38.13591 39.37135 38.26698 38.97815 38.39807 38.58496 38.6083 37.91939 38.7394 37.48247 38.8705 37.04555 39.08072 36.30978 39.2118 35.82916 39.3429 35.34853 39.68422 34.0184 39.68422 34.0184"/>
<path transform="matrix(1.00002,0,0,-1,52.612718,84.8)" stroke-width=".79701" stroke-linecap="butt" stroke-miterlimit="10" stroke-linejoin="miter" fill="none" stroke="#ff0000" d="M39.6849 34.01564H43.91957"/>
<path transform="matrix(1.00002,0,0,-1,96.53317,50.784364)" d="M1.0361 0C-.25902 .25902-1.55415 .77707-3.1083 1.68365-1.55415 .51805-1.55415-.51805-3.1083-1.68365-1.55415-.77707-.25902-.25902 1.0361 0Z" fill="#ff0000"/>
<path transform="matrix(1.00002,0,0,-1,96.53317,50.784364)" stroke-width=".79701" stroke-linecap="butt" stroke-linejoin="round" fill="none" stroke="#ff0000" d="M1.0361 0C-.25902 .25902-1.55415 .77707-3.1083 1.68365-1.55415 .51805-1.55415-.51805-3.1083-1.68365-1.55415-.77707-.25902-.25902 1.0361 0Z"/>
<use data-text="(" xlink:href="#font_4_85" transform="matrix(9.962799,0,0,-9.9626,46.525598,109.968)"/>
<use data-text="c" xlink:href="#font_4_43" transform="matrix(9.962799,0,0,-9.9626,50.40113,109.968)"/>
<use data-text=")" xlink:href="#font_4_86" transform="matrix(9.962799,0,0,-9.9626,54.824625,109.968)"/>
</svg>
