<svg xmlns="http://www.w3.org/2000/svg" xmlns:xlink="http://www.w3.org/1999/xlink" version="1.1" width="89" height="96" viewBox="0 0 89 96">
<defs>
<path id="font_1_4" d="M.73999026 .4358673C.73999026 .5970001 .6339874 .7050781 .4850006 .7050781 .2689972 .7050781 .04899597 .47790528 .04899597 .24472046 .04899597 .07859802 .16099549-.022460938 .30499269-.022460938 .5169983-.022460938 .73999026 .19668579 .73999026 .4358673M.31098939 .0035247803C.21199036 .0035247803 .14199829 .08459473 .14199829 .21670532 .14199829 .2607422 .1559906 .4068451 .23298645 .52394106 .3019867 .62802127 .3999939 .68006899 .47898866 .68006899 .5609894 .68006899 .651001 .62402346 .651001 .4748993 .651001 .4028473 .6239929 .24671936 .5249939 .12362671 .47698976 .062576297 .394989 .0035247803 .31098939 .0035247803Z"/>
<path id="font_1_1" d="M.1789856 .114868167C.13899231 .047973634 .099990848 .033981325 .055999757 .0309906 .04399109 .02999878 .034988405 .02999878 .034988405 .010986328 .034988405 .004989624 .039993287 0 .04798889 0 .07499695 0 .10598755 .0029907227 .13398743 .0029907227 .16699219 .0029907227 .20199585 0 .23399353 0 .23999024 0 .25299073 0 .25299073 .018997193 .25299073 .02999878 .24398804 .0309906 .23699951 .0309906 .21398926 .032989503 .18998719 .04096985 .18998719 .06593323 .18998719 .077926639 .19599915 .088897708 .20399475 .102890018L.27999879 .23068238H.5309906C.5329895 .2097168 .5469971 .07392883 .5469971 .063949588 .5469971 .033981325 .49499513 .0309906 .47499085 .0309906 .46099855 .0309906 .45098878 .0309906 .45098878 .010986328 .45098878 0 .46299745 0 .46499635 0 .5059967 0 .548996 .0029907227 .58999636 .0029907227 .61499026 .0029907227 .6779938 0 .7029877 0 .70899966 0 .72099307 0 .72099307 .019989014 .72099307 .0309906 .71099856 .0309906 .69799807 .0309906 .6359863 .0309906 .6359863 .037979127 .6329956 .06694031L.57199099 .691803C.56999209 .71180728 .56999209 .7158203 .5529938 .7158203 .5369873 .7158203 .5329895 .7088165 .5269928 .69880679L.1789856 .114868167M.29899598 .26168824 .49598695 .5917816 .5279999 .26168824H.29899598Z"/>
<path id="font_1_2" d="M.1599884 .07795715C.1499939 .038986207 .147995 .0309906 .068984989 .0309906 .051986696 .0309906 .041992189 .0309906 .041992189 .010986328 .041992189 0 .050994874 0 .068984989 0H.42599488C.58399966 0 .70199587 .11791992 .70199587 .21585083 .70199587 .28778077 .6439972 .3457489 .5469971 .35673524 .651001 .37573243 .7559967 .44970704 .7559967 .5446625 .7559967 .6186218 .6899872 .6826172 .56999209 .6826172H.23399353C.21499634 .6826172 .20498657 .6826172 .20498657 .6626129 .20498657 .6516113 .21398926 .6516113 .23298645 .6516113 .23498535 .6516113 .2539978 .6516113 .2709961 .6496124 .2889862 .6476135 .2979889 .64660647 .2979889 .6336212 .2979889 .6296234 .29699708 .62661746 .2939911 .614624L.1599884 .07795715M.31098939 .36573792 .37298585 .6136322C.38198854 .64860537 .38398744 .6516113 .4269867 .6516113H.55599978C.6439972 .6516113 .6649933 .5926361 .6649933 .5486603 .6649933 .46069337 .57899478 .36573792 .45700074 .36573792H.31098939M.2659912 .0309906C.2519989 .0309906 .25 .0309906 .24398804 .03199768 .23399353 .032989503 .23098755 .033996583 .23098755 .04197693 .23098755 .04498291 .23098755 .04698181 .23599243 .064971927L.30499269 .34375H.49398805C.58999636 .34375 .60899356 .2698059 .60899356 .22683716 .60899356 .12791443 .519989 .0309906 .4019928 .0309906H.2659912Z"/>
<path id="font_1_3" d="M.7599945 .69506838C.7599945 .69807437 .7579956 .7050781 .7489929 .7050781 .74598696 .7050781 .7449951 .70407107 .73399356 .69306948L.6639862 .61602786C.6549988 .6300354 .60899356 .7050781 .49798585 .7050781 .2749939 .7050781 .049987794 .48391725 .049987794 .25172425 .049987794 .08659363 .16799927-.022460938 .32099916-.022460938 .4079895-.022460938 .48399354 .017532349 .5369873 .063583377 .6299896 .14564514 .6469879 .2367096 .6469879 .23971558 .6469879 .24972534 .6369934 .24972534 .6349945 .24972534 .6289978 .24972534 .6239929 .24772644 .621994 .23971558 .61299136 .21069336 .58999636 .13963318 .5209961 .081588748 .45199586 .025543213 .3889923 .008529663 .33699037 .008529663 .24699402 .008529663 .14099121 .060577394 .14099121 .21670532 .14099121 .27374269 .1619873 .43588258 .2619934 .55296328 .32299806 .62402346 .4169922 .67407229 .5059967 .67407229 .60798647 .67407229 .6669922 .5970001 .6669922 .48091126 .6669922 .44088746 .6639862 .43988038 .6639862 .4298706 .6639862 .41986085 .6749878 .41986085 .67900088 .41986085 .69200137 .41986085 .69200137 .42185975 .69699099 .43988038L.7599945 .69506838Z"/>
</defs>
<path transform="matrix(1.00006,0,0,-1.00003,44.61853,50.53916)" d="M.85045 0C.85045 .46968 .46968 .85045 0 .85045-.46968 .85045-.85045 .46968-.85045 0-.85045-.46968-.46968-.85045 0-.85045 .46968-.85045 .85045-.46968 .85045 0ZM0 0"/>
<path transform="matrix(1.00006,0,0,-1.00003,44.61853,50.53916)" stroke-width=".3985" stroke-linecap="butt" stroke-miterlimit="10" stroke-linejoin="miter" fill="none" stroke="#000000" d="M.85045 0C.85045 .46968 .46968 .85045 0 .85045-.46968 .85045-.85045 .46968-.85045 0-.85045-.46968-.46968-.85045 0-.85045 .46968-.85045 .85045-.46968 .85045 0ZM0 0"/>
<use data-text="O" xlink:href="#font_1_4" transform="matrix(9.963197,0,0,-9.962899,33.221849,60.86747)"/>
<path transform="matrix(1.00006,0,0,-1.00003,44.61853,50.53916)" d="M-24.66248-34.01726C-24.66248-33.54756-25.04324-33.16681-25.51294-33.16681-25.98264-33.16681-26.3634-33.54756-26.3634-34.01726-26.3634-34.48695-25.98264-34.86772-25.51294-34.86772-25.04324-34.86772-24.66248-34.48695-24.66248-34.01726ZM-25.51294-34.01726"/>
<path transform="matrix(1.00006,0,0,-1.00003,44.61853,50.53916)" stroke-width=".3985" stroke-linecap="butt" stroke-miterlimit="10" stroke-linejoin="miter" fill="none" stroke="#000000" d="M-24.66248-34.01726C-24.66248-33.54756-25.04324-33.16681-25.51294-33.16681-25.98264-33.16681-26.3634-33.54756-26.3634-34.01726-26.3634-34.48695-25.98264-34.86772-25.51294-34.86772-25.04324-34.86772-24.66248-34.48695-24.66248-34.01726ZM-25.51294-34.01726"/>
<use data-text="A" xlink:href="#font_1_1" transform="matrix(9.963197,0,0,-9.962899,8.111336,94.8855)"/>
<path transform="matrix(1.00006,0,0,-1.00003,44.61853,50.53916)" d="M26.3634-34.01726C26.3634-33.54756 25.98264-33.16681 25.51294-33.16681 25.04324-33.16681 24.66248-33.54756 24.66248-34.01726 24.66248-34.48695 25.04324-34.86772 25.51294-34.86772 25.98264-34.86772 26.3634-34.48695 26.3634-34.01726ZM25.51294-34.01726"/>
<path transform="matrix(1.00006,0,0,-1.00003,44.61853,50.53916)" stroke-width=".3985" stroke-linecap="butt" stroke-miterlimit="10" stroke-linejoin="miter" fill="none" stroke="#000000" d="M26.3634-34.01726C26.3634-33.54756 25.98264-33.16681 25.51294-33.16681 25.04324-33.16681 24.66248-33.54756 24.66248-34.01726 24.66248-34.48695 25.04324-34.86772 25.51294-34.86772 25.98264-34.86772 26.3634-34.48695 26.3634-34.01726ZM25.51294-34.01726"/>
<use data-text="B" xlink:href="#font_1_2" transform="matrix(9.963197,0,0,-9.962899,73.653278,94.8855)"/>
<path transform="matrix(1.00006,0,0,-1.00003,44.61853,50.53916)" d="M-15.4778 39.28989C-15.4778 39.75958-15.85857 40.14035-16.32826 40.14035-16.79794 40.14035-17.17871 39.75958-17.17871 39.28989-17.17871 38.82019-16.79794 38.43942-16.32826 38.43942-15.85857 38.43942-15.4778 38.82019-15.4778 39.28989ZM-16.32826 39.28989"/>
<path transform="matrix(1.00006,0,0,-1.00003,44.61853,50.53916)" stroke-width=".3985" stroke-linecap="butt" stroke-miterlimit="10" stroke-linejoin="miter" fill="none" stroke="#000000" d="M-15.4778 39.28989C-15.4778 39.75958-15.85857 40.14035-16.32826 40.14035-16.79794 40.14035-17.17871 39.75958-17.17871 39.28989-17.17871 38.82019-16.79794 38.43942-16.32826 38.43942-15.85857 38.43942-15.4778 38.82019-15.4778 39.28989ZM-16.32826 39.28989"/>
<use data-text="C" xlink:href="#font_1_3" transform="matrix(9.963197,0,0,-9.962899,16.935875,7.7278749)"/>
<path transform="matrix(1.00006,0,0,-1.00003,44.61853,50.53916)" d="M-25.51294-34.01726H25.51294L-16.32826 39.28989-25.51294-34.01726" fill="#3333ff"/>
<path transform="matrix(1.00006,0,0,-1.00003,44.61853,50.53916)" stroke-width=".3985" stroke-linecap="butt" stroke-miterlimit="10" stroke-linejoin="miter" fill="none" stroke="#0000ff" d="M-25.51294-34.01726H25.51294L-16.32826 39.28989-25.51294-34.01726"/>
<g>
<path transform="matrix(1.00006,0,0,-1.00003,44.61853,50.53916)" d="M-25.51294-34.01726H25.51294L-39.28989 16.32826-25.51294-34.01726" fill="#b3b3ff" fill-opacity=".5"/>
<path transform="matrix(1.00006,0,0,-1.00003,44.61853,50.53916)" stroke-width=".3985" stroke-linecap="butt" stroke-miterlimit="10" stroke-linejoin="miter" fill="none" stroke="#0000ff" stroke-opacity=".5" d="M-25.51294-34.01726H25.51294L-39.28989 16.32826-25.51294-34.01726"/>
</g>
<g>
<path transform="matrix(1.00006,0,0,-1.00003,44.61853,50.53916)" d="M-25.51294-34.01726H25.51294L0 42.52156-25.51294-34.01726" fill="#b3b3ff" fill-opacity=".5"/>
<path transform="matrix(1.00006,0,0,-1.00003,44.61853,50.53916)" stroke-width=".3985" stroke-linecap="butt" stroke-miterlimit="10" stroke-linejoin="miter" fill="none" stroke="#0000ff" stroke-opacity=".5" d="M-25.51294-34.01726H25.51294L0 42.52156-25.51294-34.01726"/>
</g>
<g>
<path transform="matrix(1.00006,0,0,-1.00003,44.61853,50.53916)" d="M-25.51294-34.01726H25.51294V34.01726L-25.51294-34.01726" fill="#b3b3ff" fill-opacity=".5"/>
<path transform="matrix(1.00006,0,0,-1.00003,44.61853,50.53916)" stroke-width=".3985" stroke-linecap="butt" stroke-miterlimit="10" stroke-linejoin="miter" fill="none" stroke="#0000ff" stroke-opacity=".5" d="M-25.51294-34.01726H25.51294V34.01726L-25.51294-34.01726"/>
</g>
<g>
<path transform="matrix(1.00006,0,0,-1.00003,44.61853,50.53916)" d="M-25.51294-34.01726H25.51294L42.52156 0-25.51294-34.01726" fill="#b3b3ff" fill-opacity=".5"/>
<path transform="matrix(1.00006,0,0,-1.00003,44.61853,50.53916)" stroke-width=".3985" stroke-linecap="butt" stroke-miterlimit="10" stroke-linejoin="miter" fill="none" stroke="#0000ff" stroke-opacity=".5" d="M-25.51294-34.01726H25.51294L42.52156 0-25.51294-34.01726"/>
</g>
<path transform="matrix(1.00006,0,0,-1.00003,44.61853,50.53916)" stroke-width=".3985" stroke-linecap="butt" stroke-miterlimit="10" stroke-linejoin="miter" fill="none" stroke="#0000ff" d="M42.52063 0C42.52063 23.48378 23.48378 42.52063 0 42.52063-23.48378 42.52063-42.52063 23.48378-42.52063 0-42.52063-23.48378-23.48378-42.52063 0-42.52063 23.48378-42.52063 42.52063-23.48378 42.52063 0ZM0 0"/>
</svg>
