<svg xmlns="http://www.w3.org/2000/svg" xmlns:xlink="http://www.w3.org/1999/xlink" version="1.1" width="213" height="114" viewBox="0 0 213 114">
<defs>
<path id="font_1_6" d="M.44898988 .20022583C.44898988 .3193512 .36698915 .41944886 .25898744 .41944886 .21099854 .41944886 .16799927 .40345765 .13198853 .36842347V.5637665C.1519928 .5577698 .18499756 .55078127 .21699524 .55078127 .33999635 .55078127 .4099884 .6417694 .4099884 .6547699 .4099884 .6607666 .40699769 .6657715 .3999939 .6657715 .39898683 .6657715 .39698792 .6657715 .3919983 .66278079 .37199403 .6537781 .32299806 .6337738 .2559967 .6337738 .21598816 .6337738 .16999817 .6407776 .12298584 .6617737 .114990238 .66477969 .11299133 .66477969 .11099243 .66477969 .100997928 .66477969 .100997928 .6567688 .100997928 .6407776V.34439088C.100997928 .32637025 .100997928 .31835938 .114990238 .31835938 .12199402 .31835938 .12399292 .32136537 .12799073 .32736207 .13899231 .3433838 .17599488 .39746095 .25698854 .39746095 .30899049 .39746095 .33399964 .35139466 .34199525 .33337403 .35798646 .29632569 .3600006 .25727845 .3600006 .20722962 .3600006 .17222595 .3600006 .11222839 .33599855 .07035828 .31199647 .031463624 .2749939 .0055389406 .22898865 .0055389406 .1559906 .0055389406 .09899902 .058380128 .08198547 .11723328 .084991458 .1162262 .08799744 .115234378 .09899902 .115234378 .13198853 .115234378 .14898682 .14022827 .14898682 .16423035 .14898682 .18823242 .13198853 .21322632 .09899902 .21322632 .084991458 .21322632 .049987794 .20622254 .049987794 .16023255 .049987794 .07434082 .11898804-.022460938 .23098755-.022460938 .34700013-.022460938 .44898988 .073349 .44898988 .20022583Z"/>
<path id="font_1_1" d="M.45999146 .31976319C.45999146 .39982606 .45498658 .47988893 .41999818 .5539398 .37399293 .65000918 .2919922 .6660156 .25 .6660156 .18998719 .6660156 .116989139 .64001467 .07598877 .54693606 .04399109 .47789 .038986207 .39982606 .038986207 .31976319 .038986207 .24472046 .042999269 .15464783 .083999637 .07859802 .1269989-.0024719239 .19999695-.022460938 .24899292-.022460938 .30299378-.022460938 .3789978-.0014648438 .4229889 .09359741 .45498658 .16265869 .45999146 .2407074 .45999146 .31976319M.24899292-.00047302247C.20999146-.00047302247 .15098572 .024551392 .1329956 .12062073 .12199402 .18066406 .12199402 .2727356 .12199402 .3317871 .12199402 .39582826 .12199402 .46188355 .12998963 .5159149 .14898682 .63500979 .22399903 .64401248 .24899292 .64401248 .28199769 .64401248 .34799195 .6259918 .36698915 .52693179 .3769989 .47088624 .3769989 .39482118 .3769989 .3317871 .3769989 .25672914 .3769989 .18867493 .3659973 .12461853 .35099793 .029556275 .2939911-.00047302247 .24899292-.00047302247Z"/>
<path id="font_1_2" d="M.2939911 .64004519C.2939911 .66400149 .2939911 .6660156 .2709961 .6660156 .20899964 .60227969 .12098694 .60227969 .08898926 .60227969V.57128909C.10899353 .57128909 .16799927 .57128909 .21998596 .5972748V.07902527C.21998596 .042999269 .21699524 .0309906 .1269989 .0309906H.09498596V0C.12998963 .0029907227 .21699524 .0029907227 .25698854 .0029907227 .29699708 .0029907227 .38398744 .0029907227 .4189911 0V.0309906H.3869934C.29699708 .0309906 .2939911 .041992189 .2939911 .07902527V.64004519Z"/>
<path id="font_1_3" d="M.1269989 .07699585 .23298645 .18003845C.3889923 .31811524 .44898988 .3721466 .44898988 .47216798 .44898988 .5860901 .35899354 .6660156 .23699951 .6660156 .12399292 .6660156 .049987794 .57411196 .049987794 .48516847 .049987794 .4291687 .099990848 .4291687 .102996829 .4291687 .11999512 .4291687 .15499878 .44117738 .15499878 .48217774 .15499878 .5081787 .13699341 .5341797 .101989749 .5341797 .09399414 .5341797 .09199524 .5341797 .08898926 .5331726 .11199951 .59806826 .1659851 .63500979 .22399903 .63500979 .31498719 .63500979 .35798646 .5541382 .35798646 .47216798 .35798646 .39215089 .30799867 .31311036 .25299073 .25108338L.06098938 .036987306C.049987794 .025985718 .049987794 .023986817 .049987794 0H.42099L.44898988 .17404175H.42399598C.4189911 .14402771 .4119873 .1000061 .4019928 .084991458 .394989 .07699585 .32899476 .07699585 .30699159 .07699585H.1269989Z"/>
<path id="font_1_4" d="M.2899933 .35191346C.37199403 .37893678 .42999269 .4490509 .42999269 .52809146 .42999269 .6100464 .34199525 .6660156 .24598694 .6660156 .14498902 .6660156 .068984989 .60606387 .068984989 .53009036 .068984989 .49710084 .09098816 .47808839 .11999512 .47808839 .15098572 .47808839 .17098999 .50009158 .17098999 .5290985 .17098999 .57910159 .12399292 .57910159 .10899353 .57910159 .13999939 .62802127 .20599365 .64100649 .24198914 .64100649 .2829895 .64100649 .33799745 .6190338 .33799745 .5290985 .33799745 .51708987 .33599855 .45906068 .30999757 .4149933 .27999879 .36691285 .24598694 .36390687 .22099304 .36291505 .21299744 .36190797 .18899536 .35990907 .18199158 .35990907 .17399597 .35890199 .16699219 .35791017 .16699219 .3479004 .16699219 .33691407 .17399597 .33691407 .19099427 .33691407H.23498535C.31698609 .33691407 .35398866 .2686615 .35398866 .17037964 .35398866 .034469606 .2849884 .0055389406 .24099732 .0055389406 .19799805 .0055389406 .12298584 .022491456 .08799744 .08137512 .12298584 .07637024 .1539917 .09837341 .1539917 .1363678 .1539917 .17237854 .1269989 .19238281 .09799194 .19238281 .07398987 .19238281 .041992189 .17837525 .041992189 .1343689 .041992189 .043441774 .1349945-.022460938 .24398804-.022460938 .3659973-.022460938 .45700074 .06838989 .45700074 .17037964 .45700074 .252594 .3939972 .33088685 .2899933 .35191346Z"/>
<path id="font_1_8" d="M.16299439 .4569702C.116989139 .486969 .11299133 .52098086 .11299133 .5379791 .11299133 .598999 .17799378 .64100649 .24899292 .64100649 .32199098 .64100649 .38598634 .58898928 .38598634 .51698306 .38598634 .45996095 .34700013 .4119568 .2869873 .37695313L.16299439 .4569702M.30899049 .36193849C.3809967 .3989563 .42999269 .45095826 .42999269 .51698306 .42999269 .6090088 .34098817 .6660156 .25 .6660156 .1499939 .6660156 .068984989 .59199526 .068984989 .49897767 .068984989 .4809723 .070999149 .43595887 .11299133 .38894654 .12399292 .37695313 .16099549 .35194398 .18598938 .33494569 .12799073 .30592347 .041992189 .24984741 .041992189 .15072632 .041992189 .04458618 .14399719-.022460938 .24899292-.022460938 .3619995-.022460938 .45700074 .06060791 .45700074 .16773987 .45700074 .20379639 .44599916 .24885559 .4079895 .2909088 .3889923 .31193543 .37298585 .3219452 .30899049 .36193849M.20899964 .3199463 .33198548 .24183655C.3600006 .2228241 .40699769 .19277954 .40699769 .13169861 .40699769 .05760193 .33198548 .0055389406 .25 .0055389406 .1639862 .0055389406 .09199524 .067611698 .09199524 .15072632 .09199524 .20880127 .12399292 .27288819 .20899964 .3199463Z"/>
<path id="font_1_7" d="M.13198853 .327713V.35173036C.13198853 .6047821 .2559967 .64100649 .30699159 .64100649 .33099366 .64100649 .37298585 .634964 .394989 .6007538 .37998963 .6007538 .33999635 .6007538 .33999635 .5557556 .33999635 .524765 .3639984 .5097656 .38598634 .5097656 .4019928 .5097656 .43199159 .51875308 .43199159 .5577545 .43199159 .6178589 .3880005 .6660156 .30499269 .6660156 .1769867 .6660156 .041992189 .5367584 .041992189 .31570436 .041992189 .048553468 .1579895-.022460938 .25099183-.022460938 .3619995-.022460938 .45700074 .07156372 .45700074 .2036438 .45700074 .33070375 .36799623 .4267578 .25698854 .4267578 .18899536 .4267578 .1519928 .37573243 .13198853 .327713M.25099183 .0055389406C.18798828 .0055389406 .1579895 .06556702 .1519928 .080566409 .13398743 .127594 .13398743 .2076416 .13398743 .22564698 .13398743 .30369569 .1659851 .40374757 .2559967 .40374757 .27198792 .40374757 .31799317 .40374757 .34899903 .34172059 .36698915 .30470277 .36698915 .2536621 .36698915 .20463562 .36698915 .15661621 .36698915 .10658264 .34999085 .0705719 .31999208 .010528564 .27398683 .0055389406 .25099183 .0055389406Z"/>
<path id="font_1_5" d="M.2939911 .16503906V.07800293C.2939911 .041992189 .2919922 .0309906 .21798706 .0309906H.19699097V0C.23799134 .0029907227 .2899933 .0029907227 .33198548 .0029907227 .37399293 .0029907227 .4269867 .0029907227 .46798707 0V.0309906H.44699098C.37298585 .0309906 .37098695 .041992189 .37098695 .07800293V.16503906H.47099305V.19602967H.37098695V.65075686C.37098695 .67074587 .37098695 .6767578 .35499574 .6767578 .34599305 .6767578 .34298707 .6767578 .33499146 .66474917L.027999878 .19602967V.16503906H.2939911M.2999878 .19602967H.055999757L.2999878 .5688019V.19602967Z"/>
</defs>
<path transform="matrix(1.00003,0,0,-1.00003,15.925034,101.29957)" stroke-width=".3985" stroke-linecap="butt" stroke-miterlimit="10" stroke-linejoin="miter" fill="none" stroke="#00aeef" d="M0 0H183.68503M0 7.65375H183.68503M0 15.30751H183.68503M0 22.96126H183.68503M0 30.61504H183.68503M0 38.26878H183.68503M0 45.92255H183.68503M0 53.57631H183.68503M0 61.23007H183.68503M0 68.88382H183.68503M0 76.53758H183.68503M0 84.19135H183.68503M0 91.8424H183.68503M0 0V91.84511M30.61417 0V91.84511M61.22833 0V91.84511M91.8425 0V91.84511M122.45668 0V91.84511M153.07086 0V91.84511M183.67964 0V91.84511M183.68503 91.84511"/>
<path transform="matrix(1.00003,0,0,-1.00003,15.925034,101.29957)" stroke-width=".3985" stroke-linecap="butt" stroke-miterlimit="10" stroke-linejoin="miter" fill="none" stroke="#000000" d="M0 0H194.93448"/>
<path transform="matrix(1.00003,0,0,-1.00003,210.86537,101.29957)" d="M.797 0C-.19925 .19925-1.19551 .59775-2.39102 1.29512-1.19551 .3985-1.19551-.3985-2.39102-1.29512-1.19551-.59775-.19925-.19925 .797 0Z"/>
<path transform="matrix(1.00003,0,0,-1.00003,210.86537,101.29957)" stroke-width=".3985" stroke-linecap="butt" stroke-linejoin="round" fill="none" stroke="#000000" d="M.797 0C-.19925 .19925-1.19551 .59775-2.39102 1.29512-1.19551 .3985-1.19551-.3985-2.39102-1.29512-1.19551-.59775-.19925-.19925 .797 0Z"/>
<path transform="matrix(1.00003,0,0,-1.00003,15.925034,101.29957)" stroke-width=".3985" stroke-linecap="butt" stroke-miterlimit="10" stroke-linejoin="miter" fill="none" stroke="#000000" d="M0 0V98.5026"/>
<path transform="matrix(0,-1.00003,-1.00003,-0,15.925034,2.7940064)" d="M.797 0C-.19925 .19925-1.19551 .59775-2.39102 1.29512-1.19551 .3985-1.19551-.3985-2.39102-1.29512-1.19551-.59775-.19925-.19925 .797 0Z"/>
<path transform="matrix(0,-1.00003,-1.00003,-0,15.925034,2.7940064)" stroke-width=".3985" stroke-linecap="butt" stroke-linejoin="round" fill="none" stroke="#000000" d="M.797 0C-.19925 .19925-1.19551 .59775-2.39102 1.29512-1.19551 .3985-1.19551-.3985-2.39102-1.29512-1.19551-.59775-.19925-.19925 .797 0Z"/>
<path transform="matrix(1.00003,0,0,-1.00003,15.925034,101.29957)" stroke-width=".3985" stroke-linecap="butt" stroke-miterlimit="10" stroke-linejoin="miter" fill="none" stroke="#000000" d="M30.61417 .6123V-.6123"/>
<use data-text="5" xlink:href="#font_1_6" transform="matrix(9.962899,0,0,-9.962899,41.558805,111.85289)"/>
<use data-text="0" xlink:href="#font_1_1" transform="matrix(9.962899,0,0,-9.962899,46.540258,111.85289)"/>
<path transform="matrix(1.00003,0,0,-1.00003,15.925034,101.29957)" stroke-width=".3985" stroke-linecap="butt" stroke-miterlimit="10" stroke-linejoin="miter" fill="none" stroke="#000000" d="M61.22833 .6123V-.6123"/>
<use data-text="1" xlink:href="#font_1_2" transform="matrix(9.962899,0,0,-9.962899,69.68265,111.85289)"/>
<use data-text="0" xlink:href="#font_1_1" transform="matrix(9.962899,0,0,-9.962899,74.6641,111.85289)"/>
<use data-text="0" xlink:href="#font_1_1" transform="matrix(9.962899,0,0,-9.962899,79.64555,111.85289)"/>
<path transform="matrix(1.00003,0,0,-1.00003,15.925034,101.29957)" stroke-width=".3985" stroke-linecap="butt" stroke-miterlimit="10" stroke-linejoin="miter" fill="none" stroke="#000000" d="M91.8425 .6123V-.6123"/>
<use data-text="1" xlink:href="#font_1_2" transform="matrix(9.962899,0,0,-9.962899,100.29757,111.85289)"/>
<use data-text="5" xlink:href="#font_1_6" transform="matrix(9.962899,0,0,-9.962899,105.27902,111.85289)"/>
<use data-text="0" xlink:href="#font_1_1" transform="matrix(9.962899,0,0,-9.962899,110.260478,111.85289)"/>
<path transform="matrix(1.00003,0,0,-1.00003,15.925034,101.29957)" stroke-width=".3985" stroke-linecap="butt" stroke-miterlimit="10" stroke-linejoin="miter" fill="none" stroke="#000000" d="M122.45668 .6123V-.6123"/>
<use data-text="2" xlink:href="#font_1_3" transform="matrix(9.962899,0,0,-9.962899,130.91349,111.85289)"/>
<use data-text="0" xlink:href="#font_1_1" transform="matrix(9.962899,0,0,-9.962899,135.89495,111.85289)"/>
<use data-text="0" xlink:href="#font_1_1" transform="matrix(9.962899,0,0,-9.962899,140.8764,111.85289)"/>
<path transform="matrix(1.00003,0,0,-1.00003,15.925034,101.29957)" stroke-width=".3985" stroke-linecap="butt" stroke-miterlimit="10" stroke-linejoin="miter" fill="none" stroke="#000000" d="M153.07086 .6123V-.6123"/>
<use data-text="2" xlink:href="#font_1_3" transform="matrix(9.962899,0,0,-9.962899,161.52841,111.85289)"/>
<use data-text="5" xlink:href="#font_1_6" transform="matrix(9.962899,0,0,-9.962899,166.50986,111.85289)"/>
<use data-text="0" xlink:href="#font_1_1" transform="matrix(9.962899,0,0,-9.962899,171.49132,111.85289)"/>
<path transform="matrix(1.00003,0,0,-1.00003,15.925034,101.29957)" stroke-width=".3985" stroke-linecap="butt" stroke-miterlimit="10" stroke-linejoin="miter" fill="none" stroke="#000000" d="M183.68503 .6123V-.6123"/>
<use data-text="3" xlink:href="#font_1_4" transform="matrix(9.962899,0,0,-9.962899,192.14333,111.85289)"/>
<use data-text="0" xlink:href="#font_1_1" transform="matrix(9.962899,0,0,-9.962899,197.12479,111.85289)"/>
<use data-text="0" xlink:href="#font_1_1" transform="matrix(9.962899,0,0,-9.962899,202.10623,111.85289)"/>
<path transform="matrix(1.00003,0,0,-1.00003,15.925034,101.29957)" stroke-width=".3985" stroke-linecap="butt" stroke-miterlimit="10" stroke-linejoin="miter" fill="none" stroke="#000000" d="M1.22458 30.61504H-1.2246"/>
<use data-text="8" xlink:href="#font_1_8" transform="matrix(9.962899,0,0,-9.962899,6.1987459,73.893749)"/>
<path transform="matrix(1.00003,0,0,-1.00003,15.925034,101.29957)" stroke-width=".3985" stroke-linecap="butt" stroke-miterlimit="10" stroke-linejoin="miter" fill="none" stroke="#000000" d="M1.22458 61.23007H-1.2246"/>
<use data-text="1" xlink:href="#font_1_2" transform="matrix(9.962899,0,0,-9.962899,1.2175903,43.277826)"/>
<use data-text="6" xlink:href="#font_1_7" transform="matrix(9.962899,0,0,-9.962899,6.1990435,43.277826)"/>
<path transform="matrix(1.00003,0,0,-1.00003,15.925034,101.29957)" stroke-width=".3985" stroke-linecap="butt" stroke-miterlimit="10" stroke-linejoin="miter" fill="none" stroke="#000000" d="M1.22458 91.84511H-1.2246"/>
<use data-text="2" xlink:href="#font_1_3" transform="matrix(9.962899,0,0,-9.962899,1.2175903,12.661903)"/>
<use data-text="4" xlink:href="#font_1_5" transform="matrix(9.962899,0,0,-9.962899,6.1990435,12.661903)"/>
<path transform="matrix(1.00003,0,0,-1.00003,15.925034,101.29957)" stroke-width="1.19553" stroke-linecap="butt" stroke-miterlimit="10" stroke-linejoin="miter" fill="none" stroke="#ff0000" d="M0 15.30751C0 15.30751 .67982 16.3949 .99568 17.63904 1.31154 18.88318 1.84792 21.97559 2.27657 24.27441 2.70522 26.57324 3.48772 31.20375 4.08508 34.2074 4.68243 37.21103 5.78549 42.67165 6.58192 45.92255 7.37834 49.17345 8.82973 54.63405 9.82524 57.63768 10.82074 60.64133 12.59265 65.27185 13.75688 67.57068 14.9211 69.86949 16.93915 72.9619 18.21614 74.20605 19.49313 75.45018 21.64404 76.53758 22.9606 76.53758 24.27719 76.53758 26.42809 75.45018 27.70508 74.20605 28.98206 72.9619 31.00012 69.86949 32.16434 67.57068 33.32857 65.27185 35.10048 60.64133 36.09598 57.63768 37.09149 54.63405 38.54288 49.17345 39.33931 45.92255 40.13574 42.67165 41.23878 37.21103 41.83614 34.2074 42.4335 31.20375 43.216 26.57324 43.64465 24.27441 44.0733 21.97559 44.60968 18.88318 44.92554 17.63904 45.2414 16.3949 45.64496 15.30751 45.92125 15.30751 46.19754 15.30751 46.60107 16.3949 46.91695 17.63904 47.23282 18.88318 47.76917 21.97559 48.19781 24.27441 48.62646 26.57324 49.40898 31.20375 50.00633 34.2074 50.6037 37.21103 51.70674 42.67165 52.50317 45.92255 53.29962 49.17345 54.75099 54.63405 55.7465 57.63768 56.74202 60.64133 58.51393 65.27185 59.67815 67.57068 60.84236 69.86949 62.86041 72.9619 64.1374 74.20605 65.41441 75.45018 67.5653 76.53758 68.88188 76.53758 70.19844 76.53758 72.34933 75.45018 73.62634 74.20605 74.90334 72.9619 76.92139 69.86949 78.0856 67.57068 79.24982 65.27185 81.02173 60.64133 82.01726 57.63768 83.01276 54.63405 84.46413 49.17345 85.26056 45.92255 86.05699 42.67165 87.16005 37.21103 87.75742 34.2074 88.35475 31.20375 89.13728 26.57324 89.56593 24.27441 89.99457 21.97559 90.53093 18.88318 90.8468 17.63904 91.16267 16.3949 91.56621 15.30751 91.8425 15.30751 92.1188 15.30751 92.52234 16.3949 92.8382 17.63904 93.15407 18.88318 93.69044 21.97559 94.1191 24.27441 94.54773 26.57324 95.33025 31.20375 95.92761 34.2074 96.52495 37.21103 97.628 42.67165 98.42444 45.92255 99.22087 49.17345 100.67226 54.63405 101.66777 57.63768 102.66327 60.64133 104.43518 65.27185 105.59941 67.57068 106.76363 69.86949 108.78168 72.9619 110.05867 74.20605 111.33566 75.45018 113.48656 76.53758 114.80313 76.53758 116.11969 76.53758 118.2706 75.45018 119.54759 74.20605 120.82458 72.9619 122.84264 69.86949 124.00687 67.57068 125.17108 65.27185 126.94301 60.64133 127.9385 57.63768 128.93402 54.63405 130.3854 49.17345 131.18184 45.92255 131.97826 42.67165 133.0813 37.21103 133.67867 34.2074 134.27603 31.20375 135.05854 26.57324 135.48719 24.27441 135.91584 21.97559 136.4522 18.88318 136.76805 17.63904 137.08393 16.3949 137.48748 15.30751 137.76378 15.30751 138.04007 15.30751 138.4436 16.3949 138.75948 17.63904 139.07534 18.88318 139.6117 21.97559 140.04035 24.27441 140.469 26.57324 141.2515 31.20375 141.84886 34.2074 142.44623 37.21103 143.54927 42.67165 144.3457 45.92255 145.14212 49.17345 146.5935 54.63405 147.58902 57.63768 148.58452 60.64133 150.35645 65.27185 151.52066 67.57068 152.68489 69.86949 154.70294 72.9619 155.97994 74.20605 157.25693 75.45018 159.40784 76.53758 160.7244 76.53758 162.04097 76.53758 164.19187 75.45018 165.46886 74.20605 166.74585 72.9619 168.7639 69.86949 169.92812 67.57068 171.09235 65.27185 172.86426 60.64133 173.85976 57.63768 174.85527 54.63405 176.30666 49.17345 177.10309 45.92255 177.89952 42.67165 179.00258 37.21103 179.59992 34.2074 180.19728 31.20375 180.9798 26.57324 181.40843 24.27441 181.83708 21.97559 182.37346 18.88318 182.68933 17.63904 183.00519 16.3949 183.68503 15.30751 183.68503 15.30751"/>
</svg>
