<svg xmlns="http://www.w3.org/2000/svg" xmlns:xlink="http://www.w3.org/1999/xlink" version="1.1" width="145" height="144" viewBox="0 0 145 144">
<defs>
<path id="font_1_1" d="M.33399964 .30233766C.33999635 .32835389 .36299134 .42037965 .43299867 .42037965 .43798829 .42037965 .46199037 .42037965 .48298646 .40734864 .45498658 .402359 .43499757 .37734986 .43499757 .35334779 .43499757 .33735658 .44599916 .31835938 .47299195 .31835938 .49499513 .31835938 .5269928 .3363495 .5269928 .37635804 .5269928 .42837525 .46798707 .4423828 .43399049 .4423828 .37599183 .4423828 .34098817 .38935853 .32899476 .36634828 .3039856 .43237306 .25 .4423828 .22099304 .4423828 .116989139 .4423828 .05999756 .3133545 .05999756 .28834535 .05999756 .27833558 .069992069 .27833558 .07199097 .27833558 .07998657 .27833558 .08299255 .28033448 .084991458 .28933717 .11898804 .39535523 .18499756 .42037965 .21899414 .42037965 .23799134 .42037965 .272995 .4113617 .272995 .35334779 .272995 .32235719 .2559967 .25532533 .21899414 .11528015 .20298767 .053268434 .16799927 .011245728 .12399292 .011245728 .117996219 .011245728 .09498596 .011245728 .07398987 .024276734 .09899902 .029266358 .12098694 .05027771 .12098694 .07827759 .12098694 .105270389 .09899902 .11328125 .083999637 .11328125 .053985597 .11328125 .0289917 .08728027 .0289917 .055267335 .0289917 .009246826 .07899475-.0107421879 .12298584-.0107421879 .18899536-.0107421879 .22499085 .059280397 .22799683 .0652771 .23999024 .028274537 .27598573-.0107421879 .33599855-.0107421879 .43899537-.0107421879 .49598695 .118270877 .49598695 .14328003 .49598695 .1532898 .4869995 .1532898 .48399354 .1532898 .47499085 .1532898 .47299195 .14929199 .47099305 .14228821 .43798829 .03527832 .36999513 .011245728 .33799745 .011245728 .29899598 .011245728 .2829895 .043273927 .2829895 .07727051 .2829895 .09927368 .2889862 .121276859 .2999878 .16529846L.33399964 .30233766Z"/>
<path id="font_1_2" d="M.48599244 .38136292C.48999024 .39537049 .48999024 .39736939 .48999024 .40437318 .48999024 .42237855 .47599793 .43138124 .46099855 .43138124 .45098878 .43138124 .43499757 .42536927 .42599488 .41036988 .42399598 .405365 .41600038 .37435914 .4119873 .35635377 .40499879 .33035279 .397995 .30334474 .3919983 .27633668L.34700013 .09628296C.34298707 .08126831 .2999878 .011245728 .23399353 .011245728 .18299866 .011245728 .17199707 .055267335 .17199707 .0922699 .17199707 .1382904 .18899536 .20030213 .22299195 .28833009 .23899842 .3293457 .24299622 .3403473 .24299622 .36035157 .24299622 .405365 .21099854 .4423828 .16099549 .4423828 .06599426 .4423828 .0289917 .29733277 .0289917 .28833009 .0289917 .27833558 .038986207 .27833558 .040985109 .27833558 .050994874 .27833558 .051986696 .28033448 .056991579 .29634095 .083999637 .3903656 .12399292 .42037965 .1579895 .42037965 .1659851 .42037965 .18299866 .42037965 .18299866 .3883667 .18299866 .36335755 .17298889 .3373413 .1659851 .31834413 .12599182 .21231079 .10798645 .1552887 .10798645 .10827637 .10798645 .019256592 .17098999-.0107421879 .22999573-.0107421879 .2689972-.0107421879 .30299378 .0062561037 .33099366 .03425598 .31799317-.017745972 .30599977-.06674194 .2659912-.11973572 .23999024-.15385437 .20199585-.18309021 .1559906-.18309021 .14199829-.18309021 .09700012-.18005371 .07998657-.14074707 .09599304-.14074707 .10899353-.14074707 .12298584-.1287384 .1329956-.11973572 .14299011-.10673523 .14299011-.08773804 .14299011-.056747438 .115997318-.052734376 .10598755-.052734376 .08299255-.052734376 .049987794-.068740848 .049987794-.11773682 .049987794-.16796875 .09399414-.20507813 .1559906-.20507813 .25898744-.20507813 .3619995-.11373901 .3899994-.00074768069L.48599244 .38136292Z"/>
<path id="font_2_1" d="M.6589966 .23046875C.6759949 .23046875 .69400027 .23046875 .69400027 .25045777 .69400027 .27046205 .6759949 .27046205 .6589966 .27046205H.117996219C.100997928 .27046205 .08299255 .27046205 .08299255 .25045777 .08299255 .23046875 .100997928 .23046875 .117996219 .23046875H.6589966Z"/>
<path id="font_3_2" d="M.16299439 .4569702C.116989139 .486969 .11299133 .52098086 .11299133 .5379791 .11299133 .598999 .17799378 .64100649 .24899292 .64100649 .32199098 .64100649 .38598634 .58898928 .38598634 .51698306 .38598634 .45996095 .34700013 .4119568 .2869873 .37695313L.16299439 .4569702M.30899049 .36193849C.3809967 .3989563 .42999269 .45095826 .42999269 .51698306 .42999269 .6090088 .34098817 .6660156 .25 .6660156 .1499939 .6660156 .068984989 .59199526 .068984989 .49897767 .068984989 .4809723 .070999149 .43595887 .11299133 .38894654 .12399292 .37695313 .16099549 .35194398 .18598938 .33494569 .12799073 .30592347 .041992189 .24984741 .041992189 .15072632 .041992189 .04458618 .14399719-.022460938 .24899292-.022460938 .3619995-.022460938 .45700074 .06060791 .45700074 .16773987 .45700074 .20379639 .44599916 .24885559 .4079895 .2909088 .3889923 .31193543 .37298585 .3219452 .30899049 .36193849M.20899964 .3199463 .33198548 .24183655C.3600006 .2228241 .40699769 .19277954 .40699769 .13169861 .40699769 .05760193 .33198548 .0055389406 .25 .0055389406 .1639862 .0055389406 .09199524 .067611698 .09199524 .15072632 .09199524 .20880127 .12399292 .27288819 .20899964 .3199463Z"/>
<path id="font_3_1" d="M.2939911 .16503906V.07800293C.2939911 .041992189 .2919922 .0309906 .21798706 .0309906H.19699097V0C.23799134 .0029907227 .2899933 .0029907227 .33198548 .0029907227 .37399293 .0029907227 .4269867 .0029907227 .46798707 0V.0309906H.44699098C.37298585 .0309906 .37098695 .041992189 .37098695 .07800293V.16503906H.47099305V.19602967H.37098695V.65075686C.37098695 .67074587 .37098695 .6767578 .35499574 .6767578 .34599305 .6767578 .34298707 .6767578 .33499146 .66474917L.027999878 .19602967V.16503906H.2939911M.2999878 .19602967H.055999757L.2999878 .5688019V.19602967Z"/>
</defs>
<path transform="matrix(1,0,0,-1,68.487,78.453)" stroke-width=".3985" stroke-linecap="butt" stroke-miterlimit="10" stroke-linejoin="miter" fill="none" stroke="#00aeef" d="M-61.23007-61.23007H61.23007M-61.23007-53.57631H61.23007M-61.23007-45.92255H61.23007M-61.23007-38.26878H61.23007M-61.23007-30.61504H61.23007M-61.23007-22.96126H61.23007M-61.23007-15.30751H61.23007M-61.23007-7.65375H61.23007M-61.23007 0H61.23007M-61.23007 7.65375H61.23007M-61.23007 15.30751H61.23007M-61.23007 22.96126H61.23007M-61.23007 30.61504H61.23007M-61.23007 38.26878H61.23007M-61.23007 45.92255H61.23007M-61.23007 53.57631H61.23007M-61.23007 61.22737H61.23007M-61.23007-61.23007V61.23007M-53.57631-61.23007V61.23007M-45.92255-61.23007V61.23007M-38.26878-61.23007V61.23007M-30.61504-61.23007V61.23007M-22.96126-61.23007V61.23007M-15.30751-61.23007V61.23007M-7.65375-61.23007V61.23007M0-61.23007V61.23007M7.65375-61.23007V61.23007M15.30751-61.23007V61.23007M22.96126-61.23007V61.23007M30.61504-61.23007V61.23007M38.26878-61.23007V61.23007M45.92255-61.23007V61.23007M53.57631-61.23007V61.23007M61.22737-61.23007V61.23007M61.23007 61.23007"/>
<path transform="matrix(1,0,0,-1,68.487,78.453)" stroke-width=".79701" stroke-linecap="butt" stroke-miterlimit="10" stroke-linejoin="miter" fill="none" stroke="#000000" d="M-61.23007 0H65.15306"/>
<path transform="matrix(1,0,0,-1,133.64006,78.453)" d="M1.0361 0C-.25902 .25902-1.55415 .77707-3.1083 1.68365-1.55415 .51805-1.55415-.51805-3.1083-1.68365-1.55415-.77707-.25902-.25902 1.0361 0Z"/>
<path transform="matrix(1,0,0,-1,133.64006,78.453)" stroke-width=".79701" stroke-linecap="butt" stroke-linejoin="round" fill="none" stroke="#000000" d="M1.0361 0C-.25902 .25902-1.55415 .77707-3.1083 1.68365-1.55415 .51805-1.55415-.51805-3.1083-1.68365-1.55415-.77707-.25902-.25902 1.0361 0Z"/>
<use data-text="x" xlink:href="#font_1_1" transform="matrix(9.9626,0,0,-9.9626,138.794,80.59801)"/>
<path transform="matrix(1,0,0,-1,68.487,78.453)" stroke-width=".79701" stroke-linecap="butt" stroke-miterlimit="10" stroke-linejoin="miter" fill="none" stroke="#000000" d="M0-61.23007V65.15306"/>
<path transform="matrix(0,-1,-1,-0,68.487,13.299942)" d="M1.0361 0C-.25902 .25902-1.55415 .77707-3.1083 1.68365-1.55415 .51805-1.55415-.51805-3.1083-1.68365-1.55415-.77707-.25902-.25902 1.0361 0Z"/>
<path transform="matrix(0,-1,-1,-0,68.487,13.299942)" stroke-width=".79701" stroke-linecap="butt" stroke-linejoin="round" fill="none" stroke="#000000" d="M1.0361 0C-.25902 .25902-1.55415 .77707-3.1083 1.68365-1.55415 .51805-1.55415-.51805-3.1083-1.68365-1.55415-.77707-.25902-.25902 1.0361 0Z"/>
<use data-text="y" xlink:href="#font_1_2" transform="matrix(9.9626,0,0,-9.9626,65.866,6.2089998)"/>
<path transform="matrix(1,0,0,-1,68.487,78.453)" stroke-width=".79701" stroke-linecap="butt" stroke-miterlimit="10" stroke-linejoin="miter" fill="none" stroke="#000000" d="M-61.23007 .76541V-.76529"/>
<path transform="matrix(1,0,0,-1,68.487,78.453)" d="M-68.59146-12.39958H-53.868684V-3.1563502H-68.59146Z" fill="#ffffff"/>
<use data-text="&#x2212;" xlink:href="#font_2_1" transform="matrix(9.9626,0,0,-9.9626,.8919983,89.026)"/>
<use data-text="8" xlink:href="#font_3_2" transform="matrix(9.9626,0,0,-9.9626,8.640991,89.026)"/>
<path transform="matrix(1,0,0,-1,68.487,78.453)" stroke-width=".79701" stroke-linecap="butt" stroke-miterlimit="10" stroke-linejoin="miter" fill="none" stroke="#000000" d="M.76541-61.23007H-.76529"/>
<path transform="matrix(1,0,0,-1,68.487,78.453)" d="M-17.87914-65.85168H-3.1563607V-56.608449H-17.87914Z" fill="#ffffff"/>
<use data-text="&#x2212;" xlink:href="#font_2_1" transform="matrix(9.9626,0,0,-9.9626,51.604005,142.478)"/>
<use data-text="8" xlink:href="#font_3_2" transform="matrix(9.9626,0,0,-9.9626,59.352998,142.478)"/>
<path transform="matrix(1,0,0,-1,68.487,78.453)" stroke-width=".79701" stroke-linecap="butt" stroke-miterlimit="10" stroke-linejoin="miter" fill="none" stroke="#000000" d="M-30.61504 .76541V-.76529"/>
<path transform="matrix(1,0,0,-1,68.487,78.453)" d="M-37.97643-12.39958H-23.253649V-3.1563502H-37.97643Z" fill="#ffffff"/>
<use data-text="&#x2212;" xlink:href="#font_2_1" transform="matrix(9.9626,0,0,-9.9626,31.507004,89.026)"/>
<use data-text="4" xlink:href="#font_3_1" transform="matrix(9.9626,0,0,-9.9626,39.255998,89.026)"/>
<path transform="matrix(1,0,0,-1,68.487,78.453)" stroke-width=".79701" stroke-linecap="butt" stroke-miterlimit="10" stroke-linejoin="miter" fill="none" stroke="#000000" d="M.76541-30.61504H-.76529"/>
<path transform="matrix(1,0,0,-1,68.487,78.453)" d="M-17.87914-35.23665H-3.1563607V-25.99342H-17.87914Z" fill="#ffffff"/>
<use data-text="&#x2212;" xlink:href="#font_2_1" transform="matrix(9.9626,0,0,-9.9626,51.604005,111.86301)"/>
<use data-text="4" xlink:href="#font_3_1" transform="matrix(9.9626,0,0,-9.9626,59.352998,111.86301)"/>
<path transform="matrix(1,0,0,-1,68.487,78.453)" stroke-width=".79701" stroke-linecap="butt" stroke-miterlimit="10" stroke-linejoin="miter" fill="none" stroke="#000000" d="M30.61504 .76541V-.76529"/>
<path transform="matrix(1,0,0,-1,68.487,78.453)" d="M27.12807-11.56934H34.102014V-3.1563597H27.12807Z" fill="#ffffff"/>
<use data-text="4" xlink:href="#font_3_1" transform="matrix(9.9626,0,0,-9.9626,96.611,89.026)"/>
<path transform="matrix(1,0,0,-1,68.487,78.453)" stroke-width=".79701" stroke-linecap="butt" stroke-miterlimit="10" stroke-linejoin="miter" fill="none" stroke="#000000" d="M.76541 30.61504H-.76529"/>
<path transform="matrix(1,0,0,-1,68.487,78.453)" d="M-10.13028 26.40854H-3.1563397V34.82152H-10.13028Z" fill="#ffffff"/>
<use data-text="4" xlink:href="#font_3_1" transform="matrix(9.9626,0,0,-9.9626,59.352998,51.048006)"/>
<path transform="matrix(1,0,0,-1,68.487,78.453)" stroke-width=".79701" stroke-linecap="butt" stroke-miterlimit="10" stroke-linejoin="miter" fill="none" stroke="#000000" d="M61.23007 .76541V-.76529"/>
<path transform="matrix(1,0,0,-1,68.487,78.453)" d="M57.7431-11.56934H64.71704V-3.1563597H57.7431Z" fill="#ffffff"/>
<use data-text="8" xlink:href="#font_3_2" transform="matrix(9.9626,0,0,-9.9626,127.226,89.026)"/>
<path transform="matrix(1,0,0,-1,68.487,78.453)" stroke-width=".79701" stroke-linecap="butt" stroke-miterlimit="10" stroke-linejoin="miter" fill="none" stroke="#000000" d="M.76541 61.23007H-.76529"/>
<path transform="matrix(1,0,0,-1,68.487,78.453)" d="M-10.13028 57.02357H-3.1563397V65.436557H-10.13028Z" fill="#ffffff"/>
<use data-text="8" xlink:href="#font_3_2" transform="matrix(9.9626,0,0,-9.9626,59.352998,20.433003)"/>
</svg>
