<svg xmlns="http://www.w3.org/2000/svg" xmlns:xlink="http://www.w3.org/1999/xlink" version="1.1" width="253" height="144" viewBox="0 0 253 144">
<defs>
<path id="font_1_1" d="M.45498658 .5001831C.45498658 .56614688 .43699647 .7050781 .33499146 .7050781 .19599915 .7050781 .041992189 .42323304 .041992189 .19425965 .041992189 .100250247 .070999149-.0107421879 .1619873-.0107421879 .30299378-.0107421879 .45498658 .27627564 .45498658 .5001831M.147995 .36328126C.16499329 .42723084 .18499756 .5071869 .22499085 .57814028 .2519989 .6271057 .2889862 .68307498 .33399964 .68307498 .3829956 .68307498 .3889923 .6191101 .3889923 .56214907 .3889923 .5131836 .3809967 .46220399 .35699464 .36328126H.147995M.34799195 .3312683C.33699037 .28527833 .31599427 .2002716 .27799989 .12826538 .24299622 .060256959 .20498657 .011245728 .1619873 .011245728 .1289978 .011245728 .10798645 .040252687 .10798645 .133255 .10798645 .17526245 .11399841 .23326111 .13999939 .3312683H.34799195Z"/>
<path id="font_1_2" d="M.48599244 .38136292C.48999024 .39537049 .48999024 .39736939 .48999024 .40437318 .48999024 .42237855 .47599793 .43138124 .46099855 .43138124 .45098878 .43138124 .43499757 .42536927 .42599488 .41036988 .42399598 .405365 .41600038 .37435914 .4119873 .35635377 .40499879 .33035279 .397995 .30334474 .3919983 .27633668L.34700013 .09628296C.34298707 .08126831 .2999878 .011245728 .23399353 .011245728 .18299866 .011245728 .17199707 .055267335 .17199707 .0922699 .17199707 .1382904 .18899536 .20030213 .22299195 .28833009 .23899842 .3293457 .24299622 .3403473 .24299622 .36035157 .24299622 .405365 .21099854 .4423828 .16099549 .4423828 .06599426 .4423828 .0289917 .29733277 .0289917 .28833009 .0289917 .27833558 .038986207 .27833558 .040985109 .27833558 .050994874 .27833558 .051986696 .28033448 .056991579 .29634095 .083999637 .3903656 .12399292 .42037965 .1579895 .42037965 .1659851 .42037965 .18299866 .42037965 .18299866 .3883667 .18299866 .36335755 .17298889 .3373413 .1659851 .31834413 .12599182 .21231079 .10798645 .1552887 .10798645 .10827637 .10798645 .019256592 .17098999-.0107421879 .22999573-.0107421879 .2689972-.0107421879 .30299378 .0062561037 .33099366 .03425598 .31799317-.017745972 .30599977-.06674194 .2659912-.11973572 .23999024-.15385437 .20199585-.18309021 .1559906-.18309021 .14199829-.18309021 .09700012-.18005371 .07998657-.14074707 .09599304-.14074707 .10899353-.14074707 .12298584-.1287384 .1329956-.11973572 .14299011-.10673523 .14299011-.08773804 .14299011-.056747438 .115997318-.052734376 .10598755-.052734376 .08299255-.052734376 .049987794-.068740848 .049987794-.11773682 .049987794-.16796875 .09399414-.20507813 .1559906-.20507813 .25898744-.20507813 .3619995-.11373901 .3899994-.00074768069L.48599244 .38136292Z"/>
<path id="font_2_3" d="M.68699648 .32714845C.70199587 .32714845 .72099307 .32714845 .72099307 .34713746 .72099307 .36714173 .70199587 .36714173 .6879883 .36714173H.08898926C.07499695 .36714173 .055999757 .36714173 .055999757 .34713746 .055999757 .32714845 .07499695 .32714845 .08999634 .32714845H.68699648M.6879883 .13284302C.70199587 .13284302 .72099307 .13284302 .72099307 .15284729 .72099307 .17285156 .70199587 .17285156 .68699648 .17285156H.08999634C.07499695 .17285156 .055999757 .17285156 .055999757 .15284729 .055999757 .13284302 .07499695 .13284302 .08898926 .13284302H.6879883Z"/>
<path id="font_2_6" d="M.20799256 .19424439C.22999573 .19024658 .31199647 .17424011 .31199647 .102249149 .31199647 .051254274 .2769928 .011245728 .19898987 .011245728 .114990238 .011245728 .07899475 .06825256 .05999756 .15324402 .056991579 .1662445 .055999757 .17024231 .04598999 .17024231 .032989503 .17024231 .032989503 .16323853 .032989503 .14524842V.013244629C.032989503-.003753662 .032989503-.0107421879 .04399109-.0107421879 .04899597-.0107421879 .049987794-.009750366 .068984989 .009246826 .070999149 .011245728 .070999149 .013244629 .08898926 .03224182 .1329956-.009750366 .17799378-.0107421879 .19898987-.0107421879 .31399537-.0107421879 .3600006 .056243898 .3600006 .12825012 .3600006 .1812439 .32998658 .21124268 .31799317 .22323609 .2849884 .25523377 .24598694 .26324464 .20399475 .27124024 .147995 .28224183 .08099365 .2952423 .08099365 .35324098 .08099365 .38822938 .10699463 .42922975 .19299317 .42922975 .30299378 .42922975 .30799867 .3392334 .30999757 .3082428 .31098939 .2992401 .31999208 .2992401 .32199098 .2992401 .33499146 .2992401 .33499146 .304245 .33499146 .3232422V.4242401C.33499146 .4412384 .33499146 .4482422 .32398988 .4482422 .31900025 .4482422 .31698609 .4482422 .3039856 .43623353 .30099488 .43223573 .29100038 .42323304 .2869873 .42022706 .24899292 .4482422 .20799256 .4482422 .19299317 .4482422 .070999149 .4482422 .032989503 .38124085 .032989503 .3252411 .032989503 .29023744 .04899597 .26223756 .07598877 .24023438 .10798645 .21424866 .13598633 .2082367 .20799256 .19424439Z"/>
<path id="font_2_4" d="M.1769867 .4423828 .036987306 .43138124V.40037538C.101989749 .40037538 .11099243 .3943634 .11099243 .34532167V.076034549C.11099243 .0309906 .099990848 .0309906 .032989503 .0309906V0C.06498718 .0009918213 .11898804 .0029907227 .14299011 .0029907227 .17799378 .0029907227 .21299744 .0009918213 .24699402 0V.0309906C.18099976 .0309906 .1769867 .035995485 .1769867 .075042728V.4423828M.18099976 .6159363C.18099976 .64793398 .1559906 .6689453 .12799073 .6689453 .09700012 .6689453 .07499695 .64193728 .07499695 .6159363 .07499695 .5889435 .09700012 .5629425 .12799073 .5629425 .1559906 .5629425 .18099976 .5839386 .18099976 .6159363Z"/>
<path id="font_2_5" d="M.10998535 .34429933V.076034549C.10998535 .0309906 .09899902 .0309906 .03199768 .0309906V0C.066986087 .0009918213 .117996219 .0029907227 .14498902 .0029907227 .17098999 .0029907227 .22299195 .0009918213 .25698854 0V.0309906C.18998719 .0309906 .1789856 .0309906 .1789856 .076034549V.2602234C.1789856 .36431886 .25 .42037965 .31399537 .42037965 .3769989 .42037965 .3880005 .36631776 .3880005 .30926515V.076034549C.3880005 .0309906 .3769989 .0309906 .30999757 .0309906V0C.34498597 .0009918213 .3959961 .0029907227 .4229889 .0029907227 .44898988 .0029907227 .5009918 .0009918213 .5349884 0V.0309906C.48298646 .0309906 .45799256 .0309906 .45700074 .061019899V.25221253C.45700074 .3383026 .45700074 .36932374 .42599488 .405365 .4119873 .42237855 .3789978 .4423828 .32099916 .4423828 .24798584 .4423828 .20098877 .39935304 .17298889 .33729554V.4423828L.03199768 .43138124V.40037538C.101989749 .4003601 .10998535 .39335633 .10998535 .34429933Z"/>
<path id="font_2_1" d="M.33099366-.2400055C.33099366-.23701477 .33099366-.23500061 .31399537-.21800232 .18899536-.0920105 .15699768 .09700012 .15699768 .25 .15699768 .42399598 .19499207 .59799197 .31799317 .72299197 .33099366 .73498538 .33099366 .7369995 .33099366 .73999026 .33099366 .746994 .32699586 .75 .32099916 .75 .31098939 .75 .22099304 .6819916 .1619873 .5549927 .11099243 .44499208 .09899902 .33399964 .09899902 .25 .09899902 .17199707 .10998535 .050994874 .16499329-.06201172 .22499085-.18501282 .31098939-.25 .32099916-.25 .32699586-.25 .33099366-.24700928 .33099366-.2400055Z"/>
<path id="font_2_2" d="M.2889862 .25C.2889862 .32798768 .27799989 .44898988 .22299195 .56199648 .16299439 .68499758 .07699585 .75 .066986087 .75 .06098938 .75 .056991579 .74598696 .056991579 .73999026 .056991579 .7369995 .056991579 .73498538 .07598877 .71699526 .17399597 .6179962 .23098755 .45899964 .23098755 .25 .23098755 .07899475 .19400025-.09700012 .069992069-.2230072 .056991579-.23500061 .056991579-.23701477 .056991579-.2400055 .056991579-.2460022 .06098938-.25 .066986087-.25 .07699585-.25 .16699219-.18200684 .22599793-.055007936 .2769928 .054992677 .2889862 .16600037 .2889862 .25Z"/>
<path id="font_3_57" d="M.47099305 .16503906V.19602967H.37098695V.6507721C.37098695 .6707611 .37098695 .6767578 .35499574 .6767578 .34599305 .6767578 .34298707 .6767578 .33499146 .6647644L.027999878 .19602967V.16503906H.2939911V.07800293C.2939911 .041992189 .2919922 .0309906 .21798706 .0309906H.19699097V0C.23799134 .0029907227 .2899933 .0029907227 .33198548 .0029907227 .37399293 .0029907227 .4269867 .0029907227 .46798707 0V.0309906H.44699098C.37298585 .0309906 .37098695 .041992189 .37098695 .07800293V.16503906H.47099305M.2999878 .19602967H.055999757L.2999878 .56881716V.19602967Z"/>
<path id="font_3_121" d="M.45999146 .31976319C.45999146 .39982606 .45498658 .47988893 .41999818 .5539398 .37399293 .65000918 .2919922 .6660156 .25 .6660156 .18998719 .6660156 .116989139 .64001467 .07598877 .54693606 .04399109 .47789 .038986207 .39982606 .038986207 .31976319 .038986207 .24472046 .042999269 .15464783 .083999637 .07859802 .1269989-.0024719239 .19999695-.022460938 .24899292-.022460938 .30299378-.022460938 .3789978-.0014648438 .4229889 .09359741 .45498658 .16265869 .45999146 .2407074 .45999146 .31976319M.3769989 .3317871C.3769989 .25672914 .3769989 .18867493 .3659973 .12461853 .35099793 .029556275 .2939911-.00047302247 .24899292-.00047302247 .20999146-.00047302247 .15098572 .024551392 .1329956 .12062073 .12199402 .18066406 .12199402 .2727356 .12199402 .3317871 .12199402 .39582826 .12199402 .46188355 .12998963 .5159149 .14898682 .63500979 .22399903 .64401248 .24899292 .64401248 .28199769 .64401248 .34799195 .6259918 .36698915 .52693179 .3769989 .47088624 .3769989 .39482118 .3769989 .3317871Z"/>
<path id="font_3_51" d="M.45700074 .16764832C.45700074 .20367432 .44599916 .24871826 .4079895 .29074098 .3889923 .31176759 .37298585 .32176209 .30899049 .36180116 .3809967 .39881898 .42999269 .4508667 .42999269 .51690676 .42999269 .6089783 .34098817 .6660156 .25 .6660156 .1499939 .6660156 .068984989 .5919647 .068984989 .49890138 .068984989 .48088075 .070999149 .43585206 .11299133 .38882447 .12399292 .3768158 .16099549 .35179139 .18598938 .33477784 .12799073 .30575563 .041992189 .24971009 .041992189 .15063477 .041992189 .044555665 .14399719-.022460938 .24899292-.022460938 .3619995-.022460938 .45700074 .060577394 .45700074 .16764832M.38598634 .51690676C.38598634 .45986939 .34700013 .41183473 .2869873 .3768158L.16299439 .4568634C.116989139 .4868927 .11299133 .5209198 .11299133 .53793337 .11299133 .5989685 .17799378 .64100649 .24899292 .64100649 .32199098 .64100649 .38598634 .588974 .38598634 .51690676M.40699769 .13162232C.40699769 .05757141 .33198548 .0055389406 .25 .0055389406 .1639862 .0055389406 .09199524 .06758118 .09199524 .15063477 .09199524 .2086792 .12399292 .2727356 .20899964 .31976319L.33198548 .24171448C.3600006 .22268677 .40699769 .19267273 .40699769 .13162232Z"/>
<path id="font_3_82" d="M.4189911 0V.0309906H.3869934C.29699708 .0309906 .2939911 .041992189 .2939911 .07902527V.64012148C.2939911 .6640167 .2939911 .6660156 .2709961 .6660156 .20899964 .60227969 .12098694 .60227969 .08898926 .60227969V.57128909C.10899353 .57128909 .16799927 .57128909 .21998596 .5972748V.07902527C.21998596 .042999269 .21699524 .0309906 .1269989 .0309906H.09498596V0C.12998963 .0029907227 .21699524 .0029907227 .25698854 .0029907227 .29699708 .0029907227 .38398744 .0029907227 .4189911 0Z"/>
<path id="font_3_107" d="M.44898988 .17396546H.42399598C.4189911 .14398194 .4119873 .099990848 .4019928 .084991458 .394989 .07699585 .32899476 .07699585 .30699159 .07699585H.1269989L.23298645 .17996216C.3889923 .31803895 .44898988 .37210084 .44898988 .47216798 .44898988 .5860901 .35899354 .6660156 .23699951 .6660156 .12399292 .6660156 .049987794 .57411196 .049987794 .48516847 .049987794 .4291687 .099990848 .4291687 .102996829 .4291687 .11999512 .4291687 .15499878 .44117738 .15499878 .48217774 .15499878 .5081787 .13699341 .5341797 .101989749 .5341797 .09399414 .5341797 .09199524 .5341797 .08898926 .5331726 .11199951 .59806826 .1659851 .63500979 .22399903 .63500979 .31498719 .63500979 .35798646 .5541382 .35798646 .47216798 .35798646 .39196778 .30799867 .31297303 .25299073 .25097657L.06098938 .036987306C.049987794 .025985718 .049987794 .023986817 .049987794 0H.42099L.44898988 .17396546Z"/>
<path id="font_3_101" d="M.45700074 .2036438C.45700074 .33070375 .36799623 .4267578 .25698854 .4267578 .18899536 .4267578 .1519928 .37573243 .13198853 .327713V.35173036C.13198853 .6047821 .2559967 .64100649 .30699159 .64100649 .33099366 .64100649 .37298585 .634964 .394989 .6007538 .37998963 .6007538 .33999635 .6007538 .33999635 .5557556 .33999635 .524765 .3639984 .5097656 .38598634 .5097656 .4019928 .5097656 .43199159 .51875308 .43199159 .5577545 .43199159 .6178589 .3880005 .6660156 .30499269 .6660156 .1769867 .6660156 .041992189 .5367584 .041992189 .31570436 .041992189 .048553468 .1579895-.022460938 .25099183-.022460938 .3619995-.022460938 .45700074 .07156372 .45700074 .2036438M.36698915 .20463562C.36698915 .15661621 .36698915 .10658264 .34999085 .0705719 .31999208 .010528564 .27398683 .0055389406 .25099183 .0055389406 .18798828 .0055389406 .1579895 .06556702 .1519928 .080566409 .13398743 .127594 .13398743 .2076416 .13398743 .22564698 .13398743 .30369569 .1659851 .40374757 .2559967 .40374757 .27198792 .40374757 .31799317 .40374757 .34899903 .34172059 .36698915 .30470277 .36698915 .2536621 .36698915 .20463562Z"/>
<path id="font_3_106" d="M.45700074 .17037964C.45700074 .252594 .3939972 .33088685 .2899933 .35191346 .37199403 .37893678 .42999269 .4490509 .42999269 .52809146 .42999269 .6100464 .34199525 .6660156 .24598694 .6660156 .14498902 .6660156 .068984989 .60606387 .068984989 .53009036 .068984989 .49710084 .09098816 .47808839 .11999512 .47808839 .15098572 .47808839 .17098999 .50009158 .17098999 .5290985 .17098999 .57910159 .12399292 .57910159 .10899353 .57910159 .13999939 .62802127 .20599365 .64100649 .24198914 .64100649 .2829895 .64100649 .33799745 .6190338 .33799745 .5290985 .33799745 .51708987 .33599855 .45906068 .30999757 .4149933 .27999879 .36691285 .24598694 .36390687 .22099304 .36291505 .21299744 .36190797 .18899536 .35990907 .18199158 .35990907 .17399597 .35890199 .16699219 .35791017 .16699219 .3479004 .16699219 .33691407 .17399597 .33691407 .19099427 .33691407H.23498535C.31698609 .33691407 .35398866 .2686615 .35398866 .17037964 .35398866 .034469606 .2849884 .0055389406 .24099732 .0055389406 .19799805 .0055389406 .12298584 .022491456 .08799744 .08137512 .12298584 .07637024 .1539917 .09837341 .1539917 .1363678 .1539917 .17237854 .1269989 .19238281 .09799194 .19238281 .07398987 .19238281 .041992189 .17837525 .041992189 .1343689 .041992189 .043441774 .1349945-.022460938 .24398804-.022460938 .3659973-.022460938 .45700074 .06838989 .45700074 .17037964Z"/>
<path id="font_3_64" d="M.27598573 .18710327V.24511719H.010986328V.18710327H.27598573Z"/>
</defs>
<path transform="matrix(1.00003,0,0,-1,22.948243,83.434)" stroke-width=".3985" stroke-linecap="butt" stroke-miterlimit="10" stroke-linejoin="miter" fill="none" stroke="#00aeef" d="M0-56.69273H213.72893M0-45.35419H213.72893M0-34.01564H213.72893M0-22.6771H213.72893M0-11.33855H213.72893M0 0H213.72893M0 11.33855H213.72893M0 22.6771H213.72893M0 34.01564H213.72893M0 45.35419H213.72893M0 56.69273H213.72893M0-56.69362V56.69362M11.87363-56.69362V56.69362M23.74727-56.69362V56.69362M35.62091-56.69362V56.69362M47.49455-56.69362V56.69362M59.3682-56.69362V56.69362M71.24182-56.69362V56.69362M83.11546-56.69362V56.69362M94.9891-56.69362V56.69362M106.86275-56.69362V56.69362M118.73639-56.69362V56.69362M130.61002-56.69362V56.69362M142.48366-56.69362V56.69362M154.3573-56.69362V56.69362M166.23094-56.69362V56.69362M178.10459-56.69362V56.69362M189.97823-56.69362V56.69362M201.85186-56.69362V56.69362M213.7255-56.69362V56.69362M213.72893 56.69362"/>
<path transform="matrix(1.00003,0,0,-1,22.948243,83.434)" stroke-width=".3985" stroke-linecap="butt" stroke-miterlimit="10" stroke-linejoin="miter" fill="none" stroke="#000000" d="M-10.20491 0H220.10826"/>
<path transform="matrix(1.00003,0,0,-1,243.06311,83.434)" d="M.797 0C-.19925 .19925-1.19551 .59775-2.39102 1.29512-1.19551 .3985-1.19551-.3985-2.39102-1.29512-1.19551-.59775-.19925-.19925 .797 0Z"/>
<path transform="matrix(1.00003,0,0,-1,243.06311,83.434)" stroke-width=".3985" stroke-linecap="butt" stroke-linejoin="round" fill="none" stroke="#000000" d="M.797 0C-.19925 .19925-1.19551 .59775-2.39102 1.29512-1.19551 .3985-1.19551-.3985-2.39102-1.29512-1.19551-.59775-.19925-.19925 .797 0Z"/>
<use data-text="&#x03b8;" xlink:href="#font_1_1" transform="matrix(9.962899,0,0,-9.9626,247.57898,86.893)"/>
<path transform="matrix(1.00003,0,0,-1,22.948243,83.434)" stroke-width=".3985" stroke-linecap="butt" stroke-miterlimit="10" stroke-linejoin="miter" fill="none" stroke="#000000" d="M0-11.33855V67.0359"/>
<path transform="matrix(0,-1,-1.00003,-0,22.948243,16.398102)" d="M.797 0C-.19925 .19925-1.19551 .59775-2.39102 1.29512-1.19551 .3985-1.19551-.3985-2.39102-1.29512-1.19551-.59775-.19925-.19925 .797 0Z"/>
<path transform="matrix(0,-1,-1.00003,-0,22.948243,16.398102)" stroke-width=".3985" stroke-linecap="butt" stroke-linejoin="round" fill="none" stroke="#000000" d="M.797 0C-.19925 .19925-1.19551 .59775-2.39102 1.29512-1.19551 .3985-1.19551-.3985-2.39102-1.29512-1.19551-.59775-.19925-.19925 .797 0Z"/>
<use data-text="y" xlink:href="#font_1_2" transform="matrix(9.962899,0,0,-9.9626,1.2175903,9.390999)"/>
<use data-text="=" xlink:href="#font_2_3" transform="matrix(9.962899,0,0,-9.9626,9.226837,9.390999)"/>
<use data-text="s" xlink:href="#font_2_6" transform="matrix(9.962899,0,0,-9.9626,19.727738,9.390999)"/>
<use data-text="i" xlink:href="#font_2_4" transform="matrix(9.962899,0,0,-9.9626,23.653122,9.390999)"/>
<use data-text="n" xlink:href="#font_2_5" transform="matrix(9.962899,0,0,-9.9626,26.412842,9.390999)"/>
<use data-text="(" xlink:href="#font_2_1" transform="matrix(9.962899,0,0,-9.9626,31.942246,9.390999)"/>
<use data-text="&#x03b8;" xlink:href="#font_1_1" transform="matrix(9.962899,0,0,-9.9626,35.85063,9.390999)"/>
<use data-text=")" xlink:href="#font_2_2" transform="matrix(9.962899,0,0,-9.9626,40.803773,9.390999)"/>
<path transform="matrix(1.00003,0,0,-1,22.948243,83.434)" stroke-width=".3985" stroke-linecap="butt" stroke-miterlimit="10" stroke-linejoin="miter" fill="none" stroke="#000000" d="M23.74728 2.26733V-2.26822"/>
<path transform="matrix(1.00003,0,0,-1,22.948243,83.434)" d="M18.7659-13.41655H28.72867V-6.4525897H18.7659Z" fill="#ffffff"/>
<use data-text="4" xlink:href="#font_3_57" transform="matrix(9.962899,0,0,-9.9626,41.714807,96.631)"/>
<use data-text="0" xlink:href="#font_3_121" transform="matrix(9.962899,0,0,-9.9626,46.69626,96.631)"/>
<path transform="matrix(1.00003,0,0,-1,22.948243,83.434)" stroke-width=".3985" stroke-linecap="butt" stroke-miterlimit="10" stroke-linejoin="miter" fill="none" stroke="#000000" d="M47.49512 2.26733V-2.26822"/>
<path transform="matrix(1.00003,0,0,-1,22.948243,83.434)" d="M42.51373-13.30693H52.4765V-6.4525797H42.51373Z" fill="#ffffff"/>
<use data-text="8" xlink:href="#font_3_51" transform="matrix(9.962899,0,0,-9.9626,65.46352,96.522)"/>
<use data-text="0" xlink:href="#font_3_121" transform="matrix(9.962899,0,0,-9.9626,70.44498,96.522)"/>
<path transform="matrix(1.00003,0,0,-1,22.948243,83.434)" stroke-width=".3985" stroke-linecap="butt" stroke-miterlimit="10" stroke-linejoin="miter" fill="none" stroke="#000000" d="M71.24295 2.26733V-2.26822"/>
<path transform="matrix(1.00003,0,0,-1,22.948243,83.434)" d="M63.77087-13.30693H78.71502V-6.4525797H63.77087Z" fill="#ffffff"/>
<use data-text="1" xlink:href="#font_3_82" transform="matrix(9.962899,0,0,-9.9626,86.72116,96.522)"/>
<use data-text="2" xlink:href="#font_3_107" transform="matrix(9.962899,0,0,-9.9626,91.70261,96.522)"/>
<use data-text="0" xlink:href="#font_3_121" transform="matrix(9.962899,0,0,-9.9626,96.68405,96.522)"/>
<path transform="matrix(1.00003,0,0,-1,22.948243,83.434)" stroke-width=".3985" stroke-linecap="butt" stroke-miterlimit="10" stroke-linejoin="miter" fill="none" stroke="#000000" d="M94.99026 2.26733V-2.26822"/>
<path transform="matrix(1.00003,0,0,-1,22.948243,83.434)" d="M87.51819-13.30693H102.46234V-6.4525797H87.51819Z" fill="#ffffff"/>
<use data-text="1" xlink:href="#font_3_82" transform="matrix(9.962899,0,0,-9.9626,110.46887,96.522)"/>
<use data-text="6" xlink:href="#font_3_101" transform="matrix(9.962899,0,0,-9.9626,115.450328,96.522)"/>
<use data-text="0" xlink:href="#font_3_121" transform="matrix(9.962899,0,0,-9.9626,120.43177,96.522)"/>
<path transform="matrix(1.00003,0,0,-1,22.948243,83.434)" stroke-width=".3985" stroke-linecap="butt" stroke-miterlimit="10" stroke-linejoin="miter" fill="none" stroke="#000000" d="M118.73808 2.26733V-2.26822"/>
<path transform="matrix(1.00003,0,0,-1,22.948243,83.434)" d="M111.266-13.30693H126.21015V-6.4525797H111.266Z" fill="#ffffff"/>
<use data-text="2" xlink:href="#font_3_107" transform="matrix(9.962899,0,0,-9.9626,134.21759,96.522)"/>
<use data-text="0" xlink:href="#font_3_121" transform="matrix(9.962899,0,0,-9.9626,139.19904,96.522)"/>
<use data-text="0" xlink:href="#font_3_121" transform="matrix(9.962899,0,0,-9.9626,144.18048,96.522)"/>
<path transform="matrix(1.00003,0,0,-1,22.948243,83.434)" stroke-width=".3985" stroke-linecap="butt" stroke-miterlimit="10" stroke-linejoin="miter" fill="none" stroke="#000000" d="M142.48593 2.26733V-2.26822"/>
<path transform="matrix(1.00003,0,0,-1,22.948243,83.434)" d="M135.01386-13.41655H149.95801V-6.4525897H135.01386Z" fill="#ffffff"/>
<use data-text="2" xlink:href="#font_3_107" transform="matrix(9.962899,0,0,-9.9626,157.96631,96.631)"/>
<use data-text="4" xlink:href="#font_3_57" transform="matrix(9.962899,0,0,-9.9626,162.94776,96.631)"/>
<use data-text="0" xlink:href="#font_3_121" transform="matrix(9.962899,0,0,-9.9626,167.9292,96.631)"/>
<path transform="matrix(1.00003,0,0,-1,22.948243,83.434)" stroke-width=".3985" stroke-linecap="butt" stroke-miterlimit="10" stroke-linejoin="miter" fill="none" stroke="#000000" d="M166.23325 2.26733V-2.26822"/>
<path transform="matrix(1.00003,0,0,-1,22.948243,83.434)" d="M158.76117-13.30693H173.70532V-6.4525797H158.76117Z" fill="#ffffff"/>
<use data-text="2" xlink:href="#font_3_107" transform="matrix(9.962899,0,0,-9.9626,181.71402,96.522)"/>
<use data-text="8" xlink:href="#font_3_51" transform="matrix(9.962899,0,0,-9.9626,186.69547,96.522)"/>
<use data-text="0" xlink:href="#font_3_121" transform="matrix(9.962899,0,0,-9.9626,191.67691,96.522)"/>
<path transform="matrix(1.00003,0,0,-1,22.948243,83.434)" stroke-width=".3985" stroke-linecap="butt" stroke-miterlimit="10" stroke-linejoin="miter" fill="none" stroke="#000000" d="M189.98108 2.26733V-2.26822"/>
<path transform="matrix(1.00003,0,0,-1,22.948243,83.434)" d="M182.509-13.30693H197.45316V-6.4525797H182.509Z" fill="#ffffff"/>
<use data-text="3" xlink:href="#font_3_106" transform="matrix(9.962899,0,0,-9.9626,205.46273,96.522)"/>
<use data-text="2" xlink:href="#font_3_107" transform="matrix(9.962899,0,0,-9.9626,210.44419,96.522)"/>
<use data-text="0" xlink:href="#font_3_121" transform="matrix(9.962899,0,0,-9.9626,215.42563,96.522)"/>
<path transform="matrix(1.00003,0,0,-1,22.948243,83.434)" stroke-width=".3985" stroke-linecap="butt" stroke-miterlimit="10" stroke-linejoin="miter" fill="none" stroke="#000000" d="M213.72893 2.26733V-2.26822"/>
<path transform="matrix(1.00003,0,0,-1,22.948243,83.434)" d="M206.25685-13.30693H221.201V-6.4525797H206.25685Z" fill="#ffffff"/>
<use data-text="3" xlink:href="#font_3_106" transform="matrix(9.962899,0,0,-9.9626,229.21144,96.522)"/>
<use data-text="6" xlink:href="#font_3_101" transform="matrix(9.962899,0,0,-9.9626,234.1929,96.522)"/>
<use data-text="0" xlink:href="#font_3_121" transform="matrix(9.962899,0,0,-9.9626,239.17435,96.522)"/>
<path transform="matrix(1.00003,0,0,-1,22.948243,83.434)" stroke-width=".3985" stroke-linecap="butt" stroke-miterlimit="10" stroke-linejoin="miter" fill="none" stroke="#000000" d="M2.72131-56.69362H-2.72134"/>
<path transform="matrix(1.00003,0,0,-1,22.948243,83.434)" stroke-width=".3985" stroke-linecap="butt" stroke-miterlimit="10" stroke-linejoin="miter" fill="none" stroke="#000000" d="M2.72131-45.35504H-2.72134"/>
<path transform="matrix(1.00003,0,0,-1,22.948243,83.434)" stroke-width=".3985" stroke-linecap="butt" stroke-miterlimit="10" stroke-linejoin="miter" fill="none" stroke="#000000" d="M2.72131-34.01648H-2.72134"/>
<path transform="matrix(1.00003,0,0,-1,22.948243,83.434)" stroke-width=".3985" stroke-linecap="butt" stroke-miterlimit="10" stroke-linejoin="miter" fill="none" stroke="#000000" d="M2.72131-22.67793H-2.72134"/>
<path transform="matrix(1.00003,0,0,-1,22.948243,83.434)" stroke-width=".3985" stroke-linecap="butt" stroke-miterlimit="10" stroke-linejoin="miter" fill="none" stroke="#000000" d="M2.72131-11.33939H-2.72134"/>
<path transform="matrix(1.00003,0,0,-1,22.948243,83.434)" stroke-width=".3985" stroke-linecap="butt" stroke-miterlimit="10" stroke-linejoin="miter" fill="none" stroke="#000000" d="M2.72131 11.33855H-2.72134"/>
<path transform="matrix(1.00003,0,0,-1,22.948243,83.434)" stroke-width=".3985" stroke-linecap="butt" stroke-miterlimit="10" stroke-linejoin="miter" fill="none" stroke="#000000" d="M2.72131 22.6771H-2.72134"/>
<path transform="matrix(1.00003,0,0,-1,22.948243,83.434)" stroke-width=".3985" stroke-linecap="butt" stroke-miterlimit="10" stroke-linejoin="miter" fill="none" stroke="#000000" d="M2.72131 34.01564H-2.72134"/>
<path transform="matrix(1.00003,0,0,-1,22.948243,83.434)" stroke-width=".3985" stroke-linecap="butt" stroke-miterlimit="10" stroke-linejoin="miter" fill="none" stroke="#000000" d="M2.72131 45.35419H-2.72134"/>
<path transform="matrix(1.00003,0,0,-1,22.948243,83.434)" stroke-width=".3985" stroke-linecap="butt" stroke-miterlimit="10" stroke-linejoin="miter" fill="none" stroke="#000000" d="M2.72131 56.69273H-2.72134"/>
<path transform="matrix(1.00003,0,0,-1,22.948243,83.434)" stroke-width=".79701" stroke-linecap="butt" stroke-miterlimit="10" stroke-linejoin="miter" fill="none" stroke="#000000" d="M4.08174-56.69362H-4.08228"/>
<use data-text="-" xlink:href="#font_3_64" transform="matrix(9.962899,0,0,-9.9626,6.8477556,143.445)"/>
<use data-text="1" xlink:href="#font_3_82" transform="matrix(9.962899,0,0,-9.9626,10.165398,143.445)"/>
<path transform="matrix(1.00003,0,0,-1,22.948243,83.434)" stroke-width=".79701" stroke-linecap="butt" stroke-miterlimit="10" stroke-linejoin="miter" fill="none" stroke="#000000" d="M4.08174 56.69362H-4.08228"/>
<use data-text="1" xlink:href="#font_3_82" transform="matrix(9.962899,0,0,-9.9626,10.164856,30.057999)"/>
<path transform="matrix(1.00003,0,0,-1,22.948243,83.434)" stroke-width="1.19553" stroke-linecap="butt" stroke-miterlimit="10" stroke-linejoin="miter" fill="none" stroke="#ff0000" d="M0 0C0 0 6.43405 10.7397 8.90523 14.67252 11.37637 18.60533 15.33931 24.8189 17.81047 28.34505 20.28162 31.87122 24.24455 37.2075 26.71571 40.08673 29.18686 42.96596 33.14978 47.06061 35.62094 49.09651 38.0921 51.13243 42.05502 53.7062 44.5262 54.76016 46.99734 55.81412 50.96028 56.69264 53.43144 56.69273 55.90259 56.69283 59.86552 55.81473 62.33669 54.76102 64.80783 53.7073 68.77075 51.13388 71.24191 49.09822 73.71307 47.06255 77.67601 42.96832 80.14717 40.08934 82.61832 37.21036 86.58125 31.87468 89.05241 28.34853 91.52356 24.82236 95.48648 18.60806 97.95764 14.67513 100.42879 10.7422 104.39172 4.07404 106.86288 .00258 109.33405-4.06886 113.29698-10.73615 115.76814-14.66908 118.23929-18.60202 122.20222-24.81693 124.67339-28.34332 127.14453-31.86972 131.10746-37.20567 133.57862-40.08499 136.04976-42.96431 140.0127-47.05951 142.48386-49.09563 144.95502-51.13176 148.91796-53.70609 151.38912-54.76016 153.86026-55.81424 157.82318-56.69252 160.29434-56.69273 162.76549-56.69295 166.72843-55.81549 169.19959-54.7619 171.67073-53.70831 175.63367-51.13464 178.10485-49.0991 180.57599-47.06355 184.53893-42.96991 187.01009-40.09105 189.48123-37.21219 193.44416-31.8763 195.91532-28.35025 198.38646-24.82422 202.3494-18.61053 204.82056-14.67772 207.2917-10.7449 213.72582-.00516 213.72582-.00516"/>
</svg>
