<svg xmlns="http://www.w3.org/2000/svg" xmlns:xlink="http://www.w3.org/1999/xlink" version="1.1" width="165" height="156" viewBox="0 0 165 156">
<defs>
<path id="font_1_2" d="M.48599244 .38136292C.48999024 .39537049 .48999024 .39736939 .48999024 .40437318 .48999024 .42237855 .47599793 .43138124 .46099855 .43138124 .45098878 .43138124 .43499757 .42536927 .42599488 .41036988 .42399598 .405365 .41600038 .37435914 .4119873 .35635377 .40499879 .33035279 .397995 .30334474 .3919983 .27633668L.34700013 .09628296C.34298707 .08126831 .2999878 .011245728 .23399353 .011245728 .18299866 .011245728 .17199707 .055267335 .17199707 .0922699 .17199707 .1382904 .18899536 .20030213 .22299195 .28833009 .23899842 .3293457 .24299622 .3403473 .24299622 .36035157 .24299622 .405365 .21099854 .4423828 .16099549 .4423828 .06599426 .4423828 .0289917 .29733277 .0289917 .28833009 .0289917 .27833558 .038986207 .27833558 .040985109 .27833558 .050994874 .27833558 .051986696 .28033448 .056991579 .29634095 .083999637 .3903656 .12399292 .42037965 .1579895 .42037965 .1659851 .42037965 .18299866 .42037965 .18299866 .3883667 .18299866 .36335755 .17298889 .3373413 .1659851 .31834413 .12599182 .21231079 .10798645 .1552887 .10798645 .10827637 .10798645 .019256592 .17098999-.0107421879 .22999573-.0107421879 .2689972-.0107421879 .30299378 .0062561037 .33099366 .03425598 .31799317-.017745972 .30599977-.06674194 .2659912-.11973572 .23999024-.15385437 .20199585-.18309021 .1559906-.18309021 .14199829-.18309021 .09700012-.18005371 .07998657-.14074707 .09599304-.14074707 .10899353-.14074707 .12298584-.1287384 .1329956-.11973572 .14299011-.10673523 .14299011-.08773804 .14299011-.056747438 .115997318-.052734376 .10598755-.052734376 .08299255-.052734376 .049987794-.068740848 .049987794-.11773682 .049987794-.16796875 .09399414-.20507813 .1559906-.20507813 .25898744-.20507813 .3619995-.11373901 .3899994-.00074768069L.48599244 .38136292Z"/>
<path id="font_1_1" d="M.33399964 .30233766C.33999635 .32835389 .36299134 .42037965 .43299867 .42037965 .43798829 .42037965 .46199037 .42037965 .48298646 .40734864 .45498658 .402359 .43499757 .37734986 .43499757 .35334779 .43499757 .33735658 .44599916 .31835938 .47299195 .31835938 .49499513 .31835938 .5269928 .3363495 .5269928 .37635804 .5269928 .42837525 .46798707 .4423828 .43399049 .4423828 .37599183 .4423828 .34098817 .38935853 .32899476 .36634828 .3039856 .43237306 .25 .4423828 .22099304 .4423828 .116989139 .4423828 .05999756 .3133545 .05999756 .28834535 .05999756 .27833558 .069992069 .27833558 .07199097 .27833558 .07998657 .27833558 .08299255 .28033448 .084991458 .28933717 .11898804 .39535523 .18499756 .42037965 .21899414 .42037965 .23799134 .42037965 .272995 .4113617 .272995 .35334779 .272995 .32235719 .2559967 .25532533 .21899414 .11528015 .20298767 .053268434 .16799927 .011245728 .12399292 .011245728 .117996219 .011245728 .09498596 .011245728 .07398987 .024276734 .09899902 .029266358 .12098694 .05027771 .12098694 .07827759 .12098694 .105270389 .09899902 .11328125 .083999637 .11328125 .053985597 .11328125 .0289917 .08728027 .0289917 .055267335 .0289917 .009246826 .07899475-.0107421879 .12298584-.0107421879 .18899536-.0107421879 .22499085 .059280397 .22799683 .0652771 .23999024 .028274537 .27598573-.0107421879 .33599855-.0107421879 .43899537-.0107421879 .49598695 .118270877 .49598695 .14328003 .49598695 .1532898 .4869995 .1532898 .48399354 .1532898 .47499085 .1532898 .47299195 .14929199 .47099305 .14228821 .43798829 .03527832 .36999513 .011245728 .33799745 .011245728 .29899598 .011245728 .2829895 .043273927 .2829895 .07727051 .2829895 .09927368 .2889862 .121276859 .2999878 .16529846L.33399964 .30233766Z"/>
<path id="font_2_4" d="M.2899933 .35191346C.37199403 .37893678 .42999269 .4490509 .42999269 .52809146 .42999269 .6100464 .34199525 .6660156 .24598694 .6660156 .14498902 .6660156 .068984989 .60606387 .068984989 .53009036 .068984989 .49710084 .09098816 .47808839 .11999512 .47808839 .15098572 .47808839 .17098999 .50009158 .17098999 .5290985 .17098999 .57910159 .12399292 .57910159 .10899353 .57910159 .13999939 .62802127 .20599365 .64100649 .24198914 .64100649 .2829895 .64100649 .33799745 .6190338 .33799745 .5290985 .33799745 .51708987 .33599855 .45906068 .30999757 .4149933 .27999879 .36691285 .24598694 .36390687 .22099304 .36291505 .21299744 .36190797 .18899536 .35990907 .18199158 .35990907 .17399597 .35890199 .16699219 .35791017 .16699219 .3479004 .16699219 .33691407 .17399597 .33691407 .19099427 .33691407H.23498535C.31698609 .33691407 .35398866 .2686615 .35398866 .17037964 .35398866 .034469606 .2849884 .0055389406 .24099732 .0055389406 .19799805 .0055389406 .12298584 .022491456 .08799744 .08137512 .12298584 .07637024 .1539917 .09837341 .1539917 .1363678 .1539917 .17237854 .1269989 .19238281 .09799194 .19238281 .07398987 .19238281 .041992189 .17837525 .041992189 .1343689 .041992189 .043441774 .1349945-.022460938 .24398804-.022460938 .3659973-.022460938 .45700074 .06838989 .45700074 .17037964 .45700074 .252594 .3939972 .33088685 .2899933 .35191346Z"/>
<path id="font_2_1" d="M.45999146 .31976319C.45999146 .39982606 .45498658 .47988893 .41999818 .5539398 .37399293 .65000918 .2919922 .6660156 .25 .6660156 .18998719 .6660156 .116989139 .64001467 .07598877 .54693606 .04399109 .47789 .038986207 .39982606 .038986207 .31976319 .038986207 .24472046 .042999269 .15464783 .083999637 .07859802 .1269989-.0024719239 .19999695-.022460938 .24899292-.022460938 .30299378-.022460938 .3789978-.0014648438 .4229889 .09359741 .45498658 .16265869 .45999146 .2407074 .45999146 .31976319M.24899292-.00047302247C.20999146-.00047302247 .15098572 .024551392 .1329956 .12062073 .12199402 .18066406 .12199402 .2727356 .12199402 .3317871 .12199402 .39582826 .12199402 .46188355 .12998963 .5159149 .14898682 .63500979 .22399903 .64401248 .24899292 .64401248 .28199769 .64401248 .34799195 .6259918 .36698915 .52693179 .3769989 .47088624 .3769989 .39482118 .3769989 .3317871 .3769989 .25672914 .3769989 .18867493 .3659973 .12461853 .35099793 .029556275 .2939911-.00047302247 .24899292-.00047302247Z"/>
<path id="font_3_1" d="M.5069885 .24998474C.5069885 .3710022 .4099884 .4650116 .2919922 .4650116 .17199707 .4650116 .07699585 .36799623 .07699585 .25097657 .07699585 .1299591 .17399597 .035949708 .2919922 .035949708 .4119873 .035949708 .5069885 .13296509 .5069885 .24998474M.2919922 .08496094C.19799805 .08496094 .12599182 .16096497 .12599182 .24998474 .12599182 .34300233 .19999695 .41601563 .2919922 .41601563 .38598634 .41601563 .45799256 .33999635 .45799256 .25097657 .45799256 .15795899 .38398744 .08496094 .2919922 .08496094Z"/>
<path id="font_2_7" d="M.13198853 .327713V.35173036C.13198853 .6047821 .2559967 .64100649 .30699159 .64100649 .33099366 .64100649 .37298585 .634964 .394989 .6007538 .37998963 .6007538 .33999635 .6007538 .33999635 .5557556 .33999635 .524765 .3639984 .5097656 .38598634 .5097656 .4019928 .5097656 .43199159 .51875308 .43199159 .5577545 .43199159 .6178589 .3880005 .6660156 .30499269 .6660156 .1769867 .6660156 .041992189 .5367584 .041992189 .31570436 .041992189 .048553468 .1579895-.022460938 .25099183-.022460938 .3619995-.022460938 .45700074 .07156372 .45700074 .2036438 .45700074 .33070375 .36799623 .4267578 .25698854 .4267578 .18899536 .4267578 .1519928 .37573243 .13198853 .327713M.25099183 .0055389406C.18798828 .0055389406 .1579895 .06556702 .1519928 .080566409 .13398743 .127594 .13398743 .2076416 .13398743 .22564698 .13398743 .30369569 .1659851 .40374757 .2559967 .40374757 .27198792 .40374757 .31799317 .40374757 .34899903 .34172059 .36698915 .30470277 .36698915 .2536621 .36698915 .20463562 .36698915 .15661621 .36698915 .10658264 .34999085 .0705719 .31999208 .010528564 .27398683 .0055389406 .25099183 .0055389406Z"/>
<path id="font_2_10" d="M.36698915 .31781007V.28579713C.36698915 .05178833 .2630005 .0055389406 .20498657 .0055389406 .18798828 .0055389406 .13398743 .007537842 .10699463 .041778566 .15098572 .041778566 .15899658 .07078552 .15899658 .08778381 .15899658 .118774417 .1349945 .13378906 .11299133 .13378906 .09700012 .13378906 .066986087 .12478638 .066986087 .08578491 .066986087 .018615723 .12098694-.022460938 .20599365-.022460938 .33499146-.022460938 .45700074 .11378479 .45700074 .32881166 .45700074 .5979767 .34199525 .6660156 .25299073 .6660156 .19799805 .6660156 .14898682 .64801028 .10598755 .60298159 .06498718 .5579529 .041992189 .5159302 .041992189 .44088746 .041992189 .31581117 .12998963 .21777344 .24198914 .21777344 .30299378 .21777344 .34399415 .25978089 .36698915 .31781007M.24299622 .24076844C.22698975 .24076844 .18099976 .24076844 .1499939 .3038025 .13198853 .3408203 .13198853 .39085389 .13198853 .43988038 .13198853 .49391175 .13198853 .54093936 .15299988 .5779724 .17999268 .6279907 .21798706 .64100649 .25299073 .64100649 .29899598 .64100649 .33198548 .60697939 .34899903 .5619507 .36099244 .52993777 .36499024 .4669037 .36499024 .42086793 .36499024 .3378296 .33099366 .24076844 .24299622 .24076844Z"/>
<path id="font_2_2" d="M.2939911 .64004519C.2939911 .66400149 .2939911 .6660156 .2709961 .6660156 .20899964 .60227969 .12098694 .60227969 .08898926 .60227969V.57128909C.10899353 .57128909 .16799927 .57128909 .21998596 .5972748V.07902527C.21998596 .042999269 .21699524 .0309906 .1269989 .0309906H.09498596V0C.12998963 .0029907227 .21699524 .0029907227 .25698854 .0029907227 .29699708 .0029907227 .38398744 .0029907227 .4189911 0V.0309906H.3869934C.29699708 .0309906 .2939911 .041992189 .2939911 .07902527V.64004519Z"/>
<path id="font_2_3" d="M.1269989 .07699585 .23298645 .18003845C.3889923 .31811524 .44898988 .3721466 .44898988 .47216798 .44898988 .5860901 .35899354 .6660156 .23699951 .6660156 .12399292 .6660156 .049987794 .57411196 .049987794 .48516847 .049987794 .4291687 .099990848 .4291687 .102996829 .4291687 .11999512 .4291687 .15499878 .44117738 .15499878 .48217774 .15499878 .5081787 .13699341 .5341797 .101989749 .5341797 .09399414 .5341797 .09199524 .5341797 .08898926 .5331726 .11199951 .59806826 .1659851 .63500979 .22399903 .63500979 .31498719 .63500979 .35798646 .5541382 .35798646 .47216798 .35798646 .39215089 .30799867 .31311036 .25299073 .25108338L.06098938 .036987306C.049987794 .025985718 .049987794 .023986817 .049987794 0H.42099L.44898988 .17404175H.42399598C.4189911 .14402771 .4119873 .1000061 .4019928 .084991458 .394989 .07699585 .32899476 .07699585 .30699159 .07699585H.1269989Z"/>
<path id="font_2_6" d="M.44898988 .20022583C.44898988 .3193512 .36698915 .41944886 .25898744 .41944886 .21099854 .41944886 .16799927 .40345765 .13198853 .36842347V.5637665C.1519928 .5577698 .18499756 .55078127 .21699524 .55078127 .33999635 .55078127 .4099884 .6417694 .4099884 .6547699 .4099884 .6607666 .40699769 .6657715 .3999939 .6657715 .39898683 .6657715 .39698792 .6657715 .3919983 .66278079 .37199403 .6537781 .32299806 .6337738 .2559967 .6337738 .21598816 .6337738 .16999817 .6407776 .12298584 .6617737 .114990238 .66477969 .11299133 .66477969 .11099243 .66477969 .100997928 .66477969 .100997928 .6567688 .100997928 .6407776V.34439088C.100997928 .32637025 .100997928 .31835938 .114990238 .31835938 .12199402 .31835938 .12399292 .32136537 .12799073 .32736207 .13899231 .3433838 .17599488 .39746095 .25698854 .39746095 .30899049 .39746095 .33399964 .35139466 .34199525 .33337403 .35798646 .29632569 .3600006 .25727845 .3600006 .20722962 .3600006 .17222595 .3600006 .11222839 .33599855 .07035828 .31199647 .031463624 .2749939 .0055389406 .22898865 .0055389406 .1559906 .0055389406 .09899902 .058380128 .08198547 .11723328 .084991458 .1162262 .08799744 .115234378 .09899902 .115234378 .13198853 .115234378 .14898682 .14022827 .14898682 .16423035 .14898682 .18823242 .13198853 .21322632 .09899902 .21322632 .084991458 .21322632 .049987794 .20622254 .049987794 .16023255 .049987794 .07434082 .11898804-.022460938 .23098755-.022460938 .34700013-.022460938 .44898988 .073349 .44898988 .20022583Z"/>
<path id="font_2_9" d="M.16299439 .4569702C.116989139 .486969 .11299133 .52098086 .11299133 .5379791 .11299133 .598999 .17799378 .64100649 .24899292 .64100649 .32199098 .64100649 .38598634 .58898928 .38598634 .51698306 .38598634 .45996095 .34700013 .4119568 .2869873 .37695313L.16299439 .4569702M.30899049 .36193849C.3809967 .3989563 .42999269 .45095826 .42999269 .51698306 .42999269 .6090088 .34098817 .6660156 .25 .6660156 .1499939 .6660156 .068984989 .59199526 .068984989 .49897767 .068984989 .4809723 .070999149 .43595887 .11299133 .38894654 .12399292 .37695313 .16099549 .35194398 .18598938 .33494569 .12799073 .30592347 .041992189 .24984741 .041992189 .15072632 .041992189 .04458618 .14399719-.022460938 .24899292-.022460938 .3619995-.022460938 .45700074 .06060791 .45700074 .16773987 .45700074 .20379639 .44599916 .24885559 .4079895 .2909088 .3889923 .31193543 .37298585 .3219452 .30899049 .36193849M.20899964 .3199463 .33198548 .24183655C.3600006 .2228241 .40699769 .19277954 .40699769 .13169861 .40699769 .05760193 .33198548 .0055389406 .25 .0055389406 .1639862 .0055389406 .09199524 .067611698 .09199524 .15072632 .09199524 .20880127 .12399292 .27288819 .20899964 .3199463Z"/>
<path id="font_2_5" d="M.2939911 .16503906V.07800293C.2939911 .041992189 .2919922 .0309906 .21798706 .0309906H.19699097V0C.23799134 .0029907227 .2899933 .0029907227 .33198548 .0029907227 .37399293 .0029907227 .4269867 .0029907227 .46798707 0V.0309906H.44699098C.37298585 .0309906 .37098695 .041992189 .37098695 .07800293V.16503906H.47099305V.19602967H.37098695V.65075686C.37098695 .67074587 .37098695 .6767578 .35499574 .6767578 .34599305 .6767578 .34298707 .6767578 .33499146 .66474917L.027999878 .19602967V.16503906H.2939911M.2999878 .19602967H.055999757L.2999878 .5688019V.19602967Z"/>
<path id="font_2_8" d="M.47599793 .609375C.4850006 .6213684 .4850006 .62338259 .4850006 .64437869H.24198914C.11999512 .64437869 .117996219 .65737918 .11399841 .67637637H.08898926L.055999757 .4702301H.08099365C.083999637 .48625184 .09298706 .5493469 .10598755 .56137087 .11299133 .5673828 .19099427 .5673828 .20399475 .5673828H.41099549C.3999939 .5513611 .32099916 .4421997 .29899598 .40914918 .20899964 .27394105 .17599488 .1347351 .17599488 .032577516 .17599488 .022567749 .17599488-.022460938 .22200012-.022460938 .2679901-.022460938 .2679901 .022567749 .2679901 .032577516V.08366394C.2679901 .13873291 .2709961 .19381714 .2789917 .24790955 .2829895 .27093507 .29699708 .35707093 .34098817 .41915895L.47599793 .609375Z"/>
</defs>
<path transform="matrix(1.00005,0,0,-1.00008,76.598117,83.846668)" stroke-width=".79701" stroke-linecap="butt" stroke-miterlimit="10" stroke-linejoin="miter" fill="none" stroke="#000000" d="M0-56.69362V76.5191"/>
<path transform="matrix(0,-1.00008,-1.00005,-0,76.598117,7.3214495)" d="M1.0361 0C-.25902 .25902-1.55415 .77707-3.1083 1.68365-1.55415 .51805-1.55415-.51805-3.1083-1.68365-1.55415-.77707-.25902-.25902 1.0361 0Z"/>
<path transform="matrix(0,-1.00008,-1.00005,-0,76.598117,7.3214495)" stroke-width=".79701" stroke-linecap="butt" stroke-linejoin="round" fill="none" stroke="#000000" d="M1.0361 0C-.25902 .25902-1.55415 .77707-3.1083 1.68365-1.55415 .51805-1.55415-.51805-3.1083-1.68365-1.55415-.77707-.25902-.25902 1.0361 0Z"/>
<use data-text="y" xlink:href="#font_1_2" transform="matrix(9.963098,0,0,-9.963397,67.636669,6.2084505)"/>
<path transform="matrix(1.00005,0,0,-1.00008,76.598117,83.846668)" stroke-width=".79701" stroke-linecap="butt" stroke-miterlimit="10" stroke-linejoin="miter" fill="none" stroke="#000000" d="M-56.69362 0H76.5191"/>
<path transform="matrix(1.00005,0,0,-1.00008,153.12104,83.846668)" d="M1.0361 0C-.25902 .25902-1.55415 .77707-3.1083 1.68365-1.55415 .51805-1.55415-.51805-3.1083-1.68365-1.55415-.77707-.25902-.25902 1.0361 0Z"/>
<path transform="matrix(1.00005,0,0,-1.00008,153.12104,83.846668)" stroke-width=".79701" stroke-linecap="butt" stroke-linejoin="round" fill="none" stroke="#000000" d="M1.0361 0C-.25902 .25902-1.55415 .77707-3.1083 1.68365-1.55415 .51805-1.55415-.51805-3.1083-1.68365-1.55415-.77707-.25902-.25902 1.0361 0Z"/>
<use data-text="x" xlink:href="#font_1_1" transform="matrix(9.963098,0,0,-9.963397,158.27519,85.99184)"/>
<path transform="matrix(1.00005,0,0,-1.00008,76.598117,83.846668)" stroke-width=".3985" stroke-linecap="butt" stroke-miterlimit="10" stroke-linejoin="miter" fill="none" stroke="#929292" d="M56.69363 0C56.69363 31.31142 31.31142 56.69363 0 56.69363-31.31142 56.69363-56.69363 31.31142-56.69363 0-56.69363-31.31142-31.31142-56.69363 0-56.69363 31.31142-56.69363 56.69363-31.31142 56.69363 0ZM0 0"/>
<path transform="matrix(1.00005,0,0,-1.00008,76.598117,83.846668)" d="M2.12592 0C2.12592 1.17412 1.17412 2.12592 0 2.12592-1.17412 2.12592-2.12592 1.17412-2.12592 0-2.12592-1.17412-1.17412-2.12592 0-2.12592 1.17412-2.12592 2.12592-1.17412 2.12592 0ZM0 0"/>
<path transform="matrix(1.00005,0,0,-1.00008,76.598117,83.846668)" stroke-width=".3985" stroke-linecap="butt" stroke-miterlimit="10" stroke-linejoin="miter" fill="none" stroke="#000000" d="M2.12592 0C2.12592 1.17412 1.17412 2.12592 0 2.12592-1.17412 2.12592-2.12592 1.17412-2.12592 0-2.12592-1.17412-1.17412-2.12592 0-2.12592 1.17412-2.12592 2.12592-1.17412 2.12592 0ZM0 0"/>
<path transform="matrix(1.00005,0,0,-1.00008,76.598117,83.846668)" stroke-width=".3985" stroke-linecap="butt" stroke-miterlimit="10" stroke-linejoin="miter" fill="none" stroke="#ff8080" d="M0 0 54.76192 14.67342"/>
<path transform="matrix(1.00005,0,0,-1.00008,76.598117,83.846668)" stroke-width=".3985" stroke-linecap="butt" stroke-miterlimit="10" stroke-linejoin="miter" fill="none" stroke="#ff8080" d="M0 0 49.09825 28.3468"/>
<path transform="matrix(1.00005,0,0,-1.00008,76.598117,83.846668)" stroke-width=".3985" stroke-linecap="butt" stroke-miterlimit="10" stroke-linejoin="miter" fill="none" stroke="#ff8080" d="M0 0 40.08847 40.08847"/>
<path transform="matrix(1.00005,0,0,-1.00008,76.598117,83.846668)" stroke-width=".3985" stroke-linecap="butt" stroke-miterlimit="10" stroke-linejoin="miter" fill="none" stroke="#ff8080" d="M0 0 28.3468 49.09825"/>
<path transform="matrix(1.00005,0,0,-1.00008,76.598117,83.846668)" stroke-width=".3985" stroke-linecap="butt" stroke-miterlimit="10" stroke-linejoin="miter" fill="none" stroke="#ff8080" d="M0 0 14.67342 54.76192"/>
<path transform="matrix(1.00005,0,0,-1.00008,76.598117,83.846668)" stroke-width=".3985" stroke-linecap="butt" stroke-miterlimit="10" stroke-linejoin="miter" fill="none" stroke="#ff8080" d="M0 0V56.69363"/>
<path transform="matrix(1.00005,0,0,-1.00008,76.598117,83.846668)" stroke-width=".3985" stroke-linecap="butt" stroke-miterlimit="10" stroke-linejoin="miter" fill="none" stroke="#ff8080" d="M0 0-14.67342 54.76192"/>
<path transform="matrix(1.00005,0,0,-1.00008,76.598117,83.846668)" stroke-width=".3985" stroke-linecap="butt" stroke-miterlimit="10" stroke-linejoin="miter" fill="none" stroke="#ff8080" d="M0 0-28.3468 49.09825"/>
<path transform="matrix(1.00005,0,0,-1.00008,76.598117,83.846668)" stroke-width=".3985" stroke-linecap="butt" stroke-miterlimit="10" stroke-linejoin="miter" fill="none" stroke="#ff8080" d="M0 0-40.08847 40.08847"/>
<path transform="matrix(1.00005,0,0,-1.00008,76.598117,83.846668)" stroke-width=".3985" stroke-linecap="butt" stroke-miterlimit="10" stroke-linejoin="miter" fill="none" stroke="#ff8080" d="M0 0-49.09825 28.3468"/>
<path transform="matrix(1.00005,0,0,-1.00008,76.598117,83.846668)" stroke-width=".3985" stroke-linecap="butt" stroke-miterlimit="10" stroke-linejoin="miter" fill="none" stroke="#ff8080" d="M0 0-54.76192 14.67342"/>
<path transform="matrix(1.00005,0,0,-1.00008,76.598117,83.846668)" stroke-width=".3985" stroke-linecap="butt" stroke-miterlimit="10" stroke-linejoin="miter" fill="none" stroke="#ff8080" d="M0 0H-56.69363"/>
<path transform="matrix(1.00005,0,0,-1.00008,76.598117,83.846668)" stroke-width=".3985" stroke-linecap="butt" stroke-miterlimit="10" stroke-linejoin="miter" fill="none" stroke="#ff8080" d="M0 0-54.76192-14.67342"/>
<path transform="matrix(1.00005,0,0,-1.00008,76.598117,83.846668)" stroke-width=".3985" stroke-linecap="butt" stroke-miterlimit="10" stroke-linejoin="miter" fill="none" stroke="#ff8080" d="M0 0-49.09825-28.3468"/>
<path transform="matrix(1.00005,0,0,-1.00008,76.598117,83.846668)" stroke-width=".3985" stroke-linecap="butt" stroke-miterlimit="10" stroke-linejoin="miter" fill="none" stroke="#ff8080" d="M0 0-40.08847-40.08847"/>
<path transform="matrix(1.00005,0,0,-1.00008,76.598117,83.846668)" stroke-width=".3985" stroke-linecap="butt" stroke-miterlimit="10" stroke-linejoin="miter" fill="none" stroke="#ff8080" d="M0 0-28.3468-49.09825"/>
<path transform="matrix(1.00005,0,0,-1.00008,76.598117,83.846668)" stroke-width=".3985" stroke-linecap="butt" stroke-miterlimit="10" stroke-linejoin="miter" fill="none" stroke="#ff8080" d="M0 0-14.67342-54.76192"/>
<path transform="matrix(1.00005,0,0,-1.00008,76.598117,83.846668)" stroke-width=".3985" stroke-linecap="butt" stroke-miterlimit="10" stroke-linejoin="miter" fill="none" stroke="#ff8080" d="M0 0V-56.69363"/>
<path transform="matrix(1.00005,0,0,-1.00008,76.598117,83.846668)" stroke-width=".3985" stroke-linecap="butt" stroke-miterlimit="10" stroke-linejoin="miter" fill="none" stroke="#ff8080" d="M0 0 14.67342-54.76192"/>
<path transform="matrix(1.00005,0,0,-1.00008,76.598117,83.846668)" stroke-width=".3985" stroke-linecap="butt" stroke-miterlimit="10" stroke-linejoin="miter" fill="none" stroke="#ff8080" d="M0 0 28.3468-49.09825"/>
<path transform="matrix(1.00005,0,0,-1.00008,76.598117,83.846668)" stroke-width=".3985" stroke-linecap="butt" stroke-miterlimit="10" stroke-linejoin="miter" fill="none" stroke="#ff8080" d="M0 0 40.08847-40.08847"/>
<path transform="matrix(1.00005,0,0,-1.00008,76.598117,83.846668)" stroke-width=".3985" stroke-linecap="butt" stroke-miterlimit="10" stroke-linejoin="miter" fill="none" stroke="#ff8080" d="M0 0 49.09825-28.3468"/>
<path transform="matrix(1.00005,0,0,-1.00008,76.598117,83.846668)" stroke-width=".3985" stroke-linecap="butt" stroke-miterlimit="10" stroke-linejoin="miter" fill="none" stroke="#ff8080" d="M0 0 54.76192-14.67342"/>
<path transform="matrix(1.00005,0,0,-1.00008,76.598117,83.846668)" stroke-width=".3985" stroke-linecap="butt" stroke-miterlimit="10" stroke-linejoin="miter" fill="none" stroke="#0000ff" d="M0 0 49.09825 28.3468"/>
<use data-text="3" xlink:href="#font_2_4" transform="matrix(9.963098,0,0,-9.963397,127.01963,53.967275)" fill="#0000ff"/>
<use data-text="0" xlink:href="#font_2_1" transform="matrix(9.963098,0,0,-9.963397,132.00119,53.967275)" fill="#0000ff"/>
<use data-text="&#x25e6;" xlink:href="#font_3_1" transform="matrix(6.9741489,0,0,-6.974358,136.98215,50.351987)" fill="#0000ff"/>
<path transform="matrix(1.00005,0,0,-1.00008,76.598117,83.846668)" stroke-width=".3985" stroke-linecap="butt" stroke-miterlimit="10" stroke-linejoin="miter" fill="none" stroke="#0000ff" d="M0 0 28.3468 49.09825"/>
<use data-text="6" xlink:href="#font_2_7" transform="matrix(9.963098,0,0,-9.963397,102.635417,29.582325)" fill="#0000ff"/>
<use data-text="0" xlink:href="#font_2_1" transform="matrix(9.963098,0,0,-9.963397,107.61697,29.582325)" fill="#0000ff"/>
<use data-text="&#x25e6;" xlink:href="#font_3_1" transform="matrix(6.9741489,0,0,-6.974358,112.59792,25.967038)" fill="#0000ff"/>
<path transform="matrix(1.00005,0,0,-1.00008,76.598117,83.846668)" stroke-width=".3985" stroke-linecap="butt" stroke-miterlimit="10" stroke-linejoin="miter" fill="none" stroke="#0000ff" d="M0 0V56.69363"/>
<use data-text="9" xlink:href="#font_2_10" transform="matrix(9.963098,0,0,-9.963397,69.32675,20.656609)" fill="#0000ff"/>
<use data-text="0" xlink:href="#font_2_1" transform="matrix(9.963098,0,0,-9.963397,74.308307,20.656609)" fill="#0000ff"/>
<use data-text="&#x25e6;" xlink:href="#font_3_1" transform="matrix(6.9741489,0,0,-6.974358,79.28926,17.04132)" fill="#0000ff"/>
<path transform="matrix(1.00005,0,0,-1.00008,76.598117,83.846668)" stroke-width=".3985" stroke-linecap="butt" stroke-miterlimit="10" stroke-linejoin="miter" fill="none" stroke="#0000ff" d="M0 0-28.3468 49.09825"/>
<use data-text="1" xlink:href="#font_2_2" transform="matrix(9.963098,0,0,-9.963397,33.52597,29.582325)" fill="#0000ff"/>
<use data-text="2" xlink:href="#font_2_3" transform="matrix(9.963098,0,0,-9.963397,38.507524,29.582325)" fill="#0000ff"/>
<use data-text="0" xlink:href="#font_2_1" transform="matrix(9.963098,0,0,-9.963397,43.48906,29.582325)" fill="#0000ff"/>
<use data-text="&#x25e6;" xlink:href="#font_3_1" transform="matrix(6.9741489,0,0,-6.974358,48.47072,25.967038)" fill="#0000ff"/>
<path transform="matrix(1.00005,0,0,-1.00008,76.598117,83.846668)" stroke-width=".3985" stroke-linecap="butt" stroke-miterlimit="10" stroke-linejoin="miter" fill="none" stroke="#0000ff" d="M0 0-49.09825 28.3468"/>
<use data-text="1" xlink:href="#font_2_2" transform="matrix(9.963098,0,0,-9.963397,9.141739,53.967275)" fill="#0000ff"/>
<use data-text="5" xlink:href="#font_2_6" transform="matrix(9.963098,0,0,-9.963397,14.123291,53.967275)" fill="#0000ff"/>
<use data-text="0" xlink:href="#font_2_1" transform="matrix(9.963098,0,0,-9.963397,19.104828,53.967275)" fill="#0000ff"/>
<use data-text="&#x25e6;" xlink:href="#font_3_1" transform="matrix(6.9741489,0,0,-6.974358,24.086487,50.351987)" fill="#0000ff"/>
<path transform="matrix(1.00005,0,0,-1.00008,76.598117,83.846668)" stroke-width=".3985" stroke-linecap="butt" stroke-miterlimit="10" stroke-linejoin="miter" fill="none" stroke="#0000ff" d="M0 0H-56.69363"/>
<use data-text="1" xlink:href="#font_2_2" transform="matrix(9.963098,0,0,-9.963397,.21730042,87.27694)" fill="#0000ff"/>
<use data-text="8" xlink:href="#font_2_9" transform="matrix(9.963098,0,0,-9.963397,5.1988527,87.27694)" fill="#0000ff"/>
<use data-text="0" xlink:href="#font_2_1" transform="matrix(9.963098,0,0,-9.963397,10.180389,87.27694)" fill="#0000ff"/>
<use data-text="&#x25e6;" xlink:href="#font_3_1" transform="matrix(6.9741489,0,0,-6.974358,15.162048,83.66165)" fill="#0000ff"/>
<path transform="matrix(1.00005,0,0,-1.00008,76.598117,83.846668)" stroke-width=".3985" stroke-linecap="butt" stroke-miterlimit="10" stroke-linejoin="miter" fill="none" stroke="#0000ff" d="M0 0-49.09825-28.3468"/>
<use data-text="2" xlink:href="#font_2_3" transform="matrix(9.963098,0,0,-9.963397,9.141739,120.5876)" fill="#0000ff"/>
<use data-text="1" xlink:href="#font_2_2" transform="matrix(9.963098,0,0,-9.963397,14.123291,120.5876)" fill="#0000ff"/>
<use data-text="0" xlink:href="#font_2_1" transform="matrix(9.963098,0,0,-9.963397,19.104828,120.5876)" fill="#0000ff"/>
<use data-text="&#x25e6;" xlink:href="#font_3_1" transform="matrix(6.9741489,0,0,-6.974358,24.086487,116.97231)" fill="#0000ff"/>
<path transform="matrix(1.00005,0,0,-1.00008,76.598117,83.846668)" stroke-width=".3985" stroke-linecap="butt" stroke-miterlimit="10" stroke-linejoin="miter" fill="none" stroke="#0000ff" d="M0 0-28.3468-49.09825"/>
<use data-text="2" xlink:href="#font_2_3" transform="matrix(9.963098,0,0,-9.963397,33.52597,144.97257)" fill="#0000ff"/>
<use data-text="4" xlink:href="#font_2_5" transform="matrix(9.963098,0,0,-9.963397,38.507524,144.97257)" fill="#0000ff"/>
<use data-text="0" xlink:href="#font_2_1" transform="matrix(9.963098,0,0,-9.963397,43.48906,144.97257)" fill="#0000ff"/>
<use data-text="&#x25e6;" xlink:href="#font_3_1" transform="matrix(6.9741489,0,0,-6.974358,48.47072,141.35727)" fill="#0000ff"/>
<path transform="matrix(1.00005,0,0,-1.00008,76.598117,83.846668)" stroke-width=".3985" stroke-linecap="butt" stroke-miterlimit="10" stroke-linejoin="miter" fill="none" stroke="#0000ff" d="M0 0V-56.69363"/>
<use data-text="2" xlink:href="#font_2_3" transform="matrix(9.963098,0,0,-9.963397,66.835628,153.89727)" fill="#0000ff"/>
<use data-text="7" xlink:href="#font_2_8" transform="matrix(9.963098,0,0,-9.963397,71.81718,153.89727)" fill="#0000ff"/>
<use data-text="0" xlink:href="#font_2_1" transform="matrix(9.963098,0,0,-9.963397,76.79871,153.89727)" fill="#0000ff"/>
<use data-text="&#x25e6;" xlink:href="#font_3_1" transform="matrix(6.9741489,0,0,-6.974358,81.78037,150.28199)" fill="#0000ff"/>
<path transform="matrix(1.00005,0,0,-1.00008,76.598117,83.846668)" stroke-width=".3985" stroke-linecap="butt" stroke-miterlimit="10" stroke-linejoin="miter" fill="none" stroke="#0000ff" d="M0 0 28.3468-49.09825"/>
<use data-text="3" xlink:href="#font_2_4" transform="matrix(9.963098,0,0,-9.963397,100.14429,144.97257)" fill="#0000ff"/>
<use data-text="0" xlink:href="#font_2_1" transform="matrix(9.963098,0,0,-9.963397,105.12584,144.97257)" fill="#0000ff"/>
<use data-text="0" xlink:href="#font_2_1" transform="matrix(9.963098,0,0,-9.963397,110.107379,144.97257)" fill="#0000ff"/>
<use data-text="&#x25e6;" xlink:href="#font_3_1" transform="matrix(6.9741489,0,0,-6.974358,115.089038,141.35727)" fill="#0000ff"/>
<path transform="matrix(1.00005,0,0,-1.00008,76.598117,83.846668)" stroke-width=".3985" stroke-linecap="butt" stroke-miterlimit="10" stroke-linejoin="miter" fill="none" stroke="#0000ff" d="M0 0 49.09825-28.3468"/>
<use data-text="3" xlink:href="#font_2_4" transform="matrix(9.963098,0,0,-9.963397,124.52851,120.5876)" fill="#0000ff"/>
<use data-text="3" xlink:href="#font_2_4" transform="matrix(9.963098,0,0,-9.963397,129.51007,120.5876)" fill="#0000ff"/>
<use data-text="0" xlink:href="#font_2_1" transform="matrix(9.963098,0,0,-9.963397,134.49161,120.5876)" fill="#0000ff"/>
<use data-text="&#x25e6;" xlink:href="#font_3_1" transform="matrix(6.9741489,0,0,-6.974358,139.47327,116.97231)" fill="#0000ff"/>
<path transform="matrix(1.00005,0,0,-1.00008,76.598117,83.846668)" stroke-width=".3985" stroke-linecap="butt" stroke-miterlimit="10" stroke-linejoin="miter" fill="none" stroke="#ec008c" d="M0 0 40.08847 40.08847"/>
<use data-text="4" xlink:href="#font_2_5" transform="matrix(9.963098,0,0,-9.963397,116.433109,40.16917)" fill="#0000ff"/>
<use data-text="5" xlink:href="#font_2_6" transform="matrix(9.963098,0,0,-9.963397,121.41466,40.16917)" fill="#0000ff"/>
<use data-text="&#x25e6;" xlink:href="#font_3_1" transform="matrix(6.9741489,0,0,-6.974358,126.395618,36.553884)" fill="#0000ff"/>
<path transform="matrix(1.00005,0,0,-1.00008,76.598117,83.846668)" stroke-width=".3985" stroke-linecap="butt" stroke-miterlimit="10" stroke-linejoin="miter" fill="none" stroke="#ec008c" d="M0 0-40.08847 40.08847"/>
<use data-text="1" xlink:href="#font_2_2" transform="matrix(9.963098,0,0,-9.963397,19.729279,40.16917)" fill="#0000ff"/>
<use data-text="3" xlink:href="#font_2_4" transform="matrix(9.963098,0,0,-9.963397,24.71083,40.16917)" fill="#0000ff"/>
<use data-text="5" xlink:href="#font_2_6" transform="matrix(9.963098,0,0,-9.963397,29.692368,40.16917)" fill="#0000ff"/>
<use data-text="&#x25e6;" xlink:href="#font_3_1" transform="matrix(6.9741489,0,0,-6.974358,34.674028,36.553884)" fill="#0000ff"/>
<path transform="matrix(1.00005,0,0,-1.00008,76.598117,83.846668)" stroke-width=".3985" stroke-linecap="butt" stroke-miterlimit="10" stroke-linejoin="miter" fill="none" stroke="#ec008c" d="M0 0-40.08847-40.08847"/>
<use data-text="2" xlink:href="#font_2_3" transform="matrix(9.963098,0,0,-9.963397,19.729279,134.3847)" fill="#0000ff"/>
<use data-text="2" xlink:href="#font_2_3" transform="matrix(9.963098,0,0,-9.963397,24.71083,134.3847)" fill="#0000ff"/>
<use data-text="5" xlink:href="#font_2_6" transform="matrix(9.963098,0,0,-9.963397,29.692368,134.3847)" fill="#0000ff"/>
<use data-text="&#x25e6;" xlink:href="#font_3_1" transform="matrix(6.9741489,0,0,-6.974358,34.674028,130.76943)" fill="#0000ff"/>
<path transform="matrix(1.00005,0,0,-1.00008,76.598117,83.846668)" stroke-width=".3985" stroke-linecap="butt" stroke-miterlimit="10" stroke-linejoin="miter" fill="none" stroke="#ec008c" d="M0 0 40.08847-40.08847"/>
<use data-text="3" xlink:href="#font_2_4" transform="matrix(9.963098,0,0,-9.963397,113.94198,134.3847)" fill="#0000ff"/>
<use data-text="1" xlink:href="#font_2_2" transform="matrix(9.963098,0,0,-9.963397,118.92353,134.3847)" fill="#0000ff"/>
<use data-text="5" xlink:href="#font_2_6" transform="matrix(9.963098,0,0,-9.963397,123.90507,134.3847)" fill="#0000ff"/>
<use data-text="&#x25e6;" xlink:href="#font_3_1" transform="matrix(6.9741489,0,0,-6.974358,128.88672,130.76943)" fill="#0000ff"/>
<use data-text="0" xlink:href="#font_2_1" transform="matrix(9.963098,0,0,-9.963397,135.42105,81.60748)" fill="#0000ff"/>
<use data-text="&#x25e6;" xlink:href="#font_3_1" transform="matrix(6.9741489,0,0,-6.974358,140.40232,77.992198)" fill="#0000ff"/>
<use data-text="3" xlink:href="#font_2_4" transform="matrix(9.963098,0,0,-9.963397,135.42105,92.946399)" fill="#0000ff"/>
<use data-text="6" xlink:href="#font_2_7" transform="matrix(9.963098,0,0,-9.963397,140.4026,92.946399)" fill="#0000ff"/>
<use data-text="0" xlink:href="#font_2_1" transform="matrix(9.963098,0,0,-9.963397,145.38414,92.946399)" fill="#0000ff"/>
<use data-text="&#x25e6;" xlink:href="#font_3_1" transform="matrix(6.9741489,0,0,-6.974358,150.3658,89.3311)" fill="#0000ff"/>
</svg>
