<svg xmlns="http://www.w3.org/2000/svg" xmlns:xlink="http://www.w3.org/1999/xlink" version="1.1" width="98" height="70" viewBox="0 0 98 70">
<defs>
<path id="font_1_2" d="M.6049957 .37234498C.6049957 .4173584 .58699038 .4423523 .5649872 .4423523 .5389862 .4423523 .5119934 .41835023 .5119934 .39533998 .5119934 .38534547 .5169983 .37434388 .5269928 .3653412 .5439911 .35032655 .56199648 .32331849 .56199648 .28131105 .56199648 .24130249 .54299929 .1842804 .5119934 .13827515 .48199464 .09526062 .44499208 .06124878 .397995 .06124878 .34098817 .06124878 .30999757 .09725952 .30099488 .15127564 .31199647 .17727661 .33499146 .24130249 .33499146 .26930238 .33499146 .28131105 .32998658 .2913208 .31698609 .2913208 .30899049 .2913208 .2979889 .2893219 .2899933 .27430726 .2789917 .25430299 .2669983 .18928528 .2669983 .15327454 .23399353 .10626221 .19400025 .06124878 .1309967 .06124878 .06498718 .06124878 .04399109 .120269779 .04399109 .17628479 .04399109 .3013153 .1459961 .40634156 .1459961 .4193573 .1459961 .4303589 .13798523 .4383545 .1269989 .4383545 .11399841 .4383545 .10699463 .425354 .100997928 .41635133 .049987794 .34233094 .011993408 .22329712 .011993408 .13226319 .011993408 .06324768 .034988405-.0107421879 .116989139-.0107421879 .18798828-.0107421879 .23498535 .039245607 .2709961 .09425354 .27999879 .036254884 .31900025-.0107421879 .3809967-.0107421879 .45899964-.0107421879 .5069885 .050247194 .54299929 .12527466 .5669861 .17428589 .6049957 .310318 .6049957 .37234498Z"/>
<path id="font_1_1" d="M.2649994 .37265016H.37799073C.34498597 .22489929 .33599855 .18196106 .33599855 .11508179 .33599855 .100097659 .33599855 .073150638 .34399415 .03919983 .35398866-.0047454836 .36499024-.0107421879 .37998963-.0107421879 .3999939-.0107421879 .42099 .007247925 .42099 .02722168 .42099 .033218385 .42099 .035202028 .4149933 .049179079 .38598634 .12106323 .38598634 .18595886 .38598634 .21391297 .38598634 .26683045 .3929901 .32073976 .4039917 .37265016H.5179901C.5309906 .37265016 .5669861 .37265016 .5669861 .406662 .5669861 .43066407 .54599 .43066407 .5269928 .43066407H.19198609C.16999817 .43066407 .13198853 .43066407 .08799744 .38365174 .052993776 .34469605 .026992798 .29878236 .026992798 .29379273 .026992798 .29278565 .026992798 .28379823 .038986207 .28379823 .04699707 .28379823 .04899597 .28779603 .054992677 .29577638 .10398865 .37265016 .1619873 .37265016 .18199158 .37265016H.23899842C.20698548 .25186158 .15299988 .13105774 .11099243 .04020691 .102996829 .025222779 .102996829 .023223877 .102996829 .016235352 .102996829-.002746582 .11898804-.0107421879 .13198853-.0107421879 .1619873-.0107421879 .16999817 .017242432 .18199158 .05418396 .19599915 .100097659 .19599915 .10209656 .20899964 .15202332L.2649994 .37265016Z"/>
<path id="font_2_1" d="M.6589966 .23046875C.6759949 .23046875 .69400027 .23046875 .69400027 .25045777 .69400027 .27046205 .6759949 .27046205 .6589966 .27046205H.117996219C.100997928 .27046205 .08299255 .27046205 .08299255 .25045777 .08299255 .23046875 .100997928 .23046875 .117996219 .23046875H.6589966Z"/>
<path id="font_3_1" d="M.40899659 .23046875H.6879883C.70199587 .23046875 .72099307 .23046875 .72099307 .25045777 .72099307 .27046205 .70199587 .27046205 .6879883 .27046205H.40899659V.5500183C.40899659 .56399539 .40899659 .5830078 .3889923 .5830078 .36898805 .5830078 .36898805 .56399539 .36898805 .5500183V.27046205H.08898926C.07499695 .27046205 .055999757 .27046205 .055999757 .25045777 .055999757 .23046875 .07499695 .23046875 .08898926 .23046875H.36898805V-.05000305C.36898805-.06401062 .36898805-.08300781 .3889923-.08300781 .40899659-.08300781 .40899659-.06401062 .40899659-.05000305V.23046875Z"/>
<path id="font_3_2" d="M.1269989 .07699585 .23298645 .18003845C.3889923 .31811524 .44898988 .3721466 .44898988 .47216798 .44898988 .5860901 .35899354 .6660156 .23699951 .6660156 .12399292 .6660156 .049987794 .57411196 .049987794 .48516847 .049987794 .4291687 .099990848 .4291687 .102996829 .4291687 .11999512 .4291687 .15499878 .44117738 .15499878 .48217774 .15499878 .5081787 .13699341 .5341797 .101989749 .5341797 .09399414 .5341797 .09199524 .5341797 .08898926 .5331726 .11199951 .59806826 .1659851 .63500979 .22399903 .63500979 .31498719 .63500979 .35798646 .5541382 .35798646 .47216798 .35798646 .39215089 .30799867 .31311036 .25299073 .25108338L.06098938 .036987306C.049987794 .025985718 .049987794 .023986817 .049987794 0H.42099L.44898988 .17404175H.42399598C.4189911 .14402771 .4119873 .1000061 .4019928 .084991458 .394989 .07699585 .32899476 .07699585 .30699159 .07699585H.1269989Z"/>
</defs>
<path transform="matrix(1,0,0,-1,46.751008,37.849)" stroke-width=".79701" stroke-linecap="butt" stroke-miterlimit="10" stroke-linejoin="miter" fill="none" stroke="#000000" d="M-31.18166 0H35.41632"/>
<path transform="matrix(1,0,0,-1,82.16733,37.849)" d="M1.0361 0C-.25902 .25902-1.55415 .77707-3.1083 1.68365-1.55415 .51805-1.55415-.51805-3.1083-1.68365-1.55415-.77707-.25902-.25902 1.0361 0Z"/>
<path transform="matrix(1,0,0,-1,82.16733,37.849)" stroke-width=".79701" stroke-linecap="butt" stroke-linejoin="round" fill="none" stroke="#000000" d="M1.0361 0C-.25902 .25902-1.55415 .77707-3.1083 1.68365-1.55415 .51805-1.55415-.51805-3.1083-1.68365-1.55415-.77707-.25902-.25902 1.0361 0Z"/>
<path transform="matrix(1,0,0,-1,46.751008,37.849)" stroke-width=".79701" stroke-linecap="butt" stroke-miterlimit="10" stroke-linejoin="miter" fill="none" stroke="#000000" d="M0-31.18166V35.41632"/>
<path transform="matrix(0,-1,-1,-0,46.751008,2.4326783)" d="M1.0361 0C-.25902 .25902-1.55415 .77707-3.1083 1.68365-1.55415 .51805-1.55415-.51805-3.1083-1.68365-1.55415-.77707-.25902-.25902 1.0361 0Z"/>
<path transform="matrix(0,-1,-1,-0,46.751008,2.4326783)" stroke-width=".79701" stroke-linecap="butt" stroke-linejoin="round" fill="none" stroke="#000000" d="M1.0361 0C-.25902 .25902-1.55415 .77707-3.1083 1.68365-1.55415 .51805-1.55415-.51805-3.1083-1.68365-1.55415-.77707-.25902-.25902 1.0361 0Z"/>
<path transform="matrix(1,0,0,-1,46.751008,37.849)" stroke-width=".79701" stroke-linecap="butt" stroke-miterlimit="10" stroke-linejoin="miter" fill="none" stroke="#929292" d="M28.3468 0C28.3468 15.6557 15.6557 28.3468 0 28.3468-15.6557 28.3468-28.3468 15.6557-28.3468 0-28.3468-15.6557-15.6557-28.3468 0-28.3468 15.6557-28.3468 28.3468-15.6557 28.3468 0ZM0 0"/>
<path transform="matrix(1,0,0,-1,46.751008,37.849)" stroke-width=".79701" stroke-linecap="butt" stroke-miterlimit="10" stroke-linejoin="miter" fill="none" stroke="#c0c0c0" d="M23.22037 16.25908-23.22037-16.25908"/>
<path transform="matrix(1,0,0,-1,46.751008,37.849)" stroke-width=".79701" stroke-linecap="butt" stroke-miterlimit="10" stroke-linejoin="miter" fill="none" stroke="#c0c0c0" d="M-23.22037 16.25908 23.22037-16.25908"/>
<path transform="matrix(1,0,0,-1,46.751008,37.849)" d="M24.63777 16.25908C24.63777 17.04192 24.00319 17.6765 23.22037 17.6765 22.43753 17.6765 21.80295 17.04192 21.80295 16.25908 21.80295 15.47626 22.43753 14.84167 23.22037 14.84167 24.00319 14.84167 24.63777 15.47626 24.63777 16.25908ZM23.22037 16.25908"/>
<path transform="matrix(1,0,0,-1,46.751008,37.849)" stroke-width=".3985" stroke-linecap="butt" stroke-miterlimit="10" stroke-linejoin="miter" fill="none" stroke="#000000" d="M24.63777 16.25908C24.63777 17.04192 24.00319 17.6765 23.22037 17.6765 22.43753 17.6765 21.80295 17.04192 21.80295 16.25908 21.80295 15.47626 22.43753 14.84167 23.22037 14.84167 24.00319 14.84167 24.63777 15.47626 24.63777 16.25908ZM23.22037 16.25908"/>
<use data-text="&#x03c9;" xlink:href="#font_1_2" transform="matrix(9.9626,0,0,-9.9626,73.491008,18.07)" fill="#ff0000"/>
<path transform="matrix(1,0,0,-1,46.751008,37.849)" d="M-21.80295 16.25908C-21.80295 17.04192-22.43753 17.6765-23.22037 17.6765-24.00319 17.6765-24.63777 17.04192-24.63777 16.25908-24.63777 15.47626-24.00319 14.84167-23.22037 14.84167-22.43753 14.84167-21.80295 15.47626-21.80295 16.25908ZM-23.22037 16.25908"/>
<path transform="matrix(1,0,0,-1,46.751008,37.849)" stroke-width=".3985" stroke-linecap="butt" stroke-miterlimit="10" stroke-linejoin="miter" fill="none" stroke="#000000" d="M-21.80295 16.25908C-21.80295 17.04192-22.43753 17.6765-23.22037 17.6765-24.00319 17.6765-24.63777 17.04192-24.63777 16.25908-24.63777 15.47626-24.00319 14.84167-23.22037 14.84167-22.43753 14.84167-21.80295 15.47626-21.80295 16.25908ZM-23.22037 16.25908"/>
<use data-text="&#x03c0;" xlink:href="#font_1_1" transform="matrix(9.9626,0,0,-9.9626,1.2170105,17.24)" fill="#ff0000"/>
<use data-text="&#x2212;" xlink:href="#font_2_1" transform="matrix(9.9626,0,0,-9.9626,9.4670109,17.24)" fill="#ff0000"/>
<use data-text="&#x03c9;" xlink:href="#font_1_2" transform="matrix(9.9626,0,0,-9.9626,19.430008,17.24)" fill="#ff0000"/>
<path transform="matrix(1,0,0,-1,46.751008,37.849)" d="M-21.80295-16.25908C-21.80295-15.47626-22.43753-14.84167-23.22037-14.84167-24.00319-14.84167-24.63777-15.47626-24.63777-16.25908-24.63777-17.04192-24.00319-17.6765-23.22037-17.6765-22.43753-17.6765-21.80295-17.04192-21.80295-16.25908ZM-23.22037-16.25908"/>
<path transform="matrix(1,0,0,-1,46.751008,37.849)" stroke-width=".3985" stroke-linecap="butt" stroke-miterlimit="10" stroke-linejoin="miter" fill="none" stroke="#000000" d="M-21.80295-16.25908C-21.80295-15.47626-22.43753-14.84167-23.22037-14.84167-24.00319-14.84167-24.63777-15.47626-24.63777-16.25908-24.63777-17.04192-24.00319-17.6765-23.22037-17.6765-22.43753-17.6765-21.80295-17.04192-21.80295-16.25908ZM-23.22037-16.25908"/>
<use data-text="&#x03c0;" xlink:href="#font_1_1" transform="matrix(9.9626,0,0,-9.9626,1.2170105,63.439996)" fill="#ff0000"/>
<use data-text="+" xlink:href="#font_3_1" transform="matrix(9.9626,0,0,-9.9626,9.4670109,63.439996)" fill="#ff0000"/>
<use data-text="&#x03c9;" xlink:href="#font_1_2" transform="matrix(9.9626,0,0,-9.9626,19.430008,63.439996)" fill="#ff0000"/>
<path transform="matrix(1,0,0,-1,46.751008,37.849)" d="M24.63777-16.25908C24.63777-15.47626 24.00319-14.84167 23.22037-14.84167 22.43753-14.84167 21.80295-15.47626 21.80295-16.25908 21.80295-17.04192 22.43753-17.6765 23.22037-17.6765 24.00319-17.6765 24.63777-17.04192 24.63777-16.25908ZM23.22037-16.25908"/>
<path transform="matrix(1,0,0,-1,46.751008,37.849)" stroke-width=".3985" stroke-linecap="butt" stroke-miterlimit="10" stroke-linejoin="miter" fill="none" stroke="#000000" d="M24.63777-16.25908C24.63777-15.47626 24.00319-14.84167 23.22037-14.84167 22.43753-14.84167 21.80295-15.47626 21.80295-16.25908 21.80295-17.04192 22.43753-17.6765 23.22037-17.6765 24.00319-17.6765 24.63777-17.04192 24.63777-16.25908ZM23.22037-16.25908"/>
<use data-text="2" xlink:href="#font_3_2" transform="matrix(9.9626,0,0,-9.9626,67.51401,64.048)" fill="#ff0000"/>
<use data-text="&#x03c0;" xlink:href="#font_1_1" transform="matrix(9.9626,0,0,-9.9626,72.49501,64.048)" fill="#ff0000"/>
<use data-text="&#x2212;" xlink:href="#font_2_1" transform="matrix(9.9626,0,0,-9.9626,80.74602,64.048)" fill="#ff0000"/>
<use data-text="&#x03c9;" xlink:href="#font_1_2" transform="matrix(9.9626,0,0,-9.9626,90.70802,64.048)" fill="#ff0000"/>
</svg>
