<svg xmlns="http://www.w3.org/2000/svg" xmlns:xlink="http://www.w3.org/1999/xlink" version="1.1" width="283" height="101" viewBox="0 0 283 101">
<defs>
<path id="font_1_1" d="M.45498658 .5001831C.45498658 .56614688 .43699647 .7050781 .33499146 .7050781 .19599915 .7050781 .041992189 .42323304 .041992189 .19425965 .041992189 .100250247 .070999149-.0107421879 .1619873-.0107421879 .30299378-.0107421879 .45498658 .27627564 .45498658 .5001831M.147995 .36328126C.16499329 .42723084 .18499756 .5071869 .22499085 .57814028 .2519989 .6271057 .2889862 .68307498 .33399964 .68307498 .3829956 .68307498 .3889923 .6191101 .3889923 .56214907 .3889923 .5131836 .3809967 .46220399 .35699464 .36328126H.147995M.34799195 .3312683C.33699037 .28527833 .31599427 .2002716 .27799989 .12826538 .24299622 .060256959 .20498657 .011245728 .1619873 .011245728 .1289978 .011245728 .10798645 .040252687 .10798645 .133255 .10798645 .17526245 .11399841 .23326111 .13999939 .3312683H.34799195Z"/>
<path id="font_1_3" d="M.36698915 .3996582H.45298768C.47299195 .3996582 .48298646 .3996582 .48298646 .41966249 .48298646 .43066407 .47299195 .43066407 .45599366 .43066407H.37298585L.3939972 .5449524C.397995 .5660095 .4119873 .6370239 .41799928 .6490326 .4269867 .66804507 .44400025 .68307498 .46499635 .68307498 .46899415 .68307498 .49499513 .68307498 .5139923 .66503909 .46998597 .661026 .45999146 .6260376 .45999146 .6110382 .45999146 .58802798 .47799684 .57603457 .49699403 .57603457 .522995 .57603457 .5519867 .5980377 .5519867 .6360321 .5519867 .6820679 .5059967 .7050781 .46499635 .7050781 .43099977 .7050781 .36799623 .68707278 .33799745 .58802798 .33198548 .56700137 .32899476 .5569763 .30499269 .43066407H.23599243C.21699524 .43066407 .20599365 .43066407 .20599365 .4116516 .20599365 .3996582 .21499634 .3996582 .23399353 .3996582H.2999878L.22499085 .0048828127C.20698548-.09207153 .18998719-.18309021 .13798523-.18309021 .13398743-.18309021 .10899353-.18309021 .08999634-.16506958 .13598633-.1620636 .14498902-.12606812 .14498902-.111068729 .14498902-.08807373 .1269989-.07606506 .10798645-.07606506 .08198547-.07606506 .052993776-.09806824 .052993776-.13606262 .052993776-.18109131 .09700012-.20507813 .13798523-.20507813 .19299317-.20507813 .23298645-.14607239 .25099183-.108062747 .2829895-.04508972 .30599977 .07583618 .30699159 .082839969L.36698915 .3996582Z"/>
<path id="font_2_1" d="M.33099366-.2400055C.33099366-.23701477 .33099366-.23500061 .31399537-.21800232 .18899536-.0920105 .15699768 .09700012 .15699768 .25 .15699768 .42399598 .19499207 .59799197 .31799317 .72299197 .33099366 .73498538 .33099366 .7369995 .33099366 .73999026 .33099366 .746994 .32699586 .75 .32099916 .75 .31098939 .75 .22099304 .6819916 .1619873 .5549927 .11099243 .44499208 .09899902 .33399964 .09899902 .25 .09899902 .17199707 .10998535 .050994874 .16499329-.06201172 .22499085-.18501282 .31098939-.25 .32099916-.25 .32699586-.25 .33099366-.24700928 .33099366-.2400055Z"/>
<path id="font_2_2" d="M.2889862 .25C.2889862 .32798768 .27799989 .44898988 .22299195 .56199648 .16299439 .68499758 .07699585 .75 .066986087 .75 .06098938 .75 .056991579 .74598696 .056991579 .73999026 .056991579 .7369995 .056991579 .73498538 .07598877 .71699526 .17399597 .6179962 .23098755 .45899964 .23098755 .25 .23098755 .07899475 .19400025-.09700012 .069992069-.2230072 .056991579-.23500061 .056991579-.23701477 .056991579-.2400055 .056991579-.2460022 .06098938-.25 .066986087-.25 .07699585-.25 .16699219-.18200684 .22599793-.055007936 .2769928 .054992677 .2889862 .16600037 .2889862 .25Z"/>
<path id="font_2_7" d="M.68699648 .32714845C.70199587 .32714845 .72099307 .32714845 .72099307 .34713746 .72099307 .36714173 .70199587 .36714173 .6879883 .36714173H.08898926C.07499695 .36714173 .055999757 .36714173 .055999757 .34713746 .055999757 .32714845 .07499695 .32714845 .08999634 .32714845H.68699648M.6879883 .13284302C.70199587 .13284302 .72099307 .13284302 .72099307 .15284729 .72099307 .17285156 .70199587 .17285156 .68699648 .17285156H.08999634C.07499695 .17285156 .055999757 .17285156 .055999757 .15284729 .055999757 .13284302 .07499695 .13284302 .08898926 .13284302H.6879883Z"/>
<path id="font_2_10" d="M.20799256 .19424439C.22999573 .19024658 .31199647 .17424011 .31199647 .102249149 .31199647 .051254274 .2769928 .011245728 .19898987 .011245728 .114990238 .011245728 .07899475 .06825256 .05999756 .15324402 .056991579 .1662445 .055999757 .17024231 .04598999 .17024231 .032989503 .17024231 .032989503 .16323853 .032989503 .14524842V.013244629C.032989503-.003753662 .032989503-.0107421879 .04399109-.0107421879 .04899597-.0107421879 .049987794-.009750366 .068984989 .009246826 .070999149 .011245728 .070999149 .013244629 .08898926 .03224182 .1329956-.009750366 .17799378-.0107421879 .19898987-.0107421879 .31399537-.0107421879 .3600006 .056243898 .3600006 .12825012 .3600006 .1812439 .32998658 .21124268 .31799317 .22323609 .2849884 .25523377 .24598694 .26324464 .20399475 .27124024 .147995 .28224183 .08099365 .2952423 .08099365 .35324098 .08099365 .38822938 .10699463 .42922975 .19299317 .42922975 .30299378 .42922975 .30799867 .3392334 .30999757 .3082428 .31098939 .2992401 .31999208 .2992401 .32199098 .2992401 .33499146 .2992401 .33499146 .304245 .33499146 .3232422V.4242401C.33499146 .4412384 .33499146 .4482422 .32398988 .4482422 .31900025 .4482422 .31698609 .4482422 .3039856 .43623353 .30099488 .43223573 .29100038 .42323304 .2869873 .42022706 .24899292 .4482422 .20799256 .4482422 .19299317 .4482422 .070999149 .4482422 .032989503 .38124085 .032989503 .3252411 .032989503 .29023744 .04899597 .26223756 .07598877 .24023438 .10798645 .21424866 .13598633 .2082367 .20799256 .19424439Z"/>
<path id="font_2_8" d="M.1769867 .4423828 .036987306 .43138124V.40037538C.101989749 .40037538 .11099243 .3943634 .11099243 .34532167V.076034549C.11099243 .0309906 .099990848 .0309906 .032989503 .0309906V0C.06498718 .0009918213 .11898804 .0029907227 .14299011 .0029907227 .17799378 .0029907227 .21299744 .0009918213 .24699402 0V.0309906C.18099976 .0309906 .1769867 .035995485 .1769867 .075042728V.4423828M.18099976 .6159363C.18099976 .64793398 .1559906 .6689453 .12799073 .6689453 .09700012 .6689453 .07499695 .64193728 .07499695 .6159363 .07499695 .5889435 .09700012 .5629425 .12799073 .5629425 .1559906 .5629425 .18099976 .5839386 .18099976 .6159363Z"/>
<path id="font_2_9" d="M.10998535 .34429933V.076034549C.10998535 .0309906 .09899902 .0309906 .03199768 .0309906V0C.066986087 .0009918213 .117996219 .0029907227 .14498902 .0029907227 .17098999 .0029907227 .22299195 .0009918213 .25698854 0V.0309906C.18998719 .0309906 .1789856 .0309906 .1789856 .076034549V.2602234C.1789856 .36431886 .25 .42037965 .31399537 .42037965 .3769989 .42037965 .3880005 .36631776 .3880005 .30926515V.076034549C.3880005 .0309906 .3769989 .0309906 .30999757 .0309906V0C.34498597 .0009918213 .3959961 .0029907227 .4229889 .0029907227 .44898988 .0029907227 .5009918 .0009918213 .5349884 0V.0309906C.48298646 .0309906 .45799256 .0309906 .45700074 .061019899V.25221253C.45700074 .3383026 .45700074 .36932374 .42599488 .405365 .4119873 .42237855 .3789978 .4423828 .32099916 .4423828 .24798584 .4423828 .20098877 .39935304 .17298889 .33729554V.4423828L.03199768 .43138124V.40037538C.101989749 .4003601 .10998535 .39335633 .10998535 .34429933Z"/>
<path id="font_3_1" d="M.6589966 .23046875C.6759949 .23046875 .69400027 .23046875 .69400027 .25045777 .69400027 .27046205 .6759949 .27046205 .6589966 .27046205H.117996219C.100997928 .27046205 .08299255 .27046205 .08299255 .25045777 .08299255 .23046875 .100997928 .23046875 .117996219 .23046875H.6589966Z"/>
<path id="font_2_3" d="M.2939911 .64004519C.2939911 .66400149 .2939911 .6660156 .2709961 .6660156 .20899964 .60227969 .12098694 .60227969 .08898926 .60227969V.57128909C.10899353 .57128909 .16799927 .57128909 .21998596 .5972748V.07902527C.21998596 .042999269 .21699524 .0309906 .1269989 .0309906H.09498596V0C.12998963 .0029907227 .21699524 .0029907227 .25698854 .0029907227 .29699708 .0029907227 .38398744 .0029907227 .4189911 0V.0309906H.3869934C.29699708 .0309906 .2939911 .041992189 .2939911 .07902527V.64004519Z"/>
<path id="font_2_4" d="M.1269989 .07699585 .23298645 .18003845C.3889923 .31811524 .44898988 .3721466 .44898988 .47216798 .44898988 .5860901 .35899354 .6660156 .23699951 .6660156 .12399292 .6660156 .049987794 .57411196 .049987794 .48516847 .049987794 .4291687 .099990848 .4291687 .102996829 .4291687 .11999512 .4291687 .15499878 .44117738 .15499878 .48217774 .15499878 .5081787 .13699341 .5341797 .101989749 .5341797 .09399414 .5341797 .09199524 .5341797 .08898926 .5331726 .11199951 .59806826 .1659851 .63500979 .22399903 .63500979 .31498719 .63500979 .35798646 .5541382 .35798646 .47216798 .35798646 .39215089 .30799867 .31311036 .25299073 .25108338L.06098938 .036987306C.049987794 .025985718 .049987794 .023986817 .049987794 0H.42099L.44898988 .17404175H.42399598C.4189911 .14402771 .4119873 .1000061 .4019928 .084991458 .394989 .07699585 .32899476 .07699585 .30699159 .07699585H.1269989Z"/>
<path id="font_1_2" d="M.2649994 .37265016H.37799073C.34498597 .22489929 .33599855 .18196106 .33599855 .11508179 .33599855 .100097659 .33599855 .073150638 .34399415 .03919983 .35398866-.0047454836 .36499024-.0107421879 .37998963-.0107421879 .3999939-.0107421879 .42099 .007247925 .42099 .02722168 .42099 .033218385 .42099 .035202028 .4149933 .049179079 .38598634 .12106323 .38598634 .18595886 .38598634 .21391297 .38598634 .26683045 .3929901 .32073976 .4039917 .37265016H.5179901C.5309906 .37265016 .5669861 .37265016 .5669861 .406662 .5669861 .43066407 .54599 .43066407 .5269928 .43066407H.19198609C.16999817 .43066407 .13198853 .43066407 .08799744 .38365174 .052993776 .34469605 .026992798 .29878236 .026992798 .29379273 .026992798 .29278565 .026992798 .28379823 .038986207 .28379823 .04699707 .28379823 .04899597 .28779603 .054992677 .29577638 .10398865 .37265016 .1619873 .37265016 .18199158 .37265016H.23899842C.20698548 .25186158 .15299988 .13105774 .11099243 .04020691 .102996829 .025222779 .102996829 .023223877 .102996829 .016235352 .102996829-.002746582 .11898804-.0107421879 .13198853-.0107421879 .1619873-.0107421879 .16999817 .017242432 .18199158 .05418396 .19599915 .100097659 .19599915 .10209656 .20899964 .15202332L.2649994 .37265016Z"/>
<path id="font_2_5" d="M.2899933 .35191346C.37199403 .37893678 .42999269 .4490509 .42999269 .52809146 .42999269 .6100464 .34199525 .6660156 .24598694 .6660156 .14498902 .6660156 .068984989 .60606387 .068984989 .53009036 .068984989 .49710084 .09098816 .47808839 .11999512 .47808839 .15098572 .47808839 .17098999 .50009158 .17098999 .5290985 .17098999 .57910159 .12399292 .57910159 .10899353 .57910159 .13999939 .62802127 .20599365 .64100649 .24198914 .64100649 .2829895 .64100649 .33799745 .6190338 .33799745 .5290985 .33799745 .51708987 .33599855 .45906068 .30999757 .4149933 .27999879 .36691285 .24598694 .36390687 .22099304 .36291505 .21299744 .36190797 .18899536 .35990907 .18199158 .35990907 .17399597 .35890199 .16699219 .35791017 .16699219 .3479004 .16699219 .33691407 .17399597 .33691407 .19099427 .33691407H.23498535C.31698609 .33691407 .35398866 .2686615 .35398866 .17037964 .35398866 .034469606 .2849884 .0055389406 .24099732 .0055389406 .19799805 .0055389406 .12298584 .022491456 .08799744 .08137512 .12298584 .07637024 .1539917 .09837341 .1539917 .1363678 .1539917 .17237854 .1269989 .19238281 .09799194 .19238281 .07398987 .19238281 .041992189 .17837525 .041992189 .1343689 .041992189 .043441774 .1349945-.022460938 .24398804-.022460938 .3659973-.022460938 .45700074 .06838989 .45700074 .17037964 .45700074 .252594 .3939972 .33088685 .2899933 .35191346Z"/>
<path id="font_2_6" d="M.2939911 .16503906V.07800293C.2939911 .041992189 .2919922 .0309906 .21798706 .0309906H.19699097V0C.23799134 .0029907227 .2899933 .0029907227 .33198548 .0029907227 .37399293 .0029907227 .4269867 .0029907227 .46798707 0V.0309906H.44699098C.37298585 .0309906 .37098695 .041992189 .37098695 .07800293V.16503906H.47099305V.19602967H.37098695V.65075686C.37098695 .67074587 .37098695 .6767578 .35499574 .6767578 .34599305 .6767578 .34298707 .6767578 .33499146 .66474917L.027999878 .19602967V.16503906H.2939911M.2999878 .19602967H.055999757L.2999878 .5688019V.19602967Z"/>
</defs>
<path transform="matrix(1.00003,0,0,-1.00003,140.50972,60.30542)" stroke-width=".3985" stroke-linecap="butt" stroke-miterlimit="10" stroke-linejoin="miter" fill="none" stroke="#00aeef" d="M-128.2379-36.73595H128.2379M-128.2379-33.06236H128.2379M-128.2379-29.38876H128.2379M-128.2379-25.71516H128.2379M-128.2379-22.04156H128.2379M-128.2379-18.36797H128.2379M-128.2379-14.69438H128.2379M-128.2379-11.02077H128.2379M-128.2379-7.34718H128.2379M-128.2379-3.67358H128.2379M-128.2379 0H128.2379M-128.2379 3.67358H128.2379M-128.2379 7.34718H128.2379M-128.2379 11.02077H128.2379M-128.2379 14.69438H128.2379M-128.2379 18.36797H128.2379M-128.2379 22.04156H128.2379M-128.2379 25.71516H128.2379M-128.2379 29.38876H128.2379M-128.2379 33.06236H128.2379M-128.2379 36.73595H128.2379M-128.23583-36.73756V36.73756M-122.89267-36.73756V36.73756M-117.54951-36.73756V36.73756M-112.20636-36.73756V36.73756M-106.86319-36.73756V36.73756M-101.52003-36.73756V36.73756M-96.17688-36.73756V36.73756M-90.83371-36.73756V36.73756M-85.49055-36.73756V36.73756M-80.14738-36.73756V36.73756M-74.80423-36.73756V36.73756M-69.46107-36.73756V36.73756M-64.1179-36.73756V36.73756M-58.77475-36.73756V36.73756M-53.43158-36.73756V36.73756M-48.08842-36.73756V36.73756M-42.74527-36.73756V36.73756M-37.4021-36.73756V36.73756M-32.05894-36.73756V36.73756M-26.71577-36.73756V36.73756M-21.37262-36.73756V36.73756M-16.02946-36.73756V36.73756M-10.6863-36.73756V36.73756M-5.34314-36.73756V36.73756M0-36.73756V36.73756M5.34314-36.73756V36.73756M10.6863-36.73756V36.73756M16.02946-36.73756V36.73756M21.37262-36.73756V36.73756M26.71577-36.73756V36.73756M32.05894-36.73756V36.73756M37.4021-36.73756V36.73756M42.74527-36.73756V36.73756M48.08842-36.73756V36.73756M53.43158-36.73756V36.73756M58.77475-36.73756V36.73756M64.1179-36.73756V36.73756M69.46107-36.73756V36.73756M74.80423-36.73756V36.73756M80.14738-36.73756V36.73756M85.49055-36.73756V36.73756M90.83371-36.73756V36.73756M96.17688-36.73756V36.73756M101.52003-36.73756V36.73756M106.86319-36.73756V36.73756M112.20636-36.73756V36.73756M117.54951-36.73756V36.73756M122.89267-36.73756V36.73756M128.23583-36.73756V36.73756M128.2379 36.73756"/>
<path transform="matrix(1.00003,0,0,-1.00003,140.50972,60.30542)" stroke-width=".3985" stroke-linecap="butt" stroke-miterlimit="10" stroke-linejoin="miter" fill="none" stroke="#000000" d="M-128.58139 0H131.66703"/>
<path transform="matrix(1.00003,0,0,-1.00003,272.1807,60.30542)" d="M.797 0C-.19925 .19925-1.19551 .59775-2.39102 1.29512-1.19551 .3985-1.19551-.3985-2.39102-1.29512-1.19551-.59775-.19925-.19925 .797 0Z"/>
<path transform="matrix(1.00003,0,0,-1.00003,272.1807,60.30542)" stroke-width=".3985" stroke-linecap="butt" stroke-linejoin="round" fill="none" stroke="#000000" d="M.797 0C-.19925 .19925-1.19551 .59775-2.39102 1.29512-1.19551 .3985-1.19551-.3985-2.39102-1.29512-1.19551-.59775-.19925-.19925 .797 0Z"/>
<use data-text="&#x03b8;" xlink:href="#font_1_1" transform="matrix(9.962899,0,0,-9.962899,276.6968,63.764528)"/>
<path transform="matrix(1.00003,0,0,-1.00003,140.50972,60.30542)" stroke-width=".3985" stroke-linecap="butt" stroke-miterlimit="10" stroke-linejoin="miter" fill="none" stroke="#000000" d="M0-36.73756V43.90509"/>
<path transform="matrix(0,-1.00003,-1.00003,-0,140.50972,16.39901)" d="M.797 0C-.19925 .19925-1.19551 .59775-2.39102 1.29512-1.19551 .3985-1.19551-.3985-2.39102-1.29512-1.19551-.59775-.19925-.19925 .797 0Z"/>
<path transform="matrix(0,-1.00003,-1.00003,-0,140.50972,16.39901)" stroke-width=".3985" stroke-linecap="butt" stroke-linejoin="round" fill="none" stroke="#000000" d="M.797 0C-.19925 .19925-1.19551 .59775-2.39102 1.29512-1.19551 .3985-1.19551-.3985-2.39102-1.29512-1.19551-.59775-.19925-.19925 .797 0Z"/>
<use data-text="f" xlink:href="#font_1_3" transform="matrix(9.962899,0,0,-9.962899,112.07387,9.3918919)"/>
<use data-text="(" xlink:href="#font_2_1" transform="matrix(9.962899,0,0,-9.962899,118.02405,9.3918919)"/>
<use data-text="&#x03b8;" xlink:href="#font_1_1" transform="matrix(9.962899,0,0,-9.962899,121.89815,9.3918919)"/>
<use data-text=")" xlink:href="#font_2_2" transform="matrix(9.962899,0,0,-9.962899,126.852298,9.3918919)"/>
<use data-text="=" xlink:href="#font_2_7" transform="matrix(9.962899,0,0,-9.962899,133.47763,9.3918919)"/>
<use data-text="s" xlink:href="#font_2_10" transform="matrix(9.962899,0,0,-9.962899,143.9885,9.3918919)"/>
<use data-text="i" xlink:href="#font_2_8" transform="matrix(9.962899,0,0,-9.962899,147.91387,9.3918919)"/>
<use data-text="n" xlink:href="#font_2_9" transform="matrix(9.962899,0,0,-9.962899,150.6736,9.3918919)"/>
<use data-text="(" xlink:href="#font_2_1" transform="matrix(9.962899,0,0,-9.962899,156.20299,9.3918919)"/>
<use data-text="&#x03b8;" xlink:href="#font_1_1" transform="matrix(9.962899,0,0,-9.962899,160.1173,9.3918919)"/>
<use data-text=")" xlink:href="#font_2_2" transform="matrix(9.962899,0,0,-9.962899,165.07146,9.3918919)"/>
<path transform="matrix(1.00003,0,0,-1.00003,140.50972,60.30542)" stroke-width=".3985" stroke-linecap="butt" stroke-miterlimit="10" stroke-linejoin="miter" fill="none" stroke="#000000" d="M-128.2379 1.6328V-1.63281"/>
<path transform="matrix(1.00003,0,0,-1.00003,140.50972,60.30542)" stroke-width=".3985" stroke-linecap="butt" stroke-miterlimit="10" stroke-linejoin="miter" fill="none" stroke="#000000" d="M-122.89377 1.6328V-1.63281"/>
<path transform="matrix(1.00003,0,0,-1.00003,140.50972,60.30542)" stroke-width=".3985" stroke-linecap="butt" stroke-miterlimit="10" stroke-linejoin="miter" fill="none" stroke="#000000" d="M-117.55092 1.6328V-1.63281"/>
<path transform="matrix(1.00003,0,0,-1.00003,140.50972,60.30542)" stroke-width=".3985" stroke-linecap="butt" stroke-miterlimit="10" stroke-linejoin="miter" fill="none" stroke="#000000" d="M-112.20807 1.6328V-1.63281"/>
<path transform="matrix(1.00003,0,0,-1.00003,140.50972,60.30542)" stroke-width=".3985" stroke-linecap="butt" stroke-miterlimit="10" stroke-linejoin="miter" fill="none" stroke="#000000" d="M-106.86397 1.6328V-1.63281"/>
<path transform="matrix(1.00003,0,0,-1.00003,140.50972,60.30542)" stroke-width=".3985" stroke-linecap="butt" stroke-miterlimit="10" stroke-linejoin="miter" fill="none" stroke="#000000" d="M-101.52112 1.6328V-1.63281"/>
<path transform="matrix(1.00003,0,0,-1.00003,140.50972,60.30542)" stroke-width=".3985" stroke-linecap="butt" stroke-miterlimit="10" stroke-linejoin="miter" fill="none" stroke="#000000" d="M-96.17824 1.6328V-1.63281"/>
<path transform="matrix(1.00003,0,0,-1.00003,140.50972,60.30542)" stroke-width=".3985" stroke-linecap="butt" stroke-miterlimit="10" stroke-linejoin="miter" fill="none" stroke="#000000" d="M-90.83446 1.6328V-1.63281"/>
<path transform="matrix(1.00003,0,0,-1.00003,140.50972,60.30542)" stroke-width=".3985" stroke-linecap="butt" stroke-miterlimit="10" stroke-linejoin="miter" fill="none" stroke="#000000" d="M-85.4913 1.6328V-1.63281"/>
<path transform="matrix(1.00003,0,0,-1.00003,140.50972,60.30542)" stroke-width=".3985" stroke-linecap="butt" stroke-miterlimit="10" stroke-linejoin="miter" fill="none" stroke="#000000" d="M-80.14844 1.6328V-1.63281"/>
<path transform="matrix(1.00003,0,0,-1.00003,140.50972,60.30542)" stroke-width=".3985" stroke-linecap="butt" stroke-miterlimit="10" stroke-linejoin="miter" fill="none" stroke="#000000" d="M-74.80464 1.6328V-1.63281"/>
<path transform="matrix(1.00003,0,0,-1.00003,140.50972,60.30542)" stroke-width=".3985" stroke-linecap="butt" stroke-miterlimit="10" stroke-linejoin="miter" fill="none" stroke="#000000" d="M-69.46178 1.6328V-1.63281"/>
<path transform="matrix(1.00003,0,0,-1.00003,140.50972,60.30542)" stroke-width=".3985" stroke-linecap="butt" stroke-miterlimit="10" stroke-linejoin="miter" fill="none" stroke="#000000" d="M-64.11894 1.6328V-1.63281"/>
<path transform="matrix(1.00003,0,0,-1.00003,140.50972,60.30542)" stroke-width=".3985" stroke-linecap="butt" stroke-miterlimit="10" stroke-linejoin="miter" fill="none" stroke="#000000" d="M-58.77483 1.6328V-1.63281"/>
<path transform="matrix(1.00003,0,0,-1.00003,140.50972,60.30542)" stroke-width=".3985" stroke-linecap="butt" stroke-miterlimit="10" stroke-linejoin="miter" fill="none" stroke="#000000" d="M-53.43196 1.6328V-1.63281"/>
<path transform="matrix(1.00003,0,0,-1.00003,140.50972,60.30542)" stroke-width=".3985" stroke-linecap="butt" stroke-miterlimit="10" stroke-linejoin="miter" fill="none" stroke="#000000" d="M-48.08911 1.6328V-1.63281"/>
<path transform="matrix(1.00003,0,0,-1.00003,140.50972,60.30542)" stroke-width=".3985" stroke-linecap="butt" stroke-miterlimit="10" stroke-linejoin="miter" fill="none" stroke="#000000" d="M-42.74503 1.6328V-1.63281"/>
<path transform="matrix(1.00003,0,0,-1.00003,140.50972,60.30542)" stroke-width=".3985" stroke-linecap="butt" stroke-miterlimit="10" stroke-linejoin="miter" fill="none" stroke="#000000" d="M-37.40216 1.6328V-1.63281"/>
<path transform="matrix(1.00003,0,0,-1.00003,140.50972,60.30542)" stroke-width=".3985" stroke-linecap="butt" stroke-miterlimit="10" stroke-linejoin="miter" fill="none" stroke="#000000" d="M-32.0593 1.6328V-1.63281"/>
<path transform="matrix(1.00003,0,0,-1.00003,140.50972,60.30542)" stroke-width=".3985" stroke-linecap="butt" stroke-miterlimit="10" stroke-linejoin="miter" fill="none" stroke="#000000" d="M-26.71552 1.6328V-1.63281"/>
<path transform="matrix(1.00003,0,0,-1.00003,140.50972,60.30542)" stroke-width=".3985" stroke-linecap="butt" stroke-miterlimit="10" stroke-linejoin="miter" fill="none" stroke="#000000" d="M-21.37234 1.6328V-1.63281"/>
<path transform="matrix(1.00003,0,0,-1.00003,140.50972,60.30542)" stroke-width=".3985" stroke-linecap="butt" stroke-miterlimit="10" stroke-linejoin="miter" fill="none" stroke="#000000" d="M-16.0295 1.6328V-1.63281"/>
<path transform="matrix(1.00003,0,0,-1.00003,140.50972,60.30542)" stroke-width=".3985" stroke-linecap="butt" stroke-miterlimit="10" stroke-linejoin="miter" fill="none" stroke="#000000" d="M-10.68568 1.6328V-1.63281"/>
<path transform="matrix(1.00003,0,0,-1.00003,140.50972,60.30542)" stroke-width=".3985" stroke-linecap="butt" stroke-miterlimit="10" stroke-linejoin="miter" fill="none" stroke="#000000" d="M-5.34283 1.6328V-1.63281"/>
<path transform="matrix(1.00003,0,0,-1.00003,140.50972,60.30542)" stroke-width=".3985" stroke-linecap="butt" stroke-miterlimit="10" stroke-linejoin="miter" fill="none" stroke="#000000" d="M0 1.6328V-1.63281"/>
<path transform="matrix(1.00003,0,0,-1.00003,140.50972,60.30542)" stroke-width=".3985" stroke-linecap="butt" stroke-miterlimit="10" stroke-linejoin="miter" fill="none" stroke="#000000" d="M5.34314 1.6328V-1.63281"/>
<path transform="matrix(1.00003,0,0,-1.00003,140.50972,60.30542)" stroke-width=".3985" stroke-linecap="butt" stroke-miterlimit="10" stroke-linejoin="miter" fill="none" stroke="#000000" d="M10.68631 1.6328V-1.63281"/>
<path transform="matrix(1.00003,0,0,-1.00003,140.50972,60.30542)" stroke-width=".3985" stroke-linecap="butt" stroke-miterlimit="10" stroke-linejoin="miter" fill="none" stroke="#000000" d="M16.0295 1.6328V-1.63281"/>
<path transform="matrix(1.00003,0,0,-1.00003,140.50972,60.30542)" stroke-width=".3985" stroke-linecap="butt" stroke-miterlimit="10" stroke-linejoin="miter" fill="none" stroke="#000000" d="M21.37297 1.6328V-1.63281"/>
<path transform="matrix(1.00003,0,0,-1.00003,140.50972,60.30542)" stroke-width=".3985" stroke-linecap="butt" stroke-miterlimit="10" stroke-linejoin="miter" fill="none" stroke="#000000" d="M26.71613 1.6328V-1.63281"/>
<path transform="matrix(1.00003,0,0,-1.00003,140.50972,60.30542)" stroke-width=".3985" stroke-linecap="butt" stroke-miterlimit="10" stroke-linejoin="miter" fill="none" stroke="#000000" d="M32.0593 1.6328V-1.63281"/>
<path transform="matrix(1.00003,0,0,-1.00003,140.50972,60.30542)" stroke-width=".3985" stroke-linecap="butt" stroke-miterlimit="10" stroke-linejoin="miter" fill="none" stroke="#000000" d="M37.40247 1.6328V-1.63281"/>
<path transform="matrix(1.00003,0,0,-1.00003,140.50972,60.30542)" stroke-width=".3985" stroke-linecap="butt" stroke-miterlimit="10" stroke-linejoin="miter" fill="none" stroke="#000000" d="M42.74596 1.6328V-1.63281"/>
<path transform="matrix(1.00003,0,0,-1.00003,140.50972,60.30542)" stroke-width=".3985" stroke-linecap="butt" stroke-miterlimit="10" stroke-linejoin="miter" fill="none" stroke="#000000" d="M48.08911 1.6328V-1.63281"/>
<path transform="matrix(1.00003,0,0,-1.00003,140.50972,60.30542)" stroke-width=".3985" stroke-linecap="butt" stroke-miterlimit="10" stroke-linejoin="miter" fill="none" stroke="#000000" d="M53.43228 1.6328V-1.63281"/>
<path transform="matrix(1.00003,0,0,-1.00003,140.50972,60.30542)" stroke-width=".3985" stroke-linecap="butt" stroke-miterlimit="10" stroke-linejoin="miter" fill="none" stroke="#000000" d="M58.77545 1.6328V-1.63281"/>
<path transform="matrix(1.00003,0,0,-1.00003,140.50972,60.30542)" stroke-width=".3985" stroke-linecap="butt" stroke-miterlimit="10" stroke-linejoin="miter" fill="none" stroke="#000000" d="M64.11894 1.6328V-1.63281"/>
<path transform="matrix(1.00003,0,0,-1.00003,140.50972,60.30542)" stroke-width=".3985" stroke-linecap="butt" stroke-miterlimit="10" stroke-linejoin="miter" fill="none" stroke="#000000" d="M69.4621 1.6328V-1.63281"/>
<path transform="matrix(1.00003,0,0,-1.00003,140.50972,60.30542)" stroke-width=".3985" stroke-linecap="butt" stroke-miterlimit="10" stroke-linejoin="miter" fill="none" stroke="#000000" d="M74.80527 1.6328V-1.63281"/>
<path transform="matrix(1.00003,0,0,-1.00003,140.50972,60.30542)" stroke-width=".3985" stroke-linecap="butt" stroke-miterlimit="10" stroke-linejoin="miter" fill="none" stroke="#000000" d="M80.14844 1.6328V-1.63281"/>
<path transform="matrix(1.00003,0,0,-1.00003,140.50972,60.30542)" stroke-width=".3985" stroke-linecap="butt" stroke-miterlimit="10" stroke-linejoin="miter" fill="none" stroke="#000000" d="M85.49193 1.6328V-1.63281"/>
<path transform="matrix(1.00003,0,0,-1.00003,140.50972,60.30542)" stroke-width=".3985" stroke-linecap="butt" stroke-miterlimit="10" stroke-linejoin="miter" fill="none" stroke="#000000" d="M90.83508 1.6328V-1.63281"/>
<path transform="matrix(1.00003,0,0,-1.00003,140.50972,60.30542)" stroke-width=".3985" stroke-linecap="butt" stroke-miterlimit="10" stroke-linejoin="miter" fill="none" stroke="#000000" d="M96.17824 1.6328V-1.63281"/>
<path transform="matrix(1.00003,0,0,-1.00003,140.50972,60.30542)" stroke-width=".3985" stroke-linecap="butt" stroke-miterlimit="10" stroke-linejoin="miter" fill="none" stroke="#000000" d="M101.52142 1.6328V-1.63281"/>
<path transform="matrix(1.00003,0,0,-1.00003,140.50972,60.30542)" stroke-width=".3985" stroke-linecap="butt" stroke-miterlimit="10" stroke-linejoin="miter" fill="none" stroke="#000000" d="M106.8649 1.6328V-1.63281"/>
<path transform="matrix(1.00003,0,0,-1.00003,140.50972,60.30542)" stroke-width=".3985" stroke-linecap="butt" stroke-miterlimit="10" stroke-linejoin="miter" fill="none" stroke="#000000" d="M112.20807 1.6328V-1.63281"/>
<path transform="matrix(1.00003,0,0,-1.00003,140.50972,60.30542)" stroke-width=".3985" stroke-linecap="butt" stroke-miterlimit="10" stroke-linejoin="miter" fill="none" stroke="#000000" d="M117.55124 1.6328V-1.63281"/>
<path transform="matrix(1.00003,0,0,-1.00003,140.50972,60.30542)" stroke-width=".3985" stroke-linecap="butt" stroke-miterlimit="10" stroke-linejoin="miter" fill="none" stroke="#000000" d="M122.8944 1.6328V-1.63281"/>
<path transform="matrix(1.00003,0,0,-1.00003,140.50972,60.30542)" stroke-width=".3985" stroke-linecap="butt" stroke-miterlimit="10" stroke-linejoin="miter" fill="none" stroke="#000000" d="M128.2379 1.6328V-1.63281"/>
<path transform="matrix(1.00003,0,0,-1.00003,140.50972,60.30542)" stroke-width=".3985" stroke-linecap="butt" stroke-miterlimit="10" stroke-linejoin="miter" fill="none" stroke="#000000" d="M1.6328-18.36862H-1.63281"/>
<path transform="matrix(1.00003,0,0,-1.00003,140.50972,60.30542)" stroke-width=".3985" stroke-linecap="butt" stroke-miterlimit="10" stroke-linejoin="miter" fill="none" stroke="#000000" d="M1.6328 18.36862H-1.63281"/>
<path transform="matrix(1.00003,0,0,-1.00003,140.50972,60.30542)" stroke-width=".79701" stroke-linecap="butt" stroke-miterlimit="10" stroke-linejoin="miter" fill="none" stroke="#000000" d="M2.44905-36.73756H-2.44937"/>
<path transform="matrix(1.00003,0,0,-1.00003,140.50972,60.30542)" d="M-20.55948-41.35918H-5.8367006V-32.11595H-20.55948Z" fill="#ffffff"/>
<use data-text="&#x2212;" xlink:href="#font_3_1" transform="matrix(9.962899,0,0,-9.962899,120.94614,99.83961)"/>
<use data-text="1" xlink:href="#font_2_3" transform="matrix(9.962899,0,0,-9.962899,128.69536,99.83961)"/>
<path transform="matrix(1.00003,0,0,-1.00003,140.50972,60.30542)" stroke-width=".79701" stroke-linecap="butt" stroke-miterlimit="10" stroke-linejoin="miter" fill="none" stroke="#000000" d="M2.44905 36.73756H-2.44937"/>
<path transform="matrix(1.00003,0,0,-1.00003,140.50972,60.30542)" d="M-12.81064 32.53107H-5.8367006V40.94405H-12.81064Z" fill="#ffffff"/>
<use data-text="1" xlink:href="#font_2_3" transform="matrix(9.962899,0,0,-9.962899,128.69538,26.777413)"/>
<path transform="matrix(1.00003,0,0,-1.00003,140.50972,60.30542)" stroke-width=".79701" stroke-linecap="butt" stroke-miterlimit="10" stroke-linejoin="miter" fill="none" stroke="#000000" d="M-128.2379 4.08188V-4.08188"/>
<path transform="matrix(1.00003,0,0,-1.00003,140.50972,60.30542)" d="M-140.61008-16.71243H-119.850818V-7.469199H-140.61008Z" fill="#ffffff"/>
<use data-text="&#x2212;" xlink:href="#font_3_1" transform="matrix(9.962899,0,0,-9.962899,.89152529,75.191867)"/>
<use data-text="2" xlink:href="#font_2_4" transform="matrix(9.962899,0,0,-9.962899,8.640747,75.191867)"/>
<use data-text="&#x03c0;" xlink:href="#font_1_2" transform="matrix(9.962899,0,0,-9.962899,13.621902,75.191867)"/>
<path transform="matrix(1.00003,0,0,-1.00003,140.50972,60.30542)" stroke-width=".79701" stroke-linecap="butt" stroke-miterlimit="10" stroke-linejoin="miter" fill="none" stroke="#000000" d="M128.2379 4.08188V-4.08188"/>
<path transform="matrix(1.00003,0,0,-1.00003,140.50972,60.30542)" d="M123.72523-15.8822H136.73564V-7.46922H123.72523Z" fill="#ffffff"/>
<use data-text="2" xlink:href="#font_2_4" transform="matrix(9.962899,0,0,-9.962899,265.23548,75.191867)"/>
<use data-text="&#x03c0;" xlink:href="#font_1_2" transform="matrix(9.962899,0,0,-9.962899,270.2166,75.191867)"/>
<path transform="matrix(1.00003,0,0,-1.00003,140.50972,60.30542)" stroke-width=".3985" stroke-linecap="butt" stroke-miterlimit="10" stroke-linejoin="miter" fill="none" stroke="#000000" d="M64.11894 4.08188V-4.08188"/>
<path transform="matrix(1.00003,0,0,-1.00003,140.50972,60.30542)" d="M60.10442-13.55202H68.13346V-7.26996H60.10442Z" fill="#ffffff"/>
<use data-text="&#x03c0;" xlink:href="#font_1_2" transform="matrix(9.962899,0,0,-9.962899,201.61255,72.8618)"/>
<path transform="matrix(1.00003,0,0,-1.00003,140.50972,60.30542)" stroke-width=".3985" stroke-linecap="butt" stroke-miterlimit="10" stroke-linejoin="miter" fill="none" stroke="#000000" d="M64.11894 4.08188V-4.08188"/>
<path transform="matrix(1.00003,0,0,-1.00003,140.50972,60.30542)" d="M60.10442-13.55202H68.13346V-7.26996H60.10442Z" fill="#ffffff"/>
<use data-text="&#x03c0;" xlink:href="#font_1_2" transform="matrix(9.962899,0,0,-9.962899,201.61255,72.8618)"/>
<path transform="matrix(1.00003,0,0,-1.00003,140.50972,60.30542)" stroke-width=".3985" stroke-linecap="butt" stroke-miterlimit="10" stroke-linejoin="miter" fill="none" stroke="#000000" d="M-64.11894 4.08188V-4.08188"/>
<path transform="matrix(1.00003,0,0,-1.00003,140.50972,60.30542)" d="M-74.00044-15.90434H-58.222566V-7.2699596H-74.00044Z" fill="#ffffff"/>
<use data-text="&#x2212;" xlink:href="#font_3_1" transform="matrix(9.962899,0,0,-9.962899,67.50354,74.38384)"/>
<use data-text="&#x03c0;" xlink:href="#font_1_2" transform="matrix(9.962899,0,0,-9.962899,75.25276,74.38384)"/>
<path transform="matrix(1.00003,0,0,-1.00003,140.50972,60.30542)" stroke-width=".3985" stroke-linecap="butt" stroke-miterlimit="10" stroke-linejoin="miter" fill="none" stroke="#000000" d="M-32.0593 3.06133V-3.06165"/>
<path transform="matrix(1.00003,0,0,-1.00003,140.50972,60.30542)" d="M-41.14377-27.62775H-22.97482V-6.249731H-41.14377Z" fill="#ffffff"/>
<use data-text="&#x2212;" xlink:href="#font_3_1" transform="matrix(9.962899,0,0,-9.962899,101.55653,73.36281)"/>
<use data-text="&#x03c0;" xlink:href="#font_1_2" transform="matrix(9.962899,0,0,-9.962899,109.30577,73.36281)"/>
<path transform="matrix(1.00003,0,0,-1.00003,-123.15021,32.794595)" stroke-width=".3985" stroke-linecap="butt" stroke-miterlimit="10" stroke-linejoin="miter" fill="none" stroke="#000000" d="M224.7-44.816H238.486"/>
<use data-text="2" xlink:href="#font_2_4" transform="matrix(9.962899,0,0,-9.962899,105.95868,86.93722)"/>
<path transform="matrix(1.00003,0,0,-1.00003,140.50972,60.30542)" stroke-width=".3985" stroke-linecap="butt" stroke-miterlimit="10" stroke-linejoin="miter" fill="none" stroke="#000000" d="M32.0593 3.06133V-3.06165"/>
<path transform="matrix(1.00003,0,0,-1.00003,140.50972,60.30542)" d="M26.84924-26.10564H37.26933V-6.249731H26.84924Z" fill="#ffffff"/>
<use data-text="&#x03c0;" xlink:href="#font_1_2" transform="matrix(9.962899,0,0,-9.962899,169.55158,71.84077)"/>
<path transform="matrix(1.00003,0,0,-1.00003,-55.15516,31.272547)" stroke-width=".3985" stroke-linecap="butt" stroke-miterlimit="10" stroke-linejoin="miter" fill="none" stroke="#000000" d="M224.7-44.816H230.737"/>
<use data-text="2" xlink:href="#font_2_4" transform="matrix(9.962899,0,0,-9.962899,170.07959,85.41517)"/>
<path transform="matrix(1.00003,0,0,-1.00003,140.50972,60.30542)" stroke-width=".3985" stroke-linecap="butt" stroke-miterlimit="10" stroke-linejoin="miter" fill="none" stroke="#000000" d="M96.17824 3.06133V-3.06165"/>
<path transform="matrix(1.00003,0,0,-1.00003,140.50972,60.30542)" d="M88.4775-28.23659H103.87897V-6.249729H88.4775Z" fill="#ffffff"/>
<use data-text="3" xlink:href="#font_2_5" transform="matrix(9.962899,0,0,-9.962899,231.18143,73.97183)"/>
<use data-text="&#x03c0;" xlink:href="#font_1_2" transform="matrix(9.962899,0,0,-9.962899,236.16358,73.97183)"/>
<path transform="matrix(1.00003,0,0,-1.00003,6.4746859,33.40361)" stroke-width=".3985" stroke-linecap="butt" stroke-miterlimit="10" stroke-linejoin="miter" fill="none" stroke="#000000" d="M224.7-44.816H235.718"/>
<use data-text="2" xlink:href="#font_2_4" transform="matrix(9.962899,0,0,-9.962899,234.20052,87.546237)"/>
<path transform="matrix(1.00003,0,0,-1.00003,140.50972,60.30542)" stroke-width=".3985" stroke-linecap="butt" stroke-miterlimit="10" stroke-linejoin="miter" fill="none" stroke="#000000" d="M-96.17824 3.06133V-3.06165"/>
<path transform="matrix(1.00003,0,0,-1.00003,140.50972,60.30542)" d="M-107.7534-28.23659H-84.60307V-6.249729H-107.7534Z" fill="#ffffff"/>
<use data-text="&#x2212;" xlink:href="#font_3_1" transform="matrix(9.962899,0,0,-9.962899,34.944536,73.97183)"/>
<use data-text="3" xlink:href="#font_2_5" transform="matrix(9.962899,0,0,-9.962899,42.69377,73.97183)"/>
<use data-text="&#x03c0;" xlink:href="#font_1_2" transform="matrix(9.962899,0,0,-9.962899,47.675905,73.97183)"/>
<path transform="matrix(1.00003,0,0,-1.00003,-189.7622,33.40361)" stroke-width=".3985" stroke-linecap="butt" stroke-miterlimit="10" stroke-linejoin="miter" fill="none" stroke="#000000" d="M224.7-44.816H243.467"/>
<use data-text="2" xlink:href="#font_2_4" transform="matrix(9.962899,0,0,-9.962899,41.837755,87.546237)"/>
<path transform="matrix(1.00003,0,0,-1.00003,140.50972,60.30542)" stroke-width=".3985" stroke-linecap="butt" stroke-miterlimit="10" stroke-linejoin="miter" fill="none" stroke="#000000" d="M16.0295 2.24507V-2.24507"/>
<path transform="matrix(1.00003,0,0,-1.00003,140.50972,60.30542)" d="M10.81944-26.28534H21.239529V-6.42943H10.81944Z" fill="#ffffff"/>
<use data-text="&#x03c0;" xlink:href="#font_1_2" transform="matrix(9.962899,0,0,-9.962899,153.52109,72.02077)"/>
<path transform="matrix(1.00003,0,0,-1.00003,-71.185649,31.452553)" stroke-width=".3985" stroke-linecap="butt" stroke-miterlimit="10" stroke-linejoin="miter" fill="none" stroke="#000000" d="M224.7-44.816H230.737"/>
<use data-text="4" xlink:href="#font_2_6" transform="matrix(9.962899,0,0,-9.962899,154.0491,85.59518)"/>
<path transform="matrix(1.00003,0,0,-1.00003,140.50972,60.30542)" stroke-width=".3985" stroke-linecap="butt" stroke-miterlimit="10" stroke-linejoin="miter" fill="none" stroke="#000000" d="M48.08911 2.24507V-2.24507"/>
<path transform="matrix(1.00003,0,0,-1.00003,140.50972,60.30542)" d="M40.38837-27.42001H55.78984V-5.4331495H40.38837Z" fill="#ffffff"/>
<use data-text="3" xlink:href="#font_2_5" transform="matrix(9.962899,0,0,-9.962899,183.09099,73.15581)"/>
<use data-text="&#x03c0;" xlink:href="#font_1_2" transform="matrix(9.962899,0,0,-9.962899,188.07314,73.15581)"/>
<path transform="matrix(1.00003,0,0,-1.00003,-41.615758,32.587587)" stroke-width=".3985" stroke-linecap="butt" stroke-miterlimit="10" stroke-linejoin="miter" fill="none" stroke="#000000" d="M224.7-44.816H235.718"/>
<use data-text="4" xlink:href="#font_2_6" transform="matrix(9.962899,0,0,-9.962899,186.11008,86.73021)"/>
<path transform="matrix(1.00003,0,0,-1.00003,140.50972,60.30542)" stroke-width="1.19553" stroke-linecap="butt" stroke-miterlimit="10" stroke-linejoin="miter" fill="none" stroke="#ff0000" d="M-128.2379 0C-128.2379 0-120.51695 13.9537-117.55154 18.368-114.58614 22.78229-109.83064 29.26648-106.86522 31.81514-103.8998 34.36378-99.14429 36.73694-96.17886 36.73694-93.21346 36.73694-88.45796 34.36362-85.49254 31.81514-82.52713 29.26666-77.7716 22.7834-74.8062 18.36925-71.84079 13.9551-67.0853 5.098-64.11987 .00092-61.15445-5.09615-56.39894-13.95282-53.43352-18.36707-50.46811-22.7813-45.71262-29.26512-42.7472-31.8139-39.78177-34.36269-35.02628-36.73656-32.06085-36.73694-29.09544-36.73732-24.33994-34.36496-21.37453-31.8167-18.4091-29.26843-13.65361-22.78491-10.68819-18.37079-7.72276-13.95667-2.96727-5.09976-.00185-.00279 2.96355 5.09415 7.71902 13.95024 10.68445 18.36456 13.64986 22.7789 18.40538 29.26353 21.37079 31.81265 24.3362 34.36179 29.0917 36.7363 32.05711 36.73694 35.02254 36.73758 39.77805 34.36531 42.74345 31.8173 45.70888 29.26932 50.46437 22.78658 53.4298 18.37267 56.39522 13.95877 61.15071 5.10197 64.11613 .00496 67.08153-5.09201 71.83705-13.94841 74.80246-18.363 77.76788-22.7776 82.52339-29.263 85.4888-31.81233 88.45421-34.36168 93.20972-36.73611 96.17514-36.73694 99.14056-36.73776 103.89606-34.36606 106.86148-31.81825 109.82689-29.27046 114.5824-22.78802 117.54782-18.3742 120.51323-13.9604 128.23415-.00652 128.23415-.00652"/>
</svg>
