<svg xmlns="http://www.w3.org/2000/svg" xmlns:xlink="http://www.w3.org/1999/xlink" version="1.1" width="50" height="49" viewBox="0 0 50 49">
<defs>
<path id="font_1_1" d="M.36698915 .31781007V.28579713C.36698915 .05178833 .2630005 .0055389406 .20498657 .0055389406 .18798828 .0055389406 .13398743 .007537842 .10699463 .041778566 .15098572 .041778566 .15899658 .07078552 .15899658 .08778381 .15899658 .118774417 .1349945 .13378906 .11299133 .13378906 .09700012 .13378906 .066986087 .12478638 .066986087 .08578491 .066986087 .018615723 .12098694-.022460938 .20599365-.022460938 .33499146-.022460938 .45700074 .11378479 .45700074 .32881166 .45700074 .5979767 .34199525 .6660156 .25299073 .6660156 .19799805 .6660156 .14898682 .64801028 .10598755 .60298159 .06498718 .5579529 .041992189 .5159302 .041992189 .44088746 .041992189 .31581117 .12998963 .21777344 .24198914 .21777344 .30299378 .21777344 .34399415 .25978089 .36698915 .31781007M.24299622 .24076844C.22698975 .24076844 .18099976 .24076844 .1499939 .3038025 .13198853 .3408203 .13198853 .39085389 .13198853 .43988038 .13198853 .49391175 .13198853 .54093936 .15299988 .5779724 .17999268 .6279907 .21798706 .64100649 .25299073 .64100649 .29899598 .64100649 .33198548 .60697939 .34899903 .5619507 .36099244 .52993777 .36499024 .4669037 .36499024 .42086793 .36499024 .3378296 .33099366 .24076844 .24299622 .24076844Z"/>
<path id="font_2_2" d="M.57499697 .5688782C.57499697 .64401248 .519989 .70606997 .43899537 .70606997 .3809967 .70606997 .35299684 .6900635 .31799317 .664032 .2630005 .62397769 .20799256 .5268097 .18899536 .4506836L.02999878-.18434143C.0289917-.18833924 .033996583-.19433594 .041992189-.19433594 .049987794-.19433594 .052993776-.19233704 .053985597-.18934632L.12399292 .08711243C.14299011 .027236939 .18699646-.009719849 .2599945-.009719849 .33299256-.009719849 .4079895 .025238038 .45298768 .06915283 .5009918 .11505127 .5329895 .17892456 .5329895 .2527771 .5329895 .32461549 .49598695 .37652589 .45999146 .40159608 .5179901 .43466188 .57499697 .49676515 .57499697 .5688782M.394989 .40260316C.38198854 .3975525 .37098695 .39553834 .34700013 .39553834 .33299256 .39553834 .31298829 .39453126 .30299378 .39956666 .30499269 .4096527 .34098817 .4076538 .35198976 .4076538 .37298585 .4076538 .38198854 .4076538 .394989 .40260316M.5189972 .59191897C.5189972 .5218048 .48098756 .44969178 .42900086 .4186554 .4019928 .4286499 .38198854 .43066407 .35198976 .43066407 .33099366 .43066407 .2749939 .43165589 .2749939 .39855958 .27398683 .37052918 .32598878 .3735199 .34399415 .3735199 .3809967 .3735199 .3959961 .37452699 .42599488 .3865204 .46398927 .35057069 .46899415 .31962586 .46998597 .27372743 .47200013 .21585083 .44799806 .14100647 .41999818 .1020813 .3809967 .048202516 .31399537 .012268066 .25698854 .012268066 .18099976 .012268066 .14299011 .07014465 .14299011 .14100647 .14299011 .15098572 .14299011 .16595459 .147995 .184906L.21199036 .43766786C.23399353 .5238037 .30599977 .68307498 .42599488 .68307498 .48399354 .68307498 .5189972 .6520233 .5189972 .59191897Z"/>
<path id="font_2_3" d="M.040985109 .2543335C.07998657 .3693695 .18899536 .3703766 .19999695 .3703766 .35099793 .3703766 .3619995 .1953125 .3619995 .11627197 .3619995 .055252077 .35699464 .038238527 .34999085 .018234253 .32798768-.05479431 .2979889-.1708374 .2979889-.19685364 .2979889-.20785523 .30299378-.21484375 .31098939-.21484375 .32398988-.21484375 .33198548-.19285584 .34298707-.15483094 .3659973-.07080078 .37599183-.0137786869 .37998963 .017227173 .38198854 .03024292 .38398744 .04324341 .3880005 .056243898 .41999818 .1552887 .48399354 .3043518 .5239868 .38337709 .5309906 .39537049 .54299929 .41737367 .54299929 .42137147 .54299929 .43138124 .5329895 .43138124 .5309906 .43138124 .5279999 .43138124 .5219879 .43138124 .5189972 .42437745 .46699525 .32936097 .4269867 .22932434 .3869934 .12828064 .38598634 .1592865 .3849945 .23532105 .34599305 .33236695 .32199098 .39337159 .28199769 .4423828 .21299744 .4423828 .08799744 .4423828 .017990113 .29034425 .017990113 .25933839 .017990113 .24932862 .026992798 .24932862 .036987306 .24932862L.040985109 .2543335Z"/>
<path id="font_2_1" d="M.47698976 .23631287C.47698976 .39337159 .38398744 .4423828 .30999757 .4423828 .17298889 .4423828 .040985109 .29933167 .040985109 .15829468 .040985109 .06526184 .100997928-.0107421879 .20298767-.0107421879 .2659912-.0107421879 .33799745 .012252808 .4139862 .073272708 .4269867 .020248414 .45999146-.0107421879 .5049896-.0107421879 .55799868-.0107421879 .58898928 .044265748 .58898928 .060272218 .58898928 .06726074 .58299258 .07026672 .57699587 .07026672 .56999209 .07026672 .5669861 .06726074 .56399539 .060272218 .54599 .011245728 .5099945 .011245728 .5079956 .011245728 .47698976 .011245728 .47698976 .089279178 .47698976 .11328125 .47698976 .1342926 .47698976 .1362915 .4869995 .14828491 .58099368 .2663269 .60198977 .38235475 .60198977 .38336183 .60198977 .38536073 .6009979 .39337159 .58999636 .39337159 .5799866 .39337159 .5799866 .3903656 .57499697 .37236024 .5569916 .30934144 .5239868 .23332215 .47698976 .17430115V.23631287M.4099884 .09927368C.32199098 .022247315 .24499512 .011245728 .20498657 .011245728 .14498902 .011245728 .114990238 .056259157 .114990238 .120285037 .114990238 .16929627 .14099121 .2773285 .17298889 .32833863 .21998596 .4013672 .27398683 .42037965 .30899049 .42037965 .4079895 .42037965 .4079895 .28933717 .4079895 .21130371 .4079895 .17430115 .4079895 .11628723 .4099884 .09927368Z"/>
</defs>
<path transform="matrix(1.00005,0,0,-1.00005,40.577119,47.079656)" stroke-width=".79701" stroke-linecap="butt" stroke-miterlimit="10" stroke-linejoin="miter" fill="none" stroke="#000000" d="M0 0V45.35742"/>
<use data-text="9" xlink:href="#font_1_1" transform="matrix(9.963098,0,0,-9.963098,44.296304,27.610682)" fill="#0000ff"/>
<path transform="matrix(1.00005,0,0,-1.00005,40.577119,47.079656)" stroke-width=".79701" stroke-linecap="butt" stroke-miterlimit="10" stroke-linejoin="miter" fill="none" stroke="#000000" d="M0 0-39.28078 22.6787"/>
<use data-text="9" xlink:href="#font_1_1" transform="matrix(9.963098,0,0,-9.963098,12.234703,45.879594)" fill="#0000ff"/>
<path transform="matrix(1.00005,0,0,-1.00005,40.577119,47.079656)" stroke-width=".79701" stroke-linecap="butt" stroke-miterlimit="10" stroke-linejoin="miter" fill="none" stroke="#000000" d="M-39.28078 22.6787 0 45.35742"/>
<use data-text="9" xlink:href="#font_1_1" transform="matrix(9.963098,0,0,-9.963098,12.234703,9.340771)" fill="#0000ff"/>
<path transform="matrix(1.00005,0,0,-1.00005,40.577119,47.079656)" stroke-width=".3985" stroke-linecap="butt" stroke-miterlimit="10" stroke-linejoin="miter" fill="none" stroke="#ff0000" d="M0 9.07086C-3.24031 9.07086-6.23552 7.34155-7.85562 4.53543"/>
<use data-text="&#x03b2;" xlink:href="#font_2_2" transform="matrix(9.963098,0,0,-9.963098,30.968636,35.75909)" fill="#ff0000"/>
<path transform="matrix(1.00005,0,0,-1.00005,40.577119,47.079656)" stroke-width=".3985" stroke-linecap="butt" stroke-miterlimit="10" stroke-linejoin="miter" fill="none" stroke="#ff0000" d="M0 36.28654C-3.24031 36.28654-6.23552 38.01585-7.85562 40.82199"/>
<use data-text="&#x03b3;" xlink:href="#font_2_3" transform="matrix(9.963098,0,0,-9.963098,31.19265,17.386172)" fill="#ff0000"/>
<path transform="matrix(1.00005,0,0,-1.00005,40.577119,47.079656)" stroke-width=".3985" stroke-linecap="butt" stroke-miterlimit="10" stroke-linejoin="miter" fill="none" stroke="#ff0000" d="M-31.42517 27.21413C-29.80508 24.408-29.80508 20.9494-31.42517 18.14326"/>
<use data-text="&#x03b1;" xlink:href="#font_2_1" transform="matrix(9.963098,0,0,-9.963098,11.892685,26.544629)" fill="#ff0000"/>
</svg>
