<svg xmlns="http://www.w3.org/2000/svg" xmlns:xlink="http://www.w3.org/1999/xlink" version="1.1" width="81" height="85" viewBox="0 0 81 85">
<defs>
<path id="font_1_1" d="M.36698915 .31781007V.28579713C.36698915 .05178833 .2630005 .0055389406 .20498657 .0055389406 .18798828 .0055389406 .13398743 .007537842 .10699463 .041778566 .15098572 .041778566 .15899658 .07078552 .15899658 .08778381 .15899658 .118774417 .1349945 .13378906 .11299133 .13378906 .09700012 .13378906 .066986087 .12478638 .066986087 .08578491 .066986087 .018615723 .12098694-.022460938 .20599365-.022460938 .33499146-.022460938 .45700074 .11378479 .45700074 .32881166 .45700074 .5979767 .34199525 .6660156 .25299073 .6660156 .19799805 .6660156 .14898682 .64801028 .10598755 .60298159 .06498718 .5579529 .041992189 .5159302 .041992189 .44088746 .041992189 .31581117 .12998963 .21777344 .24198914 .21777344 .30299378 .21777344 .34399415 .25978089 .36698915 .31781007M.24299622 .24076844C.22698975 .24076844 .18099976 .24076844 .1499939 .3038025 .13198853 .3408203 .13198853 .39085389 .13198853 .43988038 .13198853 .49391175 .13198853 .54093936 .15299988 .5779724 .17999268 .6279907 .21798706 .64100649 .25299073 .64100649 .29899598 .64100649 .33198548 .60697939 .34899903 .5619507 .36099244 .52993777 .36499024 .4669037 .36499024 .42086793 .36499024 .3378296 .33099366 .24076844 .24299622 .24076844Z"/>
<path id="font_2_2" d="M.23098755 .35134889C.23599243 .37236024 .24598694 .41036988 .24598694 .41537477 .24598694 .43237306 .23399353 .4423828 .21699524 .4423828 .21398926 .4423828 .18598938 .44137574 .1769867 .40637208L.032989503-.17282105C.02999878-.18482971 .02999878-.18682862 .02999878-.18882752 .02999878-.2038269 .040985109-.21582031 .057998659-.21582031 .07899475-.21582031 .09098816-.1978302 .09298706-.19482422 .09700012-.18582154 .10998535-.13380432 .147995 .020248414 .17999268-.0067443849 .22499085-.0107421879 .24499512-.0107421879 .31498719-.0107421879 .35398866 .03425598 .37799073 .06227112 .3869934 .01725769 .42399598-.0107421879 .46798707-.0107421879 .5029907-.0107421879 .526001 .012252808 .5419922 .044265748 .5589905 .08027649 .57199099 .14129639 .57199099 .14329529 .57199099 .1532898 .5629883 .1532898 .55999758 .1532898 .5499878 .1532898 .548996 .14929199 .54599 .13528443 .5289917 .07026672 .5109863 .011245728 .46998597 .011245728 .44299317 .011245728 .43998719 .037261964 .43998719 .057266237 .43998719 .07926941 .45199586 .12628174 .45999146 .16130066L.48799134 .2693329C.4909973 .28433229 .5009918 .32234193 .5049896 .3373413 .5099945 .36035157 .519989 .3983612 .519989 .40437318 .519989 .42237855 .5059967 .43138124 .4909973 .43138124 .48599244 .43138124 .45999146 .43037416 .45199586 .3963623L.40499879 .20930481C.3929901 .15930176 .38198854 .11727905 .3789978 .107284549 .37799073 .10227966 .32998658 .011245728 .24899292 .011245728 .19898987 .011245728 .1749878 .044265748 .1749878 .09828186 .1749878 .12728882 .18199158 .1552887 .18899536 .18330384L.23098755 .35134889Z"/>
<path id="font_2_1" d="M.35699464 .29231263C.397995 .18730164 .44599916 .034301759 .46199037 .011291504 .47799684-.010696411 .48799134-.010696411 .5149994-.010696411H.5369873C.5469971-.00970459 .5479889-.0037078858 .5479889-.0007019043 .5479889 .0023040772 .54599 .0043029787 .54299929 .008300781 .5329895 .019302369 .5269928 .034301759 .519989 .05430603L.31599427 .62332156C.29499818 .68133547 .24099732 .69433596 .19400025 .69433596 .18899536 .69433596 .17599488 .69433596 .17599488 .68333438 .17599488 .6753235 .18399048 .6733246 .18499756 .6733246 .21798706 .6673279 .22499085 .6613312 .25 .59332278L.34700013 .32130433 .070999149 .047302247C.05899048 .03529358 .052993776 .029296875 .052993776 .016296387 .052993776-.0007019043 .066986087-.0126953129 .08299255-.0126953129 .09899902-.0126953129 .10798645-.0017089844 .115997318 .008300781L.35699464 .29231263Z"/>
</defs>
<path transform="matrix(1.00008,0,0,-1.00002,9.919594,73.29021)" stroke-width=".79701" stroke-linecap="butt" stroke-miterlimit="10" stroke-linejoin="miter" fill="none" stroke="#0000ff" d="M0 0V5.10242H5.10242V0ZM5.10242 5.10242"/>
<path transform="matrix(1.00008,0,0,-1.00002,9.919594,73.29021)" stroke-width=".79701" stroke-linecap="butt" stroke-miterlimit="10" stroke-linejoin="miter" fill="none" stroke="#000000" d="M0 0H61.22914"/>
<use data-text="9" xlink:href="#font_1_1" transform="matrix(9.963397,0,0,-9.962799,38.045846,83.42941)" fill="#0000ff"/>
<path transform="matrix(1.00008,0,0,-1.00002,9.919594,73.29021)" stroke-width=".79701" stroke-linecap="butt" stroke-miterlimit="10" stroke-linejoin="miter" fill="none" stroke="#000000" d="M61.22914 0V61.22914"/>
<use data-text="9" xlink:href="#font_1_1" transform="matrix(9.963397,0,0,-9.962799,74.87279,45.88566)" fill="#0000ff"/>
<path transform="matrix(1.00008,0,0,-1.00002,9.919594,73.29021)" stroke-width=".79701" stroke-linecap="butt" stroke-miterlimit="10" stroke-linejoin="miter" fill="none" stroke="#000000" d="M0 61.22914H61.22914"/>
<use data-text="9" xlink:href="#font_1_1" transform="matrix(9.963397,0,0,-9.962799,38.045846,8.340912)" fill="#0000ff"/>
<path transform="matrix(1.00008,0,0,-1.00002,9.919594,73.29021)" stroke-width=".79701" stroke-linecap="butt" stroke-miterlimit="10" stroke-linejoin="miter" fill="none" stroke="#000000" d="M0 61.22914V0"/>
<use data-text="9" xlink:href="#font_1_1" transform="matrix(9.963397,0,0,-9.962799,1.218895,45.88566)" fill="#0000ff"/>
<path transform="matrix(1.00008,0,0,-1.00002,9.919594,73.29021)" stroke-width=".79701" stroke-linecap="butt" stroke-miterlimit="10" stroke-linejoin="miter" fill="none" stroke="#929292" d="M0 61.22914 61.22914 0"/>
<path transform="matrix(1.00008,0,0,-1.00002,9.919594,73.29021)" stroke-width=".79701" stroke-linecap="butt" stroke-miterlimit="10" stroke-linejoin="miter" fill="none" stroke="#ff0000" d="M53.06541 61.2292C53.06541 56.72043 56.72041 53.06543 61.22919 53.06543"/>
<use data-text="&#x00b5;" xlink:href="#font_2_2" transform="matrix(9.963397,0,0,-9.962799,55.657255,25.841256)" fill="#ff0000"/>
<path transform="matrix(1.00008,0,0,-1.00002,9.919594,73.29021)" stroke-width=".79701" stroke-linecap="butt" stroke-miterlimit="10" stroke-linejoin="miter" fill="none" stroke="#ff0000" d="M10.20485 61.2292C10.20485 58.52321 9.12932 55.92667 7.21591 54.01328"/>
<use data-text="&#x03bb;" xlink:href="#font_2_1" transform="matrix(9.963397,0,0,-9.962799,23.06765,24.61023)" fill="#ff0000"/>
</svg>
