<svg xmlns="http://www.w3.org/2000/svg" xmlns:xlink="http://www.w3.org/1999/xlink" version="1.1" width="118" height="110" viewBox="0 0 118 110">
<defs>
<path id="font_1_2" d="M.70799258 .23292542C.70999148 .23791504 .71299746 .24491883 .71299746 .24691773 .71299746 .24790955 .71299746 .2579193 .70098879 .2579193 .69200137 .2579193 .6899872 .25190736 .6879883 .24591065 .6230011 .097961429 .58599856 .0309906 .4149933 .0309906H.2689972C.25498963 .0309906 .25299073 .0309906 .24699402 .03199768 .23699951 .032989503 .23399353 .033996583 .23399353 .041992189 .23399353 .04498291 .23399353 .04698181 .23899842 .06498718L.30699159 .33789063H.4059906C.4909973 .33789063 .4909973 .31689454 .4909973 .29190064 .4909973 .28489686 .4909973 .27290345 .48399354 .24291992 .48199464 .23791504 .48098756 .23492432 .48098756 .23191834 .48098756 .22692871 .4850006 .220932 .49398805 .220932 .5019989 .220932 .5049896 .22592163 .5089874 .24092102L.56599429 .47477723C.56599429 .48077394 .5609894 .48576356 .55400088 .48576356 .54499819 .48576356 .54299929 .47976686 .5399933 .4677887 .5189972 .39186097 .5009918 .36888124 .40899659 .36888124H.31498719L.375 .60964968C.38398744 .64460757 .3849945 .64860537 .42900086 .64860537H.56999209C.69200137 .64860537 .7220001 .61964419 .7220001 .5377197 .7220001 .51374819 .7220001 .51174929 .71798709 .48477174 .71798709 .47877503 .71699526 .4717865 .71699526 .46678163 .71699526 .461792 .7200012 .45480348 .72898867 .45480348 .73999026 .45480348 .7409973 .46080018 .7429962 .47976686L.7630005 .65260317C.7659912 .6796112 .7609863 .6796112 .73599246 .6796112H.23098755C.21099854 .6796112 .20098877 .6796112 .20098877 .65960696 .20098877 .64860537 .20999146 .64860537 .22898865 .64860537 .2659912 .64860537 .2939911 .64860537 .2939911 .6306305 .2939911 .6266327 .2939911 .6246338 .2889862 .6066437L.15699768 .07797241C.14698792 .038986207 .14498902 .0309906 .06599426 .0309906 .04899597 .0309906 .037994386 .0309906 .037994386 .011993408 .037994386 0 .04699707 0 .06599426 0H.58499148C.60798647 0 .60899356 .0009918213 .6159973 .016998291L.70799258 .23292542Z"/>
<path id="font_1_4" d="M.9259949 .6056366C.93499758 .6416168 .93699648 .6516113 1.0119934 .6516113 1.0349884 .6516113 1.0439911 .6516113 1.0439911 .6716156 1.0439911 .6826172 1.0339966 .6826172 1.0169983 .6826172H.8849945C.85899356 .6826172 .8580017 .6826172 .84599307 .66360476L.48098756 .093948367 .40299989 .65960696C.3999939 .6826172 .397995 .6826172 .37199403 .6826172H.23498535C.21598816 .6826172 .20498657 .6826172 .20498657 .66360476 .20498657 .6516113 .21398926 .6516113 .23399353 .6516113 .24699402 .6516113 .2649994 .65060427 .2769928 .6496124 .29299928 .6476135 .29899598 .64460757 .29899598 .6336212 .29899598 .6296234 .2979889 .62661746 .29499818 .614624L.16799927 .10594177C.1579895 .065963748 .14099121 .033996583 .05999756 .0309906 .054992677 .0309906 .041992189 .02999878 .041992189 .011993408 .041992189 .0029907227 .04798889 0 .055999757 0 .08799744 0 .12298584 .0029907227 .1559906 .0029907227 .18998719 .0029907227 .22599793 0 .25898744 0 .2639923 0 .2769928 0 .2769928 .019989014 .2769928 .0309906 .2659912 .0309906 .25898744 .0309906 .20199585 .03199768 .19099427 .051986696 .19099427 .07496643 .19099427 .081954959 .19198609 .08695984 .19499207 .09794617L.33099366 .64260867H.33198548L.41799928 .022994996C.41999818 .010986328 .42099 0 .43299867 0 .44400025 0 .44999696 .010986328 .45498658 .017990113L.85899356 .65060427H.8600006L.71699526 .07795715C.70700076 .038986207 .7049866 .0309906 .6259918 .0309906 .60899356 .0309906 .59799197 .0309906 .59799197 .011993408 .59799197 0 .6100006 0 .61299136 0 .6409912 0 .70899966 .0029907227 .7369995 .0029907227 .7779999 .0029907227 .82099917 0 .8619995 0 .8679962 0 .8809967 0 .8809967 .019989014 .8809967 .0309906 .871994 .0309906 .8529968 .0309906 .81599429 .0309906 .7879944 .0309906 .7879944 .048980714 .7879944 .052978517 .7879944 .054977418 .79299929 .07296753L.9259949 .6056366Z"/>
<path id="font_1_5" d="M.7559967 .577652C.7659912 .61763 .7839966 .64860537 .8639984 .6516113 .86898806 .6516113 .8809967 .65260317 .8809967 .6716156 .8809967 .6726074 .8809967 .6826172 .8679962 .6826172 .83499148 .6826172 .7999878 .6796112 .7669983 .6796112 .73298647 .6796112 .69799807 .6826172 .6649933 .6826172 .6589966 .6826172 .6469879 .6826172 .6469879 .6626129 .6469879 .6516113 .6569977 .6516113 .6649933 .6516113 .7220001 .65060427 .73298647 .6296234 .73298647 .6076355 .73298647 .6046295 .73098757 .5896454 .7299957 .5866394L.6179962 .141922 .39698792 .66360476C.3889923 .6816101 .3880005 .6826172 .36499024 .6826172H.23098755C.21099854 .6826172 .20199585 .6826172 .20199585 .6626129 .20199585 .6516113 .21099854 .6516113 .22999573 .6516113 .23498535 .6516113 .2979889 .6516113 .2979889 .64260867L.1639862 .10594177C.1539917 .065963748 .13699341 .033996583 .055999757 .0309906 .049987794 .0309906 .038986207 .02999878 .038986207 .010986328 .038986207 .0039978029 .04399109 0 .051986696 0 .083999637 0 .11898804 .0029907227 .1519928 .0029907227 .18598938 .0029907227 .22200012 0 .25498963 0 .2599945 0 .272995 0 .272995 .019989014 .272995 .02999878 .2639923 .0309906 .25299073 .0309906 .19499207 .032989503 .18699646 .054977418 .18699646 .07496643 .18699646 .081954959 .18798828 .08695984 .19099427 .09794617L.32299806 .6256256C.32699586 .6196289 .32699586 .61763 .33198548 .6076355L.58099368 .018997193C.58799746 .0019989014 .59098818 0 .59999087 0 .61099246 0 .61099246 .0029907227 .6159973 .020996094L.7559967 .577652Z"/>
<path id="font_1_3" d="M.37399293 .6046295C.3829956 .64060977 .38598634 .6516113 .47999574 .6516113 .5099945 .6516113 .5179901 .6516113 .5179901 .6706085 .5179901 .6826172 .5069885 .6826172 .5019989 .6826172 .46899415 .6826172 .3869934 .6796112 .35398866 .6796112 .32398988 .6796112 .25099183 .6826172 .22099304 .6826172 .21398926 .6826172 .20199585 .6826172 .20199585 .6626129 .20199585 .6516113 .21099854 .6516113 .22999573 .6516113 .23199463 .6516113 .25099183 .6516113 .2679901 .6496124 .28599549 .6476135 .29499818 .64660647 .29499818 .6336212 .29499818 .6296234 .2939911 .62661746 .29100038 .614624L.15699768 .07795715C.14698792 .038986207 .14498902 .0309906 .06599426 .0309906 .04899597 .0309906 .038986207 .0309906 .038986207 .010986328 .038986207 0 .04798889 0 .06599426 0H.5289917C.5529938 0 .55400088 0 .55999758 .016998291L.6389923 .23286438C.6429901 .24386597 .6429901 .24586487 .6429901 .24685669 .6429901 .2508545 .6399994 .25785829 .6309967 .25785829 .621994 .25785829 .62098696 .2528534 .6139984 .23686219 .5799866 .14492798 .5359955 .0309906 .36299134 .0309906H.2689972C.25498963 .0309906 .25299073 .0309906 .24699402 .03199768 .23699951 .032989503 .23399353 .033996583 .23399353 .041992189 .23399353 .04498291 .23399353 .04698181 .23899842 .064971927L.37399293 .6046295Z"/>
<path id="font_1_6" d="M.73999026 .4358673C.73999026 .5970001 .6339874 .7050781 .4850006 .7050781 .2689972 .7050781 .04899597 .47790528 .04899597 .24472046 .04899597 .07859802 .16099549-.022460938 .30499269-.022460938 .5169983-.022460938 .73999026 .19668579 .73999026 .4358673M.31098939 .0035247803C.21199036 .0035247803 .14199829 .08459473 .14199829 .21670532 .14199829 .2607422 .1559906 .4068451 .23298645 .52394106 .3019867 .62802127 .3999939 .68006899 .47898866 .68006899 .5609894 .68006899 .651001 .62402346 .651001 .4748993 .651001 .4028473 .6239929 .24671936 .5249939 .12362671 .47698976 .062576297 .394989 .0035247803 .31098939 .0035247803Z"/>
<path id="font_2_1" d="M.1269989 .07699585 .23298645 .18003845C.3889923 .31811524 .44898988 .3721466 .44898988 .47216798 .44898988 .5860901 .35899354 .6660156 .23699951 .6660156 .12399292 .6660156 .049987794 .57411196 .049987794 .48516847 .049987794 .4291687 .099990848 .4291687 .102996829 .4291687 .11999512 .4291687 .15499878 .44117738 .15499878 .48217774 .15499878 .5081787 .13699341 .5341797 .101989749 .5341797 .09399414 .5341797 .09199524 .5341797 .08898926 .5331726 .11199951 .59806826 .1659851 .63500979 .22399903 .63500979 .31498719 .63500979 .35798646 .5541382 .35798646 .47216798 .35798646 .39215089 .30799867 .31311036 .25299073 .25108338L.06098938 .036987306C.049987794 .025985718 .049987794 .023986817 .049987794 0H.42099L.44898988 .17404175H.42399598C.4189911 .14402771 .4119873 .1000061 .4019928 .084991458 .394989 .07699585 .32899476 .07699585 .30699159 .07699585H.1269989Z"/>
<path id="font_2_3" d="M.2939911 .16503906V.07800293C.2939911 .041992189 .2919922 .0309906 .21798706 .0309906H.19699097V0C.23799134 .0029907227 .2899933 .0029907227 .33198548 .0029907227 .37399293 .0029907227 .4269867 .0029907227 .46798707 0V.0309906H.44699098C.37298585 .0309906 .37098695 .041992189 .37098695 .07800293V.16503906H.47099305V.19602967H.37098695V.65075686C.37098695 .67074587 .37098695 .6767578 .35499574 .6767578 .34599305 .6767578 .34298707 .6767578 .33499146 .66474917L.027999878 .19602967V.16503906H.2939911M.2999878 .19602967H.055999757L.2999878 .5688019V.19602967Z"/>
<path id="font_1_7" d="M.48599244 .38136292C.48999024 .39537049 .48999024 .39736939 .48999024 .40437318 .48999024 .42237855 .47599793 .43138124 .46099855 .43138124 .45098878 .43138124 .43499757 .42536927 .42599488 .41036988 .42399598 .405365 .41600038 .37435914 .4119873 .35635377 .40499879 .33035279 .397995 .30334474 .3919983 .27633668L.34700013 .09628296C.34298707 .08126831 .2999878 .011245728 .23399353 .011245728 .18299866 .011245728 .17199707 .055267335 .17199707 .0922699 .17199707 .1382904 .18899536 .20030213 .22299195 .28833009 .23899842 .3293457 .24299622 .3403473 .24299622 .36035157 .24299622 .405365 .21099854 .4423828 .16099549 .4423828 .06599426 .4423828 .0289917 .29733277 .0289917 .28833009 .0289917 .27833558 .038986207 .27833558 .040985109 .27833558 .050994874 .27833558 .051986696 .28033448 .056991579 .29634095 .083999637 .3903656 .12399292 .42037965 .1579895 .42037965 .1659851 .42037965 .18299866 .42037965 .18299866 .3883667 .18299866 .36335755 .17298889 .3373413 .1659851 .31834413 .12599182 .21231079 .10798645 .1552887 .10798645 .10827637 .10798645 .019256592 .17098999-.0107421879 .22999573-.0107421879 .2689972-.0107421879 .30299378 .0062561037 .33099366 .03425598 .31799317-.017745972 .30599977-.06674194 .2659912-.11973572 .23999024-.15385437 .20199585-.18309021 .1559906-.18309021 .14199829-.18309021 .09700012-.18005371 .07998657-.14074707 .09599304-.14074707 .10899353-.14074707 .12298584-.1287384 .1329956-.11973572 .14299011-.10673523 .14299011-.08773804 .14299011-.056747438 .115997318-.052734376 .10598755-.052734376 .08299255-.052734376 .049987794-.068740848 .049987794-.11773682 .049987794-.16796875 .09399414-.20507813 .1559906-.20507813 .25898744-.20507813 .3619995-.11373901 .3899994-.00074768069L.48599244 .38136292Z"/>
<path id="font_1_8" d="M.1329956 .08345032C.18699646 .14138794 .21598816 .16636658 .2519989 .19732666 .2519989 .19833374 .31399537 .25128175 .34999085 .2872467 .44499208 .3803711 .46699525 .42837525 .46699525 .43237306 .46699525 .4423828 .45799256 .4423828 .45599366 .4423828 .44898988 .4423828 .44599916 .44036866 .44099427 .43138124 .41099549 .38337709 .3899994 .3671875 .3659973 .3671875 .34199525 .3671875 .32998658 .38237 .31498719 .3993683 .29599 .42237855 .2789917 .4423828 .24598694 .4423828 .17098999 .4423828 .125 .34918214 .125 .3282013 .125 .3231964 .12799073 .31721498 .13699341 .31721498 .1459961 .31721498 .147995 .3222046 .1499939 .3282013 .16899109 .37434388 .22698975 .37538148 .23498535 .37538148 .2559967 .37538148 .2749939 .36820985 .2979889 .36018373 .33799745 .34518434 .34899903 .34518434 .375 .34518434 .33898927 .30223084 .25498963 .2303009 .23599243 .21430969L.1459961 .13040161C.07798767 .06341553 .042999269 .0062561037 .042999269-.00074768069 .042999269-.0107421879 .052993776-.0107421879 .054992677-.0107421879 .06298828-.0107421879 .06498718-.008743286 .070999149 .002243042 .09399414 .037246705 .12399292 .064453128 .1559906 .064453128 .1789856 .064453128 .18899536 .055252077 .21398926 .026245118 .23098755 .0052490236 .24899292-.0107421879 .27799989-.0107421879 .3769989-.0107421879 .43499757 .1164093 .43499757 .14338684 .43499757 .14837647 .43099977 .15338135 .4229889 .15338135 .4139862 .15338135 .4119873 .14738465 .40899659 .14039612 .38598634 .07543945 .32199098 .056243898 .2889862 .056243898 .2689972 .056243898 .25099183 .06239319 .22999573 .06944275 .19599915 .08244324 .18099976 .08644104 .1599884 .08644104 .1579895 .08644104 .14199829 .08644104 .1329956 .08345032Z"/>
<path id="font_2_5" d="M.13198853 .327713V.35173036C.13198853 .6047821 .2559967 .64100649 .30699159 .64100649 .33099366 .64100649 .37298585 .634964 .394989 .6007538 .37998963 .6007538 .33999635 .6007538 .33999635 .5557556 .33999635 .524765 .3639984 .5097656 .38598634 .5097656 .4019928 .5097656 .43199159 .51875308 .43199159 .5577545 .43199159 .6178589 .3880005 .6660156 .30499269 .6660156 .1769867 .6660156 .041992189 .5367584 .041992189 .31570436 .041992189 .048553468 .1579895-.022460938 .25099183-.022460938 .3619995-.022460938 .45700074 .07156372 .45700074 .2036438 .45700074 .33070375 .36799623 .4267578 .25698854 .4267578 .18899536 .4267578 .1519928 .37573243 .13198853 .327713M.25099183 .0055389406C.18798828 .0055389406 .1579895 .06556702 .1519928 .080566409 .13398743 .127594 .13398743 .2076416 .13398743 .22564698 .13398743 .30369569 .1659851 .40374757 .2559967 .40374757 .27198792 .40374757 .31799317 .40374757 .34899903 .34172059 .36698915 .30470277 .36698915 .2536621 .36698915 .20463562 .36698915 .15661621 .36698915 .10658264 .34999085 .0705719 .31999208 .010528564 .27398683 .0055389406 .25099183 .0055389406Z"/>
<path id="font_1_1" d="M.45498658 .5001831C.45498658 .56614688 .43699647 .7050781 .33499146 .7050781 .19599915 .7050781 .041992189 .42323304 .041992189 .19425965 .041992189 .100250247 .070999149-.0107421879 .1619873-.0107421879 .30299378-.0107421879 .45498658 .27627564 .45498658 .5001831M.147995 .36328126C.16499329 .42723084 .18499756 .5071869 .22499085 .57814028 .2519989 .6271057 .2889862 .68307498 .33399964 .68307498 .3829956 .68307498 .3889923 .6191101 .3889923 .56214907 .3889923 .5131836 .3809967 .46220399 .35699464 .36328126H.147995M.34799195 .3312683C.33699037 .28527833 .31599427 .2002716 .27799989 .12826538 .24299622 .060256959 .20498657 .011245728 .1619873 .011245728 .1289978 .011245728 .10798645 .040252687 .10798645 .133255 .10798645 .17526245 .11399841 .23326111 .13999939 .3312683H.34799195Z"/>
<path id="font_2_4" d="M.44898988 .20022583C.44898988 .3193512 .36698915 .41944886 .25898744 .41944886 .21099854 .41944886 .16799927 .40345765 .13198853 .36842347V.5637665C.1519928 .5577698 .18499756 .55078127 .21699524 .55078127 .33999635 .55078127 .4099884 .6417694 .4099884 .6547699 .4099884 .6607666 .40699769 .6657715 .3999939 .6657715 .39898683 .6657715 .39698792 .6657715 .3919983 .66278079 .37199403 .6537781 .32299806 .6337738 .2559967 .6337738 .21598816 .6337738 .16999817 .6407776 .12298584 .6617737 .114990238 .66477969 .11299133 .66477969 .11099243 .66477969 .100997928 .66477969 .100997928 .6567688 .100997928 .6407776V.34439088C.100997928 .32637025 .100997928 .31835938 .114990238 .31835938 .12199402 .31835938 .12399292 .32136537 .12799073 .32736207 .13899231 .3433838 .17599488 .39746095 .25698854 .39746095 .30899049 .39746095 .33399964 .35139466 .34199525 .33337403 .35798646 .29632569 .3600006 .25727845 .3600006 .20722962 .3600006 .17222595 .3600006 .11222839 .33599855 .07035828 .31199647 .031463624 .2749939 .0055389406 .22898865 .0055389406 .1559906 .0055389406 .09899902 .058380128 .08198547 .11723328 .084991458 .1162262 .08799744 .115234378 .09899902 .115234378 .13198853 .115234378 .14898682 .14022827 .14898682 .16423035 .14898682 .18823242 .13198853 .21322632 .09899902 .21322632 .084991458 .21322632 .049987794 .20622254 .049987794 .16023255 .049987794 .07434082 .11898804-.022460938 .23098755-.022460938 .34700013-.022460938 .44898988 .073349 .44898988 .20022583Z"/>
<path id="font_2_2" d="M.2899933 .35191346C.37199403 .37893678 .42999269 .4490509 .42999269 .52809146 .42999269 .6100464 .34199525 .6660156 .24598694 .6660156 .14498902 .6660156 .068984989 .60606387 .068984989 .53009036 .068984989 .49710084 .09098816 .47808839 .11999512 .47808839 .15098572 .47808839 .17098999 .50009158 .17098999 .5290985 .17098999 .57910159 .12399292 .57910159 .10899353 .57910159 .13999939 .62802127 .20599365 .64100649 .24198914 .64100649 .2829895 .64100649 .33799745 .6190338 .33799745 .5290985 .33799745 .51708987 .33599855 .45906068 .30999757 .4149933 .27999879 .36691285 .24598694 .36390687 .22099304 .36291505 .21299744 .36190797 .18899536 .35990907 .18199158 .35990907 .17399597 .35890199 .16699219 .35791017 .16699219 .3479004 .16699219 .33691407 .17399597 .33691407 .19099427 .33691407H.23498535C.31698609 .33691407 .35398866 .2686615 .35398866 .17037964 .35398866 .034469606 .2849884 .0055389406 .24099732 .0055389406 .19799805 .0055389406 .12298584 .022491456 .08799744 .08137512 .12298584 .07637024 .1539917 .09837341 .1539917 .1363678 .1539917 .17237854 .1269989 .19238281 .09799194 .19238281 .07398987 .19238281 .041992189 .17837525 .041992189 .1343689 .041992189 .043441774 .1349945-.022460938 .24398804-.022460938 .3659973-.022460938 .45700074 .06838989 .45700074 .17037964 .45700074 .252594 .3939972 .33088685 .2899933 .35191346Z"/>
<path id="font_3_1" d="M.5069885 .24998474C.5069885 .3710022 .4099884 .4650116 .2919922 .4650116 .17199707 .4650116 .07699585 .36799623 .07699585 .25097657 .07699585 .1299591 .17399597 .035949708 .2919922 .035949708 .4119873 .035949708 .5069885 .13296509 .5069885 .24998474M.2919922 .08496094C.19799805 .08496094 .12599182 .16096497 .12599182 .24998474 .12599182 .34300233 .19999695 .41601563 .2919922 .41601563 .38598634 .41601563 .45799256 .33999635 .45799256 .25097657 .45799256 .15795899 .38398744 .08496094 .2919922 .08496094Z"/>
</defs>
<path transform="matrix(1.00002,0,0,-1.00005,68.76102,57.560075)" d="M.13945 0C.13945 .07701 .07701 .13945 0 .13945-.07701 .13945-.13945 .07701-.13945 0-.13945-.07701-.07701-.13945 0-.13945 .07701-.13945 .13945-.07701 .13945 0ZM0 0"/>
<path transform="matrix(1.00002,0,0,-1.00005,68.76102,57.560075)" stroke-width=".3985" stroke-linecap="butt" stroke-miterlimit="10" stroke-linejoin="miter" fill="none" stroke="#000000" d="M.13945 0C.13945 .07701 .07701 .13945 0 .13945-.07701 .13945-.13945 .07701-.13945 0-.13945-.07701-.07701-.13945 0-.13945 .07701-.13945 .13945-.07701 .13945 0ZM0 0"/>
<use data-text="E" xlink:href="#font_1_2" transform="matrix(9.962799,0,0,-9.963098,57.31279,56.979047)"/>
<path transform="matrix(1.00002,0,0,-1.00005,68.76102,57.560075)" d="M-35.57805-23.81157C-35.57805-23.73456-35.6405-23.6721-35.71751-23.6721-35.79453-23.6721-35.85698-23.73456-35.85698-23.81157-35.85698-23.88858-35.79453-23.95103-35.71751-23.95103-35.6405-23.95103-35.57805-23.88858-35.57805-23.81157ZM-35.71751-23.81157"/>
<path transform="matrix(1.00002,0,0,-1.00005,68.76102,57.560075)" stroke-width=".3985" stroke-linecap="butt" stroke-miterlimit="10" stroke-linejoin="miter" fill="none" stroke="#000000" d="M-35.57805-23.81157C-35.57805-23.73456-35.6405-23.6721-35.71751-23.6721-35.79453-23.6721-35.85698-23.73456-35.85698-23.81157-35.85698-23.88858-35.79453-23.95103-35.71751-23.95103-35.6405-23.95103-35.57805-23.88858-35.57805-23.81157ZM-35.71751-23.81157"/>
<use data-text="M" xlink:href="#font_1_4" transform="matrix(9.962799,0,0,-9.963098,18.771012,91.700778)"/>
<path transform="matrix(1.00002,0,0,-1.00005,68.76102,57.560075)" d="M35.85698 23.81157C35.85698 23.88858 35.79453 23.95103 35.71751 23.95103 35.6405 23.95103 35.57805 23.88858 35.57805 23.81157 35.57805 23.73456 35.6405 23.6721 35.71751 23.6721 35.79453 23.6721 35.85698 23.73456 35.85698 23.81157ZM35.71751 23.81157"/>
<path transform="matrix(1.00002,0,0,-1.00005,68.76102,57.560075)" stroke-width=".3985" stroke-linecap="butt" stroke-miterlimit="10" stroke-linejoin="miter" fill="none" stroke="#000000" d="M35.85698 23.81157C35.85698 23.88858 35.79453 23.95103 35.71751 23.95103 35.6405 23.95103 35.57805 23.88858 35.57805 23.81157 35.57805 23.73456 35.6405 23.6721 35.71751 23.6721 35.79453 23.6721 35.85698 23.73456 35.85698 23.81157ZM35.71751 23.81157"/>
<use data-text="N" xlink:href="#font_1_5" transform="matrix(9.962799,0,0,-9.963098,107.9988,30.227709)"/>
<path transform="matrix(1.00002,0,0,-1.00005,68.76102,57.560075)" d="M4.10797 39.68607C4.10797 39.76308 4.04553 39.82553 3.96852 39.82553 3.8915 39.82553 3.82906 39.76308 3.82906 39.68607 3.82906 39.60905 3.8915 39.5466 3.96852 39.5466 4.04553 39.5466 4.10797 39.60905 4.10797 39.68607ZM3.96852 39.68607"/>
<path transform="matrix(1.00002,0,0,-1.00005,68.76102,57.560075)" stroke-width=".3985" stroke-linecap="butt" stroke-miterlimit="10" stroke-linejoin="miter" fill="none" stroke="#000000" d="M4.10797 39.68607C4.10797 39.76308 4.04553 39.82553 3.96852 39.82553 3.8915 39.82553 3.82906 39.76308 3.82906 39.68607 3.82906 39.60905 3.8915 39.5466 3.96852 39.5466 4.04553 39.5466 4.10797 39.60905 4.10797 39.68607ZM3.96852 39.68607"/>
<use data-text="L" xlink:href="#font_1_3" transform="matrix(9.962799,0,0,-9.963098,69.33903,14.351913)"/>
<path transform="matrix(1.00002,0,0,-1.00005,68.76102,57.560075)" d="M-3.82906-39.68607C-3.82906-39.60905-3.8915-39.5466-3.96852-39.5466-4.04553-39.5466-4.10797-39.60905-4.10797-39.68607-4.10797-39.76308-4.04553-39.82553-3.96852-39.82553-3.8915-39.82553-3.82906-39.76308-3.82906-39.68607ZM-3.96852-39.68607"/>
<path transform="matrix(1.00002,0,0,-1.00005,68.76102,57.560075)" stroke-width=".3985" stroke-linecap="butt" stroke-miterlimit="10" stroke-linejoin="miter" fill="none" stroke="#000000" d="M-3.82906-39.68607C-3.82906-39.60905-3.8915-39.5466-3.96852-39.5466-4.04553-39.5466-4.10797-39.60905-4.10797-39.68607-4.10797-39.76308-4.04553-39.82553-3.96852-39.82553-3.8915-39.82553-3.82906-39.76308-3.82906-39.68607ZM-3.96852-39.68607"/>
<use data-text="O" xlink:href="#font_1_6" transform="matrix(9.962799,0,0,-9.963098,60.85386,107.57657)"/>
<path transform="matrix(1.00002,0,0,-1.00005,68.76102,57.560075)" stroke-width=".79701" stroke-linecap="butt" stroke-miterlimit="10" stroke-linejoin="miter" fill="none" stroke="#000000" d="M-35.71751-23.81157 35.71751 23.81157"/>
<path transform="matrix(1.00002,0,0,-1.00005,68.76102,57.560075)" stroke-width=".79701" stroke-linecap="butt" stroke-miterlimit="10" stroke-linejoin="miter" fill="none" stroke="#000000" d="M-35.71751-23.81157 35.71751 23.81157"/>
<path transform="matrix(1.00002,0,0,-1.00005,68.76102,57.560075)" stroke-width=".79701" stroke-linecap="butt" stroke-miterlimit="10" stroke-linejoin="miter" fill="none" stroke="#000000" d="M0 0 3.96852 39.68607"/>
<use data-text="2" xlink:href="#font_2_1" transform="matrix(9.962799,0,0,-9.963098,57.062784,40.926244)" fill="#0000ff"/>
<use data-text="4" xlink:href="#font_2_3" transform="matrix(9.962799,0,0,-9.963098,62.044168,40.926244)" fill="#0000ff"/>
<path transform="matrix(1.00002,0,0,-1.00005,68.76102,57.560075)" stroke-width=".79701" stroke-linecap="butt" stroke-miterlimit="10" stroke-linejoin="miter" fill="none" stroke="#000000" d="M0 0-3.96852-39.68607"/>
<use data-text="y" xlink:href="#font_1_7" transform="matrix(9.962799,0,0,-9.963098,70.49605,78.580127)" fill="#0000ff"/>
<path transform="matrix(1.00002,0,0,-1.00005,68.76102,57.560075)" stroke-width=".79701" stroke-linecap="butt" stroke-miterlimit="10" stroke-linejoin="miter" fill="none" stroke="#000000" d="M-35.71751-23.81157-3.96852-39.68607"/>
<use data-text="z" xlink:href="#font_1_8" transform="matrix(9.962799,0,0,-9.963098,44.389528,97.31906)" fill="#0000ff"/>
<path transform="matrix(1.00002,0,0,-1.00005,68.76102,57.560075)" stroke-width=".79701" stroke-linecap="butt" stroke-miterlimit="10" stroke-linejoin="miter" fill="none" stroke="#000000" d="M3.96852 39.68607 35.71751 23.81157"/>
<use data-text="2" xlink:href="#font_2_1" transform="matrix(9.962799,0,0,-9.963098,85.61536,22.090306)" fill="#0000ff"/>
<use data-text="6" xlink:href="#font_2_5" transform="matrix(9.962799,0,0,-9.963098,90.59674,22.090306)" fill="#0000ff"/>
<path transform="matrix(1.00002,0,0,-1.00005,68.76102,57.560075)" stroke-width=".79701" stroke-linecap="butt" stroke-miterlimit="10" stroke-linejoin="miter" fill="none" stroke="#0000ff" d="M-18.65215-16.46944-22.22368-11.70708"/>
<path transform="matrix(1.00002,0,0,-1.00005,68.76102,57.560075)" stroke-width=".79701" stroke-linecap="butt" stroke-miterlimit="10" stroke-linejoin="miter" fill="none" stroke="#0000ff" d="M-17.46164-15.27893-21.03316-10.51657"/>
<path transform="matrix(1.00002,0,0,-1.00005,68.76102,57.560075)" stroke-width=".79701" stroke-linecap="butt" stroke-miterlimit="10" stroke-linejoin="miter" fill="none" stroke="#0000ff" d="M18.65215 16.46944 22.22368 11.70708"/>
<path transform="matrix(1.00002,0,0,-1.00005,68.76102,57.560075)" stroke-width=".79701" stroke-linecap="butt" stroke-miterlimit="10" stroke-linejoin="miter" fill="none" stroke="#0000ff" d="M17.46164 15.27893 21.03316 10.51657"/>
<path transform="matrix(1.00002,0,0,-1.00005,68.76102,57.560075)" stroke-width=".79701" stroke-linecap="butt" stroke-miterlimit="10" stroke-linejoin="miter" fill="none" stroke="#000000" d="M-58.81631-12.26231 7.93707-45.63904"/>
<path transform="matrix(-.89437797,-.4471923,-.44717894,.89440467,9.5871319,69.6448)" stroke-width=".79701" stroke-linecap="round" stroke-linejoin="round" fill="none" stroke="#000000" d="M-2.55046 3.11095C-2.0845 1.24435-1.04614 .36295 0 0-1.04614-.36295-2.0845-1.24435-2.55046-3.11095"/>
<path transform="matrix(1.00002,0,0,-1.00005,68.76102,57.560075)" stroke-width=".79701" stroke-linecap="butt" stroke-miterlimit="10" stroke-linejoin="miter" fill="none" stroke="#000000" d="M-19.1302 51.23561 47.62315 17.8586"/>
<path transform="matrix(-.89437797,-.4471923,-.44717894,.89440467,49.274026,6.143688)" stroke-width=".79701" stroke-linecap="round" stroke-linejoin="round" fill="none" stroke="#000000" d="M-2.55046 3.11095C-2.0845 1.24435-1.04614 .36295 0 0-1.04614-.36295-2.0845-1.24435-2.55046-3.11095"/>
<path transform="matrix(1.00002,0,0,-1.00005,68.76102,57.560075)" stroke-width=".79701" stroke-linecap="butt" stroke-miterlimit="10" stroke-linejoin="miter" fill="none" stroke="#000000" d="M-35.71751-23.81157-67.4662-7.93707"/>
<path transform="matrix(1.00002,0,0,-1.00005,68.76102,57.560075)" stroke-width=".79701" stroke-linecap="butt" stroke-miterlimit="10" stroke-linejoin="miter" fill="none" stroke="#000000" d="M-27.78012 55.56056 3.96852 39.68607"/>
<path transform="matrix(1.00002,0,0,-1.00005,68.76102,57.560075)" stroke-width=".79701" stroke-linecap="butt" stroke-miterlimit="10" stroke-linejoin="miter" fill="none" stroke="#ff0000" d="M-27.38298-17.85828C-25.4086-20.82-25.17258-24.61409-26.76442-27.79776"/>
<use data-text="&#x03b8;" xlink:href="#font_1_1" transform="matrix(9.962799,0,0,-9.963098,45.715555,84.833438)" fill="#ff0000"/>
<path transform="matrix(1.00002,0,0,-1.00005,68.76102,57.560075)" stroke-width=".79701" stroke-linecap="butt" stroke-miterlimit="10" stroke-linejoin="miter" fill="none" stroke="#ff0000" d="M27.38298 17.85828C25.4086 20.82 25.17258 24.61409 26.76442 27.79776"/>
<use data-text="5" xlink:href="#font_2_4" transform="matrix(9.962799,0,0,-9.963098,77.26318,37.176057)" fill="#ff0000"/>
<use data-text="3" xlink:href="#font_2_2" transform="matrix(9.962799,0,0,-9.963098,82.24457,37.176057)" fill="#ff0000"/>
<use data-text="&#x25e6;" xlink:href="#font_3_1" transform="matrix(6.97394,0,0,-6.9741489,87.22638,33.560876)" fill="#ff0000"/>
</svg>
