<svg xmlns="http://www.w3.org/2000/svg" xmlns:xlink="http://www.w3.org/1999/xlink" version="1.1" width="122" height="122" viewBox="0 0 122 122">
<defs>
<path id="font_1_1" d="M.6589966 .23046875C.6759949 .23046875 .69400027 .23046875 .69400027 .25045777 .69400027 .27046205 .6759949 .27046205 .6589966 .27046205H.117996219C.100997928 .27046205 .08299255 .27046205 .08299255 .25045777 .08299255 .23046875 .100997928 .23046875 .117996219 .23046875H.6589966Z"/>
<path id="font_2_2" d="M.2939911 .16503906V.07800293C.2939911 .041992189 .2919922 .0309906 .21798706 .0309906H.19699097V0C.23799134 .0029907227 .2899933 .0029907227 .33198548 .0029907227 .37399293 .0029907227 .4269867 .0029907227 .46798707 0V.0309906H.44699098C.37298585 .0309906 .37098695 .041992189 .37098695 .07800293V.16503906H.47099305V.19602967H.37098695V.65075686C.37098695 .67074587 .37098695 .6767578 .35499574 .6767578 .34599305 .6767578 .34298707 .6767578 .33499146 .66474917L.027999878 .19602967V.16503906H.2939911M.2999878 .19602967H.055999757L.2999878 .5688019V.19602967Z"/>
<path id="font_2_1" d="M.1269989 .07699585 .23298645 .18003845C.3889923 .31811524 .44898988 .3721466 .44898988 .47216798 .44898988 .5860901 .35899354 .6660156 .23699951 .6660156 .12399292 .6660156 .049987794 .57411196 .049987794 .48516847 .049987794 .4291687 .099990848 .4291687 .102996829 .4291687 .11999512 .4291687 .15499878 .44117738 .15499878 .48217774 .15499878 .5081787 .13699341 .5341797 .101989749 .5341797 .09399414 .5341797 .09199524 .5341797 .08898926 .5331726 .11199951 .59806826 .1659851 .63500979 .22399903 .63500979 .31498719 .63500979 .35798646 .5541382 .35798646 .47216798 .35798646 .39215089 .30799867 .31311036 .25299073 .25108338L.06098938 .036987306C.049987794 .025985718 .049987794 .023986817 .049987794 0H.42099L.44898988 .17404175H.42399598C.4189911 .14402771 .4119873 .1000061 .4019928 .084991458 .394989 .07699585 .32899476 .07699585 .30699159 .07699585H.1269989Z"/>
<path id="font_3_1" d="M.1329956 .08345032C.18699646 .14138794 .21598816 .16636658 .2519989 .19732666 .2519989 .19833374 .31399537 .25128175 .34999085 .2872467 .44499208 .3803711 .46699525 .42837525 .46699525 .43237306 .46699525 .4423828 .45799256 .4423828 .45599366 .4423828 .44898988 .4423828 .44599916 .44036866 .44099427 .43138124 .41099549 .38337709 .3899994 .3671875 .3659973 .3671875 .34199525 .3671875 .32998658 .38237 .31498719 .3993683 .29599 .42237855 .2789917 .4423828 .24598694 .4423828 .17098999 .4423828 .125 .34918214 .125 .3282013 .125 .3231964 .12799073 .31721498 .13699341 .31721498 .1459961 .31721498 .147995 .3222046 .1499939 .3282013 .16899109 .37434388 .22698975 .37538148 .23498535 .37538148 .2559967 .37538148 .2749939 .36820985 .2979889 .36018373 .33799745 .34518434 .34899903 .34518434 .375 .34518434 .33898927 .30223084 .25498963 .2303009 .23599243 .21430969L.1459961 .13040161C.07798767 .06341553 .042999269 .0062561037 .042999269-.00074768069 .042999269-.0107421879 .052993776-.0107421879 .054992677-.0107421879 .06298828-.0107421879 .06498718-.008743286 .070999149 .002243042 .09399414 .037246705 .12399292 .064453128 .1559906 .064453128 .1789856 .064453128 .18899536 .055252077 .21398926 .026245118 .23098755 .0052490236 .24899292-.0107421879 .27799989-.0107421879 .3769989-.0107421879 .43499757 .1164093 .43499757 .14338684 .43499757 .14837647 .43099977 .15338135 .4229889 .15338135 .4139862 .15338135 .4119873 .14738465 .40899659 .14039612 .38598634 .07543945 .32199098 .056243898 .2889862 .056243898 .2689972 .056243898 .25099183 .06239319 .22999573 .06944275 .19599915 .08244324 .18099976 .08644104 .1599884 .08644104 .1579895 .08644104 .14199829 .08644104 .1329956 .08345032Z"/>
<path id="font_4_1" d="M.33499146 .63612368C.33499146 .6630554 .33299256 .6640625 .30499269 .6640625 .24099732 .6014404 .1499939 .6004486 .10899353 .6004486V.5644531C.1329956 .5644531 .19898987 .5644531 .2539978 .592453V.08203125C.2539978 .04899597 .2539978 .035995485 .1539917 .035995485H.115997318V0C.13398743 .0009918213 .25698854 .0039978029 .2939911 .0039978029 .32499696 .0039978029 .45098878 .0009918213 .47299195 0V.035995485H.43499757C.33499146 .035995485 .33499146 .04899597 .33499146 .08203125V.63612368Z"/>
<path id="font_4_2" d="M.5049896 .18203736H.47099305C.46798707 .16001892 .45799256 .100997928 .44499208 .09098816 .43699647 .084991458 .3600006 .084991458 .34599305 .084991458H.1619873C.2669983 .17803955 .3019867 .20603943 .3619995 .25306703 .43598939 .312088 .5049896 .374115 .5049896 .46914674 .5049896 .5900879 .39898683 .6640625 .2709961 .6640625 .14698792 .6640625 .06298828 .57710269 .06298828 .4851532 .06298828 .43414308 .10598755 .42915345 .115997318 .42915345 .13999939 .42915345 .16899109 .44615174 .16899109 .48214723 .16899109 .5001526 .1619873 .53515627 .10998535 .53515627 .14099121 .6060791 .20899964 .62805178 .2559967 .62805178 .35598756 .62805178 .4079895 .5501404 .4079895 .46914674 .4079895 .38212586 .34599305 .3130951 .31399537 .27708436L.07299805 .038986207C.06298828 .02999878 .06298828 .027999878 .06298828 0H.47499085L.5049896 .18203736Z"/>
<path id="font_4_3" d="M.272995 .33428956C.35099793 .33428956 .40699769 .2803192 .40699769 .1733551 .40699769 .04940796 .33499146 .012466431 .2769928 .012466431 .23699951 .012466431 .14898682 .0234375 .10699463 .082351688 .1539917 .084350589 .16499329 .11735535 .16499329 .13835144 .16499329 .17034912 .14099121 .19335938 .10998535 .19335938 .08198547 .19335938 .053985597 .17634583 .053985597 .13534546 .053985597 .041412355 .1579895-.01953125 .2789917-.01953125 .41799928-.01953125 .5139923 .07336426 .5139923 .1733551 .5139923 .2513275 .44999696 .32929994 .33999635 .35229493 .44499208 .39024354 .48298646 .4650879 .48298646 .5260773 .48298646 .60505679 .3919983 .6640625 .2809906 .6640625 .16999817 .6640625 .084991458 .61006167 .084991458 .5300751 .084991458 .49606324 .10699463 .47706605 .13699341 .47706605 .16799927 .47706605 .18798828 .5000763 .18798828 .5280762 .18798828 .5570679 .16799927 .57806399 .13699341 .5800781 .17199707 .62405398 .24099732 .63505557 .27799989 .63505557 .32299806 .63505557 .38598634 .6130676 .38598634 .5260773 .38598634 .48406983 .37199403 .43814088 .34599305 .4072113 .31298829 .36927796 .2849884 .3672943 .23498535 .36428834 .20999146 .3623047 .20799256 .3623047 .20298767 .3612976 .20098877 .3612976 .19299317 .3592987 .19299317 .34829713 .19299317 .33428956 .20199585 .33428956 .21899414 .33428956H.272995Z"/>
<path id="font_4_4" d="M.5289917 .1640625V.20005799H.41799928V.64582827C.41799928 .66682437 .41799928 .6738281 .3959961 .6738281 .38398744 .6738281 .37998963 .6738281 .36999513 .65982058L.038986207 .20005799V.1640625H.33299256V.08201599C.33299256 .04800415 .33299256 .035995485 .2519989 .035995485H.22499085V0C.2749939 .0019989014 .33898927 .0039978029 .375 .0039978029 .4119873 .0039978029 .47599793 .0019989014 .526001 0V.035995485H.49899293C.41799928 .035995485 .41799928 .04800415 .41799928 .08201599V.1640625H.5289917M.33999635 .5658722V.20005799H.07598877L.33999635 .5658722Z"/>
</defs>
<path transform="matrix(1.00005,0,0,-1.00002,57.98999,63.36097)" stroke-width=".3985" stroke-linecap="butt" stroke-miterlimit="10" stroke-linejoin="miter" fill="none" stroke="#00aeef" d="M-56.69275-56.69275H56.69275M-56.69275-45.35419H56.69275M-56.69275-34.01564H56.69275M-56.69275-22.6771H56.69275M-56.69275-11.33855H56.69275M-56.69275 0H56.69275M-56.69275 11.33855H56.69275M-56.69275 22.6771H56.69275M-56.69275 34.01564H56.69275M-56.69275 45.35419H56.69275M-56.69275 56.68877H56.69275M-56.69275-56.69275V56.69275M-45.35419-56.69275V56.69275M-34.01564-56.69275V56.69275M-22.6771-56.69275V56.69275M-11.33855-56.69275V56.69275M0-56.69275V56.69275M11.33855-56.69275V56.69275M22.6771-56.69275V56.69275M34.01564-56.69275V56.69275M45.35419-56.69275V56.69275M56.68877-56.69275V56.69275M56.69275 56.69275"/>
<path transform="matrix(1.00005,0,0,-1.00002,57.98999,63.36097)" stroke-width=".79701" stroke-linecap="butt" stroke-miterlimit="10" stroke-linejoin="miter" fill="none" stroke="#000000" d="M-56.69275 0H60.92741"/>
<path transform="matrix(1.00005,0,0,-1.00002,118.92044,63.36097)" d="M1.0361 0C-.25902 .25902-1.55415 .77707-3.1083 1.68365-1.55415 .51805-1.55415-.51805-3.1083-1.68365-1.55415-.77707-.25902-.25902 1.0361 0Z"/>
<path transform="matrix(1.00005,0,0,-1.00002,118.92044,63.36097)" stroke-width=".79701" stroke-linecap="butt" stroke-linejoin="round" fill="none" stroke="#000000" d="M1.0361 0C-.25902 .25902-1.55415 .77707-3.1083 1.68365-1.55415 .51805-1.55415-.51805-3.1083-1.68365-1.55415-.77707-.25902-.25902 1.0361 0Z"/>
<path transform="matrix(1.00005,0,0,-1.00002,57.98999,63.36097)" stroke-width=".79701" stroke-linecap="butt" stroke-miterlimit="10" stroke-linejoin="miter" fill="none" stroke="#000000" d="M0-56.69275V60.92741"/>
<path transform="matrix(0,-1.00002,-1.00005,-0,57.98999,2.4323388)" d="M1.0361 0C-.25902 .25902-1.55415 .77707-3.1083 1.68365-1.55415 .51805-1.55415-.51805-3.1083-1.68365-1.55415-.77707-.25902-.25902 1.0361 0Z"/>
<path transform="matrix(0,-1.00002,-1.00005,-0,57.98999,2.4323388)" stroke-width=".79701" stroke-linecap="butt" stroke-linejoin="round" fill="none" stroke="#000000" d="M1.0361 0C-.25902 .25902-1.55415 .77707-3.1083 1.68365-1.55415 .51805-1.55415-.51805-3.1083-1.68365-1.55415-.77707-.25902-.25902 1.0361 0Z"/>
<path transform="matrix(1.00005,0,0,-1.00002,57.98999,63.36097)" stroke-width=".3985" stroke-linecap="butt" stroke-miterlimit="10" stroke-linejoin="miter" fill="none" stroke="#000000" d="M-45.35419 1.13391V-1.13374"/>
<path transform="matrix(1.00005,0,0,-1.00002,57.98999,63.36097)" d="M-52.71558-12.56877H-37.992799V-3.3255406H-52.71558Z" fill="#ffffff"/>
<use data-text="&#x2212;" xlink:href="#font_1_1" transform="matrix(9.963098,0,0,-9.962799,6.268402,74.10318)"/>
<use data-text="4" xlink:href="#font_2_2" transform="matrix(9.963098,0,0,-9.962799,14.017792,74.10318)"/>
<path transform="matrix(1.00005,0,0,-1.00002,57.98999,63.36097)" stroke-width=".3985" stroke-linecap="butt" stroke-miterlimit="10" stroke-linejoin="miter" fill="none" stroke="#000000" d="M1.13391-45.35419H-1.13374"/>
<path transform="matrix(1.00005,0,0,-1.00002,57.98999,63.36097)" d="M-18.04832-49.9758H-3.3255406V-40.73257H-18.04832Z" fill="#ffffff"/>
<use data-text="&#x2212;" xlink:href="#font_1_1" transform="matrix(9.963098,0,0,-9.962799,40.937135,111.51093)"/>
<use data-text="4" xlink:href="#font_2_2" transform="matrix(9.963098,0,0,-9.962799,48.686525,111.51093)"/>
<path transform="matrix(1.00005,0,0,-1.00002,57.98999,63.36097)" stroke-width=".3985" stroke-linecap="butt" stroke-miterlimit="10" stroke-linejoin="miter" fill="none" stroke="#000000" d="M-22.6771 1.13391V-1.13374"/>
<path transform="matrix(1.00005,0,0,-1.00002,57.98999,63.36097)" d="M-30.03848-12.56877H-15.315701V-3.3255406H-30.03848Z" fill="#ffffff"/>
<use data-text="&#x2212;" xlink:href="#font_1_1" transform="matrix(9.963098,0,0,-9.962799,28.94654,74.10318)"/>
<use data-text="2" xlink:href="#font_2_1" transform="matrix(9.963098,0,0,-9.962799,36.69593,74.10318)"/>
<path transform="matrix(1.00005,0,0,-1.00002,57.98999,63.36097)" stroke-width=".3985" stroke-linecap="butt" stroke-miterlimit="10" stroke-linejoin="miter" fill="none" stroke="#000000" d="M1.13391-22.6771H-1.13374"/>
<path transform="matrix(1.00005,0,0,-1.00002,57.98999,63.36097)" d="M-18.04832-27.2987H-3.3255406V-18.05547H-18.04832Z" fill="#ffffff"/>
<use data-text="&#x2212;" xlink:href="#font_1_1" transform="matrix(9.963098,0,0,-9.962799,40.937135,88.83348)"/>
<use data-text="2" xlink:href="#font_2_1" transform="matrix(9.963098,0,0,-9.962799,48.686525,88.83348)"/>
<path transform="matrix(1.00005,0,0,-1.00002,57.98999,63.36097)" stroke-width=".3985" stroke-linecap="butt" stroke-miterlimit="10" stroke-linejoin="miter" fill="none" stroke="#000000" d="M22.6771 1.13391V-1.13374"/>
<path transform="matrix(1.00005,0,0,-1.00002,57.98999,63.36097)" d="M19.19012-11.73854H26.16406V-3.3255597H19.19012Z" fill="#ffffff"/>
<use data-text="2" xlink:href="#font_2_1" transform="matrix(9.963098,0,0,-9.962799,78.177,74.10318)"/>
<path transform="matrix(1.00005,0,0,-1.00002,57.98999,63.36097)" stroke-width=".3985" stroke-linecap="butt" stroke-miterlimit="10" stroke-linejoin="miter" fill="none" stroke="#000000" d="M1.13391 22.6771H-1.13374"/>
<path transform="matrix(1.00005,0,0,-1.00002,57.98999,63.36097)" d="M-10.29948 18.4706H-3.3255406V26.88358H-10.29948Z" fill="#ffffff"/>
<use data-text="2" xlink:href="#font_2_1" transform="matrix(9.963098,0,0,-9.962799,48.686525,43.89358)"/>
<path transform="matrix(1.00005,0,0,-1.00002,57.98999,63.36097)" stroke-width=".3985" stroke-linecap="butt" stroke-miterlimit="10" stroke-linejoin="miter" fill="none" stroke="#000000" d="M45.35419 1.13391V-1.13374"/>
<path transform="matrix(1.00005,0,0,-1.00002,57.98999,63.36097)" d="M41.86722-11.73854H48.841165V-3.3255597H41.86722Z" fill="#ffffff"/>
<use data-text="4" xlink:href="#font_2_2" transform="matrix(9.963098,0,0,-9.962799,100.856128,74.10318)"/>
<path transform="matrix(1.00005,0,0,-1.00002,57.98999,63.36097)" stroke-width=".3985" stroke-linecap="butt" stroke-miterlimit="10" stroke-linejoin="miter" fill="none" stroke="#000000" d="M1.13391 45.35419H-1.13374"/>
<path transform="matrix(1.00005,0,0,-1.00002,57.98999,63.36097)" d="M-10.29948 41.14769H-3.3255406V49.56067H-10.29948Z" fill="#ffffff"/>
<use data-text="4" xlink:href="#font_2_2" transform="matrix(9.963098,0,0,-9.962799,48.686525,21.216126)"/>
<path transform="matrix(1.00005,0,0,-1.00002,57.98999,63.36097)" d="M-31.74797 22.6771C-31.74797 23.92949-32.76323 24.94475-34.01564 24.94475-35.26804 24.94475-36.2833 23.92949-36.2833 22.6771-36.2833 21.42468-35.26804 20.40942-34.01564 20.40942-32.76323 20.40942-31.74797 21.42468-31.74797 22.6771ZM-34.01564 22.6771" fill="#ff0000"/>
<path transform="matrix(1.00005,0,0,-1.00002,57.98999,63.36097)" stroke-width=".3985" stroke-linecap="butt" stroke-miterlimit="10" stroke-linejoin="miter" fill="none" stroke="#ff0000" d="M-31.74797 22.6771C-31.74797 23.92949-32.76323 24.94475-34.01564 24.94475-35.26804 24.94475-36.2833 23.92949-36.2833 22.6771-36.2833 21.42468-35.26804 20.40942-34.01564 20.40942-32.76323 20.40942-31.74797 21.42468-31.74797 22.6771ZM-34.01564 22.6771"/>
<path transform="matrix(1.00005,0,0,-1.00002,57.98999,63.36097)" d="M-45.31006 25.86517H-34.21491V33.64161H-45.31006Z" fill="#ffffff"/>
<use data-text="z" xlink:href="#font_3_1" transform="matrix(9.963098,0,0,-9.962799,13.673782,35.004404)"/>
<use data-text="1" xlink:href="#font_4_1" transform="matrix(6.9741489,0,0,-6.97394,18.307007,36.49843)"/>
<path transform="matrix(1.00005,0,0,-1.00002,57.98999,63.36097)" d="M-31.74797-22.6771C-31.74797-21.42468-32.76323-20.40942-34.01564-20.40942-35.26804-20.40942-36.2833-21.42468-36.2833-22.6771-36.2833-23.92949-35.26804-24.94475-34.01564-24.94475-32.76323-24.94475-31.74797-23.92949-31.74797-22.6771ZM-34.01564-22.6771" fill="#ff0000"/>
<path transform="matrix(1.00005,0,0,-1.00002,57.98999,63.36097)" stroke-width=".3985" stroke-linecap="butt" stroke-miterlimit="10" stroke-linejoin="miter" fill="none" stroke="#ff0000" d="M-31.74797-22.6771C-31.74797-21.42468-32.76323-20.40942-34.01564-20.40942-35.26804-20.40942-36.2833-21.42468-36.2833-22.6771-36.2833-23.92949-35.26804-24.94475-34.01564-24.94475-32.76323-24.94475-31.74797-23.92949-31.74797-22.6771ZM-34.01564-22.6771"/>
<path transform="matrix(1.00005,0,0,-1.00002,57.98999,63.36097)" d="M-45.31006-34.6379H-34.21491V-26.861462H-45.31006Z" fill="#ffffff"/>
<use data-text="z" xlink:href="#font_3_1" transform="matrix(9.963098,0,0,-9.962799,13.673782,95.50861)"/>
<use data-text="2" xlink:href="#font_4_2" transform="matrix(6.9741489,0,0,-6.97394,18.307007,97.00264)"/>
<path transform="matrix(1.00005,0,0,-1.00002,57.98999,63.36097)" d="M36.2833 22.6771C36.2833 23.92949 35.26804 24.94475 34.01564 24.94475 32.76323 24.94475 31.74797 23.92949 31.74797 22.6771 31.74797 21.42468 32.76323 20.40942 34.01564 20.40942 35.26804 20.40942 36.2833 21.42468 36.2833 22.6771ZM34.01564 22.6771" fill="#ff0000"/>
<path transform="matrix(1.00005,0,0,-1.00002,57.98999,63.36097)" stroke-width=".3985" stroke-linecap="butt" stroke-miterlimit="10" stroke-linejoin="miter" fill="none" stroke="#ff0000" d="M36.2833 22.6771C36.2833 23.92949 35.26804 24.94475 34.01564 24.94475 32.76323 24.94475 31.74797 23.92949 31.74797 22.6771 31.74797 21.42468 32.76323 20.40942 34.01564 20.40942 35.26804 20.40942 36.2833 21.42468 36.2833 22.6771ZM34.01564 22.6771"/>
<path transform="matrix(1.00005,0,0,-1.00002,57.98999,63.36097)" d="M34.21489 25.86517H45.31004V33.64161H34.21489Z" fill="#ffffff"/>
<use data-text="z" xlink:href="#font_3_1" transform="matrix(9.963098,0,0,-9.962799,93.20274,35.004404)"/>
<use data-text="3" xlink:href="#font_4_3" transform="matrix(6.9741489,0,0,-6.97394,97.83597,36.49843)"/>
<path transform="matrix(1.00005,0,0,-1.00002,57.98999,63.36097)" d="M36.2833-22.6771C36.2833-21.42468 35.26804-20.40942 34.01564-20.40942 32.76323-20.40942 31.74797-21.42468 31.74797-22.6771 31.74797-23.92949 32.76323-24.94475 34.01564-24.94475 35.26804-24.94475 36.2833-23.92949 36.2833-22.6771ZM34.01564-22.6771" fill="#ff0000"/>
<path transform="matrix(1.00005,0,0,-1.00002,57.98999,63.36097)" stroke-width=".3985" stroke-linecap="butt" stroke-miterlimit="10" stroke-linejoin="miter" fill="none" stroke="#ff0000" d="M36.2833-22.6771C36.2833-21.42468 35.26804-20.40942 34.01564-20.40942 32.76323-20.40942 31.74797-21.42468 31.74797-22.6771 31.74797-23.92949 32.76323-24.94475 34.01564-24.94475 35.26804-24.94475 36.2833-23.92949 36.2833-22.6771ZM34.01564-22.6771"/>
<path transform="matrix(1.00005,0,0,-1.00002,57.98999,63.36097)" d="M34.21489-34.6379H45.31004V-26.861462H34.21489Z" fill="#ffffff"/>
<use data-text="z" xlink:href="#font_3_1" transform="matrix(9.963098,0,0,-9.962799,93.20274,95.50861)"/>
<use data-text="4" xlink:href="#font_4_4" transform="matrix(6.9741489,0,0,-6.97394,97.83597,97.00264)"/>
</svg>
