<svg xmlns="http://www.w3.org/2000/svg" xmlns:xlink="http://www.w3.org/1999/xlink" version="1.1" width="123" height="125" viewBox="0 0 123 125">
<defs>
<path id="font_1_3" d="M.44898988 .20022583C.44898988 .3193512 .36698915 .41944886 .25898744 .41944886 .21099854 .41944886 .16799927 .40345765 .13198853 .36842347V.5637665C.1519928 .5577698 .18499756 .55078127 .21699524 .55078127 .33999635 .55078127 .4099884 .6417694 .4099884 .6547699 .4099884 .6607666 .40699769 .6657715 .3999939 .6657715 .39898683 .6657715 .39698792 .6657715 .3919983 .66278079 .37199403 .6537781 .32299806 .6337738 .2559967 .6337738 .21598816 .6337738 .16999817 .6407776 .12298584 .6617737 .114990238 .66477969 .11299133 .66477969 .11099243 .66477969 .100997928 .66477969 .100997928 .6567688 .100997928 .6407776V.34439088C.100997928 .32637025 .100997928 .31835938 .114990238 .31835938 .12199402 .31835938 .12399292 .32136537 .12799073 .32736207 .13899231 .3433838 .17599488 .39746095 .25698854 .39746095 .30899049 .39746095 .33399964 .35139466 .34199525 .33337403 .35798646 .29632569 .3600006 .25727845 .3600006 .20722962 .3600006 .17222595 .3600006 .11222839 .33599855 .07035828 .31199647 .031463624 .2749939 .0055389406 .22898865 .0055389406 .1559906 .0055389406 .09899902 .058380128 .08198547 .11723328 .084991458 .1162262 .08799744 .115234378 .09899902 .115234378 .13198853 .115234378 .14898682 .14022827 .14898682 .16423035 .14898682 .18823242 .13198853 .21322632 .09899902 .21322632 .084991458 .21322632 .049987794 .20622254 .049987794 .16023255 .049987794 .07434082 .11898804-.022460938 .23098755-.022460938 .34700013-.022460938 .44898988 .073349 .44898988 .20022583Z"/>
<path id="font_2_1" d="M.37298585 .37835694C.35499574 .41537477 .32598878 .4423828 .2809906 .4423828 .1639862 .4423828 .039993287 .29533387 .039993287 .14929199 .039993287 .055267335 .09498596-.0107421879 .17298889-.0107421879 .19299317-.0107421879 .24299622-.0067443849 .30299378 .06427002 .31098939 .022247315 .34599305-.0107421879 .3939972-.0107421879 .42900086-.0107421879 .45199586 .012252808 .46798707 .044265748 .4850006 .08027649 .49798585 .14129639 .49798585 .14329529 .49798585 .1532898 .4889984 .1532898 .48599244 .1532898 .47599793 .1532898 .47499085 .14929199 .47200013 .13528443 .45498658 .07026672 .43699647 .011245728 .3959961 .011245728 .36898805 .011245728 .3659973 .037261964 .3659973 .057266237 .3659973 .07926941 .36799623 .08728027 .3789978 .13128662 .3899994 .17329407 .3919983 .18330384 .40098573 .22131348L.43699647 .36135865C.44400025 .38935853 .44400025 .39135743 .44400025 .39537049 .44400025 .41236878 .43199159 .42237855 .4149933 .42237855 .3909912 .42237855 .37599183 .4003601 .37298585 .37835694M.30799867 .119277957C.30299378 .10127258 .30299378 .09927368 .28799439 .08227539 .24398804 .027252198 .20298767 .011245728 .1749878 .011245728 .125 .011245728 .11099243 .06626892 .11099243 .105285648 .11099243 .1552887 .14299011 .27833558 .1659851 .32434083 .19699097 .38336183 .24198914 .42037965 .28199769 .42037965 .34700013 .42037965 .36099244 .3383484 .36099244 .33235169 .36099244 .32633973 .35899354 .32034303 .35798646 .31533814L.30799867 .119277957Z"/>
<path id="font_1_4" d="M.68699648 .32714845C.70199587 .32714845 .72099307 .32714845 .72099307 .34713746 .72099307 .36714173 .70199587 .36714173 .6879883 .36714173H.08898926C.07499695 .36714173 .055999757 .36714173 .055999757 .34713746 .055999757 .32714845 .07499695 .32714845 .08999634 .32714845H.68699648M.6879883 .13284302C.70199587 .13284302 .72099307 .13284302 .72099307 .15284729 .72099307 .17285156 .70199587 .17285156 .68699648 .17285156H.08999634C.07499695 .17285156 .055999757 .17285156 .055999757 .15284729 .055999757 .13284302 .07499695 .13284302 .08898926 .13284302H.6879883Z"/>
<path id="font_3_1" d="M.6589966 .23046875C.6759949 .23046875 .69400027 .23046875 .69400027 .25045777 .69400027 .27046205 .6759949 .27046205 .6589966 .27046205H.117996219C.100997928 .27046205 .08299255 .27046205 .08299255 .25045777 .08299255 .23046875 .100997928 .23046875 .117996219 .23046875H.6589966Z"/>
<path id="font_1_2" d="M.1269989 .07699585 .23298645 .18003845C.3889923 .31811524 .44898988 .3721466 .44898988 .47216798 .44898988 .5860901 .35899354 .6660156 .23699951 .6660156 .12399292 .6660156 .049987794 .57411196 .049987794 .48516847 .049987794 .4291687 .099990848 .4291687 .102996829 .4291687 .11999512 .4291687 .15499878 .44117738 .15499878 .48217774 .15499878 .5081787 .13699341 .5341797 .101989749 .5341797 .09399414 .5341797 .09199524 .5341797 .08898926 .5331726 .11199951 .59806826 .1659851 .63500979 .22399903 .63500979 .31498719 .63500979 .35798646 .5541382 .35798646 .47216798 .35798646 .39215089 .30799867 .31311036 .25299073 .25108338L.06098938 .036987306C.049987794 .025985718 .049987794 .023986817 .049987794 0H.42099L.44898988 .17404175H.42399598C.4189911 .14402771 .4119873 .1000061 .4019928 .084991458 .394989 .07699585 .32899476 .07699585 .30699159 .07699585H.1269989Z"/>
<path id="font_1_1" d="M.2939911 .64004519C.2939911 .66400149 .2939911 .6660156 .2709961 .6660156 .20899964 .60227969 .12098694 .60227969 .08898926 .60227969V.57128909C.10899353 .57128909 .16799927 .57128909 .21998596 .5972748V.07902527C.21998596 .042999269 .21699524 .0309906 .1269989 .0309906H.09498596V0C.12998963 .0029907227 .21699524 .0029907227 .25698854 .0029907227 .29699708 .0029907227 .38398744 .0029907227 .4189911 0V.0309906H.3869934C.29699708 .0309906 .2939911 .041992189 .2939911 .07902527V.64004519Z"/>
</defs>
<path transform="matrix(1.00005,0,0,-1,61.62613,64.33)" stroke-width=".3985" stroke-linecap="butt" stroke-miterlimit="10" stroke-linejoin="miter" fill="none" stroke="#cbcbcb" d="M0 0H59.52802"/>
<path transform="matrix(1.00005,0,0,-1,61.62613,64.33)" stroke-width=".3985" stroke-linecap="butt" stroke-miterlimit="10" stroke-linejoin="miter" fill="none" stroke="#cbcbcb" d="M0 0 57.49973 15.407"/>
<path transform="matrix(1.00005,0,0,-1,61.62613,64.33)" stroke-width=".3985" stroke-linecap="butt" stroke-miterlimit="10" stroke-linejoin="miter" fill="none" stroke="#cbcbcb" d="M0 0 51.55293 29.764"/>
<path transform="matrix(1.00005,0,0,-1,61.62613,64.33)" stroke-width=".3985" stroke-linecap="butt" stroke-miterlimit="10" stroke-linejoin="miter" fill="none" stroke="#cbcbcb" d="M0 0 42.0927 42.0927"/>
<path transform="matrix(1.00005,0,0,-1,61.62613,64.33)" stroke-width=".3985" stroke-linecap="butt" stroke-miterlimit="10" stroke-linejoin="miter" fill="none" stroke="#cbcbcb" d="M0 0 29.764 51.55293"/>
<path transform="matrix(1.00005,0,0,-1,61.62613,64.33)" stroke-width=".3985" stroke-linecap="butt" stroke-miterlimit="10" stroke-linejoin="miter" fill="none" stroke="#cbcbcb" d="M0 0 15.407 57.49973"/>
<path transform="matrix(1.00005,0,0,-1,61.62613,64.33)" stroke-width=".3985" stroke-linecap="butt" stroke-miterlimit="10" stroke-linejoin="miter" fill="none" stroke="#cbcbcb" d="M0 0V59.52802"/>
<path transform="matrix(1.00005,0,0,-1,61.62613,64.33)" stroke-width=".3985" stroke-linecap="butt" stroke-miterlimit="10" stroke-linejoin="miter" fill="none" stroke="#cbcbcb" d="M0 0-15.407 57.49973"/>
<path transform="matrix(1.00005,0,0,-1,61.62613,64.33)" stroke-width=".3985" stroke-linecap="butt" stroke-miterlimit="10" stroke-linejoin="miter" fill="none" stroke="#cbcbcb" d="M0 0-29.764 51.55293"/>
<path transform="matrix(1.00005,0,0,-1,61.62613,64.33)" stroke-width=".3985" stroke-linecap="butt" stroke-miterlimit="10" stroke-linejoin="miter" fill="none" stroke="#cbcbcb" d="M0 0-42.0927 42.0927"/>
<path transform="matrix(1.00005,0,0,-1,61.62613,64.33)" stroke-width=".3985" stroke-linecap="butt" stroke-miterlimit="10" stroke-linejoin="miter" fill="none" stroke="#cbcbcb" d="M0 0-51.55293 29.764"/>
<path transform="matrix(1.00005,0,0,-1,61.62613,64.33)" stroke-width=".3985" stroke-linecap="butt" stroke-miterlimit="10" stroke-linejoin="miter" fill="none" stroke="#cbcbcb" d="M0 0-57.49973 15.407"/>
<path transform="matrix(1.00005,0,0,-1,61.62613,64.33)" stroke-width=".3985" stroke-linecap="butt" stroke-miterlimit="10" stroke-linejoin="miter" fill="none" stroke="#cbcbcb" d="M0 0H-59.52802"/>
<path transform="matrix(1.00005,0,0,-1,61.62613,64.33)" stroke-width=".3985" stroke-linecap="butt" stroke-miterlimit="10" stroke-linejoin="miter" fill="none" stroke="#cbcbcb" d="M0 0-57.49973-15.407"/>
<path transform="matrix(1.00005,0,0,-1,61.62613,64.33)" stroke-width=".3985" stroke-linecap="butt" stroke-miterlimit="10" stroke-linejoin="miter" fill="none" stroke="#cbcbcb" d="M0 0-51.55293-29.764"/>
<path transform="matrix(1.00005,0,0,-1,61.62613,64.33)" stroke-width=".3985" stroke-linecap="butt" stroke-miterlimit="10" stroke-linejoin="miter" fill="none" stroke="#cbcbcb" d="M0 0-42.0927-42.0927"/>
<path transform="matrix(1.00005,0,0,-1,61.62613,64.33)" stroke-width=".3985" stroke-linecap="butt" stroke-miterlimit="10" stroke-linejoin="miter" fill="none" stroke="#cbcbcb" d="M0 0-29.764-51.55293"/>
<path transform="matrix(1.00005,0,0,-1,61.62613,64.33)" stroke-width=".3985" stroke-linecap="butt" stroke-miterlimit="10" stroke-linejoin="miter" fill="none" stroke="#cbcbcb" d="M0 0-15.407-57.49973"/>
<path transform="matrix(1.00005,0,0,-1,61.62613,64.33)" stroke-width=".3985" stroke-linecap="butt" stroke-miterlimit="10" stroke-linejoin="miter" fill="none" stroke="#cbcbcb" d="M0 0V-59.52802"/>
<path transform="matrix(1.00005,0,0,-1,61.62613,64.33)" stroke-width=".3985" stroke-linecap="butt" stroke-miterlimit="10" stroke-linejoin="miter" fill="none" stroke="#cbcbcb" d="M0 0 15.407-57.49973"/>
<path transform="matrix(1.00005,0,0,-1,61.62613,64.33)" stroke-width=".3985" stroke-linecap="butt" stroke-miterlimit="10" stroke-linejoin="miter" fill="none" stroke="#cbcbcb" d="M0 0 29.764-51.55293"/>
<path transform="matrix(1.00005,0,0,-1,61.62613,64.33)" stroke-width=".3985" stroke-linecap="butt" stroke-miterlimit="10" stroke-linejoin="miter" fill="none" stroke="#cbcbcb" d="M0 0 42.0927-42.0927"/>
<path transform="matrix(1.00005,0,0,-1,61.62613,64.33)" stroke-width=".3985" stroke-linecap="butt" stroke-miterlimit="10" stroke-linejoin="miter" fill="none" stroke="#cbcbcb" d="M0 0 51.55293-29.764"/>
<path transform="matrix(1.00005,0,0,-1,61.62613,64.33)" stroke-width=".3985" stroke-linecap="butt" stroke-miterlimit="10" stroke-linejoin="miter" fill="none" stroke="#cbcbcb" d="M0 0 57.49973-15.407"/>
<path transform="matrix(1.00005,0,0,-1,61.62613,64.33)" stroke-width=".3985" stroke-linecap="butt" stroke-miterlimit="10" stroke-linejoin="miter" fill="none" stroke="#cbcbcb" d="M11.9056 0C11.9056 6.57535 6.57535 11.9056 0 11.9056-6.57535 11.9056-11.9056 6.57535-11.9056 0-11.9056-6.57535-6.57535-11.9056 0-11.9056 6.57535-11.9056 11.9056-6.57535 11.9056 0ZM0 0"/>
<path transform="matrix(1.00005,0,0,-1,61.62613,64.33)" stroke-width=".3985" stroke-linecap="butt" stroke-miterlimit="10" stroke-linejoin="miter" fill="none" stroke="#cbcbcb" d="M23.8112 0C23.8112 13.15073 13.15073 23.8112 0 23.8112-13.15073 23.8112-23.8112 13.15073-23.8112 0-23.8112-13.15073-13.15073-23.8112 0-23.8112 13.15073-23.8112 23.8112-13.15073 23.8112 0ZM0 0"/>
<path transform="matrix(1.00005,0,0,-1,61.62613,64.33)" stroke-width=".3985" stroke-linecap="butt" stroke-miterlimit="10" stroke-linejoin="miter" fill="none" stroke="#cbcbcb" d="M35.71681 0C35.71681 19.72609 19.72609 35.71681 0 35.71681-19.72609 35.71681-35.71681 19.72609-35.71681 0-35.71681-19.72609-19.72609-35.71681 0-35.71681 19.72609-35.71681 35.71681-19.72609 35.71681 0ZM0 0"/>
<path transform="matrix(1.00005,0,0,-1,61.62613,64.33)" stroke-width=".3985" stroke-linecap="butt" stroke-miterlimit="10" stroke-linejoin="miter" fill="none" stroke="#cbcbcb" d="M47.62242 0C47.62242 26.30147 26.30147 47.62242 0 47.62242-26.30147 47.62242-47.62242 26.30147-47.62242 0-47.62242-26.30147-26.30147-47.62242 0-47.62242 26.30147-47.62242 47.62242-26.30147 47.62242 0ZM0 0"/>
<path transform="matrix(1.00005,0,0,-1,61.62613,64.33)" stroke-width=".3985" stroke-linecap="butt" stroke-miterlimit="10" stroke-linejoin="miter" fill="none" stroke="#cbcbcb" d="M59.52802 0C59.52802 32.87683 32.87683 59.52802 0 59.52802-32.87683 59.52802-59.52802 32.87683-59.52802 0-59.52802-32.87683-32.87683-59.52802 0-59.52802 32.87683-59.52802 59.52802-32.87683 59.52802 0ZM0 0"/>
<path transform="matrix(1.00005,0,0,-1,61.62613,64.33)" d="M-4.48325 54.32526H4.4832398V64.73079H-4.48325Z" fill="#ffffff"/>
<use data-text="5" xlink:href="#font_1_3" transform="matrix(9.963098,0,0,-9.9626,59.135004,8.012001)"/>
<path transform="matrix(1.00005,0,0,-1,61.62613,64.33)" stroke-width="1.19553" stroke-linecap="butt" stroke-miterlimit="10" stroke-linejoin="miter" fill="none" stroke="#ff0000" d="M23.8112-23.8112C23.8112-10.66048 13.15073 0 0 0-13.15073 0-23.8112-10.66048-23.8112-23.8112-23.8112-36.96193-13.15073-47.6224 0-47.6224 13.15073-47.6224 23.8112-36.96193 23.8112-23.8112ZM0-23.8112"/>
<path transform="matrix(1.00005,0,0,-1,61.62613,64.33)" d="M26.39154-27.43654H57.67155V-20.185872H26.39154Z" fill="#ffffff"/>
<use data-text="a" xlink:href="#font_2_1" transform="matrix(9.963098,0,0,-9.9626,88.01945,90.936008)" fill="#ff0000"/>
<use data-text="=" xlink:href="#font_1_4" transform="matrix(9.963098,0,0,-9.9626,96.05384,90.936008)" fill="#ff0000"/>
<use data-text="&#x2212;" xlink:href="#font_3_1" transform="matrix(9.963098,0,0,-9.9626,106.57038,90.936008)" fill="#ff0000"/>
<use data-text="2" xlink:href="#font_1_2" transform="matrix(9.963098,0,0,-9.9626,114.31876,90.936008)" fill="#ff0000"/>
<path transform="matrix(1.00005,0,0,-1,61.62613,64.33)" stroke-width="1.19553" stroke-linecap="butt" stroke-miterlimit="10" stroke-linejoin="miter" fill="none" stroke="#0000ff" d="M11.9056-11.9056C11.9056-5.33023 6.57535 0 0 0-6.57535 0-11.9056-5.33023-11.9056-11.9056-11.9056-18.48094-6.57535-23.81119 0-23.81119 6.57535-23.81119 11.9056-18.48094 11.9056-11.9056ZM0-11.9056"/>
<path transform="matrix(1.00005,0,0,-1,61.62613,64.33)" d="M-15.64-33.38934H15.64001V-26.13867H-15.64Z" fill="#ffffff"/>
<use data-text="a" xlink:href="#font_2_1" transform="matrix(9.963098,0,0,-9.9626,45.98535,96.889)" fill="#0000ff"/>
<use data-text="=" xlink:href="#font_1_4" transform="matrix(9.963098,0,0,-9.9626,54.019746,96.889)" fill="#0000ff"/>
<use data-text="&#x2212;" xlink:href="#font_3_1" transform="matrix(9.963098,0,0,-9.9626,64.536289,96.889)" fill="#0000ff"/>
<use data-text="1" xlink:href="#font_1_1" transform="matrix(9.963098,0,0,-9.9626,72.28467,96.889)" fill="#0000ff"/>
<path transform="matrix(1.00005,0,0,-1,61.62613,64.33)" stroke-width="1.19553" stroke-linecap="butt" stroke-miterlimit="10" stroke-linejoin="miter" fill="none" stroke="#ec008c" d="M11.9056 11.9056C11.9056 18.48094 6.57535 23.81119 0 23.81119-6.57535 23.81119-11.9056 18.48094-11.9056 11.9056-11.9056 5.33023-6.57535 0 0 0 6.57535 0 11.9056 5.33023 11.9056 11.9056ZM0 11.9056"/>
<path transform="matrix(1.00005,0,0,-1,61.62613,64.33)" d="M-11.76558 26.55379H11.76558V32.97422H-11.76558Z" fill="#ffffff"/>
<use data-text="a" xlink:href="#font_2_1" transform="matrix(9.963098,0,0,-9.9626,49.859544,37.776)" fill="#ec008c"/>
<use data-text="=" xlink:href="#font_1_4" transform="matrix(9.963098,0,0,-9.9626,57.893938,37.776)" fill="#ec008c"/>
<use data-text="1" xlink:href="#font_1_1" transform="matrix(9.963098,0,0,-9.9626,68.39505,37.776)" fill="#ec008c"/>
<path transform="matrix(1.00005,0,0,-1,61.62613,64.33)" stroke-width="1.19553" stroke-linecap="butt" stroke-miterlimit="10" stroke-linejoin="miter" fill="none" stroke="#008080" d="M23.8112 23.8112C23.8112 36.96193 13.15073 47.6224 0 47.6224-13.15073 47.6224-23.8112 36.96193-23.8112 23.8112-23.8112 10.66048-13.15073 0 0 0 13.15073 0 23.8112 10.66048 23.8112 23.8112ZM0 23.8112"/>
<path transform="matrix(1.00005,0,0,-1,61.62613,64.33)" d="M12.04561 45.60283H35.57677V52.02326H12.04561Z" fill="#ffffff"/>
<use data-text="a" xlink:href="#font_2_1" transform="matrix(9.963098,0,0,-9.9626,73.67273,18.727002)" fill="#008080"/>
<use data-text="=" xlink:href="#font_1_4" transform="matrix(9.963098,0,0,-9.9626,81.70712,18.727002)" fill="#008080"/>
<use data-text="2" xlink:href="#font_1_2" transform="matrix(9.963098,0,0,-9.9626,92.20824,18.727002)" fill="#008080"/>
</svg>
