<svg xmlns="http://www.w3.org/2000/svg" xmlns:xlink="http://www.w3.org/1999/xlink" version="1.1" width="89" height="91" viewBox="0 0 89 91">
<defs>
<path id="font_1_1" d="M.2939911 .64004519C.2939911 .66400149 .2939911 .6660156 .2709961 .6660156 .20899964 .60227969 .12098694 .60227969 .08898926 .60227969V.57128909C.10899353 .57128909 .16799927 .57128909 .21998596 .5972748V.07902527C.21998596 .042999269 .21699524 .0309906 .1269989 .0309906H.09498596V0C.12998963 .0029907227 .21699524 .0029907227 .25698854 .0029907227 .29699708 .0029907227 .38398744 .0029907227 .4189911 0V.0309906H.3869934C.29699708 .0309906 .2939911 .041992189 .2939911 .07902527V.64004519Z"/>
<path id="font_1_2" d="M.1269989 .07699585 .23298645 .18003845C.3889923 .31811524 .44898988 .3721466 .44898988 .47216798 .44898988 .5860901 .35899354 .6660156 .23699951 .6660156 .12399292 .6660156 .049987794 .57411196 .049987794 .48516847 .049987794 .4291687 .099990848 .4291687 .102996829 .4291687 .11999512 .4291687 .15499878 .44117738 .15499878 .48217774 .15499878 .5081787 .13699341 .5341797 .101989749 .5341797 .09399414 .5341797 .09199524 .5341797 .08898926 .5331726 .11199951 .59806826 .1659851 .63500979 .22399903 .63500979 .31498719 .63500979 .35798646 .5541382 .35798646 .47216798 .35798646 .39215089 .30799867 .31311036 .25299073 .25108338L.06098938 .036987306C.049987794 .025985718 .049987794 .023986817 .049987794 0H.42099L.44898988 .17404175H.42399598C.4189911 .14402771 .4119873 .1000061 .4019928 .084991458 .394989 .07699585 .32899476 .07699585 .30699159 .07699585H.1269989Z"/>
<path id="font_1_3" d="M.2899933 .35191346C.37199403 .37893678 .42999269 .4490509 .42999269 .52809146 .42999269 .6100464 .34199525 .6660156 .24598694 .6660156 .14498902 .6660156 .068984989 .60606387 .068984989 .53009036 .068984989 .49710084 .09098816 .47808839 .11999512 .47808839 .15098572 .47808839 .17098999 .50009158 .17098999 .5290985 .17098999 .57910159 .12399292 .57910159 .10899353 .57910159 .13999939 .62802127 .20599365 .64100649 .24198914 .64100649 .2829895 .64100649 .33799745 .6190338 .33799745 .5290985 .33799745 .51708987 .33599855 .45906068 .30999757 .4149933 .27999879 .36691285 .24598694 .36390687 .22099304 .36291505 .21299744 .36190797 .18899536 .35990907 .18199158 .35990907 .17399597 .35890199 .16699219 .35791017 .16699219 .3479004 .16699219 .33691407 .17399597 .33691407 .19099427 .33691407H.23498535C.31698609 .33691407 .35398866 .2686615 .35398866 .17037964 .35398866 .034469606 .2849884 .0055389406 .24099732 .0055389406 .19799805 .0055389406 .12298584 .022491456 .08799744 .08137512 .12298584 .07637024 .1539917 .09837341 .1539917 .1363678 .1539917 .17237854 .1269989 .19238281 .09799194 .19238281 .07398987 .19238281 .041992189 .17837525 .041992189 .1343689 .041992189 .043441774 .1349945-.022460938 .24398804-.022460938 .3659973-.022460938 .45700074 .06838989 .45700074 .17037964 .45700074 .252594 .3939972 .33088685 .2899933 .35191346Z"/>
</defs>
<path transform="matrix(1.00003,0,0,-1.00008,44.617776,47.325666)" stroke-width=".3985" stroke-linecap="butt" stroke-miterlimit="10" stroke-linejoin="miter" fill="none" stroke="#cbcbcb" d="M0 0H42.5202"/>
<path transform="matrix(1.00003,0,0,-1.00008,44.617776,47.325666)" stroke-width=".3985" stroke-linecap="butt" stroke-miterlimit="10" stroke-linejoin="miter" fill="none" stroke="#cbcbcb" d="M0 0 41.07143 11.00505"/>
<path transform="matrix(1.00003,0,0,-1.00008,44.617776,47.325666)" stroke-width=".3985" stroke-linecap="butt" stroke-miterlimit="10" stroke-linejoin="miter" fill="none" stroke="#cbcbcb" d="M0 0 36.82367 21.2601"/>
<path transform="matrix(1.00003,0,0,-1.00008,44.617776,47.325666)" stroke-width=".3985" stroke-linecap="butt" stroke-miterlimit="10" stroke-linejoin="miter" fill="none" stroke="#cbcbcb" d="M0 0 30.06635 30.06635"/>
<path transform="matrix(1.00003,0,0,-1.00008,44.617776,47.325666)" stroke-width=".3985" stroke-linecap="butt" stroke-miterlimit="10" stroke-linejoin="miter" fill="none" stroke="#cbcbcb" d="M0 0 21.2601 36.82367"/>
<path transform="matrix(1.00003,0,0,-1.00008,44.617776,47.325666)" stroke-width=".3985" stroke-linecap="butt" stroke-miterlimit="10" stroke-linejoin="miter" fill="none" stroke="#cbcbcb" d="M0 0 11.00505 41.07143"/>
<path transform="matrix(1.00003,0,0,-1.00008,44.617776,47.325666)" stroke-width=".3985" stroke-linecap="butt" stroke-miterlimit="10" stroke-linejoin="miter" fill="none" stroke="#cbcbcb" d="M0 0V42.5202"/>
<path transform="matrix(1.00003,0,0,-1.00008,44.617776,47.325666)" stroke-width=".3985" stroke-linecap="butt" stroke-miterlimit="10" stroke-linejoin="miter" fill="none" stroke="#cbcbcb" d="M0 0-11.00505 41.07143"/>
<path transform="matrix(1.00003,0,0,-1.00008,44.617776,47.325666)" stroke-width=".3985" stroke-linecap="butt" stroke-miterlimit="10" stroke-linejoin="miter" fill="none" stroke="#cbcbcb" d="M0 0-21.2601 36.82367"/>
<path transform="matrix(1.00003,0,0,-1.00008,44.617776,47.325666)" stroke-width=".3985" stroke-linecap="butt" stroke-miterlimit="10" stroke-linejoin="miter" fill="none" stroke="#cbcbcb" d="M0 0-30.06635 30.06635"/>
<path transform="matrix(1.00003,0,0,-1.00008,44.617776,47.325666)" stroke-width=".3985" stroke-linecap="butt" stroke-miterlimit="10" stroke-linejoin="miter" fill="none" stroke="#cbcbcb" d="M0 0-36.82367 21.2601"/>
<path transform="matrix(1.00003,0,0,-1.00008,44.617776,47.325666)" stroke-width=".3985" stroke-linecap="butt" stroke-miterlimit="10" stroke-linejoin="miter" fill="none" stroke="#cbcbcb" d="M0 0-41.07143 11.00505"/>
<path transform="matrix(1.00003,0,0,-1.00008,44.617776,47.325666)" stroke-width=".3985" stroke-linecap="butt" stroke-miterlimit="10" stroke-linejoin="miter" fill="none" stroke="#cbcbcb" d="M0 0H-42.5202"/>
<path transform="matrix(1.00003,0,0,-1.00008,44.617776,47.325666)" stroke-width=".3985" stroke-linecap="butt" stroke-miterlimit="10" stroke-linejoin="miter" fill="none" stroke="#cbcbcb" d="M0 0-41.07143-11.00505"/>
<path transform="matrix(1.00003,0,0,-1.00008,44.617776,47.325666)" stroke-width=".3985" stroke-linecap="butt" stroke-miterlimit="10" stroke-linejoin="miter" fill="none" stroke="#cbcbcb" d="M0 0-36.82367-21.2601"/>
<path transform="matrix(1.00003,0,0,-1.00008,44.617776,47.325666)" stroke-width=".3985" stroke-linecap="butt" stroke-miterlimit="10" stroke-linejoin="miter" fill="none" stroke="#cbcbcb" d="M0 0-30.06635-30.06635"/>
<path transform="matrix(1.00003,0,0,-1.00008,44.617776,47.325666)" stroke-width=".3985" stroke-linecap="butt" stroke-miterlimit="10" stroke-linejoin="miter" fill="none" stroke="#cbcbcb" d="M0 0-21.2601-36.82367"/>
<path transform="matrix(1.00003,0,0,-1.00008,44.617776,47.325666)" stroke-width=".3985" stroke-linecap="butt" stroke-miterlimit="10" stroke-linejoin="miter" fill="none" stroke="#cbcbcb" d="M0 0-11.00505-41.07143"/>
<path transform="matrix(1.00003,0,0,-1.00008,44.617776,47.325666)" stroke-width=".3985" stroke-linecap="butt" stroke-miterlimit="10" stroke-linejoin="miter" fill="none" stroke="#cbcbcb" d="M0 0V-42.5202"/>
<path transform="matrix(1.00003,0,0,-1.00008,44.617776,47.325666)" stroke-width=".3985" stroke-linecap="butt" stroke-miterlimit="10" stroke-linejoin="miter" fill="none" stroke="#cbcbcb" d="M0 0 11.00505-41.07143"/>
<path transform="matrix(1.00003,0,0,-1.00008,44.617776,47.325666)" stroke-width=".3985" stroke-linecap="butt" stroke-miterlimit="10" stroke-linejoin="miter" fill="none" stroke="#cbcbcb" d="M0 0 21.2601-36.82367"/>
<path transform="matrix(1.00003,0,0,-1.00008,44.617776,47.325666)" stroke-width=".3985" stroke-linecap="butt" stroke-miterlimit="10" stroke-linejoin="miter" fill="none" stroke="#cbcbcb" d="M0 0 30.06635-30.06635"/>
<path transform="matrix(1.00003,0,0,-1.00008,44.617776,47.325666)" stroke-width=".3985" stroke-linecap="butt" stroke-miterlimit="10" stroke-linejoin="miter" fill="none" stroke="#cbcbcb" d="M0 0 36.82367-21.2601"/>
<path transform="matrix(1.00003,0,0,-1.00008,44.617776,47.325666)" stroke-width=".3985" stroke-linecap="butt" stroke-miterlimit="10" stroke-linejoin="miter" fill="none" stroke="#cbcbcb" d="M0 0 41.07143-11.00505"/>
<path transform="matrix(1.00003,0,0,-1.00008,44.617776,47.325666)" stroke-width=".3985" stroke-linecap="butt" stroke-miterlimit="10" stroke-linejoin="miter" fill="none" stroke="#cbcbcb" d="M14.17339 0C14.17339 7.82784 7.82784 14.17339 0 14.17339-7.82784 14.17339-14.17339 7.82784-14.17339 0-14.17339-7.82784-7.82784-14.17339 0-14.17339 7.82784-14.17339 14.17339-7.82784 14.17339 0ZM0 0"/>
<path transform="matrix(1.00003,0,0,-1.00008,44.617776,47.325666)" d="M-4.48325 8.97061H4.4832398V19.37614H-4.48325Z" fill="#ffffff"/>
<use data-text="1" xlink:href="#font_1_1" transform="matrix(9.962899,0,0,-9.963397,42.1267,36.361787)"/>
<path transform="matrix(1.00003,0,0,-1.00008,44.617776,47.325666)" stroke-width=".3985" stroke-linecap="butt" stroke-miterlimit="10" stroke-linejoin="miter" fill="none" stroke="#cbcbcb" d="M28.3468 0C28.3468 15.6557 15.6557 28.3468 0 28.3468-15.6557 28.3468-28.3468 15.6557-28.3468 0-28.3468-15.6557-15.6557-28.3468 0-28.3468 15.6557-28.3468 28.3468-15.6557 28.3468 0ZM0 0"/>
<path transform="matrix(1.00003,0,0,-1.00008,44.617776,47.325666)" d="M-4.48325 23.14403H4.4832398V33.54956H-4.48325Z" fill="#ffffff"/>
<use data-text="2" xlink:href="#font_1_2" transform="matrix(9.962899,0,0,-9.963397,42.1267,22.186655)"/>
<path transform="matrix(1.00003,0,0,-1.00008,44.617776,47.325666)" stroke-width=".3985" stroke-linecap="butt" stroke-miterlimit="10" stroke-linejoin="miter" fill="none" stroke="#cbcbcb" d="M42.5202 0C42.5202 23.48355 23.48355 42.5202 0 42.5202-23.48355 42.5202-42.5202 23.48355-42.5202 0-42.5202-23.48355-23.48355-42.5202 0-42.5202 23.48355-42.5202 42.5202-23.48355 42.5202 0ZM0 0"/>
<path transform="matrix(1.00003,0,0,-1.00008,44.617776,47.325666)" d="M-4.48325 37.31743H4.4832398V47.722959H-4.48325Z" fill="#ffffff"/>
<use data-text="3" xlink:href="#font_1_3" transform="matrix(9.962899,0,0,-9.963397,42.1267,8.01252)"/>
<path transform="matrix(1.00003,0,0,-1.00008,44.617776,47.325666)" stroke-width="1.19553" stroke-linecap="butt" stroke-miterlimit="10" stroke-linejoin="miter" fill="none" stroke="#ff0000" d="M14.17339 0C14.17339 0 15.14821 1.0667 15.48659 1.52512 15.82497 1.98352 16.33298 2.77905 16.61226 3.30392 16.89153 3.82881 17.29234 4.72606 17.49939 5.30809 17.70644 5.89014 17.9808 6.87149 18.1045 7.4989 18.22823 8.1263 18.35968 9.17111 18.39107 9.83006 18.42245 10.48901 18.39816 11.57327 18.33073 12.24817 18.26332 12.92303 18.07465 14.01976 17.9051 14.69417 17.73558 15.36858 17.3814 16.45259 17.10881 17.10881 16.83623 17.76503 16.31354 18.80309 15.94052 19.42375 15.56752 20.0444 14.88763 21.01349 14.42038 21.58212 13.95311 22.15076 13.12587 23.02135 12.57278 23.52205 12.0197 24.02274 11.06151 24.77196 10.4341 25.19078 9.8067 25.60962 8.73868 26.21564 8.05081 26.54073 7.36293 26.86583 6.20888 27.31194 5.47635 27.53384 4.74384 27.75574 3.5311 28.02725 2.77126 28.14005 2.01143 28.25284 .769 28.3468 0 28.3468-.769 28.3468-2.01143 28.25284-2.77126 28.14005-3.5311 28.02725-4.74384 27.75574-5.47635 27.53384-6.20888 27.31194-7.36293 26.86583-8.05081 26.54073-8.73868 26.21564-9.8067 25.60962-10.4341 25.19078-11.06151 24.77196-12.0197 24.02274-12.57278 23.52205-13.12587 23.02135-13.95311 22.15076-14.42038 21.58212-14.88763 21.01349-15.56752 20.0444-15.94052 19.42375-16.31354 18.80309-16.83623 17.76503-17.10881 17.10881-17.3814 16.45259-17.73558 15.36858-17.9051 14.69417-18.07465 14.01976-18.26332 12.92303-18.33073 12.24817-18.39816 11.57327-18.42245 10.48901-18.39107 9.83006-18.35968 9.17111-18.22823 8.1263-18.1045 7.4989-17.9808 6.87149-17.70644 5.89014-17.49939 5.30809-17.29234 4.72606-16.89153 3.82881-16.61226 3.30392-16.33298 2.77905-15.82497 1.98352-15.48659 1.52512-15.14821 1.0667-14.55696 .38542-14.17339 0-13.78981-.38542-13.1361-.94406-12.72202-1.25284-12.3079-1.5616-11.61848-1.9941-11.18887-2.22539-10.75926-2.45668-10.0566-2.76408-9.62569-2.91983-9.1948-3.07559-8.50204-3.26315-8.08325-3.34805-7.66444-3.43294-7.00204-3.51067-6.60721-3.53166-6.21239-3.55266-5.59853-3.53331-5.2376-3.49942-4.87663-3.46556-4.32516-3.36577-4.0057-3.28749-3.68628-3.20921-3.20776-3.04623-2.9352-2.9352-2.6626-2.82414-2.26422-2.61874-2.04114-2.48708-1.81802-2.35542-1.50096-2.12645-1.32722-1.98619-1.15349-1.84595-.9158-1.61348-.78893-1.47624-.66206-1.339-.49774-1.12073-.41284-.99698-.32796-.87325-.22704-.6856-.17711-.58434-.12717-.48311-.07661-.33887-.05298-.26729-.02933-.19574-.01404-.10564-.0067-.06854 .00063-.03146-.00185 0 0 0 .00185 0-.00063-.03146 .0067-.06854 .01404-.10564 .02933-.19574 .05298-.26729 .07661-.33887 .12717-.48311 .17711-.58434 .22704-.6856 .32796-.87325 .41284-.99698 .49774-1.12073 .66206-1.339 .78893-1.47624 .9158-1.61348 1.15349-1.84595 1.32722-1.98619 1.50096-2.12645 1.81802-2.35542 2.04114-2.48708 2.26422-2.61874 2.6626-2.82414 2.9352-2.9352 3.20776-3.04623 3.68628-3.20921 4.0057-3.28749 4.32516-3.36577 4.87663-3.46556 5.2376-3.49942 5.59853-3.53331 6.21239-3.55266 6.60721-3.53166 7.00204-3.51067 7.66444-3.43294 8.08325-3.34805 8.50204-3.26315 9.1948-3.07559 9.62569-2.91983 10.0566-2.76408 10.75926-2.45668 11.18887-2.22539 11.61848-1.9941 12.3079-1.5616 12.72202-1.25284 13.1361-.94406 14.17339 0 14.17339 0"/>
</svg>
