<svg xmlns="http://www.w3.org/2000/svg" xmlns:xlink="http://www.w3.org/1999/xlink" version="1.1" width="104" height="108" viewBox="0 0 104 108">
<defs>
<path id="font_1_1" d="M.2939911 .64004519C.2939911 .66400149 .2939911 .6660156 .2709961 .6660156 .20899964 .60227969 .12098694 .60227969 .08898926 .60227969V.57128909C.10899353 .57128909 .16799927 .57128909 .21998596 .5972748V.07902527C.21998596 .042999269 .21699524 .0309906 .1269989 .0309906H.09498596V0C.12998963 .0029907227 .21699524 .0029907227 .25698854 .0029907227 .29699708 .0029907227 .38398744 .0029907227 .4189911 0V.0309906H.3869934C.29699708 .0309906 .2939911 .041992189 .2939911 .07902527V.64004519Z"/>
<path id="font_1_2" d="M.1269989 .07699585 .23298645 .18003845C.3889923 .31811524 .44898988 .3721466 .44898988 .47216798 .44898988 .5860901 .35899354 .6660156 .23699951 .6660156 .12399292 .6660156 .049987794 .57411196 .049987794 .48516847 .049987794 .4291687 .099990848 .4291687 .102996829 .4291687 .11999512 .4291687 .15499878 .44117738 .15499878 .48217774 .15499878 .5081787 .13699341 .5341797 .101989749 .5341797 .09399414 .5341797 .09199524 .5341797 .08898926 .5331726 .11199951 .59806826 .1659851 .63500979 .22399903 .63500979 .31498719 .63500979 .35798646 .5541382 .35798646 .47216798 .35798646 .39215089 .30799867 .31311036 .25299073 .25108338L.06098938 .036987306C.049987794 .025985718 .049987794 .023986817 .049987794 0H.42099L.44898988 .17404175H.42399598C.4189911 .14402771 .4119873 .1000061 .4019928 .084991458 .394989 .07699585 .32899476 .07699585 .30699159 .07699585H.1269989Z"/>
<path id="font_1_3" d="M.2899933 .35191346C.37199403 .37893678 .42999269 .4490509 .42999269 .52809146 .42999269 .6100464 .34199525 .6660156 .24598694 .6660156 .14498902 .6660156 .068984989 .60606387 .068984989 .53009036 .068984989 .49710084 .09098816 .47808839 .11999512 .47808839 .15098572 .47808839 .17098999 .50009158 .17098999 .5290985 .17098999 .57910159 .12399292 .57910159 .10899353 .57910159 .13999939 .62802127 .20599365 .64100649 .24198914 .64100649 .2829895 .64100649 .33799745 .6190338 .33799745 .5290985 .33799745 .51708987 .33599855 .45906068 .30999757 .4149933 .27999879 .36691285 .24598694 .36390687 .22099304 .36291505 .21299744 .36190797 .18899536 .35990907 .18199158 .35990907 .17399597 .35890199 .16699219 .35791017 .16699219 .3479004 .16699219 .33691407 .17399597 .33691407 .19099427 .33691407H.23498535C.31698609 .33691407 .35398866 .2686615 .35398866 .17037964 .35398866 .034469606 .2849884 .0055389406 .24099732 .0055389406 .19799805 .0055389406 .12298584 .022491456 .08799744 .08137512 .12298584 .07637024 .1539917 .09837341 .1539917 .1363678 .1539917 .17237854 .1269989 .19238281 .09799194 .19238281 .07398987 .19238281 .041992189 .17837525 .041992189 .1343689 .041992189 .043441774 .1349945-.022460938 .24398804-.022460938 .3659973-.022460938 .45700074 .06838989 .45700074 .17037964 .45700074 .252594 .3939972 .33088685 .2899933 .35191346Z"/>
<path id="font_1_4" d="M.2939911 .16503906V.07800293C.2939911 .041992189 .2919922 .0309906 .21798706 .0309906H.19699097V0C.23799134 .0029907227 .2899933 .0029907227 .33198548 .0029907227 .37399293 .0029907227 .4269867 .0029907227 .46798707 0V.0309906H.44699098C.37298585 .0309906 .37098695 .041992189 .37098695 .07800293V.16503906H.47099305V.19602967H.37098695V.65075686C.37098695 .67074587 .37098695 .6767578 .35499574 .6767578 .34599305 .6767578 .34298707 .6767578 .33499146 .66474917L.027999878 .19602967V.16503906H.2939911M.2999878 .19602967H.055999757L.2999878 .5688019V.19602967Z"/>
<path id="font_2_2" d="M.08799744 .059265138C.084991458 .044265748 .07899475 .021255494 .07899475 .01625061 .07899475-.0017547608 .09298706-.0107421879 .10798645-.0107421879 .11999512-.0107421879 .13798523-.002746582 .14498902 .01725769 .14698792 .021255494 .18099976 .15730286 .18499756 .17530823 .19299317 .20831299 .21099854 .27833558 .21699524 .30534364 .22099304 .31835938 .24899292 .36535646 .272995 .38734437 .2809906 .39434815 .30999757 .42037965 .35299684 .42037965 .3789978 .42037965 .3939972 .4083557 .394989 .4083557 .36499024 .40335084 .34298707 .37934876 .34298707 .35334779 .34298707 .33735658 .35398866 .31835938 .3809967 .31835938 .4079895 .31835938 .43598939 .34135438 .43598939 .37734986 .43598939 .41235353 .4039917 .4423828 .35299684 .4423828 .28799439 .4423828 .24398804 .39335633 .22499085 .36535646 .21699524 .4103546 .18099976 .4423828 .13398743 .4423828 .08799744 .4423828 .068984989 .40335084 .05999756 .38534547 .041992189 .35134889 .0289917 .29133607 .0289917 .28834535 .0289917 .27833558 .038986207 .27833558 .040985109 .27833558 .050994874 .27833558 .051986696 .27934266 .057998659 .30134584 .07499695 .37234498 .09498596 .42037965 .1309967 .42037965 .147995 .42037965 .1619873 .41235353 .1619873 .37435914 .1619873 .35334779 .15899658 .3423462 .1459961 .29034425L.08799744 .059265138Z"/>
<path id="font_1_5" d="M.68699648 .32714845C.70199587 .32714845 .72099307 .32714845 .72099307 .34713746 .72099307 .36714173 .70199587 .36714173 .6879883 .36714173H.08898926C.07499695 .36714173 .055999757 .36714173 .055999757 .34713746 .055999757 .32714845 .07499695 .32714845 .08999634 .32714845H.68699648M.6879883 .13284302C.70199587 .13284302 .72099307 .13284302 .72099307 .15284729 .72099307 .17285156 .70199587 .17285156 .68699648 .17285156H.08999634C.07499695 .17285156 .055999757 .17285156 .055999757 .15284729 .055999757 .13284302 .07499695 .13284302 .08898926 .13284302H.6879883Z"/>
<path id="font_3_1" d="M.19198609 .2502594C.19198609 .2792511 .16799927 .30325318 .13899231 .30325318 .10998535 .30325318 .085998538 .2792511 .085998538 .2502594 .085998538 .22125244 .10998535 .19726563 .13899231 .19726563 .16799927 .19726563 .19198609 .22125244 .19198609 .2502594Z"/>
<path id="font_1_8" d="M.20799256 .19424439C.22999573 .19024658 .31199647 .17424011 .31199647 .102249149 .31199647 .051254274 .2769928 .011245728 .19898987 .011245728 .114990238 .011245728 .07899475 .06825256 .05999756 .15324402 .056991579 .1662445 .055999757 .17024231 .04598999 .17024231 .032989503 .17024231 .032989503 .16323853 .032989503 .14524842V.013244629C.032989503-.003753662 .032989503-.0107421879 .04399109-.0107421879 .04899597-.0107421879 .049987794-.009750366 .068984989 .009246826 .070999149 .011245728 .070999149 .013244629 .08898926 .03224182 .1329956-.009750366 .17799378-.0107421879 .19898987-.0107421879 .31399537-.0107421879 .3600006 .056243898 .3600006 .12825012 .3600006 .1812439 .32998658 .21124268 .31799317 .22323609 .2849884 .25523377 .24598694 .26324464 .20399475 .27124024 .147995 .28224183 .08099365 .2952423 .08099365 .35324098 .08099365 .38822938 .10699463 .42922975 .19299317 .42922975 .30299378 .42922975 .30799867 .3392334 .30999757 .3082428 .31098939 .2992401 .31999208 .2992401 .32199098 .2992401 .33499146 .2992401 .33499146 .304245 .33499146 .3232422V.4242401C.33499146 .4412384 .33499146 .4482422 .32398988 .4482422 .31900025 .4482422 .31698609 .4482422 .3039856 .43623353 .30099488 .43223573 .29100038 .42323304 .2869873 .42022706 .24899292 .4482422 .20799256 .4482422 .19299317 .4482422 .070999149 .4482422 .032989503 .38124085 .032989503 .3252411 .032989503 .29023744 .04899597 .26223756 .07598877 .24023438 .10798645 .21424866 .13598633 .2082367 .20799256 .19424439Z"/>
<path id="font_1_6" d="M.1769867 .4423828 .036987306 .43138124V.40037538C.101989749 .40037538 .11099243 .3943634 .11099243 .34532167V.076034549C.11099243 .0309906 .099990848 .0309906 .032989503 .0309906V0C.06498718 .0009918213 .11898804 .0029907227 .14299011 .0029907227 .17799378 .0029907227 .21299744 .0009918213 .24699402 0V.0309906C.18099976 .0309906 .1769867 .035995485 .1769867 .075042728V.4423828M.18099976 .6159363C.18099976 .64793398 .1559906 .6689453 .12799073 .6689453 .09700012 .6689453 .07499695 .64193728 .07499695 .6159363 .07499695 .5889435 .09700012 .5629425 .12799073 .5629425 .1559906 .5629425 .18099976 .5839386 .18099976 .6159363Z"/>
<path id="font_1_7" d="M.10998535 .34429933V.076034549C.10998535 .0309906 .09899902 .0309906 .03199768 .0309906V0C.066986087 .0009918213 .117996219 .0029907227 .14498902 .0029907227 .17098999 .0029907227 .22299195 .0009918213 .25698854 0V.0309906C.18998719 .0309906 .1789856 .0309906 .1789856 .076034549V.2602234C.1789856 .36431886 .25 .42037965 .31399537 .42037965 .3769989 .42037965 .3880005 .36631776 .3880005 .30926515V.076034549C.3880005 .0309906 .3769989 .0309906 .30999757 .0309906V0C.34498597 .0009918213 .3959961 .0029907227 .4229889 .0029907227 .44898988 .0029907227 .5009918 .0009918213 .5349884 0V.0309906C.48298646 .0309906 .45799256 .0309906 .45700074 .061019899V.25221253C.45700074 .3383026 .45700074 .36932374 .42599488 .405365 .4119873 .42237855 .3789978 .4423828 .32099916 .4423828 .24798584 .4423828 .20098877 .39935304 .17298889 .33729554V.4423828L.03199768 .43138124V.40037538C.101989749 .4003601 .10998535 .39335633 .10998535 .34429933Z"/>
<path id="font_2_1" d="M.45498658 .5001831C.45498658 .56614688 .43699647 .7050781 .33499146 .7050781 .19599915 .7050781 .041992189 .42323304 .041992189 .19425965 .041992189 .100250247 .070999149-.0107421879 .1619873-.0107421879 .30299378-.0107421879 .45498658 .27627564 .45498658 .5001831M.147995 .36328126C.16499329 .42723084 .18499756 .5071869 .22499085 .57814028 .2519989 .6271057 .2889862 .68307498 .33399964 .68307498 .3829956 .68307498 .3889923 .6191101 .3889923 .56214907 .3889923 .5131836 .3809967 .46220399 .35699464 .36328126H.147995M.34799195 .3312683C.33699037 .28527833 .31599427 .2002716 .27799989 .12826538 .24299622 .060256959 .20498657 .011245728 .1619873 .011245728 .1289978 .011245728 .10798645 .040252687 .10798645 .133255 .10798645 .17526245 .11399841 .23326111 .13999939 .3312683H.34799195Z"/>
</defs>
<path transform="matrix(1.00002,0,0,-1.00003,51.986665,54.69422)" stroke-width=".3985" stroke-linecap="butt" stroke-miterlimit="10" stroke-linejoin="miter" fill="none" stroke="#cbcbcb" d="M0 0H49.89066"/>
<path transform="matrix(1.00002,0,0,-1.00003,51.986665,54.69422)" stroke-width=".3985" stroke-linecap="butt" stroke-miterlimit="10" stroke-linejoin="miter" fill="none" stroke="#cbcbcb" d="M0 0 48.19073 12.91266"/>
<path transform="matrix(1.00002,0,0,-1.00003,51.986665,54.69422)" stroke-width=".3985" stroke-linecap="butt" stroke-miterlimit="10" stroke-linejoin="miter" fill="none" stroke="#cbcbcb" d="M0 0 43.20668 24.94531"/>
<path transform="matrix(1.00002,0,0,-1.00003,51.986665,54.69422)" stroke-width=".3985" stroke-linecap="butt" stroke-miterlimit="10" stroke-linejoin="miter" fill="none" stroke="#cbcbcb" d="M0 0 35.27805 35.27805"/>
<path transform="matrix(1.00002,0,0,-1.00003,51.986665,54.69422)" stroke-width=".3985" stroke-linecap="butt" stroke-miterlimit="10" stroke-linejoin="miter" fill="none" stroke="#cbcbcb" d="M0 0 24.94531 43.20668"/>
<path transform="matrix(1.00002,0,0,-1.00003,51.986665,54.69422)" stroke-width=".3985" stroke-linecap="butt" stroke-miterlimit="10" stroke-linejoin="miter" fill="none" stroke="#cbcbcb" d="M0 0 12.91266 48.19073"/>
<path transform="matrix(1.00002,0,0,-1.00003,51.986665,54.69422)" stroke-width=".3985" stroke-linecap="butt" stroke-miterlimit="10" stroke-linejoin="miter" fill="none" stroke="#cbcbcb" d="M0 0V49.89066"/>
<path transform="matrix(1.00002,0,0,-1.00003,51.986665,54.69422)" stroke-width=".3985" stroke-linecap="butt" stroke-miterlimit="10" stroke-linejoin="miter" fill="none" stroke="#cbcbcb" d="M0 0-12.91266 48.19073"/>
<path transform="matrix(1.00002,0,0,-1.00003,51.986665,54.69422)" stroke-width=".3985" stroke-linecap="butt" stroke-miterlimit="10" stroke-linejoin="miter" fill="none" stroke="#cbcbcb" d="M0 0-24.94531 43.20668"/>
<path transform="matrix(1.00002,0,0,-1.00003,51.986665,54.69422)" stroke-width=".3985" stroke-linecap="butt" stroke-miterlimit="10" stroke-linejoin="miter" fill="none" stroke="#cbcbcb" d="M0 0-35.27805 35.27805"/>
<path transform="matrix(1.00002,0,0,-1.00003,51.986665,54.69422)" stroke-width=".3985" stroke-linecap="butt" stroke-miterlimit="10" stroke-linejoin="miter" fill="none" stroke="#cbcbcb" d="M0 0-43.20668 24.94531"/>
<path transform="matrix(1.00002,0,0,-1.00003,51.986665,54.69422)" stroke-width=".3985" stroke-linecap="butt" stroke-miterlimit="10" stroke-linejoin="miter" fill="none" stroke="#cbcbcb" d="M0 0-48.19073 12.91266"/>
<path transform="matrix(1.00002,0,0,-1.00003,51.986665,54.69422)" stroke-width=".3985" stroke-linecap="butt" stroke-miterlimit="10" stroke-linejoin="miter" fill="none" stroke="#cbcbcb" d="M0 0H-49.89066"/>
<path transform="matrix(1.00002,0,0,-1.00003,51.986665,54.69422)" stroke-width=".3985" stroke-linecap="butt" stroke-miterlimit="10" stroke-linejoin="miter" fill="none" stroke="#cbcbcb" d="M0 0-48.19073-12.91266"/>
<path transform="matrix(1.00002,0,0,-1.00003,51.986665,54.69422)" stroke-width=".3985" stroke-linecap="butt" stroke-miterlimit="10" stroke-linejoin="miter" fill="none" stroke="#cbcbcb" d="M0 0-43.20668-24.94531"/>
<path transform="matrix(1.00002,0,0,-1.00003,51.986665,54.69422)" stroke-width=".3985" stroke-linecap="butt" stroke-miterlimit="10" stroke-linejoin="miter" fill="none" stroke="#cbcbcb" d="M0 0-35.27805-35.27805"/>
<path transform="matrix(1.00002,0,0,-1.00003,51.986665,54.69422)" stroke-width=".3985" stroke-linecap="butt" stroke-miterlimit="10" stroke-linejoin="miter" fill="none" stroke="#cbcbcb" d="M0 0-24.94531-43.20668"/>
<path transform="matrix(1.00002,0,0,-1.00003,51.986665,54.69422)" stroke-width=".3985" stroke-linecap="butt" stroke-miterlimit="10" stroke-linejoin="miter" fill="none" stroke="#cbcbcb" d="M0 0-12.91266-48.19073"/>
<path transform="matrix(1.00002,0,0,-1.00003,51.986665,54.69422)" stroke-width=".3985" stroke-linecap="butt" stroke-miterlimit="10" stroke-linejoin="miter" fill="none" stroke="#cbcbcb" d="M0 0V-49.89066"/>
<path transform="matrix(1.00002,0,0,-1.00003,51.986665,54.69422)" stroke-width=".3985" stroke-linecap="butt" stroke-miterlimit="10" stroke-linejoin="miter" fill="none" stroke="#cbcbcb" d="M0 0 12.91266-48.19073"/>
<path transform="matrix(1.00002,0,0,-1.00003,51.986665,54.69422)" stroke-width=".3985" stroke-linecap="butt" stroke-miterlimit="10" stroke-linejoin="miter" fill="none" stroke="#cbcbcb" d="M0 0 24.94531-43.20668"/>
<path transform="matrix(1.00002,0,0,-1.00003,51.986665,54.69422)" stroke-width=".3985" stroke-linecap="butt" stroke-miterlimit="10" stroke-linejoin="miter" fill="none" stroke="#cbcbcb" d="M0 0 35.27805-35.27805"/>
<path transform="matrix(1.00002,0,0,-1.00003,51.986665,54.69422)" stroke-width=".3985" stroke-linecap="butt" stroke-miterlimit="10" stroke-linejoin="miter" fill="none" stroke="#cbcbcb" d="M0 0 43.20668-24.94531"/>
<path transform="matrix(1.00002,0,0,-1.00003,51.986665,54.69422)" stroke-width=".3985" stroke-linecap="butt" stroke-miterlimit="10" stroke-linejoin="miter" fill="none" stroke="#cbcbcb" d="M0 0 48.19073-12.91266"/>
<path transform="matrix(1.00002,0,0,-1.00003,51.986665,54.69422)" stroke-width=".3985" stroke-linecap="butt" stroke-miterlimit="10" stroke-linejoin="miter" fill="none" stroke="#cbcbcb" d="M12.47266 0C12.47266 6.88853 6.88853 12.47266 0 12.47266-6.88853 12.47266-12.47266 6.88853-12.47266 0-12.47266-6.88853-6.88853-12.47266 0-12.47266 6.88853-12.47266 12.47266-6.88853 12.47266 0ZM0 0"/>
<path transform="matrix(1.00002,0,0,-1.00003,51.986665,54.69422)" d="M-4.48325 7.26988H4.4832398V17.67541H-4.48325Z" fill="#ffffff"/>
<use data-text="1" xlink:href="#font_1_1" transform="matrix(9.962799,0,0,-9.962899,49.495615,45.431943)"/>
<path transform="matrix(1.00002,0,0,-1.00003,51.986665,54.69422)" stroke-width=".3985" stroke-linecap="butt" stroke-miterlimit="10" stroke-linejoin="miter" fill="none" stroke="#cbcbcb" d="M24.94531 0C24.94531 13.77708 13.77708 24.94531 0 24.94531-13.77708 24.94531-24.94531 13.77708-24.94531 0-24.94531-13.77708-13.77708-24.94531 0-24.94531 13.77708-24.94531 24.94531-13.77708 24.94531 0ZM0 0"/>
<path transform="matrix(1.00002,0,0,-1.00003,51.986665,54.69422)" d="M-4.48325 19.74254H4.4832398V30.148072H-4.48325Z" fill="#ffffff"/>
<use data-text="2" xlink:href="#font_1_2" transform="matrix(9.962799,0,0,-9.962899,49.495615,32.95857)"/>
<path transform="matrix(1.00002,0,0,-1.00003,51.986665,54.69422)" stroke-width=".3985" stroke-linecap="butt" stroke-miterlimit="10" stroke-linejoin="miter" fill="none" stroke="#cbcbcb" d="M37.41797 0C37.41797 20.66563 20.66563 37.41797 0 37.41797-20.66563 37.41797-37.41797 20.66563-37.41797 0-37.41797-20.66563-20.66563-37.41797 0-37.41797 20.66563-37.41797 37.41797-20.66563 37.41797 0ZM0 0"/>
<path transform="matrix(1.00002,0,0,-1.00003,51.986665,54.69422)" d="M-4.48325 32.21521H4.4832398V42.62074H-4.48325Z" fill="#ffffff"/>
<use data-text="3" xlink:href="#font_1_3" transform="matrix(9.962799,0,0,-9.962899,49.495615,20.485196)"/>
<path transform="matrix(1.00002,0,0,-1.00003,51.986665,54.69422)" stroke-width=".3985" stroke-linecap="butt" stroke-miterlimit="10" stroke-linejoin="miter" fill="none" stroke="#cbcbcb" d="M49.89066 0C49.89066 27.55418 27.55418 49.89066 0 49.89066-27.55418 49.89066-49.89066 27.55418-49.89066 0-49.89066-27.55418-27.55418-49.89066 0-49.89066 27.55418-49.89066 49.89066-27.55418 49.89066 0ZM0 0"/>
<path transform="matrix(1.00002,0,0,-1.00003,51.986665,54.69422)" d="M-4.48325 44.68788H4.4832398V55.09341H-4.48325Z" fill="#ffffff"/>
<use data-text="4" xlink:href="#font_1_4" transform="matrix(9.962799,0,0,-9.962899,49.495615,8.012817)"/>
<path transform="matrix(1.00002,0,0,-1.00003,51.986665,54.69422)" stroke-width="1.19553" stroke-linecap="butt" stroke-miterlimit="10" stroke-linejoin="miter" fill="none" stroke="#ff0000" d="M0 0C0 0 3.98302 .12141 5.48267 .2691 6.98228 .41676 9.37364 .77615 10.8083 1.06444 12.243 1.3527 14.49376 1.93187 15.8228 2.34679 17.15187 2.7617 19.20079 3.53345 20.38719 4.05489 21.57361 4.57634 23.36224 5.50279 24.3736 6.105 25.38495 6.70721 26.86565 7.74228 27.67636 8.39528 28.48709 9.04826 29.62576 10.14087 30.21674 10.81137 30.80771 11.48186 31.57593 12.57492 31.93568 13.22783 32.29544 13.88075 32.6845 14.9172 32.80963 15.51715 32.93475 16.11711 32.94247 17.03914 32.8376 17.55185 32.73271 18.06454 32.37636 18.81898 32.05368 19.21237 31.731 19.60577 31.03336 20.14131 30.51192 20.38719 29.99046 20.63309 28.98999 20.90897 28.29549 20.9846 27.60097 21.06026 26.34286 21.0439 25.50638 20.93246 24.66988 20.82103 23.2097 20.48996 22.26659 20.18147 21.32347 19.87297 19.72179 19.21791 18.70897 18.70897 17.69617 18.20006 16.01038 17.2177 14.96695 16.51347 13.92351 15.80925 12.22348 14.51993 11.18857 13.6334 10.15367 12.74687 8.4978 11.17352 7.50803 10.12393 6.51823 9.07434 4.96574 7.25494 4.05489 6.06863 3.14403 4.88235 1.74562 2.86462 .94319 1.57391 .14076 .2832-1.0583-1.87526-1.72844-3.23386-2.39857-4.59247-3.36626-6.83125-3.88666-8.21791-4.40703-9.60454-5.11922-11.85513-5.47905-13.22783-5.83887-14.60052-6.2844-16.79529-6.4801-18.11139-6.67584-19.42746-6.85422-21.495-6.88966-22.71327-6.92513-23.93153-6.84962-25.80983-6.73572-26.89188-6.6218-27.97392-6.3147-29.6012-6.06863-30.51192-5.82259-31.42264-5.31746-32.74547-4.96233-33.45575-4.6072-34.16605-3.94574-35.14444-3.50906-35.63127-3.07239-36.1181-2.30191-36.71655-1.81503-36.96445-1.32817-37.21236-.50365-37.41797 0-37.41797 .50365-37.41797 1.32817-37.21236 1.81503-36.96445 2.30191-36.71655 3.07239-36.1181 3.50906-35.63127 3.94574-35.14444 4.6072-34.16605 4.96233-33.45575 5.31746-32.74547 5.82259-31.42264 6.06863-30.51192 6.3147-29.6012 6.6218-27.97392 6.73572-26.89188 6.84962-25.80983 6.92513-23.93153 6.88966-22.71327 6.85422-21.495 6.67584-19.42746 6.4801-18.11139 6.2844-16.79529 5.83887-14.60052 5.47905-13.22783 5.11922-11.85513 4.40703-9.60454 3.88666-8.21791 3.36626-6.83125 2.39857-4.59247 1.72844-3.23386 1.0583-1.87526-.14076 .2832-.94319 1.57391-1.74562 2.86462-3.14403 4.88235-4.05489 6.06863-4.96574 7.25494-6.51823 9.07434-7.50803 10.12393-8.4978 11.17352-10.15367 12.74687-11.18857 13.6334-12.22348 14.51993-13.92351 15.80925-14.96695 16.51347-16.01038 17.2177-17.69617 18.20006-18.70897 18.70897-19.72179 19.21791-21.32347 19.87297-22.26659 20.18147-23.2097 20.48996-24.66988 20.82103-25.50638 20.93246-26.34286 21.0439-27.60097 21.06026-28.29549 20.9846-28.98999 20.90897-29.99046 20.63309-30.51192 20.38719-31.03336 20.14131-31.731 19.60577-32.05368 19.21237-32.37636 18.81898-32.73271 18.06454-32.8376 17.55185-32.94247 17.03914-32.93475 16.11711-32.80963 15.51715-32.6845 14.9172-32.29544 13.88075-31.93568 13.22783-31.57593 12.57492-30.80771 11.48186-30.21674 10.81137-29.62576 10.14087-28.48709 9.04826-27.67636 8.39528-26.86565 7.74228-25.38495 6.70721-24.3736 6.105-23.36224 5.50279-21.57361 4.57634-20.38719 4.05489-19.20079 3.53345-17.15187 2.7617-15.8228 2.34679-14.49376 1.93187-12.243 1.3527-10.8083 1.06444-9.37364 .77615-6.98228 .41676-5.48267 .2691-3.98302 .12141 0 0 0 0"/>
<path transform="matrix(1.00002,0,0,-1.00003,51.986665,54.69422)" d="M-28.02596-52.7647H28.02595V-43.85358H-28.02596Z" fill="#ffffff"/>
<use data-text="r" xlink:href="#font_2_2" transform="matrix(9.962799,0,0,-9.962899,24.956124,106.463779)" fill="#ff0000"/>
<use data-text="=" xlink:href="#font_1_5" transform="matrix(9.962799,0,0,-9.962899,32.495264,106.463779)" fill="#ff0000"/>
<use data-text="3" xlink:href="#font_1_3" transform="matrix(9.962799,0,0,-9.962899,42.996057,106.463779)" fill="#ff0000"/>
<use data-text="&#x00b7;" xlink:href="#font_3_1" transform="matrix(9.962799,0,0,-9.962899,50.206628,106.463779)" fill="#ff0000"/>
<use data-text="s" xlink:href="#font_1_8" transform="matrix(9.962799,0,0,-9.962899,55.18772,106.463779)" fill="#ff0000"/>
<use data-text="i" xlink:href="#font_1_6" transform="matrix(9.962799,0,0,-9.962899,59.11306,106.463779)" fill="#ff0000"/>
<use data-text="n" xlink:href="#font_1_7" transform="matrix(9.962799,0,0,-9.962899,61.872766,106.463779)" fill="#ff0000"/>
<use data-text="3" xlink:href="#font_1_3" transform="matrix(9.962799,0,0,-9.962899,69.05593,106.463779)" fill="#ff0000"/>
<use data-text="&#x03b8;" xlink:href="#font_2_1" transform="matrix(9.962799,0,0,-9.962899,74.06211,106.463779)" fill="#ff0000"/>
</svg>
