<svg xmlns="http://www.w3.org/2000/svg" xmlns:xlink="http://www.w3.org/1999/xlink" version="1.1" width="101" height="44" viewBox="0 0 101 44">
<defs>
<path id="font_1_2" d="M.08799744 .059265138C.084991458 .044265748 .07899475 .021255494 .07899475 .01625061 .07899475-.0017547608 .09298706-.0107421879 .10798645-.0107421879 .11999512-.0107421879 .13798523-.002746582 .14498902 .01725769 .1459961 .019256592 .1579895 .06626892 .1639862 .091278079L.18598938 .18130493C.19198609 .2033081 .19799805 .22531128 .20298767 .24832154 .20698548 .26531983 .21499634 .29434205 .21598816 .29833985 .23098755 .3293457 .28399659 .42037965 .3789978 .42037965 .42399598 .42037965 .43299867 .38336183 .43299867 .35035707 .43299867 .28833009 .38398744 .16029358 .36799623 .11727905 .35899354 .0942688 .35798646 .08227539 .35798646 .0712738 .35798646 .024261475 .3929901-.0107421879 .43998719-.0107421879 .5339966-.0107421879 .57099917 .13528443 .57099917 .14329529 .57099917 .1532898 .56199648 .1532898 .5589905 .1532898 .548996 .1532898 .548996 .15029907 .5439911 .13528443 .5239868 .06726074 .4909973 .011245728 .44198609 .011245728 .4249878 .011245728 .41799928 .021255494 .41799928 .044265748 .41799928 .0692749 .4269867 .09327698 .43598939 .11528015 .45498658 .16830445 .49699403 .27833558 .49699403 .3353424 .49699403 .40237428 .45399476 .4423828 .38198854 .4423828 .2919922 .4423828 .24299622 .37835694 .22599793 .35534669 .22099304 .41137696 .17999268 .4423828 .13398743 .4423828 .08799744 .4423828 .068984989 .4033661 .05899048 .38536073 .042999269 .35134889 .0289917 .29232789 .0289917 .28833009 .0289917 .27833558 .038986207 .27833558 .040985109 .27833558 .050994874 .27833558 .051986696 .2793274 .057998659 .30133058 .07499695 .37236024 .09498596 .42037965 .1309967 .42037965 .15098572 .42037965 .1619873 .4073639 .1619873 .37435914 .1619873 .35334779 .15899658 .3423462 .1459961 .29032899L.08799744 .059265138Z"/>
<path id="font_2_1" d="M.2939911 .64004519C.2939911 .66400149 .2939911 .6660156 .2709961 .6660156 .20899964 .60227969 .12098694 .60227969 .08898926 .60227969V.57128909C.10899353 .57128909 .16799927 .57128909 .21998596 .5972748V.07902527C.21998596 .042999269 .21699524 .0309906 .1269989 .0309906H.09498596V0C.12998963 .0029907227 .21699524 .0029907227 .25698854 .0029907227 .29699708 .0029907227 .38398744 .0029907227 .4189911 0V.0309906H.3869934C.29699708 .0309906 .2939911 .041992189 .2939911 .07902527V.64004519Z"/>
<path id="font_2_4" d="M.13198853 .327713V.35173036C.13198853 .6047821 .2559967 .64100649 .30699159 .64100649 .33099366 .64100649 .37298585 .634964 .394989 .6007538 .37998963 .6007538 .33999635 .6007538 .33999635 .5557556 .33999635 .524765 .3639984 .5097656 .38598634 .5097656 .4019928 .5097656 .43199159 .51875308 .43199159 .5577545 .43199159 .6178589 .3880005 .6660156 .30499269 .6660156 .1769867 .6660156 .041992189 .5367584 .041992189 .31570436 .041992189 .048553468 .1579895-.022460938 .25099183-.022460938 .3619995-.022460938 .45700074 .07156372 .45700074 .2036438 .45700074 .33070375 .36799623 .4267578 .25698854 .4267578 .18899536 .4267578 .1519928 .37573243 .13198853 .327713M.25099183 .0055389406C.18798828 .0055389406 .1579895 .06556702 .1519928 .080566409 .13398743 .127594 .13398743 .2076416 .13398743 .22564698 .13398743 .30369569 .1659851 .40374757 .2559967 .40374757 .27198792 .40374757 .31799317 .40374757 .34899903 .34172059 .36698915 .30470277 .36698915 .2536621 .36698915 .20463562 .36698915 .15661621 .36698915 .10658264 .34999085 .0705719 .31999208 .010528564 .27398683 .0055389406 .25099183 .0055389406Z"/>
<path id="font_2_2" d="M.1269989 .07699585 .23298645 .18003845C.3889923 .31811524 .44898988 .3721466 .44898988 .47216798 .44898988 .5860901 .35899354 .6660156 .23699951 .6660156 .12399292 .6660156 .049987794 .57411196 .049987794 .48516847 .049987794 .4291687 .099990848 .4291687 .102996829 .4291687 .11999512 .4291687 .15499878 .44117738 .15499878 .48217774 .15499878 .5081787 .13699341 .5341797 .101989749 .5341797 .09399414 .5341797 .09199524 .5341797 .08898926 .5331726 .11199951 .59806826 .1659851 .63500979 .22399903 .63500979 .31498719 .63500979 .35798646 .5541382 .35798646 .47216798 .35798646 .39215089 .30799867 .31311036 .25299073 .25108338L.06098938 .036987306C.049987794 .025985718 .049987794 .023986817 .049987794 0H.42099L.44898988 .17404175H.42399598C.4189911 .14402771 .4119873 .1000061 .4019928 .084991458 .394989 .07699585 .32899476 .07699585 .30699159 .07699585H.1269989Z"/>
<path id="font_3_1" d="M.3889923-.8549652 .21299744-.4659729C.20599365-.44996644 .20098877-.44996644 .19799805-.44996644 .19699097-.44996644 .19198609-.44996644 .18099976-.45796205L.085998538-.52996829C.07299805-.53996279 .07299805-.54296877 .07299805-.54597476 .07299805-.55096438 .07598877-.55696108 .08299255-.55696108 .08898926-.55696108 .10598755-.54296877 .116989139-.53497317 .12298584-.52996829 .13798523-.5189667 .14898682-.51097109L.34599305-.9439697C.35299684-.95996096 .35798646-.95996096 .36698915-.95996096 .38198854-.95996096 .3849945-.95396426 .3919983-.9399719L.84599307 .000030517579C.8529968 .014038086 .8529968 .018035889 .8529968 .02003479 .8529968 .030029297 .8450012 .040039064 .83299258 .040039064 .82499697 .040039064 .81799319 .03503418 .80999758 .01902771L.3889923-.8549652Z"/>
<path id="font_2_3" d="M.2899933 .35191346C.37199403 .37893678 .42999269 .4490509 .42999269 .52809146 .42999269 .6100464 .34199525 .6660156 .24598694 .6660156 .14498902 .6660156 .068984989 .60606387 .068984989 .53009036 .068984989 .49710084 .09098816 .47808839 .11999512 .47808839 .15098572 .47808839 .17098999 .50009158 .17098999 .5290985 .17098999 .57910159 .12399292 .57910159 .10899353 .57910159 .13999939 .62802127 .20599365 .64100649 .24198914 .64100649 .2829895 .64100649 .33799745 .6190338 .33799745 .5290985 .33799745 .51708987 .33599855 .45906068 .30999757 .4149933 .27999879 .36691285 .24598694 .36390687 .22099304 .36291505 .21299744 .36190797 .18899536 .35990907 .18199158 .35990907 .17399597 .35890199 .16699219 .35791017 .16699219 .3479004 .16699219 .33691407 .17399597 .33691407 .19099427 .33691407H.23498535C.31698609 .33691407 .35398866 .2686615 .35398866 .17037964 .35398866 .034469606 .2849884 .0055389406 .24099732 .0055389406 .19799805 .0055389406 .12298584 .022491456 .08799744 .08137512 .12298584 .07637024 .1539917 .09837341 .1539917 .1363678 .1539917 .17237854 .1269989 .19238281 .09799194 .19238281 .07398987 .19238281 .041992189 .17837525 .041992189 .1343689 .041992189 .043441774 .1349945-.022460938 .24398804-.022460938 .3659973-.022460938 .45700074 .06838989 .45700074 .17037964 .45700074 .252594 .3939972 .33088685 .2899933 .35191346Z"/>
<path id="font_1_1" d="M.45498658 .5001831C.45498658 .56614688 .43699647 .7050781 .33499146 .7050781 .19599915 .7050781 .041992189 .42323304 .041992189 .19425965 .041992189 .100250247 .070999149-.0107421879 .1619873-.0107421879 .30299378-.0107421879 .45498658 .27627564 .45498658 .5001831M.147995 .36328126C.16499329 .42723084 .18499756 .5071869 .22499085 .57814028 .2519989 .6271057 .2889862 .68307498 .33399964 .68307498 .3829956 .68307498 .3889923 .6191101 .3889923 .56214907 .3889923 .5131836 .3809967 .46220399 .35699464 .36328126H.147995M.34799195 .3312683C.33699037 .28527833 .31599427 .2002716 .27799989 .12826538 .24299622 .060256959 .20498657 .011245728 .1619873 .011245728 .1289978 .011245728 .10798645 .040252687 .10798645 .133255 .10798645 .17526245 .11399841 .23326111 .13999939 .3312683H.34799195Z"/>
</defs>
<path transform="matrix(1.00006,0,0,-1.00005,77.83459,12.059954)" stroke-width=".79701" stroke-linecap="butt" stroke-miterlimit="10" stroke-linejoin="miter" fill="none" stroke="#0000ff" d="M0 0V-6.37796H-6.37796V0ZM-6.37796-6.37796"/>
<path transform="matrix(1.00006,0,0,-1.00005,77.83459,12.059954)" stroke-width=".79701" stroke-linecap="butt" stroke-miterlimit="10" stroke-linejoin="miter" fill="none" stroke="#000000" d="M-76.53555 0 0-30.61414"/>
<use data-text="n" xlink:href="#font_1_2" transform="matrix(9.963197,0,0,-9.963098,29.864716,35.37712)" fill="#0000ff"/>
<path transform="matrix(1.00006,0,0,-1.00005,77.83459,12.059954)" stroke-width=".79701" stroke-linecap="butt" stroke-miterlimit="10" stroke-linejoin="miter" fill="none" stroke="#000000" d="M-76.53555 0H0"/>
<use data-text="1" xlink:href="#font_2_1" transform="matrix(9.963197,0,0,-9.963098,34.582994,8.340768)" fill="#0000ff"/>
<use data-text="6" xlink:href="#font_2_4" transform="matrix(9.963197,0,0,-9.963098,39.56459,8.340768)" fill="#0000ff"/>
<path transform="matrix(1.00006,0,0,-1.00005,77.83459,12.059954)" stroke-width=".79701" stroke-linecap="butt" stroke-miterlimit="10" stroke-linejoin="miter" fill="none" stroke="#000000" d="M0 0V-30.61414"/>
<use data-text="2" xlink:href="#font_2_2" transform="matrix(9.963197,0,0,-9.963098,81.55381,31.225913)" fill="#0000ff"/>
<use data-text="&#x221a;" xlink:href="#font_3_1" transform="matrix(9.963197,0,0,-9.963098,86.53512,22.9845)" fill="#0000ff"/>
<path transform="matrix(1.00006,0,0,-1.00005,-78.285778,32.16396)" stroke-width=".3985" stroke-linecap="butt" stroke-miterlimit="10" stroke-linejoin="miter" fill="none" stroke="#0000ff" d="M173.113 9.379H178.095"/>
<use data-text="3" xlink:href="#font_2_3" transform="matrix(9.963197,0,0,-9.963098,94.83761,31.225913)" fill="#0000ff"/>
<path transform="matrix(1.00006,0,0,-1.00005,77.83459,12.059954)" stroke-width=".79701" stroke-linecap="butt" stroke-miterlimit="10" stroke-linejoin="miter" fill="none" stroke="#ff0000" d="M-53.57495 0C-53.57495-2.9198-54.13412-5.81616-55.21811-8.52681"/>
<use data-text="&#x03b8;" xlink:href="#font_1_1" transform="matrix(9.963197,0,0,-9.963098,27.560578,20.857394)" fill="#ff0000"/>
</svg>
