<svg xmlns="http://www.w3.org/2000/svg" xmlns:xlink="http://www.w3.org/1999/xlink" version="1.1" width="106" height="76" viewBox="0 0 106 76">
<defs>
<path id="font_1_1" d="M.33399964 .30233766C.33999635 .32835389 .36299134 .42037965 .43299867 .42037965 .43798829 .42037965 .46199037 .42037965 .48298646 .40734864 .45498658 .402359 .43499757 .37734986 .43499757 .35334779 .43499757 .33735658 .44599916 .31835938 .47299195 .31835938 .49499513 .31835938 .5269928 .3363495 .5269928 .37635804 .5269928 .42837525 .46798707 .4423828 .43399049 .4423828 .37599183 .4423828 .34098817 .38935853 .32899476 .36634828 .3039856 .43237306 .25 .4423828 .22099304 .4423828 .116989139 .4423828 .05999756 .3133545 .05999756 .28834535 .05999756 .27833558 .069992069 .27833558 .07199097 .27833558 .07998657 .27833558 .08299255 .28033448 .084991458 .28933717 .11898804 .39535523 .18499756 .42037965 .21899414 .42037965 .23799134 .42037965 .272995 .4113617 .272995 .35334779 .272995 .32235719 .2559967 .25532533 .21899414 .11528015 .20298767 .053268434 .16799927 .011245728 .12399292 .011245728 .117996219 .011245728 .09498596 .011245728 .07398987 .024276734 .09899902 .029266358 .12098694 .05027771 .12098694 .07827759 .12098694 .105270389 .09899902 .11328125 .083999637 .11328125 .053985597 .11328125 .0289917 .08728027 .0289917 .055267335 .0289917 .009246826 .07899475-.0107421879 .12298584-.0107421879 .18899536-.0107421879 .22499085 .059280397 .22799683 .0652771 .23999024 .028274537 .27598573-.0107421879 .33599855-.0107421879 .43899537-.0107421879 .49598695 .118270877 .49598695 .14328003 .49598695 .1532898 .4869995 .1532898 .48399354 .1532898 .47499085 .1532898 .47299195 .14929199 .47099305 .14228821 .43798829 .03527832 .36999513 .011245728 .33799745 .011245728 .29899598 .011245728 .2829895 .043273927 .2829895 .07727051 .2829895 .09927368 .2889862 .121276859 .2999878 .16529846L.33399964 .30233766Z"/>
<path id="font_1_2" d="M.48599244 .38136292C.48999024 .39537049 .48999024 .39736939 .48999024 .40437318 .48999024 .42237855 .47599793 .43138124 .46099855 .43138124 .45098878 .43138124 .43499757 .42536927 .42599488 .41036988 .42399598 .405365 .41600038 .37435914 .4119873 .35635377 .40499879 .33035279 .397995 .30334474 .3919983 .27633668L.34700013 .09628296C.34298707 .08126831 .2999878 .011245728 .23399353 .011245728 .18299866 .011245728 .17199707 .055267335 .17199707 .0922699 .17199707 .1382904 .18899536 .20030213 .22299195 .28833009 .23899842 .3293457 .24299622 .3403473 .24299622 .36035157 .24299622 .405365 .21099854 .4423828 .16099549 .4423828 .06599426 .4423828 .0289917 .29733277 .0289917 .28833009 .0289917 .27833558 .038986207 .27833558 .040985109 .27833558 .050994874 .27833558 .051986696 .28033448 .056991579 .29634095 .083999637 .3903656 .12399292 .42037965 .1579895 .42037965 .1659851 .42037965 .18299866 .42037965 .18299866 .3883667 .18299866 .36335755 .17298889 .3373413 .1659851 .31834413 .12599182 .21231079 .10798645 .1552887 .10798645 .10827637 .10798645 .019256592 .17098999-.0107421879 .22999573-.0107421879 .2689972-.0107421879 .30299378 .0062561037 .33099366 .03425598 .31799317-.017745972 .30599977-.06674194 .2659912-.11973572 .23999024-.15385437 .20199585-.18309021 .1559906-.18309021 .14199829-.18309021 .09700012-.18005371 .07998657-.14074707 .09599304-.14074707 .10899353-.14074707 .12298584-.1287384 .1329956-.11973572 .14299011-.10673523 .14299011-.08773804 .14299011-.056747438 .115997318-.052734376 .10598755-.052734376 .08299255-.052734376 .049987794-.068740848 .049987794-.11773682 .049987794-.16796875 .09399414-.20507813 .1559906-.20507813 .25898744-.20507813 .3619995-.11373901 .3899994-.00074768069L.48599244 .38136292Z"/>
</defs>
<path transform="matrix(1,0,0,-1.00005,41.179,66.634677)" stroke-width=".19925" stroke-linecap="butt" stroke-miterlimit="10" stroke-linejoin="miter" fill="none" stroke="#00aeef" d="M-39.68535-7.93706H51.59094M-39.68535-3.96852H51.59094M-39.68535 0H51.59094M-39.68535 3.96852H51.59094M-39.68535 7.93706H51.59094M-39.68535 11.9056H51.59094M-39.68535 15.87413H51.59094M-39.68535 19.84267H51.59094M-39.68535 23.8112H51.59094M-39.68535 27.77974H51.59094M-39.68535 31.74828H51.59094M-39.68535 35.71681H51.59094M-39.68535 39.68535H51.59094M-39.68535 43.65388H51.59094M-39.68535 47.62242H51.59094M-39.68535 51.58957H51.59094M-39.68535-7.93706V51.59094M-35.71681-7.93706V51.59094M-31.74828-7.93706V51.59094M-27.77974-7.93706V51.59094M-23.8112-7.93706V51.59094M-19.84267-7.93706V51.59094M-15.87413-7.93706V51.59094M-11.9056-7.93706V51.59094M-7.93706-7.93706V51.59094M-3.96852-7.93706V51.59094M0-7.93706V51.59094M3.96852-7.93706V51.59094M7.93706-7.93706V51.59094M11.9056-7.93706V51.59094M15.87413-7.93706V51.59094M19.84267-7.93706V51.59094M23.8112-7.93706V51.59094M27.77974-7.93706V51.59094M31.74828-7.93706V51.59094M35.71681-7.93706V51.59094M39.68535-7.93706V51.59094M43.65388-7.93706V51.59094M47.62242-7.93706V51.59094M51.58957-7.93706V51.59094M51.59094 51.59094"/>
<path transform="matrix(1,0,0,-1.00005,41.179,66.634677)" stroke-width=".79701" stroke-linecap="butt" stroke-miterlimit="10" stroke-linejoin="miter" fill="none" stroke="#000000" d="M-39.68535 0H53.33118"/>
<path transform="matrix(1,0,0,-1.00005,94.51018,66.634677)" d="M1.0361 0C-.25902 .25902-1.55415 .77707-3.1083 1.68365-1.55415 .51805-1.55415-.51805-3.1083-1.68365-1.55415-.77707-.25902-.25902 1.0361 0Z"/>
<path transform="matrix(1,0,0,-1.00005,94.51018,66.634677)" stroke-width=".79701" stroke-linecap="butt" stroke-linejoin="round" fill="none" stroke="#000000" d="M1.0361 0C-.25902 .25902-1.55415 .77707-3.1083 1.68365-1.55415 .51805-1.55415-.51805-3.1083-1.68365-1.55415-.77707-.25902-.25902 1.0361 0Z"/>
<use data-text="x" xlink:href="#font_1_1" transform="matrix(9.9626,0,0,-9.963098,99.664,68.779788)"/>
<path transform="matrix(1,0,0,-1.00005,41.179,66.634677)" stroke-width=".79701" stroke-linecap="butt" stroke-miterlimit="10" stroke-linejoin="miter" fill="none" stroke="#000000" d="M0-7.93706V53.33118"/>
<path transform="matrix(0,-1.00005,-1,-0,41.179,13.300831)" d="M1.0361 0C-.25902 .25902-1.55415 .77707-3.1083 1.68365-1.55415 .51805-1.55415-.51805-3.1083-1.68365-1.55415-.77707-.25902-.25902 1.0361 0Z"/>
<path transform="matrix(0,-1.00005,-1,-0,41.179,13.300831)" stroke-width=".79701" stroke-linecap="butt" stroke-linejoin="round" fill="none" stroke="#000000" d="M1.0361 0C-.25902 .25902-1.55415 .77707-3.1083 1.68365-1.55415 .51805-1.55415-.51805-3.1083-1.68365-1.55415-.77707-.25902-.25902 1.0361 0Z"/>
<use data-text="y" xlink:href="#font_1_2" transform="matrix(9.9626,0,0,-9.963098,38.558,6.209656)"/>
<path transform="matrix(1,0,0,-1.00005,41.179,66.634677)" stroke-width="1.19553" stroke-linecap="butt" stroke-miterlimit="10" stroke-linejoin="miter" fill="none" stroke="#000000" d="M-19.84268-.99213V.99213"/>
<path transform="matrix(1,0,0,-1.00005,41.179,66.634677)" stroke-width="1.19553" stroke-linecap="butt" stroke-miterlimit="10" stroke-linejoin="miter" fill="none" stroke="#000000" d="M19.84268-.99213V.99213"/>
<path transform="matrix(1,0,0,-1.00005,41.179,66.634677)" stroke-width="1.19553" stroke-linecap="butt" stroke-miterlimit="10" stroke-linejoin="miter" fill="none" stroke="#000000" d="M39.68536-.99213V.99213"/>
<path transform="matrix(1,0,0,-1.00005,41.179,66.634677)" stroke-width="1.19553" stroke-linecap="butt" stroke-miterlimit="10" stroke-linejoin="miter" fill="none" stroke="#000000" d="M-.99213 19.84268H.99213"/>
<path transform="matrix(1,0,0,-1.00005,41.179,66.634677)" stroke-width="1.19553" stroke-linecap="butt" stroke-miterlimit="10" stroke-linejoin="miter" fill="none" stroke="#000000" d="M-.99213 39.68536H.99213"/>
<path transform="matrix(1,0,0,-1.00005,41.179,66.634677)" d="M-22.81885 3.96848C-22.81885 4.5164-23.26303 4.9606-23.81097 4.9606-24.35892 4.9606-24.8031 4.5164-24.8031 3.96848-24.8031 3.42053-24.35892 2.97635-23.81097 2.97635-23.26303 2.97635-22.81885 3.42053-22.81885 3.96848ZM-23.81097 3.96848"/>
<path transform="matrix(1,0,0,-1.00005,41.179,66.634677)" stroke-width=".3985" stroke-linecap="butt" stroke-miterlimit="10" stroke-linejoin="miter" fill="none" stroke="#000000" d="M-22.81885 3.96848C-22.81885 4.5164-23.26303 4.9606-23.81097 4.9606-24.35892 4.9606-24.8031 4.5164-24.8031 3.96848-24.8031 3.42053-24.35892 2.97635-23.81097 2.97635-23.26303 2.97635-22.81885 3.42053-22.81885 3.96848ZM-23.81097 3.96848"/>
<path transform="matrix(1,0,0,-1.00005,41.179,66.634677)" stroke-width="1.19553" stroke-linecap="butt" stroke-miterlimit="10" stroke-linejoin="miter" fill="none" stroke="#000000" d="M51.59094 0H0L-23.81097 3.96848-39.68512 6.61551"/>
<path transform="matrix(1,0,0,-1.00005,41.179,66.634677)" stroke-width=".79701" stroke-linecap="butt" stroke-miterlimit="10" stroke-linejoin="miter" fill="none" stroke="#ff0000" d="M7.93706 0C7.93706 4.38356 4.38356 7.93706 0 7.93706-3.87975 7.93706-7.19096 5.13135-7.82866 1.30458"/>
</svg>
