<svg xmlns="http://www.w3.org/2000/svg" xmlns:xlink="http://www.w3.org/1999/xlink" version="1.1" width="130" height="50" viewBox="0 0 130 50">
<defs>
<path id="font_1_1" d="M.1789856 .114868167C.13899231 .047973634 .099990848 .033981325 .055999757 .0309906 .04399109 .02999878 .034988405 .02999878 .034988405 .010986328 .034988405 .004989624 .039993287 0 .04798889 0 .07499695 0 .10598755 .0029907227 .13398743 .0029907227 .16699219 .0029907227 .20199585 0 .23399353 0 .23999024 0 .25299073 0 .25299073 .018997193 .25299073 .02999878 .24398804 .0309906 .23699951 .0309906 .21398926 .032989503 .18998719 .04096985 .18998719 .06593323 .18998719 .077926639 .19599915 .088897708 .20399475 .102890018L.27999879 .23068238H.5309906C.5329895 .2097168 .5469971 .07392883 .5469971 .063949588 .5469971 .033981325 .49499513 .0309906 .47499085 .0309906 .46099855 .0309906 .45098878 .0309906 .45098878 .010986328 .45098878 0 .46299745 0 .46499635 0 .5059967 0 .548996 .0029907227 .58999636 .0029907227 .61499026 .0029907227 .6779938 0 .7029877 0 .70899966 0 .72099307 0 .72099307 .019989014 .72099307 .0309906 .71099856 .0309906 .69799807 .0309906 .6359863 .0309906 .6359863 .037979127 .6329956 .06694031L.57199099 .691803C.56999209 .71180728 .56999209 .7158203 .5529938 .7158203 .5369873 .7158203 .5329895 .7088165 .5269928 .69880679L.1789856 .114868167M.29899598 .26168824 .49598695 .5917816 .5279999 .26168824H.29899598Z"/>
<path id="font_1_2" d="M.1599884 .07795715C.1499939 .038986207 .147995 .0309906 .068984989 .0309906 .051986696 .0309906 .041992189 .0309906 .041992189 .010986328 .041992189 0 .050994874 0 .068984989 0H.42599488C.58399966 0 .70199587 .11791992 .70199587 .21585083 .70199587 .28778077 .6439972 .3457489 .5469971 .35673524 .651001 .37573243 .7559967 .44970704 .7559967 .5446625 .7559967 .6186218 .6899872 .6826172 .56999209 .6826172H.23399353C.21499634 .6826172 .20498657 .6826172 .20498657 .6626129 .20498657 .6516113 .21398926 .6516113 .23298645 .6516113 .23498535 .6516113 .2539978 .6516113 .2709961 .6496124 .2889862 .6476135 .2979889 .64660647 .2979889 .6336212 .2979889 .6296234 .29699708 .62661746 .2939911 .614624L.1599884 .07795715M.31098939 .36573792 .37298585 .6136322C.38198854 .64860537 .38398744 .6516113 .4269867 .6516113H.55599978C.6439972 .6516113 .6649933 .5926361 .6649933 .5486603 .6649933 .46069337 .57899478 .36573792 .45700074 .36573792H.31098939M.2659912 .0309906C.2519989 .0309906 .25 .0309906 .24398804 .03199768 .23399353 .032989503 .23098755 .033996583 .23098755 .04197693 .23098755 .04498291 .23098755 .04698181 .23599243 .064971927L.30499269 .34375H.49398805C.58999636 .34375 .60899356 .2698059 .60899356 .22683716 .60899356 .12791443 .519989 .0309906 .4019928 .0309906H.2659912Z"/>
<path id="font_1_3" d="M.7599945 .69506838C.7599945 .69807437 .7579956 .7050781 .7489929 .7050781 .74598696 .7050781 .7449951 .70407107 .73399356 .69306948L.6639862 .61602786C.6549988 .6300354 .60899356 .7050781 .49798585 .7050781 .2749939 .7050781 .049987794 .48391725 .049987794 .25172425 .049987794 .08659363 .16799927-.022460938 .32099916-.022460938 .4079895-.022460938 .48399354 .017532349 .5369873 .063583377 .6299896 .14564514 .6469879 .2367096 .6469879 .23971558 .6469879 .24972534 .6369934 .24972534 .6349945 .24972534 .6289978 .24972534 .6239929 .24772644 .621994 .23971558 .61299136 .21069336 .58999636 .13963318 .5209961 .081588748 .45199586 .025543213 .3889923 .008529663 .33699037 .008529663 .24699402 .008529663 .14099121 .060577394 .14099121 .21670532 .14099121 .27374269 .1619873 .43588258 .2619934 .55296328 .32299806 .62402346 .4169922 .67407229 .5059967 .67407229 .60798647 .67407229 .6669922 .5970001 .6669922 .48091126 .6669922 .44088746 .6639862 .43988038 .6639862 .4298706 .6639862 .41986085 .6749878 .41986085 .67900088 .41986085 .69200137 .41986085 .69200137 .42185975 .69699099 .43988038L.7599945 .69506838Z"/>
<path id="font_2_1" d="M.31399537 .63708499C.31399537 .664032 .31199647 .66503909 .2849884 .66503909 .24398804 .6251831 .19099427 .6013489 .09599304 .6013489V.5683594C.12298584 .5683594 .1769867 .5683594 .23498535 .5953522V.08203125C.23498535 .04499817 .23199463 .032989503 .13699341 .032989503H.101989749V0C.14299011 .0029907227 .22898865 .0029907227 .27398683 .0029907227 .31900025 .0029907227 .4059906 .0029907227 .44699098 0V.032989503H.4119873C.31698609 .032989503 .31399537 .04499817 .31399537 .08203125V.63708499Z"/>
<path id="font_2_2" d="M.3919983 .29478456C.3919983 .050704957 .27598573 .008514404 .21798706 .008514404 .19699097 .008514404 .14498902 .011520386 .117996219 .04270935 .1619873 .046707155 .16499329 .079711917 .16499329 .08970642 .16499329 .1197052 .14199829 .13671875 .117996219 .13671875 .099990848 .13671875 .070999149 .12571717 .070999149 .08770752 .070999149 .019577027 .1269989-.021484375 .21899414-.021484375 .35598756-.021484375 .48599244 .114715579 .48599244 .3287964 .48599244 .58898928 .37098695 .66503909 .2679901 .66503909 .1499939 .66503909 .04399109 .5729828 .04399109 .44187928 .04399109 .31278993 .14099121 .21875 .2539978 .21875 .32499696 .21875 .36799623 .26374818 .3919983 .31478883V.29478456M.2579956 .24674988C.21199036 .24674988 .18299866 .26776124 .16099549 .30477906 .13798523 .34181214 .13798523 .3898468 .13798523 .44088746 .13798523 .4999237 .13798523 .54196169 .16499329 .58299258 .18998719 .61901858 .22200012 .6390381 .2689972 .6390381 .33599855 .6390381 .36499024 .5729828 .36799623 .5679779 .3889923 .51893618 .3899994 .44088746 .3899994 .42086793 .3899994 .34181214 .34700013 .24674988 .2579956 .24674988Z"/>
<path id="font_3_1" d="M.54499819 .25C.54499819 .3768463 .44299317 .47679139 .31900025 .47679139 .19499207 .47679139 .09298706 .3758545 .09298706 .25 .09298706 .12313843 .19499207 .02319336 .31900025 .02319336 .44299317 .02319336 .54499819 .12413025 .54499819 .25M.31900025 .07519531C.22299195 .07519531 .14498902 .15209961 .14498902 .25 .14498902 .34788514 .22299195 .4248047 .31900025 .4248047 .4149933 .4248047 .49299623 .34788514 .49299623 .25 .49299623 .15209961 .4149933 .07519531 .31900025 .07519531Z"/>
<path id="font_4_56" d="M.44898988 .20091248C.44898988 .31991578 .36698915 .41992188 .25898744 .41992188 .21099854 .41992188 .16799927 .4039154 .13198853 .36891175V.5641022C.1519928 .55778506 .18499756 .55078127 .21699524 .55078127 .33999635 .55078127 .4099884 .6418457 .4099884 .65493777 .4099884 .6609802 .40699769 .6660156 .3999939 .6660156 .3999939 .66607668 .39698792 .66607668 .3919983 .66308596 .37199403 .65408328 .32299806 .63378909 .2559967 .63378909 .21598816 .63409426 .16999817 .641098 .12298584 .6621094 .114990238 .6651001 .11099243 .6651001 .11099243 .6651001 .100997928 .66508486 .100997928 .657074 .100997928 .64108279V.3447113C.100997928 .3266449 .100997928 .31861878 .114990238 .31861878 .12199402 .31861878 .12399292 .32164 .12799073 .32765199 .13899231 .34371949 .17599488 .3979187 .25698854 .3979187 .30899049 .3979187 .33399964 .3517456 .34199525 .3336792 .35798646 .2965393 .3600006 .2574005 .3600006 .20721436 .3600006 .17218018 .3600006 .112197879 .33599855 .07032776 .31199647 .031448366 .2749939 .0055389406 .22898865 .0055389406 .1559906 .0055389406 .09899902 .05836487 .08198547 .1171875 .084991458 .11685181 .08799744 .115859989 .09899902 .115859989 .13198853 .115859989 .14898682 .14085388 .14898682 .16485596 .14898682 .18885803 .13198853 .21386719 .09899902 .21386719 .084991458 .21386719 .049987794 .2068634 .049987794 .16085816 .049987794 .07432556 .11898804-.022460938 .23098755-.022460938 .34700013-.022460938 .44898988 .07331848 .44898988 .20019531V.20091248Z"/>
<path id="font_4_107" d="M.44898988 .17396546H.42399598C.4189911 .14398194 .4119873 .099990848 .4019928 .084991458 .394989 .07699585 .32899476 .07699585 .30699159 .07699585H.1269989L.23298645 .17996216C.3889923 .31803895 .44898988 .37210084 .44898988 .47216798 .44898988 .5860901 .35899354 .6660156 .23699951 .6660156 .12399292 .6660156 .049987794 .57411196 .049987794 .48516847 .049987794 .4291687 .099990848 .4291687 .102996829 .4291687 .11999512 .4291687 .15499878 .44117738 .15499878 .48217774 .15499878 .5081787 .13699341 .5341797 .101989749 .5341797 .09399414 .5341797 .09199524 .5341797 .08898926 .5331726 .11199951 .59806826 .1659851 .63500979 .22399903 .63500979 .31498719 .63500979 .35798646 .5541382 .35798646 .47216798 .35798646 .39196778 .30799867 .31297303 .25299073 .25097657L.06098938 .036987306C.049987794 .025985718 .049987794 .023986817 .049987794 0H.42099L.44898988 .17396546Z"/>
<path id="font_4_106" d="M.45700074 .17037964C.45700074 .252594 .3939972 .33088685 .2899933 .35191346 .37199403 .37893678 .42999269 .4490509 .42999269 .52809146 .42999269 .6100464 .34199525 .6660156 .24598694 .6660156 .14498902 .6660156 .068984989 .60606387 .068984989 .53009036 .068984989 .49710084 .09098816 .47808839 .11999512 .47808839 .15098572 .47808839 .17098999 .50009158 .17098999 .5290985 .17098999 .57910159 .12399292 .57910159 .10899353 .57910159 .13999939 .62802127 .20599365 .64100649 .24198914 .64100649 .2829895 .64100649 .33799745 .6190338 .33799745 .5290985 .33799745 .51708987 .33599855 .45906068 .30999757 .4149933 .27999879 .36691285 .24598694 .36390687 .22099304 .36291505 .21299744 .36190797 .18899536 .35990907 .18199158 .35990907 .17399597 .35890199 .16699219 .35791017 .16699219 .3479004 .16699219 .33691407 .17399597 .33691407 .19099427 .33691407H.23498535C.31698609 .33691407 .35398866 .2686615 .35398866 .17037964 .35398866 .034469606 .2849884 .0055389406 .24099732 .0055389406 .19799805 .0055389406 .12298584 .022491456 .08799744 .08137512 .12298584 .07637024 .1539917 .09837341 .1539917 .1363678 .1539917 .17237854 .1269989 .19238281 .09799194 .19238281 .07398987 .19238281 .041992189 .17837525 .041992189 .1343689 .041992189 .043441774 .1349945-.022460938 .24398804-.022460938 .3659973-.022460938 .45700074 .06838989 .45700074 .17037964Z"/>
<path id="font_4_101" d="M.45700074 .2036438C.45700074 .33070375 .36799623 .4267578 .25698854 .4267578 .18899536 .4267578 .1519928 .37573243 .13198853 .327713V.35173036C.13198853 .6047821 .2559967 .64100649 .30699159 .64100649 .33099366 .64100649 .37298585 .634964 .394989 .6007538 .37998963 .6007538 .33999635 .6007538 .33999635 .5557556 .33999635 .524765 .3639984 .5097656 .38598634 .5097656 .4019928 .5097656 .43199159 .51875308 .43199159 .5577545 .43199159 .6178589 .3880005 .6660156 .30499269 .6660156 .1769867 .6660156 .041992189 .5367584 .041992189 .31570436 .041992189 .048553468 .1579895-.022460938 .25099183-.022460938 .3619995-.022460938 .45700074 .07156372 .45700074 .2036438M.36698915 .20463562C.36698915 .15661621 .36698915 .10658264 .34999085 .0705719 .31999208 .010528564 .27398683 .0055389406 .25099183 .0055389406 .18798828 .0055389406 .1579895 .06556702 .1519928 .080566409 .13398743 .127594 .13398743 .2076416 .13398743 .22564698 .13398743 .30369569 .1659851 .40374757 .2559967 .40374757 .27198792 .40374757 .31799317 .40374757 .34899903 .34172059 .36698915 .30470277 .36698915 .2536621 .36698915 .20463562Z"/>
</defs>
<path transform="matrix(1.00002,0,0,-1.00003,117.17105,38.33676)" d="M-36.65167 0C-36.65167 .11003-36.74089 .19925-36.85092 .19925-36.96095 .19925-37.05017 .11003-37.05017 0-37.05017-.11003-36.96095-.19925-36.85092-.19925-36.74089-.19925-36.65167-.11003-36.65167 0ZM-36.85092 0"/>
<path transform="matrix(1.00002,0,0,-1.00003,117.17105,38.33676)" stroke-width=".3985" stroke-linecap="butt" stroke-miterlimit="10" stroke-linejoin="miter" fill="none" stroke="#000000" d="M-36.65167 0C-36.65167 .11003-36.74089 .19925-36.85092 .19925-36.96095 .19925-37.05017 .11003-37.05017 0-37.05017-.11003-36.96095-.19925-36.85092-.19925-36.74089-.19925-36.65167-.11003-36.65167 0ZM-36.85092 0"/>
<use data-text="A" xlink:href="#font_1_1" transform="matrix(9.962799,0,0,-9.962899,69.3271,48.66507)"/>
<path transform="matrix(1.00002,0,0,-1.00003,117.17105,38.33676)" d="M.19925 0C.19925 .11003 .11003 .19925 0 .19925-.11003 .19925-.19925 .11003-.19925 0-.19925-.11003-.11003-.19925 0-.19925 .11003-.19925 .19925-.11003 .19925 0ZM0 0"/>
<path transform="matrix(1.00002,0,0,-1.00003,117.17105,38.33676)" stroke-width=".3985" stroke-linecap="butt" stroke-miterlimit="10" stroke-linejoin="miter" fill="none" stroke="#000000" d="M.19925 0C.19925 .11003 .11003 .19925 0 .19925-.11003 .19925-.19925 .11003-.19925 0-.19925-.11003-.11003-.19925 0-.19925 .11003-.19925 .19925-.11003 .19925 0ZM0 0"/>
<use data-text="B" xlink:href="#font_1_2" transform="matrix(9.962799,0,0,-9.962899,120.691127,41.740865)"/>
<path transform="matrix(1.00002,0,0,-1.00003,117.17105,38.33676)" d="M-104.40054 36.00056C-104.40054 36.1106-104.48976 36.19981-104.5998 36.19981-104.70982 36.19981-104.79904 36.1106-104.79904 36.00056-104.79904 35.89052-104.70982 35.8013-104.5998 35.8013-104.48976 35.8013-104.40054 35.89052-104.40054 36.00056ZM-104.5998 36.00056"/>
<path transform="matrix(1.00002,0,0,-1.00003,117.17105,38.33676)" stroke-width=".3985" stroke-linecap="butt" stroke-miterlimit="10" stroke-linejoin="miter" fill="none" stroke="#000000" d="M-104.40054 36.00056C-104.40054 36.1106-104.48976 36.19981-104.5998 36.19981-104.70982 36.19981-104.79904 36.1106-104.79904 36.00056-104.79904 35.89052-104.70982 35.8013-104.5998 35.8013-104.48976 35.8013-104.40054 35.89052-104.40054 36.00056ZM-104.5998 36.00056"/>
<use data-text="C" xlink:href="#font_1_3" transform="matrix(9.962799,0,0,-9.962899,1.2157288,8.727873)"/>
<path transform="matrix(1.00002,0,0,-1.00003,117.17105,38.33676)" stroke-width=".79701" stroke-linecap="butt" stroke-miterlimit="10" stroke-linejoin="miter" fill="none" stroke="#ff0000" d="M-19.84267 0C-19.84267 2.19783-19.47719 4.38235-18.76175 6.4603"/>
<use data-text="1" xlink:href="#font_2_1" transform="matrix(7.9702599,0,0,-7.9703395,81.09633,36.89772)" fill="#ff0000"/>
<use data-text="9" xlink:href="#font_2_2" transform="matrix(7.9702599,0,0,-7.9703395,85.32854,36.89772)" fill="#ff0000"/>
<use data-text="&#x25e6;" xlink:href="#font_3_1" transform="matrix(5.97772,0,0,-5.97778,89.5645,34.085634)" fill="#ff0000"/>
<path transform="matrix(1.00002,0,0,-1.00003,117.17105,38.33676)" stroke-width=".79701" stroke-linecap="butt" stroke-miterlimit="10" stroke-linejoin="miter" fill="none" stroke="#000000" d="M-104.5998 36.00056 0 0"/>
<use data-text="5" xlink:href="#font_4_56" transform="matrix(9.962799,0,0,-9.962899,59.8889,16.398102)" fill="#0000ff"/>
<use data-text="2" xlink:href="#font_4_107" transform="matrix(9.962799,0,0,-9.962899,64.8703,16.398102)" fill="#0000ff"/>
<path transform="matrix(1.00002,0,0,-1.00003,117.17105,38.33676)" stroke-width=".79701" stroke-linecap="butt" stroke-miterlimit="10" stroke-linejoin="miter" fill="none" stroke="#000000" d="M-36.85092 0-104.5998 36.00056"/>
<use data-text="3" xlink:href="#font_4_106" transform="matrix(9.962799,0,0,-9.962899,32.76236,30.690533)" fill="#0000ff"/>
<use data-text="6" xlink:href="#font_4_101" transform="matrix(9.962799,0,0,-9.962899,37.74376,30.690533)" fill="#0000ff"/>
<path transform="matrix(1.00002,0,0,-1.00003,117.17105,38.33676)" stroke-width=".79701" stroke-linecap="butt" stroke-miterlimit="10" stroke-linejoin="miter" fill="none" stroke="#000000" d="M-36.85092 0H0"/>
</svg>
