<svg xmlns="http://www.w3.org/2000/svg" xmlns:xlink="http://www.w3.org/1999/xlink" version="1.1" width="120" height="114" viewBox="0 0 120 114">
<defs>
<path id="font_1_1" d="M.45498658 .5001831C.45498658 .56614688 .43699647 .7050781 .33499146 .7050781 .19599915 .7050781 .041992189 .42323304 .041992189 .19425965 .041992189 .100250247 .070999149-.0107421879 .1619873-.0107421879 .30299378-.0107421879 .45498658 .27627564 .45498658 .5001831M.147995 .36328126C.16499329 .42723084 .18499756 .5071869 .22499085 .57814028 .2519989 .6271057 .2889862 .68307498 .33399964 .68307498 .3829956 .68307498 .3889923 .6191101 .3889923 .56214907 .3889923 .5131836 .3809967 .46220399 .35699464 .36328126H.147995M.34799195 .3312683C.33699037 .28527833 .31599427 .2002716 .27799989 .12826538 .24299622 .060256959 .20498657 .011245728 .1619873 .011245728 .1289978 .011245728 .10798645 .040252687 .10798645 .133255 .10798645 .17526245 .11399841 .23326111 .13999939 .3312683H.34799195Z"/>
<path id="font_1_5" d="M.48599244 .38136292C.48999024 .39537049 .48999024 .39736939 .48999024 .40437318 .48999024 .42237855 .47599793 .43138124 .46099855 .43138124 .45098878 .43138124 .43499757 .42536927 .42599488 .41036988 .42399598 .405365 .41600038 .37435914 .4119873 .35635377 .40499879 .33035279 .397995 .30334474 .3919983 .27633668L.34700013 .09628296C.34298707 .08126831 .2999878 .011245728 .23399353 .011245728 .18299866 .011245728 .17199707 .055267335 .17199707 .0922699 .17199707 .1382904 .18899536 .20030213 .22299195 .28833009 .23899842 .3293457 .24299622 .3403473 .24299622 .36035157 .24299622 .405365 .21099854 .4423828 .16099549 .4423828 .06599426 .4423828 .0289917 .29733277 .0289917 .28833009 .0289917 .27833558 .038986207 .27833558 .040985109 .27833558 .050994874 .27833558 .051986696 .28033448 .056991579 .29634095 .083999637 .3903656 .12399292 .42037965 .1579895 .42037965 .1659851 .42037965 .18299866 .42037965 .18299866 .3883667 .18299866 .36335755 .17298889 .3373413 .1659851 .31834413 .12599182 .21231079 .10798645 .1552887 .10798645 .10827637 .10798645 .019256592 .17098999-.0107421879 .22999573-.0107421879 .2689972-.0107421879 .30299378 .0062561037 .33099366 .03425598 .31799317-.017745972 .30599977-.06674194 .2659912-.11973572 .23999024-.15385437 .20199585-.18309021 .1559906-.18309021 .14199829-.18309021 .09700012-.18005371 .07998657-.14074707 .09599304-.14074707 .10899353-.14074707 .12298584-.1287384 .1329956-.11973572 .14299011-.10673523 .14299011-.08773804 .14299011-.056747438 .115997318-.052734376 .10598755-.052734376 .08299255-.052734376 .049987794-.068740848 .049987794-.11773682 .049987794-.16796875 .09399414-.20507813 .1559906-.20507813 .25898744-.20507813 .3619995-.11373901 .3899994-.00074768069L.48599244 .38136292Z"/>
<path id="font_1_2" d="M.7630005 .60565188C.7719879 .6416168 .7739868 .6516113 .8470001 .6516113 .8730011 .6516113 .8809967 .6516113 .8809967 .6716156 .8809967 .6826172 .8699951 .6826172 .86698916 .6826172 .83898928 .6826172 .7669983 .6796112 .7389984 .6796112 .70999148 .6796112 .6389923 .6826172 .6100006 .6826172 .60198977 .6826172 .59098818 .6826172 .59098818 .6626129 .59098818 .6516113 .59999087 .6516113 .61898806 .6516113 .62098696 .6516113 .6399994 .6516113 .6569977 .6496124 .6749878 .6476135 .6839905 .6466217 .6839905 .6336212 .6839905 .6296234 .68299868 .6276245 .6799927 .6146393L.6199951 .37083436H.31498719L.37399293 .60565188C.3829956 .6416168 .38598634 .6516113 .45799256 .6516113 .48399354 .6516113 .49198915 .6516113 .49198915 .6716156 .49198915 .6826172 .48098756 .6826172 .47799684 .6826172 .44999696 .6826172 .37799073 .6796112 .34999085 .6796112 .32099916 .6796112 .25 .6826172 .22099304 .6826172 .21299744 .6826172 .20199585 .6826172 .20199585 .6626129 .20199585 .6516113 .21099854 .6516113 .22999573 .6516113 .23199463 .6516113 .25099183 .6516113 .2679901 .6496124 .28599549 .6476135 .29499818 .6466217 .29499818 .6336212 .29499818 .6296234 .2939911 .6266327 .29100038 .6146393L.15699768 .07797241C.14698792 .038986207 .14498902 .0309906 .06599426 .0309906 .04798889 .0309906 .038986207 .0309906 .038986207 .010986328 .038986207 0 .050994874 0 .052993776 0 .08099365 0 .1519928 .0029907227 .17999268 .0029907227 .20098877 .0029907227 .22299195 .0019989014 .24398804 .0019989014 .2659912 .0019989014 .28799439 0 .30899049 0 .31698609 0 .32899476 0 .32899476 .019989014 .32899476 .0309906 .31999208 .0309906 .30099488 .0309906 .2639923 .0309906 .23599243 .0309906 .23599243 .048980714 .23599243 .054977418 .23799134 .0599823 .23899842 .065979007L.30699159 .33984376H.6119995C.56999209 .17391968 .5469971 .07896423 .54299929 .0639801 .5329895 .03199768 .5139923 .0309906 .45199586 .0309906 .43699647 .0309906 .42799378 .0309906 .42799378 .010986328 .42799378 0 .43998719 0 .44198609 0 .46998597 0 .54100039 .0029907227 .56900027 .0029907227 .58999636 .0029907227 .6119995 .0019989014 .6329956 .0019989014 .6549988 .0019989014 .6769867 0 .69799807 0 .70599368 0 .71798709 0 .71798709 .019989014 .71798709 .0309906 .70899966 .0309906 .6899872 .0309906 .6529999 .0309906 .625 .0309906 .625 .048980714 .625 .054977418 .6269989 .0599823 .6279907 .065979007L.7630005 .60565188Z"/>
<path id="font_1_3" d="M.37399293 .6056366C.3829956 .6416168 .38598634 .6516113 .46499635 .6516113 .4889984 .6516113 .49699403 .6516113 .49699403 .6706085 .49699403 .6826172 .48599244 .6826172 .48199464 .6826172 .45298768 .6826172 .3789978 .6796112 .34999085 .6796112 .31999208 .6796112 .24699402 .6826172 .21699524 .6826172 .20999146 .6826172 .19699097 .6826172 .19699097 .6626129 .19699097 .6516113 .20599365 .6516113 .22499085 .6516113 .2669983 .6516113 .2939911 .6516113 .2939911 .63261416 .2939911 .6276245 .2939911 .6256256 .2919922 .6166229L.15699768 .07795715C.147995 .040985109 .14498902 .0309906 .06599426 .0309906 .042999269 .0309906 .033996583 .0309906 .033996583 .010986328 .033996583 0 .04598999 0 .04899597 0 .07798767 0 .15098572 .0029907227 .17999268 .0029907227 .20999146 .0029907227 .28399659 0 .31399537 0 .32199098 0 .33399964 0 .33399964 .018997193 .33399964 .0309906 .32598878 .0309906 .3039856 .0309906 .28599549 .0309906 .2809906 .0309906 .26098634 .032989503 .23999024 .034988405 .23599243 .038986207 .23599243 .049987794 .23599243 .05796814 .23799134 .065963748 .23999024 .07296753L.37399293 .6056366Z"/>
<path id="font_1_4" d="M.54100039 .6096039C.548996 .64260867 .5509949 .6516113 .60598757 .6516113 .621994 .6516113 .6329956 .6516113 .6329956 .6706085 .6329956 .6796112 .6269989 .6826172 .61898806 .6826172 .59399417 .6826172 .5329895 .6796112 .5079956 .6796112 .47499085 .6796112 .3939972 .6826172 .36099244 .6826172 .35198976 .6826172 .33999635 .6826172 .33999635 .6626129 .33999635 .6516113 .34799195 .6516113 .37399293 .6516113 .39698792 .6516113 .40699769 .6516113 .43199159 .6496124 .45599366 .64660647 .46299745 .64360049 .46299745 .62960818 .46299745 .62361147 .46099855 .61660769 .45899964 .60861209L.34399415 .1496582C.31999208 .052642824 .2519989-.00047302247 .19999695-.00047302247 .17399597-.00047302247 .12098694 .009552002 .10499573 .061660768 .10798645 .060653688 .114990238 .060653688 .116989139 .060653688 .1559906 .060653688 .18199158 .09465027 .18199158 .12464905 .18199158 .15666199 .15499878 .1666565 .13798523 .1666565 .11999512 .1666565 .070999149 .15466309 .070999149 .08665466 .070999149 .02458191 .12399292-.022460938 .20298767-.022460938 .29499818-.022460938 .39898683 .043624879 .42399598 .14265442L.54100039 .6096039Z"/>
</defs>
<path transform="matrix(1.00003,0,0,-1.00005,13.828972,90.10486)" stroke-width=".3985" stroke-linecap="butt" stroke-miterlimit="10" stroke-linejoin="miter" fill="none" stroke="#00aeef" d="M0-22.6771H90.70839M0-11.33855H90.70839M0 0H90.70839M0 11.33855H90.70839M0 22.6771H90.70839M0 34.01564H90.70839M0 45.35419H90.70839M0 56.69275H90.70839M0 68.02731H90.70839M0-22.6771V68.0313M11.33855-22.6771V68.0313M22.6771-22.6771V68.0313M34.01564-22.6771V68.0313M45.35419-22.6771V68.0313M56.69275-22.6771V68.0313M68.0313-22.6771V68.0313M79.36984-22.6771V68.0313M90.7044-22.6771V68.0313M90.70839 68.0313"/>
<path transform="matrix(1.00003,0,0,-1.00005,13.828972,90.10486)" stroke-width=".79701" stroke-linecap="butt" stroke-miterlimit="10" stroke-linejoin="miter" fill="none" stroke="#000000" d="M0 0H94.94305"/>
<path transform="matrix(1.00003,0,0,-1.00005,108.77487,90.10486)" d="M1.0361 0C-.25902 .25902-1.55415 .77707-3.1083 1.68365-1.55415 .51805-1.55415-.51805-3.1083-1.68365-1.55415-.77707-.25902-.25902 1.0361 0Z"/>
<path transform="matrix(1.00003,0,0,-1.00005,108.77487,90.10486)" stroke-width=".79701" stroke-linecap="butt" stroke-linejoin="round" fill="none" stroke="#000000" d="M1.0361 0C-.25902 .25902-1.55415 .77707-3.1083 1.68365-1.55415 .51805-1.55415-.51805-3.1083-1.68365-1.55415-.77707-.25902-.25902 1.0361 0Z"/>
<use data-text="&#x03b8;" xlink:href="#font_1_1" transform="matrix(9.962899,0,0,-9.963098,113.92898,93.56403)"/>
<path transform="matrix(1.00003,0,0,-1.00005,13.828972,90.10486)" stroke-width=".79701" stroke-linecap="butt" stroke-miterlimit="10" stroke-linejoin="miter" fill="none" stroke="#000000" d="M0-22.6771V76.8013"/>
<path transform="matrix(0,-1.00005,-1.00003,-0,13.828972,13.299721)" d="M1.0361 0C-.25902 .25902-1.55415 .77707-3.1083 1.68365-1.55415 .51805-1.55415-.51805-3.1083-1.68365-1.55415-.77707-.25902-.25902 1.0361 0Z"/>
<path transform="matrix(0,-1.00005,-1.00003,-0,13.828972,13.299721)" stroke-width=".79701" stroke-linecap="butt" stroke-linejoin="round" fill="none" stroke="#000000" d="M1.0361 0C-.25902 .25902-1.55415 .77707-3.1083 1.68365-1.55415 .51805-1.55415-.51805-3.1083-1.68365-1.55415-.77707-.25902-.25902 1.0361 0Z"/>
<use data-text="y" xlink:href="#font_1_5" transform="matrix(9.962899,0,0,-9.963098,11.207893,6.2086718)"/>
<path transform="matrix(1.00003,0,0,-1.00005,13.828972,90.10486)" stroke-width="1.19553" stroke-linecap="butt" stroke-miterlimit="10" stroke-linejoin="miter" fill="none" stroke="#ff0000" d="M0 22.6771C0 22.6771 1.024 24.28584 1.4173 24.8996 1.8106 25.51337 2.44133 26.49574 2.83461 27.10066 3.22792 27.7056 3.85863 28.66928 4.25194 29.25952 4.64523 29.84976 5.27596 30.78487 5.66925 31.35469 6.06256 31.92453 6.69327 32.82254 7.08658 33.3665 7.47989 33.91045 8.1106 34.76237 8.5039 35.27516 8.89719 35.78796 9.52792 36.5855 9.92122 37.06238 10.31451 37.53928 10.94524 38.27611 11.33855 38.71223 11.73183 39.14836 12.36255 39.81448 12.75584 40.20569 13.14915 40.59686 13.77988 41.18895 14.17316 41.53165 14.56647 41.87434 15.19719 42.38486 15.59048 42.67561 15.9838 42.96635 16.6145 43.39111 17.00781 43.62718 17.40111 43.86324 18.03183 44.19794 18.42513 44.37701 18.81844 44.55608 19.44914 44.79759 19.84245 44.91786 20.23575 45.03812 20.86647 45.18327 21.25977 45.2438 21.65306 45.30435 22.28378 45.35419 22.6771 45.35419 23.07039 45.35419 23.70111 45.30435 24.09439 45.2438 24.4877 45.18327 25.11842 45.03812 25.51172 44.91786 25.90501 44.79759 26.53575 44.55608 26.92903 44.37701 27.32234 44.19794 27.95305 43.86324 28.34636 43.62718 28.73965 43.39111 29.37038 42.96635 29.76367 42.67561 30.15698 42.38486 30.78769 41.87434 31.181 41.53165 31.57431 41.18895 32.20502 40.59686 32.59833 40.20569 32.99161 39.81448 33.62234 39.14836 34.01564 38.71223 34.40894 38.27611 35.03966 37.53928 35.43295 37.06238 35.82625 36.5855 36.45697 35.78796 36.85027 35.27516 37.24358 34.76237 37.8743 33.91045 38.26758 33.3665 38.66089 32.82254 39.29161 31.92453 39.6849 31.35469 40.07822 30.78487 40.70892 29.84976 41.10223 29.25952 41.49553 28.66928 42.12625 27.7056 42.51955 27.10066 42.91286 26.49574 43.54356 25.51337 43.93687 24.8996 44.33017 24.28584 44.96089 23.29382 45.35419 22.6771 45.74748 22.06036 46.3782 21.06833 46.77151 20.45457 47.1648 19.8408 47.79553 18.85843 48.18881 18.2535 48.58212 17.64857 49.21284 16.68488 49.60614 16.09465 49.99944 15.50441 50.63017 14.56929 51.02345 13.99947 51.41676 13.42963 52.04747 12.53163 52.44078 11.98769 52.83408 11.44373 53.4648 10.5918 53.8581 10.07901 54.2514 9.56621 54.88211 8.76866 55.27542 8.2918 55.66873 7.81491 56.29944 7.07806 56.69275 6.64194 57.08603 6.20581 57.71675 5.53967 58.11006 5.1485 58.50334 4.7573 59.13408 4.1652 59.52737 3.82251 59.92067 3.47981 60.55139 2.96931 60.94469 2.67856 61.338 2.38782 61.96872 1.96306 62.36201 1.727 62.75531 1.49092 63.38603 1.15623 63.77933 .97716 64.17264 .79808 64.80334 .55658 65.19666 .43633 65.58995 .31606 66.22067 .17091 66.61397 .11035 67.00728 .04982 67.63799 0 68.0313 0 68.42459 0 69.0553 .04982 69.44861 .11035 69.8419 .17091 70.47263 .31606 70.86594 .43633 71.25922 .55658 71.88995 .79808 72.28323 .97716 72.67654 1.15623 73.30727 1.49092 73.70056 1.727 74.09386 1.96306 74.7246 2.38782 75.11787 2.67856 75.51118 2.96931 76.14189 3.47981 76.5352 3.82251 76.9285 4.1652 77.55922 4.7573 77.95251 5.1485 78.34583 5.53967 78.97653 6.20581 79.36984 6.64194 79.76315 7.07806 80.39386 7.81491 80.78716 8.2918 81.18045 8.76866 81.81117 9.56621 82.20448 10.07901 82.59776 10.5918 83.2285 11.44373 83.6218 11.98769 84.01509 12.53163 84.64581 13.42963 85.03911 13.99947 85.43242 14.56929 86.06314 15.50441 86.45644 16.09465 86.84973 16.68488 87.48045 17.64857 87.87375 18.2535 88.26706 18.85843 88.89777 19.8408 89.29108 20.45457 89.68437 21.06833 90.70839 22.6771 90.70839 22.6771"/>
<path transform="matrix(1.00003,0,0,-1.00005,13.828972,90.10486)" d="M1.19551 22.67784C1.19551 23.33812 .66026 23.87337 0 23.87337-.66026 23.87337-1.19551 23.33812-1.19551 22.67784-1.19551 22.01758-.66026 21.48233 0 21.48233 .66026 21.48233 1.19551 22.01758 1.19551 22.67784ZM0 22.67784" fill="#0000ff"/>
<path transform="matrix(1.00003,0,0,-1.00005,13.828972,90.10486)" stroke-width=".3985" stroke-linecap="butt" stroke-miterlimit="10" stroke-linejoin="miter" fill="none" stroke="#0000ff" d="M1.19551 22.67784C1.19551 23.33812 .66026 23.87337 0 23.87337-.66026 23.87337-1.19551 23.33812-1.19551 22.67784-1.19551 22.01758-.66026 21.48233 0 21.48233 .66026 21.48233 1.19551 22.01758 1.19551 22.67784ZM0 22.67784"/>
<use data-text="H" xlink:href="#font_1_2" transform="matrix(9.962899,0,0,-9.963098,1.2175903,70.829898)" fill="#0000ff"/>
<path transform="matrix(1.00003,0,0,-1.00005,13.828972,90.10486)" d="M38.95415 34.01677C38.95415 34.67705 38.4189 35.2123 37.75864 35.2123 37.09837 35.2123 36.56313 34.67705 36.56313 34.01677 36.56313 33.3565 37.09837 32.82126 37.75864 32.82126 38.4189 32.82126 38.95415 33.3565 38.95415 34.01677ZM37.75864 34.01677" fill="#0000ff"/>
<path transform="matrix(1.00003,0,0,-1.00005,13.828972,90.10486)" stroke-width=".3985" stroke-linecap="butt" stroke-miterlimit="10" stroke-linejoin="miter" fill="none" stroke="#0000ff" d="M38.95415 34.01677C38.95415 34.67705 38.4189 35.2123 37.75864 35.2123 37.09837 35.2123 36.56313 34.67705 36.56313 34.01677 36.56313 33.3565 37.09837 32.82126 37.75864 32.82126 38.4189 32.82126 38.95415 33.3565 38.95415 34.01677ZM37.75864 34.01677"/>
<path transform="matrix(1.00003,0,0,-1.00005,13.828972,90.10486)" d="M39.95044 36.20859H47.10424V45.00901H39.95044Z" fill="#ffffff"/>
<use data-text="I" xlink:href="#font_1_3" transform="matrix(9.962899,0,0,-9.963098,54.7772,52.898)" fill="#0000ff"/>
<path transform="matrix(1.00003,0,0,-1.00005,13.828972,90.10486)" d="M84.3438 11.33891C84.3438 11.99919 83.80855 12.53444 83.14828 12.53444 82.488 12.53444 81.95276 11.99919 81.95276 11.33891 81.95276 10.67865 82.488 10.1434 83.14828 10.1434 83.80855 10.1434 84.3438 10.67865 84.3438 11.33891ZM83.14828 11.33891" fill="#0000ff"/>
<path transform="matrix(1.00003,0,0,-1.00005,13.828972,90.10486)" stroke-width=".3985" stroke-linecap="butt" stroke-miterlimit="10" stroke-linejoin="miter" fill="none" stroke="#0000ff" d="M84.3438 11.33891C84.3438 11.99919 83.80855 12.53444 83.14828 12.53444 82.488 12.53444 81.95276 11.99919 81.95276 11.33891 81.95276 10.67865 82.488 10.1434 83.14828 10.1434 83.80855 10.1434 84.3438 10.67865 84.3438 11.33891ZM83.14828 11.33891"/>
<path transform="matrix(1.00003,0,0,-1.00005,13.828972,90.10486)" d="M85.34009 .3467H93.81534V9.1471199H85.34009Z" fill="#ffffff"/>
<use data-text="J" xlink:href="#font_1_4" transform="matrix(9.962899,0,0,-9.963098,100.167568,88.761798)" fill="#0000ff"/>
</svg>
