<svg xmlns="http://www.w3.org/2000/svg" xmlns:xlink="http://www.w3.org/1999/xlink" version="1.1" width="357" height="113" viewBox="0 0 357 113">
<defs>
<path id="font_1_1" d="M.45498658 .5001831C.45498658 .56614688 .43699647 .7050781 .33499146 .7050781 .19599915 .7050781 .041992189 .42323304 .041992189 .19425965 .041992189 .100250247 .070999149-.0107421879 .1619873-.0107421879 .30299378-.0107421879 .45498658 .27627564 .45498658 .5001831M.147995 .36328126C.16499329 .42723084 .18499756 .5071869 .22499085 .57814028 .2519989 .6271057 .2889862 .68307498 .33399964 .68307498 .3829956 .68307498 .3889923 .6191101 .3889923 .56214907 .3889923 .5131836 .3809967 .46220399 .35699464 .36328126H.147995M.34799195 .3312683C.33699037 .28527833 .31599427 .2002716 .27799989 .12826538 .24299622 .060256959 .20498657 .011245728 .1619873 .011245728 .1289978 .011245728 .10798645 .040252687 .10798645 .133255 .10798645 .17526245 .11399841 .23326111 .13999939 .3312683H.34799195Z"/>
<path id="font_1_2" d="M.5089874 .40376283C.5079956 .40675355 .5039978 .41474916 .5039978 .41775514 .5039978 .41874696 .5219879 .43273927 .5329895 .44073487L.70799258 .5756531C.8019867 .64460757 .84098818 .64860537 .87098696 .6516113 .8789978 .65260317 .8889923 .6536102 .8889923 .6716156 .8889923 .6756134 .8860016 .6826172 .8779907 .6826172 .85598757 .6826172 .83099368 .6796112 .8069916 .6796112 .7709961 .6796112 .7319946 .6826172 .69599917 .6826172 .68899539 .6826172 .6769867 .6826172 .6769867 .6626129 .6769867 .65560916 .6819916 .65260317 .68899539 .6516113 .71099856 .6496124 .7200012 .64460757 .7200012 .63061526 .7200012 .6126251 .6899872 .5896454 .6839905 .5846405L.2939911 .28483583 .37399293 .6056366C.3829956 .6416168 .3849945 .6516113 .45799256 .6516113 .48298646 .6516113 .49198915 .6516113 .49198915 .6716156 .49198915 .680603 .48399354 .6826172 .47799684 .6826172 .44999696 .6826172 .37799073 .6796112 .34999085 .6796112 .32099916 .6796112 .25 .6826172 .22099304 .6826172 .21398926 .6826172 .20098877 .6826172 .20098877 .66360476 .20098877 .6516113 .20999146 .6516113 .22999573 .6516113 .24299622 .6516113 .26098634 .65060427 .272995 .6496124 .2889862 .6476135 .29499818 .64460757 .29499818 .6336212 .29499818 .6296234 .2939911 .62661746 .29100038 .614624L.15699768 .07795715C.14698792 .038986207 .14498902 .0309906 .06599426 .0309906 .04899597 .0309906 .037994386 .0309906 .037994386 .011993408 .037994386 0 .049987794 0 .052993776 0 .08099365 0 .1519928 .0029907227 .17999268 .0029907227 .20098877 .0029907227 .22299195 .0019989014 .24398804 .0019989014 .2659912 .0019989014 .28799439 0 .30899049 0 .31599427 0 .32899476 0 .32899476 .019989014 .32899476 .0309906 .31999208 .0309906 .30099488 .0309906 .2639923 .0309906 .23599243 .0309906 .23599243 .048980714 .23599243 .05596924 .24198914 .07795715 .24499512 .09295654 .25898744 .14492798 .27198792 .19789124 .2849884 .24986267L.43399049 .3657837 .5499878 .096954349C.56199648 .06996155 .56199648 .06796265 .56199648 .061965944 .56199648 .03199768 .5189972 .0309906 .5099945 .0309906 .49899293 .0309906 .48799134 .0309906 .48799134 .010986328 .48799134 0 .5 0 .5019989 0 .5419922 0 .58399966 .0029907227 .6239929 .0029907227 .6459961 .0029907227 .69999697 0 .7220001 0 .72698977 0 .73999026 0 .73999026 .019989014 .73999026 .0309906 .72898867 .0309906 .7200012 .0309906 .67900088 .03199768 .66600039 .040985109 .651001 .07595825L.5089874 .40376283Z"/>
<path id="font_1_3" d="M.37399293 .6046295C.3829956 .64060977 .38598634 .6516113 .47999574 .6516113 .5099945 .6516113 .5179901 .6516113 .5179901 .6706085 .5179901 .6826172 .5069885 .6826172 .5019989 .6826172 .46899415 .6826172 .3869934 .6796112 .35398866 .6796112 .32398988 .6796112 .25099183 .6826172 .22099304 .6826172 .21398926 .6826172 .20199585 .6826172 .20199585 .6626129 .20199585 .6516113 .21099854 .6516113 .22999573 .6516113 .23199463 .6516113 .25099183 .6516113 .2679901 .6496124 .28599549 .6476135 .29499818 .64660647 .29499818 .6336212 .29499818 .6296234 .2939911 .62661746 .29100038 .614624L.15699768 .07795715C.14698792 .038986207 .14498902 .0309906 .06599426 .0309906 .04899597 .0309906 .038986207 .0309906 .038986207 .010986328 .038986207 0 .04798889 0 .06599426 0H.5289917C.5529938 0 .55400088 0 .55999758 .016998291L.6389923 .23286438C.6429901 .24386597 .6429901 .24586487 .6429901 .24685669 .6429901 .2508545 .6399994 .25785829 .6309967 .25785829 .621994 .25785829 .62098696 .2528534 .6139984 .23686219 .5799866 .14492798 .5359955 .0309906 .36299134 .0309906H.2689972C.25498963 .0309906 .25299073 .0309906 .24699402 .03199768 .23699951 .032989503 .23399353 .033996583 .23399353 .041992189 .23399353 .04498291 .23399353 .04698181 .23899842 .064971927L.37399293 .6046295Z"/>
<path id="font_1_4" d="M.9259949 .6056366C.93499758 .6416168 .93699648 .6516113 1.0119934 .6516113 1.0349884 .6516113 1.0439911 .6516113 1.0439911 .6716156 1.0439911 .6826172 1.0339966 .6826172 1.0169983 .6826172H.8849945C.85899356 .6826172 .8580017 .6826172 .84599307 .66360476L.48098756 .093948367 .40299989 .65960696C.3999939 .6826172 .397995 .6826172 .37199403 .6826172H.23498535C.21598816 .6826172 .20498657 .6826172 .20498657 .66360476 .20498657 .6516113 .21398926 .6516113 .23399353 .6516113 .24699402 .6516113 .2649994 .65060427 .2769928 .6496124 .29299928 .6476135 .29899598 .64460757 .29899598 .6336212 .29899598 .6296234 .2979889 .62661746 .29499818 .614624L.16799927 .10594177C.1579895 .065963748 .14099121 .033996583 .05999756 .0309906 .054992677 .0309906 .041992189 .02999878 .041992189 .011993408 .041992189 .0029907227 .04798889 0 .055999757 0 .08799744 0 .12298584 .0029907227 .1559906 .0029907227 .18998719 .0029907227 .22599793 0 .25898744 0 .2639923 0 .2769928 0 .2769928 .019989014 .2769928 .0309906 .2659912 .0309906 .25898744 .0309906 .20199585 .03199768 .19099427 .051986696 .19099427 .07496643 .19099427 .081954959 .19198609 .08695984 .19499207 .09794617L.33099366 .64260867H.33198548L.41799928 .022994996C.41999818 .010986328 .42099 0 .43299867 0 .44400025 0 .44999696 .010986328 .45498658 .017990113L.85899356 .65060427H.8600006L.71699526 .07795715C.70700076 .038986207 .7049866 .0309906 .6259918 .0309906 .60899356 .0309906 .59799197 .0309906 .59799197 .011993408 .59799197 0 .6100006 0 .61299136 0 .6409912 0 .70899966 .0029907227 .7369995 .0029907227 .7779999 .0029907227 .82099917 0 .8619995 0 .8679962 0 .8809967 0 .8809967 .019989014 .8809967 .0309906 .871994 .0309906 .8529968 .0309906 .81599429 .0309906 .7879944 .0309906 .7879944 .048980714 .7879944 .052978517 .7879944 .054977418 .79299929 .07296753L.9259949 .6056366Z"/>
<path id="font_1_5" d="M.7559967 .577652C.7659912 .61763 .7839966 .64860537 .8639984 .6516113 .86898806 .6516113 .8809967 .65260317 .8809967 .6716156 .8809967 .6726074 .8809967 .6826172 .8679962 .6826172 .83499148 .6826172 .7999878 .6796112 .7669983 .6796112 .73298647 .6796112 .69799807 .6826172 .6649933 .6826172 .6589966 .6826172 .6469879 .6826172 .6469879 .6626129 .6469879 .6516113 .6569977 .6516113 .6649933 .6516113 .7220001 .65060427 .73298647 .6296234 .73298647 .6076355 .73298647 .6046295 .73098757 .5896454 .7299957 .5866394L.6179962 .141922 .39698792 .66360476C.3889923 .6816101 .3880005 .6826172 .36499024 .6826172H.23098755C.21099854 .6826172 .20199585 .6826172 .20199585 .6626129 .20199585 .6516113 .21099854 .6516113 .22999573 .6516113 .23498535 .6516113 .2979889 .6516113 .2979889 .64260867L.1639862 .10594177C.1539917 .065963748 .13699341 .033996583 .055999757 .0309906 .049987794 .0309906 .038986207 .02999878 .038986207 .010986328 .038986207 .0039978029 .04399109 0 .051986696 0 .083999637 0 .11898804 .0029907227 .1519928 .0029907227 .18598938 .0029907227 .22200012 0 .25498963 0 .2599945 0 .272995 0 .272995 .019989014 .272995 .02999878 .2639923 .0309906 .25299073 .0309906 .19499207 .032989503 .18699646 .054977418 .18699646 .07496643 .18699646 .081954959 .18798828 .08695984 .19099427 .09794617L.32299806 .6256256C.32699586 .6196289 .32699586 .61763 .33198548 .6076355L.58099368 .018997193C.58799746 .0019989014 .59098818 0 .59999087 0 .61099246 0 .61099246 .0029907227 .6159973 .020996094L.7559967 .577652Z"/>
<path id="font_1_6" d="M.73999026 .4358673C.73999026 .5970001 .6339874 .7050781 .4850006 .7050781 .2689972 .7050781 .04899597 .47790528 .04899597 .24472046 .04899597 .07859802 .16099549-.022460938 .30499269-.022460938 .5169983-.022460938 .73999026 .19668579 .73999026 .4358673M.31098939 .0035247803C.21199036 .0035247803 .14199829 .08459473 .14199829 .21670532 .14199829 .2607422 .1559906 .4068451 .23298645 .52394106 .3019867 .62802127 .3999939 .68006899 .47898866 .68006899 .5609894 .68006899 .651001 .62402346 .651001 .4748993 .651001 .4028473 .6239929 .24671936 .5249939 .12362671 .47698976 .062576297 .394989 .0035247803 .31098939 .0035247803Z"/>
</defs>
<path transform="matrix(1.00006,0,0,-1.00005,52.800149,56.607229)" stroke-width=".79701" stroke-linecap="butt" stroke-miterlimit="10" stroke-linejoin="miter" fill="none" stroke="#000000" d="M-51.70572 0H51.70572"/>
<path transform="matrix(1.00006,0,0,-1.00005,52.800149,56.607229)" stroke-width=".79701" stroke-linecap="butt" stroke-miterlimit="10" stroke-linejoin="miter" fill="none" stroke="#000000" d="M0-51.70572V51.70572"/>
<path transform="matrix(1.00006,0,0,-1.00005,52.800149,56.607229)" stroke-width=".79701" stroke-linecap="butt" stroke-miterlimit="10" stroke-linejoin="miter" fill="none" stroke="#ff0000" d="M45.35593 0C45.35593 25.04971 25.04971 45.35593 0 45.35593-25.04971 45.35593-45.35593 25.04971-45.35593 0-45.35593-25.04971-25.04971-45.35593 0-45.35593 25.04971-45.35593 45.35593-25.04971 45.35593 0ZM0 0"/>
<path transform="matrix(1.00006,0,0,-1.00005,52.800149,56.607229)" stroke-width=".3985" stroke-linecap="butt" stroke-miterlimit="10" stroke-linejoin="miter" fill="none" stroke="#000000" d="M0 0H45.35591"/>
<path transform="matrix(1.00006,0,0,-1.00005,52.800149,56.607229)" stroke-width=".3985" stroke-linecap="butt" stroke-miterlimit="10" stroke-linejoin="miter" fill="none" stroke="#000000" d="M0 0 43.81052 11.73898"/>
<path transform="matrix(1.00006,0,0,-1.00005,52.800149,56.607229)" stroke-width=".3985" stroke-linecap="butt" stroke-miterlimit="10" stroke-linejoin="miter" fill="none" stroke="#000000" d="M0 0 39.27948 22.67795"/>
<path transform="matrix(1.00006,0,0,-1.00005,52.800149,56.607229)" stroke-width=".3985" stroke-linecap="butt" stroke-miterlimit="10" stroke-linejoin="miter" fill="none" stroke="#000000" d="M0 0 32.0715 32.0715"/>
<path transform="matrix(1.00006,0,0,-1.00005,52.800149,56.607229)" stroke-width=".3985" stroke-linecap="butt" stroke-miterlimit="10" stroke-linejoin="miter" fill="none" stroke="#000000" d="M0 0 22.67795 39.27948"/>
<path transform="matrix(1.00006,0,0,-1.00005,52.800149,56.607229)" stroke-width=".3985" stroke-linecap="butt" stroke-miterlimit="10" stroke-linejoin="miter" fill="none" stroke="#000000" d="M0 0 11.73898 43.81052"/>
<path transform="matrix(1.00006,0,0,-1.00005,52.800149,56.607229)" stroke-width=".3985" stroke-linecap="butt" stroke-miterlimit="10" stroke-linejoin="miter" fill="none" stroke="#000000" d="M0 0V45.35591"/>
<path transform="matrix(1.00006,0,0,-1.00005,52.800149,56.607229)" stroke-width=".3985" stroke-linecap="butt" stroke-miterlimit="10" stroke-linejoin="miter" fill="none" stroke="#000000" d="M0 0-11.73898 43.81052"/>
<path transform="matrix(1.00006,0,0,-1.00005,52.800149,56.607229)" stroke-width=".3985" stroke-linecap="butt" stroke-miterlimit="10" stroke-linejoin="miter" fill="none" stroke="#000000" d="M0 0-22.67795 39.27948"/>
<path transform="matrix(1.00006,0,0,-1.00005,52.800149,56.607229)" stroke-width=".3985" stroke-linecap="butt" stroke-miterlimit="10" stroke-linejoin="miter" fill="none" stroke="#000000" d="M0 0-32.0715 32.0715"/>
<path transform="matrix(1.00006,0,0,-1.00005,52.800149,56.607229)" stroke-width=".3985" stroke-linecap="butt" stroke-miterlimit="10" stroke-linejoin="miter" fill="none" stroke="#000000" d="M0 0-39.27948 22.67795"/>
<path transform="matrix(1.00006,0,0,-1.00005,52.800149,56.607229)" stroke-width=".3985" stroke-linecap="butt" stroke-miterlimit="10" stroke-linejoin="miter" fill="none" stroke="#000000" d="M0 0-43.81052 11.73898"/>
<path transform="matrix(1.00006,0,0,-1.00005,52.800149,56.607229)" stroke-width=".3985" stroke-linecap="butt" stroke-miterlimit="10" stroke-linejoin="miter" fill="none" stroke="#000000" d="M0 0H-45.35591"/>
<path transform="matrix(1.00006,0,0,-1.00005,52.800149,56.607229)" stroke-width=".3985" stroke-linecap="butt" stroke-miterlimit="10" stroke-linejoin="miter" fill="none" stroke="#000000" d="M0 0-43.81052-11.73898"/>
<path transform="matrix(1.00006,0,0,-1.00005,52.800149,56.607229)" stroke-width=".3985" stroke-linecap="butt" stroke-miterlimit="10" stroke-linejoin="miter" fill="none" stroke="#000000" d="M0 0-39.27948-22.67795"/>
<path transform="matrix(1.00006,0,0,-1.00005,52.800149,56.607229)" stroke-width=".3985" stroke-linecap="butt" stroke-miterlimit="10" stroke-linejoin="miter" fill="none" stroke="#000000" d="M0 0-32.0715-32.0715"/>
<path transform="matrix(1.00006,0,0,-1.00005,52.800149,56.607229)" stroke-width=".3985" stroke-linecap="butt" stroke-miterlimit="10" stroke-linejoin="miter" fill="none" stroke="#000000" d="M0 0-22.67795-39.27948"/>
<path transform="matrix(1.00006,0,0,-1.00005,52.800149,56.607229)" stroke-width=".3985" stroke-linecap="butt" stroke-miterlimit="10" stroke-linejoin="miter" fill="none" stroke="#000000" d="M0 0-11.73898-43.81052"/>
<path transform="matrix(1.00006,0,0,-1.00005,52.800149,56.607229)" stroke-width=".3985" stroke-linecap="butt" stroke-miterlimit="10" stroke-linejoin="miter" fill="none" stroke="#000000" d="M0 0V-45.35591"/>
<path transform="matrix(1.00006,0,0,-1.00005,52.800149,56.607229)" stroke-width=".3985" stroke-linecap="butt" stroke-miterlimit="10" stroke-linejoin="miter" fill="none" stroke="#000000" d="M0 0 11.73898-43.81052"/>
<path transform="matrix(1.00006,0,0,-1.00005,52.800149,56.607229)" stroke-width=".3985" stroke-linecap="butt" stroke-miterlimit="10" stroke-linejoin="miter" fill="none" stroke="#000000" d="M0 0 22.67795-39.27948"/>
<path transform="matrix(1.00006,0,0,-1.00005,52.800149,56.607229)" stroke-width=".3985" stroke-linecap="butt" stroke-miterlimit="10" stroke-linejoin="miter" fill="none" stroke="#000000" d="M0 0 32.0715-32.0715"/>
<path transform="matrix(1.00006,0,0,-1.00005,52.800149,56.607229)" stroke-width=".3985" stroke-linecap="butt" stroke-miterlimit="10" stroke-linejoin="miter" fill="none" stroke="#000000" d="M0 0 39.27948-22.67795"/>
<path transform="matrix(1.00006,0,0,-1.00005,52.800149,56.607229)" stroke-width=".3985" stroke-linecap="butt" stroke-miterlimit="10" stroke-linejoin="miter" fill="none" stroke="#000000" d="M0 0 43.81052-11.73898"/>
<path transform="matrix(1.00006,0,0,-1.00005,52.800149,56.607229)" stroke-width=".3985" stroke-linecap="butt" stroke-miterlimit="10" stroke-linejoin="miter" fill="none" stroke="#000000" d="M0 0H45.35591"/>
<path transform="matrix(1.00006,0,0,-1.00005,52.800149,56.607229)" stroke-width=".3985" stroke-linecap="butt" stroke-miterlimit="10" stroke-linejoin="miter" fill="none" stroke="#00aeef" d="M72.56947-45.35591H290.27796M72.56947-22.67795H290.27796M72.56947 0H290.27796M72.56947 22.67795H290.27796M72.56947 45.35432H290.27796M72.56947-45.35591V45.35591M90.71185-45.35591V45.35591M108.85423-45.35591V45.35591M126.99661-45.35591V45.35591M145.13896-45.35591V45.35591M163.28134-45.35591V45.35591M181.42372-45.35591V45.35591M199.56609-45.35591V45.35591M217.70847-45.35591V45.35591M235.85085-45.35591V45.35591M253.99323-45.35591V45.35591M272.1356-45.35591V45.35591M290.27638-45.35591V45.35591M290.27796 45.35591"/>
<path transform="matrix(1.00006,0,0,-1.00005,52.800149,56.607229)" stroke-width=".79701" stroke-linecap="butt" stroke-miterlimit="10" stroke-linejoin="miter" fill="none" stroke="#000000" d="M72.56947 0H293.37895"/>
<path transform="matrix(1.00006,0,0,-1.00005,346.19667,56.607229)" d="M1.0361 0C-.25902 .25902-1.55415 .77707-3.1083 1.68365-1.55415 .51805-1.55415-.51805-3.1083-1.68365-1.55415-.77707-.25902-.25902 1.0361 0Z"/>
<path transform="matrix(1.00006,0,0,-1.00005,346.19667,56.607229)" stroke-width=".79701" stroke-linecap="butt" stroke-linejoin="round" fill="none" stroke="#000000" d="M1.0361 0C-.25902 .25902-1.55415 .77707-3.1083 1.68365-1.55415 .51805-1.55415-.51805-3.1083-1.68365-1.55415-.77707-.25902-.25902 1.0361 0Z"/>
<use data-text="&#x03b8;" xlink:href="#font_1_1" transform="matrix(9.963197,0,0,-9.963098,351.35105,60.0664)"/>
<path transform="matrix(1.00006,0,0,-1.00005,52.800149,56.607229)" stroke-width=".79701" stroke-linecap="butt" stroke-miterlimit="10" stroke-linejoin="miter" fill="none" stroke="#000000" d="M72.56947-45.35591V52.53891"/>
<path transform="matrix(0,-1.00005,-1.00006,-0,125.37397,4.065693)" d="M1.0361 0C-.25902 .25902-1.55415 .77707-3.1083 1.68365-1.55415 .51805-1.55415-.51805-3.1083-1.68365-1.55415-.77707-.25902-.25902 1.0361 0Z"/>
<path transform="matrix(0,-1.00005,-1.00006,-0,125.37397,4.065693)" stroke-width=".79701" stroke-linecap="butt" stroke-linejoin="round" fill="none" stroke="#000000" d="M1.0361 0C-.25902 .25902-1.55415 .77707-3.1083 1.68365-1.55415 .51805-1.55415-.51805-3.1083-1.68365-1.55415-.77707-.25902-.25902 1.0361 0Z"/>
<path transform="matrix(1.00006,0,0,-1.00005,52.800149,56.607229)" stroke-width="1.19553" stroke-linecap="butt" stroke-miterlimit="10" stroke-linejoin="miter" fill="none" stroke="#ff0000" d="M72.56947 45.35591C72.56947 45.35591 79.12344 44.653 81.64067 43.80981 84.15788 42.96663 88.19464 40.90756 90.71185 39.2788 93.22908 37.65004 97.26582 34.37425 99.78304 32.07082 102.30026 29.76738 106.337 25.49837 108.85423 22.67726 111.37144 19.85616 115.4082 14.88472 117.92542 11.7383 120.44264 8.59186 124.47939 3.25723 126.99661 0 129.51383-3.25723 133.55055-8.59117 136.0678-11.73761 138.585-14.88403 142.62175-19.85616 145.13896-22.67726 147.6562-25.49837 151.69293-29.76678 154.21016-32.07011 156.72739-34.37346 160.76412-37.64925 163.28134-39.2781 165.79856-40.90697 169.83531-42.96663 172.35253-43.80981 174.86975-44.653 178.9065-45.35522 181.42372-45.35522 183.94094-45.35522 187.97769-44.65291 190.4949-43.80981 193.01213-42.96672 197.04888-40.90747 199.56609-39.2788 202.08332-37.65013 206.12006-34.37494 208.63729-32.0715 211.1545-29.76808 215.19126-25.49837 217.70847-22.67726 220.2257-19.85616 224.26244-14.88533 226.77965-11.73898 229.29688-8.59265 233.33362-3.25792 235.85085-.00067 238.36806 3.25653 242.40482 8.59048 244.92203 11.73691 247.43926 14.88333 251.476 19.85538 253.99323 22.67657 256.51045 25.49776 260.54719 29.76668 263.0644 32.07011 265.58164 34.37355 269.61839 37.64925 272.1356 39.2781 274.65284 40.90697 278.68955 42.96663 281.2068 43.80981 283.724 44.653 290.27796 45.35522 290.27796 45.35522"/>
<path transform="matrix(1.00006,0,0,-1.00005,52.800149,56.607229)" d="M1.8142 45.35739C1.8142 46.35936 1.00195 47.1716 0 47.1716-1.00195 47.1716-1.8142 46.35936-1.8142 45.35739-1.8142 44.35542-1.00195 43.54318 0 43.54318 1.00195 43.54318 1.8142 44.35542 1.8142 45.35739ZM0 45.35739"/>
<path transform="matrix(1.00006,0,0,-1.00005,52.800149,56.607229)" stroke-width=".3985" stroke-linecap="butt" stroke-miterlimit="10" stroke-linejoin="miter" fill="none" stroke="#000000" d="M1.8142 45.35739C1.8142 46.35936 1.00195 47.1716 0 47.1716-1.00195 47.1716-1.8142 46.35936-1.8142 45.35739-1.8142 44.35542-1.00195 43.54318 0 43.54318 1.00195 43.54318 1.8142 44.35542 1.8142 45.35739ZM0 45.35739"/>
<use data-text="K" xlink:href="#font_1_2" transform="matrix(9.963197,0,0,-9.963098,40.105386,7.727787)"/>
<path transform="matrix(1.00006,0,0,-1.00005,52.800149,56.607229)" d="M-37.46655 22.67868C-37.46655 23.68065-38.27881 24.49289-39.28076 24.49289-40.28273 24.49289-41.09497 23.68065-41.09497 22.67868-41.09497 21.67673-40.28273 20.86449-39.28076 20.86449-38.27881 20.86449-37.46655 21.67673-37.46655 22.67868ZM-39.28076 22.67868"/>
<path transform="matrix(1.00006,0,0,-1.00005,52.800149,56.607229)" stroke-width=".3985" stroke-linecap="butt" stroke-miterlimit="10" stroke-linejoin="miter" fill="none" stroke="#000000" d="M-37.46655 22.67868C-37.46655 23.68065-38.27881 24.49289-39.28076 24.49289-40.28273 24.49289-41.09497 23.68065-41.09497 22.67868-41.09497 21.67673-40.28273 20.86449-39.28076 20.86449-38.27881 20.86449-37.46655 21.67673-37.46655 22.67868ZM-39.28076 22.67868"/>
<use data-text="L" xlink:href="#font_1_3" transform="matrix(9.963197,0,0,-9.963098,3.2161713,30.407919)"/>
<path transform="matrix(1.00006,0,0,-1.00005,52.800149,56.607229)" d="M-30.25833-32.07254C-30.25833-31.07057-31.07057-30.25833-32.07254-30.25833-33.0745-30.25833-33.88673-31.07057-33.88673-32.07254-33.88673-33.0745-33.0745-33.88673-32.07254-33.88673-31.07057-33.88673-30.25833-33.0745-30.25833-32.07254ZM-32.07254-32.07254"/>
<path transform="matrix(1.00006,0,0,-1.00005,52.800149,56.607229)" stroke-width=".3985" stroke-linecap="butt" stroke-miterlimit="10" stroke-linejoin="miter" fill="none" stroke="#000000" d="M-30.25833-32.07254C-30.25833-31.07057-31.07057-30.25833-32.07254-30.25833-33.0745-30.25833-33.88673-31.07057-33.88673-32.07254-33.88673-33.0745-33.0745-33.88673-32.07254-33.88673-31.07057-33.88673-30.25833-33.0745-30.25833-32.07254ZM-32.07254-32.07254"/>
<use data-text="M" xlink:href="#font_1_4" transform="matrix(9.963197,0,0,-9.963098,6.453369,99.009349)"/>
<path transform="matrix(1.00006,0,0,-1.00005,52.800149,56.607229)" d="M1.8142-45.35739C1.8142-44.35542 1.00195-43.54318 0-43.54318-1.00195-43.54318-1.8142-44.35542-1.8142-45.35739-1.8142-46.35936-1.00195-47.1716 0-47.1716 1.00195-47.1716 1.8142-46.35936 1.8142-45.35739ZM0-45.35739"/>
<path transform="matrix(1.00006,0,0,-1.00005,52.800149,56.607229)" stroke-width=".3985" stroke-linecap="butt" stroke-miterlimit="10" stroke-linejoin="miter" fill="none" stroke="#000000" d="M1.8142-45.35739C1.8142-44.35542 1.00195-43.54318 0-43.54318-1.00195-43.54318-1.8142-44.35542-1.8142-45.35739-1.8142-46.35936-1.00195-47.1716 0-47.1716 1.00195-47.1716 1.8142-46.35936 1.8142-45.35739ZM0-45.35739"/>
<use data-text="N" xlink:href="#font_1_5" transform="matrix(9.963197,0,0,-9.963098,40.188394,112.29501)"/>
<path transform="matrix(1.00006,0,0,-1.00005,52.800149,56.607229)" d="M24.49289-39.28076C24.49289-38.27881 23.68065-37.46655 22.67868-37.46655 21.67673-37.46655 20.86449-38.27881 20.86449-39.28076 20.86449-40.28273 21.67673-41.09497 22.67868-41.09497 23.68065-41.09497 24.49289-40.28273 24.49289-39.28076ZM22.67868-39.28076"/>
<path transform="matrix(1.00006,0,0,-1.00005,52.800149,56.607229)" stroke-width=".3985" stroke-linecap="butt" stroke-miterlimit="10" stroke-linejoin="miter" fill="none" stroke="#000000" d="M24.49289-39.28076C24.49289-38.27881 23.68065-37.46655 22.67868-37.46655 21.67673-37.46655 20.86449-38.27881 20.86449-39.28076 20.86449-40.28273 21.67673-41.09497 22.67868-41.09497 23.68065-41.09497 24.49289-40.28273 24.49289-39.28076ZM22.67868-39.28076"/>
<use data-text="O" xlink:href="#font_1_6" transform="matrix(9.963197,0,0,-9.963098,78.99972,106.21771)"/>
</svg>
