<svg xmlns="http://www.w3.org/2000/svg" xmlns:xlink="http://www.w3.org/1999/xlink" version="1.1" width="357" height="111" viewBox="0 0 357 111">
<defs>
<path id="font_1_1" d="M.45498658 .5001831C.45498658 .56614688 .43699647 .7050781 .33499146 .7050781 .19599915 .7050781 .041992189 .42323304 .041992189 .19425965 .041992189 .100250247 .070999149-.0107421879 .1619873-.0107421879 .30299378-.0107421879 .45498658 .27627564 .45498658 .5001831M.147995 .36328126C.16499329 .42723084 .18499756 .5071869 .22499085 .57814028 .2519989 .6271057 .2889862 .68307498 .33399964 .68307498 .3829956 .68307498 .3889923 .6191101 .3889923 .56214907 .3889923 .5131836 .3809967 .46220399 .35699464 .36328126H.147995M.34799195 .3312683C.33699037 .28527833 .31599427 .2002716 .27799989 .12826538 .24299622 .060256959 .20498657 .011245728 .1619873 .011245728 .1289978 .011245728 .10798645 .040252687 .10798645 .133255 .10798645 .17526245 .11399841 .23326111 .13999939 .3312683H.34799195Z"/>
<path id="font_1_2" d="M.30299378 .3244629H.3999939C.47499085 .3244629 .48298646 .30848695 .48298646 .27954103 .48298646 .2725525 .48298646 .26057435 .47599793 .2306366 .47399903 .22564698 .47299195 .22164917 .47299195 .21965027 .47299195 .21166992 .47898866 .20767212 .4850006 .20767212 .49499513 .20767212 .49499513 .21066284 .5 .2286377L.5549927 .44551087C.55799868 .45651246 .55799868 .45851136 .55799868 .46151734 .55799868 .46351625 .55599978 .47251893 .54599 .47251893 .5359955 .47251893 .5349884 .46751405 .5309906 .45150758 .5099945 .37347413 .4869995 .35546876 .4019928 .35546876H.31098939L.375 .6095886C.38398744 .64460757 .3849945 .64860537 .42900086 .64860537H.5609894C.6839905 .64860537 .70700076 .6156006 .70700076 .53855898 .70700076 .5155487 .70700076 .51153567 .70399478 .4845276 .70199587 .4715271 .70199587 .46951295 .70199587 .46652223 .70199587 .46151734 .7049866 .45451356 .71398928 .45451356 .72499087 .45451356 .7259979 .46051026 .7279968 .4795227L.7480011 .65260317C.7509918 .6796112 .74598696 .6796112 .72099307 .6796112H.23098755C.21099854 .6796112 .20098877 .6796112 .20098877 .65960696 .20098877 .64860537 .20999146 .64860537 .22898865 .64860537 .2659912 .64860537 .2939911 .64860537 .2939911 .6306 .2939911 .6266022 .2939911 .6246033 .2889862 .60658267L.15699768 .07791138C.14698792 .038970949 .14498902 .0309906 .06599426 .0309906 .04899597 .0309906 .037994386 .0309906 .037994386 .011993408 .037994386 0 .049987794 0 .052993776 0 .08198547 0 .1559906 .0029907227 .18499756 .0029907227 .21798706 .0029907227 .30099488 0 .33399964 0 .34298707 0 .35499574 0 .35499574 .018997193 .35499574 .026992798 .34899903 .0289917 .34899903 .02999878 .34599305 .0309906 .34399415 .0309906 .32099916 .0309906 .29899598 .0309906 .2939911 .0309906 .2689972 .032989503 .23999024 .035980226 .23699951 .039978029 .23699951 .052947999 .23699951 .0549469 .23699951 .060943605 .24099732 .075912479L.30299378 .3244629Z"/>
<path id="font_1_3" d="M.7599945 .69506838C.7599945 .69807437 .7579956 .7050781 .7489929 .7050781 .74598696 .7050781 .7449951 .70407107 .73399356 .69306948L.6639862 .61598208C.6549988 .6300049 .60899356 .7050781 .49798585 .7050781 .2749939 .7050781 .049987794 .4837799 .049987794 .25144959 .049987794 .09249878 .16099549-.022460938 .32299806-.022460938 .36698915-.022460938 .4119873-.013473511 .44799806 .0015258789 .49798585 .021530152 .5169983 .042526246 .5349884 .06251526 .5439911 .037521364 .56999209 .0005340576 .5799866 .0005340576 .58499148 .0005340576 .58699038 .0035247803 .58699038 .0045318605 .58898928 .0065307619 .598999 .044525148 .60398867 .06550598L.6230011 .14248657C.6269989 .15948487 .6319885 .1764679 .6359863 .19346619 .6469879 .2384491 .647995 .240448 .7049866 .24145508 .70999148 .24145508 .72099307 .2424469 .72099307 .26145936 .72099307 .26844789 .71598818 .27246095 .70799258 .27246095 .68499758 .27246095 .6259918 .26945497 .6029968 .26945497 .57199099 .26945497 .49398805 .27246095 .46299745 .27246095 .45399476 .27246095 .44198609 .27246095 .44198609 .25245667 .44198609 .24145508 .44999696 .24145508 .47200013 .24145508 .47299195 .24145508 .5019989 .24145508 .5249939 .23945618 .5509949 .2364502 .55599978 .23345948 .55599978 .22045899 .55599978 .2114563 .54499819 .16647339 .5349884 .12948609 .5069885 .01953125 .3769989 .008529663 .34199525 .008529663 .24598694 .008529663 .14099121 .06550598 .14099121 .21846009 .14099121 .24945069 .15098572 .41467286 .2559967 .5448761 .30999757 .6129761 .40699769 .67407229 .5059967 .67407229 .60798647 .67407229 .6669922 .59695437 .6669922 .48077394 .6669922 .44070436 .6639862 .43971253 .6639862 .4296875 .6639862 .41967774 .6749878 .41967774 .67900088 .41967774 .69200137 .41967774 .69200137 .42167665 .69699099 .43971253L.7599945 .69506838Z"/>
<path id="font_1_4" d="M.7630005 .60565188C.7719879 .6416168 .7739868 .6516113 .8470001 .6516113 .8730011 .6516113 .8809967 .6516113 .8809967 .6716156 .8809967 .6826172 .8699951 .6826172 .86698916 .6826172 .83898928 .6826172 .7669983 .6796112 .7389984 .6796112 .70999148 .6796112 .6389923 .6826172 .6100006 .6826172 .60198977 .6826172 .59098818 .6826172 .59098818 .6626129 .59098818 .6516113 .59999087 .6516113 .61898806 .6516113 .62098696 .6516113 .6399994 .6516113 .6569977 .6496124 .6749878 .6476135 .6839905 .6466217 .6839905 .6336212 .6839905 .6296234 .68299868 .6276245 .6799927 .6146393L.6199951 .37083436H.31498719L.37399293 .60565188C.3829956 .6416168 .38598634 .6516113 .45799256 .6516113 .48399354 .6516113 .49198915 .6516113 .49198915 .6716156 .49198915 .6826172 .48098756 .6826172 .47799684 .6826172 .44999696 .6826172 .37799073 .6796112 .34999085 .6796112 .32099916 .6796112 .25 .6826172 .22099304 .6826172 .21299744 .6826172 .20199585 .6826172 .20199585 .6626129 .20199585 .6516113 .21099854 .6516113 .22999573 .6516113 .23199463 .6516113 .25099183 .6516113 .2679901 .6496124 .28599549 .6476135 .29499818 .6466217 .29499818 .6336212 .29499818 .6296234 .2939911 .6266327 .29100038 .6146393L.15699768 .07797241C.14698792 .038986207 .14498902 .0309906 .06599426 .0309906 .04798889 .0309906 .038986207 .0309906 .038986207 .010986328 .038986207 0 .050994874 0 .052993776 0 .08099365 0 .1519928 .0029907227 .17999268 .0029907227 .20098877 .0029907227 .22299195 .0019989014 .24398804 .0019989014 .2659912 .0019989014 .28799439 0 .30899049 0 .31698609 0 .32899476 0 .32899476 .019989014 .32899476 .0309906 .31999208 .0309906 .30099488 .0309906 .2639923 .0309906 .23599243 .0309906 .23599243 .048980714 .23599243 .054977418 .23799134 .0599823 .23899842 .065979007L.30699159 .33984376H.6119995C.56999209 .17391968 .5469971 .07896423 .54299929 .0639801 .5329895 .03199768 .5139923 .0309906 .45199586 .0309906 .43699647 .0309906 .42799378 .0309906 .42799378 .010986328 .42799378 0 .43998719 0 .44198609 0 .46998597 0 .54100039 .0029907227 .56900027 .0029907227 .58999636 .0029907227 .6119995 .0019989014 .6329956 .0019989014 .6549988 .0019989014 .6769867 0 .69799807 0 .70599368 0 .71798709 0 .71798709 .019989014 .71798709 .0309906 .70899966 .0309906 .6899872 .0309906 .6529999 .0309906 .625 .0309906 .625 .048980714 .625 .054977418 .6269989 .0599823 .6279907 .065979007L.7630005 .60565188Z"/>
<path id="font_1_5" d="M.37399293 .6056366C.3829956 .6416168 .38598634 .6516113 .46499635 .6516113 .4889984 .6516113 .49699403 .6516113 .49699403 .6706085 .49699403 .6826172 .48599244 .6826172 .48199464 .6826172 .45298768 .6826172 .3789978 .6796112 .34999085 .6796112 .31999208 .6796112 .24699402 .6826172 .21699524 .6826172 .20999146 .6826172 .19699097 .6826172 .19699097 .6626129 .19699097 .6516113 .20599365 .6516113 .22499085 .6516113 .2669983 .6516113 .2939911 .6516113 .2939911 .63261416 .2939911 .6276245 .2939911 .6256256 .2919922 .6166229L.15699768 .07795715C.147995 .040985109 .14498902 .0309906 .06599426 .0309906 .042999269 .0309906 .033996583 .0309906 .033996583 .010986328 .033996583 0 .04598999 0 .04899597 0 .07798767 0 .15098572 .0029907227 .17999268 .0029907227 .20999146 .0029907227 .28399659 0 .31399537 0 .32199098 0 .33399964 0 .33399964 .018997193 .33399964 .0309906 .32598878 .0309906 .3039856 .0309906 .28599549 .0309906 .2809906 .0309906 .26098634 .032989503 .23999024 .034988405 .23599243 .038986207 .23599243 .049987794 .23599243 .05796814 .23799134 .065963748 .23999024 .07296753L.37399293 .6056366Z"/>
<path id="font_1_6" d="M.54100039 .6096039C.548996 .64260867 .5509949 .6516113 .60598757 .6516113 .621994 .6516113 .6329956 .6516113 .6329956 .6706085 .6329956 .6796112 .6269989 .6826172 .61898806 .6826172 .59399417 .6826172 .5329895 .6796112 .5079956 .6796112 .47499085 .6796112 .3939972 .6826172 .36099244 .6826172 .35198976 .6826172 .33999635 .6826172 .33999635 .6626129 .33999635 .6516113 .34799195 .6516113 .37399293 .6516113 .39698792 .6516113 .40699769 .6516113 .43199159 .6496124 .45599366 .64660647 .46299745 .64360049 .46299745 .62960818 .46299745 .62361147 .46099855 .61660769 .45899964 .60861209L.34399415 .1496582C.31999208 .052642824 .2519989-.00047302247 .19999695-.00047302247 .17399597-.00047302247 .12098694 .009552002 .10499573 .061660768 .10798645 .060653688 .114990238 .060653688 .116989139 .060653688 .1559906 .060653688 .18199158 .09465027 .18199158 .12464905 .18199158 .15666199 .15499878 .1666565 .13798523 .1666565 .11999512 .1666565 .070999149 .15466309 .070999149 .08665466 .070999149 .02458191 .12399292-.022460938 .20298767-.022460938 .29499818-.022460938 .39898683 .043624879 .42399598 .14265442L.54100039 .6096039Z"/>
</defs>
<path transform="matrix(1.00005,0,0,-1,53.002748,53.528)" stroke-width=".79701" stroke-linecap="butt" stroke-miterlimit="10" stroke-linejoin="miter" fill="none" stroke="#000000" d="M-51.70572 0H51.70572"/>
<path transform="matrix(1.00005,0,0,-1,53.002748,53.528)" stroke-width=".79701" stroke-linecap="butt" stroke-miterlimit="10" stroke-linejoin="miter" fill="none" stroke="#000000" d="M0-51.70572V51.70572"/>
<path transform="matrix(1.00005,0,0,-1,53.002748,53.528)" stroke-width=".79701" stroke-linecap="butt" stroke-miterlimit="10" stroke-linejoin="miter" fill="none" stroke="#ff0000" d="M45.35593 0C45.35593 25.04971 25.04971 45.35593 0 45.35593-25.04971 45.35593-45.35593 25.04971-45.35593 0-45.35593-25.04971-25.04971-45.35593 0-45.35593 25.04971-45.35593 45.35593-25.04971 45.35593 0ZM0 0"/>
<path transform="matrix(1.00005,0,0,-1,53.002748,53.528)" stroke-width=".3985" stroke-linecap="butt" stroke-miterlimit="10" stroke-linejoin="miter" fill="none" stroke="#000000" d="M0 0H45.35591"/>
<path transform="matrix(1.00005,0,0,-1,53.002748,53.528)" stroke-width=".3985" stroke-linecap="butt" stroke-miterlimit="10" stroke-linejoin="miter" fill="none" stroke="#000000" d="M0 0 43.81052 11.73898"/>
<path transform="matrix(1.00005,0,0,-1,53.002748,53.528)" stroke-width=".3985" stroke-linecap="butt" stroke-miterlimit="10" stroke-linejoin="miter" fill="none" stroke="#000000" d="M0 0 39.27948 22.67795"/>
<path transform="matrix(1.00005,0,0,-1,53.002748,53.528)" stroke-width=".3985" stroke-linecap="butt" stroke-miterlimit="10" stroke-linejoin="miter" fill="none" stroke="#000000" d="M0 0 32.0715 32.0715"/>
<path transform="matrix(1.00005,0,0,-1,53.002748,53.528)" stroke-width=".3985" stroke-linecap="butt" stroke-miterlimit="10" stroke-linejoin="miter" fill="none" stroke="#000000" d="M0 0 22.67795 39.27948"/>
<path transform="matrix(1.00005,0,0,-1,53.002748,53.528)" stroke-width=".3985" stroke-linecap="butt" stroke-miterlimit="10" stroke-linejoin="miter" fill="none" stroke="#000000" d="M0 0 11.73898 43.81052"/>
<path transform="matrix(1.00005,0,0,-1,53.002748,53.528)" stroke-width=".3985" stroke-linecap="butt" stroke-miterlimit="10" stroke-linejoin="miter" fill="none" stroke="#000000" d="M0 0V45.35591"/>
<path transform="matrix(1.00005,0,0,-1,53.002748,53.528)" stroke-width=".3985" stroke-linecap="butt" stroke-miterlimit="10" stroke-linejoin="miter" fill="none" stroke="#000000" d="M0 0-11.73898 43.81052"/>
<path transform="matrix(1.00005,0,0,-1,53.002748,53.528)" stroke-width=".3985" stroke-linecap="butt" stroke-miterlimit="10" stroke-linejoin="miter" fill="none" stroke="#000000" d="M0 0-22.67795 39.27948"/>
<path transform="matrix(1.00005,0,0,-1,53.002748,53.528)" stroke-width=".3985" stroke-linecap="butt" stroke-miterlimit="10" stroke-linejoin="miter" fill="none" stroke="#000000" d="M0 0-32.0715 32.0715"/>
<path transform="matrix(1.00005,0,0,-1,53.002748,53.528)" stroke-width=".3985" stroke-linecap="butt" stroke-miterlimit="10" stroke-linejoin="miter" fill="none" stroke="#000000" d="M0 0-39.27948 22.67795"/>
<path transform="matrix(1.00005,0,0,-1,53.002748,53.528)" stroke-width=".3985" stroke-linecap="butt" stroke-miterlimit="10" stroke-linejoin="miter" fill="none" stroke="#000000" d="M0 0-43.81052 11.73898"/>
<path transform="matrix(1.00005,0,0,-1,53.002748,53.528)" stroke-width=".3985" stroke-linecap="butt" stroke-miterlimit="10" stroke-linejoin="miter" fill="none" stroke="#000000" d="M0 0H-45.35591"/>
<path transform="matrix(1.00005,0,0,-1,53.002748,53.528)" stroke-width=".3985" stroke-linecap="butt" stroke-miterlimit="10" stroke-linejoin="miter" fill="none" stroke="#000000" d="M0 0-43.81052-11.73898"/>
<path transform="matrix(1.00005,0,0,-1,53.002748,53.528)" stroke-width=".3985" stroke-linecap="butt" stroke-miterlimit="10" stroke-linejoin="miter" fill="none" stroke="#000000" d="M0 0-39.27948-22.67795"/>
<path transform="matrix(1.00005,0,0,-1,53.002748,53.528)" stroke-width=".3985" stroke-linecap="butt" stroke-miterlimit="10" stroke-linejoin="miter" fill="none" stroke="#000000" d="M0 0-32.0715-32.0715"/>
<path transform="matrix(1.00005,0,0,-1,53.002748,53.528)" stroke-width=".3985" stroke-linecap="butt" stroke-miterlimit="10" stroke-linejoin="miter" fill="none" stroke="#000000" d="M0 0-22.67795-39.27948"/>
<path transform="matrix(1.00005,0,0,-1,53.002748,53.528)" stroke-width=".3985" stroke-linecap="butt" stroke-miterlimit="10" stroke-linejoin="miter" fill="none" stroke="#000000" d="M0 0-11.73898-43.81052"/>
<path transform="matrix(1.00005,0,0,-1,53.002748,53.528)" stroke-width=".3985" stroke-linecap="butt" stroke-miterlimit="10" stroke-linejoin="miter" fill="none" stroke="#000000" d="M0 0V-45.35591"/>
<path transform="matrix(1.00005,0,0,-1,53.002748,53.528)" stroke-width=".3985" stroke-linecap="butt" stroke-miterlimit="10" stroke-linejoin="miter" fill="none" stroke="#000000" d="M0 0 11.73898-43.81052"/>
<path transform="matrix(1.00005,0,0,-1,53.002748,53.528)" stroke-width=".3985" stroke-linecap="butt" stroke-miterlimit="10" stroke-linejoin="miter" fill="none" stroke="#000000" d="M0 0 22.67795-39.27948"/>
<path transform="matrix(1.00005,0,0,-1,53.002748,53.528)" stroke-width=".3985" stroke-linecap="butt" stroke-miterlimit="10" stroke-linejoin="miter" fill="none" stroke="#000000" d="M0 0 32.0715-32.0715"/>
<path transform="matrix(1.00005,0,0,-1,53.002748,53.528)" stroke-width=".3985" stroke-linecap="butt" stroke-miterlimit="10" stroke-linejoin="miter" fill="none" stroke="#000000" d="M0 0 39.27948-22.67795"/>
<path transform="matrix(1.00005,0,0,-1,53.002748,53.528)" stroke-width=".3985" stroke-linecap="butt" stroke-miterlimit="10" stroke-linejoin="miter" fill="none" stroke="#000000" d="M0 0 43.81052-11.73898"/>
<path transform="matrix(1.00005,0,0,-1,53.002748,53.528)" stroke-width=".3985" stroke-linecap="butt" stroke-miterlimit="10" stroke-linejoin="miter" fill="none" stroke="#000000" d="M0 0H45.35591"/>
<path transform="matrix(1.00005,0,0,-1,53.002748,53.528)" stroke-width=".3985" stroke-linecap="butt" stroke-miterlimit="10" stroke-linejoin="miter" fill="none" stroke="#00aeef" d="M72.56947-45.35591H290.27796M72.56947-22.67795H290.27796M72.56947 0H290.27796M72.56947 22.67795H290.27796M72.56947 45.35432H290.27796M72.56947-45.35591V45.35591M90.71185-45.35591V45.35591M108.85423-45.35591V45.35591M126.99661-45.35591V45.35591M145.13896-45.35591V45.35591M163.28134-45.35591V45.35591M181.42372-45.35591V45.35591M199.56609-45.35591V45.35591M217.70847-45.35591V45.35591M235.85085-45.35591V45.35591M253.99323-45.35591V45.35591M272.1356-45.35591V45.35591M290.27638-45.35591V45.35591M290.27796 45.35591"/>
<path transform="matrix(1.00005,0,0,-1,53.002748,53.528)" stroke-width=".79701" stroke-linecap="butt" stroke-miterlimit="10" stroke-linejoin="miter" fill="none" stroke="#000000" d="M72.56947 0H292.92536"/>
<path transform="matrix(1.00005,0,0,-1,345.94273,53.528)" d="M1.0361 0C-.25902 .25902-1.55415 .77707-3.1083 1.68365-1.55415 .51805-1.55415-.51805-3.1083-1.68365-1.55415-.77707-.25902-.25902 1.0361 0Z"/>
<path transform="matrix(1.00005,0,0,-1,345.94273,53.528)" stroke-width=".79701" stroke-linecap="butt" stroke-linejoin="round" fill="none" stroke="#000000" d="M1.0361 0C-.25902 .25902-1.55415 .77707-3.1083 1.68365-1.55415 .51805-1.55415-.51805-3.1083-1.68365-1.55415-.77707-.25902-.25902 1.0361 0Z"/>
<use data-text="&#x03b8;" xlink:href="#font_1_1" transform="matrix(9.963098,0,0,-9.9626,351.09666,56.987)"/>
<path transform="matrix(1.00005,0,0,-1,53.002748,53.528)" stroke-width=".79701" stroke-linecap="butt" stroke-miterlimit="10" stroke-linejoin="miter" fill="none" stroke="#000000" d="M72.56947-45.35591V50.72469"/>
<path transform="matrix(0,-1,-1.00005,-0,125.57584,2.8033105)" d="M1.0361 0C-.25902 .25902-1.55415 .77707-3.1083 1.68365-1.55415 .51805-1.55415-.51805-3.1083-1.68365-1.55415-.77707-.25902-.25902 1.0361 0Z"/>
<path transform="matrix(0,-1,-1.00005,-0,125.57584,2.8033105)" stroke-width=".79701" stroke-linecap="butt" stroke-linejoin="round" fill="none" stroke="#000000" d="M1.0361 0C-.25902 .25902-1.55415 .77707-3.1083 1.68365-1.55415 .51805-1.55415-.51805-3.1083-1.68365-1.55415-.77707-.25902-.25902 1.0361 0Z"/>
<path transform="matrix(1.00005,0,0,-1,53.002748,53.528)" stroke-width="1.19553" stroke-linecap="butt" stroke-miterlimit="10" stroke-linejoin="miter" fill="none" stroke="#ff0000" d="M72.56947 0C72.56947 0 79.12344 8.59196 81.64067 11.7383 84.15788 14.88463 88.19464 19.85558 90.71185 22.67657 93.22908 25.49757 97.26582 29.76659 99.78304 32.07011 102.30026 34.37364 106.337 37.64993 108.85423 39.2788 111.37144 40.90765 115.4082 42.96672 117.92542 43.80981 120.44264 44.65291 124.47939 45.35522 126.99661 45.35522 129.51383 45.35522 133.55055 44.65291 136.0678 43.80981 138.585 42.96672 142.62175 40.90756 145.13896 39.2788 147.6562 37.65004 151.69293 34.37415 154.21016 32.07082 156.72739 29.76747 160.76412 25.49896 163.28134 22.67795 165.79856 19.85695 169.83531 14.88551 172.35253 11.73898 174.86975 8.59247 178.9065 3.25732 181.42372 0 183.94094-3.25732 187.97769-8.59117 190.4949-11.73761 193.01213-14.88403 197.04888-19.85616 199.56609-22.67726 202.08332-25.49837 206.12006-29.76668 208.63729-32.07011 211.1545-34.37355 215.19126-37.64993 217.70847-39.2788 220.2257-40.90765 224.26244-42.96672 226.77965-43.80981 229.29688-44.65291 233.33362-45.35522 235.85085-45.35522 238.36806-45.35522 242.40482-44.65291 244.92203-43.80981 247.43926-42.96672 251.476-40.90756 253.99323-39.2788 256.51045-37.65004 260.54719-34.37405 263.0644-32.07082 265.58164-29.76758 269.61839-25.49963 272.1356-22.67863 274.65284-19.85764 278.68955-14.8856 281.2068-11.73898 283.724-8.59236 290.27796 0 290.27796 0"/>
<path transform="matrix(1.00005,0,0,-1,53.002748,53.528)" d="M146.9579 39.28076C146.9579 40.28273 146.14566 41.09497 145.14369 41.09497 144.14173 41.09497 143.32949 40.28273 143.32949 39.28076 143.32949 38.27881 144.14173 37.46655 145.14369 37.46655 146.14566 37.46655 146.9579 38.27881 146.9579 39.28076ZM145.14369 39.28076"/>
<path transform="matrix(1.00005,0,0,-1,53.002748,53.528)" stroke-width=".3985" stroke-linecap="butt" stroke-miterlimit="10" stroke-linejoin="miter" fill="none" stroke="#000000" d="M146.9579 39.28076C146.9579 40.28273 146.14566 41.09497 145.14369 41.09497 144.14173 41.09497 143.32949 40.28273 143.32949 39.28076 143.32949 38.27881 144.14173 37.46655 145.14369 37.46655 146.14566 37.46655 146.9579 38.27881 146.9579 39.28076ZM145.14369 39.28076"/>
<use data-text="F" xlink:href="#font_1_2" transform="matrix(9.963098,0,0,-9.9626,201.67418,10.727001)"/>
<path transform="matrix(1.00005,0,0,-1,53.002748,53.528)" d="M183.24384 0C183.24384 1.00195 182.4316 1.8142 181.42963 1.8142 180.42768 1.8142 179.61544 1.00195 179.61544 0 179.61544-1.00195 180.42768-1.8142 181.42963-1.8142 182.4316-1.8142 183.24384-1.00195 183.24384 0ZM181.42963 0"/>
<path transform="matrix(1.00005,0,0,-1,53.002748,53.528)" stroke-width=".3985" stroke-linecap="butt" stroke-miterlimit="10" stroke-linejoin="miter" fill="none" stroke="#000000" d="M183.24384 0C183.24384 1.00195 182.4316 1.8142 181.42963 1.8142 180.42768 1.8142 179.61544 1.00195 179.61544 0 179.61544-1.00195 180.42768-1.8142 181.42963-1.8142 182.4316-1.8142 183.24384-1.00195 183.24384 0ZM181.42963 0"/>
<use data-text="G" xlink:href="#font_1_3" transform="matrix(9.963098,0,0,-9.9626,223.08824,63.856)"/>
<path transform="matrix(1.00005,0,0,-1,53.002748,53.528)" d="M219.52977-39.28076C219.52977-38.27881 218.71753-37.46655 217.71556-37.46655 216.71361-37.46655 215.90137-38.27881 215.90137-39.28076 215.90137-40.28273 216.71361-41.09497 217.71556-41.09497 218.71753-41.09497 219.52977-40.28273 219.52977-39.28076ZM217.71556-39.28076"/>
<path transform="matrix(1.00005,0,0,-1,53.002748,53.528)" stroke-width=".3985" stroke-linecap="butt" stroke-miterlimit="10" stroke-linejoin="miter" fill="none" stroke="#000000" d="M219.52977-39.28076C219.52977-38.27881 218.71753-37.46655 217.71556-37.46655 216.71361-37.46655 215.90137-38.27881 215.90137-39.28076 215.90137-40.28273 216.71361-41.09497 217.71556-41.09497 218.71753-41.09497 219.52977-40.28273 219.52977-39.28076ZM217.71556-39.28076"/>
<use data-text="H" xlink:href="#font_1_4" transform="matrix(9.963098,0,0,-9.9626,258.11799,103.136)"/>
<path transform="matrix(1.00005,0,0,-1,53.002748,53.528)" d="M237.67275-45.35739C237.67275-44.35542 236.8605-43.54318 235.85854-43.54318 234.85657-43.54318 234.04433-44.35542 234.04433-45.35739 234.04433-46.35936 234.85657-47.1716 235.85854-47.1716 236.8605-47.1716 237.67275-46.35936 237.67275-45.35739ZM235.85854-45.35739"/>
<path transform="matrix(1.00005,0,0,-1,53.002748,53.528)" stroke-width=".3985" stroke-linecap="butt" stroke-miterlimit="10" stroke-linejoin="miter" fill="none" stroke="#000000" d="M237.67275-45.35739C237.67275-44.35542 236.8605-43.54318 235.85854-43.54318 234.85657-43.54318 234.04433-44.35542 234.04433-45.35739 234.04433-46.35936 234.85657-47.1716 235.85854-47.1716 236.8605-47.1716 237.67275-46.35936 237.67275-45.35739ZM235.85854-45.35739"/>
<use data-text="I" xlink:href="#font_1_5" transform="matrix(9.963098,0,0,-9.9626,286.29243,110.209)"/>
<path transform="matrix(1.00005,0,0,-1,53.002748,53.528)" d="M264.88719-32.07254C264.88719-31.07057 264.07496-30.25833 263.07298-30.25833 262.071-30.25833 261.25877-31.07057 261.25877-32.07254 261.25877-33.0745 262.071-33.88673 263.07298-33.88673 264.07496-33.88673 264.88719-33.0745 264.88719-32.07254ZM263.07298-32.07254"/>
<path transform="matrix(1.00005,0,0,-1,53.002748,53.528)" stroke-width=".3985" stroke-linecap="butt" stroke-miterlimit="10" stroke-linejoin="miter" fill="none" stroke="#000000" d="M264.88719-32.07254C264.88719-31.07057 264.07496-30.25833 263.07298-30.25833 262.071-30.25833 261.25877-31.07057 261.25877-32.07254 261.25877-33.0745 262.071-33.88673 263.07298-33.88673 264.07496-33.88673 264.88719-33.0745 264.88719-32.07254ZM263.07298-32.07254"/>
<use data-text="J" xlink:href="#font_1_6" transform="matrix(9.963098,0,0,-9.9626,319.60905,95.928)"/>
</svg>
