<svg xmlns="http://www.w3.org/2000/svg" xmlns:xlink="http://www.w3.org/1999/xlink" version="1.1" width="357" height="110" viewBox="0 0 357 110">
<defs>
<path id="font_1_1" d="M.45498658 .5001831C.45498658 .56614688 .43699647 .7050781 .33499146 .7050781 .19599915 .7050781 .041992189 .42323304 .041992189 .19425965 .041992189 .100250247 .070999149-.0107421879 .1619873-.0107421879 .30299378-.0107421879 .45498658 .27627564 .45498658 .5001831M.147995 .36328126C.16499329 .42723084 .18499756 .5071869 .22499085 .57814028 .2519989 .6271057 .2889862 .68307498 .33399964 .68307498 .3829956 .68307498 .3889923 .6191101 .3889923 .56214907 .3889923 .5131836 .3809967 .46220399 .35699464 .36328126H.147995M.34799195 .3312683C.33699037 .28527833 .31599427 .2002716 .27799989 .12826538 .24299622 .060256959 .20498657 .011245728 .1619873 .011245728 .1289978 .011245728 .10798645 .040252687 .10798645 .133255 .10798645 .17526245 .11399841 .23326111 .13999939 .3312683H.34799195Z"/>
<path id="font_1_2" d="M.1789856 .114868167C.13899231 .047973634 .099990848 .033981325 .055999757 .0309906 .04399109 .02999878 .034988405 .02999878 .034988405 .010986328 .034988405 .004989624 .039993287 0 .04798889 0 .07499695 0 .10598755 .0029907227 .13398743 .0029907227 .16699219 .0029907227 .20199585 0 .23399353 0 .23999024 0 .25299073 0 .25299073 .018997193 .25299073 .02999878 .24398804 .0309906 .23699951 .0309906 .21398926 .032989503 .18998719 .04096985 .18998719 .06593323 .18998719 .077926639 .19599915 .088897708 .20399475 .102890018L.27999879 .23068238H.5309906C.5329895 .2097168 .5469971 .07392883 .5469971 .063949588 .5469971 .033981325 .49499513 .0309906 .47499085 .0309906 .46099855 .0309906 .45098878 .0309906 .45098878 .010986328 .45098878 0 .46299745 0 .46499635 0 .5059967 0 .548996 .0029907227 .58999636 .0029907227 .61499026 .0029907227 .6779938 0 .7029877 0 .70899966 0 .72099307 0 .72099307 .019989014 .72099307 .0309906 .71099856 .0309906 .69799807 .0309906 .6359863 .0309906 .6359863 .037979127 .6329956 .06694031L.57199099 .691803C.56999209 .71180728 .56999209 .7158203 .5529938 .7158203 .5369873 .7158203 .5329895 .7088165 .5269928 .69880679L.1789856 .114868167M.29899598 .26168824 .49598695 .5917816 .5279999 .26168824H.29899598Z"/>
<path id="font_1_3" d="M.1599884 .07795715C.1499939 .038986207 .147995 .0309906 .068984989 .0309906 .051986696 .0309906 .041992189 .0309906 .041992189 .010986328 .041992189 0 .050994874 0 .068984989 0H.42599488C.58399966 0 .70199587 .11791992 .70199587 .21585083 .70199587 .28778077 .6439972 .3457489 .5469971 .35673524 .651001 .37573243 .7559967 .44970704 .7559967 .5446625 .7559967 .6186218 .6899872 .6826172 .56999209 .6826172H.23399353C.21499634 .6826172 .20498657 .6826172 .20498657 .6626129 .20498657 .6516113 .21398926 .6516113 .23298645 .6516113 .23498535 .6516113 .2539978 .6516113 .2709961 .6496124 .2889862 .6476135 .2979889 .64660647 .2979889 .6336212 .2979889 .6296234 .29699708 .62661746 .2939911 .614624L.1599884 .07795715M.31098939 .36573792 .37298585 .6136322C.38198854 .64860537 .38398744 .6516113 .4269867 .6516113H.55599978C.6439972 .6516113 .6649933 .5926361 .6649933 .5486603 .6649933 .46069337 .57899478 .36573792 .45700074 .36573792H.31098939M.2659912 .0309906C.2519989 .0309906 .25 .0309906 .24398804 .03199768 .23399353 .032989503 .23098755 .033996583 .23098755 .04197693 .23098755 .04498291 .23098755 .04698181 .23599243 .064971927L.30499269 .34375H.49398805C.58999636 .34375 .60899356 .2698059 .60899356 .22683716 .60899356 .12791443 .519989 .0309906 .4019928 .0309906H.2659912Z"/>
<path id="font_1_4" d="M.7599945 .69506838C.7599945 .69807437 .7579956 .7050781 .7489929 .7050781 .74598696 .7050781 .7449951 .70407107 .73399356 .69306948L.6639862 .61602786C.6549988 .6300354 .60899356 .7050781 .49798585 .7050781 .2749939 .7050781 .049987794 .48391725 .049987794 .25172425 .049987794 .08659363 .16799927-.022460938 .32099916-.022460938 .4079895-.022460938 .48399354 .017532349 .5369873 .063583377 .6299896 .14564514 .6469879 .2367096 .6469879 .23971558 .6469879 .24972534 .6369934 .24972534 .6349945 .24972534 .6289978 .24972534 .6239929 .24772644 .621994 .23971558 .61299136 .21069336 .58999636 .13963318 .5209961 .081588748 .45199586 .025543213 .3889923 .008529663 .33699037 .008529663 .24699402 .008529663 .14099121 .060577394 .14099121 .21670532 .14099121 .27374269 .1619873 .43588258 .2619934 .55296328 .32299806 .62402346 .4169922 .67407229 .5059967 .67407229 .60798647 .67407229 .6669922 .5970001 .6669922 .48091126 .6669922 .44088746 .6639862 .43988038 .6639862 .4298706 .6639862 .41986085 .6749878 .41986085 .67900088 .41986085 .69200137 .41986085 .69200137 .42185975 .69699099 .43988038L.7599945 .69506838Z"/>
<path id="font_1_5" d="M.15899658 .07795715C.14898682 .038986207 .14698792 .0309906 .067993167 .0309906 .050994874 .0309906 .039993287 .0309906 .039993287 .011993408 .039993287 0 .04899597 0 .067993167 0H.39898683C.6069946 0 .80400088 .21087647 .80400088 .42974855 .80400088 .5706482 .71899417 .6826172 .56900027 .6826172H.23298645C.21398926 .6826172 .20298767 .6826172 .20298767 .66360476 .20298767 .6516113 .21199036 .6516113 .23199463 .6516113 .24499512 .6516113 .2630005 .65060427 .2749939 .6496124 .29100038 .6476135 .29699708 .64460757 .29699708 .6336212 .29699708 .6296234 .29599 .62661746 .29299928 .614624L.15899658 .07795715M.375 .6136322C.38398744 .64860537 .38598634 .6516113 .42900086 .6516113H.5359955C.6339874 .6516113 .71699526 .5986328 .71699526 .46672059 .71699526 .41775514 .69699099 .25386048 .6119995 .1439209 .58299258 .10694885 .5039978 .0309906 .3809967 .0309906H.2679901C.2539978 .0309906 .2519989 .0309906 .24598694 .03199768 .23599243 .032989503 .23298645 .033996583 .23298645 .041992189 .23298645 .04498291 .23298645 .04698181 .23799134 .064971927L.375 .6136322Z"/>
<path id="font_1_6" d="M.70799258 .23292542C.70999148 .23791504 .71299746 .24491883 .71299746 .24691773 .71299746 .24790955 .71299746 .2579193 .70098879 .2579193 .69200137 .2579193 .6899872 .25190736 .6879883 .24591065 .6230011 .097961429 .58599856 .0309906 .4149933 .0309906H.2689972C.25498963 .0309906 .25299073 .0309906 .24699402 .03199768 .23699951 .032989503 .23399353 .033996583 .23399353 .041992189 .23399353 .04498291 .23399353 .04698181 .23899842 .06498718L.30699159 .33789063H.4059906C.4909973 .33789063 .4909973 .31689454 .4909973 .29190064 .4909973 .28489686 .4909973 .27290345 .48399354 .24291992 .48199464 .23791504 .48098756 .23492432 .48098756 .23191834 .48098756 .22692871 .4850006 .220932 .49398805 .220932 .5019989 .220932 .5049896 .22592163 .5089874 .24092102L.56599429 .47477723C.56599429 .48077394 .5609894 .48576356 .55400088 .48576356 .54499819 .48576356 .54299929 .47976686 .5399933 .4677887 .5189972 .39186097 .5009918 .36888124 .40899659 .36888124H.31498719L.375 .60964968C.38398744 .64460757 .3849945 .64860537 .42900086 .64860537H.56999209C.69200137 .64860537 .7220001 .61964419 .7220001 .5377197 .7220001 .51374819 .7220001 .51174929 .71798709 .48477174 .71798709 .47877503 .71699526 .4717865 .71699526 .46678163 .71699526 .461792 .7200012 .45480348 .72898867 .45480348 .73999026 .45480348 .7409973 .46080018 .7429962 .47976686L.7630005 .65260317C.7659912 .6796112 .7609863 .6796112 .73599246 .6796112H.23098755C.21099854 .6796112 .20098877 .6796112 .20098877 .65960696 .20098877 .64860537 .20999146 .64860537 .22898865 .64860537 .2659912 .64860537 .2939911 .64860537 .2939911 .6306305 .2939911 .6266327 .2939911 .6246338 .2889862 .6066437L.15699768 .07797241C.14698792 .038986207 .14498902 .0309906 .06599426 .0309906 .04899597 .0309906 .037994386 .0309906 .037994386 .011993408 .037994386 0 .04699707 0 .06599426 0H.58499148C.60798647 0 .60899356 .0009918213 .6159973 .016998291L.70799258 .23292542Z"/>
</defs>
<path transform="matrix(1.00005,0,0,-1,52.948839,56.605)" stroke-width=".79701" stroke-linecap="butt" stroke-miterlimit="10" stroke-linejoin="miter" fill="none" stroke="#000000" d="M-51.70572 0H51.70572"/>
<path transform="matrix(1.00005,0,0,-1,52.948839,56.605)" stroke-width=".79701" stroke-linecap="butt" stroke-miterlimit="10" stroke-linejoin="miter" fill="none" stroke="#000000" d="M0-51.70572V51.70572"/>
<path transform="matrix(1.00005,0,0,-1,52.948839,56.605)" stroke-width=".79701" stroke-linecap="butt" stroke-miterlimit="10" stroke-linejoin="miter" fill="none" stroke="#ff0000" d="M45.35593 0C45.35593 25.04971 25.04971 45.35593 0 45.35593-25.04971 45.35593-45.35593 25.04971-45.35593 0-45.35593-25.04971-25.04971-45.35593 0-45.35593 25.04971-45.35593 45.35593-25.04971 45.35593 0ZM0 0"/>
<path transform="matrix(1.00005,0,0,-1,52.948839,56.605)" stroke-width=".3985" stroke-linecap="butt" stroke-miterlimit="10" stroke-linejoin="miter" fill="none" stroke="#000000" d="M0 0H45.35591"/>
<path transform="matrix(1.00005,0,0,-1,52.948839,56.605)" stroke-width=".3985" stroke-linecap="butt" stroke-miterlimit="10" stroke-linejoin="miter" fill="none" stroke="#000000" d="M0 0 43.81052 11.73898"/>
<path transform="matrix(1.00005,0,0,-1,52.948839,56.605)" stroke-width=".3985" stroke-linecap="butt" stroke-miterlimit="10" stroke-linejoin="miter" fill="none" stroke="#000000" d="M0 0 39.27948 22.67795"/>
<path transform="matrix(1.00005,0,0,-1,52.948839,56.605)" stroke-width=".3985" stroke-linecap="butt" stroke-miterlimit="10" stroke-linejoin="miter" fill="none" stroke="#000000" d="M0 0 32.0715 32.0715"/>
<path transform="matrix(1.00005,0,0,-1,52.948839,56.605)" stroke-width=".3985" stroke-linecap="butt" stroke-miterlimit="10" stroke-linejoin="miter" fill="none" stroke="#000000" d="M0 0 22.67795 39.27948"/>
<path transform="matrix(1.00005,0,0,-1,52.948839,56.605)" stroke-width=".3985" stroke-linecap="butt" stroke-miterlimit="10" stroke-linejoin="miter" fill="none" stroke="#000000" d="M0 0 11.73898 43.81052"/>
<path transform="matrix(1.00005,0,0,-1,52.948839,56.605)" stroke-width=".3985" stroke-linecap="butt" stroke-miterlimit="10" stroke-linejoin="miter" fill="none" stroke="#000000" d="M0 0V45.35591"/>
<path transform="matrix(1.00005,0,0,-1,52.948839,56.605)" stroke-width=".3985" stroke-linecap="butt" stroke-miterlimit="10" stroke-linejoin="miter" fill="none" stroke="#000000" d="M0 0-11.73898 43.81052"/>
<path transform="matrix(1.00005,0,0,-1,52.948839,56.605)" stroke-width=".3985" stroke-linecap="butt" stroke-miterlimit="10" stroke-linejoin="miter" fill="none" stroke="#000000" d="M0 0-22.67795 39.27948"/>
<path transform="matrix(1.00005,0,0,-1,52.948839,56.605)" stroke-width=".3985" stroke-linecap="butt" stroke-miterlimit="10" stroke-linejoin="miter" fill="none" stroke="#000000" d="M0 0-32.0715 32.0715"/>
<path transform="matrix(1.00005,0,0,-1,52.948839,56.605)" stroke-width=".3985" stroke-linecap="butt" stroke-miterlimit="10" stroke-linejoin="miter" fill="none" stroke="#000000" d="M0 0-39.27948 22.67795"/>
<path transform="matrix(1.00005,0,0,-1,52.948839,56.605)" stroke-width=".3985" stroke-linecap="butt" stroke-miterlimit="10" stroke-linejoin="miter" fill="none" stroke="#000000" d="M0 0-43.81052 11.73898"/>
<path transform="matrix(1.00005,0,0,-1,52.948839,56.605)" stroke-width=".3985" stroke-linecap="butt" stroke-miterlimit="10" stroke-linejoin="miter" fill="none" stroke="#000000" d="M0 0H-45.35591"/>
<path transform="matrix(1.00005,0,0,-1,52.948839,56.605)" stroke-width=".3985" stroke-linecap="butt" stroke-miterlimit="10" stroke-linejoin="miter" fill="none" stroke="#000000" d="M0 0-43.81052-11.73898"/>
<path transform="matrix(1.00005,0,0,-1,52.948839,56.605)" stroke-width=".3985" stroke-linecap="butt" stroke-miterlimit="10" stroke-linejoin="miter" fill="none" stroke="#000000" d="M0 0-39.27948-22.67795"/>
<path transform="matrix(1.00005,0,0,-1,52.948839,56.605)" stroke-width=".3985" stroke-linecap="butt" stroke-miterlimit="10" stroke-linejoin="miter" fill="none" stroke="#000000" d="M0 0-32.0715-32.0715"/>
<path transform="matrix(1.00005,0,0,-1,52.948839,56.605)" stroke-width=".3985" stroke-linecap="butt" stroke-miterlimit="10" stroke-linejoin="miter" fill="none" stroke="#000000" d="M0 0-22.67795-39.27948"/>
<path transform="matrix(1.00005,0,0,-1,52.948839,56.605)" stroke-width=".3985" stroke-linecap="butt" stroke-miterlimit="10" stroke-linejoin="miter" fill="none" stroke="#000000" d="M0 0-11.73898-43.81052"/>
<path transform="matrix(1.00005,0,0,-1,52.948839,56.605)" stroke-width=".3985" stroke-linecap="butt" stroke-miterlimit="10" stroke-linejoin="miter" fill="none" stroke="#000000" d="M0 0V-45.35591"/>
<path transform="matrix(1.00005,0,0,-1,52.948839,56.605)" stroke-width=".3985" stroke-linecap="butt" stroke-miterlimit="10" stroke-linejoin="miter" fill="none" stroke="#000000" d="M0 0 11.73898-43.81052"/>
<path transform="matrix(1.00005,0,0,-1,52.948839,56.605)" stroke-width=".3985" stroke-linecap="butt" stroke-miterlimit="10" stroke-linejoin="miter" fill="none" stroke="#000000" d="M0 0 22.67795-39.27948"/>
<path transform="matrix(1.00005,0,0,-1,52.948839,56.605)" stroke-width=".3985" stroke-linecap="butt" stroke-miterlimit="10" stroke-linejoin="miter" fill="none" stroke="#000000" d="M0 0 32.0715-32.0715"/>
<path transform="matrix(1.00005,0,0,-1,52.948839,56.605)" stroke-width=".3985" stroke-linecap="butt" stroke-miterlimit="10" stroke-linejoin="miter" fill="none" stroke="#000000" d="M0 0 39.27948-22.67795"/>
<path transform="matrix(1.00005,0,0,-1,52.948839,56.605)" stroke-width=".3985" stroke-linecap="butt" stroke-miterlimit="10" stroke-linejoin="miter" fill="none" stroke="#000000" d="M0 0 43.81052-11.73898"/>
<path transform="matrix(1.00005,0,0,-1,52.948839,56.605)" stroke-width=".3985" stroke-linecap="butt" stroke-miterlimit="10" stroke-linejoin="miter" fill="none" stroke="#000000" d="M0 0H45.35591"/>
<path transform="matrix(1.00005,0,0,-1,52.948839,56.605)" stroke-width=".3985" stroke-linecap="butt" stroke-miterlimit="10" stroke-linejoin="miter" fill="none" stroke="#00aeef" d="M72.56947-45.35591H290.27796M72.56947-22.67795H290.27796M72.56947 0H290.27796M72.56947 22.67795H290.27796M72.56947 45.35432H290.27796M72.56947-45.35591V45.35591M90.71185-45.35591V45.35591M108.85423-45.35591V45.35591M126.99661-45.35591V45.35591M145.13896-45.35591V45.35591M163.28134-45.35591V45.35591M181.42372-45.35591V45.35591M199.56609-45.35591V45.35591M217.70847-45.35591V45.35591M235.85085-45.35591V45.35591M253.99323-45.35591V45.35591M272.1356-45.35591V45.35591M290.27638-45.35591V45.35591M290.27796 45.35591"/>
<path transform="matrix(1.00005,0,0,-1,52.948839,56.605)" stroke-width=".79701" stroke-linecap="butt" stroke-miterlimit="10" stroke-linejoin="miter" fill="none" stroke="#000000" d="M72.56947 0H293.37895"/>
<path transform="matrix(1.00005,0,0,-1,346.3424,56.605)" d="M1.0361 0C-.25902 .25902-1.55415 .77707-3.1083 1.68365-1.55415 .51805-1.55415-.51805-3.1083-1.68365-1.55415-.77707-.25902-.25902 1.0361 0Z"/>
<path transform="matrix(1.00005,0,0,-1,346.3424,56.605)" stroke-width=".79701" stroke-linecap="butt" stroke-linejoin="round" fill="none" stroke="#000000" d="M1.0361 0C-.25902 .25902-1.55415 .77707-3.1083 1.68365-1.55415 .51805-1.55415-.51805-3.1083-1.68365-1.55415-.77707-.25902-.25902 1.0361 0Z"/>
<use data-text="&#x03b8;" xlink:href="#font_1_1" transform="matrix(9.963098,0,0,-9.9626,351.49678,60.064)"/>
<path transform="matrix(1.00005,0,0,-1,52.948839,56.605)" stroke-width=".79701" stroke-linecap="butt" stroke-miterlimit="10" stroke-linejoin="miter" fill="none" stroke="#000000" d="M72.56947-45.35591V50.72469"/>
<path transform="matrix(0,-1,-1.00005,-0,125.521938,5.88031)" d="M1.0361 0C-.25902 .25902-1.55415 .77707-3.1083 1.68365-1.55415 .51805-1.55415-.51805-3.1083-1.68365-1.55415-.77707-.25902-.25902 1.0361 0Z"/>
<path transform="matrix(0,-1,-1.00005,-0,125.521938,5.88031)" stroke-width=".79701" stroke-linecap="butt" stroke-linejoin="round" fill="none" stroke="#000000" d="M1.0361 0C-.25902 .25902-1.55415 .77707-3.1083 1.68365-1.55415 .51805-1.55415-.51805-3.1083-1.68365-1.55415-.77707-.25902-.25902 1.0361 0Z"/>
<path transform="matrix(1.00005,0,0,-1,52.948839,56.605)" stroke-width="1.19553" stroke-linecap="butt" stroke-miterlimit="10" stroke-linejoin="miter" fill="none" stroke="#ff0000" d="M72.56947 0C72.56947 0 79.12344 8.59196 81.64067 11.7383 84.15788 14.88463 88.19464 19.85558 90.71185 22.67657 93.22908 25.49757 97.26582 29.76659 99.78304 32.07011 102.30026 34.37364 106.337 37.64993 108.85423 39.2788 111.37144 40.90765 115.4082 42.96672 117.92542 43.80981 120.44264 44.65291 124.47939 45.35522 126.99661 45.35522 129.51383 45.35522 133.55055 44.65291 136.0678 43.80981 138.585 42.96672 142.62175 40.90756 145.13896 39.2788 147.6562 37.65004 151.69293 34.37415 154.21016 32.07082 156.72739 29.76747 160.76412 25.49896 163.28134 22.67795 165.79856 19.85695 169.83531 14.88551 172.35253 11.73898 174.86975 8.59247 178.9065 3.25732 181.42372 0 183.94094-3.25732 187.97769-8.59117 190.4949-11.73761 193.01213-14.88403 197.04888-19.85616 199.56609-22.67726 202.08332-25.49837 206.12006-29.76668 208.63729-32.07011 211.1545-34.37355 215.19126-37.64993 217.70847-39.2788 220.2257-40.90765 224.26244-42.96672 226.77965-43.80981 229.29688-44.65291 233.33362-45.35522 235.85085-45.35522 238.36806-45.35522 242.40482-44.65291 244.92203-43.80981 247.43926-42.96672 251.476-40.90756 253.99323-39.2788 256.51045-37.65004 260.54719-34.37405 263.0644-32.07082 265.58164-29.76758 269.61839-25.49963 272.1356-22.67863 274.65284-19.85764 278.68955-14.8856 281.2068-11.73898 283.724-8.59236 290.27796 0 290.27796 0"/>
<path transform="matrix(1.00005,0,0,-1,52.948839,56.605)" d="M47.1716 0C47.1716 1.00195 46.35936 1.8142 45.35739 1.8142 44.35542 1.8142 43.54318 1.00195 43.54318 0 43.54318-1.00195 44.35542-1.8142 45.35739-1.8142 46.35936-1.8142 47.1716-1.00195 47.1716 0ZM45.35739 0"/>
<path transform="matrix(1.00005,0,0,-1,52.948839,56.605)" stroke-width=".3985" stroke-linecap="butt" stroke-miterlimit="10" stroke-linejoin="miter" fill="none" stroke="#000000" d="M47.1716 0C47.1716 1.00195 46.35936 1.8142 45.35739 1.8142 44.35542 1.8142 43.54318 1.00195 43.54318 0 43.54318-1.00195 44.35542-1.8142 45.35739-1.8142 46.35936-1.8142 47.1716-1.00195 47.1716 0ZM45.35739 0"/>
<use data-text="A" xlink:href="#font_1_2" transform="matrix(9.963098,0,0,-9.9626,101.82828,66.933)"/>
<path transform="matrix(1.00005,0,0,-1,52.948839,56.605)" d="M24.49289 39.28076C24.49289 40.28273 23.68065 41.09497 22.67868 41.09497 21.67673 41.09497 20.86449 40.28273 20.86449 39.28076 20.86449 38.27881 21.67673 37.46655 22.67868 37.46655 23.68065 37.46655 24.49289 38.27881 24.49289 39.28076ZM22.67868 39.28076"/>
<path transform="matrix(1.00005,0,0,-1,52.948839,56.605)" stroke-width=".3985" stroke-linecap="butt" stroke-miterlimit="10" stroke-linejoin="miter" fill="none" stroke="#000000" d="M24.49289 39.28076C24.49289 40.28273 23.68065 41.09497 22.67868 41.09497 21.67673 41.09497 20.86449 40.28273 20.86449 39.28076 20.86449 38.27881 21.67673 37.46655 22.67868 37.46655 23.68065 37.46655 24.49289 38.27881 24.49289 39.28076ZM22.67868 39.28076"/>
<use data-text="B" xlink:href="#font_1_3" transform="matrix(9.963098,0,0,-9.9626,79.14815,13.804001)"/>
<path transform="matrix(1.00005,0,0,-1,52.948839,56.605)" d="M1.8142 45.35739C1.8142 46.35936 1.00195 47.1716 0 47.1716-1.00195 47.1716-1.8142 46.35936-1.8142 45.35739-1.8142 44.35542-1.00195 43.54318 0 43.54318 1.00195 43.54318 1.8142 44.35542 1.8142 45.35739ZM0 45.35739"/>
<path transform="matrix(1.00005,0,0,-1,52.948839,56.605)" stroke-width=".3985" stroke-linecap="butt" stroke-miterlimit="10" stroke-linejoin="miter" fill="none" stroke="#000000" d="M1.8142 45.35739C1.8142 46.35936 1.00195 47.1716 0 47.1716-1.00195 47.1716-1.8142 46.35936-1.8142 45.35739-1.8142 44.35542-1.00195 43.54318 0 43.54318 1.00195 43.54318 1.8142 44.35542 1.8142 45.35739ZM0 45.35739"/>
<use data-text="C" xlink:href="#font_1_4" transform="matrix(9.963098,0,0,-9.9626,41.59527,7.7280008)"/>
<path transform="matrix(1.00005,0,0,-1,52.948839,56.605)" d="M-30.25833 32.07254C-30.25833 33.0745-31.07057 33.88673-32.07254 33.88673-33.0745 33.88673-33.88673 33.0745-33.88673 32.07254-33.88673 31.07057-33.0745 30.25833-32.07254 30.25833-31.07057 30.25833-30.25833 31.07057-30.25833 32.07254ZM-32.07254 32.07254"/>
<path transform="matrix(1.00005,0,0,-1,52.948839,56.605)" stroke-width=".3985" stroke-linecap="butt" stroke-miterlimit="10" stroke-linejoin="miter" fill="none" stroke="#000000" d="M-30.25833 32.07254C-30.25833 33.0745-31.07057 33.88673-32.07254 33.88673-33.0745 33.88673-33.88673 33.0745-33.88673 32.07254-33.88673 31.07057-33.0745 30.25833-32.07254 30.25833-31.07057 30.25833-30.25833 31.07057-30.25833 32.07254ZM-32.07254 32.07254"/>
<use data-text="D" xlink:href="#font_1_5" transform="matrix(9.963098,0,0,-9.9626,8.829636,27.935999)"/>
<path transform="matrix(1.00005,0,0,-1,52.948839,56.605)" d="M-37.46655-22.67868C-37.46655-21.67673-38.27881-20.86449-39.28076-20.86449-40.28273-20.86449-41.09497-21.67673-41.09497-22.67868-41.09497-23.68065-40.28273-24.49289-39.28076-24.49289-38.27881-24.49289-37.46655-23.68065-37.46655-22.67868ZM-39.28076-22.67868"/>
<path transform="matrix(1.00005,0,0,-1,52.948839,56.605)" stroke-width=".3985" stroke-linecap="butt" stroke-miterlimit="10" stroke-linejoin="miter" fill="none" stroke="#000000" d="M-37.46655-22.67868C-37.46655-21.67673-38.27881-20.86449-39.28076-20.86449-40.28273-20.86449-41.09497-21.67673-41.09497-22.67868-41.09497-23.68065-40.28273-24.49289-39.28076-24.49289-38.27881-24.49289-37.46655-23.68065-37.46655-22.67868ZM-39.28076-22.67868"/>
<use data-text="E" xlink:href="#font_1_6" transform="matrix(9.963098,0,0,-9.9626,2.2173005,89.611)"/>
</svg>
