<svg xmlns="http://www.w3.org/2000/svg" xmlns:xlink="http://www.w3.org/1999/xlink" version="1.1" width="130" height="92" viewBox="0 0 130 92">
<defs>
<path id="font_1_1" d="M.45498658 .5001831C.45498658 .56614688 .43699647 .7050781 .33499146 .7050781 .19599915 .7050781 .041992189 .42323304 .041992189 .19425965 .041992189 .100250247 .070999149-.0107421879 .1619873-.0107421879 .30299378-.0107421879 .45498658 .27627564 .45498658 .5001831M.147995 .36328126C.16499329 .42723084 .18499756 .5071869 .22499085 .57814028 .2519989 .6271057 .2889862 .68307498 .33399964 .68307498 .3829956 .68307498 .3889923 .6191101 .3889923 .56214907 .3889923 .5131836 .3809967 .46220399 .35699464 .36328126H.147995M.34799195 .3312683C.33699037 .28527833 .31599427 .2002716 .27799989 .12826538 .24299622 .060256959 .20498657 .011245728 .1619873 .011245728 .1289978 .011245728 .10798645 .040252687 .10798645 .133255 .10798645 .17526245 .11399841 .23326111 .13999939 .3312683H.34799195Z"/>
<path id="font_1_2" d="M.48599244 .38136292C.48999024 .39537049 .48999024 .39736939 .48999024 .40437318 .48999024 .42237855 .47599793 .43138124 .46099855 .43138124 .45098878 .43138124 .43499757 .42536927 .42599488 .41036988 .42399598 .405365 .41600038 .37435914 .4119873 .35635377 .40499879 .33035279 .397995 .30334474 .3919983 .27633668L.34700013 .09628296C.34298707 .08126831 .2999878 .011245728 .23399353 .011245728 .18299866 .011245728 .17199707 .055267335 .17199707 .0922699 .17199707 .1382904 .18899536 .20030213 .22299195 .28833009 .23899842 .3293457 .24299622 .3403473 .24299622 .36035157 .24299622 .405365 .21099854 .4423828 .16099549 .4423828 .06599426 .4423828 .0289917 .29733277 .0289917 .28833009 .0289917 .27833558 .038986207 .27833558 .040985109 .27833558 .050994874 .27833558 .051986696 .28033448 .056991579 .29634095 .083999637 .3903656 .12399292 .42037965 .1579895 .42037965 .1659851 .42037965 .18299866 .42037965 .18299866 .3883667 .18299866 .36335755 .17298889 .3373413 .1659851 .31834413 .12599182 .21231079 .10798645 .1552887 .10798645 .10827637 .10798645 .019256592 .17098999-.0107421879 .22999573-.0107421879 .2689972-.0107421879 .30299378 .0062561037 .33099366 .03425598 .31799317-.017745972 .30599977-.06674194 .2659912-.11973572 .23999024-.15385437 .20199585-.18309021 .1559906-.18309021 .14199829-.18309021 .09700012-.18005371 .07998657-.14074707 .09599304-.14074707 .10899353-.14074707 .12298584-.1287384 .1329956-.11973572 .14299011-.10673523 .14299011-.08773804 .14299011-.056747438 .115997318-.052734376 .10598755-.052734376 .08299255-.052734376 .049987794-.068740848 .049987794-.11773682 .049987794-.16796875 .09399414-.20507813 .1559906-.20507813 .25898744-.20507813 .3619995-.11373901 .3899994-.00074768069L.48599244 .38136292Z"/>
<path id="font_2_6" d="M.13398743 .33073426C.13398743 .43276979 .14498902 .4897766 .17199707 .54177859 .19198609 .58277896 .24099732 .64100649 .31498719 .64100649 .33499146 .64100649 .3809967 .63697817 .4039917 .6007843 .36698915 .6007843 .35099793 .5817871 .35099793 .55477908 .35099793 .5287781 .36898805 .50878909 .39698792 .50878909 .4249878 .50878909 .44400025 .5267792 .44400025 .55677798 .44400025 .612854 .4039917 .6660156 .31298829 .6660156 .18399048 .6660156 .042999269 .53878787 .042999269 .3157196 .042999269 .044555665 .16499329-.022460938 .25898744-.022460938 .36999513-.022460938 .46998597 .0705719 .46998597 .20265198 .46998597 .32972718 .37799073 .42578126 .2649994 .42578126 .20498657 .42578126 .1619873 .39076234 .13398743 .33073426M.2579956 .0055389406C.20098877 .0055389406 .16799927 .05256653 .1559906 .08157349 .13699341 .12660218 .13598633 .20965576 .13598633 .22566223 .13598633 .29270936 .16699219 .4007721 .2630005 .4007721 .2789917 .4007721 .32798768 .4007721 .3600006 .33872987 .3789978 .30070497 .3789978 .25167848 .3789978 .20365906 .3789978 .15562439 .3789978 .1065979 .3600006 .06956482 .32899476 .012542725 .2849884 .0055389406 .2579956 .0055389406Z"/>
<path id="font_2_1" d="M.47299195 .31976319C.47299195 .38682557 .46998597 .47288514 .43499757 .5479431 .3909912 .64201357 .31498719 .6660156 .25698854 .6660156 .19699097 .6660156 .12098694 .64201357 .07699585 .5459442 .04499817 .47688294 .039993287 .39582826 .039993287 .31976319 .039993287 .25471498 .041992189 .15765381 .084991458 .07858276 .13198853-.0064697267 .20999146-.022460938 .2559967-.022460938 .32099916-.022460938 .394989 .0055389406 .43699647 .097595218 .46699525 .1646576 .47299195 .23971558 .47299195 .31976319M.25698854 .002532959C.22698975 .002532959 .15499878 .016540528 .13598633 .12962342 .12599182 .18867493 .12599182 .2747345 .12599182 .33177186 .12599182 .39982606 .12599182 .47888185 .13798523 .53393557 .1579895 .6230011 .22200012 .64100649 .2559967 .64100649 .2939911 .64100649 .35699464 .62098696 .37599183 .5279236 .3869934 .47288514 .3869934 .39482118 .3869934 .33177186 .3869934 .2697296 .3869934 .18566895 .3769989 .12661743 .35598756 .012542725 .28199769 .002532959 .25698854 .002532959Z"/>
<path id="font_2_2" d="M.3039856 .6392822C.3039856 .6642761 .30299378 .666275 .27799989 .666275 .21598816 .60227969 .12399292 .60227969 .09298706 .60227969V.57128909C.11199951 .57128909 .17298889 .57128909 .22698975 .5972748V.08001709C.22698975 .042999269 .22399903 .0309906 .1309967 .0309906H.09899902V0C.1349945 .0029907227 .22399903 .0029907227 .2649994 .0029907227 .30599977 .0029907227 .3959961 .0029907227 .43199159 0V.0309906H.3999939C.30699159 .0309906 .3039856 .042999269 .3039856 .08001709V.6392822Z"/>
<path id="font_2_3" d="M.46199037 .17704773H.43399049C.43199159 .16404724 .42399598 .10501099 .41099549 .08900452 .40499879 .07998657 .33599855 .07998657 .31599427 .07998657H.13798523L.23699951 .17404175C.40098573 .3161316 .46199037 .36915589 .46199037 .4711914 .46199037 .5860901 .36698915 .6660156 .24398804 .6660156 .1289978 .6660156 .050994874 .575119 .050994874 .4841919 .050994874 .43418885 .09399414 .42919923 .102996829 .42919923 .125 .42919923 .15499878 .44519044 .15499878 .48120118 .15499878 .51119998 .13398743 .5332031 .102996829 .5332031 .09799194 .5332031 .09498596 .5332031 .09098816 .53219607 .114990238 .6030731 .1789856 .63500979 .23298645 .63500979 .33499146 .63500979 .36999513 .5401764 .36999513 .4711914 .36999513 .36915589 .29299928 .28611756 .24499512 .23408509L.06199646 .035995485C.050994874 .024993897 .050994874 .022994996 .050994874 0H.43399049L.46199037 .17704773Z"/>
<path id="font_2_7" d="M.17199707 .45387269C.14199829 .47288514 .11898804 .4998932 .11898804 .53692629 .11898804 .6019745 .18899536 .64100649 .25498963 .64100649 .33198548 .64100649 .3939972 .58695986 .3939972 .51690676 .3939972 .44685365 .33399964 .40083314 .2939911 .37780763L.17199707 .45387269M.31900025 .36180116C.36898805 .38581849 .44198609 .43585206 .44198609 .51690676 .44198609 .6109772 .34799195 .6660156 .2579956 .6660156 .15299988 .6660156 .070999149 .5909729 .070999149 .49890138 .070999149 .46087647 .084991458 .42485047 .10899353 .39582826 .12599182 .3768158 .13198853 .37280274 .18998719 .3357849 .101989749 .29374696 .042999269 .23269654 .042999269 .15063477 .042999269 .044555665 .147995-.022460938 .2559967-.022460938 .37199403-.022460938 .46998597 .059570314 .46998597 .16764832 .46998597 .26472474 .3959961 .3127594 .37098695 .32876588 .3600006 .33677674 .33099366 .35479737 .31900025 .36180116M.21699524 .31877137 .34298707 .2407074C.3659973 .22569275 .41600038 .19366455 .41600038 .1326294 .41600038 .05357361 .33599855 .0055389406 .25698854 .0055389406 .16999817 .0055389406 .09700012 .06758118 .09700012 .15063477 .09700012 .22268677 .14698792 .28274537 .21699524 .31877137Z"/>
<path id="font_2_5" d="M.0289917 .19602967V.16503906H.3019867V.07901001C.3019867 .041992189 .29899598 .0309906 .22399903 .0309906H.20199585V0C.2649994 .0029907227 .33499146 .0029907227 .34199525 .0029907227 .34700013 .0029907227 .4189911 .0029907227 .48199464 0V.0309906H.45999146C.3849945 .0309906 .38198854 .041992189 .38198854 .07901001V.16503906H.48399354V.19602967H.38198854V.64974978C.38198854 .669754 .38198854 .6767578 .36299134 .6767578 .35099793 .6767578 .34999085 .67575076 .34098817 .66174319L.0289917 .19602967M.06098938 .19602967 .30799867 .56581118V.19602967H.06098938Z"/>
<path id="font_2_4" d="M.30499269 .35195924C.397995 .38697816 .44198609 .46006776 .44198609 .5290985 .44198609 .60606387 .35699464 .6660156 .25299073 .6660156 .14898682 .6660156 .070999149 .60705569 .070999149 .5310974 .070999149 .49809266 .09298706 .47909547 .12199402 .47909547 .15098572 .47909547 .17199707 .50009158 .17199707 .5290985 .17199707 .5640869 .147995 .57910159 .11399841 .57910159 .13999939 .6210327 .20098877 .64100649 .25 .64100649 .33299256 .64100649 .34899903 .5750885 .34899903 .52809146 .34899903 .49809266 .34298707 .45005799 .31799317 .41201783 .2869873 .36695863 .2519989 .36495973 .22299195 .36296083 .19799805 .36094667 .19599915 .36094667 .18798828 .36094667 .1789856 .35995484 .17098999 .35894776 .17098999 .34794618 .17098999 .33496095 .1789856 .33496095 .19599915 .33496095H.24299622C.32998658 .33496095 .36799623 .2646637 .36799623 .16937256 .36799623 .04145813 .2999878 .0055389406 .24899292 .0055389406 .22999573 .0055389406 .1329956 .010528564 .08799744 .0843811 .12399292 .07939148 .1519928 .10437012 .1519928 .13838196 .1519928 .17137146 .1269989 .19238281 .09799194 .19238281 .07299805 .19238281 .042999269 .17736817 .042999269 .13537598 .042999269 .046447755 .13598633-.022460938 .2519989-.022460938 .3769989-.022460938 .46998597 .06741333 .46998597 .16937256 .46998597 .25663758 .40098573 .33093263 .30499269 .35195924Z"/>
<path id="font_3_1" d="M.1269989 .07699585 .23298645 .18003845C.3889923 .31811524 .44898988 .3721466 .44898988 .47216798 .44898988 .5860901 .35899354 .6660156 .23699951 .6660156 .12399292 .6660156 .049987794 .57411196 .049987794 .48516847 .049987794 .4291687 .099990848 .4291687 .102996829 .4291687 .11999512 .4291687 .15499878 .44117738 .15499878 .48217774 .15499878 .5081787 .13699341 .5341797 .101989749 .5341797 .09399414 .5341797 .09199524 .5341797 .08898926 .5331726 .11199951 .59806826 .1659851 .63500979 .22399903 .63500979 .31498719 .63500979 .35798646 .5541382 .35798646 .47216798 .35798646 .39215089 .30799867 .31311036 .25299073 .25108338L.06098938 .036987306C.049987794 .025985718 .049987794 .023986817 .049987794 0H.42099L.44898988 .17404175H.42399598C.4189911 .14402771 .4119873 .1000061 .4019928 .084991458 .394989 .07699585 .32899476 .07699585 .30699159 .07699585H.1269989Z"/>
<path id="font_3_2" d="M.2939911 .16503906V.07800293C.2939911 .041992189 .2919922 .0309906 .21798706 .0309906H.19699097V0C.23799134 .0029907227 .2899933 .0029907227 .33198548 .0029907227 .37399293 .0029907227 .4269867 .0029907227 .46798707 0V.0309906H.44699098C.37298585 .0309906 .37098695 .041992189 .37098695 .07800293V.16503906H.47099305V.19602967H.37098695V.65075686C.37098695 .67074587 .37098695 .6767578 .35499574 .6767578 .34599305 .6767578 .34298707 .6767578 .33499146 .66474917L.027999878 .19602967V.16503906H.2939911M.2999878 .19602967H.055999757L.2999878 .5688019V.19602967Z"/>
</defs>
<path transform="matrix(1.00005,0,0,-1,10.739685,78.537)" stroke-width=".3985" stroke-linecap="butt" stroke-miterlimit="10" stroke-linejoin="miter" fill="none" stroke="#00aeef" d="M0-11.9056H102.04953M0 0H102.04953M0 11.9056H102.04953M0 23.8112H102.04953M0 35.71681H102.04953M0 47.62242H102.04953M0 59.52383H102.04953M0-11.9056V59.52802M8.50412-11.9056V59.52802M17.00824-11.9056V59.52802M25.51237-11.9056V59.52802M34.0165-11.9056V59.52802M42.52063-11.9056V59.52802M51.02477-11.9056V59.52802M59.52888-11.9056V59.52802M68.03302-11.9056V59.52802M76.53716-11.9056V59.52802M85.04128-11.9056V59.52802M93.54541-11.9056V59.52802M102.04655-11.9056V59.52802M102.04953 59.52802"/>
<path transform="matrix(1.00005,0,0,-1,10.739685,78.537)" stroke-width=".79701" stroke-linecap="butt" stroke-miterlimit="10" stroke-linejoin="miter" fill="none" stroke="#000000" d="M0 0H108.26859"/>
<path transform="matrix(1.00005,0,0,-1,119.01369,78.537)" d="M1.0361 0C-.25902 .25902-1.55415 .77707-3.1083 1.68365-1.55415 .51805-1.55415-.51805-3.1083-1.68365-1.55415-.77707-.25902-.25902 1.0361 0Z"/>
<path transform="matrix(1.00005,0,0,-1,119.01369,78.537)" stroke-width=".79701" stroke-linecap="butt" stroke-linejoin="round" fill="none" stroke="#000000" d="M1.0361 0C-.25902 .25902-1.55415 .77707-3.1083 1.68365-1.55415 .51805-1.55415-.51805-3.1083-1.68365-1.55415-.77707-.25902-.25902 1.0361 0Z"/>
<use data-text="&#x03b8;" xlink:href="#font_1_1" transform="matrix(9.963098,0,0,-9.9626,124.16735,81.996)"/>
<path transform="matrix(1.00005,0,0,-1,10.739685,78.537)" stroke-width=".79701" stroke-linecap="butt" stroke-miterlimit="10" stroke-linejoin="miter" fill="none" stroke="#000000" d="M0-11.9056V65.23685"/>
<path transform="matrix(0,-1,-1.00005,-0,10.739685,13.300156)" d="M1.0361 0C-.25902 .25902-1.55415 .77707-3.1083 1.68365-1.55415 .51805-1.55415-.51805-3.1083-1.68365-1.55415-.77707-.25902-.25902 1.0361 0Z"/>
<path transform="matrix(0,-1,-1.00005,-0,10.739685,13.300156)" stroke-width=".79701" stroke-linecap="butt" stroke-linejoin="round" fill="none" stroke="#000000" d="M1.0361 0C-.25902 .25902-1.55415 .77707-3.1083 1.68365-1.55415 .51805-1.55415-.51805-3.1083-1.68365-1.55415-.77707-.25902-.25902 1.0361 0Z"/>
<use data-text="y" xlink:href="#font_1_2" transform="matrix(9.963098,0,0,-9.9626,8.118553,6.2089998)"/>
<path transform="matrix(1.00005,0,0,-1,10.739685,78.537)" stroke-width=".3985" stroke-linecap="butt" stroke-miterlimit="10" stroke-linejoin="miter" fill="none" stroke="#000000" d="M17.00824 .95245V-.95245"/>
<path transform="matrix(1.00005,0,0,-1,10.739685,78.537)" d="M11.4042-11.91148H22.61225V-4.14054H11.4042Z" fill="#ffffff"/>
<use data-text="6" xlink:href="#font_2_6" transform="matrix(8.966848,0,0,-8.9664,23.140305,89.452)"/>
<use data-text="0" xlink:href="#font_2_1" transform="matrix(8.966848,0,0,-8.9664,27.740296,89.452)"/>
<path transform="matrix(1.00005,0,0,-1,10.739685,78.537)" stroke-width=".3985" stroke-linecap="butt" stroke-miterlimit="10" stroke-linejoin="miter" fill="none" stroke="#000000" d="M34.0165 .95245V-.95245"/>
<path transform="matrix(1.00005,0,0,-1,10.739685,78.537)" d="M26.1086-11.91148H41.9244V-4.14054H26.1086Z" fill="#ffffff"/>
<use data-text="1" xlink:href="#font_2_2" transform="matrix(8.966848,0,0,-8.9664,37.84604,89.452)"/>
<use data-text="2" xlink:href="#font_2_3" transform="matrix(8.966848,0,0,-8.9664,42.44603,89.452)"/>
<use data-text="0" xlink:href="#font_2_1" transform="matrix(8.966848,0,0,-8.9664,47.04602,89.452)"/>
<path transform="matrix(1.00005,0,0,-1,10.739685,78.537)" stroke-width=".3985" stroke-linecap="butt" stroke-miterlimit="10" stroke-linejoin="miter" fill="none" stroke="#000000" d="M51.02477 .95245V-.95245"/>
<path transform="matrix(1.00005,0,0,-1,10.739685,78.537)" d="M43.11687-11.91148H58.93267V-4.14054H43.11687Z" fill="#ffffff"/>
<use data-text="1" xlink:href="#font_2_2" transform="matrix(8.966848,0,0,-8.9664,54.85489,89.452)"/>
<use data-text="8" xlink:href="#font_2_7" transform="matrix(8.966848,0,0,-8.9664,59.45488,89.452)"/>
<use data-text="0" xlink:href="#font_2_1" transform="matrix(8.966848,0,0,-8.9664,64.05487,89.452)"/>
<path transform="matrix(1.00005,0,0,-1,10.739685,78.537)" stroke-width=".3985" stroke-linecap="butt" stroke-miterlimit="10" stroke-linejoin="miter" fill="none" stroke="#000000" d="M68.03302 .95245V-.95245"/>
<path transform="matrix(1.00005,0,0,-1,10.739685,78.537)" d="M60.12512-11.91148H75.94092V-4.14054H60.12512Z" fill="#ffffff"/>
<use data-text="2" xlink:href="#font_2_3" transform="matrix(8.966848,0,0,-8.9664,71.86374,89.452)"/>
<use data-text="4" xlink:href="#font_2_5" transform="matrix(8.966848,0,0,-8.9664,76.46373,89.452)"/>
<use data-text="0" xlink:href="#font_2_1" transform="matrix(8.966848,0,0,-8.9664,81.06372,89.452)"/>
<path transform="matrix(1.00005,0,0,-1,10.739685,78.537)" stroke-width=".3985" stroke-linecap="butt" stroke-miterlimit="10" stroke-linejoin="miter" fill="none" stroke="#000000" d="M85.04128 .95245V-.95245"/>
<path transform="matrix(1.00005,0,0,-1,10.739685,78.537)" d="M77.13338-11.91148H92.94917V-4.14054H77.13338Z" fill="#ffffff"/>
<use data-text="3" xlink:href="#font_2_4" transform="matrix(8.966848,0,0,-8.9664,88.87359,89.452)"/>
<use data-text="0" xlink:href="#font_2_1" transform="matrix(8.966848,0,0,-8.9664,93.47358,89.452)"/>
<use data-text="0" xlink:href="#font_2_1" transform="matrix(8.966848,0,0,-8.9664,98.07357,89.452)"/>
<path transform="matrix(1.00005,0,0,-1,10.739685,78.537)" stroke-width=".3985" stroke-linecap="butt" stroke-miterlimit="10" stroke-linejoin="miter" fill="none" stroke="#000000" d="M102.04953 .95245V-.95245"/>
<path transform="matrix(1.00005,0,0,-1,10.739685,78.537)" d="M94.14163-11.91148H109.95743V-4.14054H94.14163Z" fill="#ffffff"/>
<use data-text="3" xlink:href="#font_2_4" transform="matrix(8.966848,0,0,-8.9664,105.88244,89.452)"/>
<use data-text="6" xlink:href="#font_2_6" transform="matrix(8.966848,0,0,-8.9664,110.48243,89.452)"/>
<use data-text="0" xlink:href="#font_2_1" transform="matrix(8.966848,0,0,-8.9664,115.08242,89.452)"/>
<path transform="matrix(1.00005,0,0,-1,10.739685,78.537)" stroke-width=".3985" stroke-linecap="butt" stroke-miterlimit="10" stroke-linejoin="miter" fill="none" stroke="#000000" d="M.68033 23.8112H-.68033"/>
<path transform="matrix(1.00005,0,0,-1,10.739685,78.537)" d="M-10.84235 19.6047H-3.86841V28.017682H-10.84235Z" fill="#ffffff"/>
<use data-text="2" xlink:href="#font_3_1" transform="matrix(9.963098,0,0,-9.9626,.8931961,57.936006)"/>
<path transform="matrix(1.00005,0,0,-1,10.739685,78.537)" stroke-width=".3985" stroke-linecap="butt" stroke-miterlimit="10" stroke-linejoin="miter" fill="none" stroke="#000000" d="M.68033 47.62242H-.68033"/>
<path transform="matrix(1.00005,0,0,-1,10.739685,78.537)" d="M-10.84235 43.41592H-3.86841V51.8289H-10.84235Z" fill="#ffffff"/>
<use data-text="4" xlink:href="#font_3_2" transform="matrix(9.963098,0,0,-9.9626,.8931961,34.125005)"/>
<path transform="matrix(1.00005,0,0,-1,10.739685,78.537)" stroke-width="1.19553" stroke-linecap="butt" stroke-miterlimit="10" stroke-linejoin="miter" fill="none" stroke="#ff0000" d="M0 47.62242C0 47.62242 1.15202 47.15326 1.59451 46.59636 2.03699 46.03947 2.74657 44.67435 3.18903 43.6087 3.6315 42.54306 4.34108 40.39857 4.78355 38.91594 5.22603 37.43329 5.93561 34.69475 6.37807 32.92279 6.82056 31.15083 7.53012 28.05354 7.97261 26.14487 8.41508 24.23619 9.12466 21.04749 9.56712 19.16638 10.0096 17.28528 10.71918 14.27884 11.16165 12.5872 11.60414 10.89554 12.3137 8.33032 12.75616 6.97409 13.19865 5.61789 13.90822 3.7166 14.35071 2.81253 14.79317 1.90845 15.50276 .83229 15.94522 .45813 16.3877 .08398 17.09727-.07213 17.53975 .11588 17.98222 .30391 18.6918 1.07938 19.13426 1.81335 19.57675 2.54735 20.28633 4.18921 20.7288 5.40598 21.17126 6.62276 21.88086 8.98836 22.32332 10.58308 22.7658 12.17778 23.47537 15.06418 23.91785 16.89957 24.36032 18.73494 25.0699 21.89326 25.51237 23.8112 25.95485 25.72916 26.66443 28.88747 27.1069 30.72284 27.54936 32.55821 28.25896 35.44461 28.70142 37.03932 29.14389 38.63405 29.85347 40.99965 30.29594 42.21642 30.7384 43.4332 31.448 45.07504 31.89047 45.80902 32.33295 46.54303 33.04253 47.31848 33.485 47.50652 33.92746 47.69455 34.63704 47.5384 35.07951 47.16425 35.52199 46.7901 36.23157 45.71396 36.67404 44.80988 37.11652 43.90579 37.82608 42.0045 38.26857 40.64828 38.71104 39.29207 39.42061 36.72685 39.8631 35.0352 40.30556 33.34354 41.01514 30.33711 41.45761 28.45601 41.9001 26.57492 42.60966 23.3862 43.05214 21.47752 43.49461 19.56886 44.20418 16.47156 44.64667 14.6996 45.08914 12.92764 45.79872 10.18912 46.24118 8.70647 46.68365 7.22382 47.39323 5.07935 47.83571 4.01369 48.2782 2.94804 48.98776 1.58292 49.43022 1.02603 49.87271 .46915 50.58229 0 51.02477 0 51.46724 0 52.17682 .46915 52.61928 1.02603 53.06175 1.58292 53.77133 2.94804 54.2138 4.01369 54.65628 5.07935 55.36586 7.22382 55.80832 8.70647 56.25081 10.18912 56.96039 12.92764 57.40286 14.6996 57.84532 16.47156 58.55492 19.56886 58.99738 21.47752 59.43985 23.3862 60.14943 26.57492 60.5919 28.45601 61.03436 30.33711 61.74396 33.34354 62.18643 35.0352 62.6289 36.72685 63.33847 39.29207 63.78096 40.64828 64.22342 42.0045 64.93301 43.90579 65.37547 44.80988 65.81795 45.71396 66.52753 46.7901 66.97 47.16425 67.41248 47.5384 68.12206 47.69455 68.56453 47.50652 69.007 47.31848 69.71657 46.54303 70.15906 45.80902 70.60152 45.07504 71.31111 43.4332 71.75357 42.21642 72.19606 40.99965 72.90562 38.63405 73.3481 37.03932 73.79057 35.44461 74.50015 32.55821 74.94263 30.72284 75.3851 28.88747 76.09468 25.72916 76.53716 23.8112 76.97961 21.89326 77.6892 18.73494 78.13167 16.89957 78.57414 15.06418 79.28372 12.17778 79.7262 10.58308 80.16867 8.98836 80.87823 6.62276 81.32072 5.40598 81.7632 4.18921 82.47278 2.54735 82.91525 1.81335 83.35771 1.07938 84.06729 .30391 84.50977 .11588 84.95224-.07213 85.66182 .08398 86.1043 .45813 86.54677 .83229 87.25633 1.90845 87.69882 2.81253 88.1413 3.7166 88.85088 5.61789 89.29335 6.97409 89.73581 8.33032 90.44539 10.89554 90.88786 12.5872 91.33034 14.27884 92.03992 17.28528 92.48239 19.16638 92.92487 21.04749 93.63443 24.23619 94.07692 26.14487 94.5194 28.05354 95.22897 31.15083 95.67143 32.92279 96.1139 34.69475 96.82349 37.43329 97.26596 38.91594 97.70845 40.39857 98.41801 42.54306 98.86049 43.6087 99.30296 44.67435 100.01253 46.03947 100.45502 46.59636 100.89749 47.15326 102.04953 47.62242 102.04953 47.62242"/>
</svg>
