<svg xmlns="http://www.w3.org/2000/svg" xmlns:xlink="http://www.w3.org/1999/xlink" version="1.1" width="262" height="68" viewBox="0 0 262 68">
<defs>
<path id="font_1_1" d="M.33399964 .30233766C.33999635 .32835389 .36299134 .42037965 .43299867 .42037965 .43798829 .42037965 .46199037 .42037965 .48298646 .40734864 .45498658 .402359 .43499757 .37734986 .43499757 .35334779 .43499757 .33735658 .44599916 .31835938 .47299195 .31835938 .49499513 .31835938 .5269928 .3363495 .5269928 .37635804 .5269928 .42837525 .46798707 .4423828 .43399049 .4423828 .37599183 .4423828 .34098817 .38935853 .32899476 .36634828 .3039856 .43237306 .25 .4423828 .22099304 .4423828 .116989139 .4423828 .05999756 .3133545 .05999756 .28834535 .05999756 .27833558 .069992069 .27833558 .07199097 .27833558 .07998657 .27833558 .08299255 .28033448 .084991458 .28933717 .11898804 .39535523 .18499756 .42037965 .21899414 .42037965 .23799134 .42037965 .272995 .4113617 .272995 .35334779 .272995 .32235719 .2559967 .25532533 .21899414 .11528015 .20298767 .053268434 .16799927 .011245728 .12399292 .011245728 .117996219 .011245728 .09498596 .011245728 .07398987 .024276734 .09899902 .029266358 .12098694 .05027771 .12098694 .07827759 .12098694 .105270389 .09899902 .11328125 .083999637 .11328125 .053985597 .11328125 .0289917 .08728027 .0289917 .055267335 .0289917 .009246826 .07899475-.0107421879 .12298584-.0107421879 .18899536-.0107421879 .22499085 .059280397 .22799683 .0652771 .23999024 .028274537 .27598573-.0107421879 .33599855-.0107421879 .43899537-.0107421879 .49598695 .118270877 .49598695 .14328003 .49598695 .1532898 .4869995 .1532898 .48399354 .1532898 .47499085 .1532898 .47299195 .14929199 .47099305 .14228821 .43798829 .03527832 .36999513 .011245728 .33799745 .011245728 .29899598 .011245728 .2829895 .043273927 .2829895 .07727051 .2829895 .09927368 .2889862 .121276859 .2999878 .16529846L.33399964 .30233766Z"/>
<path id="font_2_1" d="M.6589966 .23046875C.6759949 .23046875 .69400027 .23046875 .69400027 .25045777 .69400027 .27046205 .6759949 .27046205 .6589966 .27046205H.117996219C.100997928 .27046205 .08299255 .27046205 .08299255 .25045777 .08299255 .23046875 .100997928 .23046875 .117996219 .23046875H.6589966Z"/>
<path id="font_3_4" d="M.2939911 .16503906V.07800293C.2939911 .041992189 .2919922 .0309906 .21798706 .0309906H.19699097V0C.23799134 .0029907227 .2899933 .0029907227 .33198548 .0029907227 .37399293 .0029907227 .4269867 .0029907227 .46798707 0V.0309906H.44699098C.37298585 .0309906 .37098695 .041992189 .37098695 .07800293V.16503906H.47099305V.19602967H.37098695V.65075686C.37098695 .67074587 .37098695 .6767578 .35499574 .6767578 .34599305 .6767578 .34298707 .6767578 .33499146 .66474917L.027999878 .19602967V.16503906H.2939911M.2999878 .19602967H.055999757L.2999878 .5688019V.19602967Z"/>
<path id="font_3_3" d="M.2899933 .35191346C.37199403 .37893678 .42999269 .4490509 .42999269 .52809146 .42999269 .6100464 .34199525 .6660156 .24598694 .6660156 .14498902 .6660156 .068984989 .60606387 .068984989 .53009036 .068984989 .49710084 .09098816 .47808839 .11999512 .47808839 .15098572 .47808839 .17098999 .50009158 .17098999 .5290985 .17098999 .57910159 .12399292 .57910159 .10899353 .57910159 .13999939 .62802127 .20599365 .64100649 .24198914 .64100649 .2829895 .64100649 .33799745 .6190338 .33799745 .5290985 .33799745 .51708987 .33599855 .45906068 .30999757 .4149933 .27999879 .36691285 .24598694 .36390687 .22099304 .36291505 .21299744 .36190797 .18899536 .35990907 .18199158 .35990907 .17399597 .35890199 .16699219 .35791017 .16699219 .3479004 .16699219 .33691407 .17399597 .33691407 .19099427 .33691407H.23498535C.31698609 .33691407 .35398866 .2686615 .35398866 .17037964 .35398866 .034469606 .2849884 .0055389406 .24099732 .0055389406 .19799805 .0055389406 .12298584 .022491456 .08799744 .08137512 .12298584 .07637024 .1539917 .09837341 .1539917 .1363678 .1539917 .17237854 .1269989 .19238281 .09799194 .19238281 .07398987 .19238281 .041992189 .17837525 .041992189 .1343689 .041992189 .043441774 .1349945-.022460938 .24398804-.022460938 .3659973-.022460938 .45700074 .06838989 .45700074 .17037964 .45700074 .252594 .3939972 .33088685 .2899933 .35191346Z"/>
<path id="font_3_2" d="M.1269989 .07699585 .23298645 .18003845C.3889923 .31811524 .44898988 .3721466 .44898988 .47216798 .44898988 .5860901 .35899354 .6660156 .23699951 .6660156 .12399292 .6660156 .049987794 .57411196 .049987794 .48516847 .049987794 .4291687 .099990848 .4291687 .102996829 .4291687 .11999512 .4291687 .15499878 .44117738 .15499878 .48217774 .15499878 .5081787 .13699341 .5341797 .101989749 .5341797 .09399414 .5341797 .09199524 .5341797 .08898926 .5331726 .11199951 .59806826 .1659851 .63500979 .22399903 .63500979 .31498719 .63500979 .35798646 .5541382 .35798646 .47216798 .35798646 .39215089 .30799867 .31311036 .25299073 .25108338L.06098938 .036987306C.049987794 .025985718 .049987794 .023986817 .049987794 0H.42099L.44898988 .17404175H.42399598C.4189911 .14402771 .4119873 .1000061 .4019928 .084991458 .394989 .07699585 .32899476 .07699585 .30699159 .07699585H.1269989Z"/>
<path id="font_3_1" d="M.2939911 .64004519C.2939911 .66400149 .2939911 .6660156 .2709961 .6660156 .20899964 .60227969 .12098694 .60227969 .08898926 .60227969V.57128909C.10899353 .57128909 .16799927 .57128909 .21998596 .5972748V.07902527C.21998596 .042999269 .21699524 .0309906 .1269989 .0309906H.09498596V0C.12998963 .0029907227 .21699524 .0029907227 .25698854 .0029907227 .29699708 .0029907227 .38398744 .0029907227 .4189911 0V.0309906H.3869934C.29699708 .0309906 .2939911 .041992189 .2939911 .07902527V.64004519Z"/>
<path id="font_3_5" d="M.44898988 .20022583C.44898988 .3193512 .36698915 .41944886 .25898744 .41944886 .21099854 .41944886 .16799927 .40345765 .13198853 .36842347V.5637665C.1519928 .5577698 .18499756 .55078127 .21699524 .55078127 .33999635 .55078127 .4099884 .6417694 .4099884 .6547699 .4099884 .6607666 .40699769 .6657715 .3999939 .6657715 .39898683 .6657715 .39698792 .6657715 .3919983 .66278079 .37199403 .6537781 .32299806 .6337738 .2559967 .6337738 .21598816 .6337738 .16999817 .6407776 .12298584 .6617737 .114990238 .66477969 .11299133 .66477969 .11099243 .66477969 .100997928 .66477969 .100997928 .6567688 .100997928 .6407776V.34439088C.100997928 .32637025 .100997928 .31835938 .114990238 .31835938 .12199402 .31835938 .12399292 .32136537 .12799073 .32736207 .13899231 .3433838 .17599488 .39746095 .25698854 .39746095 .30899049 .39746095 .33399964 .35139466 .34199525 .33337403 .35798646 .29632569 .3600006 .25727845 .3600006 .20722962 .3600006 .17222595 .3600006 .11222839 .33599855 .07035828 .31199647 .031463624 .2749939 .0055389406 .22898865 .0055389406 .1559906 .0055389406 .09899902 .058380128 .08198547 .11723328 .084991458 .1162262 .08799744 .115234378 .09899902 .115234378 .13198853 .115234378 .14898682 .14022827 .14898682 .16423035 .14898682 .18823242 .13198853 .21322632 .09899902 .21322632 .084991458 .21322632 .049987794 .20622254 .049987794 .16023255 .049987794 .07434082 .11898804-.022460938 .23098755-.022460938 .34700013-.022460938 .44898988 .073349 .44898988 .20022583Z"/>
<path id="font_3_6" d="M.13198853 .327713V.35173036C.13198853 .6047821 .2559967 .64100649 .30699159 .64100649 .33099366 .64100649 .37298585 .634964 .394989 .6007538 .37998963 .6007538 .33999635 .6007538 .33999635 .5557556 .33999635 .524765 .3639984 .5097656 .38598634 .5097656 .4019928 .5097656 .43199159 .51875308 .43199159 .5577545 .43199159 .6178589 .3880005 .6660156 .30499269 .6660156 .1769867 .6660156 .041992189 .5367584 .041992189 .31570436 .041992189 .048553468 .1579895-.022460938 .25099183-.022460938 .3619995-.022460938 .45700074 .07156372 .45700074 .2036438 .45700074 .33070375 .36799623 .4267578 .25698854 .4267578 .18899536 .4267578 .1519928 .37573243 .13198853 .327713M.25099183 .0055389406C.18798828 .0055389406 .1579895 .06556702 .1519928 .080566409 .13398743 .127594 .13398743 .2076416 .13398743 .22564698 .13398743 .30369569 .1659851 .40374757 .2559967 .40374757 .27198792 .40374757 .31799317 .40374757 .34899903 .34172059 .36698915 .30470277 .36698915 .2536621 .36698915 .20463562 .36698915 .15661621 .36698915 .10658264 .34999085 .0705719 .31999208 .010528564 .27398683 .0055389406 .25099183 .0055389406Z"/>
<path id="font_3_7" d="M.47599793 .609375C.4850006 .6213684 .4850006 .62338259 .4850006 .64437869H.24198914C.11999512 .64437869 .117996219 .65737918 .11399841 .67637637H.08898926L.055999757 .4702301H.08099365C.083999637 .48625184 .09298706 .5493469 .10598755 .56137087 .11299133 .5673828 .19099427 .5673828 .20399475 .5673828H.41099549C.3999939 .5513611 .32099916 .4421997 .29899598 .40914918 .20899964 .27394105 .17599488 .1347351 .17599488 .032577516 .17599488 .022567749 .17599488-.022460938 .22200012-.022460938 .2679901-.022460938 .2679901 .022567749 .2679901 .032577516V.08366394C.2679901 .13873291 .2709961 .19381714 .2789917 .24790955 .2829895 .27093507 .29699708 .35707093 .34098817 .41915895L.47599793 .609375Z"/>
<path id="font_3_8" d="M.16299439 .4569702C.116989139 .486969 .11299133 .52098086 .11299133 .5379791 .11299133 .598999 .17799378 .64100649 .24899292 .64100649 .32199098 .64100649 .38598634 .58898928 .38598634 .51698306 .38598634 .45996095 .34700013 .4119568 .2869873 .37695313L.16299439 .4569702M.30899049 .36193849C.3809967 .3989563 .42999269 .45095826 .42999269 .51698306 .42999269 .6090088 .34098817 .6660156 .25 .6660156 .1499939 .6660156 .068984989 .59199526 .068984989 .49897767 .068984989 .4809723 .070999149 .43595887 .11299133 .38894654 .12399292 .37695313 .16099549 .35194398 .18598938 .33494569 .12799073 .30592347 .041992189 .24984741 .041992189 .15072632 .041992189 .04458618 .14399719-.022460938 .24899292-.022460938 .3619995-.022460938 .45700074 .06060791 .45700074 .16773987 .45700074 .20379639 .44599916 .24885559 .4079895 .2909088 .3889923 .31193543 .37298585 .3219452 .30899049 .36193849M.20899964 .3199463 .33198548 .24183655C.3600006 .2228241 .40699769 .19277954 .40699769 .13169861 .40699769 .05760193 .33198548 .0055389406 .25 .0055389406 .1639862 .0055389406 .09199524 .067611698 .09199524 .15072632 .09199524 .20880127 .12399292 .27288819 .20899964 .3199463Z"/>
</defs>
<path transform="matrix(1.00009,0,0,-1.00003,86.63628,36.715654)" stroke-width=".3985" stroke-linecap="butt" stroke-miterlimit="10" stroke-linejoin="miter" fill="none" stroke="#00aeef" d="M-79.37071-29.76399H158.74143M-79.37071-19.84265H158.74143M-79.37071-9.92133H158.74143M-79.37071 0H158.74143M-79.37071 9.92133H158.74143M-79.37071 19.84265H158.74143M-79.37071 29.76399H158.74143M-79.37067-29.764V29.764M-69.44934-29.764V29.764M-59.52798-29.764V29.764M-49.60666-29.764V29.764M-39.68532-29.764V29.764M-29.76399-29.764V29.764M-19.84265-29.764V29.764M-9.92133-29.764V29.764M0-29.764V29.764M9.92133-29.764V29.764M19.84265-29.764V29.764M29.76399-29.764V29.764M39.68532-29.764V29.764M49.60666-29.764V29.764M59.52798-29.764V29.764M69.44934-29.764V29.764M79.37067-29.764V29.764M89.292-29.764V29.764M99.21333-29.764V29.764M109.13467-29.764V29.764M119.056-29.764V29.764M128.97733-29.764V29.764M138.89868-29.764V29.764M148.82-29.764V29.764M158.74135-29.764V29.764M158.74143 29.764"/>
<path transform="matrix(1.00009,0,0,-1.00003,86.63628,36.715654)" stroke-width=".79701" stroke-linecap="butt" stroke-miterlimit="10" stroke-linejoin="miter" fill="none" stroke="#000000" d="M-79.37071 0H163.25968"/>
<path transform="matrix(1.00009,0,0,-1.00003,249.91065,36.715654)" d="M1.0361 0C-.25902 .25902-1.55415 .77707-3.1083 1.68365-1.55415 .51805-1.55415-.51805-3.1083-1.68365-1.55415-.77707-.25902-.25902 1.0361 0Z"/>
<path transform="matrix(1.00009,0,0,-1.00003,249.91065,36.715654)" stroke-width=".79701" stroke-linecap="butt" stroke-linejoin="round" fill="none" stroke="#000000" d="M1.0361 0C-.25902 .25902-1.55415 .77707-3.1083 1.68365-1.55415 .51805-1.55415-.51805-3.1083-1.68365-1.55415-.77707-.25902-.25902 1.0361 0Z"/>
<use data-text="x" xlink:href="#font_1_1" transform="matrix(9.963496,0,0,-9.962899,255.06443,38.860719)"/>
<path transform="matrix(1.00009,0,0,-1.00003,86.63628,36.715654)" stroke-width=".79701" stroke-linecap="butt" stroke-miterlimit="10" stroke-linejoin="miter" fill="none" stroke="#000000" d="M0-29.764V34.28224"/>
<path transform="matrix(0,-1.00003,-1.00009,-0,86.63628,2.4323807)" d="M1.0361 0C-.25902 .25902-1.55415 .77707-3.1083 1.68365-1.55415 .51805-1.55415-.51805-3.1083-1.68365-1.55415-.77707-.25902-.25902 1.0361 0Z"/>
<path transform="matrix(0,-1.00003,-1.00009,-0,86.63628,2.4323807)" stroke-width=".79701" stroke-linecap="butt" stroke-linejoin="round" fill="none" stroke="#000000" d="M1.0361 0C-.25902 .25902-1.55415 .77707-3.1083 1.68365-1.55415 .51805-1.55415-.51805-3.1083-1.68365-1.55415-.77707-.25902-.25902 1.0361 0Z"/>
<path transform="matrix(1.00009,0,0,-1.00003,86.63628,36.715654)" stroke-width=".79701" stroke-linecap="butt" stroke-miterlimit="10" stroke-linejoin="miter" fill="none" stroke="#000000" d="M-79.37071 1.58743V-1.58745"/>
<path transform="matrix(1.00009,0,0,-1.00003,86.63628,36.715654)" d="M-86.7321-13.22173H-72.00932V-3.9785004H-86.7321Z" fill="#ffffff"/>
<use data-text="&#x2212;" xlink:href="#font_2_1" transform="matrix(9.963496,0,0,-9.962899,.89256289,48.110998)"/>
<use data-text="4" xlink:href="#font_3_4" transform="matrix(9.963496,0,0,-9.962899,8.641251,48.110998)"/>
<path transform="matrix(1.00009,0,0,-1.00003,86.63628,36.715654)" stroke-width=".79701" stroke-linecap="butt" stroke-miterlimit="10" stroke-linejoin="miter" fill="none" stroke="#000000" d="M-59.52802 1.58743V-1.58745"/>
<path transform="matrix(1.00009,0,0,-1.00003,86.63628,36.715654)" d="M-66.8894-13.22173H-52.16662V-3.9785004H-66.8894Z" fill="#ffffff"/>
<use data-text="&#x2212;" xlink:href="#font_2_1" transform="matrix(9.963496,0,0,-9.962899,20.73735,48.110998)"/>
<use data-text="3" xlink:href="#font_3_3" transform="matrix(9.963496,0,0,-9.962899,28.486039,48.110998)"/>
<path transform="matrix(1.00009,0,0,-1.00003,86.63628,36.715654)" stroke-width=".79701" stroke-linecap="butt" stroke-miterlimit="10" stroke-linejoin="miter" fill="none" stroke="#000000" d="M-39.68535 1.58743V-1.58745"/>
<path transform="matrix(1.00009,0,0,-1.00003,86.63628,36.715654)" d="M-47.04674-13.22173H-32.32396V-3.9785004H-47.04674Z" fill="#ffffff"/>
<use data-text="&#x2212;" xlink:href="#font_2_1" transform="matrix(9.963496,0,0,-9.962899,40.582139,48.110998)"/>
<use data-text="2" xlink:href="#font_3_2" transform="matrix(9.963496,0,0,-9.962899,48.330827,48.110998)"/>
<path transform="matrix(1.00009,0,0,-1.00003,86.63628,36.715654)" stroke-width=".79701" stroke-linecap="butt" stroke-miterlimit="10" stroke-linejoin="miter" fill="none" stroke="#000000" d="M-19.84267 1.58743V-1.58745"/>
<path transform="matrix(1.00009,0,0,-1.00003,86.63628,36.715654)" d="M-27.20406-13.22173H-12.481279V-3.9785004H-27.20406Z" fill="#ffffff"/>
<use data-text="&#x2212;" xlink:href="#font_2_1" transform="matrix(9.963496,0,0,-9.962899,60.42592,48.110998)"/>
<use data-text="1" xlink:href="#font_3_1" transform="matrix(9.963496,0,0,-9.962899,68.17461,48.110998)"/>
<path transform="matrix(1.00009,0,0,-1.00003,86.63628,36.715654)" stroke-width=".79701" stroke-linecap="butt" stroke-miterlimit="10" stroke-linejoin="miter" fill="none" stroke="#000000" d="M19.84267 1.58743V-1.58745"/>
<path transform="matrix(1.00009,0,0,-1.00003,86.63628,36.715654)" d="M16.3557-12.3915H23.32964V-3.9785205H16.3557Z" fill="#ffffff"/>
<use data-text="1" xlink:href="#font_3_1" transform="matrix(9.963496,0,0,-9.962899,103.98984,48.110998)"/>
<path transform="matrix(1.00009,0,0,-1.00003,86.63628,36.715654)" stroke-width=".79701" stroke-linecap="butt" stroke-miterlimit="10" stroke-linejoin="miter" fill="none" stroke="#000000" d="M39.68535 1.58743V-1.58745"/>
<path transform="matrix(1.00009,0,0,-1.00003,86.63628,36.715654)" d="M36.19838-12.3915H43.172319V-3.9785205H36.19838Z" fill="#ffffff"/>
<use data-text="2" xlink:href="#font_3_2" transform="matrix(9.963496,0,0,-9.962899,123.834629,48.110998)"/>
<path transform="matrix(1.00009,0,0,-1.00003,86.63628,36.715654)" stroke-width=".79701" stroke-linecap="butt" stroke-miterlimit="10" stroke-linejoin="miter" fill="none" stroke="#000000" d="M59.52802 1.58743V-1.58745"/>
<path transform="matrix(1.00009,0,0,-1.00003,86.63628,36.715654)" d="M56.04105-12.3915H63.01499V-3.9785205H56.04105Z" fill="#ffffff"/>
<use data-text="3" xlink:href="#font_3_3" transform="matrix(9.963496,0,0,-9.962899,143.6784,48.110998)"/>
<path transform="matrix(1.00009,0,0,-1.00003,86.63628,36.715654)" stroke-width=".79701" stroke-linecap="butt" stroke-miterlimit="10" stroke-linejoin="miter" fill="none" stroke="#000000" d="M79.37071 1.58743V-1.58745"/>
<path transform="matrix(1.00009,0,0,-1.00003,86.63628,36.715654)" d="M75.88374-12.3915H82.85768V-3.9785205H75.88374Z" fill="#ffffff"/>
<use data-text="4" xlink:href="#font_3_4" transform="matrix(9.963496,0,0,-9.962899,163.5232,48.110998)"/>
<path transform="matrix(1.00009,0,0,-1.00003,86.63628,36.715654)" stroke-width=".79701" stroke-linecap="butt" stroke-miterlimit="10" stroke-linejoin="miter" fill="none" stroke="#000000" d="M99.2134 1.58743V-1.58745"/>
<path transform="matrix(1.00009,0,0,-1.00003,86.63628,36.715654)" d="M95.72643-12.3915H102.70037V-3.9785205H95.72643Z" fill="#ffffff"/>
<use data-text="5" xlink:href="#font_3_5" transform="matrix(9.963496,0,0,-9.962899,183.36798,48.110998)"/>
<path transform="matrix(1.00009,0,0,-1.00003,86.63628,36.715654)" stroke-width=".79701" stroke-linecap="butt" stroke-miterlimit="10" stroke-linejoin="miter" fill="none" stroke="#000000" d="M119.05606 1.58743V-1.58745"/>
<path transform="matrix(1.00009,0,0,-1.00003,86.63628,36.715654)" d="M115.56909-12.3915H122.54303V-3.9785205H115.56909Z" fill="#ffffff"/>
<use data-text="6" xlink:href="#font_3_6" transform="matrix(9.963496,0,0,-9.962899,203.21176,48.110998)"/>
<path transform="matrix(1.00009,0,0,-1.00003,86.63628,36.715654)" stroke-width=".79701" stroke-linecap="butt" stroke-miterlimit="10" stroke-linejoin="miter" fill="none" stroke="#000000" d="M138.89876 1.58743V-1.58745"/>
<path transform="matrix(1.00009,0,0,-1.00003,86.63628,36.715654)" d="M135.41179-12.3915H142.38573V-3.9785205H135.41179Z" fill="#ffffff"/>
<use data-text="7" xlink:href="#font_3_7" transform="matrix(9.963496,0,0,-9.962899,223.05657,48.110998)"/>
<path transform="matrix(1.00009,0,0,-1.00003,86.63628,36.715654)" stroke-width=".79701" stroke-linecap="butt" stroke-miterlimit="10" stroke-linejoin="miter" fill="none" stroke="#000000" d="M158.74143 1.58743V-1.58745"/>
<path transform="matrix(1.00009,0,0,-1.00003,86.63628,36.715654)" d="M155.25446-12.3915H162.2284V-3.9785205H155.25446Z" fill="#ffffff"/>
<use data-text="8" xlink:href="#font_3_8" transform="matrix(9.963496,0,0,-9.962899,242.90135,48.110998)"/>
<path transform="matrix(1.00009,0,0,-1.00003,86.63628,36.715654)" stroke-width=".79701" stroke-linecap="butt" stroke-miterlimit="10" stroke-linejoin="miter" fill="none" stroke="#000000" d="M1.58743-19.84267H-1.58745"/>
<path transform="matrix(1.00009,0,0,-1.00003,86.63628,36.715654)" d="M-18.70128-24.46428H-3.9785004V-15.221049H-18.70128Z" fill="#ffffff"/>
<use data-text="&#x2212;" xlink:href="#font_2_1" transform="matrix(9.963496,0,0,-9.962899,68.92969,59.354333)"/>
<use data-text="1" xlink:href="#font_3_1" transform="matrix(9.963496,0,0,-9.962899,76.678379,59.354333)"/>
<path transform="matrix(1.00009,0,0,-1.00003,86.63628,36.715654)" stroke-width=".79701" stroke-linecap="butt" stroke-miterlimit="10" stroke-linejoin="miter" fill="none" stroke="#000000" d="M1.58743 19.84267H-1.58745"/>
<path transform="matrix(1.00009,0,0,-1.00003,86.63628,36.715654)" d="M-10.95244 15.63617H-3.9785004V24.04915H-10.95244Z" fill="#ffffff"/>
<use data-text="1" xlink:href="#font_3_1" transform="matrix(9.963496,0,0,-9.962899,76.67938,20.083153)"/>
<path transform="matrix(1.00009,0,0,-1.00003,86.63628,36.715654)" stroke-width="1.19553" stroke-linecap="butt" stroke-miterlimit="10" stroke-linejoin="miter" fill="none" stroke="#ff0000" d="M-79.37071 15.01643C-79.37071 15.01643-76.68262 13.13928-75.65019 12.33534-74.61778 11.53142-72.96211 10.13097-71.9297 9.22221-70.89728 8.31346-69.24161 6.76747-68.2092 5.78572-67.17677 4.80396-65.52112 3.16664-64.48868 2.14636-63.45627 1.12608-61.80061-.54471-60.76819-1.56776-59.73578-2.5908-58.08011-4.23703-57.0477-5.2271-56.01527-6.21716-54.3596-7.7812-53.32718-8.70355-52.29475-9.62592-50.6391-11.05263-49.60667-11.87482-48.57425-12.69704-46.91861-13.93616-45.88617-14.62949-44.85376-15.3228-43.1981-16.33163-42.16568-16.87183-41.13324-17.41202-39.4776-18.15486-38.44518-18.52286-37.41275-18.89087-35.7571-19.34125-34.72467-19.52414-33.69225-19.70705-32.03658-19.84967-31.00417-19.84114-29.97174-19.83261-28.31609-19.6623-27.28366-19.46268-26.25124-19.26306-24.5956-18.7862-23.56317-18.40237-22.53073-18.01854-20.87509-17.25084-19.84267-16.69621-18.81024-16.14162-17.15457-15.11093-16.12216-14.40514-15.08974-13.69933-13.43407-12.44157-12.40166-11.60928-11.36923-10.777-9.7136-9.33624-8.68115-8.40654-7.64873-7.47682-5.99307-5.90302-4.96065-4.90857-3.92822-3.91412-2.27257-2.26352-1.24016-1.23924-.20773-.21498 1.44789 1.45535 2.48032 2.47365 3.51273 3.49194 5.1684 5.12337 6.20082 6.1 7.23325 7.07661 8.8889 8.6119 9.92133 9.51257 10.95375 10.41325 12.60939 11.79832 13.64182 12.5915 14.67424 13.38466 16.32991 14.57138 17.36232 15.22928 18.39474 15.88718 20.0504 16.83374 21.08282 17.33325 22.11525 17.83278 23.7709 18.50594 24.80333 18.82957 25.83575 19.15321 27.49142 19.5294 28.52385 19.66583 29.55626 19.80229 31.21191 19.86855 32.24432 19.81299 33.27676 19.75742 34.9324 19.51102 35.96483 19.26526 36.99725 19.01952 38.65292 18.4689 39.68535 18.04176 40.71776 17.61461 42.37343 16.78017 43.40585 16.18665 44.43826 15.59315 46.09393 14.50333 47.12634 13.76413 48.15877 13.02496 49.81442 11.71806 50.84685 10.85901 51.87927 9.99997 53.53493 8.52142 54.56735 7.5727 55.59976 6.62395 57.25543 5.02617 58.28786 4.02113 59.32027 3.0161 60.97594 1.3552 62.00835 .3291 63.04077-.69696 64.69644-2.36273 65.72887-3.3741 66.76129-4.38548 68.41693-5.99901 69.44937-6.96017 70.48178-7.92134 72.13744-9.42441 73.16986-10.30162 74.20227-11.17882 75.85794-12.51993 76.89037-13.28242 77.92279-14.04494 79.57845-15.17635 80.61087-15.79729 81.6433-16.4182 83.29895-17.29999 84.33138-17.75775 85.3638-18.21552 87.01945-18.81795 88.05188-19.09663 89.0843-19.3753 90.73994-19.67679 91.77237-19.76634 92.80481-19.85593 94.46045-19.8448 95.49287-19.74213 96.5253-19.63948 98.18097-19.31746 99.2134-19.02638 100.2458-18.73529 101.90147-18.11357 102.93388-17.64421 103.96631-17.17484 105.62196-16.27487 106.65439-15.64346 107.68681-15.01207 109.34245-13.8647 110.37488-13.09349 111.40732-12.32228 113.06297-10.96896 114.0954-10.08513 115.1278-9.20128 116.78348-7.68903 117.81589-6.7234 118.84831-5.75777 120.50398-4.13904 121.53639-3.12553 122.56882-2.11201 124.22447-.44453 125.25691 .58131 126.28932 1.60718 127.94498 3.26587 128.9774 4.2682 130.00983 5.27055 131.66548 6.86191 132.69789 7.80553 133.73032 8.74913 135.38599 10.21736 136.41841 11.06914 137.45084 11.92091 139.10649 13.21448 140.13892 13.9446 141.17134 14.67471 142.82698 15.74846 143.85942 16.33138 144.89183 16.91429 146.54749 17.73065 147.57991 18.1459 148.61235 18.56117 150.26799 19.09137 151.30042 19.32431 152.33284 19.55725 153.9885 19.78233 155.02092 19.8248 156.05335 19.86728 158.74143 19.63042 158.74143 19.63042"/>
</svg>
