<svg xmlns="http://www.w3.org/2000/svg" xmlns:xlink="http://www.w3.org/1999/xlink" version="1.1" width="343" height="136" viewBox="0 0 343 136">
<defs>
<path id="font_1_3" d="M.33399964 .30233766C.33999635 .32835389 .36299134 .42037965 .43299867 .42037965 .43798829 .42037965 .46199037 .42037965 .48298646 .40734864 .45498658 .402359 .43499757 .37734986 .43499757 .35334779 .43499757 .33735658 .44599916 .31835938 .47299195 .31835938 .49499513 .31835938 .5269928 .3363495 .5269928 .37635804 .5269928 .42837525 .46798707 .4423828 .43399049 .4423828 .37599183 .4423828 .34098817 .38935853 .32899476 .36634828 .3039856 .43237306 .25 .4423828 .22099304 .4423828 .116989139 .4423828 .05999756 .3133545 .05999756 .28834535 .05999756 .27833558 .069992069 .27833558 .07199097 .27833558 .07998657 .27833558 .08299255 .28033448 .084991458 .28933717 .11898804 .39535523 .18499756 .42037965 .21899414 .42037965 .23799134 .42037965 .272995 .4113617 .272995 .35334779 .272995 .32235719 .2559967 .25532533 .21899414 .11528015 .20298767 .053268434 .16799927 .011245728 .12399292 .011245728 .117996219 .011245728 .09498596 .011245728 .07398987 .024276734 .09899902 .029266358 .12098694 .05027771 .12098694 .07827759 .12098694 .105270389 .09899902 .11328125 .083999637 .11328125 .053985597 .11328125 .0289917 .08728027 .0289917 .055267335 .0289917 .009246826 .07899475-.0107421879 .12298584-.0107421879 .18899536-.0107421879 .22499085 .059280397 .22799683 .0652771 .23999024 .028274537 .27598573-.0107421879 .33599855-.0107421879 .43899537-.0107421879 .49598695 .118270877 .49598695 .14328003 .49598695 .1532898 .4869995 .1532898 .48399354 .1532898 .47499085 .1532898 .47299195 .14929199 .47099305 .14228821 .43798829 .03527832 .36999513 .011245728 .33799745 .011245728 .29899598 .011245728 .2829895 .043273927 .2829895 .07727051 .2829895 .09927368 .2889862 .121276859 .2999878 .16529846L.33399964 .30233766Z"/>
<path id="font_1_4" d="M.48599244 .38136292C.48999024 .39537049 .48999024 .39736939 .48999024 .40437318 .48999024 .42237855 .47599793 .43138124 .46099855 .43138124 .45098878 .43138124 .43499757 .42536927 .42599488 .41036988 .42399598 .405365 .41600038 .37435914 .4119873 .35635377 .40499879 .33035279 .397995 .30334474 .3919983 .27633668L.34700013 .09628296C.34298707 .08126831 .2999878 .011245728 .23399353 .011245728 .18299866 .011245728 .17199707 .055267335 .17199707 .0922699 .17199707 .1382904 .18899536 .20030213 .22299195 .28833009 .23899842 .3293457 .24299622 .3403473 .24299622 .36035157 .24299622 .405365 .21099854 .4423828 .16099549 .4423828 .06599426 .4423828 .0289917 .29733277 .0289917 .28833009 .0289917 .27833558 .038986207 .27833558 .040985109 .27833558 .050994874 .27833558 .051986696 .28033448 .056991579 .29634095 .083999637 .3903656 .12399292 .42037965 .1579895 .42037965 .1659851 .42037965 .18299866 .42037965 .18299866 .3883667 .18299866 .36335755 .17298889 .3373413 .1659851 .31834413 .12599182 .21231079 .10798645 .1552887 .10798645 .10827637 .10798645 .019256592 .17098999-.0107421879 .22999573-.0107421879 .2689972-.0107421879 .30299378 .0062561037 .33099366 .03425598 .31799317-.017745972 .30599977-.06674194 .2659912-.11973572 .23999024-.15385437 .20199585-.18309021 .1559906-.18309021 .14199829-.18309021 .09700012-.18005371 .07998657-.14074707 .09599304-.14074707 .10899353-.14074707 .12298584-.1287384 .1329956-.11973572 .14299011-.10673523 .14299011-.08773804 .14299011-.056747438 .115997318-.052734376 .10598755-.052734376 .08299255-.052734376 .049987794-.068740848 .049987794-.11773682 .049987794-.16796875 .09399414-.20507813 .1559906-.20507813 .25898744-.20507813 .3619995-.11373901 .3899994-.00074768069L.48599244 .38136292Z"/>
<path id="font_2_3" d="M.2939911 .64004519C.2939911 .66400149 .2939911 .6660156 .2709961 .6660156 .20899964 .60227969 .12098694 .60227969 .08898926 .60227969V.57128909C.10899353 .57128909 .16799927 .57128909 .21998596 .5972748V.07902527C.21998596 .042999269 .21699524 .0309906 .1269989 .0309906H.09498596V0C.12998963 .0029907227 .21699524 .0029907227 .25698854 .0029907227 .29699708 .0029907227 .38398744 .0029907227 .4189911 0V.0309906H.3869934C.29699708 .0309906 .2939911 .041992189 .2939911 .07902527V.64004519Z"/>
<path id="font_2_4" d="M.1269989 .07699585 .23298645 .18003845C.3889923 .31811524 .44898988 .3721466 .44898988 .47216798 .44898988 .5860901 .35899354 .6660156 .23699951 .6660156 .12399292 .6660156 .049987794 .57411196 .049987794 .48516847 .049987794 .4291687 .099990848 .4291687 .102996829 .4291687 .11999512 .4291687 .15499878 .44117738 .15499878 .48217774 .15499878 .5081787 .13699341 .5341797 .101989749 .5341797 .09399414 .5341797 .09199524 .5341797 .08898926 .5331726 .11199951 .59806826 .1659851 .63500979 .22399903 .63500979 .31498719 .63500979 .35798646 .5541382 .35798646 .47216798 .35798646 .39215089 .30799867 .31311036 .25299073 .25108338L.06098938 .036987306C.049987794 .025985718 .049987794 .023986817 .049987794 0H.42099L.44898988 .17404175H.42399598C.4189911 .14402771 .4119873 .1000061 .4019928 .084991458 .394989 .07699585 .32899476 .07699585 .30699159 .07699585H.1269989Z"/>
<path id="font_2_5" d="M.2899933 .35191346C.37199403 .37893678 .42999269 .4490509 .42999269 .52809146 .42999269 .6100464 .34199525 .6660156 .24598694 .6660156 .14498902 .6660156 .068984989 .60606387 .068984989 .53009036 .068984989 .49710084 .09098816 .47808839 .11999512 .47808839 .15098572 .47808839 .17098999 .50009158 .17098999 .5290985 .17098999 .57910159 .12399292 .57910159 .10899353 .57910159 .13999939 .62802127 .20599365 .64100649 .24198914 .64100649 .2829895 .64100649 .33799745 .6190338 .33799745 .5290985 .33799745 .51708987 .33599855 .45906068 .30999757 .4149933 .27999879 .36691285 .24598694 .36390687 .22099304 .36291505 .21299744 .36190797 .18899536 .35990907 .18199158 .35990907 .17399597 .35890199 .16699219 .35791017 .16699219 .3479004 .16699219 .33691407 .17399597 .33691407 .19099427 .33691407H.23498535C.31698609 .33691407 .35398866 .2686615 .35398866 .17037964 .35398866 .034469606 .2849884 .0055389406 .24099732 .0055389406 .19799805 .0055389406 .12298584 .022491456 .08799744 .08137512 .12298584 .07637024 .1539917 .09837341 .1539917 .1363678 .1539917 .17237854 .1269989 .19238281 .09799194 .19238281 .07398987 .19238281 .041992189 .17837525 .041992189 .1343689 .041992189 .043441774 .1349945-.022460938 .24398804-.022460938 .3659973-.022460938 .45700074 .06838989 .45700074 .17037964 .45700074 .252594 .3939972 .33088685 .2899933 .35191346Z"/>
<path id="font_2_6" d="M.2939911 .16503906V.07800293C.2939911 .041992189 .2919922 .0309906 .21798706 .0309906H.19699097V0C.23799134 .0029907227 .2899933 .0029907227 .33198548 .0029907227 .37399293 .0029907227 .4269867 .0029907227 .46798707 0V.0309906H.44699098C.37298585 .0309906 .37098695 .041992189 .37098695 .07800293V.16503906H.47099305V.19602967H.37098695V.65075686C.37098695 .67074587 .37098695 .6767578 .35499574 .6767578 .34599305 .6767578 .34298707 .6767578 .33499146 .66474917L.027999878 .19602967V.16503906H.2939911M.2999878 .19602967H.055999757L.2999878 .5688019V.19602967Z"/>
<path id="font_2_7" d="M.44898988 .20022583C.44898988 .3193512 .36698915 .41944886 .25898744 .41944886 .21099854 .41944886 .16799927 .40345765 .13198853 .36842347V.5637665C.1519928 .5577698 .18499756 .55078127 .21699524 .55078127 .33999635 .55078127 .4099884 .6417694 .4099884 .6547699 .4099884 .6607666 .40699769 .6657715 .3999939 .6657715 .39898683 .6657715 .39698792 .6657715 .3919983 .66278079 .37199403 .6537781 .32299806 .6337738 .2559967 .6337738 .21598816 .6337738 .16999817 .6407776 .12298584 .6617737 .114990238 .66477969 .11299133 .66477969 .11099243 .66477969 .100997928 .66477969 .100997928 .6567688 .100997928 .6407776V.34439088C.100997928 .32637025 .100997928 .31835938 .114990238 .31835938 .12199402 .31835938 .12399292 .32136537 .12799073 .32736207 .13899231 .3433838 .17599488 .39746095 .25698854 .39746095 .30899049 .39746095 .33399964 .35139466 .34199525 .33337403 .35798646 .29632569 .3600006 .25727845 .3600006 .20722962 .3600006 .17222595 .3600006 .11222839 .33599855 .07035828 .31199647 .031463624 .2749939 .0055389406 .22898865 .0055389406 .1559906 .0055389406 .09899902 .058380128 .08198547 .11723328 .084991458 .1162262 .08799744 .115234378 .09899902 .115234378 .13198853 .115234378 .14898682 .14022827 .14898682 .16423035 .14898682 .18823242 .13198853 .21322632 .09899902 .21322632 .084991458 .21322632 .049987794 .20622254 .049987794 .16023255 .049987794 .07434082 .11898804-.022460938 .23098755-.022460938 .34700013-.022460938 .44898988 .073349 .44898988 .20022583Z"/>
<path id="font_2_8" d="M.13198853 .327713V.35173036C.13198853 .6047821 .2559967 .64100649 .30699159 .64100649 .33099366 .64100649 .37298585 .634964 .394989 .6007538 .37998963 .6007538 .33999635 .6007538 .33999635 .5557556 .33999635 .524765 .3639984 .5097656 .38598634 .5097656 .4019928 .5097656 .43199159 .51875308 .43199159 .5577545 .43199159 .6178589 .3880005 .6660156 .30499269 .6660156 .1769867 .6660156 .041992189 .5367584 .041992189 .31570436 .041992189 .048553468 .1579895-.022460938 .25099183-.022460938 .3619995-.022460938 .45700074 .07156372 .45700074 .2036438 .45700074 .33070375 .36799623 .4267578 .25698854 .4267578 .18899536 .4267578 .1519928 .37573243 .13198853 .327713M.25099183 .0055389406C.18798828 .0055389406 .1579895 .06556702 .1519928 .080566409 .13398743 .127594 .13398743 .2076416 .13398743 .22564698 .13398743 .30369569 .1659851 .40374757 .2559967 .40374757 .27198792 .40374757 .31799317 .40374757 .34899903 .34172059 .36698915 .30470277 .36698915 .2536621 .36698915 .20463562 .36698915 .15661621 .36698915 .10658264 .34999085 .0705719 .31999208 .010528564 .27398683 .0055389406 .25099183 .0055389406Z"/>
<path id="font_3_1" d="M.6589966 .23046875C.6759949 .23046875 .69400027 .23046875 .69400027 .25045777 .69400027 .27046205 .6759949 .27046205 .6589966 .27046205H.117996219C.100997928 .27046205 .08299255 .27046205 .08299255 .25045777 .08299255 .23046875 .100997928 .23046875 .117996219 .23046875H.6589966Z"/>
<path id="font_1_2" d="M.20599365 .3996582H.2999878C.31999208 .3996582 .32998658 .3996582 .32998658 .41966249 .32998658 .43066407 .31999208 .43066407 .3019867 .43066407H.21398926C.25 .5724945 .25498963 .59246829 .25498963 .59846499 .25498963 .61546328 .24299622 .62545779 .22599793 .62545779 .22299195 .62545779 .19499207 .62446597 .18598938 .58947756L.14698792 .43066407H.052993776C.032989503 .43066407 .022994996 .43066407 .022994996 .4116516 .022994996 .3996582 .0309906 .3996582 .050994874 .3996582H.13899231C.066986087 .11608887 .06298828 .099121097 .06298828 .08114624 .06298828 .02722168 .100997928-.0107421879 .15499878-.0107421879 .25698854-.0107421879 .31399537 .13505554 .31399537 .14305115 .31399537 .1530304 .30599977 .1530304 .3019867 .1530304 .29299928 .1530304 .2919922 .15003968 .2869873 .13905335 .24398804 .035217287 .19099427 .011245728 .15699768 .011245728 .13598633 .011245728 .12599182 .024230957 .12599182 .057174684 .12599182 .08114624 .12799073 .088134769 .13198853 .10510254L.20599365 .3996582Z"/>
<path id="font_1_1" d="M.2649994 .37265016H.37799073C.34498597 .22489929 .33599855 .18196106 .33599855 .11508179 .33599855 .100097659 .33599855 .073150638 .34399415 .03919983 .35398866-.0047454836 .36499024-.0107421879 .37998963-.0107421879 .3999939-.0107421879 .42099 .007247925 .42099 .02722168 .42099 .033218385 .42099 .035202028 .4149933 .049179079 .38598634 .12106323 .38598634 .18595886 .38598634 .21391297 .38598634 .26683045 .3929901 .32073976 .4039917 .37265016H.5179901C.5309906 .37265016 .5669861 .37265016 .5669861 .406662 .5669861 .43066407 .54599 .43066407 .5269928 .43066407H.19198609C.16999817 .43066407 .13198853 .43066407 .08799744 .38365174 .052993776 .34469605 .026992798 .29878236 .026992798 .29379273 .026992798 .29278565 .026992798 .28379823 .038986207 .28379823 .04699707 .28379823 .04899597 .28779603 .054992677 .29577638 .10398865 .37265016 .1619873 .37265016 .18199158 .37265016H.23899842C.20698548 .25186158 .15299988 .13105774 .11099243 .04020691 .102996829 .025222779 .102996829 .023223877 .102996829 .016235352 .102996829-.002746582 .11898804-.0107421879 .13198853-.0107421879 .1619873-.0107421879 .16999817 .017242432 .18199158 .05418396 .19599915 .100097659 .19599915 .10209656 .20899964 .15202332L.2649994 .37265016Z"/>
<path id="font_2_1" d="M.40899659 .23046875H.6879883C.70199587 .23046875 .72099307 .23046875 .72099307 .25045777 .72099307 .27046205 .70199587 .27046205 .6879883 .27046205H.40899659V.5500183C.40899659 .56399539 .40899659 .5830078 .3889923 .5830078 .36898805 .5830078 .36898805 .56399539 .36898805 .5500183V.27046205H.08898926C.07499695 .27046205 .055999757 .27046205 .055999757 .25045777 .055999757 .23046875 .07499695 .23046875 .08898926 .23046875H.36898805V-.05000305C.36898805-.06401062 .36898805-.08300781 .3889923-.08300781 .40899659-.08300781 .40899659-.06401062 .40899659-.05000305V.23046875Z"/>
<path id="font_2_2" d="M.45999146 .31976319C.45999146 .39982606 .45498658 .47988893 .41999818 .5539398 .37399293 .65000918 .2919922 .6660156 .25 .6660156 .18998719 .6660156 .116989139 .64001467 .07598877 .54693606 .04399109 .47789 .038986207 .39982606 .038986207 .31976319 .038986207 .24472046 .042999269 .15464783 .083999637 .07859802 .1269989-.0024719239 .19999695-.022460938 .24899292-.022460938 .30299378-.022460938 .3789978-.0014648438 .4229889 .09359741 .45498658 .16265869 .45999146 .2407074 .45999146 .31976319M.24899292-.00047302247C.20999146-.00047302247 .15098572 .024551392 .1329956 .12062073 .12199402 .18066406 .12199402 .2727356 .12199402 .3317871 .12199402 .39582826 .12199402 .46188355 .12998963 .5159149 .14898682 .63500979 .22399903 .64401248 .24899292 .64401248 .28199769 .64401248 .34799195 .6259918 .36698915 .52693179 .3769989 .47088624 .3769989 .39482118 .3769989 .3317871 .3769989 .25672914 .3769989 .18867493 .3659973 .12461853 .35099793 .029556275 .2939911-.00047302247 .24899292-.00047302247Z"/>
</defs>
<path transform="matrix(1.00005,0,0,-1.00002,17.038949,74.229228)" stroke-width=".3985" stroke-linecap="butt" stroke-miterlimit="10" stroke-linejoin="miter" fill="none" stroke="#00aeef" d="M0-28.34636H81.63815M0-22.6771H81.63815M0-17.00781H81.63815M0-11.33855H81.63815M0-5.66927H81.63815M0 0H81.63815M0 5.66927H81.63815M0 11.33855H81.63815M0 17.00781H81.63815M0 22.6771H81.63815M0 28.34636H81.63815M0-28.3468V28.3468M6.37796-28.3468V28.3468M12.75595-28.3468V28.3468M19.13394-28.3468V28.3468M25.51192-28.3468V28.3468M31.88991-28.3468V28.3468M38.2679-28.3468V28.3468M44.64587-28.3468V28.3468M51.02386-28.3468V28.3468M57.40186-28.3468V28.3468M63.77985-28.3468V28.3468M70.15782-28.3468V28.3468M76.53581-28.3468V28.3468M81.63815 28.3468"/>
<path transform="matrix(1.00005,0,0,-1.00002,17.038949,74.229228)" stroke-width=".79701" stroke-linecap="butt" stroke-miterlimit="10" stroke-linejoin="miter" fill="none" stroke="#000000" d="M0 0H84.03038"/>
<path transform="matrix(1.00005,0,0,-1.00002,101.073528,74.229228)" d="M1.0361 0C-.25902 .25902-1.55415 .77707-3.1083 1.68365-1.55415 .51805-1.55415-.51805-3.1083-1.68365-1.55415-.77707-.25902-.25902 1.0361 0Z"/>
<path transform="matrix(1.00005,0,0,-1.00002,101.073528,74.229228)" stroke-width=".79701" stroke-linecap="butt" stroke-linejoin="round" fill="none" stroke="#000000" d="M1.0361 0C-.25902 .25902-1.55415 .77707-3.1083 1.68365-1.55415 .51805-1.55415-.51805-3.1083-1.68365-1.55415-.77707-.25902-.25902 1.0361 0Z"/>
<use data-text="x" xlink:href="#font_1_3" transform="matrix(9.963098,0,0,-9.962799,106.2274,76.37427)"/>
<path transform="matrix(1.00005,0,0,-1.00002,17.038949,74.229228)" stroke-width=".79701" stroke-linecap="butt" stroke-miterlimit="10" stroke-linejoin="miter" fill="none" stroke="#000000" d="M0-28.3468V30.31366"/>
<path transform="matrix(0,-1.00002,-1.00005,-0,17.038949,43.91496)" d="M1.0361 0C-.25902 .25902-1.55415 .77707-3.1083 1.68365-1.55415 .51805-1.55415-.51805-3.1083-1.68365-1.55415-.77707-.25902-.25902 1.0361 0Z"/>
<path transform="matrix(0,-1.00002,-1.00005,-0,17.038949,43.91496)" stroke-width=".79701" stroke-linecap="butt" stroke-linejoin="round" fill="none" stroke="#000000" d="M1.0361 0C-.25902 .25902-1.55415 .77707-3.1083 1.68365-1.55415 .51805-1.55415-.51805-3.1083-1.68365-1.55415-.77707-.25902-.25902 1.0361 0Z"/>
<use data-text="y" xlink:href="#font_1_4" transform="matrix(9.963098,0,0,-9.962799,14.417816,36.82348)"/>
<path transform="matrix(1.00005,0,0,-1.00002,17.038949,74.229228)" stroke-width=".79701" stroke-linecap="butt" stroke-miterlimit="10" stroke-linejoin="miter" fill="none" stroke="#000000" d="M12.75595 1.13367V-1.13411"/>
<path transform="matrix(1.00005,0,0,-1.00002,17.038949,74.229228)" d="M10.26526-9.9456H15.246639V-3.5251694H10.26526Z" fill="#ffffff"/>
<use data-text="1" xlink:href="#font_2_3" transform="matrix(9.963098,0,0,-9.962799,27.304459,84.17542)"/>
<path transform="matrix(1.00005,0,0,-1.00002,17.038949,74.229228)" stroke-width=".79701" stroke-linecap="butt" stroke-miterlimit="10" stroke-linejoin="miter" fill="none" stroke="#000000" d="M25.51193 1.13367V-1.13411"/>
<path transform="matrix(1.00005,0,0,-1.00002,17.038949,74.229228)" d="M23.02124-9.9456H28.00262V-3.5251694H23.02124Z" fill="#ffffff"/>
<use data-text="2" xlink:href="#font_2_4" transform="matrix(9.963098,0,0,-9.962799,40.061098,84.17542)"/>
<path transform="matrix(1.00005,0,0,-1.00002,17.038949,74.229228)" stroke-width=".79701" stroke-linecap="butt" stroke-miterlimit="10" stroke-linejoin="miter" fill="none" stroke="#000000" d="M38.26791 1.13367V-1.13411"/>
<path transform="matrix(1.00005,0,0,-1.00002,17.038949,74.229228)" d="M35.77722-9.9456H40.758604V-3.5251694H35.77722Z" fill="#ffffff"/>
<use data-text="3" xlink:href="#font_2_5" transform="matrix(9.963098,0,0,-9.962799,52.817735,84.17542)"/>
<path transform="matrix(1.00005,0,0,-1.00002,17.038949,74.229228)" stroke-width=".79701" stroke-linecap="butt" stroke-miterlimit="10" stroke-linejoin="miter" fill="none" stroke="#000000" d="M51.0239 1.13367V-1.13411"/>
<path transform="matrix(1.00005,0,0,-1.00002,17.038949,74.229228)" d="M48.5332-9.9456H53.51458V-3.5251694H48.5332Z" fill="#ffffff"/>
<use data-text="4" xlink:href="#font_2_6" transform="matrix(9.963098,0,0,-9.962799,65.57437,84.17542)"/>
<path transform="matrix(1.00005,0,0,-1.00002,17.038949,74.229228)" stroke-width=".79701" stroke-linecap="butt" stroke-miterlimit="10" stroke-linejoin="miter" fill="none" stroke="#000000" d="M63.77988 1.13367V-1.13411"/>
<path transform="matrix(1.00005,0,0,-1.00002,17.038949,74.229228)" d="M61.28918-9.9456H66.27056V-3.5251694H61.28918Z" fill="#ffffff"/>
<use data-text="5" xlink:href="#font_2_7" transform="matrix(9.963098,0,0,-9.962799,78.33101,84.17542)"/>
<path transform="matrix(1.00005,0,0,-1.00002,17.038949,74.229228)" stroke-width=".79701" stroke-linecap="butt" stroke-miterlimit="10" stroke-linejoin="miter" fill="none" stroke="#000000" d="M76.53586 1.13367V-1.13411"/>
<path transform="matrix(1.00005,0,0,-1.00002,17.038949,74.229228)" d="M74.04517-9.9456H79.02655V-3.5251694H74.04517Z" fill="#ffffff"/>
<use data-text="6" xlink:href="#font_2_8" transform="matrix(9.963098,0,0,-9.962799,91.08765,84.17542)"/>
<path transform="matrix(1.00005,0,0,-1.00002,17.038949,74.229228)" stroke-width=".79701" stroke-linecap="butt" stroke-miterlimit="10" stroke-linejoin="miter" fill="none" stroke="#000000" d="M1.0205-28.3468H-1.0205"/>
<path transform="matrix(1.00005,0,0,-1.00002,17.038949,74.229228)" d="M-16.14177-31.97214H-3.4115496V-24.72147H-16.14177Z" fill="#ffffff"/>
<use data-text="&#x2212;" xlink:href="#font_3_1" transform="matrix(9.963098,0,0,-9.962799,.89614108,105.37185)"/>
<use data-text="1" xlink:href="#font_2_3" transform="matrix(9.963098,0,0,-9.962799,8.645531,105.37185)"/>
<path transform="matrix(1.00005,0,0,-1.00002,17.038949,74.229228)" stroke-width=".79701" stroke-linecap="butt" stroke-miterlimit="10" stroke-linejoin="miter" fill="none" stroke="#000000" d="M1.0205 28.3468H-1.0205"/>
<path transform="matrix(1.00005,0,0,-1.00002,17.038949,74.229228)" d="M-8.39293 25.13658H-3.41155V31.55701H-8.39293Z" fill="#ffffff"/>
<use data-text="1" xlink:href="#font_2_3" transform="matrix(9.963098,0,0,-9.962799,8.645531,49.09172)"/>
<path transform="matrix(1.00005,0,0,-1.00002,17.038949,74.229228)" stroke-width="1.19553" stroke-linecap="butt" stroke-miterlimit="10" stroke-linejoin="miter" fill="none" stroke="#ff0000" d="M0 0C0 0 .92152 2.04753 1.27545 2.82878 1.6294 3.61002 2.19699 4.86108 2.55095 5.63075 2.90488 6.40044 3.47249 7.62592 3.82642 8.37608 4.18037 9.12625 4.74797 10.31433 5.10191 11.03749 5.45584 11.76065 6.02345 12.89914 6.3774 13.58817 6.73132 14.27718 7.29892 15.35533 7.65286 16.00346 8.0068 16.6516 8.57442 17.6589 8.92834 18.25958 9.28229 18.86024 9.84988 19.78572 10.20383 20.33273 10.55777 20.87975 11.12538 21.71413 11.47931 22.20216 11.83324 22.69019 12.40085 23.42572 12.75479 23.85013 13.10873 24.27454 13.67633 24.90479 14.03027 25.26108 14.38422 25.61737 14.95181 26.13365 15.30576 26.4181 15.65968 26.70258 16.2273 27.10114 16.58124 27.31131 16.93517 27.52147 17.50278 27.79921 17.8567 27.93285 18.21065 28.0665 18.77824 28.219 19.1322 28.27457 19.48613 28.33012 20.05374 28.35625 20.40767 28.33337 20.76163 28.31052 21.32922 28.21075 21.68317 28.10976 22.0371 28.00876 22.60469 27.78358 22.95865 27.60542 23.31258 27.42725 23.88019 27.07928 24.23412 26.82556 24.58806 26.57182 25.15567 26.10335 25.5096 25.77664 25.86354 25.44995 26.43114 24.86696 26.7851 24.47081 27.13902 24.07466 27.70663 23.38345 28.06056 22.92148 28.41449 22.4595 28.9821 21.66428 29.33604 21.14114 29.68999 20.61801 30.25758 19.72986 30.61151 19.15103 30.96547 18.5722 31.53307 17.59819 31.88701 16.96933 32.24094 16.34045 32.80855 15.29128 33.16249 14.61847 33.51643 13.94566 34.08403 12.83003 34.43797 12.12013 34.79192 11.41023 35.35953 10.2417 35.71346 9.50197 36.06738 8.76225 36.635 7.55101 36.98892 6.78867 37.34288 6.02632 37.91048 4.7848 38.2644 4.00745 38.61835 3.23009 39.18594 1.97044 39.5399 1.186 39.89383 .40157 40.46144-.86252 40.81537-1.64622 41.16931-2.42993 41.73692-3.68709 42.09085-4.46248 42.4448-5.23785 43.01239-6.47545 43.36635-7.23462 43.72028-7.99379 44.28787-9.1987 44.64182-9.9341 44.99576-10.66948 45.56335-11.83057 45.9173-12.53494 46.27122-13.2393 46.83884-14.3447 47.19276-15.01079 47.54672-15.67688 48.11432-16.71454 48.46826-17.33568 48.82219-17.95682 49.3898-18.91736 49.74374-19.48755 50.09769-20.05772 50.66528-20.93175 51.01923-21.44522 51.37317-21.95871 51.94077-22.73682 52.29471-23.18834 52.64864-23.63988 53.21625-24.31448 53.57019-24.69963 53.92412-25.0848 54.49173-25.64926 54.84566-25.96439 55.1996-26.2795 55.7672-26.72922 56.12115-26.97089 56.47508-27.21255 57.0427-27.54051 57.39662-27.7062 57.75056-27.87189 58.31818-28.07672 58.6721-28.16513 59.02605-28.25352 59.59364-28.33313 59.94759-28.34334 60.30153-28.35353 60.86913-28.30707 61.22307-28.23866 61.57701-28.17024 62.14462-27.99649 62.49855-27.85025 62.8525-27.704 63.42009-27.40685 63.77402-27.18457 64.12798-26.96228 64.69557-26.54446 65.04951-26.24812 65.40344-25.95178 65.97105-25.41634 66.325-25.04869 66.67894-24.68105 67.24654-24.03342 67.60046-23.59839 67.95442-23.16336 68.52202-22.41121 68.87596-21.91322 69.22989-21.41524 69.7975-20.56532 70.15144-20.00919 70.50537-19.45305 71.07298-18.51367 71.42691-17.90489 71.78087-17.29611 72.34846-16.27675 72.70241-15.62154 73.05634-14.96631 73.62395-13.87753 73.97787-13.18245 74.33182-12.48737 74.89943-11.34001 75.25336-10.61188 75.60728-9.88373 76.1749-8.68835 76.52884-7.93446 76.88278-7.18059 77.45038-5.95023 77.80432-5.17833 78.15826-4.40643 78.72588-3.15347 79.0798-2.37115 79.43375-1.58882 80.00134-.32481 80.3553 .4602 80.70923 1.24524 81.63077 3.28685 81.63077 3.28685"/>
<path transform="matrix(1.00005,0,0,-1.00002,17.038949,74.229228)" d="M12.95102 22.67752C12.95102 23.36646 12.44847 23.92494 11.82854 23.92494 11.20859 23.92494 10.70604 23.36646 10.70604 22.67752 10.70604 21.98857 11.20859 21.43008 11.82854 21.43008 12.44847 21.43008 12.95102 21.98857 12.95102 22.67752ZM11.82854 22.67752" fill="#0000ff"/>
<path transform="matrix(1.00005,0,0,-1.00002,17.038949,74.229228)" stroke-width=".3985" stroke-linecap="butt" stroke-miterlimit="10" stroke-linejoin="miter" fill="none" stroke="#0000ff" d="M12.95102 22.67752C12.95102 23.36646 12.44847 23.92494 11.82854 23.92494 11.20859 23.92494 10.70604 23.36646 10.70604 22.67752 10.70604 21.98857 11.20859 21.43008 11.82854 21.43008 12.44847 21.43008 12.95102 21.98857 12.95102 22.67752ZM11.82854 22.67752"/>
<path transform="matrix(1.00005,0,0,-1.00002,17.038949,74.229228)" d="M5.04277 22.87677H8.64043V29.00465H5.04277Z" fill="#ffffff"/>
<use data-text="t" xlink:href="#font_1_2" transform="matrix(9.963098,0,0,-9.962799,22.0822,51.35177)"/>
<path transform="matrix(1.00005,0,0,-1.00002,17.038949,74.229228)" d="M29.36804 22.67752C29.36804 23.36646 28.8655 23.92494 28.24556 23.92494 27.62563 23.92494 27.12308 23.36646 27.12308 22.67752 27.12308 21.98857 27.62563 21.43008 28.24556 21.43008 28.8655 21.43008 29.36804 21.98857 29.36804 22.67752ZM28.24556 22.67752" fill="#0000ff"/>
<path transform="matrix(1.00005,0,0,-1.00002,17.038949,74.229228)" stroke-width=".3985" stroke-linecap="butt" stroke-miterlimit="10" stroke-linejoin="miter" fill="none" stroke="#0000ff" d="M29.36804 22.67752C29.36804 23.36646 28.8655 23.92494 28.24556 23.92494 27.62563 23.92494 27.12308 23.36646 27.12308 22.67752 27.12308 21.98857 27.62563 21.43008 28.24556 21.43008 28.8655 21.43008 29.36804 21.98857 29.36804 22.67752ZM28.24556 22.67752"/>
<path transform="matrix(1.00005,0,0,-1.00002,17.038949,74.229228)" d="M31.43364 22.87677H53.24443V29.83485H31.43364Z" fill="#ffffff"/>
<use data-text="&#x03c0;" xlink:href="#font_1_1" transform="matrix(9.963098,0,0,-9.962799,48.474519,50.52175)"/>
<use data-text="&#x2212;" xlink:href="#font_3_1" transform="matrix(9.963098,0,0,-9.962799,56.72493,50.52175)"/>
<use data-text="t" xlink:href="#font_1_2" transform="matrix(9.963098,0,0,-9.962799,66.68843,50.52175)"/>
<path transform="matrix(1.00005,0,0,-1.00002,17.038949,74.229228)" d="M53.02513-22.67752C53.02513-21.98857 52.52258-21.43008 51.90265-21.43008 51.28271-21.43008 50.78017-21.98857 50.78017-22.67752 50.78017-23.36646 51.28271-23.92494 51.90265-23.92494 52.52258-23.92494 53.02513-23.36646 53.02513-22.67752ZM51.90265-22.67752" fill="#0000ff"/>
<path transform="matrix(1.00005,0,0,-1.00002,17.038949,74.229228)" stroke-width=".3985" stroke-linecap="butt" stroke-miterlimit="10" stroke-linejoin="miter" fill="none" stroke="#0000ff" d="M53.02513-22.67752C53.02513-21.98857 52.52258-21.43008 51.90265-21.43008 51.28271-21.43008 50.78017-21.98857 50.78017-22.67752 50.78017-23.36646 51.28271-23.92494 51.90265-23.92494 52.52258-23.92494 53.02513-23.36646 53.02513-22.67752ZM51.90265-22.67752"/>
<path transform="matrix(1.00005,0,0,-1.00002,17.038949,74.229228)" d="M26.90376-29.83487H48.71455V-22.87679H26.90376Z" fill="#ffffff"/>
<use data-text="&#x03c0;" xlink:href="#font_1_1" transform="matrix(9.963098,0,0,-9.962799,43.94429,103.2348)"/>
<use data-text="+" xlink:href="#font_2_1" transform="matrix(9.963098,0,0,-9.962799,52.194704,103.2348)"/>
<use data-text="t" xlink:href="#font_1_2" transform="matrix(9.963098,0,0,-9.962799,62.158205,103.2348)"/>
<path transform="matrix(1.00005,0,0,-1.00002,17.038949,74.229228)" d="M69.44218-22.67752C69.44218-21.98857 68.93964-21.43008 68.3197-21.43008 67.69977-21.43008 67.19722-21.98857 67.19722-22.67752 67.19722-23.36646 67.69977-23.92494 68.3197-23.92494 68.93964-23.92494 69.44218-23.36646 69.44218-22.67752ZM68.3197-22.67752" fill="#0000ff"/>
<path transform="matrix(1.00005,0,0,-1.00002,17.038949,74.229228)" stroke-width=".3985" stroke-linecap="butt" stroke-miterlimit="10" stroke-linejoin="miter" fill="none" stroke="#0000ff" d="M69.44218-22.67752C69.44218-21.98857 68.93964-21.43008 68.3197-21.43008 67.69977-21.43008 67.19722-21.98857 67.19722-22.67752 67.19722-23.36646 67.69977-23.92494 68.3197-23.92494 68.93964-23.92494 69.44218-23.36646 69.44218-22.67752ZM68.3197-22.67752"/>
<path transform="matrix(1.00005,0,0,-1.00002,17.038949,74.229228)" d="M66.5264-34.11255H93.31857V-26.86188H66.5264Z" fill="#ffffff"/>
<use data-text="2" xlink:href="#font_2_4" transform="matrix(9.963098,0,0,-9.962799,83.568279,107.511898)"/>
<use data-text="&#x03c0;" xlink:href="#font_1_1" transform="matrix(9.963098,0,0,-9.962799,88.55053,107.511898)"/>
<use data-text="&#x2212;" xlink:href="#font_3_1" transform="matrix(9.963098,0,0,-9.962799,96.80094,107.511898)"/>
<use data-text="t" xlink:href="#font_1_2" transform="matrix(9.963098,0,0,-9.962799,106.763439,107.511898)"/>
<path transform="matrix(1.00005,0,0,-1.00002,17.038949,74.229228)" stroke-width=".3985" stroke-linecap="butt" stroke-miterlimit="10" stroke-linejoin="miter" fill="none" stroke="#00aeef" d="M114.80379-28.34636H196.44197M114.80379-22.6771H196.44197M114.80379-17.00781H196.44197M114.80379-11.33855H196.44197M114.80379-5.66927H196.44197M114.80379 0H196.44197M114.80379 5.66927H196.44197M114.80379 11.33855H196.44197M114.80379 17.00781H196.44197M114.80379 22.6771H196.44197M114.80379 28.34636H196.44197M121.18172-28.3468V28.3468M127.55971-28.3468V28.3468M133.93769-28.3468V28.3468M140.31568-28.3468V28.3468M146.69365-28.3468V28.3468M153.07163-28.3468V28.3468M159.44962-28.3468V28.3468M165.8276-28.3468V28.3468M172.2056-28.3468V28.3468M178.58358-28.3468V28.3468M184.96157-28.3468V28.3468M191.33956-28.3468V28.3468M196.44197 28.3468"/>
<path transform="matrix(1.00005,0,0,-1.00002,17.038949,74.229228)" stroke-width=".79701" stroke-linecap="butt" stroke-miterlimit="10" stroke-linejoin="miter" fill="none" stroke="#000000" d="M114.80379 0H198.83419"/>
<path transform="matrix(1.00005,0,0,-1.00002,215.88306,74.229228)" d="M1.0361 0C-.25902 .25902-1.55415 .77707-3.1083 1.68365-1.55415 .51805-1.55415-.51805-3.1083-1.68365-1.55415-.77707-.25902-.25902 1.0361 0Z"/>
<path transform="matrix(1.00005,0,0,-1.00002,215.88306,74.229228)" stroke-width=".79701" stroke-linecap="butt" stroke-linejoin="round" fill="none" stroke="#000000" d="M1.0361 0C-.25902 .25902-1.55415 .77707-3.1083 1.68365-1.55415 .51805-1.55415-.51805-3.1083-1.68365-1.55415-.77707-.25902-.25902 1.0361 0Z"/>
<use data-text="x" xlink:href="#font_1_3" transform="matrix(9.963098,0,0,-9.962799,221.03714,76.37427)"/>
<path transform="matrix(1.00005,0,0,-1.00002,17.038949,74.229228)" stroke-width=".79701" stroke-linecap="butt" stroke-miterlimit="10" stroke-linejoin="miter" fill="none" stroke="#000000" d="M114.80379-28.3468V30.31366"/>
<path transform="matrix(0,-1.00002,-1.00005,-0,131.84848,43.91496)" d="M1.0361 0C-.25902 .25902-1.55415 .77707-3.1083 1.68365-1.55415 .51805-1.55415-.51805-3.1083-1.68365-1.55415-.77707-.25902-.25902 1.0361 0Z"/>
<path transform="matrix(0,-1.00002,-1.00005,-0,131.84848,43.91496)" stroke-width=".79701" stroke-linecap="butt" stroke-linejoin="round" fill="none" stroke="#000000" d="M1.0361 0C-.25902 .25902-1.55415 .77707-3.1083 1.68365-1.55415 .51805-1.55415-.51805-3.1083-1.68365-1.55415-.77707-.25902-.25902 1.0361 0Z"/>
<use data-text="y" xlink:href="#font_1_4" transform="matrix(9.963098,0,0,-9.962799,129.22754,36.82348)"/>
<path transform="matrix(1.00005,0,0,-1.00002,17.038949,74.229228)" stroke-width=".79701" stroke-linecap="butt" stroke-miterlimit="10" stroke-linejoin="miter" fill="none" stroke="#000000" d="M127.55977 1.13367V-1.13411"/>
<path transform="matrix(1.00005,0,0,-1.00002,17.038949,74.229228)" d="M125.06908-9.9456H130.05046V-3.5251694H125.06908Z" fill="#ffffff"/>
<use data-text="1" xlink:href="#font_2_3" transform="matrix(9.963098,0,0,-9.962799,142.1142,84.17542)"/>
<path transform="matrix(1.00005,0,0,-1.00002,17.038949,74.229228)" stroke-width=".79701" stroke-linecap="butt" stroke-miterlimit="10" stroke-linejoin="miter" fill="none" stroke="#000000" d="M140.31575 1.13367V-1.13411"/>
<path transform="matrix(1.00005,0,0,-1.00002,17.038949,74.229228)" d="M137.82506-9.9456H142.80644V-3.5251694H137.82506Z" fill="#ffffff"/>
<use data-text="2" xlink:href="#font_2_4" transform="matrix(9.963098,0,0,-9.962799,154.87082,84.17542)"/>
<path transform="matrix(1.00005,0,0,-1.00002,17.038949,74.229228)" stroke-width=".79701" stroke-linecap="butt" stroke-miterlimit="10" stroke-linejoin="miter" fill="none" stroke="#000000" d="M153.07172 1.13367V-1.13411"/>
<path transform="matrix(1.00005,0,0,-1.00002,17.038949,74.229228)" d="M150.58103-9.9456H155.56241V-3.5251694H150.58103Z" fill="#ffffff"/>
<use data-text="3" xlink:href="#font_2_5" transform="matrix(9.963098,0,0,-9.962799,167.62747,84.17542)"/>
<path transform="matrix(1.00005,0,0,-1.00002,17.038949,74.229228)" stroke-width=".79701" stroke-linecap="butt" stroke-miterlimit="10" stroke-linejoin="miter" fill="none" stroke="#000000" d="M165.8277 1.13367V-1.13411"/>
<path transform="matrix(1.00005,0,0,-1.00002,17.038949,74.229228)" d="M163.337-9.9456H168.31839V-3.5251694H163.337Z" fill="#ffffff"/>
<use data-text="4" xlink:href="#font_2_6" transform="matrix(9.963098,0,0,-9.962799,180.38413,84.17542)"/>
<path transform="matrix(1.00005,0,0,-1.00002,17.038949,74.229228)" stroke-width=".79701" stroke-linecap="butt" stroke-miterlimit="10" stroke-linejoin="miter" fill="none" stroke="#000000" d="M178.58368 1.13367V-1.13411"/>
<path transform="matrix(1.00005,0,0,-1.00002,17.038949,74.229228)" d="M176.09299-9.9456H181.07437V-3.5251694H176.09299Z" fill="#ffffff"/>
<use data-text="5" xlink:href="#font_2_7" transform="matrix(9.963098,0,0,-9.962799,193.14075,84.17542)"/>
<path transform="matrix(1.00005,0,0,-1.00002,17.038949,74.229228)" stroke-width=".79701" stroke-linecap="butt" stroke-miterlimit="10" stroke-linejoin="miter" fill="none" stroke="#000000" d="M191.33965 1.13367V-1.13411"/>
<path transform="matrix(1.00005,0,0,-1.00002,17.038949,74.229228)" d="M188.84896-9.9456H193.83034V-3.5251694H188.84896Z" fill="#ffffff"/>
<use data-text="6" xlink:href="#font_2_8" transform="matrix(9.963098,0,0,-9.962799,205.89737,84.17542)"/>
<path transform="matrix(1.00005,0,0,-1.00002,17.038949,74.229228)" stroke-width=".79701" stroke-linecap="butt" stroke-miterlimit="10" stroke-linejoin="miter" fill="none" stroke="#000000" d="M115.82428-28.3468H113.7833"/>
<path transform="matrix(1.00005,0,0,-1.00002,17.038949,74.229228)" d="M98.662-31.97214H111.39222V-24.72147H98.662Z" fill="#ffffff"/>
<use data-text="&#x2212;" xlink:href="#font_3_1" transform="matrix(9.963098,0,0,-9.962799,115.70588,105.37185)"/>
<use data-text="1" xlink:href="#font_2_3" transform="matrix(9.963098,0,0,-9.962799,123.45527,105.37185)"/>
<path transform="matrix(1.00005,0,0,-1.00002,17.038949,74.229228)" stroke-width=".79701" stroke-linecap="butt" stroke-miterlimit="10" stroke-linejoin="miter" fill="none" stroke="#000000" d="M115.82428 28.3468H113.7833"/>
<path transform="matrix(1.00005,0,0,-1.00002,17.038949,74.229228)" d="M106.41084 25.13658H111.39222V31.55701H106.41084Z" fill="#ffffff"/>
<use data-text="1" xlink:href="#font_2_3" transform="matrix(9.963098,0,0,-9.962799,123.45527,49.09172)"/>
<path transform="matrix(1.00005,0,0,-1.00002,17.038949,74.229228)" stroke-width="1.19553" stroke-linecap="butt" stroke-miterlimit="10" stroke-linejoin="miter" fill="none" stroke="#ff0000" d="M114.80379 28.3468C114.80379 28.3468 115.72533 28.28261 116.07925 28.20406 116.43321 28.1255 117.00081 27.93663 117.35475 27.78061 117.70868 27.62457 118.27629 27.31142 118.63023 27.07945 118.98416 26.8475 119.55177 26.4146 119.9057 26.10884 120.25964 25.80309 120.82724 25.2522 121.1812 24.87567 121.53513 24.49915 122.10272 23.83835 122.45667 23.3951 122.81061 22.95183 123.37822 22.18668 123.73215 21.68095 124.08607 21.17522 124.65369 20.31339 125.00763 19.75009 125.36157 19.18681 125.92917 18.23622 126.28311 17.62115 126.63705 17.00609 127.20467 15.97758 127.5586 15.31702 127.91254 14.65645 128.48014 13.55989 128.83409 12.8602 129.18802 12.1605 129.75562 11.00592 130.10955 10.27406 130.46349 9.5422 131.03108 8.34198 131.38504 7.5854 131.73897 6.82881 132.30658 5.5948 132.6605 4.82106 133.01447 4.0473 133.58206 2.79181 133.936 2.0087 134.28993 1.22557 134.85755-.03838 135.21149-.8231 135.56542-1.60783 136.13303-2.86847 136.48696-3.64714 136.84091-4.42583 137.40851-5.67047 137.76244-6.43527 138.11638-7.20009 138.68398-8.41632 139.03792-9.15941 139.39186-9.9025 139.95948-11.077 140.3134-11.79097 140.66733-12.50494 141.23494-13.62741 141.58889-14.30531 141.94283-14.98322 142.51042-16.04204 142.86437-16.67691 143.2183-17.3118 143.78592-18.29565 144.13985-18.88113 144.49379-19.46663 145.06139-20.36618 145.41533-20.89676 145.76927-21.42734 146.33687-22.235 146.69081-22.7052 147.04474-23.1754 147.61234-23.88086 147.9663-24.2857 148.32022-24.69054 148.88784-25.2874 149.24176-25.62311 149.59572-25.95882 150.16332-26.44199 150.51726-26.7053 150.87119-26.96864 151.4388-27.333 151.79274-27.52107 152.14667-27.70915 152.71428-27.94998 153.0682-28.06088 153.42215-28.17178 153.98976-28.2876 154.34369-28.3204 154.69763-28.35323 155.26523-28.34297 155.61919-28.29749 155.97312-28.252 156.54073-28.11612 156.89466-27.99255 157.2486-27.86899 157.8162-27.60739 158.17014-27.40689 158.52408-27.20639 159.09168-26.82265 159.4456-26.54744 159.79956-26.27222 160.36716-25.77037 160.7211-25.42326 161.07503-25.07616 161.64264-24.46141 161.99658-24.04562 162.35053-23.62985 162.91812-22.90698 163.27207-22.42665 163.626-21.94632 164.19362-21.12343 164.54755-20.5836 164.90148-20.0438 165.46909-19.12991 165.82302-18.53596 166.17697-17.942 166.74457-16.94514 167.0985-16.30278 167.45244-15.6604 168.02004-14.59041 168.374-13.90608 168.72792-13.22174 169.29553-12.0898 169.64946-11.37054 170.0034-10.65129 170.57102-9.46915 170.92494-8.7221 171.27889-7.97507 171.84648-6.7538 172.20044-5.9863 172.55437-5.2188 173.12198-3.97055 173.4759-3.19038 173.82987-2.41022 174.39745-1.14828 174.75139-.36333 175.10532 .42163 175.67293 1.68503 176.02686 2.46718 176.38082 3.24934 176.94841 4.5024 177.30236 5.27393 177.65628 6.04546 178.22389 7.27484 178.57784 8.02788 178.93178 8.78093 179.49938 9.97429 179.85332 10.70142 180.20726 11.42854 180.77487 12.5747 181.1288 13.26852 181.48273 13.96234 182.05034 15.04837 182.40428 15.70198 182.75821 16.35559 183.32582 17.37215 183.67975 17.9793 184.03369 18.58644 184.60129 19.52362 184.95525 20.07796 185.30918 20.6323 185.87679 21.47876 186.23072 21.97466 186.58466 22.47054 187.15227 23.21933 187.5062 23.65202 187.86014 24.08472 188.42774 24.72794 188.7817 25.09325 189.13562 25.45854 189.70322 25.99088 190.05716 26.28488 190.4111 26.57889 190.97872 26.99255 191.33264 27.21225 191.68659 27.43195 192.25418 27.72498 192.60813 27.86841 192.96207 28.01184 193.52968 28.18025 193.8836 28.24602 194.23754 28.31178 194.80515 28.35518 195.15909 28.34247 195.51303 28.32976 196.43457 28.15431 196.43457 28.15431"/>
<path transform="matrix(1.00005,0,0,-1.00002,17.038949,74.229228)" d="M127.75517 17.00824C127.75517 17.69717 127.25262 18.25566 126.63269 18.25566 126.01274 18.25566 125.51021 17.69717 125.51021 17.00824 125.51021 16.3193 126.01274 15.7608 126.63269 15.7608 127.25262 15.7608 127.75517 16.3193 127.75517 17.00824ZM126.63269 17.00824" fill="#0000ff"/>
<path transform="matrix(1.00005,0,0,-1.00002,17.038949,74.229228)" stroke-width=".3985" stroke-linecap="butt" stroke-miterlimit="10" stroke-linejoin="miter" fill="none" stroke="#0000ff" d="M127.75517 17.00824C127.75517 17.69717 127.25262 18.25566 126.63269 18.25566 126.01274 18.25566 125.51021 17.69717 125.51021 17.00824 125.51021 16.3193 126.01274 15.7608 126.63269 15.7608 127.25262 15.7608 127.75517 16.3193 127.75517 17.00824ZM126.63269 17.00824"/>
<path transform="matrix(1.00005,0,0,-1.00002,17.038949,74.229228)" d="M119.84694 13.94429H123.444599V20.07217H119.84694Z" fill="#ffffff"/>
<use data-text="t" xlink:href="#font_1_2" transform="matrix(9.963098,0,0,-9.962799,136.89194,60.284948)"/>
<path transform="matrix(1.00005,0,0,-1.00002,17.038949,74.229228)" d="M144.17221-17.00824C144.17221-16.3193 143.66967-15.7608 143.04973-15.7608 142.4298-15.7608 141.92725-16.3193 141.92725-17.00824 141.92725-17.69717 142.4298-18.25566 143.04973-18.25566 143.66967-18.25566 144.17221-17.69717 144.17221-17.00824ZM143.04973-17.00824" fill="#0000ff"/>
<path transform="matrix(1.00005,0,0,-1.00002,17.038949,74.229228)" stroke-width=".3985" stroke-linecap="butt" stroke-miterlimit="10" stroke-linejoin="miter" fill="none" stroke="#0000ff" d="M144.17221-17.00824C144.17221-16.3193 143.66967-15.7608 143.04973-15.7608 142.4298-15.7608 141.92725-16.3193 141.92725-17.00824 141.92725-17.69717 142.4298-18.25566 143.04973-18.25566 143.66967-18.25566 144.17221-17.69717 144.17221-17.00824ZM143.04973-17.00824"/>
<path transform="matrix(1.00005,0,0,-1.00002,17.038949,74.229228)" d="M118.05084-20.48729H139.86164V-13.529209H118.05084Z" fill="#ffffff"/>
<use data-text="&#x03c0;" xlink:href="#font_1_1" transform="matrix(9.963098,0,0,-9.962799,135.09586,93.88662)"/>
<use data-text="&#x2212;" xlink:href="#font_3_1" transform="matrix(9.963098,0,0,-9.962799,143.34626,93.88662)"/>
<use data-text="t" xlink:href="#font_1_2" transform="matrix(9.963098,0,0,-9.962799,153.30976,93.88662)"/>
<path transform="matrix(1.00005,0,0,-1.00002,17.038949,74.229228)" d="M167.8293-17.00824C167.8293-16.3193 167.32675-15.7608 166.70682-15.7608 166.08689-15.7608 165.58434-16.3193 165.58434-17.00824 165.58434-17.69717 166.08689-18.25566 166.70682-18.25566 167.32675-18.25566 167.8293-17.69717 167.8293-17.00824ZM166.70682-17.00824" fill="#0000ff"/>
<path transform="matrix(1.00005,0,0,-1.00002,17.038949,74.229228)" stroke-width=".3985" stroke-linecap="butt" stroke-miterlimit="10" stroke-linejoin="miter" fill="none" stroke="#0000ff" d="M167.8293-17.00824C167.8293-16.3193 167.32675-15.7608 166.70682-15.7608 166.08689-15.7608 165.58434-16.3193 165.58434-17.00824 165.58434-17.69717 166.08689-18.25566 166.70682-18.25566 167.32675-18.25566 167.8293-17.69717 167.8293-17.00824ZM166.70682-17.00824"/>
<path transform="matrix(1.00005,0,0,-1.00002,17.038949,74.229228)" d="M169.8949-20.48729H191.70569V-13.529209H169.8949Z" fill="#ffffff"/>
<use data-text="&#x03c0;" xlink:href="#font_1_1" transform="matrix(9.963098,0,0,-9.962799,186.94245,93.88662)"/>
<use data-text="+" xlink:href="#font_2_1" transform="matrix(9.963098,0,0,-9.962799,195.19284,93.88662)"/>
<use data-text="t" xlink:href="#font_1_2" transform="matrix(9.963098,0,0,-9.962799,205.15634,93.88662)"/>
<path transform="matrix(1.00005,0,0,-1.00002,17.038949,74.229228)" d="M184.24633 17.00824C184.24633 17.69717 183.74378 18.25566 183.12384 18.25566 182.5039 18.25566 182.00136 17.69717 182.00136 17.00824 182.00136 16.3193 182.5039 15.7608 183.12384 15.7608 183.74378 15.7608 184.24633 16.3193 184.24633 17.00824ZM183.12384 17.00824" fill="#0000ff"/>
<path transform="matrix(1.00005,0,0,-1.00002,17.038949,74.229228)" stroke-width=".3985" stroke-linecap="butt" stroke-miterlimit="10" stroke-linejoin="miter" fill="none" stroke="#0000ff" d="M184.24633 17.00824C184.24633 17.69717 183.74378 18.25566 183.12384 18.25566 182.5039 18.25566 182.00136 17.69717 182.00136 17.00824 182.00136 16.3193 182.5039 15.7608 183.12384 15.7608 183.74378 15.7608 184.24633 16.3193 184.24633 17.00824ZM183.12384 17.00824"/>
<path transform="matrix(1.00005,0,0,-1.00002,17.038949,74.229228)" d="M153.14359 13.3829H179.93576V20.63357H153.14359Z" fill="#ffffff"/>
<use data-text="2" xlink:href="#font_2_4" transform="matrix(9.963098,0,0,-9.962799,170.19058,60.01594)"/>
<use data-text="&#x03c0;" xlink:href="#font_1_1" transform="matrix(9.963098,0,0,-9.962799,175.17285,60.01594)"/>
<use data-text="&#x2212;" xlink:href="#font_3_1" transform="matrix(9.963098,0,0,-9.962799,183.42325,60.01594)"/>
<use data-text="t" xlink:href="#font_1_2" transform="matrix(9.963098,0,0,-9.962799,193.38574,60.01594)"/>
<path transform="matrix(1.00005,0,0,-1.00002,17.038949,74.229228)" stroke-width=".3985" stroke-linecap="butt" stroke-miterlimit="10" stroke-linejoin="miter" fill="none" stroke="#00aeef" d="M229.60759-56.69273H311.24577M229.60759-51.02345H311.24577M229.60759-45.35419H311.24577M229.60759-39.6849H311.24577M229.60759-34.01564H311.24577M229.60759-28.34636H311.24577M229.60759-22.6771H311.24577M229.60759-17.00781H311.24577M229.60759-11.33855H311.24577M229.60759-5.66927H311.24577M229.60759 0H311.24577M229.60759 5.66927H311.24577M229.60759 11.33855H311.24577M229.60759 17.00781H311.24577M229.60759 22.6771H311.24577M229.60759 28.34636H311.24577M229.60759 34.01564H311.24577M229.60759 39.6849H311.24577M229.60759 45.35419H311.24577M229.60759 51.02345H311.24577M229.60759 56.69273H311.24577M235.98546-56.69362V56.69362M242.36344-56.69362V56.69362M248.74143-56.69362V56.69362M255.11942-56.69362V56.69362M261.49739-56.69362V56.69362M267.87538-56.69362V56.69362M274.25337-56.69362V56.69362M280.63136-56.69362V56.69362M287.00935-56.69362V56.69362M293.3873-56.69362V56.69362M299.7653-56.69362V56.69362M306.14329-56.69362V56.69362M311.24577 56.69362"/>
<path transform="matrix(1.00005,0,0,-1.00002,17.038949,74.229228)" stroke-width=".79701" stroke-linecap="butt" stroke-miterlimit="10" stroke-linejoin="miter" fill="none" stroke="#000000" d="M229.60759 0H313.638"/>
<path transform="matrix(1.00005,0,0,-1.00002,330.6926,74.229228)" d="M1.0361 0C-.25902 .25902-1.55415 .77707-3.1083 1.68365-1.55415 .51805-1.55415-.51805-3.1083-1.68365-1.55415-.77707-.25902-.25902 1.0361 0Z"/>
<path transform="matrix(1.00005,0,0,-1.00002,330.6926,74.229228)" stroke-width=".79701" stroke-linecap="butt" stroke-linejoin="round" fill="none" stroke="#000000" d="M1.0361 0C-.25902 .25902-1.55415 .77707-3.1083 1.68365-1.55415 .51805-1.55415-.51805-3.1083-1.68365-1.55415-.77707-.25902-.25902 1.0361 0Z"/>
<use data-text="x" xlink:href="#font_1_3" transform="matrix(9.963098,0,0,-9.962799,335.84687,76.37427)"/>
<path transform="matrix(1.00005,0,0,-1.00002,17.038949,74.229228)" stroke-width=".79701" stroke-linecap="butt" stroke-miterlimit="10" stroke-linejoin="miter" fill="none" stroke="#000000" d="M229.60759-56.69362V60.92827"/>
<path transform="matrix(0,-1.00002,-1.00005,-0,246.65802,13.299736)" d="M1.0361 0C-.25902 .25902-1.55415 .77707-3.1083 1.68365-1.55415 .51805-1.55415-.51805-3.1083-1.68365-1.55415-.77707-.25902-.25902 1.0361 0Z"/>
<path transform="matrix(0,-1.00002,-1.00005,-0,246.65802,13.299736)" stroke-width=".79701" stroke-linecap="butt" stroke-linejoin="round" fill="none" stroke="#000000" d="M1.0361 0C-.25902 .25902-1.55415 .77707-3.1083 1.68365-1.55415 .51805-1.55415-.51805-3.1083-1.68365-1.55415-.77707-.25902-.25902 1.0361 0Z"/>
<use data-text="y" xlink:href="#font_1_4" transform="matrix(9.963098,0,0,-9.962799,244.0373,6.2088625)"/>
<path transform="matrix(1.00005,0,0,-1.00002,17.038949,74.229228)" stroke-width="1.19553" stroke-linecap="butt" stroke-dasharray="2.98883,2.98883" stroke-miterlimit="10" stroke-linejoin="miter" fill="none" stroke="#929292" d="M249.6445-56.69362V56.69362"/>
<path transform="matrix(1.00005,0,0,-1.00002,17.038949,74.229228)" stroke-width="1.19553" stroke-linecap="butt" stroke-dasharray="2.98883,2.98883" stroke-miterlimit="10" stroke-linejoin="miter" fill="none" stroke="#929292" d="M289.71849-56.69362V56.69362"/>
<path transform="matrix(1.00005,0,0,-1.00002,17.038949,74.229228)" stroke-width=".79701" stroke-linecap="butt" stroke-miterlimit="10" stroke-linejoin="miter" fill="none" stroke="#000000" d="M242.36357 1.4174V-1.41742"/>
<path transform="matrix(1.00005,0,0,-1.00002,17.038949,74.229228)" d="M239.87288-10.22891H244.85427V-3.8084803H239.87288Z" fill="#ffffff"/>
<use data-text="1" xlink:href="#font_2_3" transform="matrix(9.963098,0,0,-9.962799,256.92393,84.458438)"/>
<path transform="matrix(1.00005,0,0,-1.00002,17.038949,74.229228)" stroke-width=".79701" stroke-linecap="butt" stroke-miterlimit="10" stroke-linejoin="miter" fill="none" stroke="#000000" d="M267.87553 1.4174V-1.41742"/>
<path transform="matrix(1.00005,0,0,-1.00002,17.038949,74.229228)" d="M265.38484-10.22891H270.3662V-3.8084803H265.38484Z" fill="#ffffff"/>
<use data-text="3" xlink:href="#font_2_5" transform="matrix(9.963098,0,0,-9.962799,282.4372,84.458438)"/>
<path transform="matrix(1.00005,0,0,-1.00002,17.038949,74.229228)" stroke-width=".79701" stroke-linecap="butt" stroke-miterlimit="10" stroke-linejoin="miter" fill="none" stroke="#000000" d="M280.6315 1.4174V-1.41742"/>
<path transform="matrix(1.00005,0,0,-1.00002,17.038949,74.229228)" d="M278.1408-10.22891H283.1222V-3.8084803H278.1408Z" fill="#ffffff"/>
<use data-text="4" xlink:href="#font_2_6" transform="matrix(9.963098,0,0,-9.962799,295.19383,84.458438)"/>
<path transform="matrix(1.00005,0,0,-1.00002,17.038949,74.229228)" stroke-width=".79701" stroke-linecap="butt" stroke-miterlimit="10" stroke-linejoin="miter" fill="none" stroke="#000000" d="M306.14347 1.4174V-1.41742"/>
<path transform="matrix(1.00005,0,0,-1.00002,17.038949,74.229228)" d="M303.65278-10.22891H308.63417V-3.8084803H303.65278Z" fill="#ffffff"/>
<use data-text="6" xlink:href="#font_2_8" transform="matrix(9.963098,0,0,-9.962799,320.70713,84.458438)"/>
<path transform="matrix(1.00005,0,0,-1.00002,17.038949,74.229228)" stroke-width=".79701" stroke-linecap="butt" stroke-miterlimit="10" stroke-linejoin="miter" fill="none" stroke="#000000" d="M230.62808-56.69275H228.58708"/>
<path transform="matrix(1.00005,0,0,-1.00002,17.038949,74.229228)" d="M208.48438-60.31808H226.19602V-53.06741H208.48438Z" fill="#ffffff"/>
<use data-text="&#x2212;" xlink:href="#font_3_1" transform="matrix(9.963098,0,0,-9.962799,225.53336,133.71842)"/>
<use data-text="1" xlink:href="#font_2_3" transform="matrix(9.963098,0,0,-9.962799,233.28275,133.71842)"/>
<use data-text="0" xlink:href="#font_2_2" transform="matrix(9.963098,0,0,-9.962799,238.26428,133.71842)"/>
<path transform="matrix(1.00005,0,0,-1.00002,17.038949,74.229228)" stroke-width=".79701" stroke-linecap="butt" stroke-miterlimit="10" stroke-linejoin="miter" fill="none" stroke="#000000" d="M230.62808-28.34636H228.58708"/>
<path transform="matrix(1.00005,0,0,-1.00002,17.038949,74.229228)" d="M213.46579-31.9717H226.19602V-24.721032H213.46579Z" fill="#ffffff"/>
<use data-text="&#x2212;" xlink:href="#font_3_1" transform="matrix(9.963098,0,0,-9.962799,230.51563,105.37085)"/>
<use data-text="5" xlink:href="#font_2_7" transform="matrix(9.963098,0,0,-9.962799,238.26502,105.37085)"/>
<path transform="matrix(1.00005,0,0,-1.00002,17.038949,74.229228)" stroke-width=".79701" stroke-linecap="butt" stroke-miterlimit="10" stroke-linejoin="miter" fill="none" stroke="#000000" d="M230.62808 28.34636H228.58708"/>
<path transform="matrix(1.00005,0,0,-1.00002,17.038949,74.229228)" d="M221.21463 25.13614H226.19602V31.556572H221.21463Z" fill="#ffffff"/>
<use data-text="5" xlink:href="#font_2_7" transform="matrix(9.963098,0,0,-9.962799,238.26499,49.09272)"/>
<path transform="matrix(1.00005,0,0,-1.00002,17.038949,74.229228)" stroke-width=".79701" stroke-linecap="butt" stroke-miterlimit="10" stroke-linejoin="miter" fill="none" stroke="#000000" d="M230.62808 56.69275H228.58708"/>
<path transform="matrix(1.00005,0,0,-1.00002,17.038949,74.229228)" d="M216.23322 53.48253H226.196V59.902959H216.23322Z" fill="#ffffff"/>
<use data-text="1" xlink:href="#font_2_3" transform="matrix(9.963098,0,0,-9.962799,233.28275,20.745152)"/>
<use data-text="0" xlink:href="#font_2_2" transform="matrix(9.963098,0,0,-9.962799,238.26432,20.745152)"/>
<path transform="matrix(1.00005,0,0,-1.00002,17.038949,74.229228)" stroke-width="1.19553" stroke-linecap="butt" stroke-miterlimit="10" stroke-linejoin="miter" fill="none" stroke="#ff0000" d="M229.60759 0C229.60759 0 229.81937 .09363 229.90071 .12975 229.98204 .16586 230.1125 .22414 230.19384 .26038 230.27518 .29662 230.40563 .3547 230.48699 .391 230.56832 .4273 230.69878 .48558 230.7801 .52206 230.86144 .55855 230.9919 .61731 231.07323 .65398 231.15457 .69064 231.28502 .74951 231.36635 .78635 231.4477 .82318 231.57814 .88248 231.65949 .91956 231.74082 .95663 231.87128 1.01627 231.95262 1.05363 232.03395 1.09102 232.16442 1.15129 232.24575 1.18903 232.32709 1.22678 232.45754 1.28761 232.53888 1.32571 232.62021 1.3638 232.75067 1.42511 232.832 1.4637 232.91335 1.50229 233.0438 1.56477 233.12512 1.60384 233.20647 1.64288 233.33693 1.70567 233.41826 1.74527 233.4996 1.78487 233.63005 1.8491 233.7114 1.88931 233.79273 1.92952 233.92319 1.99428 234.00452 2.03508 234.08586 2.07588 234.21631 2.14192 234.29766 2.18344 234.37899 2.22496 234.50943 2.29214 234.59078 2.3344 234.67212 2.37663 234.80257 2.44481 234.88391 2.48795 234.96524 2.5311 235.0957 2.60133 235.17704 2.64539 235.25838 2.68942 235.38883 2.76042 235.47017 2.80542 235.5515 2.85042 235.68195 2.9237 235.76329 2.96979 235.84462 3.01587 235.97509 3.09041 236.05641 3.13762 236.13777 3.18483 236.26822 3.26166 236.34957 3.3102 236.4309 3.35873 236.56134 3.43768 236.64269 3.48753 236.72402 3.5374 236.85446 3.6184 236.9358 3.66965 237.01714 3.72089 237.1476 3.80402 237.22893 3.85693 237.31027 3.90985 237.44072 3.99648 237.52208 4.05113 237.60341 4.1058 237.73387 4.1945 237.8152 4.25096 237.89655 4.30743 238.027 4.39958 238.10832 4.45816 238.18967 4.51672 238.32012 4.6124 238.40145 4.67313 238.48279 4.73386 238.61324 4.83275 238.69458 4.89587 238.77591 4.95901 238.90637 5.06233 238.98772 5.12816 239.06906 5.19397 239.19951 5.30173 239.28084 5.37038 239.36219 5.43903 239.49263 5.55121 239.57398 5.62297 239.6553 5.69475 239.78577 5.8125 239.8671 5.8877 239.94844 5.96288 240.07889 6.08603 240.16022 6.16495 240.24156 6.24385 240.37203 6.37332 240.45336 6.45648 240.5347 6.53966 240.66515 6.67665 240.74649 6.76445 240.82782 6.85223 240.95829 6.99657 241.03961 7.08928 241.12096 7.182 241.2514 7.33429 241.33275 7.43271 241.41408 7.53113 241.54453 7.69392 241.62587 7.79865 241.70722 7.90335 241.83766 8.07582 241.919 8.18748 242.00034 8.29916 242.1308 8.48407 242.21213 8.60359 242.29347 8.72313 242.42392 8.92068 242.50527 9.0491 242.5866 9.17754 242.71706 9.39085 242.79839 9.52924 242.87972 9.66762 243.01018 9.8967 243.09152 10.04654 243.17287 10.19638 243.30332 10.4461 243.38466 10.60927 243.46599 10.77243 243.59644 11.04439 243.67778 11.22261 243.75911 11.40083 243.88957 11.69809 243.9709 11.89392 244.05223 12.08974 244.1827 12.41771 244.26403 12.63399 244.34537 12.85027 244.47582 13.21227 244.55718 13.45279 244.6385 13.69331 244.76897 14.09814 244.8503 14.3676 244.93164 14.63705 245.06209 15.09116 245.14342 15.39488 245.22476 15.69861 245.35521 16.21077 245.43654 16.55669 245.51789 16.90259 245.64833 17.48947 245.72968 17.88803 245.811 18.28658 245.94149 18.96526 246.02281 19.42915 246.10416 19.89305 246.2346 20.6843 246.31595 21.23155 246.39728 21.77881 246.52773 22.71693 246.60907 23.37347 246.6904 24.03001 246.82086 25.16046 246.90219 25.96352 246.98354 26.76656 247.11399 28.15381 247.19532 29.16127 247.27667 30.16872 247.40712 31.92265 247.48847 33.22452 247.5698 34.5264 247.70024 36.79509 247.78159 38.54431 247.86292 40.29352 247.99338 43.34636 248.0747 45.83171 248.15605 48.31705 248.36785 56.45702 248.36785 56.45702"/>
<path transform="matrix(1.00005,0,0,-1.00002,17.038949,74.229228)" stroke-width="1.19553" stroke-linecap="butt" stroke-miterlimit="10" stroke-linejoin="miter" fill="none" stroke="#ff0000" d="M250.91588-56.70874C250.91588-56.70874 251.33945-42.47452 251.50215-38.66197 251.66483-34.84941 251.92572-31.34554 252.0884-29.23047 252.25109-27.1154 252.51198-24.77354 252.67465-23.41801 252.83734-22.06248 253.09824-20.40948 253.26091-19.46072 253.4236-18.51198 253.6845-17.28404 253.84717-16.58003 254.00984-15.876 254.27075-14.9322 254.43344-14.38663 254.59612-13.84105 254.85701-13.08514 255.01969-12.64783 255.18236-12.21051 255.44326-11.59421 255.60596-11.23473 255.76863-10.87524 256.02955-10.3589 256.1922-10.05692 256.3549-9.75493 256.61579-9.31656 256.77848-9.0582 256.94117-8.79984 257.20204-8.41946 257.36473-8.19484 257.5274-7.97021 257.7883-7.63687 257.95097-7.43921 258.11366-7.24153 258.37458-6.94608 258.53727-6.77007 258.69993-6.59407 258.96083-6.329 259.1235-6.17056 259.2862-6.01213 259.54707-5.77214 259.70976-5.62817 259.87245-5.4842 260.13334-5.26482 260.296-5.1329 260.4587-5.001 260.7196-4.79926 260.88227-4.67744 261.04496-4.55563 261.30586-4.36816 261.46855-4.25485 261.6312-4.14156 261.8921-3.9668 262.05479-3.86082 262.21748-3.75485 262.47837-3.59087 262.64106-3.49101 262.80375-3.39114 263.0646-3.23576 263.2273-3.14107 263.38999-3.04637 263.65089-2.89865 263.81355-2.80846 263.97624-2.71826 264.23716-2.57732 264.39985-2.49097 264.5625-2.40463 264.8234-2.26915 264.98609-2.18604 265.14878-2.10292 265.40965-1.97232 265.57234-1.8919 265.73503-1.8115 265.9959-1.68462 266.15858-1.60643 266.32127-1.52824 266.58219-1.40463 266.74488-1.32831 266.90757-1.25198 267.16844-1.13106 267.3311-1.05624 267.4938-.98141 267.75468-.86267 267.91737-.78893 268.08006-.71518 268.34098-.59763 268.50364-.52466 268.6663-.45169 268.9272-.33545 269.08988-.26297 269.25257-.19049 269.51347-.07439 269.67616-.00215 269.8388 .07007 270.09974 .18535 270.2624 .25777 270.42509 .3302 270.68598 .44693 270.84867 .5199 271.01136 .59286 271.27223 .71007 271.4349 .78375 271.5976 .85744 271.8585 .97623 272.02116 1.05106 272.18385 1.12589 272.44477 1.24678 272.60746 1.3231 272.7701 1.39944 273.031 1.5231 273.1937 1.60124 273.35639 1.67938 273.61726 1.80592 273.77995 1.88629 273.94264 1.96664 274.20353 2.0973 274.3662 2.1804 274.52888 2.26352 274.7898 2.39906 274.95246 2.48535 275.11518 2.57164 275.37605 2.71233 275.53874 2.8024 275.7014 2.89247 275.9623 3.04002 276.12498 3.1346 276.28767 3.22917 276.54856 3.38434 276.71125 3.48407 276.87394 3.58382 277.1348 3.74762 277.2975 3.85347 277.46018 3.95932 277.72108 4.13396 277.88374 4.24707 278.04643 4.3602 278.30735 4.54715 278.47004 4.6688 278.6327 4.79044 278.8936 4.99211 279.05628 5.12384 279.21894 5.25555 279.47984 5.4745 279.64253 5.61823 279.8052 5.76193 280.0661 6.00163 280.2288 6.15976 280.39146 6.31789 280.65235 6.58223 280.81507 6.75795 280.97773 6.93367 281.23863 7.22891 281.4013 7.42624 281.56398 7.62355 281.82487 7.95619 281.98756 8.18015 282.15025 8.4041 282.41114 8.78288 282.57383 9.04045 282.7365 9.29802 282.99739 9.7355 283.16007 10.03659 283.32276 10.33769 283.58366 10.85217 283.74635 11.21051 283.909 11.56885 284.1699 12.18384 284.33259 12.61928 284.49528 13.05472 284.75617 13.80588 284.91886 14.349 285.08155 14.89212 285.3424 15.83328 285.5051 16.53375 285.6678 17.23424 285.92869 18.45447 286.09135 19.39758 286.25404 20.3407 286.51496 21.98558 286.67765 23.33107 286.8403 24.67657 287.1012 27.00032 287.2639 29.0951 287.42658 31.18987 287.68745 34.66618 287.85014 38.42882 288.01283 42.19144 288.4364 56.21349 288.4364 56.21349"/>
<path transform="matrix(1.00005,0,0,-1.00002,17.038949,74.229228)" stroke-width="1.19553" stroke-linecap="butt" stroke-miterlimit="10" stroke-linejoin="miter" fill="none" stroke="#ff0000" d="M290.9899-56.70874C290.9899-56.70874 291.21855-47.95491 291.30638-45.31743 291.3942-42.67995 291.53504-39.514 291.62287-37.69955 291.7107-35.88512 291.85154-33.56822 291.93937-32.24008 292.0272-30.91193 292.168-29.14275 292.25584-28.12708 292.34367-27.1114 292.4845-25.72241 292.5723-24.91978 292.66014-24.11717 292.801-22.9938 292.88883-22.34232 292.97663-21.69081 293.1175-20.76439 293.2053-20.22415 293.29313-19.68393 293.43397-18.90428 293.5218-18.4486 293.6096-17.99292 293.75044-17.32938 293.83827-16.93991 293.9261-16.55043 294.06694-15.97894 294.15476-15.64143 294.24259-15.30391 294.38343-14.8033 294.47126-14.50731 294.55906-14.21133 294.6999-13.76993 294.78773-13.50815 294.87556-13.24637 295.01637-12.85391 295.1042-12.62059 295.19203-12.38725 295.33287-12.03587 295.4207-11.82643 295.5085-11.61699 295.64936-11.30049 295.73719-11.11102 295.825-10.92157 295.96586-10.63338 296.05366-10.4609 296.14149-10.28845 296.28233-10.02542 296.37016-9.8679 296.45796-9.71037 296.59883-9.47026 296.6866-9.32552 296.77449-9.18076 296.9153-8.95844 297.00315-8.82462 297.09095-8.6908 297.23179-8.48503 297.3196-8.36095 297.4074-8.23685 297.54826-8.04572 297.6361-7.93013 297.7239-7.81456 297.86476-7.63588 297.95259-7.52788 298.0404-7.41986 298.18125-7.25279 298.26908-7.15157 298.35688-7.05034 298.49775-6.89348 298.58555-6.79819 298.67338-6.70288 298.8142-6.55458 298.90205-6.46469 298.98985-6.3748 299.1307-6.23521 299.2185-6.15024 299.30635-6.06526 299.44718-5.93292 299.535-5.85222 299.62284-5.77151 299.76368-5.64523 299.8515-5.56848 299.93934-5.49173 300.08015-5.37216 300.16798-5.29901 300.2558-5.22586 300.39665-5.11119 300.48445-5.04121 300.5723-4.97124 300.71315-4.8617 300.80097-4.79466 300.8888-4.72765 301.02964-4.62239 301.11744-4.55807 301.20527-4.49376 301.3461-4.39287 301.43394-4.331 301.52174-4.26912 301.66258-4.17178 301.7504-4.11212 301.83824-4.05247 301.97908-3.95859 302.0669-3.90105 302.15473-3.8435 302.29557-3.75294 302.3834-3.69733 302.4712-3.64171 302.61207-3.55397 302.69987-3.50008 302.7877-3.44618 302.92854-3.36122 303.01637-3.3089 303.1042-3.25658 303.245-3.17378 303.33287-3.12291 303.42066-3.07202 303.56153-2.99167 303.64933-2.94211 303.73716-2.89255 303.878-2.81398 303.96583-2.76563 304.05363-2.71727 304.19447-2.6407 304.2823-2.59348 304.37013-2.54626 304.51097-2.47142 304.5988-2.42523 304.6866-2.37903 304.82746-2.30568 304.91529-2.26044 305.0031-2.2152 305.14396-2.14351 305.23179-2.09909 305.31959-2.05469 305.46043-1.984 305.54823-1.94035 305.63606-1.89673 305.7769-1.82755 305.86473-1.78464 305.95256-1.74174 306.0934-1.6734 306.1812-1.63109 306.26905-1.58878 306.40989-1.5214 306.4977-1.47969 306.5855-1.43799 306.72636-1.37164 306.81419-1.33047 306.902-1.2893 307.04286-1.22372 307.13069-1.18298 307.21849-1.14224 307.35935-1.0771 307.44718-1.03679 307.535-.99646 307.6758-.93228 307.76365-.89232 307.85148-.85236 307.9923-.78842 308.0801-.7487 308.16795-.70898 308.30879-.64545 308.3966-.60597 308.48445-.5665 308.6253-.50339 308.7131-.4641 308.80094-.42479 308.94178-.36183 309.02958-.32265 309.11744-.28348 309.25825-.2207 309.34608-.18166 309.43388-.14261 309.57475-.08002 309.66255-.04108 309.75038-.00215 309.8912 .0601 309.97904 .09903 310.06687 .13797 310.2077 .20053 310.29554 .23961 310.38337 .27867 310.5242 .34145 310.612 .38062 310.69984 .4198 310.84068 .4827 310.9285 .52206 311.01634 .56142 311.245 .66437 311.245 .66437"/>
<path transform="matrix(1.00005,0,0,-1.00002,17.038949,74.229228)" d="M242.55933 7.55902C242.55933 8.24796 242.05678 8.80646 241.43685 8.80646 240.81691 8.80646 240.31436 8.24796 240.31436 7.55902 240.31436 6.87009 240.81691 6.3116 241.43685 6.3116 242.05678 6.3116 242.55933 6.87009 242.55933 7.55902ZM241.43685 7.55902" fill="#0000ff"/>
<path transform="matrix(1.00005,0,0,-1.00002,17.038949,74.229228)" stroke-width=".3985" stroke-linecap="butt" stroke-miterlimit="10" stroke-linejoin="miter" fill="none" stroke="#0000ff" d="M242.55933 7.55902C242.55933 8.24796 242.05678 8.80646 241.43685 8.80646 240.81691 8.80646 240.31436 8.24796 240.31436 7.55902 240.31436 6.87009 240.81691 6.3116 241.43685 6.3116 242.05678 6.3116 242.55933 6.87009 242.55933 7.55902ZM241.43685 7.55902"/>
<path transform="matrix(1.00005,0,0,-1.00002,17.038949,74.229228)" d="M234.6511 7.75827H238.24875V13.88615H234.6511Z" fill="#ffffff"/>
<use data-text="t" xlink:href="#font_1_2" transform="matrix(9.963098,0,0,-9.962799,251.70166,66.47107)"/>
<path transform="matrix(1.00005,0,0,-1.00002,17.038949,74.229228)" d="M258.97636-7.55902C258.97636-6.87009 258.47383-6.3116 257.85389-6.3116 257.23396-6.3116 256.7314-6.87009 256.7314-7.55902 256.7314-8.24796 257.23396-8.80646 257.85389-8.80646 258.47383-8.80646 258.97636-8.24796 258.97636-7.55902ZM257.85389-7.55902" fill="#0000ff"/>
<path transform="matrix(1.00005,0,0,-1.00002,17.038949,74.229228)" stroke-width=".3985" stroke-linecap="butt" stroke-miterlimit="10" stroke-linejoin="miter" fill="none" stroke="#0000ff" d="M258.97636-7.55902C258.97636-6.87009 258.47383-6.3116 257.85389-6.3116 257.23396-6.3116 256.7314-6.87009 256.7314-7.55902 256.7314-8.24796 257.23396-8.80646 257.85389-8.80646 258.47383-8.80646 258.97636-8.24796 258.97636-7.55902ZM257.85389-7.55902"/>
<path transform="matrix(1.00005,0,0,-1.00002,17.038949,74.229228)" d="M258.05314-16.70892H279.86393V-9.750839H258.05314Z" fill="#ffffff"/>
<use data-text="&#x03c0;" xlink:href="#font_1_1" transform="matrix(9.963098,0,0,-9.962799,275.10484,90.10854)"/>
<use data-text="&#x2212;" xlink:href="#font_3_1" transform="matrix(9.963098,0,0,-9.962799,283.35527,90.10854)"/>
<use data-text="t" xlink:href="#font_1_2" transform="matrix(9.963098,0,0,-9.962799,293.31877,90.10854)"/>
<path transform="matrix(1.00005,0,0,-1.00002,17.038949,74.229228)" d="M282.63346 7.55902C282.63346 8.24796 282.1309 8.80646 281.51097 8.80646 280.89106 8.80646 280.3885 8.24796 280.3885 7.55902 280.3885 6.87009 280.89106 6.3116 281.51097 6.3116 282.1309 6.3116 282.63346 6.87009 282.63346 7.55902ZM281.51097 7.55902" fill="#0000ff"/>
<path transform="matrix(1.00005,0,0,-1.00002,17.038949,74.229228)" stroke-width=".3985" stroke-linecap="butt" stroke-miterlimit="10" stroke-linejoin="miter" fill="none" stroke="#0000ff" d="M282.63346 7.55902C282.63346 8.24796 282.1309 8.80646 281.51097 8.80646 280.89106 8.80646 280.3885 8.24796 280.3885 7.55902 280.3885 6.87009 280.89106 6.3116 281.51097 6.3116 282.1309 6.3116 282.63346 6.87009 282.63346 7.55902ZM281.51097 7.55902"/>
<path transform="matrix(1.00005,0,0,-1.00002,17.038949,74.229228)" d="M259.50093 9.75082H281.3117V16.7089H259.50093Z" fill="#ffffff"/>
<use data-text="&#x03c0;" xlink:href="#font_1_1" transform="matrix(9.963098,0,0,-9.962799,276.55293,63.648015)"/>
<use data-text="+" xlink:href="#font_2_1" transform="matrix(9.963098,0,0,-9.962799,284.80335,63.648015)"/>
<use data-text="t" xlink:href="#font_1_2" transform="matrix(9.963098,0,0,-9.962799,294.76686,63.648015)"/>
<path transform="matrix(1.00005,0,0,-1.00002,17.038949,74.229228)" d="M299.05049-7.55902C299.05049-6.87009 298.54798-6.3116 297.928-6.3116 297.30809-6.3116 296.80555-6.87009 296.80555-7.55902 296.80555-8.24796 297.30809-8.80646 297.928-8.80646 298.54798-8.80646 299.05049-8.24796 299.05049-7.55902ZM297.928-7.55902" fill="#0000ff"/>
<path transform="matrix(1.00005,0,0,-1.00002,17.038949,74.229228)" stroke-width=".3985" stroke-linecap="butt" stroke-miterlimit="10" stroke-linejoin="miter" fill="none" stroke="#0000ff" d="M299.05049-7.55902C299.05049-6.87009 298.54798-6.3116 297.928-6.3116 297.30809-6.3116 296.80555-6.87009 296.80555-7.55902 296.80555-8.24796 297.30809-8.80646 297.928-8.80646 298.54798-8.80646 299.05049-8.24796 299.05049-7.55902ZM297.928-7.55902"/>
<path transform="matrix(1.00005,0,0,-1.00002,17.038949,74.229228)" d="M298.12727-17.00151H324.91944V-9.750841H298.12727Z" fill="#ffffff"/>
<use data-text="2" xlink:href="#font_2_4" transform="matrix(9.963098,0,0,-9.962799,315.18086,90.40055)"/>
<use data-text="&#x03c0;" xlink:href="#font_1_1" transform="matrix(9.963098,0,0,-9.962799,320.16313,90.40055)"/>
<use data-text="&#x2212;" xlink:href="#font_3_1" transform="matrix(9.963098,0,0,-9.962799,328.4135,90.40055)"/>
<use data-text="t" xlink:href="#font_1_2" transform="matrix(9.963098,0,0,-9.962799,338.376,90.40055)"/>
</svg>
