<svg xmlns="http://www.w3.org/2000/svg" xmlns:xlink="http://www.w3.org/1999/xlink" version="1.1" width="236" height="242" viewBox="0 0 236 242">
<defs>
<path id="font_1_121" d="M.45999146 .31976319C.45999146 .39982606 .45498658 .47988893 .41999818 .5539398 .37399293 .65000918 .2919922 .6660156 .25 .6660156 .18998719 .6660156 .116989139 .64001467 .07598877 .54693606 .04399109 .47789 .038986207 .39982606 .038986207 .31976319 .038986207 .24472046 .042999269 .15464783 .083999637 .07859802 .1269989-.0024719239 .19999695-.022460938 .24899292-.022460938 .30299378-.022460938 .3789978-.0014648438 .4229889 .09359741 .45498658 .16265869 .45999146 .2407074 .45999146 .31976319M.3769989 .3317871C.3769989 .25672914 .3769989 .18867493 .3659973 .12461853 .35099793 .029556275 .2939911-.00047302247 .24899292-.00047302247 .20999146-.00047302247 .15098572 .024551392 .1329956 .12062073 .12199402 .18066406 .12199402 .2727356 .12199402 .3317871 .12199402 .39582826 .12199402 .46188355 .12998963 .5159149 .14898682 .63500979 .22399903 .64401248 .24899292 .64401248 .28199769 .64401248 .34799195 .6259918 .36698915 .52693179 .3769989 .47088624 .3769989 .39482118 .3769989 .3317871Z"/>
<path id="font_1_88" d="M.19198609 .052993776C.19198609 .08198547 .16799927 .10598755 .13899231 .10598755 .10998535 .10598755 .085998538 .08198547 .085998538 .052993776 .085998538 .023986817 .10998535 0 .13899231 0 .16799927 0 .19198609 .023986817 .19198609 .052993776Z"/>
<path id="font_1_56" d="M.44898988 .20091248C.44898988 .31991578 .36698915 .41992188 .25898744 .41992188 .21099854 .41992188 .16799927 .4039154 .13198853 .36891175V.5641022C.1519928 .55778506 .18499756 .55078127 .21699524 .55078127 .33999635 .55078127 .4099884 .6418457 .4099884 .65493777 .4099884 .6609802 .40699769 .6660156 .3999939 .6660156 .3999939 .66607668 .39698792 .66607668 .3919983 .66308596 .37199403 .65408328 .32299806 .63378909 .2559967 .63378909 .21598816 .63409426 .16999817 .641098 .12298584 .6621094 .114990238 .6651001 .11099243 .6651001 .11099243 .6651001 .100997928 .66508486 .100997928 .657074 .100997928 .64108279V.3447113C.100997928 .3266449 .100997928 .31861878 .114990238 .31861878 .12199402 .31861878 .12399292 .32164 .12799073 .32765199 .13899231 .34371949 .17599488 .3979187 .25698854 .3979187 .30899049 .3979187 .33399964 .3517456 .34199525 .3336792 .35798646 .2965393 .3600006 .2574005 .3600006 .20721436 .3600006 .17218018 .3600006 .112197879 .33599855 .07032776 .31199647 .031448366 .2749939 .0055389406 .22898865 .0055389406 .1559906 .0055389406 .09899902 .05836487 .08198547 .1171875 .084991458 .11685181 .08799744 .115859989 .09899902 .115859989 .13198853 .115859989 .14898682 .14085388 .14898682 .16485596 .14898682 .18885803 .13198853 .21386719 .09899902 .21386719 .084991458 .21386719 .049987794 .2068634 .049987794 .16085816 .049987794 .07432556 .11898804-.022460938 .23098755-.022460938 .34700013-.022460938 .44898988 .07331848 .44898988 .20019531V.20091248Z"/>
<path id="font_1_82" d="M.4189911 0V.0309906H.3869934C.29699708 .0309906 .2939911 .041992189 .2939911 .07902527V.64012148C.2939911 .6640167 .2939911 .6660156 .2709961 .6660156 .20899964 .60227969 .12098694 .60227969 .08898926 .60227969V.57128909C.10899353 .57128909 .16799927 .57128909 .21998596 .5972748V.07902527C.21998596 .042999269 .21699524 .0309906 .1269989 .0309906H.09498596V0C.12998963 .0029907227 .21699524 .0029907227 .25698854 .0029907227 .29699708 .0029907227 .38398744 .0029907227 .4189911 0Z"/>
<path id="font_1_107" d="M.44898988 .17396546H.42399598C.4189911 .14398194 .4119873 .099990848 .4019928 .084991458 .394989 .07699585 .32899476 .07699585 .30699159 .07699585H.1269989L.23298645 .17996216C.3889923 .31803895 .44898988 .37210084 .44898988 .47216798 .44898988 .5860901 .35899354 .6660156 .23699951 .6660156 .12399292 .6660156 .049987794 .57411196 .049987794 .48516847 .049987794 .4291687 .099990848 .4291687 .102996829 .4291687 .11999512 .4291687 .15499878 .44117738 .15499878 .48217774 .15499878 .5081787 .13699341 .5341797 .101989749 .5341797 .09399414 .5341797 .09199524 .5341797 .08898926 .5331726 .11199951 .59806826 .1659851 .63500979 .22399903 .63500979 .31498719 .63500979 .35798646 .5541382 .35798646 .47216798 .35798646 .39196778 .30799867 .31297303 .25299073 .25097657L.06098938 .036987306C.049987794 .025985718 .049987794 .023986817 .049987794 0H.42099L.44898988 .17396546Z"/>
<path id="font_1_106" d="M.45700074 .17037964C.45700074 .252594 .3939972 .33088685 .2899933 .35191346 .37199403 .37893678 .42999269 .4490509 .42999269 .52809146 .42999269 .6100464 .34199525 .6660156 .24598694 .6660156 .14498902 .6660156 .068984989 .60606387 .068984989 .53009036 .068984989 .49710084 .09098816 .47808839 .11999512 .47808839 .15098572 .47808839 .17098999 .50009158 .17098999 .5290985 .17098999 .57910159 .12399292 .57910159 .10899353 .57910159 .13999939 .62802127 .20599365 .64100649 .24198914 .64100649 .2829895 .64100649 .33799745 .6190338 .33799745 .5290985 .33799745 .51708987 .33599855 .45906068 .30999757 .4149933 .27999879 .36691285 .24598694 .36390687 .22099304 .36291505 .21299744 .36190797 .18899536 .35990907 .18199158 .35990907 .17399597 .35890199 .16699219 .35791017 .16699219 .3479004 .16699219 .33691407 .17399597 .33691407 .19099427 .33691407H.23498535C.31698609 .33691407 .35398866 .2686615 .35398866 .17037964 .35398866 .034469606 .2849884 .0055389406 .24099732 .0055389406 .19799805 .0055389406 .12298584 .022491456 .08799744 .08137512 .12298584 .07637024 .1539917 .09837341 .1539917 .1363678 .1539917 .17237854 .1269989 .19238281 .09799194 .19238281 .07398987 .19238281 .041992189 .17837525 .041992189 .1343689 .041992189 .043441774 .1349945-.022460938 .24398804-.022460938 .3659973-.022460938 .45700074 .06838989 .45700074 .17037964Z"/>
<path id="font_1_57" d="M.47099305 .16503906V.19602967H.37098695V.6507721C.37098695 .6707611 .37098695 .6767578 .35499574 .6767578 .34599305 .6767578 .34298707 .6767578 .33499146 .6647644L.027999878 .19602967V.16503906H.2939911V.07800293C.2939911 .041992189 .2919922 .0309906 .21798706 .0309906H.19699097V0C.23799134 .0029907227 .2899933 .0029907227 .33198548 .0029907227 .37399293 .0029907227 .4269867 .0029907227 .46798707 0V.0309906H.44699098C.37298585 .0309906 .37098695 .041992189 .37098695 .07800293V.16503906H.47099305M.2999878 .19602967H.055999757L.2999878 .56881716V.19602967Z"/>
<path id="font_1_101" d="M.45700074 .2036438C.45700074 .33070375 .36799623 .4267578 .25698854 .4267578 .18899536 .4267578 .1519928 .37573243 .13198853 .327713V.35173036C.13198853 .6047821 .2559967 .64100649 .30699159 .64100649 .33099366 .64100649 .37298585 .634964 .394989 .6007538 .37998963 .6007538 .33999635 .6007538 .33999635 .5557556 .33999635 .524765 .3639984 .5097656 .38598634 .5097656 .4019928 .5097656 .43199159 .51875308 .43199159 .5577545 .43199159 .6178589 .3880005 .6660156 .30499269 .6660156 .1769867 .6660156 .041992189 .5367584 .041992189 .31570436 .041992189 .048553468 .1579895-.022460938 .25099183-.022460938 .3619995-.022460938 .45700074 .07156372 .45700074 .2036438M.36698915 .20463562C.36698915 .15661621 .36698915 .10658264 .34999085 .0705719 .31999208 .010528564 .27398683 .0055389406 .25099183 .0055389406 .18798828 .0055389406 .1579895 .06556702 .1519928 .080566409 .13398743 .127594 .13398743 .2076416 .13398743 .22564698 .13398743 .30369569 .1659851 .40374757 .2559967 .40374757 .27198792 .40374757 .31799317 .40374757 .34899903 .34172059 .36698915 .30470277 .36698915 .2536621 .36698915 .20463562Z"/>
<path id="font_1_64" d="M.27598573 .18710327V.24511719H.010986328V.18710327H.27598573Z"/>
</defs>
<path transform="matrix(1.00005,0,0,-1.00003,119.909137,122.08322)" stroke-width=".3985" stroke-linecap="butt" stroke-miterlimit="10" stroke-linejoin="miter" fill="none" stroke="#00aeef" d="M-102.05957-102.05475H102.04868M-102.05957-91.84927H102.04868M-102.05957-81.6438H102.04868M-102.05957-71.43831H102.04868M-102.05957-61.23285H102.04868M-102.05957-51.02736H102.04868M-102.05957-40.8219H102.04868M-102.05957-30.61641H102.04868M-102.05957-20.41095H102.04868M-102.05957-10.20546H102.04868M-102.05957 0H102.04868M-102.05957 10.20546H102.04868M-102.05957 20.41095H102.04868M-102.05957 30.61641H102.04868M-102.05957 40.8219H102.04868M-102.05957 51.02736H102.04868M-102.05957 61.23285H102.04868M-102.05957 71.43831H102.04868M-102.05957 81.6438H102.04868M-102.05957 91.84927H102.04868M-102.05957 102.0189H102.04868M-102.05475-102.05957V102.04868M-91.84927-102.05957V102.04868M-81.6438-102.05957V102.04868M-71.43831-102.05957V102.04868M-61.23285-102.05957V102.04868M-51.02736-102.05957V102.04868M-40.8219-102.05957V102.04868M-30.61641-102.05957V102.04868M-20.41095-102.05957V102.04868M-10.20546-102.05957V102.04868M0-102.05957V102.04868M10.20546-102.05957V102.04868M20.41095-102.05957V102.04868M30.61641-102.05957V102.04868M40.8219-102.05957V102.04868M51.02736-102.05957V102.04868M61.23285-102.05957V102.04868M71.43831-102.05957V102.04868M81.6438-102.05957V102.04868M91.84927-102.05957V102.04868M102.0189-102.05957V102.04868M102.04868 102.04868"/>
<path transform="matrix(1.00005,0,0,-1.00003,119.909137,122.08322)" stroke-width=".79701" stroke-linecap="butt" stroke-miterlimit="10" stroke-linejoin="miter" fill="none" stroke="#000000" d="M-102.04868 0H102.04868"/>
<path transform="matrix(1.00005,0,0,-1.00003,119.909137,122.08322)" stroke-width=".79701" stroke-linecap="butt" stroke-miterlimit="10" stroke-linejoin="miter" fill="none" stroke="#000000" d="M0-102.04868V102.04868"/>
<path transform="matrix(1.00005,0,0,-1.00003,119.909137,122.08322)" stroke-width=".79701" stroke-linecap="butt" stroke-miterlimit="10" stroke-linejoin="miter" fill="none" stroke="#ff0000" d="M102.04868 0C102.04868 56.36064 56.36064 102.04868 0 102.04868-56.36064 102.04868-102.04868 56.36064-102.04868 0-102.04868-56.36064-56.36064-102.04868 0-102.04868 56.36064-102.04868 102.04868-56.36064 102.04868 0ZM0 0"/>
<path transform="matrix(1.00005,0,0,-1.00003,119.909137,122.08322)" stroke-width=".79701" stroke-linecap="butt" stroke-miterlimit="10" stroke-linejoin="miter" fill="none" stroke="#000000" d="M101.53325 10.18521 104.579 10.49042"/>
<path transform="matrix(1.00005,0,0,-1.00003,119.909137,122.08322)" stroke-width=".79701" stroke-linecap="butt" stroke-miterlimit="10" stroke-linejoin="miter" fill="none" stroke="#000000" d="M100.00877 20.27078 103.00783 20.87808"/>
<path transform="matrix(1.00005,0,0,-1.00003,119.909137,122.08322)" stroke-width=".79701" stroke-linecap="butt" stroke-miterlimit="10" stroke-linejoin="miter" fill="none" stroke="#000000" d="M97.48776 30.15396 100.41211 31.05707"/>
<path transform="matrix(1.00005,0,0,-1.00003,119.909137,122.08322)" stroke-width=".79701" stroke-linecap="butt" stroke-miterlimit="10" stroke-linejoin="miter" fill="none" stroke="#000000" d="M93.99048 39.73506 96.80887 40.92625"/>
<path transform="matrix(1.00005,0,0,-1.00003,119.909137,122.08322)" stroke-width=".79701" stroke-linecap="butt" stroke-miterlimit="10" stroke-linejoin="miter" fill="none" stroke="#000000" d="M89.55258 48.91907 92.23865 50.38585"/>
<path transform="matrix(1.00005,0,0,-1.00003,119.909137,122.08322)" stroke-width=".79701" stroke-linecap="butt" stroke-miterlimit="10" stroke-linejoin="miter" fill="none" stroke="#000000" d="M84.22247 57.61412 86.7482 59.34097"/>
<path transform="matrix(1.00005,0,0,-1.00003,119.909137,122.08322)" stroke-width=".79701" stroke-linecap="butt" stroke-miterlimit="10" stroke-linejoin="miter" fill="none" stroke="#000000" d="M78.05156 65.73618 80.39197 67.7075"/>
<path transform="matrix(1.00005,0,0,-1.00003,119.909137,122.08322)" stroke-width=".79701" stroke-linecap="butt" stroke-miterlimit="10" stroke-linejoin="miter" fill="none" stroke="#000000" d="M71.09897 73.19955 73.23068 75.3951"/>
<path transform="matrix(1.00005,0,0,-1.00003,119.909137,122.08322)" stroke-width=".79701" stroke-linecap="butt" stroke-miterlimit="10" stroke-linejoin="miter" fill="none" stroke="#000000" d="M63.43626 79.92947 65.33908 82.32591"/>
<path transform="matrix(1.00005,0,0,-1.00003,119.909137,122.08322)" stroke-width=".79701" stroke-linecap="butt" stroke-miterlimit="10" stroke-linejoin="miter" fill="none" stroke="#000000" d="M55.13985 85.86217 56.79347 88.43768"/>
<path transform="matrix(1.00005,0,0,-1.00003,119.909137,122.08322)" stroke-width=".79701" stroke-linecap="butt" stroke-miterlimit="10" stroke-linejoin="miter" fill="none" stroke="#000000" d="M46.29526 90.94157 47.68265 93.66966"/>
<path transform="matrix(1.00005,0,0,-1.00003,119.909137,122.08322)" stroke-width=".79701" stroke-linecap="butt" stroke-miterlimit="10" stroke-linejoin="miter" fill="none" stroke="#000000" d="M36.9836 95.10538 38.09225 97.95802"/>
<path transform="matrix(1.00005,0,0,-1.00003,119.909137,122.08322)" stroke-width=".79701" stroke-linecap="butt" stroke-miterlimit="10" stroke-linejoin="miter" fill="none" stroke="#000000" d="M27.30597 98.3224 28.125 101.27165"/>
<path transform="matrix(1.00005,0,0,-1.00003,119.909137,122.08322)" stroke-width=".79701" stroke-linecap="butt" stroke-miterlimit="10" stroke-linejoin="miter" fill="none" stroke="#000000" d="M17.35425 100.55846 17.87439 103.57463"/>
<path transform="matrix(1.00005,0,0,-1.00003,119.909137,122.08322)" stroke-width=".79701" stroke-linecap="butt" stroke-miterlimit="10" stroke-linejoin="miter" fill="none" stroke="#000000" d="M7.22978 101.79015 7.44623 104.8437"/>
<path transform="matrix(1.00005,0,0,-1.00003,119.909137,122.08322)" stroke-width=".79701" stroke-linecap="butt" stroke-miterlimit="10" stroke-linejoin="miter" fill="none" stroke="#000000" d="M-2.96477 102.00034-3.0535 105.06015"/>
<path transform="matrix(1.00005,0,0,-1.00003,119.909137,122.08322)" stroke-width=".79701" stroke-linecap="butt" stroke-miterlimit="10" stroke-linejoin="miter" fill="none" stroke="#000000" d="M-13.13129 101.19531-13.52373 104.23021"/>
<path transform="matrix(1.00005,0,0,-1.00003,119.909137,122.08322)" stroke-width=".79701" stroke-linecap="butt" stroke-miterlimit="10" stroke-linejoin="miter" fill="none" stroke="#000000" d="M-23.16864 99.38127-23.86313 102.36166"/>
<path transform="matrix(1.00005,0,0,-1.00003,119.909137,122.08322)" stroke-width=".79701" stroke-linecap="butt" stroke-miterlimit="10" stroke-linejoin="miter" fill="none" stroke="#000000" d="M-32.97395 96.57217-33.9627 99.46844"/>
<path transform="matrix(1.00005,0,0,-1.00003,119.909137,122.08322)" stroke-width=".79701" stroke-linecap="butt" stroke-miterlimit="10" stroke-linejoin="miter" fill="none" stroke="#000000" d="M-42.44914 92.79457-43.72134 95.5772"/>
<path transform="matrix(1.00005,0,0,-1.00003,119.909137,122.08322)" stroke-width=".79701" stroke-linecap="butt" stroke-miterlimit="10" stroke-linejoin="miter" fill="none" stroke="#000000" d="M-51.50081 88.09355-53.04549 90.73601"/>
<path transform="matrix(1.00005,0,0,-1.00003,119.909137,122.08322)" stroke-width=".79701" stroke-linecap="butt" stroke-miterlimit="10" stroke-linejoin="miter" fill="none" stroke="#000000" d="M-60.03857 82.51587-61.83861 84.99019"/>
<path transform="matrix(1.00005,0,0,-1.00003,119.909137,122.08322)" stroke-width=".79701" stroke-linecap="butt" stroke-miterlimit="10" stroke-linejoin="miter" fill="none" stroke="#000000" d="M-67.97536 76.10825-70.0136 78.39104"/>
<path transform="matrix(1.00005,0,0,-1.00003,119.909137,122.08322)" stroke-width=".79701" stroke-linecap="butt" stroke-miterlimit="10" stroke-linejoin="miter" fill="none" stroke="#000000" d="M-75.23157 68.94232-77.48787 71.01018"/>
<path transform="matrix(1.00005,0,0,-1.00003,119.909137,122.08322)" stroke-width=".79701" stroke-linecap="butt" stroke-miterlimit="10" stroke-linejoin="miter" fill="none" stroke="#000000" d="M-81.73886 61.08809-84.1898 62.91933"/>
<path transform="matrix(1.00005,0,0,-1.00003,119.909137,122.08322)" stroke-width=".79701" stroke-linecap="butt" stroke-miterlimit="10" stroke-linejoin="miter" fill="none" stroke="#000000" d="M-87.43022 52.62502-90.05247 54.20242"/>
<path transform="matrix(1.00005,0,0,-1.00003,119.909137,122.08322)" stroke-width=".79701" stroke-linecap="butt" stroke-miterlimit="10" stroke-linejoin="miter" fill="none" stroke="#000000" d="M-92.2449 43.63098-95.01196 44.93901"/>
<path transform="matrix(1.00005,0,0,-1.00003,119.909137,122.08322)" stroke-width=".79701" stroke-linecap="butt" stroke-miterlimit="10" stroke-linejoin="miter" fill="none" stroke="#000000" d="M-96.13928 34.20718-99.02315 35.23335"/>
<path transform="matrix(1.00005,0,0,-1.00003,119.909137,122.08322)" stroke-width=".79701" stroke-linecap="butt" stroke-miterlimit="10" stroke-linejoin="miter" fill="none" stroke="#000000" d="M-99.07764 24.4377-102.04868 25.16957"/>
<path transform="matrix(1.00005,0,0,-1.00003,119.909137,122.08322)" stroke-width=".79701" stroke-linecap="butt" stroke-miterlimit="10" stroke-linejoin="miter" fill="none" stroke="#000000" d="M-101.02095 14.42532-104.05115 14.85661"/>
<path transform="matrix(1.00005,0,0,-1.00003,119.909137,122.08322)" stroke-width=".79701" stroke-linecap="butt" stroke-miterlimit="10" stroke-linejoin="miter" fill="none" stroke="#000000" d="M-101.95367 4.26805-105.01189 4.39578"/>
<path transform="matrix(1.00005,0,0,-1.00003,119.909137,122.08322)" stroke-width=".79701" stroke-linecap="butt" stroke-miterlimit="10" stroke-linejoin="miter" fill="none" stroke="#000000" d="M-101.87114-5.928-104.92624-6.10551"/>
<path transform="matrix(1.00005,0,0,-1.00003,119.909137,122.08322)" stroke-width=".79701" stroke-linecap="butt" stroke-miterlimit="10" stroke-linejoin="miter" fill="none" stroke="#000000" d="M-100.77336-16.06653-103.79573-16.5477"/>
<path transform="matrix(1.00005,0,0,-1.00003,119.909137,122.08322)" stroke-width=".79701" stroke-linecap="butt" stroke-miterlimit="10" stroke-linejoin="miter" fill="none" stroke="#000000" d="M-98.66342-26.04625-101.62196-26.82632"/>
<path transform="matrix(1.00005,0,0,-1.00003,119.909137,122.08322)" stroke-width=".79701" stroke-linecap="butt" stroke-miterlimit="10" stroke-linejoin="miter" fill="none" stroke="#000000" d="M-95.57094-35.76591-98.43767-36.83879"/>
<path transform="matrix(1.00005,0,0,-1.00003,119.909137,122.08322)" stroke-width=".79701" stroke-linecap="butt" stroke-miterlimit="10" stroke-linejoin="miter" fill="none" stroke="#000000" d="M-91.5224-45.12738-94.26761-46.48058"/>
<path transform="matrix(1.00005,0,0,-1.00003,119.909137,122.08322)" stroke-width=".79701" stroke-linecap="butt" stroke-miterlimit="10" stroke-linejoin="miter" fill="none" stroke="#000000" d="M-86.5629-54.03896-89.15866-55.65993"/>
<path transform="matrix(1.00005,0,0,-1.00003,119.909137,122.08322)" stroke-width=".79701" stroke-linecap="butt" stroke-miterlimit="10" stroke-linejoin="miter" fill="none" stroke="#000000" d="M-80.73451-62.40855-83.15585-64.28023"/>
<path transform="matrix(1.00005,0,0,-1.00003,119.909137,122.08322)" stroke-width=".79701" stroke-linecap="butt" stroke-miterlimit="10" stroke-linejoin="miter" fill="none" stroke="#000000" d="M-74.09955-70.15688-76.32156-72.26059"/>
<path transform="matrix(1.00005,0,0,-1.00003,119.909137,122.08322)" stroke-width=".79701" stroke-linecap="butt" stroke-miterlimit="10" stroke-linejoin="miter" fill="none" stroke="#000000" d="M-66.72806-77.20448-68.72899-79.51994"/>
<path transform="matrix(1.00005,0,0,-1.00003,119.909137,122.08322)" stroke-width=".79701" stroke-linecap="butt" stroke-miterlimit="10" stroke-linejoin="miter" fill="none" stroke="#000000" d="M-58.68698-83.47978-60.44656-85.98366"/>
<path transform="matrix(1.00005,0,0,-1.00003,119.909137,122.08322)" stroke-width=".79701" stroke-linecap="butt" stroke-miterlimit="10" stroke-linejoin="miter" fill="none" stroke="#000000" d="M-50.06198-88.92038-51.5631-91.5878"/>
<path transform="matrix(1.00005,0,0,-1.00003,119.909137,122.08322)" stroke-width=".79701" stroke-linecap="butt" stroke-miterlimit="10" stroke-linejoin="miter" fill="none" stroke="#000000" d="M-40.93402-93.47194-42.16107-96.2748"/>
<path transform="matrix(1.00005,0,0,-1.00003,119.909137,122.08322)" stroke-width=".79701" stroke-linecap="butt" stroke-miterlimit="10" stroke-linejoin="miter" fill="none" stroke="#000000" d="M-31.39815-97.09695-32.33862-100.00877"/>
<path transform="matrix(1.00005,0,0,-1.00003,119.909137,122.08322)" stroke-width=".79701" stroke-linecap="butt" stroke-miterlimit="10" stroke-linejoin="miter" fill="none" stroke="#000000" d="M-21.54921-99.74252-22.19543-102.73381"/>
<path transform="matrix(1.00005,0,0,-1.00003,119.909137,122.08322)" stroke-width=".79701" stroke-linecap="butt" stroke-miterlimit="10" stroke-linejoin="miter" fill="none" stroke="#000000" d="M-11.48384-101.39621-11.82802-104.4373"/>
<path transform="matrix(1.00005,0,0,-1.00003,119.909137,122.08322)" stroke-width=".79701" stroke-linecap="butt" stroke-miterlimit="10" stroke-linejoin="miter" fill="none" stroke="#000000" d="M-1.30638-102.0362-1.34534-105.096"/>
<path transform="matrix(1.00005,0,0,-1.00003,119.909137,122.08322)" stroke-width=".79701" stroke-linecap="butt" stroke-miterlimit="10" stroke-linejoin="miter" fill="none" stroke="#000000" d="M8.88342-101.65935 9.14972-104.70825"/>
<path transform="matrix(1.00005,0,0,-1.00003,119.909137,122.08322)" stroke-width=".79701" stroke-linecap="butt" stroke-miterlimit="10" stroke-linejoin="miter" fill="none" stroke="#000000" d="M18.9877-100.26106 19.55609-103.26788"/>
<path transform="matrix(1.00005,0,0,-1.00003,119.909137,122.08322)" stroke-width=".79701" stroke-linecap="butt" stroke-miterlimit="10" stroke-linejoin="miter" fill="none" stroke="#000000" d="M28.90044-97.86461 29.76622-100.79979"/>
<path transform="matrix(1.00005,0,0,-1.00003,119.909137,122.08322)" stroke-width=".79701" stroke-linecap="butt" stroke-miterlimit="10" stroke-linejoin="miter" fill="none" stroke="#000000" d="M38.52669-94.49182 39.68208-97.32582"/>
<path transform="matrix(1.00005,0,0,-1.00003,119.909137,122.08322)" stroke-width=".79701" stroke-linecap="butt" stroke-miterlimit="10" stroke-linejoin="miter" fill="none" stroke="#000000" d="M47.76677-90.1739 49.19931-92.87863"/>
<path transform="matrix(1.00005,0,0,-1.00003,119.909137,122.08322)" stroke-width=".79701" stroke-linecap="butt" stroke-miterlimit="10" stroke-linejoin="miter" fill="none" stroke="#000000" d="M56.53036-84.95284 58.22607-87.50032"/>
<path transform="matrix(1.00005,0,0,-1.00003,119.909137,122.08322)" stroke-width=".79701" stroke-linecap="butt" stroke-miterlimit="10" stroke-linejoin="miter" fill="none" stroke="#000000" d="M64.72713-78.88461 66.66731-81.24992"/>
<path transform="matrix(1.00005,0,0,-1.00003,119.909137,122.08322)" stroke-width=".79701" stroke-linecap="butt" stroke-miterlimit="10" stroke-linejoin="miter" fill="none" stroke="#000000" d="M72.28238-72.0332 74.4499-74.19296"/>
<path transform="matrix(1.00005,0,0,-1.00003,119.909137,122.08322)" stroke-width=".79701" stroke-linecap="butt" stroke-miterlimit="10" stroke-linejoin="miter" fill="none" stroke="#000000" d="M79.11041-64.45616 81.48349-66.38858"/>
<path transform="matrix(1.00005,0,0,-1.00003,119.909137,122.08322)" stroke-width=".79701" stroke-linecap="butt" stroke-miterlimit="10" stroke-linejoin="miter" fill="none" stroke="#000000" d="M85.14902-56.23604 87.7027-57.92245"/>
<path transform="matrix(1.00005,0,0,-1.00003,119.909137,122.08322)" stroke-width=".79701" stroke-linecap="butt" stroke-miterlimit="10" stroke-linejoin="miter" fill="none" stroke="#000000" d="M90.33739-47.45532 93.04681-48.87857"/>
<path transform="matrix(1.00005,0,0,-1.00003,119.909137,122.08322)" stroke-width=".79701" stroke-linecap="butt" stroke-miterlimit="10" stroke-linejoin="miter" fill="none" stroke="#000000" d="M94.62575-38.20128 97.46286-39.34573"/>
<path transform="matrix(1.00005,0,0,-1.00003,119.909137,122.08322)" stroke-width=".79701" stroke-linecap="butt" stroke-miterlimit="10" stroke-linejoin="miter" fill="none" stroke="#000000" d="M97.96274-28.56415 100.90105-29.42056"/>
<path transform="matrix(1.00005,0,0,-1.00003,119.909137,122.08322)" stroke-width=".79701" stroke-linecap="butt" stroke-miterlimit="10" stroke-linejoin="miter" fill="none" stroke="#000000" d="M100.32646-18.64046 103.33482-19.1995"/>
<path transform="matrix(1.00005,0,0,-1.00003,119.909137,122.08322)" stroke-width=".79701" stroke-linecap="butt" stroke-miterlimit="10" stroke-linejoin="miter" fill="none" stroke="#000000" d="M101.68582-8.53464 104.73627-8.79"/>
<path transform="matrix(1.00005,0,0,-1.00003,119.909137,122.08322)" stroke-width=".79701" stroke-linecap="butt" stroke-miterlimit="10" stroke-linejoin="miter" fill="none" stroke="#000000" d="M89.55106 48.92218 94.92319 51.85736"/>
<path transform="matrix(1.00005,0,0,-1.00003,119.909137,122.08322)" d="M96.31737 51.83594H109.64847V60.682855H96.31737Z" fill="#ffffff"/>
<use data-text="0" xlink:href="#font_1_121" transform="matrix(9.963098,0,0,-9.962899,217.228,69.030628)"/>
<use data-text="." xlink:href="#font_1_88" transform="matrix(9.963098,0,0,-9.962899,222.20954,69.030628)"/>
<use data-text="5" xlink:href="#font_1_56" transform="matrix(9.963098,0,0,-9.962899,224.9793,69.030628)"/>
<path transform="matrix(1.00005,0,0,-1.00003,119.909137,122.08322)" stroke-width=".79701" stroke-linecap="butt" stroke-miterlimit="10" stroke-linejoin="miter" fill="none" stroke="#000000" d="M7.2173 101.79015 7.65019 107.89726"/>
<path transform="matrix(1.00005,0,0,-1.00003,119.909137,122.08322)" d="M1.63397 112.63443H14.965071V121.48134H1.63397Z" fill="#ffffff"/>
<use data-text="1" xlink:href="#font_1_82" transform="matrix(9.963098,0,0,-9.962899,122.53927,8.229805)"/>
<use data-text="." xlink:href="#font_1_88" transform="matrix(9.963098,0,0,-9.962899,127.520809,8.229805)"/>
<use data-text="5" xlink:href="#font_1_56" transform="matrix(9.963098,0,0,-9.962899,130.29056,8.229805)"/>
<path transform="matrix(1.00005,0,0,-1.00003,119.909137,122.08322)" stroke-width=".79701" stroke-linecap="butt" stroke-miterlimit="10" stroke-linejoin="miter" fill="none" stroke="#000000" d="M-81.75287 61.07095-86.65631 64.7349"/>
<path transform="matrix(1.00005,0,0,-1.00003,119.909137,122.08322)" d="M-100.67934 65.8066H-87.348239V74.65351H-100.67934Z" fill="#ffffff"/>
<use data-text="2" xlink:href="#font_1_107" transform="matrix(9.963098,0,0,-9.962899,20.221146,55.059206)"/>
<use data-text="." xlink:href="#font_1_88" transform="matrix(9.963098,0,0,-9.962899,25.202683,55.059206)"/>
<use data-text="5" xlink:href="#font_1_56" transform="matrix(9.963098,0,0,-9.962899,27.972443,55.059206)"/>
<path transform="matrix(1.00005,0,0,-1.00003,119.909137,122.08322)" stroke-width=".79701" stroke-linecap="butt" stroke-miterlimit="10" stroke-linejoin="miter" fill="none" stroke="#000000" d="M-95.56006-35.79547-101.29185-37.94281"/>
<path transform="matrix(1.00005,0,0,-1.00003,119.909137,122.08322)" d="M-116.55751-45.58794H-103.22641V-36.741029H-116.55751Z" fill="#ffffff"/>
<use data-text="3" xlink:href="#font_1_106" transform="matrix(9.963098,0,0,-9.962899,4.3423616,166.45755)"/>
<use data-text="." xlink:href="#font_1_88" transform="matrix(9.963098,0,0,-9.962899,9.323898,166.45755)"/>
<use data-text="5" xlink:href="#font_1_56" transform="matrix(9.963098,0,0,-9.962899,12.093658,166.45755)"/>
<path transform="matrix(1.00005,0,0,-1.00003,119.909137,122.08322)" stroke-width=".79701" stroke-linecap="butt" stroke-miterlimit="10" stroke-linejoin="miter" fill="none" stroke="#000000" d="M-21.51028-99.75342-22.79962-105.7375"/>
<path transform="matrix(1.00005,0,0,-1.00003,119.909137,122.08322)" d="M-31.40224-119.19267H-18.07114V-110.23616H-31.40224Z" fill="#ffffff"/>
<use data-text="4" xlink:href="#font_1_57" transform="matrix(9.963098,0,0,-9.962899,89.50162,240.06375)"/>
<use data-text="." xlink:href="#font_1_88" transform="matrix(9.963098,0,0,-9.962899,94.483158,240.06375)"/>
<use data-text="5" xlink:href="#font_1_56" transform="matrix(9.963098,0,0,-9.962899,97.252918,240.06375)"/>
<path transform="matrix(1.00005,0,0,-1.00003,119.909137,122.08322)" stroke-width=".79701" stroke-linecap="butt" stroke-miterlimit="10" stroke-linejoin="miter" fill="none" stroke="#000000" d="M72.31664-71.9974 76.65482-76.31693"/>
<path transform="matrix(1.00005,0,0,-1.00003,119.909137,122.08322)" d="M76.49812-87.21964H89.82922V-78.372737H76.49812Z" fill="#ffffff"/>
<use data-text="5" xlink:href="#font_1_56" transform="matrix(9.963098,0,0,-9.962899,197.40702,208.08982)"/>
<use data-text="." xlink:href="#font_1_88" transform="matrix(9.963098,0,0,-9.962899,202.38855,208.08982)"/>
<use data-text="5" xlink:href="#font_1_56" transform="matrix(9.963098,0,0,-9.962899,205.1583,208.08982)"/>
<path transform="matrix(1.00005,0,0,-1.00003,119.909137,122.08322)" stroke-width=".79701" stroke-linecap="butt" stroke-miterlimit="10" stroke-linejoin="miter" fill="none" stroke="#000000" d="M55.13513 85.86688 60.64896 94.45293"/>
<path transform="matrix(1.00005,0,0,-1.00003,119.909137,122.08322)" d="M59.57262 94.43207H67.23444V103.059818H59.57262Z" fill="#ffffff"/>
<use data-text="1" xlink:href="#font_1_82" transform="matrix(9.963098,0,0,-9.962899,180.48116,26.652352)"/>
<path transform="matrix(1.00005,0,0,-1.00003,119.909137,122.08322)" stroke-width=".79701" stroke-linecap="butt" stroke-miterlimit="10" stroke-linejoin="miter" fill="none" stroke="#000000" d="M-42.46469 92.7868-46.71103 102.06573"/>
<path transform="matrix(1.00005,0,0,-1.00003,119.909137,122.08322)" d="M-52.66432 102.38907H-45.002504V111.016819H-52.66432Z" fill="#ffffff"/>
<use data-text="2" xlink:href="#font_1_107" transform="matrix(9.963098,0,0,-9.962899,68.238559,18.695115)"/>
<path transform="matrix(1.00005,0,0,-1.00003,119.909137,122.08322)" stroke-width=".79701" stroke-linecap="butt" stroke-miterlimit="10" stroke-linejoin="miter" fill="none" stroke="#000000" d="M-101.02408 14.40036-111.12677 15.83919"/>
<path transform="matrix(1.00005,0,0,-1.00003,119.909137,122.08322)" d="M-120.00746 12.13666H-112.34564V20.98357H-120.00746Z" fill="#ffffff"/>
<use data-text="3" xlink:href="#font_1_106" transform="matrix(9.963098,0,0,-9.962899,.89219668,108.73082)"/>
<path transform="matrix(1.00005,0,0,-1.00003,119.909137,122.08322)" stroke-width=".79701" stroke-linecap="butt" stroke-miterlimit="10" stroke-linejoin="miter" fill="none" stroke="#000000" d="M-66.70157-77.22784-73.37079-84.94969"/>
<path transform="matrix(1.00005,0,0,-1.00003,119.909137,122.08322)" d="M-80.53711-93.1801H-72.87529V-84.44276H-80.53711Z" fill="#ffffff"/>
<use data-text="4" xlink:href="#font_1_57" transform="matrix(9.963098,0,0,-9.962899,40.36415,214.26999)"/>
<path transform="matrix(1.00005,0,0,-1.00003,119.909137,122.08322)" stroke-width=".79701" stroke-linecap="butt" stroke-miterlimit="10" stroke-linejoin="miter" fill="none" stroke="#000000" d="M28.94406-97.8506 31.8372-107.63567"/>
<path transform="matrix(1.00005,0,0,-1.00003,119.909137,122.08322)" d="M29.45444-116.95009H37.11626V-108.10318H29.45444Z" fill="#ffffff"/>
<use data-text="5" xlink:href="#font_1_56" transform="matrix(9.963098,0,0,-9.962899,150.36167,237.82169)"/>
<path transform="matrix(1.00005,0,0,-1.00003,119.909137,122.08322)" stroke-width=".79701" stroke-linecap="butt" stroke-miterlimit="10" stroke-linejoin="miter" fill="none" stroke="#000000" d="M97.97981-28.51117 107.77736-31.3623"/>
<path transform="matrix(1.00005,0,0,-1.00003,119.909137,122.08322)" d="M108.84518-37.21051H116.506999V-28.3636H108.84518Z" fill="#ffffff"/>
<use data-text="6" xlink:href="#font_1_101" transform="matrix(9.963098,0,0,-9.962899,229.75562,158.0793)"/>
<path transform="matrix(1.00005,0,0,-1.00003,119.909137,122.08322)" stroke-width=".79701" stroke-linecap="butt" stroke-miterlimit="10" stroke-linejoin="miter" fill="none" stroke="#000000" d="M3.06133-51.0243H-3.06133"/>
<path transform="matrix(1.00005,0,0,-1.00003,119.909137,122.08322)" d="M-21.50238-55.44777H-3.4598199V-46.60086H-21.50238Z" fill="#ffffff"/>
<use data-text="-" xlink:href="#font_1_64" transform="matrix(9.963098,0,0,-9.962899,99.40211,176.31685)"/>
<use data-text="0" xlink:href="#font_1_121" transform="matrix(9.963098,0,0,-9.962899,102.719829,176.31685)"/>
<use data-text="." xlink:href="#font_1_88" transform="matrix(9.963098,0,0,-9.962899,107.70136,176.31685)"/>
<use data-text="5" xlink:href="#font_1_56" transform="matrix(9.963098,0,0,-9.962899,110.47111,176.31685)"/>
<path transform="matrix(1.00005,0,0,-1.00003,119.909137,122.08322)" stroke-width=".79701" stroke-linecap="butt" stroke-miterlimit="10" stroke-linejoin="miter" fill="none" stroke="#000000" d="M-51.0243 3.06133V-3.06133"/>
<path transform="matrix(1.00005,0,0,-1.00003,119.909137,122.08322)" d="M-60.0456-12.30673H-42.00304V-3.4598199H-60.0456Z" fill="#ffffff"/>
<use data-text="-" xlink:href="#font_1_64" transform="matrix(9.963098,0,0,-9.962899,60.857194,133.17456)"/>
<use data-text="0" xlink:href="#font_1_121" transform="matrix(9.963098,0,0,-9.962899,64.17491,133.17456)"/>
<use data-text="." xlink:href="#font_1_88" transform="matrix(9.963098,0,0,-9.962899,69.15645,133.17456)"/>
<use data-text="5" xlink:href="#font_1_56" transform="matrix(9.963098,0,0,-9.962899,71.92619,133.17456)"/>
<path transform="matrix(1.00005,0,0,-1.00003,119.909137,122.08322)" stroke-width=".79701" stroke-linecap="butt" stroke-miterlimit="10" stroke-linejoin="miter" fill="none" stroke="#000000" d="M3.06133 51.0243H-3.06133"/>
<path transform="matrix(1.00005,0,0,-1.00003,119.909137,122.08322)" d="M-18.1848 46.60085H-3.4598389V55.44776H-18.1848Z" fill="#ffffff"/>
<use data-text="0" xlink:href="#font_1_121" transform="matrix(9.963098,0,0,-9.962899,102.71928,74.26578)"/>
<use data-text="." xlink:href="#font_1_88" transform="matrix(9.963098,0,0,-9.962899,107.70081,74.26578)"/>
<use data-text="5" xlink:href="#font_1_56" transform="matrix(9.963098,0,0,-9.962899,110.47057,74.26578)"/>
<path transform="matrix(1.00005,0,0,-1.00003,119.909137,122.08322)" stroke-width=".79701" stroke-linecap="butt" stroke-miterlimit="10" stroke-linejoin="miter" fill="none" stroke="#000000" d="M51.0243 3.06133V-3.06133"/>
<path transform="matrix(1.00005,0,0,-1.00003,119.909137,122.08322)" d="M43.66182-12.30673H58.38678V-3.4598199H43.66182Z" fill="#ffffff"/>
<use data-text="0" xlink:href="#font_1_121" transform="matrix(9.963098,0,0,-9.962899,164.56937,133.17456)"/>
<use data-text="." xlink:href="#font_1_88" transform="matrix(9.963098,0,0,-9.962899,169.5509,133.17456)"/>
<use data-text="5" xlink:href="#font_1_56" transform="matrix(9.963098,0,0,-9.962899,172.32067,133.17456)"/>
</svg>
