<svg xmlns="http://www.w3.org/2000/svg" xmlns:xlink="http://www.w3.org/1999/xlink" version="1.1" width="98" height="97" viewBox="0 0 98 97">
<defs>
<path id="font_1_82" d="M.4189911 0V.0309906H.3869934C.29699708 .0309906 .2939911 .041992189 .2939911 .07902527V.64012148C.2939911 .6640167 .2939911 .6660156 .2709961 .6660156 .20899964 .60227969 .12098694 .60227969 .08898926 .60227969V.57128909C.10899353 .57128909 .16799927 .57128909 .21998596 .5972748V.07902527C.21998596 .042999269 .21699524 .0309906 .1269989 .0309906H.09498596V0C.12998963 .0029907227 .21699524 .0029907227 .25698854 .0029907227 .29699708 .0029907227 .38398744 .0029907227 .4189911 0Z"/>
<path id="font_1_107" d="M.44898988 .17396546H.42399598C.4189911 .14398194 .4119873 .099990848 .4019928 .084991458 .394989 .07699585 .32899476 .07699585 .30699159 .07699585H.1269989L.23298645 .17996216C.3889923 .31803895 .44898988 .37210084 .44898988 .47216798 .44898988 .5860901 .35899354 .6660156 .23699951 .6660156 .12399292 .6660156 .049987794 .57411196 .049987794 .48516847 .049987794 .4291687 .099990848 .4291687 .102996829 .4291687 .11999512 .4291687 .15499878 .44117738 .15499878 .48217774 .15499878 .5081787 .13699341 .5341797 .101989749 .5341797 .09399414 .5341797 .09199524 .5341797 .08898926 .5331726 .11199951 .59806826 .1659851 .63500979 .22399903 .63500979 .31498719 .63500979 .35798646 .5541382 .35798646 .47216798 .35798646 .39196778 .30799867 .31297303 .25299073 .25097657L.06098938 .036987306C.049987794 .025985718 .049987794 .023986817 .049987794 0H.42099L.44898988 .17396546Z"/>
<path id="font_1_106" d="M.45700074 .17037964C.45700074 .252594 .3939972 .33088685 .2899933 .35191346 .37199403 .37893678 .42999269 .4490509 .42999269 .52809146 .42999269 .6100464 .34199525 .6660156 .24598694 .6660156 .14498902 .6660156 .068984989 .60606387 .068984989 .53009036 .068984989 .49710084 .09098816 .47808839 .11999512 .47808839 .15098572 .47808839 .17098999 .50009158 .17098999 .5290985 .17098999 .57910159 .12399292 .57910159 .10899353 .57910159 .13999939 .62802127 .20599365 .64100649 .24198914 .64100649 .2829895 .64100649 .33799745 .6190338 .33799745 .5290985 .33799745 .51708987 .33599855 .45906068 .30999757 .4149933 .27999879 .36691285 .24598694 .36390687 .22099304 .36291505 .21299744 .36190797 .18899536 .35990907 .18199158 .35990907 .17399597 .35890199 .16699219 .35791017 .16699219 .3479004 .16699219 .33691407 .17399597 .33691407 .19099427 .33691407H.23498535C.31698609 .33691407 .35398866 .2686615 .35398866 .17037964 .35398866 .034469606 .2849884 .0055389406 .24099732 .0055389406 .19799805 .0055389406 .12298584 .022491456 .08799744 .08137512 .12298584 .07637024 .1539917 .09837341 .1539917 .1363678 .1539917 .17237854 .1269989 .19238281 .09799194 .19238281 .07398987 .19238281 .041992189 .17837525 .041992189 .1343689 .041992189 .043441774 .1349945-.022460938 .24398804-.022460938 .3659973-.022460938 .45700074 .06838989 .45700074 .17037964Z"/>
<path id="font_1_57" d="M.47099305 .16503906V.19602967H.37098695V.6507721C.37098695 .6707611 .37098695 .6767578 .35499574 .6767578 .34599305 .6767578 .34298707 .6767578 .33499146 .6647644L.027999878 .19602967V.16503906H.2939911V.07800293C.2939911 .041992189 .2919922 .0309906 .21798706 .0309906H.19699097V0C.23799134 .0029907227 .2899933 .0029907227 .33198548 .0029907227 .37399293 .0029907227 .4269867 .0029907227 .46798707 0V.0309906H.44699098C.37298585 .0309906 .37098695 .041992189 .37098695 .07800293V.16503906H.47099305M.2999878 .19602967H.055999757L.2999878 .56881716V.19602967Z"/>
<path id="font_1_56" d="M.44898988 .20091248C.44898988 .31991578 .36698915 .41992188 .25898744 .41992188 .21099854 .41992188 .16799927 .4039154 .13198853 .36891175V.5641022C.1519928 .55778506 .18499756 .55078127 .21699524 .55078127 .33999635 .55078127 .4099884 .6418457 .4099884 .65493777 .4099884 .6609802 .40699769 .6660156 .3999939 .6660156 .3999939 .66607668 .39698792 .66607668 .3919983 .66308596 .37199403 .65408328 .32299806 .63378909 .2559967 .63378909 .21598816 .63409426 .16999817 .641098 .12298584 .6621094 .114990238 .6651001 .11099243 .6651001 .11099243 .6651001 .100997928 .66508486 .100997928 .657074 .100997928 .64108279V.3447113C.100997928 .3266449 .100997928 .31861878 .114990238 .31861878 .12199402 .31861878 .12399292 .32164 .12799073 .32765199 .13899231 .34371949 .17599488 .3979187 .25698854 .3979187 .30899049 .3979187 .33399964 .3517456 .34199525 .3336792 .35798646 .2965393 .3600006 .2574005 .3600006 .20721436 .3600006 .17218018 .3600006 .112197879 .33599855 .07032776 .31199647 .031448366 .2749939 .0055389406 .22898865 .0055389406 .1559906 .0055389406 .09899902 .05836487 .08198547 .1171875 .084991458 .11685181 .08799744 .115859989 .09899902 .115859989 .13198853 .115859989 .14898682 .14085388 .14898682 .16485596 .14898682 .18885803 .13198853 .21386719 .09899902 .21386719 .084991458 .21386719 .049987794 .2068634 .049987794 .16085816 .049987794 .07432556 .11898804-.022460938 .23098755-.022460938 .34700013-.022460938 .44898988 .07331848 .44898988 .20019531V.20091248Z"/>
<path id="font_1_101" d="M.45700074 .2036438C.45700074 .33070375 .36799623 .4267578 .25698854 .4267578 .18899536 .4267578 .1519928 .37573243 .13198853 .327713V.35173036C.13198853 .6047821 .2559967 .64100649 .30699159 .64100649 .33099366 .64100649 .37298585 .634964 .394989 .6007538 .37998963 .6007538 .33999635 .6007538 .33999635 .5557556 .33999635 .524765 .3639984 .5097656 .38598634 .5097656 .4019928 .5097656 .43199159 .51875308 .43199159 .5577545 .43199159 .6178589 .3880005 .6660156 .30499269 .6660156 .1769867 .6660156 .041992189 .5367584 .041992189 .31570436 .041992189 .048553468 .1579895-.022460938 .25099183-.022460938 .3619995-.022460938 .45700074 .07156372 .45700074 .2036438M.36698915 .20463562C.36698915 .15661621 .36698915 .10658264 .34999085 .0705719 .31999208 .010528564 .27398683 .0055389406 .25099183 .0055389406 .18798828 .0055389406 .1579895 .06556702 .1519928 .080566409 .13398743 .127594 .13398743 .2076416 .13398743 .22564698 .13398743 .30369569 .1659851 .40374757 .2559967 .40374757 .27198792 .40374757 .31799317 .40374757 .34899903 .34172059 .36698915 .30470277 .36698915 .2536621 .36698915 .20463562Z"/>
</defs>
<path transform="matrix(1.00002,0,0,-1.00003,51.63173,46.63704)" stroke-width=".79701" stroke-linecap="butt" stroke-miterlimit="10" stroke-linejoin="miter" fill="none" stroke="#c0c0c0" d="M-41.66972 0H41.66972"/>
<path transform="matrix(1.00002,0,0,-1.00003,51.63173,46.63704)" stroke-width=".79701" stroke-linecap="butt" stroke-miterlimit="10" stroke-linejoin="miter" fill="none" stroke="#c0c0c0" d="M0-41.66972V41.66972"/>
<path transform="matrix(1.00002,0,0,-1.00003,51.63173,46.63704)" stroke-width=".79701" stroke-linecap="butt" stroke-miterlimit="10" stroke-linejoin="miter" fill="none" stroke="#ff0000" d="M39.68535 0C39.68535 21.9179 21.9179 39.68535 0 39.68535-21.9179 39.68535-39.68535 21.9179-39.68535 0-39.68535-21.9179-21.9179-39.68535 0-39.68535 21.9179-39.68535 39.68535-21.9179 39.68535 0ZM0 0"/>
<path transform="matrix(1.00002,0,0,-1.00003,51.63173,46.63704)" stroke-width=".79701" stroke-linecap="butt" stroke-miterlimit="10" stroke-linejoin="miter" fill="none" stroke="#000000" d="M37.5105 3.76257 41.459 4.1589"/>
<path transform="matrix(1.00002,0,0,-1.00003,51.63173,46.63704)" stroke-width=".79701" stroke-linecap="butt" stroke-miterlimit="10" stroke-linejoin="miter" fill="none" stroke="#000000" d="M36.94734 7.48882 40.83649 8.27695"/>
<path transform="matrix(1.00002,0,0,-1.00003,51.63173,46.63704)" stroke-width=".79701" stroke-linecap="butt" stroke-miterlimit="10" stroke-linejoin="miter" fill="none" stroke="#000000" d="M36.0157 11.13998 39.80736 12.31264"/>
<path transform="matrix(1.00002,0,0,-1.00003,51.63173,46.63704)" stroke-width=".79701" stroke-linecap="butt" stroke-miterlimit="10" stroke-linejoin="miter" fill="none" stroke="#000000" d="M34.72375 14.67973 38.37917 16.22481"/>
<path transform="matrix(1.00002,0,0,-1.00003,51.63173,46.63704)" stroke-width=".79701" stroke-linecap="butt" stroke-miterlimit="10" stroke-linejoin="miter" fill="none" stroke="#000000" d="M33.08424 18.07263 36.56706 19.97496"/>
<path transform="matrix(1.00002,0,0,-1.00003,51.63173,46.63704)" stroke-width=".79701" stroke-linecap="butt" stroke-miterlimit="10" stroke-linejoin="miter" fill="none" stroke="#000000" d="M31.11497 21.28479 34.3907 23.52562"/>
<path transform="matrix(1.00002,0,0,-1.00003,51.63173,46.63704)" stroke-width=".79701" stroke-linecap="butt" stroke-miterlimit="10" stroke-linejoin="miter" fill="none" stroke="#000000" d="M28.83537 24.28558 31.87071 26.84193"/>
<path transform="matrix(1.00002,0,0,-1.00003,51.63173,46.63704)" stroke-width=".79701" stroke-linecap="butt" stroke-miterlimit="10" stroke-linejoin="miter" fill="none" stroke="#000000" d="M26.26663 27.04265 29.03188 29.88965"/>
<path transform="matrix(1.00002,0,0,-1.00003,51.63173,46.63704)" stroke-width=".79701" stroke-linecap="butt" stroke-miterlimit="10" stroke-linejoin="miter" fill="none" stroke="#000000" d="M23.4357 29.52904 25.90302 32.63763"/>
<path transform="matrix(1.00002,0,0,-1.00003,51.63173,46.63704)" stroke-width=".79701" stroke-linecap="butt" stroke-miterlimit="10" stroke-linejoin="miter" fill="none" stroke="#000000" d="M20.3707 31.72084 22.51526 35.06015"/>
<path transform="matrix(1.00002,0,0,-1.00003,51.63173,46.63704)" stroke-width=".79701" stroke-linecap="butt" stroke-miterlimit="10" stroke-linejoin="miter" fill="none" stroke="#000000" d="M17.10315 33.59743 18.90376 37.13416"/>
<path transform="matrix(1.00002,0,0,-1.00003,51.63173,46.63704)" stroke-width=".79701" stroke-linecap="butt" stroke-miterlimit="10" stroke-linejoin="miter" fill="none" stroke="#000000" d="M13.66301 35.13553 15.1015 38.83453"/>
<path transform="matrix(1.00002,0,0,-1.00003,51.63173,46.63704)" stroke-width=".79701" stroke-linecap="butt" stroke-miterlimit="10" stroke-linejoin="miter" fill="none" stroke="#000000" d="M10.08784 36.32423 11.14969 40.14798"/>
<path transform="matrix(1.00002,0,0,-1.00003,51.63173,46.63704)" stroke-width=".79701" stroke-linecap="butt" stroke-miterlimit="10" stroke-linejoin="miter" fill="none" stroke="#000000" d="M6.41124 37.1502 7.08614 41.06116"/>
<path transform="matrix(1.00002,0,0,-1.00003,51.63173,46.63704)" stroke-width=".79701" stroke-linecap="butt" stroke-miterlimit="10" stroke-linejoin="miter" fill="none" stroke="#000000" d="M2.67075 37.60529 2.95204 41.56406"/>
<path transform="matrix(1.00002,0,0,-1.00003,51.63173,46.63704)" stroke-width=".79701" stroke-linecap="butt" stroke-miterlimit="10" stroke-linejoin="miter" fill="none" stroke="#000000" d="M-1.09511 37.68309-1.21048 41.64975"/>
<path transform="matrix(1.00002,0,0,-1.00003,51.63173,46.63704)" stroke-width=".79701" stroke-linecap="butt" stroke-miterlimit="10" stroke-linejoin="miter" fill="none" stroke="#000000" d="M-4.85103 37.38545-5.36182 41.32123"/>
<path transform="matrix(1.00002,0,0,-1.00003,51.63173,46.63704)" stroke-width=".79701" stroke-linecap="butt" stroke-miterlimit="10" stroke-linejoin="miter" fill="none" stroke="#000000" d="M-8.55943 36.71541-9.46019 40.58035"/>
<path transform="matrix(1.00002,0,0,-1.00003,51.63173,46.63704)" stroke-width=".79701" stroke-linecap="butt" stroke-miterlimit="10" stroke-linejoin="miter" fill="none" stroke="#000000" d="M-12.18184 35.67752-13.4641 39.43344"/>
<path transform="matrix(1.00002,0,0,-1.00003,51.63173,46.63704)" stroke-width=".79701" stroke-linecap="butt" stroke-miterlimit="10" stroke-linejoin="miter" fill="none" stroke="#000000" d="M-15.68222 34.28201-17.33325 37.8908"/>
<path transform="matrix(1.00002,0,0,-1.00003,51.63173,46.63704)" stroke-width=".79701" stroke-linecap="butt" stroke-miterlimit="10" stroke-linejoin="miter" fill="none" stroke="#000000" d="M-19.02638 32.5453-21.02924 35.9712"/>
<path transform="matrix(1.00002,0,0,-1.00003,51.63173,46.63704)" stroke-width=".79701" stroke-linecap="butt" stroke-miterlimit="10" stroke-linejoin="miter" fill="none" stroke="#000000" d="M-22.1807 30.4846-24.51538 33.69373"/>
<path transform="matrix(1.00002,0,0,-1.00003,51.63173,46.63704)" stroke-width=".79701" stroke-linecap="butt" stroke-miterlimit="10" stroke-linejoin="miter" fill="none" stroke="#000000" d="M-25.11276 28.11751-27.7563 31.07713"/>
<path transform="matrix(1.00002,0,0,-1.00003,51.63173,46.63704)" stroke-width=".79701" stroke-linecap="butt" stroke-miterlimit="10" stroke-linejoin="miter" fill="none" stroke="#000000" d="M-27.79355 25.47005-30.71925 28.15111"/>
<path transform="matrix(1.00002,0,0,-1.00003,51.63173,46.63704)" stroke-width=".79701" stroke-linecap="butt" stroke-miterlimit="10" stroke-linejoin="miter" fill="none" stroke="#000000" d="M-30.19757 22.56824-33.37642 24.94412"/>
<path transform="matrix(1.00002,0,0,-1.00003,51.63173,46.63704)" stroke-width=".79701" stroke-linecap="butt" stroke-miterlimit="10" stroke-linejoin="miter" fill="none" stroke="#000000" d="M-32.30005 19.44179-35.70052 21.48825"/>
<path transform="matrix(1.00002,0,0,-1.00003,51.63173,46.63704)" stroke-width=".79701" stroke-linecap="butt" stroke-miterlimit="10" stroke-linejoin="miter" fill="none" stroke="#000000" d="M-34.07884 16.11882-37.66644 17.81589"/>
<path transform="matrix(1.00002,0,0,-1.00003,51.63173,46.63704)" stroke-width=".79701" stroke-linecap="butt" stroke-miterlimit="10" stroke-linejoin="miter" fill="none" stroke="#000000" d="M-35.51764 12.63751-39.2566 13.9676"/>
<path transform="matrix(1.00002,0,0,-1.00003,51.63173,46.63704)" stroke-width=".79701" stroke-linecap="butt" stroke-miterlimit="10" stroke-linejoin="miter" fill="none" stroke="#000000" d="M-36.60309 9.02812-40.45651 9.97856"/>
<path transform="matrix(1.00002,0,0,-1.00003,51.63173,46.63704)" stroke-width=".79701" stroke-linecap="butt" stroke-miterlimit="10" stroke-linejoin="miter" fill="none" stroke="#000000" d="M-37.32126 5.32912-41.24979 5.89017"/>
<path transform="matrix(1.00002,0,0,-1.00003,51.63173,46.63704)" stroke-width=".79701" stroke-linecap="butt" stroke-miterlimit="10" stroke-linejoin="miter" fill="none" stroke="#000000" d="M-37.66583 1.57652-41.63068 1.74275"/>
<path transform="matrix(1.00002,0,0,-1.00003,51.63173,46.63704)" stroke-width=".79701" stroke-linecap="butt" stroke-miterlimit="10" stroke-linejoin="miter" fill="none" stroke="#000000" d="M-37.63525-2.18994-41.59706-2.42038"/>
<path transform="matrix(1.00002,0,0,-1.00003,51.63173,46.63704)" stroke-width=".79701" stroke-linecap="butt" stroke-miterlimit="10" stroke-linejoin="miter" fill="none" stroke="#000000" d="M-37.22954-5.9356-41.14896-6.56021"/>
<path transform="matrix(1.00002,0,0,-1.00003,51.63173,46.63704)" stroke-width=".79701" stroke-linecap="butt" stroke-miterlimit="10" stroke-linejoin="miter" fill="none" stroke="#000000" d="M-36.45018-9.62248-40.28726-10.63527"/>
<path transform="matrix(1.00002,0,0,-1.00003,51.63173,46.63704)" stroke-width=".79701" stroke-linecap="butt" stroke-miterlimit="10" stroke-linejoin="miter" fill="none" stroke="#000000" d="M-35.30782-13.21309-39.02438-14.60435"/>
<path transform="matrix(1.00002,0,0,-1.00003,51.63173,46.63704)" stroke-width=".79701" stroke-linecap="butt" stroke-miterlimit="10" stroke-linejoin="miter" fill="none" stroke="#000000" d="M-33.81212-16.67169-37.37123-18.42688"/>
<path transform="matrix(1.00002,0,0,-1.00003,51.63173,46.63704)" stroke-width=".79701" stroke-linecap="butt" stroke-miterlimit="10" stroke-linejoin="miter" fill="none" stroke="#000000" d="M-31.9797-19.96407-35.34627-22.06563"/>
<path transform="matrix(1.00002,0,0,-1.00003,51.63173,46.63704)" stroke-width=".79701" stroke-linecap="butt" stroke-miterlimit="10" stroke-linejoin="miter" fill="none" stroke="#000000" d="M-29.82637-23.05602-32.96646-25.48335"/>
<path transform="matrix(1.00002,0,0,-1.00003,51.63173,46.63704)" stroke-width=".79701" stroke-linecap="butt" stroke-miterlimit="10" stroke-linejoin="miter" fill="none" stroke="#000000" d="M-27.3754-25.91876-30.25691-28.64705"/>
<path transform="matrix(1.00002,0,0,-1.00003,51.63173,46.63704)" stroke-width=".79701" stroke-linecap="butt" stroke-miterlimit="10" stroke-linejoin="miter" fill="none" stroke="#000000" d="M-24.65195-28.52231-27.24702-31.52495"/>
<path transform="matrix(1.00002,0,0,-1.00003,51.63173,46.63704)" stroke-width=".79701" stroke-linecap="butt" stroke-miterlimit="10" stroke-linejoin="miter" fill="none" stroke="#000000" d="M-21.68112-30.84067-23.96373-34.08733"/>
<path transform="matrix(1.00002,0,0,-1.00003,51.63173,46.63704)" stroke-width=".79701" stroke-linecap="butt" stroke-miterlimit="10" stroke-linejoin="miter" fill="none" stroke="#000000" d="M-18.4947-32.8508-20.44185-36.30879"/>
<path transform="matrix(1.00002,0,0,-1.00003,51.63173,46.63704)" stroke-width=".79701" stroke-linecap="butt" stroke-miterlimit="10" stroke-linejoin="miter" fill="none" stroke="#000000" d="M-15.1227-34.5321-16.71439-38.16753"/>
<path transform="matrix(1.00002,0,0,-1.00003,51.63173,46.63704)" stroke-width=".79701" stroke-linecap="butt" stroke-miterlimit="10" stroke-linejoin="miter" fill="none" stroke="#000000" d="M-11.59961-35.87158-12.8207-39.64749"/>
<path transform="matrix(1.00002,0,0,-1.00003,51.63173,46.63704)" stroke-width=".79701" stroke-linecap="butt" stroke-miterlimit="10" stroke-linejoin="miter" fill="none" stroke="#000000" d="M-7.96115-36.84894-8.79893-40.7278"/>
<path transform="matrix(1.00002,0,0,-1.00003,51.63173,46.63704)" stroke-width=".79701" stroke-linecap="butt" stroke-miterlimit="10" stroke-linejoin="miter" fill="none" stroke="#000000" d="M-4.24246-37.45963-4.68906-41.40327"/>
<path transform="matrix(1.00002,0,0,-1.00003,51.63173,46.63704)" stroke-width=".79701" stroke-linecap="butt" stroke-miterlimit="10" stroke-linejoin="miter" fill="none" stroke="#000000" d="M-.48259-37.6961-.53317-41.66458"/>
<path transform="matrix(1.00002,0,0,-1.00003,51.63173,46.63704)" stroke-width=".79701" stroke-linecap="butt" stroke-miterlimit="10" stroke-linejoin="miter" fill="none" stroke="#000000" d="M3.28177-37.55713 3.62723-41.51047"/>
<path transform="matrix(1.00002,0,0,-1.00003,51.63173,46.63704)" stroke-width=".79701" stroke-linecap="butt" stroke-miterlimit="10" stroke-linejoin="miter" fill="none" stroke="#000000" d="M7.0147-37.0403 7.75316-40.93974"/>
<path transform="matrix(1.00002,0,0,-1.00003,51.63173,46.63704)" stroke-width=".79701" stroke-linecap="butt" stroke-miterlimit="10" stroke-linejoin="miter" fill="none" stroke="#000000" d="M10.67676-36.15498 11.80095-39.96118"/>
<path transform="matrix(1.00002,0,0,-1.00003,51.63173,46.63704)" stroke-width=".79701" stroke-linecap="butt" stroke-miterlimit="10" stroke-linejoin="miter" fill="none" stroke="#000000" d="M14.23315-34.90906 15.73158-38.58385"/>
<path transform="matrix(1.00002,0,0,-1.00003,51.63173,46.63704)" stroke-width=".79701" stroke-linecap="butt" stroke-miterlimit="10" stroke-linejoin="miter" fill="none" stroke="#000000" d="M17.64694-33.31375 19.50447-36.82079"/>
<path transform="matrix(1.00002,0,0,-1.00003,51.63173,46.63704)" stroke-width=".79701" stroke-linecap="butt" stroke-miterlimit="10" stroke-linejoin="miter" fill="none" stroke="#000000" d="M20.8845-31.38477 23.08296-34.68895"/>
<path transform="matrix(1.00002,0,0,-1.00003,51.63173,46.63704)" stroke-width=".79701" stroke-linecap="butt" stroke-miterlimit="10" stroke-linejoin="miter" fill="none" stroke="#000000" d="M23.91257-29.143 26.43013-32.21103"/>
<path transform="matrix(1.00002,0,0,-1.00003,51.63173,46.63704)" stroke-width=".79701" stroke-linecap="butt" stroke-miterlimit="10" stroke-linejoin="miter" fill="none" stroke="#000000" d="M26.70384-26.6118 29.51512-29.41339"/>
<path transform="matrix(1.00002,0,0,-1.00003,51.63173,46.63704)" stroke-width=".79701" stroke-linecap="butt" stroke-miterlimit="10" stroke-linejoin="miter" fill="none" stroke="#000000" d="M29.22658-23.81264 32.30307-26.31934"/>
<path transform="matrix(1.00002,0,0,-1.00003,51.63173,46.63704)" stroke-width=".79701" stroke-linecap="butt" stroke-miterlimit="10" stroke-linejoin="miter" fill="none" stroke="#000000" d="M31.45741-20.77582 34.76888-22.96277"/>
<path transform="matrix(1.00002,0,0,-1.00003,51.63173,46.63704)" stroke-width=".79701" stroke-linecap="butt" stroke-miterlimit="10" stroke-linejoin="miter" fill="none" stroke="#000000" d="M33.3743-17.53188 36.88739-19.3773"/>
<path transform="matrix(1.00002,0,0,-1.00003,51.63173,46.63704)" stroke-width=".79701" stroke-linecap="butt" stroke-miterlimit="10" stroke-linejoin="miter" fill="none" stroke="#000000" d="M34.95842-14.11295 38.63864-15.59865"/>
<path transform="matrix(1.00002,0,0,-1.00003,51.63173,46.63704)" stroke-width=".79701" stroke-linecap="butt" stroke-miterlimit="10" stroke-linejoin="miter" fill="none" stroke="#000000" d="M36.19131-10.55261 40.00114-11.66348"/>
<path transform="matrix(1.00002,0,0,-1.00003,51.63173,46.63704)" stroke-width=".79701" stroke-linecap="butt" stroke-miterlimit="10" stroke-linejoin="miter" fill="none" stroke="#000000" d="M37.06453-6.8863 40.96637-7.61143"/>
<path transform="matrix(1.00002,0,0,-1.00003,51.63173,46.63704)" stroke-width=".79701" stroke-linecap="butt" stroke-miterlimit="10" stroke-linejoin="miter" fill="none" stroke="#000000" d="M37.56683-3.15277 41.52136-3.48492"/>
<path transform="matrix(1.00002,0,0,-1.00003,51.63173,46.63704)" stroke-width=".79701" stroke-linecap="butt" stroke-miterlimit="10" stroke-linejoin="miter" fill="none" stroke="#000000" d="M19.29706 30.05315 22.51344 35.06195"/>
<use data-text="1" xlink:href="#font_1_82" transform="matrix(9.962799,0,0,-9.962899,72.57415,10.71796)"/>
<path transform="matrix(1.00002,0,0,-1.00003,51.63173,46.63704)" stroke-width=".79701" stroke-linecap="butt" stroke-miterlimit="10" stroke-linejoin="miter" fill="none" stroke="#000000" d="M-14.86232 32.47505-17.33963 37.88776"/>
<use data-text="2" xlink:href="#font_1_107" transform="matrix(9.962799,0,0,-9.962899,27.975258,7.554863)"/>
<path transform="matrix(1.00002,0,0,-1.00003,51.63173,46.63704)" stroke-width=".79701" stroke-linecap="butt" stroke-miterlimit="10" stroke-linejoin="miter" fill="none" stroke="#000000" d="M-35.35808 5.03998-41.2513 5.87987"/>
<use data-text="3" xlink:href="#font_1_106" transform="matrix(9.962799,0,0,-9.962899,1.2167206,43.26494)"/>
<path transform="matrix(1.00002,0,0,-1.00003,51.63173,46.63704)" stroke-width=".79701" stroke-linecap="butt" stroke-miterlimit="10" stroke-linejoin="miter" fill="none" stroke="#000000" d="M-23.34517-27.02934-27.23613-31.53432"/>
<use data-text="4" xlink:href="#font_1_57" transform="matrix(9.962799,0,0,-9.962899,16.90004,85.299198)"/>
<path transform="matrix(1.00002,0,0,-1.00003,51.63173,46.63704)" stroke-width=".79701" stroke-linecap="butt" stroke-miterlimit="10" stroke-linejoin="miter" fill="none" stroke="#000000" d="M10.13022-34.2475 11.81851-39.95541"/>
<use data-text="5" xlink:href="#font_1_56" transform="matrix(9.962799,0,0,-9.962899,60.604906,94.55847)"/>
<path transform="matrix(1.00002,0,0,-1.00003,51.63173,46.63704)" stroke-width=".79701" stroke-linecap="butt" stroke-miterlimit="10" stroke-linejoin="miter" fill="none" stroke="#000000" d="M34.29262-9.97885 40.0081-11.64198"/>
<use data-text="6" xlink:href="#font_1_101" transform="matrix(9.962799,0,0,-9.962899,92.15154,62.873529)"/>
</svg>
