<svg xmlns="http://www.w3.org/2000/svg" xmlns:xlink="http://www.w3.org/1999/xlink" version="1.1" width="97" height="98" viewBox="0 0 97 98">
<defs>
<path id="font_1_2" d="M.30299378 .3157959H.47299195C.61499026 .3157959 .7539978 .41973878 .7539978 .53167727 .7539978 .6086273 .6879883 .6826172 .5569916 .6826172H.23298645C.21398926 .6826172 .20298767 .6826172 .20298767 .66360476 .20298767 .6516113 .21199036 .6516113 .23199463 .6516113 .24499512 .6516113 .2630005 .65060427 .2749939 .6496124 .29100038 .6476135 .29699708 .64460757 .29699708 .6336212 .29699708 .6296234 .29599 .62661746 .29299928 .614624L.15899658 .07795715C.14898682 .038986207 .14698792 .0309906 .067993167 .0309906 .050994874 .0309906 .039993287 .0309906 .039993287 .011993408 .039993287 0 .051986696 0 .054992677 0 .08299255 0 .1539917 .0029907227 .18199158 .0029907227 .20298767 .0029907227 .22499085 .0019989014 .24598694 .0019989014 .2679901 .0019989014 .2899933 0 .31098939 0 .31799317 0 .33099366 0 .33099366 .019989014 .33099366 .0309906 .32199098 .0309906 .30299378 .0309906 .2659912 .0309906 .23799134 .0309906 .23799134 .048980714 .23799134 .054977418 .23999024 .05996704 .24099732 .065963748L.30299378 .3157959M.375 .6136322C.38398744 .64860537 .38598634 .6516113 .42900086 .6516113H.5249939C.60798647 .6516113 .6609955 .62461856 .6609955 .55566409 .6609955 .5166931 .6409912 .43074037 .60198977 .39476014 .5519867 .34977723 .49198915 .34179688 .44799806 .34179688H.30699159L.375 .6136322Z"/>
<path id="font_1_3" d="M.43798829 .0055236818C.59298709 .0644989 .73999026 .24256897 .73999026 .43579103 .73999026 .5969696 .6339874 .7050781 .4850006 .7050781 .2689972 .7050781 .04899597 .47784425 .04899597 .24456787 .04899597 .07847595 .16099549-.022460938 .30499269-.022460938 .32998658-.022460938 .3639984-.018463135 .40299989-.007461548 .39898683-.06939697 .39898683-.071380618 .39898683-.084365848 .39898683-.11634827 .39898683-.19433594 .48199464-.19433594 .6009979-.19433594 .6489868-.011474609 .6489868-.00047302247 .6489868 .0065307619 .6419983 .009521484 .6380005 .009521484 .6299896 .009521484 .6279907 .0045318605 .6259918-.0014648438 .60198977-.072387699 .5439911-.097335819 .5089874-.097335819 .46299745-.097335819 .44799806-.070388797 .43798829 .0055236818M.24899292 .013519287C.17098999 .044509889 .13699341 .12245178 .13699341 .21252442 .13699341 .2816162 .16299439 .4237671 .23899842 .5319061 .31199647 .63401797 .4059906 .68006899 .47898866 .68006899 .57899478 .68006899 .6519928 .6019745 .6519928 .4678192 .6519928 .3677063 .6009979 .13345337 .43299867 .039505006 .42799378 .07447815 .41799928 .14746094 .34498597 .14746094 .2919922 .14746094 .24299622 .097473148 .24299622 .04550171 .24299622 .025512696 .24899292 .014526367 .24899292 .013519287M.31098939 .002532959C.29699708 .002532959 .2649994 .002532959 .2649994 .04550171 .2649994 .08547974 .30299378 .12545777 .34498597 .12545777 .3869934 .12545777 .4059906 .10147095 .4059906 .040512086 .4059906 .025512696 .40499879 .024520874 .394989 .020523072 .36898805 .009521484 .33898927 .002532959 .31098939 .002532959Z"/>
<path id="font_1_4" d="M.375 .6136017C.3809967 .63760378 .38398744 .6476135 .40299989 .65060427 .4119873 .6516113 .44400025 .6516113 .46398927 .6516113 .5349884 .6516113 .6459961 .6516113 .6459961 .5525818 .6459961 .51856997 .6299896 .44955445 .59098818 .41055299 .5649872 .38453675 .5119934 .35253907 .42199708 .35253907H.30999757L.375 .6136017M.5189972 .33953858C.6199951 .3615265 .7389984 .43154908 .7389984 .5325775 .7389984 .61860659 .6489868 .6826172 .5179901 .6826172H.23298645C.21299744 .6826172 .20399475 .6826172 .20399475 .6626129 .20399475 .6516113 .21299744 .6516113 .23199463 .6516113 .23399353 .6516113 .25299073 .6516113 .269989 .6496124 .28799439 .6476135 .29699708 .64660647 .29699708 .63360598 .29699708 .62960818 .29599 .6266022 .29299928 .6145935L.15899658 .07752991C.14898682 .038528444 .14698792 .030532837 .067993167 .030532837 .049987794 .030532837 .040985109 .030532837 .040985109 .010528564 .040985109-.00047302247 .052993776-.00047302247 .054992677-.00047302247 .08299255-.00047302247 .15299988 .002532959 .18099976 .002532959 .20899964 .002532959 .27999879-.00047302247 .30799867-.00047302247 .31599427-.00047302247 .32798768-.00047302247 .32798768 .01953125 .32798768 .030532837 .31900025 .030532837 .2999878 .030532837 .2630005 .030532837 .23498535 .030532837 .23498535 .048538209 .23498535 .054534913 .23699951 .059524537 .23799134 .0655365L.3039856 .3305359H.4229889C.5139923 .3305359 .5319977 .27453614 .5319977 .23953247 .5319977 .22453308 .5239868 .19352722 .5179901 .17053223 .5109863 .14253235 .5019989 .105529788 .5019989 .08552551 .5019989-.022460938 .621994-.022460938 .6349945-.022460938 .7200012-.022460938 .7549896 .07853699 .7549896 .0925293 .7549896 .104537967 .74398806 .104537967 .7429962 .104537967 .73399356 .104537967 .7319946 .09753418 .7299957 .090530399 .7049866 .016525269 .6619873-.00047302247 .6389923-.00047302247 .60598757-.00047302247 .598999 .021530152 .598999 .060531618 .598999 .091537479 .6049957 .14253235 .60899356 .17453003 .61099246 .1885376 .61299136 .20753479 .61299136 .2215271 .61299136 .2985382 .54599 .3295288 .5189972 .33953858Z"/>
<path id="font_1_5" d="M.644989 .69506838C.644989 .69807437 .6429901 .7050781 .6339874 .7050781 .6289978 .7050781 .6279907 .70407107 .6159973 .6900635L.56799319 .6330414C.5419922 .68006899 .48999024 .7050781 .4249878 .7050781 .2979889 .7050781 .17799378 .58999636 .17799378 .4689026 .17799378 .38783265 .23098755 .34179688 .28199769 .32678224L.3889923 .2987671C.42599488 .2897644 .48098756 .27474977 .48098756 .19267273 .48098756 .1026001 .39898683 .008529663 .30099488 .008529663 .23699951 .008529663 .12599182 .030548096 .12599182 .15464783 .12599182 .17866516 .1309967 .2026825 .13198853 .20869446 .1329956 .21269226 .13398743 .21369934 .13398743 .21569824 .13398743 .22570801 .1269989 .22669983 .12199402 .22669983 .116989139 .22669983 .114990238 .22570801 .11199951 .22270203 .10798645 .21870423 .051986696-.009475708 .051986696-.012466431 .051986696-.018463135 .056991579-.022460938 .06298828-.022460938 .067993167-.022460938 .068984989-.021469117 .08099365-.007461548L.12998963 .049560548C.17298889-.008468628 .24099732-.022460938 .29899598-.022460938 .43499757-.022460938 .5529938 .11061096 .5529938 .2347107 .5529938 .30377198 .5189972 .33779908 .5039978 .35180665 .48098756 .37483216 .46598817 .37882997 .3769989 .40185548 .35499574 .40785218 .31900025 .41786195 .30999757 .41986085 .2829895 .42886354 .24899292 .457901 .24899292 .51094058 .24899292 .59199526 .32899476 .677063 .42399598 .677063 .5069885 .677063 .56799319 .6340332 .56799319 .52194216 .56799319 .48991395 .56399539 .47190858 .56399539 .4658966 .56399539 .4649048 .56399539 .45588685 .57598879 .45588685 .58599856 .45588685 .58699038 .45889283 .59098818 .47590638L.644989 .69506838Z"/>
<path id="font_1_1" d="M.47698976 .23631287C.47698976 .39337159 .38398744 .4423828 .30999757 .4423828 .17298889 .4423828 .040985109 .29933167 .040985109 .15829468 .040985109 .06526184 .100997928-.0107421879 .20298767-.0107421879 .2659912-.0107421879 .33799745 .012252808 .4139862 .073272708 .4269867 .020248414 .45999146-.0107421879 .5049896-.0107421879 .55799868-.0107421879 .58898928 .044265748 .58898928 .060272218 .58898928 .06726074 .58299258 .07026672 .57699587 .07026672 .56999209 .07026672 .5669861 .06726074 .56399539 .060272218 .54599 .011245728 .5099945 .011245728 .5079956 .011245728 .47698976 .011245728 .47698976 .089279178 .47698976 .11328125 .47698976 .1342926 .47698976 .1362915 .4869995 .14828491 .58099368 .2663269 .60198977 .38235475 .60198977 .38336183 .60198977 .38536073 .6009979 .39337159 .58999636 .39337159 .5799866 .39337159 .5799866 .3903656 .57499697 .37236024 .5569916 .30934144 .5239868 .23332215 .47698976 .17430115V.23631287M.4099884 .09927368C.32199098 .022247315 .24499512 .011245728 .20498657 .011245728 .14498902 .011245728 .114990238 .056259157 .114990238 .120285037 .114990238 .16929627 .14099121 .2773285 .17298889 .32833863 .21998596 .4013672 .27398683 .42037965 .30899049 .42037965 .4079895 .42037965 .4079895 .28933717 .4079895 .21130371 .4079895 .17430115 .4079895 .11628723 .4099884 .09927368Z"/>
</defs>
<path transform="matrix(1.00005,0,0,-1.00003,48.387666,49.778078)" stroke-width=".79701" stroke-linecap="butt" stroke-miterlimit="10" stroke-linejoin="miter" fill="none" stroke="#000000" d="M42.5202 0C42.5202 23.48355 23.48355 42.5202 0 42.5202-23.48355 42.5202-42.5202 23.48355-42.5202 0-42.5202-23.48355-23.48355-42.5202 0-42.5202 23.48355-42.5202 42.5202-23.48355 42.5202 0ZM0 0"/>
<path transform="matrix(1.00005,0,0,-1.00003,48.387666,49.778078)" stroke-width=".79701" stroke-linecap="butt" stroke-miterlimit="10" stroke-linejoin="miter" fill="none" stroke="#929292" d="M-46.77248 0H46.77248"/>
<path transform="matrix(1.00005,0,0,-1.00003,48.387666,49.778078)" stroke-width=".79701" stroke-linecap="butt" stroke-miterlimit="10" stroke-linejoin="miter" fill="none" stroke="#929292" d="M0-46.77248V46.77248"/>
<path transform="matrix(1.00005,0,0,-1.00003,48.387666,49.778078)" d="M20.09827 38.5412C20.09827 39.71544 19.14638 40.66733 17.97215 40.66733 16.79791 40.66733 15.84604 39.71544 15.84604 38.5412 15.84604 37.36697 16.79791 36.41508 17.97215 36.41508 19.14638 36.41508 20.09827 37.36697 20.09827 38.5412ZM17.97215 38.5412"/>
<path transform="matrix(1.00005,0,0,-1.00003,48.387666,49.778078)" stroke-width=".3985" stroke-linecap="butt" stroke-miterlimit="10" stroke-linejoin="miter" fill="none" stroke="#000000" d="M20.09827 38.5412C20.09827 39.71544 19.14638 40.66733 17.97215 40.66733 16.79791 40.66733 15.84604 39.71544 15.84604 38.5412 15.84604 37.36697 16.79791 36.41508 17.97215 36.41508 19.14638 36.41508 20.09827 37.36697 20.09827 38.5412ZM17.97215 38.5412"/>
<use data-text="P" xlink:href="#font_1_2" transform="matrix(8.966787,0,0,-8.966609,68.33316,9.262856)"/>
<path transform="matrix(1.00005,0,0,-1.00003,48.387666,49.778078)" d="M-15.84604 38.5412C-15.84604 39.71544-16.79791 40.66733-17.97215 40.66733-19.14638 40.66733-20.09827 39.71544-20.09827 38.5412-20.09827 37.36697-19.14638 36.41508-17.97215 36.41508-16.79791 36.41508-15.84604 37.36697-15.84604 38.5412ZM-17.97215 38.5412"/>
<path transform="matrix(1.00005,0,0,-1.00003,48.387666,49.778078)" stroke-width=".3985" stroke-linecap="butt" stroke-miterlimit="10" stroke-linejoin="miter" fill="none" stroke="#000000" d="M-15.84604 38.5412C-15.84604 39.71544-16.79791 40.66733-17.97215 40.66733-19.14638 40.66733-20.09827 39.71544-20.09827 38.5412-20.09827 37.36697-19.14638 36.41508-17.97215 36.41508-16.79791 36.41508-15.84604 37.36697-15.84604 38.5412ZM-17.97215 38.5412"/>
<use data-text="Q" xlink:href="#font_1_3" transform="matrix(8.966787,0,0,-8.966609,21.352807,7.519802)"/>
<path transform="matrix(1.00005,0,0,-1.00003,48.387666,49.778078)" d="M-15.84604-38.5412C-15.84604-37.36697-16.79791-36.41508-17.97215-36.41508-19.14638-36.41508-20.09827-37.36697-20.09827-38.5412-20.09827-39.71544-19.14638-40.66733-17.97215-40.66733-16.79791-40.66733-15.84604-39.71544-15.84604-38.5412ZM-17.97215-38.5412"/>
<path transform="matrix(1.00005,0,0,-1.00003,48.387666,49.778078)" stroke-width=".3985" stroke-linecap="butt" stroke-miterlimit="10" stroke-linejoin="miter" fill="none" stroke="#000000" d="M-15.84604-38.5412C-15.84604-37.36697-16.79791-36.41508-17.97215-36.41508-19.14638-36.41508-20.09827-37.36697-20.09827-38.5412-20.09827-39.71544-19.14638-40.66733-17.97215-40.66733-16.79791-40.66733-15.84604-39.71544-15.84604-38.5412ZM-17.97215-38.5412"/>
<use data-text="R" xlink:href="#font_1_4" transform="matrix(8.966787,0,0,-8.966609,21.56382,96.42048)"/>
<path transform="matrix(1.00005,0,0,-1.00003,48.387666,49.778078)" d="M20.09827-38.5412C20.09827-37.36697 19.14638-36.41508 17.97215-36.41508 16.79791-36.41508 15.84604-37.36697 15.84604-38.5412 15.84604-39.71544 16.79791-40.66733 17.97215-40.66733 19.14638-40.66733 20.09827-39.71544 20.09827-38.5412ZM17.97215-38.5412"/>
<path transform="matrix(1.00005,0,0,-1.00003,48.387666,49.778078)" stroke-width=".3985" stroke-linecap="butt" stroke-miterlimit="10" stroke-linejoin="miter" fill="none" stroke="#000000" d="M20.09827-38.5412C20.09827-37.36697 19.14638-36.41508 17.97215-36.41508 16.79791-36.41508 15.84604-37.36697 15.84604-38.5412 15.84604-39.71544 16.79791-40.66733 17.97215-40.66733 19.14638-40.66733 20.09827-39.71544 20.09827-38.5412ZM17.97215-38.5412"/>
<use data-text="S" xlink:href="#font_1_5" transform="matrix(8.966787,0,0,-8.966609,68.33316,96.42048)"/>
<path transform="matrix(1.00005,0,0,-1.00003,48.387666,49.778078)" stroke-width=".79701" stroke-linecap="butt" stroke-dasharray="2.98883,2.98883" stroke-miterlimit="10" stroke-linejoin="miter" fill="none" stroke="#0000ff" d="M17.97215 38.5412-17.97215-38.5412"/>
<path transform="matrix(1.00005,0,0,-1.00003,48.387666,49.778078)" stroke-width=".79701" stroke-linecap="butt" stroke-dasharray="2.98883,2.98883" stroke-miterlimit="10" stroke-linejoin="miter" fill="none" stroke="#0000ff" d="M-17.97215 38.5412 17.97215-38.5412"/>
<path transform="matrix(1.00005,0,0,-1.00003,48.387666,49.778078)" stroke-width=".3985" stroke-linecap="butt" stroke-miterlimit="10" stroke-linejoin="miter" fill="none" stroke="#ff0000" d="M10.63002 0C10.63002 4.1306 8.23607 7.8885 5.39539 9.21307"/>
<path transform="matrix(-.90634527,-.4226127,-.4226211,.90632727,53.783327,40.56474)" d="M.797 0C-.19925 .19925-1.19551 .59775-2.39102 1.29512-1.19551 .3985-1.19551-.3985-2.39102-1.29512-1.19551-.59775-.19925-.19925 .797 0Z" fill="#ff0000"/>
<path transform="matrix(-.90634527,-.4226127,-.4226211,.90632727,53.783327,40.56474)" stroke-width=".3985" stroke-linecap="butt" stroke-linejoin="round" fill="none" stroke="#ff0000" d="M.797 0C-.19925 .19925-1.19551 .59775-2.39102 1.29512-1.19551 .3985-1.19551-.3985-2.39102-1.29512-1.19551-.59775-.19925-.19925 .797 0Z"/>
<use data-text="&#x03b1;" xlink:href="#font_1_1" transform="matrix(9.963098,0,0,-9.962899,60.87329,46.211969)" fill="#ff0000"/>
<path transform="matrix(1.00005,0,0,-1.00003,48.387666,49.778078)" stroke-width=".3985" stroke-linecap="butt" stroke-miterlimit="10" stroke-linejoin="miter" fill="none" stroke="#ff0000" d="M-10.63002 0C-10.63002 4.1306-8.23607 7.8885-5.39539 9.21307"/>
<path transform="matrix(.90634527,-.4226127,-.4226211,-.90632727,42.992006,40.56474)" d="M.797 0C-.19925 .19925-1.19551 .59775-2.39102 1.29512-1.19551 .3985-1.19551-.3985-2.39102-1.29512-1.19551-.59775-.19925-.19925 .797 0Z" fill="#ff0000"/>
<path transform="matrix(.90634527,-.4226127,-.4226211,-.90632727,42.992006,40.56474)" stroke-width=".3985" stroke-linecap="butt" stroke-linejoin="round" fill="none" stroke="#ff0000" d="M.797 0C-.19925 .19925-1.19551 .59775-2.39102 1.29512-1.19551 .3985-1.19551-.3985-2.39102-1.29512-1.19551-.59775-.19925-.19925 .797 0Z"/>
<use data-text="&#x03b1;" xlink:href="#font_1_1" transform="matrix(9.963098,0,0,-9.962899,29.491723,46.211969)" fill="#ff0000"/>
</svg>
