<svg xmlns="http://www.w3.org/2000/svg" xmlns:xlink="http://www.w3.org/1999/xlink" version="1.1" width="160" height="86" viewBox="0 0 160 86">
<defs>
<path id="font_1_2" d="M.33399964 .30233766C.33999635 .32835389 .36299134 .42037965 .43299867 .42037965 .43798829 .42037965 .46199037 .42037965 .48298646 .40734864 .45498658 .402359 .43499757 .37734986 .43499757 .35334779 .43499757 .33735658 .44599916 .31835938 .47299195 .31835938 .49499513 .31835938 .5269928 .3363495 .5269928 .37635804 .5269928 .42837525 .46798707 .4423828 .43399049 .4423828 .37599183 .4423828 .34098817 .38935853 .32899476 .36634828 .3039856 .43237306 .25 .4423828 .22099304 .4423828 .116989139 .4423828 .05999756 .3133545 .05999756 .28834535 .05999756 .27833558 .069992069 .27833558 .07199097 .27833558 .07998657 .27833558 .08299255 .28033448 .084991458 .28933717 .11898804 .39535523 .18499756 .42037965 .21899414 .42037965 .23799134 .42037965 .272995 .4113617 .272995 .35334779 .272995 .32235719 .2559967 .25532533 .21899414 .11528015 .20298767 .053268434 .16799927 .011245728 .12399292 .011245728 .117996219 .011245728 .09498596 .011245728 .07398987 .024276734 .09899902 .029266358 .12098694 .05027771 .12098694 .07827759 .12098694 .105270389 .09899902 .11328125 .083999637 .11328125 .053985597 .11328125 .0289917 .08728027 .0289917 .055267335 .0289917 .009246826 .07899475-.0107421879 .12298584-.0107421879 .18899536-.0107421879 .22499085 .059280397 .22799683 .0652771 .23999024 .028274537 .27598573-.0107421879 .33599855-.0107421879 .43899537-.0107421879 .49598695 .118270877 .49598695 .14328003 .49598695 .1532898 .4869995 .1532898 .48399354 .1532898 .47499085 .1532898 .47299195 .14929199 .47099305 .14228821 .43798829 .03527832 .36999513 .011245728 .33799745 .011245728 .29899598 .011245728 .2829895 .043273927 .2829895 .07727051 .2829895 .09927368 .2889862 .121276859 .2999878 .16529846L.33399964 .30233766Z"/>
<path id="font_1_3" d="M.48599244 .38136292C.48999024 .39537049 .48999024 .39736939 .48999024 .40437318 .48999024 .42237855 .47599793 .43138124 .46099855 .43138124 .45098878 .43138124 .43499757 .42536927 .42599488 .41036988 .42399598 .405365 .41600038 .37435914 .4119873 .35635377 .40499879 .33035279 .397995 .30334474 .3919983 .27633668L.34700013 .09628296C.34298707 .08126831 .2999878 .011245728 .23399353 .011245728 .18299866 .011245728 .17199707 .055267335 .17199707 .0922699 .17199707 .1382904 .18899536 .20030213 .22299195 .28833009 .23899842 .3293457 .24299622 .3403473 .24299622 .36035157 .24299622 .405365 .21099854 .4423828 .16099549 .4423828 .06599426 .4423828 .0289917 .29733277 .0289917 .28833009 .0289917 .27833558 .038986207 .27833558 .040985109 .27833558 .050994874 .27833558 .051986696 .28033448 .056991579 .29634095 .083999637 .3903656 .12399292 .42037965 .1579895 .42037965 .1659851 .42037965 .18299866 .42037965 .18299866 .3883667 .18299866 .36335755 .17298889 .3373413 .1659851 .31834413 .12599182 .21231079 .10798645 .1552887 .10798645 .10827637 .10798645 .019256592 .17098999-.0107421879 .22999573-.0107421879 .2689972-.0107421879 .30299378 .0062561037 .33099366 .03425598 .31799317-.017745972 .30599977-.06674194 .2659912-.11973572 .23999024-.15385437 .20199585-.18309021 .1559906-.18309021 .14199829-.18309021 .09700012-.18005371 .07998657-.14074707 .09599304-.14074707 .10899353-.14074707 .12298584-.1287384 .1329956-.11973572 .14299011-.10673523 .14299011-.08773804 .14299011-.056747438 .115997318-.052734376 .10598755-.052734376 .08299255-.052734376 .049987794-.068740848 .049987794-.11773682 .049987794-.16796875 .09399414-.20507813 .1559906-.20507813 .25898744-.20507813 .3619995-.11373901 .3899994-.00074768069L.48599244 .38136292Z"/>
<path id="font_2_1" d="M.6589966 .23046875C.6759949 .23046875 .69400027 .23046875 .69400027 .25045777 .69400027 .27046205 .6759949 .27046205 .6589966 .27046205H.117996219C.100997928 .27046205 .08299255 .27046205 .08299255 .25045777 .08299255 .23046875 .100997928 .23046875 .117996219 .23046875H.6589966Z"/>
<path id="font_3_4" d="M.13198853 .327713V.35173036C.13198853 .6047821 .2559967 .64100649 .30699159 .64100649 .33099366 .64100649 .37298585 .634964 .394989 .6007538 .37998963 .6007538 .33999635 .6007538 .33999635 .5557556 .33999635 .524765 .3639984 .5097656 .38598634 .5097656 .4019928 .5097656 .43199159 .51875308 .43199159 .5577545 .43199159 .6178589 .3880005 .6660156 .30499269 .6660156 .1769867 .6660156 .041992189 .5367584 .041992189 .31570436 .041992189 .048553468 .1579895-.022460938 .25099183-.022460938 .3619995-.022460938 .45700074 .07156372 .45700074 .2036438 .45700074 .33070375 .36799623 .4267578 .25698854 .4267578 .18899536 .4267578 .1519928 .37573243 .13198853 .327713M.25099183 .0055389406C.18798828 .0055389406 .1579895 .06556702 .1519928 .080566409 .13398743 .127594 .13398743 .2076416 .13398743 .22564698 .13398743 .30369569 .1659851 .40374757 .2559967 .40374757 .27198792 .40374757 .31799317 .40374757 .34899903 .34172059 .36698915 .30470277 .36698915 .2536621 .36698915 .20463562 .36698915 .15661621 .36698915 .10658264 .34999085 .0705719 .31999208 .010528564 .27398683 .0055389406 .25099183 .0055389406Z"/>
<path id="font_3_3" d="M.2939911 .16503906V.07800293C.2939911 .041992189 .2919922 .0309906 .21798706 .0309906H.19699097V0C.23799134 .0029907227 .2899933 .0029907227 .33198548 .0029907227 .37399293 .0029907227 .4269867 .0029907227 .46798707 0V.0309906H.44699098C.37298585 .0309906 .37098695 .041992189 .37098695 .07800293V.16503906H.47099305V.19602967H.37098695V.65075686C.37098695 .67074587 .37098695 .6767578 .35499574 .6767578 .34599305 .6767578 .34298707 .6767578 .33499146 .66474917L.027999878 .19602967V.16503906H.2939911M.2999878 .19602967H.055999757L.2999878 .5688019V.19602967Z"/>
<path id="font_3_1" d="M.1269989 .07699585 .23298645 .18003845C.3889923 .31811524 .44898988 .3721466 .44898988 .47216798 .44898988 .5860901 .35899354 .6660156 .23699951 .6660156 .12399292 .6660156 .049987794 .57411196 .049987794 .48516847 .049987794 .4291687 .099990848 .4291687 .102996829 .4291687 .11999512 .4291687 .15499878 .44117738 .15499878 .48217774 .15499878 .5081787 .13699341 .5341797 .101989749 .5341797 .09399414 .5341797 .09199524 .5341797 .08898926 .5331726 .11199951 .59806826 .1659851 .63500979 .22399903 .63500979 .31498719 .63500979 .35798646 .5541382 .35798646 .47216798 .35798646 .39215089 .30799867 .31311036 .25299073 .25108338L.06098938 .036987306C.049987794 .025985718 .049987794 .023986817 .049987794 0H.42099L.44898988 .17404175H.42399598C.4189911 .14402771 .4119873 .1000061 .4019928 .084991458 .394989 .07699585 .32899476 .07699585 .30699159 .07699585H.1269989Z"/>
<path id="font_1_1" d="M.2649994 .37265016H.37799073C.34498597 .22489929 .33599855 .18196106 .33599855 .11508179 .33599855 .100097659 .33599855 .073150638 .34399415 .03919983 .35398866-.0047454836 .36499024-.0107421879 .37998963-.0107421879 .3999939-.0107421879 .42099 .007247925 .42099 .02722168 .42099 .033218385 .42099 .035202028 .4149933 .049179079 .38598634 .12106323 .38598634 .18595886 .38598634 .21391297 .38598634 .26683045 .3929901 .32073976 .4039917 .37265016H.5179901C.5309906 .37265016 .5669861 .37265016 .5669861 .406662 .5669861 .43066407 .54599 .43066407 .5269928 .43066407H.19198609C.16999817 .43066407 .13198853 .43066407 .08799744 .38365174 .052993776 .34469605 .026992798 .29878236 .026992798 .29379273 .026992798 .29278565 .026992798 .28379823 .038986207 .28379823 .04699707 .28379823 .04899597 .28779603 .054992677 .29577638 .10398865 .37265016 .1619873 .37265016 .18199158 .37265016H.23899842C.20698548 .25186158 .15299988 .13105774 .11099243 .04020691 .102996829 .025222779 .102996829 .023223877 .102996829 .016235352 .102996829-.002746582 .11898804-.0107421879 .13198853-.0107421879 .1619873-.0107421879 .16999817 .017242432 .18199158 .05418396 .19599915 .100097659 .19599915 .10209656 .20899964 .15202332L.2649994 .37265016Z"/>
<path id="font_3_2" d="M.2899933 .35191346C.37199403 .37893678 .42999269 .4490509 .42999269 .52809146 .42999269 .6100464 .34199525 .6660156 .24598694 .6660156 .14498902 .6660156 .068984989 .60606387 .068984989 .53009036 .068984989 .49710084 .09098816 .47808839 .11999512 .47808839 .15098572 .47808839 .17098999 .50009158 .17098999 .5290985 .17098999 .57910159 .12399292 .57910159 .10899353 .57910159 .13999939 .62802127 .20599365 .64100649 .24198914 .64100649 .2829895 .64100649 .33799745 .6190338 .33799745 .5290985 .33799745 .51708987 .33599855 .45906068 .30999757 .4149933 .27999879 .36691285 .24598694 .36390687 .22099304 .36291505 .21299744 .36190797 .18899536 .35990907 .18199158 .35990907 .17399597 .35890199 .16699219 .35791017 .16699219 .3479004 .16699219 .33691407 .17399597 .33691407 .19099427 .33691407H.23498535C.31698609 .33691407 .35398866 .2686615 .35398866 .17037964 .35398866 .034469606 .2849884 .0055389406 .24099732 .0055389406 .19799805 .0055389406 .12298584 .022491456 .08799744 .08137512 .12298584 .07637024 .1539917 .09837341 .1539917 .1363678 .1539917 .17237854 .1269989 .19238281 .09799194 .19238281 .07398987 .19238281 .041992189 .17837525 .041992189 .1343689 .041992189 .043441774 .1349945-.022460938 .24398804-.022460938 .3659973-.022460938 .45700074 .06838989 .45700074 .17037964 .45700074 .252594 .3939972 .33088685 .2899933 .35191346Z"/>
</defs>
<path transform="matrix(1.00006,0,0,-1,18.45327,42.481004)" stroke-width=".3985" stroke-linecap="butt" stroke-miterlimit="10" stroke-linejoin="miter" fill="none" stroke="#00aeef" d="M0-38.26921H124.67497M0-31.891H124.67497M0-25.5128H124.67497M0-19.1346H124.67497M0-12.7564H124.67497M0-6.37819H124.67497M0 0H124.67497M0 6.37819H124.67497M0 12.7564H124.67497M0 19.1346H124.67497M0 25.51057H124.67497M0-38.26921V25.5128M5.19469-38.26921V25.5128M10.3894-38.26921V25.5128M15.5841-38.26921V25.5128M20.77882-38.26921V25.5128M25.97353-38.26921V25.5128M31.16823-38.26921V25.5128M36.36295-38.26921V25.5128M41.55765-38.26921V25.5128M46.75235-38.26921V25.5128M51.94707-38.26921V25.5128M57.14177-38.26921V25.5128M62.33649-38.26921V25.5128M67.53117-38.26921V25.5128M72.72589-38.26921V25.5128M77.92061-38.26921V25.5128M83.11531-38.26921V25.5128M88.31001-38.26921V25.5128M93.50471-38.26921V25.5128M98.69943-38.26921V25.5128M103.89415-38.26921V25.5128M109.08884-38.26921V25.5128M114.28355-38.26921V25.5128M119.47827-38.26921V25.5128M124.67297-38.26921V25.5128M124.67497 25.5128"/>
<path transform="matrix(1.00006,0,0,-1,18.45327,42.481004)" stroke-width=".79701" stroke-linecap="butt" stroke-miterlimit="10" stroke-linejoin="miter" fill="none" stroke="#000000" d="M0 0H129.52718"/>
<path transform="matrix(1.00006,0,0,-1,147.98822,42.481004)" d="M1.0361 0C-.25902 .25902-1.55415 .77707-3.1083 1.68365-1.55415 .51805-1.55415-.51805-3.1083-1.68365-1.55415-.77707-.25902-.25902 1.0361 0Z"/>
<path transform="matrix(1.00006,0,0,-1,147.98822,42.481004)" stroke-width=".79701" stroke-linecap="butt" stroke-linejoin="round" fill="none" stroke="#000000" d="M1.0361 0C-.25902 .25902-1.55415 .77707-3.1083 1.68365-1.55415 .51805-1.55415-.51805-3.1083-1.68365-1.55415-.77707-.25902-.25902 1.0361 0Z"/>
<use data-text="x" xlink:href="#font_1_2" transform="matrix(9.963197,0,0,-9.9626,153.14234,44.626005)"/>
<path transform="matrix(1.00006,0,0,-1,18.45327,42.481004)" stroke-width=".79701" stroke-linecap="butt" stroke-miterlimit="10" stroke-linejoin="miter" fill="none" stroke="#000000" d="M0-38.26921V29.18079"/>
<path transform="matrix(0,-1,-1.00006,-0,18.45327,13.300213)" d="M1.0361 0C-.25902 .25902-1.55415 .77707-3.1083 1.68365-1.55415 .51805-1.55415-.51805-3.1083-1.68365-1.55415-.77707-.25902-.25902 1.0361 0Z"/>
<path transform="matrix(0,-1,-1.00006,-0,18.45327,13.300213)" stroke-width=".79701" stroke-linecap="butt" stroke-linejoin="round" fill="none" stroke="#000000" d="M1.0361 0C-.25902 .25902-1.55415 .77707-3.1083 1.68365-1.55415 .51805-1.55415-.51805-3.1083-1.68365-1.55415-.77707-.25902-.25902 1.0361 0Z"/>
<use data-text="y" xlink:href="#font_1_3" transform="matrix(9.963197,0,0,-9.9626,15.832115,6.2090036)"/>
<path transform="matrix(1.00006,0,0,-1,18.45327,42.481004)" stroke-width=".79701" stroke-linecap="butt" stroke-miterlimit="10" stroke-linejoin="miter" fill="none" stroke="#000000" d="M1.78575-38.26921H-1.78575"/>
<use data-text="&#x2212;" xlink:href="#font_2_1" transform="matrix(9.963197,0,0,-9.9626,.21717835,83.545009)"/>
<use data-text="6" xlink:href="#font_3_4" transform="matrix(9.963197,0,0,-9.9626,7.9666445,83.545009)"/>
<path transform="matrix(1.00006,0,0,-1,18.45327,42.481004)" stroke-width=".79701" stroke-linecap="butt" stroke-miterlimit="10" stroke-linejoin="miter" fill="none" stroke="#000000" d="M1.78575-25.5128H-1.78575"/>
<use data-text="&#x2212;" xlink:href="#font_2_1" transform="matrix(9.963197,0,0,-9.9626,.21717835,70.789)"/>
<use data-text="4" xlink:href="#font_3_3" transform="matrix(9.963197,0,0,-9.9626,7.9666445,70.789)"/>
<path transform="matrix(1.00006,0,0,-1,18.45327,42.481004)" stroke-width=".79701" stroke-linecap="butt" stroke-miterlimit="10" stroke-linejoin="miter" fill="none" stroke="#000000" d="M1.78575-12.7564H-1.78575"/>
<use data-text="&#x2212;" xlink:href="#font_2_1" transform="matrix(9.963197,0,0,-9.9626,.21717835,58.033006)"/>
<use data-text="2" xlink:href="#font_3_1" transform="matrix(9.963197,0,0,-9.9626,7.9666445,58.033006)"/>
<path transform="matrix(1.00006,0,0,-1,18.45327,42.481004)" stroke-width=".79701" stroke-linecap="butt" stroke-miterlimit="10" stroke-linejoin="miter" fill="none" stroke="#000000" d="M1.78575 12.7564H-1.78575"/>
<use data-text="2" xlink:href="#font_3_1" transform="matrix(9.963197,0,0,-9.9626,7.9666445,32.935007)"/>
<path transform="matrix(1.00006,0,0,-1,18.45327,42.481004)" stroke-width=".79701" stroke-linecap="butt" stroke-miterlimit="10" stroke-linejoin="miter" fill="none" stroke="#000000" d="M1.78575 25.5128H-1.78575"/>
<use data-text="4" xlink:href="#font_3_3" transform="matrix(9.963197,0,0,-9.9626,7.9666445,20.178004)"/>
<path transform="matrix(1.00006,0,0,-1,18.45327,42.481004)" stroke-width=".79701" stroke-linecap="butt" stroke-miterlimit="10" stroke-linejoin="miter" fill="none" stroke="#000000" d="M31.16858 .63783V-.63774"/>
<path transform="matrix(1.00006,0,0,-1,18.45327,42.481004)" d="M25.95853-22.88472H36.37862V-3.0288106H25.95853Z" fill="#ffffff"/>
<use data-text="&#x03c0;" xlink:href="#font_1_1" transform="matrix(9.963197,0,0,-9.9626,46.605955,50.795)"/>
<path transform="matrix(1.00006,0,0,-1,-59.04838,28.054)" stroke-width=".3985" stroke-linecap="butt" stroke-miterlimit="10" stroke-linejoin="miter" fill="none" stroke="#000000" d="M105.648-26.991H111.684"/>
<use data-text="2" xlink:href="#font_3_1" transform="matrix(9.963197,0,0,-9.9626,47.132986,64.369)"/>
<path transform="matrix(1.00006,0,0,-1,18.45327,42.481004)" stroke-width=".79701" stroke-linecap="butt" stroke-miterlimit="10" stroke-linejoin="miter" fill="none" stroke="#000000" d="M62.33748 .63783V-.63774"/>
<path transform="matrix(1.00006,0,0,-1,18.45327,42.481004)" d="M58.32297-11.30342H66.35201V-5.02136H58.32297Z" fill="#ffffff"/>
<use data-text="&#x03c0;" xlink:href="#font_1_1" transform="matrix(9.963197,0,0,-9.9626,77.775829,52.788003)"/>
<path transform="matrix(1.00006,0,0,-1,18.45327,42.481004)" stroke-width=".79701" stroke-linecap="butt" stroke-miterlimit="10" stroke-linejoin="miter" fill="none" stroke="#000000" d="M93.50607 .63783V-.63774"/>
<path transform="matrix(1.00006,0,0,-1,18.45327,42.481004)" d="M85.80533-25.01567H101.2068V-3.0288106H85.80533Z" fill="#ffffff"/>
<use data-text="3" xlink:href="#font_3_2" transform="matrix(9.963197,0,0,-9.9626,106.45654,52.926004)"/>
<use data-text="&#x03c0;" xlink:href="#font_1_1" transform="matrix(9.963197,0,0,-9.9626,111.43784,52.926004)"/>
<path transform="matrix(1.00006,0,0,-1,.80220797,30.185002)" stroke-width=".3985" stroke-linecap="butt" stroke-miterlimit="10" stroke-linejoin="miter" fill="none" stroke="#000000" d="M105.648-26.991H116.665"/>
<use data-text="2" xlink:href="#font_3_1" transform="matrix(9.963197,0,0,-9.9626,109.474727,66.5)"/>
<path transform="matrix(1.00006,0,0,-1,18.45327,42.481004)" stroke-width=".79701" stroke-linecap="butt" stroke-miterlimit="10" stroke-linejoin="miter" fill="none" stroke="#000000" d="M124.67497 .63783V-.63774"/>
<path transform="matrix(1.00006,0,0,-1,18.45327,42.481004)" d="M118.16975-13.43434H131.18016V-5.0213596H118.16975Z" fill="#ffffff"/>
<use data-text="2" xlink:href="#font_3_1" transform="matrix(9.963197,0,0,-9.9626,137.62642,54.919004)"/>
<use data-text="&#x03c0;" xlink:href="#font_1_1" transform="matrix(9.963197,0,0,-9.9626,142.60773,54.919004)"/>
<path transform="matrix(1.00006,0,0,-1,18.45327,42.481004)" stroke-width=".79701" stroke-linecap="butt" stroke-miterlimit="10" stroke-linejoin="miter" fill="none" stroke="#ff0000" d="M0-19.1346C0-19.1346 .10652-19.03195 .14743-18.99251 .18832-18.95305 .25395-18.88976 .29488-18.85022 .33578-18.8107 .40141-18.7472 .44234-18.70755 .48325-18.66791 .54886-18.60425 .58978-18.56448 .63069-18.52472 .69632-18.46088 .73724-18.42093 .77815-18.38097 .84377-18.3167 .88469-18.27649 .9256-18.2363 .99123-18.17163 1.03215-18.1312 1.07306-18.09076 1.13867-18.02576 1.1796-17.98502 1.2205-17.94427 1.28613-17.87868 1.32704-17.83757 1.36795-17.79646 1.43356-17.73022 1.47449-17.68875 1.5154-17.64728 1.58102-17.58061 1.62195-17.53868 1.66286-17.49675 1.72847-17.429 1.7694-17.38657 1.8103-17.34413 1.87593-17.27576 1.91685-17.23279 1.95776-17.18983 2.02338-17.12045 2.0643-17.07687 2.10521-17.03331 2.17084-16.96298 2.21176-16.91873 2.25267-16.87448 2.31828-16.8029 2.3592-16.75795 2.40012-16.713 2.46574-16.64046 2.50667-16.59474 2.54758-16.54901 2.61317-16.47496 2.6541-16.42842 2.695-16.38187 2.76064-16.30675 2.80156-16.25926 2.84247-16.21179 2.90808-16.13475 2.949-16.08623 2.98991-16.03772 3.05554-15.95912 3.09647-15.90958 3.13737-15.86003 3.20299-15.77986 3.24391-15.72914 3.28482-15.67844 3.35045-15.59605 3.39137-15.54404 3.43228-15.49202 3.4979-15.4076 3.53882-15.35425 3.57973-15.30092 3.64536-15.21439 3.68628-15.1596 3.72719-15.10483 3.79282-15.01578 3.83372-14.95941 3.87463-14.90306 3.94025-14.8115 3.98117-14.75337 4.02208-14.69525 4.0877-14.6005 4.12862-14.54053 4.16954-14.48056 4.23515-14.3831 4.27608-14.32117 4.31699-14.25922 4.38261-14.15826 4.42352-14.09412 4.46445-14.02995 4.53006-13.92531 4.57098-13.85878 4.6119-13.79225 4.67752-13.68361 4.71843-13.6146 4.75935-13.54558 4.82497-13.4332 4.86589-13.36136 4.9068-13.28954 4.97243-13.17183 5.01334-13.09694 5.05426-13.02203 5.11987-12.89977 5.1608-12.8216 5.2017-12.74342 5.26732-12.61533 5.30823-12.53352 5.34914-12.45172 5.41476-12.31775 5.45567-12.23201 5.4966-12.14629 5.56223-12.00572 5.60313-11.9156 5.64406-11.8255 5.70967-11.67744 5.75058-11.58258 5.7915-11.48772 5.85713-11.33205 5.89804-11.23192 5.93896-11.13179 6.00458-10.96693 6.04549-10.86093 6.08641-10.7549 6.15204-10.58029 6.19295-10.46783 6.23387-10.35535 6.29948-10.16992 6.3404-10.05031 6.38132-9.9307 6.44695-9.73338 6.48785-9.60573 6.52878-9.47809 6.59438-9.26706 6.63528-9.1303 6.67621-8.99356 6.74184-8.76688 6.78275-8.62013 6.82367-8.47339 6.88928-8.23097 6.93019-8.07268 6.97112-7.91441 7.03674-7.65102 7.07765-7.47942 7.11858-7.3078 7.18419-7.02245 7.2251-6.83589 7.26602-6.64937 7.33165-6.33875 7.37256-6.13498 7.41348-5.93121 7.4791-5.59116 7.52-5.3673 7.56093-5.14342 7.62656-4.76884 7.66747-4.52144 7.70839-4.27405 7.774-3.85919 7.81491-3.58423 7.85583-3.30925 7.92145-2.84723 7.96236-2.53966 8.00328-2.23207 8.0689-1.71407 8.1098-1.36739 8.15073-1.0207 8.21635-.4357 8.25726-.04095 8.29819 .35376 8.3638 1.02339 8.40471 1.47766 8.44563 1.93192 8.51126 2.70491 8.55217 3.23308 8.5931 3.76125 8.6587 4.66196 8.69962 5.28436 8.74054 5.90678 8.80617 6.97336 8.84708 7.71901 8.888 8.46468 8.95361 9.74803 8.99452 10.65858 9.03545 11.56914 9.10107 13.14359 9.14198 14.28166 9.18289 15.41971 9.2485 17.39526 9.28941 18.86092 9.33034 20.32657 9.43687 24.84508 9.43687 24.84508"/>
<path transform="matrix(1.00006,0,0,-1,18.45327,42.481004)" stroke-width=".79701" stroke-linecap="butt" stroke-miterlimit="10" stroke-linejoin="miter" fill="none" stroke="#ff0000" d="M12.51793-38.26707C12.51793-38.26707 12.71788-36.48906 12.79466-35.89616 12.87144-35.30328 12.9946-34.47493 13.07138-33.99397 13.14818-33.51303 13.27133-32.82893 13.34813-32.4298 13.42493-32.03065 13.54808-31.4548 13.62488-31.1172 13.70166-30.77957 13.82483-30.28687 13.90161-29.9965 13.9784-29.70615 14.10156-29.27773 14.17834-29.02443 14.25513-28.77115 14.37828-28.3946 14.45506-28.171 14.53186-27.94739 14.65501-27.6123 14.73181-27.41277 14.80861-27.21321 14.93176-26.91252 15.00856-26.73276 15.08534-26.55298 15.20851-26.28035 15.2853-26.11708 15.36208-25.95381 15.48524-25.70544 15.56203-25.55603 15.63881-25.40659 15.76196-25.17793 15.83875-25.0401 15.91554-24.90228 16.0387-24.69055 16.1155-24.56264 16.19229-24.4347 16.31544-24.23753 16.39223-24.11806 16.46902-23.99858 16.59218-23.81367 16.66898-23.70152 16.74576-23.58934 16.86893-23.4155 16.94571-23.3096 17.02249-23.20369 17.14565-23.03874 17.22244-22.93822 17.29922-22.83766 17.4224-22.68088 17.49918-22.58502 17.57596-22.48917 17.69913-22.33911 17.77591-22.2473 17.8527-22.15549 17.97586-22.01161 18.05266-21.92331 18.12944-21.83502 18.2526-21.6962 18.32939-21.6109 18.40619-21.52562 18.52933-21.39131 18.60612-21.30862 18.6829-21.22592 18.80608-21.09544 18.88286-21.0149 18.95964-20.93434 19.08281-20.80682 19.15959-20.72807 19.23637-20.64934 19.35954-20.52464 19.43633-20.4474 19.51314-20.37016 19.63628-20.24744 19.71309-20.17139 19.78987-20.09534 19.91302-19.97443 19.98982-19.89928 20.0666-19.82413 20.18976-19.70433 20.26654-19.62978 20.34332-19.55524 20.46649-19.43622 20.54327-19.36206 20.62006-19.28787 20.74323-19.16924 20.82-19.09518 20.89682-19.02113 21.01996-18.90256 21.09676-18.82832 21.17355-18.75407 21.2967-18.63481 21.3735-18.5601 21.45029-18.4854 21.57344-18.36533 21.65022-18.28993 21.727-18.21454 21.85017-18.09311 21.92696-18.01674 22.00375-17.94037 22.1269-17.81711 22.2037-17.73947 22.28049-17.66182 22.40366-17.53636 22.48044-17.45712 22.55724-17.3779 22.68039-17.24965 22.75717-17.16847 22.83397-17.0873 22.95712-16.95547 23.0339-16.87201 23.11069-16.78857 23.23386-16.65312 23.31064-16.567 23.38744-16.48088 23.51059-16.34056 23.58739-16.25128 23.66417-16.16202 23.78734-16.01651 23.86412-15.9236 23.9409-15.83067 24.06407-15.67877 24.14085-15.5816 24.21765-15.48444 24.3408-15.32538 24.41759-15.22336 24.49438-15.12132 24.61754-14.95389 24.69434-14.84622 24.77112-14.73857 24.89429-14.56158 24.97107-14.44739 25.04785-14.33319 25.17102-14.14505 25.2478-14.02316 25.32458-13.90126 25.44775-13.69957 25.52454-13.56885 25.60132-13.43813 25.72449-13.22202 25.80127-13.08096 25.87807-12.93991 26.00122-12.70558 26.07802-12.5522 26.1548-12.39883 26.27797-12.14336 26.35475-11.97557 26.43153-11.80779 26.5547-11.52798 26.63148-11.34285 26.70827-11.15775 26.83144-10.8475 26.90822-10.64134 26.98502-10.43521 27.10817-10.08891 27.18497-9.85712 27.26175-9.62534 27.38492-9.23405 27.4617-8.97078 27.53848-8.70753 27.66165-8.26279 27.73843-7.9597 27.81522-7.65662 27.93839-7.14053 28.01517-6.78636 28.09195-6.43219 28.21512-5.8279 28.2919-5.40709 28.3687-4.98628 28.49187-4.2638 28.56865-3.75346 28.64543-3.24313 28.76859-2.36305 28.84538-1.72894 28.92216-1.09482 29.04533 .00378 29.12212 .81671 29.1989 1.62967 29.32207 3.04488 29.39885 4.1302 29.47565 5.21553 29.5988 7.10892 29.6756 8.63902 29.75238 10.16911 29.87555 12.8238 29.95233 15.15805 30.02911 17.4923 30.22906 25.46268 30.22906 25.46268"/>
<path transform="matrix(1.00006,0,0,-1,18.45327,42.481004)" stroke-width=".79701" stroke-linecap="butt" stroke-miterlimit="10" stroke-linejoin="miter" fill="none" stroke="#ff0000" d="M33.29709-38.26707C33.29709-38.26707 33.49704-36.48906 33.57382-35.89616 33.6506-35.30328 33.77377-34.47493 33.85056-33.99397 33.92734-33.51303 34.0505-32.82893 34.12729-32.4298 34.20409-32.03065 34.32724-31.4548 34.40404-31.1172 34.48082-30.77957 34.60399-30.28687 34.68077-29.9965 34.75755-29.70615 34.88072-29.27773 34.9575-29.02443 35.03429-28.77115 35.15746-28.3946 35.23424-28.171 35.31102-27.94739 35.43419-27.6123 35.51097-27.41277 35.58777-27.21321 35.71092-26.91252 35.78772-26.73276 35.8645-26.55298 35.98767-26.28035 36.06445-26.11708 36.14124-25.95381 36.2644-25.70544 36.34119-25.55603 36.41797-25.40659 36.54114-25.17793 36.61792-25.0401 36.69472-24.90228 36.81787-24.69055 36.89467-24.56264 36.97145-24.4347 37.0946-24.23753 37.1714-24.11806 37.24818-23.99858 37.37135-23.81367 37.44814-23.70152 37.52492-23.58934 37.64809-23.4155 37.72487-23.3096 37.80165-23.20369 37.92482-23.03874 38.0016-22.93822 38.0784-22.83766 38.20155-22.68088 38.27835-22.58502 38.35513-22.48917 38.47829-22.33911 38.55508-22.2473 38.63187-22.15549 38.75502-22.01161 38.83182-21.92331 38.9086-21.83502 39.03177-21.6962 39.10855-21.6109 39.18535-21.52562 39.3085-21.39131 39.3853-21.30862 39.46208-21.22592 39.58525-21.09544 39.66203-21.0149 39.73882-20.93434 39.86197-20.80682 39.93875-20.72807 40.01555-20.64934 40.1387-20.52464 40.2155-20.4474 40.29228-20.37016 40.41545-20.24744 40.49223-20.17139 40.56903-20.09534 40.69218-19.97443 40.76898-19.89928 40.84576-19.82413 40.96893-19.70433 41.04572-19.62978 41.1225-19.55524 41.24565-19.43622 41.32243-19.36206 41.39923-19.28787 41.52238-19.16924 41.59917-19.09518 41.67598-19.02113 41.79912-18.90256 41.87593-18.82832 41.95271-18.75407 42.07588-18.63481 42.15266-18.5601 42.22945-18.4854 42.35262-18.36533 42.4294-18.28993 42.50618-18.21454 42.62935-18.09311 42.70613-18.01674 42.78291-17.94037 42.90607-17.81711 42.98285-17.73947 43.05966-17.66182 43.18282-17.53636 43.2596-17.45712 43.3364-17.3779 43.45955-17.24965 43.53635-17.16847 43.61313-17.0873 43.7363-16.95547 43.81308-16.87201 43.88986-16.78857 44.01303-16.65312 44.08981-16.567 44.16661-16.48088 44.28975-16.34056 44.36655-16.25128 44.44333-16.16202 44.5665-16.01651 44.64328-15.9236 44.72008-15.83067 44.84323-15.67877 44.92003-15.5816 44.99681-15.48444 45.11996-15.32538 45.19676-15.22336 45.27354-15.12132 45.39671-14.95389 45.4735-14.84622 45.5503-14.73857 45.67345-14.56158 45.75023-14.44739 45.82701-14.33319 45.95018-14.14505 46.02696-14.02316 46.10374-13.90126 46.22691-13.69957 46.3037-13.56885 46.3805-13.43813 46.50365-13.22202 46.58044-13.08096 46.65724-12.93991 46.78038-12.70558 46.8572-12.5522 46.93398-12.39883 47.05713-12.14336 47.13391-11.97557 47.2107-11.80779 47.33386-11.52798 47.41064-11.34285 47.48743-11.15775 47.6106-10.8475 47.68738-10.64134 47.76418-10.43521 47.88733-10.08891 47.96413-9.85712 48.04092-9.62534 48.16408-9.23405 48.24088-8.97078 48.31766-8.70753 48.44081-8.26279 48.5176-7.9597 48.59438-7.65662 48.71754-7.14053 48.79433-6.78636 48.87111-6.43219 48.99428-5.8279 49.07106-5.40709 49.14786-4.98628 49.27101-4.2638 49.34781-3.75346 49.4246-3.24313 49.54776-2.36305 49.62454-1.72894 49.70134-1.09482 49.8245 .00378 49.90129 .81671 49.97807 1.62967 50.10123 3.04488 50.17801 4.1302 50.2548 5.21553 50.37796 7.10892 50.45476 8.63902 50.53154 10.16911 50.65471 12.8238 50.73149 15.15805 50.80827 17.4923 51.00822 25.46268 51.00822 25.46268"/>
<path transform="matrix(1.00006,0,0,-1,18.45327,42.481004)" stroke-width=".79701" stroke-linecap="butt" stroke-miterlimit="10" stroke-linejoin="miter" fill="none" stroke="#ff0000" d="M54.07625-38.26707C54.07625-38.26707 54.2762-36.48906 54.35298-35.89616 54.42976-35.30328 54.55293-34.47493 54.62971-33.99397 54.70651-33.51303 54.82967-32.82893 54.90646-32.4298 54.98325-32.03065 55.1064-31.4548 55.1832-31.1172 55.26-30.77957 55.38315-30.28687 55.45993-29.9965 55.53671-29.70615 55.65988-29.27773 55.73666-29.02443 55.81345-28.77115 55.93661-28.3946 56.0134-28.171 56.0902-27.94739 56.21335-27.6123 56.29013-27.41277 56.36694-27.21321 56.49008-26.91252 56.5669-26.73276 56.64368-26.55298 56.76683-26.28035 56.84361-26.11708 56.9204-25.95381 57.04356-25.70544 57.12035-25.55603 57.19713-25.40659 57.3203-25.17793 57.39708-25.0401 57.47386-24.90228 57.59703-24.69055 57.67381-24.56264 57.75063-24.4347 57.87378-24.23753 57.95056-24.11806 58.02736-23.99858 58.15051-23.81367 58.22731-23.70152 58.3041-23.58934 58.42725-23.4155 58.50403-23.3096 58.58081-23.20369 58.70398-23.03874 58.78076-22.93822 58.85756-22.83766 58.98071-22.68088 59.05751-22.58502 59.1343-22.48917 59.25746-22.33911 59.33424-22.2473 59.41104-22.15549 59.5342-22.01161 59.611-21.92331 59.68777-21.83502 59.81093-21.6962 59.88771-21.6109 59.9645-21.52562 60.08766-21.39131 60.16446-21.30862 60.24124-21.22592 60.36441-21.09544 60.4412-21.0149 60.51797-20.93434 60.64114-20.80682 60.71793-20.72807 60.79471-20.64934 60.91788-20.52464 60.99466-20.4474 61.07146-20.37016 61.19461-20.24744 61.2714-20.17139 61.34819-20.09534 61.47134-19.97443 61.54814-19.89928 61.62492-19.82413 61.7481-19.70433 61.82487-19.62978 61.90166-19.55524 62.02483-19.43622 62.10161-19.36206 62.17839-19.28787 62.30156-19.16924 62.37834-19.09518 62.45512-19.02113 62.5783-18.90256 62.65509-18.82832 62.73187-18.75407 62.85504-18.63481 62.93182-18.5601 63.0086-18.4854 63.13177-18.36533 63.20856-18.28993 63.28534-18.21454 63.40851-18.09311 63.48529-18.01674 63.56207-17.94037 63.68524-17.81711 63.76202-17.73947 63.83882-17.66182 63.96196-17.53636 64.03877-17.45712 64.11555-17.3779 64.23872-17.24965 64.3155-17.16847 64.39229-17.0873 64.51546-16.95547 64.59224-16.87201 64.66902-16.78857 64.79219-16.65312 64.86897-16.567 64.94577-16.48088 65.06892-16.34056 65.14572-16.25128 65.2225-16.16202 65.34567-16.01651 65.42245-15.9236 65.49924-15.83067 65.62239-15.67877 65.69919-15.5816 65.77597-15.48444 65.89914-15.32538 65.97592-15.22336 66.0527-15.12132 66.17587-14.95389 66.25266-14.84622 66.32945-14.73857 66.4526-14.56158 66.5294-14.44739 66.60619-14.33319 66.72935-14.14505 66.80614-14.02316 66.88292-13.90126 67.00607-13.69957 67.08287-13.56885 67.15965-13.43813 67.28282-13.22202 67.3596-13.08096 67.4364-12.93991 67.55956-12.70558 67.63635-12.5522 67.71313-12.39883 67.8363-12.14336 67.91309-11.97557 67.98987-11.80779 68.11304-11.52798 68.18982-11.34285 68.2666-11.15775 68.38976-10.8475 68.46654-10.64134 68.54333-10.43521 68.66649-10.08891 68.74329-9.85712 68.82008-9.62534 68.94324-9.23405 69.02003-8.97078 69.09682-8.70753 69.21999-8.26279 69.29677-7.9597 69.37355-7.65662 69.49672-7.14053 69.5735-6.78636 69.65028-6.43219 69.77344-5.8279 69.85022-5.40709 69.92703-4.98628 70.05017-4.2638 70.12697-3.75346 70.20377-3.24313 70.32692-2.36305 70.40372-1.72894 70.4805-1.09482 70.60367 .00378 70.68045 .81671 70.75723 1.62967 70.8804 3.04488 70.95718 4.1302 71.03397 5.21553 71.15712 7.10892 71.2339 8.63902 71.3107 10.16911 71.43385 12.8238 71.51065 15.15805 71.58745 17.4923 71.7874 25.46268 71.7874 25.46268"/>
<path transform="matrix(1.00006,0,0,-1,18.45327,42.481004)" stroke-width=".79701" stroke-linecap="butt" stroke-miterlimit="10" stroke-linejoin="miter" fill="none" stroke="#ff0000" d="M74.85542-38.26707C74.85542-38.26707 75.05537-36.48906 75.13216-35.89616 75.20894-35.30328 75.33209-34.47493 75.40889-33.99397 75.48567-33.51303 75.60884-32.82893 75.68562-32.4298 75.7624-32.03065 75.88557-31.4548 75.96236-31.1172 76.03915-30.77957 76.16231-30.28687 76.2391-29.9965 76.31589-29.70615 76.43906-29.27773 76.51584-29.02443 76.59262-28.77115 76.71577-28.3946 76.79256-28.171 76.86935-27.94739 76.99251-27.6123 77.0693-27.41277 77.1461-27.21321 77.26926-26.91252 77.34605-26.73276 77.42284-26.55298 77.546-26.28035 77.62279-26.11708 77.69957-25.95381 77.82274-25.70544 77.89952-25.55603 77.9763-25.40659 78.09946-25.17793 78.17624-25.0401 78.25304-24.90228 78.37619-24.69055 78.45299-24.56264 78.52979-24.4347 78.65292-24.23753 78.72974-24.11806 78.80652-23.99858 78.92969-23.81367 79.00647-23.70152 79.08325-23.58934 79.20642-23.4155 79.2832-23.3096 79.35999-23.20369 79.48314-23.03874 79.55992-22.93822 79.63672-22.83766 79.75987-22.68088 79.83667-22.58502 79.91347-22.48917 80.03662-22.33911 80.11342-22.2473 80.1902-22.15549 80.31335-22.01161 80.39015-21.92331 80.46693-21.83502 80.5901-21.6962 80.66689-21.6109 80.74367-21.52562 80.86684-21.39131 80.94362-21.30862 81.02042-21.22592 81.14355-21.09544 81.22035-21.0149 81.29713-20.93434 81.4203-20.80682 81.49709-20.72807 81.57388-20.64934 81.69704-20.52464 81.77383-20.4474 81.85062-20.37016 81.97377-20.24744 82.05057-20.17139 82.12737-20.09534 82.25052-19.97443 82.32732-19.89928 82.4041-19.82413 82.52725-19.70433 82.60403-19.62978 82.68082-19.55524 82.80399-19.43622 82.88077-19.36206 82.95757-19.28787 83.08072-19.16924 83.1575-19.09518 83.2343-19.02113 83.35745-18.90256 83.43425-18.82832 83.51105-18.75407 83.6342-18.63481 83.711-18.5601 83.78778-18.4854 83.91093-18.36533 83.98772-18.28993 84.0645-18.21454 84.18767-18.09311 84.26445-18.01674 84.34123-17.94037 84.4644-17.81711 84.54118-17.73947 84.618-17.66182 84.74113-17.53636 84.81793-17.45712 84.89473-17.3779 85.01788-17.24965 85.09468-17.16847 85.17146-17.0873 85.29462-16.95547 85.3714-16.87201 85.44818-16.78857 85.57135-16.65312 85.64813-16.567 85.72491-16.48088 85.84808-16.34056 85.92487-16.25128 86.00166-16.16202 86.12483-16.01651 86.20161-15.9236 86.27841-15.83067 86.40157-15.67877 86.47835-15.5816 86.55515-15.48444 86.6783-15.32538 86.75508-15.22336 86.83186-15.12132 86.95503-14.95389 87.03181-14.84622 87.10861-14.73857 87.23177-14.56158 87.30856-14.44739 87.38535-14.33319 87.50851-14.14505 87.5853-14.02316 87.66208-13.90126 87.78525-13.69957 87.86203-13.56885 87.93883-13.43813 88.06198-13.22202 88.13876-13.08096 88.21555-12.93991 88.33871-12.70558 88.4155-12.5522 88.4923-12.39883 88.61546-12.14336 88.69225-11.97557 88.76903-11.80779 88.8922-11.52798 88.96898-11.34285 89.04576-11.15775 89.16893-10.8475 89.24571-10.64134 89.3225-10.43521 89.44566-10.08891 89.52245-9.85712 89.59926-9.62534 89.7224-9.23405 89.7992-8.97078 89.87598-8.70753 89.99915-8.26279 90.07593-7.9597 90.15271-7.65662 90.27588-7.14053 90.35266-6.78636 90.42944-6.43219 90.55261-5.8279 90.6294-5.40709 90.70618-4.98628 90.82935-4.2638 90.90614-3.75346 90.98294-3.24313 91.1061-2.36305 91.18288-1.72894 91.25966-1.09482 91.38283 .00378 91.45961 .81671 91.53639 1.62967 91.65956 3.04488 91.73634 4.1302 91.81313 5.21553 91.9363 7.10892 92.01308 8.63902 92.08987 10.16911 92.21303 12.8238 92.28983 15.15805 92.36661 17.4923 92.56656 25.46268 92.56656 25.46268"/>
<path transform="matrix(1.00006,0,0,-1,18.45327,42.481004)" stroke-width=".79701" stroke-linecap="butt" stroke-miterlimit="10" stroke-linejoin="miter" fill="none" stroke="#ff0000" d="M95.63457-38.26707C95.63457-38.26707 95.83452-36.48906 95.91132-35.89616 95.9881-35.30328 96.11127-34.47493 96.18805-33.99397 96.26485-33.51303 96.388-32.82893 96.46478-32.4298 96.54156-32.03065 96.66473-31.4548 96.74152-31.1172 96.81831-30.77957 96.94147-30.28687 97.01826-29.9965 97.09505-29.70615 97.21822-29.27773 97.295-29.02443 97.37178-28.77115 97.49495-28.3946 97.57173-28.171 97.64851-27.94739 97.77168-27.6123 97.84846-27.41277 97.92526-27.21321 98.04842-26.91252 98.1252-26.73276 98.202-26.55298 98.32516-26.28035 98.40195-26.11708 98.47873-25.95381 98.6019-25.70544 98.67868-25.55603 98.75546-25.40659 98.87863-25.17793 98.95541-25.0401 99.0322-24.90228 99.15536-24.69055 99.23215-24.56264 99.30896-24.4347 99.4321-24.23753 99.5089-24.11806 99.58568-23.99858 99.70885-23.81367 99.78563-23.70152 99.86241-23.58934 99.98558-23.4155 100.06236-23.3096 100.13914-23.20369 100.26231-23.03874 100.3391-22.93822 100.41588-22.83766 100.53905-22.68088 100.61583-22.58502 100.69263-22.48917 100.81578-22.33911 100.89258-22.2473 100.96936-22.15549 101.09253-22.01161 101.16931-21.92331 101.2461-21.83502 101.36926-21.6962 101.44604-21.6109 101.52283-21.52562 101.646-21.39131 101.72278-21.30862 101.79958-21.22592 101.92273-21.09544 101.99953-21.0149 102.07631-20.93434 102.19946-20.80682 102.27626-20.72807 102.35304-20.64934 102.47621-20.52464 102.553-20.4474 102.62978-20.37016 102.75294-20.24744 102.82973-20.17139 102.90651-20.09534 103.02968-19.97443 103.10648-19.89928 103.18326-19.82413 103.30643-19.70433 103.38321-19.62978 103.45999-19.55524 103.58315-19.43622 103.65993-19.36206 103.73672-19.28787 103.85988-19.16924 103.93668-19.09518 104.01346-19.02113 104.13663-18.90256 104.21341-18.82832 104.2902-18.75407 104.41336-18.63481 104.49016-18.5601 104.56694-18.4854 104.69011-18.36533 104.76689-18.28993 104.84367-18.21454 104.96684-18.09311 105.04362-18.01674 105.1204-17.94037 105.24356-17.81711 105.32034-17.73947 105.39714-17.66182 105.5203-17.53636 105.5971-17.45712 105.67389-17.3779 105.79706-17.24965 105.87384-17.16847 105.95062-17.0873 106.07379-16.95547 106.15057-16.87201 106.22736-16.78857 106.35052-16.65312 106.4273-16.567 106.50409-16.48088 106.62724-16.34056 106.70403-16.25128 106.78084-16.16202 106.90398-16.01651 106.98079-15.9236 107.05757-15.83067 107.18073-15.67877 107.25752-15.5816 107.3343-15.48444 107.45747-15.32538 107.53426-15.22336 107.61104-15.12132 107.7342-14.95389 107.81099-14.84622 107.88779-14.73857 108.01093-14.56158 108.08772-14.44739 108.1645-14.33319 108.28767-14.14505 108.36446-14.02316 108.44125-13.90126 108.5644-13.69957 108.6412-13.56885 108.71799-13.43813 108.84114-13.22202 108.91794-13.08096 108.99472-12.93991 109.11789-12.70558 109.19467-12.5522 109.27147-12.39883 109.3946-12.14336 109.4714-11.97557 109.54819-11.80779 109.67136-11.52798 109.74814-11.34285 109.82494-11.15775 109.94809-10.8475 110.02487-10.64134 110.10167-10.43521 110.22482-10.08891 110.30162-9.85712 110.37842-9.62534 110.50157-9.23405 110.57837-8.97078 110.65515-8.70753 110.7783-8.26279 110.85509-7.9597 110.93187-7.65662 111.05504-7.14053 111.13182-6.78636 111.2086-6.43219 111.33177-5.8279 111.40855-5.40709 111.48535-4.98628 111.6085-4.2638 111.68529-3.75346 111.7621-3.24313 111.88524-2.36305 111.96205-1.72894 112.03883-1.09482 112.162 .00378 112.23878 .81671 112.31557 1.62967 112.43872 3.04488 112.5155 4.1302 112.59229 5.21553 112.71545 7.10892 112.79224 8.63902 112.86903 10.16911 112.99219 12.8238 113.06898 15.15805 113.14578 17.4923 113.34572 25.46268 113.34572 25.46268"/>
<path transform="matrix(1.00006,0,0,-1,18.45327,42.481004)" stroke-width=".79701" stroke-linecap="butt" stroke-miterlimit="10" stroke-linejoin="miter" fill="none" stroke="#ff0000" d="M116.41373-38.26707C116.41373-38.26707 116.50694-37.40181 116.54272-37.09277 116.5785-36.78372 116.63593-36.31741 116.6717-36.03963 116.70749-35.76184 116.7649-35.34169 116.80069-35.09062 116.83647-34.83955 116.89389-34.45847 116.92967-34.23009 116.96545-34.00171 117.02287-33.65337 117.05865-33.4446 117.09445-33.23581 117.15186-32.91675 117.18764-32.72527 117.22342-32.5338 117.28082-32.24115 117.3166-32.06454 117.3524-31.88794 117.4098-31.616 117.4456-31.45236 117.48138-31.28874 117.53879-31.03705 117.57458-30.88516 117.61037-30.73329 117.66777-30.49908 117.70357-30.35768 117.73935-30.21626 117.79677-29.99826 117.83255-29.866 117.86833-29.73372 117.92574-29.52856 117.96153-29.40439 117.99733-29.28021 118.05472-29.08774 118.09052-28.97101 118.1263-28.8543 118.18372-28.67311 118.2195-28.56313 118.25528-28.45313 118.31268-28.28223 118.34848-28.1782 118.38426-28.0742 118.44167-27.91199 118.47746-27.81345 118.51324-27.71489 118.57065-27.56146 118.60643-27.46794 118.64223-27.37442 118.69965-27.22832 118.73543-27.13937 118.77121-27.05043 118.82861-26.91167 118.86441-26.82686 118.90019-26.74208 118.9576-26.60925 118.9934-26.52827 119.02917-26.44731 119.0866-26.3207 119.12238-26.24332 119.15816-26.16592 119.21556-26.04468 119.25136-25.97052 119.28716-25.89636 119.34454-25.78003 119.38033-25.70882 119.41612-25.6376 119.47353-25.52574 119.50931-25.45723 119.54509-25.38872 119.60251-25.28099 119.6383-25.215 119.67409-25.149 119.73149-25.04515 119.76727-24.98161 119.80307-24.91808 119.86047-24.8184 119.89626-24.75708 119.93205-24.69577 119.98947-24.59903 120.02525-24.53966 120.06104-24.4803 120.11844-24.38667 120.15422-24.32925 120.19003-24.27182 120.2474-24.18141 120.2832-24.12575 120.31898-24.07007 120.3764-23.98204 120.41219-23.92798 120.44797-23.87393 120.50539-23.78867 120.54118-23.73616 120.57697-23.68365 120.63437-23.60054 120.67015-23.5495 120.70593-23.49843 120.76335-23.41791 120.79913-23.36818 120.83493-23.31845 120.89235-23.23958 120.92813-23.19106 120.96391-23.14253 121.02132-23.06572 121.0571-23.0184 121.09288-22.97108 121.1503-22.89613 121.1861-22.84993 121.22188-22.80373 121.27928-22.7306 121.31506-22.68536 121.35085-22.64012 121.40826-22.56819 121.44405-22.5239 121.47984-22.4796 121.53725-22.4094 121.57303-22.36604 121.60881-22.32268 121.66623-22.25392 121.70201-22.2114 121.7378-22.16885 121.79521-22.10127 121.83101-22.05946 121.86679-22.01767 121.9242-21.95123 121.95998-21.91017 121.99576-21.8691 122.05318-21.80388 122.08896-21.7635 122.12476-21.72311 122.18217-21.65884 122.21796-21.61908 122.25374-21.5793 122.31114-21.51607 122.34692-21.4769 122.38272-21.43771 122.44011-21.37537 122.4759-21.33675 122.51169-21.29811 122.5691-21.23656 122.60489-21.19844 122.64067-21.16032 122.69809-21.09969 122.73389-21.062 122.76967-21.0243 122.82707-20.96407 122.86285-20.9268 122.89864-20.88956 122.95605-20.83034 122.99184-20.79349 123.02763-20.75664 123.08505-20.69772 123.12083-20.66121 123.15662-20.62471 123.214-20.5665 123.2498-20.5303 123.28558-20.49414 123.34299-20.43636 123.37878-20.40048 123.41457-20.36461 123.47198-20.30734 123.50777-20.27173 123.54355-20.2361 123.60095-20.17911 123.63675-20.14375 123.67255-20.10838 123.72995-20.052 123.76573-20.01683 123.80151-19.98169 123.85893-19.92532 123.89471-19.89032 123.9305-19.85532 123.9879-19.79942 124.02371-19.76457 124.0595-19.72972 124.1169-19.67387 124.15268-19.63913 124.18846-19.60437 124.24586-19.5487 124.28165-19.51405 124.31744-19.47943 124.37486-19.42404 124.41064-19.3895 124.44643-19.35493 124.50383-19.29955 124.53961-19.26501 124.57542-19.23048 124.66861-19.14064 124.66861-19.14064"/>
<path transform="matrix(1.00006,0,0,-1,18.45327,42.481004)" stroke-width="1.19553" stroke-linecap="butt" stroke-miterlimit="10" stroke-linejoin="miter" fill="none" stroke="#0000ff" d="M0-12.7564H124.67497"/>
</svg>
