<svg xmlns="http://www.w3.org/2000/svg" xmlns:xlink="http://www.w3.org/1999/xlink" version="1.1" width="158" height="80" viewBox="0 0 158 80">
<defs>
<path id="font_1_2" d="M.33399964 .30233766C.33999635 .32835389 .36299134 .42037965 .43299867 .42037965 .43798829 .42037965 .46199037 .42037965 .48298646 .40734864 .45498658 .402359 .43499757 .37734986 .43499757 .35334779 .43499757 .33735658 .44599916 .31835938 .47299195 .31835938 .49499513 .31835938 .5269928 .3363495 .5269928 .37635804 .5269928 .42837525 .46798707 .4423828 .43399049 .4423828 .37599183 .4423828 .34098817 .38935853 .32899476 .36634828 .3039856 .43237306 .25 .4423828 .22099304 .4423828 .116989139 .4423828 .05999756 .3133545 .05999756 .28834535 .05999756 .27833558 .069992069 .27833558 .07199097 .27833558 .07998657 .27833558 .08299255 .28033448 .084991458 .28933717 .11898804 .39535523 .18499756 .42037965 .21899414 .42037965 .23799134 .42037965 .272995 .4113617 .272995 .35334779 .272995 .32235719 .2559967 .25532533 .21899414 .11528015 .20298767 .053268434 .16799927 .011245728 .12399292 .011245728 .117996219 .011245728 .09498596 .011245728 .07398987 .024276734 .09899902 .029266358 .12098694 .05027771 .12098694 .07827759 .12098694 .105270389 .09899902 .11328125 .083999637 .11328125 .053985597 .11328125 .0289917 .08728027 .0289917 .055267335 .0289917 .009246826 .07899475-.0107421879 .12298584-.0107421879 .18899536-.0107421879 .22499085 .059280397 .22799683 .0652771 .23999024 .028274537 .27598573-.0107421879 .33599855-.0107421879 .43899537-.0107421879 .49598695 .118270877 .49598695 .14328003 .49598695 .1532898 .4869995 .1532898 .48399354 .1532898 .47499085 .1532898 .47299195 .14929199 .47099305 .14228821 .43798829 .03527832 .36999513 .011245728 .33799745 .011245728 .29899598 .011245728 .2829895 .043273927 .2829895 .07727051 .2829895 .09927368 .2889862 .121276859 .2999878 .16529846L.33399964 .30233766Z"/>
<path id="font_1_3" d="M.48599244 .38136292C.48999024 .39537049 .48999024 .39736939 .48999024 .40437318 .48999024 .42237855 .47599793 .43138124 .46099855 .43138124 .45098878 .43138124 .43499757 .42536927 .42599488 .41036988 .42399598 .405365 .41600038 .37435914 .4119873 .35635377 .40499879 .33035279 .397995 .30334474 .3919983 .27633668L.34700013 .09628296C.34298707 .08126831 .2999878 .011245728 .23399353 .011245728 .18299866 .011245728 .17199707 .055267335 .17199707 .0922699 .17199707 .1382904 .18899536 .20030213 .22299195 .28833009 .23899842 .3293457 .24299622 .3403473 .24299622 .36035157 .24299622 .405365 .21099854 .4423828 .16099549 .4423828 .06599426 .4423828 .0289917 .29733277 .0289917 .28833009 .0289917 .27833558 .038986207 .27833558 .040985109 .27833558 .050994874 .27833558 .051986696 .28033448 .056991579 .29634095 .083999637 .3903656 .12399292 .42037965 .1579895 .42037965 .1659851 .42037965 .18299866 .42037965 .18299866 .3883667 .18299866 .36335755 .17298889 .3373413 .1659851 .31834413 .12599182 .21231079 .10798645 .1552887 .10798645 .10827637 .10798645 .019256592 .17098999-.0107421879 .22999573-.0107421879 .2689972-.0107421879 .30299378 .0062561037 .33099366 .03425598 .31799317-.017745972 .30599977-.06674194 .2659912-.11973572 .23999024-.15385437 .20199585-.18309021 .1559906-.18309021 .14199829-.18309021 .09700012-.18005371 .07998657-.14074707 .09599304-.14074707 .10899353-.14074707 .12298584-.1287384 .1329956-.11973572 .14299011-.10673523 .14299011-.08773804 .14299011-.056747438 .115997318-.052734376 .10598755-.052734376 .08299255-.052734376 .049987794-.068740848 .049987794-.11773682 .049987794-.16796875 .09399414-.20507813 .1559906-.20507813 .25898744-.20507813 .3619995-.11373901 .3899994-.00074768069L.48599244 .38136292Z"/>
<path id="font_2_64" d="M.27598573 .18710327V.24511719H.010986328V.18710327H.27598573Z"/>
<path id="font_2_107" d="M.44898988 .17396546H.42399598C.4189911 .14398194 .4119873 .099990848 .4019928 .084991458 .394989 .07699585 .32899476 .07699585 .30699159 .07699585H.1269989L.23298645 .17996216C.3889923 .31803895 .44898988 .37210084 .44898988 .47216798 .44898988 .5860901 .35899354 .6660156 .23699951 .6660156 .12399292 .6660156 .049987794 .57411196 .049987794 .48516847 .049987794 .4291687 .099990848 .4291687 .102996829 .4291687 .11999512 .4291687 .15499878 .44117738 .15499878 .48217774 .15499878 .5081787 .13699341 .5341797 .101989749 .5341797 .09399414 .5341797 .09199524 .5341797 .08898926 .5331726 .11199951 .59806826 .1659851 .63500979 .22399903 .63500979 .31498719 .63500979 .35798646 .5541382 .35798646 .47216798 .35798646 .39196778 .30799867 .31297303 .25299073 .25097657L.06098938 .036987306C.049987794 .025985718 .049987794 .023986817 .049987794 0H.42099L.44898988 .17396546Z"/>
<path id="font_2_57" d="M.47099305 .16503906V.19602967H.37098695V.6507721C.37098695 .6707611 .37098695 .6767578 .35499574 .6767578 .34599305 .6767578 .34298707 .6767578 .33499146 .6647644L.027999878 .19602967V.16503906H.2939911V.07800293C.2939911 .041992189 .2919922 .0309906 .21798706 .0309906H.19699097V0C.23799134 .0029907227 .2899933 .0029907227 .33198548 .0029907227 .37399293 .0029907227 .4269867 .0029907227 .46798707 0V.0309906H.44699098C.37298585 .0309906 .37098695 .041992189 .37098695 .07800293V.16503906H.47099305M.2999878 .19602967H.055999757L.2999878 .56881716V.19602967Z"/>
<path id="font_2_101" d="M.45700074 .2036438C.45700074 .33070375 .36799623 .4267578 .25698854 .4267578 .18899536 .4267578 .1519928 .37573243 .13198853 .327713V.35173036C.13198853 .6047821 .2559967 .64100649 .30699159 .64100649 .33099366 .64100649 .37298585 .634964 .394989 .6007538 .37998963 .6007538 .33999635 .6007538 .33999635 .5557556 .33999635 .524765 .3639984 .5097656 .38598634 .5097656 .4019928 .5097656 .43199159 .51875308 .43199159 .5577545 .43199159 .6178589 .3880005 .6660156 .30499269 .6660156 .1769867 .6660156 .041992189 .5367584 .041992189 .31570436 .041992189 .048553468 .1579895-.022460938 .25099183-.022460938 .3619995-.022460938 .45700074 .07156372 .45700074 .2036438M.36698915 .20463562C.36698915 .15661621 .36698915 .10658264 .34999085 .0705719 .31999208 .010528564 .27398683 .0055389406 .25099183 .0055389406 .18798828 .0055389406 .1579895 .06556702 .1519928 .080566409 .13398743 .127594 .13398743 .2076416 .13398743 .22564698 .13398743 .30369569 .1659851 .40374757 .2559967 .40374757 .27198792 .40374757 .31799317 .40374757 .34899903 .34172059 .36698915 .30470277 .36698915 .2536621 .36698915 .20463562Z"/>
<path id="font_3_2" d="M.68699648 .32714845C.70199587 .32714845 .72099307 .32714845 .72099307 .34713746 .72099307 .36714173 .70199587 .36714173 .6879883 .36714173H.08898926C.07499695 .36714173 .055999757 .36714173 .055999757 .34713746 .055999757 .32714845 .07499695 .32714845 .08999634 .32714845H.68699648M.6879883 .13284302C.70199587 .13284302 .72099307 .13284302 .72099307 .15284729 .72099307 .17285156 .70199587 .17285156 .68699648 .17285156H.08999634C.07499695 .17285156 .055999757 .17285156 .055999757 .15284729 .055999757 .13284302 .07499695 .13284302 .08898926 .13284302H.6879883Z"/>
<path id="font_3_3" d="M.116989139 .21801758C.116989139 .38093568 .19898987 .42323304 .2519989 .42323304 .26098634 .42323304 .32398988 .42222596 .35899354 .38594056 .31799317 .38293458 .31199647 .3529358 .31199647 .3399353 .31199647 .31393434 .32998658 .2939453 .35798646 .2939453 .38398744 .2939453 .4039917 .3109436 .4039917 .34094239 .4039917 .40911866 .32798768 .4482422 .25099183 .4482422 .12599182 .4482422 .033996583 .3399353 .033996583 .21601868 .033996583 .08816528 .1329956-.0107421879 .24899292-.0107421879 .3829956-.0107421879 .4149933 .10914612 .4149933 .119140628 .4149933 .12911988 .40499879 .12911988 .4019928 .12911988 .3929901 .12911988 .3909912 .12512207 .3889923 .119140628 .3600006 .026229859 .29499818 .014251709 .2579956 .014251709 .20498657 .014251709 .116989139 .0572052 .116989139 .21801758Z"/>
<path id="font_3_4" d="M.47099305 .21424866C.47099305 .34223939 .37098695 .4482422 .25 .4482422 .125 .4482422 .027999878 .3392334 .027999878 .21424866 .027999878 .085250858 .13198853-.0107421879 .24899292-.0107421879 .36999513-.0107421879 .47099305 .087249759 .47099305 .21424866M.25 .014251709C.20698548 .014251709 .16299439 .035247804 .13598633 .08125305 .11099243 .12524414 .11099243 .18624878 .11099243 .22224427 .11099243 .26124574 .11099243 .31523133 .1349945 .35923768 .1619873 .40522767 .20899964 .426239 .24899292 .426239 .29299928 .426239 .33599855 .40423585 .3619995 .36123658 .3880005 .3182373 .3880005 .26023866 .3880005 .22224427 .3880005 .18624878 .3880005 .13224793 .3659973 .08824158 .34399415 .04324341 .2999878 .014251709 .25 .014251709Z"/>
<path id="font_3_5" d="M.20799256 .19424439C.22999573 .19024658 .31199647 .17424011 .31199647 .102249149 .31199647 .051254274 .2769928 .011245728 .19898987 .011245728 .114990238 .011245728 .07899475 .06825256 .05999756 .15324402 .056991579 .1662445 .055999757 .17024231 .04598999 .17024231 .032989503 .17024231 .032989503 .16323853 .032989503 .14524842V.013244629C.032989503-.003753662 .032989503-.0107421879 .04399109-.0107421879 .04899597-.0107421879 .049987794-.009750366 .068984989 .009246826 .070999149 .011245728 .070999149 .013244629 .08898926 .03224182 .1329956-.009750366 .17799378-.0107421879 .19898987-.0107421879 .31399537-.0107421879 .3600006 .056243898 .3600006 .12825012 .3600006 .1812439 .32998658 .21124268 .31799317 .22323609 .2849884 .25523377 .24598694 .26324464 .20399475 .27124024 .147995 .28224183 .08099365 .2952423 .08099365 .35324098 .08099365 .38822938 .10699463 .42922975 .19299317 .42922975 .30299378 .42922975 .30799867 .3392334 .30999757 .3082428 .31098939 .2992401 .31999208 .2992401 .32199098 .2992401 .33499146 .2992401 .33499146 .304245 .33499146 .3232422V.4242401C.33499146 .4412384 .33499146 .4482422 .32398988 .4482422 .31900025 .4482422 .31698609 .4482422 .3039856 .43623353 .30099488 .43223573 .29100038 .42323304 .2869873 .42022706 .24899292 .4482422 .20799256 .4482422 .19299317 .4482422 .070999149 .4482422 .032989503 .38124085 .032989503 .3252411 .032989503 .29023744 .04899597 .26223756 .07598877 .24023438 .10798645 .21424866 .13598633 .2082367 .20799256 .19424439Z"/>
<path id="font_1_1" d="M.2649994 .37265016H.37799073C.34498597 .22489929 .33599855 .18196106 .33599855 .11508179 .33599855 .100097659 .33599855 .073150638 .34399415 .03919983 .35398866-.0047454836 .36499024-.0107421879 .37998963-.0107421879 .3999939-.0107421879 .42099 .007247925 .42099 .02722168 .42099 .033218385 .42099 .035202028 .4149933 .049179079 .38598634 .12106323 .38598634 .18595886 .38598634 .21391297 .38598634 .26683045 .3929901 .32073976 .4039917 .37265016H.5179901C.5309906 .37265016 .5669861 .37265016 .5669861 .406662 .5669861 .43066407 .54599 .43066407 .5269928 .43066407H.19198609C.16999817 .43066407 .13198853 .43066407 .08799744 .38365174 .052993776 .34469605 .026992798 .29878236 .026992798 .29379273 .026992798 .29278565 .026992798 .28379823 .038986207 .28379823 .04699707 .28379823 .04899597 .28779603 .054992677 .29577638 .10398865 .37265016 .1619873 .37265016 .18199158 .37265016H.23899842C.20698548 .25186158 .15299988 .13105774 .11099243 .04020691 .102996829 .025222779 .102996829 .023223877 .102996829 .016235352 .102996829-.002746582 .11898804-.0107421879 .13198853-.0107421879 .1619873-.0107421879 .16999817 .017242432 .18199158 .05418396 .19599915 .100097659 .19599915 .10209656 .20899964 .15202332L.2649994 .37265016Z"/>
<path id="font_3_1" d="M.2939911 .64004519C.2939911 .66400149 .2939911 .6660156 .2709961 .6660156 .20899964 .60227969 .12098694 .60227969 .08898926 .60227969V.57128909C.10899353 .57128909 .16799927 .57128909 .21998596 .5972748V.07902527C.21998596 .042999269 .21699524 .0309906 .1269989 .0309906H.09498596V0C.12998963 .0029907227 .21699524 .0029907227 .25698854 .0029907227 .29699708 .0029907227 .38398744 .0029907227 .4189911 0V.0309906H.3869934C.29699708 .0309906 .2939911 .041992189 .2939911 .07902527V.64004519Z"/>
<path id="font_4_1" d="M.6589966 .23046875C.6759949 .23046875 .69400027 .23046875 .69400027 .25045777 .69400027 .27046205 .6759949 .27046205 .6589966 .27046205H.117996219C.100997928 .27046205 .08299255 .27046205 .08299255 .25045777 .08299255 .23046875 .100997928 .23046875 .117996219 .23046875H.6589966Z"/>
</defs>
<path transform="matrix(1.00006,0,0,-1.00006,16.213067,47.302057)" stroke-width=".3985" stroke-linecap="butt" stroke-miterlimit="10" stroke-linejoin="miter" fill="none" stroke="#00aeef" d="M0-28.3468H124.67497M0-14.17339H124.67497M0 0H124.67497M0 14.17339H124.67497M0 28.34181H124.67497M0-28.3468V28.3468M9.92133-28.3468V28.3468M19.84265-28.3468V28.3468M29.76399-28.3468V28.3468M39.68532-28.3468V28.3468M49.60666-28.3468V28.3468M59.52798-28.3468V28.3468M69.44934-28.3468V28.3468M79.37067-28.3468V28.3468M89.292-28.3468V28.3468M99.21333-28.3468V28.3468M109.13467-28.3468V28.3468M119.056-28.3468V28.3468M124.67497 28.3468"/>
<path transform="matrix(1.00006,0,0,-1.00006,16.213067,47.302057)" stroke-width=".79701" stroke-linecap="butt" stroke-miterlimit="10" stroke-linejoin="miter" fill="none" stroke="#000000" d="M0 0H129.52718"/>
<path transform="matrix(1.00006,0,0,-1.00006,145.74802,47.302057)" d="M1.0361 0C-.25902 .25902-1.55415 .77707-3.1083 1.68365-1.55415 .51805-1.55415-.51805-3.1083-1.68365-1.55415-.77707-.25902-.25902 1.0361 0Z"/>
<path transform="matrix(1.00006,0,0,-1.00006,145.74802,47.302057)" stroke-width=".79701" stroke-linecap="butt" stroke-linejoin="round" fill="none" stroke="#000000" d="M1.0361 0C-.25902 .25902-1.55415 .77707-3.1083 1.68365-1.55415 .51805-1.55415-.51805-3.1083-1.68365-1.55415-.77707-.25902-.25902 1.0361 0Z"/>
<use data-text="x" xlink:href="#font_1_2" transform="matrix(9.963197,0,0,-9.963197,150.90213,49.44718)"/>
<path transform="matrix(1.00006,0,0,-1.00006,16.213067,47.302057)" stroke-width=".79701" stroke-linecap="butt" stroke-miterlimit="10" stroke-linejoin="miter" fill="none" stroke="#000000" d="M0-28.3468V33.99889"/>
<path transform="matrix(0,-1.00006,-1.00006,-0,16.213067,13.301128)" d="M1.0361 0C-.25902 .25902-1.55415 .77707-3.1083 1.68365-1.55415 .51805-1.55415-.51805-3.1083-1.68365-1.55415-.77707-.25902-.25902 1.0361 0Z"/>
<path transform="matrix(0,-1.00006,-1.00006,-0,16.213067,13.301128)" stroke-width=".79701" stroke-linecap="butt" stroke-linejoin="round" fill="none" stroke="#000000" d="M1.0361 0C-.25902 .25902-1.55415 .77707-3.1083 1.68365-1.55415 .51805-1.55415-.51805-3.1083-1.68365-1.55415-.77707-.25902-.25902 1.0361 0Z"/>
<use data-text="y" xlink:href="#font_1_3" transform="matrix(9.963197,0,0,-9.963197,13.591911,6.209591)"/>
<path transform="matrix(1.00006,0,0,-1.00006,16.213067,47.302057)" stroke-width=".79701" stroke-linecap="butt" stroke-miterlimit="10" stroke-linejoin="miter" fill="none" stroke="#000000" d="M2.97627-28.3468H-2.97658"/>
<use data-text="-" xlink:href="#font_2_64" transform="matrix(9.963197,0,0,-9.963197,1.2171631,78.96796)"/>
<use data-text="2" xlink:href="#font_2_107" transform="matrix(9.963197,0,0,-9.963197,4.534912,78.96796)"/>
<path transform="matrix(1.00006,0,0,-1.00006,16.213067,47.302057)" stroke-width=".79701" stroke-linecap="butt" stroke-miterlimit="10" stroke-linejoin="miter" fill="none" stroke="#000000" d="M2.97627 28.3468H-2.97658"/>
<use data-text="2" xlink:href="#font_2_107" transform="matrix(9.963197,0,0,-9.963197,4.53537,22.271555)"/>
<path transform="matrix(1.00006,0,0,-1.00006,16.213067,47.302057)" stroke-width=".79701" stroke-linecap="butt" stroke-miterlimit="10" stroke-linejoin="miter" fill="none" stroke="#000000" d="M39.68535 .99222V-.99202"/>
<path transform="matrix(1.00006,0,0,-1.00006,16.213067,47.302057)" d="M36.19838-13.00711H43.172319V-4.3793594H36.19838Z" fill="#ffffff"/>
<use data-text="2" xlink:href="#font_2_107" transform="matrix(9.963197,0,0,-9.963197,53.410299,59.313776)"/>
<path transform="matrix(1.00006,0,0,-1.00006,16.213067,47.302057)" stroke-width=".79701" stroke-linecap="butt" stroke-miterlimit="10" stroke-linejoin="miter" fill="none" stroke="#000000" d="M79.37071 .99222V-.99202"/>
<path transform="matrix(1.00006,0,0,-1.00006,16.213067,47.302057)" d="M75.88374-13.11668H82.85768V-4.37934H75.88374Z" fill="#ffffff"/>
<use data-text="4" xlink:href="#font_2_57" transform="matrix(9.963197,0,0,-9.963197,93.09767,59.422784)"/>
<path transform="matrix(1.00006,0,0,-1.00006,16.213067,47.302057)" stroke-width=".79701" stroke-linecap="butt" stroke-miterlimit="10" stroke-linejoin="miter" fill="none" stroke="#000000" d="M119.05606 .99222V-.99202"/>
<path transform="matrix(1.00006,0,0,-1.00006,16.213067,47.302057)" d="M115.56909-13.22626H122.54303V-4.3793499H115.56909Z" fill="#ffffff"/>
<use data-text="6" xlink:href="#font_2_101" transform="matrix(9.963197,0,0,-9.963197,132.78507,59.313776)"/>
<path transform="matrix(1.00006,0,0,-1.00006,16.213067,47.302057)" stroke-width=".79701" stroke-linecap="butt" stroke-miterlimit="10" stroke-linejoin="miter" fill="none" stroke="#ff0000" d="M0 14.17339C0 14.17339 3.75317 13.95374 5.19469 13.69025 6.6362 13.42676 8.9479 12.78331 10.3894 12.27432 11.83092 11.76537 14.14262 10.74167 15.58414 10.0219 17.02563 9.30211 19.33734 7.96823 20.77884 7.08669 22.22034 6.20515 24.53204 4.65157 25.97356 3.66833 27.41505 2.6851 29.72676 1.01807 31.16827 .0002 32.60979-1.01764 34.9215-2.6845 36.36299-3.6677 37.8045-4.6509 40.1162-6.20447 41.55771-7.08604 42.9992-7.9676 45.31091-9.30165 46.75241-10.02145 48.19392-10.74126 50.50563-11.7649 51.94714-12.2739 53.38864-12.7829 55.70033-13.42651 57.14185-13.69003 58.58336-13.95355 60.89507-14.17311 62.33656-14.17317 63.77806-14.17322 66.08977-13.95386 67.53128-13.69048 68.97278-13.42706 71.28448-12.78369 72.726-12.27477 74.16751-11.76585 76.4792-10.7423 77.92072-10.02254 79.36221-9.3028 81.67392-7.96887 83.11543-7.08734 84.55695-6.2058 86.86864-4.65219 88.31013-3.66899 89.75165-2.68579 92.06334-1.01892 93.50485-.00107 94.94637 1.01675 97.25807 2.68378 98.69957 3.66704 100.14108 4.65031 102.45279 6.20404 103.8943 7.0856 105.3358 7.96718 107.64749 9.30098 109.089 10.0208 110.53052 10.74063 112.84221 11.76462 114.2837 12.2737 115.72522 12.78275 118.03693 13.42625 119.47844 13.68982 120.91994 13.95335 124.67316 14.17317 124.67316 14.17317"/>
<path transform="matrix(1.00006,0,0,-1.00006,16.213067,47.302057)" stroke-width=".79701" stroke-linecap="butt" stroke-miterlimit="10" stroke-linejoin="miter" fill="none" stroke="#0000ff" d="M0 14.17339C0 14.17339 3.75317 11.75572 5.19469 9.64365 6.6362 7.53154 8.9479 1.82506 10.3894-1.04912 11.83092-3.9233 14.14262-9.27216 15.58414-11.07144 17.02563-12.87074 19.33734-14.44286 20.77884-14.01726 22.22034-13.59163 24.53204-10.38232 25.97356-8.00388 27.41505-5.62546 29.72676 .31372 31.16827 3.12485 32.60979 5.93599 34.9215 10.80965 36.36299 12.25682 37.8045 13.70398 40.1162 14.39696 41.55771 13.55508 42.9992 12.71321 45.31091 8.78195 46.75241 6.18918 48.19392 3.5964 50.50563-2.44536 51.94714-5.13184 53.38864-7.81833 55.70033-12.10995 57.14185-13.17314 58.58336-14.23636 60.89507-14.03435 62.33656-12.79468 63.77806-11.55501 66.08977-6.98859 67.53128-4.23842 68.97278-1.48827 71.28448 4.52364 72.726 7.02657 74.16751 9.5295 76.4792 13.14496 77.92072 13.80096 79.36221 14.45699 81.67392 13.36497 83.11543 11.75464 84.55695 10.14429 86.86864 5.04207 88.31013 2.19469 89.75165-.65268 92.06334-6.50287 93.50485-8.7673 94.94637-11.03175 97.25807-13.89151 98.69957-14.12581 100.14108-14.3601 102.45279-12.40158 103.8943-10.45595 105.3358-8.51028 107.64749-2.98492 109.089-.10292 110.53052 2.77905 112.84221 8.33923 114.2837 10.31558 115.72522 12.29192 118.03693 14.33359 119.47844 14.14116 120.91994 13.94873 124.67316 8.92865 124.67316 8.92865"/>
<path transform="matrix(1.00006,0,0,-1.00006,16.213067,47.302057)" stroke-width=".79701" stroke-linecap="butt" stroke-miterlimit="10" stroke-linejoin="miter" fill="none" stroke="#00b300" d="M0 0C0 0 3.75317 2.41763 5.19469 4.52974 6.6362 6.64183 8.9479 12.34833 10.3894 15.2225 11.83092 18.09668 14.14262 23.44554 15.58414 25.24486 17.02563 27.04414 19.33734 28.61627 20.77884 28.19064 22.22034 27.76505 24.53204 24.55573 25.97356 22.17729 27.41505 19.79886 29.72676 13.85965 31.16827 11.04852 32.60979 8.23738 34.9215 3.36374 36.36299 1.91656 37.8045 .4694 40.1162-.22356 41.55771 .6183 42.9992 1.46017 45.31091 5.39143 46.75241 7.9842 48.19392 10.57698 50.50563 16.61874 51.94714 19.30524 53.38864 21.99171 55.70033 26.28334 57.14185 27.34656 58.58336 28.40976 60.89507 28.20775 62.33656 26.96808 63.77806 25.7284 66.08977 21.16199 67.53128 18.41182 68.97278 15.66167 71.28448 9.64975 72.726 7.1468 74.16751 4.64388 76.4792 1.02841 77.92072 .37239 79.36221-.28358 81.67392 .8084 83.11543 2.41873 84.55695 4.02908 86.86864 9.1313 88.31013 11.9787 89.75165 14.82607 92.06334 20.67628 93.50485 22.94072 94.94637 25.20515 97.25807 28.06493 98.69957 28.29922 100.14108 28.53351 102.45279 26.575 103.8943 24.62933 105.3358 22.6837 107.64749 17.15834 109.089 14.27634 110.53052 11.39432 112.84221 5.83414 114.2837 3.8578 115.72522 1.88145 118.03693-.16019 119.47844 .03221 120.91994 .22462 124.67316 5.24472 124.67316 5.24472"/>
<path transform="matrix(1.00006,0,0,-1.00006,16.213067,47.302057)" stroke-width=".3985" stroke-linecap="butt" stroke-miterlimit="10" stroke-linejoin="miter" fill="none" stroke="#ff0000" d="M104.20834 10.19498 95.24492 12.75595"/>
<path transform="matrix(.9615576,.27470649,.27470649,-.9615576,120.42766,37.106454)" d="M.797 0C-.19925 .19925-1.19551 .59775-2.39102 1.29512-1.19551 .3985-1.19551-.3985-2.39102-1.29512-1.19551-.59775-.19925-.19925 .797 0Z" fill="#ff0000"/>
<path transform="matrix(.9615576,.27470649,.27470649,-.9615576,120.42766,37.106454)" stroke-width=".3985" stroke-linecap="butt" stroke-linejoin="round" fill="none" stroke="#ff0000" d="M.797 0C-.19925 .19925-1.19551 .59775-2.39102 1.29512-1.19551 .3985-1.19551-.3985-2.39102-1.29512-1.19551-.59775-.19925-.19925 .797 0Z"/>
<path transform="matrix(1.00006,0,0,-1.00006,16.213067,47.302057)" d="M53.83408 8.64633H95.045658V16.86558H53.83408Z" fill="#ffffff"/>
<use data-text="y" xlink:href="#font_1_3" transform="matrix(9.963197,0,0,-9.963197,71.04636,35.72136)" fill="#ff0000"/>
<use data-text="=" xlink:href="#font_3_2" transform="matrix(9.963197,0,0,-9.963197,79.05584,35.72136)" fill="#ff0000"/>
<use data-text="c" xlink:href="#font_3_3" transform="matrix(9.963197,0,0,-9.963197,89.55706,35.72136)" fill="#ff0000"/>
<use data-text="o" xlink:href="#font_3_4" transform="matrix(9.963197,0,0,-9.963197,93.98072,35.72136)" fill="#ff0000"/>
<use data-text="s" xlink:href="#font_3_5" transform="matrix(9.963197,0,0,-9.963197,98.96231,35.72136)" fill="#ff0000"/>
<use data-text="x" xlink:href="#font_1_2" transform="matrix(9.963197,0,0,-9.963197,104.57236,35.72136)" fill="#ff0000"/>
<path transform="matrix(1.00006,0,0,-1.00006,16.213067,47.302057)" stroke-width=".3985" stroke-linecap="butt" stroke-miterlimit="10" stroke-linejoin="miter" fill="none" stroke="#0000ff" d="M24.62177-16.16985 29.764-19.84288"/>
<path transform="matrix(-.8137188,-.5812349,-.5812349,.8137188,40.836324,63.472875)" d="M.797 0C-.19925 .19925-1.19551 .59775-2.39102 1.29512-1.19551 .3985-1.19551-.3985-2.39102-1.29512-1.19551-.59775-.19925-.19925 .797 0Z" fill="#0000ff"/>
<path transform="matrix(-.8137188,-.5812349,-.5812349,.8137188,40.836324,63.472875)" stroke-width=".3985" stroke-linecap="butt" stroke-linejoin="round" fill="none" stroke="#0000ff" d="M.797 0C-.19925 .19925-1.19551 .59775-2.39102 1.29512-1.19551 .3985-1.19551-.3985-2.39102-1.29512-1.19551-.59775-.19925-.19925 .797 0Z"/>
<path transform="matrix(1.00006,0,0,-1.00006,16.213067,47.302057)" d="M29.96326-28.26138H77.21134V-20.04213H29.96326Z" fill="#ffffff"/>
<use data-text="y" xlink:href="#font_1_3" transform="matrix(9.963197,0,0,-9.963197,47.17492,72.63158)" fill="#0000ff"/>
<use data-text="=" xlink:href="#font_3_2" transform="matrix(9.963197,0,0,-9.963197,55.184404,72.63158)" fill="#0000ff"/>
<use data-text="c" xlink:href="#font_3_3" transform="matrix(9.963197,0,0,-9.963197,65.68562,72.63158)" fill="#0000ff"/>
<use data-text="o" xlink:href="#font_3_4" transform="matrix(9.963197,0,0,-9.963197,70.10928,72.63158)" fill="#0000ff"/>
<use data-text="s" xlink:href="#font_3_5" transform="matrix(9.963197,0,0,-9.963197,75.09087,72.63158)" fill="#0000ff"/>
<use data-text="&#x03c0;" xlink:href="#font_1_1" transform="matrix(9.963197,0,0,-9.963197,80.70092,72.63158)" fill="#0000ff"/>
<use data-text="x" xlink:href="#font_1_2" transform="matrix(9.963197,0,0,-9.963197,86.72866,72.63158)" fill="#0000ff"/>
<path transform="matrix(1.00006,0,0,-1.00006,16.213067,47.302057)" stroke-width=".3985" stroke-linecap="butt" stroke-miterlimit="10" stroke-linejoin="miter" fill="none" stroke="#00b300" d="M27.74562 24.36838 36.70906 26.92937"/>
<path transform="matrix(-.9615576,.27470649,.27470649,.9615576,43.96035,22.932194)" d="M.797 0C-.19925 .19925-1.19551 .59775-2.39102 1.29512-1.19551 .3985-1.19551-.3985-2.39102-1.29512-1.19551-.59775-.19925-.19925 .797 0Z" fill="#00b300"/>
<path transform="matrix(-.9615576,.27470649,.27470649,.9615576,43.96035,22.932194)" stroke-width=".3985" stroke-linecap="butt" stroke-linejoin="round" fill="none" stroke="#00b300" d="M.797 0C-.19925 .19925-1.19551 .59775-2.39102 1.29512-1.19551 .3985-1.19551-.3985-2.39102-1.29512-1.19551-.59775-.19925-.19925 .797 0Z"/>
<path transform="matrix(1.00006,0,0,-1.00006,16.213067,47.302057)" d="M36.90831 21.75427H101.31444V32.10447H36.90831Z" fill="#ffffff"/>
<use data-text="y" xlink:href="#font_1_3" transform="matrix(9.963197,0,0,-9.963197,54.12034,22.612576)" fill="#00b300"/>
<use data-text="=" xlink:href="#font_3_2" transform="matrix(9.963197,0,0,-9.963197,62.12982,22.612576)" fill="#00b300"/>
<use data-text="1" xlink:href="#font_3_1" transform="matrix(9.963197,0,0,-9.963197,72.63104,22.612576)" fill="#00b300"/>
<use data-text="&#x2212;" xlink:href="#font_4_1" transform="matrix(9.963197,0,0,-9.963197,79.84189,22.612576)" fill="#00b300"/>
<use data-text="c" xlink:href="#font_3_3" transform="matrix(9.963197,0,0,-9.963197,89.80549,22.612576)" fill="#00b300"/>
<use data-text="o" xlink:href="#font_3_4" transform="matrix(9.963197,0,0,-9.963197,94.22915,22.612576)" fill="#00b300"/>
<use data-text="s" xlink:href="#font_3_5" transform="matrix(9.963197,0,0,-9.963197,99.21075,22.612576)" fill="#00b300"/>
<use data-text="&#x03c0;" xlink:href="#font_1_1" transform="matrix(9.963197,0,0,-9.963197,104.80538,22.612576)" fill="#00b300"/>
<use data-text="x" xlink:href="#font_1_2" transform="matrix(9.963197,0,0,-9.963197,110.83312,22.612576)" fill="#00b300"/>
</svg>
