<svg xmlns="http://www.w3.org/2000/svg" xmlns:xlink="http://www.w3.org/1999/xlink" version="1.1" width="155" height="86" viewBox="0 0 155 86">
<defs>
<path id="font_1_2" d="M.33399964 .30233766C.33999635 .32835389 .36299134 .42037965 .43299867 .42037965 .43798829 .42037965 .46199037 .42037965 .48298646 .40734864 .45498658 .402359 .43499757 .37734986 .43499757 .35334779 .43499757 .33735658 .44599916 .31835938 .47299195 .31835938 .49499513 .31835938 .5269928 .3363495 .5269928 .37635804 .5269928 .42837525 .46798707 .4423828 .43399049 .4423828 .37599183 .4423828 .34098817 .38935853 .32899476 .36634828 .3039856 .43237306 .25 .4423828 .22099304 .4423828 .116989139 .4423828 .05999756 .3133545 .05999756 .28834535 .05999756 .27833558 .069992069 .27833558 .07199097 .27833558 .07998657 .27833558 .08299255 .28033448 .084991458 .28933717 .11898804 .39535523 .18499756 .42037965 .21899414 .42037965 .23799134 .42037965 .272995 .4113617 .272995 .35334779 .272995 .32235719 .2559967 .25532533 .21899414 .11528015 .20298767 .053268434 .16799927 .011245728 .12399292 .011245728 .117996219 .011245728 .09498596 .011245728 .07398987 .024276734 .09899902 .029266358 .12098694 .05027771 .12098694 .07827759 .12098694 .105270389 .09899902 .11328125 .083999637 .11328125 .053985597 .11328125 .0289917 .08728027 .0289917 .055267335 .0289917 .009246826 .07899475-.0107421879 .12298584-.0107421879 .18899536-.0107421879 .22499085 .059280397 .22799683 .0652771 .23999024 .028274537 .27598573-.0107421879 .33599855-.0107421879 .43899537-.0107421879 .49598695 .118270877 .49598695 .14328003 .49598695 .1532898 .4869995 .1532898 .48399354 .1532898 .47499085 .1532898 .47299195 .14929199 .47099305 .14228821 .43798829 .03527832 .36999513 .011245728 .33799745 .011245728 .29899598 .011245728 .2829895 .043273927 .2829895 .07727051 .2829895 .09927368 .2889862 .121276859 .2999878 .16529846L.33399964 .30233766Z"/>
<path id="font_1_3" d="M.48599244 .38136292C.48999024 .39537049 .48999024 .39736939 .48999024 .40437318 .48999024 .42237855 .47599793 .43138124 .46099855 .43138124 .45098878 .43138124 .43499757 .42536927 .42599488 .41036988 .42399598 .405365 .41600038 .37435914 .4119873 .35635377 .40499879 .33035279 .397995 .30334474 .3919983 .27633668L.34700013 .09628296C.34298707 .08126831 .2999878 .011245728 .23399353 .011245728 .18299866 .011245728 .17199707 .055267335 .17199707 .0922699 .17199707 .1382904 .18899536 .20030213 .22299195 .28833009 .23899842 .3293457 .24299622 .3403473 .24299622 .36035157 .24299622 .405365 .21099854 .4423828 .16099549 .4423828 .06599426 .4423828 .0289917 .29733277 .0289917 .28833009 .0289917 .27833558 .038986207 .27833558 .040985109 .27833558 .050994874 .27833558 .051986696 .28033448 .056991579 .29634095 .083999637 .3903656 .12399292 .42037965 .1579895 .42037965 .1659851 .42037965 .18299866 .42037965 .18299866 .3883667 .18299866 .36335755 .17298889 .3373413 .1659851 .31834413 .12599182 .21231079 .10798645 .1552887 .10798645 .10827637 .10798645 .019256592 .17098999-.0107421879 .22999573-.0107421879 .2689972-.0107421879 .30299378 .0062561037 .33099366 .03425598 .31799317-.017745972 .30599977-.06674194 .2659912-.11973572 .23999024-.15385437 .20199585-.18309021 .1559906-.18309021 .14199829-.18309021 .09700012-.18005371 .07998657-.14074707 .09599304-.14074707 .10899353-.14074707 .12298584-.1287384 .1329956-.11973572 .14299011-.10673523 .14299011-.08773804 .14299011-.056747438 .115997318-.052734376 .10598755-.052734376 .08299255-.052734376 .049987794-.068740848 .049987794-.11773682 .049987794-.16796875 .09399414-.20507813 .1559906-.20507813 .25898744-.20507813 .3619995-.11373901 .3899994-.00074768069L.48599244 .38136292Z"/>
<path id="font_2_1" d="M.6589966 .23046875C.6759949 .23046875 .69400027 .23046875 .69400027 .25045777 .69400027 .27046205 .6759949 .27046205 .6589966 .27046205H.117996219C.100997928 .27046205 .08299255 .27046205 .08299255 .25045777 .08299255 .23046875 .100997928 .23046875 .117996219 .23046875H.6589966Z"/>
<path id="font_3_1" d="M.1269989 .07699585 .23298645 .18003845C.3889923 .31811524 .44898988 .3721466 .44898988 .47216798 .44898988 .5860901 .35899354 .6660156 .23699951 .6660156 .12399292 .6660156 .049987794 .57411196 .049987794 .48516847 .049987794 .4291687 .099990848 .4291687 .102996829 .4291687 .11999512 .4291687 .15499878 .44117738 .15499878 .48217774 .15499878 .5081787 .13699341 .5341797 .101989749 .5341797 .09399414 .5341797 .09199524 .5341797 .08898926 .5331726 .11199951 .59806826 .1659851 .63500979 .22399903 .63500979 .31498719 .63500979 .35798646 .5541382 .35798646 .47216798 .35798646 .39215089 .30799867 .31311036 .25299073 .25108338L.06098938 .036987306C.049987794 .025985718 .049987794 .023986817 .049987794 0H.42099L.44898988 .17404175H.42399598C.4189911 .14402771 .4119873 .1000061 .4019928 .084991458 .394989 .07699585 .32899476 .07699585 .30699159 .07699585H.1269989Z"/>
<path id="font_1_1" d="M.2649994 .37265016H.37799073C.34498597 .22489929 .33599855 .18196106 .33599855 .11508179 .33599855 .100097659 .33599855 .073150638 .34399415 .03919983 .35398866-.0047454836 .36499024-.0107421879 .37998963-.0107421879 .3999939-.0107421879 .42099 .007247925 .42099 .02722168 .42099 .033218385 .42099 .035202028 .4149933 .049179079 .38598634 .12106323 .38598634 .18595886 .38598634 .21391297 .38598634 .26683045 .3929901 .32073976 .4039917 .37265016H.5179901C.5309906 .37265016 .5669861 .37265016 .5669861 .406662 .5669861 .43066407 .54599 .43066407 .5269928 .43066407H.19198609C.16999817 .43066407 .13198853 .43066407 .08799744 .38365174 .052993776 .34469605 .026992798 .29878236 .026992798 .29379273 .026992798 .29278565 .026992798 .28379823 .038986207 .28379823 .04699707 .28379823 .04899597 .28779603 .054992677 .29577638 .10398865 .37265016 .1619873 .37265016 .18199158 .37265016H.23899842C.20698548 .25186158 .15299988 .13105774 .11099243 .04020691 .102996829 .025222779 .102996829 .023223877 .102996829 .016235352 .102996829-.002746582 .11898804-.0107421879 .13198853-.0107421879 .1619873-.0107421879 .16999817 .017242432 .18199158 .05418396 .19599915 .100097659 .19599915 .10209656 .20899964 .15202332L.2649994 .37265016Z"/>
<path id="font_4_64" d="M.27598573 .18710327V.24511719H.010986328V.18710327H.27598573Z"/>
<path id="font_4_82" d="M.4189911 0V.0309906H.3869934C.29699708 .0309906 .2939911 .041992189 .2939911 .07902527V.64012148C.2939911 .6640167 .2939911 .6660156 .2709961 .6660156 .20899964 .60227969 .12098694 .60227969 .08898926 .60227969V.57128909C.10899353 .57128909 .16799927 .57128909 .21998596 .5972748V.07902527C.21998596 .042999269 .21699524 .0309906 .1269989 .0309906H.09498596V0C.12998963 .0029907227 .21699524 .0029907227 .25698854 .0029907227 .29699708 .0029907227 .38398744 .0029907227 .4189911 0Z"/>
<path id="font_4_106" d="M.45700074 .17037964C.45700074 .252594 .3939972 .33088685 .2899933 .35191346 .37199403 .37893678 .42999269 .4490509 .42999269 .52809146 .42999269 .6100464 .34199525 .6660156 .24598694 .6660156 .14498902 .6660156 .068984989 .60606387 .068984989 .53009036 .068984989 .49710084 .09098816 .47808839 .11999512 .47808839 .15098572 .47808839 .17098999 .50009158 .17098999 .5290985 .17098999 .57910159 .12399292 .57910159 .10899353 .57910159 .13999939 .62802127 .20599365 .64100649 .24198914 .64100649 .2829895 .64100649 .33799745 .6190338 .33799745 .5290985 .33799745 .51708987 .33599855 .45906068 .30999757 .4149933 .27999879 .36691285 .24598694 .36390687 .22099304 .36291505 .21299744 .36190797 .18899536 .35990907 .18199158 .35990907 .17399597 .35890199 .16699219 .35791017 .16699219 .3479004 .16699219 .33691407 .17399597 .33691407 .19099427 .33691407H.23498535C.31698609 .33691407 .35398866 .2686615 .35398866 .17037964 .35398866 .034469606 .2849884 .0055389406 .24099732 .0055389406 .19799805 .0055389406 .12298584 .022491456 .08799744 .08137512 .12298584 .07637024 .1539917 .09837341 .1539917 .1363678 .1539917 .17237854 .1269989 .19238281 .09799194 .19238281 .07398987 .19238281 .041992189 .17837525 .041992189 .1343689 .041992189 .043441774 .1349945-.022460938 .24398804-.022460938 .3659973-.022460938 .45700074 .06838989 .45700074 .17037964Z"/>
<path id="font_4_56" d="M.44898988 .20091248C.44898988 .31991578 .36698915 .41992188 .25898744 .41992188 .21099854 .41992188 .16799927 .4039154 .13198853 .36891175V.5641022C.1519928 .55778506 .18499756 .55078127 .21699524 .55078127 .33999635 .55078127 .4099884 .6418457 .4099884 .65493777 .4099884 .6609802 .40699769 .6660156 .3999939 .6660156 .3999939 .66607668 .39698792 .66607668 .3919983 .66308596 .37199403 .65408328 .32299806 .63378909 .2559967 .63378909 .21598816 .63409426 .16999817 .641098 .12298584 .6621094 .114990238 .6651001 .11099243 .6651001 .11099243 .6651001 .100997928 .66508486 .100997928 .657074 .100997928 .64108279V.3447113C.100997928 .3266449 .100997928 .31861878 .114990238 .31861878 .12199402 .31861878 .12399292 .32164 .12799073 .32765199 .13899231 .34371949 .17599488 .3979187 .25698854 .3979187 .30899049 .3979187 .33399964 .3517456 .34199525 .3336792 .35798646 .2965393 .3600006 .2574005 .3600006 .20721436 .3600006 .17218018 .3600006 .112197879 .33599855 .07032776 .31199647 .031448366 .2749939 .0055389406 .22898865 .0055389406 .1559906 .0055389406 .09899902 .05836487 .08198547 .1171875 .084991458 .11685181 .08799744 .115859989 .09899902 .115859989 .13198853 .115859989 .14898682 .14085388 .14898682 .16485596 .14898682 .18885803 .13198853 .21386719 .09899902 .21386719 .084991458 .21386719 .049987794 .2068634 .049987794 .16085816 .049987794 .07432556 .11898804-.022460938 .23098755-.022460938 .34700013-.022460938 .44898988 .07331848 .44898988 .20019531V.20091248Z"/>
</defs>
<path transform="matrix(1.00002,0,0,-1.00002,74.39516,71.05516)" stroke-width=".3985" stroke-linecap="butt" stroke-miterlimit="10" stroke-linejoin="miter" fill="none" stroke="#00aeef" d="M-64.11894-10.20485H64.11894M-64.11894 0H64.11894M-64.11894 10.20485H64.11894M-64.11894 20.40973H64.11894M-64.11894 30.6146H64.11894M-64.11894 40.81946H64.11894M-64.11894 51.02075H64.11894M-64.1186-10.20485V51.02432M-48.08896-10.20485V51.02432M-32.0593-10.20485V51.02432M-16.02965-10.20485V51.02432M0-10.20485V51.02432M16.02965-10.20485V51.02432M32.0593-10.20485V51.02432M48.08896-10.20485V51.02432M64.1186-10.20485V51.02432M64.11894 51.02432"/>
<path transform="matrix(1.00002,0,0,-1.00002,74.39516,71.05516)" stroke-width=".79701" stroke-linecap="butt" stroke-miterlimit="10" stroke-linejoin="miter" fill="none" stroke="#000000" d="M-64.11894 0H68.97891"/>
<path transform="matrix(1.00002,0,0,-1.00002,143.37546,71.05516)" d="M1.0361 0C-.25902 .25902-1.55415 .77707-3.1083 1.68365-1.55415 .51805-1.55415-.51805-3.1083-1.68365-1.55415-.77707-.25902-.25902 1.0361 0Z"/>
<path transform="matrix(1.00002,0,0,-1.00002,143.37546,71.05516)" stroke-width=".79701" stroke-linecap="butt" stroke-linejoin="round" fill="none" stroke="#000000" d="M1.0361 0C-.25902 .25902-1.55415 .77707-3.1083 1.68365-1.55415 .51805-1.55415-.51805-3.1083-1.68365-1.55415-.77707-.25902-.25902 1.0361 0Z"/>
<use data-text="x" xlink:href="#font_1_2" transform="matrix(9.962799,0,0,-9.962799,148.52965,73.2002)"/>
<path transform="matrix(1.00002,0,0,-1.00002,74.39516,71.05516)" stroke-width=".79701" stroke-linecap="butt" stroke-miterlimit="10" stroke-linejoin="miter" fill="none" stroke="#000000" d="M0-12.24579V57.75365"/>
<path transform="matrix(0,-1.00002,-1.00002,-0,74.39516,13.300354)" d="M1.0361 0C-.25902 .25902-1.55415 .77707-3.1083 1.68365-1.55415 .51805-1.55415-.51805-3.1083-1.68365-1.55415-.77707-.25902-.25902 1.0361 0Z"/>
<path transform="matrix(0,-1.00002,-1.00002,-0,74.39516,13.300354)" stroke-width=".79701" stroke-linecap="butt" stroke-linejoin="round" fill="none" stroke="#000000" d="M1.0361 0C-.25902 .25902-1.55415 .77707-3.1083 1.68365-1.55415 .51805-1.55415-.51805-3.1083-1.68365-1.55415-.77707-.25902-.25902 1.0361 0Z"/>
<use data-text="y" xlink:href="#font_1_3" transform="matrix(9.962799,0,0,-9.962799,71.7741,6.2088625)"/>
<path transform="matrix(1.00002,0,0,-1.00002,74.39516,71.05516)" stroke-width=".79701" stroke-linecap="butt" stroke-miterlimit="10" stroke-linejoin="miter" fill="none" stroke="#000000" d="M-64.11894 1.53065V-1.53082"/>
<path transform="matrix(1.00002,0,0,-1.00002,74.39516,71.05516)" d="M-74.49858-13.1651H-53.73932V-3.9218703H-74.49858Z" fill="#ffffff"/>
<use data-text="&#x2212;" xlink:href="#font_2_1" transform="matrix(9.962799,0,0,-9.962799,.8916931,82.39439)"/>
<use data-text="2" xlink:href="#font_3_1" transform="matrix(9.962799,0,0,-9.962799,8.640839,82.39439)"/>
<use data-text="&#x03c0;" xlink:href="#font_1_1" transform="matrix(9.962799,0,0,-9.962799,13.621933,82.39439)"/>
<path transform="matrix(1.00002,0,0,-1.00002,74.39516,71.05516)" stroke-width=".79701" stroke-linecap="butt" stroke-miterlimit="10" stroke-linejoin="miter" fill="none" stroke="#000000" d="M-32.05946 1.53065V-1.53082"/>
<path transform="matrix(1.00002,0,0,-1.00002,74.39516,71.05516)" d="M-39.94841-11.55998H-24.17053V-2.9256H-39.94841Z" fill="#ffffff"/>
<use data-text="&#x2212;" xlink:href="#font_2_1" transform="matrix(9.962799,0,0,-9.962799,35.442384,80.78835)"/>
<use data-text="&#x03c0;" xlink:href="#font_1_1" transform="matrix(9.962799,0,0,-9.962799,43.19153,80.78835)"/>
<path transform="matrix(1.00002,0,0,-1.00002,74.39516,71.05516)" stroke-width=".79701" stroke-linecap="butt" stroke-miterlimit="10" stroke-linejoin="miter" fill="none" stroke="#000000" d="M64.11894 1.53065V-1.53082"/>
<path transform="matrix(1.00002,0,0,-1.00002,74.39516,71.05516)" d="M57.61372-12.33487H70.62414V-3.9218903H57.61372Z" fill="#ffffff"/>
<use data-text="2" xlink:href="#font_3_1" transform="matrix(9.962799,0,0,-9.962799,133.00634,82.39439)"/>
<use data-text="&#x03c0;" xlink:href="#font_1_1" transform="matrix(9.962799,0,0,-9.962799,137.98842,82.39439)"/>
<path transform="matrix(1.00002,0,0,-1.00002,74.39516,71.05516)" stroke-width=".79701" stroke-linecap="butt" stroke-miterlimit="10" stroke-linejoin="miter" fill="none" stroke="#000000" d="M32.05946 1.53065V-1.53082"/>
<path transform="matrix(1.00002,0,0,-1.00002,74.39516,71.05516)" d="M28.04494-10.20393H36.073984V-3.9218698H28.04494Z" fill="#ffffff"/>
<use data-text="&#x03c0;" xlink:href="#font_1_1" transform="matrix(9.962799,0,0,-9.962799,103.43674,80.26334)"/>
<path transform="matrix(1.00002,0,0,-1.00002,74.39516,71.05516)" stroke-width=".79701" stroke-linecap="butt" stroke-miterlimit="10" stroke-linejoin="miter" fill="none" stroke="#000000" d="M1.53065-10.20485H-1.53082"/>
<path transform="matrix(1.00002,0,0,-1.00002,74.39516,71.05516)" d="M-14.2134-14.51874H-3.9218798V-5.8909895H-14.2134Z" fill="#ffffff"/>
<use data-text="-" xlink:href="#font_4_64" transform="matrix(9.962799,0,0,-9.962799,61.177896,84.57743)"/>
<use data-text="1" xlink:href="#font_4_82" transform="matrix(9.962799,0,0,-9.962799,64.49551,84.57743)"/>
<path transform="matrix(1.00002,0,0,-1.00002,74.39516,71.05516)" stroke-width=".79701" stroke-linecap="butt" stroke-miterlimit="10" stroke-linejoin="miter" fill="none" stroke="#000000" d="M1.53065 10.20485H-1.53082"/>
<path transform="matrix(1.00002,0,0,-1.00002,74.39516,71.05516)" d="M-10.89581 5.89098H-3.9218703V14.51873H-10.89581Z" fill="#ffffff"/>
<use data-text="1" xlink:href="#font_4_82" transform="matrix(9.962799,0,0,-9.962799,64.49496,64.16802)"/>
<path transform="matrix(1.00002,0,0,-1.00002,74.39516,71.05516)" stroke-width=".79701" stroke-linecap="butt" stroke-miterlimit="10" stroke-linejoin="miter" fill="none" stroke="#000000" d="M1.53065 30.6146H-1.53082"/>
<path transform="matrix(1.00002,0,0,-1.00002,74.39516,71.05516)" d="M-10.89581 26.19113H-3.9218703V35.03804H-10.89581Z" fill="#ffffff"/>
<use data-text="3" xlink:href="#font_4_106" transform="matrix(9.962799,0,0,-9.962799,64.49496,43.647615)"/>
<path transform="matrix(1.00002,0,0,-1.00002,74.39516,71.05516)" stroke-width=".79701" stroke-linecap="butt" stroke-miterlimit="10" stroke-linejoin="miter" fill="none" stroke="#000000" d="M1.53065 51.02432H-1.53082"/>
<path transform="matrix(1.00002,0,0,-1.00002,74.39516,71.05516)" d="M-10.89581 46.60086H-3.9218703V55.44777H-10.89581Z" fill="#ffffff"/>
<use data-text="5" xlink:href="#font_4_56" transform="matrix(9.962799,0,0,-9.962799,64.49496,23.238202)"/>
<path transform="matrix(1.00002,0,0,-1.00002,74.39516,71.05516)" stroke-width=".79701" stroke-linecap="butt" stroke-miterlimit="10" stroke-linejoin="miter" fill="none" stroke="#ff0000" d="M-64.11894 30.6146C-64.11894 30.6146-62.67136 33.51234-62.11537 34.59589-61.55939 35.67941-60.66777 37.40324-60.11179 38.42395-59.55582 39.44466-58.6642 41.0337-58.10822 41.95244-57.55223 42.87117-56.66063 44.26425-56.10466 45.04553-55.54868 45.82681-54.65704 46.9696-54.10109 47.58336-53.5451 48.19711-52.65349 49.0462-52.0975 49.46906-51.54152 49.89189-50.64992 50.41524-50.09393 50.63098-49.53795 50.84674-48.64633 51.02393-48.09038 51.02402-47.5344 51.0241-46.64276 50.84714-46.08679 50.6316-45.5308 50.41609-44.6392 49.89325-44.08322 49.47061-43.52724 49.04797-42.63564 48.19911-42.07965 47.58554-41.52368 46.97197-40.63205 45.82939-40.07607 45.04834-39.52011 44.26727-38.6285 42.87473-38.07251 41.95618-37.51653 41.03761-36.62492 39.44862-36.06894 38.428-35.51295 37.40738-34.62134 35.68373-34.06535 34.60023-33.5094 33.51675-32.61777 31.7237-32.06178 30.61896-31.50581 29.51419-30.61421 27.72154-30.05823 26.63797-29.50224 25.55438-28.61063 23.8301-28.05466 22.80927-27.49867 21.78844-26.60706 20.1993-26.05107 19.28047-25.4951 18.36168-24.60349 16.96848-24.0475 16.18707-23.49153 15.40565-22.59993 14.26257-22.04395 13.64862-21.48796 13.03465-20.59634 12.18509-20.04036 11.762-19.48439 11.33888-18.59277 10.81512-18.03679 10.59912-17.4808 10.38312-16.58922 10.20555-16.03323 10.20515-15.47725 10.20477-14.58563 10.38109-14.02965 10.59631-13.47368 10.81155-12.58206 11.33397-12.02608 11.75638-11.4701 12.1788-10.57849 13.02744-10.0225 13.64084-9.46652 14.25423-8.5749 15.39648-8.01895 16.17741-7.46297 16.95834-6.57135 18.35085-6.01537 19.26927-5.45938 20.1877-4.56778 21.77632-4.0118 22.79681-3.45581 23.81729-2.5642 25.54082-2.00824 26.62427-1.45226 27.70772-.56062 29.5008-.00465 30.60556 .55128 31.7103 1.4429 33.50296 1.99889 34.58655 2.55486 35.6701 3.44647 37.39432 4.00246 38.41524 4.55843 39.43616 5.45004 41.02567 6.00603 41.94466 6.562 42.86365 7.45361 44.2571 8.0096 45.03868 8.56558 45.82027 9.45718 46.96358 10.01317 47.57774 10.56915 48.19194 11.46077 49.042 12.01674 49.46532 12.57271 49.88864 13.46432 50.41255 14.02031 50.62881 14.5763 50.84508 15.4679 51.02333 16.02388 51.02402 16.57986 51.0247 17.47148 50.8488 18.02745 50.6338 18.58344 50.41878 19.47505 49.89655 20.03102 49.47435 20.58699 49.05214 21.4786 48.204 22.03459 47.59084 22.59058 46.97769 23.48218 45.8359 24.03816 45.05519 24.59415 44.27448 25.48576 42.8822 26.04175 41.96396 26.59772 41.0457 27.48933 39.45744 28.0453 38.43704 28.60129 37.41664 29.4929 35.693 30.04887 34.60959 30.60486 33.52618 31.49648 31.73335 32.05244 30.6286 32.60843 29.52386 33.50005 27.73097 34.05603 26.64731 34.61201 25.56366 35.50362 23.83926 36.05959 22.8183 36.61557 21.79735 37.50719 20.20801 38.06316 19.28888 38.61914 18.36978 39.51076 16.97575 40.06674 16.19391 40.62273 15.41208 41.51433 14.26831 42.07031 13.65392 42.62628 13.03952 43.5179 12.18927 44.07387 11.76573 44.62985 11.3422 45.52147 10.81783 46.07745 10.6013 46.63342 10.38477 47.52504 10.20612 48.08102 10.20515 48.63701 10.20421 49.52861 10.37968 50.0846 10.59445 50.64056 10.80919 51.5322 11.33096 52.08817 11.75296 52.64413 12.17496 53.53575 13.02292 54.09174 13.63585 54.64772 14.2488 55.53932 15.39006 56.0953 16.17056 56.65129 16.95107 57.54291 18.34305 58.09888 19.26117 58.65485 20.17929 59.54646 21.76746 60.10245 22.78778 60.65843 23.8081 61.55003 25.53157 62.10602 26.61491 62.662 27.69827 64.10959 30.5959 64.10959 30.5959"/>
</svg>
