<svg xmlns="http://www.w3.org/2000/svg" xmlns:xlink="http://www.w3.org/1999/xlink" version="1.1" width="287" height="104" viewBox="0 0 287 104">
<defs>
<path id="font_1_2" d="M.33399964 .30233766C.33999635 .32835389 .36299134 .42037965 .43299867 .42037965 .43798829 .42037965 .46199037 .42037965 .48298646 .40734864 .45498658 .402359 .43499757 .37734986 .43499757 .35334779 .43499757 .33735658 .44599916 .31835938 .47299195 .31835938 .49499513 .31835938 .5269928 .3363495 .5269928 .37635804 .5269928 .42837525 .46798707 .4423828 .43399049 .4423828 .37599183 .4423828 .34098817 .38935853 .32899476 .36634828 .3039856 .43237306 .25 .4423828 .22099304 .4423828 .116989139 .4423828 .05999756 .3133545 .05999756 .28834535 .05999756 .27833558 .069992069 .27833558 .07199097 .27833558 .07998657 .27833558 .08299255 .28033448 .084991458 .28933717 .11898804 .39535523 .18499756 .42037965 .21899414 .42037965 .23799134 .42037965 .272995 .4113617 .272995 .35334779 .272995 .32235719 .2559967 .25532533 .21899414 .11528015 .20298767 .053268434 .16799927 .011245728 .12399292 .011245728 .117996219 .011245728 .09498596 .011245728 .07398987 .024276734 .09899902 .029266358 .12098694 .05027771 .12098694 .07827759 .12098694 .105270389 .09899902 .11328125 .083999637 .11328125 .053985597 .11328125 .0289917 .08728027 .0289917 .055267335 .0289917 .009246826 .07899475-.0107421879 .12298584-.0107421879 .18899536-.0107421879 .22499085 .059280397 .22799683 .0652771 .23999024 .028274537 .27598573-.0107421879 .33599855-.0107421879 .43899537-.0107421879 .49598695 .118270877 .49598695 .14328003 .49598695 .1532898 .4869995 .1532898 .48399354 .1532898 .47499085 .1532898 .47299195 .14929199 .47099305 .14228821 .43798829 .03527832 .36999513 .011245728 .33799745 .011245728 .29899598 .011245728 .2829895 .043273927 .2829895 .07727051 .2829895 .09927368 .2889862 .121276859 .2999878 .16529846L.33399964 .30233766Z"/>
<path id="font_1_3" d="M.48599244 .38136292C.48999024 .39537049 .48999024 .39736939 .48999024 .40437318 .48999024 .42237855 .47599793 .43138124 .46099855 .43138124 .45098878 .43138124 .43499757 .42536927 .42599488 .41036988 .42399598 .405365 .41600038 .37435914 .4119873 .35635377 .40499879 .33035279 .397995 .30334474 .3919983 .27633668L.34700013 .09628296C.34298707 .08126831 .2999878 .011245728 .23399353 .011245728 .18299866 .011245728 .17199707 .055267335 .17199707 .0922699 .17199707 .1382904 .18899536 .20030213 .22299195 .28833009 .23899842 .3293457 .24299622 .3403473 .24299622 .36035157 .24299622 .405365 .21099854 .4423828 .16099549 .4423828 .06599426 .4423828 .0289917 .29733277 .0289917 .28833009 .0289917 .27833558 .038986207 .27833558 .040985109 .27833558 .050994874 .27833558 .051986696 .28033448 .056991579 .29634095 .083999637 .3903656 .12399292 .42037965 .1579895 .42037965 .1659851 .42037965 .18299866 .42037965 .18299866 .3883667 .18299866 .36335755 .17298889 .3373413 .1659851 .31834413 .12599182 .21231079 .10798645 .1552887 .10798645 .10827637 .10798645 .019256592 .17098999-.0107421879 .22999573-.0107421879 .2689972-.0107421879 .30299378 .0062561037 .33099366 .03425598 .31799317-.017745972 .30599977-.06674194 .2659912-.11973572 .23999024-.15385437 .20199585-.18309021 .1559906-.18309021 .14199829-.18309021 .09700012-.18005371 .07998657-.14074707 .09599304-.14074707 .10899353-.14074707 .12298584-.1287384 .1329956-.11973572 .14299011-.10673523 .14299011-.08773804 .14299011-.056747438 .115997318-.052734376 .10598755-.052734376 .08299255-.052734376 .049987794-.068740848 .049987794-.11773682 .049987794-.16796875 .09399414-.20507813 .1559906-.20507813 .25898744-.20507813 .3619995-.11373901 .3899994-.00074768069L.48599244 .38136292Z"/>
<path id="font_2_1" d="M.6589966 .23046875C.6759949 .23046875 .69400027 .23046875 .69400027 .25045777 .69400027 .27046205 .6759949 .27046205 .6589966 .27046205H.117996219C.100997928 .27046205 .08299255 .27046205 .08299255 .25045777 .08299255 .23046875 .100997928 .23046875 .117996219 .23046875H.6589966Z"/>
<path id="font_3_1" d="M.2939911 .64004519C.2939911 .66400149 .2939911 .6660156 .2709961 .6660156 .20899964 .60227969 .12098694 .60227969 .08898926 .60227969V.57128909C.10899353 .57128909 .16799927 .57128909 .21998596 .5972748V.07902527C.21998596 .042999269 .21699524 .0309906 .1269989 .0309906H.09498596V0C.12998963 .0029907227 .21699524 .0029907227 .25698854 .0029907227 .29699708 .0029907227 .38398744 .0029907227 .4189911 0V.0309906H.3869934C.29699708 .0309906 .2939911 .041992189 .2939911 .07902527V.64004519Z"/>
<path id="font_3_4" d="M.2939911 .16503906V.07800293C.2939911 .041992189 .2919922 .0309906 .21798706 .0309906H.19699097V0C.23799134 .0029907227 .2899933 .0029907227 .33198548 .0029907227 .37399293 .0029907227 .4269867 .0029907227 .46798707 0V.0309906H.44699098C.37298585 .0309906 .37098695 .041992189 .37098695 .07800293V.16503906H.47099305V.19602967H.37098695V.65075686C.37098695 .67074587 .37098695 .6767578 .35499574 .6767578 .34599305 .6767578 .34298707 .6767578 .33499146 .66474917L.027999878 .19602967V.16503906H.2939911M.2999878 .19602967H.055999757L.2999878 .5688019V.19602967Z"/>
<path id="font_1_1" d="M.2649994 .37265016H.37799073C.34498597 .22489929 .33599855 .18196106 .33599855 .11508179 .33599855 .100097659 .33599855 .073150638 .34399415 .03919983 .35398866-.0047454836 .36499024-.0107421879 .37998963-.0107421879 .3999939-.0107421879 .42099 .007247925 .42099 .02722168 .42099 .033218385 .42099 .035202028 .4149933 .049179079 .38598634 .12106323 .38598634 .18595886 .38598634 .21391297 .38598634 .26683045 .3929901 .32073976 .4039917 .37265016H.5179901C.5309906 .37265016 .5669861 .37265016 .5669861 .406662 .5669861 .43066407 .54599 .43066407 .5269928 .43066407H.19198609C.16999817 .43066407 .13198853 .43066407 .08799744 .38365174 .052993776 .34469605 .026992798 .29878236 .026992798 .29379273 .026992798 .29278565 .026992798 .28379823 .038986207 .28379823 .04699707 .28379823 .04899597 .28779603 .054992677 .29577638 .10398865 .37265016 .1619873 .37265016 .18199158 .37265016H.23899842C.20698548 .25186158 .15299988 .13105774 .11099243 .04020691 .102996829 .025222779 .102996829 .023223877 .102996829 .016235352 .102996829-.002746582 .11898804-.0107421879 .13198853-.0107421879 .1619873-.0107421879 .16999817 .017242432 .18199158 .05418396 .19599915 .100097659 .19599915 .10209656 .20899964 .15202332L.2649994 .37265016Z"/>
<path id="font_3_3" d="M.2899933 .35191346C.37199403 .37893678 .42999269 .4490509 .42999269 .52809146 .42999269 .6100464 .34199525 .6660156 .24598694 .6660156 .14498902 .6660156 .068984989 .60606387 .068984989 .53009036 .068984989 .49710084 .09098816 .47808839 .11999512 .47808839 .15098572 .47808839 .17098999 .50009158 .17098999 .5290985 .17098999 .57910159 .12399292 .57910159 .10899353 .57910159 .13999939 .62802127 .20599365 .64100649 .24198914 .64100649 .2829895 .64100649 .33799745 .6190338 .33799745 .5290985 .33799745 .51708987 .33599855 .45906068 .30999757 .4149933 .27999879 .36691285 .24598694 .36390687 .22099304 .36291505 .21299744 .36190797 .18899536 .35990907 .18199158 .35990907 .17399597 .35890199 .16699219 .35791017 .16699219 .3479004 .16699219 .33691407 .17399597 .33691407 .19099427 .33691407H.23498535C.31698609 .33691407 .35398866 .2686615 .35398866 .17037964 .35398866 .034469606 .2849884 .0055389406 .24099732 .0055389406 .19799805 .0055389406 .12298584 .022491456 .08799744 .08137512 .12298584 .07637024 .1539917 .09837341 .1539917 .1363678 .1539917 .17237854 .1269989 .19238281 .09799194 .19238281 .07398987 .19238281 .041992189 .17837525 .041992189 .1343689 .041992189 .043441774 .1349945-.022460938 .24398804-.022460938 .3659973-.022460938 .45700074 .06838989 .45700074 .17037964 .45700074 .252594 .3939972 .33088685 .2899933 .35191346Z"/>
<path id="font_3_2" d="M.1269989 .07699585 .23298645 .18003845C.3889923 .31811524 .44898988 .3721466 .44898988 .47216798 .44898988 .5860901 .35899354 .6660156 .23699951 .6660156 .12399292 .6660156 .049987794 .57411196 .049987794 .48516847 .049987794 .4291687 .099990848 .4291687 .102996829 .4291687 .11999512 .4291687 .15499878 .44117738 .15499878 .48217774 .15499878 .5081787 .13699341 .5341797 .101989749 .5341797 .09399414 .5341797 .09199524 .5341797 .08898926 .5331726 .11199951 .59806826 .1659851 .63500979 .22399903 .63500979 .31498719 .63500979 .35798646 .5541382 .35798646 .47216798 .35798646 .39215089 .30799867 .31311036 .25299073 .25108338L.06098938 .036987306C.049987794 .025985718 .049987794 .023986817 .049987794 0H.42099L.44898988 .17404175H.42399598C.4189911 .14402771 .4119873 .1000061 .4019928 .084991458 .394989 .07699585 .32899476 .07699585 .30699159 .07699585H.1269989Z"/>
</defs>
<path transform="matrix(1.00009,0,0,-1.00006,134.8865,60.058824)" stroke-width=".3985" stroke-linecap="butt" stroke-miterlimit="10" stroke-linejoin="miter" fill="none" stroke="#00aeef" d="M-133.58069-42.52019H133.58069M-133.58069-28.34679H133.58069M-133.58069-14.17339H133.58069M-133.58069 0H133.58069M-133.58069 14.17339H133.58069M-133.58069 28.34679H133.58069M-133.58069 42.52019H133.58069M-133.5789-42.5202V42.5202M-118.7368-42.5202V42.5202M-103.8947-42.5202V42.5202M-89.0526-42.5202V42.5202M-74.2105-42.5202V42.5202M-59.3684-42.5202V42.5202M-44.52629-42.5202V42.5202M-29.68419-42.5202V42.5202M-14.84209-42.5202V42.5202M0-42.5202V42.5202M14.84209-42.5202V42.5202M29.68419-42.5202V42.5202M44.52629-42.5202V42.5202M59.3684-42.5202V42.5202M74.2105-42.5202V42.5202M89.0526-42.5202V42.5202M103.8947-42.5202V42.5202M118.7368-42.5202V42.5202M133.5789-42.5202V42.5202M133.58069 42.5202"/>
<path transform="matrix(1.00009,0,0,-1.00006,134.8865,60.058824)" stroke-width=".79701" stroke-linecap="butt" stroke-miterlimit="10" stroke-linejoin="miter" fill="none" stroke="#000000" d="M-133.58069 0H140.29944"/>
<path transform="matrix(1.00009,0,0,-1.00006,275.19859,60.058824)" d="M1.0361 0C-.25902 .25902-1.55415 .77707-3.1083 1.68365-1.55415 .51805-1.55415-.51805-3.1083-1.68365-1.55415-.77707-.25902-.25902 1.0361 0Z"/>
<path transform="matrix(1.00009,0,0,-1.00006,275.19859,60.058824)" stroke-width=".79701" stroke-linecap="butt" stroke-linejoin="round" fill="none" stroke="#000000" d="M1.0361 0C-.25902 .25902-1.55415 .77707-3.1083 1.68365-1.55415 .51805-1.55415-.51805-3.1083-1.68365-1.55415-.77707-.25902-.25902 1.0361 0Z"/>
<use data-text="x" xlink:href="#font_1_2" transform="matrix(9.963496,0,0,-9.963197,280.3526,62.20395)"/>
<path transform="matrix(1.00009,0,0,-1.00006,134.8865,60.058824)" stroke-width=".79701" stroke-linecap="butt" stroke-miterlimit="10" stroke-linejoin="miter" fill="none" stroke="#000000" d="M0-42.5202V46.75487"/>
<path transform="matrix(0,-1.00006,-1.00009,-0,134.8865,13.301147)" d="M1.0361 0C-.25902 .25902-1.55415 .77707-3.1083 1.68365-1.55415 .51805-1.55415-.51805-3.1083-1.68365-1.55415-.77707-.25902-.25902 1.0361 0Z"/>
<path transform="matrix(0,-1.00006,-1.00009,-0,134.8865,13.301147)" stroke-width=".79701" stroke-linecap="butt" stroke-linejoin="round" fill="none" stroke="#000000" d="M1.0361 0C-.25902 .25902-1.55415 .77707-3.1083 1.68365-1.55415 .51805-1.55415-.51805-3.1083-1.68365-1.55415-.77707-.25902-.25902 1.0361 0Z"/>
<use data-text="y" xlink:href="#font_1_3" transform="matrix(9.963496,0,0,-9.963197,132.26526,6.2095949)"/>
<path transform="matrix(1.00009,0,0,-1.00006,134.8865,60.058824)" stroke-width=".79701" stroke-linecap="butt" stroke-miterlimit="10" stroke-linejoin="miter" fill="none" stroke="#000000" d="M2.83484-28.3468H-2.83441"/>
<path transform="matrix(1.00009,0,0,-1.00006,134.8865,60.058824)" d="M-19.94826-32.96841H-5.225479V-23.725182H-19.94826Z" fill="#ffffff"/>
<use data-text="&#x2212;" xlink:href="#font_2_1" transform="matrix(9.963496,0,0,-9.963197,115.9328,91.20269)"/>
<use data-text="1" xlink:href="#font_3_1" transform="matrix(9.963496,0,0,-9.963197,123.682498,91.20269)"/>
<path transform="matrix(1.00009,0,0,-1.00006,134.8865,60.058824)" stroke-width=".79701" stroke-linecap="butt" stroke-miterlimit="10" stroke-linejoin="miter" fill="none" stroke="#000000" d="M2.83484 28.3468H-2.83441"/>
<path transform="matrix(1.00009,0,0,-1.00006,134.8865,60.058824)" d="M-12.19942 24.1403H-5.22548V32.55328H-12.19942Z" fill="#ffffff"/>
<use data-text="1" xlink:href="#font_3_1" transform="matrix(9.963496,0,0,-9.963197,123.682498,34.92032)"/>
<path transform="matrix(1.00009,0,0,-1.00006,134.8865,60.058824)" stroke-width=".79701" stroke-linecap="butt" stroke-miterlimit="10" stroke-linejoin="miter" fill="none" stroke="#000000" d="M-118.73859 2.26778V-2.26779"/>
<path transform="matrix(1.00009,0,0,-1.00006,134.8865,60.058824)" d="M-130.31375-26.64572H-107.16342V-4.6588594H-130.31375Z" fill="#ffffff"/>
<use data-text="&#x2212;" xlink:href="#font_2_1" transform="matrix(9.963496,0,0,-9.963197,6.7539827,72.135547)"/>
<use data-text="4" xlink:href="#font_3_4" transform="matrix(9.963496,0,0,-9.963197,14.502686,72.135547)"/>
<use data-text="&#x03c0;" xlink:href="#font_1_1" transform="matrix(9.963496,0,0,-9.963197,19.485123,72.135547)"/>
<path transform="matrix(1.00009,0,0,-1.00006,-211.33565,31.811127)" stroke-width=".3985" stroke-linecap="butt" stroke-miterlimit="10" stroke-linejoin="miter" fill="none" stroke="#000000" d="M218.07-44.571H236.836"/>
<use data-text="3" xlink:href="#font_3_3" transform="matrix(9.963496,0,0,-9.963197,13.646606,85.70936)"/>
<path transform="matrix(1.00009,0,0,-1.00006,134.8865,60.058824)" stroke-width=".79701" stroke-linecap="butt" stroke-miterlimit="10" stroke-linejoin="miter" fill="none" stroke="#000000" d="M-59.36928 2.26778V-2.26779"/>
<path transform="matrix(1.00009,0,0,-1.00006,134.8865,60.058824)" d="M-70.94444-26.64572H-47.794115V-4.6588594H-70.94444Z" fill="#ffffff"/>
<use data-text="&#x2212;" xlink:href="#font_2_1" transform="matrix(9.963496,0,0,-9.963197,66.12833,72.135547)"/>
<use data-text="2" xlink:href="#font_3_2" transform="matrix(9.963496,0,0,-9.963197,73.87703,72.135547)"/>
<use data-text="&#x03c0;" xlink:href="#font_1_1" transform="matrix(9.963496,0,0,-9.963197,78.85947,72.135547)"/>
<path transform="matrix(1.00009,0,0,-1.00006,-151.9613,31.811127)" stroke-width=".3985" stroke-linecap="butt" stroke-miterlimit="10" stroke-linejoin="miter" fill="none" stroke="#000000" d="M218.07-44.571H236.836"/>
<use data-text="3" xlink:href="#font_3_3" transform="matrix(9.963496,0,0,-9.963197,73.02095,85.70936)"/>
<path transform="matrix(1.00009,0,0,-1.00006,134.8865,60.058824)" stroke-width=".79701" stroke-linecap="butt" stroke-miterlimit="10" stroke-linejoin="miter" fill="none" stroke="#000000" d="M-29.68463 2.26778V-2.26779"/>
<path transform="matrix(1.00009,0,0,-1.00006,134.8865,60.058824)" d="M-38.7691-26.03688H-20.600152V-4.658861H-38.7691Z" fill="#ffffff"/>
<use data-text="&#x2212;" xlink:href="#font_2_1" transform="matrix(9.963496,0,0,-9.963197,98.30623,71.52751)"/>
<use data-text="&#x03c0;" xlink:href="#font_1_1" transform="matrix(9.963496,0,0,-9.963197,106.05493,71.52751)"/>
<path transform="matrix(1.00009,0,0,-1.00006,-119.7834,31.20309)" stroke-width=".3985" stroke-linecap="butt" stroke-miterlimit="10" stroke-linejoin="miter" fill="none" stroke="#000000" d="M218.07-44.571H231.855"/>
<use data-text="3" xlink:href="#font_3_3" transform="matrix(9.963496,0,0,-9.963197,102.70862,85.10132)"/>
<path transform="matrix(1.00009,0,0,-1.00006,134.8865,60.058824)" stroke-width=".79701" stroke-linecap="butt" stroke-miterlimit="10" stroke-linejoin="miter" fill="none" stroke="#000000" d="M29.68463 2.26778V-2.26779"/>
<path transform="matrix(1.00009,0,0,-1.00006,134.8865,60.058824)" d="M24.47458-24.51477H34.89467V-4.658861H24.47458Z" fill="#ffffff"/>
<use data-text="&#x03c0;" xlink:href="#font_1_1" transform="matrix(9.963496,0,0,-9.963197,161.55593,70.00542)"/>
<path transform="matrix(1.00009,0,0,-1.00006,-56.53371,29.681)" stroke-width=".3985" stroke-linecap="butt" stroke-miterlimit="10" stroke-linejoin="miter" fill="none" stroke="#000000" d="M218.07-44.571H224.106"/>
<use data-text="3" xlink:href="#font_3_3" transform="matrix(9.963496,0,0,-9.963197,162.08296,83.57923)"/>
<path transform="matrix(1.00009,0,0,-1.00006,134.8865,60.058824)" stroke-width=".79701" stroke-linecap="butt" stroke-miterlimit="10" stroke-linejoin="miter" fill="none" stroke="#000000" d="M59.36928 2.26778V-2.26779"/>
<path transform="matrix(1.00009,0,0,-1.00006,134.8865,60.058824)" d="M51.66853-26.64572H67.07V-4.6588594H51.66853Z" fill="#ffffff"/>
<use data-text="2" xlink:href="#font_3_2" transform="matrix(9.963496,0,0,-9.963197,188.75237,72.135547)"/>
<use data-text="&#x03c0;" xlink:href="#font_1_1" transform="matrix(9.963496,0,0,-9.963197,193.73383,72.135547)"/>
<path transform="matrix(1.00009,0,0,-1.00006,-29.337262,31.811127)" stroke-width=".3985" stroke-linecap="butt" stroke-miterlimit="10" stroke-linejoin="miter" fill="none" stroke="#000000" d="M218.07-44.571H229.087"/>
<use data-text="3" xlink:href="#font_3_3" transform="matrix(9.963496,0,0,-9.963197,191.77063,85.70936)"/>
<path transform="matrix(1.00009,0,0,-1.00006,134.8865,60.058824)" stroke-width=".79701" stroke-linecap="butt" stroke-miterlimit="10" stroke-linejoin="miter" fill="none" stroke="#000000" d="M118.73859 2.26778V-2.26779"/>
<path transform="matrix(1.00009,0,0,-1.00006,134.8865,60.058824)" d="M111.03784-26.64572H126.439319V-4.6588594H111.03784Z" fill="#ffffff"/>
<use data-text="4" xlink:href="#font_3_4" transform="matrix(9.963496,0,0,-9.963197,248.12671,72.135547)"/>
<use data-text="&#x03c0;" xlink:href="#font_1_1" transform="matrix(9.963496,0,0,-9.963197,253.10817,72.135547)"/>
<path transform="matrix(1.00009,0,0,-1.00006,30.037079,31.811127)" stroke-width=".3985" stroke-linecap="butt" stroke-miterlimit="10" stroke-linejoin="miter" fill="none" stroke="#000000" d="M218.07-44.571H229.087"/>
<use data-text="3" xlink:href="#font_3_3" transform="matrix(9.963496,0,0,-9.963197,251.14498,85.70936)"/>
<path transform="matrix(1.00009,0,0,-1.00006,134.8865,60.058824)" stroke-width=".79701" stroke-linecap="butt" stroke-miterlimit="10" stroke-linejoin="miter" fill="none" stroke="#000000" d="M-89.05394 2.26778V-2.26779"/>
<path transform="matrix(1.00009,0,0,-1.00006,134.8865,60.058824)" d="M-96.94289-15.2858H-81.16501V-6.6514198H-96.94289Z" fill="#ffffff"/>
<use data-text="&#x2212;" xlink:href="#font_2_1" transform="matrix(9.963496,0,0,-9.963197,38.930864,73.51863)"/>
<use data-text="&#x03c0;" xlink:href="#font_1_1" transform="matrix(9.963496,0,0,-9.963197,46.680559,73.51863)"/>
<path transform="matrix(1.00009,0,0,-1.00006,134.8865,60.058824)" stroke-width=".79701" stroke-linecap="butt" stroke-miterlimit="10" stroke-linejoin="miter" fill="none" stroke="#000000" d="M89.05394 2.26778V-2.26779"/>
<path transform="matrix(1.00009,0,0,-1.00006,134.8865,60.058824)" d="M85.03941-12.93347H93.06845V-6.6514098H85.03941Z" fill="#ffffff"/>
<use data-text="&#x03c0;" xlink:href="#font_1_1" transform="matrix(9.963496,0,0,-9.963197,220.93025,71.99654)"/>
<path transform="matrix(1.00009,0,0,-1.00006,134.8865,60.058824)" stroke-width=".79701" stroke-linecap="butt" stroke-miterlimit="10" stroke-linejoin="miter" fill="none" stroke="#ff0000" d="M-133.58069 24.54825C-133.58069 24.54825-130.56496 22.92004-129.4067 22.20259-128.24845 21.48514-126.39096 20.21953-125.23271 19.37726-124.07445 18.53497-122.21696 17.0809-121.05872 16.13193-119.90045 15.18294-118.04297 13.57253-116.88472 12.53754-115.72647 11.50253-113.86899 9.77109-112.71072 8.67238-111.55247 7.57365-109.69499 5.75719-108.53674 4.61862-107.37848 3.48006-105.521 1.61996-104.36275 .46626-103.20448-.68741-101.347-2.55229-100.18875-3.69646-99.0305-4.84062-97.17303-6.67033-96.01477-7.78004-94.85652-8.88976-92.99904-10.64325-91.84079-11.6945-90.68253-12.74577-88.82504-14.38676-87.6668-15.35681-86.50854-16.32687-84.65105-17.81839-83.4928-18.68605-82.33455-19.55373-80.47707-20.86363-79.3188-21.61044-78.16055-22.35725-76.30307-23.45894-75.14482-24.06856-73.98656-24.67818-72.12907-25.54488-70.97083-26.00417-69.81258-26.46344-67.95508-27.07985-66.79683-27.37877-65.63858-27.67769-63.7811-28.02655-62.62283-28.15865-61.46458-28.29074-59.6071-28.36824-58.44885-28.3308-57.29059-28.29335-55.4331-28.095-54.27486-27.88873-53.11661-27.68248-51.25912-27.21474-50.10086-26.84416-48.94261-26.47359-47.08513-25.7449-45.92686-25.2178-44.76862-24.6907-42.91113-23.71703-41.75288-23.04517-40.59462-22.37332-38.73714-21.17781-37.57889-20.37555-36.42064-19.5733-34.56316-18.17833-33.40489-17.26302-32.24664-16.34769-30.38916-14.78708-29.23091-13.77849-28.07265-12.7699-26.21516-11.07378-25.05692-9.99377-23.89865-8.91376-22.04117-7.12242-20.88292-5.99452-19.72467-4.86664-17.86719-3.01613-16.70892-1.86465-15.55067-.71318-13.69319 1.15453-12.53494 2.30455-11.37668 3.45457-9.5192 5.30011-8.36095 6.42404-7.20268 7.54797-5.3452 9.33148-4.18695 10.40512-3.0287 11.47876-1.17122 13.16238-.01295 14.16214 1.14528 15.1619 3.00275 16.70654 4.161 17.61076 5.31926 18.515 7.17674 19.88991 8.33499 20.6792 9.49324 21.46849 11.35074 22.64236 12.50899 23.2995 13.66724 23.95663 15.52472 24.90453 16.68298 25.41548 17.84123 25.92644 19.69872 26.62854 20.85696 26.98213 22.01523 27.33574 23.87271 27.77527 25.03096 27.964 26.18921 28.15274 28.0467 28.32297 29.20496 28.34247 30.3632 28.36197 32.22069 28.25461 33.37895 28.10457 34.5372 27.95454 36.39468 27.57726 37.55293 27.26112 38.7112 26.94498 40.56868 26.30168 41.72693 25.82596 42.88518 25.35025 44.74266 24.4572 45.90092 23.8324 47.05917 23.2076 48.91666 22.08318 50.07492 21.3228 51.23317 20.56244 53.09065 19.23157 54.2489 18.35214 55.40717 17.4727 57.26465 15.964 58.4229 14.9844 59.58115 14.0048 61.43863 12.35034 62.5969 11.29182 63.75514 10.2333 65.61263 8.46986 66.77089 7.35529 67.92914 6.2407 69.7866 4.40504 70.94485 3.25871 72.10312 2.1124 73.9606 .24669 75.11885-.90657 76.2771-2.05986 78.13458-3.91776 79.29285-5.05333 80.4511-6.1889 82.30858-7.99799 83.46683-9.09106 84.62509-10.18414 86.48257-11.90468 87.64082-12.93156 88.79909-13.95847 90.65657-15.55354 91.81482-16.49222 92.97307-17.4309 94.83055-18.86699 95.98882-19.6969 97.14706-20.52682 99.00455-21.77057 100.1628-22.47379 101.32106-23.17702 103.17854-24.20396 104.33679-24.76538 105.49506-25.32681 107.35254-26.11282 108.51079-26.52019 109.66904-26.92757 111.52652-27.45683 112.68478-27.70145 113.84303-27.94606 115.70052-28.20682 116.85876-28.28322 118.01703-28.3596 119.87451-28.34525 121.03276-28.25206 122.19101-28.15887 124.04851-27.8724 125.20676-27.61148 126.365-27.35056 128.22249-26.79454 129.38076-26.3714 130.539-25.94824 133.55474-24.56166 133.55474-24.56166"/>
</svg>
