<svg xmlns="http://www.w3.org/2000/svg" xmlns:xlink="http://www.w3.org/1999/xlink" version="1.1" width="103" height="70" viewBox="0 0 103 70">
<defs>
<path id="font_1_1" d="M.33399964 .30233766C.33999635 .32835389 .36299134 .42037965 .43299867 .42037965 .43798829 .42037965 .46199037 .42037965 .48298646 .40734864 .45498658 .402359 .43499757 .37734986 .43499757 .35334779 .43499757 .33735658 .44599916 .31835938 .47299195 .31835938 .49499513 .31835938 .5269928 .3363495 .5269928 .37635804 .5269928 .42837525 .46798707 .4423828 .43399049 .4423828 .37599183 .4423828 .34098817 .38935853 .32899476 .36634828 .3039856 .43237306 .25 .4423828 .22099304 .4423828 .116989139 .4423828 .05999756 .3133545 .05999756 .28834535 .05999756 .27833558 .069992069 .27833558 .07199097 .27833558 .07998657 .27833558 .08299255 .28033448 .084991458 .28933717 .11898804 .39535523 .18499756 .42037965 .21899414 .42037965 .23799134 .42037965 .272995 .4113617 .272995 .35334779 .272995 .32235719 .2559967 .25532533 .21899414 .11528015 .20298767 .053268434 .16799927 .011245728 .12399292 .011245728 .117996219 .011245728 .09498596 .011245728 .07398987 .024276734 .09899902 .029266358 .12098694 .05027771 .12098694 .07827759 .12098694 .105270389 .09899902 .11328125 .083999637 .11328125 .053985597 .11328125 .0289917 .08728027 .0289917 .055267335 .0289917 .009246826 .07899475-.0107421879 .12298584-.0107421879 .18899536-.0107421879 .22499085 .059280397 .22799683 .0652771 .23999024 .028274537 .27598573-.0107421879 .33599855-.0107421879 .43899537-.0107421879 .49598695 .118270877 .49598695 .14328003 .49598695 .1532898 .4869995 .1532898 .48399354 .1532898 .47499085 .1532898 .47299195 .14929199 .47099305 .14228821 .43798829 .03527832 .36999513 .011245728 .33799745 .011245728 .29899598 .011245728 .2829895 .043273927 .2829895 .07727051 .2829895 .09927368 .2889862 .121276859 .2999878 .16529846L.33399964 .30233766Z"/>
<path id="font_1_2" d="M.48599244 .38136292C.48999024 .39537049 .48999024 .39736939 .48999024 .40437318 .48999024 .42237855 .47599793 .43138124 .46099855 .43138124 .45098878 .43138124 .43499757 .42536927 .42599488 .41036988 .42399598 .405365 .41600038 .37435914 .4119873 .35635377 .40499879 .33035279 .397995 .30334474 .3919983 .27633668L.34700013 .09628296C.34298707 .08126831 .2999878 .011245728 .23399353 .011245728 .18299866 .011245728 .17199707 .055267335 .17199707 .0922699 .17199707 .1382904 .18899536 .20030213 .22299195 .28833009 .23899842 .3293457 .24299622 .3403473 .24299622 .36035157 .24299622 .405365 .21099854 .4423828 .16099549 .4423828 .06599426 .4423828 .0289917 .29733277 .0289917 .28833009 .0289917 .27833558 .038986207 .27833558 .040985109 .27833558 .050994874 .27833558 .051986696 .28033448 .056991579 .29634095 .083999637 .3903656 .12399292 .42037965 .1579895 .42037965 .1659851 .42037965 .18299866 .42037965 .18299866 .3883667 .18299866 .36335755 .17298889 .3373413 .1659851 .31834413 .12599182 .21231079 .10798645 .1552887 .10798645 .10827637 .10798645 .019256592 .17098999-.0107421879 .22999573-.0107421879 .2689972-.0107421879 .30299378 .0062561037 .33099366 .03425598 .31799317-.017745972 .30599977-.06674194 .2659912-.11973572 .23999024-.15385437 .20199585-.18309021 .1559906-.18309021 .14199829-.18309021 .09700012-.18005371 .07998657-.14074707 .09599304-.14074707 .10899353-.14074707 .12298584-.1287384 .1329956-.11973572 .14299011-.10673523 .14299011-.08773804 .14299011-.056747438 .115997318-.052734376 .10598755-.052734376 .08299255-.052734376 .049987794-.068740848 .049987794-.11773682 .049987794-.16796875 .09399414-.20507813 .1559906-.20507813 .25898744-.20507813 .3619995-.11373901 .3899994-.00074768069L.48599244 .38136292Z"/>
</defs>
<path transform="matrix(1.00006,0,0,-1.00006,45.042566,62.32596)" stroke-width=".3985" stroke-linecap="butt" stroke-miterlimit="10" stroke-linejoin="miter" fill="none" stroke="#00aeef" d="M-42.7455-5.66927H42.7455M-42.7455 0H42.7455M-42.7455 5.66927H42.7455M-42.7455 11.33855H42.7455M-42.7455 17.00781H42.7455M-42.7455 22.6771H42.7455M-42.7455 28.34636H42.7455M-42.7455 34.01564H42.7455M-42.7455 39.6849H42.7455M-42.7455 45.35219H42.7455M-42.74487-5.66927V45.35419M-32.05865-5.66927V45.35419M-21.37242-5.66927V45.35419M-10.6862-5.66927V45.35419M0-5.66927V45.35419M10.6862-5.66927V45.35419M21.37242-5.66927V45.35419M32.05865-5.66927V45.35419M42.74487-5.66927V45.35419M42.7455 45.35419"/>
<path transform="matrix(1.00006,0,0,-1.00006,45.042566,62.32596)" stroke-width=".79701" stroke-linecap="butt" stroke-miterlimit="10" stroke-linejoin="miter" fill="none" stroke="#000000" d="M-42.7455 0H46.18759"/>
<path transform="matrix(1.00006,0,0,-1.00006,91.232929,62.32596)" d="M1.0361 0C-.25902 .25902-1.55415 .77707-3.1083 1.68365-1.55415 .51805-1.55415-.51805-3.1083-1.68365-1.55415-.77707-.25902-.25902 1.0361 0Z"/>
<path transform="matrix(1.00006,0,0,-1.00006,91.232929,62.32596)" stroke-width=".79701" stroke-linecap="butt" stroke-linejoin="round" fill="none" stroke="#000000" d="M1.0361 0C-.25902 .25902-1.55415 .77707-3.1083 1.68365-1.55415 .51805-1.55415-.51805-3.1083-1.68365-1.55415-.77707-.25902-.25902 1.0361 0Z"/>
<use data-text="x" xlink:href="#font_1_1" transform="matrix(9.963197,0,0,-9.963197,96.38664,64.471088)"/>
<path transform="matrix(1.00006,0,0,-1.00006,45.042566,62.32596)" stroke-width=".79701" stroke-linecap="butt" stroke-miterlimit="10" stroke-linejoin="miter" fill="none" stroke="#000000" d="M0-5.66927V49.02188"/>
<path transform="matrix(0,-1.00006,-1.00006,-0,45.042566,13.301136)" d="M1.0361 0C-.25902 .25902-1.55415 .77707-3.1083 1.68365-1.55415 .51805-1.55415-.51805-3.1083-1.68365-1.55415-.77707-.25902-.25902 1.0361 0Z"/>
<path transform="matrix(0,-1.00006,-1.00006,-0,45.042566,13.301136)" stroke-width=".79701" stroke-linecap="butt" stroke-linejoin="round" fill="none" stroke="#000000" d="M1.0361 0C-.25902 .25902-1.55415 .77707-3.1083 1.68365-1.55415 .51805-1.55415-.51805-3.1083-1.68365-1.55415-.77707-.25902-.25902 1.0361 0Z"/>
<use data-text="y" xlink:href="#font_1_2" transform="matrix(9.963197,0,0,-9.963197,42.42141,6.2095949)"/>
<path transform="matrix(1.00006,0,0,-1.00006,45.042566,62.32596)" stroke-width=".79701" stroke-linecap="butt" stroke-miterlimit="10" stroke-linejoin="miter" fill="none" stroke="#ff0000" d="M-42.7455 17.00781C-42.7455 17.00781-40.17188 8.39444-39.18343 5.6696-38.19496 2.94478-36.6098-1.0576-35.62134-2.63081-34.63289-4.20401-33.04773-5.66891-32.05928-5.66891-31.07082-5.66891-29.48566-4.20392-28.4972-2.63081-27.50874-1.0577-25.92358 2.94418-24.93513 5.66891-23.94667 8.39365-22.36151 13.86081-21.37305 17.00711-20.38458 20.15343-18.79942 25.6205-17.81097 28.34532-16.82251 31.07014-15.23737 35.07248-14.2489 36.64578-13.26045 38.21907-11.67528 39.68433-10.68683 39.68456-9.69836 39.6848-8.1132 38.22047-7.12476 36.6475-6.13629 35.07454-4.55115 31.07246-3.56268 28.34775-2.57422 25.62302-.98906 20.15579-.0006 17.00955 .98782 13.86328 2.57297 8.39655 3.56143 5.67168 4.5499 2.94681 6.13506-1.05594 7.1235-2.62944 8.11197-4.20291 9.69713-5.66853 10.68558-5.66891 11.67403-5.6693 13.2592-4.20502 14.24765-2.6322 15.23611-1.05937 16.82127 2.94226 17.80974 5.66684 18.7982 8.39142 20.38333 13.85843 21.3718 17.0047 22.36026 20.15096 23.94542 25.61787 24.93388 28.3429 25.92233 31.06793 27.5075 35.07109 28.49596 36.64474 29.4844 38.21837 31.06956 39.68404 32.05803 39.68456 33.0465 39.68509 34.63164 38.22122 35.6201 36.64854 36.60857 35.07587 38.19371 31.07436 39.18217 28.34982 40.17062 25.62529 42.74425 17.01196 42.74425 17.01196"/>
</svg>
