<svg xmlns="http://www.w3.org/2000/svg" xmlns:xlink="http://www.w3.org/1999/xlink" version="1.1" width="153" height="168" viewBox="0 0 153 168">
<defs>
<path id="font_1_4" d="M.33399964 .30233766C.33999635 .32835389 .36299134 .42037965 .43299867 .42037965 .43798829 .42037965 .46199037 .42037965 .48298646 .40734864 .45498658 .402359 .43499757 .37734986 .43499757 .35334779 .43499757 .33735658 .44599916 .31835938 .47299195 .31835938 .49499513 .31835938 .5269928 .3363495 .5269928 .37635804 .5269928 .42837525 .46798707 .4423828 .43399049 .4423828 .37599183 .4423828 .34098817 .38935853 .32899476 .36634828 .3039856 .43237306 .25 .4423828 .22099304 .4423828 .116989139 .4423828 .05999756 .3133545 .05999756 .28834535 .05999756 .27833558 .069992069 .27833558 .07199097 .27833558 .07998657 .27833558 .08299255 .28033448 .084991458 .28933717 .11898804 .39535523 .18499756 .42037965 .21899414 .42037965 .23799134 .42037965 .272995 .4113617 .272995 .35334779 .272995 .32235719 .2559967 .25532533 .21899414 .11528015 .20298767 .053268434 .16799927 .011245728 .12399292 .011245728 .117996219 .011245728 .09498596 .011245728 .07398987 .024276734 .09899902 .029266358 .12098694 .05027771 .12098694 .07827759 .12098694 .105270389 .09899902 .11328125 .083999637 .11328125 .053985597 .11328125 .0289917 .08728027 .0289917 .055267335 .0289917 .009246826 .07899475-.0107421879 .12298584-.0107421879 .18899536-.0107421879 .22499085 .059280397 .22799683 .0652771 .23999024 .028274537 .27598573-.0107421879 .33599855-.0107421879 .43899537-.0107421879 .49598695 .118270877 .49598695 .14328003 .49598695 .1532898 .4869995 .1532898 .48399354 .1532898 .47499085 .1532898 .47299195 .14929199 .47099305 .14228821 .43798829 .03527832 .36999513 .011245728 .33799745 .011245728 .29899598 .011245728 .2829895 .043273927 .2829895 .07727051 .2829895 .09927368 .2889862 .121276859 .2999878 .16529846L.33399964 .30233766Z"/>
<path id="font_1_5" d="M.48599244 .38136292C.48999024 .39537049 .48999024 .39736939 .48999024 .40437318 .48999024 .42237855 .47599793 .43138124 .46099855 .43138124 .45098878 .43138124 .43499757 .42536927 .42599488 .41036988 .42399598 .405365 .41600038 .37435914 .4119873 .35635377 .40499879 .33035279 .397995 .30334474 .3919983 .27633668L.34700013 .09628296C.34298707 .08126831 .2999878 .011245728 .23399353 .011245728 .18299866 .011245728 .17199707 .055267335 .17199707 .0922699 .17199707 .1382904 .18899536 .20030213 .22299195 .28833009 .23899842 .3293457 .24299622 .3403473 .24299622 .36035157 .24299622 .405365 .21099854 .4423828 .16099549 .4423828 .06599426 .4423828 .0289917 .29733277 .0289917 .28833009 .0289917 .27833558 .038986207 .27833558 .040985109 .27833558 .050994874 .27833558 .051986696 .28033448 .056991579 .29634095 .083999637 .3903656 .12399292 .42037965 .1579895 .42037965 .1659851 .42037965 .18299866 .42037965 .18299866 .3883667 .18299866 .36335755 .17298889 .3373413 .1659851 .31834413 .12599182 .21231079 .10798645 .1552887 .10798645 .10827637 .10798645 .019256592 .17098999-.0107421879 .22999573-.0107421879 .2689972-.0107421879 .30299378 .0062561037 .33099366 .03425598 .31799317-.017745972 .30599977-.06674194 .2659912-.11973572 .23999024-.15385437 .20199585-.18309021 .1559906-.18309021 .14199829-.18309021 .09700012-.18005371 .07998657-.14074707 .09599304-.14074707 .10899353-.14074707 .12298584-.1287384 .1329956-.11973572 .14299011-.10673523 .14299011-.08773804 .14299011-.056747438 .115997318-.052734376 .10598755-.052734376 .08299255-.052734376 .049987794-.068740848 .049987794-.11773682 .049987794-.16796875 .09399414-.20507813 .1559906-.20507813 .25898744-.20507813 .3619995-.11373901 .3899994-.00074768069L.48599244 .38136292Z"/>
<path id="font_2_1" d="M.6589966 .23046875C.6759949 .23046875 .69400027 .23046875 .69400027 .25045777 .69400027 .27046205 .6759949 .27046205 .6589966 .27046205H.117996219C.100997928 .27046205 .08299255 .27046205 .08299255 .25045777 .08299255 .23046875 .100997928 .23046875 .117996219 .23046875H.6589966Z"/>
<path id="font_3_1" d="M.2939911 .64004519C.2939911 .66400149 .2939911 .6660156 .2709961 .6660156 .20899964 .60227969 .12098694 .60227969 .08898926 .60227969V.57128909C.10899353 .57128909 .16799927 .57128909 .21998596 .5972748V.07902527C.21998596 .042999269 .21699524 .0309906 .1269989 .0309906H.09498596V0C.12998963 .0029907227 .21699524 .0029907227 .25698854 .0029907227 .29699708 .0029907227 .38398744 .0029907227 .4189911 0V.0309906H.3869934C.29699708 .0309906 .2939911 .041992189 .2939911 .07902527V.64004519Z"/>
<path id="font_3_2" d="M.1269989 .07699585 .23298645 .18003845C.3889923 .31811524 .44898988 .3721466 .44898988 .47216798 .44898988 .5860901 .35899354 .6660156 .23699951 .6660156 .12399292 .6660156 .049987794 .57411196 .049987794 .48516847 .049987794 .4291687 .099990848 .4291687 .102996829 .4291687 .11999512 .4291687 .15499878 .44117738 .15499878 .48217774 .15499878 .5081787 .13699341 .5341797 .101989749 .5341797 .09399414 .5341797 .09199524 .5341797 .08898926 .5331726 .11199951 .59806826 .1659851 .63500979 .22399903 .63500979 .31498719 .63500979 .35798646 .5541382 .35798646 .47216798 .35798646 .39215089 .30799867 .31311036 .25299073 .25108338L.06098938 .036987306C.049987794 .025985718 .049987794 .023986817 .049987794 0H.42099L.44898988 .17404175H.42399598C.4189911 .14402771 .4119873 .1000061 .4019928 .084991458 .394989 .07699585 .32899476 .07699585 .30699159 .07699585H.1269989Z"/>
<path id="font_3_3" d="M.2899933 .35191346C.37199403 .37893678 .42999269 .4490509 .42999269 .52809146 .42999269 .6100464 .34199525 .6660156 .24598694 .6660156 .14498902 .6660156 .068984989 .60606387 .068984989 .53009036 .068984989 .49710084 .09098816 .47808839 .11999512 .47808839 .15098572 .47808839 .17098999 .50009158 .17098999 .5290985 .17098999 .57910159 .12399292 .57910159 .10899353 .57910159 .13999939 .62802127 .20599365 .64100649 .24198914 .64100649 .2829895 .64100649 .33799745 .6190338 .33799745 .5290985 .33799745 .51708987 .33599855 .45906068 .30999757 .4149933 .27999879 .36691285 .24598694 .36390687 .22099304 .36291505 .21299744 .36190797 .18899536 .35990907 .18199158 .35990907 .17399597 .35890199 .16699219 .35791017 .16699219 .3479004 .16699219 .33691407 .17399597 .33691407 .19099427 .33691407H.23498535C.31698609 .33691407 .35398866 .2686615 .35398866 .17037964 .35398866 .034469606 .2849884 .0055389406 .24099732 .0055389406 .19799805 .0055389406 .12298584 .022491456 .08799744 .08137512 .12298584 .07637024 .1539917 .09837341 .1539917 .1363678 .1539917 .17237854 .1269989 .19238281 .09799194 .19238281 .07398987 .19238281 .041992189 .17837525 .041992189 .1343689 .041992189 .043441774 .1349945-.022460938 .24398804-.022460938 .3659973-.022460938 .45700074 .06838989 .45700074 .17037964 .45700074 .252594 .3939972 .33088685 .2899933 .35191346Z"/>
<path id="font_1_1" d="M.2649994 .37265016H.37799073C.34498597 .22489929 .33599855 .18196106 .33599855 .11508179 .33599855 .100097659 .33599855 .073150638 .34399415 .03919983 .35398866-.0047454836 .36499024-.0107421879 .37998963-.0107421879 .3999939-.0107421879 .42099 .007247925 .42099 .02722168 .42099 .033218385 .42099 .035202028 .4149933 .049179079 .38598634 .12106323 .38598634 .18595886 .38598634 .21391297 .38598634 .26683045 .3929901 .32073976 .4039917 .37265016H.5179901C.5309906 .37265016 .5669861 .37265016 .5669861 .406662 .5669861 .43066407 .54599 .43066407 .5269928 .43066407H.19198609C.16999817 .43066407 .13198853 .43066407 .08799744 .38365174 .052993776 .34469605 .026992798 .29878236 .026992798 .29379273 .026992798 .29278565 .026992798 .28379823 .038986207 .28379823 .04699707 .28379823 .04899597 .28779603 .054992677 .29577638 .10398865 .37265016 .1619873 .37265016 .18199158 .37265016H.23899842C.20698548 .25186158 .15299988 .13105774 .11099243 .04020691 .102996829 .025222779 .102996829 .023223877 .102996829 .016235352 .102996829-.002746582 .11898804-.0107421879 .13198853-.0107421879 .1619873-.0107421879 .16999817 .017242432 .18199158 .05418396 .19599915 .100097659 .19599915 .10209656 .20899964 .15202332L.2649994 .37265016Z"/>
<path id="font_1_2" d="M.36698915 .3996582H.45298768C.47299195 .3996582 .48298646 .3996582 .48298646 .41966249 .48298646 .43066407 .47299195 .43066407 .45599366 .43066407H.37298585L.3939972 .5449524C.397995 .5660095 .4119873 .6370239 .41799928 .6490326 .4269867 .66804507 .44400025 .68307498 .46499635 .68307498 .46899415 .68307498 .49499513 .68307498 .5139923 .66503909 .46998597 .661026 .45999146 .6260376 .45999146 .6110382 .45999146 .58802798 .47799684 .57603457 .49699403 .57603457 .522995 .57603457 .5519867 .5980377 .5519867 .6360321 .5519867 .6820679 .5059967 .7050781 .46499635 .7050781 .43099977 .7050781 .36799623 .68707278 .33799745 .58802798 .33198548 .56700137 .32899476 .5569763 .30499269 .43066407H.23599243C.21699524 .43066407 .20599365 .43066407 .20599365 .4116516 .20599365 .3996582 .21499634 .3996582 .23399353 .3996582H.2999878L.22499085 .0048828127C.20698548-.09207153 .18998719-.18309021 .13798523-.18309021 .13398743-.18309021 .10899353-.18309021 .08999634-.16506958 .13598633-.1620636 .14498902-.12606812 .14498902-.111068729 .14498902-.08807373 .1269989-.07606506 .10798645-.07606506 .08198547-.07606506 .052993776-.09806824 .052993776-.13606262 .052993776-.18109131 .09700012-.20507813 .13798523-.20507813 .19299317-.20507813 .23298645-.14607239 .25099183-.108062747 .2829895-.04508972 .30599977 .07583618 .30699159 .082839969L.36698915 .3996582Z"/>
<path id="font_1_3" d="M.47099305 .3773346C.47200013 .3833313 .47399903 .38833619 .47399903 .39535523 .47399903 .41236878 .46199037 .42237855 .44499208 .42237855 .43499757 .42237855 .4079895 .41537477 .4039917 .3793335 .38598634 .41636659 .35099793 .4423828 .31098939 .4423828 .19699097 .4423828 .07299805 .30226136 .07299805 .15812683 .07299805 .059020997 .13398743 0 .20599365 0 .2649994 0 .31199647 .04701233 .32199098 .058029176L.32299806 .057022096C.3019867-.031982423 .2899933-.07295227 .2899933-.07495117 .28599549-.08395386 .2519989-.18309021 .1459961-.18309021 .1269989-.18309021 .09399414-.18206787 .06599426-.17297364 .09599304-.16394043 .10699463-.13793946 .10699463-.12094116 .10699463-.10494995 .09599304-.0859375 .068984989-.0859375 .04699707-.0859375 .01499939-.10394287 .01499939-.14395142 .01499939-.18508911 .051986696-.20507813 .147995-.20507813 .272995-.20507813 .34498597-.12693787 .3600006-.06695557L.47099305 .3773346M.34098817 .12809754C.33499146 .10206604 .31199647 .077041629 .2899933 .058029176 .2689972 .040008546 .23799134 .021987915 .20899964 .021987915 .15899658 .021987915 .14399719 .074035648 .14399719 .11407471 .14399719 .16212464 .17298889 .28024293 .19999695 .33128358 .22698975 .38034059 .269989 .42037965 .31199647 .42037965 .37799073 .42037965 .3919983 .33929444 .3919983 .33428956 .3919983 .32928468 .3899994 .3232727 .3889923 .3192749L.34098817 .12809754Z"/>
</defs>
<path transform="matrix(1.00005,0,0,-1.00005,69.0885,86.70468)" stroke-width=".3985" stroke-linecap="butt" stroke-miterlimit="10" stroke-linejoin="miter" fill="none" stroke="#00aeef" d="M-66.79094-68.03256H66.79094M-66.79094-56.6938H66.79094M-66.79094-45.35504H66.79094M-66.79094-34.01628H66.79094M-66.79094-22.67752H66.79094M-66.79094-11.33876H66.79094M-66.79094 0H66.79094M-66.79094 11.33876H66.79094M-66.79094 22.67752H66.79094M-66.79094 34.01628H66.79094M-66.79094 45.35504H66.79094M-66.79094 56.6938H66.79094M-66.79094 68.03256H66.79094M-66.79015-68.0326V68.0326M-53.43211-68.0326V68.0326M-40.07408-68.0326V68.0326M-26.71605-68.0326V68.0326M-13.35802-68.0326V68.0326M0-68.0326V68.0326M13.35802-68.0326V68.0326M26.71605-68.0326V68.0326M40.07408-68.0326V68.0326M53.43211-68.0326V68.0326M66.79015-68.0326V68.0326M66.79094 68.0326"/>
<path transform="matrix(1.00005,0,0,-1.00005,69.0885,86.70468)" stroke-width=".79701" stroke-linecap="butt" stroke-miterlimit="10" stroke-linejoin="miter" fill="none" stroke="#000000" d="M-66.79094 0H71.70093"/>
<path transform="matrix(1.00005,0,0,-1.00005,140.793,86.70468)" d="M1.0361 0C-.25902 .25902-1.55415 .77707-3.1083 1.68365-1.55415 .51805-1.55415-.51805-3.1083-1.68365-1.55415-.77707-.25902-.25902 1.0361 0Z"/>
<path transform="matrix(1.00005,0,0,-1.00005,140.793,86.70468)" stroke-width=".79701" stroke-linecap="butt" stroke-linejoin="round" fill="none" stroke="#000000" d="M1.0361 0C-.25902 .25902-1.55415 .77707-3.1083 1.68365-1.55415 .51805-1.55415-.51805-3.1083-1.68365-1.55415-.77707-.25902-.25902 1.0361 0Z"/>
<use data-text="x" xlink:href="#font_1_4" transform="matrix(9.963098,0,0,-9.963098,145.94734,88.84979)"/>
<path transform="matrix(1.00005,0,0,-1.00005,69.0885,86.70468)" stroke-width=".79701" stroke-linecap="butt" stroke-miterlimit="10" stroke-linejoin="miter" fill="none" stroke="#000000" d="M0-68.0326V73.4013"/>
<path transform="matrix(0,-1.00005,-1.00005,-0,69.0885,13.299713)" d="M1.0361 0C-.25902 .25902-1.55415 .77707-3.1083 1.68365-1.55415 .51805-1.55415-.51805-3.1083-1.68365-1.55415-.77707-.25902-.25902 1.0361 0Z"/>
<path transform="matrix(0,-1.00005,-1.00005,-0,69.0885,13.299713)" stroke-width=".79701" stroke-linecap="butt" stroke-linejoin="round" fill="none" stroke="#000000" d="M1.0361 0C-.25902 .25902-1.55415 .77707-3.1083 1.68365-1.55415 .51805-1.55415-.51805-3.1083-1.68365-1.55415-.77707-.25902-.25902 1.0361 0Z"/>
<use data-text="y" xlink:href="#font_1_5" transform="matrix(9.963098,0,0,-9.963098,66.46737,6.208664)"/>
<path transform="matrix(1.00005,0,0,-1.00005,69.0885,86.70468)" stroke-width=".3985" stroke-linecap="butt" stroke-miterlimit="10" stroke-linejoin="miter" fill="none" stroke="#000000" d="M1.70091-22.67752H-1.70065"/>
<path transform="matrix(1.00005,0,0,-1.00005,69.0885,86.70468)" d="M-18.61523-27.29913H-3.8924504V-18.0559H-18.61523Z" fill="#ffffff"/>
<use data-text="&#x2212;" xlink:href="#font_2_1" transform="matrix(9.963098,0,0,-9.963098,51.46862,112.178958)"/>
<use data-text="1" xlink:href="#font_3_1" transform="matrix(9.963098,0,0,-9.963098,59.21801,112.178958)"/>
<path transform="matrix(1.00005,0,0,-1.00005,69.0885,86.70468)" stroke-width=".3985" stroke-linecap="butt" stroke-miterlimit="10" stroke-linejoin="miter" fill="none" stroke="#000000" d="M1.70091 22.67752H-1.70065"/>
<path transform="matrix(1.00005,0,0,-1.00005,69.0885,86.70468)" d="M-10.8664 18.47102H-3.8924599V26.883999H-10.8664Z" fill="#ffffff"/>
<use data-text="1" xlink:href="#font_3_1" transform="matrix(9.963098,0,0,-9.963098,59.21801,67.23671)"/>
<path transform="matrix(1.00005,0,0,-1.00005,69.0885,86.70468)" stroke-width=".3985" stroke-linecap="butt" stroke-miterlimit="10" stroke-linejoin="miter" fill="none" stroke="#000000" d="M1.70091-45.35506H-1.70065"/>
<path transform="matrix(1.00005,0,0,-1.00005,69.0885,86.70468)" d="M-18.61523-49.97667H-3.8924504V-40.73344H-18.61523Z" fill="#ffffff"/>
<use data-text="&#x2212;" xlink:href="#font_2_1" transform="matrix(9.963098,0,0,-9.963098,51.46862,134.85709)"/>
<use data-text="2" xlink:href="#font_3_2" transform="matrix(9.963098,0,0,-9.963098,59.21801,134.85709)"/>
<path transform="matrix(1.00005,0,0,-1.00005,69.0885,86.70468)" stroke-width=".3985" stroke-linecap="butt" stroke-miterlimit="10" stroke-linejoin="miter" fill="none" stroke="#000000" d="M1.70091 45.35506H-1.70065"/>
<path transform="matrix(1.00005,0,0,-1.00005,69.0885,86.70468)" d="M-10.8664 41.14856H-3.8924599V49.56154H-10.8664Z" fill="#ffffff"/>
<use data-text="2" xlink:href="#font_3_2" transform="matrix(9.963098,0,0,-9.963098,59.21801,44.557577)"/>
<path transform="matrix(1.00005,0,0,-1.00005,69.0885,86.70468)" stroke-width=".3985" stroke-linecap="butt" stroke-miterlimit="10" stroke-linejoin="miter" fill="none" stroke="#000000" d="M1.70091-68.0326H-1.70065"/>
<path transform="matrix(1.00005,0,0,-1.00005,69.0885,86.70468)" d="M-18.61523-72.6542H-3.8924504V-63.41097H-18.61523Z" fill="#ffffff"/>
<use data-text="&#x2212;" xlink:href="#font_2_1" transform="matrix(9.963098,0,0,-9.963098,51.46862,157.53623)"/>
<use data-text="3" xlink:href="#font_3_3" transform="matrix(9.963098,0,0,-9.963098,59.21801,157.53623)"/>
<path transform="matrix(1.00005,0,0,-1.00005,69.0885,86.70468)" stroke-width=".3985" stroke-linecap="butt" stroke-miterlimit="10" stroke-linejoin="miter" fill="none" stroke="#000000" d="M1.70091 68.0326H-1.70065"/>
<path transform="matrix(1.00005,0,0,-1.00005,69.0885,86.70468)" d="M-10.8664 63.8261H-3.8924599V72.23908H-10.8664Z" fill="#ffffff"/>
<use data-text="3" xlink:href="#font_3_3" transform="matrix(9.963098,0,0,-9.963098,59.21801,21.879448)"/>
<path transform="matrix(1.00005,0,0,-1.00005,69.0885,86.70468)" stroke-width=".79701" stroke-linecap="butt" stroke-miterlimit="10" stroke-linejoin="miter" fill="none" stroke="#000000" d="M-53.43289 1.81422V-1.81422"/>
<path transform="matrix(1.00005,0,0,-1.00005,69.0885,86.70468)" d="M-61.32184-14.83223H-45.54396V-6.1978495H-61.32184Z" fill="#ffffff"/>
<use data-text="&#x2212;" xlink:href="#font_2_1" transform="matrix(9.963098,0,0,-9.963098,8.759491,99.711338)"/>
<use data-text="&#x03c0;" xlink:href="#font_1_1" transform="matrix(9.963098,0,0,-9.963098,16.50888,99.711338)"/>
<path transform="matrix(1.00005,0,0,-1.00005,69.0885,86.70468)" stroke-width=".79701" stroke-linecap="butt" stroke-miterlimit="10" stroke-linejoin="miter" fill="none" stroke="#000000" d="M53.43289 1.81422V-1.81422"/>
<path transform="matrix(1.00005,0,0,-1.00005,69.0885,86.70468)" d="M49.41837-12.4799H57.44741V-6.19784H49.41837Z" fill="#ffffff"/>
<use data-text="&#x03c0;" xlink:href="#font_1_1" transform="matrix(9.963098,0,0,-9.963098,119.50602,98.189258)"/>
<path transform="matrix(1.00005,0,0,-1.00005,69.0885,86.70468)" stroke-width=".79701" stroke-linecap="butt" stroke-miterlimit="10" stroke-linejoin="miter" fill="none" stroke="#000000" d="M-26.7163 1.81422V-1.81422"/>
<path transform="matrix(1.00005,0,0,-1.00005,69.0885,86.70468)" d="M-35.80077-25.58331H-17.63182V-4.20529H-35.80077Z" fill="#ffffff"/>
<use data-text="&#x2212;" xlink:href="#font_2_1" transform="matrix(9.963098,0,0,-9.963098,35.47882,97.71823)"/>
<use data-text="&#x03c0;" xlink:href="#font_1_1" transform="matrix(9.963098,0,0,-9.963098,43.22722,97.71823)"/>
<path transform="matrix(1.00005,0,0,-1.00005,-115.80974,30.745884)" stroke-width=".3985" stroke-linecap="butt" stroke-miterlimit="10" stroke-linejoin="miter" fill="none" stroke="#000000" d="M151.281-71.218H165.066"/>
<use data-text="2" xlink:href="#font_3_2" transform="matrix(9.963098,0,0,-9.963098,39.881044,111.29291)"/>
<path transform="matrix(1.00005,0,0,-1.00005,69.0885,86.70468)" stroke-width=".79701" stroke-linecap="butt" stroke-miterlimit="10" stroke-linejoin="miter" fill="none" stroke="#000000" d="M26.7163 1.81422V-1.81422"/>
<path transform="matrix(1.00005,0,0,-1.00005,69.0885,86.70468)" d="M21.50624-24.0612H31.92633V-4.20529H21.50624Z" fill="#ffffff"/>
<use data-text="&#x03c0;" xlink:href="#font_1_1" transform="matrix(9.963098,0,0,-9.963098,92.78868,96.19615)"/>
<path transform="matrix(1.00005,0,0,-1.00005,-58.499876,29.223809)" stroke-width=".3985" stroke-linecap="butt" stroke-miterlimit="10" stroke-linejoin="miter" fill="none" stroke="#000000" d="M151.281-71.218H157.317"/>
<use data-text="2" xlink:href="#font_3_2" transform="matrix(9.963098,0,0,-9.963098,93.315708,109.77083)"/>
<path transform="matrix(1.00005,0,0,-1.00005,69.0885,86.70468)" stroke-width=".79701" stroke-linecap="butt" stroke-miterlimit="10" stroke-linejoin="miter" fill="none" stroke="#0000ff" d="M21.24396 68.0305C21.24396 68.0305 20.7643 62.09833 20.5801 60.10535 20.39587 58.11235 20.10043 55.30212 19.91621 53.66638 19.73201 52.03065 19.43657 49.6869 19.25235 48.31604 19.06813 46.94519 18.7727 44.95526 18.58849 43.78615 18.40427 42.61702 18.10883 40.90031 17.92462 39.88983 17.74042 38.87933 17.44498 37.3883 17.26076 36.5032 17.07654 35.61812 16.78111 34.29594 16.5969 33.51073 16.41267 32.72552 16.11723 31.54645 15.93303 30.84386 15.74881 30.14128 15.45338 29.08083 15.26917 28.4469 15.08495 27.81296 14.7895 26.8517 14.60529 26.27484 14.4211 25.69801 14.12564 24.81805 13.94142 24.28932 13.7572 23.76057 13.46178 22.95169 13.27756 22.46402 13.09335 21.97632 12.7979 21.22679 12.6137 20.77434 12.42947 20.32188 12.13405 19.6255 11.94983 19.203 11.76561 18.78052 11.47017 18.12576 11.28595 17.72925 11.10176 17.33275 10.80632 16.71875 10.6221 16.34512 10.43788 15.97151 10.14244 15.39046 9.95824 15.03644 9.77402 14.68242 9.47858 14.13054 9.29437 13.79349 9.11015 13.45647 8.81471 12.92926 8.6305 12.6073 8.44629 12.28535 8.15083 11.78177 7.96663 11.47302 7.78241 11.16425 7.48698 10.6794 7.30276 10.38197 7.11855 10.08455 6.8231 9.61678 6.6389 9.32935 6.4547 9.0419 6.15924 8.58902 5.97504 8.31027 5.79082 8.03152 5.49539 7.59167 5.31117 7.32028 5.12695 7.04887 4.83151 6.61922 4.6473 6.35416 4.46309 6.0891 4.16765 5.66953 3.98344 5.40985 3.79922 5.15015 3.50378 4.73784 3.31956 4.48247 3.13536 4.2271 2.83992 3.82117 2.6557 3.56929 2.47148 3.31744 2.17606 2.91632 1.99184 2.66719 1.80763 2.41806 1.51218 2.02095 1.32797 1.77373 1.14375 1.52654 .84833 1.13158 .66411 .88548 .47989 .63937 .18445 .24559 .00023 0-.18393-.24559-.47937-.63878-.66359-.88478-.8478-1.1308-1.14325-1.52583-1.32744-1.77304-1.51166-2.02025-1.8071-2.41736-1.99132-2.66649-2.17554-2.91562-2.47098-3.31676-2.65518-3.56862-2.8394-3.82047-3.13484-4.2264-3.31906-4.48178-3.50328-4.73714-3.7987-5.14941-3.98293-5.40915-4.16713-5.66888-4.46257-6.08875-4.64677-6.3538-4.831-6.61887-5.12643-7.04823-5.31065-7.31958-5.49487-7.59093-5.7903-8.0308-5.9745-8.30959-6.15872-8.58838-6.45416-9.04155-6.63838-9.329-6.8226-9.61642-7.11803-10.08385-7.30225-10.38127-7.48647-10.6787-7.7819-11.16385-7.96611-11.47266-8.15031-11.78146-8.44577-12.28519-8.62999-12.60695-8.8142-12.92871-9.10963-13.45477-9.29384-13.79176-9.47806-14.12874-9.7735-14.68163-9.95772-15.03575-10.14194-15.38986-10.43736-15.97043-10.62158-16.3441-10.80579-16.71776-11.10124-17.3326-11.28545-17.72891-11.46965-18.12523-11.76509-18.77809-11.94931-19.20058-12.13353-19.62308-12.42896-20.3215-12.61317-20.774-12.79738-21.22649-13.09282-21.97453-13.27704-22.46193-13.46126-22.94933-13.7567-23.75821-13.9409-24.2869-14.12512-24.8156-14.42056-25.69539-14.60478-26.27243-14.78899-26.84949-15.08443-27.81174-15.26865-28.44586-15.45285-29.07999-15.7483-30.14043-15.9325-30.84283-16.11671-31.54523-16.41216-32.72342-16.59637-33.5083-16.7806-34.2932-17.07602-35.6147-17.26024-36.49974-17.44444-37.3848-17.7399-38.87646-17.9241-39.88705-18.10832-40.89763-18.40375-42.61455-18.58797-43.78336-18.77219-44.9522-19.06763-46.94067-19.25183-48.3112-19.43604-49.68172-19.73149-52.02536-19.91571-53.6612-20.09993-55.29703-20.39536-58.10825-20.57956-60.10118-20.76378-62.09413-21.24344-68.02496-21.24344-68.02496"/>
<use data-text="f" xlink:href="#font_1_2" transform="matrix(9.963098,0,0,-9.963098,44.869295,165.37162)" fill="#0000ff"/>
<path transform="matrix(1.00005,0,0,-1.00005,69.0885,86.70468)" stroke-width=".79701" stroke-linecap="butt" stroke-miterlimit="10" stroke-linejoin="miter" fill="none" stroke="#0000ff" d="M-66.79094-22.67752C-66.79094-22.67752-66.40034-21.65585-66.25034-21.2792-66.10034-20.90256-65.85976-20.31822-65.70975-19.96289-65.55974-19.60756-65.31915-19.05496-65.16916-18.71822-65.01915-18.38148-64.77856-17.85585-64.62856-17.53583-64.47855-17.21579-64.23798-16.71663-64.08797-16.41156-63.93796-16.1065-63.69739-15.62895-63.54738-15.33713-63.39737-15.04533-63.1568-14.58815-63.00677-14.30838-62.85678-14.02864-62.6162-13.58997-62.4662-13.32082-62.3162-13.05167-62.0756-12.62833-61.9256-12.36853-61.77559-12.10875-61.53502-11.69968-61.38503-11.44846-61.235-11.1972-60.99443-10.80125-60.84442-10.55775-60.69441-10.31422-60.45384-9.93005-60.30382-9.69336-60.15382-9.45667-59.91325-9.08237-59.76324-8.85182-59.61324-8.62126-59.37265-8.25684-59.22264-8.03171-59.07265-7.8066-58.83206-7.44969-58.68207-7.22928-58.53204-7.00885-58.29147-6.65938-58.14146-6.4431-57.99147-6.2268-57.75089-5.88304-57.60088-5.67041-57.45087-5.45778-57.2103-5.12-57.06029-4.9105-56.91026-4.70103-56.6697-4.36754-56.51968-4.16068-56.36967-3.95378-56.1291-3.62415-55.9791-3.41946-55.82909-3.2148-55.5885-2.88841-55.4385-2.68553-55.2885-2.48264-55.04793-2.15863-54.8979-1.95712-54.74791-1.75565-54.50732-1.4338-54.35733-1.23323-54.2073-1.03265-53.96674-.71152-53.81673-.51141-53.66672-.31131-53.42615 .00902-53.27615 .20898-53.12613 .40894-52.88556 .72943-52.73555 .92976-52.58554 1.13011-52.34497 1.4518-52.19495 1.65297-52.04495 1.85413-51.80438 2.17732-51.65437 2.37964-51.50435 2.58194-51.26378 2.90733-51.11377 3.11116-50.96378 3.31496-50.72319 3.64272-50.5732 3.84854-50.42317 4.05438-50.1826 4.38626-50.0326 4.59459-49.88258 4.8029-49.64201 5.13878-49.492 5.34996-49.342 5.56117-49.10143 5.90213-48.95142 6.11678-48.80139 6.33144-48.56082 6.67845-48.41081 6.89708-48.2608 7.11574-48.02023 7.4695-47.87022 7.6926-47.72021 7.91571-47.47963 8.2768-47.32964 8.5051-47.17963 8.73338-46.93906 9.10384-46.78903 9.338-46.63904 9.57213-46.39845 9.95221-46.24846 10.19269-46.09843 10.43318-45.85786 10.82353-45.70786 11.07126-45.55785 11.31898-45.31728 11.72209-45.16727 11.97823-45.01726 12.23434-44.77669 12.65213-44.62668 12.91734-44.47667 13.18254-44.2361 13.61446-44.08607 13.8897-43.93608 14.16493-43.69551 14.61461-43.5455 14.90114-43.39548 15.18767-43.1549 15.65561-43.0049 15.95482-42.8549 16.25401-42.61432 16.7442-42.46431 17.0576-42.3143 17.371-42.07373 17.88435-41.92372 18.2137-41.77371 18.54305-41.53314 19.08398-41.38313 19.4314-41.23312 19.7788-40.99255 20.35017-40.84254 20.71759-40.69252 21.08502-40.45195 21.68939-40.30194 22.07957-40.15193 22.46974-39.91136 23.11383-39.76134 23.5298-39.61134 23.94576-39.37076 24.6324-39.22076 25.07759-39.07076 25.5228-38.83018 26.25945-38.68016 26.73854-38.53015 27.21765-38.28958 28.01276-38.13959 28.53064-37.98956 29.04854-37.749 29.90887-37.59898 30.47119-37.44897 31.0335-37.2084 31.96896-37.05838 32.58336-36.90839 33.19775-36.66782 34.22375-36.5178 34.89934-36.3678 35.57495-36.12723 36.70567-35.9772 37.45271-35.82721 38.19977-35.58664 39.4499-35.43663 40.28362-35.2866 41.11731-35.04604 42.52286-34.89603 43.46156-34.74603 44.40027-34.50545 45.98299-34.35544 47.04922-34.20543 48.11545-33.96486 49.92181-33.81485 51.14624-33.66484 52.37065-33.42427 54.45015-33.27426 55.87405-33.12425 57.29797-32.88368 59.7295-32.73367 61.40884-32.58365 63.08818-32.19307 67.97757-32.19307 67.97757"/>
<path transform="matrix(1.00005,0,0,-1.00005,69.0885,86.70468)" stroke-width=".79701" stroke-linecap="butt" stroke-miterlimit="10" stroke-linejoin="miter" fill="none" stroke="#0000ff" d="M66.79094 22.67752C66.79094 22.67752 66.40034 21.65585 66.25034 21.2792 66.10034 20.90256 65.85976 20.31822 65.70975 19.96289 65.55974 19.60756 65.31915 19.05496 65.16916 18.71822 65.01915 18.38148 64.77856 17.85585 64.62856 17.53583 64.47855 17.21579 64.23798 16.71663 64.08797 16.41156 63.93796 16.1065 63.69739 15.62895 63.54738 15.33713 63.39737 15.04533 63.1568 14.58815 63.00677 14.30838 62.85678 14.02864 62.6162 13.58997 62.4662 13.32082 62.3162 13.05167 62.0756 12.62833 61.9256 12.36853 61.77559 12.10875 61.53502 11.69968 61.38503 11.44846 61.235 11.1972 60.99443 10.80125 60.84442 10.55775 60.69441 10.31422 60.45384 9.93005 60.30382 9.69336 60.15382 9.45667 59.91325 9.08237 59.76324 8.85182 59.61324 8.62126 59.37265 8.25684 59.22264 8.03171 59.07265 7.8066 58.83206 7.44969 58.68207 7.22928 58.53204 7.00885 58.29147 6.65938 58.14146 6.4431 57.99147 6.2268 57.75089 5.88304 57.60088 5.67041 57.45087 5.45778 57.2103 5.12 57.06029 4.9105 56.91026 4.70103 56.6697 4.36754 56.51968 4.16068 56.36967 3.95378 56.1291 3.62415 55.9791 3.41946 55.82909 3.2148 55.5885 2.88841 55.4385 2.68553 55.2885 2.48264 55.04793 2.15863 54.8979 1.95712 54.74791 1.75565 54.50732 1.4338 54.35733 1.23323 54.2073 1.03265 53.96674 .71152 53.81673 .51141 53.66672 .31131 53.42615-.00902 53.27615-.20898 53.12613-.40894 52.88556-.72943 52.73555-.92976 52.58554-1.13011 52.34497-1.4518 52.19495-1.65297 52.04495-1.85413 51.80438-2.17732 51.65437-2.37964 51.50435-2.58194 51.26378-2.90733 51.11377-3.11116 50.96378-3.31496 50.72319-3.64272 50.5732-3.84854 50.42317-4.05438 50.1826-4.38626 50.0326-4.59459 49.88258-4.8029 49.64201-5.13878 49.492-5.34996 49.342-5.56117 49.10143-5.90213 48.95142-6.11678 48.80139-6.33144 48.56082-6.67845 48.41081-6.89708 48.2608-7.11574 48.02023-7.4695 47.87022-7.6926 47.72021-7.91571 47.47963-8.2768 47.32964-8.5051 47.17963-8.73338 46.93906-9.10384 46.78903-9.338 46.63904-9.57213 46.39845-9.95221 46.24846-10.19269 46.09843-10.43318 45.85786-10.82353 45.70786-11.07126 45.55785-11.31898 45.31728-11.72209 45.16727-11.97823 45.01726-12.23434 44.77669-12.65213 44.62668-12.91734 44.47667-13.18254 44.2361-13.61446 44.08607-13.8897 43.93608-14.16493 43.69551-14.61461 43.5455-14.90114 43.39548-15.18767 43.1549-15.65561 43.0049-15.95482 42.8549-16.25401 42.61432-16.7442 42.46431-17.0576 42.3143-17.371 42.07373-17.88435 41.92372-18.2137 41.77371-18.54305 41.53314-19.08398 41.38313-19.4314 41.23312-19.7788 40.99255-20.35017 40.84254-20.71759 40.69252-21.08502 40.45195-21.68939 40.30194-22.07957 40.15193-22.46974 39.91136-23.11383 39.76134-23.5298 39.61134-23.94576 39.37076-24.6324 39.22076-25.07759 39.07076-25.5228 38.83018-26.25945 38.68016-26.73854 38.53015-27.21765 38.28958-28.01276 38.13959-28.53064 37.98956-29.04854 37.749-29.90887 37.59898-30.47119 37.44897-31.0335 37.2084-31.96896 37.05838-32.58336 36.90839-33.19775 36.66782-34.22375 36.5178-34.89934 36.3678-35.57495 36.12723-36.70567 35.9772-37.45271 35.82721-38.19977 35.58664-39.4499 35.43663-40.28362 35.2866-41.11731 35.04604-42.52286 34.89603-43.46156 34.74603-44.40027 34.50545-45.98299 34.35544-47.04922 34.20543-48.11545 33.96486-49.92181 33.81485-51.14624 33.66484-52.37065 33.42427-54.45015 33.27426-55.87405 33.12425-57.29797 32.88368-59.7295 32.73367-61.40884 32.58365-63.08818 32.19307-67.97757 32.19307-67.97757"/>
<path transform="matrix(1.00005,0,0,-1.00005,69.0885,86.70468)" stroke-width=".79701" stroke-linecap="butt" stroke-miterlimit="10" stroke-linejoin="miter" fill="none" stroke="#ff0000" d="M7.88593 68.0305C7.88593 68.0305 7.40627 62.09833 7.22206 60.10535 7.03784 58.11235 6.7424 55.30212 6.55818 53.66638 6.37396 52.03065 6.07854 49.6869 5.89432 48.31604 5.71011 46.94519 5.41466 44.95526 5.23045 43.78615 5.04625 42.61702 4.75081 40.90031 4.56659 39.88983 4.38237 38.87933 4.08694 37.3883 3.90273 36.5032 3.71852 35.61812 3.42307 34.29594 3.23886 33.51073 3.05464 32.72552 2.75922 31.54645 2.575 30.84386 2.39078 30.14128 2.09534 29.08083 1.91112 28.4469 1.72693 27.81296 1.43147 26.8517 1.24725 26.27484 1.06303 25.69801 .76761 24.81805 .58339 24.28932 .39919 23.76057 .10374 22.95169-.08044 22.46402-.26465 21.97632-.56007 21.22679-.7443 20.77434-.92851 20.32188-1.22395 19.6255-1.40817 19.203-1.59239 18.78052-1.88782 18.12576-2.07202 17.72925-2.25624 17.33275-2.55168 16.71875-2.73589 16.34512-2.9201 15.97151-3.21555 15.39046-3.39977 15.03644-3.58397 14.68242-3.87941 14.13054-4.06363 13.79349-4.24785 13.45647-4.54329 12.92926-4.72751 12.6073-4.91171 12.28535-5.20715 11.78177-5.39136 11.47302-5.57558 11.16425-5.87102 10.6794-6.05524 10.38197-6.23944 10.08455-6.53488 9.61678-6.7191 9.32935-6.9033 9.0419-7.19875 8.58902-7.38295 8.31027-7.56717 8.03152-7.86261 7.59167-8.04683 7.32028-8.23105 7.04887-8.52647 6.61922-8.7107 6.35416-8.8949 6.0891-9.19035 5.66953-9.37457 5.40985-9.55876 5.15015-9.85422 4.73784-10.03842 4.48247-10.22264 4.2271-10.51807 3.82117-10.70229 3.56929-10.8865 3.31744-11.18195 2.91632-11.36617 2.66719-11.55037 2.41806-11.84581 2.02095-12.03001 1.77373-12.21423 1.52654-12.50967 1.13158-12.6939 .88548-12.8781 .63937-13.17354 .24559-13.35776 0-13.54196-.24559-13.83742-.63878-14.0216-.88478-14.20583-1.1308-14.50127-1.52583-14.68549-1.77304-14.8697-2.02025-15.16513-2.41736-15.34935-2.66649-15.53357-2.91562-15.82901-3.31676-16.01323-3.56862-16.19745-3.82047-16.49287-4.2264-16.67708-4.48178-16.8613-4.73714-17.15674-5.14941-17.34094-5.40915-17.52516-5.66888-17.8206-6.08875-18.00482-6.3538-18.18903-6.61887-18.48447-7.04823-18.66867-7.31958-18.85289-7.59093-19.14833-8.0308-19.33255-8.30959-19.51677-8.58838-19.8122-9.04155-19.99641-9.329-20.18062-9.61642-20.47607-10.08385-20.6603-10.38127-20.8445-10.6787-21.13994-11.16385-21.32416-11.47266-21.50836-11.78146-21.80379-12.28519-21.988-12.60695-22.17223-12.92871-22.46767-13.45477-22.65189-13.79176-22.8361-14.12874-23.13153-14.68163-23.31575-15.03575-23.49995-15.38986-23.7954-15.97043-23.97961-16.3441-24.16382-16.71776-24.45926-17.3326-24.64348-17.72891-24.8277-18.12523-25.12314-18.77809-25.30733-19.20058-25.49155-19.62308-25.78699-20.3215-25.9712-20.774-26.15543-21.22649-26.45087-21.97453-26.63507-22.46193-26.81929-22.94933-27.11473-23.75821-27.29895-24.2869-27.48317-24.8156-27.7786-25.69539-27.96281-26.27243-28.14702-26.84949-28.44247-27.81174-28.62666-28.44586-28.81088-29.07999-29.10632-30.14043-29.29054-30.84283-29.47476-31.54523-29.77019-32.72342-29.9544-33.5083-30.13861-34.2932-30.43405-35.6147-30.61827-36.49974-30.80249-37.3848-31.09792-38.87646-31.28214-39.88705-31.46635-40.89763-31.7618-42.61455-31.94601-43.78336-32.13022-44.9522-32.42566-46.94067-32.60988-48.3112-32.79408-49.68172-33.08952-52.02536-33.27373-53.6612-33.45795-55.29703-33.75339-58.10825-33.9376-60.10118-34.12183-62.09413-34.60147-68.02496-34.60147-68.02496"/>
<use data-text="g" xlink:href="#font_1_3" transform="matrix(9.963098,0,0,-9.963098,31.930649,162.74248)" fill="#ff0000"/>
<path transform="matrix(1.00005,0,0,-1.00005,69.0885,86.70468)" stroke-width=".79701" stroke-linecap="butt" stroke-miterlimit="10" stroke-linejoin="miter" fill="none" stroke="#ff0000" d="M-66.79094 0C-66.79094 0-66.5511 .3197-66.459 .44255-66.36688 .56541-66.21918 .76253-66.12706 .88548-66.03496 1.00844-65.88724 1.20554-65.79512 1.32874-65.70302 1.45193-65.5553 1.64981-65.4632 1.77339-65.37108 1.89697-65.22337 2.0954-65.13126 2.21942-65.03915 2.34344-64.89143 2.54266-64.79932 2.66719-64.70721 2.79173-64.5595 2.99193-64.46739 3.11703-64.37529 3.24214-64.22755 3.44312-64.13547 3.56894-64.04337 3.6948-63.89565 3.89728-63.80353 4.02397-63.71143 4.15068-63.5637 4.35446-63.4716 4.48213-63.37949 4.6098-63.23177 4.81537-63.13966 4.94408-63.04755 5.07278-62.89984 5.28008-62.80772 5.40985-62.71562 5.53961-62.5679 5.7484-62.4758 5.87941-62.3837 6.0104-62.23598 6.22171-62.14388 6.35416-62.05176 6.48662-61.90404 6.70006-61.81194 6.8341-61.71983 6.96815-61.57211 7.1846-61.48 7.32028-61.3879 7.45595-61.24017 7.6747-61.14807 7.812-61.05595 7.94931-60.90823 8.1706-60.81613 8.30992-60.72403 8.44925-60.57631 8.67473-60.4842 8.81616-60.3921 8.95761-60.24437 9.1857-60.15225 9.32935-60.06015 9.47298-59.91243 9.7055-59.82033 9.8515-59.72821 9.9975-59.5805 10.23299-59.4884 10.38162-59.3963 10.53027-59.24858 10.7714-59.15646 10.9228-59.06436 11.07423-58.91664 11.3188-58.82454 11.47302-58.73242 11.62723-58.5847 11.8769-58.4926 12.03427-58.4005 12.19165-58.25278 12.44646-58.16066 12.6073-58.06856 12.76813-57.92084 13.02892-57.82874 13.19348-57.73663 13.35805-57.5889 13.62509-57.49681 13.79349-57.4047 13.96191-57.25699 14.23495-57.16487 14.40736-57.07277 14.57976-56.92505 14.85938-56.83293 15.0361-56.74083 15.21283-56.59311 15.49956-56.501 15.68109-56.40889 15.86263-56.26117 16.15773-56.16907 16.34444-56.07697 16.53114-55.92924 16.83467-55.83713 17.02681-55.74504 17.21893-55.59732 17.53142-55.50522 17.72925-55.4131 17.92711-55.26538 18.24838-55.17328 18.4528-55.08116 18.65724-54.93346 18.99161-54.84134 19.20267-54.74924 19.41371-54.6015 19.75595-54.5094 19.97397-54.4173 20.19197-54.26958 20.548-54.17747 20.774-54.08536 20.99997-53.93765 21.36844-53.84554 21.60274-53.75343 21.83702-53.60571 22.21898-53.5136 22.46262-53.4215 22.70627-53.27377 23.10545-53.18167 23.35886-53.08955 23.61226-52.94183 24.0254-52.84973 24.28899-52.75764 24.55255-52.60992 24.98303-52.5178 25.25856-52.4257 25.5341-52.27798 25.98705-52.18588 26.27484-52.09377 26.56267-51.94604 27.03175-51.85394 27.33302-51.76183 27.63431-51.61412 28.12967-51.522 28.44621-51.4299 28.76274-51.28218 29.2818-51.19006 29.61443-51.09796 29.94704-50.95024 30.49309-50.85815 30.84352-50.76604 31.19395-50.61832 31.77028-50.52621 32.14009-50.43411 32.5099-50.28639 33.11786-50.19427 33.509-50.10217 33.90013-49.95445 34.54387-49.86235 34.95923-49.77023 35.37457-49.62251 36.06093-49.53041 36.50252-49.4383 36.9441-49.29059 37.67204-49.19847 38.14201-49.10638 38.61198-48.95865 39.38676-48.86655 39.88983-48.77443 40.39288-48.62671 41.22728-48.5346 41.76773-48.44249 42.3082-48.29478 43.20354-48.20267 43.7851-48.11057 44.36665-47.96284 45.33109-47.87074 45.95923-47.77864 46.58734-47.63092 47.63077-47.53882 48.31224-47.4467 48.9937-47.29898 50.1282-47.20688 50.87079-47.11478 51.61339-46.96706 52.85149-46.87494 53.66429-46.78284 54.47713-46.63512 55.83543-46.54301 56.72911-46.4509 57.62279-46.30318 59.1168-46.21107 60.10535-46.11897 61.09389-45.97125 62.7543-45.87915 63.8539-45.78705 64.9535-45.54721 68.0305-45.54721 68.0305"/>
<path transform="matrix(1.00005,0,0,-1.00005,69.0885,86.70468)" stroke-width=".79701" stroke-linecap="butt" stroke-miterlimit="10" stroke-linejoin="miter" fill="none" stroke="#ff0000" d="M18.83089-68.0326C18.83089-68.0326 19.31053-62.10352 19.49475-60.11053 19.67897-58.11754 19.97441-55.30493 20.15862-53.66846 20.34282-52.032 20.63828-49.68721 20.82248-48.31604 21.0067-46.94489 21.30214-44.95515 21.48634-43.78615 21.67056-42.61711 21.966-40.901 22.15022-39.89052 22.33444-38.88002 22.62987-37.38838 22.81409-36.5032 22.99829-35.61804 23.29375-34.29594 23.47794-33.51073 23.66216-32.72552 23.9576-31.54625 24.14182-30.84386 24.32603-30.14145 24.62146-29.08223 24.80568-28.44829 24.98988-27.81435 25.28534-26.8519 25.46954-26.27484 25.65376-25.69781 25.94919-24.81801 26.1334-24.28932 26.31763-23.76064 26.61308-22.95206 26.79729-22.46437 26.98149-21.97667 27.27693-21.22684 27.46115-20.77434 27.64537-20.32182 27.9408-19.62546 28.12502-19.203 28.30922-18.78056 28.60466-18.12613 28.78888-17.7296 28.9731-17.33308 29.26852-16.7188 29.45274-16.34512 29.63696-15.97147 29.9324-15.39041 30.11661-15.03644 30.30081-14.68246 30.59625-14.13063 30.78047-13.79384 30.96469-13.45705 31.26013-12.93105 31.44434-12.60902 31.62854-12.28702 31.924-11.78186 32.1082-11.47302 32.29242-11.16417 32.58786-10.68044 32.77208-10.38303 32.95628-10.08559 33.25174-9.61688 33.43594-9.32935 33.62016-9.04181 33.91559-8.58937 34.09981-8.31062 34.28403-8.03188 34.57947-7.59172 34.76367-7.32028 34.94788-7.04883 35.24332-6.61917 35.42754-6.35416 35.61176-6.08914 35.90718-5.66988 36.0914-5.41017 36.27562-5.1505 36.57106-4.73788 36.75526-4.48247 36.93948-4.22705 37.23491-3.8211 37.41913-3.56929 37.60335-3.31749 37.8988-2.91667 38.08301-2.66754 38.26721-2.41841 38.56265-2.02095 38.74687-1.77373 38.93109-1.52654 39.22652-1.13188 39.41074-.88583 39.59494-.63977 39.8904-.24599 40.0746-.00032 40.25882 .2453 40.55424 .63872 40.73846 .88478 40.92268 1.13084 41.21812 1.52583 41.40234 1.77304 41.58653 2.02025 41.88199 2.41736 42.0662 2.66649 42.25041 2.91562 42.54585 3.31679 42.73006 3.56862 42.91428 3.82043 43.20972 4.22606 43.39394 4.48143 43.57814 4.7368 43.87358 5.14941 44.0578 5.40915 44.24202 5.66888 44.53746 6.08844 44.72166 6.35345 44.90588 6.61848 45.20131 7.04784 45.38553 7.31924 45.56975 7.59064 45.86519 8.0308 46.0494 8.30959 46.2336 8.58838 46.52905 9.04126 46.71326 9.32864 46.89748 9.61603 47.1929 10.08351 47.37712 10.38094 47.56134 10.67836 47.85678 11.1635 48.041 11.47232 48.2252 11.78113 48.52065 12.28485 48.70485 12.60661 48.88907 12.92836 49.18452 13.45462 49.36874 13.79143 49.55293 14.1282 49.84837 14.67984 50.0326 15.03401 50.21681 15.3882 50.51224 15.97018 50.69646 16.3441 50.88068 16.718 51.17612 17.3326 51.36032 17.72891 51.54454 18.12523 51.83997 18.77809 52.02419 19.20058 52.2084 19.62308 52.50385 20.3215 52.68806 20.774 52.87225 21.22649 53.16771 21.97458 53.35191 22.46193 53.53613 22.94928 53.83157 23.75787 54.01578 24.28656 54.2 24.81526 54.49544 25.69563 54.67966 26.27243 54.86386 26.84924 55.1593 27.80966 55.34352 28.44379 55.52774 29.07791 55.82318 30.14018 56.0074 30.84283 56.1916 31.54547 56.48703 32.72307 56.67125 33.50797 56.85547 34.29285 57.15091 35.6149 57.33511 36.49974 57.51933 37.3846 57.81477 38.87505 57.999 39.88533 58.1832 40.89561 58.47862 42.61221 58.66284 43.7813 58.84706 44.95036 59.1425 46.94038 59.32672 48.3112 59.51094 49.682 59.80637 52.02536 59.99057 53.6612 60.17479 55.29703 60.47025 58.1084 60.65446 60.10118 60.83865 62.09398 61.31831 68.02394 61.31831 68.02394"/>
</svg>
