<svg xmlns="http://www.w3.org/2000/svg" xmlns:xlink="http://www.w3.org/1999/xlink" version="1.1" width="172" height="99" viewBox="0 0 172 99">
<defs>
<path id="font_1_1" d="M.20599365 .3996582H.2999878C.31999208 .3996582 .32998658 .3996582 .32998658 .41966249 .32998658 .43066407 .31999208 .43066407 .3019867 .43066407H.21398926C.25 .5724945 .25498963 .59246829 .25498963 .59846499 .25498963 .61546328 .24299622 .62545779 .22599793 .62545779 .22299195 .62545779 .19499207 .62446597 .18598938 .58947756L.14698792 .43066407H.052993776C.032989503 .43066407 .022994996 .43066407 .022994996 .4116516 .022994996 .3996582 .0309906 .3996582 .050994874 .3996582H.13899231C.066986087 .11608887 .06298828 .099121097 .06298828 .08114624 .06298828 .02722168 .100997928-.0107421879 .15499878-.0107421879 .25698854-.0107421879 .31399537 .13505554 .31399537 .14305115 .31399537 .1530304 .30599977 .1530304 .3019867 .1530304 .29299928 .1530304 .2919922 .15003968 .2869873 .13905335 .24398804 .035217287 .19099427 .011245728 .15699768 .011245728 .13598633 .011245728 .12599182 .024230957 .12599182 .057174684 .12599182 .08114624 .12799073 .088134769 .13198853 .10510254L.20599365 .3996582Z"/>
<path id="font_1_2" d="M.48599244 .38136292C.48999024 .39537049 .48999024 .39736939 .48999024 .40437318 .48999024 .42237855 .47599793 .43138124 .46099855 .43138124 .45098878 .43138124 .43499757 .42536927 .42599488 .41036988 .42399598 .405365 .41600038 .37435914 .4119873 .35635377 .40499879 .33035279 .397995 .30334474 .3919983 .27633668L.34700013 .09628296C.34298707 .08126831 .2999878 .011245728 .23399353 .011245728 .18299866 .011245728 .17199707 .055267335 .17199707 .0922699 .17199707 .1382904 .18899536 .20030213 .22299195 .28833009 .23899842 .3293457 .24299622 .3403473 .24299622 .36035157 .24299622 .405365 .21099854 .4423828 .16099549 .4423828 .06599426 .4423828 .0289917 .29733277 .0289917 .28833009 .0289917 .27833558 .038986207 .27833558 .040985109 .27833558 .050994874 .27833558 .051986696 .28033448 .056991579 .29634095 .083999637 .3903656 .12399292 .42037965 .1579895 .42037965 .1659851 .42037965 .18299866 .42037965 .18299866 .3883667 .18299866 .36335755 .17298889 .3373413 .1659851 .31834413 .12599182 .21231079 .10798645 .1552887 .10798645 .10827637 .10798645 .019256592 .17098999-.0107421879 .22999573-.0107421879 .2689972-.0107421879 .30299378 .0062561037 .33099366 .03425598 .31799317-.017745972 .30599977-.06674194 .2659912-.11973572 .23999024-.15385437 .20199585-.18309021 .1559906-.18309021 .14199829-.18309021 .09700012-.18005371 .07998657-.14074707 .09599304-.14074707 .10899353-.14074707 .12298584-.1287384 .1329956-.11973572 .14299011-.10673523 .14299011-.08773804 .14299011-.056747438 .115997318-.052734376 .10598755-.052734376 .08299255-.052734376 .049987794-.068740848 .049987794-.11773682 .049987794-.16796875 .09399414-.20507813 .1559906-.20507813 .25898744-.20507813 .3619995-.11373901 .3899994-.00074768069L.48599244 .38136292Z"/>
<path id="font_2_82" d="M.4189911 0V.0309906H.3869934C.29699708 .0309906 .2939911 .041992189 .2939911 .07902527V.64012148C.2939911 .6640167 .2939911 .6660156 .2709961 .6660156 .20899964 .60227969 .12098694 .60227969 .08898926 .60227969V.57128909C.10899353 .57128909 .16799927 .57128909 .21998596 .5972748V.07902527C.21998596 .042999269 .21699524 .0309906 .1269989 .0309906H.09498596V0C.12998963 .0029907227 .21699524 .0029907227 .25698854 .0029907227 .29699708 .0029907227 .38398744 .0029907227 .4189911 0Z"/>
<path id="font_2_121" d="M.45999146 .31976319C.45999146 .39982606 .45498658 .47988893 .41999818 .5539398 .37399293 .65000918 .2919922 .6660156 .25 .6660156 .18998719 .6660156 .116989139 .64001467 .07598877 .54693606 .04399109 .47789 .038986207 .39982606 .038986207 .31976319 .038986207 .24472046 .042999269 .15464783 .083999637 .07859802 .1269989-.0024719239 .19999695-.022460938 .24899292-.022460938 .30299378-.022460938 .3789978-.0014648438 .4229889 .09359741 .45498658 .16265869 .45999146 .2407074 .45999146 .31976319M.3769989 .3317871C.3769989 .25672914 .3769989 .18867493 .3659973 .12461853 .35099793 .029556275 .2939911-.00047302247 .24899292-.00047302247 .20999146-.00047302247 .15098572 .024551392 .1329956 .12062073 .12199402 .18066406 .12199402 .2727356 .12199402 .3317871 .12199402 .39582826 .12199402 .46188355 .12998963 .5159149 .14898682 .63500979 .22399903 .64401248 .24899292 .64401248 .28199769 .64401248 .34799195 .6259918 .36698915 .52693179 .3769989 .47088624 .3769989 .39482118 .3769989 .3317871Z"/>
<path id="font_2_107" d="M.44898988 .17396546H.42399598C.4189911 .14398194 .4119873 .099990848 .4019928 .084991458 .394989 .07699585 .32899476 .07699585 .30699159 .07699585H.1269989L.23298645 .17996216C.3889923 .31803895 .44898988 .37210084 .44898988 .47216798 .44898988 .5860901 .35899354 .6660156 .23699951 .6660156 .12399292 .6660156 .049987794 .57411196 .049987794 .48516847 .049987794 .4291687 .099990848 .4291687 .102996829 .4291687 .11999512 .4291687 .15499878 .44117738 .15499878 .48217774 .15499878 .5081787 .13699341 .5341797 .101989749 .5341797 .09399414 .5341797 .09199524 .5341797 .08898926 .5331726 .11199951 .59806826 .1659851 .63500979 .22399903 .63500979 .31498719 .63500979 .35798646 .5541382 .35798646 .47216798 .35798646 .39196778 .30799867 .31297303 .25299073 .25097657L.06098938 .036987306C.049987794 .025985718 .049987794 .023986817 .049987794 0H.42099L.44898988 .17396546Z"/>
<path id="font_2_51" d="M.45700074 .16764832C.45700074 .20367432 .44599916 .24871826 .4079895 .29074098 .3889923 .31176759 .37298585 .32176209 .30899049 .36180116 .3809967 .39881898 .42999269 .4508667 .42999269 .51690676 .42999269 .6089783 .34098817 .6660156 .25 .6660156 .1499939 .6660156 .068984989 .5919647 .068984989 .49890138 .068984989 .48088075 .070999149 .43585206 .11299133 .38882447 .12399292 .3768158 .16099549 .35179139 .18598938 .33477784 .12799073 .30575563 .041992189 .24971009 .041992189 .15063477 .041992189 .044555665 .14399719-.022460938 .24899292-.022460938 .3619995-.022460938 .45700074 .060577394 .45700074 .16764832M.38598634 .51690676C.38598634 .45986939 .34700013 .41183473 .2869873 .3768158L.16299439 .4568634C.116989139 .4868927 .11299133 .5209198 .11299133 .53793337 .11299133 .5989685 .17799378 .64100649 .24899292 .64100649 .32199098 .64100649 .38598634 .588974 .38598634 .51690676M.40699769 .13162232C.40699769 .05757141 .33198548 .0055389406 .25 .0055389406 .1639862 .0055389406 .09199524 .06758118 .09199524 .15063477 .09199524 .2086792 .12399292 .2727356 .20899964 .31976319L.33198548 .24171448C.3600006 .22268677 .40699769 .19267273 .40699769 .13162232Z"/>
<path id="font_2_101" d="M.45700074 .2036438C.45700074 .33070375 .36799623 .4267578 .25698854 .4267578 .18899536 .4267578 .1519928 .37573243 .13198853 .327713V.35173036C.13198853 .6047821 .2559967 .64100649 .30699159 .64100649 .33099366 .64100649 .37298585 .634964 .394989 .6007538 .37998963 .6007538 .33999635 .6007538 .33999635 .5557556 .33999635 .524765 .3639984 .5097656 .38598634 .5097656 .4019928 .5097656 .43199159 .51875308 .43199159 .5577545 .43199159 .6178589 .3880005 .6660156 .30499269 .6660156 .1769867 .6660156 .041992189 .5367584 .041992189 .31570436 .041992189 .048553468 .1579895-.022460938 .25099183-.022460938 .3619995-.022460938 .45700074 .07156372 .45700074 .2036438M.36698915 .20463562C.36698915 .15661621 .36698915 .10658264 .34999085 .0705719 .31999208 .010528564 .27398683 .0055389406 .25099183 .0055389406 .18798828 .0055389406 .1579895 .06556702 .1519928 .080566409 .13398743 .127594 .13398743 .2076416 .13398743 .22564698 .13398743 .30369569 .1659851 .40374757 .2559967 .40374757 .27198792 .40374757 .31799317 .40374757 .34899903 .34172059 .36698915 .30470277 .36698915 .2536621 .36698915 .20463562Z"/>
<path id="font_2_57" d="M.47099305 .16503906V.19602967H.37098695V.6507721C.37098695 .6707611 .37098695 .6767578 .35499574 .6767578 .34599305 .6767578 .34298707 .6767578 .33499146 .6647644L.027999878 .19602967V.16503906H.2939911V.07800293C.2939911 .041992189 .2919922 .0309906 .21798706 .0309906H.19699097V0C.23799134 .0029907227 .2899933 .0029907227 .33198548 .0029907227 .37399293 .0029907227 .4269867 .0029907227 .46798707 0V.0309906H.44699098C.37298585 .0309906 .37098695 .041992189 .37098695 .07800293V.16503906H.47099305M.2999878 .19602967H.055999757L.2999878 .56881716V.19602967Z"/>
</defs>
<path transform="matrix(1.00008,0,0,-1.00003,17.169175,85.57418)" stroke-width=".3985" stroke-linecap="butt" stroke-miterlimit="10" stroke-linejoin="miter" fill="none" stroke="#00aeef" d="M0-11.3394H141.73188M0 0H141.73188M0 11.3394H141.73188M0 22.67882H141.73188M0 34.01823H141.73188M0 45.35765H141.73188M0 56.69707H141.73188M0 68.03549H141.73188M0-11.3394V68.03648M28.34636-11.3394V68.03648M56.69275-11.3394V68.03648M85.03911-11.3394V68.03648M113.3855-11.3394V68.03648M141.72988-11.3394V68.03648M141.73188 68.03648"/>
<path transform="matrix(1.00008,0,0,-1.00003,17.169175,85.57418)" stroke-width=".79701" stroke-linecap="butt" stroke-miterlimit="10" stroke-linejoin="miter" fill="none" stroke="#000000" d="M0 0H145.39957"/>
<path transform="matrix(1.00008,0,0,-1.00003,162.58037,85.57418)" d="M1.0361 0C-.25902 .25902-1.55415 .77707-3.1083 1.68365-1.55415 .51805-1.55415-.51805-3.1083-1.68365-1.55415-.77707-.25902-.25902 1.0361 0Z"/>
<path transform="matrix(1.00008,0,0,-1.00003,162.58037,85.57418)" stroke-width=".79701" stroke-linecap="butt" stroke-linejoin="round" fill="none" stroke="#000000" d="M1.0361 0C-.25902 .25902-1.55415 .77707-3.1083 1.68365-1.55415 .51805-1.55415-.51805-3.1083-1.68365-1.55415-.77707-.25902-.25902 1.0361 0Z"/>
<use data-text="t" xlink:href="#font_1_1" transform="matrix(9.963397,0,0,-9.962899,167.7342,88.638278)"/>
<path transform="matrix(1.00008,0,0,-1.00003,17.169175,85.57418)" stroke-width=".79701" stroke-linecap="butt" stroke-miterlimit="10" stroke-linejoin="miter" fill="none" stroke="#000000" d="M0-11.3394V72.27158"/>
<path transform="matrix(0,-1.00003,-1.00008,-0,17.169175,13.300423)" d="M1.0361 0C-.25902 .25902-1.55415 .77707-3.1083 1.68365-1.55415 .51805-1.55415-.51805-3.1083-1.68365-1.55415-.77707-.25902-.25902 1.0361 0Z"/>
<path transform="matrix(0,-1.00003,-1.00008,-0,17.169175,13.300423)" stroke-width=".79701" stroke-linecap="butt" stroke-linejoin="round" fill="none" stroke="#000000" d="M1.0361 0C-.25902 .25902-1.55415 .77707-3.1083 1.68365-1.55415 .51805-1.55415-.51805-3.1083-1.68365-1.55415-.77707-.25902-.25902 1.0361 0Z"/>
<use data-text="y" xlink:href="#font_1_2" transform="matrix(9.963397,0,0,-9.962899,14.547966,6.2098009)"/>
<path transform="matrix(1.00008,0,0,-1.00003,17.169175,85.57418)" stroke-width=".79701" stroke-linecap="butt" stroke-miterlimit="10" stroke-linejoin="miter" fill="none" stroke="#000000" d="M56.69275 .85045V-.85045"/>
<use data-text="1" xlink:href="#font_2_82" transform="matrix(9.963397,0,0,-9.962899,68.88431,96.77952)"/>
<use data-text="0" xlink:href="#font_2_121" transform="matrix(9.963397,0,0,-9.962899,73.866008,96.77952)"/>
<path transform="matrix(1.00008,0,0,-1.00003,17.169175,85.57418)" stroke-width=".79701" stroke-linecap="butt" stroke-miterlimit="10" stroke-linejoin="miter" fill="none" stroke="#000000" d="M113.3855 .85045V-.85045"/>
<use data-text="2" xlink:href="#font_2_107" transform="matrix(9.963397,0,0,-9.962899,125.58185,96.77952)"/>
<use data-text="0" xlink:href="#font_2_121" transform="matrix(9.963397,0,0,-9.962899,130.56354,96.77952)"/>
<path transform="matrix(1.00008,0,0,-1.00003,17.169175,85.57418)" stroke-width=".79701" stroke-linecap="butt" stroke-miterlimit="10" stroke-linejoin="miter" fill="none" stroke="#000000" d="M2.26765 22.67882H-2.26775"/>
<use data-text="8" xlink:href="#font_2_51" transform="matrix(9.963397,0,0,-9.962899,6.2002947,66.10259)"/>
<path transform="matrix(1.00008,0,0,-1.00003,17.169175,85.57418)" stroke-width=".79701" stroke-linecap="butt" stroke-miterlimit="10" stroke-linejoin="miter" fill="none" stroke="#000000" d="M2.26765 45.35765H-2.26775"/>
<use data-text="1" xlink:href="#font_2_82" transform="matrix(9.963397,0,0,-9.962899,1.2178955,43.422914)"/>
<use data-text="6" xlink:href="#font_2_101" transform="matrix(9.963397,0,0,-9.962899,6.1995928,43.422914)"/>
<path transform="matrix(1.00008,0,0,-1.00003,17.169175,85.57418)" stroke-width=".79701" stroke-linecap="butt" stroke-miterlimit="10" stroke-linejoin="miter" fill="none" stroke="#000000" d="M2.26765 68.03648H-2.26775"/>
<use data-text="2" xlink:href="#font_2_107" transform="matrix(9.963397,0,0,-9.962899,1.2178955,20.908234)"/>
<use data-text="4" xlink:href="#font_2_57" transform="matrix(9.963397,0,0,-9.962899,6.1995928,20.908234)"/>
<path transform="matrix(1.00008,0,0,-1.00003,17.169175,85.57418)" stroke-width=".79701" stroke-linecap="butt" stroke-miterlimit="10" stroke-linejoin="miter" fill="none" stroke="#ff0000" d="M0 68.03648C0 68.03648 1.60002 67.49693 2.21454 66.8465 2.82909 66.19606 3.81458 64.61024 4.42911 63.34862 5.04362 62.08699 6.02913 59.5506 6.64366 57.75356 7.2582 55.95653 8.2437 52.62173 8.85823 50.39685 9.47276 48.17197 10.45825 44.23761 11.0728 41.71814 11.68732 39.19865 12.67282 34.90114 13.28734 32.23824 13.90189 29.57532 14.88737 25.17262 15.5019 22.52579 16.11644 19.87892 17.10194 15.63371 17.71648 13.16153 18.331 10.68938 19.31651 6.85736 19.93103 4.7081 20.54556 2.55884 21.53105-.6312 22.1456-2.32883 22.76012-4.02644 23.74562-6.38297 24.36014-7.5272 24.97469-8.67146 25.96019-10.05371 26.5747-10.57574 27.18925-11.09781 28.17474-11.42107 28.78928-11.28975 29.40381-11.15842 30.38931-10.40585 31.00383-9.62921 31.61836-8.85257 32.60385-7.06784 33.2184-5.69226 33.83292-4.3167 34.81842-1.60725 35.43297 .28488 36.04749 2.17702 37.03299 5.6496 37.6475 7.94499 38.26205 10.24037 39.24754 14.26749 39.86208 16.82838 40.47661 19.38928 41.46211 23.7296 42.07663 26.40215 42.69116 29.07472 43.67667 33.46613 44.2912 36.0904 44.90573 38.71465 45.89122 42.89697 46.50577 45.31595 47.12029 47.73494 48.10579 51.45612 48.72032 53.52473 49.33485 55.59332 50.32034 58.63086 50.93488 60.22498 51.54941 61.81908 52.53491 63.99007 53.14944 65.01398 53.76398 66.0379 54.74948 67.21213 55.364 67.60469 55.97853 67.99725 56.96404 68.10545 57.57857 67.84329 58.19308 67.58115 59.17859 66.61667 59.79312 65.71526 60.40765 64.81384 61.39316 62.83325 62.00768 61.34653 62.62222 59.8598 63.60771 56.98267 64.22224 54.99994 64.83678 53.01721 65.82228 49.41634 66.4368 47.05641 67.05135 44.6965 68.03683 40.58702 68.65137 37.99133 69.26588 35.39566 70.25139 31.02437 70.86594 28.34853 71.48045 25.67268 72.46596 21.3014 73.08049 18.7057 73.69502 16.11003 74.68051 12.00053 75.29504 9.64063 75.90958 7.28072 76.89508 3.67982 77.5096 1.69711 78.12415-.2856 79.10965-3.16272 79.72417-4.64944 80.3387-6.13618 81.32419-8.11676 81.93874-9.01817 82.55325-9.91959 83.53876-10.88406 84.15329-11.14622 84.76782-11.40837 85.75331-11.30017 86.36786-10.90761 86.98238-10.51505 87.96788-9.34082 88.58241-8.31691 89.19695-7.29297 90.18245-5.12201 90.79697-3.52788 91.41151-1.93378 92.397 1.10373 93.01154 3.17233 93.62605 5.24092 94.61157 8.96213 95.22609 11.3811 95.84062 13.80008 96.82613 17.9824 97.44066 20.60666 98.05519 23.23091 99.04068 27.62231 99.65521 30.29489 100.26974 32.96745 101.25525 37.30775 101.86977 39.86867 102.48431 42.42957 103.46982 46.4567 104.08434 48.75208 104.69888 51.04744 105.68437 54.52003 106.2989 56.41217 106.91342 58.30432 107.89893 61.01378 108.51346 62.38936 109.12799 63.76492 110.11348 65.54967 110.72803 66.3263 111.34254 67.10292 112.32805 67.8555 112.94258 67.98683 113.55711 68.11816 114.54262 67.79488 115.15714 67.27284 115.77168 66.75078 116.75717 65.36853 117.3717 64.22429 117.98622 63.08003 118.97173 60.72354 119.58626 59.0259 120.20079 57.32828 121.1863 54.1382 121.80083 51.98895 122.41536 49.83968 123.40085 46.00769 124.0154 43.5355 124.62991 41.06335 125.61542 36.81813 126.22993 34.17128 126.84448 31.52441 127.82997 27.12172 128.4445 24.45882 129.05904 21.79591 130.04454 17.49838 130.65908 14.97891 131.27359 12.45944 132.25911 8.52509 132.87363 6.3002 133.48816 4.0753 134.47365 .74052 135.0882-1.05649 135.70272-2.85352 136.68822-5.3899 137.30274-6.65152 137.91728-7.91315 138.90279-9.49898 139.5173-10.14941 140.13185-10.79984 141.73188-11.3394 141.73188-11.3394"/>
</svg>
