<svg xmlns="http://www.w3.org/2000/svg" xmlns:xlink="http://www.w3.org/1999/xlink" version="1.1" width="153" height="103" viewBox="0 0 153 103">
<defs>
<path id="font_1_1" d="M.20599365 .3996582H.2999878C.31999208 .3996582 .32998658 .3996582 .32998658 .41966249 .32998658 .43066407 .31999208 .43066407 .3019867 .43066407H.21398926C.25 .5724945 .25498963 .59246829 .25498963 .59846499 .25498963 .61546328 .24299622 .62545779 .22599793 .62545779 .22299195 .62545779 .19499207 .62446597 .18598938 .58947756L.14698792 .43066407H.052993776C.032989503 .43066407 .022994996 .43066407 .022994996 .4116516 .022994996 .3996582 .0309906 .3996582 .050994874 .3996582H.13899231C.066986087 .11608887 .06298828 .099121097 .06298828 .08114624 .06298828 .02722168 .100997928-.0107421879 .15499878-.0107421879 .25698854-.0107421879 .31399537 .13505554 .31399537 .14305115 .31399537 .1530304 .30599977 .1530304 .3019867 .1530304 .29299928 .1530304 .2919922 .15003968 .2869873 .13905335 .24398804 .035217287 .19099427 .011245728 .15699768 .011245728 .13598633 .011245728 .12599182 .024230957 .12599182 .057174684 .12599182 .08114624 .12799073 .088134769 .13198853 .10510254L.20599365 .3996582Z"/>
<path id="font_1_2" d="M.48599244 .38136292C.48999024 .39537049 .48999024 .39736939 .48999024 .40437318 .48999024 .42237855 .47599793 .43138124 .46099855 .43138124 .45098878 .43138124 .43499757 .42536927 .42599488 .41036988 .42399598 .405365 .41600038 .37435914 .4119873 .35635377 .40499879 .33035279 .397995 .30334474 .3919983 .27633668L.34700013 .09628296C.34298707 .08126831 .2999878 .011245728 .23399353 .011245728 .18299866 .011245728 .17199707 .055267335 .17199707 .0922699 .17199707 .1382904 .18899536 .20030213 .22299195 .28833009 .23899842 .3293457 .24299622 .3403473 .24299622 .36035157 .24299622 .405365 .21099854 .4423828 .16099549 .4423828 .06599426 .4423828 .0289917 .29733277 .0289917 .28833009 .0289917 .27833558 .038986207 .27833558 .040985109 .27833558 .050994874 .27833558 .051986696 .28033448 .056991579 .29634095 .083999637 .3903656 .12399292 .42037965 .1579895 .42037965 .1659851 .42037965 .18299866 .42037965 .18299866 .3883667 .18299866 .36335755 .17298889 .3373413 .1659851 .31834413 .12599182 .21231079 .10798645 .1552887 .10798645 .10827637 .10798645 .019256592 .17098999-.0107421879 .22999573-.0107421879 .2689972-.0107421879 .30299378 .0062561037 .33099366 .03425598 .31799317-.017745972 .30599977-.06674194 .2659912-.11973572 .23999024-.15385437 .20199585-.18309021 .1559906-.18309021 .14199829-.18309021 .09700012-.18005371 .07998657-.14074707 .09599304-.14074707 .10899353-.14074707 .12298584-.1287384 .1329956-.11973572 .14299011-.10673523 .14299011-.08773804 .14299011-.056747438 .115997318-.052734376 .10598755-.052734376 .08299255-.052734376 .049987794-.068740848 .049987794-.11773682 .049987794-.16796875 .09399414-.20507813 .1559906-.20507813 .25898744-.20507813 .3619995-.11373901 .3899994-.00074768069L.48599244 .38136292Z"/>
<path id="font_2_56" d="M.44898988 .20091248C.44898988 .31991578 .36698915 .41992188 .25898744 .41992188 .21099854 .41992188 .16799927 .4039154 .13198853 .36891175V.5641022C.1519928 .55778506 .18499756 .55078127 .21699524 .55078127 .33999635 .55078127 .4099884 .6418457 .4099884 .65493777 .4099884 .6609802 .40699769 .6660156 .3999939 .6660156 .3999939 .66607668 .39698792 .66607668 .3919983 .66308596 .37199403 .65408328 .32299806 .63378909 .2559967 .63378909 .21598816 .63409426 .16999817 .641098 .12298584 .6621094 .114990238 .6651001 .11099243 .6651001 .11099243 .6651001 .100997928 .66508486 .100997928 .657074 .100997928 .64108279V.3447113C.100997928 .3266449 .100997928 .31861878 .114990238 .31861878 .12199402 .31861878 .12399292 .32164 .12799073 .32765199 .13899231 .34371949 .17599488 .3979187 .25698854 .3979187 .30899049 .3979187 .33399964 .3517456 .34199525 .3336792 .35798646 .2965393 .3600006 .2574005 .3600006 .20721436 .3600006 .17218018 .3600006 .112197879 .33599855 .07032776 .31199647 .031448366 .2749939 .0055389406 .22898865 .0055389406 .1559906 .0055389406 .09899902 .05836487 .08198547 .1171875 .084991458 .11685181 .08799744 .115859989 .09899902 .115859989 .13198853 .115859989 .14898682 .14085388 .14898682 .16485596 .14898682 .18885803 .13198853 .21386719 .09899902 .21386719 .084991458 .21386719 .049987794 .2068634 .049987794 .16085816 .049987794 .07432556 .11898804-.022460938 .23098755-.022460938 .34700013-.022460938 .44898988 .07331848 .44898988 .20019531V.20091248Z"/>
<path id="font_2_121" d="M.45999146 .31976319C.45999146 .39982606 .45498658 .47988893 .41999818 .5539398 .37399293 .65000918 .2919922 .6660156 .25 .6660156 .18998719 .6660156 .116989139 .64001467 .07598877 .54693606 .04399109 .47789 .038986207 .39982606 .038986207 .31976319 .038986207 .24472046 .042999269 .15464783 .083999637 .07859802 .1269989-.0024719239 .19999695-.022460938 .24899292-.022460938 .30299378-.022460938 .3789978-.0014648438 .4229889 .09359741 .45498658 .16265869 .45999146 .2407074 .45999146 .31976319M.3769989 .3317871C.3769989 .25672914 .3769989 .18867493 .3659973 .12461853 .35099793 .029556275 .2939911-.00047302247 .24899292-.00047302247 .20999146-.00047302247 .15098572 .024551392 .1329956 .12062073 .12199402 .18066406 .12199402 .2727356 .12199402 .3317871 .12199402 .39582826 .12199402 .46188355 .12998963 .5159149 .14898682 .63500979 .22399903 .64401248 .24899292 .64401248 .28199769 .64401248 .34799195 .6259918 .36698915 .52693179 .3769989 .47088624 .3769989 .39482118 .3769989 .3317871Z"/>
<path id="font_2_82" d="M.4189911 0V.0309906H.3869934C.29699708 .0309906 .2939911 .041992189 .2939911 .07902527V.64012148C.2939911 .6640167 .2939911 .6660156 .2709961 .6660156 .20899964 .60227969 .12098694 .60227969 .08898926 .60227969V.57128909C.10899353 .57128909 .16799927 .57128909 .21998596 .5972748V.07902527C.21998596 .042999269 .21699524 .0309906 .1269989 .0309906H.09498596V0C.12998963 .0029907227 .21699524 .0029907227 .25698854 .0029907227 .29699708 .0029907227 .38398744 .0029907227 .4189911 0Z"/>
<path id="font_2_100" d="M.4850006 .6435547H.24198914C.11999512 .6435547 .117996219 .6566467 .11399841 .67578127H.08898926L.055999757 .46954347H.08099365C.083999637 .48554994 .09298706 .54855349 .10598755 .5605469 .11299133 .5665436 .19099427 .5665436 .20399475 .5665436H.41099549L.29899598 .40853883C.20899964 .2735443 .17599488 .13453675 .17599488 .03253174 .17599488 .022537232 .17599488-.022460938 .22200012-.022460938 .2679901-.022460938 .2679901 .022537232 .2679901 .03253174V.08354187C.2679901 .13853455 .2709961 .19354248 .2789917 .24754334 .2829895 .27053834 .29699708 .35653688 .34098817 .41854859L.47599793 .608551C.4850006 .62054446 .4850006 .62254336 .4850006 .6435547Z"/>
<path id="font_2_57" d="M.47099305 .16503906V.19602967H.37098695V.6507721C.37098695 .6707611 .37098695 .6767578 .35499574 .6767578 .34599305 .6767578 .34298707 .6767578 .33499146 .6647644L.027999878 .19602967V.16503906H.2939911V.07800293C.2939911 .041992189 .2919922 .0309906 .21798706 .0309906H.19699097V0C.23799134 .0029907227 .2899933 .0029907227 .33198548 .0029907227 .37399293 .0029907227 .4269867 .0029907227 .46798707 0V.0309906H.44699098C.37298585 .0309906 .37098695 .041992189 .37098695 .07800293V.16503906H.47099305M.2999878 .19602967H.055999757L.2999878 .56881716V.19602967Z"/>
<path id="font_2_107" d="M.44898988 .17396546H.42399598C.4189911 .14398194 .4119873 .099990848 .4019928 .084991458 .394989 .07699585 .32899476 .07699585 .30699159 .07699585H.1269989L.23298645 .17996216C.3889923 .31803895 .44898988 .37210084 .44898988 .47216798 .44898988 .5860901 .35899354 .6660156 .23699951 .6660156 .12399292 .6660156 .049987794 .57411196 .049987794 .48516847 .049987794 .4291687 .099990848 .4291687 .102996829 .4291687 .11999512 .4291687 .15499878 .44117738 .15499878 .48217774 .15499878 .5081787 .13699341 .5341797 .101989749 .5341797 .09399414 .5341797 .09199524 .5341797 .08898926 .5331726 .11199951 .59806826 .1659851 .63500979 .22399903 .63500979 .31498719 .63500979 .35798646 .5541382 .35798646 .47216798 .35798646 .39196778 .30799867 .31297303 .25299073 .25097657L.06098938 .036987306C.049987794 .025985718 .049987794 .023986817 .049987794 0H.42099L.44898988 .17396546Z"/>
<path id="font_2_51" d="M.45700074 .16764832C.45700074 .20367432 .44599916 .24871826 .4079895 .29074098 .3889923 .31176759 .37298585 .32176209 .30899049 .36180116 .3809967 .39881898 .42999269 .4508667 .42999269 .51690676 .42999269 .6089783 .34098817 .6660156 .25 .6660156 .1499939 .6660156 .068984989 .5919647 .068984989 .49890138 .068984989 .48088075 .070999149 .43585206 .11299133 .38882447 .12399292 .3768158 .16099549 .35179139 .18598938 .33477784 .12799073 .30575563 .041992189 .24971009 .041992189 .15063477 .041992189 .044555665 .14399719-.022460938 .24899292-.022460938 .3619995-.022460938 .45700074 .060577394 .45700074 .16764832M.38598634 .51690676C.38598634 .45986939 .34700013 .41183473 .2869873 .3768158L.16299439 .4568634C.116989139 .4868927 .11299133 .5209198 .11299133 .53793337 .11299133 .5989685 .17799378 .64100649 .24899292 .64100649 .32199098 .64100649 .38598634 .588974 .38598634 .51690676M.40699769 .13162232C.40699769 .05757141 .33198548 .0055389406 .25 .0055389406 .1639862 .0055389406 .09199524 .06758118 .09199524 .15063477 .09199524 .2086792 .12399292 .2727356 .20899964 .31976319L.33198548 .24171448C.3600006 .22268677 .40699769 .19267273 .40699769 .13162232Z"/>
</defs>
<path transform="matrix(1.00002,0,0,-1.00005,19.05011,88.40477)" stroke-width=".3985" stroke-linecap="butt" stroke-miterlimit="10" stroke-linejoin="miter" fill="none" stroke="#00aeef" d="M0 0H119.05174M0 7.08669H119.05174M0 14.17339H119.05174M0 21.2601H119.05174M0 28.3468H119.05174M0 35.43349H119.05174M0 42.5202H119.05174M0 49.6069H119.05174M0 56.69362H119.05174M0 63.7803H119.05174M0 70.86452H119.05174M0 0V70.867M29.76292 0V70.867M59.52586 0V70.867M89.2888 0V70.867M119.05025 0V70.867M119.05174 70.867"/>
<path transform="matrix(1.00002,0,0,-1.00005,19.05011,88.40477)" stroke-width=".79701" stroke-linecap="butt" stroke-miterlimit="10" stroke-linejoin="miter" fill="none" stroke="#000000" d="M0 0H123.9949"/>
<path transform="matrix(1.00002,0,0,-1.00005,143.04749,88.40477)" d="M1.0361 0C-.25902 .25902-1.55415 .77707-3.1083 1.68365-1.55415 .51805-1.55415-.51805-3.1083-1.68365-1.55415-.77707-.25902-.25902 1.0361 0Z"/>
<path transform="matrix(1.00002,0,0,-1.00005,143.04749,88.40477)" stroke-width=".79701" stroke-linecap="butt" stroke-linejoin="round" fill="none" stroke="#000000" d="M1.0361 0C-.25902 .25902-1.55415 .77707-3.1083 1.68365-1.55415 .51805-1.55415-.51805-3.1083-1.68365-1.55415-.77707-.25902-.25902 1.0361 0Z"/>
<use data-text="t" xlink:href="#font_1_1" transform="matrix(9.962799,0,0,-9.963098,148.2017,91.468929)"/>
<path transform="matrix(1.00002,0,0,-1.00005,19.05011,88.40477)" stroke-width=".79701" stroke-linecap="butt" stroke-miterlimit="10" stroke-linejoin="miter" fill="none" stroke="#000000" d="M0 0V75.10178"/>
<path transform="matrix(0,-1.00005,-1.00002,-0,19.05011,13.2992329)" d="M1.0361 0C-.25902 .25902-1.55415 .77707-3.1083 1.68365-1.55415 .51805-1.55415-.51805-3.1083-1.68365-1.55415-.77707-.25902-.25902 1.0361 0Z"/>
<path transform="matrix(0,-1.00005,-1.00002,-0,19.05011,13.2992329)" stroke-width=".79701" stroke-linecap="butt" stroke-linejoin="round" fill="none" stroke="#000000" d="M1.0361 0C-.25902 .25902-1.55415 .77707-3.1083 1.68365-1.55415 .51805-1.55415-.51805-3.1083-1.68365-1.55415-.77707-.25902-.25902 1.0361 0Z"/>
<use data-text="y" xlink:href="#font_1_2" transform="matrix(9.962799,0,0,-9.963098,16.429055,6.2076647)"/>
<path transform="matrix(1.00002,0,0,-1.00005,19.05011,88.40477)" stroke-width=".79701" stroke-linecap="butt" stroke-miterlimit="10" stroke-linejoin="miter" fill="none" stroke="#000000" d="M.17003 35.43349H-.17009"/>
<use data-text="5" xlink:href="#font_2_56" transform="matrix(9.962799,0,0,-9.963098,5.19783,56.17816)"/>
<use data-text="0" xlink:href="#font_2_121" transform="matrix(9.962799,0,0,-9.963098,10.17923,56.17816)"/>
<path transform="matrix(1.00002,0,0,-1.00005,19.05011,88.40477)" stroke-width=".79701" stroke-linecap="butt" stroke-miterlimit="10" stroke-linejoin="miter" fill="none" stroke="#000000" d="M.17003 70.867H-.17009"/>
<use data-text="1" xlink:href="#font_2_82" transform="matrix(9.962799,0,0,-9.963098,.21673584,20.742394)"/>
<use data-text="0" xlink:href="#font_2_121" transform="matrix(9.962799,0,0,-9.963098,5.1981356,20.742394)"/>
<use data-text="0" xlink:href="#font_2_121" transform="matrix(9.962799,0,0,-9.963098,10.179535,20.742394)"/>
<path transform="matrix(1.00002,0,0,-1.00005,19.05011,88.40477)" stroke-width=".79701" stroke-linecap="butt" stroke-miterlimit="10" stroke-linejoin="miter" fill="none" stroke="#000000" d="M29.76292 2.12602V-2.12602"/>
<use data-text="7" xlink:href="#font_2_100" transform="matrix(9.962799,0,0,-9.963098,46.322656,100.9854)"/>
<path transform="matrix(1.00002,0,0,-1.00005,19.05011,88.40477)" stroke-width=".79701" stroke-linecap="butt" stroke-miterlimit="10" stroke-linejoin="miter" fill="none" stroke="#000000" d="M59.52586 2.12602V-2.12602"/>
<use data-text="1" xlink:href="#font_2_82" transform="matrix(9.962799,0,0,-9.963098,73.5952,100.9954)"/>
<use data-text="4" xlink:href="#font_2_57" transform="matrix(9.962799,0,0,-9.963098,78.5766,100.9954)"/>
<path transform="matrix(1.00002,0,0,-1.00005,19.05011,88.40477)" stroke-width=".79701" stroke-linecap="butt" stroke-miterlimit="10" stroke-linejoin="miter" fill="none" stroke="#000000" d="M89.2888 2.12602V-2.12602"/>
<use data-text="2" xlink:href="#font_2_107" transform="matrix(9.962799,0,0,-9.963098,103.358798,100.88539)"/>
<use data-text="1" xlink:href="#font_2_82" transform="matrix(9.962799,0,0,-9.963098,108.340198,100.88539)"/>
<path transform="matrix(1.00002,0,0,-1.00005,19.05011,88.40477)" stroke-width=".79701" stroke-linecap="butt" stroke-miterlimit="10" stroke-linejoin="miter" fill="none" stroke="#000000" d="M119.05174 2.12602V-2.12602"/>
<use data-text="2" xlink:href="#font_2_107" transform="matrix(9.962799,0,0,-9.963098,133.12239,100.88539)"/>
<use data-text="8" xlink:href="#font_2_51" transform="matrix(9.962799,0,0,-9.963098,138.10379,100.88539)"/>
<path transform="matrix(1.00002,0,0,-1.00005,19.05011,88.40477)" stroke-width=".79701" stroke-linecap="butt" stroke-miterlimit="10" stroke-linejoin="miter" fill="none" stroke="#ff0000" d="M0 0C0 0 1.34396 .07787 1.86017 .17245 2.37636 .26706 3.20416 .49387 3.72035 .68178 4.23654 .86969 5.06435 1.24702 5.58054 1.52686 6.09673 1.80666 6.92453 2.32962 7.44072 2.69849 7.95691 3.06734 8.78471 3.73103 9.3009 4.18532 9.8171 4.63963 10.64488 5.43733 11.16109 5.9728 11.67729 6.50827 12.50508 7.43341 13.02126 8.04465 13.53746 8.6559 14.36525 9.69675 14.88145 10.3782 15.39764 11.05965 16.22545 12.21098 16.74164 12.95612 17.25783 13.70126 18.08563 14.94743 18.60182 15.74869 19.11801 16.54994 19.94582 17.8811 20.462 18.73105 20.9782 19.581 21.806 20.98413 22.32219 21.87451 22.83838 22.7649 23.66617 24.22601 24.18237 25.14828 24.69858 26.07056 25.52637 27.57632 26.04254 28.52153 26.55875 29.46677 27.38654 31.00174 27.90274 31.96075 28.41893 32.91978 29.24673 34.46982 29.76292 35.43349 30.27911 36.39716 31.10692 37.94722 31.62311 38.90623 32.1393 39.86525 32.96709 41.40024 33.48329 42.34546 33.9995 43.29066 34.82729 44.79645 35.34346 45.7187 35.85966 46.64098 36.68745 48.10211 37.20366 48.9925 37.71985 49.88287 38.54765 51.28601 39.06384 52.13596 39.58003 52.9859 40.40784 54.31705 40.92403 55.1183 41.44022 55.91956 42.26802 57.16573 42.78421 57.91087 43.3004 58.65602 44.1282 59.80734 44.6444 60.4888 45.16058 61.17026 45.98837 62.2111 46.50458 62.82236 47.02078 63.4336 47.84857 64.35872 48.36475 64.8942 48.88095 65.42967 49.70874 66.22737 50.22495 66.68166 50.74113 67.13597 51.56894 67.79967 52.08513 68.1685 52.60132 68.53737 53.42912 69.06035 53.94531 69.34015 54.4615 69.61996 55.28929 69.9973 55.8055 70.18521 56.32169 70.37314 57.14949 70.59995 57.66566 70.69453 58.18187 70.78912 59.00966 70.867 59.52586 70.867 60.04205 70.867 60.86986 70.78912 61.38605 70.69453 61.90224 70.59995 62.73004 70.37314 63.24623 70.18521 63.76242 69.9973 64.59023 69.61996 65.10641 69.34015 65.6226 69.06035 66.45041 68.53737 66.9666 68.1685 67.48279 67.79967 68.31058 67.13597 68.82678 66.68166 69.34299 66.22737 70.17078 65.42967 70.68695 64.8942 71.20316 64.35872 72.03094 63.4336 72.54715 62.82236 73.06334 62.2111 73.89114 61.17026 74.40733 60.4888 74.92352 59.80734 75.75133 58.65602 76.26752 57.91087 76.7837 57.16573 77.61151 55.91956 78.1277 55.1183 78.64389 54.31705 79.4717 52.9859 79.98788 52.13596 80.50407 51.28601 81.33186 49.88287 81.84807 48.9925 82.36427 48.10211 83.19206 46.64098 83.70824 45.7187 84.22444 44.79645 85.05223 43.29066 85.56844 42.34546 86.08463 41.40024 86.91243 39.86525 87.42862 38.90623 87.94481 37.94722 88.77261 36.39716 89.2888 35.43349 89.805 34.46982 90.63278 32.91978 91.14899 31.96075 91.66519 31.00174 92.49298 29.46677 93.00916 28.52153 93.52536 27.57632 94.35315 26.07056 94.86935 25.14828 95.38554 24.22601 96.21335 22.7649 96.72954 21.87451 97.24573 20.98413 98.07353 19.581 98.58972 18.73105 99.10591 17.8811 99.93372 16.54994 100.4499 15.74869 100.9661 14.94743 101.7939 13.70126 102.31009 12.95612 102.82628 12.21098 103.65407 11.05965 104.17027 10.3782 104.68648 9.69675 105.51427 8.6559 106.03044 8.04465 106.54665 7.43341 107.37444 6.50827 107.89064 5.9728 108.40683 5.43733 109.23463 4.63963 109.75082 4.18532 110.26701 3.73103 111.09482 3.06734 111.61101 2.69849 112.1272 2.32962 112.95499 1.80666 113.47119 1.52686 113.98738 1.24702 114.81519 .86969 115.33136 .68178 115.84756 .49387 116.67535 .26706 117.19156 .17245 117.70775 .07787 119.05174 0 119.05174 0"/>
</svg>
