<svg xmlns="http://www.w3.org/2000/svg" xmlns:xlink="http://www.w3.org/1999/xlink" version="1.1" width="226" height="104" viewBox="0 0 226 104">
<defs>
<path id="font_1_4" d="M.33399964 .30233766C.33999635 .32835389 .36299134 .42037965 .43299867 .42037965 .43798829 .42037965 .46199037 .42037965 .48298646 .40734864 .45498658 .402359 .43499757 .37734986 .43499757 .35334779 .43499757 .33735658 .44599916 .31835938 .47299195 .31835938 .49499513 .31835938 .5269928 .3363495 .5269928 .37635804 .5269928 .42837525 .46798707 .4423828 .43399049 .4423828 .37599183 .4423828 .34098817 .38935853 .32899476 .36634828 .3039856 .43237306 .25 .4423828 .22099304 .4423828 .116989139 .4423828 .05999756 .3133545 .05999756 .28834535 .05999756 .27833558 .069992069 .27833558 .07199097 .27833558 .07998657 .27833558 .08299255 .28033448 .084991458 .28933717 .11898804 .39535523 .18499756 .42037965 .21899414 .42037965 .23799134 .42037965 .272995 .4113617 .272995 .35334779 .272995 .32235719 .2559967 .25532533 .21899414 .11528015 .20298767 .053268434 .16799927 .011245728 .12399292 .011245728 .117996219 .011245728 .09498596 .011245728 .07398987 .024276734 .09899902 .029266358 .12098694 .05027771 .12098694 .07827759 .12098694 .105270389 .09899902 .11328125 .083999637 .11328125 .053985597 .11328125 .0289917 .08728027 .0289917 .055267335 .0289917 .009246826 .07899475-.0107421879 .12298584-.0107421879 .18899536-.0107421879 .22499085 .059280397 .22799683 .0652771 .23999024 .028274537 .27598573-.0107421879 .33599855-.0107421879 .43899537-.0107421879 .49598695 .118270877 .49598695 .14328003 .49598695 .1532898 .4869995 .1532898 .48399354 .1532898 .47499085 .1532898 .47299195 .14929199 .47099305 .14228821 .43798829 .03527832 .36999513 .011245728 .33799745 .011245728 .29899598 .011245728 .2829895 .043273927 .2829895 .07727051 .2829895 .09927368 .2889862 .121276859 .2999878 .16529846L.33399964 .30233766Z"/>
<path id="font_1_5" d="M.48599244 .38136292C.48999024 .39537049 .48999024 .39736939 .48999024 .40437318 .48999024 .42237855 .47599793 .43138124 .46099855 .43138124 .45098878 .43138124 .43499757 .42536927 .42599488 .41036988 .42399598 .405365 .41600038 .37435914 .4119873 .35635377 .40499879 .33035279 .397995 .30334474 .3919983 .27633668L.34700013 .09628296C.34298707 .08126831 .2999878 .011245728 .23399353 .011245728 .18299866 .011245728 .17199707 .055267335 .17199707 .0922699 .17199707 .1382904 .18899536 .20030213 .22299195 .28833009 .23899842 .3293457 .24299622 .3403473 .24299622 .36035157 .24299622 .405365 .21099854 .4423828 .16099549 .4423828 .06599426 .4423828 .0289917 .29733277 .0289917 .28833009 .0289917 .27833558 .038986207 .27833558 .040985109 .27833558 .050994874 .27833558 .051986696 .28033448 .056991579 .29634095 .083999637 .3903656 .12399292 .42037965 .1579895 .42037965 .1659851 .42037965 .18299866 .42037965 .18299866 .3883667 .18299866 .36335755 .17298889 .3373413 .1659851 .31834413 .12599182 .21231079 .10798645 .1552887 .10798645 .10827637 .10798645 .019256592 .17098999-.0107421879 .22999573-.0107421879 .2689972-.0107421879 .30299378 .0062561037 .33099366 .03425598 .31799317-.017745972 .30599977-.06674194 .2659912-.11973572 .23999024-.15385437 .20199585-.18309021 .1559906-.18309021 .14199829-.18309021 .09700012-.18005371 .07998657-.14074707 .09599304-.14074707 .10899353-.14074707 .12298584-.1287384 .1329956-.11973572 .14299011-.10673523 .14299011-.08773804 .14299011-.056747438 .115997318-.052734376 .10598755-.052734376 .08299255-.052734376 .049987794-.068740848 .049987794-.11773682 .049987794-.16796875 .09399414-.20507813 .1559906-.20507813 .25898744-.20507813 .3619995-.11373901 .3899994-.00074768069L.48599244 .38136292Z"/>
<path id="font_2_1" d="M.6589966 .23046875C.6759949 .23046875 .69400027 .23046875 .69400027 .25045777 .69400027 .27046205 .6759949 .27046205 .6589966 .27046205H.117996219C.100997928 .27046205 .08299255 .27046205 .08299255 .25045777 .08299255 .23046875 .100997928 .23046875 .117996219 .23046875H.6589966Z"/>
<path id="font_3_1" d="M.2939911 .64004519C.2939911 .66400149 .2939911 .6660156 .2709961 .6660156 .20899964 .60227969 .12098694 .60227969 .08898926 .60227969V.57128909C.10899353 .57128909 .16799927 .57128909 .21998596 .5972748V.07902527C.21998596 .042999269 .21699524 .0309906 .1269989 .0309906H.09498596V0C.12998963 .0029907227 .21699524 .0029907227 .25698854 .0029907227 .29699708 .0029907227 .38398744 .0029907227 .4189911 0V.0309906H.3869934C.29699708 .0309906 .2939911 .041992189 .2939911 .07902527V.64004519Z"/>
<path id="font_1_1" d="M.2649994 .37265016H.37799073C.34498597 .22489929 .33599855 .18196106 .33599855 .11508179 .33599855 .100097659 .33599855 .073150638 .34399415 .03919983 .35398866-.0047454836 .36499024-.0107421879 .37998963-.0107421879 .3999939-.0107421879 .42099 .007247925 .42099 .02722168 .42099 .033218385 .42099 .035202028 .4149933 .049179079 .38598634 .12106323 .38598634 .18595886 .38598634 .21391297 .38598634 .26683045 .3929901 .32073976 .4039917 .37265016H.5179901C.5309906 .37265016 .5669861 .37265016 .5669861 .406662 .5669861 .43066407 .54599 .43066407 .5269928 .43066407H.19198609C.16999817 .43066407 .13198853 .43066407 .08799744 .38365174 .052993776 .34469605 .026992798 .29878236 .026992798 .29379273 .026992798 .29278565 .026992798 .28379823 .038986207 .28379823 .04699707 .28379823 .04899597 .28779603 .054992677 .29577638 .10398865 .37265016 .1619873 .37265016 .18199158 .37265016H.23899842C.20698548 .25186158 .15299988 .13105774 .11099243 .04020691 .102996829 .025222779 .102996829 .023223877 .102996829 .016235352 .102996829-.002746582 .11898804-.0107421879 .13198853-.0107421879 .1619873-.0107421879 .16999817 .017242432 .18199158 .05418396 .19599915 .100097659 .19599915 .10209656 .20899964 .15202332L.2649994 .37265016Z"/>
<path id="font_3_2" d="M.1269989 .07699585 .23298645 .18003845C.3889923 .31811524 .44898988 .3721466 .44898988 .47216798 .44898988 .5860901 .35899354 .6660156 .23699951 .6660156 .12399292 .6660156 .049987794 .57411196 .049987794 .48516847 .049987794 .4291687 .099990848 .4291687 .102996829 .4291687 .11999512 .4291687 .15499878 .44117738 .15499878 .48217774 .15499878 .5081787 .13699341 .5341797 .101989749 .5341797 .09399414 .5341797 .09199524 .5341797 .08898926 .5331726 .11199951 .59806826 .1659851 .63500979 .22399903 .63500979 .31498719 .63500979 .35798646 .5541382 .35798646 .47216798 .35798646 .39215089 .30799867 .31311036 .25299073 .25108338L.06098938 .036987306C.049987794 .025985718 .049987794 .023986817 .049987794 0H.42099L.44898988 .17404175H.42399598C.4189911 .14402771 .4119873 .1000061 .4019928 .084991458 .394989 .07699585 .32899476 .07699585 .30699159 .07699585H.1269989Z"/>
<path id="font_3_3" d="M.2899933 .35191346C.37199403 .37893678 .42999269 .4490509 .42999269 .52809146 .42999269 .6100464 .34199525 .6660156 .24598694 .6660156 .14498902 .6660156 .068984989 .60606387 .068984989 .53009036 .068984989 .49710084 .09098816 .47808839 .11999512 .47808839 .15098572 .47808839 .17098999 .50009158 .17098999 .5290985 .17098999 .57910159 .12399292 .57910159 .10899353 .57910159 .13999939 .62802127 .20599365 .64100649 .24198914 .64100649 .2829895 .64100649 .33799745 .6190338 .33799745 .5290985 .33799745 .51708987 .33599855 .45906068 .30999757 .4149933 .27999879 .36691285 .24598694 .36390687 .22099304 .36291505 .21299744 .36190797 .18899536 .35990907 .18199158 .35990907 .17399597 .35890199 .16699219 .35791017 .16699219 .3479004 .16699219 .33691407 .17399597 .33691407 .19099427 .33691407H.23498535C.31698609 .33691407 .35398866 .2686615 .35398866 .17037964 .35398866 .034469606 .2849884 .0055389406 .24099732 .0055389406 .19799805 .0055389406 .12298584 .022491456 .08799744 .08137512 .12298584 .07637024 .1539917 .09837341 .1539917 .1363678 .1539917 .17237854 .1269989 .19238281 .09799194 .19238281 .07398987 .19238281 .041992189 .17837525 .041992189 .1343689 .041992189 .043441774 .1349945-.022460938 .24398804-.022460938 .3659973-.022460938 .45700074 .06838989 .45700074 .17037964 .45700074 .252594 .3939972 .33088685 .2899933 .35191346Z"/>
<path id="font_1_2" d="M.36698915 .3996582H.45298768C.47299195 .3996582 .48298646 .3996582 .48298646 .41966249 .48298646 .43066407 .47299195 .43066407 .45599366 .43066407H.37298585L.3939972 .5449524C.397995 .5660095 .4119873 .6370239 .41799928 .6490326 .4269867 .66804507 .44400025 .68307498 .46499635 .68307498 .46899415 .68307498 .49499513 .68307498 .5139923 .66503909 .46998597 .661026 .45999146 .6260376 .45999146 .6110382 .45999146 .58802798 .47799684 .57603457 .49699403 .57603457 .522995 .57603457 .5519867 .5980377 .5519867 .6360321 .5519867 .6820679 .5059967 .7050781 .46499635 .7050781 .43099977 .7050781 .36799623 .68707278 .33799745 .58802798 .33198548 .56700137 .32899476 .5569763 .30499269 .43066407H.23599243C.21699524 .43066407 .20599365 .43066407 .20599365 .4116516 .20599365 .3996582 .21499634 .3996582 .23399353 .3996582H.2999878L.22499085 .0048828127C.20698548-.09207153 .18998719-.18309021 .13798523-.18309021 .13398743-.18309021 .10899353-.18309021 .08999634-.16506958 .13598633-.1620636 .14498902-.12606812 .14498902-.111068729 .14498902-.08807373 .1269989-.07606506 .10798645-.07606506 .08198547-.07606506 .052993776-.09806824 .052993776-.13606262 .052993776-.18109131 .09700012-.20507813 .13798523-.20507813 .19299317-.20507813 .23298645-.14607239 .25099183-.108062747 .2829895-.04508972 .30599977 .07583618 .30699159 .082839969L.36698915 .3996582Z"/>
<path id="font_1_3" d="M.47099305 .3773346C.47200013 .3833313 .47399903 .38833619 .47399903 .39535523 .47399903 .41236878 .46199037 .42237855 .44499208 .42237855 .43499757 .42237855 .4079895 .41537477 .4039917 .3793335 .38598634 .41636659 .35099793 .4423828 .31098939 .4423828 .19699097 .4423828 .07299805 .30226136 .07299805 .15812683 .07299805 .059020997 .13398743 0 .20599365 0 .2649994 0 .31199647 .04701233 .32199098 .058029176L.32299806 .057022096C.3019867-.031982423 .2899933-.07295227 .2899933-.07495117 .28599549-.08395386 .2519989-.18309021 .1459961-.18309021 .1269989-.18309021 .09399414-.18206787 .06599426-.17297364 .09599304-.16394043 .10699463-.13793946 .10699463-.12094116 .10699463-.10494995 .09599304-.0859375 .068984989-.0859375 .04699707-.0859375 .01499939-.10394287 .01499939-.14395142 .01499939-.18508911 .051986696-.20507813 .147995-.20507813 .272995-.20507813 .34498597-.12693787 .3600006-.06695557L.47099305 .3773346M.34098817 .12809754C.33499146 .10206604 .31199647 .077041629 .2899933 .058029176 .2689972 .040008546 .23799134 .021987915 .20899964 .021987915 .15899658 .021987915 .14399719 .074035648 .14399719 .11407471 .14399719 .16212464 .17298889 .28024293 .19999695 .33128358 .22698975 .38034059 .269989 .42037965 .31199647 .42037965 .37799073 .42037965 .3919983 .33929444 .3919983 .33428956 .3919983 .32928468 .3899994 .3232727 .3889923 .3192749L.34098817 .12809754Z"/>
</defs>
<path transform="matrix(1.00005,0,0,-1.00006,105.19536,60.058824)" stroke-width=".3985" stroke-linecap="butt" stroke-miterlimit="10" stroke-linejoin="miter" fill="none" stroke="#00aeef" d="M-103.89604-42.52019H103.89604M-103.89604-28.34679H103.89604M-103.89604-14.17339H103.89604M-103.89604 0H103.89604M-103.89604 14.17339H103.89604M-103.89604 28.34679H103.89604M-103.89604 42.52019H103.89604M-103.8947-42.5202V42.5202M-89.0526-42.5202V42.5202M-74.2105-42.5202V42.5202M-59.3684-42.5202V42.5202M-44.52629-42.5202V42.5202M-29.68419-42.5202V42.5202M-14.84209-42.5202V42.5202M0-42.5202V42.5202M14.84209-42.5202V42.5202M29.68419-42.5202V42.5202M44.52629-42.5202V42.5202M59.3684-42.5202V42.5202M74.2105-42.5202V42.5202M89.0526-42.5202V42.5202M103.8947-42.5202V42.5202M103.89604 42.5202"/>
<path transform="matrix(1.00005,0,0,-1.00006,105.19536,60.058824)" stroke-width=".79701" stroke-linecap="butt" stroke-miterlimit="10" stroke-linejoin="miter" fill="none" stroke="#000000" d="M-103.89604 0H109.11775"/>
<path transform="matrix(1.00005,0,0,-1.00006,214.31856,60.058824)" d="M1.0361 0C-.25902 .25902-1.55415 .77707-3.1083 1.68365-1.55415 .51805-1.55415-.51805-3.1083-1.68365-1.55415-.77707-.25902-.25902 1.0361 0Z"/>
<path transform="matrix(1.00005,0,0,-1.00006,214.31856,60.058824)" stroke-width=".79701" stroke-linecap="butt" stroke-linejoin="round" fill="none" stroke="#000000" d="M1.0361 0C-.25902 .25902-1.55415 .77707-3.1083 1.68365-1.55415 .51805-1.55415-.51805-3.1083-1.68365-1.55415-.77707-.25902-.25902 1.0361 0Z"/>
<use data-text="x" xlink:href="#font_1_4" transform="matrix(9.963098,0,0,-9.963197,219.47208,62.20395)"/>
<path transform="matrix(1.00005,0,0,-1.00006,105.19536,60.058824)" stroke-width=".79701" stroke-linecap="butt" stroke-miterlimit="10" stroke-linejoin="miter" fill="none" stroke="#000000" d="M0-42.5202V46.75487"/>
<path transform="matrix(0,-1.00006,-1.00005,-0,105.19536,13.301147)" d="M1.0361 0C-.25902 .25902-1.55415 .77707-3.1083 1.68365-1.55415 .51805-1.55415-.51805-3.1083-1.68365-1.55415-.77707-.25902-.25902 1.0361 0Z"/>
<path transform="matrix(0,-1.00006,-1.00005,-0,105.19536,13.301147)" stroke-width=".79701" stroke-linecap="butt" stroke-linejoin="round" fill="none" stroke="#000000" d="M1.0361 0C-.25902 .25902-1.55415 .77707-3.1083 1.68365-1.55415 .51805-1.55415-.51805-3.1083-1.68365-1.55415-.77707-.25902-.25902 1.0361 0Z"/>
<use data-text="y" xlink:href="#font_1_5" transform="matrix(9.963098,0,0,-9.963197,102.57423,6.2095949)"/>
<path transform="matrix(1.00005,0,0,-1.00006,105.19536,60.058824)" stroke-width=".3985" stroke-linecap="butt" stroke-miterlimit="10" stroke-linejoin="miter" fill="none" stroke="#000000" d="M2.83484-28.3468H-2.83441"/>
<path transform="matrix(1.00005,0,0,-1.00006,105.19536,60.058824)" d="M-19.74901-32.96841H-5.02623V-23.725182H-19.74901Z" fill="#ffffff"/>
<use data-text="&#x2212;" xlink:href="#font_2_1" transform="matrix(9.963098,0,0,-9.963197,86.44142,91.20269)"/>
<use data-text="1" xlink:href="#font_3_1" transform="matrix(9.963098,0,0,-9.963197,94.190799,91.20269)"/>
<path transform="matrix(1.00005,0,0,-1.00006,105.19536,60.058824)" stroke-width=".3985" stroke-linecap="butt" stroke-miterlimit="10" stroke-linejoin="miter" fill="none" stroke="#000000" d="M2.83484 28.3468H-2.83441"/>
<path transform="matrix(1.00005,0,0,-1.00006,105.19536,60.058824)" d="M-12.00017 24.1403H-5.02623V32.55328H-12.00017Z" fill="#ffffff"/>
<use data-text="1" xlink:href="#font_3_1" transform="matrix(9.963098,0,0,-9.963197,94.19081,34.92032)"/>
<path transform="matrix(1.00005,0,0,-1.00006,105.19536,60.058824)" stroke-width=".79701" stroke-linecap="butt" stroke-miterlimit="10" stroke-linejoin="miter" fill="none" stroke="#000000" d="M-89.05394 2.26778V-2.26779"/>
<path transform="matrix(1.00005,0,0,-1.00006,105.19536,60.058824)" d="M-96.94289-15.2858H-81.16501V-6.6514198H-96.94289Z" fill="#ffffff"/>
<use data-text="&#x2212;" xlink:href="#font_2_1" transform="matrix(9.963098,0,0,-9.963197,9.243576,73.51863)"/>
<use data-text="&#x03c0;" xlink:href="#font_1_1" transform="matrix(9.963098,0,0,-9.963197,16.99295,73.51863)"/>
<path transform="matrix(1.00005,0,0,-1.00006,105.19536,60.058824)" stroke-width=".79701" stroke-linecap="butt" stroke-miterlimit="10" stroke-linejoin="miter" fill="none" stroke="#000000" d="M89.05394 2.26778V-2.26779"/>
<path transform="matrix(1.00005,0,0,-1.00006,105.19536,60.058824)" d="M85.03941-12.93347H93.06845V-6.6514098H85.03941Z" fill="#ffffff"/>
<use data-text="&#x03c0;" xlink:href="#font_1_1" transform="matrix(9.963098,0,0,-9.963197,191.23566,71.99654)"/>
<path transform="matrix(1.00005,0,0,-1.00006,105.19536,60.058824)" stroke-width=".79701" stroke-linecap="butt" stroke-miterlimit="10" stroke-linejoin="miter" fill="none" stroke="#000000" d="M-59.36928 2.26778V-2.26779"/>
<path transform="matrix(1.00005,0,0,-1.00006,105.19536,60.058824)" d="M-70.94444-26.64572H-47.794115V-4.6588594H-70.94444Z" fill="#ffffff"/>
<use data-text="&#x2212;" xlink:href="#font_2_1" transform="matrix(9.963098,0,0,-9.963197,36.43892,72.135547)"/>
<use data-text="2" xlink:href="#font_3_2" transform="matrix(9.963098,0,0,-9.963197,44.188295,72.135547)"/>
<use data-text="&#x03c0;" xlink:href="#font_1_1" transform="matrix(9.963098,0,0,-9.963197,49.16954,72.135547)"/>
<path transform="matrix(1.00005,0,0,-1.00006,-151.95549,31.811127)" stroke-width=".3985" stroke-linecap="butt" stroke-miterlimit="10" stroke-linejoin="miter" fill="none" stroke="#000000" d="M188.385-44.571H207.152"/>
<use data-text="3" xlink:href="#font_3_3" transform="matrix(9.963098,0,0,-9.963197,43.33226,85.70936)"/>
<path transform="matrix(1.00005,0,0,-1.00006,105.19536,60.058824)" stroke-width=".79701" stroke-linecap="butt" stroke-miterlimit="10" stroke-linejoin="miter" fill="none" stroke="#000000" d="M-29.68463 2.26778V-2.26779"/>
<path transform="matrix(1.00005,0,0,-1.00006,105.19536,60.058824)" d="M-38.7691-26.03688H-20.600152V-4.658861H-38.7691Z" fill="#ffffff"/>
<use data-text="&#x2212;" xlink:href="#font_2_1" transform="matrix(9.963098,0,0,-9.963197,68.615528,71.52751)"/>
<use data-text="&#x03c0;" xlink:href="#font_1_1" transform="matrix(9.963098,0,0,-9.963197,76.3649,71.52751)"/>
<path transform="matrix(1.00005,0,0,-1.00006,-119.778888,31.20309)" stroke-width=".3985" stroke-linecap="butt" stroke-miterlimit="10" stroke-linejoin="miter" fill="none" stroke="#000000" d="M188.385-44.571H202.171"/>
<use data-text="3" xlink:href="#font_3_3" transform="matrix(9.963098,0,0,-9.963197,73.017749,85.10132)"/>
<path transform="matrix(1.00005,0,0,-1.00006,105.19536,60.058824)" stroke-width=".79701" stroke-linecap="butt" stroke-miterlimit="10" stroke-linejoin="miter" fill="none" stroke="#000000" d="M29.68463 2.26778V-2.26779"/>
<path transform="matrix(1.00005,0,0,-1.00006,105.19536,60.058824)" d="M24.47458-24.51477H34.89467V-4.658861H24.47458Z" fill="#ffffff"/>
<use data-text="&#x03c0;" xlink:href="#font_1_1" transform="matrix(9.963098,0,0,-9.963197,131.86269,70.00542)"/>
<path transform="matrix(1.00005,0,0,-1.00006,-56.531724,29.681)" stroke-width=".3985" stroke-linecap="butt" stroke-miterlimit="10" stroke-linejoin="miter" fill="none" stroke="#000000" d="M188.385-44.571H194.422"/>
<use data-text="3" xlink:href="#font_3_3" transform="matrix(9.963098,0,0,-9.963197,132.3907,83.57923)"/>
<path transform="matrix(1.00005,0,0,-1.00006,105.19536,60.058824)" stroke-width=".79701" stroke-linecap="butt" stroke-miterlimit="10" stroke-linejoin="miter" fill="none" stroke="#000000" d="M59.36928 2.26778V-2.26779"/>
<path transform="matrix(1.00005,0,0,-1.00006,105.19536,60.058824)" d="M51.66853-26.64572H67.07V-4.6588594H51.66853Z" fill="#ffffff"/>
<use data-text="2" xlink:href="#font_3_2" transform="matrix(9.963098,0,0,-9.963197,159.05805,72.135547)"/>
<use data-text="&#x03c0;" xlink:href="#font_1_1" transform="matrix(9.963098,0,0,-9.963197,164.04029,72.135547)"/>
<path transform="matrix(1.00005,0,0,-1.00006,-29.336365,31.811127)" stroke-width=".3985" stroke-linecap="butt" stroke-miterlimit="10" stroke-linejoin="miter" fill="none" stroke="#000000" d="M188.385-44.571H199.403"/>
<use data-text="3" xlink:href="#font_3_3" transform="matrix(9.963098,0,0,-9.963197,162.07721,85.70936)"/>
<path transform="matrix(1.00005,0,0,-1.00006,105.19536,60.058824)" stroke-width=".79701" stroke-linecap="butt" stroke-miterlimit="10" stroke-linejoin="miter" fill="none" stroke="#0000ff" d="M-103.89604 14.17296C-103.89604 14.17296-101.55034 12.09848-100.64941 11.27365-99.7485 10.44882-98.3037 9.08833-97.40277 8.22815-96.50186 7.36798-95.05707 5.95857-94.15616 5.0741-93.25523 4.1896-91.81044 2.75032-90.90953 1.85342-90.0086 .95651-88.5638-.4925-87.66289-1.39017-86.76196-2.28784-85.31717-3.72952-84.41626-4.61647-83.51535-5.50342-82.07054-6.91827-81.16963-7.78264-80.26872-8.64702-78.82393-10.01572-77.923-10.8463-77.0221-11.6769-75.57729-12.98322-74.67636-13.76897-73.77545-14.55473-72.33066-15.77892-71.42975-16.50952-70.52882-17.24013-69.08403-18.36853-68.18312-19.03468-67.2822-19.70084-65.83739-20.71794-64.93648-21.3107-64.03555-21.90346-62.59076-22.79526-61.68985-23.30685-60.78894-23.81847-59.34413-24.57433-58.44322-24.99808-57.54231-25.42183-56.09752-26.03052-55.1966-26.36101-54.29568-26.6915-52.85088-27.14742-51.94995-27.38008-51.04904-27.61275-49.60425-27.90611-48.70332-28.03796-47.80241-28.1698-46.35762-28.30083-45.45671-28.33035-44.55579-28.35988-43.11098-28.32417-42.21007-28.25078-41.30914-28.17738-39.86435-27.97661-38.96344-27.80138-38.06253-27.62614-36.61772-27.26274-35.71681-26.98776-34.8159-26.71278-33.37111-26.19041-32.47018-25.81947-31.56927-25.44853-30.12447-24.77623-29.22354-24.31425-28.32263-23.85228-26.87784-23.03687-25.97691-22.48979-25.076-21.94272-23.63121-20.9963-22.7303-20.37122-21.82938-19.74612-20.38457-18.67938-19.48366-17.98448-18.58273-17.28958-17.13794-16.11832-16.23703-15.36287-15.33612-14.60742-13.89131-13.34592-12.9904-12.53969-12.0895-11.73347-10.64467-10.39853-9.74376-9.55215-8.84285-8.70578-7.39806-7.31503-6.49713-6.4396-5.59622-5.5642-4.15143-4.13573-3.2505-3.24272-2.3496-2.34973-.9048-.9022-.00389-.00345 .89702 .8953 2.34181 2.34201 3.24272 3.23494 4.14365 4.12788 5.58844 5.55673 6.48935 6.43225 7.39027 7.30779 8.83507 8.6988 9.73598 9.54524 10.63689 10.39166 12.08171 11.7265 12.98262 12.53278 13.88353 13.33907 15.32832 14.60081 16.22925 15.35638 17.13016 16.11194 18.57495 17.28342 19.47588 17.97842 20.37679 18.67345 21.82158 19.74039 22.72249 20.3656 23.62341 20.99081 25.06822 21.93729 25.96913 22.4846 26.87006 23.03192 28.31485 23.84807 29.21576 24.31035 30.11668 24.77261 31.56148 25.44527 32.46239 25.81645 33.3633 26.18764 34.80812 26.71039 35.70903 26.9856 36.60994 27.26082 38.05473 27.62465 38.95566 27.80006 39.85657 27.97548 41.30136 28.17628 42.20229 28.24991 43.1032 28.32353 44.548 28.36002 45.44893 28.3308 46.34984 28.30157 47.79463 28.17087 48.69554 28.03926 49.59647 27.90767 51.04126 27.61465 51.94217 27.38223 52.8431 27.14981 54.28789 26.69435 55.1888 26.36404 56.0897 26.03374 57.53453 25.42513 58.43544 25.00154 59.33635 24.57797 60.78114 23.82256 61.68207 23.31119 62.58298 22.79984 64.02777 21.90846 64.9287 21.31589 65.8296 20.72331 67.27441 19.70627 68.17534 19.0403 69.07625 18.37433 70.52104 17.24644 71.42195 16.51602 72.32288 15.78558 73.76767 14.56152 74.66858 13.7759 75.5695 12.99025 77.0143 11.68419 77.9152 10.85365 78.81612 10.02313 80.26094 8.6543 81.16185 7.79 82.06276 6.92567 83.50757 5.51112 84.40848 4.62425 85.30939 3.73738 86.75418 2.29568 87.6551 1.39795 88.55602 .50021 90.00082-.94916 90.90175-1.84605 91.80266-2.74297 93.24745-4.18181 94.14836-5.0663 95.04929-5.95078 96.49408-7.3605 97.39499-8.2208 98.29591-9.08109 99.74072-10.44191 100.64163-11.26674 101.54256-12.09157 103.88826-14.1656 103.88826-14.1656"/>
<use data-text="f" xlink:href="#font_1_2" transform="matrix(9.963098,0,0,-9.963197,212.80774,76.71582)" fill="#0000ff"/>
<path transform="matrix(1.00005,0,0,-1.00006,105.19536,60.058824)" stroke-width=".79701" stroke-linecap="butt" stroke-miterlimit="10" stroke-linejoin="miter" fill="none" stroke="#ff0000" d="M-103.89604 28.34636C-103.89604 28.34636-101.55034 28.2628-100.64941 28.15994-99.7485 28.05708-98.3037 27.8091-97.40277 27.605-96.50186 27.4009-95.05707 26.99176-94.15616 26.68887-93.25523 26.38599-91.81044 25.81955-90.90953 25.42197-90.0086 25.0244-88.5638 24.31046-87.66289 23.82332-86.76196 23.33618-85.31717 22.48131-84.41626 21.91106-83.51535 21.34082-82.07054 20.35919-81.16963 19.71333-80.26872 19.06749-78.82393 17.96924-77.923 17.25609-77.0221 16.54295-75.57729 15.34448-74.67636 14.57349-73.77545 13.80249-72.33066 12.5181-71.42975 11.69926-70.52882 10.88045-69.08403 9.5278-68.18312 8.67195-67.2822 7.81609-65.83739 6.4125-64.93648 5.53085-64.03555 4.6492-62.59076 3.21335-61.68985 2.31752-60.78894 1.42169-59.34413-.02728-58.44322-.92561-57.54231-1.82394-56.09752-3.26788-55.1966-4.1571-54.29568-5.04634-52.85088-6.4662-51.94995-7.33453-51.04904-8.20288-49.60425-9.57945-48.70332-10.41551-47.80241-11.25156-46.35762-12.56746-45.45671-13.36021-44.55579-14.15298-43.11098-15.39014-42.21007-16.12932-41.30914-16.8685-39.86435-18.01186-38.96344-18.68779-38.06253-19.36371-36.61772-20.39734-35.71681-21.001-34.8159-21.60468-33.37111-22.515-32.47018-23.03868-31.56927-23.56236-30.12447-24.33856-29.22354-24.77533-28.32263-25.2121-26.87784-25.84258-25.97691-26.18669-25.076-26.5308-23.63121-27.0086-22.7303-27.2555-21.82938-27.5024-20.38457-27.81967-19.48366-27.96616-18.58273-28.11264-17.13794-28.2671-16.23703-28.31133-15.33612-28.35555-13.89131-28.34357-12.9904-28.28494-12.0895-28.22633-10.64467-28.04951-9.74376-27.88873-8.84285-27.72797-7.39806-27.3871-6.49713-27.12617-5.59622-26.86525-4.15143-26.36543-3.2505-26.00807-2.3496-25.6507-.9048-24.99979-.00389-24.55042 .89702-24.10104 2.34181-23.30466 3.24272-22.76921 4.14365-22.23376 5.58844-21.3056 6.48935-20.6913 7.39027-20.077 8.83507-19.02711 9.73598-18.34175 10.63689-17.6564 12.08171-16.49907 12.98262-15.75172 13.88353-15.00438 15.32832-13.75497 16.22925-12.95537 17.13016-12.15575 18.57495-10.82991 19.47588-9.98859 20.37679-9.14726 21.82158-7.76355 22.72249-6.89162 23.62341-6.01967 25.06822-4.59538 25.96913-3.70424 26.87006-2.81311 28.31485-1.3675 29.21576-.46886 30.11668 .42976 31.56148 1.878 32.46239 2.77255 33.3633 3.66711 34.80812 5.09975 35.70903 5.97852 36.60994 6.8573 38.05473 8.25497 38.95566 9.1062 39.85657 9.95744 41.30136 11.30095 42.20229 12.11365 43.1032 12.92635 44.548 14.20015 45.44893 14.96364 46.34984 15.72713 47.79463 16.91214 48.69554 17.6164 49.59647 18.32066 51.04126 19.40369 51.94217 20.03947 52.8431 20.67525 54.28789 21.63974 55.1888 22.1987 56.0897 22.75766 57.53453 23.59325 58.43544 24.06813 59.33635 24.54301 60.78114 25.23688 61.68207 25.62138 62.58298 26.00587 64.02777 26.55026 64.9287 26.8394 65.8296 27.12854 67.27441 27.51547 68.17534 27.70534 69.07625 27.89522 70.52104 28.11955 71.42195 28.20795 72.32288 28.29634 73.76767 28.35687 74.66858 28.34247 75.5695 28.32808 77.0143 28.22118 77.9152 28.10414 78.81612 27.98712 80.26094 27.71722 81.16185 27.49902 82.06276 27.2808 83.50757 26.84799 84.40848 26.53143 85.30939 26.21486 86.75418 25.62793 87.6551 25.21738 88.55602 24.80684 90.00082 24.07169 90.90175 23.57243 91.80266 23.0732 93.24745 22.2004 94.14836 21.61911 95.04929 21.03781 96.49408 20.03877 97.39499 19.38287 98.29591 18.72699 99.74072 17.61378 100.64163 16.89188 101.54256 16.16998 103.88826 14.17989 103.88826 14.17989"/>
<use data-text="g" xlink:href="#font_1_3" transform="matrix(9.963098,0,0,-9.963197,212.80774,47.054044)" fill="#ff0000"/>
</svg>
