<svg xmlns="http://www.w3.org/2000/svg" xmlns:xlink="http://www.w3.org/1999/xlink" version="1.1" width="90" height="95" viewBox="0 0 90 95">
<defs>
<path id="font_1_1" d="M.33399964 .30233766C.33999635 .32835389 .36299134 .42037965 .43299867 .42037965 .43798829 .42037965 .46199037 .42037965 .48298646 .40734864 .45498658 .402359 .43499757 .37734986 .43499757 .35334779 .43499757 .33735658 .44599916 .31835938 .47299195 .31835938 .49499513 .31835938 .5269928 .3363495 .5269928 .37635804 .5269928 .42837525 .46798707 .4423828 .43399049 .4423828 .37599183 .4423828 .34098817 .38935853 .32899476 .36634828 .3039856 .43237306 .25 .4423828 .22099304 .4423828 .116989139 .4423828 .05999756 .3133545 .05999756 .28834535 .05999756 .27833558 .069992069 .27833558 .07199097 .27833558 .07998657 .27833558 .08299255 .28033448 .084991458 .28933717 .11898804 .39535523 .18499756 .42037965 .21899414 .42037965 .23799134 .42037965 .272995 .4113617 .272995 .35334779 .272995 .32235719 .2559967 .25532533 .21899414 .11528015 .20298767 .053268434 .16799927 .011245728 .12399292 .011245728 .117996219 .011245728 .09498596 .011245728 .07398987 .024276734 .09899902 .029266358 .12098694 .05027771 .12098694 .07827759 .12098694 .105270389 .09899902 .11328125 .083999637 .11328125 .053985597 .11328125 .0289917 .08728027 .0289917 .055267335 .0289917 .009246826 .07899475-.0107421879 .12298584-.0107421879 .18899536-.0107421879 .22499085 .059280397 .22799683 .0652771 .23999024 .028274537 .27598573-.0107421879 .33599855-.0107421879 .43899537-.0107421879 .49598695 .118270877 .49598695 .14328003 .49598695 .1532898 .4869995 .1532898 .48399354 .1532898 .47499085 .1532898 .47299195 .14929199 .47099305 .14228821 .43798829 .03527832 .36999513 .011245728 .33799745 .011245728 .29899598 .011245728 .2829895 .043273927 .2829895 .07727051 .2829895 .09927368 .2889862 .121276859 .2999878 .16529846L.33399964 .30233766Z"/>
<path id="font_1_2" d="M.48599244 .38136292C.48999024 .39537049 .48999024 .39736939 .48999024 .40437318 .48999024 .42237855 .47599793 .43138124 .46099855 .43138124 .45098878 .43138124 .43499757 .42536927 .42599488 .41036988 .42399598 .405365 .41600038 .37435914 .4119873 .35635377 .40499879 .33035279 .397995 .30334474 .3919983 .27633668L.34700013 .09628296C.34298707 .08126831 .2999878 .011245728 .23399353 .011245728 .18299866 .011245728 .17199707 .055267335 .17199707 .0922699 .17199707 .1382904 .18899536 .20030213 .22299195 .28833009 .23899842 .3293457 .24299622 .3403473 .24299622 .36035157 .24299622 .405365 .21099854 .4423828 .16099549 .4423828 .06599426 .4423828 .0289917 .29733277 .0289917 .28833009 .0289917 .27833558 .038986207 .27833558 .040985109 .27833558 .050994874 .27833558 .051986696 .28033448 .056991579 .29634095 .083999637 .3903656 .12399292 .42037965 .1579895 .42037965 .1659851 .42037965 .18299866 .42037965 .18299866 .3883667 .18299866 .36335755 .17298889 .3373413 .1659851 .31834413 .12599182 .21231079 .10798645 .1552887 .10798645 .10827637 .10798645 .019256592 .17098999-.0107421879 .22999573-.0107421879 .2689972-.0107421879 .30299378 .0062561037 .33099366 .03425598 .31799317-.017745972 .30599977-.06674194 .2659912-.11973572 .23999024-.15385437 .20199585-.18309021 .1559906-.18309021 .14199829-.18309021 .09700012-.18005371 .07998657-.14074707 .09599304-.14074707 .10899353-.14074707 .12298584-.1287384 .1329956-.11973572 .14299011-.10673523 .14299011-.08773804 .14299011-.056747438 .115997318-.052734376 .10598755-.052734376 .08299255-.052734376 .049987794-.068740848 .049987794-.11773682 .049987794-.16796875 .09399414-.20507813 .1559906-.20507813 .25898744-.20507813 .3619995-.11373901 .3899994-.00074768069L.48599244 .38136292Z"/>
</defs>
<path transform="matrix(1.00003,0,0,-1,37.580598,90.784)" stroke-width=".3985" stroke-linecap="butt" stroke-miterlimit="10" stroke-linejoin="miter" fill="none" stroke="#00aeef" d="M-36.28473 0H36.28473M-36.28473 9.07117H36.28473M-36.28473 18.14235H36.28473M-36.28473 27.21355H36.28473M-36.28473 36.28473H36.28473M-36.28473 45.35591H36.28473M-36.28473 54.42711H36.28473M-36.28473 63.49829H36.28473M-36.28473 72.56628H36.28473M-36.28473 0V72.56947M-27.21355 0V72.56947M-18.14235 0V72.56947M-9.07117 0V72.56947M0 0V72.56947M9.07117 0V72.56947M18.14235 0V72.56947M27.21355 0V72.56947M36.28156 0V72.56947M36.28473 72.56947"/>
<path transform="matrix(1.00003,0,0,-1,37.580598,90.784)" stroke-width=".79701" stroke-linecap="butt" stroke-miterlimit="10" stroke-linejoin="miter" fill="none" stroke="#000000" d="M-36.28473 0H40.29288"/>
<path transform="matrix(1.00003,0,0,-1,77.87469,90.784)" d="M1.0361 0C-.25902 .25902-1.55415 .77707-3.1083 1.68365-1.55415 .51805-1.55415-.51805-3.1083-1.68365-1.55415-.77707-.25902-.25902 1.0361 0Z"/>
<path transform="matrix(1.00003,0,0,-1,77.87469,90.784)" stroke-width=".79701" stroke-linecap="butt" stroke-linejoin="round" fill="none" stroke="#000000" d="M1.0361 0C-.25902 .25902-1.55415 .77707-3.1083 1.68365-1.55415 .51805-1.55415-.51805-3.1083-1.68365-1.55415-.77707-.25902-.25902 1.0361 0Z"/>
<use data-text="x" xlink:href="#font_1_1" transform="matrix(9.962899,0,0,-9.9626,83.02896,92.929)"/>
<path transform="matrix(1.00003,0,0,-1,37.580598,90.784)" stroke-width=".79701" stroke-linecap="butt" stroke-miterlimit="10" stroke-linejoin="miter" fill="none" stroke="#000000" d="M0 0V77.48468"/>
<path transform="matrix(0,-1,-1.00003,-0,37.580598,13.299316)" d="M1.0361 0C-.25902 .25902-1.55415 .77707-3.1083 1.68365-1.55415 .51805-1.55415-.51805-3.1083-1.68365-1.55415-.77707-.25902-.25902 1.0361 0Z"/>
<path transform="matrix(0,-1,-1.00003,-0,37.580598,13.299316)" stroke-width=".79701" stroke-linecap="butt" stroke-linejoin="round" fill="none" stroke="#000000" d="M1.0361 0C-.25902 .25902-1.55415 .77707-3.1083 1.68365-1.55415 .51805-1.55415-.51805-3.1083-1.68365-1.55415-.77707-.25902-.25902 1.0361 0Z"/>
<use data-text="y" xlink:href="#font_1_2" transform="matrix(9.962899,0,0,-9.9626,34.95952,6.208)"/>
<path transform="matrix(1.00003,0,0,-1,37.580598,90.784)" stroke-width=".79701" stroke-linecap="butt" stroke-miterlimit="10" stroke-linejoin="miter" fill="none" stroke="#ff0000" d="M-26.22485 72.54332C-26.22485 72.54332-25.63281 63.06358-25.40541 59.79292-25.17804 56.52223-24.81339 51.72664-24.586 48.97049-24.35863 46.21434-23.99397 42.21034-23.76659 39.92851-23.5392 37.64668-23.17456 34.37103-22.94716 32.52469-22.71979 30.67833-22.35512 28.06973-22.12775 26.62126-21.90036 25.17279-21.5357 23.17192-21.30833 22.08513-21.08095 20.99832-20.7163 19.54831-20.48892 18.78835-20.26152 18.02837-19.89688 17.07445-19.6695 16.60774-19.44211 16.14105-19.07745 15.63028-18.85007 15.42471-18.6227 15.21912-18.25804 15.10133-18.03065 15.126-17.80327 15.15068-17.43863 15.37714-17.21123 15.60257-16.98386 15.82799-16.6192 16.35272-16.39182 16.75073-16.16444 17.14876-15.79977 17.92743-15.5724 18.47124-15.345 19.01503-14.98036 20.00603-14.75298 20.67009-14.52559 21.33418-14.16093 22.49728-13.93356 23.25749-13.70618 24.01772-13.34152 25.31567-13.11415 26.14926-12.88675 26.98285-12.52211 28.37996-12.29471 29.26541-12.06734 30.15086-11.70268 31.61383-11.4753 32.53104-11.24792 33.44827-10.88327 34.94589-10.65588 35.87613-10.4285 36.80637-10.06386 38.30981-9.83646 39.23561-9.60909 40.16139-9.24442 41.64334-9.01704 42.54858-8.78967 43.45381-8.425 44.88998-8.19763 45.75995-7.97025 46.6299-7.60559 47.99744-7.3782 48.81865-7.15083 49.63986-6.78616 50.91829-6.55879 51.67873-6.3314 52.43916-5.96675 53.61038-5.73938 54.29935-5.512 54.98831-5.14734 56.03632-4.91997 56.64438-4.69257 57.25244-4.32793 58.16281-4.10054 58.68185-3.87315 59.2009-3.5085 59.96191-3.28111 60.38531-3.05374 60.80875-2.68909 61.41112-2.4617 61.73349-2.23431 62.05586-1.86967 62.49147-1.64227 62.70876-1.4149 62.92607-1.05025 63.19011-.82286 63.29967-.59549 63.40921-.23082 63.49783-.00345 63.49829 .2239 63.49875 .58855 63.4116 .81595 63.303 1.04332 63.19437 1.40799 62.93184 1.63536 62.71542 1.86275 62.499 2.2274 62.06468 2.45477 61.74318 2.68217 61.42169 3.04681 60.82077 3.2742 60.3982 3.50159 59.97565 3.86624 59.21591 4.09361 58.69763 4.321 58.17935 4.68565 57.27008 4.91302 56.66278 5.14043 56.0555 5.50507 55.00894 5.73247 54.32066 5.95984 53.63237 6.3245 52.46204 6.55188 51.70212 6.77925 50.9422 7.1439 49.6645 7.37129 48.8437 7.59866 48.0229 7.96332 46.65596 8.1907 45.78639 8.41809 44.91682 8.78275 43.4814 9.01013 42.5764 9.2375 41.6714 9.60217 40.1894 9.82954 39.2637 10.05692 38.33801 10.42159 36.83485 10.64896 35.90463 10.87636 34.97443 11.241 33.4767 11.46838 32.55928 11.69577 31.64186 12.06042 30.17836 12.2878 29.29254 12.51518 28.40672 12.87984 27.00899 13.10721 26.17488 13.33461 25.34076 13.69925 24.04184 13.92665 23.28088 14.15402 22.51993 14.51868 21.35544 14.74606 20.69044 14.97343 20.02544 15.33809 19.0329 15.56548 18.48799 15.79286 17.94307 16.1575 17.1624 16.3849 16.76305 16.61227 16.3637 16.97694 15.83662 17.20432 15.60963 17.43169 15.38263 17.79636 15.15346 18.02373 15.12698 18.25111 15.1005 18.61577 15.21527 18.84315 15.41875 19.07054 15.62224 19.4352 16.12929 19.66257 16.59363 19.88995 17.05797 20.25461 18.00798 20.48198 18.76537 20.70938 19.52274 21.07402 20.96841 21.3014 22.05232 21.5288 23.13622 21.89345 25.13213 22.12083 26.57738 22.3482 28.02264 22.71286 30.62592 22.94025 32.46877 23.16762 34.3116 23.53227 37.58133 23.75966 39.8593 23.98705 42.13728 24.35168 46.13478 24.57909 48.88676 24.80646 51.63875 25.17113 56.42747 25.3985 59.69366 25.62589 62.95985 26.21791 72.42719 26.21791 72.42719"/>
</svg>
