<svg xmlns="http://www.w3.org/2000/svg" xmlns:xlink="http://www.w3.org/1999/xlink" version="1.1" width="90" height="94" viewBox="0 0 90 94">
<defs>
<path id="font_1_1" d="M.33399964 .30233766C.33999635 .32835389 .36299134 .42037965 .43299867 .42037965 .43798829 .42037965 .46199037 .42037965 .48298646 .40734864 .45498658 .402359 .43499757 .37734986 .43499757 .35334779 .43499757 .33735658 .44599916 .31835938 .47299195 .31835938 .49499513 .31835938 .5269928 .3363495 .5269928 .37635804 .5269928 .42837525 .46798707 .4423828 .43399049 .4423828 .37599183 .4423828 .34098817 .38935853 .32899476 .36634828 .3039856 .43237306 .25 .4423828 .22099304 .4423828 .116989139 .4423828 .05999756 .3133545 .05999756 .28834535 .05999756 .27833558 .069992069 .27833558 .07199097 .27833558 .07998657 .27833558 .08299255 .28033448 .084991458 .28933717 .11898804 .39535523 .18499756 .42037965 .21899414 .42037965 .23799134 .42037965 .272995 .4113617 .272995 .35334779 .272995 .32235719 .2559967 .25532533 .21899414 .11528015 .20298767 .053268434 .16799927 .011245728 .12399292 .011245728 .117996219 .011245728 .09498596 .011245728 .07398987 .024276734 .09899902 .029266358 .12098694 .05027771 .12098694 .07827759 .12098694 .105270389 .09899902 .11328125 .083999637 .11328125 .053985597 .11328125 .0289917 .08728027 .0289917 .055267335 .0289917 .009246826 .07899475-.0107421879 .12298584-.0107421879 .18899536-.0107421879 .22499085 .059280397 .22799683 .0652771 .23999024 .028274537 .27598573-.0107421879 .33599855-.0107421879 .43899537-.0107421879 .49598695 .118270877 .49598695 .14328003 .49598695 .1532898 .4869995 .1532898 .48399354 .1532898 .47499085 .1532898 .47299195 .14929199 .47099305 .14228821 .43798829 .03527832 .36999513 .011245728 .33799745 .011245728 .29899598 .011245728 .2829895 .043273927 .2829895 .07727051 .2829895 .09927368 .2889862 .121276859 .2999878 .16529846L.33399964 .30233766Z"/>
<path id="font_1_2" d="M.48599244 .38136292C.48999024 .39537049 .48999024 .39736939 .48999024 .40437318 .48999024 .42237855 .47599793 .43138124 .46099855 .43138124 .45098878 .43138124 .43499757 .42536927 .42599488 .41036988 .42399598 .405365 .41600038 .37435914 .4119873 .35635377 .40499879 .33035279 .397995 .30334474 .3919983 .27633668L.34700013 .09628296C.34298707 .08126831 .2999878 .011245728 .23399353 .011245728 .18299866 .011245728 .17199707 .055267335 .17199707 .0922699 .17199707 .1382904 .18899536 .20030213 .22299195 .28833009 .23899842 .3293457 .24299622 .3403473 .24299622 .36035157 .24299622 .405365 .21099854 .4423828 .16099549 .4423828 .06599426 .4423828 .0289917 .29733277 .0289917 .28833009 .0289917 .27833558 .038986207 .27833558 .040985109 .27833558 .050994874 .27833558 .051986696 .28033448 .056991579 .29634095 .083999637 .3903656 .12399292 .42037965 .1579895 .42037965 .1659851 .42037965 .18299866 .42037965 .18299866 .3883667 .18299866 .36335755 .17298889 .3373413 .1659851 .31834413 .12599182 .21231079 .10798645 .1552887 .10798645 .10827637 .10798645 .019256592 .17098999-.0107421879 .22999573-.0107421879 .2689972-.0107421879 .30299378 .0062561037 .33099366 .03425598 .31799317-.017745972 .30599977-.06674194 .2659912-.11973572 .23999024-.15385437 .20199585-.18309021 .1559906-.18309021 .14199829-.18309021 .09700012-.18005371 .07998657-.14074707 .09599304-.14074707 .10899353-.14074707 .12298584-.1287384 .1329956-.11973572 .14299011-.10673523 .14299011-.08773804 .14299011-.056747438 .115997318-.052734376 .10598755-.052734376 .08299255-.052734376 .049987794-.068740848 .049987794-.11773682 .049987794-.16796875 .09399414-.20507813 .1559906-.20507813 .25898744-.20507813 .3619995-.11373901 .3899994-.00074768069L.48599244 .38136292Z"/>
</defs>
<path transform="matrix(1.00003,0,0,-1.00003,19.438042,89.88031)" stroke-width=".3985" stroke-linecap="butt" stroke-miterlimit="10" stroke-linejoin="miter" fill="none" stroke="#00aeef" d="M-18.14235 0H54.42711M-18.14235 9.07117H54.42711M-18.14235 18.14235H54.42711M-18.14235 27.21355H54.42711M-18.14235 36.28473H54.42711M-18.14235 45.35591H54.42711M-18.14235 54.42711H54.42711M-18.14235 63.49829H54.42711M-18.14235 72.56628H54.42711M-18.14235 0V72.56947M-9.07117 0V72.56947M0 0V72.56947M9.07117 0V72.56947M18.14235 0V72.56947M27.21355 0V72.56947M36.28473 0V72.56947M45.35591 0V72.56947M54.42392 0V72.56947M54.42711 72.56947"/>
<path transform="matrix(1.00003,0,0,-1.00003,19.438042,89.88031)" stroke-width=".79701" stroke-linecap="butt" stroke-miterlimit="10" stroke-linejoin="miter" fill="none" stroke="#000000" d="M-18.14235 0H58.43526"/>
<path transform="matrix(1.00003,0,0,-1.00003,77.87506,89.88031)" d="M1.0361 0C-.25902 .25902-1.55415 .77707-3.1083 1.68365-1.55415 .51805-1.55415-.51805-3.1083-1.68365-1.55415-.77707-.25902-.25902 1.0361 0Z"/>
<path transform="matrix(1.00003,0,0,-1.00003,77.87506,89.88031)" stroke-width=".79701" stroke-linecap="butt" stroke-linejoin="round" fill="none" stroke="#000000" d="M1.0361 0C-.25902 .25902-1.55415 .77707-3.1083 1.68365-1.55415 .51805-1.55415-.51805-3.1083-1.68365-1.55415-.77707-.25902-.25902 1.0361 0Z"/>
<use data-text="x" xlink:href="#font_1_1" transform="matrix(9.962899,0,0,-9.962899,83.02895,92.025379)"/>
<path transform="matrix(1.00003,0,0,-1.00003,19.438042,89.88031)" stroke-width=".79701" stroke-linecap="butt" stroke-miterlimit="10" stroke-linejoin="miter" fill="none" stroke="#000000" d="M0 0V76.57764"/>
<path transform="matrix(0,-1.00003,-1.00003,-0,19.438042,13.300369)" d="M1.0361 0C-.25902 .25902-1.55415 .77707-3.1083 1.68365-1.55415 .51805-1.55415-.51805-3.1083-1.68365-1.55415-.77707-.25902-.25902 1.0361 0Z"/>
<path transform="matrix(0,-1.00003,-1.00003,-0,19.438042,13.300369)" stroke-width=".79701" stroke-linecap="butt" stroke-linejoin="round" fill="none" stroke="#000000" d="M1.0361 0C-.25902 .25902-1.55415 .77707-3.1083 1.68365-1.55415 .51805-1.55415-.51805-3.1083-1.68365-1.55415-.77707-.25902-.25902 1.0361 0Z"/>
<use data-text="y" xlink:href="#font_1_2" transform="matrix(9.962899,0,0,-9.962899,16.816964,6.2098009)"/>
<path transform="matrix(1.00003,0,0,-1.00003,19.438042,89.88031)" stroke-width=".79701" stroke-linecap="butt" stroke-miterlimit="10" stroke-linejoin="miter" fill="none" stroke="#ff0000" d="M-7.05737 .01134C-7.05737 .01134-6.52754 2.03001-6.32405 2.77257-6.12056 3.51514-5.7942 4.66711-5.59071 5.36316-5.38722 6.0592-5.06088 7.13805-4.85739 7.78917-4.6539 8.44028-4.32756 9.44823-4.12405 10.056-3.92056 10.66377-3.59422 11.60356-3.39075 12.1696-3.18726 12.73563-2.86092 13.60974-2.65742 14.13565-2.45393 14.66156-2.12758 15.47258-1.92409 15.95996-1.7206 16.44734-1.39426 17.19795-1.19077 17.64835-.98727 18.09875-.66095 18.79117-.45744 19.20622-.25395 19.62125 .07236 20.25836 .27585 20.63965 .47934 21.02094 .80566 21.60516 1.00916 21.95432 1.21266 22.30345 1.539 22.83745 1.7425 23.15604 1.94598 23.47462 2.27232 23.96086 2.47581 24.25049 2.6793 24.54012 3.00565 24.98123 3.20915 25.24348 3.41264 25.50572 3.73898 25.9041 3.94247 26.14055 4.14595 26.37698 4.47229 26.73538 4.67578 26.94765 4.87929 27.15993 5.20563 27.48076 5.40912 27.67046 5.61261 27.86014 5.93895 28.14606 6.14244 28.31477 6.34593 28.4835 6.67227 28.7371 6.87578 28.88643 7.07927 29.03574 7.4056 29.25945 7.60909 29.39095 7.81258 29.52246 8.13892 29.719 8.3424 29.8343 8.54591 29.9496 8.87225 30.1213 9.07574 30.222 9.27924 30.3227 9.60558 30.47229 9.80905 30.56001 10.01254 30.64772 10.33888 30.77788 10.54239 30.85414 10.74588 30.93042 11.07222 31.04335 11.27571 31.10979 11.4792 31.17624 11.80554 31.27484 12.00903 31.33307 12.21254 31.39128 12.53888 31.47786 12.74237 31.52948 12.94586 31.58107 13.27219 31.6584 13.47568 31.70499 13.67917 31.75157 14.00551 31.82211 14.20901 31.86526 14.4125 31.90842 14.73885 31.97472 14.94234 32.01599 15.14583 32.05728 15.47217 32.12183 15.67564 32.16286 15.87915 32.20387 16.20549 32.26926 16.40898 32.31166 16.61247 32.35406 16.93881 32.42311 17.1423 32.46849 17.3458 32.51385 17.67213 32.58884 17.87564 32.63873 18.07913 32.68863 18.40547 32.77205 18.60896 32.8281 18.81244 32.88412 19.13878 32.97885 19.34227 33.04263 19.54578 33.1064 19.87212 33.21465 20.0756 33.28777 20.2791 33.36087 20.60544 33.4855 20.80893 33.56958 21.01242 33.65363 21.33875 33.79704 21.54225 33.89362 21.74574 33.99016 22.07208 34.15486 22.27557 34.26552 22.47906 34.3762 22.8054 34.56491 23.0089 34.69128 23.2124 34.81767 23.53874 35.03273 23.74223 35.17644 23.94572 35.32014 24.27206 35.56442 24.47556 35.72707 24.67903 35.88968 25.00537 36.16544 25.20888 36.34853 25.41237 36.53163 25.73871 36.8415 25.9422 37.0467 26.14569 37.2519 26.47203 37.5986 26.67552 37.8275 26.87903 38.05641 27.20535 38.44229 27.40884 38.69647 27.61234 38.95067 27.93867 39.37846 28.14217 39.65956 28.34566 39.94067 28.672 40.4129 28.8755 40.72246 29.079 41.03203 29.40533 41.55106 29.60883 41.89069 29.81232 42.23033 30.13866 42.79904 30.34213 43.17035 30.54564 43.54166 30.87198 44.16223 31.07547 44.56682 31.27896 44.97139 31.6053 45.64688 31.80879 46.08633 32.01228 46.5258 32.33862 47.25827 32.54213 47.73418 32.74562 48.21005 33.07195 49.00229 33.27544 49.51627 33.47893 50.03024 33.80527 50.88495 34.00876 51.43858 34.21227 51.99219 34.5386 52.91151 34.7421 53.50636 34.94559 54.10121 35.27193 55.08815 35.47542 55.72586 35.6789 56.36357 36.00525 57.42046 36.20874 58.10258 36.41223 58.78471 36.73857 59.91405 36.94206 60.64223 37.14555 61.37042 37.4719 62.57504 37.67538 63.35088 37.87889 64.12671 38.20523 65.40889 38.40872 66.23393 38.61221 67.05898 38.93854 68.42133 39.14203 69.2972 39.34552 70.17307 39.87537 72.54665 39.87537 72.54665"/>
</svg>
