<svg xmlns="http://www.w3.org/2000/svg" xmlns:xlink="http://www.w3.org/1999/xlink" version="1.1" width="183" height="122" viewBox="0 0 183 122">
<defs>
<path id="font_1_2" d="M.33399964 .30233766C.33999635 .32835389 .36299134 .42037965 .43299867 .42037965 .43798829 .42037965 .46199037 .42037965 .48298646 .40734864 .45498658 .402359 .43499757 .37734986 .43499757 .35334779 .43499757 .33735658 .44599916 .31835938 .47299195 .31835938 .49499513 .31835938 .5269928 .3363495 .5269928 .37635804 .5269928 .42837525 .46798707 .4423828 .43399049 .4423828 .37599183 .4423828 .34098817 .38935853 .32899476 .36634828 .3039856 .43237306 .25 .4423828 .22099304 .4423828 .116989139 .4423828 .05999756 .3133545 .05999756 .28834535 .05999756 .27833558 .069992069 .27833558 .07199097 .27833558 .07998657 .27833558 .08299255 .28033448 .084991458 .28933717 .11898804 .39535523 .18499756 .42037965 .21899414 .42037965 .23799134 .42037965 .272995 .4113617 .272995 .35334779 .272995 .32235719 .2559967 .25532533 .21899414 .11528015 .20298767 .053268434 .16799927 .011245728 .12399292 .011245728 .117996219 .011245728 .09498596 .011245728 .07398987 .024276734 .09899902 .029266358 .12098694 .05027771 .12098694 .07827759 .12098694 .105270389 .09899902 .11328125 .083999637 .11328125 .053985597 .11328125 .0289917 .08728027 .0289917 .055267335 .0289917 .009246826 .07899475-.0107421879 .12298584-.0107421879 .18899536-.0107421879 .22499085 .059280397 .22799683 .0652771 .23999024 .028274537 .27598573-.0107421879 .33599855-.0107421879 .43899537-.0107421879 .49598695 .118270877 .49598695 .14328003 .49598695 .1532898 .4869995 .1532898 .48399354 .1532898 .47499085 .1532898 .47299195 .14929199 .47099305 .14228821 .43798829 .03527832 .36999513 .011245728 .33799745 .011245728 .29899598 .011245728 .2829895 .043273927 .2829895 .07727051 .2829895 .09927368 .2889862 .121276859 .2999878 .16529846L.33399964 .30233766Z"/>
<path id="font_1_3" d="M.48599244 .38136292C.48999024 .39537049 .48999024 .39736939 .48999024 .40437318 .48999024 .42237855 .47599793 .43138124 .46099855 .43138124 .45098878 .43138124 .43499757 .42536927 .42599488 .41036988 .42399598 .405365 .41600038 .37435914 .4119873 .35635377 .40499879 .33035279 .397995 .30334474 .3919983 .27633668L.34700013 .09628296C.34298707 .08126831 .2999878 .011245728 .23399353 .011245728 .18299866 .011245728 .17199707 .055267335 .17199707 .0922699 .17199707 .1382904 .18899536 .20030213 .22299195 .28833009 .23899842 .3293457 .24299622 .3403473 .24299622 .36035157 .24299622 .405365 .21099854 .4423828 .16099549 .4423828 .06599426 .4423828 .0289917 .29733277 .0289917 .28833009 .0289917 .27833558 .038986207 .27833558 .040985109 .27833558 .050994874 .27833558 .051986696 .28033448 .056991579 .29634095 .083999637 .3903656 .12399292 .42037965 .1579895 .42037965 .1659851 .42037965 .18299866 .42037965 .18299866 .3883667 .18299866 .36335755 .17298889 .3373413 .1659851 .31834413 .12599182 .21231079 .10798645 .1552887 .10798645 .10827637 .10798645 .019256592 .17098999-.0107421879 .22999573-.0107421879 .2689972-.0107421879 .30299378 .0062561037 .33099366 .03425598 .31799317-.017745972 .30599977-.06674194 .2659912-.11973572 .23999024-.15385437 .20199585-.18309021 .1559906-.18309021 .14199829-.18309021 .09700012-.18005371 .07998657-.14074707 .09599304-.14074707 .10899353-.14074707 .12298584-.1287384 .1329956-.11973572 .14299011-.10673523 .14299011-.08773804 .14299011-.056747438 .115997318-.052734376 .10598755-.052734376 .08299255-.052734376 .049987794-.068740848 .049987794-.11773682 .049987794-.16796875 .09399414-.20507813 .1559906-.20507813 .25898744-.20507813 .3619995-.11373901 .3899994-.00074768069L.48599244 .38136292Z"/>
<path id="font_2_1" d="M.6589966 .23046875C.6759949 .23046875 .69400027 .23046875 .69400027 .25045777 .69400027 .27046205 .6759949 .27046205 .6589966 .27046205H.117996219C.100997928 .27046205 .08299255 .27046205 .08299255 .25045777 .08299255 .23046875 .100997928 .23046875 .117996219 .23046875H.6589966Z"/>
<path id="font_3_3" d="M.2899933 .35191346C.37199403 .37893678 .42999269 .4490509 .42999269 .52809146 .42999269 .6100464 .34199525 .6660156 .24598694 .6660156 .14498902 .6660156 .068984989 .60606387 .068984989 .53009036 .068984989 .49710084 .09098816 .47808839 .11999512 .47808839 .15098572 .47808839 .17098999 .50009158 .17098999 .5290985 .17098999 .57910159 .12399292 .57910159 .10899353 .57910159 .13999939 .62802127 .20599365 .64100649 .24198914 .64100649 .2829895 .64100649 .33799745 .6190338 .33799745 .5290985 .33799745 .51708987 .33599855 .45906068 .30999757 .4149933 .27999879 .36691285 .24598694 .36390687 .22099304 .36291505 .21299744 .36190797 .18899536 .35990907 .18199158 .35990907 .17399597 .35890199 .16699219 .35791017 .16699219 .3479004 .16699219 .33691407 .17399597 .33691407 .19099427 .33691407H.23498535C.31698609 .33691407 .35398866 .2686615 .35398866 .17037964 .35398866 .034469606 .2849884 .0055389406 .24099732 .0055389406 .19799805 .0055389406 .12298584 .022491456 .08799744 .08137512 .12298584 .07637024 .1539917 .09837341 .1539917 .1363678 .1539917 .17237854 .1269989 .19238281 .09799194 .19238281 .07398987 .19238281 .041992189 .17837525 .041992189 .1343689 .041992189 .043441774 .1349945-.022460938 .24398804-.022460938 .3659973-.022460938 .45700074 .06838989 .45700074 .17037964 .45700074 .252594 .3939972 .33088685 .2899933 .35191346Z"/>
<path id="font_3_2" d="M.1269989 .07699585 .23298645 .18003845C.3889923 .31811524 .44898988 .3721466 .44898988 .47216798 .44898988 .5860901 .35899354 .6660156 .23699951 .6660156 .12399292 .6660156 .049987794 .57411196 .049987794 .48516847 .049987794 .4291687 .099990848 .4291687 .102996829 .4291687 .11999512 .4291687 .15499878 .44117738 .15499878 .48217774 .15499878 .5081787 .13699341 .5341797 .101989749 .5341797 .09399414 .5341797 .09199524 .5341797 .08898926 .5331726 .11199951 .59806826 .1659851 .63500979 .22399903 .63500979 .31498719 .63500979 .35798646 .5541382 .35798646 .47216798 .35798646 .39215089 .30799867 .31311036 .25299073 .25108338L.06098938 .036987306C.049987794 .025985718 .049987794 .023986817 .049987794 0H.42099L.44898988 .17404175H.42399598C.4189911 .14402771 .4119873 .1000061 .4019928 .084991458 .394989 .07699585 .32899476 .07699585 .30699159 .07699585H.1269989Z"/>
<path id="font_3_1" d="M.2939911 .64004519C.2939911 .66400149 .2939911 .6660156 .2709961 .6660156 .20899964 .60227969 .12098694 .60227969 .08898926 .60227969V.57128909C.10899353 .57128909 .16799927 .57128909 .21998596 .5972748V.07902527C.21998596 .042999269 .21699524 .0309906 .1269989 .0309906H.09498596V0C.12998963 .0029907227 .21699524 .0029907227 .25698854 .0029907227 .29699708 .0029907227 .38398744 .0029907227 .4189911 0V.0309906H.3869934C.29699708 .0309906 .2939911 .041992189 .2939911 .07902527V.64004519Z"/>
<path id="font_4_64" d="M.27598573 .18710327V.24511719H.010986328V.18710327H.27598573Z"/>
<path id="font_1_1" d="M.2649994 .37265016H.37799073C.34498597 .22489929 .33599855 .18196106 .33599855 .11508179 .33599855 .100097659 .33599855 .073150638 .34399415 .03919983 .35398866-.0047454836 .36499024-.0107421879 .37998963-.0107421879 .3999939-.0107421879 .42099 .007247925 .42099 .02722168 .42099 .033218385 .42099 .035202028 .4149933 .049179079 .38598634 .12106323 .38598634 .18595886 .38598634 .21391297 .38598634 .26683045 .3929901 .32073976 .4039917 .37265016H.5179901C.5309906 .37265016 .5669861 .37265016 .5669861 .406662 .5669861 .43066407 .54599 .43066407 .5269928 .43066407H.19198609C.16999817 .43066407 .13198853 .43066407 .08799744 .38365174 .052993776 .34469605 .026992798 .29878236 .026992798 .29379273 .026992798 .29278565 .026992798 .28379823 .038986207 .28379823 .04699707 .28379823 .04899597 .28779603 .054992677 .29577638 .10398865 .37265016 .1619873 .37265016 .18199158 .37265016H.23899842C.20698548 .25186158 .15299988 .13105774 .11099243 .04020691 .102996829 .025222779 .102996829 .023223877 .102996829 .016235352 .102996829-.002746582 .11898804-.0107421879 .13198853-.0107421879 .1619873-.0107421879 .16999817 .017242432 .18199158 .05418396 .19599915 .100097659 .19599915 .10209656 .20899964 .15202332L.2649994 .37265016Z"/>
</defs>
<path transform="matrix(1.00005,0,0,-1.00002,88.21254,69.26813)" stroke-width=".3985" stroke-linecap="butt" stroke-miterlimit="10" stroke-linejoin="miter" fill="none" stroke="#00aeef" d="M-80.148-51.0239H80.148M-80.148-38.26791H80.148M-80.148-25.51193H80.148M-80.148-12.75595H80.148M-80.148 0H80.148M-80.148 12.75595H80.148M-80.148 25.51193H80.148M-80.148 38.26791H80.148M-80.148 51.01941H80.148M-80.14682-51.0239V51.0239M-70.12846-51.0239V51.0239M-60.1101-51.0239V51.0239M-50.09175-51.0239V51.0239M-40.0734-51.0239V51.0239M-30.05505-51.0239V51.0239M-20.03668-51.0239V51.0239M-10.01834-51.0239V51.0239M0-51.0239V51.0239M10.01834-51.0239V51.0239M20.03668-51.0239V51.0239M30.05505-51.0239V51.0239M40.0734-51.0239V51.0239M50.09175-51.0239V51.0239M60.1101-51.0239V51.0239M70.12846-51.0239V51.0239M80.14682-51.0239V51.0239M80.148 51.0239"/>
<path transform="matrix(1.00005,0,0,-1.00002,88.21254,69.26813)" stroke-width=".79701" stroke-linecap="butt" stroke-miterlimit="10" stroke-linejoin="miter" fill="none" stroke="#000000" d="M-80.148 0H82.7549"/>
<path transform="matrix(1.00005,0,0,-1.00002,170.97158,69.26813)" d="M1.0361 0C-.25902 .25902-1.55415 .77707-3.1083 1.68365-1.55415 .51805-1.55415-.51805-3.1083-1.68365-1.55415-.77707-.25902-.25902 1.0361 0Z"/>
<path transform="matrix(1.00005,0,0,-1.00002,170.97158,69.26813)" stroke-width=".79701" stroke-linecap="butt" stroke-linejoin="round" fill="none" stroke="#000000" d="M1.0361 0C-.25902 .25902-1.55415 .77707-3.1083 1.68365-1.55415 .51805-1.55415-.51805-3.1083-1.68365-1.55415-.77707-.25902-.25902 1.0361 0Z"/>
<use data-text="x" xlink:href="#font_1_2" transform="matrix(9.963098,0,0,-9.962799,176.12593,71.41317)"/>
<path transform="matrix(1.00005,0,0,-1.00002,88.21254,69.26813)" stroke-width=".79701" stroke-linecap="butt" stroke-miterlimit="10" stroke-linejoin="miter" fill="none" stroke="#000000" d="M0-51.0239V55.96727"/>
<path transform="matrix(0,-1.00002,-1.00005,-0,88.21254,13.299736)" d="M1.0361 0C-.25902 .25902-1.55415 .77707-3.1083 1.68365-1.55415 .51805-1.55415-.51805-3.1083-1.68365-1.55415-.77707-.25902-.25902 1.0361 0Z"/>
<path transform="matrix(0,-1.00002,-1.00005,-0,88.21254,13.299736)" stroke-width=".79701" stroke-linecap="butt" stroke-linejoin="round" fill="none" stroke="#000000" d="M1.0361 0C-.25902 .25902-1.55415 .77707-3.1083 1.68365-1.55415 .51805-1.55415-.51805-3.1083-1.68365-1.55415-.77707-.25902-.25902 1.0361 0Z"/>
<use data-text="y" xlink:href="#font_1_3" transform="matrix(9.963098,0,0,-9.962799,85.59141,6.208866)"/>
<path transform="matrix(1.00005,0,0,-1.00002,88.21254,69.26813)" stroke-width=".79701" stroke-linecap="butt" stroke-miterlimit="10" stroke-linejoin="miter" fill="none" stroke="#000000" d="M1.27565-38.26791H-1.27547"/>
<path transform="matrix(1.00005,0,0,-1.00002,88.21254,69.26813)" d="M-18.38931-42.88953H-3.6665307V-33.6463H-18.38931Z" fill="#ffffff"/>
<use data-text="&#x2212;" xlink:href="#font_2_1" transform="matrix(9.963098,0,0,-9.962799,70.81867,110.331958)"/>
<use data-text="3" xlink:href="#font_3_3" transform="matrix(9.963098,0,0,-9.962799,78.56707,110.331958)"/>
<path transform="matrix(1.00005,0,0,-1.00002,88.21254,69.26813)" stroke-width=".79701" stroke-linecap="butt" stroke-miterlimit="10" stroke-linejoin="miter" fill="none" stroke="#000000" d="M1.27565-25.51193H-1.27547"/>
<path transform="matrix(1.00005,0,0,-1.00002,88.21254,69.26813)" d="M-18.38931-30.13354H-3.6665307V-20.890309H-18.38931Z" fill="#ffffff"/>
<use data-text="&#x2212;" xlink:href="#font_2_1" transform="matrix(9.963098,0,0,-9.962799,70.81867,97.57569)"/>
<use data-text="2" xlink:href="#font_3_2" transform="matrix(9.963098,0,0,-9.962799,78.56707,97.57569)"/>
<path transform="matrix(1.00005,0,0,-1.00002,88.21254,69.26813)" stroke-width=".79701" stroke-linecap="butt" stroke-miterlimit="10" stroke-linejoin="miter" fill="none" stroke="#000000" d="M1.27565-12.75595H-1.27547"/>
<path transform="matrix(1.00005,0,0,-1.00002,88.21254,69.26813)" d="M-18.38931-17.37758H-3.6665307V-8.134351H-18.38931Z" fill="#ffffff"/>
<use data-text="&#x2212;" xlink:href="#font_2_1" transform="matrix(9.963098,0,0,-9.962799,70.81867,84.81944)"/>
<use data-text="1" xlink:href="#font_3_1" transform="matrix(9.963098,0,0,-9.962799,78.56707,84.81944)"/>
<path transform="matrix(1.00005,0,0,-1.00002,88.21254,69.26813)" stroke-width=".79701" stroke-linecap="butt" stroke-miterlimit="10" stroke-linejoin="miter" fill="none" stroke="#000000" d="M1.27565 12.75595H-1.27547"/>
<path transform="matrix(1.00005,0,0,-1.00002,88.21254,69.26813)" d="M-10.64047 8.54947H-3.6665297V16.96245H-10.64047Z" fill="#ffffff"/>
<use data-text="1" xlink:href="#font_3_1" transform="matrix(9.963098,0,0,-9.962799,78.568058,59.72194)"/>
<path transform="matrix(1.00005,0,0,-1.00002,88.21254,69.26813)" stroke-width=".79701" stroke-linecap="butt" stroke-miterlimit="10" stroke-linejoin="miter" fill="none" stroke="#000000" d="M1.27565 25.51193H-1.27547"/>
<path transform="matrix(1.00005,0,0,-1.00002,88.21254,69.26813)" d="M-10.64047 21.30545H-3.6665297V29.71843H-10.64047Z" fill="#ffffff"/>
<use data-text="2" xlink:href="#font_3_2" transform="matrix(9.963098,0,0,-9.962799,78.568058,46.965684)"/>
<path transform="matrix(1.00005,0,0,-1.00002,88.21254,69.26813)" stroke-width=".79701" stroke-linecap="butt" stroke-miterlimit="10" stroke-linejoin="miter" fill="none" stroke="#000000" d="M1.27565 38.26791H-1.27547"/>
<path transform="matrix(1.00005,0,0,-1.00002,88.21254,69.26813)" d="M-10.64047 34.06142H-3.6665297V42.4744H-10.64047Z" fill="#ffffff"/>
<use data-text="3" xlink:href="#font_3_3" transform="matrix(9.963098,0,0,-9.962799,78.568058,34.209428)"/>
<path transform="matrix(1.00005,0,0,-1.00002,88.21254,69.26813)" stroke-width=".79701" stroke-linecap="butt" stroke-miterlimit="10" stroke-linejoin="miter" fill="none" stroke="#000000" d="M-80.148 2.55115V-2.55115"/>
<path transform="matrix(1.00005,0,0,-1.00002,88.21254,69.26813)" d="M-88.31203-13.3552H-71.98398V-4.9422199H-88.31203Z" fill="#ffffff"/>
<use data-text="-" xlink:href="#font_4_64" transform="matrix(9.963098,0,0,-9.962799,.89216616,81.62738)"/>
<use data-text="2" xlink:href="#font_3_2" transform="matrix(9.963098,0,0,-9.962799,4.2093355,81.62738)"/>
<use data-text="&#x03c0;" xlink:href="#font_1_1" transform="matrix(9.963098,0,0,-9.962799,9.190598,81.62738)"/>
<path transform="matrix(1.00005,0,0,-1.00002,88.21254,69.26813)" stroke-width=".79701" stroke-linecap="butt" stroke-miterlimit="10" stroke-linejoin="miter" fill="none" stroke="#000000" d="M-40.07399 2.55115V-2.55115"/>
<path transform="matrix(1.00005,0,0,-1.00002,88.21254,69.26813)" d="M-47.96294-13.57658H-32.18506V-4.9421999H-47.96294Z" fill="#ffffff"/>
<use data-text="&#x2212;" xlink:href="#font_2_1" transform="matrix(9.963098,0,0,-9.962799,41.243196,81.018367)"/>
<use data-text="&#x03c0;" xlink:href="#font_1_1" transform="matrix(9.963098,0,0,-9.962799,48.991594,81.018367)"/>
<path transform="matrix(1.00005,0,0,-1.00002,88.21254,69.26813)" stroke-width=".79701" stroke-linecap="butt" stroke-miterlimit="10" stroke-linejoin="miter" fill="none" stroke="#000000" d="M40.07399 2.55115V-2.55115"/>
<path transform="matrix(1.00005,0,0,-1.00002,88.21254,69.26813)" d="M36.05946-11.22427H44.0885V-4.9422099H36.05946Z" fill="#ffffff"/>
<use data-text="&#x03c0;" xlink:href="#font_1_1" transform="matrix(9.963098,0,0,-9.962799,125.270389,79.49633)"/>
<path transform="matrix(1.00005,0,0,-1.00002,88.21254,69.26813)" stroke-width=".79701" stroke-linecap="butt" stroke-miterlimit="10" stroke-linejoin="miter" fill="none" stroke="#000000" d="M80.148 2.55115V-2.55115"/>
<path transform="matrix(1.00005,0,0,-1.00002,88.21254,69.26813)" d="M73.64279-13.3552H86.65321V-4.9422199H73.64279Z" fill="#ffffff"/>
<use data-text="2" xlink:href="#font_3_2" transform="matrix(9.963098,0,0,-9.962799,162.85527,81.62738)"/>
<use data-text="&#x03c0;" xlink:href="#font_1_1" transform="matrix(9.963098,0,0,-9.962799,167.83654,81.62738)"/>
<path transform="matrix(1.00005,0,0,-1.00002,88.21254,69.26813)" stroke-width=".79701" stroke-linecap="butt" stroke-miterlimit="10" stroke-linejoin="miter" fill="none" stroke="#ff0000" d="M-80.148 0C-80.148 0-78.33852 1.81107-77.64355 2.48827-76.94858 3.16547-75.83408 4.24284-75.13911 4.88078-74.44414 5.51872-73.32962 6.51187-72.63466 7.08607-71.9397 7.66026-70.8252 8.53094-70.13023 9.01926-69.43526 9.50754-68.32074 10.22179-67.62578 10.60538-66.9308 10.98895-65.8163 11.51964-65.12134 11.7839-64.42638 12.0482-63.31186 12.37529-62.6169 12.51013-61.92192 12.64497-60.80742 12.7557-60.11244 12.75575-59.41748 12.7558-58.30296 12.64523-57.60802 12.51053-56.91304 12.37582-55.79854 12.04906-55.10356 11.7849-54.4086 11.52075-53.29408 10.99022-52.59912 10.60674-51.90416 10.22325-50.78966 9.50916-50.09468 9.021-49.3997 8.53285-48.2852 7.6625-47.59024 7.08841-46.89526 6.51433-45.78076 5.5212-45.08578 4.88333-44.39082 4.24544-43.27632 3.16818-42.58136 2.49098-41.88638 1.81381-40.77187 .69318-40.0769 .00272-39.38193-.68771-38.26743-1.80812-37.57246-2.48535-36.8775-3.16258-35.76299-4.24025-35.06802-4.87827-34.37305-5.51627-33.25854-6.50948-32.56357-7.08374-31.8686-7.65799-30.75409-8.52873-30.05914-9.0171-29.36417-9.50548-28.24966-10.21991-27.55469-10.60362-26.85973-10.98735-25.74522-11.51833-25.05025-11.78276-24.35529-12.0472-23.24078-12.37454-22.5458-12.50955-21.85085-12.64455-20.73633-12.75554-20.04137-12.75575-19.34639-12.756-18.23189-12.6458-17.53691-12.51129-16.84195-12.37677-15.72745-12.05026-15.03249-11.78625-14.33751-11.52226-13.223-10.99185-12.52803-10.60847-11.83305-10.22511-10.71855-9.51122-10.0236-9.02315-9.32863-8.53506-8.21411-7.66475-7.51915-7.09074-6.82417-6.51672-5.70967-5.52385-5.0147-4.88605-4.31975-4.24825-3.20523-3.17107-2.51027-2.49393-1.81529-1.81677-.70079-.69609-.00581-.00563 .68912 .6848 1.80362 1.80519 2.4986 2.48244 3.19354 3.15967 4.30806 4.23729 5.00302 4.87534 5.698 5.51341 6.8125 6.50685 7.50748 7.0812 8.20244 7.65558 9.31696 8.52647 10.0119 9.01497 10.70688 9.50345 11.82138 10.218 12.51636 10.60187 13.21132 10.98573 14.32584 11.51701 15.02081 11.78159 15.71577 12.04616 16.83028 12.37361 17.52524 12.50877 18.22021 12.64394 19.33472 12.75534 20.0297 12.75575 20.72466 12.7562 21.83916 12.64626 22.53413 12.51187 23.2291 12.3775 24.3436 12.0511 25.03856 11.78723 25.73354 11.52336 26.84804 10.99326 27.54301 10.61005 28.23799 10.22684 29.3525 9.51323 30.04745 9.02528 30.74242 8.53734 31.85693 7.66718 32.5519 7.09328 33.24687 6.51938 34.36137 5.52672 35.05635 4.88898 35.75131 4.25122 36.86583 3.17395 37.56078 2.49683 38.25575 1.81972 39.37025 .6992 40.06523 .00873 40.7602-.6817 41.87471-1.80223 42.56967-2.4795 43.26463-3.15678 44.37915-4.23451 45.07411-4.87262 45.76907-5.51071 46.88358-6.50404 47.57855-7.07848 48.27353-7.65292 49.38803-8.52419 50.08301-9.01282 50.77797-9.50146 51.89247-10.21631 52.58743-10.60031 53.28241-10.9843 54.39691-11.5157 55.09189-11.78041 55.78687-12.04514 56.90137-12.37285 57.59631-12.50818 58.29129-12.64351 59.40579-12.75519 60.10077-12.75575 60.79575-12.75635 61.91025-12.64668 62.60521-12.51247 63.30019-12.37825 64.4147-12.05214 65.10965-11.78839 65.80463-11.52467 66.91913-10.99469 67.6141-10.61162 68.30907-10.22852 69.42358-9.51523 70.11855-9.02744 70.8135-8.53961 71.92801-7.66963 72.62299-7.09581 73.31795-6.52199 74.43245-5.52937 75.12743-4.8917 75.8224-4.25401 76.9369-3.17683 77.63188-2.49974 78.32683-1.82266 80.1363-.01167 80.1363-.01167"/>
<path transform="matrix(1.00005,0,0,-1.00002,88.21254,69.26813)" stroke-width=".79701" stroke-linecap="butt" stroke-miterlimit="10" stroke-linejoin="miter" fill="none" stroke="#0000ff" d="M3.22304 51.03401C3.22304 51.03401 3.60258 45.74068 3.74837 44.04251 3.89415 42.34435 4.12793 40.08792 4.27371 38.7948 4.41948 37.50168 4.65326 35.73915 4.79904 34.72255 4.94481 33.70593 5.17859 32.28703 5.32437 31.46776 5.47015 30.64847 5.70395 29.49043 5.84972 28.81772 5.99548 28.14499 6.22928 27.18036 6.37505 26.61925 6.52081 26.05815 6.75461 25.24748 6.90039 24.77367 7.04617 24.29985 7.27995 23.60915 7.42572 23.20427 7.5715 22.79941 7.80528 22.20488 7.95105 21.85562 8.09683 21.50635 8.33061 20.99023 8.4764 20.68698 8.62218 20.38373 8.85596 19.93483 9.00172 19.66998 9.1475 19.40515 9.38129 19.01076 9.52705 18.77815 9.67285 18.54553 9.90662 18.1987 10.05241 17.99355 10.19818 17.78838 10.43196 17.4811 10.57774 17.29947 10.72351 17.11781 10.95729 16.8455 11.10307 16.68439 11.24886 16.52328 11.48262 16.28145 11.62842 16.13823 11.77419 15.99503 12.00797 15.77985 12.15375 15.6522 12.29951 15.52458 12.5333 15.33185 12.67908 15.21835 12.82486 15.10487 13.05862 14.93507 13.20442 14.83434 13.35019 14.7336 13.58398 14.58192 13.72975 14.49234 13.87552 14.40277 14.10931 14.26782 14.25508 14.18872 14.40086 14.10959 14.63464 13.99162 14.78043 13.92206 14.9262 13.8525 15.15997 13.7484 15.30576 13.68732 15.45152 13.62624 15.6853 13.53471 15.83109 13.48178 15.97687 13.42885 16.21063 13.35095 16.35643 13.30583 16.5022 13.2607 16.73598 13.19461 16.88176 13.15652 17.02753 13.11845 17.26132 13.06253 17.40709 13.03137 17.55287 13.00023 17.78665 12.95651 17.93243 12.93192 18.0782 12.90732 18.312 12.87248 18.45776 12.85405 18.60355 12.83565 18.83733 12.81122 18.9831 12.79918 19.12889 12.78714 19.36266 12.77324 19.50844 12.76726 19.65422 12.76126 19.888 12.75595 20.03377 12.75595 20.17955 12.75595 20.41333 12.76126 20.5591 12.76726 20.7049 12.77324 20.93866 12.7873 21.08444 12.79918 21.23022 12.81105 21.464 12.83464 21.60979 12.85289 21.75555 12.87114 21.98933 12.90616 22.13512 12.93076 22.2809 12.95535 22.51466 12.99924 22.66046 13.0302 22.80623 13.06119 23.04001 13.11595 23.18579 13.15399 23.33156 13.19205 23.56534 13.25932 23.71112 13.30446 23.8569 13.34958 24.09067 13.42648 24.23647 13.47925 24.38223 13.532 24.61601 13.62389 24.7618 13.68478 24.90756 13.74568 25.14136 13.84879 25.28712 13.91817 25.4329 13.98753 25.66669 14.1057 25.81247 14.18481 25.95824 14.26393 26.19203 14.39903 26.3378 14.48845 26.48357 14.57787 26.71735 14.7287 26.86313 14.82928 27.00891 14.92984 27.24268 15.1 27.38847 15.2133 27.53424 15.32658 27.76802 15.51836 27.9138 15.6458 28.05957 15.77322 28.29335 15.98877 28.43913 16.13182 28.58492 16.27487 28.8187 16.51588 28.96448 16.6768 29.11024 16.83774 29.34404 17.11021 29.4898 17.29169 29.63557 17.47313 29.86937 17.77975 30.01514 17.9846 30.16093 18.18944 30.3947 18.53578 30.54048 18.76802 30.68626 19.00027 30.92004 19.39404 31.06581 19.65851 31.2116 19.92297 31.44537 20.3716 31.59114 20.67415 31.73694 20.97668 31.9707 21.49066 32.11649 21.83907 32.26227 22.18747 32.49605 22.78085 32.64182 23.1852 32.7876 23.58954 33.02138 24.2803 33.16716 24.75323 33.31294 25.22615 33.54672 26.03389 33.6925 26.59375 33.83827 27.15361 34.07205 28.117 34.21783 28.78833 34.3636 29.45964 34.59738 30.61478 34.74316 31.43213 34.88895 32.24948 35.12273 33.66537 35.26851 34.67932 35.41428 35.69327 35.64806 37.4507 35.79384 38.73993 35.9396 40.02913 36.17339 42.2794 36.31918 43.97107 36.46495 45.66277 36.84451 50.93242 36.84451 50.93242"/>
<path transform="matrix(1.00005,0,0,-1.00002,88.21254,69.26813)" stroke-width=".79701" stroke-linecap="butt" stroke-miterlimit="10" stroke-linejoin="miter" fill="none" stroke="#0000ff" d="M-76.92494 51.03401C-76.92494 51.03401-76.5454 45.74068-76.3996 44.04251-76.25383 42.34435-76.02003 40.08792-75.87427 38.7948-75.7285 37.50168-75.4947 35.73915-75.34894 34.72255-75.20316 33.70593-74.96938 32.28703-74.8236 31.46776-74.67781 30.64847-74.44403 29.49043-74.29826 28.81772-74.15248 28.14499-73.9187 27.18036-73.77293 26.61925-73.62714 26.05815-73.39337 25.24748-73.24759 24.77367-73.1018 24.29985-72.86803 23.60915-72.72226 23.20427-72.57648 22.79941-72.3427 22.20488-72.19693 21.85562-72.05113 21.50635-71.81737 20.99023-71.67157 20.68698-71.5258 20.38373-71.29202 19.93483-71.14624 19.66998-71.00047 19.40515-70.7667 19.01076-70.62091 18.77815-70.47513 18.54553-70.24136 18.1987-70.09557 17.99355-69.9498 17.78838-69.71602 17.4811-69.57024 17.29947-69.42447 17.11781-69.19069 16.8455-69.0449 16.68439-68.89912 16.52328-68.66536 16.28145-68.51956 16.13823-68.3738 15.99503-68.14 15.77985-67.99423 15.6522-67.84846 15.52458-67.61467 15.33185-67.4689 15.21835-67.32312 15.10487-67.08934 14.93507-66.94356 14.83434-66.79778 14.7336-66.564 14.58192-66.41823 14.49234-66.27245 14.40277-66.03867 14.26782-65.8929 14.18872-65.74712 14.10959-65.51334 13.99162-65.36755 13.92206-65.22179 13.8525-64.988 13.7484-64.84222 13.68732-64.69646 13.62624-64.46266 13.53471-64.3169 13.48178-64.17111 13.42885-63.93732 13.35095-63.79155 13.30583-63.64578 13.2607-63.41199 13.19461-63.26622 13.15652-63.12044 13.11845-62.88666 13.06253-62.74089 13.03137-62.5951 13.00023-62.36131 12.95651-62.21555 12.93192-62.06976 12.90732-61.83598 12.87248-61.69022 12.85405-61.54443 12.83565-61.31065 12.81122-61.16487 12.79918-61.01909 12.78714-60.78531 12.77324-60.63954 12.76726-60.49376 12.76126-60.25998 12.75595-60.1142 12.75595-59.96843 12.75595-59.73465 12.76126-59.58885 12.76726-59.44308 12.77324-59.2093 12.7873-59.06352 12.79918-58.91776 12.81105-58.68398 12.83464-58.5382 12.85289-58.39243 12.87114-58.15865 12.90616-58.01285 12.93076-57.86708 12.95535-57.6333 12.99924-57.48752 13.0302-57.34175 13.06119-57.10797 13.11595-56.96219 13.15399-56.8164 13.19205-56.58263 13.25932-56.43684 13.30446-56.29108 13.34958-56.05728 13.42648-55.91151 13.47925-55.76575 13.532-55.53195 13.62389-55.38618 13.68478-55.24039 13.74568-55.00662 13.84879-54.86084 13.91817-54.71506 13.98753-54.48128 14.1057-54.33551 14.18481-54.18974 14.26393-53.95595 14.39903-53.81018 14.48845-53.6644 14.57787-53.43063 14.7287-53.28484 14.82928-53.13907 14.92984-52.90527 15.1-52.7595 15.2133-52.61374 15.32658-52.37994 15.51836-52.23418 15.6458-52.0884 15.77322-51.85461 15.98877-51.70883 16.13182-51.56305 16.27487-51.32927 16.51588-51.1835 16.6768-51.03772 16.83774-50.80394 17.11021-50.65817 17.29169-50.51237 17.47313-50.27861 17.77975-50.13283 17.9846-49.98705 18.18944-49.75327 18.53578-49.6075 18.76802-49.46172 19.00027-49.22794 19.39404-49.08217 19.65851-48.93637 19.92297-48.7026 20.3716-48.55681 20.67415-48.41104 20.97668-48.17726 21.49066-48.03148 21.83907-47.88571 22.18747-47.65193 22.78085-47.50615 23.1852-47.36037 23.58954-47.1266 24.2803-46.9808 24.75323-46.83504 25.22615-46.60126 26.03389-46.45547 26.59375-46.30971 27.15361-46.07593 28.117-45.93015 28.78833-45.78436 29.45964-45.5506 30.61478-45.4048 31.43213-45.25903 32.24948-45.02524 33.66537-44.87947 34.67932-44.7337 35.69327-44.49991 37.4507-44.35414 38.73993-44.20836 40.02913-43.97458 42.2794-43.8288 43.97107-43.68301 45.66277-43.30347 50.93242-43.30347 50.93242"/>
<path transform="matrix(1.00005,0,0,-1.00002,88.21254,69.26813)" stroke-width=".79701" stroke-linecap="butt" stroke-miterlimit="10" stroke-linejoin="miter" fill="none" stroke="#0000ff" d="M-36.85094-51.03401C-36.85094-51.03401-36.47137-45.74068-36.32559-44.04251-36.17982-42.34435-35.94604-40.08792-35.80026-38.7948-35.65448-37.50168-35.42072-35.73915-35.27492-34.72255-35.12915-33.70593-34.89537-32.28703-34.74959-31.46776-34.60382-30.64847-34.37004-29.49043-34.22426-28.81772-34.07848-28.14499-33.84471-27.18036-33.69891-26.61925-33.55315-26.05815-33.31935-25.24748-33.17358-24.77367-33.02782-24.29985-32.79402-23.60915-32.64825-23.20427-32.50247-22.79941-32.26869-22.20488-32.12291-21.85562-31.97713-21.50635-31.74335-20.99023-31.59758-20.68698-31.4518-20.38373-31.21802-19.93483-31.07225-19.66998-30.92645-19.40515-30.69267-19.01076-30.5469-18.77815-30.40112-18.54553-30.16734-18.1987-30.02158-17.99355-29.8758-17.78838-29.64201-17.4811-29.49625-17.29947-29.35045-17.11781-29.11667-16.8455-28.9709-16.68439-28.82512-16.52328-28.59134-16.28145-28.44556-16.13823-28.29979-15.99503-28.06601-15.77985-27.92023-15.6522-27.77444-15.52458-27.54066-15.33185-27.39488-15.21835-27.24911-15.10487-27.01534-14.93507-26.86955-14.83434-26.72379-14.7336-26.49-14.58192-26.34421-14.49234-26.19844-14.40277-25.96465-14.26782-25.81888-14.18872-25.67311-14.10959-25.43933-13.99162-25.29356-13.92206-25.1478-13.8525-24.914-13.7484-24.7682-13.68732-24.62244-13.62624-24.38866-13.53471-24.24287-13.48178-24.0971-13.42885-23.86333-13.35095-23.71754-13.30583-23.57176-13.2607-23.338-13.19461-23.1922-13.15652-23.04643-13.11845-22.81265-13.06253-22.66687-13.03137-22.5211-13.00023-22.28732-12.95651-22.14154-12.93192-21.99576-12.90732-21.76198-12.87248-21.6162-12.85405-21.47043-12.83565-21.23663-12.81122-21.09087-12.79918-20.9451-12.78714-20.7113-12.77324-20.56554-12.76726-20.41974-12.76126-20.18597-12.75595-20.04019-12.75595-19.89441-12.75595-19.66063-12.76126-19.51486-12.76726-19.36908-12.77324-19.1353-12.7873-18.98953-12.79918-18.84373-12.81105-18.60997-12.83464-18.46419-12.85289-18.3184-12.87114-18.08463-12.90616-17.93886-12.93076-17.79308-12.95535-17.5593-12.99924-17.41353-13.0302-17.26773-13.06119-17.03397-13.11595-16.88817-13.15399-16.7424-13.19205-16.50862-13.25932-16.36284-13.30446-16.21707-13.34958-15.98329-13.42648-15.83751-13.47925-15.69173-13.532-15.45796-13.62389-15.31216-13.68478-15.1664-13.74568-14.93262-13.84879-14.78683-13.91817-14.64107-13.98753-14.40727-14.1057-14.2615-14.18481-14.11572-14.26393-13.88196-14.39903-13.73618-14.48845-13.59041-14.57787-13.35661-14.7287-13.21083-14.82928-13.06506-14.92984-12.83128-15.1-12.6855-15.2133-12.53972-15.32658-12.30595-15.51836-12.16016-15.6458-12.01439-15.77322-11.78061-15.98877-11.63483-16.13182-11.48906-16.27487-11.25528-16.51588-11.1095-16.6768-10.96371-16.83774-10.72995-17.11021-10.58415-17.29169-10.43839-17.47313-10.20459-17.77975-10.05882-17.9846-9.91306-18.18944-9.67926-18.53578-9.5335-18.76802-9.38771-19.00027-9.15393-19.39404-9.00815-19.65851-8.86237-19.92297-8.62859-20.3716-8.48282-20.67415-8.33704-20.97668-8.10326-21.49066-7.95749-21.83907-7.81169-22.18747-7.57793-22.78085-7.43214-23.1852-7.28636-23.58954-7.05258-24.2803-6.90681-24.75323-6.76103-25.22615-6.52725-26.03389-6.38148-26.59375-6.23569-27.15361-6.00192-28.117-5.85614-28.78833-5.71036-29.45964-5.47658-30.61478-5.3308-31.43213-5.18503-32.24948-4.95125-33.66537-4.80547-34.67932-4.65968-35.69327-4.42592-37.4507-4.28012-38.73993-4.13435-40.02913-3.90057-42.2794-3.75479-43.97107-3.60902-45.66277-3.22946-50.93242-3.22946-50.93242"/>
<path transform="matrix(1.00005,0,0,-1.00002,88.21254,69.26813)" stroke-width=".79701" stroke-linecap="butt" stroke-miterlimit="10" stroke-linejoin="miter" fill="none" stroke="#0000ff" d="M43.29704-51.03401C43.29704-51.03401 43.6766-45.74068 43.82237-44.04251 43.96815-42.34435 44.20193-40.08792 44.3477-38.7948 44.4935-37.50168 44.72726-35.73915 44.87305-34.72255 45.01883-33.70593 45.25261-32.28703 45.39839-31.46776 45.54416-30.64847 45.77794-29.49043 45.92372-28.81772 46.0695-28.14499 46.30327-27.18036 46.44907-26.61925 46.59483-26.05815 46.82861-25.24748 46.9744-24.77367 47.12016-24.29985 47.35394-23.60915 47.49973-23.20427 47.64551-22.79941 47.87927-22.20488 48.02507-21.85562 48.17084-21.50635 48.40463-20.99023 48.5504-20.68698 48.69617-20.38373 48.92996-19.93483 49.07573-19.66998 49.22151-19.40515 49.45529-19.01076 49.60107-18.77815 49.74686-18.54553 49.98064-18.1987 50.1264-17.99355 50.27219-17.78838 50.50597-17.4811 50.65173-17.29947 50.79753-17.11781 51.0313-16.8455 51.17708-16.68439 51.32286-16.52328 51.55664-16.28145 51.70241-16.13823 51.84819-15.99503 52.08197-15.77985 52.22774-15.6522 52.37354-15.52458 52.6073-15.33185 52.75308-15.21835 52.89886-15.10487 53.13264-14.93507 53.27843-14.83434 53.4242-14.7336 53.65797-14.58192 53.80376-14.49234 53.94954-14.40277 54.18332-14.26782 54.3291-14.18872 54.47487-14.10959 54.70865-13.99162 54.85442-13.92206 55.00018-13.8525 55.23398-13.7484 55.37975-13.68732 55.52554-13.62624 55.75931-13.53471 55.90509-13.48178 56.05087-13.42885 56.28465-13.35095 56.43042-13.30583 56.5762-13.2607 56.80998-13.19461 56.95576-13.15652 57.10155-13.11845 57.33531-13.06253 57.48111-13.03137 57.62688-13.00023 57.86066-12.95651 58.00644-12.93192 58.1522-12.90732 58.38599-12.87248 58.53177-12.85405 58.67755-12.83565 58.91132-12.81122 59.05711-12.79918 59.20288-12.78714 59.43666-12.77324 59.58244-12.76726 59.72821-12.76126 59.962-12.75595 60.10777-12.75595 60.25356-12.75595 60.48734-12.76126 60.63312-12.76726 60.77888-12.77324 61.01268-12.7873 61.15845-12.79918 61.30423-12.81105 61.53801-12.83464 61.68378-12.85289 61.82957-12.87114 62.06334-12.90616 62.20912-12.93076 62.3549-12.95535 62.58868-12.99924 62.73445-13.0302 62.88023-13.06119 63.11401-13.11595 63.25978-13.15399 63.40558-13.19205 63.63934-13.25932 63.78513-13.30446 63.93091-13.34958 64.16469-13.42648 64.31046-13.47925 64.45624-13.532 64.69002-13.62389 64.8358-13.68478 64.98158-13.74568 65.21535-13.84879 65.36115-13.91817 65.50691-13.98753 65.7407-14.1057 65.88647-14.18481 66.03224-14.26393 66.26602-14.39903 66.41179-14.48845 66.55757-14.57787 66.79137-14.7287 66.93713-14.82928 67.08292-14.92984 67.3167-15.1 67.46246-15.2133 67.60825-15.32658 67.84203-15.51836 67.9878-15.6458 68.13359-15.77322 68.36737-15.98877 68.51315-16.13182 68.65892-16.27487 68.8927-16.51588 69.03848-16.6768 69.18425-16.83774 69.41803-17.11021 69.56381-17.29169 69.7096-17.47313 69.94337-17.77975 70.08916-17.9846 70.23492-18.18944 70.4687-18.53578 70.61449-18.76802 70.76025-19.00027 70.99403-19.39404 71.13983-19.65851 71.2856-19.92297 71.51938-20.3716 71.66516-20.67415 71.81093-20.97668 72.04472-21.49066 72.19049-21.83907 72.33626-22.18747 72.57005-22.78085 72.71584-23.1852 72.8616-23.58954 73.0954-24.2803 73.24117-24.75323 73.38695-25.22615 73.62073-26.03389 73.7665-26.59375 73.9123-27.15361 74.14606-28.117 74.29184-28.78833 74.43762-29.45964 74.6714-30.61478 74.81717-31.43213 74.96295-32.24948 75.19673-33.66537 75.3425-34.67932 75.4883-35.69327 75.72206-37.4507 75.86784-38.73993 76.01363-40.02913 76.2474-42.2794 76.39319-43.97107 76.53896-45.66277 76.91852-50.93242 76.91852-50.93242"/>
</svg>
