<svg xmlns="http://www.w3.org/2000/svg" xmlns:xlink="http://www.w3.org/1999/xlink" version="1.1" width="200" height="131" viewBox="0 0 200 131">
<defs>
<path id="font_1_2" d="M.33399964 .30233766C.33999635 .32835389 .36299134 .42037965 .43299867 .42037965 .43798829 .42037965 .46199037 .42037965 .48298646 .40734864 .45498658 .402359 .43499757 .37734986 .43499757 .35334779 .43499757 .33735658 .44599916 .31835938 .47299195 .31835938 .49499513 .31835938 .5269928 .3363495 .5269928 .37635804 .5269928 .42837525 .46798707 .4423828 .43399049 .4423828 .37599183 .4423828 .34098817 .38935853 .32899476 .36634828 .3039856 .43237306 .25 .4423828 .22099304 .4423828 .116989139 .4423828 .05999756 .3133545 .05999756 .28834535 .05999756 .27833558 .069992069 .27833558 .07199097 .27833558 .07998657 .27833558 .08299255 .28033448 .084991458 .28933717 .11898804 .39535523 .18499756 .42037965 .21899414 .42037965 .23799134 .42037965 .272995 .4113617 .272995 .35334779 .272995 .32235719 .2559967 .25532533 .21899414 .11528015 .20298767 .053268434 .16799927 .011245728 .12399292 .011245728 .117996219 .011245728 .09498596 .011245728 .07398987 .024276734 .09899902 .029266358 .12098694 .05027771 .12098694 .07827759 .12098694 .105270389 .09899902 .11328125 .083999637 .11328125 .053985597 .11328125 .0289917 .08728027 .0289917 .055267335 .0289917 .009246826 .07899475-.0107421879 .12298584-.0107421879 .18899536-.0107421879 .22499085 .059280397 .22799683 .0652771 .23999024 .028274537 .27598573-.0107421879 .33599855-.0107421879 .43899537-.0107421879 .49598695 .118270877 .49598695 .14328003 .49598695 .1532898 .4869995 .1532898 .48399354 .1532898 .47499085 .1532898 .47299195 .14929199 .47099305 .14228821 .43798829 .03527832 .36999513 .011245728 .33799745 .011245728 .29899598 .011245728 .2829895 .043273927 .2829895 .07727051 .2829895 .09927368 .2889862 .121276859 .2999878 .16529846L.33399964 .30233766Z"/>
<path id="font_1_3" d="M.48599244 .38136292C.48999024 .39537049 .48999024 .39736939 .48999024 .40437318 .48999024 .42237855 .47599793 .43138124 .46099855 .43138124 .45098878 .43138124 .43499757 .42536927 .42599488 .41036988 .42399598 .405365 .41600038 .37435914 .4119873 .35635377 .40499879 .33035279 .397995 .30334474 .3919983 .27633668L.34700013 .09628296C.34298707 .08126831 .2999878 .011245728 .23399353 .011245728 .18299866 .011245728 .17199707 .055267335 .17199707 .0922699 .17199707 .1382904 .18899536 .20030213 .22299195 .28833009 .23899842 .3293457 .24299622 .3403473 .24299622 .36035157 .24299622 .405365 .21099854 .4423828 .16099549 .4423828 .06599426 .4423828 .0289917 .29733277 .0289917 .28833009 .0289917 .27833558 .038986207 .27833558 .040985109 .27833558 .050994874 .27833558 .051986696 .28033448 .056991579 .29634095 .083999637 .3903656 .12399292 .42037965 .1579895 .42037965 .1659851 .42037965 .18299866 .42037965 .18299866 .3883667 .18299866 .36335755 .17298889 .3373413 .1659851 .31834413 .12599182 .21231079 .10798645 .1552887 .10798645 .10827637 .10798645 .019256592 .17098999-.0107421879 .22999573-.0107421879 .2689972-.0107421879 .30299378 .0062561037 .33099366 .03425598 .31799317-.017745972 .30599977-.06674194 .2659912-.11973572 .23999024-.15385437 .20199585-.18309021 .1559906-.18309021 .14199829-.18309021 .09700012-.18005371 .07998657-.14074707 .09599304-.14074707 .10899353-.14074707 .12298584-.1287384 .1329956-.11973572 .14299011-.10673523 .14299011-.08773804 .14299011-.056747438 .115997318-.052734376 .10598755-.052734376 .08299255-.052734376 .049987794-.068740848 .049987794-.11773682 .049987794-.16796875 .09399414-.20507813 .1559906-.20507813 .25898744-.20507813 .3619995-.11373901 .3899994-.00074768069L.48599244 .38136292Z"/>
<path id="font_2_1" d="M.6589966 .23046875C.6759949 .23046875 .69400027 .23046875 .69400027 .25045777 .69400027 .27046205 .6759949 .27046205 .6589966 .27046205H.117996219C.100997928 .27046205 .08299255 .27046205 .08299255 .25045777 .08299255 .23046875 .100997928 .23046875 .117996219 .23046875H.6589966Z"/>
<path id="font_3_3" d="M.2899933 .35191346C.37199403 .37893678 .42999269 .4490509 .42999269 .52809146 .42999269 .6100464 .34199525 .6660156 .24598694 .6660156 .14498902 .6660156 .068984989 .60606387 .068984989 .53009036 .068984989 .49710084 .09098816 .47808839 .11999512 .47808839 .15098572 .47808839 .17098999 .50009158 .17098999 .5290985 .17098999 .57910159 .12399292 .57910159 .10899353 .57910159 .13999939 .62802127 .20599365 .64100649 .24198914 .64100649 .2829895 .64100649 .33799745 .6190338 .33799745 .5290985 .33799745 .51708987 .33599855 .45906068 .30999757 .4149933 .27999879 .36691285 .24598694 .36390687 .22099304 .36291505 .21299744 .36190797 .18899536 .35990907 .18199158 .35990907 .17399597 .35890199 .16699219 .35791017 .16699219 .3479004 .16699219 .33691407 .17399597 .33691407 .19099427 .33691407H.23498535C.31698609 .33691407 .35398866 .2686615 .35398866 .17037964 .35398866 .034469606 .2849884 .0055389406 .24099732 .0055389406 .19799805 .0055389406 .12298584 .022491456 .08799744 .08137512 .12298584 .07637024 .1539917 .09837341 .1539917 .1363678 .1539917 .17237854 .1269989 .19238281 .09799194 .19238281 .07398987 .19238281 .041992189 .17837525 .041992189 .1343689 .041992189 .043441774 .1349945-.022460938 .24398804-.022460938 .3659973-.022460938 .45700074 .06838989 .45700074 .17037964 .45700074 .252594 .3939972 .33088685 .2899933 .35191346Z"/>
<path id="font_3_2" d="M.1269989 .07699585 .23298645 .18003845C.3889923 .31811524 .44898988 .3721466 .44898988 .47216798 .44898988 .5860901 .35899354 .6660156 .23699951 .6660156 .12399292 .6660156 .049987794 .57411196 .049987794 .48516847 .049987794 .4291687 .099990848 .4291687 .102996829 .4291687 .11999512 .4291687 .15499878 .44117738 .15499878 .48217774 .15499878 .5081787 .13699341 .5341797 .101989749 .5341797 .09399414 .5341797 .09199524 .5341797 .08898926 .5331726 .11199951 .59806826 .1659851 .63500979 .22399903 .63500979 .31498719 .63500979 .35798646 .5541382 .35798646 .47216798 .35798646 .39215089 .30799867 .31311036 .25299073 .25108338L.06098938 .036987306C.049987794 .025985718 .049987794 .023986817 .049987794 0H.42099L.44898988 .17404175H.42399598C.4189911 .14402771 .4119873 .1000061 .4019928 .084991458 .394989 .07699585 .32899476 .07699585 .30699159 .07699585H.1269989Z"/>
<path id="font_3_1" d="M.2939911 .64004519C.2939911 .66400149 .2939911 .6660156 .2709961 .6660156 .20899964 .60227969 .12098694 .60227969 .08898926 .60227969V.57128909C.10899353 .57128909 .16799927 .57128909 .21998596 .5972748V.07902527C.21998596 .042999269 .21699524 .0309906 .1269989 .0309906H.09498596V0C.12998963 .0029907227 .21699524 .0029907227 .25698854 .0029907227 .29699708 .0029907227 .38398744 .0029907227 .4189911 0V.0309906H.3869934C.29699708 .0309906 .2939911 .041992189 .2939911 .07902527V.64004519Z"/>
<path id="font_4_64" d="M.27598573 .18710327V.24511719H.010986328V.18710327H.27598573Z"/>
<path id="font_1_1" d="M.2649994 .37265016H.37799073C.34498597 .22489929 .33599855 .18196106 .33599855 .11508179 .33599855 .100097659 .33599855 .073150638 .34399415 .03919983 .35398866-.0047454836 .36499024-.0107421879 .37998963-.0107421879 .3999939-.0107421879 .42099 .007247925 .42099 .02722168 .42099 .033218385 .42099 .035202028 .4149933 .049179079 .38598634 .12106323 .38598634 .18595886 .38598634 .21391297 .38598634 .26683045 .3929901 .32073976 .4039917 .37265016H.5179901C.5309906 .37265016 .5669861 .37265016 .5669861 .406662 .5669861 .43066407 .54599 .43066407 .5269928 .43066407H.19198609C.16999817 .43066407 .13198853 .43066407 .08799744 .38365174 .052993776 .34469605 .026992798 .29878236 .026992798 .29379273 .026992798 .29278565 .026992798 .28379823 .038986207 .28379823 .04699707 .28379823 .04899597 .28779603 .054992677 .29577638 .10398865 .37265016 .1619873 .37265016 .18199158 .37265016H.23899842C.20698548 .25186158 .15299988 .13105774 .11099243 .04020691 .102996829 .025222779 .102996829 .023223877 .102996829 .016235352 .102996829-.002746582 .11898804-.0107421879 .13198853-.0107421879 .1619873-.0107421879 .16999817 .017242432 .18199158 .05418396 .19599915 .100097659 .19599915 .10209656 .20899964 .15202332L.2649994 .37265016Z"/>
</defs>
<path transform="matrix(1.00003,0,0,-1.00009,97.116428,72.81738)" stroke-width=".3985" stroke-linecap="butt" stroke-miterlimit="10" stroke-linejoin="miter" fill="none" stroke="#00aeef" d="M-89.05394-56.69362H89.05394M-89.05394-42.5202H89.05394M-89.05394-28.3468H89.05394M-89.05394-14.17339H89.05394M-89.05394 0H89.05394M-89.05394 14.17339H89.05394M-89.05394 28.3468H89.05394M-89.05394 42.5202H89.05394M-89.05394 56.68863H89.05394M-89.05263-56.69362V56.69362M-77.92105-56.69362V56.69362M-66.78947-56.69362V56.69362M-55.65788-56.69362V56.69362M-44.5263-56.69362V56.69362M-33.39473-56.69362V56.69362M-22.26315-56.69362V56.69362M-11.13156-56.69362V56.69362M0-56.69362V56.69362M11.13156-56.69362V56.69362M22.26315-56.69362V56.69362M33.39473-56.69362V56.69362M44.5263-56.69362V56.69362M55.65788-56.69362V56.69362M66.78947-56.69362V56.69362M77.92105-56.69362V56.69362M89.05263-56.69362V56.69362M89.05394 56.69362"/>
<path transform="matrix(1.00003,0,0,-1.00009,97.116428,72.81738)" stroke-width=".79701" stroke-linecap="butt" stroke-miterlimit="10" stroke-linejoin="miter" fill="none" stroke="#000000" d="M-89.05394 0H90.6925"/>
<path transform="matrix(1.00003,0,0,-1.00009,187.81165,72.81738)" d="M1.0361 0C-.25902 .25902-1.55415 .77707-3.1083 1.68365-1.55415 .51805-1.55415-.51805-3.1083-1.68365-1.55415-.77707-.25902-.25902 1.0361 0Z"/>
<path transform="matrix(1.00003,0,0,-1.00009,187.81165,72.81738)" stroke-width=".79701" stroke-linecap="butt" stroke-linejoin="round" fill="none" stroke="#000000" d="M1.0361 0C-.25902 .25902-1.55415 .77707-3.1083 1.68365-1.55415 .51805-1.55415-.51805-3.1083-1.68365-1.55415-.77707-.25902-.25902 1.0361 0Z"/>
<use data-text="x" xlink:href="#font_1_2" transform="matrix(9.962899,0,0,-9.963496,192.9653,74.96258)"/>
<path transform="matrix(1.00003,0,0,-1.00009,97.116428,72.81738)" stroke-width=".79701" stroke-linecap="butt" stroke-miterlimit="10" stroke-linejoin="miter" fill="none" stroke="#000000" d="M0-56.69362V59.51106"/>
<path transform="matrix(0,-1.00009,-1.00003,-0,97.116428,13.300968)" d="M1.0361 0C-.25902 .25902-1.55415 .77707-3.1083 1.68365-1.55415 .51805-1.55415-.51805-3.1083-1.68365-1.55415-.77707-.25902-.25902 1.0361 0Z"/>
<path transform="matrix(0,-1.00009,-1.00003,-0,97.116428,13.300968)" stroke-width=".79701" stroke-linecap="butt" stroke-linejoin="round" fill="none" stroke="#000000" d="M1.0361 0C-.25902 .25902-1.55415 .77707-3.1083 1.68365-1.55415 .51805-1.55415-.51805-3.1083-1.68365-1.55415-.77707-.25902-.25902 1.0361 0Z"/>
<use data-text="y" xlink:href="#font_1_3" transform="matrix(9.962899,0,0,-9.963496,94.495349,6.2093889)"/>
<path transform="matrix(1.00003,0,0,-1.00009,97.116428,72.81738)" stroke-width=".79701" stroke-linecap="butt" stroke-miterlimit="10" stroke-linejoin="miter" fill="none" stroke="#000000" d="M1.4174-42.5202H-1.41719"/>
<path transform="matrix(1.00003,0,0,-1.00009,97.116428,72.81738)" d="M-18.53104-47.14182H-3.80826V-37.89859H-18.53104Z" fill="#ffffff"/>
<use data-text="&#x2212;" xlink:href="#font_2_1" transform="matrix(9.962899,0,0,-9.963496,79.5809,118.13646)"/>
<use data-text="3" xlink:href="#font_3_3" transform="matrix(9.962899,0,0,-9.963496,87.330127,118.13646)"/>
<path transform="matrix(1.00003,0,0,-1.00009,97.116428,72.81738)" stroke-width=".79701" stroke-linecap="butt" stroke-miterlimit="10" stroke-linejoin="miter" fill="none" stroke="#000000" d="M1.4174-28.3468H-1.41719"/>
<path transform="matrix(1.00003,0,0,-1.00009,97.116428,72.81738)" d="M-18.53104-32.96841H-3.80826V-23.725182H-18.53104Z" fill="#ffffff"/>
<use data-text="&#x2212;" xlink:href="#font_2_1" transform="matrix(9.962899,0,0,-9.963496,79.5809,103.96219)"/>
<use data-text="2" xlink:href="#font_3_2" transform="matrix(9.962899,0,0,-9.963496,87.330127,103.96219)"/>
<path transform="matrix(1.00003,0,0,-1.00009,97.116428,72.81738)" stroke-width=".79701" stroke-linecap="butt" stroke-miterlimit="10" stroke-linejoin="miter" fill="none" stroke="#000000" d="M1.4174-14.17339H-1.41719"/>
<path transform="matrix(1.00003,0,0,-1.00009,97.116428,72.81738)" d="M-18.53104-18.795H-3.80826V-9.55177H-18.53104Z" fill="#ffffff"/>
<use data-text="&#x2212;" xlink:href="#font_2_1" transform="matrix(9.962899,0,0,-9.963496,79.5809,89.78691)"/>
<use data-text="1" xlink:href="#font_3_1" transform="matrix(9.962899,0,0,-9.963496,87.330127,89.78691)"/>
<path transform="matrix(1.00003,0,0,-1.00009,97.116428,72.81738)" stroke-width=".79701" stroke-linecap="butt" stroke-miterlimit="10" stroke-linejoin="miter" fill="none" stroke="#000000" d="M1.4174 14.17339H-1.41719"/>
<path transform="matrix(1.00003,0,0,-1.00009,97.116428,72.81738)" d="M-10.7822 9.96689H-3.80826V18.379872H-10.7822Z" fill="#ffffff"/>
<use data-text="1" xlink:href="#font_3_1" transform="matrix(9.962899,0,0,-9.963496,87.33013,61.853395)"/>
<path transform="matrix(1.00003,0,0,-1.00009,97.116428,72.81738)" stroke-width=".79701" stroke-linecap="butt" stroke-miterlimit="10" stroke-linejoin="miter" fill="none" stroke="#000000" d="M1.4174 28.3468H-1.41719"/>
<path transform="matrix(1.00003,0,0,-1.00009,97.116428,72.81738)" d="M-10.7822 24.1403H-3.80826V32.55328H-10.7822Z" fill="#ffffff"/>
<use data-text="2" xlink:href="#font_3_2" transform="matrix(9.962899,0,0,-9.963496,87.33013,47.678125)"/>
<path transform="matrix(1.00003,0,0,-1.00009,97.116428,72.81738)" stroke-width=".79701" stroke-linecap="butt" stroke-miterlimit="10" stroke-linejoin="miter" fill="none" stroke="#000000" d="M1.4174 42.5202H-1.41719"/>
<path transform="matrix(1.00003,0,0,-1.00009,97.116428,72.81738)" d="M-10.7822 38.3137H-3.80826V46.72668H-10.7822Z" fill="#ffffff"/>
<use data-text="3" xlink:href="#font_3_3" transform="matrix(9.962899,0,0,-9.963496,87.33013,33.503847)"/>
<path transform="matrix(1.00003,0,0,-1.00009,97.116428,72.81738)" stroke-width=".79701" stroke-linecap="butt" stroke-miterlimit="10" stroke-linejoin="miter" fill="none" stroke="#000000" d="M-89.05394 2.83463V-2.83463"/>
<path transform="matrix(1.00003,0,0,-1.00009,97.116428,72.81738)" d="M-97.21797-13.63867H-80.88992V-5.22569H-97.21797Z" fill="#ffffff"/>
<use data-text="-" xlink:href="#font_4_64" transform="matrix(9.962899,0,0,-9.963496,.89152529,85.460529)"/>
<use data-text="2" xlink:href="#font_3_2" transform="matrix(9.962899,0,0,-9.963496,4.20961,85.460529)"/>
<use data-text="&#x03c0;" xlink:href="#font_1_1" transform="matrix(9.962899,0,0,-9.963496,9.190765,85.460529)"/>
<path transform="matrix(1.00003,0,0,-1.00009,97.116428,72.81738)" stroke-width=".79701" stroke-linecap="butt" stroke-miterlimit="10" stroke-linejoin="miter" fill="none" stroke="#000000" d="M-44.52696 2.83463V-2.83463"/>
<path transform="matrix(1.00003,0,0,-1.00009,97.116428,72.81738)" d="M-52.41591-13.86008H-36.63803V-5.2256996H-52.41591Z" fill="#ffffff"/>
<use data-text="&#x2212;" xlink:href="#font_2_1" transform="matrix(9.962899,0,0,-9.963496,45.694887,84.85246)"/>
<use data-text="&#x03c0;" xlink:href="#font_1_1" transform="matrix(9.962899,0,0,-9.963496,53.444108,84.85246)"/>
<path transform="matrix(1.00003,0,0,-1.00009,97.116428,72.81738)" stroke-width=".79701" stroke-linecap="butt" stroke-miterlimit="10" stroke-linejoin="miter" fill="none" stroke="#000000" d="M44.52696 2.83463V-2.83463"/>
<path transform="matrix(1.00003,0,0,-1.00009,97.116428,72.81738)" d="M40.51245-11.50775H48.541494V-5.2256896H40.51245Z" fill="#ffffff"/>
<use data-text="&#x03c0;" xlink:href="#font_1_1" transform="matrix(9.962899,0,0,-9.963496,138.62668,83.32933)"/>
<path transform="matrix(1.00003,0,0,-1.00009,97.116428,72.81738)" stroke-width=".79701" stroke-linecap="butt" stroke-miterlimit="10" stroke-linejoin="miter" fill="none" stroke="#000000" d="M89.05394 2.83463V-2.83463"/>
<path transform="matrix(1.00003,0,0,-1.00009,97.116428,72.81738)" d="M82.54872-13.63867H95.55914V-5.22569H82.54872Z" fill="#ffffff"/>
<use data-text="2" xlink:href="#font_3_2" transform="matrix(9.962899,0,0,-9.963496,180.66394,85.460529)"/>
<use data-text="&#x03c0;" xlink:href="#font_1_1" transform="matrix(9.962899,0,0,-9.963496,185.64606,85.460529)"/>
<path transform="matrix(1.00003,0,0,-1.00009,97.116428,72.81738)" stroke-width=".79701" stroke-linecap="butt" stroke-miterlimit="10" stroke-linejoin="miter" fill="none" stroke="#ff0000" d="M-85.58153 56.69533C-85.58153 56.69533-85.15727 50.2122-84.99434 48.12761-84.8314 46.04305-84.57011 43.2675-84.40718 41.67113-84.24425 40.07477-83.98294 37.88785-83.82 36.6221-83.65707 35.35635-83.39577 33.58067-83.23283 32.54846-83.0699 31.51627-82.80861 30.04337-82.64568 29.18266-82.48273 28.32199-82.22142 27.07567-82.05849 26.34521-81.89555 25.61476-81.63426 24.54793-81.47133 23.91805-81.3084 23.28813-81.04709 22.35643-80.88416 21.8053-80.72122 21.25417-80.45992 20.43341-80.29698 19.94583-80.13405 19.45825-79.87276 18.72707-79.70982 18.29115-79.54689 17.85526-79.28558 17.19727-79.12263 16.8041-78.9597 16.4109-78.69841 15.81496-78.53548 15.45738-78.37254 15.09978-78.11124 14.55478-77.9483 14.2268-77.78537 13.89883-77.52406 13.39621-77.36113 13.09357-77.1982 12.79091-76.9369 12.32672-76.77397 12.04552-76.61104 11.76433-76.34973 11.3297-76.18678 11.0669-76.02385 10.8041-75.76256 10.39824-75.59962 10.15143-75.43669 9.90463-75.17538 9.52127-75.01245 9.28809-74.84952 9.0549-74.58821 8.69226-74.42528 8.47081-74.26234 8.24936-74.00105 7.90327-73.83812 7.69203-73.67519 7.48077-73.41388 7.15051-73.25093 6.94827-73.088 6.74603-72.8267 6.42906-72.66377 6.23438-72.50084 6.03969-72.23953 5.73326-72.0766 5.54512-71.91367 5.357-71.65236 5.06071-71.48943 4.87837-71.32649 4.69601-71.0652 4.4084-70.90227 4.23085-70.73933 4.05331-70.47803 3.77223-70.3151 3.5987-70.15215 3.42517-69.89085 3.15039-69.72792 2.98018-69.56499 2.80994-69.30368 2.53943-69.14075 2.37181-68.97781 2.2042-68.71652 1.93767-68.55359 1.77208-68.39066 1.60652-68.12935 1.3426-67.96642 1.17844-67.80348 1.01427-67.54218 .75217-67.37924 .58888-67.2163 .42558-66.955 .16443-66.79207 .0015-66.62914-.1614-66.36783-.4222-66.2049-.58542-66.04196-.74866-65.78067-1.01083-65.61774-1.17497-65.4548-1.33911-65.1935-1.60284-65.03056-1.76842-64.86763-1.93399-64.60632-2.20076-64.44339-2.36833-64.28044-2.53592-64.01915-2.80608-63.85622-2.97629-63.69328-3.14647-63.43198-3.42145-63.26904-3.59502-63.10611-3.76862-62.84482-4.04979-62.68188-4.22739-62.51895-4.405-62.25764-4.69283-62.09471-4.87512-61.93178-5.0574-61.67047-5.35324-61.50754-5.54123-61.34459-5.72922-61.0833-6.03535-60.92036-6.23006-60.75743-6.42473-60.49612-6.74222-60.33319-6.94438-60.17026-7.14653-59.90897-7.47597-59.74603-7.68706-59.5831-7.89815-59.3218-8.24438-59.15886-8.46584-58.99593-8.68729-58.73462-9.05005-58.57169-9.28311-58.40875-9.51617-58.14745-9.89879-57.98451-10.1456-57.82158-10.3924-57.56027-10.7992-57.39734-11.06192-57.2344-11.32466-56.97311-11.75827-56.81018-12.03925-56.64725-12.32022-56.38594-12.78456-56.223-13.08707-56.06007-13.38956-55.79877-13.89175-55.63583-14.21945-55.4729-14.54716-55.21161-15.09145-55.04866-15.44894-54.88573-15.80644-54.62442-16.403-54.46149-16.79608-54.29855-17.18918-54.03726-17.84647-53.87433-18.28207-53.7114-18.71767-53.45009-19.44847-53.28716-19.93565-53.12422-20.42285-52.86292-21.24269-52.69998-21.79341-52.53705-22.34412-52.27576-23.27527-52.11281-23.90485-51.94987-24.53442-51.68857-25.60106-51.52563-26.33095-51.3627-27.06084-51.10141-28.3055-50.93848-29.16537-50.77554-30.02525-50.51424-31.49728-50.3513-32.52835-50.18837-33.55942-49.92706-35.33261-49.76413-36.5966-49.6012-37.86057-49.3399-40.04456-49.17696-41.63826-49.01402-43.23193-48.75272-46.00154-48.58978-48.08286-48.42685-50.16417-48.00262-56.63889-48.00262-56.63889"/>
<path transform="matrix(1.00003,0,0,-1.00009,97.116428,72.81738)" stroke-width=".79701" stroke-linecap="butt" stroke-miterlimit="10" stroke-linejoin="miter" fill="none" stroke="#ff0000" d="M-41.05455 56.69533C-41.05455 56.69533-40.63031 50.2122-40.46738 48.12761-40.30443 46.04305-40.04314 43.2675-39.8802 41.67113-39.71727 40.07477-39.45596 37.88785-39.29303 36.6221-39.1301 35.35635-38.86879 33.58067-38.70586 32.54846-38.54292 31.51627-38.28163 30.04337-38.1187 29.18266-37.95576 28.32199-37.69446 27.07567-37.53152 26.34521-37.36858 25.61476-37.10728 24.54793-36.94435 23.91805-36.78142 23.28813-36.52011 22.35643-36.35718 21.8053-36.19424 21.25417-35.93294 20.43341-35.77 19.94583-35.60707 19.45825-35.34578 18.72707-35.18285 18.29115-35.01991 17.85526-34.7586 17.19727-34.59567 16.8041-34.43274 16.4109-34.17145 15.81496-34.0085 15.45738-33.84557 15.09978-33.58426 14.55478-33.42133 14.2268-33.25839 13.89883-32.99709 13.39621-32.83415 13.09357-32.67122 12.79091-32.40993 12.32672-32.247 12.04552-32.08406 11.76433-31.82275 11.3297-31.65982 11.0669-31.49689 10.8041-31.2356 10.39824-31.07265 10.15143-30.90971 9.90463-30.6484 9.52127-30.48547 9.28809-30.32254 9.0549-30.06123 8.69226-29.8983 8.47081-29.73537 8.24936-29.47408 7.90327-29.31114 7.69203-29.14821 7.48077-28.8869 7.15051-28.72397 6.94827-28.56104 6.74603-28.29974 6.42906-28.1368 6.23438-27.97386 6.03969-27.71255 5.73326-27.54962 5.54512-27.38669 5.357-27.12538 5.06071-26.96245 4.87837-26.79951 4.69601-26.53822 4.4084-26.37529 4.23085-26.21236 4.05331-25.95105 3.77223-25.78812 3.5987-25.62518 3.42517-25.36389 3.15039-25.20094 2.98018-25.03801 2.80994-24.7767 2.53943-24.61377 2.37181-24.45084 2.2042-24.18953 1.93767-24.0266 1.77208-23.86366 1.60652-23.60237 1.3426-23.43944 1.17844-23.2765 1.01427-23.0152 .75217-22.85226 .58888-22.68933 .42558-22.42804 .16443-22.2651 .0015-22.10216-.1614-21.84085-.4222-21.67792-.58542-21.51498-.74866-21.2537-1.01083-21.09076-1.17497-20.92783-1.33911-20.66652-1.60284-20.50359-1.76842-20.34065-1.93399-20.07935-2.20076-19.91641-2.36833-19.75348-2.53592-19.49219-2.80608-19.32925-2.97629-19.1663-3.14647-18.905-3.42145-18.74207-3.59502-18.57913-3.76862-18.31784-4.04979-18.1549-4.22739-17.99197-4.405-17.73067-4.69283-17.56773-4.87512-17.4048-5.0574-17.1435-5.35324-16.98056-5.54123-16.81763-5.72922-16.55634-6.03535-16.3934-6.23006-16.23045-6.42473-15.96915-6.74222-15.80621-6.94438-15.64328-7.14653-15.38199-7.47597-15.21906-7.68706-15.05612-7.89815-14.79482-8.24438-14.63188-8.46584-14.46895-8.68729-14.20764-9.05005-14.04471-9.28311-13.88177-9.51617-13.62048-9.89879-13.45755-10.1456-13.2946-10.3924-13.0333-10.7992-12.87036-11.06192-12.70743-11.32466-12.44614-11.75827-12.2832-12.03925-12.12027-12.32022-11.85896-12.78456-11.69603-13.08707-11.5331-13.38956-11.27179-13.89175-11.10886-14.21945-10.94592-14.54716-10.68463-15.09145-10.5217-15.44894-10.35876-15.80644-10.09746-16.403-9.93451-16.79608-9.77158-17.18918-9.51028-17.84647-9.34735-18.28207-9.18442-18.71767-8.92311-19.44847-8.76018-19.93565-8.59724-20.42285-8.33594-21.24269-8.173-21.79341-8.01007-22.34412-7.74878-23.27527-7.58585-23.90485-7.42291-24.53442-7.1616-25.60106-6.99866-26.33095-6.83572-27.06084-6.57443-28.3055-6.4115-29.16537-6.24857-30.02525-5.98726-31.49728-5.82433-32.52835-5.66139-33.55942-5.40009-35.33261-5.23715-36.5966-5.07422-37.86057-4.81293-40.04456-4.65-41.63826-4.48706-43.23193-4.22575-46.00154-4.0628-48.08286-3.89987-50.16417-3.47565-56.63889-3.47565-56.63889"/>
<path transform="matrix(1.00003,0,0,-1.00009,97.116428,72.81738)" stroke-width=".79701" stroke-linecap="butt" stroke-miterlimit="10" stroke-linejoin="miter" fill="none" stroke="#ff0000" d="M3.47218 56.69533C3.47218 56.69533 3.89641 50.2122 4.05934 48.12761 4.22227 46.04305 4.48358 43.2675 4.64653 41.67113 4.80946 40.07477 5.07077 37.88785 5.2337 36.6221 5.39664 35.35635 5.65793 33.58067 5.82086 32.54846 5.9838 31.51627 6.2451 30.04337 6.40804 29.18266 6.57097 28.32199 6.83226 27.07567 6.9952 26.34521 7.15813 25.61476 7.41943 24.54793 7.58237 23.91805 7.74532 23.28813 8.00662 22.35643 8.16956 21.8053 8.33249 21.25417 8.59378 20.43341 8.75671 19.94583 8.91965 19.45825 9.18095 18.72707 9.34389 18.29115 9.50682 17.85526 9.76811 17.19727 9.93105 16.8041 10.09398 16.4109 10.35529 15.81496 10.51822 15.45738 10.68117 15.09978 10.94247 14.55478 11.10541 14.2268 11.26834 13.89883 11.52963 13.39621 11.69257 13.09357 11.8555 12.79091 12.1168 12.32672 12.27974 12.04552 12.44267 11.76433 12.70396 11.3297 12.8669 11.0669 13.02983 10.8041 13.29114 10.39824 13.45407 10.15143 13.61702 9.90463 13.87833 9.52127 14.04126 9.28809 14.2042 9.0549 14.46548 8.69226 14.62842 8.47081 14.79135 8.24936 15.05266 7.90327 15.21559 7.69203 15.37852 7.48077 15.63982 7.15051 15.80275 6.94827 15.96568 6.74603 16.22699 6.42906 16.38992 6.23438 16.55287 6.03969 16.81418 5.73326 16.97711 5.54512 17.14005 5.357 17.40134 5.06071 17.56427 4.87837 17.7272 4.69601 17.98851 4.4084 18.15144 4.23085 18.31438 4.05331 18.57567 3.77223 18.7386 3.5987 18.90154 3.42517 19.16284 3.15039 19.32578 2.98018 19.48871 2.80994 19.75002 2.53943 19.91296 2.37181 20.0759 2.2042 20.33719 1.93767 20.50012 1.77208 20.66306 1.60652 20.92436 1.3426 21.0873 1.17844 21.25023 1.01427 21.51152 .75217 21.67445 .58888 21.83739 .42558 22.0987 .16443 22.26163 .0015 22.42456-.1614 22.68587-.4222 22.84882-.58542 23.01175-.74866 23.27304-1.01083 23.43597-1.17497 23.5989-1.33911 23.86021-1.60284 24.02315-1.76842 24.18608-1.93399 24.44737-2.20076 24.6103-2.36833 24.77324-2.53592 25.03455-2.80608 25.19748-2.97629 25.36041-3.14647 25.62172-3.42145 25.78467-3.59502 25.9476-3.76862 26.2089-4.04979 26.37183-4.22739 26.53476-4.405 26.79607-4.69283 26.959-4.87512 27.12193-5.0574 27.38322-5.35324 27.54616-5.54123 27.70909-5.72922 27.9704-6.03535 28.13333-6.23006 28.29626-6.42473 28.55757-6.74222 28.72052-6.94438 28.88345-7.14653 29.14474-7.47597 29.30768-7.68706 29.47061-7.89815 29.73192-8.24438 29.89485-8.46584 30.05779-8.68729 30.31908-9.05005 30.48201-9.28311 30.64494-9.51617 30.90625-9.89879 31.06918-10.1456 31.23212-10.3924 31.49342-10.7992 31.65636-11.06192 31.8193-11.32466 32.0806-11.75827 32.24353-12.03925 32.40646-12.32022 32.66777-12.78456 32.8307-13.08707 32.99364-13.38956 33.25493-13.89175 33.41786-14.21945 33.5808-14.54716 33.8421-15.09145 34.00504-15.44894 34.16797-15.80644 34.42928-16.403 34.59221-16.79608 34.75516-17.18918 35.01645-17.84647 35.17938-18.28207 35.34232-18.71767 35.60362-19.44847 35.76656-19.93565 35.92949-20.42285 36.19078-21.24269 36.35371-21.79341 36.51665-22.34412 36.77795-23.27527 36.94089-23.90485 37.10382-24.53442 37.36513-25.60106 37.52806-26.33095 37.69101-27.06084 37.9523-28.3055 38.11523-29.16537 38.27817-30.02525 38.53947-31.49728 38.70241-32.52835 38.86534-33.55942 39.12663-35.33261 39.28957-36.5966 39.4525-37.86057 39.7138-40.04456 39.87674-41.63826 40.03967-43.23193 40.30098-46.00154 40.46391-48.08286 40.62686-50.16417 41.05109-56.63889 41.05109-56.63889"/>
<path transform="matrix(1.00003,0,0,-1.00009,97.116428,72.81738)" stroke-width=".79701" stroke-linecap="butt" stroke-miterlimit="10" stroke-linejoin="miter" fill="none" stroke="#ff0000" d="M47.99916 56.69533C47.99916 56.69533 48.4234 50.2122 48.58633 48.12761 48.74927 46.04305 49.01056 43.2675 49.1735 41.67113 49.33643 40.07477 49.59773 37.88785 49.76068 36.6221 49.92361 35.35635 50.1849 33.58067 50.34784 32.54846 50.51077 31.51627 50.77208 30.04337 50.93501 29.18266 51.09795 28.32199 51.35924 27.07567 51.52217 26.34521 51.6851 25.61476 51.94641 24.54793 52.10934 23.91805 52.27228 23.28813 52.53358 22.35643 52.69652 21.8053 52.85947 21.25417 53.12076 20.43341 53.28369 19.94583 53.44662 19.45825 53.70793 18.72707 53.87086 18.29115 54.0338 17.85526 54.29509 17.19727 54.45802 16.8041 54.62096 16.4109 54.88226 15.81496 55.0452 15.45738 55.20813 15.09978 55.46944 14.55478 55.63237 14.2268 55.79532 13.89883 56.05661 13.39621 56.21954 13.09357 56.38248 12.79091 56.64378 12.32672 56.80672 12.04552 56.96965 11.76433 57.23094 11.3297 57.39388 11.0669 57.55681 10.8041 57.81812 10.39824 57.98105 10.15143 58.14398 9.90463 58.40529 9.52127 58.56822 9.28809 58.73117 9.0549 58.99246 8.69226 59.1554 8.47081 59.31833 8.24936 59.57964 7.90327 59.74257 7.69203 59.9055 7.48077 60.1668 7.15051 60.32973 6.94827 60.49266 6.74603 60.75397 6.42906 60.9169 6.23438 61.07983 6.03969 61.34114 5.73326 61.50407 5.54512 61.66702 5.357 61.92831 5.06071 62.09125 4.87837 62.25418 4.69601 62.51549 4.4084 62.67842 4.23085 62.84135 4.05331 63.10265 3.77223 63.26558 3.5987 63.42851 3.42517 63.68982 3.15039 63.85275 2.98018 64.01569 2.80994 64.277 2.53943 64.43993 2.37181 64.60286 2.2042 64.86415 1.93767 65.0271 1.77208 65.19003 1.60652 65.45134 1.3426 65.61427 1.17844 65.7772 1.01427 66.0385 .75217 66.20143 .58888 66.36436 .42558 66.62567 .16443 66.7886 .0015 66.95154-.1614 67.21284-.4222 67.37578-.58542 67.53871-.74866 67.8-1.01083 67.96295-1.17497 68.12589-1.33911 68.38719-1.60284 68.55013-1.76842 68.71306-1.93399 68.97435-2.20076 69.13728-2.36833 69.30022-2.53592 69.56152-2.80608 69.72446-2.97629 69.88739-3.14647 70.1487-3.42145 70.31163-3.59502 70.47456-3.76862 70.73586-4.04979 70.8988-4.22739 71.06174-4.405 71.32304-4.69283 71.48598-4.87512 71.64891-5.0574 71.9102-5.35324 72.07314-5.54123 72.23607-5.72922 72.49738-6.03535 72.66031-6.23006 72.82324-6.42473 73.08455-6.74222 73.24748-6.94438 73.41042-7.14653 73.6717-7.47597 73.83466-7.68706 73.99759-7.89815 74.2589-8.24438 74.42183-8.46584 74.58476-8.68729 74.84605-9.05005 75.00899-9.28311 75.17192-9.51617 75.43323-9.89879 75.59616-10.1456 75.7591-10.3924 76.0204-10.7992 76.18333-11.06192 76.34627-11.32466 76.60756-11.75827 76.7705-12.03925 76.93344-12.32022 77.19475-12.78456 77.35768-13.08707 77.52061-13.38956 77.7819-13.89175 77.94484-14.21945 78.10777-14.54716 78.36908-15.09145 78.53201-15.44894 78.69495-15.80644 78.95625-16.403 79.11919-16.79608 79.28212-17.18918 79.54341-17.84647 79.70634-18.28207 79.8693-18.71767 80.1306-19.44847 80.29353-19.93565 80.45647-20.42285 80.71776-21.24269 80.88069-21.79341 81.04362-22.34412 81.30493-23.27527 81.46786-23.90485 81.6308-24.53442 81.8921-25.60106 82.05504-26.33095 82.21797-27.06084 82.47926-28.3055 82.6422-29.16537 82.80515-30.02525 83.06645-31.49728 83.22939-32.52835 83.39232-33.55942 83.65361-35.33261 83.81654-36.5966 83.97948-37.86057 84.24078-40.04456 84.40372-41.63826 84.56665-43.23193 84.82796-46.00154 84.99089-48.08286 85.15382-50.16417 85.57805-56.63889 85.57805-56.63889"/>
</svg>
