<svg xmlns="http://www.w3.org/2000/svg" xmlns:xlink="http://www.w3.org/1999/xlink" version="1.1" width="81" height="84" viewBox="0 0 81 84">
<defs>
<path id="font_1_57" d="M.47099305 .16503906V.19602967H.37098695V.6507721C.37098695 .6707611 .37098695 .6767578 .35499574 .6767578 .34599305 .6767578 .34298707 .6767578 .33499146 .6647644L.027999878 .19602967V.16503906H.2939911V.07800293C.2939911 .041992189 .2919922 .0309906 .21798706 .0309906H.19699097V0C.23799134 .0029907227 .2899933 .0029907227 .33198548 .0029907227 .37399293 .0029907227 .4269867 .0029907227 .46798707 0V.0309906H.44699098C.37298585 .0309906 .37098695 .041992189 .37098695 .07800293V.16503906H.47099305M.2999878 .19602967H.055999757L.2999878 .56881716V.19602967Z"/>
<path id="font_1_56" d="M.44898988 .20091248C.44898988 .31991578 .36698915 .41992188 .25898744 .41992188 .21099854 .41992188 .16799927 .4039154 .13198853 .36891175V.5641022C.1519928 .55778506 .18499756 .55078127 .21699524 .55078127 .33999635 .55078127 .4099884 .6418457 .4099884 .65493777 .4099884 .6609802 .40699769 .6660156 .3999939 .6660156 .3999939 .66607668 .39698792 .66607668 .3919983 .66308596 .37199403 .65408328 .32299806 .63378909 .2559967 .63378909 .21598816 .63409426 .16999817 .641098 .12298584 .6621094 .114990238 .6651001 .11099243 .6651001 .11099243 .6651001 .100997928 .66508486 .100997928 .657074 .100997928 .64108279V.3447113C.100997928 .3266449 .100997928 .31861878 .114990238 .31861878 .12199402 .31861878 .12399292 .32164 .12799073 .32765199 .13899231 .34371949 .17599488 .3979187 .25698854 .3979187 .30899049 .3979187 .33399964 .3517456 .34199525 .3336792 .35798646 .2965393 .3600006 .2574005 .3600006 .20721436 .3600006 .17218018 .3600006 .112197879 .33599855 .07032776 .31199647 .031448366 .2749939 .0055389406 .22898865 .0055389406 .1559906 .0055389406 .09899902 .05836487 .08198547 .1171875 .084991458 .11685181 .08799744 .115859989 .09899902 .115859989 .13198853 .115859989 .14898682 .14085388 .14898682 .16485596 .14898682 .18885803 .13198853 .21386719 .09899902 .21386719 .084991458 .21386719 .049987794 .2068634 .049987794 .16085816 .049987794 .07432556 .11898804-.022460938 .23098755-.022460938 .34700013-.022460938 .44898988 .07331848 .44898988 .20019531V.20091248Z"/>
<path id="font_1_106" d="M.45700074 .17037964C.45700074 .252594 .3939972 .33088685 .2899933 .35191346 .37199403 .37893678 .42999269 .4490509 .42999269 .52809146 .42999269 .6100464 .34199525 .6660156 .24598694 .6660156 .14498902 .6660156 .068984989 .60606387 .068984989 .53009036 .068984989 .49710084 .09098816 .47808839 .11999512 .47808839 .15098572 .47808839 .17098999 .50009158 .17098999 .5290985 .17098999 .57910159 .12399292 .57910159 .10899353 .57910159 .13999939 .62802127 .20599365 .64100649 .24198914 .64100649 .2829895 .64100649 .33799745 .6190338 .33799745 .5290985 .33799745 .51708987 .33599855 .45906068 .30999757 .4149933 .27999879 .36691285 .24598694 .36390687 .22099304 .36291505 .21299744 .36190797 .18899536 .35990907 .18199158 .35990907 .17399597 .35890199 .16699219 .35791017 .16699219 .3479004 .16699219 .33691407 .17399597 .33691407 .19099427 .33691407H.23498535C.31698609 .33691407 .35398866 .2686615 .35398866 .17037964 .35398866 .034469606 .2849884 .0055389406 .24099732 .0055389406 .19799805 .0055389406 .12298584 .022491456 .08799744 .08137512 .12298584 .07637024 .1539917 .09837341 .1539917 .1363678 .1539917 .17237854 .1269989 .19238281 .09799194 .19238281 .07398987 .19238281 .041992189 .17837525 .041992189 .1343689 .041992189 .043441774 .1349945-.022460938 .24398804-.022460938 .3659973-.022460938 .45700074 .06838989 .45700074 .17037964Z"/>
<path id="font_1_107" d="M.44898988 .17396546H.42399598C.4189911 .14398194 .4119873 .099990848 .4019928 .084991458 .394989 .07699585 .32899476 .07699585 .30699159 .07699585H.1269989L.23298645 .17996216C.3889923 .31803895 .44898988 .37210084 .44898988 .47216798 .44898988 .5860901 .35899354 .6660156 .23699951 .6660156 .12399292 .6660156 .049987794 .57411196 .049987794 .48516847 .049987794 .4291687 .099990848 .4291687 .102996829 .4291687 .11999512 .4291687 .15499878 .44117738 .15499878 .48217774 .15499878 .5081787 .13699341 .5341797 .101989749 .5341797 .09399414 .5341797 .09199524 .5341797 .08898926 .5331726 .11199951 .59806826 .1659851 .63500979 .22399903 .63500979 .31498719 .63500979 .35798646 .5541382 .35798646 .47216798 .35798646 .39196778 .30799867 .31297303 .25299073 .25097657L.06098938 .036987306C.049987794 .025985718 .049987794 .023986817 .049987794 0H.42099L.44898988 .17396546Z"/>
<path id="font_2_112" d="M.5799866 .3973236V.44433595C.5549927 .44232179 .526001 .44132997 .5009918 .44132997L.4099884 .44433595V.3973236C.42900086 .3973236 .45799256 .39431764 .45799256 .38632203 .45799256 .38632203 .45799256 .38432313 .45298768 .37431336L.33699037 .12416077 .20999146 .3973236H.2639923V.44433595L.13999939 .44132997 .025985718 .44433595V.3973236H.08999634L.2649994 .021102906C.2769928-.00390625 .2899933-.00390625 .30299378-.00390625 .31999208-.00390625 .32998658-.00091552737 .33999635 .020095826L.5059967 .37631227C.5119934 .39031983 .5159912 .3973236 .5799866 .3973236Z"/>
<path id="font_2_89" d="M.82899478 .25024415C.82899478 .28125 .7999878 .28125 .7859955 .28125H.47698976V.59085085C.47698976 .60284426 .47698976 .6328125 .44699098 .6328125 .41600038 .6328125 .41600038 .60383608 .41600038 .59085085V.28125H.10699463C.09298706 .28125 .06399536 .28125 .06399536 .25024415 .06399536 .22024536 .09399414 .22024536 .10699463 .22024536H.41600038V-.08982849C.41600038-.10183716 .41600038-.13183594 .44599916-.13183594 .47698976-.13183594 .47698976-.10282898 .47698976-.08982849V.22024536H.7859955C.798996 .22024536 .82899478 .22024536 .82899478 .25024415Z"/>
<path id="font_2_114" d="M.8049927 .3973236V.44433595C.7819977 .44232179 .7519989 .44132997 .7279968 .44132997L.6319885 .44433595V.3973236C.6409912 .3973236 .6899872 .3963318 .6899872 .3853302 .6899872 .38232423 .68699648 .3763275 .6859894 .37332154L.58099368 .11732483 .46699525 .3973236H.522995V.44433595L.40899659 .44132997C.36698915 .44132997 .32499696 .44332887 .30899049 .44433595V.3973236H.36799623C.3889923 .34732057 .3889923 .34432984 .3889923 .34432984 .3889923 .34033204 .38598634 .33433534 .3849945 .33132936L.30599977 .139328 .20098877 .3973236H.25698854V.44433595L.13398743 .44132997 .024993897 .44433595V.3973236H.083999637L.23699951 .023101807C.24398804 .006088257 .24798584-.00390625 .272995-.00390625 .2979889-.00390625 .3019867 .006088257 .30899049 .023101807L.4149933 .28208924 .5209961 .023086548C.5279999 .006088257 .5319977-.00390625 .5569916-.00390625 .58200076-.00390625 .58599856 .006088257 .59298709 .023086548L.7369995 .37608338C.74198916 .389328 .74598696 .3973236 .8049927 .3973236Z"/>
</defs>
<path transform="matrix(1.00005,0,0,-1.00008,40.50212,82.47532)" stroke-width="1.19553" stroke-linecap="butt" stroke-miterlimit="10" stroke-linejoin="miter" fill="none" stroke="#cbcbcb" d="M0 0 38.33038 78.58868"/>
<path transform="matrix(.4383719,-.89884188,-.89881488,-.43838508,78.83441,3.8803559)" d="M1.27522 0C-.31879 .31879-1.91284 .9564-3.8257 2.07224-1.91284 .6376-1.91284-.6376-3.8257-2.07224-1.91284-.9564-.31879-.31879 1.27522 0Z" fill="#cbcbcb"/>
<path transform="matrix(.4383719,-.89884188,-.89881488,-.43838508,78.83441,3.8803559)" stroke-width="1.19553" stroke-linecap="butt" stroke-linejoin="round" fill="none" stroke="#cbcbcb" d="M1.27522 0C-.31879 .31879-1.91284 .9564-3.8257 2.07224-1.91284 .6376-1.91284-.6376-3.8257-2.07224-1.91284-.9564-.31879-.31879 1.27522 0Z"/>
<path transform="matrix(1.00005,0,0,-1.00008,40.50212,82.47532)" d="M25.15485 36.65404H35.117624V43.618H25.15485Z" fill="#ffffff"/>
<use data-text="4" xlink:href="#font_1_57" transform="matrix(9.963098,0,0,-9.963397,65.65838,45.59937)"/>
<use data-text="5" xlink:href="#font_1_56" transform="matrix(9.963098,0,0,-9.963397,70.63993,45.59937)"/>
<path transform="matrix(1.00005,0,0,-1.00008,40.50212,82.47532)" stroke-width="1.19553" stroke-linecap="butt" stroke-miterlimit="10" stroke-linejoin="miter" fill="none" stroke="#cbcbcb" d="M39.15141 80.27208-19.79234 62.25092"/>
<path transform="matrix(-.95632776,.2923834,.2923746,.95635649,20.708804,20.219422)" d="M1.27522 0C-.31879 .31879-1.91284 .9564-3.8257 2.07224-1.91284 .6376-1.91284-.6376-3.8257-2.07224-1.91284-.9564-.31879-.31879 1.27522 0Z" fill="#cbcbcb"/>
<path transform="matrix(-.95632776,.2923834,.2923746,.95635649,20.708804,20.219422)" stroke-width="1.19553" stroke-linecap="butt" stroke-linejoin="round" fill="none" stroke="#cbcbcb" d="M1.27522 0C-.31879 .31879-1.91284 .9564-3.8257 2.07224-1.91284 .6376-1.91284-.6376-3.8257-2.07224-1.91284-.9564-.31879-.31879 1.27522 0Z"/>
<path transform="matrix(1.00005,0,0,-1.00008,40.50212,82.47532)" d="M-4.16762 71.58546H5.7951505V78.439807H-4.16762Z" fill="#ffffff"/>
<use data-text="3" xlink:href="#font_1_106" transform="matrix(9.963098,0,0,-9.963397,36.333917,10.664574)"/>
<use data-text="2" xlink:href="#font_1_107" transform="matrix(9.963098,0,0,-9.963397,41.315469,10.664574)"/>
<path transform="matrix(1.00005,0,0,-1.00008,40.50212,82.47532)" stroke-width="1.19553" stroke-linecap="butt" stroke-miterlimit="10" stroke-linejoin="miter" fill="none" stroke="#ff0000" d="M0 0-20.96504 59.93547"/>
<path transform="matrix(-.3301865,-.94395557,-.94392719,.3301964,19.536034,22.535065)" d="M1.27522 0C-.31879 .31879-1.91284 .9564-3.8257 2.07224-1.91284 .6376-1.91284-.6376-3.8257-2.07224-1.91284-.9564-.31879-.31879 1.27522 0Z" fill="#ff0000"/>
<path transform="matrix(-.3301865,-.94395557,-.94392719,.3301964,19.536034,22.535065)" stroke-width="1.19553" stroke-linecap="butt" stroke-linejoin="round" fill="none" stroke="#ff0000" d="M1.27522 0C-.31879 .31879-1.91284 .9564-3.8257 2.07224-1.91284 .6376-1.91284-.6376-3.8257-2.07224-1.91284-.9564-.31879-.31879 1.27522 0Z"/>
<path transform="matrix(1.00005,0,0,-1.00008,40.50212,82.47532)" d="M-39.60403 27.04091H-16.370862V34.66241H-39.60403Z" fill="#ffffff"/>
<use data-text="v" xlink:href="#font_2_112" transform="matrix(9.963098,0,0,-9.963397,.89614108,54.11705)" fill="#ff0000"/>
<use data-text="+" xlink:href="#font_2_89" transform="matrix(9.963098,0,0,-9.963397,6.9437487,54.11705)" fill="#ff0000"/>
<use data-text="w" xlink:href="#font_2_114" transform="matrix(9.963098,0,0,-9.963397,15.850761,54.11705)" fill="#ff0000"/>
</svg>
