<svg xmlns="http://www.w3.org/2000/svg" xmlns:xlink="http://www.w3.org/1999/xlink" version="1.1" width="76" height="82" viewBox="0 0 76 82">
<defs>
<path id="font_1_1" d="M.33399964 .30233766C.33999635 .32835389 .36299134 .42037965 .43299867 .42037965 .43798829 .42037965 .46199037 .42037965 .48298646 .40734864 .45498658 .402359 .43499757 .37734986 .43499757 .35334779 .43499757 .33735658 .44599916 .31835938 .47299195 .31835938 .49499513 .31835938 .5269928 .3363495 .5269928 .37635804 .5269928 .42837525 .46798707 .4423828 .43399049 .4423828 .37599183 .4423828 .34098817 .38935853 .32899476 .36634828 .3039856 .43237306 .25 .4423828 .22099304 .4423828 .116989139 .4423828 .05999756 .3133545 .05999756 .28834535 .05999756 .27833558 .069992069 .27833558 .07199097 .27833558 .07998657 .27833558 .08299255 .28033448 .084991458 .28933717 .11898804 .39535523 .18499756 .42037965 .21899414 .42037965 .23799134 .42037965 .272995 .4113617 .272995 .35334779 .272995 .32235719 .2559967 .25532533 .21899414 .11528015 .20298767 .053268434 .16799927 .011245728 .12399292 .011245728 .117996219 .011245728 .09498596 .011245728 .07398987 .024276734 .09899902 .029266358 .12098694 .05027771 .12098694 .07827759 .12098694 .105270389 .09899902 .11328125 .083999637 .11328125 .053985597 .11328125 .0289917 .08728027 .0289917 .055267335 .0289917 .009246826 .07899475-.0107421879 .12298584-.0107421879 .18899536-.0107421879 .22499085 .059280397 .22799683 .0652771 .23999024 .028274537 .27598573-.0107421879 .33599855-.0107421879 .43899537-.0107421879 .49598695 .118270877 .49598695 .14328003 .49598695 .1532898 .4869995 .1532898 .48399354 .1532898 .47499085 .1532898 .47299195 .14929199 .47099305 .14228821 .43798829 .03527832 .36999513 .011245728 .33799745 .011245728 .29899598 .011245728 .2829895 .043273927 .2829895 .07727051 .2829895 .09927368 .2889862 .121276859 .2999878 .16529846L.33399964 .30233766Z"/>
<path id="font_1_2" d="M.48599244 .38136292C.48999024 .39537049 .48999024 .39736939 .48999024 .40437318 .48999024 .42237855 .47599793 .43138124 .46099855 .43138124 .45098878 .43138124 .43499757 .42536927 .42599488 .41036988 .42399598 .405365 .41600038 .37435914 .4119873 .35635377 .40499879 .33035279 .397995 .30334474 .3919983 .27633668L.34700013 .09628296C.34298707 .08126831 .2999878 .011245728 .23399353 .011245728 .18299866 .011245728 .17199707 .055267335 .17199707 .0922699 .17199707 .1382904 .18899536 .20030213 .22299195 .28833009 .23899842 .3293457 .24299622 .3403473 .24299622 .36035157 .24299622 .405365 .21099854 .4423828 .16099549 .4423828 .06599426 .4423828 .0289917 .29733277 .0289917 .28833009 .0289917 .27833558 .038986207 .27833558 .040985109 .27833558 .050994874 .27833558 .051986696 .28033448 .056991579 .29634095 .083999637 .3903656 .12399292 .42037965 .1579895 .42037965 .1659851 .42037965 .18299866 .42037965 .18299866 .3883667 .18299866 .36335755 .17298889 .3373413 .1659851 .31834413 .12599182 .21231079 .10798645 .1552887 .10798645 .10827637 .10798645 .019256592 .17098999-.0107421879 .22999573-.0107421879 .2689972-.0107421879 .30299378 .0062561037 .33099366 .03425598 .31799317-.017745972 .30599977-.06674194 .2659912-.11973572 .23999024-.15385437 .20199585-.18309021 .1559906-.18309021 .14199829-.18309021 .09700012-.18005371 .07998657-.14074707 .09599304-.14074707 .10899353-.14074707 .12298584-.1287384 .1329956-.11973572 .14299011-.10673523 .14299011-.08773804 .14299011-.056747438 .115997318-.052734376 .10598755-.052734376 .08299255-.052734376 .049987794-.068740848 .049987794-.11773682 .049987794-.16796875 .09399414-.20507813 .1559906-.20507813 .25898744-.20507813 .3619995-.11373901 .3899994-.00074768069L.48599244 .38136292Z"/>
<path id="font_2_3" d="M.2939911 .16503906V.07800293C.2939911 .041992189 .2919922 .0309906 .21798706 .0309906H.19699097V0C.23799134 .0029907227 .2899933 .0029907227 .33198548 .0029907227 .37399293 .0029907227 .4269867 .0029907227 .46798707 0V.0309906H.44699098C.37298585 .0309906 .37098695 .041992189 .37098695 .07800293V.16503906H.47099305V.19602967H.37098695V.65075686C.37098695 .67074587 .37098695 .6767578 .35499574 .6767578 .34599305 .6767578 .34298707 .6767578 .33499146 .66474917L.027999878 .19602967V.16503906H.2939911M.2999878 .19602967H.055999757L.2999878 .5688019V.19602967Z"/>
<path id="font_2_1" d="M.45999146 .31976319C.45999146 .39982606 .45498658 .47988893 .41999818 .5539398 .37399293 .65000918 .2919922 .6660156 .25 .6660156 .18998719 .6660156 .116989139 .64001467 .07598877 .54693606 .04399109 .47789 .038986207 .39982606 .038986207 .31976319 .038986207 .24472046 .042999269 .15464783 .083999637 .07859802 .1269989-.0024719239 .19999695-.022460938 .24899292-.022460938 .30299378-.022460938 .3789978-.0014648438 .4229889 .09359741 .45498658 .16265869 .45999146 .2407074 .45999146 .31976319M.24899292-.00047302247C.20999146-.00047302247 .15098572 .024551392 .1329956 .12062073 .12199402 .18066406 .12199402 .2727356 .12199402 .3317871 .12199402 .39582826 .12199402 .46188355 .12998963 .5159149 .14898682 .63500979 .22399903 .64401248 .24899292 .64401248 .28199769 .64401248 .34799195 .6259918 .36698915 .52693179 .3769989 .47088624 .3769989 .39482118 .3769989 .3317871 .3769989 .25672914 .3769989 .18867493 .3659973 .12461853 .35099793 .029556275 .2939911-.00047302247 .24899292-.00047302247Z"/>
<path id="font_2_2" d="M.1269989 .07699585 .23298645 .18003845C.3889923 .31811524 .44898988 .3721466 .44898988 .47216798 .44898988 .5860901 .35899354 .6660156 .23699951 .6660156 .12399292 .6660156 .049987794 .57411196 .049987794 .48516847 .049987794 .4291687 .099990848 .4291687 .102996829 .4291687 .11999512 .4291687 .15499878 .44117738 .15499878 .48217774 .15499878 .5081787 .13699341 .5341797 .101989749 .5341797 .09399414 .5341797 .09199524 .5341797 .08898926 .5331726 .11199951 .59806826 .1659851 .63500979 .22399903 .63500979 .31498719 .63500979 .35798646 .5541382 .35798646 .47216798 .35798646 .39215089 .30799867 .31311036 .25299073 .25108338L.06098938 .036987306C.049987794 .025985718 .049987794 .023986817 .049987794 0H.42099L.44898988 .17404175H.42399598C.4189911 .14402771 .4119873 .1000061 .4019928 .084991458 .394989 .07699585 .32899476 .07699585 .30699159 .07699585H.1269989Z"/>
<path id="font_3_1" d="M.6589966 .23046875C.6759949 .23046875 .69400027 .23046875 .69400027 .25045777 .69400027 .27046205 .6759949 .27046205 .6589966 .27046205H.117996219C.100997928 .27046205 .08299255 .27046205 .08299255 .25045777 .08299255 .23046875 .100997928 .23046875 .117996219 .23046875H.6589966Z"/>
<path id="font_4_109" d="M.61499026 .0001373291V.0471344C.5529938 .0471344 .54599 .0471344 .54599 .086135867V.4501953L.36299134 .44218446V.39518739C.4249878 .39518739 .43199159 .39518739 .43199159 .3561859V.16514588C.43199159 .08314514 .3809967 .030136109 .30799867 .030136109 .23098755 .030136109 .22799683 .055130006 .22799683 .10914612V.4501953L.04499817 .44218446V.39518739C.10699463 .39518739 .11399841 .39518739 .11399841 .3561859V.12313843C.11399841 .01612854 .19499207-.005859375 .2939911-.005859375 .31999208-.005859375 .3919983-.005859375 .43798829 .072143558V-.005859375L.61499026 .0001373291Z"/>
<path id="font_4_112" d="M.5799866 .3973236V.44433595C.5549927 .44232179 .526001 .44132997 .5009918 .44132997L.4099884 .44433595V.3973236C.42900086 .3973236 .45799256 .39431764 .45799256 .38632203 .45799256 .38632203 .45799256 .38432313 .45298768 .37431336L.33699037 .12416077 .20999146 .3973236H.2639923V.44433595L.13999939 .44132997 .025985718 .44433595V.3973236H.08999634L.2649994 .021102906C.2769928-.00390625 .2899933-.00390625 .30299378-.00390625 .31999208-.00390625 .32998658-.00091552737 .33999635 .020095826L.5059967 .37631227C.5119934 .39031983 .5159912 .3973236 .5799866 .3973236Z"/>
</defs>
<path transform="matrix(1.00003,0,0,-1.00005,23.92318,60.755388)" stroke-width=".3985" stroke-linecap="butt" stroke-miterlimit="10" stroke-linejoin="miter" fill="none" stroke="#00aeef" d="M-21.2549-14.16992H35.42485M-21.2549-7.08495H35.42485M-21.2549 0H35.42485M-21.2549 7.08495H35.42485M-21.2549 14.16992H35.42485M-21.2549 21.2549H35.42485M-21.2549 28.33987H35.42485M-21.2549 35.42485H35.42485M-21.2549 42.50957H35.42485M-21.2549-14.16992V42.50981M-14.16992-14.16992V42.50981M-7.08495-14.16992V42.50981M0-14.16992V42.50981M7.08495-14.16992V42.50981M14.16992-14.16992V42.50981M21.2549-14.16992V42.50981M28.33987-14.16992V42.50981M35.4246-14.16992V42.50981M35.42485 42.50981"/>
<path transform="matrix(1.00003,0,0,-1.00005,23.92318,60.755388)" stroke-width=".79701" stroke-linecap="butt" stroke-miterlimit="10" stroke-linejoin="miter" fill="none" stroke="#000000" d="M-21.2549 0H40.36671"/>
<path transform="matrix(1.00003,0,0,-1.00005,64.29111,60.755388)" d="M1.0361 0C-.25902 .25902-1.55415 .77707-3.1083 1.68365-1.55415 .51805-1.55415-.51805-3.1083-1.68365-1.55415-.77707-.25902-.25902 1.0361 0Z"/>
<path transform="matrix(1.00003,0,0,-1.00005,64.29111,60.755388)" stroke-width=".79701" stroke-linecap="butt" stroke-linejoin="round" fill="none" stroke="#000000" d="M1.0361 0C-.25902 .25902-1.55415 .77707-3.1083 1.68365-1.55415 .51805-1.55415-.51805-3.1083-1.68365-1.55415-.77707-.25902-.25902 1.0361 0Z"/>
<use data-text="x" xlink:href="#font_1_1" transform="matrix(9.962899,0,0,-9.963098,69.44455,62.900495)"/>
<path transform="matrix(1.00003,0,0,-1.00005,23.92318,60.755388)" stroke-width=".79701" stroke-linecap="butt" stroke-miterlimit="10" stroke-linejoin="miter" fill="none" stroke="#000000" d="M0-14.16992V47.45168"/>
<path transform="matrix(0,-1.00005,-1.00003,-0,23.92318,13.301338)" d="M1.0361 0C-.25902 .25902-1.55415 .77707-3.1083 1.68365-1.55415 .51805-1.55415-.51805-3.1083-1.68365-1.55415-.77707-.25902-.25902 1.0361 0Z"/>
<path transform="matrix(0,-1.00005,-1.00003,-0,23.92318,13.301338)" stroke-width=".79701" stroke-linecap="butt" stroke-linejoin="round" fill="none" stroke="#000000" d="M1.0361 0C-.25902 .25902-1.55415 .77707-3.1083 1.68365-1.55415 .51805-1.55415-.51805-3.1083-1.68365-1.55415-.77707-.25902-.25902 1.0361 0Z"/>
<use data-text="y" xlink:href="#font_1_2" transform="matrix(9.962899,0,0,-9.963098,21.302102,6.2096636)"/>
<path transform="matrix(1.00003,0,0,-1.00005,23.92318,60.755388)" stroke-width=".79701" stroke-linecap="butt" stroke-miterlimit="10" stroke-linejoin="miter" fill="none" stroke="#000000" d="M28.33987 1.41698V-1.41698"/>
<path transform="matrix(1.00003,0,0,-1.00005,23.92318,60.755388)" d="M23.35847-10.22847H33.32125V-3.8080397H23.35847Z" fill="#ffffff"/>
<use data-text="4" xlink:href="#font_2_3" transform="matrix(9.962899,0,0,-9.963098,47.281885,70.9839)"/>
<use data-text="0" xlink:href="#font_2_1" transform="matrix(9.962899,0,0,-9.963098,52.263338,70.9839)"/>
<path transform="matrix(1.00003,0,0,-1.00005,23.92318,60.755388)" stroke-width=".79701" stroke-linecap="butt" stroke-miterlimit="10" stroke-linejoin="miter" fill="none" stroke="#000000" d="M14.16992 1.41698V-1.41698"/>
<path transform="matrix(1.00003,0,0,-1.00005,23.92318,60.755388)" d="M9.18852-10.22847H19.1513V-3.8080397H9.18852Z" fill="#ffffff"/>
<use data-text="2" xlink:href="#font_2_2" transform="matrix(9.962899,0,0,-9.963098,33.112459,70.9839)"/>
<use data-text="0" xlink:href="#font_2_1" transform="matrix(9.962899,0,0,-9.963098,38.09391,70.9839)"/>
<path transform="matrix(1.00003,0,0,-1.00005,23.92318,60.755388)" stroke-width=".79701" stroke-linecap="butt" stroke-miterlimit="10" stroke-linejoin="miter" fill="none" stroke="#000000" d="M-14.16992 1.41698V-1.41698"/>
<path transform="matrix(1.00003,0,0,-1.00005,23.92318,60.755388)" d="M-23.02574-11.05872H-5.3141005V-3.8080497H-23.02574Z" fill="#ffffff"/>
<use data-text="&#x2212;" xlink:href="#font_3_1" transform="matrix(9.962899,0,0,-9.963098,.896492,70.9839)"/>
<use data-text="2" xlink:href="#font_2_2" transform="matrix(9.962899,0,0,-9.963098,8.645729,70.9839)"/>
<use data-text="0" xlink:href="#font_2_1" transform="matrix(9.962899,0,0,-9.963098,13.627174,70.9839)"/>
<path transform="matrix(1.00003,0,0,-1.00005,23.92318,60.755388)" stroke-width=".79701" stroke-linecap="butt" stroke-miterlimit="10" stroke-linejoin="miter" fill="none" stroke="#000000" d="M1.41698-14.16992H-1.41698"/>
<path transform="matrix(1.00003,0,0,-1.00005,23.92318,60.755388)" d="M-19.52713-19.78781H-1.8154907V-12.53714H-19.52713Z" fill="#ffffff"/>
<use data-text="&#x2212;" xlink:href="#font_3_1" transform="matrix(9.962899,0,0,-9.963098,4.3955919,79.71433)"/>
<use data-text="2" xlink:href="#font_2_2" transform="matrix(9.962899,0,0,-9.963098,12.144829,79.71433)"/>
<use data-text="0" xlink:href="#font_2_1" transform="matrix(9.962899,0,0,-9.963098,17.126275,79.71433)"/>
<path transform="matrix(1.00003,0,0,-1.00005,23.92318,60.755388)" stroke-width=".3985" stroke-linecap="butt" stroke-miterlimit="10" stroke-linejoin="miter" fill="none" stroke="#00cc00" d="M0 0-8.1385 22.36018"/>
<path transform="matrix(-.34204028,-.93971696,-.9396983,.34204708,15.784435,38.39409)" d="M.797 0C-.19925 .19925-1.19551 .59775-2.39102 1.29512-1.19551 .3985-1.19551-.3985-2.39102-1.29512-1.19551-.59775-.19925-.19925 .797 0Z" fill="#00cc00"/>
<path transform="matrix(-.34204028,-.93971696,-.9396983,.34204708,15.784435,38.39409)" stroke-width=".3985" stroke-linecap="butt" stroke-linejoin="round" fill="none" stroke="#00cc00" d="M.797 0C-.19925 .19925-1.19551 .59775-2.39102 1.29512-1.19551 .3985-1.19551-.3985-2.39102-1.29512-1.19551-.59775-.19925-.19925 .797 0Z"/>
<path transform="matrix(1.00003,0,0,-1.00005,23.92318,60.755388)" d="M-12.7976 9.37666H-6.43142V13.919641H-12.7976Z" fill="#ffffff"/>
<use data-text="u" xlink:href="#font_4_109" transform="matrix(9.962899,0,0,-9.963098,11.124794,51.318918)" fill="#00cc00"/>
<path transform="matrix(1.00003,0,0,-1.00005,23.92318,60.755388)" stroke-width=".3985" stroke-linecap="butt" stroke-miterlimit="10" stroke-linejoin="miter" fill="none" stroke="#0000ff" d="M28.33987 21.2549-11.74915 31.99678"/>
<path transform="matrix(-.965959,-.25880293,-.25879777,.9659782,12.1736769,28.757018)" d="M.797 0C-.19925 .19925-1.19551 .59775-2.39102 1.29512-1.19551 .3985-1.19551-.3985-2.39102-1.29512-1.19551-.59775-.19925-.19925 .797 0Z" fill="#0000ff"/>
<path transform="matrix(-.965959,-.25880293,-.25879777,.9659782,12.1736769,28.757018)" stroke-width=".3985" stroke-linecap="butt" stroke-linejoin="round" fill="none" stroke="#0000ff" d="M.797 0C-.19925 .19925-1.19551 .59775-2.39102 1.29512-1.19551 .3985-1.19551-.3985-2.39102-1.29512-1.19551-.59775-.19925-.19925 .797 0Z"/>
<path transform="matrix(1.00003,0,0,-1.00005,23.92318,60.755388)" d="M-18.95811 30.02295H-12.910711V34.48624H-18.95811Z" fill="#ffffff"/>
<use data-text="v" xlink:href="#font_4_112" transform="matrix(9.962899,0,0,-9.963098,4.9646074,30.690886)" fill="#0000ff"/>
<path transform="matrix(1.00003,0,0,-1.00005,23.92318,60.755388)" stroke-width=".3985" stroke-linecap="butt" stroke-miterlimit="10" stroke-linejoin="miter" fill="none" stroke="#00aeef" d="M-8.47925 23.29634 31.60977 12.55447"/>
<path transform="matrix(.965959,.25880293,.25879777,-.9659782,55.533899,48.200269)" d="M.797 0C-.19925 .19925-1.19551 .59775-2.39102 1.29512-1.19551 .3985-1.19551-.3985-2.39102-1.29512-1.19551-.59775-.19925-.19925 .797 0Z" fill="#00aeef"/>
<path transform="matrix(.965959,.25880293,.25879777,-.9659782,55.533899,48.200269)" stroke-width=".3985" stroke-linecap="butt" stroke-linejoin="round" fill="none" stroke="#00aeef" d="M.797 0C-.19925 .19925-1.19551 .59775-2.39102 1.29512-1.19551 .3985-1.19551-.3985-2.39102-1.29512-1.19551-.59775-.19925-.19925 .797 0Z"/>
<path transform="matrix(1.00003,0,0,-1.00005,23.92318,60.755388)" stroke-width=".79701" stroke-linecap="butt" stroke-miterlimit="10" stroke-linejoin="miter" fill="none" stroke="#ff0000" d="M0 0 31.23 11.79001"/>
<path transform="matrix(.9355481,-.35317765,-.3531706,-.9355667,55.1541,48.964788)" d="M1.0361 0C-.25902 .25902-1.55415 .77707-3.1083 1.68365-1.55415 .51805-1.55415-.51805-3.1083-1.68365-1.55415-.77707-.25902-.25902 1.0361 0Z" fill="#ff0000"/>
<path transform="matrix(.9355481,-.35317765,-.3531706,-.9355667,55.1541,48.964788)" stroke-width=".79701" stroke-linecap="butt" stroke-linejoin="round" fill="none" stroke="#ff0000" d="M1.0361 0C-.25902 .25902-1.55415 .77707-3.1083 1.68365-1.55415 .51805-1.55415-.51805-3.1083-1.68365-1.55415-.77707-.25902-.25902 1.0361 0Z"/>
</svg>
