<?xml version="1.0" encoding="UTF-8"?>
<svg xmlns="http://www.w3.org/2000/svg" xmlns:xlink="http://www.w3.org/1999/xlink" width="115pt" height="115pt" viewBox="0 0 115 115" version="1.1">
<g id="surface1">
<path style="fill:none;stroke-width:0.3985;stroke-linecap:butt;stroke-linejoin:miter;stroke:rgb(0%,0%,0%);stroke-opacity:1;stroke-miterlimit:10;" d="M -56.692813 0.0009375 L 55.697812 0.0009375 " transform="matrix(1,0,0,-1,57.31,86.04)"/>
<path style="fill-rule:nonzero;fill:rgb(0%,0%,0%);fill-opacity:1;stroke-width:0.3985;stroke-linecap:butt;stroke-linejoin:round;stroke:rgb(0%,0%,0%);stroke-opacity:1;stroke-miterlimit:10;" d="M 0.797327 0.0009375 C -0.198766 0.200156 -1.19486 0.598594 -2.390173 1.293906 C -1.19486 0.399375 -1.19486 -0.3975 -2.390173 -1.295938 C -1.19486 -0.596719 -0.198766 -0.198281 0.797327 0.0009375 Z M 0.797327 0.0009375 " transform="matrix(1,0,0,-1,113.00736,86.04)"/>
<path style="fill:none;stroke-width:0.3985;stroke-linecap:butt;stroke-linejoin:miter;stroke:rgb(50%,50%,50%);stroke-opacity:1;stroke-miterlimit:10;" d="M -0.00140625 -28.346719 L -0.00140625 85.04 " transform="matrix(1,0,0,-1,57.31,86.04)"/>
<path style="fill:none;stroke-width:1.19553;stroke-linecap:butt;stroke-linejoin:miter;stroke:rgb(100%,0%,0%);stroke-opacity:1;stroke-miterlimit:10;" d="M 28.34625 0.0009375 C 28.34625 0.0009375 30.295469 2.13375 30.97125 3.051719 C 31.650937 3.965781 32.666562 5.559531 33.225156 6.606406 C 33.78375 7.657187 34.584531 9.454062 34.998594 10.618125 C 35.412656 11.782187 35.963437 13.743125 36.209531 14.997031 C 36.455625 16.250937 36.72125 18.340781 36.78375 19.661094 C 36.84625 20.9775 36.795469 23.145469 36.662656 24.497031 C 36.525937 25.844687 36.150937 28.04 35.811094 29.387656 C 35.47125 30.735312 34.764219 32.903281 34.217344 34.215781 C 33.674375 35.528281 32.6275 37.606406 31.881406 38.848594 C 31.135312 40.090781 29.775937 42.028281 28.842344 43.165 C 27.904844 44.301719 26.2525 46.043906 25.147031 47.043906 C 24.037656 48.043906 22.123594 49.543906 20.869687 50.379844 C 19.611875 51.219687 17.479062 52.430625 16.100156 53.082969 C 14.725156 53.731406 12.416562 54.622031 10.951719 55.067344 C 9.486875 55.512656 7.061094 56.055625 5.541562 56.278281 C 4.022031 56.504844 1.537656 56.692344 -0.00140625 56.692344 C -1.536563 56.692344 -4.020938 56.504844 -5.544375 56.278281 C -7.063906 56.055625 -9.485781 55.512656 -10.954531 55.067344 C -12.419375 54.622031 -14.724063 53.731406 -16.102969 53.082969 C -17.477969 52.430625 -19.614688 51.219687 -20.868594 50.379844 C -22.1225 49.543906 -24.040469 48.043906 -25.145938 47.043906 C -26.251406 46.043906 -27.907656 44.301719 -28.84125 43.165 C -29.774844 42.028281 -31.134219 40.090781 -31.880313 38.848594 C -32.626406 37.606406 -33.673281 35.528281 -34.21625 34.215781 C -34.763125 32.903281 -35.470156 30.735312 -35.81 29.387656 C -36.149844 28.04 -36.524844 25.844687 -36.661563 24.497031 C -36.798281 23.145469 -36.845156 20.9775 -36.782656 19.661094 C -36.720156 18.340781 -36.454531 16.250937 -36.208438 14.997031 C -35.962344 13.743125 -35.411563 11.782187 -34.9975 10.618125 C -34.583438 9.454062 -33.782656 7.657187 -33.224063 6.606406 C -32.665469 5.559531 -31.649844 3.965781 -30.974063 3.051719 C -30.298281 2.13375 -29.114688 0.770469 -28.345156 0.0009375 C -27.579531 -0.7725 -26.270938 -1.889688 -25.442813 -2.506875 C -24.614688 -3.124063 -23.235781 -3.987344 -22.376406 -4.452188 C -21.517031 -4.913125 -20.114688 -5.526406 -19.251406 -5.838906 C -18.388125 -6.151406 -17.005313 -6.526406 -16.165469 -6.694375 C -15.329531 -6.86625 -14.005313 -7.0225 -13.21625 -7.061563 C -12.423281 -7.104531 -11.196719 -7.065469 -10.474063 -6.999063 C -9.751406 -6.932656 -8.649844 -6.733438 -8.013125 -6.573281 C -7.3725 -6.417031 -6.415469 -6.092813 -5.868594 -5.870156 C -5.325625 -5.6475 -4.52875 -5.237344 -4.083438 -4.975625 C -3.634219 -4.71 -3.001406 -4.252969 -2.65375 -3.971719 C -2.306094 -3.690469 -1.833438 -3.225625 -1.579531 -2.952188 C -1.325625 -2.67875 -0.993594 -2.24125 -0.825625 -1.995156 C -0.657656 -1.745156 -0.454531 -1.370156 -0.352969 -1.167031 C -0.255313 -0.967813 -0.15375 -0.67875 -0.106875 -0.534219 C -0.06 -0.389688 -0.02875 -0.21 -0.013125 -0.135781 C 0.0025 -0.0615625 -0.0053125 0.0009375 -0.00140625 0.0009375 C 0.0025 0.0009375 -0.00140625 -0.0615625 0.0142187 -0.135781 C 0.0298437 -0.21 0.0571875 -0.389688 0.104062 -0.534219 C 0.154844 -0.67875 0.2525 -0.967813 0.354062 -1.167031 C 0.455625 -1.370156 0.654844 -1.745156 0.826719 -1.995156 C 0.994687 -2.24125 1.322812 -2.67875 1.576719 -2.952188 C 1.830625 -3.225625 2.307187 -3.690469 2.654844 -3.971719 C 3.0025 -4.252969 3.635312 -4.71 4.080625 -4.975625 C 4.529844 -5.237344 5.326719 -5.6475 5.869687 -5.870156 C 6.416562 -6.092813 7.373594 -6.417031 8.010312 -6.573281 C 8.650937 -6.733438 9.7525 -6.932656 10.475156 -6.999063 C 11.197812 -7.065469 12.424375 -7.104531 13.213437 -7.061563 C 14.0025 -7.0225 15.330625 -6.86625 16.166562 -6.694375 C 17.0025 -6.526406 18.389219 -6.151406 19.2525 -5.838906 C 20.111875 -5.526406 21.518125 -4.913125 22.3775 -4.452188 C 23.236875 -3.987344 24.615781 -3.124063 25.443906 -2.506875 C 26.272031 -1.889688 28.34625 0.0009375 28.34625 0.0009375 " transform="matrix(1,0,0,-1,57.31,86.04)"/>
</g>
</svg>
