<?xml version="1.0" encoding="UTF-8"?>
<svg xmlns="http://www.w3.org/2000/svg" xmlns:xlink="http://www.w3.org/1999/xlink" width="115pt" height="115pt" viewBox="0 0 115 115" version="1.1">
<g id="surface1">
<path style="fill:none;stroke-width:0.3985;stroke-linecap:butt;stroke-linejoin:miter;stroke:rgb(0%,0%,0%);stroke-opacity:1;stroke-miterlimit:10;" d="M -56.692813 -0.00140625 L 55.697812 -0.00140625 " transform="matrix(1,0,0,-1,57.31,57.69)"/>
<path style="fill-rule:nonzero;fill:rgb(0%,0%,0%);fill-opacity:1;stroke-width:0.3985;stroke-linecap:butt;stroke-linejoin:round;stroke:rgb(0%,0%,0%);stroke-opacity:1;stroke-miterlimit:10;" d="M 0.797327 -0.00140625 C -0.198766 0.197812 -1.19486 0.59625 -2.390173 1.295469 C -1.19486 0.397031 -1.19486 -0.399844 -2.390173 -1.294375 C -1.19486 -0.599063 -0.198766 -0.200625 0.797327 -0.00140625 Z M 0.797327 -0.00140625 " transform="matrix(1,0,0,-1,113.00736,57.69)"/>
<path style="fill:none;stroke-width:0.3985;stroke-linecap:butt;stroke-linejoin:miter;stroke:rgb(50%,50%,50%);stroke-opacity:1;stroke-miterlimit:10;" d="M -0.00140625 -56.692813 L -0.00140625 56.693906 " transform="matrix(1,0,0,-1,57.31,57.69)"/>
<path style="fill:none;stroke-width:1.19553;stroke-linecap:butt;stroke-linejoin:miter;stroke:rgb(100%,0%,0%);stroke-opacity:1;stroke-miterlimit:10;" d="M -0.00140625 -0.00140625 C -0.00140625 -0.00140625 0.639219 0.0571875 0.8775 0.1275 C 1.111875 0.193906 1.486875 0.365781 1.697812 0.498594 C 1.912656 0.635312 2.236875 0.90875 2.416562 1.104062 C 2.592344 1.303281 2.850156 1.670469 2.979062 1.920469 C 3.107969 2.170469 3.272031 2.615781 3.342344 2.904844 C 3.40875 3.197812 3.47125 3.701719 3.47125 4.025937 C 3.47125 4.34625 3.412656 4.885312 3.338437 5.225156 C 3.264219 5.561094 3.080625 6.115781 2.924375 6.455625 C 2.768125 6.791562 2.455625 7.334531 2.22125 7.654844 C 1.982969 7.979062 1.541562 8.482969 1.229062 8.772031 C 0.912656 9.061094 0.34625 9.5025 -0.0404688 9.744687 C -0.427188 9.982969 -1.106875 10.334531 -1.56 10.514219 C -2.013125 10.693906 -2.790469 10.928281 -3.298281 11.03375 C -3.802188 11.135312 -4.661563 11.240781 -5.208438 11.2525 C -5.759219 11.268125 -6.673281 11.22125 -7.243594 11.135312 C -7.817813 11.053281 -8.763125 10.842344 -9.345156 10.654844 C -9.927188 10.467344 -10.868594 10.084531 -11.442813 9.787656 C -12.013125 9.494687 -12.927188 8.932187 -13.470156 8.529844 C -14.013125 8.1275 -14.864688 7.389219 -15.356875 6.881406 C -15.852969 6.373594 -16.606875 5.47125 -17.036563 4.865781 C -17.462344 4.256406 -18.09125 3.201719 -18.431094 2.5025 C -18.770938 1.807187 -19.251406 0.615781 -19.485781 -0.157656 C -19.724063 -0.931094 -20.020938 -2.235781 -20.138125 -3.071719 C -20.259219 -3.90375 -20.356875 -5.294375 -20.345156 -6.169375 C -20.333438 -7.048281 -20.208438 -8.489688 -20.056094 -9.384219 C -19.907656 -10.282656 -19.548281 -11.743594 -19.251406 -12.638125 C -18.954531 -13.532656 -18.360781 -14.970156 -17.915469 -15.84125 C -17.470156 -16.712344 -16.638125 -18.09125 -16.044375 -18.911563 C -15.454531 -19.731875 -14.388125 -21.013125 -13.65375 -21.759219 C -12.923281 -22.505313 -11.634219 -23.645938 -10.767031 -24.294375 C -9.90375 -24.942813 -8.411563 -25.90375 -7.431094 -26.435 C -6.450625 -26.962344 -4.77875 -27.71625 -3.700625 -28.102969 C -2.618594 -28.489688 -0.802188 -29.001406 0.357969 -29.227969 C 1.518125 -29.458438 3.447812 -29.696719 4.662656 -29.755313 C 5.8775 -29.81 7.8775 -29.759219 9.119687 -29.630313 C 10.365781 -29.501406 12.389219 -29.145938 13.635312 -28.825625 C 14.8775 -28.505313 16.881406 -27.837344 18.09625 -27.325625 C 19.311094 -26.81 21.240781 -25.829531 22.400937 -25.1225 C 23.557187 -24.419375 25.365781 -23.130313 26.432187 -22.243594 C 27.498594 -21.352969 29.143125 -19.774844 30.088437 -18.708438 C 31.037656 -17.645938 32.463437 -15.798281 33.260312 -14.579531 C 34.061094 -13.360781 35.229062 -11.274844 35.854062 -9.923281 C 36.482969 -8.567813 37.350156 -6.282656 37.78375 -4.817813 C 38.213437 -3.352969 38.7525 -0.907656 38.97125 0.639219 C 39.19 2.186094 39.365781 4.736875 39.354062 6.330625 C 39.34625 7.928281 39.143125 10.53375 38.893125 12.147031 C 38.643125 13.760312 38.053281 16.361875 37.561094 17.951719 C 37.068906 19.545469 36.084531 22.088437 35.354062 23.623594 C 34.619687 25.154844 33.248594 27.576719 32.279844 29.018125 C 31.311094 30.455625 29.565 32.693906 28.3775 34.006406 C 27.186094 35.315 25.092344 37.315 23.697812 38.459531 C 22.303281 39.604062 19.897031 41.311094 18.318906 42.260312 C 16.744687 43.209531 14.065 44.572812 12.334531 45.295469 C 10.604062 46.022031 7.705625 47.0025 5.854062 47.475156 C 4.006406 47.947812 0.936094 48.506406 -0.9975 48.709531 C -2.931094 48.912656 -6.102969 49.022031 -8.079531 48.94 C -10.056094 48.861875 -13.267031 48.5025 -15.2475 48.131406 C -17.227969 47.760312 -20.407656 46.928281 -22.345156 46.260312 C -24.282656 45.59625 -27.360781 44.291562 -29.212344 43.334531 C -31.063906 42.381406 -33.970156 40.611875 -35.692813 39.3775 C -37.415469 38.147031 -40.075625 35.94 -41.626406 34.447812 C -43.177188 32.955625 -45.532656 30.34625 -46.8725 28.619687 C -48.212344 26.889219 -50.196719 23.920469 -51.290469 21.986875 C -52.384219 20.049375 -54.763125 14.674375 -54.763125 14.674375 " transform="matrix(1,0,0,-1,57.31,57.69)"/>
</g>
</svg>
