<?xml version="1.0" encoding="UTF-8"?>
<svg xmlns="http://www.w3.org/2000/svg" xmlns:xlink="http://www.w3.org/1999/xlink" width="115pt" height="115pt" viewBox="0 0 115 115" version="1.1">
<g id="surface1">
<path style="fill:none;stroke-width:0.3985;stroke-linecap:butt;stroke-linejoin:miter;stroke:rgb(0%,0%,0%);stroke-opacity:1;stroke-miterlimit:10;" d="M -56.692813 -0.00140625 L 55.697812 -0.00140625 " transform="matrix(1,0,0,-1,57.31,57.69)"/>
<path style="fill-rule:nonzero;fill:rgb(0%,0%,0%);fill-opacity:1;stroke-width:0.3985;stroke-linecap:butt;stroke-linejoin:round;stroke:rgb(0%,0%,0%);stroke-opacity:1;stroke-miterlimit:10;" d="M 0.797327 -0.00140625 C -0.198766 0.197812 -1.19486 0.59625 -2.390173 1.295469 C -1.19486 0.397031 -1.19486 -0.399844 -2.390173 -1.294375 C -1.19486 -0.599063 -0.198766 -0.200625 0.797327 -0.00140625 Z M 0.797327 -0.00140625 " transform="matrix(1,0,0,-1,113.00736,57.69)"/>
<path style="fill:none;stroke-width:0.3985;stroke-linecap:butt;stroke-linejoin:miter;stroke:rgb(50%,50%,50%);stroke-opacity:1;stroke-miterlimit:10;" d="M -0.00140625 -56.692813 L -0.00140625 56.693906 " transform="matrix(1,0,0,-1,57.31,57.69)"/>
<path style="fill:none;stroke-width:1.19553;stroke-linecap:butt;stroke-linejoin:miter;stroke:rgb(100%,0%,0%);stroke-opacity:1;stroke-miterlimit:10;" d="M 42.522031 -0.00140625 C 42.522031 -0.00140625 42.287656 1.510312 42.006406 2.061094 C 41.72125 2.615781 41.041562 3.490781 40.490781 3.986875 C 39.936094 4.482969 38.822812 5.236875 38.018125 5.639219 C 37.209531 6.041562 35.705625 6.615781 34.670469 6.897031 C 33.639219 7.174375 31.787656 7.525937 30.557187 7.654844 C 29.330625 7.78375 27.193906 7.869687 25.811094 7.830625 C 24.424375 7.787656 22.076719 7.584531 20.580625 7.361875 C 19.084531 7.139219 16.592344 6.635312 15.029844 6.225156 C 13.47125 5.818906 10.912656 5.006406 9.338437 4.416562 C 7.764219 3.826719 5.217344 2.725156 3.674375 1.963437 C 2.131406 1.201719 -0.321719 -0.161563 -1.790469 -1.071719 C -3.255313 -1.981875 -5.548281 -3.571719 -6.895938 -4.606875 C -8.243594 -5.642031 -10.31 -7.407656 -11.505313 -8.532656 C -12.696719 -9.657656 -14.485781 -11.536563 -15.493594 -12.712344 C -16.501406 -13.888125 -17.96625 -15.821719 -18.763125 -17.009219 C -19.563906 -18.192813 -20.681094 -20.106875 -21.259219 -21.259219 C -21.837344 -22.411563 -22.583438 -24.231875 -22.935 -25.302188 C -23.282656 -26.3725 -23.661563 -28.032656 -23.786563 -28.985781 C -23.911563 -29.935 -23.931094 -31.364688 -23.845156 -32.15375 C -23.759219 -32.942813 -23.446719 -34.079531 -23.165469 -34.673281 C -22.888125 -35.263125 -22.27875 -36.056094 -21.833438 -36.423281 C -21.384219 -36.790469 -20.52875 -37.196719 -19.946719 -37.313906 C -19.360781 -37.435 -18.313906 -37.427188 -17.634219 -37.282656 C -16.950625 -37.142031 -15.774844 -36.700625 -15.032656 -36.290469 C -14.290469 -35.880313 -13.048281 -35.009219 -12.286563 -34.337344 C -11.524844 -33.665469 -10.282656 -32.3725 -9.540469 -31.450625 C -8.798281 -30.52875 -7.6225 -28.845156 -6.938906 -27.696719 C -6.251406 -26.548281 -5.200625 -24.517031 -4.606875 -23.165469 C -4.017031 -21.817813 -3.138125 -19.489688 -2.665469 -17.981875 C -2.196719 -16.470156 -1.536563 -13.911563 -1.208438 -12.282656 C -0.880313 -10.649844 -0.474063 -7.935 -0.306094 -6.227969 C -0.138125 -4.524844 -0.00140625 -1.727969 -0.00140625 -0.00140625 C -0.00140625 1.729062 -0.138125 4.525937 -0.306094 6.229062 C -0.474063 7.932187 -0.880313 10.650937 -1.208438 12.28375 C -1.536563 13.912656 -2.196719 16.47125 -2.665469 17.979062 C -3.138125 19.490781 -4.017031 21.818906 -4.606875 23.166562 C -5.200625 24.514219 -6.251406 26.549375 -6.938906 27.697812 C -7.6225 28.84625 -8.798281 30.529844 -9.540469 31.451719 C -10.282656 32.369687 -11.524844 33.666562 -12.286563 34.338437 C -13.048281 35.006406 -14.290469 35.881406 -15.032656 36.291562 C -15.774844 36.697812 -16.950625 37.139219 -17.634219 37.28375 C -18.313906 37.424375 -19.360781 37.436094 -19.946719 37.315 C -20.52875 37.197812 -21.384219 36.791562 -21.833438 36.424375 C -22.27875 36.057187 -22.888125 35.264219 -23.165469 34.670469 C -23.446719 34.080625 -23.759219 32.943906 -23.845156 32.154844 C -23.931094 31.365781 -23.911563 29.936094 -23.786563 28.982969 C -23.661563 28.03375 -23.282656 26.373594 -22.935 25.303281 C -22.583438 24.229062 -21.837344 22.40875 -21.259219 21.260312 C -20.681094 20.107969 -19.563906 18.193906 -18.763125 17.006406 C -17.96625 15.822812 -16.501406 13.889219 -15.493594 12.713437 C -14.485781 11.537656 -12.696719 9.654844 -11.505313 8.53375 C -10.31 7.40875 -8.243594 5.643125 -6.895938 4.607969 C -5.548281 3.572812 -3.255313 1.982969 -1.790469 1.072812 C -0.321719 0.15875 2.131406 -1.204531 3.674375 -1.962344 C 5.217344 -2.724063 7.764219 -3.825625 9.338437 -4.415469 C 10.912656 -5.009219 13.47125 -5.817813 15.029844 -6.224063 C 16.592344 -6.634219 19.084531 -7.142031 20.580625 -7.364688 C 22.076719 -7.587344 24.424375 -7.790469 25.811094 -7.829531 C 27.193906 -7.868594 29.330625 -7.782656 30.557187 -7.65375 C 31.787656 -7.524844 33.639219 -7.177188 34.670469 -6.895938 C 35.705625 -6.614688 37.209531 -6.044375 38.018125 -5.638125 C 38.822812 -5.235781 39.936094 -4.481875 40.490781 -3.985781 C 41.041562 -3.489688 41.72125 -2.614688 42.006406 -2.063906 C 42.287656 -1.509219 42.522031 -0.00140625 42.522031 -0.00140625 " transform="matrix(1,0,0,-1,57.31,57.69)"/>
<path style="fill:none;stroke-width:0.3985;stroke-linecap:butt;stroke-linejoin:miter;stroke:rgb(50%,50%,50%);stroke-opacity:1;stroke-dasharray:2.98883,2.98883;stroke-miterlimit:10;" d="M -32.731875 -56.692813 L -0.00140625 -0.00140625 L -32.731875 56.693906 " transform="matrix(1,0,0,-1,57.31,57.69)"/>
</g>
</svg>
