<?xml version="1.0" encoding="UTF-8"?>
<svg xmlns="http://www.w3.org/2000/svg" xmlns:xlink="http://www.w3.org/1999/xlink" width="66pt" height="117pt" viewBox="0 0 66 117" version="1.1">
<g id="surface1">
<path style="fill:none;stroke-width:0.79701;stroke-linecap:butt;stroke-linejoin:miter;stroke:rgb(0%,0%,100%);stroke-opacity:1;stroke-miterlimit:10;" d="M 62.361875 0.001875 L 62.361875 7.087813 L 55.275938 7.087813 L 55.275938 0.001875 Z M 62.361875 0.001875 " transform="matrix(1,0,0,-1,2.81,115.58)"/>
<path style="fill:none;stroke-width:0.79701;stroke-linecap:butt;stroke-linejoin:miter;stroke:rgb(0%,0%,0%);stroke-opacity:1;stroke-miterlimit:10;" d="M -0.00140625 0.001875 L 62.361875 0.001875 L 62.361875 113.388594 Z M -0.00140625 0.001875 " transform="matrix(1,0,0,-1,2.81,115.58)"/>
<path style="fill:none;stroke-width:0.79701;stroke-linecap:butt;stroke-linejoin:miter;stroke:rgb(0%,0%,0%);stroke-opacity:1;stroke-miterlimit:10;" d="M 62.361875 17.009688 L -0.00140625 0.001875 L 62.361875 42.521406 " transform="matrix(1,0,0,-1,2.81,115.58)"/>
<path style="fill:none;stroke-width:0.79701;stroke-linecap:butt;stroke-linejoin:miter;stroke:rgb(0%,0%,0%);stroke-opacity:1;stroke-miterlimit:10;" d="M -0.00140625 0.001875 L 62.361875 73.701094 " transform="matrix(1,0,0,-1,2.81,115.58)"/>
<path style="fill:none;stroke-width:0.79701;stroke-linecap:butt;stroke-linejoin:miter;stroke:rgb(100%,0%,0%);stroke-opacity:1;stroke-miterlimit:10;" d="M 11.338438 0.001875 C 11.338438 1.005781 11.201719 2.009688 10.94 2.982344 " transform="matrix(1,0,0,-1,2.81,115.58)"/>
<path style="fill:none;stroke-width:0.79701;stroke-linecap:butt;stroke-linejoin:miter;stroke:rgb(100%,0%,0%);stroke-opacity:1;stroke-miterlimit:10;" d="M 15.592344 0.001875 C 15.592344 3.134688 14.647031 6.193281 12.881406 8.783125 " transform="matrix(1,0,0,-1,2.81,115.58)"/>
<path style="fill:none;stroke-width:0.79701;stroke-linecap:butt;stroke-linejoin:miter;stroke:rgb(100%,0%,0%);stroke-opacity:1;stroke-miterlimit:10;" d="M 19.842344 0.001875 C 19.842344 5.833906 17.272031 11.376875 12.818906 15.146406 " transform="matrix(1,0,0,-1,2.81,115.58)"/>
<path style="fill:none;stroke-width:0.79701;stroke-linecap:butt;stroke-linejoin:miter;stroke:rgb(100%,0%,0%);stroke-opacity:1;stroke-miterlimit:10;" d="M 24.09625 0.001875 C 24.09625 8.783125 19.311094 16.876875 11.611875 21.11125 " transform="matrix(1,0,0,-1,2.81,115.58)"/>
</g>
</svg>
