<?xml version="1.0" encoding="UTF-8"?>
<svg xmlns="http://www.w3.org/2000/svg" xmlns:xlink="http://www.w3.org/1999/xlink" width="101pt" height="100pt" viewBox="0 0 101 100" version="1.1">
<g id="surface1">
<path style="fill:none;stroke-width:0.79701;stroke-linecap:butt;stroke-linejoin:miter;stroke:rgb(0%,0%,0%);stroke-opacity:1;stroke-miterlimit:10;" d="M 48.188391 0.0005 C 48.188391 26.613781 26.61482 48.188 -0.00156947 48.188 C -26.614052 48.188 -48.19153 26.613781 -48.19153 0.0005 C -48.19153 -26.616687 -26.614052 -48.190906 -0.00156947 -48.190906 C 26.61482 -48.190906 48.188391 -26.616687 48.188391 0.0005 Z M 48.188391 0.0005 " transform="matrix(1.00003,0,0,-1,50.485945,50.188)"/>
<path style="fill:none;stroke-width:0.3985;stroke-linecap:butt;stroke-linejoin:miter;stroke:rgb(50%,50%,50%);stroke-opacity:1;stroke-miterlimit:10;" d="M 34.067721 34.070813 L -34.07086 -34.069812 " transform="matrix(1.00003,0,0,-1,50.485945,50.188)"/>
<path style="fill:none;stroke-width:0.3985;stroke-linecap:butt;stroke-linejoin:miter;stroke:rgb(50%,50%,50%);stroke-opacity:1;stroke-miterlimit:10;" d="M 34.067721 -34.069812 L -34.07086 34.070813 " transform="matrix(1.00003,0,0,-1,50.485945,50.188)"/>
<path style="fill:none;stroke-width:0.3985;stroke-linecap:butt;stroke-linejoin:miter;stroke:rgb(50%,50%,50%);stroke-opacity:1;stroke-miterlimit:10;" d="M -48.19153 0.0005 L 48.188391 0.0005 " transform="matrix(1.00003,0,0,-1,50.485945,50.188)"/>
<path style="fill:none;stroke-width:0.3985;stroke-linecap:butt;stroke-linejoin:miter;stroke:rgb(50%,50%,50%);stroke-opacity:1;stroke-miterlimit:10;" d="M -0.00156947 -48.190906 L -0.00156947 48.188 " transform="matrix(1.00003,0,0,-1,50.485945,50.188)"/>
</g>
</svg>
