<?xml version="1.0" encoding="UTF-8"?>
<svg xmlns="http://www.w3.org/2000/svg" xmlns:xlink="http://www.w3.org/1999/xlink" width="68pt" height="119pt" viewBox="0 0 68 119" version="1.1">
<g id="surface1">
<path style="fill:none;stroke-width:0.79701;stroke-linecap:butt;stroke-linejoin:miter;stroke:rgb(0%,0%,100%);stroke-opacity:1;stroke-miterlimit:10;" d="M 62.361093 0.0011875 L 62.361093 7.087125 L 55.275368 7.087125 L 55.275368 0.0011875 Z M 62.361093 0.0011875 " transform="matrix(1.00003,0,0,-1,3.613598,116.384)"/>
<path style="fill:none;stroke-width:0.79701;stroke-linecap:butt;stroke-linejoin:miter;stroke:rgb(0%,0%,0%);stroke-opacity:1;stroke-miterlimit:10;" d="M -0.00031713 0.0011875 L 62.361093 0.0011875 L 62.361093 113.387906 Z M -0.00031713 0.0011875 " transform="matrix(1.00003,0,0,-1,3.613598,116.384)"/>
<path style="fill:none;stroke-width:0.79701;stroke-linecap:butt;stroke-linejoin:miter;stroke:rgb(0%,0%,0%);stroke-opacity:1;stroke-miterlimit:10;" d="M 62.361093 17.009 L -0.00031713 0.0011875 L 62.361093 42.520719 " transform="matrix(1.00003,0,0,-1,3.613598,116.384)"/>
<path style="fill:none;stroke-width:0.79701;stroke-linecap:butt;stroke-linejoin:miter;stroke:rgb(0%,0%,0%);stroke-opacity:1;stroke-miterlimit:10;" d="M -0.00031713 0.0011875 L 62.361093 73.700406 " transform="matrix(1.00003,0,0,-1,3.613598,116.384)"/>
<path style="fill:none;stroke-width:0.79701;stroke-linecap:butt;stroke-linejoin:miter;stroke:rgb(100%,0%,0%);stroke-opacity:1;stroke-miterlimit:10;" d="M 11.339186 0.0011875 C 11.339186 1.009 11.202472 2.012906 10.936855 2.981656 " transform="matrix(1.00003,0,0,-1,3.613598,116.384)"/>
<path style="fill:none;stroke-width:0.79701;stroke-linecap:butt;stroke-linejoin:miter;stroke:rgb(100%,0%,0%);stroke-opacity:1;stroke-miterlimit:10;" d="M 15.589059 0.0011875 C 15.589059 3.134 14.647681 6.192594 12.882109 8.782438 " transform="matrix(1.00003,0,0,-1,3.613598,116.384)"/>
<path style="fill:none;stroke-width:0.79701;stroke-linecap:butt;stroke-linejoin:miter;stroke:rgb(100%,0%,0%);stroke-opacity:1;stroke-miterlimit:10;" d="M 19.842838 0.0011875 C 19.842838 5.833219 17.272602 11.376188 12.819611 15.145719 " transform="matrix(1.00003,0,0,-1,3.613598,116.384)"/>
<path style="fill:none;stroke-width:0.79701;stroke-linecap:butt;stroke-linejoin:miter;stroke:rgb(100%,0%,0%);stroke-opacity:1;stroke-miterlimit:10;" d="M 24.096616 0.0011875 C 24.096616 8.786344 19.311604 16.876188 11.612616 21.110563 " transform="matrix(1.00003,0,0,-1,3.613598,116.384)"/>
</g>
</svg>
