<svg xmlns="http://www.w3.org/2000/svg" xmlns:xlink="http://www.w3.org/1999/xlink" version="1.1" width="385pt" height="67pt" viewBox="0 0 385 67">
<defs>
<path id="font_1_98" d="M.3600006 .12823487C.3600006 .18122864 .32998658 .21122742 .31799317 .22323609 .2849884 .25523377 .24598694 .26322938 .20399475 .27124024 .147995 .28224183 .08099365 .29522706 .08099365 .35324098 .08099365 .38822938 .10699463 .42922975 .19299317 .42922975 .30299378 .42922975 .30799867 .3392334 .30999757 .30822755 .31098939 .2992401 .32199098 .2992401 .32199098 .2992401 .33499146 .2992401 .33499146 .30422975 .33499146 .32322694V.4242401C.33499146 .4412384 .33499146 .4482422 .32398988 .4482422 .31900025 .4482422 .31698609 .4482422 .3039856 .43623353 .30099488 .43223573 .29100038 .42323304 .2869873 .42022706 .24899292 .4482422 .20799256 .4482422 .19299317 .4482422 .070999149 .4482422 .032989503 .38124085 .032989503 .3252411 .032989503 .29023744 .04899597 .26223756 .07598877 .24023438 .10798645 .2142334 .13598633 .2082367 .20799256 .19422913 .22999573 .19021607 .31199647 .17422486 .31199647 .10221863 .31199647 .051223756 .2769928 .011245728 .19898987 .011245728 .114990238 .011245728 .07899475 .068222049 .05999756 .1532135 .056991579 .16621399 .055999757 .17021179 .04598999 .17021179 .032989503 .17021179 .032989503 .16322327 .032989503 .1452179V.013214111C.032989503-.003753662 .032989503-.0107421879 .04399109-.0107421879 .04899597-.0107421879 .049987794-.009750366 .068984989 .009246826 .070999149 .011245728 .070999149 .013214111 .08898926 .032226564 .1329956-.009750366 .17799378-.0107421879 .19898987-.0107421879 .31399537-.0107421879 .3600006 .05621338 .3600006 .1282196V.12823487Z"/>
<path id="font_1_109" d="M.5349884 0V.0309906C.46499635 .0309906 .45700074 .037994386 .45700074 .08705139V.4423828L.30999757 .43066407V.3996582C.37998963 .3996582 .3880005 .39266969 .3880005 .34373475V.16601563C.3880005 .07910156 .33999635 .011245728 .2669983 .011245728 .18299866 .011245728 .1789856 .058135988 .1789856 .11009216V.4423828L.03199768 .43066407V.3996582C.10998535 .3996582 .10998535 .39666749 .10998535 .3078003V.15802002C.10998535 .080093387 .10998535-.0107421879 .2619934-.0107421879 .31799317-.0107421879 .3619995 .017242432 .3909912 .07910156V-.0107421879L.5349884 0Z"/>
<path id="font_1_84" d="M.5209961 .21636963C.5209961 .34336854 .42399598 .4423828 .31199647 .4423828 .23399353 .4423828 .19198609 .39837647 .17199707 .3763733V.4423828L.027999878 .43066407V.3996582C.09899902 .3996582 .10598755 .3936615 .10598755 .34973146V-.117996219C.10598755-.16308594 .09498596-.16308594 .027999878-.16308594V-.1940918L.13999939-.19110108 .25299073-.1940918V-.16308594C.18598938-.16308594 .1749878-.16308594 .1749878-.117996219V.050186159 .059173585C.17999268 .04319763 .22200012-.0107421879 .2979889-.0107421879 .4169922-.0107421879 .5209961 .087127689 .5209961 .21594239V.21636963M.43798829 .21594239C.43798829 .09512329 .36799623 .011245728 .2939911 .011245728 .2539978 .011245728 .21598816 .031219483 .18899536 .07215881 .1749878 .09312439 .1749878 .09411621 .1749878 .114089969V.33674623C.20399475 .38838197 .25299073 .41737367 .3039856 .41737367 .3769989 .41737367 .43798829 .32937623 .43798829 .21636963V.21594239Z"/>
<path id="font_1_72" d="M.25498963 0V.0309906C.18798828 .0309906 .1769867 .0309906 .1769867 .07601929V.69433596L.032989503 .6826172V.6516113C.102996829 .6516113 .11099243 .64460757 .11099243 .5956421V.07595825C.11099243 .0309906 .099990848 .0309906 .032989503 .0309906V0L.14399719 .0029907227 .25498963 0Z"/>
<path id="font_1_50" d="M.4149933 .11933899C.4149933 .12934876 .40699769 .13134766 .4019928 .13134766 .3929901 .13134766 .3909912 .12535095 .3889923 .11734009 .35398866 .014251709 .2639923 .014251709 .2539978 .014251709 .20399475 .014251709 .1639862 .044281007 .14099121 .08131409 .11099243 .12934876 .11099243 .19540406 .11099243 .23144531H.3899994C.4119873 .23144531 .4149933 .23144531 .4149933 .2524414 .4149933 .35131837 .36099244 .4482422 .23599243 .4482422 .11999512 .4482422 .027999878 .34532167 .027999878 .22042847 .027999878 .08631897 .1329956-.0107421879 .24798584-.0107421879 .36999513-.0107421879 .4149933 .10032654 .4149933 .11933899M.34899903 .2524414H.11199951C.117996219 .40126039 .20199585 .426239 .23599243 .426239 .33898927 .426239 .34899903 .2913971 .34899903 .2524414Z"/>
<path id="font_1_75" d="M.8129883 0V.0309906C.7609863 .0309906 .73599246 .0309906 .7350006 .061019899V.25221253C.7350006 .3383026 .7350006 .36932374 .70399478 .405365 .6899872 .42237855 .6569977 .4423828 .598999 .4423828 .5149994 .4423828 .47099305 .38233949 .45399476 .34429933 .43998719 .43138124 .3659973 .4423828 .32099916 .4423828 .24798584 .4423828 .20098877 .39935304 .17298889 .33729554V.4423828L.03199768 .43066407V.3996582C.101989749 .3996582 .10998535 .39266969 .10998535 .34370423V.07595825C.10998535 .0309906 .09899902 .0309906 .03199768 .0309906V0L.14498902 .0029907227 .25698854 0V.0309906C.18998719 .0309906 .1789856 .0309906 .1789856 .07595825V.25978089C.1789856 .36431886 .25 .42037965 .31399537 .42037965 .3769989 .42037965 .3880005 .36631776 .3880005 .30926515V.076034549C.3880005 .0309906 .3769989 .0309906 .30999757 .0309906V0L.4229889 .0029907227 .5349884 0V.0309906C.46798707 .0309906 .45700074 .0309906 .45700074 .076034549V.2602234C.45700074 .36431886 .5279999 .42037965 .59199526 .42037965 .6549988 .42037965 .66600039 .36631776 .66600039 .30926515V.076034549C.66600039 .0309906 .6549988 .0309906 .58799746 .0309906V0L.70098879 .0029907227 .8129883 0Z"/>
<path id="font_1_77" d="M.5349884 0V.0309906C.48298646 .0309906 .45799256 .0309906 .45700074 .061019899V.25221253C.45700074 .3383026 .45700074 .36932374 .42599488 .405365 .4119873 .42237855 .3789978 .4423828 .32099916 .4423828 .24798584 .4423828 .20098877 .39935304 .17298889 .33729554V.4423828L.03199768 .43066407V.3996582C.101989749 .3996582 .10998535 .39266969 .10998535 .34370423V.07595825C.10998535 .0309906 .09899902 .0309906 .03199768 .0309906V0L.14498902 .0029907227 .25698854 0V.0309906C.18998719 .0309906 .1789856 .0309906 .1789856 .07595825V.25978089C.1789856 .36431886 .25 .42037965 .31399537 .42037965 .3769989 .42037965 .3880005 .36631776 .3880005 .30926515V.076034549C.3880005 .0309906 .3769989 .0309906 .30999757 .0309906V0L.4229889 .0029907227 .5349884 0Z"/>
<path id="font_1_105" d="M.33198548 .12385559V.18066406H.30699159V.12585449C.30699159 .052108766 .2769928 .014251709 .23999024 .014251709 .17298889 .014251709 .17298889 .10491943 .17298889 .12187195V.3996582H.31599427V.43066407H.17298889V.6142578H.147995C.14698792 .5324249 .116989139 .42565919 .018997193 .42166139V.3996582H.10398865V.12408447C.10398865 .0012512207 .19699097-.0107421879 .23298645-.0107421879 .3039856-.0107421879 .33198548 .060180665 .33198548 .12408447V.12385559Z"/>
<path id="font_1_28" d="M.48298646 .08912659V.14511109H.45799256V.08912659C.45799256 .03112793 .43299867 .025131226 .42199708 .025131226 .3889923 .025131226 .3849945 .070129398 .3849945 .07511902V.27508546C.3849945 .31707765 .3849945 .3560791 .34899903 .39312745 .30999757 .43223573 .2599945 .4482422 .21199036 .4482422 .12998963 .4482422 .06098938 .40115357 .06098938 .335083 .06098938 .30508424 .08099365 .28808595 .10699463 .28808595 .1349945 .28808595 .15299988 .30807496 .15299988 .33407594 .15299988 .3460846 .147995 .37908937 .101989749 .38008119 .1289978 .41519166 .17799378 .426239 .20999146 .426239 .25898744 .426239 .31599427 .38710023 .31599427 .29808045V.26107789C.2649994 .25808717 .19499207 .25508119 .13198853 .22509766 .056991579 .19110108 .03199768 .13911438 .03199768 .09512329 .03199768 .014251709 .1289978-.0107421879 .19198609-.0107421879 .2579956-.0107421879 .3039856 .029251099 .32299806 .07624817 .32699586 .036132814 .35398866-.005859375 .40098573-.005859375 .42199708-.005859375 .48298646 .008132935 .48298646 .08912659M.31599427 .14013672C.31599427 .04525757 .24398804 .011245728 .19898987 .011245728 .1499939 .011245728 .10899353 .04624939 .10899353 .09625244 .10899353 .15124512 .15098572 .23425293 .31599427 .24024964V.14013672Z"/>
<path id="font_1_96" d="M.3639984 .38137818C.3639984 .41337586 .33299256 .4423828 .2899933 .4423828 .21699524 .4423828 .18099976 .37538148 .16699219 .3323822V.4423828L.027999878 .43066407V.3996582C.09799194 .3996582 .10598755 .39266969 .10598755 .34370423V.07595825C.10598755 .0309906 .09498596 .0309906 .027999878 .0309906V0L.14199829 .0029907227C.18199158 .0029907227 .22898865 .0029907227 .2689972 0V.0309906H.24798584C.17399597 .0309906 .17199707 .04197693 .17199707 .07795715V.23181153C.17199707 .33137513 .21398926 .42037965 .2899933 .42037965 .29699708 .42037965 .29899598 .42037965 .30099488 .41937257 .2979889 .41838075 .27799989 .40637208 .27799989 .3803711 .27799989 .35237123 .29899598 .33737184 .32099916 .33737184 .33898927 .33737184 .3639984 .3493805 .3639984 .38137818Z"/>
<path id="font_1_118" d="M.5079956 .3996582V.43066407C.4850006 .4286499 .45599366 .42765809 .43299867 .42765809L.34599305 .43066407V.3996582C.3769989 .39866639 .3929901 .3816681 .3929901 .35668946 .3929901 .34669496 .3919983 .34469605 .3869934 .33270265L.28599549 .08685303 .1749878 .35568238C.17098999 .36567689 .16899109 .36967469 .16899109 .3736725 .16899109 .3996582 .20599365 .3996582 .22499085 .3996582V.43066407L.115997318 .42765809C.08898926 .42765809 .04899597 .4286499 .018997193 .43066407V.3996582C.066986087 .3996582 .085998538 .3996582 .099990848 .36468507L.25-.000091552738 .22499085-.059066774C.20298767-.11407471 .1749878-.18309021 .11099243-.18309021 .10598755-.18309021 .08299255-.18309021 .06399536-.16503906 .09498596-.16104126 .102996829-.13905335 .102996829-.123046878 .102996829-.0970459 .083999637-.08103943 .06098938-.08103943 .040985109-.08103943 .018997193-.09403992 .018997193-.124053958 .018997193-.16905213 .06098938-.20507813 .11099243-.20507813 .17399597-.20507813 .21499634-.14804077 .23899842-.091049198L.4149933 .33569337C.44099427 .39865113 .49198915 .3996582 .5079956 .3996582Z"/>
<path id="font_1_59" d="M.4850006 .40411378C.4850006 .42111207 .47299195 .453125 .43399049 .453125 .4139862 .453125 .36999513 .44711305 .32798768 .40611268 .28599549 .43937684 .24398804 .4423828 .22200012 .4423828 .1289978 .4423828 .05999756 .37338258 .05999756 .29638673 .05999756 .25239564 .08198547 .21440125 .10699463 .19340515 .09399414 .17840576 .07598877 .14538574 .07598877 .11035156 .07598877 .07899475 .08898926 .04083252 .11999512 .020828248 .05999756 .003829956 .027999878-.039138795 .027999878-.07911682 .027999878-.15107727 .1269989-.20605469 .24899292-.20605469 .36698915-.20605469 .47099305-.15507508 .47099305-.07711792 .47099305-.042144777 .45700074 .008834839 .4059906 .036834718 .35299684 .064834598 .29499818 .064834598 .23399353 .064834598 .20899964 .064834598 .1659851 .064834598 .15899658 .065841678 .1269989 .069885257 .10598755 .101242069 .10598755 .13334656 .10598755 .13735962 .10598755 .16040039 .12298584 .18040467 .1619873 .15240479 .20298767 .14941406 .22200012 .14941406 .31498719 .14941406 .38398744 .21839905 .38398744 .2953949 .38398744 .3323822 .36799623 .36938478 .34298707 .39237977 .3789978 .42637635 .4149933 .43138124 .43299867 .43138124 .43299867 .43112184 .43998719 .43112184 .44299317 .43011476 .43199159 .42611695 .4269867 .41513063 .4269867 .40315248 .4269867 .38616944 .43998719 .37417604 .45599366 .37417604 .46598817 .37417604 .4850006 .3811798 .4850006 .4041443V.40411378M.30899049 .29626466C.30899049 .26930238 .30799867 .2373352 .29299928 .21235657 .2849884 .20037842 .2619934 .17240906 .22200012 .17240906 .1349945 .17240906 .1349945 .2722931 .1349945 .29527284 .1349945 .3222351 .13598633 .35420228 .15098572 .3791809 .15899658 .3913269 .18199158 .41937257 .22200012 .41937257 .30899049 .41937257 .30899049 .31922914 .30899049 .29618836V.29626466M.4189911-.07911682C.4189911-.13308716 .34799195-.18305969 .25-.18305969 .14898682-.18305969 .07998657-.13209534 .07998657-.07911682 .07998657-.03314209 .117996219 .003829956 .1619873 .0068359377H.22099304C.30699159 .0068359377 .4189911 .0068359377 .4189911-.07911682Z"/>
<path id="font_1_43" d="M.4149933 .119140628C.4149933 .12911988 .40499879 .12911988 .4019928 .12911988 .3929901 .12911988 .3909912 .12512207 .3889923 .119140628 .3600006 .026229859 .29499818 .014251709 .2579956 .014251709 .20498657 .014251709 .116989139 .0572052 .116989139 .21801758 .116989139 .38093568 .19898987 .42323304 .2519989 .42323304 .26098634 .42323304 .32398988 .42222596 .35899354 .38594056 .31799317 .38293458 .31199647 .3529358 .31199647 .3399353 .31199647 .31393434 .32998658 .2939453 .35798646 .2939453 .38398744 .2939453 .4039917 .3109436 .4039917 .34094239 .4039917 .40911866 .32798768 .4482422 .25099183 .4482422 .12599182 .4482422 .033996583 .3399353 .033996583 .21601868 .033996583 .08816528 .1329956-.0107421879 .24899292-.0107421879 .3829956-.0107421879 .4149933 .10914612 .4149933 .119140628Z"/>
<path id="font_1_81" d="M.47099305 .21424866C.47099305 .34223939 .37098695 .4482422 .25 .4482422 .125 .4482422 .027999878 .3392334 .027999878 .21424866 .027999878 .085250858 .13198853-.0107421879 .24899292-.0107421879 .36999513-.0107421879 .47099305 .087249759 .47099305 .21424866M.3880005 .22224427C.3880005 .18624878 .3880005 .13224793 .3659973 .08824158 .34399415 .04324341 .2999878 .014251709 .25 .014251709 .20698548 .014251709 .16299439 .035247804 .13598633 .08125305 .11099243 .12524414 .11099243 .18624878 .11099243 .22224427 .11099243 .26124574 .11099243 .31523133 .1349945 .35923768 .1619873 .40522767 .20899964 .426239 .24899292 .426239 .29299928 .426239 .33599855 .40423585 .3619995 .36123658 .3880005 .3182373 .3880005 .26023866 .3880005 .22224427Z"/>
<path id="font_1_35" d="M.5209961 .2163086C.5209961 .34335328 .4229889 .4423828 .30899049 .4423828 .23098755 .4423828 .18798828 .39537049 .17199707 .3773651V.69433596L.027999878 .68333438V.6523285C.09799194 .6523285 .10598755 .6453247 .10598755 .596344V.00024414063H.1309967L.16699219 .06227112C.18199158 .039260866 .22399903-.0107421879 .2979889-.0107421879 .4169922-.0107421879 .5209961 .08728027 .5209961 .2163086M.43798829 .21731568C.43798829 .18029785 .43598939 .120285037 .40699769 .07527161 .38598634 .044265748 .34799195 .011245728 .2939911 .011245728 .24899292 .011260986 .21299744 .03526306 .18899536 .072265628 .1749878 .09326172 .1749878 .09625244 .1749878 .11425781V.32034303C.1749878 .3393402 .1749878 .3403473 .18598938 .35635377 .22499085 .41236878 .27999879 .42037965 .3039856 .42037965 .34899903 .42037965 .3849945 .3943634 .40899659 .35635377 .43499757 .31533814 .43798829 .25831605 .43798829 .21730042V.21731568Z"/>
</defs>
<path transform="matrix(1,0,0,-1,52.317995,52.022)" d="M.17932 0C.17932 .09901 .09901 .17932 0 .17932-.09901 .17932-.17932 .09901-.17932 0-.17932-.09901-.09901-.17932 0-.17932 .09901-.17932 .17932-.09901 .17932 0ZM0 0" fill="#0000ff"/>
<path transform="matrix(1,0,0,-1,52.317995,52.022)" stroke-width=".3985" stroke-linecap="butt" stroke-miterlimit="10" stroke-linejoin="miter" fill="none" stroke="#0000ff" d="M.17932 0C.17932 .09901 .09901 .17932 0 .17932-.09901 .17932-.17932 .09901-.17932 0-.17932-.09901-.09901-.17932 0-.17932 .09901-.17932 .17932-.09901 .17932 0ZM0 0"/>
<use data-text="s" xlink:href="#font_1_98" transform="matrix(9.9626,0,0,-9.9626,5.477997,62.456)" fill="#0000ff"/>
<use data-text="u" xlink:href="#font_1_109" transform="matrix(9.9626,0,0,-9.9626,9.403259,62.456)" fill="#0000ff"/>
<use data-text="p" xlink:href="#font_1_84" transform="matrix(9.9626,0,0,-9.9626,14.942459,62.456)" fill="#0000ff"/>
<use data-text="p" xlink:href="#font_1_84" transform="matrix(9.9626,0,0,-9.9626,20.481659,62.456)" fill="#0000ff"/>
<use data-text="l" xlink:href="#font_1_72" transform="matrix(9.9626,0,0,-9.9626,26.020859,62.456)" fill="#0000ff"/>
<use data-text="e" xlink:href="#font_1_50" transform="matrix(9.9626,0,0,-9.9626,28.790467,62.456)" fill="#0000ff"/>
<use data-text="m" xlink:href="#font_1_75" transform="matrix(9.9626,0,0,-9.9626,33.213869,62.456)" fill="#0000ff"/>
<use data-text="e" xlink:href="#font_1_50" transform="matrix(9.9626,0,0,-9.9626,41.51271,62.456)" fill="#0000ff"/>
<use data-text="n" xlink:href="#font_1_77" transform="matrix(9.9626,0,0,-9.9626,45.93611,62.456)" fill="#0000ff"/>
<use data-text="t" xlink:href="#font_1_105" transform="matrix(9.9626,0,0,-9.9626,51.206315,62.456)" fill="#0000ff"/>
<use data-text="a" xlink:href="#font_1_28" transform="matrix(9.9626,0,0,-9.9626,55.08177,62.456)" fill="#0000ff"/>
<use data-text="r" xlink:href="#font_1_96" transform="matrix(9.9626,0,0,-9.9626,60.063066,62.456)" fill="#0000ff"/>
<use data-text="y" xlink:href="#font_1_118" transform="matrix(9.9626,0,0,-9.9626,63.9684,62.456)" fill="#0000ff"/>
<use data-text="a" xlink:href="#font_1_28" transform="matrix(9.9626,0,0,-9.9626,72.53624,62.456)" fill="#0000ff"/>
<use data-text="n" xlink:href="#font_1_77" transform="matrix(9.9626,0,0,-9.9626,77.51753,62.456)" fill="#0000ff"/>
<use data-text="g" xlink:href="#font_1_59" transform="matrix(9.9626,0,0,-9.9626,83.05673,62.456)" fill="#0000ff"/>
<use data-text="l" xlink:href="#font_1_72" transform="matrix(9.9626,0,0,-9.9626,88.038028,62.456)" fill="#0000ff"/>
<use data-text="e" xlink:href="#font_1_50" transform="matrix(9.9626,0,0,-9.9626,90.80763,62.456)" fill="#0000ff"/>
<use data-text="s" xlink:href="#font_1_98" transform="matrix(9.9626,0,0,-9.9626,95.23103,62.456)" fill="#0000ff"/>
<path transform="matrix(1,0,0,-1,52.317995,52.022)" stroke-width=".79701" stroke-linecap="butt" stroke-miterlimit="10" stroke-linejoin="miter" fill="none" stroke="#000000" d="M-49.58908 0H49.58908"/>
<path transform="matrix(-1,-0,0,1,2.7289124,52.022)" d="M1.0361 0C-.25902 .25902-1.55415 .77707-3.1083 1.68365-1.55415 .51805-1.55415-.51805-3.1083-1.68365-1.55415-.77707-.25902-.25902 1.0361 0Z"/>
<path transform="matrix(-1,-0,0,1,2.7289124,52.022)" stroke-width=".79701" stroke-linecap="butt" stroke-linejoin="round" fill="none" stroke="#000000" d="M1.0361 0C-.25902 .25902-1.55415 .77707-3.1083 1.68365-1.55415 .51805-1.55415-.51805-3.1083-1.68365-1.55415-.77707-.25902-.25902 1.0361 0Z"/>
<path transform="matrix(1,0,0,-1,101.907077,52.022)" d="M1.0361 0C-.25902 .25902-1.55415 .77707-3.1083 1.68365-1.55415 .51805-1.55415-.51805-3.1083-1.68365-1.55415-.77707-.25902-.25902 1.0361 0Z"/>
<path transform="matrix(1,0,0,-1,101.907077,52.022)" stroke-width=".79701" stroke-linecap="butt" stroke-linejoin="round" fill="none" stroke="#000000" d="M1.0361 0C-.25902 .25902-1.55415 .77707-3.1083 1.68365-1.55415 .51805-1.55415-.51805-3.1083-1.68365-1.55415-.77707-.25902-.25902 1.0361 0Z"/>
<path transform="matrix(1,0,0,-1,52.317995,52.022)" stroke-width=".79701" stroke-linecap="butt" stroke-miterlimit="10" stroke-linejoin="miter" fill="none" stroke="#000000" d="M0 0 40.86757 24.7683"/>
<path transform="matrix(.85516,-.51828,-.51828,-.85516,93.18555,27.2537)" d="M1.0361 0C-.25902 .25902-1.55415 .77707-3.1083 1.68365-1.55415 .51805-1.55415-.51805-3.1083-1.68365-1.55415-.77707-.25902-.25902 1.0361 0Z"/>
<path transform="matrix(.85516,-.51828,-.51828,-.85516,93.18555,27.2537)" stroke-width=".79701" stroke-linecap="butt" stroke-linejoin="round" fill="none" stroke="#000000" d="M1.0361 0C-.25902 .25902-1.55415 .77707-3.1083 1.68365-1.55415 .51805-1.55415-.51805-3.1083-1.68365-1.55415-.77707-.25902-.25902 1.0361 0Z"/>
<path transform="matrix(1,0,0,-1,52.317995,52.022)" stroke-width=".79701" stroke-linecap="butt" stroke-miterlimit="10" stroke-linejoin="miter" fill="none" stroke="#ff0000" d="M17.85828 0C17.85828 3.13396 17.0326 6.21507 16.18298 7.6867"/>
<path transform="matrix(-.49995,-.86604,-.86604,.49995,68.50099,44.335309)" d="M1.0361 0C-.25902 .25902-1.55415 .77707-3.1083 1.68365-1.55415 .51805-1.55415-.51805-3.1083-1.68365-1.55415-.77707-.25902-.25902 1.0361 0Z" fill="#ff0000"/>
<path transform="matrix(-.49995,-.86604,-.86604,.49995,68.50099,44.335309)" stroke-width=".79701" stroke-linecap="butt" stroke-linejoin="round" fill="none" stroke="#ff0000" d="M1.0361 0C-.25902 .25902-1.55415 .77707-3.1083 1.68365-1.55415 .51805-1.55415-.51805-3.1083-1.68365-1.55415-.77707-.25902-.25902 1.0361 0Z"/>
<path transform="matrix(1,0,0,-1,52.317995,52.022)" stroke-width=".79701" stroke-linecap="butt" stroke-miterlimit="10" stroke-linejoin="miter" fill="none" stroke="#ff0000" d="M10.45998 6.37796C6.93756 12.47896-.86401 14.56941-6.96501 11.04701-10.91113 8.76875-13.343 4.55672-13.343 1.4346"/>
<path transform="matrix(0,1,1,0,38.97499,50.5874)" d="M1.0361 0C-.25902 .25902-1.55415 .77707-3.1083 1.68365-1.55415 .51805-1.55415-.51805-3.1083-1.68365-1.55415-.77707-.25902-.25902 1.0361 0Z" fill="#ff0000"/>
<path transform="matrix(0,1,1,0,38.97499,50.5874)" stroke-width=".79701" stroke-linecap="butt" stroke-linejoin="round" fill="none" stroke="#ff0000" d="M1.0361 0C-.25902 .25902-1.55415 .77707-3.1083 1.68365-1.55415 .51805-1.55415-.51805-3.1083-1.68365-1.55415-.77707-.25902-.25902 1.0361 0Z"/>
<path transform="matrix(1,0,0,-1,52.317995,52.022)" stroke-width=".79701" stroke-linecap="butt" stroke-miterlimit="10" stroke-linejoin="miter" fill="none" stroke="#000000" d="M89.29149 0H138.88059"/>
<path transform="matrix(1,0,0,-1,191.19858,52.022)" d="M1.0361 0C-.25902 .25902-1.55415 .77707-3.1083 1.68365-1.55415 .51805-1.55415-.51805-3.1083-1.68365-1.55415-.77707-.25902-.25902 1.0361 0Z"/>
<path transform="matrix(1,0,0,-1,191.19858,52.022)" stroke-width=".79701" stroke-linecap="butt" stroke-linejoin="round" fill="none" stroke="#000000" d="M1.0361 0C-.25902 .25902-1.55415 .77707-3.1083 1.68365-1.55415 .51805-1.55415-.51805-3.1083-1.68365-1.55415-.77707-.25902-.25902 1.0361 0Z"/>
<use data-text="c" xlink:href="#font_1_43" transform="matrix(9.9626,0,0,-9.9626,118.93099,62.655)" fill="#0000ff"/>
<use data-text="o" xlink:href="#font_1_81" transform="matrix(9.9626,0,0,-9.9626,123.35439,62.655)" fill="#0000ff"/>
<use data-text="m" xlink:href="#font_1_75" transform="matrix(9.9626,0,0,-9.9626,128.3357,62.655)" fill="#0000ff"/>
<use data-text="p" xlink:href="#font_1_84" transform="matrix(9.9626,0,0,-9.9626,136.63452,62.655)" fill="#0000ff"/>
<use data-text="l" xlink:href="#font_1_72" transform="matrix(9.9626,0,0,-9.9626,142.17374,62.655)" fill="#0000ff"/>
<use data-text="e" xlink:href="#font_1_50" transform="matrix(9.9626,0,0,-9.9626,144.94333,62.655)" fill="#0000ff"/>
<use data-text="m" xlink:href="#font_1_75" transform="matrix(9.9626,0,0,-9.9626,149.36673,62.655)" fill="#0000ff"/>
<use data-text="e" xlink:href="#font_1_50" transform="matrix(9.9626,0,0,-9.9626,157.66559,62.655)" fill="#0000ff"/>
<use data-text="n" xlink:href="#font_1_77" transform="matrix(9.9626,0,0,-9.9626,162.08899,62.655)" fill="#0000ff"/>
<use data-text="t" xlink:href="#font_1_105" transform="matrix(9.9626,0,0,-9.9626,167.35919,62.655)" fill="#0000ff"/>
<use data-text="a" xlink:href="#font_1_28" transform="matrix(9.9626,0,0,-9.9626,171.23465,62.655)" fill="#0000ff"/>
<use data-text="r" xlink:href="#font_1_96" transform="matrix(9.9626,0,0,-9.9626,176.21595,62.655)" fill="#0000ff"/>
<use data-text="y" xlink:href="#font_1_118" transform="matrix(9.9626,0,0,-9.9626,180.12128,62.655)" fill="#0000ff"/>
<use data-text="a" xlink:href="#font_1_28" transform="matrix(9.9626,0,0,-9.9626,188.68912,62.655)" fill="#0000ff"/>
<use data-text="n" xlink:href="#font_1_77" transform="matrix(9.9626,0,0,-9.9626,193.67041,62.655)" fill="#0000ff"/>
<use data-text="g" xlink:href="#font_1_59" transform="matrix(9.9626,0,0,-9.9626,199.2096,62.655)" fill="#0000ff"/>
<use data-text="l" xlink:href="#font_1_72" transform="matrix(9.9626,0,0,-9.9626,204.19089,62.655)" fill="#0000ff"/>
<use data-text="e" xlink:href="#font_1_50" transform="matrix(9.9626,0,0,-9.9626,206.96051,62.655)" fill="#0000ff"/>
<use data-text="s" xlink:href="#font_1_98" transform="matrix(9.9626,0,0,-9.9626,211.38391,62.655)" fill="#0000ff"/>
<path transform="matrix(1,0,0,-1,52.317995,52.022)" stroke-width=".79701" stroke-linecap="butt" stroke-miterlimit="10" stroke-linejoin="miter" fill="none" stroke="#000000" d="M89.29149 0V49.58908"/>
<path transform="matrix(0,-1,-1,-0,141.60948,2.4329186)" d="M1.0361 0C-.25902 .25902-1.55415 .77707-3.1083 1.68365-1.55415 .51805-1.55415-.51805-3.1083-1.68365-1.55415-.77707-.25902-.25902 1.0361 0Z"/>
<path transform="matrix(0,-1,-1,-0,141.60948,2.4329186)" stroke-width=".79701" stroke-linecap="butt" stroke-linejoin="round" fill="none" stroke="#000000" d="M1.0361 0C-.25902 .25902-1.55415 .77707-3.1083 1.68365-1.55415 .51805-1.55415-.51805-3.1083-1.68365-1.55415-.77707-.25902-.25902 1.0361 0Z"/>
<path transform="matrix(1,0,0,-1,52.317995,52.022)" stroke-width=".79701" stroke-linecap="butt" stroke-miterlimit="10" stroke-linejoin="miter" fill="none" stroke="#000000" d="M89.29149 0 117.80634 40.66484"/>
<path transform="matrix(.57411,-.81874,-.81874,-.57411,170.12432,11.35717)" d="M1.0361 0C-.25902 .25902-1.55415 .77707-3.1083 1.68365-1.55415 .51805-1.55415-.51805-3.1083-1.68365-1.55415-.77707-.25902-.25902 1.0361 0Z"/>
<path transform="matrix(.57411,-.81874,-.81874,-.57411,170.12432,11.35717)" stroke-width=".79701" stroke-linecap="butt" stroke-linejoin="round" fill="none" stroke="#000000" d="M1.0361 0C-.25902 .25902-1.55415 .77707-3.1083 1.68365-1.55415 .51805-1.55415-.51805-3.1083-1.68365-1.55415-.77707-.25902-.25902 1.0361 0Z"/>
<path transform="matrix(1,0,0,-1,52.317995,52.022)" stroke-width=".79701" stroke-linecap="butt" stroke-miterlimit="10" stroke-linejoin="miter" fill="none" stroke="#ff0000" d="M107.15012 0C107.15012 5.82541 104.30661 11.28758 100.71008 13.8058"/>
<path transform="matrix(-.81914,-.57356,-.57356,.81914,153.02808,38.216199)" d="M1.0361 0C-.25902 .25902-1.55415 .77707-3.1083 1.68365-1.55415 .51805-1.55415-.51805-3.1083-1.68365-1.55415-.77707-.25902-.25902 1.0361 0Z" fill="#ff0000"/>
<path transform="matrix(-.81914,-.57356,-.57356,.81914,153.02808,38.216199)" stroke-width=".79701" stroke-linecap="butt" stroke-linejoin="round" fill="none" stroke="#ff0000" d="M1.0361 0C-.25902 .25902-1.55415 .77707-3.1083 1.68365-1.55415 .51805-1.55415-.51805-3.1083-1.68365-1.55415-.77707-.25902-.25902 1.0361 0Z"/>
<path transform="matrix(1,0,0,-1,52.317995,52.022)" stroke-width=".79701" stroke-linecap="butt" stroke-miterlimit="10" stroke-linejoin="miter" fill="none" stroke="#ff0000" d="M96.43513 10.45998C94.29117 11.96103 91.73593 12.76686 90.55322 12.76686"/>
<path transform="matrix(-1,-0,0,1,142.87122,39.25514)" d="M1.0361 0C-.25902 .25902-1.55415 .77707-3.1083 1.68365-1.55415 .51805-1.55415-.51805-3.1083-1.68365-1.55415-.77707-.25902-.25902 1.0361 0Z" fill="#ff0000"/>
<path transform="matrix(-1,-0,0,1,142.87122,39.25514)" stroke-width=".79701" stroke-linecap="butt" stroke-linejoin="round" fill="none" stroke="#ff0000" d="M1.0361 0C-.25902 .25902-1.55415 .77707-3.1083 1.68365-1.55415 .51805-1.55415-.51805-3.1083-1.68365-1.55415-.77707-.25902-.25902 1.0361 0Z"/>
<path transform="matrix(1,0,0,-1,52.317995,52.022)" stroke-width=".79701" stroke-linecap="butt" stroke-miterlimit="10" stroke-linejoin="miter" fill="none" stroke="#000000" d="M178.583 0H228.17209"/>
<path transform="matrix(1,0,0,-1,280.49009,52.022)" d="M1.0361 0C-.25902 .25902-1.55415 .77707-3.1083 1.68365-1.55415 .51805-1.55415-.51805-3.1083-1.68365-1.55415-.77707-.25902-.25902 1.0361 0Z"/>
<path transform="matrix(1,0,0,-1,280.49009,52.022)" stroke-width=".79701" stroke-linecap="butt" stroke-linejoin="round" fill="none" stroke="#000000" d="M1.0361 0C-.25902 .25902-1.55415 .77707-3.1083 1.68365-1.55415 .51805-1.55415-.51805-3.1083-1.68365-1.55415-.77707-.25902-.25902 1.0361 0Z"/>
<use data-text="a" xlink:href="#font_1_28" transform="matrix(9.9626,0,0,-9.9626,231.78499,62.655)" fill="#0000ff"/>
<use data-text="c" xlink:href="#font_1_43" transform="matrix(9.9626,0,0,-9.9626,236.76628,62.655)" fill="#0000ff"/>
<use data-text="u" xlink:href="#font_1_109" transform="matrix(9.9626,0,0,-9.9626,241.18968,62.655)" fill="#0000ff"/>
<use data-text="t" xlink:href="#font_1_105" transform="matrix(9.9626,0,0,-9.9626,246.72888,62.655)" fill="#0000ff"/>
<use data-text="e" xlink:href="#font_1_50" transform="matrix(9.9626,0,0,-9.9626,250.60434,62.655)" fill="#0000ff"/>
<use data-text="a" xlink:href="#font_1_28" transform="matrix(9.9626,0,0,-9.9626,258.34529,62.655)" fill="#0000ff"/>
<use data-text="n" xlink:href="#font_1_77" transform="matrix(9.9626,0,0,-9.9626,263.3266,62.655)" fill="#0000ff"/>
<use data-text="g" xlink:href="#font_1_59" transform="matrix(9.9626,0,0,-9.9626,268.86579,62.655)" fill="#0000ff"/>
<use data-text="l" xlink:href="#font_1_72" transform="matrix(9.9626,0,0,-9.9626,273.84709,62.655)" fill="#0000ff"/>
<use data-text="e" xlink:href="#font_1_50" transform="matrix(9.9626,0,0,-9.9626,276.6167,62.655)" fill="#0000ff"/>
<path transform="matrix(1,0,0,-1,52.317995,52.022)" stroke-width=".79701" stroke-linecap="butt" stroke-miterlimit="10" stroke-linejoin="miter" fill="none" stroke="#000000" d="M178.583 0 203.37694 42.89336"/>
<path transform="matrix(.50043,-.86575,-.86575,-.50043,255.69493,9.128639)" d="M1.0361 0C-.25902 .25902-1.55415 .77707-3.1083 1.68365-1.55415 .51805-1.55415-.51805-3.1083-1.68365-1.55415-.77707-.25902-.25902 1.0361 0Z"/>
<path transform="matrix(.50043,-.86575,-.86575,-.50043,255.69493,9.128639)" stroke-width=".79701" stroke-linecap="butt" stroke-linejoin="round" fill="none" stroke="#000000" d="M1.0361 0C-.25902 .25902-1.55415 .77707-3.1083 1.68365-1.55415 .51805-1.55415-.51805-3.1083-1.68365-1.55415-.77707-.25902-.25902 1.0361 0Z"/>
<path transform="matrix(1,0,0,-1,52.317995,52.022)" stroke-width=".79701" stroke-linecap="butt" stroke-miterlimit="10" stroke-linejoin="miter" fill="none" stroke="#ff0000" d="M196.44197 0C196.44197 6.37938 193.03739 12.2762 188.7552 14.74847"/>
<path transform="matrix(-.86601,-.49998,-.49998,.86601,241.07321,37.27354)" d="M1.0361 0C-.25902 .25902-1.55415 .77707-3.1083 1.68365-1.55415 .51805-1.55415-.51805-3.1083-1.68365-1.55415-.77707-.25902-.25902 1.0361 0Z" fill="#ff0000"/>
<path transform="matrix(-.86601,-.49998,-.49998,.86601,241.07321,37.27354)" stroke-width=".79701" stroke-linecap="butt" stroke-linejoin="round" fill="none" stroke="#ff0000" d="M1.0361 0C-.25902 .25902-1.55415 .77707-3.1083 1.68365-1.55415 .51805-1.55415-.51805-3.1083-1.68365-1.55415-.77707-.25902-.25902 1.0361 0Z"/>
<path transform="matrix(1,0,0,-1,52.317995,52.022)" d="M285.91206 0C285.91206 .09901 285.83177 .17932 285.73274 .17932 285.6337 .17932 285.5534 .09901 285.5534 0 285.5534-.09901 285.6337-.17932 285.73274-.17932 285.83177-.17932 285.91206-.09901 285.91206 0ZM285.73274 0" fill="#0000ff"/>
<path transform="matrix(1,0,0,-1,52.317995,52.022)" stroke-width=".3985" stroke-linecap="butt" stroke-miterlimit="10" stroke-linejoin="miter" fill="none" stroke="#0000ff" d="M285.91206 0C285.91206 .09901 285.83177 .17932 285.73274 .17932 285.6337 .17932 285.5534 .09901 285.5534 0 285.5534-.09901 285.6337-.17932 285.73274-.17932 285.83177-.17932 285.91206-.09901 285.91206 0ZM285.73274 0"/>
<use data-text="o" xlink:href="#font_1_81" transform="matrix(9.9626,0,0,-9.9626,310.902,62.456)" fill="#0000ff"/>
<use data-text="b" xlink:href="#font_1_35" transform="matrix(9.9626,0,0,-9.9626,315.8833,62.456)" fill="#0000ff"/>
<use data-text="t" xlink:href="#font_1_105" transform="matrix(9.9626,0,0,-9.9626,321.4225,62.456)" fill="#0000ff"/>
<use data-text="u" xlink:href="#font_1_109" transform="matrix(9.9626,0,0,-9.9626,325.29798,62.456)" fill="#0000ff"/>
<use data-text="s" xlink:href="#font_1_98" transform="matrix(9.9626,0,0,-9.9626,330.83717,62.456)" fill="#0000ff"/>
<use data-text="e" xlink:href="#font_1_50" transform="matrix(9.9626,0,0,-9.9626,334.76243,62.456)" fill="#0000ff"/>
<use data-text="a" xlink:href="#font_1_28" transform="matrix(9.9626,0,0,-9.9626,342.50337,62.456)" fill="#0000ff"/>
<use data-text="n" xlink:href="#font_1_77" transform="matrix(9.9626,0,0,-9.9626,347.48469,62.456)" fill="#0000ff"/>
<use data-text="g" xlink:href="#font_1_59" transform="matrix(9.9626,0,0,-9.9626,353.02388,62.456)" fill="#0000ff"/>
<use data-text="l" xlink:href="#font_1_72" transform="matrix(9.9626,0,0,-9.9626,358.00517,62.456)" fill="#0000ff"/>
<use data-text="e" xlink:href="#font_1_50" transform="matrix(9.9626,0,0,-9.9626,360.77479,62.456)" fill="#0000ff"/>
<path transform="matrix(1,0,0,-1,52.317995,52.022)" stroke-width=".79701" stroke-linecap="butt" stroke-miterlimit="10" stroke-linejoin="miter" fill="none" stroke="#000000" d="M285.73274 0H330.21958"/>
<path transform="matrix(1,0,0,-1,382.53758,52.022)" d="M1.0361 0C-.25902 .25902-1.55415 .77707-3.1083 1.68365-1.55415 .51805-1.55415-.51805-3.1083-1.68365-1.55415-.77707-.25902-.25902 1.0361 0Z"/>
<path transform="matrix(1,0,0,-1,382.53758,52.022)" stroke-width=".79701" stroke-linecap="butt" stroke-linejoin="round" fill="none" stroke="#000000" d="M1.0361 0C-.25902 .25902-1.55415 .77707-3.1083 1.68365-1.55415 .51805-1.55415-.51805-3.1083-1.68365-1.55415-.77707-.25902-.25902 1.0361 0Z"/>
<path transform="matrix(1,0,0,-1,52.317995,52.022)" stroke-width=".79701" stroke-linecap="butt" stroke-miterlimit="10" stroke-linejoin="miter" fill="none" stroke="#000000" d="M285.73274 0 247.79633 31.9854"/>
<path transform="matrix(-.76448,-.64458,-.64458,.76448,300.11433,20.03662)" d="M1.0361 0C-.25902 .25902-1.55415 .77707-3.1083 1.68365-1.55415 .51805-1.55415-.51805-3.1083-1.68365-1.55415-.77707-.25902-.25902 1.0361 0Z"/>
<path transform="matrix(-.76448,-.64458,-.64458,.76448,300.11433,20.03662)" stroke-width=".79701" stroke-linecap="butt" stroke-linejoin="round" fill="none" stroke="#000000" d="M1.0361 0C-.25902 .25902-1.55415 .77707-3.1083 1.68365-1.55415 .51805-1.55415-.51805-3.1083-1.68365-1.55415-.77707-.25902-.25902 1.0361 0Z"/>
<path transform="matrix(1,0,0,-1,52.317995,52.022)" stroke-width=".79701" stroke-linecap="butt" stroke-miterlimit="10" stroke-linejoin="miter" fill="none" stroke="#ff0000" d="M298.48979 0C298.48979 7.045 292.7788 12.75595 285.73384 12.75595 281.96366 12.75595 278.38557 11.08748 276.8844 9.29836"/>
<path transform="matrix(-.64276,.76604,.76604,.64276,329.2024,42.72363)" d="M1.0361 0C-.25902 .25902-1.55415 .77707-3.1083 1.68365-1.55415 .51805-1.55415-.51805-3.1083-1.68365-1.55415-.77707-.25902-.25902 1.0361 0Z" fill="#ff0000"/>
<path transform="matrix(-.64276,.76604,.76604,.64276,329.2024,42.72363)" stroke-width=".79701" stroke-linecap="butt" stroke-linejoin="round" fill="none" stroke="#ff0000" d="M1.0361 0C-.25902 .25902-1.55415 .77707-3.1083 1.68365-1.55415 .51805-1.55415-.51805-3.1083-1.68365-1.55415-.77707-.25902-.25902 1.0361 0Z"/>
</svg>
