<svg xmlns="http://www.w3.org/2000/svg" xmlns:xlink="http://www.w3.org/1999/xlink" version="1.1" width="99" height="103" viewBox="0 0 99 103">
<defs>
<path id="font_1_1" d="M.20599365 .3996582H.2999878C.31999208 .3996582 .32998658 .3996582 .32998658 .41966249 .32998658 .43066407 .31999208 .43066407 .3019867 .43066407H.21398926C.25 .5724945 .25498963 .59246829 .25498963 .59846499 .25498963 .61546328 .24299622 .62545779 .22599793 .62545779 .22299195 .62545779 .19499207 .62446597 .18598938 .58947756L.14698792 .43066407H.052993776C.032989503 .43066407 .022994996 .43066407 .022994996 .4116516 .022994996 .3996582 .0309906 .3996582 .050994874 .3996582H.13899231C.066986087 .11608887 .06298828 .099121097 .06298828 .08114624 .06298828 .02722168 .100997928-.0107421879 .15499878-.0107421879 .25698854-.0107421879 .31399537 .13505554 .31399537 .14305115 .31399537 .1530304 .30599977 .1530304 .3019867 .1530304 .29299928 .1530304 .2919922 .15003968 .2869873 .13905335 .24398804 .035217287 .19099427 .011245728 .15699768 .011245728 .13598633 .011245728 .12599182 .024230957 .12599182 .057174684 .12599182 .08114624 .12799073 .088134769 .13198853 .10510254L.20599365 .3996582Z"/>
<path id="font_1_2" d="M.48599244 .38136292C.48999024 .39537049 .48999024 .39736939 .48999024 .40437318 .48999024 .42237855 .47599793 .43138124 .46099855 .43138124 .45098878 .43138124 .43499757 .42536927 .42599488 .41036988 .42399598 .405365 .41600038 .37435914 .4119873 .35635377 .40499879 .33035279 .397995 .30334474 .3919983 .27633668L.34700013 .09628296C.34298707 .08126831 .2999878 .011245728 .23399353 .011245728 .18299866 .011245728 .17199707 .055267335 .17199707 .0922699 .17199707 .1382904 .18899536 .20030213 .22299195 .28833009 .23899842 .3293457 .24299622 .3403473 .24299622 .36035157 .24299622 .405365 .21099854 .4423828 .16099549 .4423828 .06599426 .4423828 .0289917 .29733277 .0289917 .28833009 .0289917 .27833558 .038986207 .27833558 .040985109 .27833558 .050994874 .27833558 .051986696 .28033448 .056991579 .29634095 .083999637 .3903656 .12399292 .42037965 .1579895 .42037965 .1659851 .42037965 .18299866 .42037965 .18299866 .3883667 .18299866 .36335755 .17298889 .3373413 .1659851 .31834413 .12599182 .21231079 .10798645 .1552887 .10798645 .10827637 .10798645 .019256592 .17098999-.0107421879 .22999573-.0107421879 .2689972-.0107421879 .30299378 .0062561037 .33099366 .03425598 .31799317-.017745972 .30599977-.06674194 .2659912-.11973572 .23999024-.15385437 .20199585-.18309021 .1559906-.18309021 .14199829-.18309021 .09700012-.18005371 .07998657-.14074707 .09599304-.14074707 .10899353-.14074707 .12298584-.1287384 .1329956-.11973572 .14299011-.10673523 .14299011-.08773804 .14299011-.056747438 .115997318-.052734376 .10598755-.052734376 .08299255-.052734376 .049987794-.068740848 .049987794-.11773682 .049987794-.16796875 .09399414-.20507813 .1559906-.20507813 .25898744-.20507813 .3619995-.11373901 .3899994-.00074768069L.48599244 .38136292Z"/>
<path id="font_2_1" d="M.6589966 .23046875C.6759949 .23046875 .69400027 .23046875 .69400027 .25045777 .69400027 .27046205 .6759949 .27046205 .6589966 .27046205H.117996219C.100997928 .27046205 .08299255 .27046205 .08299255 .25045777 .08299255 .23046875 .100997928 .23046875 .117996219 .23046875H.6589966Z"/>
<path id="font_3_1" d="M.2939911 .16503906V.07800293C.2939911 .041992189 .2919922 .0309906 .21798706 .0309906H.19699097V0C.23799134 .0029907227 .2899933 .0029907227 .33198548 .0029907227 .37399293 .0029907227 .4269867 .0029907227 .46798707 0V.0309906H.44699098C.37298585 .0309906 .37098695 .041992189 .37098695 .07800293V.16503906H.47099305V.19602967H.37098695V.65075686C.37098695 .67074587 .37098695 .6767578 .35499574 .6767578 .34599305 .6767578 .34298707 .6767578 .33499146 .66474917L.027999878 .19602967V.16503906H.2939911M.2999878 .19602967H.055999757L.2999878 .5688019V.19602967Z"/>
<path id="font_4_57" d="M.47099305 .16503906V.19602967H.37098695V.6507721C.37098695 .6707611 .37098695 .6767578 .35499574 .6767578 .34599305 .6767578 .34298707 .6767578 .33499146 .6647644L.027999878 .19602967V.16503906H.2939911V.07800293C.2939911 .041992189 .2919922 .0309906 .21798706 .0309906H.19699097V0C.23799134 .0029907227 .2899933 .0029907227 .33198548 .0029907227 .37399293 .0029907227 .4269867 .0029907227 .46798707 0V.0309906H.44699098C.37298585 .0309906 .37098695 .041992189 .37098695 .07800293V.16503906H.47099305M.2999878 .19602967H.055999757L.2999878 .56881716V.19602967Z"/>
<path id="font_4_51" d="M.45700074 .16764832C.45700074 .20367432 .44599916 .24871826 .4079895 .29074098 .3889923 .31176759 .37298585 .32176209 .30899049 .36180116 .3809967 .39881898 .42999269 .4508667 .42999269 .51690676 .42999269 .6089783 .34098817 .6660156 .25 .6660156 .1499939 .6660156 .068984989 .5919647 .068984989 .49890138 .068984989 .48088075 .070999149 .43585206 .11299133 .38882447 .12399292 .3768158 .16099549 .35179139 .18598938 .33477784 .12799073 .30575563 .041992189 .24971009 .041992189 .15063477 .041992189 .044555665 .14399719-.022460938 .24899292-.022460938 .3619995-.022460938 .45700074 .060577394 .45700074 .16764832M.38598634 .51690676C.38598634 .45986939 .34700013 .41183473 .2869873 .3768158L.16299439 .4568634C.116989139 .4868927 .11299133 .5209198 .11299133 .53793337 .11299133 .5989685 .17799378 .64100649 .24899292 .64100649 .32199098 .64100649 .38598634 .588974 .38598634 .51690676M.40699769 .13162232C.40699769 .05757141 .33198548 .0055389406 .25 .0055389406 .1639862 .0055389406 .09199524 .06758118 .09199524 .15063477 .09199524 .2086792 .12399292 .2727356 .20899964 .31976319L.33198548 .24171448C.3600006 .22268677 .40699769 .19267273 .40699769 .13162232Z"/>
</defs>
<path transform="matrix(1.00003,0,0,-1.00005,44.525804,86.27966)" stroke-width=".3985" stroke-linecap="butt" stroke-miterlimit="10" stroke-linejoin="miter" fill="none" stroke="#00aeef" d="M-42.5202-14.17339H42.5202M-42.5202 0H42.5202M-42.5202 14.17339H42.5202M-42.5202 28.3468H42.5202M-42.5202 42.5202H42.5202M-42.5202 56.69362H42.5202M-42.5202 70.86452H42.5202M-42.5202-14.17339V70.867M-28.3468-14.17339V70.867M-14.17339-14.17339V70.867M0-14.17339V70.867M14.17339-14.17339V70.867M28.3468-14.17339V70.867M42.5177-14.17339V70.867M42.5202 70.867"/>
<path transform="matrix(1.00003,0,0,-1.00005,44.525804,86.27966)" stroke-width=".79701" stroke-linecap="butt" stroke-miterlimit="10" stroke-linejoin="miter" fill="none" stroke="#000000" d="M-43.22891 0H44.62894"/>
<path transform="matrix(1.00003,0,0,-1.00005,89.15608,86.27966)" d="M1.0361 0C-.25902 .25902-1.55415 .77707-3.1083 1.68365-1.55415 .51805-1.55415-.51805-3.1083-1.68365-1.55415-.77707-.25902-.25902 1.0361 0Z"/>
<path transform="matrix(1.00003,0,0,-1.00005,89.15608,86.27966)" stroke-width=".79701" stroke-linecap="butt" stroke-linejoin="round" fill="none" stroke="#000000" d="M1.0361 0C-.25902 .25902-1.55415 .77707-3.1083 1.68365-1.55415 .51805-1.55415-.51805-3.1083-1.68365-1.55415-.77707-.25902-.25902 1.0361 0Z"/>
<use data-text="t" xlink:href="#font_1_1" transform="matrix(9.962899,0,0,-9.963098,94.3103,89.34382)"/>
<path transform="matrix(1.00003,0,0,-1.00005,44.525804,86.27966)" stroke-width=".79701" stroke-linecap="butt" stroke-miterlimit="10" stroke-linejoin="miter" fill="none" stroke="#000000" d="M0-14.88211V72.97575"/>
<path transform="matrix(0,-1.00005,-1.00003,-0,44.525804,13.300262)" d="M1.0361 0C-.25902 .25902-1.55415 .77707-3.1083 1.68365-1.55415 .51805-1.55415-.51805-3.1083-1.68365-1.55415-.77707-.25902-.25902 1.0361 0Z"/>
<path transform="matrix(0,-1.00005,-1.00003,-0,44.525804,13.300262)" stroke-width=".79701" stroke-linecap="butt" stroke-linejoin="round" fill="none" stroke="#000000" d="M1.0361 0C-.25902 .25902-1.55415 .77707-3.1083 1.68365-1.55415 .51805-1.55415-.51805-3.1083-1.68365-1.55415-.77707-.25902-.25902 1.0361 0Z"/>
<use data-text="y" xlink:href="#font_1_2" transform="matrix(9.962899,0,0,-9.963098,41.904726,6.208664)"/>
<path transform="matrix(1.00003,0,0,-1.00005,44.525804,86.27966)" stroke-width=".3985" stroke-linecap="butt" stroke-miterlimit="10" stroke-linejoin="miter" fill="none" stroke="#000000" d="M-28.3468 .56694V-.56694"/>
<path transform="matrix(1.00003,0,0,-1.00005,44.525804,86.27966)" d="M-35.70819-12.99825H-20.98541V-3.7550202H-35.70819Z" fill="#ffffff"/>
<use data-text="&#x2212;" xlink:href="#font_2_1" transform="matrix(9.962899,0,0,-9.963098,9.812759,97.452228)"/>
<use data-text="4" xlink:href="#font_3_1" transform="matrix(9.962899,0,0,-9.963098,17.56099,97.452228)"/>
<path transform="matrix(1.00003,0,0,-1.00005,44.525804,86.27966)" stroke-width=".3985" stroke-linecap="butt" stroke-miterlimit="10" stroke-linejoin="miter" fill="none" stroke="#000000" d="M28.3468 .56694V-.56694"/>
<path transform="matrix(1.00003,0,0,-1.00005,44.525804,86.27966)" d="M24.85983-12.168H31.83377V-3.7550202H24.85983Z" fill="#ffffff"/>
<use data-text="4" xlink:href="#font_3_1" transform="matrix(9.962899,0,0,-9.963098,70.38258,97.452228)"/>
<path transform="matrix(1.00003,0,0,-1.00005,44.525804,86.27966)" stroke-width=".3985" stroke-linecap="butt" stroke-miterlimit="10" stroke-linejoin="miter" fill="none" stroke="#000000" d="M.56694 28.3468H-.56694"/>
<path transform="matrix(1.00003,0,0,-1.00005,44.525804,86.27966)" d="M-10.72896 23.97813H-3.7550202V32.71547H-10.72896Z" fill="#ffffff"/>
<use data-text="4" xlink:href="#font_4_57" transform="matrix(9.962899,0,0,-9.963098,34.79251,61.304414)"/>
<path transform="matrix(1.00003,0,0,-1.00005,44.525804,86.27966)" stroke-width=".3985" stroke-linecap="butt" stroke-miterlimit="10" stroke-linejoin="miter" fill="none" stroke="#000000" d="M.56694 56.69362H-.56694"/>
<path transform="matrix(1.00003,0,0,-1.00005,44.525804,86.27966)" d="M-10.72896 52.27016H-3.7550202V61.117074H-10.72896Z" fill="#ffffff"/>
<use data-text="8" xlink:href="#font_4_51" transform="matrix(9.962899,0,0,-9.963098,34.79251,32.790994)"/>
<path transform="matrix(1.00003,0,0,-1.00005,44.525804,86.27966)" stroke-width="1.19553" stroke-linecap="butt" stroke-miterlimit="10" stroke-linejoin="miter" fill="none" stroke="#ff0000" d="M-23.50388-14.17307C-23.50388-14.17307-22.08876-5.02718-21.54524-1.72235-21.00172 1.58244-20.13011 6.6414-19.58661 9.6458-19.04309 12.65019-18.17148 17.22726-17.62796 19.93123-17.08444 22.63518-16.21284 26.73048-15.66933 29.134-15.12581 31.53754-14.25418 35.15106-13.7107 37.25417-13.16718 39.35724-12.29555 42.489-11.75204 44.29166-11.20853 46.0943-10.33691 48.7442-9.7934 50.24641-9.2499 51.74863-8.37828 53.91675-7.83476 55.11852-7.29126 56.3203-6.41963 58.00664-5.87611 58.90797-5.3326 59.80933-4.461 61.0139-3.91748 61.6148-3.37396 62.21571-2.50237 62.93842-1.95885 63.23889-1.41533 63.53934-.5437 63.78029-.0002 63.7803 .54327 63.78033 1.4149 63.53949 1.9584 63.23909 2.50192 62.93869 3.37354 62.21606 3.91705 61.61523 4.46056 61.0144 5.33218 59.81001 5.87569 58.90874 6.41919 58.00748 7.29082 56.32121 7.83434 55.11949 8.37785 53.91777 9.24945 51.74974 9.79297 50.24759 10.33649 48.74545 11.2081 46.09564 11.7516 44.29308 12.29512 42.4905 13.16673 39.3589 13.71025 37.25589 14.25377 35.15286 15.12538 31.53943 15.66888 29.13597 16.2124 26.7325 17.08401 22.63728 17.62752 19.9334 18.17104 17.2295 19.04266 12.6525 19.58618 9.64818 20.12968 6.64384 21.0013 1.58508 21.54482-1.71964 22.08833-5.02441 23.50345-14.17026 23.50345-14.17026"/>
</svg>
