<svg xmlns="http://www.w3.org/2000/svg" xmlns:xlink="http://www.w3.org/1999/xlink" version="1.1" width="112" height="103" viewBox="0 0 112 103">
<defs>
<path id="font_1_2" d="M.33399964 .30233766C.33999635 .32835389 .36299134 .42037965 .43299867 .42037965 .43798829 .42037965 .46199037 .42037965 .48298646 .40734864 .45498658 .402359 .43499757 .37734986 .43499757 .35334779 .43499757 .33735658 .44599916 .31835938 .47299195 .31835938 .49499513 .31835938 .5269928 .3363495 .5269928 .37635804 .5269928 .42837525 .46798707 .4423828 .43399049 .4423828 .37599183 .4423828 .34098817 .38935853 .32899476 .36634828 .3039856 .43237306 .25 .4423828 .22099304 .4423828 .116989139 .4423828 .05999756 .3133545 .05999756 .28834535 .05999756 .27833558 .069992069 .27833558 .07199097 .27833558 .07998657 .27833558 .08299255 .28033448 .084991458 .28933717 .11898804 .39535523 .18499756 .42037965 .21899414 .42037965 .23799134 .42037965 .272995 .4113617 .272995 .35334779 .272995 .32235719 .2559967 .25532533 .21899414 .11528015 .20298767 .053268434 .16799927 .011245728 .12399292 .011245728 .117996219 .011245728 .09498596 .011245728 .07398987 .024276734 .09899902 .029266358 .12098694 .05027771 .12098694 .07827759 .12098694 .105270389 .09899902 .11328125 .083999637 .11328125 .053985597 .11328125 .0289917 .08728027 .0289917 .055267335 .0289917 .009246826 .07899475-.0107421879 .12298584-.0107421879 .18899536-.0107421879 .22499085 .059280397 .22799683 .0652771 .23999024 .028274537 .27598573-.0107421879 .33599855-.0107421879 .43899537-.0107421879 .49598695 .118270877 .49598695 .14328003 .49598695 .1532898 .4869995 .1532898 .48399354 .1532898 .47499085 .1532898 .47299195 .14929199 .47099305 .14228821 .43798829 .03527832 .36999513 .011245728 .33799745 .011245728 .29899598 .011245728 .2829895 .043273927 .2829895 .07727051 .2829895 .09927368 .2889862 .121276859 .2999878 .16529846L.33399964 .30233766Z"/>
<path id="font_1_3" d="M.48599244 .38136292C.48999024 .39537049 .48999024 .39736939 .48999024 .40437318 .48999024 .42237855 .47599793 .43138124 .46099855 .43138124 .45098878 .43138124 .43499757 .42536927 .42599488 .41036988 .42399598 .405365 .41600038 .37435914 .4119873 .35635377 .40499879 .33035279 .397995 .30334474 .3919983 .27633668L.34700013 .09628296C.34298707 .08126831 .2999878 .011245728 .23399353 .011245728 .18299866 .011245728 .17199707 .055267335 .17199707 .0922699 .17199707 .1382904 .18899536 .20030213 .22299195 .28833009 .23899842 .3293457 .24299622 .3403473 .24299622 .36035157 .24299622 .405365 .21099854 .4423828 .16099549 .4423828 .06599426 .4423828 .0289917 .29733277 .0289917 .28833009 .0289917 .27833558 .038986207 .27833558 .040985109 .27833558 .050994874 .27833558 .051986696 .28033448 .056991579 .29634095 .083999637 .3903656 .12399292 .42037965 .1579895 .42037965 .1659851 .42037965 .18299866 .42037965 .18299866 .3883667 .18299866 .36335755 .17298889 .3373413 .1659851 .31834413 .12599182 .21231079 .10798645 .1552887 .10798645 .10827637 .10798645 .019256592 .17098999-.0107421879 .22999573-.0107421879 .2689972-.0107421879 .30299378 .0062561037 .33099366 .03425598 .31799317-.017745972 .30599977-.06674194 .2659912-.11973572 .23999024-.15385437 .20199585-.18309021 .1559906-.18309021 .14199829-.18309021 .09700012-.18005371 .07998657-.14074707 .09599304-.14074707 .10899353-.14074707 .12298584-.1287384 .1329956-.11973572 .14299011-.10673523 .14299011-.08773804 .14299011-.056747438 .115997318-.052734376 .10598755-.052734376 .08299255-.052734376 .049987794-.068740848 .049987794-.11773682 .049987794-.16796875 .09399414-.20507813 .1559906-.20507813 .25898744-.20507813 .3619995-.11373901 .3899994-.00074768069L.48599244 .38136292Z"/>
<path id="font_2_51" d="M.45700074 .16764832C.45700074 .20367432 .44599916 .24871826 .4079895 .29074098 .3889923 .31176759 .37298585 .32176209 .30899049 .36180116 .3809967 .39881898 .42999269 .4508667 .42999269 .51690676 .42999269 .6089783 .34098817 .6660156 .25 .6660156 .1499939 .6660156 .068984989 .5919647 .068984989 .49890138 .068984989 .48088075 .070999149 .43585206 .11299133 .38882447 .12399292 .3768158 .16099549 .35179139 .18598938 .33477784 .12799073 .30575563 .041992189 .24971009 .041992189 .15063477 .041992189 .044555665 .14399719-.022460938 .24899292-.022460938 .3619995-.022460938 .45700074 .060577394 .45700074 .16764832M.38598634 .51690676C.38598634 .45986939 .34700013 .41183473 .2869873 .3768158L.16299439 .4568634C.116989139 .4868927 .11299133 .5209198 .11299133 .53793337 .11299133 .5989685 .17799378 .64100649 .24899292 .64100649 .32199098 .64100649 .38598634 .588974 .38598634 .51690676M.40699769 .13162232C.40699769 .05757141 .33198548 .0055389406 .25 .0055389406 .1639862 .0055389406 .09199524 .06758118 .09199524 .15063477 .09199524 .2086792 .12399292 .2727356 .20899964 .31976319L.33198548 .24171448C.3600006 .22268677 .40699769 .19267273 .40699769 .13162232Z"/>
<path id="font_2_64" d="M.27598573 .18710327V.24511719H.010986328V.18710327H.27598573Z"/>
<path id="font_2_57" d="M.47099305 .16503906V.19602967H.37098695V.6507721C.37098695 .6707611 .37098695 .6767578 .35499574 .6767578 .34599305 .6767578 .34298707 .6767578 .33499146 .6647644L.027999878 .19602967V.16503906H.2939911V.07800293C.2939911 .041992189 .2919922 .0309906 .21798706 .0309906H.19699097V0C.23799134 .0029907227 .2899933 .0029907227 .33198548 .0029907227 .37399293 .0029907227 .4269867 .0029907227 .46798707 0V.0309906H.44699098C.37298585 .0309906 .37098695 .041992189 .37098695 .07800293V.16503906H.47099305M.2999878 .19602967H.055999757L.2999878 .56881716V.19602967Z"/>
<path id="font_1_1" d="M.7630005 .60565188C.7719879 .6416168 .7739868 .6516113 .8470001 .6516113 .8730011 .6516113 .8809967 .6516113 .8809967 .6716156 .8809967 .6826172 .8699951 .6826172 .86698916 .6826172 .83898928 .6826172 .7669983 .6796112 .7389984 .6796112 .70999148 .6796112 .6389923 .6826172 .6100006 .6826172 .60198977 .6826172 .59098818 .6826172 .59098818 .6626129 .59098818 .6516113 .59999087 .6516113 .61898806 .6516113 .62098696 .6516113 .6399994 .6516113 .6569977 .6496124 .6749878 .6476135 .6839905 .6466217 .6839905 .6336212 .6839905 .6296234 .68299868 .6276245 .6799927 .6146393L.6199951 .37083436H.31498719L.37399293 .60565188C.3829956 .6416168 .38598634 .6516113 .45799256 .6516113 .48399354 .6516113 .49198915 .6516113 .49198915 .6716156 .49198915 .6826172 .48098756 .6826172 .47799684 .6826172 .44999696 .6826172 .37799073 .6796112 .34999085 .6796112 .32099916 .6796112 .25 .6826172 .22099304 .6826172 .21299744 .6826172 .20199585 .6826172 .20199585 .6626129 .20199585 .6516113 .21099854 .6516113 .22999573 .6516113 .23199463 .6516113 .25099183 .6516113 .2679901 .6496124 .28599549 .6476135 .29499818 .6466217 .29499818 .6336212 .29499818 .6296234 .2939911 .6266327 .29100038 .6146393L.15699768 .07797241C.14698792 .038986207 .14498902 .0309906 .06599426 .0309906 .04798889 .0309906 .038986207 .0309906 .038986207 .010986328 .038986207 0 .050994874 0 .052993776 0 .08099365 0 .1519928 .0029907227 .17999268 .0029907227 .20098877 .0029907227 .22299195 .0019989014 .24398804 .0019989014 .2659912 .0019989014 .28799439 0 .30899049 0 .31698609 0 .32899476 0 .32899476 .019989014 .32899476 .0309906 .31999208 .0309906 .30099488 .0309906 .2639923 .0309906 .23599243 .0309906 .23599243 .048980714 .23599243 .054977418 .23799134 .0599823 .23899842 .065979007L.30699159 .33984376H.6119995C.56999209 .17391968 .5469971 .07896423 .54299929 .0639801 .5329895 .03199768 .5139923 .0309906 .45199586 .0309906 .43699647 .0309906 .42799378 .0309906 .42799378 .010986328 .42799378 0 .43998719 0 .44198609 0 .46998597 0 .54100039 .0029907227 .56900027 .0029907227 .58999636 .0029907227 .6119995 .0019989014 .6329956 .0019989014 .6549988 .0019989014 .6769867 0 .69799807 0 .70599368 0 .71798709 0 .71798709 .019989014 .71798709 .0309906 .70899966 .0309906 .6899872 .0309906 .6529999 .0309906 .625 .0309906 .625 .048980714 .625 .054977418 .6269989 .0599823 .6279907 .065979007L.7630005 .60565188Z"/>
<path id="font_3_1" d="M.33099366-.2400055C.33099366-.23701477 .33099366-.23500061 .31399537-.21800232 .18899536-.0920105 .15699768 .09700012 .15699768 .25 .15699768 .42399598 .19499207 .59799197 .31799317 .72299197 .33099366 .73498538 .33099366 .7369995 .33099366 .73999026 .33099366 .746994 .32699586 .75 .32099916 .75 .31098939 .75 .22099304 .6819916 .1619873 .5549927 .11099243 .44499208 .09899902 .33399964 .09899902 .25 .09899902 .17199707 .10998535 .050994874 .16499329-.06201172 .22499085-.18501282 .31098939-.25 .32099916-.25 .32699586-.25 .33099366-.24700928 .33099366-.2400055Z"/>
<path id="font_3_2" d="M.2889862 .25C.2889862 .32798768 .27799989 .44898988 .22299195 .56199648 .16299439 .68499758 .07699585 .75 .066986087 .75 .06098938 .75 .056991579 .74598696 .056991579 .73999026 .056991579 .7369995 .056991579 .73498538 .07598877 .71699526 .17399597 .6179962 .23098755 .45899964 .23098755 .25 .23098755 .07899475 .19400025-.09700012 .069992069-.2230072 .056991579-.23500061 .056991579-.23701477 .056991579-.2400055 .056991579-.2460022 .06098938-.25 .066986087-.25 .07699585-.25 .16699219-.18200684 .22599793-.055007936 .2769928 .054992677 .2889862 .16600037 .2889862 .25Z"/>
<path id="font_4_1" d="M.74398806 .2263794C.7599945 .2263794 .7839966 .2263794 .7839966 .25038148 .7839966 .27539063 .7609863 .27539063 .74398806 .27539063H.147995C.13198853 .27539063 .10798645 .27539063 .10798645 .25138856 .10798645 .2263794 .1309967 .2263794 .147995 .2263794H.74398806Z"/>
<path id="font_5_1" d="M.33499146 .63612368C.33499146 .6630554 .33299256 .6640625 .30499269 .6640625 .24099732 .6014404 .1499939 .6004486 .10899353 .6004486V.5644531C.1329956 .5644531 .19898987 .5644531 .2539978 .592453V.08203125C.2539978 .04899597 .2539978 .035995485 .1539917 .035995485H.115997318V0C.13398743 .0009918213 .25698854 .0039978029 .2939911 .0039978029 .32499696 .0039978029 .45098878 .0009918213 .47299195 0V.035995485H.43499757C.33499146 .035995485 .33499146 .04899597 .33499146 .08203125V.63612368Z"/>
</defs>
<path transform="matrix(1.00003,0,0,-1,32.25746,71.735)" stroke-width=".3985" stroke-linecap="butt" stroke-miterlimit="10" stroke-linejoin="miter" fill="none" stroke="#00aeef" d="M-27.21355-27.21355H54.42711M-27.21355-13.60677H54.42711M-27.21355 0H54.42711M-27.21355 13.60677H54.42711M-27.21355 27.21355H54.42711M-27.21355 40.82033H54.42711M-27.21355 54.42471H54.42711M-27.21355-27.21355V54.42711M-13.60677-27.21355V54.42711M0-27.21355V54.42711M13.60677-27.21355V54.42711M27.21355-27.21355V54.42711M40.82033-27.21355V54.42711M54.42471-27.21355V54.42711M54.42711 54.42711"/>
<path transform="matrix(1.00003,0,0,-1,32.25746,71.735)" stroke-width=".79701" stroke-linecap="butt" stroke-miterlimit="10" stroke-linejoin="miter" fill="none" stroke="#000000" d="M-27.21355 0H58.43523"/>
<path transform="matrix(1.00003,0,0,-1,90.69444,71.735)" d="M1.0361 0C-.25902 .25902-1.55415 .77707-3.1083 1.68365-1.55415 .51805-1.55415-.51805-3.1083-1.68365-1.55415-.77707-.25902-.25902 1.0361 0Z"/>
<path transform="matrix(1.00003,0,0,-1,90.69444,71.735)" stroke-width=".79701" stroke-linecap="butt" stroke-linejoin="round" fill="none" stroke="#000000" d="M1.0361 0C-.25902 .25902-1.55415 .77707-3.1083 1.68365-1.55415 .51805-1.55415-.51805-3.1083-1.68365-1.55415-.77707-.25902-.25902 1.0361 0Z"/>
<use data-text="x" xlink:href="#font_1_2" transform="matrix(9.962899,0,0,-9.9626,95.84837,73.880008)"/>
<path transform="matrix(1.00003,0,0,-1,32.25746,71.735)" stroke-width=".79701" stroke-linecap="butt" stroke-miterlimit="10" stroke-linejoin="miter" fill="none" stroke="#000000" d="M0-27.21355V58.43523"/>
<path transform="matrix(0,-1,-1.00003,-0,32.25746,13.29977)" d="M1.0361 0C-.25902 .25902-1.55415 .77707-3.1083 1.68365-1.55415 .51805-1.55415-.51805-3.1083-1.68365-1.55415-.77707-.25902-.25902 1.0361 0Z"/>
<path transform="matrix(0,-1,-1.00003,-0,32.25746,13.29977)" stroke-width=".79701" stroke-linecap="butt" stroke-linejoin="round" fill="none" stroke="#000000" d="M1.0361 0C-.25902 .25902-1.55415 .77707-3.1083 1.68365-1.55415 .51805-1.55415-.51805-3.1083-1.68365-1.55415-.77707-.25902-.25902 1.0361 0Z"/>
<use data-text="y" xlink:href="#font_1_3" transform="matrix(9.962899,0,0,-9.9626,29.636384,6.2089998)"/>
<path transform="matrix(1.00003,0,0,-1,32.25746,71.735)" stroke-width=".79701" stroke-linecap="butt" stroke-miterlimit="10" stroke-linejoin="miter" fill="none" stroke="#000000" d="M54.42711 .68036V-.68027"/>
<path transform="matrix(1.00003,0,0,-1,32.25746,71.735)" d="M50.94014-11.91824H57.914079V-3.071329H50.94014Z" fill="#ffffff"/>
<use data-text="8" xlink:href="#font_2_51" transform="matrix(9.962899,0,0,-9.9626,84.19502,82.438)"/>
<path transform="matrix(1.00003,0,0,-1,32.25746,71.735)" stroke-width=".79701" stroke-linecap="butt" stroke-miterlimit="10" stroke-linejoin="miter" fill="none" stroke="#000000" d="M.68036 54.42711H-.68027"/>
<path transform="matrix(1.00003,0,0,-1,32.25746,71.735)" d="M-10.04526 50.00365H-3.0713206V58.850564H-10.04526Z" fill="#ffffff"/>
<use data-text="8" xlink:href="#font_2_51" transform="matrix(9.962899,0,0,-9.9626,23.20819,20.515999)"/>
<path transform="matrix(1.00003,0,0,-1,32.25746,71.735)" stroke-width=".79701" stroke-linecap="butt" stroke-miterlimit="10" stroke-linejoin="miter" fill="none" stroke="#000000" d="M-27.21355 .68036V-.68027"/>
<path transform="matrix(1.00003,0,0,-1,32.25746,71.735)" d="M-32.3593-11.80865H-22.06778V-3.07131H-32.3593Z" fill="#ffffff"/>
<use data-text="-" xlink:href="#font_2_64" transform="matrix(9.962899,0,0,-9.9626,.89351657,82.547)"/>
<use data-text="4" xlink:href="#font_2_57" transform="matrix(9.962899,0,0,-9.9626,4.2111589,82.547)"/>
<path transform="matrix(1.00003,0,0,-1,32.25746,71.735)" stroke-width=".79701" stroke-linecap="butt" stroke-miterlimit="10" stroke-linejoin="miter" fill="none" stroke="#000000" d="M.68036-27.21355H-.68027"/>
<path transform="matrix(1.00003,0,0,-1,32.25746,71.735)" d="M-13.36285-31.58221H-3.07133V-22.844872H-13.36285Z" fill="#ffffff"/>
<use data-text="-" xlink:href="#font_2_64" transform="matrix(9.962899,0,0,-9.9626,19.89009,102.321)"/>
<use data-text="4" xlink:href="#font_2_57" transform="matrix(9.962899,0,0,-9.9626,23.207734,102.321)"/>
<path transform="matrix(1.00003,0,0,-1,32.25746,71.735)" stroke-width=".79701" stroke-linecap="butt" stroke-miterlimit="10" stroke-linejoin="miter" fill="none" stroke="#000000" d="M27.21355 .68036V-.68027"/>
<path transform="matrix(1.00003,0,0,-1,32.25746,71.735)" d="M23.72658-11.80865H30.70052V-3.07131H23.72658Z" fill="#ffffff"/>
<use data-text="4" xlink:href="#font_2_57" transform="matrix(9.962899,0,0,-9.9626,56.9812,82.547)"/>
<path transform="matrix(1.00003,0,0,-1,32.25746,71.735)" stroke-width=".79701" stroke-linecap="butt" stroke-miterlimit="10" stroke-linejoin="miter" fill="none" stroke="#000000" d="M.68036 27.21355H-.68027"/>
<path transform="matrix(1.00003,0,0,-1,32.25746,71.735)" d="M-10.04526 22.84488H-3.0713206V31.582219H-10.04526Z" fill="#ffffff"/>
<use data-text="4" xlink:href="#font_2_57" transform="matrix(9.962899,0,0,-9.9626,23.20819,47.894)"/>
<path transform="matrix(1.00003,0,0,-1,32.25746,71.735)" stroke-width=".79701" stroke-linecap="butt" stroke-dasharray="2.98883,2.98883" stroke-miterlimit="10" stroke-linejoin="miter" fill="none" stroke="#a9a9a9" d="M-27.21355-27.21355 27.21355 27.21355"/>
<path transform="matrix(1.00003,0,0,-1,32.25746,71.735)" stroke-width=".79701" stroke-linecap="butt" stroke-dasharray="2.98883,1.99255" stroke-miterlimit="10" stroke-linejoin="miter" fill="none" stroke="#0000ff" d="M-27.2095 9.61096C-27.2095 9.61096-25.17259 9.88644-24.42798 9.99225-23.68335 10.09805-22.53392 10.26775-21.84276 10.37355-21.15158 10.47937-20.08614 10.64903-19.44647 10.75487-18.8068 10.86067-17.82263 11.03035-17.23248 11.13615-16.64235 11.24196-15.73578 11.41165-15.19312 11.51746-14.65042 11.62326-13.81842 11.79294-13.32127 11.89874-12.82414 12.00456-12.06367 12.17424-11.61005 12.28004-11.15642 12.38586-10.46396 12.55554-10.05185 12.66136-9.63974 12.76717-9.01237 12.93684-8.6398 13.04265-8.26723 13.14845-7.7016 13.31815-7.36655 13.42395-7.0315 13.52975-6.52444 13.69943-6.22493 13.80524-5.92543 13.91107-5.47385 14.08075-5.20789 14.18655-4.94194 14.29236-4.54256 14.46205-4.30815 14.56786-4.07376 14.67366-3.72333 14.84334-3.51846 14.94914-3.3136 15.05495-3.00894 15.22464-2.83165 15.33044-2.65436 15.43626-2.39236 15.60594-2.24066 15.71176-2.08894 15.81757-1.86635 15.98724-1.7382 16.09305-1.61005 16.19885-1.4236 16.36855-1.31703 16.47435-1.21048 16.58015-1.05717 16.74983-.97021 16.85564-.88324 16.96146-.75961 17.13113-.69022 17.23694-.62082 17.34276-.52382 17.51244-.47003 17.61826-.41626 17.72406-.34279 17.89374-.30258 17.99954-.2624 18.10535-.20897 18.27504-.1804 18.38084-.15182 18.48665-.11559 18.65633-.09663 18.76215-.07767 18.86797-.05513 19.03764-.0438 19.14345-.03247 19.24925-.02063 19.41895-.01494 19.52475-.00923 19.63055-.00475 19.80023-.00269 19.90604-.00061 20.01184-.0004 20.18153 0 20.28735 .0004 20.39316-.00044 20.56284 .00029 20.66866 .00107 20.77446 .00246 20.94414 .00558 21.04994 .00873 21.15575 .01546 21.32544 .02293 21.43124 .0304 21.53705 .04565 21.70673 .05946 21.81255 .07329 21.91835 .10033 22.08804 .12248 22.19385 .14464 22.29965 .18665 22.46933 .21913 22.57515 .2516 22.68095 .31178 22.85063 .35657 22.95644 .40137 23.06224 .48286 23.23193 .54199 23.33774 .60109 23.44354 .7072 23.61322 .78262 23.71904 .85803 23.82486 .99182 23.99454 1.08554 24.10034 1.17928 24.20615 1.3441 24.37584 1.45811 24.48164 1.57213 24.58745 1.77101 24.75713 1.9073 24.86293 2.04361 24.96873 2.2799 25.13843 2.44049 25.24425 2.60106 25.35005 2.87785 25.51973 3.06471 25.62553 3.25156 25.73135 3.5721 25.90103 3.78723 26.00684 4.00237 26.11264 4.3699 26.28233 4.61534 26.38814 4.86076 26.49396 5.27841 26.66362 5.55608 26.76944 5.83376 26.87524 6.3047 27.04494 6.61662 27.15074 6.92853 27.25655 7.45593 27.42622 7.80411 27.53204 8.1523 27.63785 8.73962 27.80753 9.12604 27.91333 9.51247 28.01913 10.16252 28.18883 10.58917 28.29463 11.01582 28.40045 11.73216 28.57011 12.20105 28.67593 12.66992 28.78175 13.45543 28.95143 13.96854 29.05724 14.48166 29.16304 15.3399 29.33273 15.89923 29.43854 16.45857 29.54434 17.39233 29.71402 17.99986 29.81982 18.60738 29.92564 19.62012 30.09532 20.2779 30.20114 20.93567 30.30695 22.03067 30.47662 22.74062 30.58243 23.45056 30.68825 24.63062 30.85793 25.39476 30.96373 26.15892 31.06953 27.42778 31.23923 28.24812 31.34503 29.06847 31.45085 30.42873 31.62053 31.30725 31.72633 32.18578 31.83214 33.64119 32.00183 34.5799 32.10764 35.51862 32.21344 37.07196 32.38312 38.07285 32.48894 39.07373 32.59474 40.7285 32.76442 41.79356 32.87022 42.85861 32.97603 44.61789 33.14572 45.74908 33.25153 46.8803 33.35735 48.74712 33.52702 49.9465 33.63283 51.14589 33.73865 54.39348 34.01413 54.39348 34.01413"/>
<path transform="matrix(1.00003,0,0,-1,32.25746,71.735)" d="M55.78825 28.03647H80.31463V39.99179H55.78825Z" fill="#ffffff"/>
<use data-text="H" xlink:href="#font_1_1" transform="matrix(9.962899,0,0,-9.9626,89.04417,40.211999)" fill="#0000ff"/>
<use data-text="(" xlink:href="#font_3_1" transform="matrix(9.962899,0,0,-9.9626,98.13444,40.211999)" fill="#0000ff"/>
<use data-text="x" xlink:href="#font_1_2" transform="matrix(9.962899,0,0,-9.9626,102.009548,40.211999)" fill="#0000ff"/>
<use data-text=")" xlink:href="#font_3_2" transform="matrix(9.962899,0,0,-9.9626,107.70373,40.211999)" fill="#0000ff"/>
<path transform="matrix(1.00003,0,0,-1,32.25746,71.735)" stroke-width=".79701" stroke-linecap="butt" stroke-miterlimit="10" stroke-linejoin="miter" fill="none" stroke="#ff0000" d="M9.61096-27.2095C9.61096-27.2095 9.88644-25.17259 9.99225-24.42798 10.09805-23.68335 10.26775-22.53392 10.37355-21.84276 10.47937-21.15158 10.64903-20.08614 10.75487-19.44647 10.86067-18.8068 11.03035-17.82263 11.13615-17.23248 11.24196-16.64235 11.41165-15.73578 11.51746-15.19312 11.62326-14.65042 11.79294-13.81842 11.89874-13.32127 12.00456-12.82414 12.17424-12.06367 12.28004-11.61005 12.38586-11.15642 12.55554-10.46396 12.66136-10.05185 12.76717-9.63974 12.93684-9.01237 13.04265-8.6398 13.14845-8.26723 13.31815-7.7016 13.42395-7.36655 13.52975-7.0315 13.69943-6.52444 13.80524-6.22493 13.91107-5.92543 14.08075-5.47385 14.18655-5.20789 14.29236-4.94194 14.46205-4.54256 14.56786-4.30815 14.67366-4.07376 14.84334-3.72333 14.94914-3.51846 15.05495-3.3136 15.22464-3.00894 15.33044-2.83165 15.43626-2.65436 15.60594-2.39236 15.71176-2.24066 15.81757-2.08894 15.98724-1.86635 16.09305-1.7382 16.19885-1.61005 16.36855-1.4236 16.47435-1.31703 16.58015-1.21048 16.74983-1.05717 16.85564-.97021 16.96146-.88324 17.13113-.75961 17.23694-.69022 17.34276-.62082 17.51244-.52382 17.61826-.47003 17.72406-.41626 17.89374-.34279 17.99954-.30258 18.10535-.2624 18.27504-.20897 18.38084-.1804 18.48665-.15182 18.65633-.11559 18.76215-.09663 18.86797-.07767 19.03764-.05513 19.14345-.0438 19.24925-.03247 19.41895-.02063 19.52475-.01494 19.63055-.00923 19.80023-.00475 19.90604-.00269 20.01184-.00061 20.18153-.0004 20.28735 0 20.39316 .0004 20.56284-.00044 20.66866 .00029 20.77446 .00107 20.94414 .00246 21.04994 .00558 21.15575 .00873 21.32544 .01546 21.43124 .02293 21.53705 .0304 21.70673 .04565 21.81255 .05946 21.91835 .07329 22.08804 .10033 22.19385 .12248 22.29965 .14464 22.46933 .18665 22.57515 .21913 22.68095 .2516 22.85063 .31178 22.95644 .35657 23.06224 .40137 23.23193 .48286 23.33774 .54199 23.44354 .60109 23.61322 .7072 23.71904 .78262 23.82486 .85803 23.99454 .99182 24.10034 1.08554 24.20615 1.17928 24.37584 1.3441 24.48164 1.45811 24.58745 1.57213 24.75713 1.77101 24.86293 1.9073 24.96873 2.04361 25.13843 2.2799 25.24425 2.44049 25.35005 2.60106 25.51973 2.87785 25.62553 3.06471 25.73135 3.25156 25.90103 3.5721 26.00684 3.78723 26.11264 4.00237 26.28233 4.3699 26.38814 4.61534 26.49396 4.86076 26.66362 5.27841 26.76944 5.55608 26.87524 5.83376 27.04494 6.3047 27.15074 6.61662 27.25655 6.92853 27.42622 7.45593 27.53204 7.80411 27.63785 8.1523 27.80753 8.73962 27.91333 9.12604 28.01913 9.51247 28.18883 10.16252 28.29463 10.58917 28.40045 11.01582 28.57011 11.73216 28.67593 12.20105 28.78175 12.66992 28.95143 13.45543 29.05724 13.96854 29.16304 14.48166 29.33273 15.3399 29.43854 15.89923 29.54434 16.45857 29.71402 17.39233 29.81982 17.99986 29.92564 18.60738 30.09532 19.62012 30.20114 20.2779 30.30695 20.93567 30.47662 22.03067 30.58243 22.74062 30.68825 23.45056 30.85793 24.63062 30.96373 25.39476 31.06953 26.15892 31.23923 27.42778 31.34503 28.24812 31.45085 29.06847 31.62053 30.42873 31.72633 31.30725 31.83214 32.18578 32.00183 33.64119 32.10764 34.5799 32.21344 35.51862 32.38312 37.07196 32.48894 38.07285 32.59474 39.07373 32.76442 40.7285 32.87022 41.79356 32.97603 42.85861 33.14572 44.61789 33.25153 45.74908 33.35735 46.8803 33.52702 48.74712 33.63283 49.9465 33.73865 51.14589 34.01413 54.39348 34.01413 54.39348"/>
<use data-text="H" xlink:href="#font_1_1" transform="matrix(9.962899,0,0,-9.9626,49.656984,13.456001)" fill="#ff0000"/>
<use data-text="&#x2212;" xlink:href="#font_4_1" transform="matrix(6.9740097,0,0,-6.9738,58.747255,9.841)" fill="#ff0000"/>
<use data-text="1" xlink:href="#font_5_1" transform="matrix(6.9740097,0,0,-6.9738,64.97444,9.841)" fill="#ff0000"/>
<use data-text="(" xlink:href="#font_3_1" transform="matrix(9.962899,0,0,-9.9626,69.44357,13.456001)" fill="#ff0000"/>
<use data-text="x" xlink:href="#font_1_2" transform="matrix(9.962899,0,0,-9.9626,73.31868,13.456001)" fill="#ff0000"/>
<use data-text=")" xlink:href="#font_3_2" transform="matrix(9.962899,0,0,-9.9626,79.01286,13.456001)" fill="#ff0000"/>
</svg>
