<?xml version="1.0" encoding="UTF-8"?>
<svg xmlns="http://www.w3.org/2000/svg" xmlns:xlink="http://www.w3.org/1999/xlink" width="93pt" height="94pt" viewBox="0 0 93 94" version="1.1">
<g id="surface1">
<path style="fill:none;stroke-width:0.3985;stroke-linecap:butt;stroke-linejoin:miter;stroke:rgb(0%,0%,0%);stroke-opacity:1;stroke-miterlimit:10;" d="M -45.356897 -0.00131528 L 44.358582 -0.00131528 " transform="matrix(1.00008,0,0,-1.00003,46.454276,47.154935)"/>
<path style="fill-rule:nonzero;fill:rgb(0%,0%,0%);fill-opacity:1;stroke-width:0.3985;stroke-linecap:butt;stroke-linejoin:round;stroke:rgb(0%,0%,0%);stroke-opacity:1;stroke-miterlimit:10;" d="M 0.796593 -0.00131528 C -0.199421 0.197897 -1.195435 0.596323 -2.390652 1.295521 C -1.195435 0.39711 -1.195435 -0.399741 -2.390652 -1.294245 C -1.195435 -0.598954 -0.199421 -0.200528 0.796593 -0.00131528 Z M 0.796593 -0.00131528 " transform="matrix(1.00008,0,0,-1.00003,90.816625,47.154935)"/>
<path style="fill:none;stroke-width:0.3985;stroke-linecap:butt;stroke-linejoin:miter;stroke:rgb(50%,50%,50%);stroke-opacity:1;stroke-miterlimit:10;" d="M -0.00115091 -45.355423 L -0.00115091 45.356699 " transform="matrix(1.00008,0,0,-1.00003,46.454276,47.154935)"/>
<path style="fill:none;stroke-width:1.19553;stroke-linecap:butt;stroke-linejoin:miter;stroke:rgb(100%,0%,0%);stroke-opacity:1;stroke-miterlimit:10;" d="M -0.00115091 -0.00131528 C -0.00115091 -0.00131528 0.510527 0.0455583 0.701918 0.100244 C 0.889403 0.15493 1.19016 0.291645 1.358115 0.401016 C 1.529977 0.510388 1.791674 0.725225 1.932288 0.885377 C 2.072902 1.041622 2.279917 1.334582 2.381471 1.537701 C 2.483025 1.736914 2.619733 2.092372 2.674416 2.32674 C 2.729099 2.557202 2.775971 2.96344 2.775971 3.221244 C 2.775971 3.475143 2.733005 3.908724 2.67051 4.178247 C 2.611921 4.44777 2.463496 4.893069 2.338506 5.162592 C 2.213516 5.432115 1.963536 5.869602 1.776051 6.123501 C 1.588566 6.381306 1.233125 6.787544 0.983145 7.018005 C 0.729259 7.248467 0.276171 7.600019 -0.0323984 7.795326 C -0.340967 7.986726 -0.887799 8.267968 -1.247145 8.412495 C -1.610397 8.553116 -2.231441 8.744516 -2.637659 8.826545 C -3.043876 8.908574 -3.731321 8.990602 -4.168786 9.002321 C -4.606251 9.014039 -5.336662 8.974978 -5.797562 8.908574 C -6.254557 8.842169 -7.008403 8.674206 -7.477115 8.525773 C -7.941922 8.373433 -8.695768 8.068755 -9.152763 7.830481 C -9.613663 7.596113 -10.340168 7.146908 -10.777633 6.822699 C -11.211192 6.502396 -11.890825 5.91257 -12.285324 5.506332 C -12.68373 5.100094 -13.285244 4.37746 -13.628967 3.893099 C -13.968783 3.404833 -14.472649 2.561108 -14.746065 2.002531 C -15.019481 1.443954 -15.398357 0.490857 -15.589748 -0.126312 C -15.777233 -0.747387 -16.015495 -1.790324 -16.113143 -2.458273 C -16.206886 -3.126222 -16.285004 -4.235563 -16.277193 -4.938667 C -16.265475 -5.637865 -16.167826 -6.790174 -16.046742 -7.508903 C -15.925658 -8.227631 -15.640525 -9.395565 -15.402263 -10.110387 C -15.164 -10.825209 -14.687476 -11.977518 -14.332036 -12.67281 C -13.976595 -13.368102 -13.30868 -14.473537 -12.836062 -15.129768 C -12.363443 -15.785998 -11.508043 -16.809405 -10.922152 -17.407043 C -10.336262 -18.004681 -9.305094 -18.91481 -8.613743 -19.434326 C -7.926298 -19.953842 -6.731081 -20.72335 -5.945988 -21.149118 C -5.160894 -21.570981 -3.825064 -22.172525 -2.957946 -22.48111 C -2.094733 -22.7936 -0.641725 -23.199838 0.287888 -23.383426 C 1.213596 -23.567015 2.756441 -23.758415 3.729019 -23.805289 C 4.701598 -23.848256 6.299126 -23.809195 7.29514 -23.703729 C 8.291154 -23.60217 9.912119 -23.317022 10.908133 -23.063123 C 11.904147 -22.805319 13.505581 -22.270178 14.478159 -21.860035 C 15.450738 -21.449891 16.993583 -20.664758 17.91929 -20.098369 C 18.844998 -19.535885 20.2941 -18.504666 21.145595 -17.79375 C 22.000995 -17.082834 23.31339 -15.817247 24.071142 -14.969616 C 24.828894 -14.118079 25.969428 -12.641561 26.610001 -11.665028 C 27.250575 -10.688495 28.180188 -9.020576 28.684054 -7.938577 C 29.184014 -6.852672 29.879271 -5.024602 30.2269 -3.852762 C 30.570622 -2.680922 31.004181 -0.727856 31.176042 0.510388 C 31.35181 1.748632 31.492423 3.787634 31.484611 5.064939 C 31.4768 6.342244 31.31275 8.428119 31.113547 9.717143 C 30.914345 11.006167 30.441726 13.088136 30.047226 14.361535 C 29.656633 15.634934 28.867633 17.67003 28.281743 18.896555 C 27.695852 20.126987 26.598284 22.060523 25.824908 23.212832 C 25.047626 24.365141 23.653207 26.15415 22.700158 27.2049 C 21.747109 28.251743 20.075368 29.853258 18.95827 30.767293 C 17.841172 31.685234 15.915545 33.048474 14.657833 33.81017 C 13.396215 34.56796 11.251855 35.657771 9.869153 36.235879 C 8.486451 36.817893 6.162419 37.603025 4.685974 37.98192 C 3.205624 38.360815 0.748789 38.806114 -0.797962 38.966266 C -2.344713 39.130323 -4.879667 39.216258 -6.461572 39.15376 C -8.047382 39.087356 -10.613583 38.802208 -12.199394 38.505342 C -13.781298 38.208476 -16.324064 37.540527 -17.874721 37.009293 C -19.425378 36.478059 -21.890025 35.431215 -23.370375 34.66952 C -24.850725 33.903918 -27.174758 32.489897 -28.553554 31.501646 C -29.93235 30.5173 -32.061086 28.751728 -33.303174 27.560358 C -34.541356 26.365081 -36.424018 24.279206 -37.498151 22.892529 C -38.572284 21.509758 -40.158095 19.134829 -41.033025 17.588001 C -41.907955 16.041172 -43.810146 11.74052 -43.810146 11.74052 " transform="matrix(1.00008,0,0,-1.00003,46.454276,47.154935)"/>
</g>
</svg>
