<svg xmlns="http://www.w3.org/2000/svg" xmlns:xlink="http://www.w3.org/1999/xlink" version="1.1" width="84pt" height="85pt" viewBox="0 0 84 85">
<path transform="matrix(1.00003,0,0,-1,32.84545,42.618)" stroke-width=".3985" stroke-linecap="butt" stroke-miterlimit="10" stroke-linejoin="miter" fill="none" stroke="#000000" d="M-31.7484 0H48.89423"/>
<path transform="matrix(1.00003,0,0,-1,81.74115,42.618)" d="M.797 0C-.19925 .19925-1.19551 .59775-2.39102 1.29512-1.19551 .3985-1.19551-.3985-2.39102-1.29512-1.19551-.59775-.19925-.19925 .797 0Z"/>
<path transform="matrix(1.00003,0,0,-1,81.74115,42.618)" stroke-width=".3985" stroke-linecap="butt" stroke-linejoin="round" fill="none" stroke="#000000" d="M.797 0C-.19925 .19925-1.19551 .59775-2.39102 1.29512-1.19551 .3985-1.19551-.3985-2.39102-1.29512-1.19551-.59775-.19925-.19925 .797 0Z"/>
<path transform="matrix(1.00003,0,0,-1,32.84545,42.618)" stroke-width=".3985" stroke-linecap="butt" stroke-miterlimit="10" stroke-linejoin="miter" fill="none" stroke="#929292" d="M0-40.8196V40.8196"/>
<path transform="matrix(1.00003,0,0,-1,32.84545,42.618)" stroke-width="1.19553" stroke-linecap="butt" stroke-miterlimit="10" stroke-linejoin="miter" fill="none" stroke="#ff0000" d="M39.68567 0C39.68567 0 39.56004 2.81584 39.40953 3.88106 39.25902 4.94629 38.89711 6.64713 38.60086 7.67738 38.30458 8.70766 37.70909 10.33357 37.27419 11.30656 36.83925 12.27956 36.02779 13.79471 35.46614 14.69006 34.90451 15.5854 33.89978 16.96 33.22629 17.7597 32.55278 18.55942 31.3801 19.765 30.61201 20.4539 29.84393 21.1428 28.53305 22.15811 27.69048 22.72493 26.84787 23.29175 25.43562 24.10303 24.53917 24.53917 23.6427 24.9753 22.15785 25.56696 21.22937 25.86827 20.3009 26.16959 18.78531 26.54427 17.84726 26.71086 16.90923 26.87746 15.39531 27.03406 14.4686 27.069 13.5419 27.10393 12.0635 27.0522 11.16815 26.96277 10.27281 26.87334 8.86145 26.628 8.01546 26.42435 7.16946 26.22069 5.85182 25.79997 5.07074 25.4949 4.28964 25.18983 3.08942 24.61656 2.38586 24.22565 1.68231 23.83476 .61667 23.1378 0 22.67752-.61667 22.21724-1.53493 21.42027-2.05885 20.90826-2.5828 20.39622-3.34744 19.53268-3.77623 18.98708-4.205 18.4415-4.81479 17.53777-5.14928 16.97595-5.48376 16.41412-5.9427 15.49942-6.18703 14.93782-6.43135 14.37624-6.74902 13.47496-6.91023 12.92842-7.07146 12.38187-7.26144 11.51741-7.34901 10.9986-7.43657 10.4798-7.51611 9.67027-7.54141 9.18921-7.5667 8.70815-7.55554 7.96748-7.53136 7.53136-7.50717 7.09523-7.42719 6.4328-7.36699 6.04585-7.3068 5.65889-7.1801 5.07904-7.09743 4.74234-7.01477 4.40565-6.86311 3.90733-6.77113 3.61913-6.67915 3.33093-6.52393 2.90945-6.43445 2.66513-6.34496 2.4208-6.20288 2.06567-6.12613 1.85817-6.04936 1.65067-5.93686 1.34917-5.88113 1.16957-5.8254 .98996-5.75375 .72594-5.72438 .56366-5.695 .40138-5.66936 .15639-5.66936 0-5.66936-.15639-5.695-.40138-5.72438-.56366-5.75375-.72594-5.8254-.98996-5.88113-1.16957-5.93686-1.34917-6.04936-1.65067-6.12613-1.85817-6.20288-2.06567-6.34496-2.4208-6.43445-2.66513-6.52393-2.90945-6.67915-3.33093-6.77113-3.61913-6.86311-3.90733-7.01477-4.40565-7.09743-4.74234-7.1801-5.07904-7.3068-5.65889-7.36699-6.04585-7.42719-6.4328-7.50717-7.09523-7.53136-7.53136-7.55554-7.96748-7.5667-8.70815-7.54141-9.18921-7.51611-9.67027-7.43657-10.4798-7.34901-10.9986-7.26144-11.51741-7.07146-12.38187-6.91023-12.92842-6.74902-13.47496-6.43135-14.37624-6.18703-14.93782-5.9427-15.49942-5.48376-16.41412-5.14928-16.97595-4.81479-17.53777-4.205-18.4415-3.77623-18.98708-3.34744-19.53268-2.5828-20.39622-2.05885-20.90826-1.53493-21.42027-.61667-22.21724 0-22.67752 .61667-23.1378 1.68231-23.83476 2.38586-24.22565 3.08942-24.61656 4.28964-25.18983 5.07074-25.4949 5.85182-25.79997 7.16946-26.22069 8.01546-26.42435 8.86145-26.628 10.27281-26.87334 11.16815-26.96277 12.0635-27.0522 13.5419-27.10393 14.4686-27.069 15.39531-27.03406 16.90923-26.87746 17.84726-26.71086 18.78531-26.54427 20.3009-26.16959 21.22937-25.86827 22.15785-25.56696 23.6427-24.9753 24.53917-24.53917 25.43562-24.10303 26.84787-23.29175 27.69048-22.72493 28.53305-22.15811 29.84393-21.1428 30.61201-20.4539 31.3801-19.765 32.55278-18.55942 33.22629-17.7597 33.89978-16.96 34.90451-15.5854 35.46614-14.69006 36.02779-13.79471 36.83925-12.27956 37.27419-11.30656 37.70909-10.33357 38.30458-8.70766 38.60086-7.67738 38.89711-6.64713 39.25902-4.94629 39.40953-3.88106 39.56004-2.81584 39.68567 0 39.68567 0"/>
</svg>
