<?xml version="1.0" encoding="UTF-8"?>
<svg xmlns="http://www.w3.org/2000/svg" xmlns:xlink="http://www.w3.org/1999/xlink" width="116pt" height="116pt" viewBox="0 0 116 116" version="1.1">
<g id="surface1">
<path style="fill:none;stroke-width:0.3985;stroke-linecap:butt;stroke-linejoin:miter;stroke:rgb(0%,0%,0%);stroke-opacity:1;stroke-miterlimit:10;" d="M -56.69253 -0.0001875 L 55.69863 -0.0001875 " transform="matrix(1.00003,0,0,-1,58.108293,57.492)"/>
<path style="fill-rule:nonzero;fill:rgb(0%,0%,0%);fill-opacity:1;stroke-width:0.3985;stroke-linecap:butt;stroke-linejoin:round;stroke:rgb(0%,0%,0%);stroke-opacity:1;stroke-miterlimit:10;" d="M 0.798121 -0.0001875 C -0.197943 0.199031 -1.194007 0.597469 -2.389284 1.296688 C -1.194007 0.39825 -1.194007 -0.398625 -2.389284 -1.297062 C -1.194007 -0.597844 -0.197943 -0.199406 0.798121 -0.0001875 Z M 0.798121 -0.0001875 " transform="matrix(1.00003,0,0,-1,113.807324,57.492)"/>
<path style="fill:none;stroke-width:0.3985;stroke-linecap:butt;stroke-linejoin:miter;stroke:rgb(50%,50%,50%);stroke-opacity:1;stroke-miterlimit:10;" d="M 0.00108179 -56.6955 L 0.00108179 56.695125 " transform="matrix(1.00003,0,0,-1,58.108293,57.492)"/>
<path style="fill:none;stroke-width:1.19553;stroke-linecap:butt;stroke-linejoin:miter;stroke:rgb(100%,0%,0%);stroke-opacity:1;stroke-miterlimit:10;" d="M 0.00108179 -0.0001875 C 0.00108179 -0.0001875 7.567261 0.140438 9.410956 0.230281 C 11.25465 0.320125 12.344461 0.519344 13.293652 0.652156 C 14.238936 0.784969 15.492805 1.031063 16.242782 1.199031 C 16.988853 1.363094 18.055228 1.652156 18.688021 1.839656 C 19.320815 2.031063 20.250474 2.355281 20.801239 2.566219 C 21.352004 2.777156 22.172292 3.132625 22.656652 3.359188 C 23.144919 3.589656 23.879272 3.972469 24.312852 4.218563 C 24.750339 4.464656 25.40657 4.870906 25.797183 5.132625 C 26.187796 5.390438 26.773716 5.816219 27.125268 6.089656 C 27.472914 6.363094 28.004148 6.808406 28.316639 7.093563 C 28.629129 7.374813 29.101771 7.839656 29.379107 8.128719 C 29.660348 8.421688 30.078304 8.89825 30.324391 9.199031 C 30.574383 9.499813 30.94156 9.988094 31.156397 10.292781 C 31.375141 10.601375 31.695443 11.097469 31.882938 11.409969 C 32.070432 11.718563 32.347768 12.222469 32.507919 12.538875 C 32.668071 12.855281 32.898532 13.363094 33.031341 13.683406 C 33.164149 13.999813 33.351644 14.511531 33.457109 14.831844 C 33.562575 15.14825 33.711008 15.663875 33.793037 15.980281 C 33.871159 16.300594 33.980531 16.812313 34.035217 17.132625 C 34.089903 17.449031 34.160213 17.96075 34.191462 18.277156 C 34.222711 18.589656 34.25396 19.097469 34.261773 19.409969 C 34.269585 19.722469 34.261773 20.218563 34.250054 20.527156 C 34.23443 20.83575 34.191462 21.324031 34.152401 21.624813 C 34.117246 21.9295 34.039123 22.409969 33.980531 22.702938 C 33.921939 22.999813 33.808661 23.468563 33.730539 23.753719 C 33.652416 24.042781 33.507889 24.495906 33.40633 24.777156 C 33.308676 25.0545 33.1329 25.495906 33.01181 25.765438 C 32.894626 26.031063 32.687601 26.452938 32.54698 26.71075 C 32.410266 26.968563 32.175898 27.374813 32.019652 27.620906 C 31.863407 27.867 31.59779 28.249813 31.42592 28.484188 C 31.25405 28.714656 30.96109 29.077938 30.773596 29.300594 C 30.586102 29.519344 30.269705 29.863094 30.066586 30.066219 C 29.859561 30.269344 29.519727 30.58575 29.297078 30.77325 C 29.078334 30.964656 28.715064 31.253719 28.484602 31.425594 C 28.250234 31.597469 27.867433 31.863094 27.621347 32.019344 C 27.375261 32.175594 26.969023 32.409969 26.711218 32.546688 C 26.453413 32.687313 26.031551 32.894344 25.762028 33.011531 C 25.496411 33.132625 25.055018 33.308406 24.773776 33.406063 C 24.496441 33.507625 24.043329 33.652156 23.754275 33.730281 C 23.469128 33.808406 23.000392 33.921688 22.703526 33.980281 C 22.40666 34.038875 21.926205 34.117 21.625433 34.152156 C 21.324661 34.191219 20.836394 34.234188 20.52781 34.249813 C 20.219225 34.261531 19.71924 34.269344 19.40675 34.261531 C 19.094259 34.253719 18.590368 34.222469 18.273971 34.191219 C 17.96148 34.159969 17.449777 34.089656 17.13338 34.034969 C 16.813077 33.980281 16.301374 33.870906 15.981071 33.792781 C 15.660768 33.71075 15.149065 33.562313 14.832668 33.456844 C 14.512365 33.351375 14.000662 33.163875 13.680359 33.031063 C 13.363962 32.89825 12.856165 32.667781 12.539768 32.507625 C 12.223371 32.347469 11.71948 32.070125 11.40699 31.882625 C 11.098405 31.699031 10.59842 31.374813 10.293742 31.159969 C 9.985157 30.941219 9.500797 30.574031 9.200025 30.327938 C 8.899252 30.077938 8.422704 29.659969 8.129744 29.378719 C 7.836784 29.101375 7.375861 28.628719 7.090713 28.316219 C 6.809471 28.003719 6.364172 27.472469 6.090743 27.124813 C 5.817314 26.77325 5.391545 26.187313 5.129834 25.796688 C 4.872029 25.406063 4.461885 24.749813 4.219705 24.312313 C 3.973619 23.878719 3.590818 23.144344 3.360356 22.659969 C 3.129894 22.171688 2.774436 21.351375 2.563505 20.800594 C 2.352574 20.249813 2.028365 19.320125 1.84087 18.687313 C 1.64947 18.0545 1.364322 16.988094 1.196358 16.242 C 1.032301 15.492 0.786214 14.242 0.653406 13.292781 C 0.516691 12.347469 0.321385 11.257625 0.231544 9.413875 C 0.141703 7.566219 0.00108179 -0.0001875 0.00108179 -0.0001875 " transform="matrix(1.00003,0,0,-1,58.108293,57.492)"/>
<path style="fill:none;stroke-width:1.19553;stroke-linecap:butt;stroke-linejoin:miter;stroke:rgb(100%,0%,0%);stroke-opacity:1;stroke-miterlimit:10;" d="M 0.00108179 -0.0001875 C 0.00108179 -0.0001875 -7.569004 -0.140812 -9.412698 -0.230656 C -11.256393 -0.3205 -12.346204 -0.519719 -13.291488 -0.652531 C -14.240678 -0.785344 -15.494547 -1.031437 -16.240618 -1.199406 C -16.990596 -1.363469 -18.05697 -1.652531 -18.685858 -1.840031 C -19.318651 -2.031437 -20.248311 -2.355656 -20.799075 -2.566594 C -21.34984 -2.777531 -22.170128 -3.133 -22.658395 -3.359562 C -23.146661 -3.590031 -23.877108 -3.972844 -24.314595 -4.218937 C -24.748176 -4.465031 -25.404406 -4.871281 -25.795019 -5.129094 C -26.185633 -5.390812 -26.775459 -5.816594 -27.123104 -6.090031 C -27.474656 -6.363469 -28.005891 -6.808781 -28.318381 -7.093937 C -28.630872 -7.375187 -29.099608 -7.840031 -29.380849 -8.129094 C -29.658185 -8.422062 -30.080047 -8.898625 -30.326133 -9.199406 C -30.57222 -9.500187 -30.943302 -9.988469 -31.15814 -10.293156 C -31.372977 -10.60175 -31.697186 -11.097844 -31.88468 -11.406437 C -32.072175 -11.718937 -32.34951 -12.222844 -32.509662 -12.53925 C -32.665907 -12.855656 -32.900275 -13.363469 -33.033083 -13.679875 C -33.161986 -14.000187 -33.353386 -14.511906 -33.458852 -14.832219 C -33.564318 -15.148625 -33.712751 -15.66425 -33.790873 -15.980656 C -33.872902 -16.300969 -33.978368 -16.812687 -34.03696 -17.133 C -34.091645 -17.449406 -34.161956 -17.961125 -34.193205 -18.277531 C -34.224454 -18.590031 -34.251797 -19.097844 -34.259609 -19.410344 C -34.267421 -19.718937 -34.263515 -20.218937 -34.247891 -20.527531 C -34.232266 -20.836125 -34.189299 -21.324406 -34.154144 -21.625187 C -34.115082 -21.929875 -34.03696 -22.410344 -33.978368 -22.703312 C -33.919776 -23.000187 -33.810404 -23.468937 -33.728375 -23.754094 C -33.650252 -24.043156 -33.505726 -24.496281 -33.408072 -24.773625 C -33.306513 -25.054875 -33.130737 -25.496281 -33.013553 -25.761906 C -32.892463 -26.031437 -32.685438 -26.453312 -32.548723 -26.711125 C -32.412008 -26.968937 -32.173734 -27.375187 -32.017489 -27.621281 C -31.86515 -27.867375 -31.599533 -28.250187 -31.427663 -28.484562 C -31.251887 -28.715031 -30.962833 -29.078312 -30.775339 -29.297062 C -30.583938 -29.519719 -30.271448 -29.859562 -30.064422 -30.066594 C -29.861304 -30.269719 -29.517564 -30.586125 -29.29882 -30.773625 C -29.080077 -30.961125 -28.716807 -31.254094 -28.482439 -31.425969 C -28.251977 -31.597844 -27.86527 -31.863469 -27.619183 -32.019719 C -27.373097 -32.175969 -26.970765 -32.410344 -26.712961 -32.547062 C -26.455156 -32.687687 -26.033293 -32.894719 -25.76377 -33.011906 C -25.494247 -33.133 -25.052854 -33.308781 -24.775519 -33.406437 C -24.498183 -33.508 -24.041166 -33.652531 -23.756018 -33.730656 C -23.466964 -33.808781 -22.998228 -33.922062 -22.705268 -33.980656 C -22.408402 -34.03925 -21.927948 -34.117375 -21.627176 -34.152531 C -21.322497 -34.191594 -20.834231 -34.234562 -20.529552 -34.250187 C -20.220968 -34.261906 -19.720983 -34.269719 -19.408492 -34.261906 C -19.096002 -34.254094 -18.59211 -34.222844 -18.275714 -34.191594 C -17.959317 -34.160344 -17.45152 -34.090031 -17.131217 -34.035344 C -16.81482 -33.980656 -16.29921 -33.871281 -15.982814 -33.793156 C -15.662511 -33.711125 -15.150807 -33.562687 -14.830505 -33.457219 C -14.510202 -33.35175 -13.998498 -33.16425 -13.682101 -33.031437 C -13.361799 -32.898625 -12.854001 -32.668156 -12.537605 -32.508 C -12.225114 -32.347844 -11.721223 -32.0705 -11.408732 -31.883 C -11.096242 -31.6955 -10.600163 -31.375187 -10.291578 -31.156437 C -9.9869 -30.941594 -9.498633 -30.574406 -9.197861 -30.324406 C -8.897089 -30.078312 -8.424447 -29.660344 -8.131487 -29.379094 C -7.838527 -29.10175 -7.373697 -28.629094 -7.092455 -28.316594 C -6.807308 -28.004094 -6.362009 -27.472844 -6.088579 -27.125187 C -5.819056 -26.773625 -5.389381 -26.187687 -5.131577 -25.797062 C -4.869866 -25.406437 -4.463628 -24.750187 -4.217542 -24.312687 C -3.971455 -23.879094 -3.588654 -23.144719 -3.362099 -22.660344 C -3.131637 -22.172062 -2.776179 -21.35175 -2.565247 -20.800969 C -2.354316 -20.250187 -2.030107 -19.3205 -1.838707 -18.687687 C -1.651212 -18.054875 -1.362159 -16.988469 -1.198101 -16.242375 C -1.034043 -15.492375 -0.787957 -14.242375 -0.651242 -13.293156 C -0.518434 -12.343937 -0.323127 -11.258 -0.22938 -9.410344 C -0.139539 -7.566594 0.00108179 -0.0001875 0.00108179 -0.0001875 " transform="matrix(1.00003,0,0,-1,58.108293,57.492)"/>
</g>
</svg>
