<svg xmlns="http://www.w3.org/2000/svg" xmlns:xlink="http://www.w3.org/1999/xlink" version="1.1" width="82pt" height="75pt" viewBox="0 0 82 75">
<path transform="matrix(1,0,0,-1.00009,40.781,37.518938)" stroke-width=".3985" stroke-linecap="butt" stroke-miterlimit="10" stroke-linejoin="miter" fill="none" stroke="#000000" d="M-35.71686 0H34.7206"/>
<path transform="matrix(1,0,0,-1.00009,75.5016,37.518938)" d="M.797 0C-.19925 .19925-1.19551 .59775-2.39102 1.29512-1.19551 .3985-1.19551-.3985-2.39102-1.29512-1.19551-.59775-.19925-.19925 .797 0Z"/>
<path transform="matrix(1,0,0,-1.00009,75.5016,37.518938)" stroke-width=".3985" stroke-linecap="butt" stroke-linejoin="round" fill="none" stroke="#000000" d="M.797 0C-.19925 .19925-1.19551 .59775-2.39102 1.29512-1.19551 .3985-1.19551-.3985-2.39102-1.29512-1.19551-.59775-.19925-.19925 .797 0Z"/>
<path transform="matrix(1,0,0,-1.00009,40.781,37.518938)" stroke-width=".3985" stroke-linecap="butt" stroke-miterlimit="10" stroke-linejoin="miter" fill="none" stroke="#929292" d="M0-35.71686V35.71686"/>
<path transform="matrix(1,0,0,-1.00009,40.781,37.518938)" stroke-width="1.19553" stroke-linecap="butt" stroke-miterlimit="10" stroke-linejoin="miter" fill="none" stroke="#ff0000" d="M0 0C0 0 3.168 .0966 4.36084 .21405 5.5537 .3315 7.45604 .61725 8.59729 .84653 9.73851 1.0758 11.52884 1.53653 12.58604 1.8666 13.64325 2.19666 15.27324 2.81068 16.21693 3.22545 17.16063 3.64021 18.58315 4.37688 19.38759 4.8559 20.19202 5.33493 21.36989 6.15854 22.01477 6.678 22.65965 7.19743 23.56541 8.06636 24.03549 8.5997 24.50557 9.13306 25.11665 10.00267 25.40283 10.52203 25.689 11.04138 25.99843 11.86569 26.09799 12.34293 26.19756 12.82014 26.2038 13.55373 26.1204 13.96155 26.03702 14.36937 25.75365 14.96938 25.49698 15.28226 25.24031 15.59514 24.68524 16.02104 24.27043 16.21661 23.85564 16.4122 23.05984 16.63177 22.50739 16.69197 21.95491 16.75218 20.95403 16.73914 20.28865 16.6505 19.62328 16.56186 18.46193 16.29854 17.71173 16.05313 16.96152 15.80771 15.68729 15.28653 14.88168 14.88168 14.07607 14.47685 12.73538 13.69542 11.90541 13.13528 11.07542 12.57513 9.72296 11.54965 8.89975 10.84448 8.07652 10.1393 6.7595 8.88779 5.97223 8.05289 5.18494 7.218 3.94998 5.77074 3.22545 4.82713 2.50092 3.88351 1.38853 2.27863 .75026 1.25197 .11197 .2253-.84186-1.4917-1.37488-2.57236-1.90788-3.65302-2.6774-5.43361-3.09131-6.5366-3.50523-7.63959-4.07187-9.43007-4.35812-10.52203-4.64438-11.61397-4.99873-13.3598-5.15442-14.40663-5.3101-15.45346-5.45198-17.09781-5.48021-18.06688-5.50842-19.03595-5.4485-20.53032-5.35788-21.39107-5.26727-22.25179-5.02284-23.54604-4.82713-24.27043-4.63141-24.99486-4.22974-26.04709-3.94727-26.6121-3.6648-27.17712-3.13864-27.95554-2.79126-28.34277-2.44388-28.73001-1.83089-29.20592-1.4436-29.40308-1.05634-29.60027-.40057-29.764 0-29.764 .40057-29.764 1.05634-29.60027 1.4436-29.40308 1.83089-29.20592 2.44388-28.73001 2.79126-28.34277 3.13864-27.95554 3.6648-27.17712 3.94727-26.6121 4.22974-26.04709 4.63141-24.99486 4.82713-24.27043 5.02284-23.54604 5.26727-22.25179 5.35788-21.39107 5.4485-20.53032 5.50842-19.03595 5.48021-18.06688 5.45198-17.09781 5.3101-15.45346 5.15442-14.40663 4.99873-13.3598 4.64438-11.61397 4.35812-10.52203 4.07187-9.43007 3.50523-7.63959 3.09131-6.5366 2.6774-5.43361 1.90788-3.65302 1.37488-2.57236 .84186-1.4917-.11197 .2253-.75026 1.25197-1.38853 2.27863-2.50092 3.88351-3.22545 4.82713-3.94998 5.77074-5.18494 7.218-5.97223 8.05289-6.7595 8.88779-8.07652 10.1393-8.89975 10.84448-9.72296 11.54965-11.07542 12.57513-11.90541 13.13528-12.73538 13.69542-14.07607 14.47685-14.88168 14.88168-15.68729 15.28653-16.96152 15.80771-17.71173 16.05313-18.46193 16.29854-19.62328 16.56186-20.28865 16.6505-20.95403 16.73914-21.95491 16.75218-22.50739 16.69197-23.05984 16.63177-23.85564 16.4122-24.27043 16.21661-24.68524 16.02104-25.24031 15.59514-25.49698 15.28226-25.75365 14.96938-26.03702 14.36937-26.1204 13.96155-26.2038 13.55373-26.19756 12.82014-26.09799 12.34293-25.99843 11.86569-25.689 11.04138-25.40283 10.52203-25.11665 10.00267-24.50557 9.13306-24.03549 8.5997-23.56541 8.06636-22.65965 7.19743-22.01477 6.678-21.36989 6.15854-20.19202 5.33493-19.38759 4.8559-18.58315 4.37688-17.16063 3.64021-16.21693 3.22545-15.27324 2.81068-13.64325 2.19666-12.58604 1.8666-11.52884 1.53653-9.73851 1.0758-8.59729 .84653-7.45604 .61725-5.5537 .3315-4.36084 .21405-3.168 .0966 0 0 0 0"/>
<path transform="matrix(1,0,0,-1.00009,40.781,37.518938)" stroke-width=".3985" stroke-linecap="butt" stroke-dasharray="2.98883,2.98883" stroke-miterlimit="10" stroke-linejoin="miter" fill="none" stroke="#929292" d="M-39.68535 22.91219 0 0 39.68535 22.91219"/>
</svg>
