<?xml version="1.0" encoding="UTF-8"?>
<svg xmlns="http://www.w3.org/2000/svg" xmlns:xlink="http://www.w3.org/1999/xlink" width="116pt" height="116pt" viewBox="0 0 116 116" version="1.1">
<g id="surface1">
<path style="fill:none;stroke-width:0.3985;stroke-linecap:butt;stroke-linejoin:miter;stroke:rgb(0%,0%,0%);stroke-opacity:1;stroke-miterlimit:10;" d="M -56.69253 -0.0001875 L 55.69863 -0.0001875 " transform="matrix(1.00003,0,0,-1,58.108293,57.492)"/>
<path style="fill-rule:nonzero;fill:rgb(0%,0%,0%);fill-opacity:1;stroke-width:0.3985;stroke-linecap:butt;stroke-linejoin:round;stroke:rgb(0%,0%,0%);stroke-opacity:1;stroke-miterlimit:10;" d="M 0.798121 -0.0001875 C -0.197943 0.199031 -1.194007 0.597469 -2.389284 1.296688 C -1.194007 0.39825 -1.194007 -0.398625 -2.389284 -1.297062 C -1.194007 -0.597844 -0.197943 -0.199406 0.798121 -0.0001875 Z M 0.798121 -0.0001875 " transform="matrix(1.00003,0,0,-1,113.807324,57.492)"/>
<path style="fill:none;stroke-width:0.3985;stroke-linecap:butt;stroke-linejoin:miter;stroke:rgb(50%,50%,50%);stroke-opacity:1;stroke-miterlimit:10;" d="M 0.00108179 -56.6955 L 0.00108179 56.695125 " transform="matrix(1.00003,0,0,-1,58.108293,57.492)"/>
<path style="fill:none;stroke-width:1.19553;stroke-linecap:butt;stroke-linejoin:miter;stroke:rgb(100%,0%,0%);stroke-opacity:1;stroke-miterlimit:10;" d="M 7.938344 -0.0001875 C 7.938344 -0.0001875 7.953968 0.234188 7.957874 0.327938 C 7.96178 0.417781 7.965687 0.566219 7.969593 0.656063 C 7.969593 0.749813 7.965687 0.894344 7.965687 0.988094 C 7.96178 1.077938 7.953968 1.226375 7.946156 1.320125 C 7.938344 1.409969 7.926625 1.558406 7.914907 1.652156 C 7.903188 1.742 7.883658 1.890438 7.868033 1.980281 C 7.852409 2.074031 7.828972 2.222469 7.809441 2.312313 C 7.789911 2.402156 7.758662 2.550594 7.735225 2.640438 C 7.715694 2.730281 7.676633 2.878719 7.64929 2.968563 C 7.621947 3.058406 7.578979 3.202938 7.54773 3.292781 C 7.520387 3.382625 7.465702 3.52325 7.434453 3.613094 C 7.399297 3.702938 7.344611 3.843563 7.30555 3.9295 C 7.270395 4.019344 7.203991 4.156063 7.164929 4.242 C 7.121962 4.327938 7.055558 4.464656 7.008684 4.550594 C 6.965717 4.636531 6.8915 4.769344 6.84072 4.851375 C 6.793847 4.937313 6.711818 5.066219 6.661038 5.14825 C 6.610259 5.230281 6.524324 5.359188 6.469638 5.437313 C 6.411046 5.519344 6.321205 5.644344 6.262613 5.722469 C 6.204021 5.800594 6.106367 5.921688 6.043869 5.995906 C 5.981371 6.070125 5.879812 6.191219 5.813407 6.261531 C 5.747003 6.33575 5.641538 6.449031 5.571227 6.519344 C 5.504823 6.589656 5.391545 6.702938 5.317329 6.769344 C 5.247018 6.83575 5.129834 6.945125 5.055618 7.007625 C 4.981401 7.074031 4.856405 7.175594 4.778282 7.238094 C 4.70016 7.300594 4.575163 7.394344 4.493135 7.456844 C 4.415012 7.515438 4.282203 7.605281 4.200175 7.663875 C 4.118146 7.718563 3.981431 7.8045 3.895496 7.855281 C 3.809561 7.909969 3.668941 7.992 3.583006 8.042781 C 3.493165 8.089656 3.352544 8.163875 3.262703 8.21075 C 3.168956 8.257625 3.024429 8.327938 2.930681 8.370906 C 2.836934 8.409969 2.688501 8.476375 2.594754 8.515438 C 2.501007 8.5545 2.344761 8.609188 2.251014 8.644344 C 2.153361 8.6795 1.997116 8.734188 1.899462 8.765438 C 1.801809 8.792781 1.641658 8.839656 1.544004 8.867 C 1.442445 8.894344 1.282293 8.933406 1.180734 8.956844 C 1.083081 8.980281 0.919023 9.011531 0.817464 9.031063 C 0.711998 9.050594 0.54794 9.074031 0.446381 9.089656 C 0.340915 9.105281 0.176858 9.124813 0.0713922 9.132625 C -0.0340734 9.144344 -0.198131 9.156063 -0.303597 9.163875 C -0.409062 9.167781 -0.577026 9.175594 -0.682491 9.175594 C -0.787957 9.1795 -0.959827 9.1795 -1.065292 9.175594 C -1.170758 9.171688 -1.338722 9.163875 -1.444187 9.156063 C -1.553559 9.152156 -1.721523 9.136531 -1.826988 9.124813 C -1.932454 9.113094 -2.104324 9.089656 -2.209789 9.074031 C -2.315255 9.058406 -2.483219 9.031063 -2.588684 9.007625 C -2.69415 8.988094 -2.86602 8.952938 -2.971485 8.9295 C -3.076951 8.902156 -3.241008 8.859188 -3.346474 8.831844 C -3.45194 8.800594 -3.615997 8.749813 -3.721463 8.718563 C -3.823022 8.683406 -3.990986 8.628719 -4.092545 8.589656 C -4.194105 8.550594 -4.358162 8.488094 -4.455816 8.445125 C -4.557375 8.402156 -4.717527 8.331844 -4.819086 8.284969 C -4.916739 8.238094 -5.076891 8.159969 -5.174544 8.109188 C -5.272198 8.058406 -5.428443 7.976375 -5.526096 7.921688 C -5.619843 7.863094 -5.772183 7.77325 -5.86593 7.714656 C -5.959677 7.656063 -6.112016 7.558406 -6.201857 7.495906 C -6.295604 7.4295 -6.440131 7.327938 -6.529972 7.261531 C -6.619813 7.191219 -6.760434 7.081844 -6.846369 7.011531 C -6.93621 6.941219 -7.072925 6.824031 -7.154954 6.749813 C -7.240888 6.671688 -7.373697 6.550594 -7.455726 6.472469 C -7.537755 6.394344 -7.666657 6.265438 -7.74478 6.183406 C -7.822902 6.101375 -7.947898 5.968563 -8.022115 5.882625 C -8.096332 5.796688 -8.213516 5.656063 -8.287732 5.566219 C -8.358042 5.476375 -8.47132 5.331844 -8.541631 5.242 C -8.608035 5.14825 -8.717407 4.999813 -8.779905 4.902156 C -8.846309 4.808406 -8.947868 4.652156 -9.010367 4.5545 C -9.068959 4.456844 -9.166612 4.296688 -9.221298 4.195125 C -9.27989 4.093563 -9.369731 3.933406 -9.420511 3.827938 C -9.475196 3.726375 -9.557225 3.5545 -9.608005 3.449031 C -9.654879 3.343563 -9.733001 3.171688 -9.775969 3.062313 C -9.822842 2.952938 -9.889247 2.777156 -9.932214 2.667781 C -9.971275 2.558406 -10.033773 2.378719 -10.068929 2.265438 C -10.104084 2.152156 -10.15877 1.972469 -10.190019 1.855281 C -10.225174 1.742 -10.272048 1.558406 -10.29939 1.441219 C -10.326733 1.324031 -10.365795 1.136531 -10.385325 1.019344 C -10.408762 0.902156 -10.440011 0.714656 -10.459542 0.593563 C -10.475166 0.476375 -10.502509 0.284969 -10.514228 0.163875 C -10.525946 0.0466875 -10.541571 -0.148625 -10.549383 -0.265812 C -10.557195 -0.386906 -10.565007 -0.582219 -10.568914 -0.703312 C -10.57282 -0.824406 -10.57282 -1.019719 -10.568914 -1.140812 C -10.568914 -1.261906 -10.561101 -1.461125 -10.553289 -1.582219 C -10.545477 -1.703312 -10.529852 -1.898625 -10.518134 -2.019719 C -10.506415 -2.144719 -10.482979 -2.340031 -10.463448 -2.461125 C -10.447823 -2.582219 -10.416574 -2.777531 -10.393138 -2.898625 C -10.369701 -3.023625 -10.33064 -3.215031 -10.303297 -3.336125 C -10.275954 -3.457219 -10.225174 -3.652531 -10.193925 -3.773625 C -10.162676 -3.890812 -10.104084 -4.086125 -10.068929 -4.203312 C -10.029867 -4.324406 -9.967369 -4.511906 -9.924402 -4.633 C -9.881434 -4.750187 -9.807218 -4.937687 -9.760344 -5.054875 C -9.713471 -5.172062 -9.631442 -5.355656 -9.580662 -5.472844 C -9.525976 -5.586125 -9.440041 -5.769719 -9.381449 -5.883 C -9.322857 -5.996281 -9.22911 -6.175969 -9.166612 -6.285344 C -9.104114 -6.398625 -8.998648 -6.574406 -8.932244 -6.683781 C -8.86584 -6.793156 -8.752562 -6.965031 -8.682251 -7.0705 C -8.611941 -7.175969 -8.490851 -7.343937 -8.412728 -7.449406 C -8.338512 -7.550969 -8.213516 -7.715031 -8.131487 -7.816594 C -8.049458 -7.918156 -7.916649 -8.078312 -7.830715 -8.175969 C -7.748686 -8.273625 -7.608065 -8.425969 -7.518224 -8.523625 C -7.428383 -8.617375 -7.27995 -8.765812 -7.186203 -8.855656 C -7.092455 -8.949406 -6.940116 -9.090031 -6.842463 -9.179875 C -6.74481 -9.265812 -6.584658 -9.402531 -6.483099 -9.488469 C -6.381539 -9.5705 -6.213576 -9.703312 -6.10811 -9.781437 C -6.002644 -9.863469 -5.830775 -9.984562 -5.721403 -10.062687 C -5.615937 -10.136906 -5.436255 -10.254094 -5.322977 -10.328312 C -5.213606 -10.398625 -5.030017 -10.508 -4.912833 -10.578312 C -4.799555 -10.644719 -4.608155 -10.746281 -4.490971 -10.808781 C -4.373787 -10.871281 -4.17848 -10.968937 -4.05739 -11.027531 C -3.9363 -11.082219 -3.737087 -11.172062 -3.612091 -11.22675 C -3.491001 -11.277531 -3.287882 -11.359562 -3.162886 -11.406437 C -3.033983 -11.453312 -2.826958 -11.527531 -2.698056 -11.5705 C -2.569154 -11.613469 -2.362129 -11.675969 -2.22932 -11.715031 C -2.096512 -11.750187 -1.88558 -11.808781 -1.752772 -11.840031 C -1.619963 -11.871281 -1.405126 -11.918156 -1.268411 -11.9455 C -1.135603 -11.972844 -0.916859 -12.011906 -0.780145 -12.031437 C -0.64343 -12.054875 -0.424687 -12.082219 -0.284066 -12.097844 C -0.147351 -12.113469 0.0752983 -12.136906 0.212013 -12.144719 C 0.352634 -12.156437 0.575283 -12.168156 0.715904 -12.172062 C 0.852619 -12.175969 1.079174 -12.175969 1.219795 -12.175969 C 1.360416 -12.175969 1.583066 -12.168156 1.723686 -12.160344 C 1.864307 -12.152531 2.090863 -12.136906 2.231484 -12.125187 C 2.372104 -12.109562 2.59866 -12.086125 2.739281 -12.066594 C 2.879902 -12.047062 3.102551 -12.011906 3.243172 -11.988469 C 3.383793 -11.965031 3.610349 -11.918156 3.747063 -11.886906 C 3.887684 -11.859562 4.110334 -11.804875 4.250954 -11.769719 C 4.387669 -11.730656 4.610319 -11.668156 4.747033 -11.625187 C 4.883748 -11.586125 5.106397 -11.511906 5.239206 -11.465031 C 5.375921 -11.41425 5.594664 -11.332219 5.727472 -11.281437 C 5.864187 -11.22675 6.079024 -11.136906 6.211833 -11.074406 C 6.344641 -11.015812 6.555573 -10.91425 6.684475 -10.85175 C 6.817284 -10.785344 7.024309 -10.675969 7.153211 -10.605656 C 7.282113 -10.535344 7.485232 -10.418156 7.610229 -10.340031 C 7.735225 -10.265812 7.934438 -10.136906 8.059434 -10.058781 C 8.18443 -9.97675 8.375831 -9.840031 8.496921 -9.754094 C 8.618011 -9.66425 8.809411 -9.523625 8.922689 -9.429875 C 9.039873 -9.336125 9.227367 -9.187687 9.340645 -9.090031 C 9.453923 -8.992375 9.629699 -8.832219 9.739071 -8.730656 C 9.848443 -8.625187 10.024219 -8.457219 10.129684 -8.35175 C 10.23515 -8.246281 10.403113 -8.0705 10.504673 -7.957219 C 10.606232 -7.847844 10.762478 -7.66425 10.860131 -7.547062 C 10.957784 -7.429875 11.110124 -7.242375 11.203871 -7.121281 C 11.297618 -7.000187 11.442145 -6.804875 11.531986 -6.679875 C 11.617921 -6.554875 11.754635 -6.35175 11.836664 -6.222844 C 11.922599 -6.093937 12.051502 -5.883 12.129624 -5.750187 C 12.207747 -5.617375 12.328837 -5.402531 12.403053 -5.265812 C 12.473364 -5.129094 12.586642 -4.910344 12.653046 -4.769719 C 12.71945 -4.629094 12.824916 -4.402531 12.887414 -4.261906 C 12.949912 -4.117375 13.043659 -3.886906 13.098345 -3.742375 C 13.156937 -3.593937 13.242872 -3.359562 13.289746 -3.211125 C 13.340525 -3.062687 13.418648 -2.824406 13.461615 -2.672062 C 13.508489 -2.519719 13.570987 -2.277531 13.610049 -2.125187 C 13.64911 -1.972844 13.707702 -1.722844 13.738951 -1.566594 C 13.7702 -1.41425 13.817074 -1.16425 13.84051 -1.008 C 13.867853 -0.847844 13.903008 -0.597844 13.922539 -0.437687 C 13.94207 -0.277531 13.969413 -0.023625 13.981131 0.136531 C 13.99285 0.292781 14.008474 0.550594 14.016286 0.71075 C 14.020192 0.874813 14.024099 1.132625 14.024099 1.292781 C 14.024099 1.452938 14.020192 1.714656 14.01238 1.874813 C 14.004568 2.034969 13.988943 2.296688 13.977225 2.456844 C 13.9616 2.620906 13.934258 2.882625 13.914727 3.042781 C 13.895196 3.202938 13.856135 3.464656 13.828792 3.624813 C 13.801449 3.788875 13.750669 4.046688 13.71942 4.206844 C 13.684265 4.367 13.625673 4.624813 13.582706 4.784969 C 13.543644 4.945125 13.473334 5.199031 13.42646 5.359188 C 13.375681 5.519344 13.297558 5.769344 13.242872 5.9295 C 13.188186 6.08575 13.094439 6.33575 13.035847 6.492 C 12.973349 6.64825 12.871789 6.894344 12.805385 7.046688 C 12.738981 7.202938 12.625703 7.445125 12.551487 7.597469 C 12.47727 7.749813 12.352274 7.988094 12.274151 8.136531 C 12.192122 8.284969 12.059314 8.519344 11.973379 8.667781 C 11.883538 8.812313 11.742917 9.042781 11.64917 9.187313 C 11.555423 9.327938 11.403083 9.5545 11.301524 9.691219 C 11.203871 9.831844 11.039813 10.050594 10.934348 10.187313 C 10.828882 10.324031 10.657012 10.534969 10.543734 10.667781 C 10.434363 10.796688 10.250774 11.003719 10.137496 11.132625 C 10.020312 11.261531 9.828912 11.46075 9.703916 11.581844 C 9.582826 11.706844 9.383613 11.89825 9.25471 12.015438 C 9.125808 12.136531 8.918783 12.320125 8.785974 12.433406 C 8.653166 12.546688 8.434423 12.722469 8.297708 12.831844 C 8.160993 12.937313 7.934438 13.109188 7.789911 13.21075 C 7.64929 13.312313 7.414922 13.472469 7.266489 13.570125 C 7.121962 13.667781 6.879782 13.816219 6.727442 13.909969 C 6.579009 13.999813 6.329017 14.140438 6.172772 14.226375 C 6.016526 14.312313 5.766534 14.441219 5.606382 14.52325 C 5.446231 14.601375 5.18452 14.722469 5.020462 14.792781 C 4.856405 14.867 4.590788 14.976375 4.42673 15.042781 C 4.258767 15.109188 3.989243 15.21075 3.817374 15.269344 C 3.645504 15.327938 3.372074 15.417781 3.196298 15.472469 C 3.024429 15.52325 2.743187 15.601375 2.567411 15.64825 C 2.391635 15.691219 2.106487 15.761531 1.930711 15.796688 C 1.751029 15.83575 1.465882 15.890438 1.282293 15.921688 C 1.102611 15.952938 0.813557 15.995906 0.629969 16.019344 C 0.446381 16.046688 0.153421 16.077938 -0.0301673 16.093563 C -0.213756 16.109188 -0.506715 16.128719 -0.69421 16.136531 C -0.877798 16.144344 -1.174664 16.156063 -1.362159 16.156063 C -1.545747 16.156063 -1.846519 16.152156 -2.030107 16.144344 C -2.217602 16.140438 -2.518374 16.120906 -2.701962 16.105281 C -2.889456 16.093563 -3.190229 16.066219 -3.377723 16.042781 C -3.561311 16.019344 -3.862084 15.980281 -4.049578 15.949031 C -4.233166 15.917781 -4.533938 15.863094 -4.717527 15.827938 C -4.905021 15.788875 -5.201887 15.722469 -5.385475 15.6795 C -5.569064 15.632625 -5.862024 15.5545 -6.045612 15.499813 C -6.2292 15.445125 -6.52216 15.355281 -6.701842 15.296688 C -6.88543 15.234188 -7.174484 15.132625 -7.354166 15.062313 C -7.533848 14.992 -7.818996 14.878719 -7.998678 14.800594 C -8.174454 14.726375 -8.455696 14.597469 -8.631472 14.511531 C -8.807248 14.4295 -9.084583 14.288875 -9.256453 14.199031 C -9.424417 14.109188 -9.697846 13.956844 -9.86581 13.859188 C -10.033773 13.757625 -10.303297 13.597469 -10.467354 13.492 C -10.631412 13.386531 -10.893123 13.21075 -11.053274 13.097469 C -11.213426 12.984188 -11.467324 12.796688 -11.627476 12.675594 C -11.783721 12.558406 -12.029807 12.359188 -12.182146 12.234188 C -12.334486 12.109188 -12.57276 11.89825 -12.721193 11.765438 C -12.869626 11.632625 -13.100088 11.413875 -13.244615 11.277156 C -13.385235 11.136531 -13.611791 10.906063 -13.748506 10.761531 C -13.88522 10.617 -14.100058 10.374813 -14.22896 10.222469 C -14.361769 10.074031 -14.568794 9.824031 -14.69379 9.667781 C -14.818786 9.507625 -15.014093 9.249813 -15.135183 9.08575 C -15.252367 8.925594 -15.439861 8.656063 -15.553139 8.488094 C -15.666417 8.320125 -15.842193 8.046688 -15.947659 7.870906 C -16.053124 7.699031 -16.217182 7.413875 -16.318741 7.234188 C -16.416394 7.058406 -16.57264 6.765438 -16.662481 6.581844 C -16.756228 6.39825 -16.896849 6.101375 -16.982784 5.913875 C -17.068719 5.726375 -17.197621 5.421688 -17.275744 5.230281 C -17.353866 5.038875 -17.47105 4.726375 -17.541361 4.531063 C -17.611671 4.33575 -17.717137 4.019344 -17.779635 3.820125 C -17.838227 3.620906 -17.931974 3.300594 -17.98666 3.097469 C -18.041346 2.894344 -18.119468 2.570125 -18.166342 2.363094 C -18.209309 2.159969 -18.27962 1.827938 -18.314775 1.620906 C -18.353836 1.413875 -18.404616 1.077938 -18.431959 0.870906 C -18.463208 0.659969 -18.502269 0.324031 -18.5218 0.113094 C -18.545237 -0.0978437 -18.568674 -0.437687 -18.580392 -0.652531 C -18.59211 -0.863469 -18.603829 -1.207219 -18.607735 -1.418156 C -18.607735 -1.633 -18.607735 -1.97675 -18.599923 -2.191594 C -18.596017 -2.406437 -18.580392 -2.750187 -18.564767 -2.965031 C -18.549143 -3.179875 -18.517894 -3.527531 -18.494457 -3.742375 C -18.47102 -3.957219 -18.424147 -4.300969 -18.392898 -4.515812 C -18.361649 -4.730656 -18.29915 -5.074406 -18.260089 -5.285344 C -18.217122 -5.500187 -18.142905 -5.843937 -18.092125 -6.054875 C -18.045252 -6.269719 -17.955411 -6.609562 -17.896819 -6.8205 C -17.838227 -7.031437 -17.732761 -7.367375 -17.666357 -7.578312 C -17.596047 -7.785344 -17.478863 -8.121281 -17.404646 -8.328312 C -17.326523 -8.535344 -17.193715 -8.867375 -17.10778 -9.0705 C -17.021845 -9.273625 -16.877318 -9.60175 -16.783571 -9.800969 C -16.689824 -10.004094 -16.529672 -10.324406 -16.428113 -10.523625 C -16.322647 -10.722844 -16.150777 -11.035344 -16.041406 -11.230656 C -15.928128 -11.425969 -15.740633 -11.734562 -15.623449 -11.925969 C -15.502359 -12.117375 -15.303147 -12.418156 -15.174244 -12.605656 C -15.045342 -12.78925 -14.834411 -13.086125 -14.697696 -13.265812 C -14.560981 -13.449406 -14.334426 -13.734562 -14.193805 -13.910344 C -14.049278 -14.086125 -13.811004 -14.367375 -13.658665 -14.535344 C -13.506325 -14.707219 -13.256333 -14.97675 -13.096182 -15.140812 C -12.939936 -15.304875 -12.678225 -15.566594 -12.510262 -15.72675 C -12.342298 -15.883 -12.068869 -16.133 -11.896999 -16.285344 C -11.721223 -16.441594 -11.439981 -16.679875 -11.260299 -16.824406 C -11.076711 -16.968937 -10.783751 -17.199406 -10.596257 -17.336125 C -10.408762 -17.47675 -10.104084 -17.691594 -9.912683 -17.824406 C -9.717377 -17.957219 -9.404886 -18.160344 -9.205673 -18.285344 C -9.00646 -18.406437 -8.682251 -18.60175 -8.475226 -18.715031 C -8.272108 -18.832219 -7.93618 -19.011906 -7.729155 -19.121281 C -7.518224 -19.22675 -7.174484 -19.394719 -6.959647 -19.492375 C -6.74481 -19.593937 -6.397164 -19.746281 -6.174514 -19.836125 C -5.955771 -19.925969 -5.600313 -20.066594 -5.373757 -20.148625 C -5.151107 -20.230656 -4.787837 -20.355656 -4.557375 -20.425969 C -4.33082 -20.500187 -3.959737 -20.609562 -3.729275 -20.672062 C -3.494907 -20.738469 -3.119918 -20.832219 -2.88555 -20.886906 C -2.651182 -20.941594 -2.272288 -21.019719 -2.030107 -21.066594 C -1.791833 -21.109562 -1.409032 -21.175969 -1.166852 -21.211125 C -0.928578 -21.246281 -0.537965 -21.293156 -0.295784 -21.3205 C -0.0536041 -21.343937 0.337009 -21.375187 0.583096 -21.390812 C 0.825276 -21.406437 1.219795 -21.422062 1.465882 -21.429875 C 1.711968 -21.433781 2.106487 -21.433781 2.35648 -21.429875 C 2.602566 -21.425969 2.997086 -21.410344 3.247078 -21.394719 C 3.493165 -21.379094 3.89159 -21.347844 4.137676 -21.3205 C 4.383763 -21.297062 4.782188 -21.246281 5.028275 -21.211125 C 5.278267 -21.175969 5.672787 -21.109562 5.918873 -21.062687 C 6.164959 -21.019719 6.559479 -20.937687 6.805565 -20.879094 C 7.051652 -20.824406 7.442265 -20.72675 7.688351 -20.660344 C 7.930531 -20.590031 8.321145 -20.47675 8.563325 -20.402531 C 8.801599 -20.324406 9.188306 -20.191594 9.42658 -20.105656 C 9.668761 -20.019719 10.047655 -19.871281 10.285929 -19.773625 C 10.520297 -19.675969 10.899192 -19.511906 11.129654 -19.406437 C 11.364022 -19.300969 11.735105 -19.117375 11.96166 -19.004094 C 12.192122 -18.886906 12.555393 -18.687687 12.781948 -18.562687 C 13.004598 -18.433781 13.363962 -18.22675 13.586612 -18.090031 C 13.805355 -17.953312 14.153001 -17.72675 14.367838 -17.578312 C 14.582676 -17.433781 14.926415 -17.191594 15.137346 -17.035344 C 15.344371 -16.879094 15.680299 -16.625187 15.883418 -16.461125 C 16.086537 -16.297062 16.410746 -16.027531 16.606052 -15.85175 C 16.805265 -15.679875 17.117756 -15.394719 17.309156 -15.211125 C 17.500557 -15.031437 17.801329 -14.730656 17.988823 -14.53925 C 18.172412 -14.35175 18.461465 -14.03925 18.637241 -13.840031 C 18.816924 -13.640812 19.094259 -13.316594 19.262223 -13.109562 C 19.430186 -12.902531 19.69971 -12.566594 19.859861 -12.35175 C 20.020012 -12.140812 20.273911 -11.78925 20.42625 -11.5705 C 20.578589 -11.347844 20.816864 -10.988469 20.96139 -10.758 C 21.105917 -10.531437 21.328567 -10.160344 21.465282 -9.925969 C 21.601996 -9.691594 21.809021 -9.308781 21.937924 -9.066594 C 22.06292 -8.824406 22.258227 -8.433781 22.371504 -8.187687 C 22.488688 -7.941594 22.668371 -7.53925 22.773836 -7.28925 C 22.883208 -7.035344 23.043359 -6.625187 23.141013 -6.367375 C 23.238666 -6.109562 23.383193 -5.6955 23.469128 -5.429875 C 23.555063 -5.168156 23.687871 -4.746281 23.762088 -4.47675 C 23.836304 -4.211125 23.949582 -3.781437 24.015986 -3.511906 C 24.078484 -3.238469 24.176138 -2.804875 24.226918 -2.531437 C 24.281603 -2.258 24.359726 -1.812687 24.402693 -1.535344 C 24.445661 -1.261906 24.504253 -0.812687 24.535502 -0.535344 C 24.566751 -0.254094 24.609719 0.195125 24.629249 0.476375 C 24.64878 0.757625 24.668311 1.21075 24.676123 1.492 C 24.683935 1.777156 24.691747 2.230281 24.687841 2.515438 C 24.683935 2.800594 24.668311 3.257625 24.652686 3.542781 C 24.637061 3.827938 24.605812 4.284969 24.578469 4.570125 C 24.551127 4.855281 24.500347 5.312313 24.461285 5.597469 C 24.422224 5.882625 24.348008 6.339656 24.297228 6.624813 C 24.246448 6.906063 24.156607 7.363094 24.094109 7.644344 C 24.031611 7.925594 23.922239 8.378719 23.848023 8.659969 C 23.773806 8.941219 23.644904 9.390438 23.558969 9.671688 C 23.473034 9.949031 23.324601 10.394344 23.226948 10.671688 C 23.129294 10.945125 22.96133 11.386531 22.851959 11.659969 C 22.742587 11.933406 22.558999 12.367 22.437909 12.636531 C 22.316819 12.906063 22.1137 13.331844 21.980891 13.597469 C 21.848083 13.863094 21.625433 14.284969 21.480906 14.542781 C 21.336379 14.8045 21.098105 15.218563 20.94186 15.472469 C 20.785615 15.726375 20.52781 16.132625 20.363752 16.378719 C 20.195788 16.628719 19.922359 17.02325 19.746583 17.269344 C 19.570807 17.511531 19.277847 17.894344 19.090353 18.132625 C 18.902858 18.367 18.594274 18.742 18.395061 18.972469 C 18.199755 19.202938 17.871639 19.562313 17.664614 19.784969 C 17.457589 20.007625 17.117756 20.355281 16.899012 20.570125 C 16.684175 20.784969 16.324811 21.120906 16.098255 21.327938 C 15.871699 21.534969 15.500617 21.855281 15.266249 22.050594 C 15.027975 22.249813 14.641268 22.558406 14.399087 22.745906 C 14.153001 22.933406 13.754575 23.226375 13.500677 23.406063 C 13.246778 23.581844 12.832728 23.863094 12.574923 24.031063 C 12.313212 24.199031 11.887444 24.456844 11.617921 24.617 C 11.348398 24.77325 10.910911 25.019344 10.633575 25.167781 C 10.360146 25.312313 9.910941 25.542781 9.625793 25.675594 C 9.344551 25.812313 8.883628 26.02325 8.594574 26.14825 C 8.30552 26.27325 7.836784 26.464656 7.539918 26.577938 C 7.243052 26.691219 6.766504 26.863094 6.465732 26.964656 C 6.164959 27.066219 5.676693 27.218563 5.368108 27.308406 C 5.06343 27.39825 4.567351 27.531063 4.258767 27.609188 C 3.946276 27.687313 3.446291 27.800594 3.129894 27.863094 C 2.817404 27.925594 2.309606 28.019344 1.989303 28.074031 C 1.672907 28.124813 1.157297 28.195125 0.836994 28.234188 C 0.516691 28.27325 -0.00282435 28.324031 -0.323127 28.351375 C -0.647336 28.374813 -1.170758 28.406063 -1.494967 28.417781 C -1.819176 28.4295 -2.346504 28.437313 -2.670713 28.437313 C -2.998828 28.437313 -3.526156 28.421688 -3.854271 28.409969 C -4.182386 28.394344 -4.709714 28.359188 -5.03783 28.331844 C -5.365945 28.300594 -5.893273 28.245906 -6.221388 28.202938 C -6.549503 28.159969 -7.076831 28.081844 -7.40104 28.027156 C -7.729155 27.972469 -8.252577 27.870906 -8.580692 27.800594 C -8.904901 27.734188 -9.428323 27.609188 -9.752532 27.527156 C -10.076741 27.445125 -10.596257 27.300594 -10.916559 27.202938 C -11.236862 27.109188 -11.752472 26.941219 -12.068869 26.831844 C -12.389172 26.718563 -12.896969 26.531063 -13.213366 26.409969 C -13.525856 26.284969 -14.029747 26.077938 -14.342238 25.941219 C -14.650822 25.8045 -15.146901 25.570125 -15.45158 25.421688 C -15.756258 25.269344 -16.244525 25.019344 -16.545297 24.855281 C -16.846069 24.695125 -17.322617 24.421688 -17.619483 24.245906 C -17.912443 24.070125 -18.381179 23.777156 -18.670233 23.58575 C -18.959287 23.39825 -19.416304 23.08575 -19.697546 22.882625 C -19.978788 22.683406 -20.424087 22.351375 -20.697516 22.136531 C -20.970945 21.921688 -21.404526 21.570125 -21.670143 21.343563 C -21.93576 21.120906 -22.353716 20.749813 -22.611521 20.511531 C -22.869326 20.27325 -23.275564 19.886531 -23.52165 19.636531 C -23.771643 19.390438 -24.162256 18.980281 -24.40053 18.722469 C -24.64271 18.464656 -25.013793 18.038875 -25.244255 17.769344 C -25.474716 17.499813 -25.830175 17.058406 -26.048918 16.777156 C -26.267661 16.499813 -26.607495 16.042781 -26.818426 15.749813 C -27.025451 15.46075 -27.34966 14.988094 -27.544967 14.691219 C -27.740273 14.390438 -28.044952 13.902156 -28.22854 13.593563 C -28.412128 13.284969 -28.697276 12.784969 -28.869146 12.468563 C -29.041016 12.152156 -29.306633 11.636531 -29.466784 11.312313 C -29.626936 10.988094 -29.873022 10.46075 -30.017549 10.128719 C -30.165982 9.796688 -30.388632 9.257625 -30.52144 8.917781 C -30.654249 8.577938 -30.857367 8.031063 -30.978458 7.683406 C -31.095642 7.339656 -31.275324 6.781063 -31.380789 6.4295 C -31.486255 6.077938 -31.646406 5.507625 -31.736247 5.152156 C -31.829995 4.792781 -31.962803 4.218563 -32.040926 3.855281 C -32.119048 3.495906 -32.22842 2.909969 -32.290918 2.546688 C -32.353416 2.1795 -32.443257 1.589656 -32.490131 1.218563 C -32.537005 0.851375 -32.599503 0.253719 -32.634658 -0.117375 C -32.665907 -0.488469 -32.704968 -1.090031 -32.720593 -1.465031 C -32.740123 -1.840031 -32.755748 -2.441594 -32.755748 -2.8205 C -32.755748 -3.1955 -32.747936 -3.800969 -32.732311 -4.179875 C -32.716687 -4.554875 -32.681531 -5.16425 -32.654189 -5.543156 C -32.622939 -5.918156 -32.564347 -6.527531 -32.517474 -6.906437 C -32.474506 -7.285344 -32.388572 -7.890812 -32.326073 -8.265812 C -32.263575 -8.644719 -32.154204 -9.250187 -32.076081 -9.625187 C -32.001864 -10.000187 -31.86515 -10.60175 -31.775309 -10.97675 C -31.681561 -11.35175 -31.517504 -11.949406 -31.408132 -12.3205 C -31.302667 -12.691594 -31.115172 -13.281437 -30.990176 -13.648625 C -30.86518 -14.019719 -30.654249 -14.605656 -30.513628 -14.968937 C -30.376913 -15.332219 -30.138639 -15.910344 -29.9863 -16.269719 C -29.830055 -16.629094 -29.57225 -17.203312 -29.40038 -17.554875 C -29.22851 -17.910344 -28.943362 -18.472844 -28.759774 -18.816594 C -28.57228 -19.16425 -28.263695 -19.718937 -28.064482 -20.058781 C -27.86527 -20.398625 -27.533248 -20.941594 -27.318411 -21.273625 C -27.103574 -21.609562 -26.748116 -22.136906 -26.517654 -22.461125 C -26.287192 -22.78925 -25.908297 -23.304875 -25.666117 -23.621281 C -25.420031 -23.937687 -25.021605 -24.441594 -24.7638 -24.750187 C -24.509902 -25.054875 -24.084133 -25.543156 -23.81461 -25.840031 C -23.545087 -26.140812 -23.099788 -26.609562 -22.81464 -26.898625 C -22.533398 -27.183781 -22.068569 -27.640812 -21.771703 -27.918156 C -21.474836 -28.1955 -20.990476 -28.629094 -20.681891 -28.894719 C -20.373307 -29.160344 -19.86551 -29.578312 -19.549113 -29.832219 C -19.22881 -30.086125 -18.705388 -30.480656 -18.373367 -30.722844 C -18.041346 -30.965031 -17.498393 -31.340031 -17.15856 -31.5705 C -16.81482 -31.797062 -16.256243 -32.152531 -15.904691 -32.367375 C -15.549233 -32.582219 -14.975031 -32.91425 -14.611761 -33.117375 C -14.248491 -33.316594 -13.658665 -33.629094 -13.287582 -33.812687 C -12.916499 -34.000187 -12.311049 -34.28925 -11.932154 -34.461125 C -11.549353 -34.633 -10.932184 -34.894719 -10.541571 -35.050969 C -10.150957 -35.207219 -9.52207 -35.4455 -9.123644 -35.586125 C -8.729125 -35.72675 -8.088519 -35.941594 -7.682281 -36.066594 C -7.27995 -36.187687 -6.623719 -36.375187 -6.217482 -36.484562 C -5.807338 -36.593937 -5.143295 -36.754094 -4.729245 -36.843937 C -4.311289 -36.937687 -3.64334 -37.0705 -3.221478 -37.144719 C -2.799615 -37.222844 -2.119948 -37.328312 -1.698086 -37.383 C -1.272318 -37.441594 -0.588744 -37.523625 -0.15907 -37.562687 C 0.270605 -37.60175 0.958084 -37.652531 1.387759 -37.675969 C 1.82134 -37.699406 2.516631 -37.718937 2.946306 -37.72675 C 3.379887 -37.730656 4.079084 -37.72675 4.512665 -37.715031 C 4.950152 -37.699406 5.645444 -37.66425 6.082931 -37.633 C 6.516511 -37.60175 7.215709 -37.53925 7.653196 -37.488469 C 8.086777 -37.441594 8.785974 -37.347844 9.223461 -37.281437 C 9.657042 -37.215031 10.35624 -37.093937 10.789821 -37.008 C 11.219495 -36.922062 11.914787 -36.773625 12.344461 -36.668156 C 12.778042 -36.566594 13.465522 -36.386906 13.895196 -36.265812 C 14.320965 -36.144719 15.004538 -35.933781 15.430306 -35.793156 C 15.856075 -35.652531 16.531836 -35.418156 16.953698 -35.258 C 17.371654 -35.10175 18.039603 -34.836125 18.453653 -34.660344 C 18.871609 -34.484562 19.531746 -34.191594 19.937984 -34.000187 C 20.348128 -33.804875 20.996546 -33.480656 21.398877 -33.269719 C 21.801209 -33.062687 22.441815 -32.711125 22.832428 -32.484562 C 23.226948 -32.258 23.851929 -31.879094 24.238636 -31.633 C 24.625343 -31.390812 25.238606 -30.984562 25.613595 -30.722844 C 25.99249 -30.465031 26.590128 -30.031437 26.957304 -29.754094 C 27.324481 -29.47675 27.902588 -29.019719 28.261953 -28.72675 C 28.617411 -28.433781 29.1838 -27.953312 29.52754 -27.644719 C 29.875186 -27.336125 30.418138 -26.828312 30.754065 -26.504094 C 31.086087 -26.179875 31.613415 -25.648625 31.933718 -25.308781 C 32.25402 -24.972844 32.761818 -24.418156 33.070402 -24.066594 C 33.378987 -23.711125 33.863347 -23.133 34.160213 -22.769719 C 34.453173 -22.402531 34.914097 -21.804875 35.195338 -21.425969 C 35.47658 -21.047062 35.914067 -20.425969 36.179684 -20.035344 C 36.445301 -19.640812 36.859351 -19.000187 37.109344 -18.597844 C 37.359336 -18.191594 37.749949 -17.535344 37.984317 -17.117375 C 38.218685 -16.703312 38.581956 -16.027531 38.800699 -15.60175 C 39.019442 -15.172062 39.35537 -14.480656 39.554583 -14.043156 C 39.753795 -13.605656 40.06238 -12.898625 40.245968 -12.453312 C 40.429556 -12.004094 40.710798 -11.281437 40.874856 -10.824406 C 41.042819 -10.371281 41.292812 -9.633 41.437339 -9.168156 C 41.585772 -8.707219 41.808421 -7.957219 41.937324 -7.484562 C 42.066226 -7.015812 42.257627 -6.254094 42.366998 -5.777531 C 42.47637 -5.300969 42.632615 -4.527531 42.722456 -4.043156 C 42.812297 -3.558781 42.945106 -2.781437 43.015416 -2.293156 C 43.085727 -1.804875 43.18338 -1.015812 43.230254 -0.523625 C 43.281033 -0.0314375 43.347438 0.761531 43.378687 1.257625 C 43.40603 1.753719 43.441185 2.5545 43.448997 3.050594 C 43.460715 3.550594 43.456809 4.351375 43.448997 4.851375 C 43.437279 5.355281 43.402124 6.159969 43.370874 6.659969 C 43.339625 7.163875 43.273221 7.968563 43.222441 8.468563 C 43.167756 8.972469 43.066196 9.777156 42.99198 10.277156 C 42.921669 10.777156 42.784955 11.581844 42.691207 12.081844 C 42.59746 12.581844 42.433403 13.382625 42.316219 13.878719 C 42.202941 14.374813 41.999822 15.171688 41.863107 15.663875 C 41.726393 16.156063 41.495931 16.945125 41.339685 17.437313 C 41.18344 17.925594 40.913917 18.706844 40.738141 19.191219 C 40.558459 19.675594 40.257687 20.449031 40.06238 20.9295 C 39.863167 21.406063 39.531146 22.171688 39.312402 22.644344 C 39.093659 23.113094 38.726483 23.867 38.488208 24.327938 C 38.249934 24.792781 37.851509 25.531063 37.593704 25.988094 C 37.335899 26.441219 36.906225 27.167781 36.628889 27.613094 C 36.351554 28.058406 35.89063 28.769344 35.593764 29.202938 C 35.296898 29.640438 34.808631 30.331844 34.492235 30.753719 C 34.175838 31.1795 33.656322 31.855281 33.320395 32.269344 C 32.988373 32.6795 32.437609 33.33575 32.086057 33.734188 C 31.734505 34.136531 31.152491 34.769344 30.785315 35.156063 C 30.414232 35.542781 29.808781 36.152156 29.422074 36.527156 C 29.035367 36.902156 28.402573 37.488094 27.996336 37.847469 C 27.594004 38.202938 26.933868 38.765438 26.515911 39.109188 C 26.097955 39.452938 25.410476 39.992 24.976895 40.316219 C 24.543314 40.644344 23.832398 41.152156 23.387099 41.46075 C 22.937894 41.769344 22.203541 42.253719 21.742617 42.546688 C 21.277787 42.839656 20.523904 43.292781 20.047355 43.566219 C 19.570807 43.839656 18.793487 44.261531 18.30522 44.515438 C 17.816954 44.769344 17.024009 45.167781 16.524024 45.402156 C 16.020132 45.636531 15.207657 45.995906 14.695953 46.21075 C 14.180344 46.425594 13.352244 46.753719 12.828822 46.949031 C 12.309306 47.144344 11.461675 47.441219 10.930441 47.613094 C 10.395301 47.788875 9.535952 48.046688 8.996906 48.199031 C 8.453953 48.351375 7.578979 48.581844 7.032121 48.71075 C 6.481356 48.839656 5.59857 49.031063 5.039993 49.140438 C 4.485322 49.245906 3.590818 49.402156 3.028335 49.488094 C 2.465852 49.574031 1.559629 49.691219 0.99324 49.753719 C 0.42685 49.816219 -0.483279 49.89825 -1.053574 49.937313 C -1.627776 49.976375 -2.545717 50.02325 -3.119918 50.038875 C -3.69412 50.0545 -4.615967 50.062313 -5.194075 50.050594 C -5.768276 50.042781 -6.69403 50.011531 -7.272138 49.980281 C -7.850245 49.949031 -8.779905 49.878719 -9.358012 49.824031 C -9.93612 49.769344 -10.861874 49.659969 -11.439981 49.581844 C -12.018089 49.499813 -12.939936 49.351375 -13.518044 49.249813 C -14.092245 49.144344 -15.017999 48.96075 -15.5922 48.831844 C -16.162496 48.702938 -17.080437 48.480281 -17.650732 48.327938 C -18.221028 48.175594 -19.131157 47.913875 -19.69364 47.738094 C -20.260029 47.562313 -21.162346 47.261531 -21.720923 47.062313 C -22.2795 46.863094 -23.174004 46.52325 -23.724769 46.296688 C -24.27944 46.074031 -25.15832 45.699031 -25.705178 45.452938 C -26.248131 45.206844 -27.119198 44.792781 -27.654339 44.52325 C -28.189479 44.253719 -29.044922 43.800594 -29.568344 43.507625 C -30.095672 43.214656 -30.93549 42.726375 -31.4511 42.409969 C -31.966709 42.097469 -32.786997 41.574031 -33.290888 41.234188 C -33.794779 40.89825 -34.595537 40.339656 -35.087709 39.980281 C -35.579882 39.620906 -36.357202 39.02325 -36.837657 38.644344 C -37.318111 38.265438 -38.075901 37.636531 -38.540731 37.238094 C -39.005561 36.83575 -39.736007 36.171688 -40.185213 35.749813 C -40.634418 35.327938 -41.341428 34.636531 -41.775009 34.195125 C -42.208589 33.753719 -42.892163 33.031063 -43.310119 32.570125 C -43.724169 32.109188 -44.376493 31.351375 -44.774919 30.870906 C -45.173344 30.394344 -45.798325 29.609188 -46.17722 29.113094 C -46.556115 28.617 -47.153754 27.808406 -47.513118 27.292781 C -47.872482 26.777156 -48.431059 25.937313 -48.770893 25.409969 C -49.110726 24.878719 -49.64196 24.015438 -49.962263 23.468563 C -50.27866 22.921688 -50.774739 22.034969 -51.071605 21.472469 C -51.368471 20.913875 -51.829395 19.999813 -52.10673 19.425594 C -52.380159 18.851375 -53.05592 17.331844 -53.05592 17.331844 " transform="matrix(1.00003,0,0,-1,58.108293,57.492)"/>
</g>
</svg>
