<?xml version="1.0" encoding="UTF-8"?>
<svg xmlns="http://www.w3.org/2000/svg" xmlns:xlink="http://www.w3.org/1999/xlink" width="116pt" height="116pt" viewBox="0 0 116 116" version="1.1">
<g id="surface1">
<path style="fill:none;stroke-width:0.3985;stroke-linecap:butt;stroke-linejoin:miter;stroke:rgb(0%,0%,0%);stroke-opacity:1;stroke-miterlimit:10;" d="M -56.69253 -0.0001875 L 55.69863 -0.0001875 " transform="matrix(1.00003,0,0,-1,58.108293,57.492)"/>
<path style="fill-rule:nonzero;fill:rgb(0%,0%,0%);fill-opacity:1;stroke-width:0.3985;stroke-linecap:butt;stroke-linejoin:round;stroke:rgb(0%,0%,0%);stroke-opacity:1;stroke-miterlimit:10;" d="M 0.798121 -0.0001875 C -0.197943 0.199031 -1.194007 0.597469 -2.389284 1.296688 C -1.194007 0.39825 -1.194007 -0.398625 -2.389284 -1.297062 C -1.194007 -0.597844 -0.197943 -0.199406 0.798121 -0.0001875 Z M 0.798121 -0.0001875 " transform="matrix(1.00003,0,0,-1,113.807324,57.492)"/>
<path style="fill:none;stroke-width:0.3985;stroke-linecap:butt;stroke-linejoin:miter;stroke:rgb(50%,50%,50%);stroke-opacity:1;stroke-miterlimit:10;" d="M 0.00108179 -56.6955 L 0.00108179 56.695125 " transform="matrix(1.00003,0,0,-1,58.108293,57.492)"/>
<path style="fill:none;stroke-width:1.19553;stroke-linecap:butt;stroke-linejoin:miter;stroke:rgb(100%,0%,0%);stroke-opacity:1;stroke-miterlimit:10;" d="M 0.00108179 -0.0001875 C 0.00108179 -0.0001875 4.524384 0.136531 6.231364 0.3045 C 7.934438 0.472469 10.653106 0.882625 12.281963 1.21075 C 13.910821 1.534969 16.469338 2.195125 17.981011 2.667781 C 19.488778 3.136531 21.82074 4.015438 23.168356 4.609188 C 24.515971 5.199031 26.54716 6.253719 27.695563 6.937313 C 28.843967 7.620906 30.52751 8.796688 31.449357 9.538875 C 32.371204 10.281063 33.664134 11.52325 34.335989 12.284969 C 35.007844 13.046688 35.882818 14.288875 36.289056 15.031063 C 36.6992 15.77325 37.140593 16.952938 37.281213 17.632625 C 37.42574 18.316219 37.433553 19.363094 37.316369 19.945125 C 37.195278 20.527156 36.792947 21.386531 36.42577 21.831844 C 36.058594 22.277156 35.265649 22.886531 34.671917 23.167781 C 34.078184 23.445125 32.9415 23.761531 32.152461 23.847469 C 31.363422 23.933406 29.933778 23.913875 28.984587 23.784969 C 28.031491 23.659969 26.375291 23.284969 25.301104 22.933406 C 24.230824 22.581844 22.410566 21.839656 21.258257 21.261531 C 20.109854 20.6795 18.191942 19.566219 17.008384 18.765438 C 15.82092 17.964656 13.89129 16.499813 12.715544 15.492 C 11.539798 14.484188 9.657042 12.695125 8.532076 11.503719 C 7.40711 10.312313 5.641538 8.245906 4.606412 6.894344 C 3.571287 5.546688 1.985397 3.253719 1.071362 1.788875 C 0.161233 0.320125 -1.202007 -2.129094 -1.963703 -3.675969 C -2.725399 -5.218937 -3.823022 -7.761906 -4.416754 -9.336125 C -5.00658 -10.91425 -5.81515 -13.472844 -6.225294 -15.031437 C -6.635438 -16.590031 -7.139329 -19.086125 -7.361979 -20.582219 C -7.584628 -22.078312 -7.787747 -24.425969 -7.830715 -25.808781 C -7.869776 -27.1955 -7.783841 -29.328312 -7.654939 -30.558781 C -7.526036 -31.78925 -7.174484 -33.636906 -6.897149 -34.672062 C -6.615907 -35.707219 -6.041706 -37.211125 -5.639374 -38.015812 C -5.237042 -38.824406 -4.483159 -39.937687 -3.98708 -40.488469 C -3.491001 -41.043156 -2.616027 -41.722844 -2.061356 -42.004094 C -1.510592 -42.285344 -0.57312 -42.519719 0.00108179 -42.519719 C 0.571377 -42.519719 1.508849 -42.285344 2.06352 -42.004094 C 2.614285 -41.722844 3.493165 -41.043156 3.989243 -40.488469 C 4.485322 -39.937687 5.2353 -38.824406 5.637631 -38.015812 C 6.043869 -37.211125 6.618071 -35.707219 6.895406 -34.672062 C 7.176648 -33.636906 7.524294 -31.78925 7.653196 -30.558781 C 7.782098 -29.328312 7.868033 -27.1955 7.828972 -25.808781 C 7.789911 -24.425969 7.586792 -22.078312 7.364142 -20.582219 C 7.141493 -19.086125 6.633695 -16.590031 6.227457 -15.031437 C 5.817314 -13.472844 5.008744 -10.91425 4.415012 -9.336125 C 3.825186 -7.761906 2.723656 -5.218937 1.965867 -3.675969 C 1.204171 -2.129094 -0.15907 0.320125 -1.073105 1.788875 C -1.983234 3.253719 -3.57303 5.546688 -4.608155 6.894344 C -5.64328 8.245906 -7.408852 10.312313 -8.529912 11.503719 C -9.654879 12.695125 -11.537635 14.484188 -12.713381 15.492 C -13.889127 16.499813 -15.822662 17.964656 -17.00622 18.765438 C -18.193685 19.566219 -20.10769 20.6795 -21.259999 21.261531 C -22.412308 21.839656 -24.232566 22.581844 -25.302847 22.933406 C -26.373127 23.284969 -28.033233 23.659969 -28.982424 23.784969 C -29.93552 23.913875 -31.365165 23.933406 -32.154204 23.847469 C -32.943242 23.761531 -34.079927 23.445125 -34.673659 23.167781 C -35.263485 22.886531 -36.05643 22.277156 -36.423607 21.831844 C -36.790783 21.386531 -37.197021 20.527156 -37.314205 19.945125 C -37.435295 19.363094 -37.423577 18.316219 -37.282956 17.632625 C -37.142335 16.952938 -36.697036 15.77325 -36.290798 15.031063 C -35.880654 14.288875 -35.009587 13.046688 -34.337732 12.284969 C -33.665877 11.52325 -32.372947 10.281063 -31.4511 9.538875 C -30.529252 8.796688 -28.845709 7.620906 -27.697306 6.937313 C -26.548903 6.253719 -24.513808 5.199031 -23.166192 4.609188 C -21.818576 4.015438 -19.490521 3.136531 -17.978848 2.667781 C -16.47108 2.195125 -13.912563 1.534969 -12.283706 1.21075 C -10.650942 0.882625 -7.932274 0.472469 -6.2292 0.3045 C -4.526126 0.136531 0.00108179 -0.0001875 0.00108179 -0.0001875 " transform="matrix(1.00003,0,0,-1,58.108293,57.492)"/>
<path style="fill:none;stroke-width:0.3985;stroke-linecap:butt;stroke-linejoin:miter;stroke:rgb(50%,50%,50%);stroke-opacity:1;stroke-dasharray:2.98883,2.98883;stroke-miterlimit:10;" d="M -56.69253 32.730281 L 0.00108179 -0.0001875 L 56.694693 32.730281 " transform="matrix(1.00003,0,0,-1,58.108293,57.492)"/>
</g>
</svg>
