<svg xmlns="http://www.w3.org/2000/svg" xmlns:xlink="http://www.w3.org/1999/xlink" version="1.1" width="93pt" height="94pt" viewBox="0 0 93 94">
<path transform="matrix(1.00008,0,0,-1.00003,46.45427,47.154939)" stroke-width=".3985" stroke-linecap="butt" stroke-miterlimit="10" stroke-linejoin="miter" fill="none" stroke="#000000" d="M-45.35506 0H44.3588"/>
<path transform="matrix(1.00008,0,0,-1.00003,90.81662,47.154939)" d="M.797 0C-.19925 .19925-1.19551 .59775-2.39102 1.29512-1.19551 .3985-1.19551-.3985-2.39102-1.29512-1.19551-.59775-.19925-.19925 .797 0Z"/>
<path transform="matrix(1.00008,0,0,-1.00003,90.81662,47.154939)" stroke-width=".3985" stroke-linecap="butt" stroke-linejoin="round" fill="none" stroke="#000000" d="M.797 0C-.19925 .19925-1.19551 .59775-2.39102 1.29512-1.19551 .3985-1.19551-.3985-2.39102-1.29512-1.19551-.59775-.19925-.19925 .797 0Z"/>
<path transform="matrix(1.00008,0,0,-1.00003,46.45427,47.154939)" stroke-width=".3985" stroke-linecap="butt" stroke-miterlimit="10" stroke-linejoin="miter" fill="none" stroke="#929292" d="M0-45.35506V45.35506"/>
<path transform="matrix(1.00008,0,0,-1.00003,46.45427,47.154939)" stroke-width="1.19553" stroke-linecap="butt" stroke-miterlimit="10" stroke-linejoin="miter" fill="none" stroke="#ff0000" d="M0 0C0 0 .51242 .04553 .70105 .10103 .88968 .15651 1.1887 .29126 1.35954 .4 1.53036 .50873 1.79036 .72716 1.93222 .88478 2.0741 1.04239 2.27922 1.33614 2.38205 1.53601 2.4849 1.73587 2.61864 2.09175 2.67342 2.32532 2.72818 2.55888 2.77725 2.96222 2.77689 3.21947 2.7765 3.4767 2.73135 3.90964 2.67065 4.17935 2.60997 4.44908 2.46361 4.8935 2.3395 5.16347 2.21538 5.43343 1.9645 5.8678 1.77615 6.12509 1.58781 6.38239 1.23286 6.78624 .98201 7.01785 .73116 7.24947 .2775 7.60101-.03181 7.79436-.34114 7.98769-.88586 8.26816-1.24742 8.41132-1.609 8.55447-2.23253 8.74417-2.63777 8.82622-3.04305 8.90826-3.73003 8.99112-4.16827 9.0027-4.6065 9.01427-5.33742 8.97595-5.79636 8.9096-6.2553 8.84328-7.01015 8.67412-7.476 8.52448-7.94183 8.37482-8.69598 8.067-9.1539 7.83104-9.61182 7.59505-10.34184 7.14632-10.77644 6.82373-11.21104 6.50114-11.89052 5.91287-12.28618 5.50604-12.68184 5.0992-13.28682 4.37756-13.6281 3.89145-13.96935 3.40533-14.47365 2.56007-14.74577 2.00247-15.0179 1.44487-15.39992 .49141-15.5894-.12732-15.7789-.74608-16.01642-1.78984-16.11157-2.45715-16.20671-3.12445-16.28435-4.2359-16.27524-4.93681-16.26611-5.63773-16.1669-6.79105-16.04582-7.50887-15.92473-8.22668-15.6402-9.39377-15.40254-10.11034-15.16489-10.8269-14.68896-11.97699-14.33296-12.67339-13.97696-13.36978-13.30977-14.47273-12.83673-15.12952-12.36366-15.78632-11.50925-16.80966-10.92351-17.4071-10.33778-18.00456-9.30585-18.9166-8.61513-19.43555-7.9244-19.95448-6.72984-20.72458-5.94514-21.14735-5.16046-21.57014-3.82426-22.1725-2.9596-22.4827-2.09491-22.7929-.64127-23.19983 .28683-23.38309 1.215-23.56633 2.75725-23.75891 3.72986-23.80351 4.70247-23.8481 6.30095-23.80746 7.29675-23.70453 8.29256-23.6016 9.91063-23.3176 10.90689-23.0616 11.90317-22.80562 13.50426-22.27051 14.47725-21.8595 15.45024-21.44849 16.9942-20.66336 17.91957-20.09923 18.84494-19.5351 20.29318-18.50552 21.14667-17.79362 22.00015-17.08171 23.31303-15.81863 24.07098-14.96828 24.82895-14.1179 25.96944-12.64018 26.60948-11.6647 27.24951-10.68922 28.18207-9.02144 28.68391-7.93759 29.18579-6.85376 29.88068-5.02513 30.22655-3.85304 30.57242-2.68095 31.00223-.72737 31.17674 .51004 31.35126 1.74747 31.49295 3.7881 31.48438 5.06554 31.47578 6.34297 31.314 8.42694 31.1148 9.7169 30.91562 11.00685 30.4417 13.08894 30.04868 14.36273 29.65565 15.6365 28.86841 17.66945 28.2822 18.89746 27.69597 20.12549 26.59799 22.061 25.82364 23.21352 25.04927 24.36603 23.65352 26.15584 22.70105 27.20396 21.74855 28.25208 20.07492 29.85136 18.95871 30.76773 17.84251 31.68413 15.91743 33.0497 14.65614 33.80865 13.39485 34.56761 11.2517 35.65898 9.86812 36.23781 8.48454 36.81664 6.16396 37.60176 4.6842 37.98042 3.20447 38.35909 .74982 38.80426-.79688 38.96695-2.34363 39.12965-4.88158 39.21712-6.46352 39.15312-8.04543 39.08913-10.61488 38.80316-12.19829 38.50569-13.7817 38.20822-16.32559 37.54144-17.87564 37.00912-19.42567 36.47678-21.88844 35.4328-23.36992 34.6689-24.8514 33.905-27.17517 32.48987-28.55313 31.5034-29.93109 30.51692-32.0603 28.75343-33.30139 27.55898-34.54247 26.36452-36.42531 24.27782-37.49806 22.89447-38.57082 21.51112-40.15738 19.13661-41.03311 17.58878-41.90884 16.04094-43.80968 11.73875-43.80968 11.73875"/>
</svg>
