<svg xmlns="http://www.w3.org/2000/svg" xmlns:xlink="http://www.w3.org/1999/xlink" version="1.1" width="166" height="123" viewBox="0 0 166 123">
<defs>
<path id="font_1_2" d="M.33399964 .30233766C.33999635 .32835389 .36299134 .42037965 .43299867 .42037965 .43798829 .42037965 .46199037 .42037965 .48298646 .40734864 .45498658 .402359 .43499757 .37734986 .43499757 .35334779 .43499757 .33735658 .44599916 .31835938 .47299195 .31835938 .49499513 .31835938 .5269928 .3363495 .5269928 .37635804 .5269928 .42837525 .46798707 .4423828 .43399049 .4423828 .37599183 .4423828 .34098817 .38935853 .32899476 .36634828 .3039856 .43237306 .25 .4423828 .22099304 .4423828 .116989139 .4423828 .05999756 .3133545 .05999756 .28834535 .05999756 .27833558 .069992069 .27833558 .07199097 .27833558 .07998657 .27833558 .08299255 .28033448 .084991458 .28933717 .11898804 .39535523 .18499756 .42037965 .21899414 .42037965 .23799134 .42037965 .272995 .4113617 .272995 .35334779 .272995 .32235719 .2559967 .25532533 .21899414 .11528015 .20298767 .053268434 .16799927 .011245728 .12399292 .011245728 .117996219 .011245728 .09498596 .011245728 .07398987 .024276734 .09899902 .029266358 .12098694 .05027771 .12098694 .07827759 .12098694 .105270389 .09899902 .11328125 .083999637 .11328125 .053985597 .11328125 .0289917 .08728027 .0289917 .055267335 .0289917 .009246826 .07899475-.0107421879 .12298584-.0107421879 .18899536-.0107421879 .22499085 .059280397 .22799683 .0652771 .23999024 .028274537 .27598573-.0107421879 .33599855-.0107421879 .43899537-.0107421879 .49598695 .118270877 .49598695 .14328003 .49598695 .1532898 .4869995 .1532898 .48399354 .1532898 .47499085 .1532898 .47299195 .14929199 .47099305 .14228821 .43798829 .03527832 .36999513 .011245728 .33799745 .011245728 .29899598 .011245728 .2829895 .043273927 .2829895 .07727051 .2829895 .09927368 .2889862 .121276859 .2999878 .16529846L.33399964 .30233766Z"/>
<path id="font_1_3" d="M.48599244 .38136292C.48999024 .39537049 .48999024 .39736939 .48999024 .40437318 .48999024 .42237855 .47599793 .43138124 .46099855 .43138124 .45098878 .43138124 .43499757 .42536927 .42599488 .41036988 .42399598 .405365 .41600038 .37435914 .4119873 .35635377 .40499879 .33035279 .397995 .30334474 .3919983 .27633668L.34700013 .09628296C.34298707 .08126831 .2999878 .011245728 .23399353 .011245728 .18299866 .011245728 .17199707 .055267335 .17199707 .0922699 .17199707 .1382904 .18899536 .20030213 .22299195 .28833009 .23899842 .3293457 .24299622 .3403473 .24299622 .36035157 .24299622 .405365 .21099854 .4423828 .16099549 .4423828 .06599426 .4423828 .0289917 .29733277 .0289917 .28833009 .0289917 .27833558 .038986207 .27833558 .040985109 .27833558 .050994874 .27833558 .051986696 .28033448 .056991579 .29634095 .083999637 .3903656 .12399292 .42037965 .1579895 .42037965 .1659851 .42037965 .18299866 .42037965 .18299866 .3883667 .18299866 .36335755 .17298889 .3373413 .1659851 .31834413 .12599182 .21231079 .10798645 .1552887 .10798645 .10827637 .10798645 .019256592 .17098999-.0107421879 .22999573-.0107421879 .2689972-.0107421879 .30299378 .0062561037 .33099366 .03425598 .31799317-.017745972 .30599977-.06674194 .2659912-.11973572 .23999024-.15385437 .20199585-.18309021 .1559906-.18309021 .14199829-.18309021 .09700012-.18005371 .07998657-.14074707 .09599304-.14074707 .10899353-.14074707 .12298584-.1287384 .1329956-.11973572 .14299011-.10673523 .14299011-.08773804 .14299011-.056747438 .115997318-.052734376 .10598755-.052734376 .08299255-.052734376 .049987794-.068740848 .049987794-.11773682 .049987794-.16796875 .09399414-.20507813 .1559906-.20507813 .25898744-.20507813 .3619995-.11373901 .3899994-.00074768069L.48599244 .38136292Z"/>
<path id="font_2_64" d="M.27598573 .18710327V.24511719H.010986328V.18710327H.27598573Z"/>
<path id="font_2_101" d="M.45700074 .2036438C.45700074 .33070375 .36799623 .4267578 .25698854 .4267578 .18899536 .4267578 .1519928 .37573243 .13198853 .327713V.35173036C.13198853 .6047821 .2559967 .64100649 .30699159 .64100649 .33099366 .64100649 .37298585 .634964 .394989 .6007538 .37998963 .6007538 .33999635 .6007538 .33999635 .5557556 .33999635 .524765 .3639984 .5097656 .38598634 .5097656 .4019928 .5097656 .43199159 .51875308 .43199159 .5577545 .43199159 .6178589 .3880005 .6660156 .30499269 .6660156 .1769867 .6660156 .041992189 .5367584 .041992189 .31570436 .041992189 .048553468 .1579895-.022460938 .25099183-.022460938 .3619995-.022460938 .45700074 .07156372 .45700074 .2036438M.36698915 .20463562C.36698915 .15661621 .36698915 .10658264 .34999085 .0705719 .31999208 .010528564 .27398683 .0055389406 .25099183 .0055389406 .18798828 .0055389406 .1579895 .06556702 .1519928 .080566409 .13398743 .127594 .13398743 .2076416 .13398743 .22564698 .13398743 .30369569 .1659851 .40374757 .2559967 .40374757 .27198792 .40374757 .31799317 .40374757 .34899903 .34172059 .36698915 .30470277 .36698915 .2536621 .36698915 .20463562Z"/>
<path id="font_2_57" d="M.47099305 .16503906V.19602967H.37098695V.6507721C.37098695 .6707611 .37098695 .6767578 .35499574 .6767578 .34599305 .6767578 .34298707 .6767578 .33499146 .6647644L.027999878 .19602967V.16503906H.2939911V.07800293C.2939911 .041992189 .2919922 .0309906 .21798706 .0309906H.19699097V0C.23799134 .0029907227 .2899933 .0029907227 .33198548 .0029907227 .37399293 .0029907227 .4269867 .0029907227 .46798707 0V.0309906H.44699098C.37298585 .0309906 .37098695 .041992189 .37098695 .07800293V.16503906H.47099305M.2999878 .19602967H.055999757L.2999878 .56881716V.19602967Z"/>
<path id="font_2_107" d="M.44898988 .17396546H.42399598C.4189911 .14398194 .4119873 .099990848 .4019928 .084991458 .394989 .07699585 .32899476 .07699585 .30699159 .07699585H.1269989L.23298645 .17996216C.3889923 .31803895 .44898988 .37210084 .44898988 .47216798 .44898988 .5860901 .35899354 .6660156 .23699951 .6660156 .12399292 .6660156 .049987794 .57411196 .049987794 .48516847 .049987794 .4291687 .099990848 .4291687 .102996829 .4291687 .11999512 .4291687 .15499878 .44117738 .15499878 .48217774 .15499878 .5081787 .13699341 .5341797 .101989749 .5341797 .09399414 .5341797 .09199524 .5341797 .08898926 .5331726 .11199951 .59806826 .1659851 .63500979 .22399903 .63500979 .31498719 .63500979 .35798646 .5541382 .35798646 .47216798 .35798646 .39196778 .30799867 .31297303 .25299073 .25097657L.06098938 .036987306C.049987794 .025985718 .049987794 .023986817 .049987794 0H.42099L.44898988 .17396546Z"/>
<path id="font_1_1" d="M.2649994 .37265016H.37799073C.34498597 .22489929 .33599855 .18196106 .33599855 .11508179 .33599855 .100097659 .33599855 .073150638 .34399415 .03919983 .35398866-.0047454836 .36499024-.0107421879 .37998963-.0107421879 .3999939-.0107421879 .42099 .007247925 .42099 .02722168 .42099 .033218385 .42099 .035202028 .4149933 .049179079 .38598634 .12106323 .38598634 .18595886 .38598634 .21391297 .38598634 .26683045 .3929901 .32073976 .4039917 .37265016H.5179901C.5309906 .37265016 .5669861 .37265016 .5669861 .406662 .5669861 .43066407 .54599 .43066407 .5269928 .43066407H.19198609C.16999817 .43066407 .13198853 .43066407 .08799744 .38365174 .052993776 .34469605 .026992798 .29878236 .026992798 .29379273 .026992798 .29278565 .026992798 .28379823 .038986207 .28379823 .04699707 .28379823 .04899597 .28779603 .054992677 .29577638 .10398865 .37265016 .1619873 .37265016 .18199158 .37265016H.23899842C.20698548 .25186158 .15299988 .13105774 .11099243 .04020691 .102996829 .025222779 .102996829 .023223877 .102996829 .016235352 .102996829-.002746582 .11898804-.0107421879 .13198853-.0107421879 .1619873-.0107421879 .16999817 .017242432 .18199158 .05418396 .19599915 .100097659 .19599915 .10209656 .20899964 .15202332L.2649994 .37265016Z"/>
<path id="font_3_1" d="M.1269989 .07699585 .23298645 .18003845C.3889923 .31811524 .44898988 .3721466 .44898988 .47216798 .44898988 .5860901 .35899354 .6660156 .23699951 .6660156 .12399292 .6660156 .049987794 .57411196 .049987794 .48516847 .049987794 .4291687 .099990848 .4291687 .102996829 .4291687 .11999512 .4291687 .15499878 .44117738 .15499878 .48217774 .15499878 .5081787 .13699341 .5341797 .101989749 .5341797 .09399414 .5341797 .09199524 .5341797 .08898926 .5331726 .11199951 .59806826 .1659851 .63500979 .22399903 .63500979 .31498719 .63500979 .35798646 .5541382 .35798646 .47216798 .35798646 .39215089 .30799867 .31311036 .25299073 .25108338L.06098938 .036987306C.049987794 .025985718 .049987794 .023986817 .049987794 0H.42099L.44898988 .17404175H.42399598C.4189911 .14402771 .4119873 .1000061 .4019928 .084991458 .394989 .07699585 .32899476 .07699585 .30699159 .07699585H.1269989Z"/>
</defs>
<path transform="matrix(1.00006,0,0,-1.00003,14.936989,66.2946)" stroke-width=".3985" stroke-linecap="butt" stroke-miterlimit="10" stroke-linejoin="miter" fill="none" stroke="#00aeef" d="M0-51.02477H133.58092M0-42.52063H133.58092M0-34.0165H133.58092M0-25.51237H133.58092M0-17.00824H133.58092M0-8.50412H133.58092M0 0H133.58092M0 8.50412H133.58092M0 17.00824H133.58092M0 25.51237H133.58092M0 34.0165H133.58092M0 42.52063H133.58092M0 51.02177H133.58092M0-51.02477V51.02477M8.34818-51.02477V51.02477M16.69637-51.02477V51.02477M25.04456-51.02477V51.02477M33.39275-51.02477V51.02477M41.74094-51.02477V51.02477M50.08913-51.02477V51.02477M58.43732-51.02477V51.02477M66.7855-51.02477V51.02477M75.13368-51.02477V51.02477M83.48189-51.02477V51.02477M91.83006-51.02477V51.02477M100.17827-51.02477V51.02477M108.52644-51.02477V51.02477M116.87465-51.02477V51.02477M125.22282-51.02477V51.02477M133.57102-51.02477V51.02477M133.58092 51.02477"/>
<path transform="matrix(1.00006,0,0,-1.00003,14.936989,66.2946)" stroke-width=".79701" stroke-linecap="butt" stroke-miterlimit="10" stroke-linejoin="miter" fill="none" stroke="#000000" d="M0 0H138.88222"/>
<path transform="matrix(1.00006,0,0,-1.00003,153.82755,66.2946)" d="M1.0361 0C-.25902 .25902-1.55415 .77707-3.1083 1.68365-1.55415 .51805-1.55415-.51805-3.1083-1.68365-1.55415-.77707-.25902-.25902 1.0361 0Z"/>
<path transform="matrix(1.00006,0,0,-1.00003,153.82755,66.2946)" stroke-width=".79701" stroke-linecap="butt" stroke-linejoin="round" fill="none" stroke="#000000" d="M1.0361 0C-.25902 .25902-1.55415 .77707-3.1083 1.68365-1.55415 .51805-1.55415-.51805-3.1083-1.68365-1.55415-.77707-.25902-.25902 1.0361 0Z"/>
<use data-text="x" xlink:href="#font_1_2" transform="matrix(9.963197,0,0,-9.962899,158.98163,68.43967)"/>
<path transform="matrix(1.00006,0,0,-1.00003,14.936989,66.2946)" stroke-width=".79701" stroke-linecap="butt" stroke-miterlimit="10" stroke-linejoin="miter" fill="none" stroke="#000000" d="M0-51.02477V52.99174"/>
<path transform="matrix(0,-1.00003,-1.00006,-0,14.936989,13.30127)" d="M1.0361 0C-.25902 .25902-1.55415 .77707-3.1083 1.68365-1.55415 .51805-1.55415-.51805-3.1083-1.68365-1.55415-.77707-.25902-.25902 1.0361 0Z"/>
<path transform="matrix(0,-1.00003,-1.00006,-0,14.936989,13.30127)" stroke-width=".79701" stroke-linecap="butt" stroke-linejoin="round" fill="none" stroke="#000000" d="M1.0361 0C-.25902 .25902-1.55415 .77707-3.1083 1.68365-1.55415 .51805-1.55415-.51805-3.1083-1.68365-1.55415-.77707-.25902-.25902 1.0361 0Z"/>
<use data-text="y" xlink:href="#font_1_3" transform="matrix(9.963197,0,0,-9.962899,12.315834,6.209797)"/>
<path transform="matrix(1.00006,0,0,-1.00003,14.936989,66.2946)" stroke-width=".79701" stroke-linecap="butt" stroke-miterlimit="10" stroke-linejoin="miter" fill="none" stroke="#000000" d="M1.7005-51.02477H-1.70116"/>
<use data-text="-" xlink:href="#font_2_64" transform="matrix(9.963197,0,0,-9.962899,1.2171631,120.529239)"/>
<use data-text="6" xlink:href="#font_2_101" transform="matrix(9.963197,0,0,-9.962899,4.534912,120.529239)"/>
<path transform="matrix(1.00006,0,0,-1.00003,14.936989,66.2946)" stroke-width=".79701" stroke-linecap="butt" stroke-miterlimit="10" stroke-linejoin="miter" fill="none" stroke="#000000" d="M1.7005-34.0165H-1.70116"/>
<use data-text="-" xlink:href="#font_2_64" transform="matrix(9.963197,0,0,-9.962899,1.2171631,103.68472)"/>
<use data-text="4" xlink:href="#font_2_57" transform="matrix(9.963197,0,0,-9.962899,4.534912,103.68472)"/>
<path transform="matrix(1.00006,0,0,-1.00003,14.936989,66.2946)" stroke-width=".79701" stroke-linecap="butt" stroke-miterlimit="10" stroke-linejoin="miter" fill="none" stroke="#000000" d="M1.7005-17.00824H-1.70116"/>
<use data-text="-" xlink:href="#font_2_64" transform="matrix(9.963197,0,0,-9.962899,1.2171631,86.621219)"/>
<use data-text="2" xlink:href="#font_2_107" transform="matrix(9.963197,0,0,-9.962899,4.534912,86.621219)"/>
<path transform="matrix(1.00006,0,0,-1.00003,14.936989,66.2946)" stroke-width=".79701" stroke-linecap="butt" stroke-miterlimit="10" stroke-linejoin="miter" fill="none" stroke="#000000" d="M1.7005 17.00824H-1.70116"/>
<use data-text="2" xlink:href="#font_2_107" transform="matrix(9.963197,0,0,-9.962899,4.534363,52.60319)"/>
<path transform="matrix(1.00006,0,0,-1.00003,14.936989,66.2946)" stroke-width=".79701" stroke-linecap="butt" stroke-miterlimit="10" stroke-linejoin="miter" fill="none" stroke="#000000" d="M1.7005 34.0165H-1.70116"/>
<use data-text="4" xlink:href="#font_2_57" transform="matrix(9.963197,0,0,-9.962899,4.534363,35.64968)"/>
<path transform="matrix(1.00006,0,0,-1.00003,14.936989,66.2946)" stroke-width=".79701" stroke-linecap="butt" stroke-miterlimit="10" stroke-linejoin="miter" fill="none" stroke="#000000" d="M1.7005 51.02477H-1.70116"/>
<use data-text="6" xlink:href="#font_2_101" transform="matrix(9.963197,0,0,-9.962899,4.534363,18.476162)"/>
<path transform="matrix(1.00006,0,0,-1.00003,14.936989,66.2946)" stroke-width=".79701" stroke-linecap="butt" stroke-miterlimit="10" stroke-linejoin="miter" fill="none" stroke="#000000" d="M66.79012 .85045V-.85031"/>
<path transform="matrix(1.00006,0,0,-1.00003,14.936989,66.2946)" d="M61.58006-23.09729H72.00015V-3.2413808H61.58006Z" fill="#ffffff"/>
<use data-text="&#x03c0;" xlink:href="#font_1_1" transform="matrix(9.963197,0,0,-9.962899,78.71283,74.82185)"/>
<path transform="matrix(1.00006,0,0,-1.00003,-22.425244,28.264458)" stroke-width=".3985" stroke-linecap="butt" stroke-miterlimit="10" stroke-linejoin="miter" fill="none" stroke="#000000" d="M101.132-50.805H107.168"/>
<use data-text="2" xlink:href="#font_3_1" transform="matrix(9.963197,0,0,-9.962899,79.23985,88.39627)"/>
<path transform="matrix(1.00006,0,0,-1.00003,14.936989,66.2946)" stroke-width=".79701" stroke-linecap="butt" stroke-miterlimit="10" stroke-linejoin="miter" fill="none" stroke="#000000" d="M133.58092 .85045V-.85031"/>
<path transform="matrix(1.00006,0,0,-1.00003,14.936989,66.2946)" d="M130.56267-10.51971H138.5917V-4.2376496H130.56267Z" fill="#ffffff"/>
<use data-text="&#x03c0;" xlink:href="#font_1_1" transform="matrix(9.963197,0,0,-9.962899,146.50388,75.81789)"/>
<path transform="matrix(1.00006,0,0,-1.00003,14.936989,66.2946)" stroke-width=".79701" stroke-linecap="butt" stroke-dasharray="2.98883,2.98883" stroke-miterlimit="10" stroke-linejoin="miter" fill="none" stroke="#515151" d="M33.39473-51.02477V51.02477"/>
<path transform="matrix(1.00006,0,0,-1.00003,14.936989,66.2946)" stroke-width=".79701" stroke-linecap="butt" stroke-dasharray="2.98883,2.98883" stroke-miterlimit="10" stroke-linejoin="miter" fill="none" stroke="#515151" d="M100.18552-51.02477V51.02477"/>
<path transform="matrix(1.00006,0,0,-1.00003,14.936989,66.2946)" stroke-width=".79701" stroke-linecap="butt" stroke-dasharray="2.98883,2.98883" stroke-miterlimit="10" stroke-linejoin="miter" fill="none" stroke="#515151" d="M0 8.50412H133.58092"/>
<path transform="matrix(1.00006,0,0,-1.00003,14.936989,66.2946)" stroke-width=".79701" stroke-linecap="butt" stroke-miterlimit="10" stroke-linejoin="miter" fill="none" stroke="#ff0000" d="M0 8.50412C0 8.50412 .65906 9.29433 .9122 9.5988 1.16533 9.90326 1.5713 10.39233 1.82443 10.69853 2.07758 11.00471 2.4835 11.49672 2.73663 11.80566 2.98978 12.11461 3.39574 12.61221 3.64888 12.92526 3.90201 13.23831 4.30794 13.74347 4.56108 14.06198 4.81421 14.3805 5.22018 14.89572 5.47331 15.22089 5.72646 15.54604 6.1324 16.07245 6.38553 16.4055 6.63867 16.73854 7.04462 17.27843 7.29776 17.62125 7.55089 17.96407 7.95686 18.52193 8.20999 18.8763 8.46313 19.23068 8.86906 19.8077 9.1222 20.17535 9.37534 20.54303 9.7813 21.14275 10.03444 21.52618 10.28757 21.90964 10.69351 22.53745 10.94666 22.9389 11.19978 23.3404 11.60574 23.99733 11.85887 24.41977 12.11201 24.8422 12.51796 25.5363 12.77109 25.98354 13.02423 26.43076 13.43018 27.16743 13.68332 27.64307 13.93645 28.11871 14.34239 28.90292 14.59554 29.4116 14.84866 29.9203 15.25462 30.76176 15.50775 31.30939 15.7609 31.85703 16.16685 32.76506 16.42 33.35861 16.67313 33.95215 17.07907 34.93939 17.33221 35.58728 17.58534 36.23517 17.9913 37.31499 18.24443 38.02812 18.49757 38.74124 18.90352 39.93565 19.15665 40.72705 19.40979 41.51845 19.81573 42.84534 20.06888 43.73196 20.322 44.61859 20.72795 46.1129 20.9811 47.11722 21.23422 48.12154 21.89333 50.97038 21.57 49.57272"/>
<path transform="matrix(.22538352,-.97428926,-.9743184,-.22537677,36.50828,16.720406)" d="M1.0361 0C-.25902 .25902-1.55415 .77707-3.1083 1.68365-1.55415 .51805-1.55415-.51805-3.1083-1.68365-1.55415-.77707-.25902-.25902 1.0361 0Z" fill="#ff0000"/>
<path transform="matrix(.22538352,-.97428926,-.9743184,-.22537677,36.50828,16.720406)" stroke-width=".79701" stroke-linecap="butt" stroke-linejoin="round" fill="none" stroke="#ff0000" d="M1.0361 0C-.25902 .25902-1.55415 .77707-3.1083 1.68365-1.55415 .51805-1.55415-.51805-3.1083-1.68365-1.55415-.77707-.25902-.25902 1.0361 0Z"/>
<path transform="matrix(1.00006,0,0,-1.00003,14.936989,66.2946)" stroke-width=".79701" stroke-linecap="butt" stroke-miterlimit="10" stroke-linejoin="miter" fill="none" stroke="#ff0000" d="M42.21408-49.60095C43.4091-41.5407 43.4091-41.5407 43.94885-38.59311 44.4886-35.6455 45.35425-31.92755 45.894-29.77573 46.43373-27.6239 47.29936-24.75142 47.83911-23.08426 48.37886-21.41708 49.24448-19.1099 49.78423-17.75996 50.32397-16.41 51.18962-14.48828 51.72935-13.35478 52.2691-12.22125 53.13474-10.57101 53.67448-9.59036 54.21423-8.6097 55.07985-7.15733 55.6196-6.28687 56.15933-5.41638 57.02498-4.10707 57.56473-3.31659 58.10448-2.52611 58.97011-1.32248 59.50986-.58963 60.0496 .14319 60.91522 1.27269 61.45496 1.96524 61.9947 2.65779 62.86035 3.73544 63.4001 4.40178 63.93985 5.06815 64.80548 6.11546 65.34523 6.76788 65.88496 7.4203 66.75058 8.45424 67.29033 9.104 67.83008 9.75378 68.69572 10.79277 69.23547 11.45102 69.77522 12.10928 70.64085 13.17001 71.1806 13.84827 71.72034 14.5265 72.58595 15.62791 73.1257 16.33932 73.66545 17.05074 74.5311 18.2155 75.07085 18.97557 75.6106 19.73564 76.47623 20.98904 77.01596 21.81738 77.55571 22.64572 78.42133 24.0231 78.96107 24.9457 79.50082 25.86829 80.36647 27.4141 80.90622 28.46681 81.44595 29.51952 82.31158 31.29774 82.85133 32.53293 83.39108 33.76808 84.2567 35.87154 84.79645 37.36905 85.3362 38.86656 86.20184 41.43672 86.74158 43.32593 87.28133 45.21515 88.6867 50.98518 88.34727 49.59138"/>
<path transform="matrix(-.1466288,.9891697,.9891993,.14662442,57.15362,115.89703)" d="M1.0361 0C-.25902 .25902-1.55415 .77707-3.1083 1.68365-1.55415 .51805-1.55415-.51805-3.1083-1.68365-1.55415-.77707-.25902-.25902 1.0361 0Z" fill="#ff0000"/>
<path transform="matrix(-.1466288,.9891697,.9891993,.14662442,57.15362,115.89703)" stroke-width=".79701" stroke-linecap="butt" stroke-linejoin="round" fill="none" stroke="#ff0000" d="M1.0361 0C-.25902 .25902-1.55415 .77707-3.1083 1.68365-1.55415 .51805-1.55415-.51805-3.1083-1.68365-1.55415-.77707-.25902-.25902 1.0361 0Z"/>
<path transform="matrix(.23661419,-.9715892,-.97161826,-.2366071,103.28955,16.70174)" d="M1.0361 0C-.25902 .25902-1.55415 .77707-3.1083 1.68365-1.55415 .51805-1.55415-.51805-3.1083-1.68365-1.55415-.77707-.25902-.25902 1.0361 0Z" fill="#ff0000"/>
<path transform="matrix(.23661419,-.9715892,-.97161826,-.2366071,103.28955,16.70174)" stroke-width=".79701" stroke-linecap="butt" stroke-linejoin="round" fill="none" stroke="#ff0000" d="M1.0361 0C-.25902 .25902-1.55415 .77707-3.1083 1.68365-1.55415 .51805-1.55415-.51805-3.1083-1.68365-1.55415-.77707-.25902-.25902 1.0361 0Z"/>
<path transform="matrix(1.00006,0,0,-1.00003,14.936989,66.2946)" stroke-width=".79701" stroke-linecap="butt" stroke-miterlimit="10" stroke-linejoin="miter" fill="none" stroke="#ff0000" d="M108.992-49.59906C109.54036-45.65466 109.54036-45.65466 109.8268-43.84383 110.1132-42.03297 110.5726-39.46555 110.85904-37.96869 111.14546-36.47182 111.60484-34.31947 111.89128-33.05548 112.1777-31.79146 112.63712-29.94594 112.92354-28.85857 113.20998-27.77116 113.66937-26.1676 113.95578-25.21832 114.24222-24.26906 114.70161-22.8563 114.98804-22.01682 115.27446-21.17735 115.73387-19.9189 116.02031-19.16801 116.30673-18.41713 116.76611-17.28377 117.05255-16.60493 117.33897-15.9261 117.79836-14.8948 118.0848-14.27544 118.37122-13.65608 118.8306-12.71107 119.11703-12.14098 119.40346-11.57088 119.86288-10.69551 120.1493-10.1665 120.43573-9.6375 120.89513-8.82256 121.18155-8.3283 121.46799-7.83401 121.92737-7.06927 122.21379-6.60413 122.50023-6.13896 122.95963-5.4161 123.24606-4.97574 123.53249-4.53537 123.99187-3.84978 124.2783-3.43025 124.56473-3.01074 125.02412-2.35416 125.31055-1.95213 125.59697-1.55013 126.0564-.92 126.34282-.53279 126.62924-.14557 127.08864 .46341 127.37506 .83864 127.6615 1.21387 128.12088 1.80627 128.4073 2.17157 128.69374 2.53685 129.15314 3.11404 129.43958 3.47139 129.726 3.82875 130.1854 4.39557 130.47182 4.74709 130.75824 5.09862 131.21764 5.65753 131.50408 6.00488 131.79048 6.35225 132.24991 6.9059 132.53633 7.25061 132.82277 7.5953 133.56858 8.48932 132.64966 7.38774"/>
<path transform="matrix(-.13766825,.99047979,.9905094,.13766414,123.93555,115.895137)" d="M1.0361 0C-.25902 .25902-1.55415 .77707-3.1083 1.68365-1.55415 .51805-1.55415-.51805-3.1083-1.68365-1.55415-.77707-.25902-.25902 1.0361 0Z" fill="#ff0000"/>
<path transform="matrix(-.13766825,.99047979,.9905094,.13766414,123.93555,115.895137)" stroke-width=".79701" stroke-linecap="butt" stroke-linejoin="round" fill="none" stroke="#ff0000" d="M1.0361 0C-.25902 .25902-1.55415 .77707-3.1083 1.68365-1.55415 .51805-1.55415-.51805-3.1083-1.68365-1.55415-.77707-.25902-.25902 1.0361 0Z"/>
<path transform="matrix(.6405684,-.7678931,-.767916,-.64054927,147.5946,58.90665)" d="M1.0361 0C-.25902 .25902-1.55415 .77707-3.1083 1.68365-1.55415 .51805-1.55415-.51805-3.1083-1.68365-1.55415-.77707-.25902-.25902 1.0361 0Z" fill="#ff0000"/>
<path transform="matrix(.6405684,-.7678931,-.767916,-.64054927,147.5946,58.90665)" stroke-width=".79701" stroke-linecap="butt" stroke-linejoin="round" fill="none" stroke="#ff0000" d="M1.0361 0C-.25902 .25902-1.55415 .77707-3.1083 1.68365-1.55415 .51805-1.55415-.51805-3.1083-1.68365-1.55415-.77707-.25902-.25902 1.0361 0Z"/>
</svg>
