<svg xmlns="http://www.w3.org/2000/svg" xmlns:xlink="http://www.w3.org/1999/xlink" version="1.1" width="208" height="146" viewBox="0 0 208 146">
<defs>
<path id="font_1_1" d="M.45498658 .5001831C.45498658 .56614688 .43699647 .7050781 .33499146 .7050781 .19599915 .7050781 .041992189 .42323304 .041992189 .19425965 .041992189 .100250247 .070999149-.0107421879 .1619873-.0107421879 .30299378-.0107421879 .45498658 .27627564 .45498658 .5001831M.147995 .36328126C.16499329 .42723084 .18499756 .5071869 .22499085 .57814028 .2519989 .6271057 .2889862 .68307498 .33399964 .68307498 .3829956 .68307498 .3889923 .6191101 .3889923 .56214907 .3889923 .5131836 .3809967 .46220399 .35699464 .36328126H.147995M.34799195 .3312683C.33699037 .28527833 .31599427 .2002716 .27799989 .12826538 .24299622 .060256959 .20498657 .011245728 .1619873 .011245728 .1289978 .011245728 .10798645 .040252687 .10798645 .133255 .10798645 .17526245 .11399841 .23326111 .13999939 .3312683H.34799195Z"/>
<path id="font_1_2" d="M.5159912 .68333438C.5159912 .6843262 .5159912 .69433596 .5029907 .69433596 .48799134 .69433596 .3929901 .68533328 .37599183 .68333438 .36799623 .6823273 .3619995 .6773224 .3619995 .6643219 .3619995 .6523285 .37098695 .6523285 .38598634 .6523285 .43399049 .6523285 .43598939 .6453247 .43598939 .6353302L.43299867 .6153412 .37298585 .37835694C.35499574 .41537477 .32598878 .4423828 .2809906 .4423828 .1639862 .4423828 .039993287 .29533387 .039993287 .14929199 .039993287 .055267335 .09498596-.0107421879 .17298889-.0107421879 .19299317-.0107421879 .24299622-.0067443849 .30299378 .06427002 .31098939 .022247315 .34599305-.0107421879 .3939972-.0107421879 .42900086-.0107421879 .45199586 .012252808 .46798707 .044265748 .4850006 .08027649 .49798585 .14129639 .49798585 .14329529 .49798585 .1532898 .4889984 .1532898 .48599244 .1532898 .47599793 .1532898 .47499085 .14929199 .47200013 .13528443 .45498658 .07026672 .43699647 .011245728 .3959961 .011245728 .36898805 .011245728 .3659973 .037261964 .3659973 .057266237 .3659973 .08126831 .36799623 .088272098 .37199403 .105285648L.5159912 .68333438M.30799867 .119277957C.30299378 .10127258 .30299378 .09927368 .28799439 .08227539 .24398804 .027252198 .20298767 .011245728 .1749878 .011245728 .125 .011245728 .11099243 .06626892 .11099243 .105285648 .11099243 .1552887 .14299011 .27833558 .1659851 .32434083 .19699097 .38336183 .24198914 .42037965 .28199769 .42037965 .34700013 .42037965 .36099244 .3383484 .36099244 .33235169 .36099244 .32633973 .35899354 .32034303 .35798646 .31533814L.30799867 .119277957Z"/>
<path id="font_2_1" d="M.45999146 .31976319C.45999146 .39982606 .45498658 .47988893 .41999818 .5539398 .37399293 .65000918 .2919922 .6660156 .25 .6660156 .18998719 .6660156 .116989139 .64001467 .07598877 .54693606 .04399109 .47789 .038986207 .39982606 .038986207 .31976319 .038986207 .24472046 .042999269 .15464783 .083999637 .07859802 .1269989-.0024719239 .19999695-.022460938 .24899292-.022460938 .30299378-.022460938 .3789978-.0014648438 .4229889 .09359741 .45498658 .16265869 .45999146 .2407074 .45999146 .31976319M.24899292-.00047302247C.20999146-.00047302247 .15098572 .024551392 .1329956 .12062073 .12199402 .18066406 .12199402 .2727356 .12199402 .3317871 .12199402 .39582826 .12199402 .46188355 .12998963 .5159149 .14898682 .63500979 .22399903 .64401248 .24899292 .64401248 .28199769 .64401248 .34799195 .6259918 .36698915 .52693179 .3769989 .47088624 .3769989 .39482118 .3769989 .3317871 .3769989 .25672914 .3769989 .18867493 .3659973 .12461853 .35099793 .029556275 .2939911-.00047302247 .24899292-.00047302247Z"/>
<path id="font_3_1" d="M.5069885 .24998474C.5069885 .3710022 .4099884 .4650116 .2919922 .4650116 .17199707 .4650116 .07699585 .36799623 .07699585 .25097657 .07699585 .1299591 .17399597 .035949708 .2919922 .035949708 .4119873 .035949708 .5069885 .13296509 .5069885 .24998474M.2919922 .08496094C.19799805 .08496094 .12599182 .16096497 .12599182 .24998474 .12599182 .34300233 .19999695 .41601563 .2919922 .41601563 .38598634 .41601563 .45799256 .33999635 .45799256 .25097657 .45799256 .15795899 .38398744 .08496094 .2919922 .08496094Z"/>
<path id="font_2_6" d="M.13198853 .327713V.35173036C.13198853 .6047821 .2559967 .64100649 .30699159 .64100649 .33099366 .64100649 .37298585 .634964 .394989 .6007538 .37998963 .6007538 .33999635 .6007538 .33999635 .5557556 .33999635 .524765 .3639984 .5097656 .38598634 .5097656 .4019928 .5097656 .43199159 .51875308 .43199159 .5577545 .43199159 .6178589 .3880005 .6660156 .30499269 .6660156 .1769867 .6660156 .041992189 .5367584 .041992189 .31570436 .041992189 .048553468 .1579895-.022460938 .25099183-.022460938 .3619995-.022460938 .45700074 .07156372 .45700074 .2036438 .45700074 .33070375 .36799623 .4267578 .25698854 .4267578 .18899536 .4267578 .1519928 .37573243 .13198853 .327713M.25099183 .0055389406C.18798828 .0055389406 .1579895 .06556702 .1519928 .080566409 .13398743 .127594 .13398743 .2076416 .13398743 .22564698 .13398743 .30369569 .1659851 .40374757 .2559967 .40374757 .27198792 .40374757 .31799317 .40374757 .34899903 .34172059 .36698915 .30470277 .36698915 .2536621 .36698915 .20463562 .36698915 .15661621 .36698915 .10658264 .34999085 .0705719 .31999208 .010528564 .27398683 .0055389406 .25099183 .0055389406Z"/>
<path id="font_2_2" d="M.2939911 .64004519C.2939911 .66400149 .2939911 .6660156 .2709961 .6660156 .20899964 .60227969 .12098694 .60227969 .08898926 .60227969V.57128909C.10899353 .57128909 .16799927 .57128909 .21998596 .5972748V.07902527C.21998596 .042999269 .21699524 .0309906 .1269989 .0309906H.09498596V0C.12998963 .0029907227 .21699524 .0029907227 .25698854 .0029907227 .29699708 .0029907227 .38398744 .0029907227 .4189911 0V.0309906H.3869934C.29699708 .0309906 .2939911 .041992189 .2939911 .07902527V.64004519Z"/>
<path id="font_2_3" d="M.1269989 .07699585 .23298645 .18003845C.3889923 .31811524 .44898988 .3721466 .44898988 .47216798 .44898988 .5860901 .35899354 .6660156 .23699951 .6660156 .12399292 .6660156 .049987794 .57411196 .049987794 .48516847 .049987794 .4291687 .099990848 .4291687 .102996829 .4291687 .11999512 .4291687 .15499878 .44117738 .15499878 .48217774 .15499878 .5081787 .13699341 .5341797 .101989749 .5341797 .09399414 .5341797 .09199524 .5341797 .08898926 .5331726 .11199951 .59806826 .1659851 .63500979 .22399903 .63500979 .31498719 .63500979 .35798646 .5541382 .35798646 .47216798 .35798646 .39215089 .30799867 .31311036 .25299073 .25108338L.06098938 .036987306C.049987794 .025985718 .049987794 .023986817 .049987794 0H.42099L.44898988 .17404175H.42399598C.4189911 .14402771 .4119873 .1000061 .4019928 .084991458 .394989 .07699585 .32899476 .07699585 .30699159 .07699585H.1269989Z"/>
<path id="font_2_7" d="M.16299439 .4569702C.116989139 .486969 .11299133 .52098086 .11299133 .5379791 .11299133 .598999 .17799378 .64100649 .24899292 .64100649 .32199098 .64100649 .38598634 .58898928 .38598634 .51698306 .38598634 .45996095 .34700013 .4119568 .2869873 .37695313L.16299439 .4569702M.30899049 .36193849C.3809967 .3989563 .42999269 .45095826 .42999269 .51698306 .42999269 .6090088 .34098817 .6660156 .25 .6660156 .1499939 .6660156 .068984989 .59199526 .068984989 .49897767 .068984989 .4809723 .070999149 .43595887 .11299133 .38894654 .12399292 .37695313 .16099549 .35194398 .18598938 .33494569 .12799073 .30592347 .041992189 .24984741 .041992189 .15072632 .041992189 .04458618 .14399719-.022460938 .24899292-.022460938 .3619995-.022460938 .45700074 .06060791 .45700074 .16773987 .45700074 .20379639 .44599916 .24885559 .4079895 .2909088 .3889923 .31193543 .37298585 .3219452 .30899049 .36193849M.20899964 .3199463 .33198548 .24183655C.3600006 .2228241 .40699769 .19277954 .40699769 .13169861 .40699769 .05760193 .33198548 .0055389406 .25 .0055389406 .1639862 .0055389406 .09199524 .067611698 .09199524 .15072632 .09199524 .20880127 .12399292 .27288819 .20899964 .3199463Z"/>
<path id="font_2_5" d="M.2939911 .16503906V.07800293C.2939911 .041992189 .2919922 .0309906 .21798706 .0309906H.19699097V0C.23799134 .0029907227 .2899933 .0029907227 .33198548 .0029907227 .37399293 .0029907227 .4269867 .0029907227 .46798707 0V.0309906H.44699098C.37298585 .0309906 .37098695 .041992189 .37098695 .07800293V.16503906H.47099305V.19602967H.37098695V.65075686C.37098695 .67074587 .37098695 .6767578 .35499574 .6767578 .34599305 .6767578 .34298707 .6767578 .33499146 .66474917L.027999878 .19602967V.16503906H.2939911M.2999878 .19602967H.055999757L.2999878 .5688019V.19602967Z"/>
<path id="font_2_4" d="M.2899933 .35191346C.37199403 .37893678 .42999269 .4490509 .42999269 .52809146 .42999269 .6100464 .34199525 .6660156 .24598694 .6660156 .14498902 .6660156 .068984989 .60606387 .068984989 .53009036 .068984989 .49710084 .09098816 .47808839 .11999512 .47808839 .15098572 .47808839 .17098999 .50009158 .17098999 .5290985 .17098999 .57910159 .12399292 .57910159 .10899353 .57910159 .13999939 .62802127 .20599365 .64100649 .24198914 .64100649 .2829895 .64100649 .33799745 .6190338 .33799745 .5290985 .33799745 .51708987 .33599855 .45906068 .30999757 .4149933 .27999879 .36691285 .24598694 .36390687 .22099304 .36291505 .21299744 .36190797 .18899536 .35990907 .18199158 .35990907 .17399597 .35890199 .16699219 .35791017 .16699219 .3479004 .16699219 .33691407 .17399597 .33691407 .19099427 .33691407H.23498535C.31698609 .33691407 .35398866 .2686615 .35398866 .17037964 .35398866 .034469606 .2849884 .0055389406 .24099732 .0055389406 .19799805 .0055389406 .12298584 .022491456 .08799744 .08137512 .12298584 .07637024 .1539917 .09837341 .1539917 .1363678 .1539917 .17237854 .1269989 .19238281 .09799194 .19238281 .07398987 .19238281 .041992189 .17837525 .041992189 .1343689 .041992189 .043441774 .1349945-.022460938 .24398804-.022460938 .3659973-.022460938 .45700074 .06838989 .45700074 .17037964 .45700074 .252594 .3939972 .33088685 .2899933 .35191346Z"/>
</defs>
<path transform="matrix(1.00005,0,0,-1,14.319862,130.414)" stroke-width=".3985" stroke-linecap="butt" stroke-miterlimit="10" stroke-linejoin="miter" fill="none" stroke="#00aeef" d="M0 0H178.1079M0 8.50412H178.1079M0 17.00824H178.1079M0 25.51236H178.1079M0 34.01648H178.1079M0 42.52061H178.1079M0 51.02473H178.1079M0 59.52885H178.1079M0 68.03297H178.1079M0 76.53711H178.1079M0 85.04123H178.1079M0 93.54535H178.1079M0 102.04947H178.1079M0 110.54364H178.1079M0 0V110.55237M14.84209 0V110.55237M29.68419 0V110.55237M44.52629 0V110.55237M59.3684 0V110.55237M74.2105 0V110.55237M89.0526 0V110.55237M103.8947 0V110.55237M118.7368 0V110.55237M133.5789 0V110.55237M148.421 0V110.55237M163.2631 0V110.55237M178.10521 0V110.55237M178.1079 110.55237"/>
<path transform="matrix(1.00005,0,0,-1,14.319862,130.414)" stroke-width=".3985" stroke-linecap="butt" stroke-miterlimit="10" stroke-linejoin="miter" fill="none" stroke="#000000" d="M-8.50412 0H183.25798"/>
<path transform="matrix(1.00005,0,0,-1,197.587,130.414)" d="M.797 0C-.19925 .19925-1.19551 .59775-2.39102 1.29512-1.19551 .3985-1.19551-.3985-2.39102-1.29512-1.19551-.59775-.19925-.19925 .797 0Z"/>
<path transform="matrix(1.00005,0,0,-1,197.587,130.414)" stroke-width=".3985" stroke-linecap="butt" stroke-linejoin="round" fill="none" stroke="#000000" d="M.797 0C-.19925 .19925-1.19551 .59775-2.39102 1.29512-1.19551 .3985-1.19551-.3985-2.39102-1.29512-1.19551-.59775-.19925-.19925 .797 0Z"/>
<use data-text="&#x03b8;" xlink:href="#font_1_1" transform="matrix(9.963098,0,0,-9.9626,202.10324,133.873)"/>
<path transform="matrix(1.00005,0,0,-1,14.319862,130.414)" stroke-width=".3985" stroke-linecap="butt" stroke-miterlimit="10" stroke-linejoin="miter" fill="none" stroke="#000000" d="M0-8.50412V118.06024"/>
<path transform="matrix(0,-1,-1.00005,-0,14.319862,12.35376)" d="M.797 0C-.19925 .19925-1.19551 .59775-2.39102 1.29512-1.19551 .3985-1.19551-.3985-2.39102-1.29512-1.19551-.59775-.19925-.19925 .797 0Z"/>
<path transform="matrix(0,-1,-1.00005,-0,14.319862,12.35376)" stroke-width=".3985" stroke-linecap="butt" stroke-linejoin="round" fill="none" stroke="#000000" d="M.797 0C-.19925 .19925-1.19551 .59775-2.39102 1.29512-1.19551 .3985-1.19551-.3985-2.39102-1.29512-1.19551-.59775-.19925-.19925 .797 0Z"/>
<use data-text="d" xlink:href="#font_1_2" transform="matrix(9.963098,0,0,-9.9626,11.72673,7.838005)"/>
<path transform="matrix(1.00005,0,0,-1,14.319862,130.414)" stroke-width=".3985" stroke-linecap="butt" stroke-miterlimit="10" stroke-linejoin="miter" fill="none" stroke="#000000" d="M0 2.26778V-2.26779"/>
<path transform="matrix(1.00005,0,0,-1,14.319862,130.414)" d="M-5.77702-14.30865H5.7770307V-5.45588H-5.77702Z" fill="#ffffff"/>
<use data-text="0" xlink:href="#font_2_1" transform="matrix(9.963098,0,0,-9.9626,9.53862,143.726)"/>
<use data-text="&#x25e6;" xlink:href="#font_3_1" transform="matrix(6.9741489,0,0,-6.9738,14.519875,140.11)"/>
<path transform="matrix(1.00005,0,0,-1,14.319862,130.414)" stroke-width=".3985" stroke-linecap="butt" stroke-miterlimit="10" stroke-linejoin="miter" fill="none" stroke="#000000" d="M29.68463 2.26778V-2.26779"/>
<path transform="matrix(1.00005,0,0,-1,14.319862,130.414)" d="M21.4169-14.30865H37.952363V-5.45588H21.4169Z" fill="#ffffff"/>
<use data-text="6" xlink:href="#font_2_6" transform="matrix(9.963098,0,0,-9.9626,36.733983,143.726)"/>
<use data-text="0" xlink:href="#font_2_1" transform="matrix(9.963098,0,0,-9.9626,41.715536,143.726)"/>
<use data-text="&#x25e6;" xlink:href="#font_3_1" transform="matrix(6.9741489,0,0,-6.9738,46.697477,140.11)"/>
<path transform="matrix(1.00005,0,0,-1,14.319862,130.414)" stroke-width=".3985" stroke-linecap="butt" stroke-miterlimit="10" stroke-linejoin="miter" fill="none" stroke="#000000" d="M59.36928 2.26778V-2.26779"/>
<path transform="matrix(1.00005,0,0,-1,14.319862,130.414)" d="M48.61086-14.30865H70.12771V-5.45588H48.61086Z" fill="#ffffff"/>
<use data-text="1" xlink:href="#font_2_2" transform="matrix(9.963098,0,0,-9.9626,63.92934,143.726)"/>
<use data-text="2" xlink:href="#font_2_3" transform="matrix(9.963098,0,0,-9.9626,68.91089,143.726)"/>
<use data-text="0" xlink:href="#font_2_1" transform="matrix(9.963098,0,0,-9.9626,73.89244,143.726)"/>
<use data-text="&#x25e6;" xlink:href="#font_3_1" transform="matrix(6.9741489,0,0,-6.9738,78.874088,140.11)"/>
<path transform="matrix(1.00005,0,0,-1,14.319862,130.414)" stroke-width=".3985" stroke-linecap="butt" stroke-miterlimit="10" stroke-linejoin="miter" fill="none" stroke="#000000" d="M89.05394 2.26778V-2.26779"/>
<path transform="matrix(1.00005,0,0,-1,14.319862,130.414)" d="M78.29552-14.30865H99.81236V-5.45588H78.29552Z" fill="#ffffff"/>
<use data-text="1" xlink:href="#font_2_2" transform="matrix(9.963098,0,0,-9.9626,93.61582,143.726)"/>
<use data-text="8" xlink:href="#font_2_7" transform="matrix(9.963098,0,0,-9.9626,98.597377,143.726)"/>
<use data-text="0" xlink:href="#font_2_1" transform="matrix(9.963098,0,0,-9.9626,103.57892,143.726)"/>
<use data-text="&#x25e6;" xlink:href="#font_3_1" transform="matrix(6.9741489,0,0,-6.9738,108.56057,140.11)"/>
<path transform="matrix(1.00005,0,0,-1,14.319862,130.414)" stroke-width=".3985" stroke-linecap="butt" stroke-miterlimit="10" stroke-linejoin="miter" fill="none" stroke="#000000" d="M118.73859 2.26778V-2.26779"/>
<path transform="matrix(1.00005,0,0,-1,14.319862,130.414)" d="M107.98016-14.30865H129.49701V-5.45588H107.98016Z" fill="#ffffff"/>
<use data-text="2" xlink:href="#font_2_3" transform="matrix(9.963098,0,0,-9.9626,123.3013,143.726)"/>
<use data-text="4" xlink:href="#font_2_5" transform="matrix(9.963098,0,0,-9.9626,128.28285,143.726)"/>
<use data-text="0" xlink:href="#font_2_1" transform="matrix(9.963098,0,0,-9.9626,133.2644,143.726)"/>
<use data-text="&#x25e6;" xlink:href="#font_3_1" transform="matrix(6.9741489,0,0,-6.9738,138.24605,140.11)"/>
<path transform="matrix(1.00005,0,0,-1,14.319862,130.414)" stroke-width=".3985" stroke-linecap="butt" stroke-miterlimit="10" stroke-linejoin="miter" fill="none" stroke="#000000" d="M148.42324 2.26778V-2.26779"/>
<path transform="matrix(1.00005,0,0,-1,14.319862,130.414)" d="M137.66481-14.30865H159.18166V-5.45588H137.66481Z" fill="#ffffff"/>
<use data-text="3" xlink:href="#font_2_4" transform="matrix(9.963098,0,0,-9.9626,152.9878,143.726)"/>
<use data-text="0" xlink:href="#font_2_1" transform="matrix(9.963098,0,0,-9.9626,157.96933,143.726)"/>
<use data-text="0" xlink:href="#font_2_1" transform="matrix(9.963098,0,0,-9.9626,162.95088,143.726)"/>
<use data-text="&#x25e6;" xlink:href="#font_3_1" transform="matrix(6.9741489,0,0,-6.9738,167.93253,140.11)"/>
<path transform="matrix(1.00005,0,0,-1,14.319862,130.414)" stroke-width=".3985" stroke-linecap="butt" stroke-miterlimit="10" stroke-linejoin="miter" fill="none" stroke="#000000" d="M178.1079 2.26778V-2.26779"/>
<path transform="matrix(1.00005,0,0,-1,14.319862,130.414)" d="M167.34947-14.30865H188.86632V-5.45588H167.34947Z" fill="#ffffff"/>
<use data-text="3" xlink:href="#font_2_4" transform="matrix(9.963098,0,0,-9.9626,182.67426,143.726)"/>
<use data-text="6" xlink:href="#font_2_6" transform="matrix(9.963098,0,0,-9.9626,187.65583,143.726)"/>
<use data-text="0" xlink:href="#font_2_1" transform="matrix(9.963098,0,0,-9.9626,192.63736,143.726)"/>
<use data-text="&#x25e6;" xlink:href="#font_3_1" transform="matrix(6.9741489,0,0,-6.9738,197.61902,140.11)"/>
<path transform="matrix(1.00005,0,0,-1,14.319862,130.414)" stroke-width=".3985" stroke-linecap="butt" stroke-miterlimit="10" stroke-linejoin="miter" fill="none" stroke="#000000" d="M2.26778 17.03636H-2.26779"/>
<path transform="matrix(1.00005,0,0,-1,14.319862,130.414)" d="M-9.44098 12.82986H-2.46704V21.24284H-9.44098Z" fill="#ffffff"/>
<use data-text="6" xlink:href="#font_2_6" transform="matrix(9.963098,0,0,-9.9626,5.874443,116.588)"/>
<path transform="matrix(1.00005,0,0,-1,14.319862,130.414)" stroke-width=".3985" stroke-linecap="butt" stroke-miterlimit="10" stroke-linejoin="miter" fill="none" stroke="#000000" d="M2.26778 34.04462H-2.26779"/>
<path transform="matrix(1.00005,0,0,-1,14.319862,130.414)" d="M-14.4224 29.83812H-2.46706V38.2511H-14.4224Z" fill="#ffffff"/>
<use data-text="1" xlink:href="#font_2_2" transform="matrix(9.963098,0,0,-9.9626,.8931961,99.58)"/>
<use data-text="2" xlink:href="#font_2_3" transform="matrix(9.963098,0,0,-9.9626,5.874748,99.58)"/>
<path transform="matrix(1.00005,0,0,-1,14.319862,130.414)" stroke-width=".3985" stroke-linecap="butt" stroke-miterlimit="10" stroke-linejoin="miter" fill="none" stroke="#000000" d="M2.26778 51.05287H-2.26779"/>
<path transform="matrix(1.00005,0,0,-1,14.319862,130.414)" d="M-14.4224 46.84637H-2.46706V55.25935H-14.4224Z" fill="#ffffff"/>
<use data-text="1" xlink:href="#font_2_2" transform="matrix(9.963098,0,0,-9.9626,.8931961,82.571)"/>
<use data-text="8" xlink:href="#font_2_7" transform="matrix(9.963098,0,0,-9.9626,5.874748,82.571)"/>
<path transform="matrix(1.00005,0,0,-1,14.319862,130.414)" stroke-width=".3985" stroke-linecap="butt" stroke-miterlimit="10" stroke-linejoin="miter" fill="none" stroke="#000000" d="M2.26778 68.06114H-2.26779"/>
<path transform="matrix(1.00005,0,0,-1,14.319862,130.414)" d="M-14.4224 63.85464H-2.46706V72.267627H-14.4224Z" fill="#ffffff"/>
<use data-text="2" xlink:href="#font_2_3" transform="matrix(9.963098,0,0,-9.9626,.8931961,65.563)"/>
<use data-text="4" xlink:href="#font_2_5" transform="matrix(9.963098,0,0,-9.9626,5.874748,65.563)"/>
<path transform="matrix(1.00005,0,0,-1,14.319862,130.414)" stroke-width=".3985" stroke-linecap="butt" stroke-miterlimit="10" stroke-linejoin="miter" fill="none" stroke="#000000" d="M2.26778 85.0694H-2.26779"/>
<path transform="matrix(1.00005,0,0,-1,14.319862,130.414)" d="M-14.4224 80.8629H-2.46706V89.27588H-14.4224Z" fill="#ffffff"/>
<use data-text="3" xlink:href="#font_2_4" transform="matrix(9.963098,0,0,-9.9626,.8931961,48.555)"/>
<use data-text="0" xlink:href="#font_2_1" transform="matrix(9.963098,0,0,-9.9626,5.874748,48.555)"/>
<path transform="matrix(1.00005,0,0,-1,14.319862,130.414)" stroke-width=".3985" stroke-linecap="butt" stroke-miterlimit="10" stroke-linejoin="miter" fill="none" stroke="#000000" d="M2.26778 102.07765H-2.26779"/>
<path transform="matrix(1.00005,0,0,-1,14.319862,130.414)" d="M-14.4224 97.87117H-2.46706V106.28415H-14.4224Z" fill="#ffffff"/>
<use data-text="3" xlink:href="#font_2_4" transform="matrix(9.963098,0,0,-9.9626,.8931961,31.547005)"/>
<use data-text="6" xlink:href="#font_2_6" transform="matrix(9.963098,0,0,-9.9626,5.874748,31.547005)"/>
<path transform="matrix(1.00005,0,0,-1,14.319862,130.414)" stroke-width="1.19553" stroke-linecap="butt" stroke-miterlimit="10" stroke-linejoin="miter" fill="none" stroke="#ff0000" d="M0 0C0 0 5.36172 .79108 7.42104 1.73964 9.48035 2.68822 12.78279 5.00441 14.84209 6.83669 16.9014 8.66896 20.20384 12.35426 22.26315 14.94547 24.32246 17.53668 27.6249 22.33879 29.68419 25.51237 31.7435 28.68596 35.04594 34.27884 37.10526 37.81851 39.16457 41.35818 42.46701 47.35965 44.5263 51.0239 46.58562 54.68816 49.88806 60.68849 51.94737 64.22798 54.00668 67.76747 57.30911 73.36049 59.36841 76.53412 61.42772 79.70776 64.73016 84.5102 66.78947 87.10146 68.84879 89.69273 72.15123 93.37784 74.21053 95.21024 76.26984 97.04265 79.57227 99.35944 81.63158 100.30814 83.69089 101.25684 86.99333 102.04758 89.05263 102.0478 91.11194 102.04803 94.41438 101.25813 96.4737 100.30986 98.533 99.3616 101.83545 97.04538 103.89474 95.21329 105.95406 93.38118 109.25648 89.69644 111.3158 87.10535 113.3751 84.51427 116.67755 79.71196 118.73685 76.53844 120.79616 73.36493 124.0986 67.77223 126.15791 64.23274 128.21723 60.69325 131.51966 54.69247 133.57895 51.02821 135.63826 47.36397 138.9407 41.363 141.00002 37.82327 143.05933 34.28354 146.36177 28.68997 148.42107 25.51627 150.48038 22.34258 153.78282 17.54076 155.84214 14.94936 157.90145 12.35797 161.20388 8.6719 163.26317 6.83926 165.32248 5.00664 168.62493 2.68977 170.68424 1.74095 172.74355 .79213 178.10529 .00084 178.10529 .00084"/>
</svg>
