<svg xmlns="http://www.w3.org/2000/svg" xmlns:xlink="http://www.w3.org/1999/xlink" version="1.1" width="88" height="121" viewBox="0 0 88 121">
<defs>
<path id="font_1_82" d="M.42399598 0V.057998659H.29899598V.6777344H.2789917C.21998596 .6166992 .13699341 .6137085 .08898926 .6117096V.55371096C.12199402 .55470278 .16999817 .55670168 .21998596 .57769778V.057998659H.09498596V0H.42399598Z"/>
<path id="font_1_107" d="M.44898988 0V.070999149H.2669983C.25498963 .070999149 .24299622 .069992069 .23098755 .069992069H.12199402C.1539917 .09794617 .22999573 .17280579 .26098634 .20178223 .27999879 .2197876 .33099366 .2617798 .34999085 .27978517 .394989 .32476808 .44898988 .37776185 .44898988 .4627533 .44898988 .5777283 .36799623 .6777344 .23599243 .6777344 .12199402 .6777344 .06599426 .59973147 .041992189 .51374819 .053985597 .49674989 .05899048 .49075318 .06098938 .4877472 .06298828 .4857483 .07299805 .4727478 .08299255 .4587555 .102996829 .5357361 .1309967 .61372378 .22200012 .61372378 .31599427 .61372378 .36698915 .53874209 .36698915 .4607544 .36698915 .37576295 .30999757 .31877137 .25099183 .25878907L.17399597 .18777466 .049987794 .06399536V0H.44898988Z"/>
<path id="font_1_106" d="M.45700074 .17964173C.45700074 .27072145 .3869934 .33276368 .31900025 .35375978 .394989 .39476014 .42999269 .4627533 .42999269 .5257416 .42999269 .61172488 .34700013 .6777344 .24798584 .6777344 .17098999 .6777344 .09799194 .63772585 .055999757 .56773379L.09199524 .51374819C.12098694 .583725 .18598938 .61972048 .24699402 .61972048 .29899598 .61972048 .34799195 .58973696 .34799195 .5257416 .34799195 .4647522 .30699159 .40576173 .24598694 .39175416 .23999024 .39076234 .23799134 .39076234 .16699219 .38476563V.323761H.23799134C.34599305 .323761 .36799623 .23068238 .36799623 .1806488 .36799623 .10258484 .32199098 .038528444 .24499512 .038528444 .17599488 .038528444 .09700012 .07356262 .052993776 .14161682L.041992189 .08155823C.114990238-.012466431 .20698548-.022460938 .24699402-.022460938 .36898805-.022460938 .45700074 .07455444 .45700074 .17964173Z"/>
<path id="font_1_57" d="M.47099305 .17089844V.23188782H.37199403V.65625H.2809906L.027999878 .23188782V.17089844H.29299928V0H.37199403V.17089844H.47099305M.29899598 .23188782H.10598755C.1579895 .31796266 .2979889 .5551605 .29899598 .6121979V.23188782Z"/>
<path id="font_1_56" d="M.44898988 .2028656C.44898988 .328125 .36299134 .42720033 .2599945 .42720033 .21998596 .42720033 .18199158 .41220094 .15299988 .38619996V.5922394H.41600038V.65625H.08099365V.28704835H.14698792C.1639862 .32711793 .20098877 .36621095 .25898744 .36621095 .30599977 .36621095 .3600006 .32511903 .3600006 .20487976 .3600006 .038528444 .23799134 .038528444 .22898865 .038528444 .1619873 .038528444 .100997928 .0776062 .07199097 .13172913L.038986207 .0756073C.07998657 .01852417 .14898682-.022460938 .22999573-.022460938 .34899903-.022460938 .44898988 .07661438 .44898988 .2028656Z"/>
<path id="font_1_101" d="M.45700074 .22172547C.45700074 .34985353 .3909912 .46191407 .29499818 .46191407 .2630005 .46191407 .18699646 .4539032 .12599182 .37887574 .13899231 .5398102 .21798706 .61972048 .30999757 .61972048 .34799195 .61972048 .37998963 .61273196 .4149933 .5987549V.6577301C.3639984 .6777344 .32299806 .6777344 .30899049 .6777344 .16799927 .6777344 .041992189 .53681948 .041992189 .32182313 .041992189 .038528444 .1659851-.022460938 .25099183-.022460938 .31098939-.022460938 .35398866 .0005340576 .3929901 .045532228 .43798829 .096588138 .45700074 .14263916 .45700074 .22172547M.375 .22172547C.375 .1876831 .375 .14163208 .35099793 .1006012 .33399964 .0725708 .30799867 .038528444 .25099183 .038528444 .14498902 .038528444 .12998963 .1856842 .1269989 .21871948 .1269989 .23272705 .1269989 .23472595 .12799073 .24674988 .12799073 .32081605 .17298889 .40090943 .2559967 .40090943 .3039856 .40090943 .33198548 .375885 .35198976 .33883668 .37298585 .3018036 .375 .2667694 .375 .22172547Z"/>
<path id="font_1_100" d="M.45700074 .59124758V.65625H.041992189V.5852356H.23199463C.24398804 .5852356 .2559967 .5862427 .2679901 .5862427H.3889923C.24099732 .4232483 .1519928 .22325135 .1519928-.0107421879H.23599243C.23599243 .2892456 .3789978 .5032501 .45700074 .59124758Z"/>
<path id="font_1_51" d="M.45700074 .17964173C.45700074 .27072145 .3869934 .3317566 .31999208 .3547516 .40899659 .38375855 .44299317 .4497528 .44299317 .5027466 .44299317 .59672549 .35798646 .6777344 .25 .6777344 .13798523 .6777344 .055999757 .59472659 .055999757 .5027466 .055999757 .4497528 .08999634 .38375855 .1789856 .3547516 .10699463 .3297577 .041992189 .26670838 .041992189 .17964173 .041992189 .07055664 .13398743-.022460938 .24899292-.022460938 .36799623-.022460938 .45700074 .07356262 .45700074 .17964173M.37298585 .5027466C.37298585 .43075563 .32199098 .38476563 .25 .38476563 .17298889 .38476563 .12599182 .43374635 .12599182 .5027466 .12599182 .57173159 .1749878 .61972048 .24899292 .61972048 .32798768 .61972048 .37298585 .56773379 .37298585 .5027466M.37599183 .1806488C.37599183 .08357239 .31399537 .038528444 .25 .038528444 .18099976 .038528444 .12298584 .08656311 .12298584 .1806488 .12298584 .28572084 .19499207 .323761 .24899292 .323761 .30699159 .323761 .37599183 .28372193 .37599183 .1806488Z"/>
<path id="font_1_78" d="M.45700074 .33436585C.45700074 .6147156 .33799745 .6777344 .25299073 .6777344 .18299866 .6777344 .14199829 .64772036 .10699463 .6107178 .04399109 .54263308 .041992189 .47654725 .041992189 .43348695 .041992189 .3053589 .10798645 .19335938 .20399475 .19335938 .2659912 .19335938 .32998658 .22235108 .37298585 .2763672 .3619995 .115448 .2849884 .038528444 .20599365 .038528444 .17199707 .038528444 .13899231 .046524049 .102996829 .07649231L.07199097 .023529053C.10598755-.0014648438 .14299011-.022460938 .20498657-.022460938 .33599855-.022460938 .45700074 .11643982 .45700074 .33436585M.37098695 .41046144C.37098695 .32835389 .32199098 .25434876 .24299622 .25434876 .19599915 .25434876 .16799927 .277359 .14698792 .31436158 .125 .3533783 .12399292 .39042665 .12399292 .43348695 .12399292 .47753907 .125 .51860049 .15299988 .5626526 .17298889 .59169009 .20098877 .61972048 .25299073 .61972048 .35099793 .61972048 .36799623 .48355104 .36999513 .43449403 .37098695 .42747499 .37098695 .4174652 .37098695 .41046144Z"/>
<path id="font_1_121" d="M.45700074 .32554627C.45700074 .4045868 .45298768 .49765016 .41099549 .57870486 .36999513 .6537323 .30099488 .6777344 .25 .6777344 .19099427 .6777344 .12098694 .6507263 .07998657 .5616913 .04699707 .48864747 .041992189 .40559388 .041992189 .32554627 .041992189 .24649048 .04598999 .17344666 .07598877 .10043335 .115997318 .0045318605 .19198609-.022460938 .24899292-.022460938 .32199098-.022460938 .3849945 .01852417 .4169922 .08743286 .44699098 .1524353 .45700074 .21847534 .45700074 .32554627M.3789978 .33755494C.3789978 .27149964 .3789978 .20846558 .36099244 .14543152 .33499146 .054504396 .28199769 .038528444 .25 .038528444 .19799805 .038528444 .15699768 .07644653 .13699341 .1484375 .12098694 .20599365 .11999512 .2599945 .11999512 .33799745 .11999512 .40072633 .11999512 .46072389 .13699341 .5157318 .14299011 .534729 .16799927 .61672976 .24899292 .61672976 .32699586 .61672976 .35299684 .5407257 .3600006 .52272036 .3789978 .46672059 .3789978 .39971925 .3789978 .33772279V.33755494Z"/>
<path id="font_2_1" d="M.57499697 .5688782C.57499697 .64401248 .519989 .70606997 .43899537 .70606997 .3809967 .70606997 .35299684 .6900635 .31799317 .664032 .2630005 .62397769 .20799256 .5268097 .18899536 .4506836L.02999878-.18434143C.0289917-.18833924 .033996583-.19433594 .041992189-.19433594 .049987794-.19433594 .052993776-.19233704 .053985597-.18934632L.12399292 .08711243C.14299011 .027236939 .18699646-.009719849 .2599945-.009719849 .33299256-.009719849 .4079895 .025238038 .45298768 .06915283 .5009918 .11505127 .5329895 .17892456 .5329895 .2527771 .5329895 .32461549 .49598695 .37652589 .45999146 .40159608 .5179901 .43466188 .57499697 .49676515 .57499697 .5688782M.394989 .40260316C.38198854 .3975525 .37098695 .39553834 .34700013 .39553834 .33299256 .39553834 .31298829 .39453126 .30299378 .39956666 .30499269 .4096527 .34098817 .4076538 .35198976 .4076538 .37298585 .4076538 .38198854 .4076538 .394989 .40260316M.5189972 .59191897C.5189972 .5218048 .48098756 .44969178 .42900086 .4186554 .4019928 .4286499 .38198854 .43066407 .35198976 .43066407 .33099366 .43066407 .2749939 .43165589 .2749939 .39855958 .27398683 .37052918 .32598878 .3735199 .34399415 .3735199 .3809967 .3735199 .3959961 .37452699 .42599488 .3865204 .46398927 .35057069 .46899415 .31962586 .46998597 .27372743 .47200013 .21585083 .44799806 .14100647 .41999818 .1020813 .3809967 .048202516 .31399537 .012268066 .25698854 .012268066 .18099976 .012268066 .14299011 .07014465 .14299011 .14100647 .14299011 .15098572 .14299011 .16595459 .147995 .184906L.21199036 .43766786C.23399353 .5238037 .30599977 .68307498 .42599488 .68307498 .48399354 .68307498 .5189972 .6520233 .5189972 .59191897Z"/>
<path id="font_3_35" d="M.5209961 .2163086C.5209961 .34335328 .4229889 .4423828 .30899049 .4423828 .23098755 .4423828 .18798828 .39537049 .17199707 .3773651V.69433596L.027999878 .68333438V.6523285C.09799194 .6523285 .10598755 .6453247 .10598755 .596344V.00024414063H.1309967L.16699219 .06227112C.18199158 .039260866 .22399903-.0107421879 .2979889-.0107421879 .4169922-.0107421879 .5209961 .08728027 .5209961 .2163086M.43798829 .21731568C.43798829 .18029785 .43598939 .120285037 .40699769 .07527161 .38598634 .044265748 .34799195 .011245728 .2939911 .011245728 .24899292 .011260986 .21299744 .03526306 .18899536 .072265628 .1749878 .09326172 .1749878 .09625244 .1749878 .11425781V.32034303C.1749878 .3393402 .1749878 .3403473 .18598938 .35635377 .22499085 .41236878 .27999879 .42037965 .3039856 .42037965 .34899903 .42037965 .3849945 .3943634 .40899659 .35635377 .43499757 .31533814 .43798829 .25831605 .43798829 .21730042V.21731568Z"/>
<path id="font_3_88" d="M.19198609 .052993776C.19198609 .08198547 .16799927 .10598755 .13899231 .10598755 .10998535 .10598755 .085998538 .08198547 .085998538 .052993776 .085998538 .023986817 .10998535 0 .13899231 0 .16799927 0 .19198609 .023986817 .19198609 .052993776Z"/>
</defs>
<path transform="matrix(1.00003,0,0,-1.00003,44.126794,44.716894)" stroke-width=".3985" stroke-linecap="butt" stroke-miterlimit="10" stroke-linejoin="miter" fill="none" stroke="#b5b5b5" d="M42.52022 0C42.52022 23.48355 23.48355 42.52022 0 42.52022-23.48355 42.52022-42.52022 23.48355-42.52022 0-42.52022-23.48355-23.48355-42.52022 0-42.52022 23.48355-42.52022 42.52022-23.48355 42.52022 0ZM0 0"/>
<use data-text="1" xlink:href="#font_1_82" transform="matrix(9.962899,0,0,-9.962899,60.345285,15.688021)"/>
<use data-text="2" xlink:href="#font_1_107" transform="matrix(9.962899,0,0,-9.962899,74.04169,29.384432)"/>
<use data-text="3" xlink:href="#font_1_106" transform="matrix(9.962899,0,0,-9.962899,79.05484,47.984994)"/>
<use data-text="4" xlink:href="#font_1_57" transform="matrix(9.962899,0,0,-9.962899,74.04169,66.69455)"/>
<use data-text="5" xlink:href="#font_1_56" transform="matrix(9.962899,0,0,-9.962899,60.345285,80.28096)"/>
<use data-text="6" xlink:href="#font_1_101" transform="matrix(9.962899,0,0,-9.962899,41.63572,85.40411)"/>
<use data-text="7" xlink:href="#font_1_100" transform="matrix(9.962899,0,0,-9.962899,22.926156,80.33596)"/>
<use data-text="8" xlink:href="#font_1_51" transform="matrix(9.962899,0,0,-9.962899,9.229744,66.69455)"/>
<use data-text="9" xlink:href="#font_1_78" transform="matrix(9.962899,0,0,-9.962899,4.216591,47.984994)"/>
<use data-text="1" xlink:href="#font_1_82" transform="matrix(9.962899,0,0,-9.962899,6.73967,29.275429)"/>
<use data-text="0" xlink:href="#font_1_121" transform="matrix(9.962899,0,0,-9.962899,11.7211079,29.275429)"/>
<use data-text="1" xlink:href="#font_1_82" transform="matrix(9.962899,0,0,-9.962899,20.43608,15.688021)"/>
<use data-text="1" xlink:href="#font_1_82" transform="matrix(9.962899,0,0,-9.962899,25.417519,15.688021)"/>
<use data-text="1" xlink:href="#font_1_82" transform="matrix(9.962899,0,0,-9.962899,39.145647,10.67487)"/>
<use data-text="2" xlink:href="#font_1_107" transform="matrix(9.962899,0,0,-9.962899,44.127084,10.67487)"/>
<path transform="matrix(1.00003,0,0,-1.00003,44.126794,44.716894)" stroke-width="1.59404" stroke-linecap="butt" stroke-miterlimit="10" stroke-linejoin="miter" fill="none" stroke="#000000" d="M0 0V35.4335"/>
<path transform="matrix(1.00003,0,0,-1.00003,44.126794,44.716894)" stroke-width="1.59404" stroke-linecap="butt" stroke-miterlimit="10" stroke-linejoin="miter" fill="none" stroke="#b5b5b5" d="M0 0-17.71674 30.6864"/>
<path transform="matrix(1.00003,0,0,-1.00003,44.126794,44.716894)" stroke-width=".79701" stroke-linecap="butt" stroke-miterlimit="10" stroke-linejoin="miter" fill="none" stroke="#ff0000" d="M1.4346 8.50412C4.69675 8.50412 8.50412 4.69675 8.50412 0 8.50412-4.69675 4.69675-8.50412 0-8.50412-4.69675-8.50412-8.50412-4.69675-8.50412 0-8.50412 3.03786-6.88284 5.84593-5.49446 6.64752"/>
<path transform="matrix(-1.00003,-0,0,1.00003,45.561437,36.212518)" d="M1.0361 0C-.25902 .25902-1.55415 .77707-3.1083 1.68365-1.55415 .51805-1.55415-.51805-3.1083-1.68365-1.55415-.77707-.25902-.25902 1.0361 0Z" fill="#ff0000"/>
<path transform="matrix(-1.00003,-0,0,1.00003,45.561437,36.212518)" stroke-width=".79701" stroke-linecap="butt" stroke-linejoin="round" fill="none" stroke="#ff0000" d="M1.0361 0C-.25902 .25902-1.55415 .77707-3.1083 1.68365-1.55415 .51805-1.55415-.51805-3.1083-1.68365-1.55415-.77707-.25902-.25902 1.0361 0Z"/>
<path transform="matrix(.86605599,-.499985,-.499985,-.86605599,38.632169,38.06919)" d="M1.0361 0C-.25902 .25902-1.55415 .77707-3.1083 1.68365-1.55415 .51805-1.55415-.51805-3.1083-1.68365-1.55415-.77707-.25902-.25902 1.0361 0Z" fill="#ff0000"/>
<path transform="matrix(.86605599,-.499985,-.499985,-.86605599,38.632169,38.06919)" stroke-width=".79701" stroke-linecap="butt" stroke-linejoin="round" fill="none" stroke="#ff0000" d="M1.0361 0C-.25902 .25902-1.55415 .77707-3.1083 1.68365-1.55415 .51805-1.55415-.51805-3.1083-1.68365-1.55415-.77707-.25902-.25902 1.0361 0Z"/>
<use data-text="&#x03b2;" xlink:href="#font_2_1" transform="matrix(9.962899,0,0,-9.962899,48.718935,62.241418)" fill="#ff0000"/>
<use data-text="b" xlink:href="#font_3_35" transform="matrix(9.962899,0,0,-9.962899,35.622537,118.98812)"/>
<use data-text="." xlink:href="#font_3_88" transform="matrix(9.962899,0,0,-9.962899,41.161897,118.98812)"/>
</svg>
