<svg xmlns="http://www.w3.org/2000/svg" xmlns:xlink="http://www.w3.org/1999/xlink" version="1.1" width="182" height="131" viewBox="0 0 182 131">
<defs>
<path id="font_1_2" d="M.20599365 .3996582H.2999878C.31999208 .3996582 .32998658 .3996582 .32998658 .41966249 .32998658 .43066407 .31999208 .43066407 .3019867 .43066407H.21398926C.25 .5724945 .25498963 .59246829 .25498963 .59846499 .25498963 .61546328 .24299622 .62545779 .22599793 .62545779 .22299195 .62545779 .19499207 .62446597 .18598938 .58947756L.14698792 .43066407H.052993776C.032989503 .43066407 .022994996 .43066407 .022994996 .4116516 .022994996 .3996582 .0309906 .3996582 .050994874 .3996582H.13899231C.066986087 .11608887 .06298828 .099121097 .06298828 .08114624 .06298828 .02722168 .100997928-.0107421879 .15499878-.0107421879 .25698854-.0107421879 .31399537 .13505554 .31399537 .14305115 .31399537 .1530304 .30599977 .1530304 .3019867 .1530304 .29299928 .1530304 .2919922 .15003968 .2869873 .13905335 .24398804 .035217287 .19099427 .011245728 .15699768 .011245728 .13598633 .011245728 .12599182 .024230957 .12599182 .057174684 .12599182 .08114624 .12799073 .088134769 .13198853 .10510254L.20599365 .3996582Z"/>
<path id="font_1_1" d="M.15899658 .07795715C.14898682 .038986207 .14698792 .0309906 .067993167 .0309906 .050994874 .0309906 .039993287 .0309906 .039993287 .011993408 .039993287 0 .04899597 0 .067993167 0H.39898683C.6069946 0 .80400088 .21087647 .80400088 .42974855 .80400088 .5706482 .71899417 .6826172 .56900027 .6826172H.23298645C.21398926 .6826172 .20298767 .6826172 .20298767 .66360476 .20298767 .6516113 .21199036 .6516113 .23199463 .6516113 .24499512 .6516113 .2630005 .65060427 .2749939 .6496124 .29100038 .6476135 .29699708 .64460757 .29699708 .6336212 .29699708 .6296234 .29599 .62661746 .29299928 .614624L.15899658 .07795715M.375 .6136322C.38398744 .64860537 .38598634 .6516113 .42900086 .6516113H.5359955C.6339874 .6516113 .71699526 .5986328 .71699526 .46672059 .71699526 .41775514 .69699099 .25386048 .6119995 .1439209 .58299258 .10694885 .5039978 .0309906 .3809967 .0309906H.2679901C.2539978 .0309906 .2519989 .0309906 .24598694 .03199768 .23599243 .032989503 .23298645 .033996583 .23298645 .041992189 .23298645 .04498291 .23298645 .04698181 .23799134 .064971927L.375 .6136322Z"/>
<path id="font_2_107" d="M.44898988 .17396546H.42399598C.4189911 .14398194 .4119873 .099990848 .4019928 .084991458 .394989 .07699585 .32899476 .07699585 .30699159 .07699585H.1269989L.23298645 .17996216C.3889923 .31803895 .44898988 .37210084 .44898988 .47216798 .44898988 .5860901 .35899354 .6660156 .23699951 .6660156 .12399292 .6660156 .049987794 .57411196 .049987794 .48516847 .049987794 .4291687 .099990848 .4291687 .102996829 .4291687 .11999512 .4291687 .15499878 .44117738 .15499878 .48217774 .15499878 .5081787 .13699341 .5341797 .101989749 .5341797 .09399414 .5341797 .09199524 .5341797 .08898926 .5331726 .11199951 .59806826 .1659851 .63500979 .22399903 .63500979 .31498719 .63500979 .35798646 .5541382 .35798646 .47216798 .35798646 .39196778 .30799867 .31297303 .25299073 .25097657L.06098938 .036987306C.049987794 .025985718 .049987794 .023986817 .049987794 0H.42099L.44898988 .17396546Z"/>
<path id="font_2_57" d="M.47099305 .16503906V.19602967H.37098695V.6507721C.37098695 .6707611 .37098695 .6767578 .35499574 .6767578 .34599305 .6767578 .34298707 .6767578 .33499146 .6647644L.027999878 .19602967V.16503906H.2939911V.07800293C.2939911 .041992189 .2919922 .0309906 .21798706 .0309906H.19699097V0C.23799134 .0029907227 .2899933 .0029907227 .33198548 .0029907227 .37399293 .0029907227 .4269867 .0029907227 .46798707 0V.0309906H.44699098C.37298585 .0309906 .37098695 .041992189 .37098695 .07800293V.16503906H.47099305M.2999878 .19602967H.055999757L.2999878 .56881716V.19602967Z"/>
<path id="font_2_101" d="M.45700074 .2036438C.45700074 .33070375 .36799623 .4267578 .25698854 .4267578 .18899536 .4267578 .1519928 .37573243 .13198853 .327713V.35173036C.13198853 .6047821 .2559967 .64100649 .30699159 .64100649 .33099366 .64100649 .37298585 .634964 .394989 .6007538 .37998963 .6007538 .33999635 .6007538 .33999635 .5557556 .33999635 .524765 .3639984 .5097656 .38598634 .5097656 .4019928 .5097656 .43199159 .51875308 .43199159 .5577545 .43199159 .6178589 .3880005 .6660156 .30499269 .6660156 .1769867 .6660156 .041992189 .5367584 .041992189 .31570436 .041992189 .048553468 .1579895-.022460938 .25099183-.022460938 .3619995-.022460938 .45700074 .07156372 .45700074 .2036438M.36698915 .20463562C.36698915 .15661621 .36698915 .10658264 .34999085 .0705719 .31999208 .010528564 .27398683 .0055389406 .25099183 .0055389406 .18798828 .0055389406 .1579895 .06556702 .1519928 .080566409 .13398743 .127594 .13398743 .2076416 .13398743 .22564698 .13398743 .30369569 .1659851 .40374757 .2559967 .40374757 .27198792 .40374757 .31799317 .40374757 .34899903 .34172059 .36698915 .30470277 .36698915 .2536621 .36698915 .20463562Z"/>
<path id="font_2_51" d="M.45700074 .16764832C.45700074 .20367432 .44599916 .24871826 .4079895 .29074098 .3889923 .31176759 .37298585 .32176209 .30899049 .36180116 .3809967 .39881898 .42999269 .4508667 .42999269 .51690676 .42999269 .6089783 .34098817 .6660156 .25 .6660156 .1499939 .6660156 .068984989 .5919647 .068984989 .49890138 .068984989 .48088075 .070999149 .43585206 .11299133 .38882447 .12399292 .3768158 .16099549 .35179139 .18598938 .33477784 .12799073 .30575563 .041992189 .24971009 .041992189 .15063477 .041992189 .044555665 .14399719-.022460938 .24899292-.022460938 .3619995-.022460938 .45700074 .060577394 .45700074 .16764832M.38598634 .51690676C.38598634 .45986939 .34700013 .41183473 .2869873 .3768158L.16299439 .4568634C.116989139 .4868927 .11299133 .5209198 .11299133 .53793337 .11299133 .5989685 .17799378 .64100649 .24899292 .64100649 .32199098 .64100649 .38598634 .588974 .38598634 .51690676M.40699769 .13162232C.40699769 .05757141 .33198548 .0055389406 .25 .0055389406 .1639862 .0055389406 .09199524 .06758118 .09199524 .15063477 .09199524 .2086792 .12399292 .2727356 .20899964 .31976319L.33198548 .24171448C.3600006 .22268677 .40699769 .19267273 .40699769 .13162232Z"/>
<path id="font_2_82" d="M.4189911 0V.0309906H.3869934C.29699708 .0309906 .2939911 .041992189 .2939911 .07902527V.64012148C.2939911 .6640167 .2939911 .6660156 .2709961 .6660156 .20899964 .60227969 .12098694 .60227969 .08898926 .60227969V.57128909C.10899353 .57128909 .16799927 .57128909 .21998596 .5972748V.07902527C.21998596 .042999269 .21699524 .0309906 .1269989 .0309906H.09498596V0C.12998963 .0029907227 .21699524 .0029907227 .25698854 .0029907227 .29699708 .0029907227 .38398744 .0029907227 .4189911 0Z"/>
<path id="font_2_121" d="M.45999146 .31976319C.45999146 .39982606 .45498658 .47988893 .41999818 .5539398 .37399293 .65000918 .2919922 .6660156 .25 .6660156 .18998719 .6660156 .116989139 .64001467 .07598877 .54693606 .04399109 .47789 .038986207 .39982606 .038986207 .31976319 .038986207 .24472046 .042999269 .15464783 .083999637 .07859802 .1269989-.0024719239 .19999695-.022460938 .24899292-.022460938 .30299378-.022460938 .3789978-.0014648438 .4229889 .09359741 .45498658 .16265869 .45999146 .2407074 .45999146 .31976319M.3769989 .3317871C.3769989 .25672914 .3769989 .18867493 .3659973 .12461853 .35099793 .029556275 .2939911-.00047302247 .24899292-.00047302247 .20999146-.00047302247 .15098572 .024551392 .1329956 .12062073 .12199402 .18066406 .12199402 .2727356 .12199402 .3317871 .12199402 .39582826 .12199402 .46188355 .12998963 .5159149 .14898682 .63500979 .22399903 .64401248 .24899292 .64401248 .28199769 .64401248 .34799195 .6259918 .36698915 .52693179 .3769989 .47088624 .3769989 .39482118 .3769989 .3317871Z"/>
</defs>
<path transform="matrix(1.00006,0,0,-1.00008,15.920052,117.325428)" stroke-width=".3985" stroke-linecap="butt" stroke-miterlimit="10" stroke-linejoin="miter" fill="none" stroke="#00aeef" d="M0 0H153.07433M0 8.50368H153.07433M0 17.00737H153.07433M0 25.51108H153.07433M0 34.01477H153.07433M0 42.51846H153.07433M0 51.02217H153.07433M0 59.52586H153.07433M0 68.02956H153.07433M0 76.53326H153.07433M0 85.03696H153.07433M0 93.54065H153.07433M0 102.04286H153.07433M0 0V102.04436M8.50412 0V102.04436M17.00824 0V102.04436M25.51237 0V102.04436M34.0165 0V102.04436M42.52063 0V102.04436M51.02477 0V102.04436M59.52888 0V102.04436M68.03302 0V102.04436M76.53716 0V102.04436M85.04128 0V102.04436M93.54541 0V102.04436M102.04953 0V102.04436M110.55368 0V102.04436M119.0578 0V102.04436M127.56192 0V102.04436M136.06606 0V102.04436M144.57019 0V102.04436M153.07134 0V102.04436M153.07433 102.04436"/>
<path transform="matrix(1.00006,0,0,-1.00008,15.920052,117.325428)" stroke-width=".79701" stroke-linecap="butt" stroke-miterlimit="10" stroke-linejoin="miter" fill="none" stroke="#000000" d="M0 0H155.89177"/>
<path transform="matrix(1.00006,0,0,-1.00008,171.82117,117.325428)" d="M1.0361 0C-.25902 .25902-1.55415 .77707-3.1083 1.68365-1.55415 .51805-1.55415-.51805-3.1083-1.68365-1.55415-.77707-.25902-.25902 1.0361 0Z"/>
<path transform="matrix(1.00006,0,0,-1.00008,171.82117,117.325428)" stroke-width=".79701" stroke-linecap="butt" stroke-linejoin="round" fill="none" stroke="#000000" d="M1.0361 0C-.25902 .25902-1.55415 .77707-3.1083 1.68365-1.55415 .51805-1.55415-.51805-3.1083-1.68365-1.55415-.77707-.25902-.25902 1.0361 0Z"/>
<use data-text="t" xlink:href="#font_1_2" transform="matrix(9.963197,0,0,-9.963397,176.9747,120.38967)"/>
<path transform="matrix(1.00006,0,0,-1.00008,15.920052,117.325428)" stroke-width=".79701" stroke-linecap="butt" stroke-miterlimit="10" stroke-linejoin="miter" fill="none" stroke="#000000" d="M0 0V104.43637"/>
<path transform="matrix(0,-1.00008,-1.00006,-0,15.920052,12.880699)" d="M1.0361 0C-.25902 .25902-1.55415 .77707-3.1083 1.68365-1.55415 .51805-1.55415-.51805-3.1083-1.68365-1.55415-.77707-.25902-.25902 1.0361 0Z"/>
<path transform="matrix(0,-1.00008,-1.00006,-0,15.920052,12.880699)" stroke-width=".79701" stroke-linecap="butt" stroke-linejoin="round" fill="none" stroke="#000000" d="M1.0361 0C-.25902 .25902-1.55415 .77707-3.1083 1.68365-1.55415 .51805-1.55415-.51805-3.1083-1.68365-1.55415-.77707-.25902-.25902 1.0361 0Z"/>
<use data-text="D" xlink:href="#font_1_1" transform="matrix(9.963197,0,0,-9.963397,11.656799,7.7266619)"/>
<path transform="matrix(1.00006,0,0,-1.00008,15.920052,117.325428)" stroke-width=".79701" stroke-linecap="butt" stroke-miterlimit="10" stroke-linejoin="miter" fill="none" stroke="#000000" d="M17.00824 1.02046V-1.02039"/>
<use data-text="2" xlink:href="#font_2_107" transform="matrix(9.963197,0,0,-9.963397,30.43892,128.70134)"/>
<path transform="matrix(1.00006,0,0,-1.00008,15.920052,117.325428)" stroke-width=".79701" stroke-linecap="butt" stroke-miterlimit="10" stroke-linejoin="miter" fill="none" stroke="#000000" d="M34.0165 1.02046V-1.02039"/>
<use data-text="4" xlink:href="#font_2_57" transform="matrix(9.963197,0,0,-9.963397,47.44794,128.81035)"/>
<path transform="matrix(1.00006,0,0,-1.00008,15.920052,117.325428)" stroke-width=".79701" stroke-linecap="butt" stroke-miterlimit="10" stroke-linejoin="miter" fill="none" stroke="#000000" d="M51.02477 1.02046V-1.02039"/>
<use data-text="6" xlink:href="#font_2_101" transform="matrix(9.963197,0,0,-9.963397,64.45696,128.70134)"/>
<path transform="matrix(1.00006,0,0,-1.00008,15.920052,117.325428)" stroke-width=".79701" stroke-linecap="butt" stroke-miterlimit="10" stroke-linejoin="miter" fill="none" stroke="#000000" d="M68.03302 1.02046V-1.02039"/>
<use data-text="8" xlink:href="#font_2_51" transform="matrix(9.963197,0,0,-9.963397,81.46598,128.70134)"/>
<path transform="matrix(1.00006,0,0,-1.00008,15.920052,117.325428)" stroke-width=".79701" stroke-linecap="butt" stroke-miterlimit="10" stroke-linejoin="miter" fill="none" stroke="#000000" d="M85.04128 1.02046V-1.02039"/>
<use data-text="1" xlink:href="#font_2_82" transform="matrix(9.963197,0,0,-9.963397,95.98485,128.70134)"/>
<use data-text="0" xlink:href="#font_2_121" transform="matrix(9.963197,0,0,-9.963397,100.966449,128.70134)"/>
<path transform="matrix(1.00006,0,0,-1.00008,15.920052,117.325428)" stroke-width=".79701" stroke-linecap="butt" stroke-miterlimit="10" stroke-linejoin="miter" fill="none" stroke="#000000" d="M102.04953 1.02046V-1.02039"/>
<use data-text="1" xlink:href="#font_2_82" transform="matrix(9.963197,0,0,-9.963397,112.99387,128.70134)"/>
<use data-text="2" xlink:href="#font_2_107" transform="matrix(9.963197,0,0,-9.963397,117.97547,128.70134)"/>
<path transform="matrix(1.00006,0,0,-1.00008,15.920052,117.325428)" stroke-width=".79701" stroke-linecap="butt" stroke-miterlimit="10" stroke-linejoin="miter" fill="none" stroke="#000000" d="M119.0578 1.02046V-1.02039"/>
<use data-text="1" xlink:href="#font_2_82" transform="matrix(9.963197,0,0,-9.963397,130.0029,128.81035)"/>
<use data-text="4" xlink:href="#font_2_57" transform="matrix(9.963197,0,0,-9.963397,134.9845,128.81035)"/>
<path transform="matrix(1.00006,0,0,-1.00008,15.920052,117.325428)" stroke-width=".79701" stroke-linecap="butt" stroke-miterlimit="10" stroke-linejoin="miter" fill="none" stroke="#000000" d="M136.06606 1.02046V-1.02039"/>
<use data-text="1" xlink:href="#font_2_82" transform="matrix(9.963197,0,0,-9.963397,147.01291,128.70134)"/>
<use data-text="6" xlink:href="#font_2_101" transform="matrix(9.963197,0,0,-9.963397,151.9945,128.70134)"/>
<path transform="matrix(1.00006,0,0,-1.00008,15.920052,117.325428)" stroke-width=".79701" stroke-linecap="butt" stroke-miterlimit="10" stroke-linejoin="miter" fill="none" stroke="#000000" d="M153.07433 1.02046V-1.02039"/>
<use data-text="1" xlink:href="#font_2_82" transform="matrix(9.963197,0,0,-9.963397,164.02194,128.70134)"/>
<use data-text="8" xlink:href="#font_2_51" transform="matrix(9.963197,0,0,-9.963397,169.00354,128.70134)"/>
<path transform="matrix(1.00006,0,0,-1.00008,15.920052,117.325428)" stroke-width=".79701" stroke-linecap="butt" stroke-miterlimit="10" stroke-linejoin="miter" fill="none" stroke="#000000" d="M1.02045 17.00737H-1.02057"/>
<use data-text="4" xlink:href="#font_2_57" transform="matrix(9.963197,0,0,-9.963397,6.198471,103.68933)"/>
<path transform="matrix(1.00006,0,0,-1.00008,15.920052,117.325428)" stroke-width=".79701" stroke-linecap="butt" stroke-miterlimit="10" stroke-linejoin="miter" fill="none" stroke="#000000" d="M1.02045 34.01477H-1.02057"/>
<use data-text="8" xlink:href="#font_2_51" transform="matrix(9.963197,0,0,-9.963397,6.198471,86.51596)"/>
<path transform="matrix(1.00006,0,0,-1.00008,15.920052,117.325428)" stroke-width=".79701" stroke-linecap="butt" stroke-miterlimit="10" stroke-linejoin="miter" fill="none" stroke="#000000" d="M1.02045 51.02217H-1.02057"/>
<use data-text="1" xlink:href="#font_2_82" transform="matrix(9.963197,0,0,-9.963397,1.2171707,69.61661)"/>
<use data-text="2" xlink:href="#font_2_107" transform="matrix(9.963197,0,0,-9.963397,6.1987688,69.61661)"/>
<path transform="matrix(1.00006,0,0,-1.00008,15.920052,117.325428)" stroke-width=".79701" stroke-linecap="butt" stroke-miterlimit="10" stroke-linejoin="miter" fill="none" stroke="#000000" d="M1.02045 68.02956H-1.02057"/>
<use data-text="1" xlink:href="#font_2_82" transform="matrix(9.963197,0,0,-9.963397,1.2171707,52.498239)"/>
<use data-text="6" xlink:href="#font_2_101" transform="matrix(9.963197,0,0,-9.963397,6.1987688,52.498239)"/>
<path transform="matrix(1.00006,0,0,-1.00008,15.920052,117.325428)" stroke-width=".79701" stroke-linecap="butt" stroke-miterlimit="10" stroke-linejoin="miter" fill="none" stroke="#000000" d="M1.02045 85.03696H-1.02057"/>
<use data-text="2" xlink:href="#font_2_107" transform="matrix(9.963197,0,0,-9.963397,1.2171707,35.489877)"/>
<use data-text="0" xlink:href="#font_2_121" transform="matrix(9.963197,0,0,-9.963397,6.1987688,35.489877)"/>
<path transform="matrix(1.00006,0,0,-1.00008,15.920052,117.325428)" stroke-width=".79701" stroke-linecap="butt" stroke-miterlimit="10" stroke-linejoin="miter" fill="none" stroke="#000000" d="M1.02045 102.04436H-1.02057"/>
<use data-text="2" xlink:href="#font_2_107" transform="matrix(9.963197,0,0,-9.963397,1.2171707,18.64553)"/>
<use data-text="4" xlink:href="#font_2_57" transform="matrix(9.963197,0,0,-9.963397,6.1987688,18.64553)"/>
<path transform="matrix(1.00006,0,0,-1.00008,15.920052,117.325428)" stroke-width="1.19553" stroke-linecap="butt" stroke-dasharray="2.98883,2.98883" stroke-miterlimit="10" stroke-linejoin="miter" fill="none" stroke="#0000ff" d="M0 52.08513H153.07433"/>
<path transform="matrix(1.00006,0,0,-1.00008,15.920052,117.325428)" stroke-width="1.19553" stroke-linecap="butt" stroke-miterlimit="10" stroke-linejoin="miter" fill="none" stroke="#ff0000" d="M0 29.76292C0 29.76292 1.72806 29.87236 2.39177 30.00583 3.05548 30.13928 4.11984 30.46101 4.78355 30.72481 5.44725 30.9886 6.51163 31.51846 7.17534 31.90707 7.83905 32.29568 8.90341 33.02069 9.56712 33.52567 10.23083 34.03061 11.2952 34.93608 11.95892 35.54648 12.62262 36.15688 13.68698 37.22252 14.35071 37.92497 15.0144 38.62743 16.07878 39.82977 16.7425 40.6093 17.4062 41.38884 18.47057 42.7036 19.13426 43.54333 19.79799 44.3831 20.86235 45.78001 21.52606 46.66165 22.18977 47.54327 23.25414 48.99306 23.91785 49.89745 24.58156 50.80183 25.64594 52.27211 26.30963 53.17981 26.97334 54.08751 28.03772 55.54803 28.70142 56.43948 29.36513 57.33092 30.42949 58.749 31.0932 59.60477 31.75691 60.46053 32.82127 61.80574 33.485 62.60724 34.1487 63.40875 35.21306 64.6514 35.87679 65.3815 36.54048 66.1116 37.60486 67.2266 38.26857 67.86931 38.93228 68.51202 39.99664 69.47249 40.66035 70.01378 41.32407 70.5551 42.38843 71.34218 43.05214 71.77061 43.71585 72.19907 44.78021 72.79549 45.44392 73.10173 46.10764 73.40796 47.17201 73.8005 47.83571 73.97777 48.49942 74.15504 49.5638 74.33485 50.2275 74.37936 50.89122 74.42389 51.95558 74.38765 52.61928 74.29866 53.28299 74.20967 54.34735 73.95877 55.01108 73.73798 55.67477 73.51718 56.73914 73.05515 57.40286 72.70734 58.06656 72.35951 59.13094 71.6984 59.79465 71.2311 60.45836 70.76381 61.52272 69.91603 62.18643 69.33937 62.85014 68.76274 63.9145 67.7484 64.57823 67.07501 65.24193 66.40161 66.30629 65.24178 66.97 64.48605 67.63371 63.73033 68.69809 62.4499 69.36179 61.6283 70.0255 60.80669 71.08987 59.4342 71.75357 58.5645 72.4173 57.69478 73.48166 56.25905 74.14536 55.36005 74.80908 54.46104 75.87344 52.99391 76.53716 52.08513 77.20085 51.17636 78.26521 49.70921 78.92894 48.81021 79.59264 47.91121 80.65701 46.47546 81.32072 45.60576 81.98444 44.73605 83.0488 43.36356 83.7125 42.54195 84.37622 41.72035 85.44058 40.43993 86.1043 39.6842 86.768 38.92848 87.83237 37.76865 88.49608 37.09525 89.15979 36.42184 90.22417 35.40753 90.88786 34.83087 91.55157 34.25423 92.61595 33.40645 93.27965 32.93915 93.94336 32.47186 95.00772 31.81076 95.67143 31.46292 96.33514 31.1151 97.3995 30.65306 98.06323 30.43227 98.72693 30.21147 99.79129 29.96059 100.45502 29.8716 101.11871 29.7826 102.18309 29.74637 102.8468 29.79088 103.51051 29.8354 104.57487 30.0152 105.23859 30.19247 105.9023 30.36975 106.96666 30.76228 107.63037 31.06853 108.29408 31.37476 109.35844 31.97118 110.02216 32.39963 110.68587 32.82808 111.75024 33.61517 112.41394 34.15646 113.07765 34.69777 114.14203 35.65822 114.80573 36.30095 115.46945 36.94366 116.53381 38.05865 117.19751 38.78876 117.86122 39.51886 118.92558 40.7615 119.58931 41.563 120.253 42.36452 121.31737 43.70973 121.9811 44.5655 122.64479 45.42126 123.70917 46.83932 124.37288 47.73077 125.03659 48.62221 126.10095 50.08275 126.76466 50.99043 127.42838 51.89813 128.49274 53.36844 129.15647 54.27281 129.82016 55.1772 130.88452 56.627 131.54824 57.5086 132.21195 58.39023 133.27632 59.78716 133.94002 60.6269 134.60373 61.46666 135.6681 62.78142 136.3318 63.56096 136.99553 64.3405 138.05989 65.54282 138.72359 66.24529 139.38732 66.94774 140.45168 68.01338 141.11539 68.62378 141.77909 69.23418 142.84345 70.13963 143.50717 70.6446 144.17087 71.14955 145.23525 71.87457 145.89896 72.26317 146.56267 72.65178 147.62703 73.18166 148.29074 73.44545 148.95446 73.70924 150.01882 74.03096 150.68254 74.16443 151.34624 74.29788 153.07433 74.40733 153.07433 74.40733"/>
</svg>
