<svg xmlns="http://www.w3.org/2000/svg" xmlns:xlink="http://www.w3.org/1999/xlink" version="1.1" width="95" height="97" viewBox="0 0 95 97">
<defs>
<path id="font_1_1" d="M.2939911 .64004519C.2939911 .66400149 .2939911 .6660156 .2709961 .6660156 .20899964 .60227969 .12098694 .60227969 .08898926 .60227969V.57128909C.10899353 .57128909 .16799927 .57128909 .21998596 .5972748V.07902527C.21998596 .042999269 .21699524 .0309906 .1269989 .0309906H.09498596V0C.12998963 .0029907227 .21699524 .0029907227 .25698854 .0029907227 .29699708 .0029907227 .38398744 .0029907227 .4189911 0V.0309906H.3869934C.29699708 .0309906 .2939911 .041992189 .2939911 .07902527V.64004519Z"/>
<path id="font_1_2" d="M.1269989 .07699585 .23298645 .18003845C.3889923 .31811524 .44898988 .3721466 .44898988 .47216798 .44898988 .5860901 .35899354 .6660156 .23699951 .6660156 .12399292 .6660156 .049987794 .57411196 .049987794 .48516847 .049987794 .4291687 .099990848 .4291687 .102996829 .4291687 .11999512 .4291687 .15499878 .44117738 .15499878 .48217774 .15499878 .5081787 .13699341 .5341797 .101989749 .5341797 .09399414 .5341797 .09199524 .5341797 .08898926 .5331726 .11199951 .59806826 .1659851 .63500979 .22399903 .63500979 .31498719 .63500979 .35798646 .5541382 .35798646 .47216798 .35798646 .39215089 .30799867 .31311036 .25299073 .25108338L.06098938 .036987306C.049987794 .025985718 .049987794 .023986817 .049987794 0H.42099L.44898988 .17404175H.42399598C.4189911 .14402771 .4119873 .1000061 .4019928 .084991458 .394989 .07699585 .32899476 .07699585 .30699159 .07699585H.1269989Z"/>
<path id="font_1_3" d="M.2899933 .35191346C.37199403 .37893678 .42999269 .4490509 .42999269 .52809146 .42999269 .6100464 .34199525 .6660156 .24598694 .6660156 .14498902 .6660156 .068984989 .60606387 .068984989 .53009036 .068984989 .49710084 .09098816 .47808839 .11999512 .47808839 .15098572 .47808839 .17098999 .50009158 .17098999 .5290985 .17098999 .57910159 .12399292 .57910159 .10899353 .57910159 .13999939 .62802127 .20599365 .64100649 .24198914 .64100649 .2829895 .64100649 .33799745 .6190338 .33799745 .5290985 .33799745 .51708987 .33599855 .45906068 .30999757 .4149933 .27999879 .36691285 .24598694 .36390687 .22099304 .36291505 .21299744 .36190797 .18899536 .35990907 .18199158 .35990907 .17399597 .35890199 .16699219 .35791017 .16699219 .3479004 .16699219 .33691407 .17399597 .33691407 .19099427 .33691407H.23498535C.31698609 .33691407 .35398866 .2686615 .35398866 .17037964 .35398866 .034469606 .2849884 .0055389406 .24099732 .0055389406 .19799805 .0055389406 .12298584 .022491456 .08799744 .08137512 .12298584 .07637024 .1539917 .09837341 .1539917 .1363678 .1539917 .17237854 .1269989 .19238281 .09799194 .19238281 .07398987 .19238281 .041992189 .17837525 .041992189 .1343689 .041992189 .043441774 .1349945-.022460938 .24398804-.022460938 .3659973-.022460938 .45700074 .06838989 .45700074 .17037964 .45700074 .252594 .3939972 .33088685 .2899933 .35191346Z"/>
<path id="font_1_4" d="M.2939911 .16503906V.07800293C.2939911 .041992189 .2919922 .0309906 .21798706 .0309906H.19699097V0C.23799134 .0029907227 .2899933 .0029907227 .33198548 .0029907227 .37399293 .0029907227 .4269867 .0029907227 .46798707 0V.0309906H.44699098C.37298585 .0309906 .37098695 .041992189 .37098695 .07800293V.16503906H.47099305V.19602967H.37098695V.65075686C.37098695 .67074587 .37098695 .6767578 .35499574 .6767578 .34599305 .6767578 .34298707 .6767578 .33499146 .66474917L.027999878 .19602967V.16503906H.2939911M.2999878 .19602967H.055999757L.2999878 .5688019V.19602967Z"/>
</defs>
<path transform="matrix(1.00006,0,0,-1,47.451715,50.16)" stroke-width=".3985" stroke-linecap="butt" stroke-miterlimit="10" stroke-linejoin="miter" fill="none" stroke="#929292" d="M0 0H45.35419"/>
<path transform="matrix(1.00006,0,0,-1,47.451715,50.16)" stroke-width=".3985" stroke-linecap="butt" stroke-miterlimit="10" stroke-linejoin="miter" fill="none" stroke="#929292" d="M0 0 43.80884 11.73854"/>
<path transform="matrix(1.00006,0,0,-1,47.451715,50.16)" stroke-width=".3985" stroke-linecap="butt" stroke-miterlimit="10" stroke-linejoin="miter" fill="none" stroke="#929292" d="M0 0 39.27798 22.6771"/>
<path transform="matrix(1.00006,0,0,-1,47.451715,50.16)" stroke-width=".3985" stroke-linecap="butt" stroke-miterlimit="10" stroke-linejoin="miter" fill="none" stroke="#929292" d="M0 0 32.07028 32.07028"/>
<path transform="matrix(1.00006,0,0,-1,47.451715,50.16)" stroke-width=".3985" stroke-linecap="butt" stroke-miterlimit="10" stroke-linejoin="miter" fill="none" stroke="#929292" d="M0 0 22.6771 39.27798"/>
<path transform="matrix(1.00006,0,0,-1,47.451715,50.16)" stroke-width=".3985" stroke-linecap="butt" stroke-miterlimit="10" stroke-linejoin="miter" fill="none" stroke="#929292" d="M0 0 11.73854 43.80884"/>
<path transform="matrix(1.00006,0,0,-1,47.451715,50.16)" stroke-width=".3985" stroke-linecap="butt" stroke-miterlimit="10" stroke-linejoin="miter" fill="none" stroke="#929292" d="M0 0V45.35419"/>
<path transform="matrix(1.00006,0,0,-1,47.451715,50.16)" stroke-width=".3985" stroke-linecap="butt" stroke-miterlimit="10" stroke-linejoin="miter" fill="none" stroke="#929292" d="M0 0-11.73854 43.80884"/>
<path transform="matrix(1.00006,0,0,-1,47.451715,50.16)" stroke-width=".3985" stroke-linecap="butt" stroke-miterlimit="10" stroke-linejoin="miter" fill="none" stroke="#929292" d="M0 0-22.6771 39.27798"/>
<path transform="matrix(1.00006,0,0,-1,47.451715,50.16)" stroke-width=".3985" stroke-linecap="butt" stroke-miterlimit="10" stroke-linejoin="miter" fill="none" stroke="#929292" d="M0 0-32.07028 32.07028"/>
<path transform="matrix(1.00006,0,0,-1,47.451715,50.16)" stroke-width=".3985" stroke-linecap="butt" stroke-miterlimit="10" stroke-linejoin="miter" fill="none" stroke="#929292" d="M0 0-39.27798 22.6771"/>
<path transform="matrix(1.00006,0,0,-1,47.451715,50.16)" stroke-width=".3985" stroke-linecap="butt" stroke-miterlimit="10" stroke-linejoin="miter" fill="none" stroke="#929292" d="M0 0-43.80884 11.73854"/>
<path transform="matrix(1.00006,0,0,-1,47.451715,50.16)" stroke-width=".3985" stroke-linecap="butt" stroke-miterlimit="10" stroke-linejoin="miter" fill="none" stroke="#929292" d="M0 0H-45.35419"/>
<path transform="matrix(1.00006,0,0,-1,47.451715,50.16)" stroke-width=".3985" stroke-linecap="butt" stroke-miterlimit="10" stroke-linejoin="miter" fill="none" stroke="#929292" d="M0 0-43.80884-11.73854"/>
<path transform="matrix(1.00006,0,0,-1,47.451715,50.16)" stroke-width=".3985" stroke-linecap="butt" stroke-miterlimit="10" stroke-linejoin="miter" fill="none" stroke="#929292" d="M0 0-39.27798-22.6771"/>
<path transform="matrix(1.00006,0,0,-1,47.451715,50.16)" stroke-width=".3985" stroke-linecap="butt" stroke-miterlimit="10" stroke-linejoin="miter" fill="none" stroke="#929292" d="M0 0-32.07028-32.07028"/>
<path transform="matrix(1.00006,0,0,-1,47.451715,50.16)" stroke-width=".3985" stroke-linecap="butt" stroke-miterlimit="10" stroke-linejoin="miter" fill="none" stroke="#929292" d="M0 0-22.6771-39.27798"/>
<path transform="matrix(1.00006,0,0,-1,47.451715,50.16)" stroke-width=".3985" stroke-linecap="butt" stroke-miterlimit="10" stroke-linejoin="miter" fill="none" stroke="#929292" d="M0 0-11.73854-43.80884"/>
<path transform="matrix(1.00006,0,0,-1,47.451715,50.16)" stroke-width=".3985" stroke-linecap="butt" stroke-miterlimit="10" stroke-linejoin="miter" fill="none" stroke="#929292" d="M0 0V-45.35419"/>
<path transform="matrix(1.00006,0,0,-1,47.451715,50.16)" stroke-width=".3985" stroke-linecap="butt" stroke-miterlimit="10" stroke-linejoin="miter" fill="none" stroke="#929292" d="M0 0 11.73854-43.80884"/>
<path transform="matrix(1.00006,0,0,-1,47.451715,50.16)" stroke-width=".3985" stroke-linecap="butt" stroke-miterlimit="10" stroke-linejoin="miter" fill="none" stroke="#929292" d="M0 0 22.6771-39.27798"/>
<path transform="matrix(1.00006,0,0,-1,47.451715,50.16)" stroke-width=".3985" stroke-linecap="butt" stroke-miterlimit="10" stroke-linejoin="miter" fill="none" stroke="#929292" d="M0 0 32.07028-32.07028"/>
<path transform="matrix(1.00006,0,0,-1,47.451715,50.16)" stroke-width=".3985" stroke-linecap="butt" stroke-miterlimit="10" stroke-linejoin="miter" fill="none" stroke="#929292" d="M0 0 39.27798-22.6771"/>
<path transform="matrix(1.00006,0,0,-1,47.451715,50.16)" stroke-width=".3985" stroke-linecap="butt" stroke-miterlimit="10" stroke-linejoin="miter" fill="none" stroke="#929292" d="M0 0 43.80884-11.73854"/>
<path transform="matrix(1.00006,0,0,-1,47.451715,50.16)" stroke-width=".3985" stroke-linecap="butt" stroke-miterlimit="10" stroke-linejoin="miter" fill="none" stroke="#929292" d="M11.33855 0C11.33855 6.26218 6.26218 11.33855 0 11.33855-6.26218 11.33855-11.33855 6.26218-11.33855 0-11.33855-6.26218-6.26218-11.33855 0-11.33855 6.26218-11.33855 11.33855-6.26218 11.33855 0ZM0 0"/>
<path transform="matrix(1.00006,0,0,-1,47.451715,50.16)" d="M-3.48697 7.13205H3.48697V15.545031H-3.48697Z" fill="#ffffff"/>
<use data-text="1" xlink:href="#font_1_1" transform="matrix(9.963197,0,0,-9.9626,44.960565,42.031999)"/>
<path transform="matrix(1.00006,0,0,-1,47.451715,50.16)" stroke-width=".3985" stroke-linecap="butt" stroke-miterlimit="10" stroke-linejoin="miter" fill="none" stroke="#929292" d="M22.6771 0C22.6771 12.52435 12.52435 22.6771 0 22.6771-12.52435 22.6771-22.6771 12.52435-22.6771 0-22.6771-12.52435-12.52435-22.6771 0-22.6771 12.52435-22.6771 22.6771-12.52435 22.6771 0ZM0 0"/>
<path transform="matrix(1.00006,0,0,-1,47.451715,50.16)" d="M-3.48697 18.4706H3.48697V26.88358H-3.48697Z" fill="#ffffff"/>
<use data-text="2" xlink:href="#font_1_2" transform="matrix(9.963197,0,0,-9.9626,44.960565,30.693)"/>
<path transform="matrix(1.00006,0,0,-1,47.451715,50.16)" stroke-width=".3985" stroke-linecap="butt" stroke-miterlimit="10" stroke-linejoin="miter" fill="none" stroke="#929292" d="M34.01564 0C34.01564 18.78654 18.78654 34.01564 0 34.01564-18.78654 34.01564-34.01564 18.78654-34.01564 0-34.01564-18.78654-18.78654-34.01564 0-34.01564 18.78654-34.01564 34.01564-18.78654 34.01564 0ZM0 0"/>
<path transform="matrix(1.00006,0,0,-1,47.451715,50.16)" d="M-3.48697 29.80914H3.48697V38.22212H-3.48697Z" fill="#ffffff"/>
<use data-text="3" xlink:href="#font_1_3" transform="matrix(9.963197,0,0,-9.9626,44.960565,19.355)"/>
<path transform="matrix(1.00006,0,0,-1,47.451715,50.16)" stroke-width=".3985" stroke-linecap="butt" stroke-miterlimit="10" stroke-linejoin="miter" fill="none" stroke="#929292" d="M45.35419 0C45.35419 25.04874 25.04874 45.35419 0 45.35419-25.04874 45.35419-45.35419 25.04874-45.35419 0-45.35419-25.04874-25.04874-45.35419 0-45.35419 25.04874-45.35419 45.35419-25.04874 45.35419 0ZM0 0"/>
<path transform="matrix(1.00006,0,0,-1,47.451715,50.16)" d="M-3.48697 41.14769H3.48697V49.56067H-3.48697Z" fill="#ffffff"/>
<use data-text="4" xlink:href="#font_1_4" transform="matrix(9.963197,0,0,-9.9626,44.960565,8.015999)"/>
<path transform="matrix(1.00006,0,0,-1,47.451715,50.16)" stroke-width="1.19553" stroke-linecap="butt" stroke-miterlimit="10" stroke-linejoin="miter" fill="none" stroke="#ff0000" d="M22.6771 0C22.6771 0 24.23692 1.70685 24.77832 2.44032 25.31972 3.1738 26.1324 4.44658 26.57921 5.28638 27.02602 6.12617 27.66733 7.56177 27.9986 8.49298 28.32986 9.42421 28.76884 10.99422 28.96678 11.99805 29.16473 13.00189 29.37502 14.67374 29.42526 15.72804 29.47551 16.78233 29.43677 18.51697 29.3289 19.59677 29.22102 20.67657 28.91902 22.43146 28.64775 23.5105 28.37648 24.58951 27.80981 26.32376 27.37367 27.37367 26.93756 28.4236 26.10124 30.08449 25.50446 31.07753 24.90765 32.07059 23.82004 33.62106 23.07242 34.53085 22.3248 35.44067 21.0011 36.83362 20.11615 37.6347 19.23122 38.4358 17.69815 39.6345 16.69432 40.30464 15.69048 40.9748 13.98169 41.94456 12.88112 42.46469 11.78052 42.98485 9.93404 43.69844 8.76204 44.05347 7.59003 44.40851 5.64984 44.8431 4.43413 45.02356 3.2184 45.20403 1.23044 45.35419 0 45.35419-1.23044 45.35419-3.2184 45.20403-4.43413 45.02356-5.64984 44.8431-7.59003 44.40851-8.76204 44.05347-9.93404 43.69844-11.78052 42.98485-12.88112 42.46469-13.98169 41.94456-15.69048 40.9748-16.69432 40.30464-17.69815 39.6345-19.23122 38.4358-20.11615 37.6347-21.0011 36.83362-22.3248 35.44067-23.07242 34.53085-23.82004 33.62106-24.90765 32.07059-25.50446 31.07753-26.10124 30.08449-26.93756 28.4236-27.37367 27.37367-27.80981 26.32376-28.37648 24.58951-28.64775 23.5105-28.91902 22.43146-29.22102 20.67657-29.3289 19.59677-29.43677 18.51697-29.47551 16.78233-29.42526 15.72804-29.37502 14.67374-29.16473 13.00189-28.96678 11.99805-28.76884 10.99422-28.32986 9.42421-27.9986 8.49298-27.66733 7.56177-27.02602 6.12617-26.57921 5.28638-26.1324 4.44658-25.31972 3.1738-24.77832 2.44032-24.23692 1.70685-23.29082 .61668-22.6771 0-22.06335-.61668-21.01743-1.5105-20.3549-2.00452-19.6924-2.49854-18.58945-3.19052-17.90211-3.56058-17.21477-3.93065-16.09047-4.42241-15.40105-4.67166-14.71161-4.9209-13.60326-5.22116-12.93318-5.35698-12.2631-5.49278-11.20331-5.61697-10.57156-5.65057-9.93982-5.68417-8.95753-5.6534-8.38002-5.59918-7.8025-5.54498-6.92032-5.38518-6.40923-5.2599-5.89815-5.13466-5.13252-4.87407-4.6964-4.6964-4.26028-4.51875-3.62291-4.19011-3.26595-3.97945-2.90897-3.76877-2.4015-3.40244-2.12354-3.17805-1.84555-2.95366-1.46542-2.58173-1.26245-2.36212-1.0595-2.14253-.79654-1.79333-.66072-1.59534-.5249-1.39731-.36343-1.09692-.28355-.93495-.20367-.77295-.12277-.54234-.08493-.42784-.04707-.31334-.02249-.16904-.01071-.10968 .00104-.05031-.00296 0 0 0 .00296 0-.00104-.05031 .01071-.10968 .02249-.16904 .04707-.31334 .08493-.42784 .12277-.54234 .20367-.77295 .28355-.93495 .36343-1.09692 .5249-1.39731 .66072-1.59534 .79654-1.79333 1.0595-2.14253 1.26245-2.36212 1.46542-2.58173 1.84555-2.95366 2.12354-3.17805 2.4015-3.40244 2.90897-3.76877 3.26595-3.97945 3.62291-4.19011 4.26028-4.51875 4.6964-4.6964 5.13252-4.87407 5.89815-5.13466 6.40923-5.2599 6.92032-5.38518 7.8025-5.54498 8.38002-5.59918 8.95753-5.6534 9.93982-5.68417 10.57156-5.65057 11.20331-5.61697 12.2631-5.49278 12.93318-5.35698 13.60326-5.22116 14.71161-4.9209 15.40105-4.67166 16.09047-4.42241 17.21477-3.93065 17.90211-3.56058 18.58945-3.19052 19.6924-2.49854 20.3549-2.00452 21.01743-1.5105 22.6771 0 22.6771 0"/>
<path transform="matrix(1.00006,0,0,-1,47.451715,50.16)" stroke-width="1.19553" stroke-linecap="butt" stroke-miterlimit="10" stroke-linejoin="miter" fill="none" stroke="#0000ff" d="M45.35419 0C45.35419 0 45.20403 3.2184 45.02356 4.43413 44.8431 5.64984 44.40851 7.59003 44.05347 8.76204 43.69844 9.93404 42.98485 11.78052 42.46469 12.88112 41.94456 13.98169 40.9748 15.69048 40.30464 16.69432 39.6345 17.69815 38.4358 19.23122 37.6347 20.11615 36.83362 21.0011 35.44067 22.3248 34.53085 23.07242 33.62106 23.82004 32.07059 24.90765 31.07753 25.50446 30.08449 26.10124 28.4236 26.93756 27.37367 27.37367 26.32376 27.80981 24.58951 28.37648 23.5105 28.64775 22.43146 28.91902 20.67657 29.22102 19.59677 29.3289 18.51697 29.43677 16.78233 29.47551 15.72804 29.42526 14.67374 29.37502 13.00189 29.16473 11.99805 28.96678 10.99422 28.76884 9.42421 28.32986 8.49298 27.9986 7.56177 27.66733 6.12617 27.02602 5.28638 26.57921 4.44658 26.1324 3.1738 25.31972 2.44032 24.77832 1.70685 24.23692 .61668 23.29082 0 22.6771-.61668 22.06335-1.5105 21.01743-2.00452 20.3549-2.49854 19.6924-3.19052 18.58945-3.56058 17.90211-3.93065 17.21477-4.42241 16.09047-4.67166 15.40105-4.9209 14.71161-5.22116 13.60326-5.35698 12.93318-5.49278 12.2631-5.61697 11.20331-5.65057 10.57156-5.68417 9.93982-5.6534 8.95753-5.59918 8.38002-5.54498 7.8025-5.38518 6.92032-5.2599 6.40923-5.13466 5.89815-4.87407 5.13252-4.6964 4.6964-4.51875 4.26028-4.19011 3.62291-3.97945 3.26595-3.76877 2.90897-3.40244 2.4015-3.17805 2.12354-2.95366 1.84555-2.58173 1.46542-2.36212 1.26245-2.14253 1.0595-1.79333 .79654-1.59534 .66072-1.39731 .5249-1.09692 .36343-.93495 .28355-.77295 .20367-.54234 .12277-.42784 .08493-.31334 .04707-.16904 .02249-.10968 .01071-.05031-.00104 0 .00296 0 0 0-.00296-.05031 .00104-.10968-.01071-.16904-.02249-.31334-.04707-.42784-.08493-.54234-.12277-.77295-.20367-.93495-.28355-1.09692-.36343-1.39731-.5249-1.59534-.66072-1.79333-.79654-2.14253-1.0595-2.36212-1.26245-2.58173-1.46542-2.95366-1.84555-3.17805-2.12354-3.40244-2.4015-3.76877-2.90897-3.97945-3.26595-4.19011-3.62291-4.51875-4.26028-4.6964-4.6964-4.87407-5.13252-5.13466-5.89815-5.2599-6.40923-5.38518-6.92032-5.54498-7.8025-5.59918-8.38002-5.6534-8.95753-5.68417-9.93982-5.65057-10.57156-5.61697-11.20331-5.49278-12.2631-5.35698-12.93318-5.22116-13.60326-4.9209-14.71161-4.67166-15.40105-4.42241-16.09047-3.93065-17.21477-3.56058-17.90211-3.19052-18.58945-2.49854-19.6924-2.00452-20.3549-1.5105-21.01743-.61668-22.06335 0-22.6771 .61668-23.29082 1.70685-24.23692 2.44032-24.77832 3.1738-25.31972 4.44658-26.1324 5.28638-26.57921 6.12617-27.02602 7.56177-27.66733 8.49298-27.9986 9.42421-28.32986 10.99422-28.76884 11.99805-28.96678 13.00189-29.16473 14.67374-29.37502 15.72804-29.42526 16.78233-29.47551 18.51697-29.43677 19.59677-29.3289 20.67657-29.22102 22.43146-28.91902 23.5105-28.64775 24.58951-28.37648 26.32376-27.80981 27.37367-27.37367 28.4236-26.93756 30.08449-26.10124 31.07753-25.50446 32.07059-24.90765 33.62106-23.82004 34.53085-23.07242 35.44067-22.3248 36.83362-21.0011 37.6347-20.11615 38.4358-19.23122 39.6345-17.69815 40.30464-16.69432 40.9748-15.69048 41.94456-13.98169 42.46469-12.88112 42.98485-11.78052 43.69844-9.93404 44.05347-8.76204 44.40851-7.59003 44.8431-5.64984 45.02356-4.43413 45.20403-3.2184 45.35419 0 45.35419 0"/>
</svg>
