<svg xmlns="http://www.w3.org/2000/svg" xmlns:xlink="http://www.w3.org/1999/xlink" version="1.1" width="92" height="124" viewBox="0 0 92 124">
<defs>
<path id="font_1_1" d="M.59999087 .5689087C.59999087 .6600647 .526001 .7050934 .44299317 .7050934 .31399537 .7050934 .21798706 .55888369 .18998719 .4486847L.03199768-.18234253C.02999878-.18934632 .037994386-.19433594 .04399109-.19433594 .051986696-.19433594 .05999756-.19433594 .06199646-.18734741L.12998963 .08114624C.15299988 .027252198 .19999695-.008728027 .27198792-.008728027 .4099884-.008728027 .5609894 .08912659 .5609894 .24780274 .5609894 .31367494 .5359955 .35758973 .48599244 .3986206 .49198915 .3996277 .5099945 .4126587 .5149994 .4166565 .5649872 .45069886 .59999087 .50779727 .59999087 .5689087M.40299989 .3986206C.3849945 .39559938 .36698915 .3935852 .34799195 .3935852 .33699037 .3935852 .32598878 .3935852 .31498719 .39761354 .33399964 .40264894 .35398866 .40264894 .37298585 .40264894 .3829956 .40264894 .3929901 .40164186 .40299989 .3986206M.5369873 .5879364C.5369873 .5378418 .5149994 .4787445 .47999574 .4436798 .47499085 .43867494 .45399476 .41966249 .44799806 .4186554 .41999818 .42366029 .397995 .43066407 .36898805 .43066407 .34298707 .43066407 .27999879 .43266297 .27999879 .3935852 .27999879 .36357118 .33699037 .36557008 .35699464 .36557008 .3880005 .36557008 .4169922 .36857606 .44599916 .37957765 .47599793 .35559083 .4909973 .32365418 .4909973 .27375794 .4909973 .21487427 .47099305 .14900208 .44198609 .10908508 .40499879 .05619812 .34298707 .01927185 .2679901 .01927185 .20199585 .01927185 .1499939 .07015991 .1499939 .1400299 .1499939 .15299988 .15098572 .16596985 .1539917 .1759491L.21998596 .4416809C.24198914 .52983096 .32699586 .6770935 .43899537 .6770935 .48999024 .6770935 .5369873 .65205386 .5369873 .5879364Z"/>
<path id="font_2_3" d="M.73098757 .3330078C.74598696 .3330078 .7659912 .3330078 .7659912 .3560028 .7659912 .3789978 .74198916 .3789978 .72698977 .3789978H.09799194C.08299255 .3789978 .05899048 .3789978 .05899048 .3560028 .05899048 .3330078 .07899475 .3330078 .09399414 .3330078H.73098757M.72698977 .12098694C.74198916 .12098694 .7659912 .12098694 .7659912 .14398194 .7659912 .16699219 .74598696 .16699219 .73098757 .16699219H.09399414C.07899475 .16699219 .05899048 .16699219 .05899048 .14398194 .05899048 .12098694 .08299255 .12098694 .09799194 .12098694H.72698977Z"/>
<path id="font_2_2" d="M.25299073 .33370973C.33198548 .33370973 .38198854 .27557374 .38198854 .17037964 .38198854 .045440675 .31098939 .008514404 .2579956 .008514404 .20298767 .008514404 .12799073 .0284729 .09298706 .08137512 .1289978 .08137512 .1539917 .10437012 .1539917 .13737488 .1539917 .16937256 .1309967 .19238281 .09899902 .19238281 .07199097 .19238281 .04399109 .17536927 .04399109 .13537598 .04399109 .04045105 .1459961-.021484375 .2599945-.021484375 .3929901-.021484375 .48599244 .070388797 .48599244 .17037964 .48599244 .25352479 .41999818 .32969667 .31799317 .3517456 .39698792 .37982179 .45599366 .4479828 .45599366 .52804568 .45599366 .6080475 .3659973 .66503909 .2619934 .66503909 .15499878 .66503909 .07398987 .6070404 .07398987 .53105166 .07398987 .49404908 .09899902 .4780426 .125 .4780426 .1559906 .4780426 .17599488 .5000458 .17599488 .52905276 .17599488 .56604006 .14399719 .5800476 .12199402 .5810547 .1639862 .6360321 .24099732 .6390381 .25898744 .6390381 .2849884 .6390381 .36099244 .6310272 .36099244 .52804568 .36099244 .45799256 .33198548 .41589356 .31799317 .39985658 .28799439 .36878968 .2649994 .36679078 .20399475 .3627777 .18499756 .36177064 .1769867 .36076356 .1769867 .3477478 .1769867 .33370973 .18598938 .33370973 .20298767 .33370973H.25299073Z"/>
<path id="font_2_1" d="M.4889984 .31877137C.4889984 .42585755 .47799684 .49090577 .44499208 .55496218 .40098573 .6430359 .31999208 .66503909 .2649994 .66503909 .13899231 .66503909 .09298706 .5709839 .07899475 .5429535 .042999269 .4698944 .040985109 .3708191 .040985109 .31877137 .040985109 .25271607 .04399109 .15162659 .09199524 .07156372 .13798523-.0024871827 .21199036-.021484375 .2649994-.021484375 .31298829-.021484375 .39898683-.0064849855 .44898988 .09257507 .48599244 .16464234 .4889984 .2537079 .4889984 .31877137M.2649994 .006515503C.23098755 .006515503 .1619873 .022521973 .14099121 .12760926 .12998963 .18466187 .12998963 .2787323 .12998963 .33078004 .12998963 .3998413 .12998963 .4698944 .14099121 .5249481 .1619873 .6270294 .23999024 .6370239 .2649994 .6370239 .29899598 .6370239 .36799623 .62002566 .3880005 .5289459 .3999939 .4738922 .3999939 .39883424 .3999939 .33078004 .3999939 .27172853 .3999939 .18165589 .3880005 .12561035 .36698915 .020523072 .2979889 .006515503 .2649994 .006515503Z"/>
<path id="font_3_1" d="M.54499819 .25C.54499819 .3768463 .44299317 .47679139 .31900025 .47679139 .19499207 .47679139 .09298706 .3758545 .09298706 .25 .09298706 .12313843 .19499207 .02319336 .31900025 .02319336 .44299317 .02319336 .54499819 .12413025 .54499819 .25M.31900025 .07519531C.22299195 .07519531 .14498902 .15209961 .14498902 .25 .14498902 .34788514 .22299195 .4248047 .31900025 .4248047 .4149933 .4248047 .49299623 .34788514 .49299623 .25 .49299623 .15209961 .4149933 .07519531 .31900025 .07519531Z"/>
<path id="font_4_35" d="M.5209961 .2163086C.5209961 .34335328 .4229889 .4423828 .30899049 .4423828 .23098755 .4423828 .18798828 .39537049 .17199707 .3773651V.69433596L.027999878 .68333438V.6523285C.09799194 .6523285 .10598755 .6453247 .10598755 .596344V.00024414063H.1309967L.16699219 .06227112C.18199158 .039260866 .22399903-.0107421879 .2979889-.0107421879 .4169922-.0107421879 .5209961 .08728027 .5209961 .2163086M.43798829 .21731568C.43798829 .18029785 .43598939 .120285037 .40699769 .07527161 .38598634 .044265748 .34799195 .011245728 .2939911 .011245728 .24899292 .011260986 .21299744 .03526306 .18899536 .072265628 .1749878 .09326172 .1749878 .09625244 .1749878 .11425781V.32034303C.1749878 .3393402 .1749878 .3403473 .18598938 .35635377 .22499085 .41236878 .27999879 .42037965 .3039856 .42037965 .34899903 .42037965 .3849945 .3943634 .40899659 .35635377 .43499757 .31533814 .43798829 .25831605 .43798829 .21730042V.21731568Z"/>
<path id="font_4_88" d="M.19198609 .052993776C.19198609 .08198547 .16799927 .10598755 .13899231 .10598755 .10998535 .10598755 .085998538 .08198547 .085998538 .052993776 .085998538 .023986817 .10998535 0 .13899231 0 .16799927 0 .19198609 .023986817 .19198609 .052993776Z"/>
</defs>
<path transform="matrix(1.00002,0,0,-1,48.06761,47.77)" stroke-width=".79701" stroke-linecap="butt" stroke-miterlimit="10" stroke-linejoin="miter" fill="none" stroke="#d5d6d5" d="M42.52022 0C42.52022 23.48355 23.48355 42.52022 0 42.52022-23.48355 42.52022-42.52022 23.48355-42.52022 0-42.52022-23.48355-23.48355-42.52022 0-42.52022 23.48355-42.52022 42.52022-23.48355 42.52022 0ZM0 0"/>
<path transform="matrix(1.00002,0,0,-1,48.06761,47.77)" stroke-width=".79701" stroke-linecap="butt" stroke-miterlimit="10" stroke-linejoin="miter" fill="none" stroke="#000000" d="M0-46.77203V45.33743"/>
<path transform="matrix(0,-1,-1.00002,-0,48.06761,2.4325715)" d="M1.0361 0C-.25902 .25902-1.55415 .77707-3.1083 1.68365-1.55415 .51805-1.55415-.51805-3.1083-1.68365-1.55415-.77707-.25902-.25902 1.0361 0Z"/>
<path transform="matrix(0,-1,-1.00002,-0,48.06761,2.4325715)" stroke-width=".79701" stroke-linecap="butt" stroke-linejoin="round" fill="none" stroke="#000000" d="M1.0361 0C-.25902 .25902-1.55415 .77707-3.1083 1.68365-1.55415 .51805-1.55415-.51805-3.1083-1.68365-1.55415-.77707-.25902-.25902 1.0361 0Z"/>
<path transform="matrix(1.00002,0,0,-1,48.06761,47.77)" stroke-width=".79701" stroke-linecap="butt" stroke-miterlimit="10" stroke-linejoin="miter" fill="none" stroke="#000000" d="M0 0H-46.77203"/>
<path transform="matrix(1.00002,0,0,-1,48.06761,47.77)" stroke-width="1.59404" stroke-linecap="butt" stroke-miterlimit="10" stroke-linejoin="miter" fill="none" stroke="#0000ff" d="M0 0H40.20886"/>
<path transform="matrix(1.00002,0,0,-1,88.277278,47.77)" d="M1.51433 0C-.37857 .37857-2.27148 1.13573-4.54298 2.46077-2.27148 .75716-2.27148-.75716-4.54298-2.46077-2.27148-1.13573-.37857-.37857 1.51433 0Z" fill="#0000ff"/>
<path transform="matrix(1.00002,0,0,-1,88.277278,47.77)" stroke-width="1.59404" stroke-linecap="butt" stroke-linejoin="round" fill="none" stroke="#0000ff" d="M1.51433 0C-.37857 .37857-2.27148 1.13573-4.54298 2.46077-2.27148 .75716-2.27148-.75716-4.54298-2.46077-2.27148-1.13573-.37857-.37857 1.51433 0Z"/>
<path transform="matrix(1.00002,0,0,-1,48.06761,47.77)" stroke-width="1.59404" stroke-linecap="butt" stroke-miterlimit="10" stroke-linejoin="miter" fill="none" stroke="#0000ff" d="M0 0 34.82202-20.10443"/>
<path transform="matrix(.86602738,.5,.50001,-.86601,82.890338,67.87442)" d="M1.51433 0C-.37857 .37857-2.27148 1.13573-4.54298 2.46077-2.27148 .75716-2.27148-.75716-4.54298-2.46077-2.27148-1.13573-.37857-.37857 1.51433 0Z" fill="#0000ff"/>
<path transform="matrix(.86602738,.5,.50001,-.86601,82.890338,67.87442)" stroke-width="1.59404" stroke-linecap="butt" stroke-linejoin="round" fill="none" stroke="#0000ff" d="M1.51433 0C-.37857 .37857-2.27148 1.13573-4.54298 2.46077-2.27148 .75716-2.27148-.75716-4.54298-2.46077-2.27148-1.13573-.37857-.37857 1.51433 0Z"/>
<path transform="matrix(1.00002,0,0,-1,48.06761,47.77)" stroke-width=".79701" stroke-linecap="butt" stroke-miterlimit="10" stroke-linejoin="miter" fill="none" stroke="#ff0000" d="M7.08669 0C7.08669 3.91391 3.91391 7.08669 0 7.08669-3.91391 7.08669-7.08669 3.91391-7.08669 0-7.08669-3.91391-3.91391-7.08669 0-7.08669 2.53151-7.08669 4.87155-5.73564 5.42003-4.78575"/>
<path transform="matrix(.49996,-.86604,-.86605736,-.49995,53.487733,52.55577)" d="M1.0361 0C-.25902 .25902-1.55415 .77707-3.1083 1.68365-1.55415 .51805-1.55415-.51805-3.1083-1.68365-1.55415-.77707-.25902-.25902 1.0361 0Z" fill="#ff0000"/>
<path transform="matrix(.49996,-.86604,-.86605736,-.49995,53.487733,52.55577)" stroke-width=".79701" stroke-linecap="butt" stroke-linejoin="round" fill="none" stroke="#ff0000" d="M1.0361 0C-.25902 .25902-1.55415 .77707-3.1083 1.68365-1.55415 .51805-1.55415-.51805-3.1083-1.68365-1.55415-.77707-.25902-.25902 1.0361 0Z"/>
<use data-text="&#x03b2;" xlink:href="#font_1_1" transform="matrix(7.9702599,0,0,-7.9701,13.327919,62.957)" fill="#ff0000"/>
<use data-text="=" xlink:href="#font_2_3" transform="matrix(7.9702599,0,0,-7.9701,20.841073,62.957)" fill="#ff0000"/>
<use data-text="3" xlink:href="#font_2_2" transform="matrix(7.9702599,0,0,-7.9701,29.775719,62.957)" fill="#ff0000"/>
<use data-text="3" xlink:href="#font_2_2" transform="matrix(7.9702599,0,0,-7.9701,34.007928,62.957)" fill="#ff0000"/>
<use data-text="0" xlink:href="#font_2_1" transform="matrix(7.9702599,0,0,-7.9701,38.24012,62.957)" fill="#ff0000"/>
<use data-text="&#x25e6;" xlink:href="#font_3_1" transform="matrix(5.97772,0,0,-5.9776,42.483499,60.144)" fill="#ff0000"/>
<use data-text="b" xlink:href="#font_4_35" transform="matrix(9.962799,0,0,-9.9626,39.56344,122.039)"/>
<use data-text="." xlink:href="#font_4_88" transform="matrix(9.962799,0,0,-9.9626,45.102746,122.039)"/>
</svg>
