<svg xmlns="http://www.w3.org/2000/svg" xmlns:xlink="http://www.w3.org/1999/xlink" version="1.1" width="241" height="124" viewBox="0 0 241 124">
<defs>
<path id="font_1_2" d="M.33399964 .30233766C.33999635 .32835389 .36299134 .42037965 .43299867 .42037965 .43798829 .42037965 .46199037 .42037965 .48298646 .40734864 .45498658 .402359 .43499757 .37734986 .43499757 .35334779 .43499757 .33735658 .44599916 .31835938 .47299195 .31835938 .49499513 .31835938 .5269928 .3363495 .5269928 .37635804 .5269928 .42837525 .46798707 .4423828 .43399049 .4423828 .37599183 .4423828 .34098817 .38935853 .32899476 .36634828 .3039856 .43237306 .25 .4423828 .22099304 .4423828 .116989139 .4423828 .05999756 .3133545 .05999756 .28834535 .05999756 .27833558 .069992069 .27833558 .07199097 .27833558 .07998657 .27833558 .08299255 .28033448 .084991458 .28933717 .11898804 .39535523 .18499756 .42037965 .21899414 .42037965 .23799134 .42037965 .272995 .4113617 .272995 .35334779 .272995 .32235719 .2559967 .25532533 .21899414 .11528015 .20298767 .053268434 .16799927 .011245728 .12399292 .011245728 .117996219 .011245728 .09498596 .011245728 .07398987 .024276734 .09899902 .029266358 .12098694 .05027771 .12098694 .07827759 .12098694 .105270389 .09899902 .11328125 .083999637 .11328125 .053985597 .11328125 .0289917 .08728027 .0289917 .055267335 .0289917 .009246826 .07899475-.0107421879 .12298584-.0107421879 .18899536-.0107421879 .22499085 .059280397 .22799683 .0652771 .23999024 .028274537 .27598573-.0107421879 .33599855-.0107421879 .43899537-.0107421879 .49598695 .118270877 .49598695 .14328003 .49598695 .1532898 .4869995 .1532898 .48399354 .1532898 .47499085 .1532898 .47299195 .14929199 .47099305 .14228821 .43798829 .03527832 .36999513 .011245728 .33799745 .011245728 .29899598 .011245728 .2829895 .043273927 .2829895 .07727051 .2829895 .09927368 .2889862 .121276859 .2999878 .16529846L.33399964 .30233766Z"/>
<path id="font_1_3" d="M.48599244 .38136292C.48999024 .39537049 .48999024 .39736939 .48999024 .40437318 .48999024 .42237855 .47599793 .43138124 .46099855 .43138124 .45098878 .43138124 .43499757 .42536927 .42599488 .41036988 .42399598 .405365 .41600038 .37435914 .4119873 .35635377 .40499879 .33035279 .397995 .30334474 .3919983 .27633668L.34700013 .09628296C.34298707 .08126831 .2999878 .011245728 .23399353 .011245728 .18299866 .011245728 .17199707 .055267335 .17199707 .0922699 .17199707 .1382904 .18899536 .20030213 .22299195 .28833009 .23899842 .3293457 .24299622 .3403473 .24299622 .36035157 .24299622 .405365 .21099854 .4423828 .16099549 .4423828 .06599426 .4423828 .0289917 .29733277 .0289917 .28833009 .0289917 .27833558 .038986207 .27833558 .040985109 .27833558 .050994874 .27833558 .051986696 .28033448 .056991579 .29634095 .083999637 .3903656 .12399292 .42037965 .1579895 .42037965 .1659851 .42037965 .18299866 .42037965 .18299866 .3883667 .18299866 .36335755 .17298889 .3373413 .1659851 .31834413 .12599182 .21231079 .10798645 .1552887 .10798645 .10827637 .10798645 .019256592 .17098999-.0107421879 .22999573-.0107421879 .2689972-.0107421879 .30299378 .0062561037 .33099366 .03425598 .31799317-.017745972 .30599977-.06674194 .2659912-.11973572 .23999024-.15385437 .20199585-.18309021 .1559906-.18309021 .14199829-.18309021 .09700012-.18005371 .07998657-.14074707 .09599304-.14074707 .10899353-.14074707 .12298584-.1287384 .1329956-.11973572 .14299011-.10673523 .14299011-.08773804 .14299011-.056747438 .115997318-.052734376 .10598755-.052734376 .08299255-.052734376 .049987794-.068740848 .049987794-.11773682 .049987794-.16796875 .09399414-.20507813 .1559906-.20507813 .25898744-.20507813 .3619995-.11373901 .3899994-.00074768069L.48599244 .38136292Z"/>
<path id="font_2_1" d="M.6589966 .23046875C.6759949 .23046875 .69400027 .23046875 .69400027 .25045777 .69400027 .27046205 .6759949 .27046205 .6589966 .27046205H.117996219C.100997928 .27046205 .08299255 .27046205 .08299255 .25045777 .08299255 .23046875 .100997928 .23046875 .117996219 .23046875H.6589966Z"/>
<path id="font_3_2" d="M.1269989 .07699585 .23298645 .18003845C.3889923 .31811524 .44898988 .3721466 .44898988 .47216798 .44898988 .5860901 .35899354 .6660156 .23699951 .6660156 .12399292 .6660156 .049987794 .57411196 .049987794 .48516847 .049987794 .4291687 .099990848 .4291687 .102996829 .4291687 .11999512 .4291687 .15499878 .44117738 .15499878 .48217774 .15499878 .5081787 .13699341 .5341797 .101989749 .5341797 .09399414 .5341797 .09199524 .5341797 .08898926 .5331726 .11199951 .59806826 .1659851 .63500979 .22399903 .63500979 .31498719 .63500979 .35798646 .5541382 .35798646 .47216798 .35798646 .39215089 .30799867 .31311036 .25299073 .25108338L.06098938 .036987306C.049987794 .025985718 .049987794 .023986817 .049987794 0H.42099L.44898988 .17404175H.42399598C.4189911 .14402771 .4119873 .1000061 .4019928 .084991458 .394989 .07699585 .32899476 .07699585 .30699159 .07699585H.1269989Z"/>
<path id="font_3_1" d="M.2939911 .64004519C.2939911 .66400149 .2939911 .6660156 .2709961 .6660156 .20899964 .60227969 .12098694 .60227969 .08898926 .60227969V.57128909C.10899353 .57128909 .16799927 .57128909 .21998596 .5972748V.07902527C.21998596 .042999269 .21699524 .0309906 .1269989 .0309906H.09498596V0C.12998963 .0029907227 .21699524 .0029907227 .25698854 .0029907227 .29699708 .0029907227 .38398744 .0029907227 .4189911 0V.0309906H.3869934C.29699708 .0309906 .2939911 .041992189 .2939911 .07902527V.64004519Z"/>
<path id="font_1_1" d="M.2649994 .37265016H.37799073C.34498597 .22489929 .33599855 .18196106 .33599855 .11508179 .33599855 .100097659 .33599855 .073150638 .34399415 .03919983 .35398866-.0047454836 .36499024-.0107421879 .37998963-.0107421879 .3999939-.0107421879 .42099 .007247925 .42099 .02722168 .42099 .033218385 .42099 .035202028 .4149933 .049179079 .38598634 .12106323 .38598634 .18595886 .38598634 .21391297 .38598634 .26683045 .3929901 .32073976 .4039917 .37265016H.5179901C.5309906 .37265016 .5669861 .37265016 .5669861 .406662 .5669861 .43066407 .54599 .43066407 .5269928 .43066407H.19198609C.16999817 .43066407 .13198853 .43066407 .08799744 .38365174 .052993776 .34469605 .026992798 .29878236 .026992798 .29379273 .026992798 .29278565 .026992798 .28379823 .038986207 .28379823 .04699707 .28379823 .04899597 .28779603 .054992677 .29577638 .10398865 .37265016 .1619873 .37265016 .18199158 .37265016H.23899842C.20698548 .25186158 .15299988 .13105774 .11099243 .04020691 .102996829 .025222779 .102996829 .023223877 .102996829 .016235352 .102996829-.002746582 .11898804-.0107421879 .13198853-.0107421879 .1619873-.0107421879 .16999817 .017242432 .18199158 .05418396 .19599915 .100097659 .19599915 .10209656 .20899964 .15202332L.2649994 .37265016Z"/>
<path id="font_3_3" d="M.2899933 .35191346C.37199403 .37893678 .42999269 .4490509 .42999269 .52809146 .42999269 .6100464 .34199525 .6660156 .24598694 .6660156 .14498902 .6660156 .068984989 .60606387 .068984989 .53009036 .068984989 .49710084 .09098816 .47808839 .11999512 .47808839 .15098572 .47808839 .17098999 .50009158 .17098999 .5290985 .17098999 .57910159 .12399292 .57910159 .10899353 .57910159 .13999939 .62802127 .20599365 .64100649 .24198914 .64100649 .2829895 .64100649 .33799745 .6190338 .33799745 .5290985 .33799745 .51708987 .33599855 .45906068 .30999757 .4149933 .27999879 .36691285 .24598694 .36390687 .22099304 .36291505 .21299744 .36190797 .18899536 .35990907 .18199158 .35990907 .17399597 .35890199 .16699219 .35791017 .16699219 .3479004 .16699219 .33691407 .17399597 .33691407 .19099427 .33691407H.23498535C.31698609 .33691407 .35398866 .2686615 .35398866 .17037964 .35398866 .034469606 .2849884 .0055389406 .24099732 .0055389406 .19799805 .0055389406 .12298584 .022491456 .08799744 .08137512 .12298584 .07637024 .1539917 .09837341 .1539917 .1363678 .1539917 .17237854 .1269989 .19238281 .09799194 .19238281 .07398987 .19238281 .041992189 .17837525 .041992189 .1343689 .041992189 .043441774 .1349945-.022460938 .24398804-.022460938 .3659973-.022460938 .45700074 .06838989 .45700074 .17037964 .45700074 .252594 .3939972 .33088685 .2899933 .35191346Z"/>
</defs>
<path transform="matrix(1.00003,0,0,-1.00005,117.14201,71.39792)" stroke-width=".3985" stroke-linecap="butt" stroke-miterlimit="10" stroke-linejoin="miter" fill="none" stroke="#00aeef" d="M-106.86308-51.02477H106.86308M-106.86308-34.0165H106.86308M-106.86308-17.00824H106.86308M-106.86308 0H106.86308M-106.86308 17.00824H106.86308M-106.86308 34.0165H106.86308M-106.86308 51.01878H106.86308M-106.86255-51.02477V51.02477M-89.05212-51.02477V51.02477M-71.2417-51.02477V51.02477M-53.43127-51.02477V51.02477M-35.62085-51.02477V51.02477M-17.81042-51.02477V51.02477M0-51.02477V51.02477M17.81042-51.02477V51.02477M35.62085-51.02477V51.02477M53.43127-51.02477V51.02477M71.2417-51.02477V51.02477M89.05212-51.02477V51.02477M106.86255-51.02477V51.02477M106.86308 51.02477"/>
<path transform="matrix(1.00003,0,0,-1.00005,117.14201,71.39792)" stroke-width=".79701" stroke-linecap="butt" stroke-miterlimit="10" stroke-linejoin="miter" fill="none" stroke="#000000" d="M-106.86308 0H111.95088"/>
<path transform="matrix(1.00003,0,0,-1.00005,229.09626,71.39792)" d="M1.0361 0C-.25902 .25902-1.55415 .77707-3.1083 1.68365-1.55415 .51805-1.55415-.51805-3.1083-1.68365-1.55415-.77707-.25902-.25902 1.0361 0Z"/>
<path transform="matrix(1.00003,0,0,-1.00005,229.09626,71.39792)" stroke-width=".79701" stroke-linecap="butt" stroke-linejoin="round" fill="none" stroke="#000000" d="M1.0361 0C-.25902 .25902-1.55415 .77707-3.1083 1.68365-1.55415 .51805-1.55415-.51805-3.1083-1.68365-1.55415-.77707-.25902-.25902 1.0361 0Z"/>
<use data-text="x" xlink:href="#font_1_2" transform="matrix(9.962899,0,0,-9.963098,234.25054,73.54303)"/>
<path transform="matrix(1.00003,0,0,-1.00005,117.14201,71.39792)" stroke-width=".79701" stroke-linecap="butt" stroke-miterlimit="10" stroke-linejoin="miter" fill="none" stroke="#000000" d="M0-51.02477V58.09428"/>
<path transform="matrix(0,-1.00005,-1.00003,-0,117.14201,13.300735)" d="M1.0361 0C-.25902 .25902-1.55415 .77707-3.1083 1.68365-1.55415 .51805-1.55415-.51805-3.1083-1.68365-1.55415-.77707-.25902-.25902 1.0361 0Z"/>
<path transform="matrix(0,-1.00005,-1.00003,-0,117.14201,13.300735)" stroke-width=".79701" stroke-linecap="butt" stroke-linejoin="round" fill="none" stroke="#000000" d="M1.0361 0C-.25902 .25902-1.55415 .77707-3.1083 1.68365-1.55415 .51805-1.55415-.51805-3.1083-1.68365-1.55415-.77707-.25902-.25902 1.0361 0Z"/>
<use data-text="y" xlink:href="#font_1_3" transform="matrix(9.962899,0,0,-9.963098,114.520938,6.2096636)"/>
<path transform="matrix(1.00003,0,0,-1.00005,117.14201,71.39792)" stroke-width=".79701" stroke-linecap="butt" stroke-miterlimit="10" stroke-linejoin="miter" fill="none" stroke="#000000" d="M1.13391-34.0165H-1.13374"/>
<path transform="matrix(1.00003,0,0,-1.00005,117.14201,71.39792)" d="M-18.24757-38.63812H-3.5247899V-29.39489H-18.24757Z" fill="#ffffff"/>
<use data-text="&#x2212;" xlink:href="#font_2_1" transform="matrix(9.962899,0,0,-9.963098,99.890499,108.21176)"/>
<use data-text="2" xlink:href="#font_3_2" transform="matrix(9.962899,0,0,-9.963098,107.63972,108.21176)"/>
<path transform="matrix(1.00003,0,0,-1.00005,117.14201,71.39792)" stroke-width=".79701" stroke-linecap="butt" stroke-miterlimit="10" stroke-linejoin="miter" fill="none" stroke="#000000" d="M1.13391-17.00824H-1.13374"/>
<path transform="matrix(1.00003,0,0,-1.00005,117.14201,71.39792)" d="M-18.24757-21.62985H-3.5247899V-12.3866209H-18.24757Z" fill="#ffffff"/>
<use data-text="&#x2212;" xlink:href="#font_2_1" transform="matrix(9.962899,0,0,-9.963098,99.890499,91.201908)"/>
<use data-text="1" xlink:href="#font_3_1" transform="matrix(9.962899,0,0,-9.963098,107.63972,91.201908)"/>
<path transform="matrix(1.00003,0,0,-1.00005,117.14201,71.39792)" stroke-width=".79701" stroke-linecap="butt" stroke-miterlimit="10" stroke-linejoin="miter" fill="none" stroke="#000000" d="M1.13391 17.00824H-1.13374"/>
<path transform="matrix(1.00003,0,0,-1.00005,117.14201,71.39792)" d="M-10.49873 12.80174H-3.5247899V21.21472H-10.49873Z" fill="#ffffff"/>
<use data-text="1" xlink:href="#font_3_1" transform="matrix(9.962899,0,0,-9.963098,107.639728,57.599229)"/>
<path transform="matrix(1.00003,0,0,-1.00005,117.14201,71.39792)" stroke-width=".79701" stroke-linecap="butt" stroke-miterlimit="10" stroke-linejoin="miter" fill="none" stroke="#000000" d="M1.13391 34.0165H-1.13374"/>
<path transform="matrix(1.00003,0,0,-1.00005,117.14201,71.39792)" d="M-10.49873 29.81001H-3.5247899V38.222993H-10.49873Z" fill="#ffffff"/>
<use data-text="2" xlink:href="#font_3_2" transform="matrix(9.962899,0,0,-9.963098,107.639728,40.590379)"/>
<path transform="matrix(1.00003,0,0,-1.00005,117.14201,71.39792)" stroke-width=".79701" stroke-linecap="butt" stroke-miterlimit="10" stroke-linejoin="miter" fill="none" stroke="#000000" d="M71.24205 2.55112V-2.55139"/>
<path transform="matrix(1.00003,0,0,-1.00005,117.14201,71.39792)" d="M64.73685-13.35544H77.74727V-4.94246H64.73685Z" fill="#ffffff"/>
<use data-text="2" xlink:href="#font_3_2" transform="matrix(9.962899,0,0,-9.963098,182.87699,83.75754)"/>
<use data-text="&#x03c0;" xlink:href="#font_1_1" transform="matrix(9.962899,0,0,-9.963098,187.85816,83.75754)"/>
<path transform="matrix(1.00003,0,0,-1.00005,117.14201,71.39792)" stroke-width=".79701" stroke-linecap="butt" stroke-miterlimit="10" stroke-linejoin="miter" fill="none" stroke="#000000" d="M-71.24205 2.55112V-2.55139"/>
<path transform="matrix(1.00003,0,0,-1.00005,117.14201,71.39792)" d="M-81.62169-14.18567H-60.862428V-4.94244H-81.62169Z" fill="#ffffff"/>
<use data-text="&#x2212;" xlink:href="#font_2_1" transform="matrix(9.962899,0,0,-9.963098,36.514589,83.75754)"/>
<use data-text="2" xlink:href="#font_3_2" transform="matrix(9.962899,0,0,-9.963098,44.26381,83.75754)"/>
<use data-text="&#x03c0;" xlink:href="#font_1_1" transform="matrix(9.962899,0,0,-9.963098,49.244966,83.75754)"/>
<path transform="matrix(1.00003,0,0,-1.00005,117.14201,71.39792)" stroke-width=".79701" stroke-linecap="butt" stroke-miterlimit="10" stroke-linejoin="miter" fill="none" stroke="#000000" d="M106.86308 2.55112V-2.55139"/>
<path transform="matrix(1.00003,0,0,-1.00005,117.14201,71.39792)" d="M100.35788-13.35544H113.3683V-4.94246H100.35788Z" fill="#ffffff"/>
<use data-text="3" xlink:href="#font_3_3" transform="matrix(9.962899,0,0,-9.963098,218.49906,83.75754)"/>
<use data-text="&#x03c0;" xlink:href="#font_1_1" transform="matrix(9.962899,0,0,-9.963098,223.48021,83.75754)"/>
<path transform="matrix(1.00003,0,0,-1.00005,117.14201,71.39792)" stroke-width=".79701" stroke-linecap="butt" stroke-miterlimit="10" stroke-linejoin="miter" fill="none" stroke="#000000" d="M-106.86308 2.55112V-2.55139"/>
<path transform="matrix(1.00003,0,0,-1.00005,117.14201,71.39792)" d="M-117.24272-14.18567H-96.48346V-4.94244H-117.24272Z" fill="#ffffff"/>
<use data-text="&#x2212;" xlink:href="#font_2_1" transform="matrix(9.962899,0,0,-9.963098,.8925171,83.75754)"/>
<use data-text="3" xlink:href="#font_3_3" transform="matrix(9.962899,0,0,-9.963098,8.641739,83.75754)"/>
<use data-text="&#x03c0;" xlink:href="#font_1_1" transform="matrix(9.962899,0,0,-9.963098,13.622894,83.75754)"/>
<path transform="matrix(1.00003,0,0,-1.00005,117.14201,71.39792)" stroke-width=".79701" stroke-linecap="butt" stroke-miterlimit="10" stroke-linejoin="miter" fill="none" stroke="#000000" d="M-35.62102 2.55112V-2.55139"/>
<path transform="matrix(1.00003,0,0,-1.00005,117.14201,71.39792)" d="M-43.50996-13.57683H-27.73208V-4.9424498H-43.50996Z" fill="#ffffff"/>
<use data-text="&#x2212;" xlink:href="#font_2_1" transform="matrix(9.962899,0,0,-9.963098,74.62674,83.148509)"/>
<use data-text="&#x03c0;" xlink:href="#font_1_1" transform="matrix(9.962899,0,0,-9.963098,82.37596,83.148509)"/>
<path transform="matrix(1.00003,0,0,-1.00005,117.14201,71.39792)" stroke-width=".79701" stroke-linecap="butt" stroke-miterlimit="10" stroke-linejoin="miter" fill="none" stroke="#000000" d="M35.62102 2.55112V-2.55139"/>
<path transform="matrix(1.00003,0,0,-1.00005,117.14201,71.39792)" d="M31.6065-13.21706H39.63554V-6.935H31.6065Z" fill="#ffffff"/>
<use data-text="&#x03c0;" xlink:href="#font_1_1" transform="matrix(9.962899,0,0,-9.963098,149.746,83.61953)"/>
<path transform="matrix(1.00003,0,0,-1.00005,117.14201,71.39792)" stroke-width=".79701" stroke-linecap="butt" stroke-miterlimit="10" stroke-linejoin="miter" fill="none" stroke="#0000ff" d="M-106.86308-17.00798C-106.86308-17.00798-104.45041-16.6731-103.52377-16.27533-102.59712-15.8776-101.1111-14.9024-100.18446-14.14127-99.25781-13.38013-97.77179-11.84846-96.84514-10.78949-95.9185-9.73051-94.43248-7.77454-93.50583-6.50887-92.5792-5.2432-91.09317-3.03072-90.16652-1.66742-89.23988-.30414-87.75385 1.97318-86.8272 3.31671-85.90054 4.66026-84.41452 6.80763-83.48788 8.01593-82.56123 9.22424-81.07521 11.05655-80.14856 12.02534-79.22192 12.99416-77.7359 14.35262-76.80925 14.99847-75.88261 15.64432-74.39658 16.4128-73.46994 16.68019-72.54329 16.9476-71.05727 17.05984-70.13063 16.9257-69.20398 16.79158-67.71796 16.23753-66.79132 15.71347-65.86465 15.18939-64.37863 14.01741-63.45198 13.14857-62.52534 12.27972-61.03932 10.5903-60.11267 9.45139-59.18604 8.31247-57.7 6.25095-56.77336 4.94005-55.84671 3.62915-54.36069 1.37321-53.43405 .00336-52.5074-1.36649-51.02138-3.62207-50.09474-4.93303-49.16809-6.244-47.68207-8.30591-46.75542-9.44514-45.82877-10.58438-44.34274-12.27455-43.41609-13.14389-42.48946-14.01324-41.00342-15.18625-40.07678-15.71088-39.15013-16.23547-37.66411-16.79022-36.73747-16.92493-35.81082-17.05963-34.3248-16.94858-33.39816-16.68176-32.47151-16.41493-30.98549-15.64722-30.05884-15.00185-29.1322-14.35646-27.64618-12.99866-26.71953-12.03027-25.7929-11.06189-24.30684-9.23045-23.3802-8.02243-22.45355-6.81442-20.96753-4.6672-20.0409-3.32372-19.11424-1.98026-17.62822 .2971-16.70158 1.66043-15.77493 3.02374-14.28891 5.23625-13.36226 6.50214-12.43562 7.768-10.9496 9.72467-10.02295 10.78403-9.09631 11.84341-7.61028 13.3758-6.68364 14.13736-5.75699 14.89896-4.27095 15.87473-3.34431 16.27301-2.41766 16.6713-.93164 17.00737-.00499 17.00798 .92162 17.00859 2.40764 16.67456 3.33429 16.27742 4.26093 15.88028 5.74695 14.90625 6.6736 14.14568 7.60023 13.3851 9.08627 11.8543 10.01291 10.79572 10.93956 9.73715 12.42558 7.78157 13.35222 6.51614 14.27887 5.25073 15.7649 3.03868 16.69154 1.67548 17.6182 .31226 19.10422-1.96524 20.03087-3.30893 20.9575-4.65262 22.44353-6.80038 23.37018-8.00893 24.29681-9.21748 25.78285-11.0501 26.70949-12.01938 27.63614-12.98865 29.12216-14.34837 30.0488-14.99484 30.97545-15.64131 32.46147-16.41066 33.3881-16.67865 34.31476-16.94662 35.80078-17.05971 36.72745-16.92622 37.65408-16.79276 39.1401-16.24004 40.06676-15.71657 40.9934-15.19313 42.47943-14.02188 43.40607-13.1535 44.33272-12.28513 45.81874-10.59642 46.74538-9.45787 47.67203-8.3193 49.15805-6.25826 50.08469-4.94759 51.01134-3.6369 52.49736-1.3813 53.42401-.0114 54.35065 1.35849 55.83667 3.61456 56.76332 4.92578 57.68997 6.23698 59.17601 8.29936 60.10265 9.43892 61.0293 10.57849 62.51532 12.2692 63.44196 13.13898 64.3686 14.00877 65.85463 15.18257 66.78127 15.70775 67.70792 16.23294 69.19394 16.7888 70.12059 16.92416 71.04723 17.0595 72.53325 16.94948 73.4599 16.68332 74.38654 16.41714 75.87257 15.65057 76.79921 15.00574 77.72588 14.3609 79.2119 13.00371 80.13853 12.03574 81.06519 11.06776 82.55121 9.23686 83.47784 8.02917 84.4045 6.82149 85.89052 4.67485 86.81717 3.33151 87.7438 1.98817 89.22983-.28925 90.15648-1.65265 91.08311-3.01604 92.56915-5.22873 93.49579-6.49487 94.42244-7.761 95.90846-9.7183 96.8351-10.77808 97.76175-11.83783 99.24779-13.37085 100.17442-14.13297 101.10107-14.89508 102.5871-15.87202 103.51375-16.27094 104.44038-16.66983 106.85306-17.00798 106.85306-17.00798"/>
<path transform="matrix(1.00003,0,0,-1.00005,117.14201,71.39792)" stroke-width=".79701" stroke-linecap="butt" stroke-miterlimit="10" stroke-linejoin="miter" fill="none" stroke="#ff0000" d="M-85.19933 51.02812C-85.19933 51.02812-84.88419 47.30615-84.76315 46.05615-84.64214 44.80615-84.44803 43.04153-84.327 42.01897-84.20596 40.9964-84.01186 39.53613-83.89084 38.68614-83.76979 37.83615-83.5757 36.60913-83.45467 35.89287-83.33363 35.17659-83.13953 34.13445-83.0185 33.52367-82.89746 32.91289-82.70335 32.0169-82.58234 31.4908-82.4613 30.96468-82.2672 30.18872-82.14618 29.73174-82.02515 29.27477-81.83104 28.59679-81.71 28.19717-81.58897 27.79755-81.39487 27.20274-81.27385 26.85152-81.1528 26.50029-80.95871 25.9764-80.83768 25.66576-80.71664 25.35512-80.52255 24.88852-80.4015 24.6126-80.28049 24.33665-80.08638 23.92247-79.96535 23.677-79.84433 23.43155-79.6502 23.06244-79.52917 22.84341-79.40816 22.62437-79.21405 22.29448-79.09302 22.0983-78.97198 21.90213-78.7779 21.60516-78.65686 21.4295-78.53583 21.25386-78.34172 20.98978-78.22069 20.83234-78.09966 20.67493-77.90556 20.43623-77.78452 20.29486-77.6635 20.1535-77.46939 19.93997-77.34836 19.81345-77.22734 19.68692-77.03322 19.49622-76.9122 19.38289-76.79115 19.26958-76.59706 19.09798-76.47604 18.99672-76.355 18.89546-76.1609 18.74301-76.03986 18.6531-75.91884 18.5632-75.72473 18.42796-75.6037 18.3487-75.48267 18.26941-75.28856 18.15128-75.16754 18.08163-75.04651 18.012-74.8524 17.90744-74.73137 17.84677-74.61035 17.78609-74.41623 17.6965-74.29521 17.64433-74.17416 17.59216-73.98007 17.51485-73.85905 17.47072-73.738 17.42657-73.54391 17.36201-73.42287 17.32616-73.30185 17.2903-73.10776 17.24051-72.98671 17.21222-72.86569 17.18393-72.67157 17.14342-72.55055 17.12216-72.42952 17.10092-72.23541 17.07329-72.11438 17.05911-71.99335 17.04492-71.79926 17.02696-71.67822 17.01991-71.55719 17.01286-71.36308 17.00824-71.24205 17.00824-71.12103 17.00824-70.92693 17.01286-70.80588 17.01991-70.68486 17.02696-70.49075 17.04492-70.36972 17.05911-70.2487 17.07329-70.05458 17.10092-69.93356 17.12216-69.81253 17.14342-69.61842 17.18393-69.4974 17.21222-69.37636 17.24051-69.18227 17.2903-69.06123 17.32616-68.9402 17.36201-68.7461 17.42657-68.62506 17.47072-68.50403 17.51485-68.30994 17.59216-68.1889 17.64433-68.06787 17.6965-67.87376 17.78609-67.75273 17.84677-67.63171 17.90744-67.43759 18.012-67.31657 18.08163-67.19554 18.15128-67.00143 18.26941-66.88042 18.3487-66.75937 18.42796-66.56528 18.5632-66.44424 18.6531-66.32321 18.74301-66.12912 18.89546-66.00807 18.99672-65.88705 19.09798-65.69295 19.26958-65.57191 19.38289-65.45088 19.49622-65.25677 19.68692-65.13574 19.81345-65.01472 19.93997-64.82062 20.1535-64.69958 20.29486-64.57855 20.43623-64.38445 20.67493-64.26343 20.83234-64.1424 20.98978-63.94829 21.25386-63.82724 21.4295-63.70622 21.60516-63.51213 21.90213-63.39108 22.0983-63.27007 22.29448-63.07596 22.62437-62.95493 22.84341-62.83391 23.06244-62.63979 23.43155-62.51877 23.677-62.39774 23.92247-62.20363 24.33665-62.0826 24.6126-61.96156 24.88852-61.76746 25.35512-61.64644 25.66576-61.52539 25.9764-61.3313 26.50029-61.21027 26.85152-61.08923 27.20274-60.89514 27.79755-60.7741 28.19717-60.65308 28.59679-60.45895 29.27477-60.33794 29.73174-60.2169 30.18872-60.0228 30.96468-59.90178 31.4908-59.78073 32.0169-59.58664 32.91289-59.46562 33.52367-59.34457 34.13445-59.15048 35.17659-59.02943 35.89287-58.90842 36.60913-58.71431 37.83615-58.59328 38.68614-58.47224 39.53613-58.27814 40.9964-58.15712 42.01897-58.03609 43.04153-57.84198 44.80615-57.72095 46.05615-57.59993 47.30615-57.28479 51.02812-57.28479 51.02812"/>
<path transform="matrix(1.00003,0,0,-1.00005,117.14201,71.39792)" stroke-width=".79701" stroke-linecap="butt" stroke-miterlimit="10" stroke-linejoin="miter" fill="none" stroke="#ff0000" d="M-13.95724 51.02812C-13.95724 51.02812-13.6421 47.30615-13.52109 46.05615-13.40005 44.80615-13.20595 43.04153-13.08492 42.01897-12.96388 40.9964-12.76979 39.53613-12.64876 38.68614-12.52773 37.83615-12.33363 36.60913-12.21259 35.89287-12.09157 35.17659-11.89746 34.13445-11.77641 33.52367-11.6554 32.91289-11.46129 32.0169-11.34026 31.4908-11.21924 30.96468-11.02513 30.18872-10.9041 29.73174-10.78308 29.27477-10.58896 28.59679-10.46794 28.19717-10.3469 27.79755-10.1528 27.20274-10.03177 26.85152-9.91074 26.50029-9.71664 25.9764-9.5956 25.66576-9.47458 25.35512-9.28047 24.88852-9.15944 24.6126-9.0384 24.33665-8.8443 23.92247-8.72328 23.677-8.60225 23.43155-8.40813 23.06244-8.28711 22.84341-8.16609 22.62437-7.97197 22.29448-7.85095 22.0983-7.7299 21.90213-7.53581 21.60516-7.4148 21.4295-7.29375 21.25386-7.09966 20.98978-6.9786 20.83234-6.85759 20.67493-6.66348 20.43623-6.54245 20.29486-6.42142 20.1535-6.22731 19.93997-6.1063 19.81345-5.98526 19.68692-5.79115 19.49622-5.67012 19.38289-5.54909 19.26958-5.355 19.09798-5.23396 18.99672-5.11293 18.89546-4.91882 18.74301-4.79779 18.6531-4.67676 18.5632-4.48267 18.42796-4.36162 18.3487-4.2406 18.26941-4.0465 18.15128-3.92546 18.08163-3.80444 18.012-3.61032 17.90744-3.4893 17.84677-3.36827 17.78609-3.17416 17.6965-3.05313 17.64433-2.9321 17.59216-2.738 17.51485-2.61697 17.47072-2.49594 17.42657-2.30183 17.36201-2.1808 17.32616-2.05977 17.2903-1.86568 17.24051-1.74464 17.21222-1.62361 17.18393-1.4295 17.14342-1.30847 17.12216-1.18745 17.10092-.99333 17.07329-.87231 17.05911-.75128 17.04492-.55717 17.02696-.43616 17.01991-.31511 17.01286-.12102 17.00824 0 17.00824 .12102 17.00824 .31511 17.01286 .43616 17.01991 .55717 17.02696 .75128 17.04492 .87231 17.05911 .99333 17.07329 1.18745 17.10092 1.30847 17.12216 1.4295 17.14342 1.62361 17.18393 1.74464 17.21222 1.86568 17.24051 2.05977 17.2903 2.1808 17.32616 2.30183 17.36201 2.49594 17.42657 2.61697 17.47072 2.738 17.51485 2.9321 17.59216 3.05313 17.64433 3.17416 17.6965 3.36827 17.78609 3.4893 17.84677 3.61032 17.90744 3.80444 18.012 3.92546 18.08163 4.0465 18.15128 4.2406 18.26941 4.36162 18.3487 4.48267 18.42796 4.67676 18.5632 4.79779 18.6531 4.91882 18.74301 5.11293 18.89546 5.23396 18.99672 5.355 19.09798 5.54909 19.26958 5.67012 19.38289 5.79115 19.49622 5.98526 19.68692 6.1063 19.81345 6.22731 19.93997 6.42142 20.1535 6.54245 20.29486 6.66348 20.43623 6.85759 20.67493 6.9786 20.83234 7.09966 20.98978 7.29375 21.25386 7.4148 21.4295 7.53581 21.60516 7.7299 21.90213 7.85095 22.0983 7.97197 22.29448 8.16609 22.62437 8.28711 22.84341 8.40813 23.06244 8.60225 23.43155 8.72328 23.677 8.8443 23.92247 9.0384 24.33665 9.15944 24.6126 9.28047 24.88852 9.47458 25.35512 9.5956 25.66576 9.71664 25.9764 9.91074 26.50029 10.03177 26.85152 10.1528 27.20274 10.3469 27.79755 10.46794 28.19717 10.58896 28.59679 10.78308 29.27477 10.9041 29.73174 11.02513 30.18872 11.21924 30.96468 11.34026 31.4908 11.46129 32.0169 11.6554 32.91289 11.77641 33.52367 11.89746 34.13445 12.09157 35.17659 12.21259 35.89287 12.33363 36.60913 12.52773 37.83615 12.64876 38.68614 12.76979 39.53613 12.96388 40.9964 13.08492 42.01897 13.20595 43.04153 13.40005 44.80615 13.52109 46.05615 13.6421 47.30615 13.95724 51.02812 13.95724 51.02812"/>
<path transform="matrix(1.00003,0,0,-1.00005,117.14201,71.39792)" stroke-width=".79701" stroke-linecap="butt" stroke-miterlimit="10" stroke-linejoin="miter" fill="none" stroke="#ff0000" d="M57.28479 51.02812C57.28479 51.02812 57.59993 47.30615 57.72095 46.05615 57.84198 44.80615 58.03609 43.04153 58.15712 42.01897 58.27814 40.9964 58.47224 39.53613 58.59328 38.68614 58.71431 37.83615 58.90842 36.60913 59.02943 35.89287 59.15048 35.17659 59.34457 34.13445 59.46562 33.52367 59.58664 32.91289 59.78073 32.0169 59.90178 31.4908 60.0228 30.96468 60.2169 30.18872 60.33794 29.73174 60.45895 29.27477 60.65308 28.59679 60.7741 28.19717 60.89514 27.79755 61.08923 27.20274 61.21027 26.85152 61.3313 26.50029 61.52539 25.9764 61.64644 25.66576 61.76746 25.35512 61.96156 24.88852 62.0826 24.6126 62.20363 24.33665 62.39774 23.92247 62.51877 23.677 62.63979 23.43155 62.83391 23.06244 62.95493 22.84341 63.07596 22.62437 63.27007 22.29448 63.39108 22.0983 63.51213 21.90213 63.70622 21.60516 63.82724 21.4295 63.94829 21.25386 64.1424 20.98978 64.26343 20.83234 64.38445 20.67493 64.57855 20.43623 64.69958 20.29486 64.82062 20.1535 65.01472 19.93997 65.13574 19.81345 65.25677 19.68692 65.45088 19.49622 65.57191 19.38289 65.69295 19.26958 65.88705 19.09798 66.00807 18.99672 66.12912 18.89546 66.32321 18.74301 66.44424 18.6531 66.56528 18.5632 66.75937 18.42796 66.88042 18.3487 67.00143 18.26941 67.19554 18.15128 67.31657 18.08163 67.43759 18.012 67.63171 17.90744 67.75273 17.84677 67.87376 17.78609 68.06787 17.6965 68.1889 17.64433 68.30994 17.59216 68.50403 17.51485 68.62506 17.47072 68.7461 17.42657 68.9402 17.36201 69.06123 17.32616 69.18227 17.2903 69.37636 17.24051 69.4974 17.21222 69.61842 17.18393 69.81253 17.14342 69.93356 17.12216 70.05458 17.10092 70.2487 17.07329 70.36972 17.05911 70.49075 17.04492 70.68486 17.02696 70.80588 17.01991 70.92693 17.01286 71.12103 17.00824 71.24205 17.00824 71.36308 17.00824 71.55719 17.01286 71.67822 17.01991 71.79926 17.02696 71.99335 17.04492 72.11438 17.05911 72.23541 17.07329 72.42952 17.10092 72.55055 17.12216 72.67157 17.14342 72.86569 17.18393 72.98671 17.21222 73.10776 17.24051 73.30185 17.2903 73.42287 17.32616 73.54391 17.36201 73.738 17.42657 73.85905 17.47072 73.98007 17.51485 74.17416 17.59216 74.29521 17.64433 74.41623 17.6965 74.61035 17.78609 74.73137 17.84677 74.8524 17.90744 75.04651 18.012 75.16754 18.08163 75.28856 18.15128 75.48267 18.26941 75.6037 18.3487 75.72473 18.42796 75.91884 18.5632 76.03986 18.6531 76.1609 18.74301 76.355 18.89546 76.47604 18.99672 76.59706 19.09798 76.79115 19.26958 76.9122 19.38289 77.03322 19.49622 77.22734 19.68692 77.34836 19.81345 77.46939 19.93997 77.6635 20.1535 77.78452 20.29486 77.90556 20.43623 78.09966 20.67493 78.22069 20.83234 78.34172 20.98978 78.53583 21.25386 78.65686 21.4295 78.7779 21.60516 78.97198 21.90213 79.09302 22.0983 79.21405 22.29448 79.40816 22.62437 79.52917 22.84341 79.6502 23.06244 79.84433 23.43155 79.96535 23.677 80.08638 23.92247 80.28049 24.33665 80.4015 24.6126 80.52255 24.88852 80.71664 25.35512 80.83768 25.66576 80.95871 25.9764 81.1528 26.50029 81.27385 26.85152 81.39487 27.20274 81.58897 27.79755 81.71 28.19717 81.83104 28.59679 82.02515 29.27477 82.14618 29.73174 82.2672 30.18872 82.4613 30.96468 82.58234 31.4908 82.70335 32.0169 82.89746 32.91289 83.0185 33.52367 83.13953 34.13445 83.33363 35.17659 83.45467 35.89287 83.5757 36.60913 83.76979 37.83615 83.89084 38.68614 84.01186 39.53613 84.20596 40.9964 84.327 42.01897 84.44803 43.04153 84.64214 44.80615 84.76315 46.05615 84.88419 47.30615 85.19933 51.02812 85.19933 51.02812"/>
<path transform="matrix(1.00003,0,0,-1.00005,117.14201,71.39792)" stroke-width=".79701" stroke-linecap="butt" stroke-miterlimit="10" stroke-linejoin="miter" fill="none" stroke="#ff0000" d="M-49.57828-51.02812C-49.57828-51.02812-49.26315-47.30615-49.14212-46.05615-49.0211-44.80615-48.82698-43.04153-48.70596-42.01897-48.58493-40.9964-48.39082-39.53613-48.26979-38.68614-48.14876-37.83615-47.95467-36.60913-47.83362-35.89287-47.7126-35.17659-47.5185-34.13445-47.39746-33.52367-47.27643-32.91289-47.08232-32.0169-46.9613-31.4908-46.84027-30.96468-46.64616-30.18872-46.52513-29.73174-46.40411-29.27477-46.20999-28.59679-46.08897-28.19717-45.96793-27.79755-45.77383-27.20274-45.65282-26.85152-45.53177-26.50029-45.33768-25.9764-45.21664-25.66576-45.09561-25.35512-44.9015-24.88852-44.78047-24.6126-44.65944-24.33665-44.46533-23.92247-44.34431-23.677-44.22328-23.43155-44.02917-23.06244-43.90814-22.84341-43.78712-22.62437-43.59302-22.29448-43.47198-22.0983-43.35095-21.90213-43.15685-21.60516-43.03583-21.4295-42.91478-21.25386-42.72069-20.98978-42.59964-20.83234-42.47862-20.67493-42.28453-20.43623-42.16348-20.29486-42.04247-20.1535-41.84834-19.93997-41.72733-19.81345-41.60631-19.68692-41.41219-19.49622-41.29115-19.38289-41.17012-19.26958-40.97603-19.09798-40.855-18.99672-40.73396-18.89546-40.53987-18.74301-40.41882-18.6531-40.2978-18.5632-40.1037-18.42796-39.98267-18.3487-39.86163-18.26941-39.66753-18.15128-39.5465-18.08163-39.42548-18.012-39.23135-17.90744-39.11034-17.84677-38.9893-17.78609-38.7952-17.6965-38.67418-17.64433-38.55313-17.59216-38.35904-17.51485-38.23802-17.47072-38.11697-17.42657-37.92287-17.36201-37.80183-17.32616-37.6808-17.2903-37.48671-17.24051-37.36568-17.21222-37.24464-17.18393-37.05054-17.14342-36.92952-17.12216-36.80849-17.10092-36.61438-17.07329-36.49335-17.05911-36.37231-17.04492-36.1782-17.02696-36.05719-17.01991-35.93614-17.01286-35.74205-17.00824-35.62102-17.00824-35.49998-17.00824-35.3059-17.01286-35.18484-17.01991-35.06383-17.02696-34.8697-17.04492-34.74869-17.05911-34.62767-17.07329-34.43355-17.10092-34.31252-17.12216-34.1915-17.14342-33.99739-17.18393-33.87636-17.21222-33.75533-17.24051-33.56123-17.2903-33.4402-17.32616-33.31917-17.36201-33.12506-17.42657-33.00403-17.47072-32.883-17.51485-32.6889-17.59216-32.56786-17.64433-32.44684-17.6965-32.25273-17.78609-32.1317-17.84677-32.01068-17.90744-31.81656-18.012-31.69554-18.08163-31.57451-18.15128-31.3804-18.26941-31.25938-18.3487-31.13834-18.42796-30.94423-18.5632-30.82321-18.6531-30.70216-18.74301-30.50807-18.89546-30.38704-18.99672-30.266-19.09798-30.07191-19.26958-29.95088-19.38289-29.82985-19.49622-29.63574-19.68692-29.51471-19.81345-29.39369-19.93997-29.19957-20.1535-29.07855-20.29486-28.9575-20.43623-28.76341-20.67493-28.6424-20.83234-28.52135-20.98978-28.32726-21.25386-28.2062-21.4295-28.08519-21.60516-27.8911-21.90213-27.77005-22.0983-27.64903-22.29448-27.45491-22.62437-27.3339-22.84341-27.21286-23.06244-27.01875-23.43155-26.89772-23.677-26.7767-23.92247-26.5826-24.33665-26.46156-24.6126-26.34053-24.88852-26.14642-25.35512-26.0254-25.66576-25.90436-25.9764-25.71027-26.50029-25.58922-26.85152-25.4682-27.20274-25.27411-27.79755-25.15306-28.19717-25.03204-28.59679-24.83792-29.27477-24.7169-29.73174-24.59587-30.18872-24.40176-30.96468-24.28075-31.4908-24.15971-32.0169-23.9656-32.91289-23.84457-33.52367-23.72354-34.13445-23.52943-35.17659-23.40842-35.89287-23.28737-36.60913-23.09328-37.83615-22.97224-38.68614-22.85121-39.53613-22.65712-40.9964-22.53607-42.01897-22.41505-43.04153-22.22093-44.80615-22.09991-46.05615-21.97888-47.30615-21.66376-51.02812-21.66376-51.02812"/>
<path transform="matrix(1.00003,0,0,-1.00005,117.14201,71.39792)" stroke-width=".79701" stroke-linecap="butt" stroke-miterlimit="10" stroke-linejoin="miter" fill="none" stroke="#ff0000" d="M21.66376-51.02812C21.66376-51.02812 21.97888-47.30615 22.09991-46.05615 22.22093-44.80615 22.41505-43.04153 22.53607-42.01897 22.65712-40.9964 22.85121-39.53613 22.97224-38.68614 23.09328-37.83615 23.28737-36.60913 23.40842-35.89287 23.52943-35.17659 23.72354-34.13445 23.84457-33.52367 23.9656-32.91289 24.15971-32.0169 24.28075-31.4908 24.40176-30.96468 24.59587-30.18872 24.7169-29.73174 24.83792-29.27477 25.03204-28.59679 25.15306-28.19717 25.27411-27.79755 25.4682-27.20274 25.58922-26.85152 25.71027-26.50029 25.90436-25.9764 26.0254-25.66576 26.14642-25.35512 26.34053-24.88852 26.46156-24.6126 26.5826-24.33665 26.7767-23.92247 26.89772-23.677 27.01875-23.43155 27.21286-23.06244 27.3339-22.84341 27.45491-22.62437 27.64903-22.29448 27.77005-22.0983 27.8911-21.90213 28.08519-21.60516 28.2062-21.4295 28.32726-21.25386 28.52135-20.98978 28.6424-20.83234 28.76341-20.67493 28.9575-20.43623 29.07855-20.29486 29.19957-20.1535 29.39369-19.93997 29.51471-19.81345 29.63574-19.68692 29.82985-19.49622 29.95088-19.38289 30.07191-19.26958 30.266-19.09798 30.38704-18.99672 30.50807-18.89546 30.70216-18.74301 30.82321-18.6531 30.94423-18.5632 31.13834-18.42796 31.25938-18.3487 31.3804-18.26941 31.57451-18.15128 31.69554-18.08163 31.81656-18.012 32.01068-17.90744 32.1317-17.84677 32.25273-17.78609 32.44684-17.6965 32.56786-17.64433 32.6889-17.59216 32.883-17.51485 33.00403-17.47072 33.12506-17.42657 33.31917-17.36201 33.4402-17.32616 33.56123-17.2903 33.75533-17.24051 33.87636-17.21222 33.99739-17.18393 34.1915-17.14342 34.31252-17.12216 34.43355-17.10092 34.62767-17.07329 34.74869-17.05911 34.8697-17.04492 35.06383-17.02696 35.18484-17.01991 35.3059-17.01286 35.49998-17.00824 35.62102-17.00824 35.74205-17.00824 35.93614-17.01286 36.05719-17.01991 36.1782-17.02696 36.37231-17.04492 36.49335-17.05911 36.61438-17.07329 36.80849-17.10092 36.92952-17.12216 37.05054-17.14342 37.24464-17.18393 37.36568-17.21222 37.48671-17.24051 37.6808-17.2903 37.80183-17.32616 37.92287-17.36201 38.11697-17.42657 38.23802-17.47072 38.35904-17.51485 38.55313-17.59216 38.67418-17.64433 38.7952-17.6965 38.9893-17.78609 39.11034-17.84677 39.23135-17.90744 39.42548-18.012 39.5465-18.08163 39.66753-18.15128 39.86163-18.26941 39.98267-18.3487 40.1037-18.42796 40.2978-18.5632 40.41882-18.6531 40.53987-18.74301 40.73396-18.89546 40.855-18.99672 40.97603-19.09798 41.17012-19.26958 41.29115-19.38289 41.41219-19.49622 41.60631-19.68692 41.72733-19.81345 41.84834-19.93997 42.04247-20.1535 42.16348-20.29486 42.28453-20.43623 42.47862-20.67493 42.59964-20.83234 42.72069-20.98978 42.91478-21.25386 43.03583-21.4295 43.15685-21.60516 43.35095-21.90213 43.47198-22.0983 43.59302-22.29448 43.78712-22.62437 43.90814-22.84341 44.02917-23.06244 44.22328-23.43155 44.34431-23.677 44.46533-23.92247 44.65944-24.33665 44.78047-24.6126 44.9015-24.88852 45.09561-25.35512 45.21664-25.66576 45.33768-25.9764 45.53177-26.50029 45.65282-26.85152 45.77383-27.20274 45.96793-27.79755 46.08897-28.19717 46.20999-28.59679 46.40411-29.27477 46.52513-29.73174 46.64616-30.18872 46.84027-30.96468 46.9613-31.4908 47.08232-32.0169 47.27643-32.91289 47.39746-33.52367 47.5185-34.13445 47.7126-35.17659 47.83362-35.89287 47.95467-36.60913 48.14876-37.83615 48.26979-38.68614 48.39082-39.53613 48.58493-40.9964 48.70596-42.01897 48.82698-43.04153 49.0211-44.80615 49.14212-46.05615 49.26315-47.30615 49.57828-51.02812 49.57828-51.02812"/>
<path transform="matrix(1.00003,0,0,-1.00005,117.14201,71.39792)" stroke-width=".79701" stroke-linecap="butt" stroke-miterlimit="10" stroke-linejoin="miter" fill="none" stroke="#ff0000" d="M-106.86308-17.00824C-106.86308-17.00824-106.70558-17.01-106.6451-17.01161-106.58461-17.01323-106.48758-17.0164-106.4271-17.01991-106.36661-17.02344-106.26959-17.0316-106.2091-17.03705-106.1486-17.0425-106.05159-17.05202-105.9911-17.05911-105.93062-17.0662-105.8336-17.07944-105.7731-17.08817-105.71262-17.09692-105.6156-17.11182-105.55511-17.12216-105.49463-17.13254-105.3976-17.15063-105.33711-17.16292-105.27663-17.17519-105.17963-17.19653-105.11913-17.21066-105.05862-17.22482-104.96161-17.24889-104.90112-17.26491-104.84064-17.28091-104.74364-17.30798-104.68312-17.32616-104.62263-17.34435-104.52562-17.37593-104.46513-17.39597-104.40465-17.41602-104.30763-17.44875-104.24713-17.47072-104.18665-17.49268-104.08965-17.53018-104.02916-17.55428-103.96866-17.57837-103.87164-17.61838-103.81114-17.64433-103.75066-17.6703-103.65364-17.71353-103.59315-17.7414-103.53267-17.76927-103.43565-17.815-103.37517-17.84521-103.31467-17.87543-103.21765-17.92659-103.15717-17.95914-103.09668-17.99168-102.99966-18.04515-102.93916-18.07983-102.87866-18.11449-102.78166-18.17201-102.72118-18.20906-102.66069-18.24611-102.56366-18.3072-102.50317-18.34688-102.44267-18.38655-102.34567-18.45279-102.28519-18.49506-102.22469-18.53732-102.12767-18.60672-102.06718-18.65157-102.0067-18.6964-101.90968-18.7705-101.84918-18.81818-101.7887-18.86584-101.69168-18.94466-101.6312-18.99516-101.57071-19.04568-101.47368-19.12897-101.4132-19.1823-101.3527-19.2356-101.25569-19.32309-101.1952-19.37952-101.1347-19.43594-101.03769-19.52924-100.9772-19.58896-100.91672-19.6487-100.8197-19.74681-100.7592-19.81007-100.69872-19.87334-100.6017-19.97815-100.54121-20.04494-100.48073-20.11174-100.3837-20.22118-100.32321-20.29149-100.26273-20.36182-100.16571-20.47722-100.10522-20.55179-100.04472-20.62637-99.94771-20.75037-99.88722-20.82896-99.82674-20.90758-99.72972-21.0355-99.66922-21.11835-99.60873-21.20119-99.51172-21.33835-99.45123-21.42615-99.39075-21.51392-99.29373-21.65852-99.23323-21.75105-99.17274-21.8436-99.07573-21.9954-99.01523-22.09312-98.95474-22.19086-98.85774-22.35204-98.79726-22.45541-98.73676-22.5588-98.63972-22.72916-98.57924-22.83821-98.51875-22.94728-98.42175-23.12608-98.36127-23.24152-98.30075-23.35695-98.20375-23.54774-98.14325-23.67024-98.08276-23.79274-97.98576-23.99463-97.92526-24.12442-97.86476-24.25423-97.76776-24.46849-97.70726-24.60585-97.64677-24.74323-97.54976-24.96886-97.48927-25.11452-97.42879-25.26016-97.33177-25.501-97.27127-25.65562-97.21077-25.81024-97.11377-26.06439-97.05328-26.22893-96.9928-26.39343-96.89578-26.66626-96.83528-26.8414-96.7748-27.01654-96.67778-27.30502-96.6173-27.49126-96.55681-27.67747-96.45978-27.98494-96.39929-28.18367-96.3388-28.38239-96.24179-28.71117-96.1813-28.92357-96.1208-29.13599-96.02379-29.48729-95.9633-29.7146-95.90282-29.94193-95.8058-30.3181-95.7453-30.56197-95.68481-30.8058-95.5878-31.21037-95.52731-31.47212-95.46683-31.73386-95.3698-32.16685-95.30931-32.44844-95.24883-32.73004-95.15181-33.19838-95.09132-33.5016-95.03082-33.80482-94.9338-34.30617-94.87332-34.63391-94.81284-34.96165-94.7158-35.50807-94.65532-35.8638-94.59483-36.21953-94.49782-36.8111-94.43733-37.19775-94.37683-37.58443-94.27982-38.22903-94.21933-38.65059-94.15884-39.07213-94.06183-39.7748-94.00133-40.23602-93.94084-40.69725-93.84383-41.46828-93.78334-41.97484-93.72285-42.48141-93.62584-43.32832-93.56534-43.88702-93.50485-44.44574-93.40784-45.38324-93.34735-46.00165-93.28685-46.62006-93.18985-47.65607-93.12935-48.34412-93.06886-49.03217-92.91135-50.96066-92.91135-50.96066"/>
<path transform="matrix(1.00003,0,0,-1.00005,117.14201,71.39792)" stroke-width=".79701" stroke-linecap="butt" stroke-miterlimit="10" stroke-linejoin="miter" fill="none" stroke="#ff0000" d="M92.90582-51.02812C92.90582-51.02812 93.06332-49.0986 93.12381-48.40875 93.18431-47.7189 93.28133-46.67621 93.34181-46.05615 93.4023-45.43608 93.49931-44.49939 93.55981-43.93971 93.6203-43.38004 93.71732-42.5303 93.7778-42.02234 93.83829-41.51436 93.93532-40.74121 93.9958-40.2786 94.05629-39.81596 94.1533-39.11049 94.21379-38.68796 94.27429-38.26544 94.3713-37.62067 94.4318-37.23332 94.49228-36.84596 94.5893-36.25291 94.6498-35.89624 94.71028-35.53958 94.8073-34.9912 94.86778-34.66272 94.92827-34.33426 95.0253-33.83252 95.08578-33.52885 95.14627-33.22519 95.24329-32.75618 95.30377-32.47414 95.36427-32.1921 95.46127-31.75824 95.52177-31.49599 95.58226-31.23373 95.67929-30.82832 95.73978-30.58401 95.80026-30.3397 95.89726-29.96289 95.95776-29.7351 96.01825-29.50732 96.11528-29.1549 96.17577-28.94225 96.23625-28.72958 96.33325-28.40134 96.39377-28.20235 96.45425-28.00337 96.55127-27.69482 96.61176-27.50812 96.67224-27.32141 96.76926-27.03206 96.82976-26.8567 96.89024-26.68135 96.98724-26.40901 97.04773-26.24423 97.10823-26.07945 97.20525-25.82399 97.26573-25.66911 97.32623-25.51425 97.42323-25.27388 97.48373-25.128 97.54422-24.98213 97.64124-24.75537 97.70172-24.61778 97.76222-24.4802 97.85924-24.2662 97.91972-24.13637 97.98021-24.00653 98.07722-23.80444 98.13771-23.68195 98.19823-23.55945 98.29523-23.36911 98.35571-23.25345 98.4162-23.1378 98.51321-22.95789 98.57372-22.84834 98.6342-22.7388 98.73122-22.56757 98.7917-22.46399 98.85219-22.36038 98.94922-22.19942 99.0097-22.10168 99.07019-22.00395 99.1672-21.85217 99.22769-21.75963 99.2882-21.6671 99.38521-21.52248 99.4457-21.43471 99.50618-21.34691 99.6032-21.20998 99.6637-21.1269 99.72418-21.04385 99.8212-20.91483 99.88168-20.83598 99.94217-20.75713 100.0392-20.63315 100.09969-20.55853 100.16017-20.48395 100.25719-20.36882 100.31769-20.29823 100.37817-20.22768 100.47519-20.11668 100.53568-20.04988 100.59616-19.98308 100.69319-19.87984 100.75368-19.81682 100.81416-19.75381 100.91118-19.65567 100.97166-19.5957 101.03217-19.53575 101.12918-19.44135 101.18967-19.3847 101.25015-19.32808 101.34717-19.2408 101.40767-19.18747 101.46815-19.13414 101.56517-19.05087 101.62566-19.00035 101.68614-18.94984 101.78317-18.87106 101.84366-18.82335 101.90414-18.77565 102.00116-18.70134 102.06165-18.65648 102.12215-18.61162 102.21915-18.54222 102.27963-18.5 102.34013-18.45776 102.43713-18.39195 102.49765-18.35207 102.55814-18.31218 102.65514-18.24974 102.71562-18.21243 102.77612-18.17514 102.87314-18.11786 102.93364-18.0832 102.99413-18.04852 103.09113-17.99506 103.15161-17.96251 103.21213-17.92996 103.30913-17.87904 103.36963-17.84857 103.43011-17.81813 103.52711-17.77104 103.58762-17.74295 103.6481-17.71487 103.74512-17.6721 103.80562-17.64615 103.8661-17.6202 103.96312-17.57993 104.0236-17.55585 104.08409-17.53175 104.1811-17.49446 104.2416-17.47252 104.30211-17.4506 104.39911-17.41785 104.4596-17.3978 104.52008-17.37773 104.61711-17.34615 104.6776-17.32797 104.73808-17.30978 104.8351-17.28278 104.89558-17.26672 104.95609-17.25067 105.0531-17.22638 105.11359-17.21222 105.17407-17.19807 105.27109-17.17702 105.33159-17.16475 105.39207-17.15247 105.48909-17.13434 105.54958-17.12373 105.61006-17.11311 105.70709-17.09714 105.76758-17.08817 105.82806-17.07921 105.92508-17.0662 105.98557-17.05911 106.04607-17.05202 106.14308-17.04224 106.20357-17.03705 106.26405-17.03186 106.36107-17.02525 106.42157-17.02174 106.48206-17.01822 106.57907-17.01349 106.63956-17.01161 106.70004-17.00975 106.85756-17.00824 106.85756-17.00824"/>
</svg>
