<svg xmlns="http://www.w3.org/2000/svg" xmlns:xlink="http://www.w3.org/1999/xlink" version="1.1" width="211" height="127" viewBox="0 0 211 127">
<defs>
<path id="font_1_1" d="M.45498658 .5001831C.45498658 .56614688 .43699647 .7050781 .33499146 .7050781 .19599915 .7050781 .041992189 .42323304 .041992189 .19425965 .041992189 .100250247 .070999149-.0107421879 .1619873-.0107421879 .30299378-.0107421879 .45498658 .27627564 .45498658 .5001831M.147995 .36328126C.16499329 .42723084 .18499756 .5071869 .22499085 .57814028 .2519989 .6271057 .2889862 .68307498 .33399964 .68307498 .3829956 .68307498 .3889923 .6191101 .3889923 .56214907 .3889923 .5131836 .3809967 .46220399 .35699464 .36328126H.147995M.34799195 .3312683C.33699037 .28527833 .31599427 .2002716 .27799989 .12826538 .24299622 .060256959 .20498657 .011245728 .1619873 .011245728 .1289978 .011245728 .10798645 .040252687 .10798645 .133255 .10798645 .17526245 .11399841 .23326111 .13999939 .3312683H.34799195Z"/>
<path id="font_1_2" d="M.48599244 .38136292C.48999024 .39537049 .48999024 .39736939 .48999024 .40437318 .48999024 .42237855 .47599793 .43138124 .46099855 .43138124 .45098878 .43138124 .43499757 .42536927 .42599488 .41036988 .42399598 .405365 .41600038 .37435914 .4119873 .35635377 .40499879 .33035279 .397995 .30334474 .3919983 .27633668L.34700013 .09628296C.34298707 .08126831 .2999878 .011245728 .23399353 .011245728 .18299866 .011245728 .17199707 .055267335 .17199707 .0922699 .17199707 .1382904 .18899536 .20030213 .22299195 .28833009 .23899842 .3293457 .24299622 .3403473 .24299622 .36035157 .24299622 .405365 .21099854 .4423828 .16099549 .4423828 .06599426 .4423828 .0289917 .29733277 .0289917 .28833009 .0289917 .27833558 .038986207 .27833558 .040985109 .27833558 .050994874 .27833558 .051986696 .28033448 .056991579 .29634095 .083999637 .3903656 .12399292 .42037965 .1579895 .42037965 .1659851 .42037965 .18299866 .42037965 .18299866 .3883667 .18299866 .36335755 .17298889 .3373413 .1659851 .31834413 .12599182 .21231079 .10798645 .1552887 .10798645 .10827637 .10798645 .019256592 .17098999-.0107421879 .22999573-.0107421879 .2689972-.0107421879 .30299378 .0062561037 .33099366 .03425598 .31799317-.017745972 .30599977-.06674194 .2659912-.11973572 .23999024-.15385437 .20199585-.18309021 .1559906-.18309021 .14199829-.18309021 .09700012-.18005371 .07998657-.14074707 .09599304-.14074707 .10899353-.14074707 .12298584-.1287384 .1329956-.11973572 .14299011-.10673523 .14299011-.08773804 .14299011-.056747438 .115997318-.052734376 .10598755-.052734376 .08299255-.052734376 .049987794-.068740848 .049987794-.11773682 .049987794-.16796875 .09399414-.20507813 .1559906-.20507813 .25898744-.20507813 .3619995-.11373901 .3899994-.00074768069L.48599244 .38136292Z"/>
<path id="font_2_1" d="M.45999146 .31976319C.45999146 .39982606 .45498658 .47988893 .41999818 .5539398 .37399293 .65000918 .2919922 .6660156 .25 .6660156 .18998719 .6660156 .116989139 .64001467 .07598877 .54693606 .04399109 .47789 .038986207 .39982606 .038986207 .31976319 .038986207 .24472046 .042999269 .15464783 .083999637 .07859802 .1269989-.0024719239 .19999695-.022460938 .24899292-.022460938 .30299378-.022460938 .3789978-.0014648438 .4229889 .09359741 .45498658 .16265869 .45999146 .2407074 .45999146 .31976319M.24899292-.00047302247C.20999146-.00047302247 .15098572 .024551392 .1329956 .12062073 .12199402 .18066406 .12199402 .2727356 .12199402 .3317871 .12199402 .39582826 .12199402 .46188355 .12998963 .5159149 .14898682 .63500979 .22399903 .64401248 .24899292 .64401248 .28199769 .64401248 .34799195 .6259918 .36698915 .52693179 .3769989 .47088624 .3769989 .39482118 .3769989 .3317871 .3769989 .25672914 .3769989 .18867493 .3659973 .12461853 .35099793 .029556275 .2939911-.00047302247 .24899292-.00047302247Z"/>
<path id="font_3_1" d="M.5069885 .24998474C.5069885 .3710022 .4099884 .4650116 .2919922 .4650116 .17199707 .4650116 .07699585 .36799623 .07699585 .25097657 .07699585 .1299591 .17399597 .035949708 .2919922 .035949708 .4119873 .035949708 .5069885 .13296509 .5069885 .24998474M.2919922 .08496094C.19799805 .08496094 .12599182 .16096497 .12599182 .24998474 .12599182 .34300233 .19999695 .41601563 .2919922 .41601563 .38598634 .41601563 .45799256 .33999635 .45799256 .25097657 .45799256 .15795899 .38398744 .08496094 .2919922 .08496094Z"/>
<path id="font_2_6" d="M.13198853 .327713V.35173036C.13198853 .6047821 .2559967 .64100649 .30699159 .64100649 .33099366 .64100649 .37298585 .634964 .394989 .6007538 .37998963 .6007538 .33999635 .6007538 .33999635 .5557556 .33999635 .524765 .3639984 .5097656 .38598634 .5097656 .4019928 .5097656 .43199159 .51875308 .43199159 .5577545 .43199159 .6178589 .3880005 .6660156 .30499269 .6660156 .1769867 .6660156 .041992189 .5367584 .041992189 .31570436 .041992189 .048553468 .1579895-.022460938 .25099183-.022460938 .3619995-.022460938 .45700074 .07156372 .45700074 .2036438 .45700074 .33070375 .36799623 .4267578 .25698854 .4267578 .18899536 .4267578 .1519928 .37573243 .13198853 .327713M.25099183 .0055389406C.18798828 .0055389406 .1579895 .06556702 .1519928 .080566409 .13398743 .127594 .13398743 .2076416 .13398743 .22564698 .13398743 .30369569 .1659851 .40374757 .2559967 .40374757 .27198792 .40374757 .31799317 .40374757 .34899903 .34172059 .36698915 .30470277 .36698915 .2536621 .36698915 .20463562 .36698915 .15661621 .36698915 .10658264 .34999085 .0705719 .31999208 .010528564 .27398683 .0055389406 .25099183 .0055389406Z"/>
<path id="font_2_2" d="M.2939911 .64004519C.2939911 .66400149 .2939911 .6660156 .2709961 .6660156 .20899964 .60227969 .12098694 .60227969 .08898926 .60227969V.57128909C.10899353 .57128909 .16799927 .57128909 .21998596 .5972748V.07902527C.21998596 .042999269 .21699524 .0309906 .1269989 .0309906H.09498596V0C.12998963 .0029907227 .21699524 .0029907227 .25698854 .0029907227 .29699708 .0029907227 .38398744 .0029907227 .4189911 0V.0309906H.3869934C.29699708 .0309906 .2939911 .041992189 .2939911 .07902527V.64004519Z"/>
<path id="font_2_3" d="M.1269989 .07699585 .23298645 .18003845C.3889923 .31811524 .44898988 .3721466 .44898988 .47216798 .44898988 .5860901 .35899354 .6660156 .23699951 .6660156 .12399292 .6660156 .049987794 .57411196 .049987794 .48516847 .049987794 .4291687 .099990848 .4291687 .102996829 .4291687 .11999512 .4291687 .15499878 .44117738 .15499878 .48217774 .15499878 .5081787 .13699341 .5341797 .101989749 .5341797 .09399414 .5341797 .09199524 .5341797 .08898926 .5331726 .11199951 .59806826 .1659851 .63500979 .22399903 .63500979 .31498719 .63500979 .35798646 .5541382 .35798646 .47216798 .35798646 .39215089 .30799867 .31311036 .25299073 .25108338L.06098938 .036987306C.049987794 .025985718 .049987794 .023986817 .049987794 0H.42099L.44898988 .17404175H.42399598C.4189911 .14402771 .4119873 .1000061 .4019928 .084991458 .394989 .07699585 .32899476 .07699585 .30699159 .07699585H.1269989Z"/>
<path id="font_2_7" d="M.16299439 .4569702C.116989139 .486969 .11299133 .52098086 .11299133 .5379791 .11299133 .598999 .17799378 .64100649 .24899292 .64100649 .32199098 .64100649 .38598634 .58898928 .38598634 .51698306 .38598634 .45996095 .34700013 .4119568 .2869873 .37695313L.16299439 .4569702M.30899049 .36193849C.3809967 .3989563 .42999269 .45095826 .42999269 .51698306 .42999269 .6090088 .34098817 .6660156 .25 .6660156 .1499939 .6660156 .068984989 .59199526 .068984989 .49897767 .068984989 .4809723 .070999149 .43595887 .11299133 .38894654 .12399292 .37695313 .16099549 .35194398 .18598938 .33494569 .12799073 .30592347 .041992189 .24984741 .041992189 .15072632 .041992189 .04458618 .14399719-.022460938 .24899292-.022460938 .3619995-.022460938 .45700074 .06060791 .45700074 .16773987 .45700074 .20379639 .44599916 .24885559 .4079895 .2909088 .3889923 .31193543 .37298585 .3219452 .30899049 .36193849M.20899964 .3199463 .33198548 .24183655C.3600006 .2228241 .40699769 .19277954 .40699769 .13169861 .40699769 .05760193 .33198548 .0055389406 .25 .0055389406 .1639862 .0055389406 .09199524 .067611698 .09199524 .15072632 .09199524 .20880127 .12399292 .27288819 .20899964 .3199463Z"/>
<path id="font_2_5" d="M.2939911 .16503906V.07800293C.2939911 .041992189 .2919922 .0309906 .21798706 .0309906H.19699097V0C.23799134 .0029907227 .2899933 .0029907227 .33198548 .0029907227 .37399293 .0029907227 .4269867 .0029907227 .46798707 0V.0309906H.44699098C.37298585 .0309906 .37098695 .041992189 .37098695 .07800293V.16503906H.47099305V.19602967H.37098695V.65075686C.37098695 .67074587 .37098695 .6767578 .35499574 .6767578 .34599305 .6767578 .34298707 .6767578 .33499146 .66474917L.027999878 .19602967V.16503906H.2939911M.2999878 .19602967H.055999757L.2999878 .5688019V.19602967Z"/>
<path id="font_2_4" d="M.2899933 .35191346C.37199403 .37893678 .42999269 .4490509 .42999269 .52809146 .42999269 .6100464 .34199525 .6660156 .24598694 .6660156 .14498902 .6660156 .068984989 .60606387 .068984989 .53009036 .068984989 .49710084 .09098816 .47808839 .11999512 .47808839 .15098572 .47808839 .17098999 .50009158 .17098999 .5290985 .17098999 .57910159 .12399292 .57910159 .10899353 .57910159 .13999939 .62802127 .20599365 .64100649 .24198914 .64100649 .2829895 .64100649 .33799745 .6190338 .33799745 .5290985 .33799745 .51708987 .33599855 .45906068 .30999757 .4149933 .27999879 .36691285 .24598694 .36390687 .22099304 .36291505 .21299744 .36190797 .18899536 .35990907 .18199158 .35990907 .17399597 .35890199 .16699219 .35791017 .16699219 .3479004 .16699219 .33691407 .17399597 .33691407 .19099427 .33691407H.23498535C.31698609 .33691407 .35398866 .2686615 .35398866 .17037964 .35398866 .034469606 .2849884 .0055389406 .24099732 .0055389406 .19799805 .0055389406 .12298584 .022491456 .08799744 .08137512 .12298584 .07637024 .1539917 .09837341 .1539917 .1363678 .1539917 .17237854 .1269989 .19238281 .09799194 .19238281 .07398987 .19238281 .041992189 .17837525 .041992189 .1343689 .041992189 .043441774 .1349945-.022460938 .24398804-.022460938 .3659973-.022460938 .45700074 .06838989 .45700074 .17037964 .45700074 .252594 .3939972 .33088685 .2899933 .35191346Z"/>
<path id="font_4_64" d="M.27598573 .18710327V.24511719H.010986328V.18710327H.27598573Z"/>
<path id="font_4_82" d="M.4189911 0V.0309906H.3869934C.29699708 .0309906 .2939911 .041992189 .2939911 .07902527V.64012148C.2939911 .6640167 .2939911 .6660156 .2709961 .6660156 .20899964 .60227969 .12098694 .60227969 .08898926 .60227969V.57128909C.10899353 .57128909 .16799927 .57128909 .21998596 .5972748V.07902527C.21998596 .042999269 .21699524 .0309906 .1269989 .0309906H.09498596V0C.12998963 .0029907227 .21699524 .0029907227 .25698854 .0029907227 .29699708 .0029907227 .38398744 .0029907227 .4189911 0Z"/>
</defs>
<path transform="matrix(1.00003,0,0,-1.00003,16.978005,71.19775)" stroke-width=".3985" stroke-linecap="butt" stroke-miterlimit="10" stroke-linejoin="miter" fill="none" stroke="#00aeef" d="M0-51.0221H178.1079M0-45.91988H178.1079M0-40.81767H178.1079M0-35.71545H178.1079M0-30.61325H178.1079M0-25.51105H178.1079M0-20.40883H178.1079M0-15.30663H178.1079M0-10.2044H178.1079M0-5.1022H178.1079M0 0H178.1079M0 5.1022H178.1079M0 10.2044H178.1079M0 15.30663H178.1079M0 20.40883H178.1079M0 25.51105H178.1079M0 30.61325H178.1079M0 35.71545H178.1079M0 40.81767H178.1079M0 45.91988H178.1079M0 51.0221H178.1079M0-51.02432V51.02432M4.94736-51.02432V51.02432M9.89471-51.02432V51.02432M14.84207-51.02432V51.02432M19.78944-51.02432V51.02432M24.7368-51.02432V51.02432M29.68416-51.02432V51.02432M34.63153-51.02432V51.02432M39.57889-51.02432V51.02432M44.52625-51.02432V51.02432M49.47362-51.02432V51.02432M54.42097-51.02432V51.02432M59.36833-51.02432V51.02432M64.3157-51.02432V51.02432M69.26306-51.02432V51.02432M74.21042-51.02432V51.02432M79.15779-51.02432V51.02432M84.10515-51.02432V51.02432M89.0525-51.02432V51.02432M93.99988-51.02432V51.02432M98.94724-51.02432V51.02432M103.89459-51.02432V51.02432M108.84196-51.02432V51.02432M113.78932-51.02432V51.02432M118.73668-51.02432V51.02432M123.68405-51.02432V51.02432M128.63141-51.02432V51.02432M133.57877-51.02432V51.02432M138.52614-51.02432V51.02432M143.4735-51.02432V51.02432M148.42086-51.02432V51.02432M153.36823-51.02432V51.02432M158.31558-51.02432V51.02432M163.26294-51.02432V51.02432M168.21031-51.02432V51.02432M173.15767-51.02432V51.02432M178.10503-51.02432V51.02432M178.1079 51.02432"/>
<path transform="matrix(1.00003,0,0,-1.00003,16.978005,71.19775)" stroke-width=".3985" stroke-linecap="butt" stroke-miterlimit="10" stroke-linejoin="miter" fill="none" stroke="#000000" d="M-8.50412 0H183.25798"/>
<path transform="matrix(1.00003,0,0,-1.00003,200.24149,71.19775)" d="M.797 0C-.19925 .19925-1.19551 .59775-2.39102 1.29512-1.19551 .3985-1.19551-.3985-2.39102-1.29512-1.19551-.59775-.19925-.19925 .797 0Z"/>
<path transform="matrix(1.00003,0,0,-1.00003,200.24149,71.19775)" stroke-width=".3985" stroke-linecap="butt" stroke-linejoin="round" fill="none" stroke="#000000" d="M.797 0C-.19925 .19925-1.19551 .59775-2.39102 1.29512-1.19551 .3985-1.19551-.3985-2.39102-1.29512-1.19551-.59775-.19925-.19925 .797 0Z"/>
<use data-text="&#x03b8;" xlink:href="#font_1_1" transform="matrix(9.962899,0,0,-9.962899,204.75766,74.65685)"/>
<path transform="matrix(1.00003,0,0,-1.00003,16.978005,71.19775)" stroke-width=".3985" stroke-linecap="butt" stroke-miterlimit="10" stroke-linejoin="miter" fill="none" stroke="#000000" d="M0-51.02432V58.5322"/>
<path transform="matrix(0,-1.00003,-1.00003,-0,16.978005,12.663788)" d="M.797 0C-.19925 .19925-1.19551 .59775-2.39102 1.29512-1.19551 .3985-1.19551-.3985-2.39102-1.29512-1.19551-.59775-.19925-.19925 .797 0Z"/>
<path transform="matrix(0,-1.00003,-1.00003,-0,16.978005,12.663788)" stroke-width=".3985" stroke-linecap="butt" stroke-linejoin="round" fill="none" stroke="#000000" d="M.797 0C-.19925 .19925-1.19551 .59775-2.39102 1.29512-1.19551 .3985-1.19551-.3985-2.39102-1.29512-1.19551-.59775-.19925-.19925 .797 0Z"/>
<use data-text="y" xlink:href="#font_1_2" transform="matrix(9.962899,0,0,-9.962899,14.356926,6.2107927)"/>
<path transform="matrix(1.00003,0,0,-1.00003,16.978005,71.19775)" stroke-width=".3985" stroke-linecap="butt" stroke-miterlimit="10" stroke-linejoin="miter" fill="none" stroke="#000000" d="M0 2.26778V-2.26779"/>
<path transform="matrix(1.00003,0,0,-1.00003,16.978005,71.19775)" d="M-5.77702-14.30865H5.7770307V-5.45588H-5.77702Z" fill="#ffffff"/>
<use data-text="0" xlink:href="#font_2_1" transform="matrix(9.962899,0,0,-9.962899,12.196861,84.51015)"/>
<use data-text="&#x25e6;" xlink:href="#font_3_1" transform="matrix(6.9740097,0,0,-6.9740097,17.179009,80.89404)"/>
<path transform="matrix(1.00003,0,0,-1.00003,16.978005,71.19775)" stroke-width=".3985" stroke-linecap="butt" stroke-miterlimit="10" stroke-linejoin="miter" fill="none" stroke="#000000" d="M29.68463 2.26778V-2.26779"/>
<path transform="matrix(1.00003,0,0,-1.00003,16.978005,71.19775)" d="M21.4169-14.30865H37.952363V-5.45588H21.4169Z" fill="#ffffff"/>
<use data-text="6" xlink:href="#font_2_6" transform="matrix(9.962899,0,0,-9.962899,39.391679,84.51015)"/>
<use data-text="0" xlink:href="#font_2_1" transform="matrix(9.962899,0,0,-9.962899,44.373125,84.51015)"/>
<use data-text="&#x25e6;" xlink:href="#font_3_1" transform="matrix(6.9740097,0,0,-6.9740097,49.354974,80.89404)"/>
<path transform="matrix(1.00003,0,0,-1.00003,16.978005,71.19775)" stroke-width=".3985" stroke-linecap="butt" stroke-miterlimit="10" stroke-linejoin="miter" fill="none" stroke="#000000" d="M59.36928 2.26778V-2.26779"/>
<path transform="matrix(1.00003,0,0,-1.00003,16.978005,71.19775)" d="M48.61086-14.30865H70.12771V-5.45588H48.61086Z" fill="#ffffff"/>
<use data-text="1" xlink:href="#font_2_2" transform="matrix(9.962899,0,0,-9.962899,66.586498,84.51015)"/>
<use data-text="2" xlink:href="#font_2_3" transform="matrix(9.962899,0,0,-9.962899,71.56794,84.51015)"/>
<use data-text="0" xlink:href="#font_2_1" transform="matrix(9.962899,0,0,-9.962899,76.54939,84.51015)"/>
<use data-text="&#x25e6;" xlink:href="#font_3_1" transform="matrix(6.9740097,0,0,-6.9740097,81.530948,80.89404)"/>
<path transform="matrix(1.00003,0,0,-1.00003,16.978005,71.19775)" stroke-width=".3985" stroke-linecap="butt" stroke-miterlimit="10" stroke-linejoin="miter" fill="none" stroke="#000000" d="M89.05394 2.26778V-2.26779"/>
<path transform="matrix(1.00003,0,0,-1.00003,16.978005,71.19775)" d="M78.29552-14.30865H99.81236V-5.45588H78.29552Z" fill="#ffffff"/>
<use data-text="1" xlink:href="#font_2_2" transform="matrix(9.962899,0,0,-9.962899,96.272388,84.51015)"/>
<use data-text="8" xlink:href="#font_2_7" transform="matrix(9.962899,0,0,-9.962899,101.25383,84.51015)"/>
<use data-text="0" xlink:href="#font_2_1" transform="matrix(9.962899,0,0,-9.962899,106.23528,84.51015)"/>
<use data-text="&#x25e6;" xlink:href="#font_3_1" transform="matrix(6.9740097,0,0,-6.9740097,111.216838,80.89404)"/>
<path transform="matrix(1.00003,0,0,-1.00003,16.978005,71.19775)" stroke-width=".3985" stroke-linecap="butt" stroke-miterlimit="10" stroke-linejoin="miter" fill="none" stroke="#000000" d="M118.73859 2.26778V-2.26779"/>
<path transform="matrix(1.00003,0,0,-1.00003,16.978005,71.19775)" d="M107.98016-14.30865H129.49701V-5.45588H107.98016Z" fill="#ffffff"/>
<use data-text="2" xlink:href="#font_2_3" transform="matrix(9.962899,0,0,-9.962899,125.957279,84.51015)"/>
<use data-text="4" xlink:href="#font_2_5" transform="matrix(9.962899,0,0,-9.962899,130.93872,84.51015)"/>
<use data-text="0" xlink:href="#font_2_1" transform="matrix(9.962899,0,0,-9.962899,135.92017,84.51015)"/>
<use data-text="&#x25e6;" xlink:href="#font_3_1" transform="matrix(6.9740097,0,0,-6.9740097,140.90174,80.89404)"/>
<path transform="matrix(1.00003,0,0,-1.00003,16.978005,71.19775)" stroke-width=".3985" stroke-linecap="butt" stroke-miterlimit="10" stroke-linejoin="miter" fill="none" stroke="#000000" d="M148.42324 2.26778V-2.26779"/>
<path transform="matrix(1.00003,0,0,-1.00003,16.978005,71.19775)" d="M137.66481-14.30865H159.18166V-5.45588H137.66481Z" fill="#ffffff"/>
<use data-text="3" xlink:href="#font_2_4" transform="matrix(9.962899,0,0,-9.962899,155.64316,84.51015)"/>
<use data-text="0" xlink:href="#font_2_1" transform="matrix(9.962899,0,0,-9.962899,160.6246,84.51015)"/>
<use data-text="0" xlink:href="#font_2_1" transform="matrix(9.962899,0,0,-9.962899,165.60607,84.51015)"/>
<use data-text="&#x25e6;" xlink:href="#font_3_1" transform="matrix(6.9740097,0,0,-6.9740097,170.58762,80.89404)"/>
<path transform="matrix(1.00003,0,0,-1.00003,16.978005,71.19775)" stroke-width=".3985" stroke-linecap="butt" stroke-miterlimit="10" stroke-linejoin="miter" fill="none" stroke="#000000" d="M178.1079 2.26778V-2.26779"/>
<path transform="matrix(1.00003,0,0,-1.00003,16.978005,71.19775)" d="M167.34947-14.30865H188.86632V-5.45588H167.34947Z" fill="#ffffff"/>
<use data-text="3" xlink:href="#font_2_4" transform="matrix(9.962899,0,0,-9.962899,185.32904,84.51015)"/>
<use data-text="6" xlink:href="#font_2_6" transform="matrix(9.962899,0,0,-9.962899,190.31049,84.51015)"/>
<use data-text="0" xlink:href="#font_2_1" transform="matrix(9.962899,0,0,-9.962899,195.29195,84.51015)"/>
<use data-text="&#x25e6;" xlink:href="#font_3_1" transform="matrix(6.9740097,0,0,-6.9740097,200.2735,80.89404)"/>
<path transform="matrix(1.00003,0,0,-1.00003,16.978005,71.19775)" stroke-width=".3985" stroke-linecap="butt" stroke-miterlimit="10" stroke-linejoin="miter" fill="none" stroke="#000000" d="M2.26778-25.51193H-2.26779"/>
<path transform="matrix(1.00003,0,0,-1.00003,16.978005,71.19775)" stroke-width=".3985" stroke-linecap="butt" stroke-miterlimit="10" stroke-linejoin="miter" fill="none" stroke="#000000" d="M2.26778 25.51193H-2.26779"/>
<path transform="matrix(1.00003,0,0,-1.00003,16.978005,71.19775)" stroke-width=".79701" stroke-linecap="butt" stroke-miterlimit="10" stroke-linejoin="miter" fill="none" stroke="#000000" d="M3.40146-51.02432H-3.4019"/>
<path transform="matrix(1.00003,0,0,-1.00003,16.978005,71.19775)" d="M-17.08076-55.33821H-6.789239V-46.71046H-17.08076Z" fill="#ffffff"/>
<use data-text="-" xlink:href="#font_4_64" transform="matrix(9.962899,0,0,-9.962899,.89352419,125.54138)"/>
<use data-text="1" xlink:href="#font_4_82" transform="matrix(9.962899,0,0,-9.962899,4.2111666,125.54138)"/>
<path transform="matrix(1.00003,0,0,-1.00003,16.978005,71.19775)" stroke-width=".79701" stroke-linecap="butt" stroke-miterlimit="10" stroke-linejoin="miter" fill="none" stroke="#000000" d="M3.40146 51.02432H-3.4019"/>
<path transform="matrix(1.00003,0,0,-1.00003,16.978005,71.19775)" d="M-13.76318 46.71045H-6.78924V55.3382H-13.76318Z" fill="#ffffff"/>
<use data-text="1" xlink:href="#font_4_82" transform="matrix(9.962899,0,0,-9.962899,4.2106249,23.489312)"/>
<path transform="matrix(1.00003,0,0,-1.00003,16.978005,71.19775)" stroke-width="1.19553" stroke-linecap="butt" stroke-miterlimit="10" stroke-linejoin="miter" fill="none" stroke="#ff0000" d="M0 0C0 0 5.36172 9.66544 7.42104 13.20493 9.48035 16.74443 12.78279 22.33662 14.84209 25.51021 16.9014 28.68378 20.20384 33.48665 22.26315 36.07799 24.32246 38.66931 27.6249 42.35448 29.68419 44.18677 31.7435 46.01904 35.04594 48.33524 37.10526 49.2838 39.16457 50.23238 42.46701 51.02335 44.5263 51.02345 46.58562 51.02356 49.88806 50.23305 51.94737 49.28465 54.00668 48.33626 57.30911 46.02017 59.36841 44.18806 61.42772 42.35597 64.73016 38.67116 66.78947 36.08014 68.84879 33.48912 72.15123 28.6872 74.21053 25.51367 76.26984 22.34015 79.57227 16.74721 81.63158 13.20753 83.69089 9.66786 86.99333 3.66641 89.05263 .00215 91.11194-3.6621 94.41438-9.6623 96.4737-13.2019 98.533-16.74152 101.83545-22.33514 103.89474-25.50891 105.95406-28.68268 109.25648-33.48486 111.3158-36.07625 113.3751-38.66763 116.67755-42.3534 118.73685-44.18591 120.79616-46.01843 124.0986-48.33511 126.15791-49.2838 128.21723-50.2325 131.51966-51.02322 133.57895-51.02345 135.63826-51.02368 138.9407-50.2338 141.00002-49.28552 143.05933-48.33725 146.36177-46.0209 148.42107-44.18893 150.48038-42.35696 153.78282-38.67285 155.84214-36.08188 157.90145-33.49089 161.20388-28.68842 163.26317-25.51497 165.32248-22.3415 168.62493-16.74924 170.68424-13.20969 172.74355-9.67014 178.10529-.0043 178.10529-.0043"/>
<path transform="matrix(1.00003,0,0,-1.00003,16.978005,71.19775)" d="M.99628 0C.99628 .55023 .55023 .99628 0 .99628-.55023 .99628-.99628 .55023-.99628 0-.99628-.55023-.55023-.99628 0-.99628 .55023-.99628 .99628-.55023 .99628 0ZM0 0"/>
<path transform="matrix(1.00003,0,0,-1.00003,16.978005,71.19775)" stroke-width=".3985" stroke-linecap="butt" stroke-miterlimit="10" stroke-linejoin="miter" fill="none" stroke="#000000" d="M.99628 0C.99628 .55023 .55023 .99628 0 .99628-.55023 .99628-.99628 .55023-.99628 0-.99628-.55023-.55023-.99628 0-.99628 .55023-.99628 .99628-.55023 .99628 0ZM0 0"/>
<path transform="matrix(1.00003,0,0,-1.00003,16.978005,71.19775)" d="M5.94017 8.86009C5.94017 9.41032 5.49413 9.85637 4.9439 9.85637 4.39365 9.85637 3.94762 9.41032 3.94762 8.86009 3.94762 8.30984 4.39365 7.86382 4.9439 7.86382 5.49413 7.86382 5.94017 8.30984 5.94017 8.86009ZM4.9439 8.86009"/>
<path transform="matrix(1.00003,0,0,-1.00003,16.978005,71.19775)" stroke-width=".3985" stroke-linecap="butt" stroke-miterlimit="10" stroke-linejoin="miter" fill="none" stroke="#000000" d="M5.94017 8.86009C5.94017 9.41032 5.49413 9.85637 4.9439 9.85637 4.39365 9.85637 3.94762 9.41032 3.94762 8.86009 3.94762 8.30984 4.39365 7.86382 4.9439 7.86382 5.49413 7.86382 5.94017 8.30984 5.94017 8.86009ZM4.9439 8.86009"/>
<path transform="matrix(1.00003,0,0,-1.00003,16.978005,71.19775)" d="M10.88408 17.45158C10.88408 18.00183 10.43803 18.44786 9.8878 18.44786 9.33757 18.44786 8.89153 18.00183 8.89153 17.45158 8.89153 16.90135 9.33757 16.4553 9.8878 16.4553 10.43803 16.4553 10.88408 16.90135 10.88408 17.45158ZM9.8878 17.45158"/>
<path transform="matrix(1.00003,0,0,-1.00003,16.978005,71.19775)" stroke-width=".3985" stroke-linecap="butt" stroke-miterlimit="10" stroke-linejoin="miter" fill="none" stroke="#000000" d="M10.88408 17.45158C10.88408 18.00183 10.43803 18.44786 9.8878 18.44786 9.33757 18.44786 8.89153 18.00183 8.89153 17.45158 8.89153 16.90135 9.33757 16.4553 9.8878 16.4553 10.43803 16.4553 10.88408 16.90135 10.88408 17.45158ZM9.8878 17.45158"/>
<path transform="matrix(1.00003,0,0,-1.00003,16.978005,71.19775)" d="M15.82799 25.51193C15.82799 26.06218 15.38194 26.50821 14.83171 26.50821 14.28148 26.50821 13.83543 26.06218 13.83543 25.51193 13.83543 24.9617 14.28148 24.51566 14.83171 24.51566 15.38194 24.51566 15.82799 24.9617 15.82799 25.51193ZM14.83171 25.51193"/>
<path transform="matrix(1.00003,0,0,-1.00003,16.978005,71.19775)" stroke-width=".3985" stroke-linecap="butt" stroke-miterlimit="10" stroke-linejoin="miter" fill="none" stroke="#000000" d="M15.82799 25.51193C15.82799 26.06218 15.38194 26.50821 14.83171 26.50821 14.28148 26.50821 13.83543 26.06218 13.83543 25.51193 13.83543 24.9617 14.28148 24.51566 14.83171 24.51566 15.38194 24.51566 15.82799 24.9617 15.82799 25.51193ZM14.83171 25.51193"/>
<path transform="matrix(1.00003,0,0,-1.00003,16.978005,71.19775)" d="M20.7719 32.7976C20.7719 33.34784 20.32585 33.79388 19.77562 33.79388 19.22539 33.79388 18.77934 33.34784 18.77934 32.7976 18.77934 32.24738 19.22539 31.80133 19.77562 31.80133 20.32585 31.80133 20.7719 32.24738 20.7719 32.7976ZM19.77562 32.7976"/>
<path transform="matrix(1.00003,0,0,-1.00003,16.978005,71.19775)" stroke-width=".3985" stroke-linecap="butt" stroke-miterlimit="10" stroke-linejoin="miter" fill="none" stroke="#000000" d="M20.7719 32.7976C20.7719 33.34784 20.32585 33.79388 19.77562 33.79388 19.22539 33.79388 18.77934 33.34784 18.77934 32.7976 18.77934 32.24738 19.22539 31.80133 19.77562 31.80133 20.32585 31.80133 20.7719 32.24738 20.7719 32.7976ZM19.77562 32.7976"/>
<path transform="matrix(1.00003,0,0,-1.00003,16.978005,71.19775)" d="M25.7158 39.08629C25.7158 39.63652 25.26978 40.08257 24.71953 40.08257 24.1693 40.08257 23.72325 39.63652 23.72325 39.08629 23.72325 38.53606 24.1693 38.09001 24.71953 38.09001 25.26978 38.09001 25.7158 38.53606 25.7158 39.08629ZM24.71953 39.08629"/>
<path transform="matrix(1.00003,0,0,-1.00003,16.978005,71.19775)" stroke-width=".3985" stroke-linecap="butt" stroke-miterlimit="10" stroke-linejoin="miter" fill="none" stroke="#000000" d="M25.7158 39.08629C25.7158 39.63652 25.26978 40.08257 24.71953 40.08257 24.1693 40.08257 23.72325 39.63652 23.72325 39.08629 23.72325 38.53606 24.1693 38.09001 24.71953 38.09001 25.26978 38.09001 25.7158 38.53606 25.7158 39.08629ZM24.71953 39.08629"/>
<path transform="matrix(1.00003,0,0,-1.00003,16.978005,71.19775)" d="M30.65973 44.18806C30.65973 44.73831 30.21368 45.18434 29.66345 45.18434 29.1132 45.18434 28.66718 44.73831 28.66718 44.18806 28.66718 43.63783 29.1132 43.19179 29.66345 43.19179 30.21368 43.19179 30.65973 43.63783 30.65973 44.18806ZM29.66345 44.18806"/>
<path transform="matrix(1.00003,0,0,-1.00003,16.978005,71.19775)" stroke-width=".3985" stroke-linecap="butt" stroke-miterlimit="10" stroke-linejoin="miter" fill="none" stroke="#000000" d="M30.65973 44.18806C30.65973 44.73831 30.21368 45.18434 29.66345 45.18434 29.1132 45.18434 28.66718 44.73831 28.66718 44.18806 28.66718 43.63783 29.1132 43.19179 29.66345 43.19179 30.21368 43.19179 30.65973 43.63783 30.65973 44.18806ZM29.66345 44.18806"/>
<path transform="matrix(1.00003,0,0,-1.00003,16.978005,71.19775)" d="M35.60364 47.94727C35.60364 48.4975 35.1576 48.94354 34.60736 48.94354 34.05713 48.94354 33.61108 48.4975 33.61108 47.94727 33.61108 47.39702 34.05713 46.95099 34.60736 46.95099 35.1576 46.95099 35.60364 47.39702 35.60364 47.94727ZM34.60736 47.94727"/>
<path transform="matrix(1.00003,0,0,-1.00003,16.978005,71.19775)" stroke-width=".3985" stroke-linecap="butt" stroke-miterlimit="10" stroke-linejoin="miter" fill="none" stroke="#000000" d="M35.60364 47.94727C35.60364 48.4975 35.1576 48.94354 34.60736 48.94354 34.05713 48.94354 33.61108 48.4975 33.61108 47.94727 33.61108 47.39702 34.05713 46.95099 34.60736 46.95099 35.1576 46.95099 35.60364 47.39702 35.60364 47.94727ZM34.60736 47.94727"/>
<path transform="matrix(1.00003,0,0,-1.00003,16.978005,71.19775)" d="M40.54753 50.24922C40.54753 50.79945 40.10149 51.2455 39.55125 51.2455 39.00102 51.2455 38.55498 50.79945 38.55498 50.24922 38.55498 49.69899 39.00102 49.25294 39.55125 49.25294 40.10149 49.25294 40.54753 49.69899 40.54753 50.24922ZM39.55125 50.24922"/>
<path transform="matrix(1.00003,0,0,-1.00003,16.978005,71.19775)" stroke-width=".3985" stroke-linecap="butt" stroke-miterlimit="10" stroke-linejoin="miter" fill="none" stroke="#000000" d="M40.54753 50.24922C40.54753 50.79945 40.10149 51.2455 39.55125 51.2455 39.00102 51.2455 38.55498 50.79945 38.55498 50.24922 38.55498 49.69899 39.00102 49.25294 39.55125 49.25294 40.10149 49.25294 40.54753 49.69899 40.54753 50.24922ZM39.55125 50.24922"/>
<path transform="matrix(1.00003,0,0,-1.00003,16.978005,71.19775)" d="M45.49144 51.02432C45.49144 51.57455 45.0454 52.0206 44.49516 52.0206 43.94493 52.0206 43.49889 51.57455 43.49889 51.02432 43.49889 50.47409 43.94493 50.02805 44.49516 50.02805 45.0454 50.02805 45.49144 50.47409 45.49144 51.02432ZM44.49516 51.02432"/>
<path transform="matrix(1.00003,0,0,-1.00003,16.978005,71.19775)" stroke-width=".3985" stroke-linecap="butt" stroke-miterlimit="10" stroke-linejoin="miter" fill="none" stroke="#000000" d="M45.49144 51.02432C45.49144 51.57455 45.0454 52.0206 44.49516 52.0206 43.94493 52.0206 43.49889 51.57455 43.49889 51.02432 43.49889 50.47409 43.94493 50.02805 44.49516 50.02805 45.0454 50.02805 45.49144 50.47409 45.49144 51.02432ZM44.49516 51.02432"/>
<path transform="matrix(1.00003,0,0,-1.00003,16.978005,71.19775)" d="M50.43535 50.24922C50.43535 50.79945 49.98932 51.2455 49.43907 51.2455 48.88884 51.2455 48.4428 50.79945 48.4428 50.24922 48.4428 49.69899 48.88884 49.25294 49.43907 49.25294 49.98932 49.25294 50.43535 49.69899 50.43535 50.24922ZM49.43907 50.24922"/>
<path transform="matrix(1.00003,0,0,-1.00003,16.978005,71.19775)" stroke-width=".3985" stroke-linecap="butt" stroke-miterlimit="10" stroke-linejoin="miter" fill="none" stroke="#000000" d="M50.43535 50.24922C50.43535 50.79945 49.98932 51.2455 49.43907 51.2455 48.88884 51.2455 48.4428 50.79945 48.4428 50.24922 48.4428 49.69899 48.88884 49.25294 49.43907 49.25294 49.98932 49.25294 50.43535 49.69899 50.43535 50.24922ZM49.43907 50.24922"/>
<path transform="matrix(1.00003,0,0,-1.00003,16.978005,71.19775)" d="M55.37926 47.94727C55.37926 48.4975 54.93323 48.94354 54.38298 48.94354 53.83275 48.94354 53.3867 48.4975 53.3867 47.94727 53.3867 47.39702 53.83275 46.95099 54.38298 46.95099 54.93323 46.95099 55.37926 47.39702 55.37926 47.94727ZM54.38298 47.94727"/>
<path transform="matrix(1.00003,0,0,-1.00003,16.978005,71.19775)" stroke-width=".3985" stroke-linecap="butt" stroke-miterlimit="10" stroke-linejoin="miter" fill="none" stroke="#000000" d="M55.37926 47.94727C55.37926 48.4975 54.93323 48.94354 54.38298 48.94354 53.83275 48.94354 53.3867 48.4975 53.3867 47.94727 53.3867 47.39702 53.83275 46.95099 54.38298 46.95099 54.93323 46.95099 55.37926 47.39702 55.37926 47.94727ZM54.38298 47.94727"/>
<path transform="matrix(1.00003,0,0,-1.00003,16.978005,71.19775)" d="M60.32318 44.18806C60.32318 44.73831 59.87714 45.18434 59.3269 45.18434 58.77666 45.18434 58.33063 44.73831 58.33063 44.18806 58.33063 43.63783 58.77666 43.19179 59.3269 43.19179 59.87714 43.19179 60.32318 43.63783 60.32318 44.18806ZM59.3269 44.18806"/>
<path transform="matrix(1.00003,0,0,-1.00003,16.978005,71.19775)" stroke-width=".3985" stroke-linecap="butt" stroke-miterlimit="10" stroke-linejoin="miter" fill="none" stroke="#000000" d="M60.32318 44.18806C60.32318 44.73831 59.87714 45.18434 59.3269 45.18434 58.77666 45.18434 58.33063 44.73831 58.33063 44.18806 58.33063 43.63783 58.77666 43.19179 59.3269 43.19179 59.87714 43.19179 60.32318 43.63783 60.32318 44.18806ZM59.3269 44.18806"/>
<path transform="matrix(1.00003,0,0,-1.00003,16.978005,71.19775)" d="M65.26709 39.08629C65.26709 39.63652 64.82104 40.08257 64.27081 40.08257 63.72058 40.08257 63.27454 39.63652 63.27454 39.08629 63.27454 38.53606 63.72058 38.09001 64.27081 38.09001 64.82104 38.09001 65.26709 38.53606 65.26709 39.08629ZM64.27081 39.08629"/>
<path transform="matrix(1.00003,0,0,-1.00003,16.978005,71.19775)" stroke-width=".3985" stroke-linecap="butt" stroke-miterlimit="10" stroke-linejoin="miter" fill="none" stroke="#000000" d="M65.26709 39.08629C65.26709 39.63652 64.82104 40.08257 64.27081 40.08257 63.72058 40.08257 63.27454 39.63652 63.27454 39.08629 63.27454 38.53606 63.72058 38.09001 64.27081 38.09001 64.82104 38.09001 65.26709 38.53606 65.26709 39.08629ZM64.27081 39.08629"/>
<path transform="matrix(1.00003,0,0,-1.00003,16.978005,71.19775)" d="M70.211 32.7976C70.211 33.34784 69.76495 33.79388 69.21472 33.79388 68.66449 33.79388 68.21844 33.34784 68.21844 32.7976 68.21844 32.24738 68.66449 31.80133 69.21472 31.80133 69.76495 31.80133 70.211 32.24738 70.211 32.7976ZM69.21472 32.7976"/>
<path transform="matrix(1.00003,0,0,-1.00003,16.978005,71.19775)" stroke-width=".3985" stroke-linecap="butt" stroke-miterlimit="10" stroke-linejoin="miter" fill="none" stroke="#000000" d="M70.211 32.7976C70.211 33.34784 69.76495 33.79388 69.21472 33.79388 68.66449 33.79388 68.21844 33.34784 68.21844 32.7976 68.21844 32.24738 68.66449 31.80133 69.21472 31.80133 69.76495 31.80133 70.211 32.24738 70.211 32.7976ZM69.21472 32.7976"/>
<path transform="matrix(1.00003,0,0,-1.00003,16.978005,71.19775)" d="M75.15489 25.51193C75.15489 26.06218 74.70885 26.50821 74.15862 26.50821 73.60838 26.50821 73.16234 26.06218 73.16234 25.51193 73.16234 24.9617 73.60838 24.51566 74.15862 24.51566 74.70885 24.51566 75.15489 24.9617 75.15489 25.51193ZM74.15862 25.51193"/>
<path transform="matrix(1.00003,0,0,-1.00003,16.978005,71.19775)" stroke-width=".3985" stroke-linecap="butt" stroke-miterlimit="10" stroke-linejoin="miter" fill="none" stroke="#000000" d="M75.15489 25.51193C75.15489 26.06218 74.70885 26.50821 74.15862 26.50821 73.60838 26.50821 73.16234 26.06218 73.16234 25.51193 73.16234 24.9617 73.60838 24.51566 74.15862 24.51566 74.70885 24.51566 75.15489 24.9617 75.15489 25.51193ZM74.15862 25.51193"/>
<path transform="matrix(1.00003,0,0,-1.00003,16.978005,71.19775)" d="M80.0988 17.45158C80.0988 18.00183 79.65277 18.44786 79.10252 18.44786 78.55229 18.44786 78.10625 18.00183 78.10625 17.45158 78.10625 16.90135 78.55229 16.4553 79.10252 16.4553 79.65277 16.4553 80.0988 16.90135 80.0988 17.45158ZM79.10252 17.45158"/>
<path transform="matrix(1.00003,0,0,-1.00003,16.978005,71.19775)" stroke-width=".3985" stroke-linecap="butt" stroke-miterlimit="10" stroke-linejoin="miter" fill="none" stroke="#000000" d="M80.0988 17.45158C80.0988 18.00183 79.65277 18.44786 79.10252 18.44786 78.55229 18.44786 78.10625 18.00183 78.10625 17.45158 78.10625 16.90135 78.55229 16.4553 79.10252 16.4553 79.65277 16.4553 80.0988 16.90135 80.0988 17.45158ZM79.10252 17.45158"/>
<path transform="matrix(1.00003,0,0,-1.00003,16.978005,71.19775)" d="M85.04272 8.86009C85.04272 9.41032 84.59668 9.85637 84.04645 9.85637 83.4962 9.85637 83.05017 9.41032 83.05017 8.86009 83.05017 8.30984 83.4962 7.86382 84.04645 7.86382 84.59668 7.86382 85.04272 8.30984 85.04272 8.86009ZM84.04645 8.86009"/>
<path transform="matrix(1.00003,0,0,-1.00003,16.978005,71.19775)" stroke-width=".3985" stroke-linecap="butt" stroke-miterlimit="10" stroke-linejoin="miter" fill="none" stroke="#000000" d="M85.04272 8.86009C85.04272 9.41032 84.59668 9.85637 84.04645 9.85637 83.4962 9.85637 83.05017 9.41032 83.05017 8.86009 83.05017 8.30984 83.4962 7.86382 84.04645 7.86382 84.59668 7.86382 85.04272 8.30984 85.04272 8.86009ZM84.04645 8.86009"/>
<path transform="matrix(1.00003,0,0,-1.00003,16.978005,71.19775)" d="M89.98663 0C89.98663 .55023 89.54059 .99628 88.99036 .99628 88.44011 .99628 87.99408 .55023 87.99408 0 87.99408-.55023 88.44011-.99628 88.99036-.99628 89.54059-.99628 89.98663-.55023 89.98663 0ZM88.99036 0"/>
<path transform="matrix(1.00003,0,0,-1.00003,16.978005,71.19775)" stroke-width=".3985" stroke-linecap="butt" stroke-miterlimit="10" stroke-linejoin="miter" fill="none" stroke="#000000" d="M89.98663 0C89.98663 .55023 89.54059 .99628 88.99036 .99628 88.44011 .99628 87.99408 .55023 87.99408 0 87.99408-.55023 88.44011-.99628 88.99036-.99628 89.54059-.99628 89.98663-.55023 89.98663 0ZM88.99036 0"/>
<path transform="matrix(1.00003,0,0,-1.00003,16.978005,71.19775)" d="M94.93054-8.86009C94.93054-8.30984 94.4845-7.86382 93.93427-7.86382 93.38403-7.86382 92.93799-8.30984 92.93799-8.86009 92.93799-9.41032 93.38403-9.85637 93.93427-9.85637 94.4845-9.85637 94.93054-9.41032 94.93054-8.86009ZM93.93427-8.86009"/>
<path transform="matrix(1.00003,0,0,-1.00003,16.978005,71.19775)" stroke-width=".3985" stroke-linecap="butt" stroke-miterlimit="10" stroke-linejoin="miter" fill="none" stroke="#000000" d="M94.93054-8.86009C94.93054-8.30984 94.4845-7.86382 93.93427-7.86382 93.38403-7.86382 92.93799-8.30984 92.93799-8.86009 92.93799-9.41032 93.38403-9.85637 93.93427-9.85637 94.4845-9.85637 94.93054-9.41032 94.93054-8.86009ZM93.93427-8.86009"/>
<path transform="matrix(1.00003,0,0,-1.00003,16.978005,71.19775)" d="M99.87445-17.45158C99.87445-16.90135 99.4284-16.4553 98.87817-16.4553 98.32794-16.4553 97.8819-16.90135 97.8819-17.45158 97.8819-18.00183 98.32794-18.44786 98.87817-18.44786 99.4284-18.44786 99.87445-18.00183 99.87445-17.45158ZM98.87817-17.45158"/>
<path transform="matrix(1.00003,0,0,-1.00003,16.978005,71.19775)" stroke-width=".3985" stroke-linecap="butt" stroke-miterlimit="10" stroke-linejoin="miter" fill="none" stroke="#000000" d="M99.87445-17.45158C99.87445-16.90135 99.4284-16.4553 98.87817-16.4553 98.32794-16.4553 97.8819-16.90135 97.8819-17.45158 97.8819-18.00183 98.32794-18.44786 98.87817-18.44786 99.4284-18.44786 99.87445-18.00183 99.87445-17.45158ZM98.87817-17.45158"/>
<path transform="matrix(1.00003,0,0,-1.00003,16.978005,71.19775)" d="M104.81836-25.51193C104.81836-24.9617 104.37231-24.51566 103.82208-24.51566 103.27185-24.51566 102.8258-24.9617 102.8258-25.51193 102.8258-26.06218 103.27185-26.50821 103.82208-26.50821 104.37231-26.50821 104.81836-26.06218 104.81836-25.51193ZM103.82208-25.51193"/>
<path transform="matrix(1.00003,0,0,-1.00003,16.978005,71.19775)" stroke-width=".3985" stroke-linecap="butt" stroke-miterlimit="10" stroke-linejoin="miter" fill="none" stroke="#000000" d="M104.81836-25.51193C104.81836-24.9617 104.37231-24.51566 103.82208-24.51566 103.27185-24.51566 102.8258-24.9617 102.8258-25.51193 102.8258-26.06218 103.27185-26.50821 103.82208-26.50821 104.37231-26.50821 104.81836-26.06218 104.81836-25.51193ZM103.82208-25.51193"/>
<path transform="matrix(1.00003,0,0,-1.00003,16.978005,71.19775)" d="M109.76225-32.7976C109.76225-32.24738 109.31622-31.80133 108.76598-31.80133 108.21574-31.80133 107.7697-32.24738 107.7697-32.7976 107.7697-33.34784 108.21574-33.79388 108.76598-33.79388 109.31622-33.79388 109.76225-33.34784 109.76225-32.7976ZM108.76598-32.7976"/>
<path transform="matrix(1.00003,0,0,-1.00003,16.978005,71.19775)" stroke-width=".3985" stroke-linecap="butt" stroke-miterlimit="10" stroke-linejoin="miter" fill="none" stroke="#000000" d="M109.76225-32.7976C109.76225-32.24738 109.31622-31.80133 108.76598-31.80133 108.21574-31.80133 107.7697-32.24738 107.7697-32.7976 107.7697-33.34784 108.21574-33.79388 108.76598-33.79388 109.31622-33.79388 109.76225-33.34784 109.76225-32.7976ZM108.76598-32.7976"/>
<path transform="matrix(1.00003,0,0,-1.00003,16.978005,71.19775)" d="M114.70618-39.08629C114.70618-38.53606 114.26013-38.09001 113.7099-38.09001 113.15965-38.09001 112.71362-38.53606 112.71362-39.08629 112.71362-39.63652 113.15965-40.08257 113.7099-40.08257 114.26013-40.08257 114.70618-39.63652 114.70618-39.08629ZM113.7099-39.08629"/>
<path transform="matrix(1.00003,0,0,-1.00003,16.978005,71.19775)" stroke-width=".3985" stroke-linecap="butt" stroke-miterlimit="10" stroke-linejoin="miter" fill="none" stroke="#000000" d="M114.70618-39.08629C114.70618-38.53606 114.26013-38.09001 113.7099-38.09001 113.15965-38.09001 112.71362-38.53606 112.71362-39.08629 112.71362-39.63652 113.15965-40.08257 113.7099-40.08257 114.26013-40.08257 114.70618-39.63652 114.70618-39.08629ZM113.7099-39.08629"/>
<path transform="matrix(1.00003,0,0,-1.00003,16.978005,71.19775)" d="M119.65009-44.18806C119.65009-43.63783 119.20404-43.19179 118.65381-43.19179 118.10358-43.19179 117.65753-43.63783 117.65753-44.18806 117.65753-44.73831 118.10358-45.18434 118.65381-45.18434 119.20404-45.18434 119.65009-44.73831 119.65009-44.18806ZM118.65381-44.18806"/>
<path transform="matrix(1.00003,0,0,-1.00003,16.978005,71.19775)" stroke-width=".3985" stroke-linecap="butt" stroke-miterlimit="10" stroke-linejoin="miter" fill="none" stroke="#000000" d="M119.65009-44.18806C119.65009-43.63783 119.20404-43.19179 118.65381-43.19179 118.10358-43.19179 117.65753-43.63783 117.65753-44.18806 117.65753-44.73831 118.10358-45.18434 118.65381-45.18434 119.20404-45.18434 119.65009-44.73831 119.65009-44.18806ZM118.65381-44.18806"/>
<path transform="matrix(1.00003,0,0,-1.00003,16.978005,71.19775)" d="M124.594-47.94727C124.594-47.39702 124.14795-46.95099 123.59772-46.95099 123.04749-46.95099 122.60144-47.39702 122.60144-47.94727 122.60144-48.4975 123.04749-48.94354 123.59772-48.94354 124.14795-48.94354 124.594-48.4975 124.594-47.94727ZM123.59772-47.94727"/>
<path transform="matrix(1.00003,0,0,-1.00003,16.978005,71.19775)" stroke-width=".3985" stroke-linecap="butt" stroke-miterlimit="10" stroke-linejoin="miter" fill="none" stroke="#000000" d="M124.594-47.94727C124.594-47.39702 124.14795-46.95099 123.59772-46.95099 123.04749-46.95099 122.60144-47.39702 122.60144-47.94727 122.60144-48.4975 123.04749-48.94354 123.59772-48.94354 124.14795-48.94354 124.594-48.4975 124.594-47.94727ZM123.59772-47.94727"/>
<path transform="matrix(1.00003,0,0,-1.00003,16.978005,71.19775)" d="M129.5379-50.24922C129.5379-49.69899 129.09186-49.25294 128.54163-49.25294 127.9914-49.25294 127.54535-49.69899 127.54535-50.24922 127.54535-50.79945 127.9914-51.2455 128.54163-51.2455 129.09186-51.2455 129.5379-50.79945 129.5379-50.24922ZM128.54163-50.24922"/>
<path transform="matrix(1.00003,0,0,-1.00003,16.978005,71.19775)" stroke-width=".3985" stroke-linecap="butt" stroke-miterlimit="10" stroke-linejoin="miter" fill="none" stroke="#000000" d="M129.5379-50.24922C129.5379-49.69899 129.09186-49.25294 128.54163-49.25294 127.9914-49.25294 127.54535-49.69899 127.54535-50.24922 127.54535-50.79945 127.9914-51.2455 128.54163-51.2455 129.09186-51.2455 129.5379-50.79945 129.5379-50.24922ZM128.54163-50.24922"/>
<path transform="matrix(1.00003,0,0,-1.00003,16.978005,71.19775)" d="M134.48181-51.02432C134.48181-50.47409 134.03578-50.02805 133.48554-50.02805 132.9353-50.02805 132.48926-50.47409 132.48926-51.02432 132.48926-51.57455 132.9353-52.0206 133.48554-52.0206 134.03578-52.0206 134.48181-51.57455 134.48181-51.02432ZM133.48554-51.02432"/>
<path transform="matrix(1.00003,0,0,-1.00003,16.978005,71.19775)" stroke-width=".3985" stroke-linecap="butt" stroke-miterlimit="10" stroke-linejoin="miter" fill="none" stroke="#000000" d="M134.48181-51.02432C134.48181-50.47409 134.03578-50.02805 133.48554-50.02805 132.9353-50.02805 132.48926-50.47409 132.48926-51.02432 132.48926-51.57455 132.9353-52.0206 133.48554-52.0206 134.03578-52.0206 134.48181-51.57455 134.48181-51.02432ZM133.48554-51.02432"/>
<path transform="matrix(1.00003,0,0,-1.00003,16.978005,71.19775)" d="M139.42572-50.24922C139.42572-49.69899 138.97969-49.25294 138.42945-49.25294 137.87921-49.25294 137.43317-49.69899 137.43317-50.24922 137.43317-50.79945 137.87921-51.2455 138.42945-51.2455 138.97969-51.2455 139.42572-50.79945 139.42572-50.24922ZM138.42945-50.24922"/>
<path transform="matrix(1.00003,0,0,-1.00003,16.978005,71.19775)" stroke-width=".3985" stroke-linecap="butt" stroke-miterlimit="10" stroke-linejoin="miter" fill="none" stroke="#000000" d="M139.42572-50.24922C139.42572-49.69899 138.97969-49.25294 138.42945-49.25294 137.87921-49.25294 137.43317-49.69899 137.43317-50.24922 137.43317-50.79945 137.87921-51.2455 138.42945-51.2455 138.97969-51.2455 139.42572-50.79945 139.42572-50.24922ZM138.42945-50.24922"/>
<path transform="matrix(1.00003,0,0,-1.00003,16.978005,71.19775)" d="M144.36963-47.94727C144.36963-47.39702 143.92359-46.95099 143.37335-46.95099 142.8231-46.95099 142.37708-47.39702 142.37708-47.94727 142.37708-48.4975 142.8231-48.94354 143.37335-48.94354 143.92359-48.94354 144.36963-48.4975 144.36963-47.94727ZM143.37335-47.94727"/>
<path transform="matrix(1.00003,0,0,-1.00003,16.978005,71.19775)" stroke-width=".3985" stroke-linecap="butt" stroke-miterlimit="10" stroke-linejoin="miter" fill="none" stroke="#000000" d="M144.36963-47.94727C144.36963-47.39702 143.92359-46.95099 143.37335-46.95099 142.8231-46.95099 142.37708-47.39702 142.37708-47.94727 142.37708-48.4975 142.8231-48.94354 143.37335-48.94354 143.92359-48.94354 144.36963-48.4975 144.36963-47.94727ZM143.37335-47.94727"/>
<path transform="matrix(1.00003,0,0,-1.00003,16.978005,71.19775)" d="M149.31354-44.18806C149.31354-43.63783 148.8675-43.19179 148.31726-43.19179 147.76703-43.19179 147.32099-43.63783 147.32099-44.18806 147.32099-44.73831 147.76703-45.18434 148.31726-45.18434 148.8675-45.18434 149.31354-44.73831 149.31354-44.18806ZM148.31726-44.18806"/>
<path transform="matrix(1.00003,0,0,-1.00003,16.978005,71.19775)" stroke-width=".3985" stroke-linecap="butt" stroke-miterlimit="10" stroke-linejoin="miter" fill="none" stroke="#000000" d="M149.31354-44.18806C149.31354-43.63783 148.8675-43.19179 148.31726-43.19179 147.76703-43.19179 147.32099-43.63783 147.32099-44.18806 147.32099-44.73831 147.76703-45.18434 148.31726-45.18434 148.8675-45.18434 149.31354-44.73831 149.31354-44.18806ZM148.31726-44.18806"/>
<path transform="matrix(1.00003,0,0,-1.00003,16.978005,71.19775)" d="M154.25745-39.08629C154.25745-38.53606 153.8114-38.09001 153.26117-38.09001 152.71094-38.09001 152.2649-38.53606 152.2649-39.08629 152.2649-39.63652 152.71094-40.08257 153.26117-40.08257 153.8114-40.08257 154.25745-39.63652 154.25745-39.08629ZM153.26117-39.08629"/>
<path transform="matrix(1.00003,0,0,-1.00003,16.978005,71.19775)" stroke-width=".3985" stroke-linecap="butt" stroke-miterlimit="10" stroke-linejoin="miter" fill="none" stroke="#000000" d="M154.25745-39.08629C154.25745-38.53606 153.8114-38.09001 153.26117-38.09001 152.71094-38.09001 152.2649-38.53606 152.2649-39.08629 152.2649-39.63652 152.71094-40.08257 153.26117-40.08257 153.8114-40.08257 154.25745-39.63652 154.25745-39.08629ZM153.26117-39.08629"/>
<path transform="matrix(1.00003,0,0,-1.00003,16.978005,71.19775)" d="M159.20136-32.7976C159.20136-32.24738 158.75531-31.80133 158.20508-31.80133 157.65485-31.80133 157.2088-32.24738 157.2088-32.7976 157.2088-33.34784 157.65485-33.79388 158.20508-33.79388 158.75531-33.79388 159.20136-33.34784 159.20136-32.7976ZM158.20508-32.7976"/>
<path transform="matrix(1.00003,0,0,-1.00003,16.978005,71.19775)" stroke-width=".3985" stroke-linecap="butt" stroke-miterlimit="10" stroke-linejoin="miter" fill="none" stroke="#000000" d="M159.20136-32.7976C159.20136-32.24738 158.75531-31.80133 158.20508-31.80133 157.65485-31.80133 157.2088-32.24738 157.2088-32.7976 157.2088-33.34784 157.65485-33.79388 158.20508-33.79388 158.75531-33.79388 159.20136-33.34784 159.20136-32.7976ZM158.20508-32.7976"/>
<path transform="matrix(1.00003,0,0,-1.00003,16.978005,71.19775)" d="M164.14527-25.51193C164.14527-24.9617 163.69924-24.51566 163.14899-24.51566 162.59876-24.51566 162.15271-24.9617 162.15271-25.51193 162.15271-26.06218 162.59876-26.50821 163.14899-26.50821 163.69924-26.50821 164.14527-26.06218 164.14527-25.51193ZM163.14899-25.51193"/>
<path transform="matrix(1.00003,0,0,-1.00003,16.978005,71.19775)" stroke-width=".3985" stroke-linecap="butt" stroke-miterlimit="10" stroke-linejoin="miter" fill="none" stroke="#000000" d="M164.14527-25.51193C164.14527-24.9617 163.69924-24.51566 163.14899-24.51566 162.59876-24.51566 162.15271-24.9617 162.15271-25.51193 162.15271-26.06218 162.59876-26.50821 163.14899-26.50821 163.69924-26.50821 164.14527-26.06218 164.14527-25.51193ZM163.14899-25.51193"/>
<path transform="matrix(1.00003,0,0,-1.00003,16.978005,71.19775)" d="M169.08919-17.45158C169.08919-16.90135 168.64315-16.4553 168.09291-16.4553 167.54267-16.4553 167.09664-16.90135 167.09664-17.45158 167.09664-18.00183 167.54267-18.44786 168.09291-18.44786 168.64315-18.44786 169.08919-18.00183 169.08919-17.45158ZM168.09291-17.45158"/>
<path transform="matrix(1.00003,0,0,-1.00003,16.978005,71.19775)" stroke-width=".3985" stroke-linecap="butt" stroke-miterlimit="10" stroke-linejoin="miter" fill="none" stroke="#000000" d="M169.08919-17.45158C169.08919-16.90135 168.64315-16.4553 168.09291-16.4553 167.54267-16.4553 167.09664-16.90135 167.09664-17.45158 167.09664-18.00183 167.54267-18.44786 168.09291-18.44786 168.64315-18.44786 169.08919-18.00183 169.08919-17.45158ZM168.09291-17.45158"/>
<path transform="matrix(1.00003,0,0,-1.00003,16.978005,71.19775)" d="M174.0331-8.86009C174.0331-8.30984 173.58705-7.86382 173.03682-7.86382 172.48657-7.86382 172.04055-8.30984 172.04055-8.86009 172.04055-9.41032 172.48657-9.85637 173.03682-9.85637 173.58705-9.85637 174.0331-9.41032 174.0331-8.86009ZM173.03682-8.86009"/>
<path transform="matrix(1.00003,0,0,-1.00003,16.978005,71.19775)" stroke-width=".3985" stroke-linecap="butt" stroke-miterlimit="10" stroke-linejoin="miter" fill="none" stroke="#000000" d="M174.0331-8.86009C174.0331-8.30984 173.58705-7.86382 173.03682-7.86382 172.48657-7.86382 172.04055-8.30984 172.04055-8.86009 172.04055-9.41032 172.48657-9.85637 173.03682-9.85637 173.58705-9.85637 174.0331-9.41032 174.0331-8.86009ZM173.03682-8.86009"/>
<path transform="matrix(1.00003,0,0,-1.00003,16.978005,71.19775)" d="M178.97699 0C178.97699 .55023 178.53095 .99628 177.98072 .99628 177.43048 .99628 176.98444 .55023 176.98444 0 176.98444-.55023 177.43048-.99628 177.98072-.99628 178.53095-.99628 178.97699-.55023 178.97699 0ZM177.98072 0"/>
<path transform="matrix(1.00003,0,0,-1.00003,16.978005,71.19775)" stroke-width=".3985" stroke-linecap="butt" stroke-miterlimit="10" stroke-linejoin="miter" fill="none" stroke="#000000" d="M178.97699 0C178.97699 .55023 178.53095 .99628 177.98072 .99628 177.43048 .99628 176.98444 .55023 176.98444 0 176.98444-.55023 177.43048-.99628 177.98072-.99628 178.53095-.99628 178.97699-.55023 178.97699 0ZM177.98072 0"/>
</svg>
