<svg xmlns="http://www.w3.org/2000/svg" xmlns:xlink="http://www.w3.org/1999/xlink" version="1.1" width="204" height="99" viewBox="0 0 204 99">
<defs>
<path id="font_1_2" d="M.33399964 .30233766C.33999635 .32835389 .36299134 .42037965 .43299867 .42037965 .43798829 .42037965 .46199037 .42037965 .48298646 .40734864 .45498658 .402359 .43499757 .37734986 .43499757 .35334779 .43499757 .33735658 .44599916 .31835938 .47299195 .31835938 .49499513 .31835938 .5269928 .3363495 .5269928 .37635804 .5269928 .42837525 .46798707 .4423828 .43399049 .4423828 .37599183 .4423828 .34098817 .38935853 .32899476 .36634828 .3039856 .43237306 .25 .4423828 .22099304 .4423828 .116989139 .4423828 .05999756 .3133545 .05999756 .28834535 .05999756 .27833558 .069992069 .27833558 .07199097 .27833558 .07998657 .27833558 .08299255 .28033448 .084991458 .28933717 .11898804 .39535523 .18499756 .42037965 .21899414 .42037965 .23799134 .42037965 .272995 .4113617 .272995 .35334779 .272995 .32235719 .2559967 .25532533 .21899414 .11528015 .20298767 .053268434 .16799927 .011245728 .12399292 .011245728 .117996219 .011245728 .09498596 .011245728 .07398987 .024276734 .09899902 .029266358 .12098694 .05027771 .12098694 .07827759 .12098694 .105270389 .09899902 .11328125 .083999637 .11328125 .053985597 .11328125 .0289917 .08728027 .0289917 .055267335 .0289917 .009246826 .07899475-.0107421879 .12298584-.0107421879 .18899536-.0107421879 .22499085 .059280397 .22799683 .0652771 .23999024 .028274537 .27598573-.0107421879 .33599855-.0107421879 .43899537-.0107421879 .49598695 .118270877 .49598695 .14328003 .49598695 .1532898 .4869995 .1532898 .48399354 .1532898 .47499085 .1532898 .47299195 .14929199 .47099305 .14228821 .43798829 .03527832 .36999513 .011245728 .33799745 .011245728 .29899598 .011245728 .2829895 .043273927 .2829895 .07727051 .2829895 .09927368 .2889862 .121276859 .2999878 .16529846L.33399964 .30233766Z"/>
<path id="font_1_3" d="M.48599244 .38136292C.48999024 .39537049 .48999024 .39736939 .48999024 .40437318 .48999024 .42237855 .47599793 .43138124 .46099855 .43138124 .45098878 .43138124 .43499757 .42536927 .42599488 .41036988 .42399598 .405365 .41600038 .37435914 .4119873 .35635377 .40499879 .33035279 .397995 .30334474 .3919983 .27633668L.34700013 .09628296C.34298707 .08126831 .2999878 .011245728 .23399353 .011245728 .18299866 .011245728 .17199707 .055267335 .17199707 .0922699 .17199707 .1382904 .18899536 .20030213 .22299195 .28833009 .23899842 .3293457 .24299622 .3403473 .24299622 .36035157 .24299622 .405365 .21099854 .4423828 .16099549 .4423828 .06599426 .4423828 .0289917 .29733277 .0289917 .28833009 .0289917 .27833558 .038986207 .27833558 .040985109 .27833558 .050994874 .27833558 .051986696 .28033448 .056991579 .29634095 .083999637 .3903656 .12399292 .42037965 .1579895 .42037965 .1659851 .42037965 .18299866 .42037965 .18299866 .3883667 .18299866 .36335755 .17298889 .3373413 .1659851 .31834413 .12599182 .21231079 .10798645 .1552887 .10798645 .10827637 .10798645 .019256592 .17098999-.0107421879 .22999573-.0107421879 .2689972-.0107421879 .30299378 .0062561037 .33099366 .03425598 .31799317-.017745972 .30599977-.06674194 .2659912-.11973572 .23999024-.15385437 .20199585-.18309021 .1559906-.18309021 .14199829-.18309021 .09700012-.18005371 .07998657-.14074707 .09599304-.14074707 .10899353-.14074707 .12298584-.1287384 .1329956-.11973572 .14299011-.10673523 .14299011-.08773804 .14299011-.056747438 .115997318-.052734376 .10598755-.052734376 .08299255-.052734376 .049987794-.068740848 .049987794-.11773682 .049987794-.16796875 .09399414-.20507813 .1559906-.20507813 .25898744-.20507813 .3619995-.11373901 .3899994-.00074768069L.48599244 .38136292Z"/>
<path id="font_2_64" d="M.27598573 .18710327V.24511719H.010986328V.18710327H.27598573Z"/>
<path id="font_2_82" d="M.4189911 0V.0309906H.3869934C.29699708 .0309906 .2939911 .041992189 .2939911 .07902527V.64012148C.2939911 .6640167 .2939911 .6660156 .2709961 .6660156 .20899964 .60227969 .12098694 .60227969 .08898926 .60227969V.57128909C.10899353 .57128909 .16799927 .57128909 .21998596 .5972748V.07902527C.21998596 .042999269 .21699524 .0309906 .1269989 .0309906H.09498596V0C.12998963 .0029907227 .21699524 .0029907227 .25698854 .0029907227 .29699708 .0029907227 .38398744 .0029907227 .4189911 0Z"/>
<path id="font_1_1" d="M.2649994 .37265016H.37799073C.34498597 .22489929 .33599855 .18196106 .33599855 .11508179 .33599855 .100097659 .33599855 .073150638 .34399415 .03919983 .35398866-.0047454836 .36499024-.0107421879 .37998963-.0107421879 .3999939-.0107421879 .42099 .007247925 .42099 .02722168 .42099 .033218385 .42099 .035202028 .4149933 .049179079 .38598634 .12106323 .38598634 .18595886 .38598634 .21391297 .38598634 .26683045 .3929901 .32073976 .4039917 .37265016H.5179901C.5309906 .37265016 .5669861 .37265016 .5669861 .406662 .5669861 .43066407 .54599 .43066407 .5269928 .43066407H.19198609C.16999817 .43066407 .13198853 .43066407 .08799744 .38365174 .052993776 .34469605 .026992798 .29878236 .026992798 .29379273 .026992798 .29278565 .026992798 .28379823 .038986207 .28379823 .04699707 .28379823 .04899597 .28779603 .054992677 .29577638 .10398865 .37265016 .1619873 .37265016 .18199158 .37265016H.23899842C.20698548 .25186158 .15299988 .13105774 .11099243 .04020691 .102996829 .025222779 .102996829 .023223877 .102996829 .016235352 .102996829-.002746582 .11898804-.0107421879 .13198853-.0107421879 .1619873-.0107421879 .16999817 .017242432 .18199158 .05418396 .19599915 .100097659 .19599915 .10209656 .20899964 .15202332L.2649994 .37265016Z"/>
<path id="font_3_1" d="M.6589966 .23046875C.6759949 .23046875 .69400027 .23046875 .69400027 .25045777 .69400027 .27046205 .6759949 .27046205 .6589966 .27046205H.117996219C.100997928 .27046205 .08299255 .27046205 .08299255 .25045777 .08299255 .23046875 .100997928 .23046875 .117996219 .23046875H.6589966Z"/>
<path id="font_4_2" d="M.2899933 .35191346C.37199403 .37893678 .42999269 .4490509 .42999269 .52809146 .42999269 .6100464 .34199525 .6660156 .24598694 .6660156 .14498902 .6660156 .068984989 .60606387 .068984989 .53009036 .068984989 .49710084 .09098816 .47808839 .11999512 .47808839 .15098572 .47808839 .17098999 .50009158 .17098999 .5290985 .17098999 .57910159 .12399292 .57910159 .10899353 .57910159 .13999939 .62802127 .20599365 .64100649 .24198914 .64100649 .2829895 .64100649 .33799745 .6190338 .33799745 .5290985 .33799745 .51708987 .33599855 .45906068 .30999757 .4149933 .27999879 .36691285 .24598694 .36390687 .22099304 .36291505 .21299744 .36190797 .18899536 .35990907 .18199158 .35990907 .17399597 .35890199 .16699219 .35791017 .16699219 .3479004 .16699219 .33691407 .17399597 .33691407 .19099427 .33691407H.23498535C.31698609 .33691407 .35398866 .2686615 .35398866 .17037964 .35398866 .034469606 .2849884 .0055389406 .24099732 .0055389406 .19799805 .0055389406 .12298584 .022491456 .08799744 .08137512 .12298584 .07637024 .1539917 .09837341 .1539917 .1363678 .1539917 .17237854 .1269989 .19238281 .09799194 .19238281 .07398987 .19238281 .041992189 .17837525 .041992189 .1343689 .041992189 .043441774 .1349945-.022460938 .24398804-.022460938 .3659973-.022460938 .45700074 .06838989 .45700074 .17037964 .45700074 .252594 .3939972 .33088685 .2899933 .35191346Z"/>
<path id="font_4_1" d="M.1269989 .07699585 .23298645 .18003845C.3889923 .31811524 .44898988 .3721466 .44898988 .47216798 .44898988 .5860901 .35899354 .6660156 .23699951 .6660156 .12399292 .6660156 .049987794 .57411196 .049987794 .48516847 .049987794 .4291687 .099990848 .4291687 .102996829 .4291687 .11999512 .4291687 .15499878 .44117738 .15499878 .48217774 .15499878 .5081787 .13699341 .5341797 .101989749 .5341797 .09399414 .5341797 .09199524 .5341797 .08898926 .5331726 .11199951 .59806826 .1659851 .63500979 .22399903 .63500979 .31498719 .63500979 .35798646 .5541382 .35798646 .47216798 .35798646 .39215089 .30799867 .31311036 .25299073 .25108338L.06098938 .036987306C.049987794 .025985718 .049987794 .023986817 .049987794 0H.42099L.44898988 .17404175H.42399598C.4189911 .14402771 .4119873 .1000061 .4019928 .084991458 .394989 .07699585 .32899476 .07699585 .30699159 .07699585H.1269989Z"/>
</defs>
<path transform="matrix(1,0,0,-1.00003,37.665,57.505334)" stroke-width=".3985" stroke-linecap="butt" stroke-miterlimit="10" stroke-linejoin="miter" fill="none" stroke="#00aeef" d="M-29.68463-39.68535H148.42324M-29.68463-19.84267H148.42324M-29.68463 0H148.42324M-29.68463 19.84267H148.42324M-29.68463 39.67838H148.42324M-29.68419-39.68535V39.68535M-14.84209-39.68535V39.68535M0-39.68535V39.68535M14.84209-39.68535V39.68535M29.68419-39.68535V39.68535M44.52629-39.68535V39.68535M59.3684-39.68535V39.68535M74.2105-39.68535V39.68535M89.0526-39.68535V39.68535M103.8947-39.68535V39.68535M118.7368-39.68535V39.68535M133.5789-39.68535V39.68535M148.421-39.68535V39.68535M148.42324 39.68535"/>
<path transform="matrix(1,0,0,-1.00003,37.665,57.505334)" stroke-width=".79701" stroke-linecap="butt" stroke-miterlimit="10" stroke-linejoin="miter" fill="none" stroke="#000000" d="M-29.68463 0H154.47283"/>
<path transform="matrix(1,0,0,-1.00003,192.13782,57.505334)" d="M1.0361 0C-.25902 .25902-1.55415 .77707-3.1083 1.68365-1.55415 .51805-1.55415-.51805-3.1083-1.68365-1.55415-.77707-.25902-.25902 1.0361 0Z"/>
<path transform="matrix(1,0,0,-1.00003,192.13782,57.505334)" stroke-width=".79701" stroke-linecap="butt" stroke-linejoin="round" fill="none" stroke="#000000" d="M1.0361 0C-.25902 .25902-1.55415 .77707-3.1083 1.68365-1.55415 .51805-1.55415-.51805-3.1083-1.68365-1.55415-.77707-.25902-.25902 1.0361 0Z"/>
<use data-text="x" xlink:href="#font_1_2" transform="matrix(9.9626,0,0,-9.962899,197.29199,59.6504)"/>
<path transform="matrix(1,0,0,-1.00003,37.665,57.505334)" stroke-width=".79701" stroke-linecap="butt" stroke-miterlimit="10" stroke-linejoin="miter" fill="none" stroke="#000000" d="M0-39.68535V44.2036"/>
<path transform="matrix(0,-1.00003,-1,-0,37.665,13.300404)" d="M1.0361 0C-.25902 .25902-1.55415 .77707-3.1083 1.68365-1.55415 .51805-1.55415-.51805-3.1083-1.68365-1.55415-.77707-.25902-.25902 1.0361 0Z"/>
<path transform="matrix(0,-1.00003,-1,-0,37.665,13.300404)" stroke-width=".79701" stroke-linecap="butt" stroke-linejoin="round" fill="none" stroke="#000000" d="M1.0361 0C-.25902 .25902-1.55415 .77707-3.1083 1.68365-1.55415 .51805-1.55415-.51805-3.1083-1.68365-1.55415-.77707-.25902-.25902 1.0361 0Z"/>
<use data-text="y" xlink:href="#font_1_3" transform="matrix(9.9626,0,0,-9.962899,35.044,6.209793)"/>
<path transform="matrix(1,0,0,-1.00003,37.665,57.505334)" stroke-width=".79701" stroke-linecap="butt" stroke-miterlimit="10" stroke-linejoin="miter" fill="none" stroke="#000000" d="M2.26778-19.84267H-2.26779"/>
<use data-text="-" xlink:href="#font_2_64" transform="matrix(9.9626,0,0,-9.962899,23.378998,80.66603)"/>
<use data-text="1" xlink:href="#font_2_82" transform="matrix(9.9626,0,0,-9.962899,26.69654,80.66603)"/>
<path transform="matrix(1,0,0,-1.00003,37.665,57.505334)" stroke-width=".79701" stroke-linecap="butt" stroke-miterlimit="10" stroke-linejoin="miter" fill="none" stroke="#000000" d="M2.26778 19.84267H-2.26779"/>
<use data-text="1" xlink:href="#font_2_82" transform="matrix(9.9626,0,0,-9.962899,26.696999,40.979837)"/>
<path transform="matrix(1,0,0,-1.00003,37.665,57.505334)" stroke-width=".79701" stroke-linecap="butt" stroke-miterlimit="10" stroke-linejoin="miter" fill="none" stroke="#000000" d="M89.05394 1.58743V-1.58745"/>
<path transform="matrix(1,0,0,-1.00003,37.665,57.505334)" d="M85.03941-12.25313H93.06845V-5.97107H85.03941Z" fill="#ffffff"/>
<use data-text="&#x03c0;" xlink:href="#font_1_1" transform="matrix(9.9626,0,0,-9.962899,123.701007,68.76267)"/>
<path transform="matrix(1,0,0,-1.00003,37.665,57.505334)" stroke-width=".79701" stroke-linecap="butt" stroke-miterlimit="10" stroke-linejoin="miter" fill="none" stroke="#000000" d="M-29.68463 1.58743V-1.58745"/>
<path transform="matrix(1,0,0,-1.00003,37.665,57.505334)" d="M-38.7691-25.35652H-20.600152V-3.9785004H-38.7691Z" fill="#ffffff"/>
<use data-text="&#x2212;" xlink:href="#font_3_1" transform="matrix(9.9626,0,0,-9.962899,1.0880051,68.29166)"/>
<use data-text="&#x03c0;" xlink:href="#font_1_1" transform="matrix(9.9626,0,0,-9.962899,8.837006,68.29166)"/>
<path transform="matrix(1,0,0,-1.00003,-121.772998,30.523524)" stroke-width=".3985" stroke-linecap="butt" stroke-miterlimit="10" stroke-linejoin="miter" fill="none" stroke="#000000" d="M122.861-42.016H136.646"/>
<use data-text="3" xlink:href="#font_4_2" transform="matrix(9.9626,0,0,-9.962899,5.4900057,81.866069)"/>
<path transform="matrix(1,0,0,-1.00003,37.665,57.505334)" stroke-width=".79701" stroke-linecap="butt" stroke-miterlimit="10" stroke-linejoin="miter" fill="none" stroke="#000000" d="M44.52673 1.58743V-1.58745"/>
<path transform="matrix(1,0,0,-1.00003,37.665,57.505334)" d="M39.31668-23.83441H49.73677V-3.9785004H39.31668Z" fill="#ffffff"/>
<use data-text="&#x03c0;" xlink:href="#font_1_1" transform="matrix(9.9626,0,0,-9.962899,79.173999,66.76961)"/>
<path transform="matrix(1,0,0,-1.00003,-43.687,29.001479)" stroke-width=".3985" stroke-linecap="butt" stroke-miterlimit="10" stroke-linejoin="miter" fill="none" stroke="#000000" d="M122.861-42.016H128.897"/>
<use data-text="2" xlink:href="#font_4_1" transform="matrix(9.9626,0,0,-9.962899,79.701007,80.34402)"/>
<path transform="matrix(1,0,0,-1.00003,37.665,57.505334)" stroke-width=".79701" stroke-linecap="butt" stroke-miterlimit="10" stroke-linejoin="miter" fill="none" stroke="#000000" d="M133.58069 1.58743V-1.58745"/>
<path transform="matrix(1,0,0,-1.00003,37.665,57.505334)" d="M125.87994-25.96536H141.2814V-3.9785004H125.87994Z" fill="#ffffff"/>
<use data-text="3" xlink:href="#font_4_2" transform="matrix(9.9626,0,0,-9.962899,165.737,68.90067)"/>
<use data-text="&#x03c0;" xlink:href="#font_1_1" transform="matrix(9.9626,0,0,-9.962899,170.718,68.90067)"/>
<path transform="matrix(1,0,0,-1.00003,42.876,31.132544)" stroke-width=".3985" stroke-linecap="butt" stroke-miterlimit="10" stroke-linejoin="miter" fill="none" stroke="#000000" d="M122.861-42.016H133.879"/>
<use data-text="2" xlink:href="#font_4_1" transform="matrix(9.9626,0,0,-9.962899,168.755,82.47508)"/>
<path transform="matrix(1,0,0,-1.00003,37.665,57.505334)" stroke-width="1.19553" stroke-linecap="butt" stroke-miterlimit="10" stroke-linejoin="miter" fill="none" stroke="#ff0000" d="M-29.68463-39.68535C-29.68463-39.68535-27.67424-39.59819-26.90211-39.49217-26.12999-39.38614-24.89172-39.13152-24.1196-38.92113-23.34747-38.71075-22.1092-38.28917-21.33708-37.97588-20.56496-37.66255-19.32669-37.07597-18.55457-36.66302-17.78244-36.25008-16.54417-35.50815-15.77205-34.9996-14.99992-34.49103-13.76166-33.59718-12.98953-32.99763-12.2174-32.39809-10.97914-31.36278-10.20702-30.67838-9.43489-29.99397-8.19662-28.82788-7.4245-28.06482-6.65237-27.30176-5.41411-26.01308-4.64198-25.17877-3.86986-24.34447-2.63159-22.94894-1.85947-22.05171-1.08734-21.15448 .15091-19.66386 .92302-18.7121 1.69514-17.76035 2.93341-16.189 3.70554-15.19203 4.47766-14.19507 5.71594-12.55923 6.48805-11.52663 7.26018-10.49403 8.49844-8.80827 9.27057-7.7498 10.0427-6.69136 11.28098-4.97192 12.0531-3.8979 12.82521-2.8239 14.06348-1.08812 14.8356-.00906 15.60773 1.06995 16.84601 2.8052 17.61813 3.87914 18.39026 4.95305 19.62851 6.67249 20.40063 7.73105 21.17276 8.7896 22.41104 10.47571 23.18317 11.50847 23.95529 12.54121 25.19354 14.17725 25.96567 15.17447 26.7378 16.17169 27.97607 17.74382 28.7482 18.69576 29.52032 19.64769 30.75858 21.13795 31.5307 22.03535 32.30283 22.93275 33.5411 24.329 34.31323 25.16364 35.08536 25.99828 36.32361 27.28749 37.09573 28.0509 37.86786 28.81429 39.10614 29.98083 39.87827 30.66566 40.65039 31.3505 41.88864 32.38669 42.66077 32.98674 43.43289 33.58679 44.67117 34.48145 45.4433 34.99051 46.21542 35.49956 47.45369 36.24239 48.2258 36.65576 48.99792 37.06914 50.2362 37.65593 51.00833 37.9698 51.78046 38.28369 53.01872 38.70714 53.79083 38.9181 54.56296 39.12906 55.80124 39.384 56.57336 39.49036 57.34549 39.59671 58.58376 39.68423 59.35588 39.68474 60.12799 39.68524 61.36627 39.59941 62.1384 39.49399 62.91052 39.38855 64.14879 39.13464 64.92091 38.92476 65.69302 38.71489 66.9313 38.29404 67.70343 37.98131 68.47556 37.6686 69.71382 37.08327 70.48595 36.6709 71.25807 36.25854 72.49634 35.5175 73.26846 35.00928 74.04059 34.50105 75.27885 33.60724 76.05098 33.00793 76.8231 32.40863 78.06137 31.37389 78.8335 30.68988 79.60562 30.00589 80.84389 28.84077 81.61601 28.07816 82.38814 27.31552 83.6264 26.02727 84.39853 25.1933 85.17065 24.35933 86.40892 22.96434 87.18105 22.06744 87.95317 21.17056 89.19144 19.68054 89.96356 18.72905 90.73569 17.77756 91.97395 16.20639 92.74608 15.2096 93.5182 14.21281 94.75648 12.57732 95.5286 11.5448 96.30072 10.5123 97.53899 8.82637 98.31111 7.76797 99.08324 6.7096 100.32152 4.99051 101.09363 3.91667 101.86575 2.84283 103.10402 1.1074 103.87614 .02844 104.64827-1.05049 105.88655-2.78575 106.65868-3.85976 107.43079-4.93376 108.66905-6.65355 109.44118-7.71228 110.2133-8.77098 111.45158-10.45737 112.22371-11.4903 112.99582-12.52322 114.23409-14.15953 115.00621-15.1569 115.77834-16.1543 117.01662-17.72661 117.78874-18.67879 118.56087-19.63098 119.79912-21.12187 120.57124-22.01962 121.34337-22.91736 122.58165-24.31413 123.35378-25.1491 124.1259-25.98407 125.36415-27.27385 126.13628-28.03757 126.9084-28.8013 128.14669-29.96829 128.91881-30.65355 129.69094-31.3388 130.92919-32.37596 131.70131-32.97644 132.47344-33.57693 133.71172-34.47194 134.48384-34.98143 135.25597-35.4909 136.49422-36.23462 137.26634-36.6485 138.03847-37.06236 139.27675-37.65005 140.04888-37.96437 140.821-38.27869 142.05927-38.7024 142.83138-38.91386 143.6035-39.12534 144.84178-39.38158 145.6139-39.48853 146.38603-39.59549 148.39641-39.68474 148.39641-39.68474"/>
</svg>
