<svg xmlns="http://www.w3.org/2000/svg" xmlns:xlink="http://www.w3.org/1999/xlink" version="1.1" width="209" height="108" viewBox="0 0 209 108">
<defs>
<path id="font_1_1" d="M.20599365 .3996582H.2999878C.31999208 .3996582 .32998658 .3996582 .32998658 .41966249 .32998658 .43066407 .31999208 .43066407 .3019867 .43066407H.21398926C.25 .5724945 .25498963 .59246829 .25498963 .59846499 .25498963 .61546328 .24299622 .62545779 .22599793 .62545779 .22299195 .62545779 .19499207 .62446597 .18598938 .58947756L.14698792 .43066407H.052993776C.032989503 .43066407 .022994996 .43066407 .022994996 .4116516 .022994996 .3996582 .0309906 .3996582 .050994874 .3996582H.13899231C.066986087 .11608887 .06298828 .099121097 .06298828 .08114624 .06298828 .02722168 .100997928-.0107421879 .15499878-.0107421879 .25698854-.0107421879 .31399537 .13505554 .31399537 .14305115 .31399537 .1530304 .30599977 .1530304 .3019867 .1530304 .29299928 .1530304 .2919922 .15003968 .2869873 .13905335 .24398804 .035217287 .19099427 .011245728 .15699768 .011245728 .13598633 .011245728 .12599182 .024230957 .12599182 .057174684 .12599182 .08114624 .12799073 .088134769 .13198853 .10510254L.20599365 .3996582Z"/>
<path id="font_1_2" d="M.48599244 .38136292C.48999024 .39537049 .48999024 .39736939 .48999024 .40437318 .48999024 .42237855 .47599793 .43138124 .46099855 .43138124 .45098878 .43138124 .43499757 .42536927 .42599488 .41036988 .42399598 .405365 .41600038 .37435914 .4119873 .35635377 .40499879 .33035279 .397995 .30334474 .3919983 .27633668L.34700013 .09628296C.34298707 .08126831 .2999878 .011245728 .23399353 .011245728 .18299866 .011245728 .17199707 .055267335 .17199707 .0922699 .17199707 .1382904 .18899536 .20030213 .22299195 .28833009 .23899842 .3293457 .24299622 .3403473 .24299622 .36035157 .24299622 .405365 .21099854 .4423828 .16099549 .4423828 .06599426 .4423828 .0289917 .29733277 .0289917 .28833009 .0289917 .27833558 .038986207 .27833558 .040985109 .27833558 .050994874 .27833558 .051986696 .28033448 .056991579 .29634095 .083999637 .3903656 .12399292 .42037965 .1579895 .42037965 .1659851 .42037965 .18299866 .42037965 .18299866 .3883667 .18299866 .36335755 .17298889 .3373413 .1659851 .31834413 .12599182 .21231079 .10798645 .1552887 .10798645 .10827637 .10798645 .019256592 .17098999-.0107421879 .22999573-.0107421879 .2689972-.0107421879 .30299378 .0062561037 .33099366 .03425598 .31799317-.017745972 .30599977-.06674194 .2659912-.11973572 .23999024-.15385437 .20199585-.18309021 .1559906-.18309021 .14199829-.18309021 .09700012-.18005371 .07998657-.14074707 .09599304-.14074707 .10899353-.14074707 .12298584-.1287384 .1329956-.11973572 .14299011-.10673523 .14299011-.08773804 .14299011-.056747438 .115997318-.052734376 .10598755-.052734376 .08299255-.052734376 .049987794-.068740848 .049987794-.11773682 .049987794-.16796875 .09399414-.20507813 .1559906-.20507813 .25898744-.20507813 .3619995-.11373901 .3899994-.00074768069L.48599244 .38136292Z"/>
<path id="font_2_3" d="M.2939911 .16503906V.07800293C.2939911 .041992189 .2919922 .0309906 .21798706 .0309906H.19699097V0C.23799134 .0029907227 .2899933 .0029907227 .33198548 .0029907227 .37399293 .0029907227 .4269867 .0029907227 .46798707 0V.0309906H.44699098C.37298585 .0309906 .37098695 .041992189 .37098695 .07800293V.16503906H.47099305V.19602967H.37098695V.65075686C.37098695 .67074587 .37098695 .6767578 .35499574 .6767578 .34599305 .6767578 .34298707 .6767578 .33499146 .66474917L.027999878 .19602967V.16503906H.2939911M.2999878 .19602967H.055999757L.2999878 .5688019V.19602967Z"/>
<path id="font_2_5" d="M.16299439 .4569702C.116989139 .486969 .11299133 .52098086 .11299133 .5379791 .11299133 .598999 .17799378 .64100649 .24899292 .64100649 .32199098 .64100649 .38598634 .58898928 .38598634 .51698306 .38598634 .45996095 .34700013 .4119568 .2869873 .37695313L.16299439 .4569702M.30899049 .36193849C.3809967 .3989563 .42999269 .45095826 .42999269 .51698306 .42999269 .6090088 .34098817 .6660156 .25 .6660156 .1499939 .6660156 .068984989 .59199526 .068984989 .49897767 .068984989 .4809723 .070999149 .43595887 .11299133 .38894654 .12399292 .37695313 .16099549 .35194398 .18598938 .33494569 .12799073 .30592347 .041992189 .24984741 .041992189 .15072632 .041992189 .04458618 .14399719-.022460938 .24899292-.022460938 .3619995-.022460938 .45700074 .06060791 .45700074 .16773987 .45700074 .20379639 .44599916 .24885559 .4079895 .2909088 .3889923 .31193543 .37298585 .3219452 .30899049 .36193849M.20899964 .3199463 .33198548 .24183655C.3600006 .2228241 .40699769 .19277954 .40699769 .13169861 .40699769 .05760193 .33198548 .0055389406 .25 .0055389406 .1639862 .0055389406 .09199524 .067611698 .09199524 .15072632 .09199524 .20880127 .12399292 .27288819 .20899964 .3199463Z"/>
<path id="font_2_1" d="M.2939911 .64004519C.2939911 .66400149 .2939911 .6660156 .2709961 .6660156 .20899964 .60227969 .12098694 .60227969 .08898926 .60227969V.57128909C.10899353 .57128909 .16799927 .57128909 .21998596 .5972748V.07902527C.21998596 .042999269 .21699524 .0309906 .1269989 .0309906H.09498596V0C.12998963 .0029907227 .21699524 .0029907227 .25698854 .0029907227 .29699708 .0029907227 .38398744 .0029907227 .4189911 0V.0309906H.3869934C.29699708 .0309906 .2939911 .041992189 .2939911 .07902527V.64004519Z"/>
<path id="font_2_2" d="M.1269989 .07699585 .23298645 .18003845C.3889923 .31811524 .44898988 .3721466 .44898988 .47216798 .44898988 .5860901 .35899354 .6660156 .23699951 .6660156 .12399292 .6660156 .049987794 .57411196 .049987794 .48516847 .049987794 .4291687 .099990848 .4291687 .102996829 .4291687 .11999512 .4291687 .15499878 .44117738 .15499878 .48217774 .15499878 .5081787 .13699341 .5341797 .101989749 .5341797 .09399414 .5341797 .09199524 .5341797 .08898926 .5331726 .11199951 .59806826 .1659851 .63500979 .22399903 .63500979 .31498719 .63500979 .35798646 .5541382 .35798646 .47216798 .35798646 .39215089 .30799867 .31311036 .25299073 .25108338L.06098938 .036987306C.049987794 .025985718 .049987794 .023986817 .049987794 0H.42099L.44898988 .17404175H.42399598C.4189911 .14402771 .4119873 .1000061 .4019928 .084991458 .394989 .07699585 .32899476 .07699585 .30699159 .07699585H.1269989Z"/>
<path id="font_2_4" d="M.13198853 .327713V.35173036C.13198853 .6047821 .2559967 .64100649 .30699159 .64100649 .33099366 .64100649 .37298585 .634964 .394989 .6007538 .37998963 .6007538 .33999635 .6007538 .33999635 .5557556 .33999635 .524765 .3639984 .5097656 .38598634 .5097656 .4019928 .5097656 .43199159 .51875308 .43199159 .5577545 .43199159 .6178589 .3880005 .6660156 .30499269 .6660156 .1769867 .6660156 .041992189 .5367584 .041992189 .31570436 .041992189 .048553468 .1579895-.022460938 .25099183-.022460938 .3619995-.022460938 .45700074 .07156372 .45700074 .2036438 .45700074 .33070375 .36799623 .4267578 .25698854 .4267578 .18899536 .4267578 .1519928 .37573243 .13198853 .327713M.25099183 .0055389406C.18798828 .0055389406 .1579895 .06556702 .1519928 .080566409 .13398743 .127594 .13398743 .2076416 .13398743 .22564698 .13398743 .30369569 .1659851 .40374757 .2559967 .40374757 .27198792 .40374757 .31799317 .40374757 .34899903 .34172059 .36698915 .30470277 .36698915 .2536621 .36698915 .20463562 .36698915 .15661621 .36698915 .10658264 .34999085 .0705719 .31999208 .010528564 .27398683 .0055389406 .25099183 .0055389406Z"/>
<path id="font_3_57" d="M.47099305 .16503906V.19602967H.37098695V.6507721C.37098695 .6707611 .37098695 .6767578 .35499574 .6767578 .34599305 .6767578 .34298707 .6767578 .33499146 .6647644L.027999878 .19602967V.16503906H.2939911V.07800293C.2939911 .041992189 .2919922 .0309906 .21798706 .0309906H.19699097V0C.23799134 .0029907227 .2899933 .0029907227 .33198548 .0029907227 .37399293 .0029907227 .4269867 .0029907227 .46798707 0V.0309906H.44699098C.37298585 .0309906 .37098695 .041992189 .37098695 .07800293V.16503906H.47099305M.2999878 .19602967H.055999757L.2999878 .56881716V.19602967Z"/>
<path id="font_3_51" d="M.45700074 .16764832C.45700074 .20367432 .44599916 .24871826 .4079895 .29074098 .3889923 .31176759 .37298585 .32176209 .30899049 .36180116 .3809967 .39881898 .42999269 .4508667 .42999269 .51690676 .42999269 .6089783 .34098817 .6660156 .25 .6660156 .1499939 .6660156 .068984989 .5919647 .068984989 .49890138 .068984989 .48088075 .070999149 .43585206 .11299133 .38882447 .12399292 .3768158 .16099549 .35179139 .18598938 .33477784 .12799073 .30575563 .041992189 .24971009 .041992189 .15063477 .041992189 .044555665 .14399719-.022460938 .24899292-.022460938 .3619995-.022460938 .45700074 .060577394 .45700074 .16764832M.38598634 .51690676C.38598634 .45986939 .34700013 .41183473 .2869873 .3768158L.16299439 .4568634C.116989139 .4868927 .11299133 .5209198 .11299133 .53793337 .11299133 .5989685 .17799378 .64100649 .24899292 .64100649 .32199098 .64100649 .38598634 .588974 .38598634 .51690676M.40699769 .13162232C.40699769 .05757141 .33198548 .0055389406 .25 .0055389406 .1639862 .0055389406 .09199524 .06758118 .09199524 .15063477 .09199524 .2086792 .12399292 .2727356 .20899964 .31976319L.33198548 .24171448C.3600006 .22268677 .40699769 .19267273 .40699769 .13162232Z"/>
<path id="font_3_82" d="M.4189911 0V.0309906H.3869934C.29699708 .0309906 .2939911 .041992189 .2939911 .07902527V.64012148C.2939911 .6640167 .2939911 .6660156 .2709961 .6660156 .20899964 .60227969 .12098694 .60227969 .08898926 .60227969V.57128909C.10899353 .57128909 .16799927 .57128909 .21998596 .5972748V.07902527C.21998596 .042999269 .21699524 .0309906 .1269989 .0309906H.09498596V0C.12998963 .0029907227 .21699524 .0029907227 .25698854 .0029907227 .29699708 .0029907227 .38398744 .0029907227 .4189911 0Z"/>
<path id="font_3_107" d="M.44898988 .17396546H.42399598C.4189911 .14398194 .4119873 .099990848 .4019928 .084991458 .394989 .07699585 .32899476 .07699585 .30699159 .07699585H.1269989L.23298645 .17996216C.3889923 .31803895 .44898988 .37210084 .44898988 .47216798 .44898988 .5860901 .35899354 .6660156 .23699951 .6660156 .12399292 .6660156 .049987794 .57411196 .049987794 .48516847 .049987794 .4291687 .099990848 .4291687 .102996829 .4291687 .11999512 .4291687 .15499878 .44117738 .15499878 .48217774 .15499878 .5081787 .13699341 .5341797 .101989749 .5341797 .09399414 .5341797 .09199524 .5341797 .08898926 .5331726 .11199951 .59806826 .1659851 .63500979 .22399903 .63500979 .31498719 .63500979 .35798646 .5541382 .35798646 .47216798 .35798646 .39196778 .30799867 .31297303 .25299073 .25097657L.06098938 .036987306C.049987794 .025985718 .049987794 .023986817 .049987794 0H.42099L.44898988 .17396546Z"/>
<path id="font_3_101" d="M.45700074 .2036438C.45700074 .33070375 .36799623 .4267578 .25698854 .4267578 .18899536 .4267578 .1519928 .37573243 .13198853 .327713V.35173036C.13198853 .6047821 .2559967 .64100649 .30699159 .64100649 .33099366 .64100649 .37298585 .634964 .394989 .6007538 .37998963 .6007538 .33999635 .6007538 .33999635 .5557556 .33999635 .524765 .3639984 .5097656 .38598634 .5097656 .4019928 .5097656 .43199159 .51875308 .43199159 .5577545 .43199159 .6178589 .3880005 .6660156 .30499269 .6660156 .1769867 .6660156 .041992189 .5367584 .041992189 .31570436 .041992189 .048553468 .1579895-.022460938 .25099183-.022460938 .3619995-.022460938 .45700074 .07156372 .45700074 .2036438M.36698915 .20463562C.36698915 .15661621 .36698915 .10658264 .34999085 .0705719 .31999208 .010528564 .27398683 .0055389406 .25099183 .0055389406 .18798828 .0055389406 .1579895 .06556702 .1519928 .080566409 .13398743 .127594 .13398743 .2076416 .13398743 .22564698 .13398743 .30369569 .1659851 .40374757 .2559967 .40374757 .27198792 .40374757 .31799317 .40374757 .34899903 .34172059 .36698915 .30470277 .36698915 .2536621 .36698915 .20463562Z"/>
<path id="font_3_121" d="M.45999146 .31976319C.45999146 .39982606 .45498658 .47988893 .41999818 .5539398 .37399293 .65000918 .2919922 .6660156 .25 .6660156 .18998719 .6660156 .116989139 .64001467 .07598877 .54693606 .04399109 .47789 .038986207 .39982606 .038986207 .31976319 .038986207 .24472046 .042999269 .15464783 .083999637 .07859802 .1269989-.0024719239 .19999695-.022460938 .24899292-.022460938 .30299378-.022460938 .3789978-.0014648438 .4229889 .09359741 .45498658 .16265869 .45999146 .2407074 .45999146 .31976319M.3769989 .3317871C.3769989 .25672914 .3769989 .18867493 .3659973 .12461853 .35099793 .029556275 .2939911-.00047302247 .24899292-.00047302247 .20999146-.00047302247 .15098572 .024551392 .1329956 .12062073 .12199402 .18066406 .12199402 .2727356 .12199402 .3317871 .12199402 .39582826 .12199402 .46188355 .12998963 .5159149 .14898682 .63500979 .22399903 .64401248 .24899292 .64401248 .28199769 .64401248 .34799195 .6259918 .36698915 .52693179 .3769989 .47088624 .3769989 .39482118 .3769989 .3317871Z"/>
</defs>
<path transform="matrix(1.00002,0,0,-1.00002,15.833977,94.609638)" stroke-width=".3985" stroke-linecap="butt" stroke-miterlimit="10" stroke-linejoin="miter" fill="none" stroke="#00aeef" d="M0 0H178.588M0 7.93706H178.588M0 15.87413H178.588M0 23.8112H178.588M0 31.74828H178.588M0 39.68535H178.588M0 47.62242H178.588M0 55.55948H178.588M0 63.49655H178.588M0 71.43364H178.588M0 79.36931H178.588M0 0V79.37071M9.92155 0V79.37071M19.84311 0V79.37071M29.76466 0V79.37071M39.68622 0V79.37071M49.60777 0V79.37071M59.52933 0V79.37071M69.45088 0V79.37071M79.37244 0V79.37071M89.29399 0V79.37071M99.21555 0V79.37071M109.13712 0V79.37071M119.05867 0V79.37071M128.98023 0V79.37071M138.90178 0V79.37071M148.82334 0V79.37071M158.74489 0V79.37071M168.66645 0V79.37071M178.58452 0V79.37071M178.588 79.37071"/>
<path transform="matrix(1.00002,0,0,-1.00002,15.833977,94.609638)" stroke-width=".3985" stroke-linecap="butt" stroke-miterlimit="10" stroke-linejoin="miter" fill="none" stroke="#000000" d="M-.99219 0H183.54473"/>
<path transform="matrix(1.00002,0,0,-1.00002,199.38239,94.609638)" d="M.797 0C-.19925 .19925-1.19551 .59775-2.39102 1.29512-1.19551 .3985-1.19551-.3985-2.39102-1.29512-1.19551-.59775-.19925-.19925 .797 0Z"/>
<path transform="matrix(1.00002,0,0,-1.00002,199.38239,94.609638)" stroke-width=".3985" stroke-linecap="butt" stroke-linejoin="round" fill="none" stroke="#000000" d="M.797 0C-.19925 .19925-1.19551 .59775-2.39102 1.29512-1.19551 .3985-1.19551-.3985-2.39102-1.29512-1.19551-.59775-.19925-.19925 .797 0Z"/>
<use data-text="t" xlink:href="#font_1_1" transform="matrix(9.962799,0,0,-9.962799,203.89875,97.67369)"/>
<path transform="matrix(1.00002,0,0,-1.00002,15.833977,94.609638)" stroke-width=".3985" stroke-linecap="butt" stroke-miterlimit="10" stroke-linejoin="miter" fill="none" stroke="#000000" d="M0-.39685V81.9461"/>
<path transform="matrix(0,-1.00002,-1.00002,-0,15.833977,12.661896)" d="M.797 0C-.19925 .19925-1.19551 .59775-2.39102 1.29512-1.19551 .3985-1.19551-.3985-2.39102-1.29512-1.19551-.59775-.19925-.19925 .797 0Z"/>
<path transform="matrix(0,-1.00002,-1.00002,-0,15.833977,12.661896)" stroke-width=".3985" stroke-linecap="butt" stroke-linejoin="round" fill="none" stroke="#000000" d="M.797 0C-.19925 .19925-1.19551 .59775-2.39102 1.29512-1.19551 .3985-1.19551-.3985-2.39102-1.29512-1.19551-.59775-.19925-.19925 .797 0Z"/>
<use data-text="y" xlink:href="#font_1_2" transform="matrix(9.962799,0,0,-9.962799,13.212921,6.2088625)"/>
<path transform="matrix(1.00002,0,0,-1.00002,15.833977,94.609638)" stroke-width="1.59404" stroke-linecap="butt" stroke-dasharray="2.98883,2.98883" stroke-miterlimit="10" stroke-linejoin="miter" fill="none" stroke="#00ff00" d="M0 48.09863H178.588"/>
<path transform="matrix(1.00002,0,0,-1.00002,15.833977,94.609638)" stroke-width=".3985" stroke-linecap="butt" stroke-miterlimit="10" stroke-linejoin="miter" fill="none" stroke="#000000" d="M39.68622 .31747V-.31747"/>
<path transform="matrix(1.00002,0,0,-1.00002,15.833977,94.609638)" d="M36.19925-11.91855H43.173189V-3.5055695H36.19925Z" fill="#ffffff"/>
<use data-text="4" xlink:href="#font_2_3" transform="matrix(9.962799,0,0,-9.962799,53.03072,105.53185)"/>
<path transform="matrix(1.00002,0,0,-1.00002,15.833977,94.609638)" stroke-width=".3985" stroke-linecap="butt" stroke-miterlimit="10" stroke-linejoin="miter" fill="none" stroke="#000000" d="M79.37244 .31747V-.31747"/>
<path transform="matrix(1.00002,0,0,-1.00002,15.833977,94.609638)" d="M75.88547-11.91855H82.859409V-3.5055695H75.88547Z" fill="#ffffff"/>
<use data-text="8" xlink:href="#font_2_5" transform="matrix(9.962799,0,0,-9.962799,92.71752,105.53185)"/>
<path transform="matrix(1.00002,0,0,-1.00002,15.833977,94.609638)" stroke-width=".3985" stroke-linecap="butt" stroke-miterlimit="10" stroke-linejoin="miter" fill="none" stroke="#000000" d="M119.05867 .31747V-.31747"/>
<path transform="matrix(1.00002,0,0,-1.00002,15.833977,94.609638)" d="M113.081-11.91855H125.03634V-3.5055695H113.081Z" fill="#ffffff"/>
<use data-text="1" xlink:href="#font_2_1" transform="matrix(9.962799,0,0,-9.962799,129.91327,105.53185)"/>
<use data-text="2" xlink:href="#font_2_2" transform="matrix(9.962799,0,0,-9.962799,134.89467,105.53185)"/>
<path transform="matrix(1.00002,0,0,-1.00002,15.833977,94.609638)" stroke-width=".3985" stroke-linecap="butt" stroke-miterlimit="10" stroke-linejoin="miter" fill="none" stroke="#000000" d="M158.74489 .31747V-.31747"/>
<path transform="matrix(1.00002,0,0,-1.00002,15.833977,94.609638)" d="M152.76721-11.91855H164.72255V-3.5055695H152.76721Z" fill="#ffffff"/>
<use data-text="1" xlink:href="#font_2_1" transform="matrix(9.962799,0,0,-9.962799,169.60007,105.53185)"/>
<use data-text="6" xlink:href="#font_2_4" transform="matrix(9.962799,0,0,-9.962799,174.58147,105.53185)"/>
<path transform="matrix(1.00002,0,0,-1.00002,15.833977,94.609638)" stroke-width=".3985" stroke-linecap="butt" stroke-miterlimit="10" stroke-linejoin="miter" fill="none" stroke="#000000" d="M.79372 15.87413H-.79373"/>
<path transform="matrix(1.00002,0,0,-1.00002,15.833977,94.609638)" d="M-10.95575 11.50546H-3.9818106V20.2428H-10.95575Z" fill="#ffffff"/>
<use data-text="4" xlink:href="#font_3_57" transform="matrix(9.962799,0,0,-9.962799,5.8747789,82.10738)"/>
<path transform="matrix(1.00002,0,0,-1.00002,15.833977,94.609638)" stroke-width=".3985" stroke-linecap="butt" stroke-miterlimit="10" stroke-linejoin="miter" fill="none" stroke="#000000" d="M.79372 31.74828H-.79373"/>
<path transform="matrix(1.00002,0,0,-1.00002,15.833977,94.609638)" d="M-10.95575 27.32481H-3.9818106V36.171724H-10.95575Z" fill="#ffffff"/>
<use data-text="8" xlink:href="#font_3_51" transform="matrix(9.962799,0,0,-9.962799,5.8747789,66.06906)"/>
<path transform="matrix(1.00002,0,0,-1.00002,15.833977,94.609638)" stroke-width=".3985" stroke-linecap="butt" stroke-miterlimit="10" stroke-linejoin="miter" fill="none" stroke="#000000" d="M.79372 47.62242H-.79373"/>
<path transform="matrix(1.00002,0,0,-1.00002,15.833977,94.609638)" d="M-15.93713 43.30855H-3.9818097V51.936304H-15.93713Z" fill="#ffffff"/>
<use data-text="1" xlink:href="#font_3_82" transform="matrix(9.962799,0,0,-9.962799,.8926773,50.303747)"/>
<use data-text="2" xlink:href="#font_3_107" transform="matrix(9.962799,0,0,-9.962799,5.8740847,50.303747)"/>
<path transform="matrix(1.00002,0,0,-1.00002,15.833977,94.609638)" stroke-width=".3985" stroke-linecap="butt" stroke-miterlimit="10" stroke-linejoin="miter" fill="none" stroke="#000000" d="M.79372 63.49655H-.79373"/>
<path transform="matrix(1.00002,0,0,-1.00002,15.833977,94.609638)" d="M-15.93713 59.0731H-3.9818097V67.92001H-15.93713Z" fill="#ffffff"/>
<use data-text="1" xlink:href="#font_3_82" transform="matrix(9.962799,0,0,-9.962799,.8926773,34.319425)"/>
<use data-text="6" xlink:href="#font_3_101" transform="matrix(9.962799,0,0,-9.962799,5.8740847,34.319425)"/>
<path transform="matrix(1.00002,0,0,-1.00002,15.833977,94.609638)" stroke-width=".3985" stroke-linecap="butt" stroke-miterlimit="10" stroke-linejoin="miter" fill="none" stroke="#000000" d="M.79372 79.37071H-.79373"/>
<path transform="matrix(1.00002,0,0,-1.00002,15.833977,94.609638)" d="M-15.93713 74.94725H-3.9818097V83.79416H-15.93713Z" fill="#ffffff"/>
<use data-text="2" xlink:href="#font_3_107" transform="matrix(9.962799,0,0,-9.962799,.8926773,18.445107)"/>
<use data-text="0" xlink:href="#font_3_121" transform="matrix(9.962799,0,0,-9.962799,5.8740847,18.445107)"/>
<path transform="matrix(1.00002,0,0,-1.00002,15.833977,94.609638)" stroke-width="1.19553" stroke-linecap="butt" stroke-miterlimit="10" stroke-linejoin="miter" fill="none" stroke="#ff0000" d="M0 29.01196C0 29.01196 5.37625 27.69963 7.44115 27.8039 9.50604 27.90816 12.81741 28.82155 14.88232 29.76352 16.94722 30.70549 20.25859 32.95662 22.32349 34.59296 24.38837 36.22932 27.69975 39.47568 29.76466 41.55724 31.82954 43.63878 35.14093 47.38539 37.20581 49.5953 39.27072 51.8052 42.58209 55.48277 44.64699 57.48466 46.71188 59.48654 50.02325 62.53445 52.08815 64.0235 54.15305 65.51257 57.46443 67.4673 59.52933 68.21677 61.59421 68.96625 64.9056 69.52939 66.97049 69.4252 69.03539 69.32101 72.34676 68.40785 74.41165 67.46588 76.47655 66.52391 79.78792 64.27248 81.85283 62.63612 83.91771 60.99979 87.2291 57.75378 89.29399 55.67224 91.35889 53.5907 94.67027 49.8438 96.73515 47.63379 98.80005 45.42381 102.11142 41.74599 104.17632 39.74414 106.24123 37.7423 109.5526 34.6949 111.6175 33.20589 113.68239 31.71687 116.99376 29.76184 119.05867 29.01233 121.12357 28.26282 124.43494 27.69972 126.49983 27.8039 128.56472 27.90807 131.8761 28.82129 133.941 29.76321 136.00589 30.70514 139.31726 32.95631 141.38216 34.59267 143.44707 36.22902 146.75844 39.47533 148.82334 41.55687 150.88823 43.63841 154.1996 47.38504 156.2645 49.595 158.32939 51.80495 161.64078 55.48277 163.70566 57.48466 165.77056 59.48654 169.08193 62.53415 171.14684 64.02321 173.21173 65.51227 178.588 68.21677 178.588 68.21677"/>
<path transform="matrix(1.00002,0,0,-1.00002,15.833977,94.609638)" d="M11.11208 28.10945C11.11208 28.76698 10.57907 29.30002 9.92155 29.30002 9.26404 29.30002 8.73102 28.76698 8.73102 28.10945 8.73102 27.45192 9.26404 26.9189 9.92155 26.9189 10.57907 26.9189 11.11208 27.45192 11.11208 28.10945ZM9.92155 28.10945"/>
<path transform="matrix(1.00002,0,0,-1.00002,15.833977,94.609638)" stroke-width=".3985" stroke-linecap="butt" stroke-miterlimit="10" stroke-linejoin="miter" fill="none" stroke="#000000" d="M11.11208 28.10945C11.11208 28.76698 10.57907 29.30002 9.92155 29.30002 9.26404 29.30002 8.73102 28.76698 8.73102 28.10945 8.73102 27.45192 9.26404 26.9189 9.92155 26.9189 10.57907 26.9189 11.11208 27.45192 11.11208 28.10945ZM9.92155 28.10945"/>
<path transform="matrix(1.00002,0,0,-1.00002,15.833977,94.609638)" d="M21.03363 32.7017C21.03363 33.35924 20.50063 33.89227 19.84311 33.89227 19.1856 33.89227 18.65257 33.35924 18.65257 32.7017 18.65257 32.04417 19.1856 31.51115 19.84311 31.51115 20.50063 31.51115 21.03363 32.04417 21.03363 32.7017ZM19.84311 32.7017"/>
<path transform="matrix(1.00002,0,0,-1.00002,15.833977,94.609638)" stroke-width=".3985" stroke-linecap="butt" stroke-miterlimit="10" stroke-linejoin="miter" fill="none" stroke="#000000" d="M21.03363 32.7017C21.03363 33.35924 20.50063 33.89227 19.84311 33.89227 19.1856 33.89227 18.65257 33.35924 18.65257 32.7017 18.65257 32.04417 19.1856 31.51115 19.84311 31.51115 20.50063 31.51115 21.03363 32.04417 21.03363 32.7017ZM19.84311 32.7017"/>
<path transform="matrix(1.00002,0,0,-1.00002,15.833977,94.609638)" d="M30.95518 41.55724C30.95518 42.21477 30.42218 42.74779 29.76466 42.74779 29.10715 42.74779 28.57413 42.21477 28.57413 41.55724 28.57413 40.8997 29.10715 40.36667 29.76466 40.36667 30.42218 40.36667 30.95518 40.8997 30.95518 41.55724ZM29.76466 41.55724"/>
<path transform="matrix(1.00002,0,0,-1.00002,15.833977,94.609638)" stroke-width=".3985" stroke-linecap="butt" stroke-miterlimit="10" stroke-linejoin="miter" fill="none" stroke="#000000" d="M30.95518 41.55724C30.95518 42.21477 30.42218 42.74779 29.76466 42.74779 29.10715 42.74779 28.57413 42.21477 28.57413 41.55724 28.57413 40.8997 29.10715 40.36667 29.76466 40.36667 30.42218 40.36667 30.95518 40.8997 30.95518 41.55724ZM29.76466 41.55724"/>
<path transform="matrix(1.00002,0,0,-1.00002,15.833977,94.609638)" d="M40.87674 52.30327C40.87674 52.9608 40.34373 53.49382 39.68622 53.49382 39.0287 53.49382 38.49568 52.9608 38.49568 52.30327 38.49568 51.64574 39.0287 51.1127 39.68622 51.1127 40.34373 51.1127 40.87674 51.64574 40.87674 52.30327ZM39.68622 52.30327"/>
<path transform="matrix(1.00002,0,0,-1.00002,15.833977,94.609638)" stroke-width=".3985" stroke-linecap="butt" stroke-miterlimit="10" stroke-linejoin="miter" fill="none" stroke="#000000" d="M40.87674 52.30327C40.87674 52.9608 40.34373 53.49382 39.68622 53.49382 39.0287 53.49382 38.49568 52.9608 38.49568 52.30327 38.49568 51.64574 39.0287 51.1127 39.68622 51.1127 40.34373 51.1127 40.87674 51.64574 40.87674 52.30327ZM39.68622 52.30327"/>
<path transform="matrix(1.00002,0,0,-1.00002,15.833977,94.609638)" d="M50.7983 62.06165C50.7983 62.71918 50.26529 63.2522 49.60777 63.2522 48.95026 63.2522 48.41725 62.71918 48.41725 62.06165 48.41725 61.40411 48.95026 60.87108 49.60777 60.87108 50.26529 60.87108 50.7983 61.40411 50.7983 62.06165ZM49.60777 62.06165"/>
<path transform="matrix(1.00002,0,0,-1.00002,15.833977,94.609638)" stroke-width=".3985" stroke-linecap="butt" stroke-miterlimit="10" stroke-linejoin="miter" fill="none" stroke="#000000" d="M50.7983 62.06165C50.7983 62.71918 50.26529 63.2522 49.60777 63.2522 48.95026 63.2522 48.41725 62.71918 48.41725 62.06165 48.41725 61.40411 48.95026 60.87108 49.60777 60.87108 50.26529 60.87108 50.7983 61.40411 50.7983 62.06165ZM49.60777 62.06165"/>
<path transform="matrix(1.00002,0,0,-1.00002,15.833977,94.609638)" d="M60.71985 68.21677C60.71985 68.8743 60.18684 69.40733 59.52933 69.40733 58.87181 69.40733 58.3388 68.8743 58.3388 68.21677 58.3388 67.55923 58.87181 67.02621 59.52933 67.02621 60.18684 67.02621 60.71985 67.55923 60.71985 68.21677ZM59.52933 68.21677"/>
<path transform="matrix(1.00002,0,0,-1.00002,15.833977,94.609638)" stroke-width=".3985" stroke-linecap="butt" stroke-miterlimit="10" stroke-linejoin="miter" fill="none" stroke="#000000" d="M60.71985 68.21677C60.71985 68.8743 60.18684 69.40733 59.52933 69.40733 58.87181 69.40733 58.3388 68.8743 58.3388 68.21677 58.3388 67.55923 58.87181 67.02621 59.52933 67.02621 60.18684 67.02621 60.71985 67.55923 60.71985 68.21677ZM59.52933 68.21677"/>
<path transform="matrix(1.00002,0,0,-1.00002,15.833977,94.609638)" d="M70.64142 69.11934C70.64142 69.77687 70.1084 70.3099 69.45088 70.3099 68.79337 70.3099 68.26036 69.77687 68.26036 69.11934 68.26036 68.4618 68.79337 67.92879 69.45088 67.92879 70.1084 67.92879 70.64142 68.4618 70.64142 69.11934ZM69.45088 69.11934"/>
<path transform="matrix(1.00002,0,0,-1.00002,15.833977,94.609638)" stroke-width=".3985" stroke-linecap="butt" stroke-miterlimit="10" stroke-linejoin="miter" fill="none" stroke="#000000" d="M70.64142 69.11934C70.64142 69.77687 70.1084 70.3099 69.45088 70.3099 68.79337 70.3099 68.26036 69.77687 68.26036 69.11934 68.26036 68.4618 68.79337 67.92879 69.45088 67.92879 70.1084 67.92879 70.64142 68.4618 70.64142 69.11934ZM69.45088 69.11934"/>
<path transform="matrix(1.00002,0,0,-1.00002,15.833977,94.609638)" d="M80.56297 64.52739C80.56297 65.18492 80.02995 65.71794 79.37244 65.71794 78.71492 65.71794 78.18192 65.18492 78.18192 64.52739 78.18192 63.86986 78.71492 63.33684 79.37244 63.33684 80.02995 63.33684 80.56297 63.86986 80.56297 64.52739ZM79.37244 64.52739"/>
<path transform="matrix(1.00002,0,0,-1.00002,15.833977,94.609638)" stroke-width=".3985" stroke-linecap="butt" stroke-miterlimit="10" stroke-linejoin="miter" fill="none" stroke="#000000" d="M80.56297 64.52739C80.56297 65.18492 80.02995 65.71794 79.37244 65.71794 78.71492 65.71794 78.18192 65.18492 78.18192 64.52739 78.18192 63.86986 78.71492 63.33684 79.37244 63.33684 80.02995 63.33684 80.56297 63.86986 80.56297 64.52739ZM79.37244 64.52739"/>
<path transform="matrix(1.00002,0,0,-1.00002,15.833977,94.609638)" d="M90.48453 55.67224C90.48453 56.32977 89.9515 56.8628 89.29399 56.8628 88.63647 56.8628 88.10347 56.32977 88.10347 55.67224 88.10347 55.01471 88.63647 54.48167 89.29399 54.48167 89.9515 54.48167 90.48453 55.01471 90.48453 55.67224ZM89.29399 55.67224"/>
<path transform="matrix(1.00002,0,0,-1.00002,15.833977,94.609638)" stroke-width=".3985" stroke-linecap="butt" stroke-miterlimit="10" stroke-linejoin="miter" fill="none" stroke="#000000" d="M90.48453 55.67224C90.48453 56.32977 89.9515 56.8628 89.29399 56.8628 88.63647 56.8628 88.10347 56.32977 88.10347 55.67224 88.10347 55.01471 88.63647 54.48167 89.29399 54.48167 89.9515 54.48167 90.48453 55.01471 90.48453 55.67224ZM89.29399 55.67224"/>
<path transform="matrix(1.00002,0,0,-1.00002,15.833977,94.609638)" d="M100.40608 44.92615C100.40608 45.58368 99.87306 46.1167 99.21555 46.1167 98.55803 46.1167 98.02502 45.58368 98.02502 44.92615 98.02502 44.26862 98.55803 43.73558 99.21555 43.73558 99.87306 43.73558 100.40608 44.26862 100.40608 44.92615ZM99.21555 44.92615"/>
<path transform="matrix(1.00002,0,0,-1.00002,15.833977,94.609638)" stroke-width=".3985" stroke-linecap="butt" stroke-miterlimit="10" stroke-linejoin="miter" fill="none" stroke="#000000" d="M100.40608 44.92615C100.40608 45.58368 99.87306 46.1167 99.21555 46.1167 98.55803 46.1167 98.02502 45.58368 98.02502 44.92615 98.02502 44.26862 98.55803 43.73558 99.21555 43.73558 99.87306 43.73558 100.40608 44.26862 100.40608 44.92615ZM99.21555 44.92615"/>
<path transform="matrix(1.00002,0,0,-1.00002,15.833977,94.609638)" d="M110.32764 35.16747C110.32764 35.825 109.79462 36.35802 109.13712 36.35802 108.4796 36.35802 107.94658 35.825 107.94658 35.16747 107.94658 34.50993 108.4796 33.9769 109.13712 33.9769 109.79462 33.9769 110.32764 34.50993 110.32764 35.16747ZM109.13712 35.16747"/>
<path transform="matrix(1.00002,0,0,-1.00002,15.833977,94.609638)" stroke-width=".3985" stroke-linecap="butt" stroke-miterlimit="10" stroke-linejoin="miter" fill="none" stroke="#000000" d="M110.32764 35.16747C110.32764 35.825 109.79462 36.35802 109.13712 36.35802 108.4796 36.35802 107.94658 35.825 107.94658 35.16747 107.94658 34.50993 108.4796 33.9769 109.13712 33.9769 109.79462 33.9769 110.32764 34.50993 110.32764 35.16747ZM109.13712 35.16747"/>
<path transform="matrix(1.00002,0,0,-1.00002,15.833977,94.609638)" d="M120.24919 29.01233C120.24919 29.66986 119.71619 30.20288 119.05867 30.20288 118.40115 30.20288 117.86813 29.66986 117.86813 29.01233 117.86813 28.3548 118.40115 27.82178 119.05867 27.82178 119.71619 27.82178 120.24919 28.3548 120.24919 29.01233ZM119.05867 29.01233"/>
<path transform="matrix(1.00002,0,0,-1.00002,15.833977,94.609638)" stroke-width=".3985" stroke-linecap="butt" stroke-miterlimit="10" stroke-linejoin="miter" fill="none" stroke="#000000" d="M120.24919 29.01233C120.24919 29.66986 119.71619 30.20288 119.05867 30.20288 118.40115 30.20288 117.86813 29.66986 117.86813 29.01233 117.86813 28.3548 118.40115 27.82178 119.05867 27.82178 119.71619 27.82178 120.24919 28.3548 120.24919 29.01233ZM119.05867 29.01233"/>
</svg>
