<svg xmlns="http://www.w3.org/2000/svg" xmlns:xlink="http://www.w3.org/1999/xlink" version="1.1" width="88" height="84" viewBox="0 0 88 84">
<defs>
<path id="font_1_2" d="M.1269989 .07699585 .23298645 .18003845C.3889923 .31811524 .44898988 .3721466 .44898988 .47216798 .44898988 .5860901 .35899354 .6660156 .23699951 .6660156 .12399292 .6660156 .049987794 .57411196 .049987794 .48516847 .049987794 .4291687 .099990848 .4291687 .102996829 .4291687 .11999512 .4291687 .15499878 .44117738 .15499878 .48217774 .15499878 .5081787 .13699341 .5341797 .101989749 .5341797 .09399414 .5341797 .09199524 .5341797 .08898926 .5331726 .11199951 .59806826 .1659851 .63500979 .22399903 .63500979 .31498719 .63500979 .35798646 .5541382 .35798646 .47216798 .35798646 .39215089 .30799867 .31311036 .25299073 .25108338L.06098938 .036987306C.049987794 .025985718 .049987794 .023986817 .049987794 0H.42099L.44898988 .17404175H.42399598C.4189911 .14402771 .4119873 .1000061 .4019928 .084991458 .394989 .07699585 .32899476 .07699585 .30699159 .07699585H.1269989Z"/>
<path id="font_2_1" d="M.28399659 .6252594C.28399659 .6452637 .269989 .6612549 .24699402 .6612549 .21998596 .6612549 .19299317 .6352539 .19299317 .6082611 .19299317 .5892639 .20698548 .5722656 .23098755 .5722656 .2539978 .5722656 .28399659 .5952606 .28399659 .6252594M.20799256 .24932862C.21998596 .27833558 .21998596 .28033448 .22999573 .30734254 .23799134 .3273468 .24299622 .34135438 .24299622 .36035157 .24299622 .405365 .21099854 .4423828 .16099549 .4423828 .066986087 .4423828 .0289917 .29733277 .0289917 .28833009 .0289917 .27833558 .038986207 .27833558 .040985109 .27833558 .050994874 .27833558 .051986696 .28033448 .056991579 .29634095 .083999637 .3903656 .12399292 .42037965 .1579895 .42037965 .1659851 .42037965 .18299866 .42037965 .18299866 .3883667 .18299866 .36735536 .17599488 .346344 .17199707 .3363495 .1639862 .31033326 .11898804 .19430542 .102996829 .1512909 .09298706 .12528992 .07998657 .0922699 .07998657 .0712738 .07998657 .024261475 .11399841-.0107421879 .1619873-.0107421879 .2559967-.0107421879 .29299928 .1342926 .29299928 .14329529 .29299928 .1532898 .28399659 .1532898 .2809906 .1532898 .2709961 .1532898 .2709961 .15029907 .2659912 .13528443 .24798584 .072265628 .21499634 .011245728 .1639862 .011245728 .14698792 .011245728 .13999939 .021255494 .13999939 .044265748 .13999939 .0692749 .1459961 .08326721 .16899109 .14428711L.20799256 .24932862Z"/>
<path id="font_3_1" d="M.6589966 .23046875C.6759949 .23046875 .69400027 .23046875 .69400027 .25045777 .69400027 .27046205 .6759949 .27046205 .6589966 .27046205H.117996219C.100997928 .27046205 .08299255 .27046205 .08299255 .25045777 .08299255 .23046875 .100997928 .23046875 .117996219 .23046875H.6589966Z"/>
<path id="font_1_4" d="M.2939911 .16503906V.07800293C.2939911 .041992189 .2919922 .0309906 .21798706 .0309906H.19699097V0C.23799134 .0029907227 .2899933 .0029907227 .33198548 .0029907227 .37399293 .0029907227 .4269867 .0029907227 .46798707 0V.0309906H.44699098C.37298585 .0309906 .37098695 .041992189 .37098695 .07800293V.16503906H.47099305V.19602967H.37098695V.65075686C.37098695 .67074587 .37098695 .6767578 .35499574 .6767578 .34599305 .6767578 .34298707 .6767578 .33499146 .66474917L.027999878 .19602967V.16503906H.2939911M.2999878 .19602967H.055999757L.2999878 .5688019V.19602967Z"/>
<path id="font_1_1" d="M.40899659 .23046875H.6879883C.70199587 .23046875 .72099307 .23046875 .72099307 .25045777 .72099307 .27046205 .70199587 .27046205 .6879883 .27046205H.40899659V.5500183C.40899659 .56399539 .40899659 .5830078 .3889923 .5830078 .36898805 .5830078 .36898805 .56399539 .36898805 .5500183V.27046205H.08898926C.07499695 .27046205 .055999757 .27046205 .055999757 .25045777 .055999757 .23046875 .07499695 .23046875 .08898926 .23046875H.36898805V-.05000305C.36898805-.06401062 .36898805-.08300781 .3889923-.08300781 .40899659-.08300781 .40899659-.06401062 .40899659-.05000305V.23046875Z"/>
<path id="font_1_3" d="M.2899933 .35191346C.37199403 .37893678 .42999269 .4490509 .42999269 .52809146 .42999269 .6100464 .34199525 .6660156 .24598694 .6660156 .14498902 .6660156 .068984989 .60606387 .068984989 .53009036 .068984989 .49710084 .09098816 .47808839 .11999512 .47808839 .15098572 .47808839 .17098999 .50009158 .17098999 .5290985 .17098999 .57910159 .12399292 .57910159 .10899353 .57910159 .13999939 .62802127 .20599365 .64100649 .24198914 .64100649 .2829895 .64100649 .33799745 .6190338 .33799745 .5290985 .33799745 .51708987 .33599855 .45906068 .30999757 .4149933 .27999879 .36691285 .24598694 .36390687 .22099304 .36291505 .21299744 .36190797 .18899536 .35990907 .18199158 .35990907 .17399597 .35890199 .16699219 .35791017 .16699219 .3479004 .16699219 .33691407 .17399597 .33691407 .19099427 .33691407H.23498535C.31698609 .33691407 .35398866 .2686615 .35398866 .17037964 .35398866 .034469606 .2849884 .0055389406 .24099732 .0055389406 .19799805 .0055389406 .12298584 .022491456 .08799744 .08137512 .12298584 .07637024 .1539917 .09837341 .1539917 .1363678 .1539917 .17237854 .1269989 .19238281 .09799194 .19238281 .07398987 .19238281 .041992189 .17837525 .041992189 .1343689 .041992189 .043441774 .1349945-.022460938 .24398804-.022460938 .3659973-.022460938 .45700074 .06838989 .45700074 .17037964 .45700074 .252594 .3939972 .33088685 .2899933 .35191346Z"/>
</defs>
<path transform="matrix(1.00008,0,0,-1.00005,43.55004,42.727388)" stroke-width=".3985" stroke-linecap="butt" stroke-miterlimit="10" stroke-linejoin="miter" fill="none" stroke="#00aeef" d="M-36.28473-36.28473H36.28473M-36.28473-27.21355H36.28473M-36.28473-18.14235H36.28473M-36.28473-9.07117H36.28473M-36.28473 0H36.28473M-36.28473 9.07117H36.28473M-36.28473 18.14235H36.28473M-36.28473 27.21355H36.28473M-36.28473 36.28156H36.28473M-36.28473-36.28473V36.28473M-27.21355-36.28473V36.28473M-18.14235-36.28473V36.28473M-9.07117-36.28473V36.28473M0-36.28473V36.28473M9.07117-36.28473V36.28473M18.14235-36.28473V36.28473M27.21355-36.28473V36.28473M36.28156-36.28473V36.28473M36.28473 36.28473"/>
<path transform="matrix(1.00008,0,0,-1.00005,43.55004,42.727388)" stroke-width=".79701" stroke-linecap="butt" stroke-miterlimit="10" stroke-linejoin="miter" fill="none" stroke="#000000" d="M-36.28473 0H40.29288"/>
<path transform="matrix(1.00008,0,0,-1.00005,83.846149,42.727388)" d="M1.0361 0C-.25902 .25902-1.55415 .77707-3.1083 1.68365-1.55415 .51805-1.55415-.51805-3.1083-1.68365-1.55415-.77707-.25902-.25902 1.0361 0Z"/>
<path transform="matrix(1.00008,0,0,-1.00005,83.846149,42.727388)" stroke-width=".79701" stroke-linecap="butt" stroke-linejoin="round" fill="none" stroke="#000000" d="M1.0361 0C-.25902 .25902-1.55415 .77707-3.1083 1.68365-1.55415 .51805-1.55415-.51805-3.1083-1.68365-1.55415-.77707-.25902-.25902 1.0361 0Z"/>
<path transform="matrix(1.00008,0,0,-1.00005,43.55004,42.727388)" stroke-width=".79701" stroke-linecap="butt" stroke-miterlimit="10" stroke-linejoin="miter" fill="none" stroke="#000000" d="M0-36.28473V40.29288"/>
<path transform="matrix(0,-1.00005,-1.00008,-0,43.55004,2.4324914)" d="M1.0361 0C-.25902 .25902-1.55415 .77707-3.1083 1.68365-1.55415 .51805-1.55415-.51805-3.1083-1.68365-1.55415-.77707-.25902-.25902 1.0361 0Z"/>
<path transform="matrix(0,-1.00005,-1.00008,-0,43.55004,2.4324914)" stroke-width=".79701" stroke-linecap="butt" stroke-linejoin="round" fill="none" stroke="#000000" d="M1.0361 0C-.25902 .25902-1.55415 .77707-3.1083 1.68365-1.55415 .51805-1.55415-.51805-3.1083-1.68365-1.55415-.77707-.25902-.25902 1.0361 0Z"/>
<path transform="matrix(1.00008,0,0,-1.00005,43.55004,42.727388)" stroke-width=".3985" stroke-linecap="butt" stroke-miterlimit="10" stroke-linejoin="miter" fill="none" stroke="#000000" d="M.90715 18.14235H-.90701"/>
<path transform="matrix(1.00008,0,0,-1.00005,43.55004,42.727388)" d="M-11.51251 14.85701H-3.0988303V21.42769H-11.51251Z" fill="#ffffff"/>
<use data-text="2" xlink:href="#font_1_2" transform="matrix(9.963397,0,0,-9.963098,32.036119,27.869645)"/>
<use data-text="i" xlink:href="#font_2_1" transform="matrix(9.963397,0,0,-9.963098,37.01751,27.869645)"/>
<path transform="matrix(1.00008,0,0,-1.00005,43.55004,42.727388)" stroke-width=".3985" stroke-linecap="butt" stroke-miterlimit="10" stroke-linejoin="miter" fill="none" stroke="#000000" d="M.90715-18.14235H-.90701"/>
<path transform="matrix(1.00008,0,0,-1.00005,43.55004,42.727388)" d="M-19.26135-21.8428H-3.0988312V-14.4419H-19.26135Z" fill="#ffffff"/>
<use data-text="&#x2212;" xlink:href="#font_3_1" transform="matrix(9.963397,0,0,-9.963098,24.287499,63.741437)"/>
<use data-text="2" xlink:href="#font_1_2" transform="matrix(9.963397,0,0,-9.963098,32.037126,63.741437)"/>
<use data-text="i" xlink:href="#font_2_1" transform="matrix(9.963397,0,0,-9.963098,37.018526,63.741437)"/>
<path transform="matrix(1.00008,0,0,-1.00005,43.55004,42.727388)" stroke-width=".3985" stroke-linecap="butt" stroke-miterlimit="10" stroke-linejoin="miter" fill="none" stroke="#000000" d="M.90715 36.28473H-.90701"/>
<path transform="matrix(1.00008,0,0,-1.00005,43.55004,42.727388)" d="M-11.51251 32.99939H-3.0988303V39.57007H-11.51251Z" fill="#ffffff"/>
<use data-text="4" xlink:href="#font_1_4" transform="matrix(9.963397,0,0,-9.963098,32.036119,9.726738)"/>
<use data-text="i" xlink:href="#font_2_1" transform="matrix(9.963397,0,0,-9.963098,37.01751,9.726738)"/>
<path transform="matrix(1.00008,0,0,-1.00005,43.55004,42.727388)" stroke-width=".3985" stroke-linecap="butt" stroke-miterlimit="10" stroke-linejoin="miter" fill="none" stroke="#000000" d="M.90715-36.28473H-.90701"/>
<path transform="matrix(1.00008,0,0,-1.00005,43.55004,42.727388)" d="M-19.26135-39.98518H-3.0988312V-32.584283H-19.26135Z" fill="#ffffff"/>
<use data-text="&#x2212;" xlink:href="#font_3_1" transform="matrix(9.963397,0,0,-9.963098,24.287499,81.88434)"/>
<use data-text="4" xlink:href="#font_1_4" transform="matrix(9.963397,0,0,-9.963098,32.037126,81.88434)"/>
<use data-text="i" xlink:href="#font_2_1" transform="matrix(9.963397,0,0,-9.963098,37.018526,81.88434)"/>
<path transform="matrix(1.00008,0,0,-1.00005,43.55004,42.727388)" stroke-width=".3985" stroke-linecap="butt" stroke-miterlimit="10" stroke-linejoin="miter" fill="none" stroke="#000000" d="M18.14235 .90715V-.90701"/>
<path transform="matrix(1.00008,0,0,-1.00005,43.55004,42.727388)" d="M15.65166-9.51926H20.63304V-3.0988303H15.65166Z" fill="#ffffff"/>
<use data-text="2" xlink:href="#font_1_2" transform="matrix(9.963397,0,0,-9.963098,59.203294,52.246866)"/>
<path transform="matrix(1.00008,0,0,-1.00005,43.55004,42.727388)" stroke-width=".3985" stroke-linecap="butt" stroke-miterlimit="10" stroke-linejoin="miter" fill="none" stroke="#000000" d="M-18.14235 .90715V-.90701"/>
<path transform="matrix(1.00008,0,0,-1.00005,43.55004,42.727388)" d="M-24.50746-10.3495H-11.77724V-3.0988298H-24.50746Z" fill="#ffffff"/>
<use data-text="&#x2212;" xlink:href="#font_3_1" transform="matrix(9.963397,0,0,-9.963098,19.041085,52.246866)"/>
<use data-text="2" xlink:href="#font_1_2" transform="matrix(9.963397,0,0,-9.963098,26.79071,52.246866)"/>
<path transform="matrix(1.00008,0,0,-1.00005,43.55004,42.727388)" stroke-width=".3985" stroke-linecap="butt" stroke-miterlimit="10" stroke-linejoin="miter" fill="none" stroke="#000000" d="M36.28473 .90715V-.90701"/>
<path transform="matrix(1.00008,0,0,-1.00005,43.55004,42.727388)" d="M33.79404-9.51926H38.77542V-3.0988303H33.79404Z" fill="#ffffff"/>
<use data-text="4" xlink:href="#font_1_4" transform="matrix(9.963397,0,0,-9.963098,77.34674,52.246866)"/>
<path transform="matrix(1.00008,0,0,-1.00005,43.55004,42.727388)" stroke-width=".3985" stroke-linecap="butt" stroke-miterlimit="10" stroke-linejoin="miter" fill="none" stroke="#000000" d="M-36.28473 .90715V-.90701"/>
<path transform="matrix(1.00008,0,0,-1.00005,43.55004,42.727388)" d="M-42.64984-10.3495H-29.91962V-3.0988298H-42.64984Z" fill="#ffffff"/>
<use data-text="&#x2212;" xlink:href="#font_3_1" transform="matrix(9.963397,0,0,-9.963098,.89662936,52.246866)"/>
<use data-text="4" xlink:href="#font_1_4" transform="matrix(9.963397,0,0,-9.963098,8.6462559,52.246866)"/>
<path transform="matrix(1.00008,0,0,-1.00005,43.55004,42.727388)" d="M19.41762 27.21355C19.41762 27.91785 18.84666 28.4888 18.14235 28.4888 17.43805 28.4888 16.8671 27.91785 16.8671 27.21355 16.8671 26.50923 17.43805 25.93828 18.14235 25.93828 18.84666 25.93828 19.41762 26.50923 19.41762 27.21355ZM18.14235 27.21355" fill="#ff0000"/>
<path transform="matrix(1.00008,0,0,-1.00005,43.55004,42.727388)" stroke-width=".3985" stroke-linecap="butt" stroke-miterlimit="10" stroke-linejoin="miter" fill="none" stroke="#ff0000" d="M19.41762 27.21355C19.41762 27.91785 18.84666 28.4888 18.14235 28.4888 17.43805 28.4888 16.8671 27.91785 16.8671 27.21355 16.8671 26.50923 17.43805 25.93828 18.14235 25.93828 18.84666 25.93828 19.41762 26.50923 19.41762 27.21355ZM18.14235 27.21355"/>
<path transform="matrix(1.00008,0,0,-1.00005,43.55004,42.727388)" d="M18.3416 29.40535H43.91333V36.80625H18.3416Z" fill="#ffffff"/>
<use data-text="2" xlink:href="#font_1_2" transform="matrix(9.963397,0,0,-9.963098,61.89351,12.489876)"/>
<use data-text="+" xlink:href="#font_1_1" transform="matrix(9.963397,0,0,-9.963098,69.08709,12.489876)"/>
<use data-text="3" xlink:href="#font_1_3" transform="matrix(9.963397,0,0,-9.963098,79.04052,12.489876)"/>
<use data-text="i" xlink:href="#font_2_1" transform="matrix(9.963397,0,0,-9.963098,84.03428,12.489876)"/>
<path transform="matrix(1.00008,0,0,-1.00005,43.55004,42.727388)" d="M19.41762-27.21355C19.41762-26.50923 18.84666-25.93828 18.14235-25.93828 17.43805-25.93828 16.8671-26.50923 16.8671-27.21355 16.8671-27.91785 17.43805-28.4888 18.14235-28.4888 18.84666-28.4888 19.41762-27.91785 19.41762-27.21355ZM18.14235-27.21355" fill="#ff0000"/>
<path transform="matrix(1.00008,0,0,-1.00005,43.55004,42.727388)" stroke-width=".3985" stroke-linecap="butt" stroke-miterlimit="10" stroke-linejoin="miter" fill="none" stroke="#ff0000" d="M19.41762-27.21355C19.41762-26.50923 18.84666-25.93828 18.14235-25.93828 17.43805-25.93828 16.8671-26.50923 16.8671-27.21355 16.8671-27.91785 17.43805-28.4888 18.14235-28.4888 18.84666-28.4888 19.41762-27.91785 19.41762-27.21355ZM18.14235-27.21355"/>
<path transform="matrix(1.00008,0,0,-1.00005,43.55004,42.727388)" d="M18.3416-37.80252H43.91333V-30.40162H18.3416Z" fill="#ffffff"/>
<use data-text="2" xlink:href="#font_1_2" transform="matrix(9.963397,0,0,-9.963098,61.89351,79.70123)"/>
<use data-text="&#x2212;" xlink:href="#font_3_1" transform="matrix(9.963397,0,0,-9.963098,69.08909,79.70123)"/>
<use data-text="3" xlink:href="#font_1_3" transform="matrix(9.963397,0,0,-9.963098,79.05288,79.70123)"/>
<use data-text="i" xlink:href="#font_2_1" transform="matrix(9.963397,0,0,-9.963098,84.03428,79.70123)"/>
</svg>
