<svg xmlns="http://www.w3.org/2000/svg" xmlns:xlink="http://www.w3.org/1999/xlink" version="1.1" width="293" height="94" viewBox="0 0 293 94">
<defs>
<path id="font_1_2" d="M.20599365 .3996582H.2999878C.31999208 .3996582 .32998658 .3996582 .32998658 .41966249 .32998658 .43066407 .31999208 .43066407 .3019867 .43066407H.21398926C.25 .5724945 .25498963 .59246829 .25498963 .59846499 .25498963 .61546328 .24299622 .62545779 .22599793 .62545779 .22299195 .62545779 .19499207 .62446597 .18598938 .58947756L.14698792 .43066407H.052993776C.032989503 .43066407 .022994996 .43066407 .022994996 .4116516 .022994996 .3996582 .0309906 .3996582 .050994874 .3996582H.13899231C.066986087 .11608887 .06298828 .099121097 .06298828 .08114624 .06298828 .02722168 .100997928-.0107421879 .15499878-.0107421879 .25698854-.0107421879 .31399537 .13505554 .31399537 .14305115 .31399537 .1530304 .30599977 .1530304 .3019867 .1530304 .29299928 .1530304 .2919922 .15003968 .2869873 .13905335 .24398804 .035217287 .19099427 .011245728 .15699768 .011245728 .13598633 .011245728 .12599182 .024230957 .12599182 .057174684 .12599182 .08114624 .12799073 .088134769 .13198853 .10510254L.20599365 .3996582Z"/>
<path id="font_1_1" d="M.2869873 .68333438C.2869873 .6843262 .2869873 .69433596 .27398683 .69433596 .25099183 .69433596 .17799378 .6863251 .1519928 .6843262 .14399719 .68333438 .1329956 .6823273 .1329956 .6643219 .1329956 .6523285 .14199829 .6523285 .15699768 .6523285 .20498657 .6523285 .20698548 .6453247 .20698548 .6353302L.20399475 .6153412 .05899048 .039260866C.054992677 .025253296 .054992677 .023254395 .054992677 .01725769 .054992677-.0057525637 .07499695-.0107421879 .083999637-.0107421879 .099990848-.0107421879 .115997318 .0012512207 .12098694 .015258789L.13999939 .091278079 .1619873 .18130493C.16799927 .2033081 .17399597 .22531128 .1789856 .24832154 .18099976 .25431825 .18899536 .28733827 .18998719 .29333497 .19299317 .30233766 .22399903 .35835267 .2579956 .38536073 .27999879 .4013672 .31098939 .42037965 .35398866 .42037965 .39698792 .42037965 .4079895 .3863678 .4079895 .35035707 .4079895 .29634095 .36999513 .18730164 .34599305 .12628174 .33799745 .103271488 .33299256 .091278079 .33299256 .0712738 .33299256 .024261475 .36799623-.0107421879 .4149933-.0107421879 .5089874-.0107421879 .54599 .13528443 .54599 .14329529 .54599 .1532898 .5369873 .1532898 .5339966 .1532898 .5239868 .1532898 .5239868 .15029907 .5189972 .13528443 .5039978 .08227539 .47200013 .011245728 .4169922 .011245728 .3999939 .011245728 .3929901 .021255494 .3929901 .044265748 .3929901 .0692749 .4019928 .09327698 .41099549 .11528015 .4269867 .15829468 .47200013 .2773285 .47200013 .3353424 .47200013 .4003601 .43199159 .4423828 .35699464 .4423828 .2939911 .4423828 .24598694 .41137696 .20899964 .36535646L.2869873 .68333438Z"/>
<path id="font_2_28" d="M.48298646 .08912659V.14511109H.45799256V.08912659C.45799256 .03112793 .43299867 .025131226 .42199708 .025131226 .3889923 .025131226 .3849945 .070129398 .3849945 .07511902V.27508546C.3849945 .31707765 .3849945 .3560791 .34899903 .39312745 .30999757 .43223573 .2599945 .4482422 .21199036 .4482422 .12998963 .4482422 .06098938 .40115357 .06098938 .335083 .06098938 .30508424 .08099365 .28808595 .10699463 .28808595 .1349945 .28808595 .15299988 .30807496 .15299988 .33407594 .15299988 .3460846 .147995 .37908937 .101989749 .38008119 .1289978 .41519166 .17799378 .426239 .20999146 .426239 .25898744 .426239 .31599427 .38710023 .31599427 .29808045V.26107789C.2649994 .25808717 .19499207 .25508119 .13198853 .22509766 .056991579 .19110108 .03199768 .13911438 .03199768 .09512329 .03199768 .014251709 .1289978-.0107421879 .19198609-.0107421879 .2579956-.0107421879 .3039856 .029251099 .32299806 .07624817 .32699586 .036132814 .35398866-.005859375 .40098573-.005859375 .42199708-.005859375 .48298646 .008132935 .48298646 .08912659M.31599427 .14013672C.31599427 .04525757 .24398804 .011245728 .19898987 .011245728 .1499939 .011245728 .10899353 .04624939 .10899353 .09625244 .10899353 .15124512 .15098572 .23425293 .31599427 .24024964V.14013672Z"/>
<path id="font_2_88" d="M.19198609 .052993776C.19198609 .08198547 .16799927 .10598755 .13899231 .10598755 .10998535 .10598755 .085998538 .08198547 .085998538 .052993776 .085998538 .023986817 .10998535 0 .13899231 0 .16799927 0 .19198609 .023986817 .19198609 .052993776Z"/>
<path id="font_2_35" d="M.5209961 .2163086C.5209961 .34335328 .4229889 .4423828 .30899049 .4423828 .23098755 .4423828 .18798828 .39537049 .17199707 .3773651V.69433596L.027999878 .68333438V.6523285C.09799194 .6523285 .10598755 .6453247 .10598755 .596344V.00024414063H.1309967L.16699219 .06227112C.18199158 .039260866 .22399903-.0107421879 .2979889-.0107421879 .4169922-.0107421879 .5209961 .08728027 .5209961 .2163086M.43798829 .21731568C.43798829 .18029785 .43598939 .120285037 .40699769 .07527161 .38598634 .044265748 .34799195 .011245728 .2939911 .011245728 .24899292 .011260986 .21299744 .03526306 .18899536 .072265628 .1749878 .09326172 .1749878 .09625244 .1749878 .11425781V.32034303C.1749878 .3393402 .1749878 .3403473 .18598938 .35635377 .22499085 .41236878 .27999879 .42037965 .3039856 .42037965 .34899903 .42037965 .3849945 .3943634 .40899659 .35635377 .43499757 .31533814 .43798829 .25831605 .43798829 .21730042V.21731568Z"/>
<path id="font_2_43" d="M.4149933 .119140628C.4149933 .12911988 .40499879 .12911988 .4019928 .12911988 .3929901 .12911988 .3909912 .12512207 .3889923 .119140628 .3600006 .026229859 .29499818 .014251709 .2579956 .014251709 .20498657 .014251709 .116989139 .0572052 .116989139 .21801758 .116989139 .38093568 .19898987 .42323304 .2519989 .42323304 .26098634 .42323304 .32398988 .42222596 .35899354 .38594056 .31799317 .38293458 .31199647 .3529358 .31199647 .3399353 .31199647 .31393434 .32998658 .2939453 .35798646 .2939453 .38398744 .2939453 .4039917 .3109436 .4039917 .34094239 .4039917 .40911866 .32798768 .4482422 .25099183 .4482422 .12599182 .4482422 .033996583 .3399353 .033996583 .21601868 .033996583 .08816528 .1329956-.0107421879 .24899292-.0107421879 .3829956-.0107421879 .4149933 .10914612 .4149933 .119140628Z"/>
</defs>
<path transform="matrix(1.00009,0,0,-1.00006,31.713227,76.67388)" stroke-width=".3985" stroke-linecap="butt" stroke-miterlimit="10" stroke-linejoin="miter" fill="none" stroke="#000000" d="M-30.6146 0H33.70023"/>
<path transform="matrix(1.00009,0,0,-1.00006,65.41649,76.67388)" d="M.797 0C-.19925 .19925-1.19551 .59775-2.39102 1.29512-1.19551 .3985-1.19551-.3985-2.39102-1.29512-1.19551-.59775-.19925-.19925 .797 0Z"/>
<path transform="matrix(1.00009,0,0,-1.00006,65.41649,76.67388)" stroke-width=".3985" stroke-linecap="butt" stroke-linejoin="round" fill="none" stroke="#000000" d="M.797 0C-.19925 .19925-1.19551 .59775-2.39102 1.29512-1.19551 .3985-1.19551-.3985-2.39102-1.29512-1.19551-.59775-.19925-.19925 .797 0Z"/>
<use data-text="t" xlink:href="#font_1_2" transform="matrix(9.963496,0,0,-9.963197,69.93266,79.73807)"/>
<path transform="matrix(1.00009,0,0,-1.00006,31.713227,76.67388)" stroke-width=".3985" stroke-linecap="butt" stroke-miterlimit="10" stroke-linejoin="miter" fill="none" stroke="#000000" d="M0-2.04109V64.31482"/>
<path transform="matrix(0,-1.00006,-1.00009,-0,31.713227,12.355209)" d="M.797 0C-.19925 .19925-1.19551 .59775-2.39102 1.29512-1.19551 .3985-1.19551-.3985-2.39102-1.29512-1.19551-.59775-.19925-.19925 .797 0Z"/>
<path transform="matrix(0,-1.00006,-1.00009,-0,31.713227,12.355209)" stroke-width=".3985" stroke-linecap="butt" stroke-linejoin="round" fill="none" stroke="#000000" d="M.797 0C-.19925 .19925-1.19551 .59775-2.39102 1.29512-1.19551 .3985-1.19551-.3985-2.39102-1.29512-1.19551-.59775-.19925-.19925 .797 0Z"/>
<use data-text="h" xlink:href="#font_1_1" transform="matrix(9.963496,0,0,-9.963197,28.842972,7.8387529)"/>
<path transform="matrix(1.00009,0,0,-1.00006,31.713227,76.67388)" stroke-width="1.19553" stroke-linecap="butt" stroke-miterlimit="10" stroke-linejoin="miter" fill="none" stroke="#ff0000" d="M14.28674 40.81946C14.28674 48.70992 7.89044 55.1062 0 55.1062-7.89044 55.1062-14.28674 48.70992-14.28674 40.81946-14.28674 32.92902-7.89044 26.53271 0 26.53271 7.89044 26.53271 14.28674 32.92902 14.28674 40.81946ZM0 40.81946"/>
<use data-text="a" xlink:href="#font_2_28" transform="matrix(9.963496,0,0,-9.963197,28.877968,91.09775)"/>
<use data-text="." xlink:href="#font_2_88" transform="matrix(9.963496,0,0,-9.963197,33.85972,91.09775)"/>
<path transform="matrix(1.00009,0,0,-1.00006,31.713227,76.67388)" stroke-width=".3985" stroke-linecap="butt" stroke-miterlimit="10" stroke-linejoin="miter" fill="none" stroke="#000000" d="M81.63885 0H145.9537"/>
<path transform="matrix(1.00009,0,0,-1.00006,177.68007,76.67388)" d="M.797 0C-.19925 .19925-1.19551 .59775-2.39102 1.29512-1.19551 .3985-1.19551-.3985-2.39102-1.29512-1.19551-.59775-.19925-.19925 .797 0Z"/>
<path transform="matrix(1.00009,0,0,-1.00006,177.68007,76.67388)" stroke-width=".3985" stroke-linecap="butt" stroke-linejoin="round" fill="none" stroke="#000000" d="M.797 0C-.19925 .19925-1.19551 .59775-2.39102 1.29512-1.19551 .3985-1.19551-.3985-2.39102-1.29512-1.19551-.59775-.19925-.19925 .797 0Z"/>
<use data-text="t" xlink:href="#font_1_2" transform="matrix(9.963496,0,0,-9.963197,182.19678,79.73807)"/>
<path transform="matrix(1.00009,0,0,-1.00006,31.713227,76.67388)" stroke-width=".3985" stroke-linecap="butt" stroke-miterlimit="10" stroke-linejoin="miter" fill="none" stroke="#000000" d="M85.72073-2.04109V64.31482"/>
<path transform="matrix(0,-1.00006,-1.00009,-0,117.44167,12.355209)" d="M.797 0C-.19925 .19925-1.19551 .59775-2.39102 1.29512-1.19551 .3985-1.19551-.3985-2.39102-1.29512-1.19551-.59775-.19925-.19925 .797 0Z"/>
<path transform="matrix(0,-1.00006,-1.00009,-0,117.44167,12.355209)" stroke-width=".3985" stroke-linecap="butt" stroke-linejoin="round" fill="none" stroke="#000000" d="M.797 0C-.19925 .19925-1.19551 .59775-2.39102 1.29512-1.19551 .3985-1.19551-.3985-2.39102-1.29512-1.19551-.59775-.19925-.19925 .797 0Z"/>
<use data-text="h" xlink:href="#font_1_1" transform="matrix(9.963496,0,0,-9.963197,114.57168,7.8387529)"/>
<path transform="matrix(1.00009,0,0,-1.00006,31.713227,76.67388)" stroke-width="1.19553" stroke-linecap="butt" stroke-miterlimit="10" stroke-linejoin="miter" fill="none" stroke="#ff0000" d="M85.72073 55.1062 97.96669 26.5327 110.21266 55.1062 122.45862 26.5327 134.70458 55.1062 137.15364 49.39151"/>
<use data-text="b" xlink:href="#font_2_35" transform="matrix(9.963496,0,0,-9.963197,145.22444,92.322818)"/>
<use data-text="." xlink:href="#font_2_88" transform="matrix(9.963496,0,0,-9.963197,150.76416,92.322818)"/>
<path transform="matrix(1.00009,0,0,-1.00006,31.713227,76.67388)" stroke-width=".3985" stroke-linecap="butt" stroke-miterlimit="10" stroke-linejoin="miter" fill="none" stroke="#000000" d="M187.76937 0H252.08419"/>
<path transform="matrix(1.00009,0,0,-1.00006,283.8201,76.67388)" d="M.797 0C-.19925 .19925-1.19551 .59775-2.39102 1.29512-1.19551 .3985-1.19551-.3985-2.39102-1.29512-1.19551-.59775-.19925-.19925 .797 0Z"/>
<path transform="matrix(1.00009,0,0,-1.00006,283.8201,76.67388)" stroke-width=".3985" stroke-linecap="butt" stroke-linejoin="round" fill="none" stroke="#000000" d="M.797 0C-.19925 .19925-1.19551 .59775-2.39102 1.29512-1.19551 .3985-1.19551-.3985-2.39102-1.29512-1.19551-.59775-.19925-.19925 .797 0Z"/>
<use data-text="t" xlink:href="#font_1_2" transform="matrix(9.963496,0,0,-9.963197,288.33634,79.73807)"/>
<path transform="matrix(1.00009,0,0,-1.00006,31.713227,76.67388)" stroke-width=".3985" stroke-linecap="butt" stroke-miterlimit="10" stroke-linejoin="miter" fill="none" stroke="#000000" d="M191.85124-2.04109V64.31482"/>
<path transform="matrix(0,-1.00006,-1.00009,-0,223.58174,12.355209)" d="M.797 0C-.19925 .19925-1.19551 .59775-2.39102 1.29512-1.19551 .3985-1.19551-.3985-2.39102-1.29512-1.19551-.59775-.19925-.19925 .797 0Z"/>
<path transform="matrix(0,-1.00006,-1.00009,-0,223.58174,12.355209)" stroke-width=".3985" stroke-linecap="butt" stroke-linejoin="round" fill="none" stroke="#000000" d="M.797 0C-.19925 .19925-1.19551 .59775-2.39102 1.29512-1.19551 .3985-1.19551-.3985-2.39102-1.29512-1.19551-.59775-.19925-.19925 .797 0Z"/>
<use data-text="h" xlink:href="#font_1_1" transform="matrix(9.963496,0,0,-9.963197,220.71125,7.8387529)"/>
<path transform="matrix(1.00009,0,0,-1.00006,31.713227,76.67388)" stroke-width="1.19553" stroke-linecap="butt" stroke-miterlimit="10" stroke-linejoin="miter" fill="none" stroke="#ff0000" d="M191.8514 55.1062C191.8514 55.1062 193.57158 54.04253 194.23226 52.92404 194.89293 51.80556 195.95244 48.93997 196.61313 47.0449 197.2738 45.14984 198.3333 41.35873 198.99399 39.26575 199.65467 37.17274 200.71417 33.6118 201.37485 31.95996 202.03554 30.30814 203.09505 28.06644 203.75572 27.36047 204.4164 26.65451 205.4759 26.41643 206.13658 26.87184 206.79726 27.32729 207.85677 29.16515 208.51744 30.64293 209.17812 32.1207 210.23766 35.47397 210.89833 37.52269 211.559 39.5714 212.61852 43.41473 213.27919 45.40865 213.93987 47.40257 214.99938 50.56326 215.66005 51.89352 216.32073 53.22377 217.38025 54.73607 218.04093 54.99626 218.7016 55.25648 219.7611 54.65828 220.42179 53.76894 221.08246 52.87961 222.14197 50.35374 222.80265 48.58647 223.46334 46.81918 224.52285 43.13687 225.18352 41.03154 225.84421 38.92621 226.9037 35.21315 227.56438 33.41277 228.22505 31.61238 229.28456 29.00128 229.94524 28.05557 230.60591 27.1099 231.66544 26.39891 232.32611 26.59686 232.98679 26.79478 234.04631 28.20111 234.70699 29.48224 235.36766 30.76337 236.42717 33.85745 237.08785 35.83038 237.74852 37.80331 238.80805 41.63956 239.46872 43.70172 240.1294 45.76387 241.18889 49.17123 241.84958 50.69296 242.51026 52.21469 243.56977 54.15285 244.23046 54.66927 244.89113 55.18571 245.95063 55.06181 246.6113 54.41515 247.27199 53.76846 248.99217 50.00845 248.99217 50.00845"/>
<use data-text="c" xlink:href="#font_2_43" transform="matrix(9.963496,0,0,-9.963197,251.36399,91.09775)"/>
<use data-text="." xlink:href="#font_2_88" transform="matrix(9.963496,0,0,-9.963197,255.78778,91.09775)"/>
</svg>
