<svg xmlns="http://www.w3.org/2000/svg" xmlns:xlink="http://www.w3.org/1999/xlink" version="1.1" width="136" height="107" viewBox="0 0 136 107">
<defs>
<path id="font_1_4" d="M.48599244 .38136292C.48999024 .39537049 .48999024 .39736939 .48999024 .40437318 .48999024 .42237855 .47599793 .43138124 .46099855 .43138124 .45098878 .43138124 .43499757 .42536927 .42599488 .41036988 .42399598 .405365 .41600038 .37435914 .4119873 .35635377 .40499879 .33035279 .397995 .30334474 .3919983 .27633668L.34700013 .09628296C.34298707 .08126831 .2999878 .011245728 .23399353 .011245728 .18299866 .011245728 .17199707 .055267335 .17199707 .0922699 .17199707 .1382904 .18899536 .20030213 .22299195 .28833009 .23899842 .3293457 .24299622 .3403473 .24299622 .36035157 .24299622 .405365 .21099854 .4423828 .16099549 .4423828 .06599426 .4423828 .0289917 .29733277 .0289917 .28833009 .0289917 .27833558 .038986207 .27833558 .040985109 .27833558 .050994874 .27833558 .051986696 .28033448 .056991579 .29634095 .083999637 .3903656 .12399292 .42037965 .1579895 .42037965 .1659851 .42037965 .18299866 .42037965 .18299866 .3883667 .18299866 .36335755 .17298889 .3373413 .1659851 .31834413 .12599182 .21231079 .10798645 .1552887 .10798645 .10827637 .10798645 .019256592 .17098999-.0107421879 .22999573-.0107421879 .2689972-.0107421879 .30299378 .0062561037 .33099366 .03425598 .31799317-.017745972 .30599977-.06674194 .2659912-.11973572 .23999024-.15385437 .20199585-.18309021 .1559906-.18309021 .14199829-.18309021 .09700012-.18005371 .07998657-.14074707 .09599304-.14074707 .10899353-.14074707 .12298584-.1287384 .1329956-.11973572 .14299011-.10673523 .14299011-.08773804 .14299011-.056747438 .115997318-.052734376 .10598755-.052734376 .08299255-.052734376 .049987794-.068740848 .049987794-.11773682 .049987794-.16796875 .09399414-.20507813 .1559906-.20507813 .25898744-.20507813 .3619995-.11373901 .3899994-.00074768069L.48599244 .38136292Z"/>
<path id="font_1_3" d="M.33399964 .30233766C.33999635 .32835389 .36299134 .42037965 .43299867 .42037965 .43798829 .42037965 .46199037 .42037965 .48298646 .40734864 .45498658 .402359 .43499757 .37734986 .43499757 .35334779 .43499757 .33735658 .44599916 .31835938 .47299195 .31835938 .49499513 .31835938 .5269928 .3363495 .5269928 .37635804 .5269928 .42837525 .46798707 .4423828 .43399049 .4423828 .37599183 .4423828 .34098817 .38935853 .32899476 .36634828 .3039856 .43237306 .25 .4423828 .22099304 .4423828 .116989139 .4423828 .05999756 .3133545 .05999756 .28834535 .05999756 .27833558 .069992069 .27833558 .07199097 .27833558 .07998657 .27833558 .08299255 .28033448 .084991458 .28933717 .11898804 .39535523 .18499756 .42037965 .21899414 .42037965 .23799134 .42037965 .272995 .4113617 .272995 .35334779 .272995 .32235719 .2559967 .25532533 .21899414 .11528015 .20298767 .053268434 .16799927 .011245728 .12399292 .011245728 .117996219 .011245728 .09498596 .011245728 .07398987 .024276734 .09899902 .029266358 .12098694 .05027771 .12098694 .07827759 .12098694 .105270389 .09899902 .11328125 .083999637 .11328125 .053985597 .11328125 .0289917 .08728027 .0289917 .055267335 .0289917 .009246826 .07899475-.0107421879 .12298584-.0107421879 .18899536-.0107421879 .22499085 .059280397 .22799683 .0652771 .23999024 .028274537 .27598573-.0107421879 .33599855-.0107421879 .43899537-.0107421879 .49598695 .118270877 .49598695 .14328003 .49598695 .1532898 .4869995 .1532898 .48399354 .1532898 .47499085 .1532898 .47299195 .14929199 .47099305 .14228821 .43798829 .03527832 .36999513 .011245728 .33799745 .011245728 .29899598 .011245728 .2829895 .043273927 .2829895 .07727051 .2829895 .09927368 .2889862 .121276859 .2999878 .16529846L.33399964 .30233766Z"/>
<path id="font_1_1" d="M.16999817-.16976929C.1659851-.18278504 .16499329-.18478394 .16499329-.18977356 .16499329-.21177674 .18399048-.21777344 .19400025-.21777344 .19898987-.21777344 .22099304-.21478272 .23098755-.19178772 .23399353-.18377686 .23899842-.1507721 .2659912-.008743286 .2749939-.009750366 .28199769-.0107421879 .29899598-.0107421879 .46499635-.0107421879 .61898806 .14628601 .61898806 .3043518 .61898806 .38237 .5799866 .4423828 .5049896 .4423828 .3600006 .4423828 .2999878 .24832154 .23999024 .053253175 .13198853 .07325745 .07598877 .12928772 .07598877 .2013092 .07598877 .22932434 .09899902 .33935548 .15899658 .40837098 .16699219 .41737367 .16699219 .41937257 .16699219 .42137147 .16699219 .42536927 .16499329 .43138124 .15499878 .43138124 .1269989 .43138124 .049987794 .28634645 .049987794 .19030762 .049987794 .0962677 .115997318 .023254395 .22299195-.0017547608L.16999817-.16976929M.30799867 .04725647C.2999878 .04725647 .2979889 .04725647 .2899933 .04824829 .27799989 .04824829 .2769928 .04925537 .2769928 .052246095 .2769928 .054260255 .2939911 .14529419 .29699708 .16029358 .32798768 .28834535 .4059906 .3843689 .49499513 .3843689 .56399539 .3843689 .59098818 .33035279 .59098818 .28233338 .59098818 .16929627 .46199037 .04725647 .30799867 .04725647Z"/>
<path id="font_2_5" d="M.68699648 .32714845C.70199587 .32714845 .72099307 .32714845 .72099307 .34713746 .72099307 .36714173 .70199587 .36714173 .6879883 .36714173H.08898926C.07499695 .36714173 .055999757 .36714173 .055999757 .34713746 .055999757 .32714845 .07499695 .32714845 .08999634 .32714845H.68699648M.6879883 .13284302C.70199587 .13284302 .72099307 .13284302 .72099307 .15284729 .72099307 .17285156 .70199587 .17285156 .68699648 .17285156H.08999634C.07499695 .17285156 .055999757 .17285156 .055999757 .15284729 .055999757 .13284302 .07499695 .13284302 .08898926 .13284302H.6879883Z"/>
<path id="font_3_1" d="M.6589966 .23046875C.6759949 .23046875 .69400027 .23046875 .69400027 .25045777 .69400027 .27046205 .6759949 .27046205 .6589966 .27046205H.117996219C.100997928 .27046205 .08299255 .27046205 .08299255 .25045777 .08299255 .23046875 .100997928 .23046875 .117996219 .23046875H.6589966Z"/>
<path id="font_2_2" d="M.45999146 .31976319C.45999146 .39982606 .45498658 .47988893 .41999818 .5539398 .37399293 .65000918 .2919922 .6660156 .25 .6660156 .18998719 .6660156 .116989139 .64001467 .07598877 .54693606 .04399109 .47789 .038986207 .39982606 .038986207 .31976319 .038986207 .24472046 .042999269 .15464783 .083999637 .07859802 .1269989-.0024719239 .19999695-.022460938 .24899292-.022460938 .30299378-.022460938 .3789978-.0014648438 .4229889 .09359741 .45498658 .16265869 .45999146 .2407074 .45999146 .31976319M.24899292-.00047302247C.20999146-.00047302247 .15098572 .024551392 .1329956 .12062073 .12199402 .18066406 .12199402 .2727356 .12199402 .3317871 .12199402 .39582826 .12199402 .46188355 .12998963 .5159149 .14898682 .63500979 .22399903 .64401248 .24899292 .64401248 .28199769 .64401248 .34799195 .6259918 .36698915 .52693179 .3769989 .47088624 .3769989 .39482118 .3769989 .3317871 .3769989 .25672914 .3769989 .18867493 .3659973 .12461853 .35099793 .029556275 .2939911-.00047302247 .24899292-.00047302247Z"/>
<path id="font_1_2" d="M.19198609 .052993776C.19198609 .08198547 .16799927 .10598755 .13899231 .10598755 .10998535 .10598755 .085998538 .08198547 .085998538 .052993776 .085998538 .023986817 .10998535 0 .13899231 0 .16799927 0 .19198609 .023986817 .19198609 .052993776Z"/>
<path id="font_2_4" d="M.47599793 .609375C.4850006 .6213684 .4850006 .62338259 .4850006 .64437869H.24198914C.11999512 .64437869 .117996219 .65737918 .11399841 .67637637H.08898926L.055999757 .4702301H.08099365C.083999637 .48625184 .09298706 .5493469 .10598755 .56137087 .11299133 .5673828 .19099427 .5673828 .20399475 .5673828H.41099549C.3999939 .5513611 .32099916 .4421997 .29899598 .40914918 .20899964 .27394105 .17599488 .1347351 .17599488 .032577516 .17599488 .022567749 .17599488-.022460938 .22200012-.022460938 .2679901-.022460938 .2679901 .022567749 .2679901 .032577516V.08366394C.2679901 .13873291 .2709961 .19381714 .2789917 .24790955 .2829895 .27093507 .29699708 .35707093 .34098817 .41915895L.47599793 .609375Z"/>
<path id="font_4_1" d="M.5049896 .18203736H.47099305C.46798707 .16001892 .45799256 .100997928 .44499208 .09098816 .43699647 .084991458 .3600006 .084991458 .34599305 .084991458H.1619873C.2669983 .17803955 .3019867 .20603943 .3619995 .25306703 .43598939 .312088 .5049896 .374115 .5049896 .46914674 .5049896 .5900879 .39898683 .6640625 .2709961 .6640625 .14698792 .6640625 .06298828 .57710269 .06298828 .4851532 .06298828 .43414308 .10598755 .42915345 .115997318 .42915345 .13999939 .42915345 .16899109 .44615174 .16899109 .48214723 .16899109 .5001526 .1619873 .53515627 .10998535 .53515627 .14099121 .6060791 .20899964 .62805178 .2559967 .62805178 .35598756 .62805178 .4079895 .5501404 .4079895 .46914674 .4079895 .38212586 .34599305 .3130951 .31399537 .27708436L.07299805 .038986207C.06298828 .02999878 .06298828 .027999878 .06298828 0H.47499085L.5049896 .18203736Z"/>
<path id="font_2_1" d="M.40899659 .23046875H.6879883C.70199587 .23046875 .72099307 .23046875 .72099307 .25045777 .72099307 .27046205 .70199587 .27046205 .6879883 .27046205H.40899659V.5500183C.40899659 .56399539 .40899659 .5830078 .3889923 .5830078 .36898805 .5830078 .36898805 .56399539 .36898805 .5500183V.27046205H.08898926C.07499695 .27046205 .055999757 .27046205 .055999757 .25045777 .055999757 .23046875 .07499695 .23046875 .08898926 .23046875H.36898805V-.05000305C.36898805-.06401062 .36898805-.08300781 .3889923-.08300781 .40899659-.08300781 .40899659-.06401062 .40899659-.05000305V.23046875Z"/>
<path id="font_2_3" d="M.2939911 .64004519C.2939911 .66400149 .2939911 .6660156 .2709961 .6660156 .20899964 .60227969 .12098694 .60227969 .08898926 .60227969V.57128909C.10899353 .57128909 .16799927 .57128909 .21998596 .5972748V.07902527C.21998596 .042999269 .21699524 .0309906 .1269989 .0309906H.09498596V0C.12998963 .0029907227 .21699524 .0029907227 .25698854 .0029907227 .29699708 .0029907227 .38398744 .0029907227 .4189911 0V.0309906H.3869934C.29699708 .0309906 .2939911 .041992189 .2939911 .07902527V.64004519Z"/>
</defs>
<path transform="matrix(1.00008,0,0,-1,46.65428,60.055)" stroke-width=".79701" stroke-linecap="butt" stroke-miterlimit="10" stroke-linejoin="miter" fill="none" stroke="#000000" d="M0-45.35506V46.75487"/>
<path transform="matrix(0,-1,-1.00008,-0,46.65428,13.300129)" d="M1.0361 0C-.25902 .25902-1.55415 .77707-3.1083 1.68365-1.55415 .51805-1.55415-.51805-3.1083-1.68365-1.55415-.77707-.25902-.25902 1.0361 0Z"/>
<path transform="matrix(0,-1,-1.00008,-0,46.65428,13.300129)" stroke-width=".79701" stroke-linecap="butt" stroke-linejoin="round" fill="none" stroke="#000000" d="M1.0361 0C-.25902 .25902-1.55415 .77707-3.1083 1.68365-1.55415 .51805-1.55415-.51805-3.1083-1.68365-1.55415-.77707-.25902-.25902 1.0361 0Z"/>
<use data-text="y" xlink:href="#font_1_4" transform="matrix(9.963397,0,0,-9.9626,44.033075,6.2089998)"/>
<path transform="matrix(1.00008,0,0,-1,46.65428,60.055)" stroke-width=".79701" stroke-linecap="butt" stroke-miterlimit="10" stroke-linejoin="miter" fill="none" stroke="#000000" d="M-45.35506 0H46.75487"/>
<path transform="matrix(1.00008,0,0,-1,93.41289,60.055)" d="M1.0361 0C-.25902 .25902-1.55415 .77707-3.1083 1.68365-1.55415 .51805-1.55415-.51805-3.1083-1.68365-1.55415-.77707-.25902-.25902 1.0361 0Z"/>
<path transform="matrix(1.00008,0,0,-1,93.41289,60.055)" stroke-width=".79701" stroke-linecap="butt" stroke-linejoin="round" fill="none" stroke="#000000" d="M1.0361 0C-.25902 .25902-1.55415 .77707-3.1083 1.68365-1.55415 .51805-1.55415-.51805-3.1083-1.68365-1.55415-.77707-.25902-.25902 1.0361 0Z"/>
<use data-text="x" xlink:href="#font_1_3" transform="matrix(9.963397,0,0,-9.9626,98.56743,62.2)"/>
<path transform="matrix(1.00008,0,0,-1,46.65428,60.055)" stroke-width=".3985" stroke-linecap="butt" stroke-miterlimit="10" stroke-linejoin="miter" fill="none" stroke="#a9a9a9" d="M42.52022 0C42.52022 23.48355 23.48355 42.52022 0 42.52022-23.48355 42.52022-42.52022 23.48355-42.52022 0-42.52022-23.48355-23.48355-42.52022 0-42.52022 23.48355-42.52022 42.52022-23.48355 42.52022 0ZM0 0"/>
<path transform="matrix(1.00008,0,0,-1,46.65428,60.055)" stroke-width=".79701" stroke-linecap="butt" stroke-miterlimit="10" stroke-linejoin="miter" fill="none" stroke="#ff0000" d="M8.50412 0C8.50412 4.69675 4.69675 8.50412 0 8.50412-4.69675 8.50412-8.50412 4.69675-8.50412 0-8.50412-2.22554-7.63068-4.36339-6.07288-5.95259"/>
<use data-text="&#x03c6;" xlink:href="#font_1_1" transform="matrix(9.963397,0,0,-9.9626,33.20221,52.362)" fill="#ff0000"/>
<path transform="matrix(1.00008,0,0,-1,46.65428,60.055)" stroke-width=".79701" stroke-linecap="butt" stroke-dasharray="2.98883,2.98883" stroke-miterlimit="10" stroke-linejoin="miter" fill="none" stroke="#a9a9a9" d="M-42.5202-29.76422H45.35507"/>
<use data-text="y" xlink:href="#font_1_4" transform="matrix(9.963397,0,0,-9.9626,95.73221,92.061008)"/>
<use data-text="=" xlink:href="#font_2_5" transform="matrix(9.963397,0,0,-9.9626,103.74185,92.061008)"/>
<use data-text="&#x2212;" xlink:href="#font_3_1" transform="matrix(9.963397,0,0,-9.9626,114.25871,92.061008)"/>
<use data-text="0" xlink:href="#font_2_2" transform="matrix(9.963397,0,0,-9.9626,122.008319,92.061008)"/>
<use data-text="." xlink:href="#font_1_2" transform="matrix(9.963397,0,0,-9.9626,126.989719,92.061008)"/>
<use data-text="7" xlink:href="#font_2_4" transform="matrix(9.963397,0,0,-9.9626,129.75695,92.061008)"/>
<path transform="matrix(1.00008,0,0,-1,46.65428,60.055)" stroke-width=".79701" stroke-linecap="butt" stroke-miterlimit="10" stroke-linejoin="miter" fill="none" stroke="#0000ff" d="M0 0-30.3622-29.764"/>
<path transform="matrix(1.00008,0,0,-1,46.65428,60.055)" d="M-28.56891-29.764C-28.56891-28.77359-29.37178-27.9707-30.3622-27.9707-31.35263-27.9707-32.1555-28.77359-32.1555-29.764-32.1555-30.75443-31.35263-31.55731-30.3622-31.55731-29.37178-31.55731-28.56891-30.75443-28.56891-29.764ZM-30.3622-29.764"/>
<path transform="matrix(1.00008,0,0,-1,46.65428,60.055)" stroke-width=".3985" stroke-linecap="butt" stroke-miterlimit="10" stroke-linejoin="miter" fill="none" stroke="#000000" d="M-28.56891-29.764C-28.56891-28.77359-29.37178-27.9707-30.3622-27.9707-31.35263-27.9707-32.1555-28.77359-32.1555-29.764-32.1555-30.75443-31.35263-31.55731-30.3622-31.55731-29.37178-31.55731-28.56891-30.75443-28.56891-29.764ZM-30.3622-29.764"/>
<use data-text="x" xlink:href="#font_1_3" transform="matrix(9.963397,0,0,-9.9626,78.523838,29.125)"/>
<use data-text="2" xlink:href="#font_4_1" transform="matrix(6.974358,0,0,-6.9738,84.21829,25.509999)"/>
<use data-text="+" xlink:href="#font_2_1" transform="matrix(9.963397,0,0,-9.9626,90.901828,29.125)"/>
<use data-text="y" xlink:href="#font_1_4" transform="matrix(9.963397,0,0,-9.9626,100.86464,29.125)"/>
<use data-text="2" xlink:href="#font_4_1" transform="matrix(6.974358,0,0,-6.9738,106.107059,25.509999)"/>
<use data-text="=" xlink:href="#font_2_5" transform="matrix(9.963397,0,0,-9.9626,113.344638,29.125)"/>
<use data-text="1" xlink:href="#font_2_3" transform="matrix(9.963397,0,0,-9.9626,123.846057,29.125)"/>
</svg>
