<svg xmlns="http://www.w3.org/2000/svg" xmlns:xlink="http://www.w3.org/1999/xlink" version="1.1" width="163" height="110" viewBox="0 0 163 110">
<defs>
<path id="font_1_2" d="M.20599365 .3996582H.2999878C.31999208 .3996582 .32998658 .3996582 .32998658 .41966249 .32998658 .43066407 .31999208 .43066407 .3019867 .43066407H.21398926C.25 .5724945 .25498963 .59246829 .25498963 .59846499 .25498963 .61546328 .24299622 .62545779 .22599793 .62545779 .22299195 .62545779 .19499207 .62446597 .18598938 .58947756L.14698792 .43066407H.052993776C.032989503 .43066407 .022994996 .43066407 .022994996 .4116516 .022994996 .3996582 .0309906 .3996582 .050994874 .3996582H.13899231C.066986087 .11608887 .06298828 .099121097 .06298828 .08114624 .06298828 .02722168 .100997928-.0107421879 .15499878-.0107421879 .25698854-.0107421879 .31399537 .13505554 .31399537 .14305115 .31399537 .1530304 .30599977 .1530304 .3019867 .1530304 .29299928 .1530304 .2919922 .15003968 .2869873 .13905335 .24398804 .035217287 .19099427 .011245728 .15699768 .011245728 .13598633 .011245728 .12599182 .024230957 .12599182 .057174684 .12599182 .08114624 .12799073 .088134769 .13198853 .10510254L.20599365 .3996582Z"/>
<path id="font_1_3" d="M.48599244 .38136292C.48999024 .39537049 .48999024 .39736939 .48999024 .40437318 .48999024 .42237855 .47599793 .43138124 .46099855 .43138124 .45098878 .43138124 .43499757 .42536927 .42599488 .41036988 .42399598 .405365 .41600038 .37435914 .4119873 .35635377 .40499879 .33035279 .397995 .30334474 .3919983 .27633668L.34700013 .09628296C.34298707 .08126831 .2999878 .011245728 .23399353 .011245728 .18299866 .011245728 .17199707 .055267335 .17199707 .0922699 .17199707 .1382904 .18899536 .20030213 .22299195 .28833009 .23899842 .3293457 .24299622 .3403473 .24299622 .36035157 .24299622 .405365 .21099854 .4423828 .16099549 .4423828 .06599426 .4423828 .0289917 .29733277 .0289917 .28833009 .0289917 .27833558 .038986207 .27833558 .040985109 .27833558 .050994874 .27833558 .051986696 .28033448 .056991579 .29634095 .083999637 .3903656 .12399292 .42037965 .1579895 .42037965 .1659851 .42037965 .18299866 .42037965 .18299866 .3883667 .18299866 .36335755 .17298889 .3373413 .1659851 .31834413 .12599182 .21231079 .10798645 .1552887 .10798645 .10827637 .10798645 .019256592 .17098999-.0107421879 .22999573-.0107421879 .2689972-.0107421879 .30299378 .0062561037 .33099366 .03425598 .31799317-.017745972 .30599977-.06674194 .2659912-.11973572 .23999024-.15385437 .20199585-.18309021 .1559906-.18309021 .14199829-.18309021 .09700012-.18005371 .07998657-.14074707 .09599304-.14074707 .10899353-.14074707 .12298584-.1287384 .1329956-.11973572 .14299011-.10673523 .14299011-.08773804 .14299011-.056747438 .115997318-.052734376 .10598755-.052734376 .08299255-.052734376 .049987794-.068740848 .049987794-.11773682 .049987794-.16796875 .09399414-.20507813 .1559906-.20507813 .25898744-.20507813 .3619995-.11373901 .3899994-.00074768069L.48599244 .38136292Z"/>
<path id="font_2_64" d="M.27598573 .18710327V.24511719H.010986328V.18710327H.27598573Z"/>
<path id="font_2_57" d="M.47099305 .16503906V.19602967H.37098695V.6507721C.37098695 .6707611 .37098695 .6767578 .35499574 .6767578 .34599305 .6767578 .34298707 .6767578 .33499146 .6647644L.027999878 .19602967V.16503906H.2939911V.07800293C.2939911 .041992189 .2919922 .0309906 .21798706 .0309906H.19699097V0C.23799134 .0029907227 .2899933 .0029907227 .33198548 .0029907227 .37399293 .0029907227 .4269867 .0029907227 .46798707 0V.0309906H.44699098C.37298585 .0309906 .37098695 .041992189 .37098695 .07800293V.16503906H.47099305M.2999878 .19602967H.055999757L.2999878 .56881716V.19602967Z"/>
<path id="font_2_121" d="M.45999146 .31976319C.45999146 .39982606 .45498658 .47988893 .41999818 .5539398 .37399293 .65000918 .2919922 .6660156 .25 .6660156 .18998719 .6660156 .116989139 .64001467 .07598877 .54693606 .04399109 .47789 .038986207 .39982606 .038986207 .31976319 .038986207 .24472046 .042999269 .15464783 .083999637 .07859802 .1269989-.0024719239 .19999695-.022460938 .24899292-.022460938 .30299378-.022460938 .3789978-.0014648438 .4229889 .09359741 .45498658 .16265869 .45999146 .2407074 .45999146 .31976319M.3769989 .3317871C.3769989 .25672914 .3769989 .18867493 .3659973 .12461853 .35099793 .029556275 .2939911-.00047302247 .24899292-.00047302247 .20999146-.00047302247 .15098572 .024551392 .1329956 .12062073 .12199402 .18066406 .12199402 .2727356 .12199402 .3317871 .12199402 .39582826 .12199402 .46188355 .12998963 .5159149 .14898682 .63500979 .22399903 .64401248 .24899292 .64401248 .28199769 .64401248 .34799195 .6259918 .36698915 .52693179 .3769989 .47088624 .3769989 .39482118 .3769989 .3317871Z"/>
<path id="font_2_107" d="M.44898988 .17396546H.42399598C.4189911 .14398194 .4119873 .099990848 .4019928 .084991458 .394989 .07699585 .32899476 .07699585 .30699159 .07699585H.1269989L.23298645 .17996216C.3889923 .31803895 .44898988 .37210084 .44898988 .47216798 .44898988 .5860901 .35899354 .6660156 .23699951 .6660156 .12399292 .6660156 .049987794 .57411196 .049987794 .48516847 .049987794 .4291687 .099990848 .4291687 .102996829 .4291687 .11999512 .4291687 .15499878 .44117738 .15499878 .48217774 .15499878 .5081787 .13699341 .5341797 .101989749 .5341797 .09399414 .5341797 .09199524 .5341797 .08898926 .5331726 .11199951 .59806826 .1659851 .63500979 .22399903 .63500979 .31498719 .63500979 .35798646 .5541382 .35798646 .47216798 .35798646 .39196778 .30799867 .31297303 .25299073 .25097657L.06098938 .036987306C.049987794 .025985718 .049987794 .023986817 .049987794 0H.42099L.44898988 .17396546Z"/>
<path id="font_3_1" d="M.45999146 .31976319C.45999146 .39982606 .45498658 .47988893 .41999818 .5539398 .37399293 .65000918 .2919922 .6660156 .25 .6660156 .18998719 .6660156 .116989139 .64001467 .07598877 .54693606 .04399109 .47789 .038986207 .39982606 .038986207 .31976319 .038986207 .24472046 .042999269 .15464783 .083999637 .07859802 .1269989-.0024719239 .19999695-.022460938 .24899292-.022460938 .30299378-.022460938 .3789978-.0014648438 .4229889 .09359741 .45498658 .16265869 .45999146 .2407074 .45999146 .31976319M.24899292-.00047302247C.20999146-.00047302247 .15098572 .024551392 .1329956 .12062073 .12199402 .18066406 .12199402 .2727356 .12199402 .3317871 .12199402 .39582826 .12199402 .46188355 .12998963 .5159149 .14898682 .63500979 .22399903 .64401248 .24899292 .64401248 .28199769 .64401248 .34799195 .6259918 .36698915 .52693179 .3769989 .47088624 .3769989 .39482118 .3769989 .3317871 .3769989 .25672914 .3769989 .18867493 .3659973 .12461853 .35099793 .029556275 .2939911-.00047302247 .24899292-.00047302247Z"/>
<path id="font_1_1" d="M.19198609 .052993776C.19198609 .08198547 .16799927 .10598755 .13899231 .10598755 .10998535 .10598755 .085998538 .08198547 .085998538 .052993776 .085998538 .023986817 .10998535 0 .13899231 0 .16799927 0 .19198609 .023986817 .19198609 .052993776Z"/>
<path id="font_3_3" d="M.44898988 .20022583C.44898988 .3193512 .36698915 .41944886 .25898744 .41944886 .21099854 .41944886 .16799927 .40345765 .13198853 .36842347V.5637665C.1519928 .5577698 .18499756 .55078127 .21699524 .55078127 .33999635 .55078127 .4099884 .6417694 .4099884 .6547699 .4099884 .6607666 .40699769 .6657715 .3999939 .6657715 .39898683 .6657715 .39698792 .6657715 .3919983 .66278079 .37199403 .6537781 .32299806 .6337738 .2559967 .6337738 .21598816 .6337738 .16999817 .6407776 .12298584 .6617737 .114990238 .66477969 .11299133 .66477969 .11099243 .66477969 .100997928 .66477969 .100997928 .6567688 .100997928 .6407776V.34439088C.100997928 .32637025 .100997928 .31835938 .114990238 .31835938 .12199402 .31835938 .12399292 .32136537 .12799073 .32736207 .13899231 .3433838 .17599488 .39746095 .25698854 .39746095 .30899049 .39746095 .33399964 .35139466 .34199525 .33337403 .35798646 .29632569 .3600006 .25727845 .3600006 .20722962 .3600006 .17222595 .3600006 .11222839 .33599855 .07035828 .31199647 .031463624 .2749939 .0055389406 .22898865 .0055389406 .1559906 .0055389406 .09899902 .058380128 .08198547 .11723328 .084991458 .1162262 .08799744 .115234378 .09899902 .115234378 .13198853 .115234378 .14898682 .14022827 .14898682 .16423035 .14898682 .18823242 .13198853 .21322632 .09899902 .21322632 .084991458 .21322632 .049987794 .20622254 .049987794 .16023255 .049987794 .07434082 .11898804-.022460938 .23098755-.022460938 .34700013-.022460938 .44898988 .073349 .44898988 .20022583Z"/>
<path id="font_3_2" d="M.2939911 .64004519C.2939911 .66400149 .2939911 .6660156 .2709961 .6660156 .20899964 .60227969 .12098694 .60227969 .08898926 .60227969V.57128909C.10899353 .57128909 .16799927 .57128909 .21998596 .5972748V.07902527C.21998596 .042999269 .21699524 .0309906 .1269989 .0309906H.09498596V0C.12998963 .0029907227 .21699524 .0029907227 .25698854 .0029907227 .29699708 .0029907227 .38398744 .0029907227 .4189911 0V.0309906H.3869934C.29699708 .0309906 .2939911 .041992189 .2939911 .07902527V.64004519Z"/>
</defs>
<path transform="matrix(1.00006,0,0,-1,19.455269,62.254)" stroke-width=".3985" stroke-linecap="butt" stroke-miterlimit="10" stroke-linejoin="miter" fill="none" stroke="#00aeef" d="M0-41.99077H124.73338M0-31.49307H124.73338M0-20.99538H124.73338M0-10.49768H124.73338M0 0H124.73338M0 10.49768H124.73338M0 20.99538H124.73338M0 31.49307H124.73338M0 41.99042H124.73338M0-41.99077V41.99077M12.46538-41.99077V41.99077M24.93076-41.99077V41.99077M37.39613-41.99077V41.99077M49.86151-41.99077V41.99077M62.32689-41.99077V41.99077M74.79227-41.99077V41.99077M87.25764-41.99077V41.99077M99.72302-41.99077V41.99077M112.1884-41.99077V41.99077M124.65378-41.99077V41.99077M124.73338 41.99077"/>
<path transform="matrix(1.00006,0,0,-1,19.455269,62.254)" stroke-width=".79701" stroke-linecap="butt" stroke-miterlimit="10" stroke-linejoin="miter" fill="none" stroke="#000000" d="M0 0H133.27121"/>
<path transform="matrix(1.00006,0,0,-1,152.73447,62.254)" d="M1.0361 0C-.25902 .25902-1.55415 .77707-3.1083 1.68365-1.55415 .51805-1.55415-.51805-3.1083-1.68365-1.55415-.77707-.25902-.25902 1.0361 0Z"/>
<path transform="matrix(1.00006,0,0,-1,152.73447,62.254)" stroke-width=".79701" stroke-linecap="butt" stroke-linejoin="round" fill="none" stroke="#000000" d="M1.0361 0C-.25902 .25902-1.55415 .77707-3.1083 1.68365-1.55415 .51805-1.55415-.51805-3.1083-1.68365-1.55415-.77707-.25902-.25902 1.0361 0Z"/>
<use data-text="t" xlink:href="#font_1_2" transform="matrix(9.963197,0,0,-9.9626,157.88858,65.318)"/>
<path transform="matrix(1.00006,0,0,-1,19.455269,62.254)" stroke-width=".79701" stroke-linecap="butt" stroke-miterlimit="10" stroke-linejoin="miter" fill="none" stroke="#000000" d="M0-41.99077V48.95432"/>
<path transform="matrix(0,-1,-1.00006,-0,19.455269,13.299683)" d="M1.0361 0C-.25902 .25902-1.55415 .77707-3.1083 1.68365-1.55415 .51805-1.55415-.51805-3.1083-1.68365-1.55415-.77707-.25902-.25902 1.0361 0Z"/>
<path transform="matrix(0,-1,-1.00006,-0,19.455269,13.299683)" stroke-width=".79701" stroke-linecap="butt" stroke-linejoin="round" fill="none" stroke="#000000" d="M1.0361 0C-.25902 .25902-1.55415 .77707-3.1083 1.68365-1.55415 .51805-1.55415-.51805-3.1083-1.68365-1.55415-.77707-.25902-.25902 1.0361 0Z"/>
<use data-text="y" xlink:href="#font_1_3" transform="matrix(9.963197,0,0,-9.9626,16.834115,6.2090036)"/>
<path transform="matrix(1.00006,0,0,-1,19.455269,62.254)" stroke-width=".79701" stroke-linecap="butt" stroke-miterlimit="10" stroke-linejoin="miter" fill="none" stroke="#000000" d="M1.2555-41.99077H-1.23743"/>
<use data-text="-" xlink:href="#font_2_64" transform="matrix(9.963197,0,0,-9.9626,1.2171784,107.508)"/>
<use data-text="4" xlink:href="#font_2_57" transform="matrix(9.963197,0,0,-9.9626,4.5349199,107.508)"/>
<use data-text="0" xlink:href="#font_2_121" transform="matrix(9.963197,0,0,-9.9626,9.516518,107.508)"/>
<path transform="matrix(1.00006,0,0,-1,19.455269,62.254)" stroke-width=".79701" stroke-linecap="butt" stroke-miterlimit="10" stroke-linejoin="miter" fill="none" stroke="#000000" d="M1.2555-20.99538H-1.23743"/>
<use data-text="-" xlink:href="#font_2_64" transform="matrix(9.963197,0,0,-9.9626,1.2171784,86.457)"/>
<use data-text="2" xlink:href="#font_2_107" transform="matrix(9.963197,0,0,-9.9626,4.5349199,86.457)"/>
<use data-text="0" xlink:href="#font_2_121" transform="matrix(9.963197,0,0,-9.9626,9.516518,86.457)"/>
<path transform="matrix(1.00006,0,0,-1,19.455269,62.254)" stroke-width=".79701" stroke-linecap="butt" stroke-miterlimit="10" stroke-linejoin="miter" fill="none" stroke="#000000" d="M1.2555 20.99538H-1.23743"/>
<use data-text="2" xlink:href="#font_2_107" transform="matrix(9.963197,0,0,-9.9626,4.5353777,44.467004)"/>
<use data-text="0" xlink:href="#font_2_121" transform="matrix(9.963197,0,0,-9.9626,9.516975,44.467004)"/>
<path transform="matrix(1.00006,0,0,-1,19.455269,62.254)" stroke-width=".79701" stroke-linecap="butt" stroke-miterlimit="10" stroke-linejoin="miter" fill="none" stroke="#000000" d="M1.2555 1.04974H-1.23743"/>
<path transform="matrix(1.00006,0,0,-1,19.455269,62.254)" stroke-width=".79701" stroke-linecap="butt" stroke-miterlimit="10" stroke-linejoin="miter" fill="none" stroke="#000000" d="M1.2555 41.99077H-1.23743"/>
<use data-text="4" xlink:href="#font_2_57" transform="matrix(9.963197,0,0,-9.9626,4.5353777,23.526001)"/>
<use data-text="0" xlink:href="#font_2_121" transform="matrix(9.963197,0,0,-9.9626,9.516975,23.526001)"/>
<path transform="matrix(1.00006,0,0,-1,19.455269,62.254)" stroke-width=".79701" stroke-linecap="butt" stroke-miterlimit="10" stroke-linejoin="miter" fill="none" stroke="#000000" d="M62.36635 2.20451V-2.2045"/>
<path transform="matrix(1.00006,0,0,-1,19.455269,62.254)" d="M52.51425-15.99738H72.21845V-7.5844H52.51425Z" fill="#ffffff"/>
<use data-text="0" xlink:href="#font_3_1" transform="matrix(9.963197,0,0,-9.9626,72.96948,77.255008)"/>
<use data-text="." xlink:href="#font_1_1" transform="matrix(9.963197,0,0,-9.9626,77.950778,77.255008)"/>
<use data-text="0" xlink:href="#font_3_1" transform="matrix(9.963197,0,0,-9.9626,80.71895,77.255008)"/>
<use data-text="5" xlink:href="#font_3_3" transform="matrix(9.963197,0,0,-9.9626,85.70055,77.255008)"/>
<path transform="matrix(1.00006,0,0,-1,19.455269,62.254)" stroke-width=".79701" stroke-linecap="butt" stroke-miterlimit="10" stroke-linejoin="miter" fill="none" stroke="#000000" d="M124.73338 2.20451V-2.2045"/>
<path transform="matrix(1.00006,0,0,-1,19.455269,62.254)" d="M118.36827-14.00482H133.09105V-5.59184H118.36827Z" fill="#ffffff"/>
<use data-text="0" xlink:href="#font_3_1" transform="matrix(9.963197,0,0,-9.9626,138.82743,75.263)"/>
<use data-text="." xlink:href="#font_1_1" transform="matrix(9.963197,0,0,-9.9626,143.80872,75.263)"/>
<use data-text="1" xlink:href="#font_3_2" transform="matrix(9.963197,0,0,-9.9626,146.57689,75.263)"/>
<path transform="matrix(1.00006,0,0,-1,19.455269,62.254)" stroke-width="1.19553" stroke-linecap="butt" stroke-miterlimit="10" stroke-linejoin="miter" fill="none" stroke="#ff0000" d="M0-36.74193C0-36.74193 1.40265-34.68578 1.9411-32.43622 2.47955-30.18669 3.34377-24.50052 3.88222-20.52885 4.42067-16.55717 5.28487-8.57405 5.82332-3.8112 6.36177 .95161 7.22598 9.3603 7.76443 13.7984 8.30289 18.23648 9.16708 25.10185 9.70554 28.17538 10.244 31.24892 11.10887 34.96194 11.64732 35.9503 12.18578 36.93867 13.04997 36.62729 13.58844 35.29884 14.12689 33.9704 14.99109 29.70963 15.52954 26.37575 16.068 23.04184 16.9322 15.82835 17.47066 11.27048 18.00911 6.71262 18.8733-1.76054 19.41176-6.47423 19.95021-11.1879 20.81442-18.93723 21.35287-22.70244 21.89133-26.46765 22.7562-31.67722 23.29465-33.61133 23.8331-35.54543 24.69731-36.99257 25.23576-36.64212 25.77422-36.2917 26.63841-33.63824 27.17688-31.08565 27.71533-28.53305 28.57953-22.40138 29.11798-18.24481 29.65643-14.08824 30.52065-5.91447 31.0591-1.12799 31.59755 3.65846 32.46242 11.95815 33.00087 16.25287 33.53932 20.54759 34.40353 27.02888 34.94199 29.82535 35.48044 32.6218 36.34464 35.76503 36.88309 36.40779 37.42155 37.05054 38.28575 36.11934 38.8242 34.45789 39.36266 32.79642 40.22685 28.00957 40.76532 24.43314 41.30377 20.85669 42.16797 13.33455 42.70642 8.68146 43.24487 4.02837 44.10974-4.46373 44.64821-9.10306 45.18666-13.74237 46.05086-21.21703 46.58931-24.75551 47.12776-28.29396 47.99197-32.99763 48.53043-34.6059 49.06888-36.21414 49.93307-37.04552 50.47153-36.34668 51.01-35.64783 51.87419-32.41133 52.41264-29.56914 52.9511-26.72693 53.81596-20.18149 54.35442-15.8621 54.89288-11.54272 55.75708-3.22244 56.29553 1.56192 56.83398 6.34631 57.6982 14.49226 58.23665 18.62044 58.7751 22.74861 59.6393 28.8105 60.17775 31.31496 60.7162 33.8194 61.58041 36.37692 62.11887 36.67072 62.65732 36.96452 63.52151 35.41815 64.05997 33.43248 64.59843 31.44681 65.4633 26.15916 66.00175 22.35933 66.5402 18.5595 67.4044 10.76923 67.94286 6.0459 68.48132 1.32257 69.34552-7.14313 69.88397-11.6831 70.42242-16.22308 71.28664-23.38222 71.82509-26.67511 72.36354-29.96802 73.22774-34.14201 73.76619-35.41602 74.30464-36.69002 75.16953-36.90083 75.70798-35.85724 76.24643-34.81364 77.11063-31.01114 77.64908-27.8945 78.18753-24.77788 79.05174-17.85382 79.5902-13.39473 80.12865-8.93565 80.99284-.51315 81.53131 4.24344 82.06976 9.00008 82.93396 16.94812 83.47241 20.88766 84.01086 24.8272 84.87508 30.43773 85.41353 32.63693 85.95198 34.83615 86.81685 36.79471 87.3553 36.738 87.89375 36.68129 88.75797 34.52747 89.29642 32.22823 89.83487 29.929 90.69907 24.16954 91.23752 20.16667 91.77597 16.16382 92.64018 8.14674 93.17863 3.37839 93.71709-1.38995 94.58128-9.78383 95.11975-14.20038 95.6582-18.61691 96.5224-25.42316 97.06085-28.4529 97.5993-31.48264 98.46417-35.10397 99.00264-36.03665 99.54109-36.96931 100.40529-36.5577 100.94374-35.17494 101.4822-33.79219 102.3464-29.44493 102.88486-26.07074 103.42331-22.69656 104.2875-15.43108 104.82596-10.85617 105.36443-6.28125 106.22862 2.19843 106.76707 6.902 107.30553 11.60556 108.1704 19.31395 108.70885 23.04387 109.24731 26.77377 110.11151 31.90265 110.64996 33.78456 111.18842 35.66647 112.05261 37.01427 112.59108 36.60738 113.12953 36.20047 113.99373 33.45215 114.53218 30.85187 115.07063 28.25159 115.93484 22.05087 116.4733 17.86638 117.01175 13.68188 117.87595 5.48097 118.4144 .69293 118.95287-4.0951 119.81773-12.37314 120.35619-16.64252 120.89464-20.91187 121.75883-27.3273 122.29729-30.07762 122.83575-32.82796 124.2384-36.46497 124.2384-36.46497"/>
</svg>
