<svg xmlns="http://www.w3.org/2000/svg" xmlns:xlink="http://www.w3.org/1999/xlink" version="1.1" width="90" height="90" viewBox="0 0 90 90">
<defs>
<path id="font_1_2" d="M.1329956 .08345032C.18699646 .14138794 .21598816 .16636658 .2519989 .19732666 .2519989 .19833374 .31399537 .25128175 .34999085 .2872467 .44499208 .3803711 .46699525 .42837525 .46699525 .43237306 .46699525 .4423828 .45799256 .4423828 .45599366 .4423828 .44898988 .4423828 .44599916 .44036866 .44099427 .43138124 .41099549 .38337709 .3899994 .3671875 .3659973 .3671875 .34199525 .3671875 .32998658 .38237 .31498719 .3993683 .29599 .42237855 .2789917 .4423828 .24598694 .4423828 .17098999 .4423828 .125 .34918214 .125 .3282013 .125 .3231964 .12799073 .31721498 .13699341 .31721498 .1459961 .31721498 .147995 .3222046 .1499939 .3282013 .16899109 .37434388 .22698975 .37538148 .23498535 .37538148 .2559967 .37538148 .2749939 .36820985 .2979889 .36018373 .33799745 .34518434 .34899903 .34518434 .375 .34518434 .33898927 .30223084 .25498963 .2303009 .23599243 .21430969L.1459961 .13040161C.07798767 .06341553 .042999269 .0062561037 .042999269-.00074768069 .042999269-.0107421879 .052993776-.0107421879 .054992677-.0107421879 .06298828-.0107421879 .06498718-.008743286 .070999149 .002243042 .09399414 .037246705 .12399292 .064453128 .1559906 .064453128 .1789856 .064453128 .18899536 .055252077 .21398926 .026245118 .23098755 .0052490236 .24899292-.0107421879 .27799989-.0107421879 .3769989-.0107421879 .43499757 .1164093 .43499757 .14338684 .43499757 .14837647 .43099977 .15338135 .4229889 .15338135 .4139862 .15338135 .4119873 .14738465 .40899659 .14039612 .38598634 .07543945 .32199098 .056243898 .2889862 .056243898 .2689972 .056243898 .25099183 .06239319 .22999573 .06944275 .19599915 .08244324 .18099976 .08644104 .1599884 .08644104 .1579895 .08644104 .14199829 .08644104 .1329956 .08345032Z"/>
<path id="font_2_3" d="M.68699648 .32714845C.70199587 .32714845 .72099307 .32714845 .72099307 .34713746 .72099307 .36714173 .70199587 .36714173 .6879883 .36714173H.08898926C.07499695 .36714173 .055999757 .36714173 .055999757 .34713746 .055999757 .32714845 .07499695 .32714845 .08999634 .32714845H.68699648M.6879883 .13284302C.70199587 .13284302 .72099307 .13284302 .72099307 .15284729 .72099307 .17285156 .70199587 .17285156 .68699648 .17285156H.08999634C.07499695 .17285156 .055999757 .17285156 .055999757 .15284729 .055999757 .13284302 .07499695 .13284302 .08898926 .13284302H.6879883Z"/>
<path id="font_2_2" d="M.2939911 .64004519C.2939911 .66400149 .2939911 .6660156 .2709961 .6660156 .20899964 .60227969 .12098694 .60227969 .08898926 .60227969V.57128909C.10899353 .57128909 .16799927 .57128909 .21998596 .5972748V.07902527C.21998596 .042999269 .21699524 .0309906 .1269989 .0309906H.09498596V0C.12998963 .0029907227 .21699524 .0029907227 .25698854 .0029907227 .29699708 .0029907227 .38398744 .0029907227 .4189911 0V.0309906H.3869934C.29699708 .0309906 .2939911 .041992189 .2939911 .07902527V.64004519Z"/>
<path id="font_2_1" d="M.40899659 .23046875H.6879883C.70199587 .23046875 .72099307 .23046875 .72099307 .25045777 .72099307 .27046205 .70199587 .27046205 .6879883 .27046205H.40899659V.5500183C.40899659 .56399539 .40899659 .5830078 .3889923 .5830078 .36898805 .5830078 .36898805 .56399539 .36898805 .5500183V.27046205H.08898926C.07499695 .27046205 .055999757 .27046205 .055999757 .25045777 .055999757 .23046875 .07499695 .23046875 .08898926 .23046875H.36898805V-.05000305C.36898805-.06401062 .36898805-.08300781 .3889923-.08300781 .40899659-.08300781 .40899659-.06401062 .40899659-.05000305V.23046875Z"/>
<path id="font_1_1" d="M.28399659 .6252594C.28399659 .6452637 .269989 .6612549 .24699402 .6612549 .21998596 .6612549 .19299317 .6352539 .19299317 .6082611 .19299317 .5892639 .20698548 .5722656 .23098755 .5722656 .2539978 .5722656 .28399659 .5952606 .28399659 .6252594M.20799256 .24932862C.21998596 .27833558 .21998596 .28033448 .22999573 .30734254 .23799134 .3273468 .24299622 .34135438 .24299622 .36035157 .24299622 .405365 .21099854 .4423828 .16099549 .4423828 .066986087 .4423828 .0289917 .29733277 .0289917 .28833009 .0289917 .27833558 .038986207 .27833558 .040985109 .27833558 .050994874 .27833558 .051986696 .28033448 .056991579 .29634095 .083999637 .3903656 .12399292 .42037965 .1579895 .42037965 .1659851 .42037965 .18299866 .42037965 .18299866 .3883667 .18299866 .36735536 .17599488 .346344 .17199707 .3363495 .1639862 .31033326 .11898804 .19430542 .102996829 .1512909 .09298706 .12528992 .07998657 .0922699 .07998657 .0712738 .07998657 .024261475 .11399841-.0107421879 .1619873-.0107421879 .2559967-.0107421879 .29299928 .1342926 .29299928 .14329529 .29299928 .1532898 .28399659 .1532898 .2809906 .1532898 .2709961 .1532898 .2709961 .15029907 .2659912 .13528443 .24798584 .072265628 .21499634 .011245728 .1639862 .011245728 .14698792 .011245728 .13999939 .021255494 .13999939 .044265748 .13999939 .0692749 .1459961 .08326721 .16899109 .14428711L.20799256 .24932862Z"/>
<path id="font_3_1" d="M.5049896 .18203736H.47099305C.46798707 .16001892 .45799256 .100997928 .44499208 .09098816 .43699647 .084991458 .3600006 .084991458 .34599305 .084991458H.1619873C.2669983 .17803955 .3019867 .20603943 .3619995 .25306703 .43598939 .312088 .5049896 .374115 .5049896 .46914674 .5049896 .5900879 .39898683 .6640625 .2709961 .6640625 .14698792 .6640625 .06298828 .57710269 .06298828 .4851532 .06298828 .43414308 .10598755 .42915345 .115997318 .42915345 .13999939 .42915345 .16899109 .44615174 .16899109 .48214723 .16899109 .5001526 .1619873 .53515627 .10998535 .53515627 .14099121 .6060791 .20899964 .62805178 .2559967 .62805178 .35598756 .62805178 .4079895 .5501404 .4079895 .46914674 .4079895 .38212586 .34599305 .3130951 .31399537 .27708436L.07299805 .038986207C.06298828 .02999878 .06298828 .027999878 .06298828 0H.47499085L.5049896 .18203736Z"/>
<path id="font_3_2" d="M.272995 .33428956C.35099793 .33428956 .40699769 .2803192 .40699769 .1733551 .40699769 .04940796 .33499146 .012466431 .2769928 .012466431 .23699951 .012466431 .14898682 .0234375 .10699463 .082351688 .1539917 .084350589 .16499329 .11735535 .16499329 .13835144 .16499329 .17034912 .14099121 .19335938 .10998535 .19335938 .08198547 .19335938 .053985597 .17634583 .053985597 .13534546 .053985597 .041412355 .1579895-.01953125 .2789917-.01953125 .41799928-.01953125 .5139923 .07336426 .5139923 .1733551 .5139923 .2513275 .44999696 .32929994 .33999635 .35229493 .44499208 .39024354 .48298646 .4650879 .48298646 .5260773 .48298646 .60505679 .3919983 .6640625 .2809906 .6640625 .16999817 .6640625 .084991458 .61006167 .084991458 .5300751 .084991458 .49606324 .10699463 .47706605 .13699341 .47706605 .16799927 .47706605 .18798828 .5000763 .18798828 .5280762 .18798828 .5570679 .16799927 .57806399 .13699341 .5800781 .17199707 .62405398 .24099732 .63505557 .27799989 .63505557 .32299806 .63505557 .38598634 .6130676 .38598634 .5260773 .38598634 .48406983 .37199403 .43814088 .34599305 .4072113 .31298829 .36927796 .2849884 .3672943 .23498535 .36428834 .20999146 .3623047 .20799256 .3623047 .20298767 .3612976 .20098877 .3612976 .19299317 .3592987 .19299317 .34829713 .19299317 .33428956 .20199585 .33428956 .21899414 .33428956H.272995Z"/>
</defs>
<path transform="matrix(1.00003,0,0,-1.00008,42.11573,47.943635)" stroke-width=".3985" stroke-linecap="butt" stroke-miterlimit="10" stroke-linejoin="miter" fill="none" stroke="#00aeef" d="M-40.81946-40.81946H40.81946M-40.81946-20.40973H40.81946M-40.81946 0H40.81946M-40.81946 20.40973H40.81946M-40.81946 40.81229H40.81946M-40.81946-40.81946V40.81946M-20.40973-40.81946V40.81946M0-40.81946V40.81946M20.40973-40.81946V40.81946M40.81229-40.81946V40.81946M40.81946 40.81946"/>
<path transform="matrix(1.00003,0,0,-1.00008,42.11573,47.943635)" stroke-width=".79701" stroke-linecap="butt" stroke-miterlimit="10" stroke-linejoin="miter" fill="none" stroke="#000000" d="M-40.81946 0H45.50783"/>
<path transform="matrix(1.00003,0,0,-1.00008,87.62492,47.943635)" d="M1.0361 0C-.25902 .25902-1.55415 .77707-3.1083 1.68365-1.55415 .51805-1.55415-.51805-3.1083-1.68365-1.55415-.77707-.25902-.25902 1.0361 0Z"/>
<path transform="matrix(1.00003,0,0,-1.00008,87.62492,47.943635)" stroke-width=".79701" stroke-linecap="butt" stroke-linejoin="round" fill="none" stroke="#000000" d="M1.0361 0C-.25902 .25902-1.55415 .77707-3.1083 1.68365-1.55415 .51805-1.55415-.51805-3.1083-1.68365-1.55415-.77707-.25902-.25902 1.0361 0Z"/>
<path transform="matrix(1.00003,0,0,-1.00008,42.11573,47.943635)" stroke-width=".79701" stroke-linecap="butt" stroke-miterlimit="10" stroke-linejoin="miter" fill="none" stroke="#000000" d="M0-40.81946V45.50783"/>
<path transform="matrix(0,-1.00008,-1.00003,-0,42.11573,2.4321633)" d="M1.0361 0C-.25902 .25902-1.55415 .77707-3.1083 1.68365-1.55415 .51805-1.55415-.51805-3.1083-1.68365-1.55415-.77707-.25902-.25902 1.0361 0Z"/>
<path transform="matrix(0,-1.00008,-1.00003,-0,42.11573,2.4321633)" stroke-width=".79701" stroke-linecap="butt" stroke-linejoin="round" fill="none" stroke="#000000" d="M1.0361 0C-.25902 .25902-1.55415 .77707-3.1083 1.68365-1.55415 .51805-1.55415-.51805-3.1083-1.68365-1.55415-.77707-.25902-.25902 1.0361 0Z"/>
<path transform="matrix(1.00003,0,0,-1.00008,42.11573,47.943635)" d="M22.0425 20.4097C22.0425 21.31148 21.31148 22.0425 20.4097 22.0425 19.50792 22.0425 18.7769 21.31148 18.7769 20.4097 18.7769 19.50792 19.50792 18.7769 20.4097 18.7769 21.31148 18.7769 22.0425 19.50792 22.0425 20.4097ZM20.4097 20.4097" fill="#ff0000"/>
<path transform="matrix(1.00003,0,0,-1.00008,42.11573,47.943635)" stroke-width=".3985" stroke-linecap="butt" stroke-miterlimit="10" stroke-linejoin="miter" fill="none" stroke="#ff0000" d="M22.0425 20.4097C22.0425 21.31148 21.31148 22.0425 20.4097 22.0425 19.50792 22.0425 18.7769 21.31148 18.7769 20.4097 18.7769 19.50792 19.50792 18.7769 20.4097 18.7769 21.31148 18.7769 22.0425 19.50792 22.0425 20.4097ZM20.4097 20.4097"/>
<path transform="matrix(1.00003,0,0,-1.00008,42.11573,47.943635)" d="M.93707 24.8608H39.88231V32.2617H.93707Z" fill="#ffffff"/>
<use data-text="z" xlink:href="#font_1_2" transform="matrix(9.962899,0,0,-9.963397,43.052759,22.25058)"/>
<use data-text="=" xlink:href="#font_2_3" transform="matrix(9.962899,0,0,-9.963397,50.892,22.25058)"/>
<use data-text="1" xlink:href="#font_2_2" transform="matrix(9.962899,0,0,-9.963397,61.392885,22.25058)"/>
<use data-text="+" xlink:href="#font_2_1" transform="matrix(9.962899,0,0,-9.963397,68.586109,22.25058)"/>
<use data-text="i" xlink:href="#font_1_1" transform="matrix(9.962899,0,0,-9.963397,78.56682,22.25058)"/>
<path transform="matrix(1.00003,0,0,-1.00008,42.11573,47.943635)" d="M-18.7769 20.4097C-18.7769 21.31148-19.50792 22.0425-20.4097 22.0425-21.31148 22.0425-22.0425 21.31148-22.0425 20.4097-22.0425 19.50792-21.31148 18.7769-20.4097 18.7769-19.50792 18.7769-18.7769 19.50792-18.7769 20.4097ZM-20.4097 20.4097" fill="#ff0000"/>
<path transform="matrix(1.00003,0,0,-1.00008,42.11573,47.943635)" stroke-width=".3985" stroke-linecap="butt" stroke-miterlimit="10" stroke-linejoin="miter" fill="none" stroke="#ff0000" d="M-18.7769 20.4097C-18.7769 21.31148-19.50792 22.0425-20.4097 22.0425-21.31148 22.0425-22.0425 21.31148-22.0425 20.4097-22.0425 19.50792-21.31148 18.7769-20.4097 18.7769-19.50792 18.7769-18.7769 19.50792-18.7769 20.4097ZM-20.4097 20.4097"/>
<path transform="matrix(1.00003,0,0,-1.00008,42.11573,47.943635)" d="M-29.1126 24.8608H-20.608952V31.43148H-29.1126Z" fill="#ffffff"/>
<use data-text="i" xlink:href="#font_1_1" transform="matrix(9.962899,0,0,-9.963397,13.001854,23.080645)"/>
<use data-text="z" xlink:href="#font_1_2" transform="matrix(9.962899,0,0,-9.963397,16.429085,23.080645)"/>
<path transform="matrix(1.00003,0,0,-1.00008,42.11573,47.943635)" d="M-18.7769-20.4097C-18.7769-19.50792-19.50792-18.7769-20.4097-18.7769-21.31148-18.7769-22.0425-19.50792-22.0425-20.4097-22.0425-21.31148-21.31148-22.0425-20.4097-22.0425-19.50792-22.0425-18.7769-21.31148-18.7769-20.4097ZM-20.4097-20.4097" fill="#ff0000"/>
<path transform="matrix(1.00003,0,0,-1.00008,42.11573,47.943635)" stroke-width=".3985" stroke-linecap="butt" stroke-miterlimit="10" stroke-linejoin="miter" fill="none" stroke="#ff0000" d="M-18.7769-20.4097C-18.7769-19.50792-19.50792-18.7769-20.4097-18.7769-21.31148-18.7769-22.0425-19.50792-22.0425-20.4097-22.0425-21.31148-21.31148-22.0425-20.4097-22.0425-19.50792-22.0425-18.7769-21.31148-18.7769-20.4097ZM-20.4097-20.4097"/>
<path transform="matrix(1.00003,0,0,-1.00008,42.11573,47.943635)" d="M-33.58202-32.9705H-20.60897V-24.860802H-33.58202Z" fill="#ffffff"/>
<use data-text="i" xlink:href="#font_1_1" transform="matrix(9.962899,0,0,-9.963397,8.532722,80.91727)"/>
<use data-text="2" xlink:href="#font_3_1" transform="matrix(6.9740097,0,0,-6.974358,11.964821,77.30198)"/>
<use data-text="z" xlink:href="#font_1_2" transform="matrix(9.962899,0,0,-9.963397,16.434952,80.91727)"/>
<path transform="matrix(1.00003,0,0,-1.00008,42.11573,47.943635)" d="M22.0425-20.4097C22.0425-19.50792 21.31148-18.7769 20.4097-18.7769 19.50792-18.7769 18.7769-19.50792 18.7769-20.4097 18.7769-21.31148 19.50792-22.0425 20.4097-22.0425 21.31148-22.0425 22.0425-21.31148 22.0425-20.4097ZM20.4097-20.4097" fill="#ff0000"/>
<path transform="matrix(1.00003,0,0,-1.00008,42.11573,47.943635)" stroke-width=".3985" stroke-linecap="butt" stroke-miterlimit="10" stroke-linejoin="miter" fill="none" stroke="#ff0000" d="M22.0425-20.4097C22.0425-19.50792 21.31148-18.7769 20.4097-18.7769 19.50792-18.7769 18.7769-19.50792 18.7769-20.4097 18.7769-21.31148 19.50792-22.0425 20.4097-22.0425 21.31148-22.0425 22.0425-21.31148 22.0425-20.4097ZM20.4097-20.4097"/>
<path transform="matrix(1.00003,0,0,-1.00008,42.11573,47.943635)" d="M20.60895-32.9705H33.582V-24.860802H20.60895Z" fill="#ffffff"/>
<use data-text="i" xlink:href="#font_1_1" transform="matrix(9.962899,0,0,-9.963397,62.72535,80.91727)"/>
<use data-text="3" xlink:href="#font_3_2" transform="matrix(6.9740097,0,0,-6.974358,66.15745,77.30198)"/>
<use data-text="z" xlink:href="#font_1_2" transform="matrix(9.962899,0,0,-9.963397,70.62758,80.91727)"/>
</svg>
