<svg xmlns="http://www.w3.org/2000/svg" xmlns:xlink="http://www.w3.org/1999/xlink" version="1.1" width="198" height="87" viewBox="0 0 198 87">
<defs>
<path id="font_1_2" d="M.33399964 .30233766C.33999635 .32835389 .36299134 .42037965 .43299867 .42037965 .43798829 .42037965 .46199037 .42037965 .48298646 .40734864 .45498658 .402359 .43499757 .37734986 .43499757 .35334779 .43499757 .33735658 .44599916 .31835938 .47299195 .31835938 .49499513 .31835938 .5269928 .3363495 .5269928 .37635804 .5269928 .42837525 .46798707 .4423828 .43399049 .4423828 .37599183 .4423828 .34098817 .38935853 .32899476 .36634828 .3039856 .43237306 .25 .4423828 .22099304 .4423828 .116989139 .4423828 .05999756 .3133545 .05999756 .28834535 .05999756 .27833558 .069992069 .27833558 .07199097 .27833558 .07998657 .27833558 .08299255 .28033448 .084991458 .28933717 .11898804 .39535523 .18499756 .42037965 .21899414 .42037965 .23799134 .42037965 .272995 .4113617 .272995 .35334779 .272995 .32235719 .2559967 .25532533 .21899414 .11528015 .20298767 .053268434 .16799927 .011245728 .12399292 .011245728 .117996219 .011245728 .09498596 .011245728 .07398987 .024276734 .09899902 .029266358 .12098694 .05027771 .12098694 .07827759 .12098694 .105270389 .09899902 .11328125 .083999637 .11328125 .053985597 .11328125 .0289917 .08728027 .0289917 .055267335 .0289917 .009246826 .07899475-.0107421879 .12298584-.0107421879 .18899536-.0107421879 .22499085 .059280397 .22799683 .0652771 .23999024 .028274537 .27598573-.0107421879 .33599855-.0107421879 .43899537-.0107421879 .49598695 .118270877 .49598695 .14328003 .49598695 .1532898 .4869995 .1532898 .48399354 .1532898 .47499085 .1532898 .47299195 .14929199 .47099305 .14228821 .43798829 .03527832 .36999513 .011245728 .33799745 .011245728 .29899598 .011245728 .2829895 .043273927 .2829895 .07727051 .2829895 .09927368 .2889862 .121276859 .2999878 .16529846L.33399964 .30233766Z"/>
<path id="font_1_3" d="M.48599244 .38136292C.48999024 .39537049 .48999024 .39736939 .48999024 .40437318 .48999024 .42237855 .47599793 .43138124 .46099855 .43138124 .45098878 .43138124 .43499757 .42536927 .42599488 .41036988 .42399598 .405365 .41600038 .37435914 .4119873 .35635377 .40499879 .33035279 .397995 .30334474 .3919983 .27633668L.34700013 .09628296C.34298707 .08126831 .2999878 .011245728 .23399353 .011245728 .18299866 .011245728 .17199707 .055267335 .17199707 .0922699 .17199707 .1382904 .18899536 .20030213 .22299195 .28833009 .23899842 .3293457 .24299622 .3403473 .24299622 .36035157 .24299622 .405365 .21099854 .4423828 .16099549 .4423828 .06599426 .4423828 .0289917 .29733277 .0289917 .28833009 .0289917 .27833558 .038986207 .27833558 .040985109 .27833558 .050994874 .27833558 .051986696 .28033448 .056991579 .29634095 .083999637 .3903656 .12399292 .42037965 .1579895 .42037965 .1659851 .42037965 .18299866 .42037965 .18299866 .3883667 .18299866 .36335755 .17298889 .3373413 .1659851 .31834413 .12599182 .21231079 .10798645 .1552887 .10798645 .10827637 .10798645 .019256592 .17098999-.0107421879 .22999573-.0107421879 .2689972-.0107421879 .30299378 .0062561037 .33099366 .03425598 .31799317-.017745972 .30599977-.06674194 .2659912-.11973572 .23999024-.15385437 .20199585-.18309021 .1559906-.18309021 .14199829-.18309021 .09700012-.18005371 .07998657-.14074707 .09599304-.14074707 .10899353-.14074707 .12298584-.1287384 .1329956-.11973572 .14299011-.10673523 .14299011-.08773804 .14299011-.056747438 .115997318-.052734376 .10598755-.052734376 .08299255-.052734376 .049987794-.068740848 .049987794-.11773682 .049987794-.16796875 .09399414-.20507813 .1559906-.20507813 .25898744-.20507813 .3619995-.11373901 .3899994-.00074768069L.48599244 .38136292Z"/>
<path id="font_2_1" d="M.6589966 .23046875C.6759949 .23046875 .69400027 .23046875 .69400027 .25045777 .69400027 .27046205 .6759949 .27046205 .6589966 .27046205H.117996219C.100997928 .27046205 .08299255 .27046205 .08299255 .25045777 .08299255 .23046875 .100997928 .23046875 .117996219 .23046875H.6589966Z"/>
<path id="font_3_2" d="M.2939911 .16503906V.07800293C.2939911 .041992189 .2919922 .0309906 .21798706 .0309906H.19699097V0C.23799134 .0029907227 .2899933 .0029907227 .33198548 .0029907227 .37399293 .0029907227 .4269867 .0029907227 .46798707 0V.0309906H.44699098C.37298585 .0309906 .37098695 .041992189 .37098695 .07800293V.16503906H.47099305V.19602967H.37098695V.65075686C.37098695 .67074587 .37098695 .6767578 .35499574 .6767578 .34599305 .6767578 .34298707 .6767578 .33499146 .66474917L.027999878 .19602967V.16503906H.2939911M.2999878 .19602967H.055999757L.2999878 .5688019V.19602967Z"/>
<path id="font_3_1" d="M.1269989 .07699585 .23298645 .18003845C.3889923 .31811524 .44898988 .3721466 .44898988 .47216798 .44898988 .5860901 .35899354 .6660156 .23699951 .6660156 .12399292 .6660156 .049987794 .57411196 .049987794 .48516847 .049987794 .4291687 .099990848 .4291687 .102996829 .4291687 .11999512 .4291687 .15499878 .44117738 .15499878 .48217774 .15499878 .5081787 .13699341 .5341797 .101989749 .5341797 .09399414 .5341797 .09199524 .5341797 .08898926 .5331726 .11199951 .59806826 .1659851 .63500979 .22399903 .63500979 .31498719 .63500979 .35798646 .5541382 .35798646 .47216798 .35798646 .39215089 .30799867 .31311036 .25299073 .25108338L.06098938 .036987306C.049987794 .025985718 .049987794 .023986817 .049987794 0H.42099L.44898988 .17404175H.42399598C.4189911 .14402771 .4119873 .1000061 .4019928 .084991458 .394989 .07699585 .32899476 .07699585 .30699159 .07699585H.1269989Z"/>
<path id="font_1_1" d="M.2649994 .37265016H.37799073C.34498597 .22489929 .33599855 .18196106 .33599855 .11508179 .33599855 .100097659 .33599855 .073150638 .34399415 .03919983 .35398866-.0047454836 .36499024-.0107421879 .37998963-.0107421879 .3999939-.0107421879 .42099 .007247925 .42099 .02722168 .42099 .033218385 .42099 .035202028 .4149933 .049179079 .38598634 .12106323 .38598634 .18595886 .38598634 .21391297 .38598634 .26683045 .3929901 .32073976 .4039917 .37265016H.5179901C.5309906 .37265016 .5669861 .37265016 .5669861 .406662 .5669861 .43066407 .54599 .43066407 .5269928 .43066407H.19198609C.16999817 .43066407 .13198853 .43066407 .08799744 .38365174 .052993776 .34469605 .026992798 .29878236 .026992798 .29379273 .026992798 .29278565 .026992798 .28379823 .038986207 .28379823 .04699707 .28379823 .04899597 .28779603 .054992677 .29577638 .10398865 .37265016 .1619873 .37265016 .18199158 .37265016H.23899842C.20698548 .25186158 .15299988 .13105774 .11099243 .04020691 .102996829 .025222779 .102996829 .023223877 .102996829 .016235352 .102996829-.002746582 .11898804-.0107421879 .13198853-.0107421879 .1619873-.0107421879 .16999817 .017242432 .18199158 .05418396 .19599915 .100097659 .19599915 .10209656 .20899964 .15202332L.2649994 .37265016Z"/>
</defs>
<path transform="matrix(1.00006,0,0,-1.00005,23.759346,28.874794)" stroke-width=".3985" stroke-linecap="butt" stroke-miterlimit="10" stroke-linejoin="miter" fill="none" stroke="#00aeef" d="M-22.26347-56.69275H155.84439M-22.26347-45.35419H155.84439M-22.26347-34.01564H155.84439M-22.26347-22.6771H155.84439M-22.26347-11.33855H155.84439M-22.26347 0H155.84439M-22.26347 11.33456H155.84439M-22.26314-56.69275V11.33855M-11.13156-56.69275V11.33855M0-56.69275V11.33855M11.13156-56.69275V11.33855M22.26314-56.69275V11.33855M33.39471-56.69275V11.33855M44.52629-56.69275V11.33855M55.65787-56.69275V11.33855M66.78944-56.69275V11.33855M77.92102-56.69275V11.33855M89.0526-56.69275V11.33855M100.18417-56.69275V11.33855M111.31575-56.69275V11.33855M122.44733-56.69275V11.33855M133.5789-56.69275V11.33855M144.71048-56.69275V11.33855M155.84206-56.69275V11.33855M155.84439 11.33855"/>
<path transform="matrix(1.00006,0,0,-1.00005,23.759346,28.874794)" stroke-width=".79701" stroke-linecap="butt" stroke-miterlimit="10" stroke-linejoin="miter" fill="none" stroke="#000000" d="M-22.26347 0H162.26813"/>
<path transform="matrix(1.00006,0,0,-1.00005,186.0372,28.874794)" d="M1.0361 0C-.25902 .25902-1.55415 .77707-3.1083 1.68365-1.55415 .51805-1.55415-.51805-3.1083-1.68365-1.55415-.77707-.25902-.25902 1.0361 0Z"/>
<path transform="matrix(1.00006,0,0,-1.00005,186.0372,28.874794)" stroke-width=".79701" stroke-linecap="butt" stroke-linejoin="round" fill="none" stroke="#000000" d="M1.0361 0C-.25902 .25902-1.55415 .77707-3.1083 1.68365-1.55415 .51805-1.55415-.51805-3.1083-1.68365-1.55415-.77707-.25902-.25902 1.0361 0Z"/>
<use data-text="x" xlink:href="#font_1_2" transform="matrix(9.963197,0,0,-9.963098,191.19138,31.019902)"/>
<path transform="matrix(1.00006,0,0,-1.00005,23.759346,28.874794)" stroke-width=".79701" stroke-linecap="butt" stroke-miterlimit="10" stroke-linejoin="miter" fill="none" stroke="#000000" d="M0-56.69275V15.5732"/>
<path transform="matrix(0,-1.00005,-1.00006,-0,23.759346,13.300816)" d="M1.0361 0C-.25902 .25902-1.55415 .77707-3.1083 1.68365-1.55415 .51805-1.55415-.51805-3.1083-1.68365-1.55415-.77707-.25902-.25902 1.0361 0Z"/>
<path transform="matrix(0,-1.00005,-1.00006,-0,23.759346,13.300816)" stroke-width=".79701" stroke-linecap="butt" stroke-linejoin="round" fill="none" stroke="#000000" d="M1.0361 0C-.25902 .25902-1.55415 .77707-3.1083 1.68365-1.55415 .51805-1.55415-.51805-3.1083-1.68365-1.55415-.77707-.25902-.25902 1.0361 0Z"/>
<use data-text="y" xlink:href="#font_1_3" transform="matrix(9.963197,0,0,-9.963098,21.138192,6.2096617)"/>
<path transform="matrix(1.00006,0,0,-1.00005,23.759346,28.874794)" stroke-width=".79701" stroke-linecap="butt" stroke-miterlimit="10" stroke-linejoin="miter" fill="none" stroke="#000000" d="M1.06305-45.35419H-1.06306"/>
<path transform="matrix(1.00006,0,0,-1.00005,23.759346,28.874794)" d="M-18.17691-49.9758H-3.4541302V-40.73257H-18.17691Z" fill="#ffffff"/>
<use data-text="&#x2212;" xlink:href="#font_2_1" transform="matrix(9.963197,0,0,-9.963098,6.5773165,77.02619)"/>
<use data-text="4" xlink:href="#font_3_2" transform="matrix(9.963197,0,0,-9.963098,14.325783,77.02619)"/>
<path transform="matrix(1.00006,0,0,-1.00005,23.759346,28.874794)" stroke-width=".79701" stroke-linecap="butt" stroke-miterlimit="10" stroke-linejoin="miter" fill="none" stroke="#000000" d="M1.06305-22.6771H-1.06306"/>
<path transform="matrix(1.00006,0,0,-1.00005,23.759346,28.874794)" d="M-18.17691-27.2987H-3.4541302V-18.05547H-18.17691Z" fill="#ffffff"/>
<use data-text="&#x2212;" xlink:href="#font_2_1" transform="matrix(9.963197,0,0,-9.963098,6.5773165,54.34807)"/>
<use data-text="2" xlink:href="#font_3_1" transform="matrix(9.963197,0,0,-9.963098,14.325783,54.34807)"/>
<path transform="matrix(1.00006,0,0,-1.00005,23.759346,28.874794)" stroke-width=".79701" stroke-linecap="butt" stroke-miterlimit="10" stroke-linejoin="miter" fill="none" stroke="#000000" d="M66.79045 1.13391V-1.13374"/>
<use data-text="&#x03c0;" xlink:href="#font_1_1" transform="matrix(9.963197,0,0,-9.963098,87.53517,40.010354)"/>
<path transform="matrix(1.00006,0,0,-1.00005,23.759346,28.874794)" stroke-width=".79701" stroke-linecap="butt" stroke-miterlimit="10" stroke-linejoin="miter" fill="none" stroke="#000000" d="M133.58092 1.13391V-1.13374"/>
<use data-text="2" xlink:href="#font_3_1" transform="matrix(9.963197,0,0,-9.963098,151.83902,42.141458)"/>
<use data-text="&#x03c0;" xlink:href="#font_1_1" transform="matrix(9.963197,0,0,-9.963098,156.82033,42.141458)"/>
<path transform="matrix(1.00006,0,0,-1.00005,23.759346,28.874794)" stroke-width="1.19553" stroke-linecap="butt" stroke-miterlimit="10" stroke-linejoin="miter" fill="none" stroke="#ff0000" d="M-22.26347-34.01547C-22.26347-34.01547-20.25291-33.97162-19.48073-33.91806-18.70856-33.86449-17.4702-33.73558-16.69801-33.6293-15.92581-33.52301-14.68745-33.30911-13.91527-33.15195-13.14308-32.9948-11.90472-32.70186-11.13254-32.49658-10.36034-32.29129-9.122-31.92233-8.34981-31.67236-7.57762-31.42238-6.33926-30.9852-5.56706-30.69484-4.79488-30.40446-3.55652-29.90536-2.78433-29.57959-2.01215-29.25381-.77379-28.70248-.0016-28.34688 .77055-27.99126 2.0089-27.39597 2.78108-27.01659 3.55328-26.6372 4.79164-26.0092 5.56383-25.6126 6.33603-25.21599 7.57436-24.56522 8.34656-24.15807 9.11874-23.75093 10.3571-23.08873 11.1293-22.67812 11.90149-22.26752 13.13983-21.60579 13.91202-21.1987 14.6842-20.79158 15.92258-20.14066 16.69476-19.744 17.46695-19.34734 18.7053-18.71925 19.4775-18.33983 20.24968-17.96042 21.48804-17.36505 22.26022-17.00937 23.03241-16.65369 24.27077-16.10213 25.04295-15.7763 25.81514-15.45047 27.05351-14.95146 27.8257-14.66107 28.59789-14.37068 29.83623-13.93343 30.60841-13.68336 31.38062-13.43332 32.61897-13.06418 33.39116-12.8588 34.16335-12.65341 35.40169-12.3603 36.17389-12.20308 36.94608-12.04584 38.18443-11.83195 38.95663-11.72557 39.7288-11.61917 40.96716-11.48994 41.73936-11.4363 42.51155-11.38261 43.74991-11.33876 44.5221-11.33871 45.29427-11.33865 46.53264-11.38226 47.30482-11.43578 48.07701-11.48927 49.31538-11.61815 50.08755-11.72435 50.85974-11.83054 52.0981-12.04411 52.87029-12.20117 53.64247-12.35825 54.88084-12.65117 55.65302-12.85637 56.4252-13.06157 57.66357-13.43019 58.43576-13.68008 59.20795-13.92998 60.44629-14.36711 61.21848-14.65744 61.99068-14.94775 63.22903-15.4468 64.00122-15.7725 64.77342-16.0982 66.01175-16.6493 66.78395-17.00487 67.55614-17.36043 68.7945-17.95581 69.5667-18.33516 70.33888-18.71451 71.57722-19.34239 72.34943-19.73898 73.12161-20.13557 74.35997-20.78638 75.13216-21.1935 75.90434-21.60062 77.1427-22.26268 77.91489-22.6733 78.68707-23.0839 79.92545-23.74576 80.69763-24.15288 81.46982-24.56 82.70816-25.21089 83.48035-25.60757 84.25253-26.00426 85.4909-26.63246 86.26309-27.01192 87.03528-27.39136 88.27364-27.98666 89.04582-28.34238 89.81801-28.69809 91.05637-29.24971 91.82855-29.5756 92.60074-29.90152 93.8391-30.4009 94.61128-30.69138 95.38348-30.98186 96.62183-31.41914 97.39403-31.66924 98.1662-31.91934 99.40456-32.28854 100.17676-32.49399 100.94894-32.69945 102.1873-32.99275 102.95949-33.15005 103.73167-33.30734 104.97003-33.52129 105.74222-33.62775 106.5144-33.7342 107.75278-33.86357 108.52495-33.91736 109.29713-33.97116 110.5355-34.01527 111.3077-34.01547 112.07988-34.01566 113.31824-33.97215 114.09041-33.91875 114.8626-33.86534 116.10097-33.73659 116.87315-33.63051 117.64534-33.52443 118.88368-33.31117 119.65587-33.1542 120.42807-32.99724 121.66643-32.70433 122.43861-32.49918 123.21082-32.29402 124.44916-31.92546 125.22134-31.67564 125.99355-31.42583 127.23189-30.98886 128.00409-30.69864 128.77628-30.40842 130.01462-29.90956 130.78682-29.58391 131.559-29.25827 132.79737-28.70706 133.56957-28.35155 134.34175-27.99603 135.5801-27.40092 136.35228-27.0216 137.12447-26.64227 138.36284-26.01418 139.13503-25.6176 139.90721-25.22102 141.14557-24.57037 141.91776-24.16327 142.68994-23.75615 143.9283-23.09409 144.70049-22.68349 145.47267-22.27289 146.71103-21.61101 147.48322-21.20387 148.2554-20.79675 149.49376-20.1459 150.26595-19.74919 151.03813-19.3525 152.27649-18.72418 153.04868-18.34468 153.82088-17.96518 155.83142-17.01404 155.83142-17.01404"/>
</svg>
