<svg xmlns="http://www.w3.org/2000/svg" xmlns:xlink="http://www.w3.org/1999/xlink" version="1.1" width="98pt" height="97pt" viewBox="0 0 98 97">
<defs>
<path id="font_1_2" d="M.2939911 .64004519C.2939911 .66400149 .2939911 .6660156 .2709961 .6660156 .20899964 .60227969 .12098694 .60227969 .08898926 .60227969V.57128909C.10899353 .57128909 .16799927 .57128909 .21998596 .5972748V.07902527C.21998596 .042999269 .21699524 .0309906 .1269989 .0309906H.09498596V0C.12998963 .0029907227 .21699524 .0029907227 .25698854 .0029907227 .29699708 .0029907227 .38398744 .0029907227 .4189911 0V.0309906H.3869934C.29699708 .0309906 .2939911 .041992189 .2939911 .07902527V.64004519Z"/>
<path id="font_1_1" d="M.45999146 .31976319C.45999146 .39982606 .45498658 .47988893 .41999818 .5539398 .37399293 .65000918 .2919922 .6660156 .25 .6660156 .18998719 .6660156 .116989139 .64001467 .07598877 .54693606 .04399109 .47789 .038986207 .39982606 .038986207 .31976319 .038986207 .24472046 .042999269 .15464783 .083999637 .07859802 .1269989-.0024719239 .19999695-.022460938 .24899292-.022460938 .30299378-.022460938 .3789978-.0014648438 .4229889 .09359741 .45498658 .16265869 .45999146 .2407074 .45999146 .31976319M.24899292-.00047302247C.20999146-.00047302247 .15098572 .024551392 .1329956 .12062073 .12199402 .18066406 .12199402 .2727356 .12199402 .3317871 .12199402 .39582826 .12199402 .46188355 .12998963 .5159149 .14898682 .63500979 .22399903 .64401248 .24899292 .64401248 .28199769 .64401248 .34799195 .6259918 .36698915 .52693179 .3769989 .47088624 .3769989 .39482118 .3769989 .3317871 .3769989 .25672914 .3769989 .18867493 .3659973 .12461853 .35099793 .029556275 .2939911-.00047302247 .24899292-.00047302247Z"/>
<path id="font_1_3" d="M.1269989 .07699585 .23298645 .18003845C.3889923 .31811524 .44898988 .3721466 .44898988 .47216798 .44898988 .5860901 .35899354 .6660156 .23699951 .6660156 .12399292 .6660156 .049987794 .57411196 .049987794 .48516847 .049987794 .4291687 .099990848 .4291687 .102996829 .4291687 .11999512 .4291687 .15499878 .44117738 .15499878 .48217774 .15499878 .5081787 .13699341 .5341797 .101989749 .5341797 .09399414 .5341797 .09199524 .5341797 .08898926 .5331726 .11199951 .59806826 .1659851 .63500979 .22399903 .63500979 .31498719 .63500979 .35798646 .5541382 .35798646 .47216798 .35798646 .39215089 .30799867 .31311036 .25299073 .25108338L.06098938 .036987306C.049987794 .025985718 .049987794 .023986817 .049987794 0H.42099L.44898988 .17404175H.42399598C.4189911 .14402771 .4119873 .1000061 .4019928 .084991458 .394989 .07699585 .32899476 .07699585 .30699159 .07699585H.1269989Z"/>
<path id="font_1_4" d="M.2899933 .35191346C.37199403 .37893678 .42999269 .4490509 .42999269 .52809146 .42999269 .6100464 .34199525 .6660156 .24598694 .6660156 .14498902 .6660156 .068984989 .60606387 .068984989 .53009036 .068984989 .49710084 .09098816 .47808839 .11999512 .47808839 .15098572 .47808839 .17098999 .50009158 .17098999 .5290985 .17098999 .57910159 .12399292 .57910159 .10899353 .57910159 .13999939 .62802127 .20599365 .64100649 .24198914 .64100649 .2829895 .64100649 .33799745 .6190338 .33799745 .5290985 .33799745 .51708987 .33599855 .45906068 .30999757 .4149933 .27999879 .36691285 .24598694 .36390687 .22099304 .36291505 .21299744 .36190797 .18899536 .35990907 .18199158 .35990907 .17399597 .35890199 .16699219 .35791017 .16699219 .3479004 .16699219 .33691407 .17399597 .33691407 .19099427 .33691407H.23498535C.31698609 .33691407 .35398866 .2686615 .35398866 .17037964 .35398866 .034469606 .2849884 .0055389406 .24099732 .0055389406 .19799805 .0055389406 .12298584 .022491456 .08799744 .08137512 .12298584 .07637024 .1539917 .09837341 .1539917 .1363678 .1539917 .17237854 .1269989 .19238281 .09799194 .19238281 .07398987 .19238281 .041992189 .17837525 .041992189 .1343689 .041992189 .043441774 .1349945-.022460938 .24398804-.022460938 .3659973-.022460938 .45700074 .06838989 .45700074 .17037964 .45700074 .252594 .3939972 .33088685 .2899933 .35191346Z"/>
<path id="font_1_5" d="M.2939911 .16503906V.07800293C.2939911 .041992189 .2919922 .0309906 .21798706 .0309906H.19699097V0C.23799134 .0029907227 .2899933 .0029907227 .33198548 .0029907227 .37399293 .0029907227 .4269867 .0029907227 .46798707 0V.0309906H.44699098C.37298585 .0309906 .37098695 .041992189 .37098695 .07800293V.16503906H.47099305V.19602967H.37098695V.65075686C.37098695 .67074587 .37098695 .6767578 .35499574 .6767578 .34599305 .6767578 .34298707 .6767578 .33499146 .66474917L.027999878 .19602967V.16503906H.2939911M.2999878 .19602967H.055999757L.2999878 .5688019V.19602967Z"/>
</defs>
<path transform="matrix(1.00006,0,0,-1.00002,46.7629,50.149728)" stroke-width=".3985" stroke-linecap="butt" stroke-miterlimit="10" stroke-linejoin="miter" fill="none" stroke="#00aeef" d="M0 0H45.34726"/>
<path transform="matrix(1.00006,0,0,-1.00002,46.7629,50.149728)" stroke-width=".3985" stroke-linecap="butt" stroke-miterlimit="10" stroke-linejoin="miter" fill="none" stroke="#00aeef" d="M0 0 43.80215 11.73676"/>
<path transform="matrix(1.00006,0,0,-1.00002,46.7629,50.149728)" stroke-width=".3985" stroke-linecap="butt" stroke-miterlimit="10" stroke-linejoin="miter" fill="none" stroke="#00aeef" d="M0 0 39.27199 22.67361"/>
<path transform="matrix(1.00006,0,0,-1.00002,46.7629,50.149728)" stroke-width=".3985" stroke-linecap="butt" stroke-miterlimit="10" stroke-linejoin="miter" fill="none" stroke="#00aeef" d="M0 0 32.06538 32.06538"/>
<path transform="matrix(1.00006,0,0,-1.00002,46.7629,50.149728)" stroke-width=".3985" stroke-linecap="butt" stroke-miterlimit="10" stroke-linejoin="miter" fill="none" stroke="#00aeef" d="M0 0 22.67361 39.27199"/>
<path transform="matrix(1.00006,0,0,-1.00002,46.7629,50.149728)" stroke-width=".3985" stroke-linecap="butt" stroke-miterlimit="10" stroke-linejoin="miter" fill="none" stroke="#00aeef" d="M0 0 11.73676 43.80215"/>
<path transform="matrix(1.00006,0,0,-1.00002,46.7629,50.149728)" stroke-width=".3985" stroke-linecap="butt" stroke-miterlimit="10" stroke-linejoin="miter" fill="none" stroke="#00aeef" d="M0 0V45.34726"/>
<path transform="matrix(1.00006,0,0,-1.00002,46.7629,50.149728)" stroke-width=".3985" stroke-linecap="butt" stroke-miterlimit="10" stroke-linejoin="miter" fill="none" stroke="#00aeef" d="M0 0-11.73676 43.80215"/>
<path transform="matrix(1.00006,0,0,-1.00002,46.7629,50.149728)" stroke-width=".3985" stroke-linecap="butt" stroke-miterlimit="10" stroke-linejoin="miter" fill="none" stroke="#00aeef" d="M0 0-22.67361 39.27199"/>
<path transform="matrix(1.00006,0,0,-1.00002,46.7629,50.149728)" stroke-width=".3985" stroke-linecap="butt" stroke-miterlimit="10" stroke-linejoin="miter" fill="none" stroke="#00aeef" d="M0 0-32.06538 32.06538"/>
<path transform="matrix(1.00006,0,0,-1.00002,46.7629,50.149728)" stroke-width=".3985" stroke-linecap="butt" stroke-miterlimit="10" stroke-linejoin="miter" fill="none" stroke="#00aeef" d="M0 0-39.27199 22.67361"/>
<path transform="matrix(1.00006,0,0,-1.00002,46.7629,50.149728)" stroke-width=".3985" stroke-linecap="butt" stroke-miterlimit="10" stroke-linejoin="miter" fill="none" stroke="#00aeef" d="M0 0-43.80215 11.73676"/>
<path transform="matrix(1.00006,0,0,-1.00002,46.7629,50.149728)" stroke-width=".3985" stroke-linecap="butt" stroke-miterlimit="10" stroke-linejoin="miter" fill="none" stroke="#00aeef" d="M0 0H-45.34726"/>
<path transform="matrix(1.00006,0,0,-1.00002,46.7629,50.149728)" stroke-width=".3985" stroke-linecap="butt" stroke-miterlimit="10" stroke-linejoin="miter" fill="none" stroke="#00aeef" d="M0 0-43.80215-11.73676"/>
<path transform="matrix(1.00006,0,0,-1.00002,46.7629,50.149728)" stroke-width=".3985" stroke-linecap="butt" stroke-miterlimit="10" stroke-linejoin="miter" fill="none" stroke="#00aeef" d="M0 0-39.27199-22.67361"/>
<path transform="matrix(1.00006,0,0,-1.00002,46.7629,50.149728)" stroke-width=".3985" stroke-linecap="butt" stroke-miterlimit="10" stroke-linejoin="miter" fill="none" stroke="#00aeef" d="M0 0-32.06538-32.06538"/>
<path transform="matrix(1.00006,0,0,-1.00002,46.7629,50.149728)" stroke-width=".3985" stroke-linecap="butt" stroke-miterlimit="10" stroke-linejoin="miter" fill="none" stroke="#00aeef" d="M0 0-22.67361-39.27199"/>
<path transform="matrix(1.00006,0,0,-1.00002,46.7629,50.149728)" stroke-width=".3985" stroke-linecap="butt" stroke-miterlimit="10" stroke-linejoin="miter" fill="none" stroke="#00aeef" d="M0 0-11.73676-43.80215"/>
<path transform="matrix(1.00006,0,0,-1.00002,46.7629,50.149728)" stroke-width=".3985" stroke-linecap="butt" stroke-miterlimit="10" stroke-linejoin="miter" fill="none" stroke="#00aeef" d="M0 0V-45.34726"/>
<path transform="matrix(1.00006,0,0,-1.00002,46.7629,50.149728)" stroke-width=".3985" stroke-linecap="butt" stroke-miterlimit="10" stroke-linejoin="miter" fill="none" stroke="#00aeef" d="M0 0 11.73676-43.80215"/>
<path transform="matrix(1.00006,0,0,-1.00002,46.7629,50.149728)" stroke-width=".3985" stroke-linecap="butt" stroke-miterlimit="10" stroke-linejoin="miter" fill="none" stroke="#00aeef" d="M0 0 22.67361-39.27199"/>
<path transform="matrix(1.00006,0,0,-1.00002,46.7629,50.149728)" stroke-width=".3985" stroke-linecap="butt" stroke-miterlimit="10" stroke-linejoin="miter" fill="none" stroke="#00aeef" d="M0 0 32.06538-32.06538"/>
<path transform="matrix(1.00006,0,0,-1.00002,46.7629,50.149728)" stroke-width=".3985" stroke-linecap="butt" stroke-miterlimit="10" stroke-linejoin="miter" fill="none" stroke="#00aeef" d="M0 0 39.27199-22.67361"/>
<path transform="matrix(1.00006,0,0,-1.00002,46.7629,50.149728)" stroke-width=".3985" stroke-linecap="butt" stroke-miterlimit="10" stroke-linejoin="miter" fill="none" stroke="#00aeef" d="M0 0 43.80215-11.73676"/>
<path transform="matrix(1.00006,0,0,-1.00002,46.7629,50.149728)" stroke-width=".3985" stroke-linecap="butt" stroke-miterlimit="10" stroke-linejoin="miter" fill="none" stroke="#00aeef" d="M11.3368 0C11.3368 6.26122 6.26122 11.3368 0 11.3368-6.26122 11.3368-11.3368 6.26122-11.3368 0-11.3368-6.26122-6.26122-11.3368 0-11.3368 6.26122-11.3368 11.3368-6.26122 11.3368 0ZM0 0"/>
<path transform="matrix(1.00006,0,0,-1.00002,46.7629,50.149728)" d="M-6.97394 6.13403H6.9739506V16.53956H-6.97394Z" fill="#ffffff"/>
<use data-text="1" xlink:href="#font_1_2" transform="matrix(9.963197,0,0,-9.962799,41.7816,42.022565)"/>
<use data-text="0" xlink:href="#font_1_1" transform="matrix(9.963197,0,0,-9.962799,46.763185,42.022565)"/>
<path transform="matrix(1.00006,0,0,-1.00002,46.7629,50.149728)" stroke-width=".3985" stroke-linecap="butt" stroke-miterlimit="10" stroke-linejoin="miter" fill="none" stroke="#00aeef" d="M22.67361 0C22.67361 12.52245 12.52245 22.67361 0 22.67361-12.52245 22.67361-22.67361 12.52245-22.67361 0-22.67361-12.52245-12.52245-22.67361 0-22.67361 12.52245-22.67361 22.67361-12.52245 22.67361 0ZM0 0"/>
<path transform="matrix(1.00006,0,0,-1.00002,46.7629,50.149728)" d="M-6.97394 17.47086H6.9739506V27.876389H-6.97394Z" fill="#ffffff"/>
<use data-text="2" xlink:href="#font_1_3" transform="matrix(9.963197,0,0,-9.962799,41.7816,30.686339)"/>
<use data-text="0" xlink:href="#font_1_1" transform="matrix(9.963197,0,0,-9.962799,46.763185,30.686339)"/>
<path transform="matrix(1.00006,0,0,-1.00002,46.7629,50.149728)" stroke-width=".3985" stroke-linecap="butt" stroke-miterlimit="10" stroke-linejoin="miter" fill="none" stroke="#00aeef" d="M34.01045 0C34.01045 18.78368 18.78368 34.01045 0 34.01045-18.78368 34.01045-34.01045 18.78368-34.01045 0-34.01045-18.78368-18.78368-34.01045 0-34.01045 18.78368-34.01045 34.01045-18.78368 34.01045 0ZM0 0"/>
<path transform="matrix(1.00006,0,0,-1.00002,46.7629,50.149728)" d="M-6.97394 28.80768H6.9739506V39.21321H-6.97394Z" fill="#ffffff"/>
<use data-text="3" xlink:href="#font_1_4" transform="matrix(9.963197,0,0,-9.962799,41.7816,19.349112)"/>
<use data-text="0" xlink:href="#font_1_1" transform="matrix(9.963197,0,0,-9.962799,46.763185,19.349112)"/>
<path transform="matrix(1.00006,0,0,-1.00002,46.7629,50.149728)" stroke-width=".3985" stroke-linecap="butt" stroke-miterlimit="10" stroke-linejoin="miter" fill="none" stroke="#00aeef" d="M45.34726 0C45.34726 25.04492 25.04492 45.34726 0 45.34726-25.04492 45.34726-45.34726 25.04492-45.34726 0-45.34726-25.04492-25.04492-45.34726 0-45.34726 25.04492-45.34726 45.34726-25.04492 45.34726 0ZM0 0"/>
<path transform="matrix(1.00006,0,0,-1.00002,46.7629,50.149728)" d="M-6.97394 40.1445H6.9739506V50.55003H-6.97394Z" fill="#ffffff"/>
<use data-text="4" xlink:href="#font_1_5" transform="matrix(9.963197,0,0,-9.962799,41.7816,8.011883)"/>
<use data-text="0" xlink:href="#font_1_1" transform="matrix(9.963197,0,0,-9.962799,46.763185,8.011883)"/>
<path transform="matrix(1.00006,0,0,-1.00002,46.7629,50.149728)" stroke-width="1.19553" stroke-linecap="butt" stroke-miterlimit="10" stroke-linejoin="miter" fill="none" stroke="#ff0000" d="M1.13367 0C1.13367 0 1.14021 .12173 1.13794 .16875 1.13565 .21577 1.1265 .29199 1.1172 .33887 1.10791 .38573 1.0873 .46086 1.07098 .50652 1.05469 .55219 1.02287 .62454 .99973 .66795 .97656 .71136 .93382 .77928 .9041 .81941 .87437 .85953 .82135 .92131 .78555 .95717 .74976 .99303 .68733 1.0472 .64604 1.07787 .60477 1.10852 .53404 1.15355 .48804 1.17819 .44202 1.20284 .36429 1.23755 .31444 1.25543 .26459 1.27332 .1814 1.29654 .12871 1.30707 .076 1.3176-.01086 1.32855-.06534 1.33127-.11981 1.33398-.20876 1.33205-.26385 1.32668-.31895 1.32129-.40793 1.30609-.46242 1.29248-.51694 1.27887-.604 1.25037-.65668 1.2286-.70937 1.20683-.79248 1.16524-.84213 1.13553-.89178 1.10583-.96907 1.05174-1.0145 1.01453-1.05992 .97731-1.12943 .91145-1.16948 .86734-1.20952 .82323-1.26953 .7468-1.30315 .69655-1.33679 .6463-1.38557 .56062-1.41185 .50517-1.43811 .4497-1.4744 .35645-1.49252 .29686-1.51067 .23727-1.53317 .13824-1.5425 .07573-1.55179 .01323-1.55963-.08943-1.5597-.15355-1.55974-.21767-1.55238-.322-1.5429-.38638-1.53339-.45078-1.51033-.5544-1.4912-.61761-1.47206-.68085-1.43361-.78146-1.40501-.84207-1.3764-.9027-1.32275-.99796-1.285-1.05453-1.24724-1.11113-1.17923-1.19873-1.1329-1.24991-1.08658-1.3011-1.00526-1.37897-.95116-1.42346-.89703-1.46794-.8038-1.53398-.74284-1.57059-.68187-1.60718-.57846-1.65956-.51181-1.68723-.44518-1.71489-.33356-1.75206-.26254-1.76993-.19154-1.7878-.07393-1.80861 0-1.81595 .0739-1.82329 .195-1.82646 .27032-1.82283 .34566-1.81918 .46776-1.80455 .54285-1.78967 .6179-1.77483 .73827-1.74179 .81142-1.71567 .88455-1.68958 1.00046-1.63857 1.07-1.60147 1.13954-1.56436 1.24834-1.4959 1.31262-1.4483 1.37689-1.40068 1.47586-1.31573 1.5333-1.25839 1.59074-1.20103 1.67749-1.10104 1.72662-1.03491 1.77574-.96878 1.84787-.85547 1.88734-.78175 1.92683-.70805 1.98248-.58359 2.01112-.50372 2.03976-.42386 2.07692-.29059 2.09378-.20618 2.11064-.12178 2.12823 .01741 2.13261 .10466 2.13698 .1919 2.13385 .33435 2.12523 .4226 2.1166 .51085 2.09225 .65343 2.07045 .74074 2.04866 .82806 2.00296 .96751 1.96808 1.0519 1.9332 1.13629 1.86662 1.26945 1.81906 1.34898 1.77148 1.42853 1.68484 1.55237 1.62521 1.6251 1.56561 1.69788 1.46005 1.80914 1.38937 1.8733 1.31871 1.93745 1.19632 2.03357 1.11583 2.08746 1.03534 2.14134 .89812 2.21954 .80928 2.26164 .72044 2.30373 .57104 2.3618 .47559 2.39084 .38014 2.41988 .2215 2.45596 .12138 2.4709 .02127 2.48584-.1432 2.49838-.24593 2.49849-.34866 2.49858-.51581 2.48679-.61897 2.47157-.72212 2.45636-.88808 2.41942-.98936 2.38876-1.09064 2.35812-1.25185 2.29652-1.34895 2.25069-1.44604 2.20486-1.5986 2.11894-1.68925 2.05846-1.7799 1.998-1.92027 1.88907-2.00227 1.81485-2.08427 1.74063-2.20895 1.6103-2.28024 1.5236-2.35152 1.43692-2.45732 1.28763-2.51595 1.18999-2.57458 1.09236-2.65852 .92668-2.70285 .81993-2.74716 .71317-2.80669 .53433-2.8353 .42056-2.8639 .3068-2.89725 .11844-2.90901 .00002-2.92076-.1184-2.92592-.31232-2.92007-.43297-2.91423-.55362-2.89069-.74925-2.86687-.86952-2.84305-.98978-2.79024-1.18262-2.74841-1.29979-2.7066-1.41695-2.62491-1.60265-2.56546-1.71404-2.50603-1.82541-2.39629-1.99962-2.32002-2.10258-2.24377-2.20555-2.10773-2.36414-2.01587-2.45618-1.924-2.5482-1.76385-2.68718-1.65791-2.76587-1.55197-2.84457-1.37042-2.96008-1.25235-3.02332-1.1343-3.08656-.93492-3.17577-.80699-3.22163-.67905-3.26752-.46558-3.327-.33035-3.35399-.19513-3.381 .02785-3.40927 .16762-3.41626 .3074-3.42323 .53566-3.41814 .67703-3.40433 .8184-3.3905 1.04669-3.35156 1.18655-3.31665 1.32642-3.28175 1.54984-3.20865 1.68503-3.15276 1.82022-3.09688 2.03352-2.9901 2.16093-2.91388 2.28836-2.83768 2.48677-2.69893 2.60335-2.60347 2.7199-2.50798 2.89824-2.339 3.001-2.22577 3.10376-2.11256 3.2577-1.91644 3.34401-1.7875 3.4303-1.65855 3.55556-1.43874 3.62299-1.29643 3.69043-1.15413 3.78348-.91476 3.82997-.76189 3.87648-.609 3.93423-.3549 3.95815-.19453 3.98206-.03415 4.00218 .22942 4.00235 .39398 4.0025 .55855 3.98366 .82626 3.95929 .9915 3.93492 1.15671 3.87578 1.42258 3.82669 1.58482 3.7776 1.74709 3.67894 2.00536 3.60551 2.1609 3.53207 2.31647 3.39432 2.56075 3.29745 2.70596 3.20058 2.85115 3.02614 3.07608 2.90727 3.20746 2.78842 3.33884 2.57968 3.53862 2.4408 3.65279 2.3019 3.76694 2.06267 3.93631 1.90627 4.03023 1.74985 4.12415 1.48448 4.25865 1.31349 4.32964 1.14249 4.40063 .85603 4.49605 .6738 4.54187 .49158 4.58769 .18985 4.64102 .00012 4.65987-.18958 4.67873-.5003 4.68706-.69359 4.6777-.88687 4.66835-1.20027 4.63065-1.39291 4.59251-1.58557 4.55435-1.89441 4.46976-2.08209 4.40274-2.26978 4.33574-2.56715 4.20479-2.74562 4.10959-2.92409 4.01437-3.20338 3.83873-3.36835 3.71658-3.5333 3.59445-3.78712 3.37643-3.93454 3.22926-4.08195 3.08209-4.30467 2.82558-4.43074 2.6559-4.55681 2.4862-4.74185 2.1954-4.84314 2.00626-4.94444 1.81711-5.08731 1.49763-5.16081 1.29271-5.23431 1.08778-5.32962 .74593-5.3729 .52931-5.41614 .31268-5.46135-.04463-5.47253-.26854-5.48373-.49243-5.47568-.85796-5.45357-1.08444-5.43144-1.3109-5.36906-1.6767-5.31313-1.90074-5.25722-2.12479-5.14003-2.4826-5.05052-2.69919-4.96101-2.91576-4.79013-3.25754-4.66805-3.46165-4.54597-3.66576-4.32364-3.98361-4.17067-4.1703-4.01772-4.35698-3.747-4.64258-3.56561-4.80717-3.38423-4.97179-3.06993-5.2183-2.86337-5.3566-2.65681-5.49486-2.30481-5.6957-2.07689-5.80374-1.84897-5.91179-1.4656-6.06084-1.22069-6.13535-.97577-6.20984-.56863-6.30235-.3117-6.34065-.05476-6.37895 .3675-6.41115 .63112-6.41138 .89474-6.41162 1.32362-6.3814 1.5883-6.34235 1.85297-6.30331 2.27875-6.20862 2.53867-6.13 2.79857-6.05139 3.21233-5.89339 3.46153-5.77577 3.71072-5.65814 4.1021-5.43742 4.3347-5.28224 4.56732-5.12706 4.92764-4.84772 5.13808-4.65733 5.34851-4.46693 5.66846-4.13252 5.85132-3.91005 6.03421-3.68755 6.3056-3.30435 6.45607-3.05382 6.60654-2.80327 6.8221-2.3782 6.93582-2.10425 7.04953-1.8303 7.20227-1.37132 7.27567-1.07938 7.34908-.78746 7.43466-.30412 7.46486-.0002 7.49506 .30367 7.50835 .80138 7.49335 1.11096 7.47836 1.42058 7.41792 1.9225 7.35681 2.23112 7.29572 2.53975 7.16026 3.03465 7.05296 3.33534 6.94565 3.63602 6.73596 4.11234 6.58342 4.39821 6.4309 4.68407 6.14929 5.13138 5.95363 5.39563 5.75797 5.65988 5.40889 6.06668 5.17317 6.30284 4.93745 6.53899 4.52658 6.89575 4.25475 7.09767 3.98293 7.2996 3.517 7.59593 3.21399 7.75816 2.91101 7.92041 2.39923 8.14922 2.07095 8.26698 1.74269 8.38474 1.19508 8.53757 .84805 8.6069 .50102 8.67622-.07147 8.74873-.43016 8.76666-.78886 8.78459-1.37436 8.77158-1.73715 8.73615-2.09995 8.70071-2.68604 8.60083-3.04494 8.51125-3.40384 8.42168-3.97696 8.23392-4.32388 8.09052-4.67079 7.94711-5.21829 7.67325-5.54526 7.47769-5.87222 7.28214-6.38138 6.92606-6.68045 6.68103-6.97954 6.43602-7.43713 6.0023-7.70084 5.7118-7.96455 5.42128-8.3596 4.91808-8.58107 4.58717-8.80254 4.25629-9.12395 3.69214-9.29703 3.32698-9.4701 2.9618-9.70909 2.34766-9.82845 1.9553-9.94783 1.56296-10.09604 .91074-10.1574 .4992-10.21873 .08768-10.27023-.58844-10.27061-1.01071-10.271-1.43298-10.22266-2.12013-10.16011-2.54416-10.09758-2.9682-9.9459-3.65042-9.81995-4.06679-9.69402-4.48318-9.44083-5.14589-9.25244-5.54506-9.06406-5.94424-8.71075-6.57115-8.46216-6.94377-8.21356-7.31639-7.76572-7.89352-7.4607-8.23065-7.1557-8.56776-6.62025-9.08052-6.26384-9.3735-5.90744-9.66649-5.29333-10.10127-4.89195-10.34229-4.4906-10.58328-3.80984-10.92834-3.37103-11.11047-2.9322-11.29263-2.19691-11.53741-1.72928-11.65501-1.26163-11.77261-.48738-11.90967-.00052-11.95805 .48631-12.00644 1.28372-12.02777 1.77971-12.0038 2.27568-11.97981 3.07974-11.88316 3.5741-11.78525 4.06845-11.68735 4.861-11.47006 5.34268-11.29814 5.82437-11.12622 6.58783-10.79045 7.04576-10.54613 7.50371-10.30179 8.21985-9.85068 8.64319-9.53725 9.06651-9.22382 9.71844-8.66472 10.09679-8.28712 10.47511-7.90953 11.04643-7.25127 11.36993-6.8158 11.69344-6.38034 12.1684-5.63402 12.42831-5.14865 12.68822-4.66325 13.05452-3.84344 13.24316-3.31755 13.43181-2.79166 13.6769-1.91418 13.78793-1.35832 13.89896-.80246 14.01472 .11414 14.04343 .68867 14.07214 1.26323 14.05165 2.20146 13.99487 2.78262 13.93811 3.36378 13.77774 4.30235 13.63426 4.87729 13.49078 5.45224 13.19048 6.37064 12.9608 6.9264 12.73111 7.48216 12.2922 8.35907 11.97891 8.88286 11.66562 9.40665 11.0953 10.22234 10.70282 10.70145 10.31033 11.18056 9.61557 11.91351 9.15015 12.33597 8.68472 12.75844 7.87842 13.3915 7.34837 13.7463 6.81831 14.10114 5.91476 14.61609 5.32986 14.8933 4.74495 15.1705 3.76123 15.55298 3.13274 15.7442 2.50426 15.93542 1.45952 16.17316 .8002 16.27144 .14088 16.36974-.94263 16.45207-1.61908 16.45265-2.29555 16.45322-3.39604 16.37573-4.07527 16.27557-4.75452 16.17543-5.84761 15.93253-6.5146 15.7308-7.18161 15.52908-8.24304 15.1235-8.88249 14.82166-9.52194 14.51982-10.52641 13.95364-11.12335 13.5554-11.72029 13.15715-12.64476 12.43997-13.18477 11.95139-13.72481 11.46281-14.5462 10.60501-15.01549 10.03412-15.48477 9.46321-16.18094 8.47969-16.56706 7.83675-16.95319 7.1938-17.50659 6.10313-17.79843 5.40016-18.0903 4.69719-18.48222 3.51933-18.67058 2.77019-18.85893 2.02104-19.07845 .78073-19.15596 .00084-19.23347-.779-19.26768-2.05621-19.22925-2.85066-19.19081-3.64514-19.03575-4.93315-18.87895-5.7251-18.72214-6.51703-18.37442-7.78676-18.09904-8.5584-17.82365-9.33003-17.2855-10.5529-16.89417-11.28653-16.5028-12.02017-15.78053-13.16783-15.27847-13.84593-14.77641-14.52405-13.88057-15.56792-13.27563-16.17392-12.6707-16.77995-11.6161-17.69545-10.91852-18.21367-10.22095-18.73187-9.02548-19.49245-8.24803-19.90884-7.47058-20.32526-6.15761-20.91261-5.31522-21.21484-4.47281-21.51707-3.06717-21.90924-2.1766-22.0871-1.28607-22.26497 .18279-22.45076 1.10326-22.49677 2.02374-22.54277 3.52658-22.50963 4.45755-22.41864 5.38852-22.32767 6.89204-22.07088 7.81305-21.84103 8.73405-21.61122 10.20529-21.13011 11.09555-20.76218 11.98582-20.39421 13.39046-19.69095 14.2295-19.18909 15.06854-18.68721 16.37527-17.77373 17.14278-17.145 17.91028-16.51628 19.08438-15.40321 19.76111-14.6577 20.43785-13.91216 21.4519-12.62086 22.02023-11.77176 22.58858-10.92265 23.41321-9.47502 23.85732-8.53795 24.30139-7.60089 24.91454-6.0248 25.2209-5.01802 25.52728-4.01125 25.90787-2.33792 26.06544-1.28188 26.22299-.2258 26.35551 1.50967 26.35648 2.59326 26.35745 3.67688 26.23299 5.43983 26.0725 6.52795 25.91199 7.61604 25.52292 9.3671 25.19977 10.4356 24.8766 11.50406 24.2269 13.20445 23.74342 14.2288 23.25996 15.25316 22.3531 16.86223 21.71526 17.81844 21.07742 18.77461 19.92905 20.25536 19.14636 21.12042 18.3637 21.98547 16.98889 23.30128 16.0743 24.05318 15.1597 24.80507 13.58449 25.92104 12.55455 26.5396 11.5246 27.15814 9.77719 28.04382 8.65112 28.51129 7.52507 28.97873 5.6387 29.60683 4.43861 29.90868 3.23854 30.21051 1.25131 30.56247 .00185 30.6867-1.24757 30.81094-3.29376 30.86559-4.56659 30.80402-5.83942 30.74246-7.9032 30.49432-9.1718 30.24304-10.4404 29.99174-12.47375 29.43416-13.70975 28.99292-14.94574 28.55168-16.9048 27.68982-18.08 27.0629-19.25522 26.43599-21.09349 25.27881-22.17978 24.47456-23.26607 23.6703-24.93843 22.23535-25.90923 21.2664-26.88002 20.29744-28.34647 18.60844-29.17664 17.49101-30.00677 16.37358-31.2254 14.45822-31.89246 13.21274-32.5595 11.96727-33.5001 9.86395-33.98424 8.51448-34.46837 7.16502-35.09679 4.91328-35.38171 3.48679-35.66663 2.06027-35.964-.29237-36.03778-1.76677-36.11157-3.24115-36.05911-5.64816-35.91347-7.13954-35.76784-8.6309-35.35631-11.04005-34.9881-12.51549-34.61992-13.99095-33.84914-16.34737-33.2597-17.77354-32.67027-19.19969-31.5438-21.4502-30.73988-22.7943-29.93597-24.13841-28.47278-26.23146-27.46565-27.4609-26.45853-28.69037-24.67555-30.5712-23.48122-31.65533-22.28687-32.73944-20.21786-34.36389-18.85767-35.27452-17.49748-36.18515-15.17886-37.50706-13.6779-38.2185-12.17693-38.92995-9.65256-39.91145-8.03978-40.40213-6.427-40.8928-3.74602-41.50253-2.05411-41.75497-.3622-42.00743 2.41835-42.22006 4.1543-42.22163 5.89024-42.2232 8.71425-42.02339 10.45732-41.76628 12.2004-41.50917 15.00562-40.88629 16.71721-40.36856 18.4288-39.85083 21.1524-38.80933 22.79327-38.03482 24.43416-37.26035 27.01176-35.80844 28.54352-34.78659 30.07526-33.76474 32.44727-31.92392 33.83302-30.67006 35.2188-29.41621 37.32683-27.2147 38.53119-25.74968 39.73555-24.28467 41.52232-21.76112 42.51323-20.1112 43.50412-18.46127 44.92383-15.66208 45.67287-13.85822 46.42189-12.05435 47.42818-9.03255 47.91167-7.11028 48.39516-5.18799 49.15749-.00372 49.15749-.00372"/>
</svg>
