<svg xmlns="http://www.w3.org/2000/svg" xmlns:xlink="http://www.w3.org/1999/xlink" version="1.1" width="193" height="149" viewBox="0 0 193 149">
<defs>
<path id="font_1_2" d="M.33399964 .30233766C.33999635 .32835389 .36299134 .42037965 .43299867 .42037965 .43798829 .42037965 .46199037 .42037965 .48298646 .40734864 .45498658 .402359 .43499757 .37734986 .43499757 .35334779 .43499757 .33735658 .44599916 .31835938 .47299195 .31835938 .49499513 .31835938 .5269928 .3363495 .5269928 .37635804 .5269928 .42837525 .46798707 .4423828 .43399049 .4423828 .37599183 .4423828 .34098817 .38935853 .32899476 .36634828 .3039856 .43237306 .25 .4423828 .22099304 .4423828 .116989139 .4423828 .05999756 .3133545 .05999756 .28834535 .05999756 .27833558 .069992069 .27833558 .07199097 .27833558 .07998657 .27833558 .08299255 .28033448 .084991458 .28933717 .11898804 .39535523 .18499756 .42037965 .21899414 .42037965 .23799134 .42037965 .272995 .4113617 .272995 .35334779 .272995 .32235719 .2559967 .25532533 .21899414 .11528015 .20298767 .053268434 .16799927 .011245728 .12399292 .011245728 .117996219 .011245728 .09498596 .011245728 .07398987 .024276734 .09899902 .029266358 .12098694 .05027771 .12098694 .07827759 .12098694 .105270389 .09899902 .11328125 .083999637 .11328125 .053985597 .11328125 .0289917 .08728027 .0289917 .055267335 .0289917 .009246826 .07899475-.0107421879 .12298584-.0107421879 .18899536-.0107421879 .22499085 .059280397 .22799683 .0652771 .23999024 .028274537 .27598573-.0107421879 .33599855-.0107421879 .43899537-.0107421879 .49598695 .118270877 .49598695 .14328003 .49598695 .1532898 .4869995 .1532898 .48399354 .1532898 .47499085 .1532898 .47299195 .14929199 .47099305 .14228821 .43798829 .03527832 .36999513 .011245728 .33799745 .011245728 .29899598 .011245728 .2829895 .043273927 .2829895 .07727051 .2829895 .09927368 .2889862 .121276859 .2999878 .16529846L.33399964 .30233766Z"/>
<path id="font_1_3" d="M.48599244 .38136292C.48999024 .39537049 .48999024 .39736939 .48999024 .40437318 .48999024 .42237855 .47599793 .43138124 .46099855 .43138124 .45098878 .43138124 .43499757 .42536927 .42599488 .41036988 .42399598 .405365 .41600038 .37435914 .4119873 .35635377 .40499879 .33035279 .397995 .30334474 .3919983 .27633668L.34700013 .09628296C.34298707 .08126831 .2999878 .011245728 .23399353 .011245728 .18299866 .011245728 .17199707 .055267335 .17199707 .0922699 .17199707 .1382904 .18899536 .20030213 .22299195 .28833009 .23899842 .3293457 .24299622 .3403473 .24299622 .36035157 .24299622 .405365 .21099854 .4423828 .16099549 .4423828 .06599426 .4423828 .0289917 .29733277 .0289917 .28833009 .0289917 .27833558 .038986207 .27833558 .040985109 .27833558 .050994874 .27833558 .051986696 .28033448 .056991579 .29634095 .083999637 .3903656 .12399292 .42037965 .1579895 .42037965 .1659851 .42037965 .18299866 .42037965 .18299866 .3883667 .18299866 .36335755 .17298889 .3373413 .1659851 .31834413 .12599182 .21231079 .10798645 .1552887 .10798645 .10827637 .10798645 .019256592 .17098999-.0107421879 .22999573-.0107421879 .2689972-.0107421879 .30299378 .0062561037 .33099366 .03425598 .31799317-.017745972 .30599977-.06674194 .2659912-.11973572 .23999024-.15385437 .20199585-.18309021 .1559906-.18309021 .14199829-.18309021 .09700012-.18005371 .07998657-.14074707 .09599304-.14074707 .10899353-.14074707 .12298584-.1287384 .1329956-.11973572 .14299011-.10673523 .14299011-.08773804 .14299011-.056747438 .115997318-.052734376 .10598755-.052734376 .08299255-.052734376 .049987794-.068740848 .049987794-.11773682 .049987794-.16796875 .09399414-.20507813 .1559906-.20507813 .25898744-.20507813 .3619995-.11373901 .3899994-.00074768069L.48599244 .38136292Z"/>
<path id="font_2_1" d="M.6589966 .23046875C.6759949 .23046875 .69400027 .23046875 .69400027 .25045777 .69400027 .27046205 .6759949 .27046205 .6589966 .27046205H.117996219C.100997928 .27046205 .08299255 .27046205 .08299255 .25045777 .08299255 .23046875 .100997928 .23046875 .117996219 .23046875H.6589966Z"/>
<path id="font_3_4" d="M.2939911 .16503906V.07800293C.2939911 .041992189 .2919922 .0309906 .21798706 .0309906H.19699097V0C.23799134 .0029907227 .2899933 .0029907227 .33198548 .0029907227 .37399293 .0029907227 .4269867 .0029907227 .46798707 0V.0309906H.44699098C.37298585 .0309906 .37098695 .041992189 .37098695 .07800293V.16503906H.47099305V.19602967H.37098695V.65075686C.37098695 .67074587 .37098695 .6767578 .35499574 .6767578 .34599305 .6767578 .34298707 .6767578 .33499146 .66474917L.027999878 .19602967V.16503906H.2939911M.2999878 .19602967H.055999757L.2999878 .5688019V.19602967Z"/>
<path id="font_3_3" d="M.1269989 .07699585 .23298645 .18003845C.3889923 .31811524 .44898988 .3721466 .44898988 .47216798 .44898988 .5860901 .35899354 .6660156 .23699951 .6660156 .12399292 .6660156 .049987794 .57411196 .049987794 .48516847 .049987794 .4291687 .099990848 .4291687 .102996829 .4291687 .11999512 .4291687 .15499878 .44117738 .15499878 .48217774 .15499878 .5081787 .13699341 .5341797 .101989749 .5341797 .09399414 .5341797 .09199524 .5341797 .08898926 .5331726 .11199951 .59806826 .1659851 .63500979 .22399903 .63500979 .31498719 .63500979 .35798646 .5541382 .35798646 .47216798 .35798646 .39215089 .30799867 .31311036 .25299073 .25108338L.06098938 .036987306C.049987794 .025985718 .049987794 .023986817 .049987794 0H.42099L.44898988 .17404175H.42399598C.4189911 .14402771 .4119873 .1000061 .4019928 .084991458 .394989 .07699585 .32899476 .07699585 .30699159 .07699585H.1269989Z"/>
<path id="font_3_5" d="M.68699648 .32714845C.70199587 .32714845 .72099307 .32714845 .72099307 .34713746 .72099307 .36714173 .70199587 .36714173 .6879883 .36714173H.08898926C.07499695 .36714173 .055999757 .36714173 .055999757 .34713746 .055999757 .32714845 .07499695 .32714845 .08999634 .32714845H.68699648M.6879883 .13284302C.70199587 .13284302 .72099307 .13284302 .72099307 .15284729 .72099307 .17285156 .70199587 .17285156 .68699648 .17285156H.08999634C.07499695 .17285156 .055999757 .17285156 .055999757 .15284729 .055999757 .13284302 .07499695 .13284302 .08898926 .13284302H.6879883Z"/>
<path id="font_1_1" d="M.36698915 .3996582H.45298768C.47299195 .3996582 .48298646 .3996582 .48298646 .41966249 .48298646 .43066407 .47299195 .43066407 .45599366 .43066407H.37298585L.3939972 .5449524C.397995 .5660095 .4119873 .6370239 .41799928 .6490326 .4269867 .66804507 .44400025 .68307498 .46499635 .68307498 .46899415 .68307498 .49499513 .68307498 .5139923 .66503909 .46998597 .661026 .45999146 .6260376 .45999146 .6110382 .45999146 .58802798 .47799684 .57603457 .49699403 .57603457 .522995 .57603457 .5519867 .5980377 .5519867 .6360321 .5519867 .6820679 .5059967 .7050781 .46499635 .7050781 .43099977 .7050781 .36799623 .68707278 .33799745 .58802798 .33198548 .56700137 .32899476 .5569763 .30499269 .43066407H.23599243C.21699524 .43066407 .20599365 .43066407 .20599365 .4116516 .20599365 .3996582 .21499634 .3996582 .23399353 .3996582H.2999878L.22499085 .0048828127C.20698548-.09207153 .18998719-.18309021 .13798523-.18309021 .13398743-.18309021 .10899353-.18309021 .08999634-.16506958 .13598633-.1620636 .14498902-.12606812 .14498902-.111068729 .14498902-.08807373 .1269989-.07606506 .10798645-.07606506 .08198547-.07606506 .052993776-.09806824 .052993776-.13606262 .052993776-.18109131 .09700012-.20507813 .13798523-.20507813 .19299317-.20507813 .23298645-.14607239 .25099183-.108062747 .2829895-.04508972 .30599977 .07583618 .30699159 .082839969L.36698915 .3996582Z"/>
<path id="font_3_1" d="M.33099366-.2400055C.33099366-.23701477 .33099366-.23500061 .31399537-.21800232 .18899536-.0920105 .15699768 .09700012 .15699768 .25 .15699768 .42399598 .19499207 .59799197 .31799317 .72299197 .33099366 .73498538 .33099366 .7369995 .33099366 .73999026 .33099366 .746994 .32699586 .75 .32099916 .75 .31098939 .75 .22099304 .6819916 .1619873 .5549927 .11099243 .44499208 .09899902 .33399964 .09899902 .25 .09899902 .17199707 .10998535 .050994874 .16499329-.06201172 .22499085-.18501282 .31098939-.25 .32099916-.25 .32699586-.25 .33099366-.24700928 .33099366-.2400055Z"/>
<path id="font_3_2" d="M.2889862 .25C.2889862 .32798768 .27799989 .44898988 .22299195 .56199648 .16299439 .68499758 .07699585 .75 .066986087 .75 .06098938 .75 .056991579 .74598696 .056991579 .73999026 .056991579 .7369995 .056991579 .73498538 .07598877 .71699526 .17399597 .6179962 .23098755 .45899964 .23098755 .25 .23098755 .07899475 .19400025-.09700012 .069992069-.2230072 .056991579-.23500061 .056991579-.23701477 .056991579-.2400055 .056991579-.2460022 .06098938-.25 .066986087-.25 .07699585-.25 .16699219-.18200684 .22599793-.055007936 .2769928 .054992677 .2889862 .16600037 .2889862 .25Z"/>
<path id="font_4_2" d="M.272995 .33428956C.35099793 .33428956 .40699769 .2803192 .40699769 .1733551 .40699769 .04940796 .33499146 .012466431 .2769928 .012466431 .23699951 .012466431 .14898682 .0234375 .10699463 .082351688 .1539917 .084350589 .16499329 .11735535 .16499329 .13835144 .16499329 .17034912 .14099121 .19335938 .10998535 .19335938 .08198547 .19335938 .053985597 .17634583 .053985597 .13534546 .053985597 .041412355 .1579895-.01953125 .2789917-.01953125 .41799928-.01953125 .5139923 .07336426 .5139923 .1733551 .5139923 .2513275 .44999696 .32929994 .33999635 .35229493 .44499208 .39024354 .48298646 .4650879 .48298646 .5260773 .48298646 .60505679 .3919983 .6640625 .2809906 .6640625 .16999817 .6640625 .084991458 .61006167 .084991458 .5300751 .084991458 .49606324 .10699463 .47706605 .13699341 .47706605 .16799927 .47706605 .18798828 .5000763 .18798828 .5280762 .18798828 .5570679 .16799927 .57806399 .13699341 .5800781 .17199707 .62405398 .24099732 .63505557 .27799989 .63505557 .32299806 .63505557 .38598634 .6130676 .38598634 .5260773 .38598634 .48406983 .37199403 .43814088 .34599305 .4072113 .31298829 .36927796 .2849884 .3672943 .23498535 .36428834 .20999146 .3623047 .20799256 .3623047 .20298767 .3612976 .20098877 .3612976 .19299317 .3592987 .19299317 .34829713 .19299317 .33428956 .20199585 .33428956 .21899414 .33428956H.272995Z"/>
<path id="font_5_1" d="M.74398806 .2263794C.7599945 .2263794 .7839966 .2263794 .7839966 .25038148 .7839966 .27539063 .7609863 .27539063 .74398806 .27539063H.147995C.13198853 .27539063 .10798645 .27539063 .10798645 .25138856 .10798645 .2263794 .1309967 .2263794 .147995 .2263794H.74398806Z"/>
<path id="font_4_1" d="M.33499146 .63612368C.33499146 .6630554 .33299256 .6640625 .30499269 .6640625 .24099732 .6014404 .1499939 .6004486 .10899353 .6004486V.5644531C.1329956 .5644531 .19898987 .5644531 .2539978 .592453V.08203125C.2539978 .04899597 .2539978 .035995485 .1539917 .035995485H.115997318V0C.13398743 .0009918213 .25698854 .0039978029 .2939911 .0039978029 .32499696 .0039978029 .45098878 .0009918213 .47299195 0V.035995485H.43499757C.33499146 .035995485 .33499146 .04899597 .33499146 .08203125V.63612368Z"/>
<path id="font_6_1" d="M.32998658 .3310547C.42199708 .3310547 .48298646 .2737732 .48298646 .17437744 .48298646 .07237244 .41999818 .01852417 .33099366 .01852417 .31999208 .01852417 .20098877 .01852417 .1499939 .070373538 .19099427 .07637024 .20298767 .1073761 .20298767 .13137818 .20298767 .16838074 .1749878 .19238281 .14199829 .19238281 .10998535 .19238281 .07998657 .17137146 .07998657 .12937927 .07998657 .025512696 .19799805-.022460938 .33399964-.022460938 .49798585-.022460938 .59999087 .07637024 .59999087 .17337036 .59999087 .25567628 .5269928 .3260193 .41299439 .35205079 .5329895 .3909912 .5649872 .46684266 .5649872 .5228424 .5649872 .60491946 .46299745 .6660156 .33699037 .6660156 .21398926 .6660156 .114990238 .61395266 .114990238 .5238342 .114990238 .47683717 .15299988 .46484376 .17199707 .46484376 .20098877 .46484376 .22898865 .48583985 .22898865 .5218353 .22898865 .5448303 .21699524 .5728302 .18099976 .57884219 .22399903 .625 .31298829 .628006 .33399964 .628006 .40699769 .628006 .45899964 .5908661 .45899964 .5228424 .45899964 .46484376 .42099 .37402345 .31599427 .368042 .28799439 .3670349 .28399659 .3660431 .2579956 .365036 .24699402 .3640442 .23599243 .36305238 .23599243 .34805299 .23599243 .3310547 .24598694 .3310547 .2639923 .3310547H.32998658Z"/>
<path id="font_2_2" d="M.3889923-.8549652 .21299744-.4659729C.20599365-.44996644 .20098877-.44996644 .19799805-.44996644 .19699097-.44996644 .19198609-.44996644 .18099976-.45796205L.085998538-.52996829C.07299805-.53996279 .07299805-.54296877 .07299805-.54597476 .07299805-.55096438 .07598877-.55696108 .08299255-.55696108 .08898926-.55696108 .10598755-.54296877 .116989139-.53497317 .12298584-.52996829 .13798523-.5189667 .14898682-.51097109L.34599305-.9439697C.35299684-.95996096 .35798646-.95996096 .36698915-.95996096 .38198854-.95996096 .3849945-.95396426 .3919983-.9399719L.84599307 .000030517579C.8529968 .014038086 .8529968 .018035889 .8529968 .02003479 .8529968 .030029297 .8450012 .040039064 .83299258 .040039064 .82499697 .040039064 .81799319 .03503418 .80999758 .01902771L.3889923-.8549652Z"/>
</defs>
<path transform="matrix(1.00002,0,0,-1.00003,68.48604,79.218997)" stroke-width=".3985" stroke-linecap="butt" stroke-miterlimit="10" stroke-linejoin="miter" fill="none" stroke="#00aeef" d="M-61.22833-61.22833H61.22833M-61.22833-45.92125H61.22833M-61.22833-30.61417H61.22833M-61.22833-15.30708H61.22833M-61.22833 0H61.22833M-61.22833 15.30708H61.22833M-61.22833 30.61417H61.22833M-61.22833 45.92125H61.22833M-61.22833 61.22295H61.22833M-61.22833-61.22833V61.22833M-45.92125-61.22833V61.22833M-30.61417-61.22833V61.22833M-15.30708-61.22833V61.22833M0-61.22833V61.22833M15.30708-61.22833V61.22833M30.61417-61.22833V61.22833M45.92125-61.22833V61.22833M61.22295-61.22833V61.22833M61.22833 61.22833"/>
<path transform="matrix(1.00002,0,0,-1.00003,68.48604,79.218997)" stroke-width=".79701" stroke-linecap="butt" stroke-miterlimit="10" stroke-linejoin="miter" fill="none" stroke="#000000" d="M-61.22833 0H65.91646"/>
<path transform="matrix(1.00002,0,0,-1.00003,134.40381,79.218997)" d="M1.0361 0C-.25902 .25902-1.55415 .77707-3.1083 1.68365-1.55415 .51805-1.55415-.51805-3.1083-1.68365-1.55415-.77707-.25902-.25902 1.0361 0Z"/>
<path transform="matrix(1.00002,0,0,-1.00003,134.40381,79.218997)" stroke-width=".79701" stroke-linecap="butt" stroke-linejoin="round" fill="none" stroke="#000000" d="M1.0361 0C-.25902 .25902-1.55415 .77707-3.1083 1.68365-1.55415 .51805-1.55415-.51805-3.1083-1.68365-1.55415-.77707-.25902-.25902 1.0361 0Z"/>
<use data-text="x" xlink:href="#font_1_2" transform="matrix(9.962799,0,0,-9.962899,139.55747,81.36406)"/>
<path transform="matrix(1.00002,0,0,-1.00003,68.48604,79.218997)" stroke-width=".79701" stroke-linecap="butt" stroke-miterlimit="10" stroke-linejoin="miter" fill="none" stroke="#000000" d="M0-61.22833V65.91646"/>
<path transform="matrix(0,-1.00003,-1.00002,-0,68.48604,13.300552)" d="M1.0361 0C-.25902 .25902-1.55415 .77707-3.1083 1.68365-1.55415 .51805-1.55415-.51805-3.1083-1.68365-1.55415-.77707-.25902-.25902 1.0361 0Z"/>
<path transform="matrix(0,-1.00003,-1.00002,-0,68.48604,13.300552)" stroke-width=".79701" stroke-linecap="butt" stroke-linejoin="round" fill="none" stroke="#000000" d="M1.0361 0C-.25902 .25902-1.55415 .77707-3.1083 1.68365-1.55415 .51805-1.55415-.51805-3.1083-1.68365-1.55415-.77707-.25902-.25902 1.0361 0Z"/>
<use data-text="y" xlink:href="#font_1_3" transform="matrix(9.962799,0,0,-9.962899,65.86498,6.2098009)"/>
<path transform="matrix(1.00002,0,0,-1.00003,68.48604,79.218997)" stroke-width=".79701" stroke-linecap="butt" stroke-miterlimit="10" stroke-linejoin="miter" fill="none" stroke="#000000" d="M-61.22833 1.22458V-1.2246"/>
<path transform="matrix(1.00002,0,0,-1.00003,68.48604,79.218997)" d="M-68.58972-12.85887H-53.866945V-3.6156398H-68.58972Z" fill="#ffffff"/>
<use data-text="&#x2212;" xlink:href="#font_2_1" transform="matrix(9.962799,0,0,-9.962899,.8916931,90.25133)"/>
<use data-text="4" xlink:href="#font_3_4" transform="matrix(9.962799,0,0,-9.962899,8.640839,90.25133)"/>
<path transform="matrix(1.00002,0,0,-1.00003,68.48604,79.218997)" stroke-width=".79701" stroke-linecap="butt" stroke-miterlimit="10" stroke-linejoin="miter" fill="none" stroke="#000000" d="M1.22458-61.22833H-1.2246"/>
<path transform="matrix(1.00002,0,0,-1.00003,68.48604,79.218997)" d="M-10.57854-70.87007H4.1442406V-61.626844H-10.57854Z" fill="#ffffff"/>
<use data-text="&#x2212;" xlink:href="#font_2_1" transform="matrix(9.962799,0,0,-9.962899,58.903848,148.26508)"/>
<use data-text="4" xlink:href="#font_3_4" transform="matrix(9.962799,0,0,-9.962899,66.65299,148.26508)"/>
<path transform="matrix(1.00002,0,0,-1.00003,68.48604,79.218997)" stroke-width=".79701" stroke-linecap="butt" stroke-miterlimit="10" stroke-linejoin="miter" fill="none" stroke="#000000" d="M-30.61417 1.22458V-1.2246"/>
<path transform="matrix(1.00002,0,0,-1.00003,68.48604,79.218997)" d="M-37.97556-12.85887H-23.252779V-3.6156398H-37.97556Z" fill="#ffffff"/>
<use data-text="&#x2212;" xlink:href="#font_2_1" transform="matrix(9.962799,0,0,-9.962899,31.506302,90.25133)"/>
<use data-text="2" xlink:href="#font_3_3" transform="matrix(9.962799,0,0,-9.962899,39.255449,90.25133)"/>
<path transform="matrix(1.00002,0,0,-1.00003,68.48604,79.218997)" stroke-width=".79701" stroke-linecap="butt" stroke-miterlimit="10" stroke-linejoin="miter" fill="none" stroke="#000000" d="M1.22458-30.61417H-1.2246"/>
<path transform="matrix(1.00002,0,0,-1.00003,68.48604,79.218997)" d="M-10.57854-40.25589H4.1442406V-31.012661H-10.57854Z" fill="#ffffff"/>
<use data-text="&#x2212;" xlink:href="#font_2_1" transform="matrix(9.962799,0,0,-9.962899,58.903848,117.649158)"/>
<use data-text="2" xlink:href="#font_3_3" transform="matrix(9.962799,0,0,-9.962899,66.65299,117.649158)"/>
<path transform="matrix(1.00002,0,0,-1.00003,68.48604,79.218997)" stroke-width=".79701" stroke-linecap="butt" stroke-miterlimit="10" stroke-linejoin="miter" fill="none" stroke="#000000" d="M30.61417 1.22458V-1.2246"/>
<path transform="matrix(1.00002,0,0,-1.00003,68.48604,79.218997)" d="M27.1272-12.02864H34.10114V-3.6156598H27.1272Z" fill="#ffffff"/>
<use data-text="2" xlink:href="#font_3_3" transform="matrix(9.962799,0,0,-9.962899,96.609607,90.25133)"/>
<path transform="matrix(1.00002,0,0,-1.00003,68.48604,79.218997)" stroke-width=".79701" stroke-linecap="butt" stroke-miterlimit="10" stroke-linejoin="miter" fill="none" stroke="#000000" d="M1.22458 30.61417H-1.2246"/>
<path transform="matrix(1.00002,0,0,-1.00003,68.48604,79.218997)" d="M-6.70412 21.80267H.26981975V30.215649H-6.70412Z" fill="#ffffff"/>
<use data-text="2" xlink:href="#font_3_3" transform="matrix(9.962799,0,0,-9.962899,62.777925,56.41931)"/>
<path transform="matrix(1.00002,0,0,-1.00003,68.48604,79.218997)" stroke-width=".79701" stroke-linecap="butt" stroke-miterlimit="10" stroke-linejoin="miter" fill="none" stroke="#000000" d="M61.22833 1.22458V-1.2246"/>
<path transform="matrix(1.00002,0,0,-1.00003,68.48604,79.218997)" d="M57.74136-12.02864H64.7153V-3.6156598H57.74136Z" fill="#ffffff"/>
<use data-text="4" xlink:href="#font_3_4" transform="matrix(9.962799,0,0,-9.962899,127.22521,90.25133)"/>
<path transform="matrix(1.00002,0,0,-1.00003,68.48604,79.218997)" stroke-width=".79701" stroke-linecap="butt" stroke-miterlimit="10" stroke-linejoin="miter" fill="none" stroke="#000000" d="M1.22458 61.22833H-1.2246"/>
<path transform="matrix(1.00002,0,0,-1.00003,68.48604,79.218997)" d="M-6.70412 52.41684H.26981975V60.82982H-6.70412Z" fill="#ffffff"/>
<use data-text="4" xlink:href="#font_3_4" transform="matrix(9.962799,0,0,-9.962899,62.777925,25.80439)"/>
<path transform="matrix(1.00002,0,0,-1.00003,68.48604,79.218997)" stroke-width=".79701" stroke-linecap="butt" stroke-dasharray="2.98883,2.98883" stroke-miterlimit="10" stroke-linejoin="miter" fill="none" stroke="#a9a9a9" d="M-61.22833-61.22833 61.22833 61.22833"/>
<use data-text="y" xlink:href="#font_1_3" transform="matrix(9.962799,0,0,-9.962899,133.43433,12.331985)"/>
<use data-text="=" xlink:href="#font_3_5" transform="matrix(9.962799,0,0,-9.962899,141.44449,12.331985)"/>
<use data-text="x" xlink:href="#font_1_2" transform="matrix(9.962799,0,0,-9.962899,151.9607,12.331985)"/>
<path transform="matrix(1.00002,0,0,-1.00003,68.48604,79.218997)" stroke-width=".79701" stroke-linecap="butt" stroke-miterlimit="10" stroke-linejoin="miter" fill="none" stroke="#ff0000" d="M0 0C0 0-.69121-5.01291-.95667-6.07507-1.22214-7.13725-1.64789-7.28148-1.91336-7.6554-2.17885-8.02931-2.60458-8.49403-2.87007-8.76999-3.13554-9.04591-3.56126-9.4195-3.82675-9.64423-4.09222-9.86896-4.51797-10.19604-4.78345-10.38977-5.04892-10.58348-5.47467-10.86948-5.74014-11.0405-6.00562-11.2115-6.43135-11.46808-6.69682-11.6223-6.96231-11.77652-7.38805-12.01097-7.65352-12.15204-7.91899-12.2931-8.34474-12.50882-8.61021-12.63902-8.8757-12.76924-9.30142-12.96921-9.56691-13.0905-9.83238-13.2118-10.25812-13.39963-10.5236-13.51326-10.78908-13.6269-11.21483-13.80237-11.4803-13.90964-11.74577-14.0169-12.17151-14.18463-12.437-14.28638-12.70247-14.38814-13.1282-14.54637-13.39368-14.64304-13.65916-14.7397-14.0849-14.89099-14.35037-14.98311-14.61586-15.07524-15.0416-15.21883-15.30708-15.30708-15.57256-15.39531-15.99829-15.53413-16.26376-15.61911-16.52922-15.70407-16.95497-15.83763-17.22044-15.9195-17.48593-16.00136-17.91167-16.13014-18.17715-16.2091-18.44263-16.28807-18.86835-16.41238-19.13383-16.48868-19.3993-16.565-19.82506-16.6854-20.09053-16.75916-20.35602-16.83292-20.78175-16.94878-21.04723-17.02028-21.3127-17.09181-21.73843-17.20512-22.00392-17.27464-22.2694-17.34416-22.69514-17.45377-22.9606-17.52129-23.22607-17.58884-23.65182-17.69568-23.9173-17.7614-24.18279-17.82712-24.60852-17.93094-24.87401-17.99496-25.13948-18.059-25.5652-18.16052-25.83069-18.22292-26.09616-18.28534-26.52191-18.38396-26.78738-18.44481-27.05286-18.50566-27.4786-18.60208-27.74408-18.66156-28.00955-18.72105-28.43529-18.8155-28.70076-18.87364-28.96625-18.93178-29.39198-19.0236-29.65746-19.08058-29.92294-19.13754-30.34868-19.22833-30.61417-19.28427-30.87964-19.3402-31.30537-19.42902-31.57085-19.48372-31.83632-19.5384-32.26205-19.62502-32.52754-19.67851-32.79301-19.73203-33.21877-19.81685-33.48424-19.86934-33.74971-19.92183-34.17546-20.00531-34.44093-20.05688-34.70639-20.10849-35.13214-20.19061-35.39761-20.24118-35.6631-20.29178-36.08884-20.37183-36.35431-20.4215-36.6198-20.47118-37.04553-20.55034-37.31102-20.59924-37.57649-20.64815-38.00223-20.72589-38.2677-20.77396-38.53316-20.822-38.95891-20.89838-39.22438-20.94563-39.48987-20.99286-39.91562-21.06807-40.18109-21.11449-40.44656-21.16093-40.87228-21.23454-41.13777-21.28033-41.40324-21.32611-41.829-21.39938-42.09447-21.44452-42.35995-21.48965-42.78569-21.56133-43.05116-21.60568-43.31665-21.65005-43.74237-21.72057-44.00786-21.76428-44.27333-21.80798-44.69907-21.87756-44.96454-21.92076-45.23003-21.96396-45.65578-22.03304-45.92125-22.07562-46.18672-22.1182-46.61247-22.18578-46.87794-22.22768-47.14342-22.26956-47.56914-22.33627-47.83463-22.37762-48.1001-22.41898-48.52585-22.48488-48.79132-22.52571-49.05681-22.56654-49.48254-22.63158-49.74802-22.67192-50.01349-22.71227-50.43922-22.77667-50.7047-22.8165-50.97018-22.85632-51.39592-22.91971-51.66139-22.95898-51.92688-22.99825-52.35262-23.0608-52.6181-23.09958-52.88358-23.13837-53.30931-23.20013-53.57478-23.23856-53.84026-23.277-54.26599-23.33865-54.53148-23.37659-54.79695-23.41454-55.2227-23.47464-55.48817-23.51207-55.75365-23.54948-56.1794-23.60939-56.44485-23.64636-56.71033-23.68333-57.13608-23.74202-57.40155-23.77856-57.66704-23.81512-58.09277-23.87361-58.35825-23.90984-58.62373-23.94606-59.04947-24.00392-59.31496-24.0397-59.58043-24.07547-60.00615-24.13194-60.27164-24.1677-60.53711-24.20343-61.22833-24.29732-61.22833-24.29732"/>
<path transform="matrix(1.00002,0,0,-1.00003,68.48604,79.218997)" stroke-width=".79701" stroke-linecap="butt" stroke-dasharray="2.98883,1.99255" stroke-miterlimit="10" stroke-linejoin="miter" fill="none" stroke="#0000ff" d="M-24.29732-61.21922C-24.29732-61.21922-23.74887-57.15369-23.53824-55.6589-23.32758-54.16414-22.98976-51.8459-22.77913-50.44592-22.56848-49.04594-22.23068-46.87706-22.02005-45.56879-21.80939-44.26053-21.47159-42.23647-21.26093-41.01678-21.0503-39.79712-20.7125-37.91238-20.50185-36.77824-20.2912-35.64409-19.9534-33.89438-19.74275-32.84262-19.53212-31.79086-19.1943-30.17029-18.98366-29.1978-18.77301-28.2253-18.4352-26.72977-18.22456-25.8335-18.01393-24.93721-17.6761-23.56126-17.46547-22.73804-17.25482-21.91478-16.917-20.65344-16.70638-19.90018-16.49573-19.14691-16.15791-17.99542-15.94728-17.30898-15.73662-16.62253-15.39882-15.57545-15.18819-14.95274-14.97754-14.33005-14.63972-13.38298-14.4291-12.82097-14.21844-12.25897-13.88063-11.40672-13.67-10.9022-13.45935-10.3977-13.12154-9.63489-12.91089-9.18478-12.70026-8.7347-12.36244-8.05696-12.1518-7.6582-11.94116-7.25943-11.60335-6.66132-11.3927-6.31075-11.18207-5.96017-10.84427-5.43692-10.63362-5.13147-10.42297-4.826-10.08516-4.37265-9.87451-4.10913-9.66388-3.84564-9.32607-3.45692-9.11543-3.23233-8.90479-3.00772-8.56697-2.67911-8.35632-2.49028-8.14569-2.30145-7.80788-2.02753-7.59724-1.87132-7.38658-1.71512-7.04878-1.49112-6.83813-1.36447-6.62749-1.23784-6.28969-1.05872-6.07906-.95856-5.8684-.85838-5.5306-.71936-5.31996-.64252-5.10931-.56569-4.7715-.46138-4.56085-.40474-4.3502-.34811-4.0124-.27374-3.80176-.23425-3.59113-.19475-3.25331-.1455-3.04266-.12003-2.83202-.09456-2.49422-.06525-2.28357-.05066-2.07294-.03609-1.73512-.0217-1.52448-.01492-1.31384-.00816-.97601-.00392-.76538-.00185-.55475 .00018-.21692-.00046-.00629 0 .20432 .00046 .54213-.00038 .75278 .00162 .96342 .00366 1.30122 .00803 1.51186 .0147 1.7225 .02136 2.06032 .03532 2.27095 .04973 2.48161 .06415 2.81941 .09335 3.03004 .11862 3.24069 .1439 3.5785 .19267 3.78914 .23192 3.99979 .27115 4.3376 .34517 4.54825 .40149 4.75888 .4578 5.0967 .56139 5.30734 .63785 5.51797 .71434 5.85579 .85292 6.06644 .9527 6.27707 1.05249 6.61488 1.23085 6.82553 1.35701 7.03616 1.48315 7.37398 1.70634 7.58463 1.86197 7.79526 2.01762 8.13309 2.29056 8.34372 2.47882 8.55435 2.6671 8.89217 2.99498 9.10281 3.21901 9.31346 3.44302 9.65128 3.83066 9.86191 4.09349 10.07256 4.35631 10.41035 4.8085 10.621 5.11324 10.83165 5.418 11.16946 5.94016 11.3801 6.28996 11.59074 6.63976 11.92854 7.23645 12.13919 7.63437 12.34984 8.03229 12.68764 8.70872 12.89828 9.15794 13.10892 9.60716 13.44673 10.36852 13.6574 10.87209 13.86803 11.37566 14.20583 12.2263 14.41647 12.78734 14.6271 13.34836 14.96492 14.29396 15.17557 14.9156 15.38622 15.53726 15.72401 16.58252 15.93466 17.26785 16.1453 17.95322 16.48312 19.10297 16.69376 19.8551 16.90439 20.60722 17.24222 21.86667 17.45285 22.68874 17.6635 23.5108 18.00131 24.88496 18.21194 25.78001 18.42259 26.67505 18.7604 28.1685 18.97104 29.13965 19.18169 30.11078 19.5195 31.7289 19.73013 32.77931 19.94078 33.82976 20.2786 35.57768 20.48923 36.71051 20.69987 37.84332 21.03769 39.72571 21.24834 40.94392 21.45897 42.16212 21.79677 44.18379 22.00743 45.49054 22.21806 46.79729 22.55588 48.96365 22.76653 50.36206 22.97716 51.7605 23.31496 54.07623 23.52562 55.56946 23.73625 57.06267 24.28471 61.12416 24.28471 61.12416"/>
<use data-text="f" xlink:href="#font_1_1" transform="matrix(9.962799,0,0,-9.962899,71.3511,11.882973)" fill="#0000ff"/>
<use data-text="(" xlink:href="#font_3_1" transform="matrix(9.962799,0,0,-9.962899,77.301219,11.882973)" fill="#0000ff"/>
<use data-text="x" xlink:href="#font_1_2" transform="matrix(9.962799,0,0,-9.962899,81.17629,11.882973)" fill="#0000ff"/>
<use data-text=")" xlink:href="#font_3_2" transform="matrix(9.962799,0,0,-9.962899,86.8704,11.882973)" fill="#0000ff"/>
<use data-text="=" xlink:href="#font_3_5" transform="matrix(9.962799,0,0,-9.962899,93.495677,11.882973)" fill="#0000ff"/>
<use data-text="x" xlink:href="#font_1_2" transform="matrix(9.962799,0,0,-9.962899,104.028759,11.882973)" fill="#0000ff"/>
<use data-text="3" xlink:href="#font_4_2" transform="matrix(6.97394,0,0,-6.9740097,109.721858,8.26786)" fill="#0000ff"/>
<path transform="matrix(1.00002,0,0,-1.00003,68.48604,79.218997)" stroke-width=".79701" stroke-linecap="butt" stroke-miterlimit="10" stroke-linejoin="miter" fill="none" stroke="#ff0000" d="M0 0C0 0-.69121-5.01291-.95667-6.07507-1.22214-7.13725-1.64789-7.28148-1.91336-7.6554-2.17885-8.02931-2.60458-8.49403-2.87007-8.76999-3.13554-9.04591-3.56126-9.4195-3.82675-9.64423-4.09222-9.86896-4.51797-10.19604-4.78345-10.38977-5.04892-10.58348-5.47467-10.86948-5.74014-11.0405-6.00562-11.2115-6.43135-11.46808-6.69682-11.6223-6.96231-11.77652-7.38805-12.01097-7.65352-12.15204-7.91899-12.2931-8.34474-12.50882-8.61021-12.63902-8.8757-12.76924-9.30142-12.96921-9.56691-13.0905-9.83238-13.2118-10.25812-13.39963-10.5236-13.51326-10.78908-13.6269-11.21483-13.80237-11.4803-13.90964-11.74577-14.0169-12.17151-14.18463-12.437-14.28638-12.70247-14.38814-13.1282-14.54637-13.39368-14.64304-13.65916-14.7397-14.0849-14.89099-14.35037-14.98311-14.61586-15.07524-15.0416-15.21883-15.30708-15.30708-15.57256-15.39531-15.99829-15.53413-16.26376-15.61911-16.52922-15.70407-16.95497-15.83763-17.22044-15.9195-17.48593-16.00136-17.91167-16.13014-18.17715-16.2091-18.44263-16.28807-18.86835-16.41238-19.13383-16.48868-19.3993-16.565-19.82506-16.6854-20.09053-16.75916-20.35602-16.83292-20.78175-16.94878-21.04723-17.02028-21.3127-17.09181-21.73843-17.20512-22.00392-17.27464-22.2694-17.34416-22.69514-17.45377-22.9606-17.52129-23.22607-17.58884-23.65182-17.69568-23.9173-17.7614-24.18279-17.82712-24.60852-17.93094-24.87401-17.99496-25.13948-18.059-25.5652-18.16052-25.83069-18.22292-26.09616-18.28534-26.52191-18.38396-26.78738-18.44481-27.05286-18.50566-27.4786-18.60208-27.74408-18.66156-28.00955-18.72105-28.43529-18.8155-28.70076-18.87364-28.96625-18.93178-29.39198-19.0236-29.65746-19.08058-29.92294-19.13754-30.34868-19.22833-30.61417-19.28427-30.87964-19.3402-31.30537-19.42902-31.57085-19.48372-31.83632-19.5384-32.26205-19.62502-32.52754-19.67851-32.79301-19.73203-33.21877-19.81685-33.48424-19.86934-33.74971-19.92183-34.17546-20.00531-34.44093-20.05688-34.70639-20.10849-35.13214-20.19061-35.39761-20.24118-35.6631-20.29178-36.08884-20.37183-36.35431-20.4215-36.6198-20.47118-37.04553-20.55034-37.31102-20.59924-37.57649-20.64815-38.00223-20.72589-38.2677-20.77396-38.53316-20.822-38.95891-20.89838-39.22438-20.94563-39.48987-20.99286-39.91562-21.06807-40.18109-21.11449-40.44656-21.16093-40.87228-21.23454-41.13777-21.28033-41.40324-21.32611-41.829-21.39938-42.09447-21.44452-42.35995-21.48965-42.78569-21.56133-43.05116-21.60568-43.31665-21.65005-43.74237-21.72057-44.00786-21.76428-44.27333-21.80798-44.69907-21.87756-44.96454-21.92076-45.23003-21.96396-45.65578-22.03304-45.92125-22.07562-46.18672-22.1182-46.61247-22.18578-46.87794-22.22768-47.14342-22.26956-47.56914-22.33627-47.83463-22.37762-48.1001-22.41898-48.52585-22.48488-48.79132-22.52571-49.05681-22.56654-49.48254-22.63158-49.74802-22.67192-50.01349-22.71227-50.43922-22.77667-50.7047-22.8165-50.97018-22.85632-51.39592-22.91971-51.66139-22.95898-51.92688-22.99825-52.35262-23.0608-52.6181-23.09958-52.88358-23.13837-53.30931-23.20013-53.57478-23.23856-53.84026-23.277-54.26599-23.33865-54.53148-23.37659-54.79695-23.41454-55.2227-23.47464-55.48817-23.51207-55.75365-23.54948-56.1794-23.60939-56.44485-23.64636-56.71033-23.68333-57.13608-23.74202-57.40155-23.77856-57.66704-23.81512-58.09277-23.87361-58.35825-23.90984-58.62373-23.94606-59.04947-24.00392-59.31496-24.0397-59.58043-24.07547-60.00615-24.13194-60.27164-24.1677-60.53711-24.20343-61.22833-24.29732-61.22833-24.29732"/>
<path transform="matrix(1.00002,0,0,-1.00003,68.48604,79.218997)" stroke-width=".79701" stroke-linecap="butt" stroke-miterlimit="10" stroke-linejoin="miter" fill="none" stroke="#ff0000" d="M0 0C0 0 .69121 5.01291 .95667 6.07507 1.22214 7.13725 1.64789 7.28148 1.91336 7.6554 2.17885 8.02931 2.60458 8.49403 2.87007 8.76999 3.13554 9.04591 3.56126 9.4195 3.82675 9.64423 4.09222 9.86896 4.51797 10.19604 4.78345 10.38977 5.04892 10.58348 5.47467 10.86948 5.74014 11.0405 6.00562 11.2115 6.43135 11.46808 6.69682 11.6223 6.96231 11.77652 7.38805 12.01097 7.65352 12.15204 7.91899 12.2931 8.34474 12.50882 8.61021 12.63902 8.8757 12.76924 9.30142 12.96921 9.56691 13.0905 9.83238 13.2118 10.25812 13.39963 10.5236 13.51326 10.78908 13.6269 11.21483 13.80237 11.4803 13.90964 11.74577 14.0169 12.17151 14.18463 12.437 14.28638 12.70247 14.38814 13.1282 14.54637 13.39368 14.64304 13.65916 14.7397 14.0849 14.89099 14.35037 14.98311 14.61586 15.07524 15.0416 15.21883 15.30708 15.30708 15.57256 15.39531 15.99829 15.53413 16.26376 15.61911 16.52922 15.70407 16.95497 15.83763 17.22044 15.9195 17.48593 16.00136 17.91167 16.13014 18.17715 16.2091 18.44263 16.28807 18.86835 16.41238 19.13383 16.48868 19.3993 16.565 19.82506 16.6854 20.09053 16.75916 20.35602 16.83292 20.78175 16.94878 21.04723 17.02028 21.3127 17.09181 21.73843 17.20512 22.00392 17.27464 22.2694 17.34416 22.69514 17.45377 22.9606 17.52129 23.22607 17.58884 23.65182 17.69568 23.9173 17.7614 24.18279 17.82712 24.60852 17.93094 24.87401 17.99496 25.13948 18.059 25.5652 18.16052 25.83069 18.22292 26.09616 18.28534 26.52191 18.38396 26.78738 18.44481 27.05286 18.50566 27.4786 18.60208 27.74408 18.66156 28.00955 18.72105 28.43529 18.8155 28.70076 18.87364 28.96625 18.93178 29.39198 19.0236 29.65746 19.08058 29.92294 19.13754 30.34868 19.22833 30.61417 19.28427 30.87964 19.3402 31.30537 19.42902 31.57085 19.48372 31.83632 19.5384 32.26205 19.62502 32.52754 19.67851 32.79301 19.73203 33.21877 19.81685 33.48424 19.86934 33.74971 19.92183 34.17546 20.00531 34.44093 20.05688 34.70639 20.10849 35.13214 20.19061 35.39761 20.24118 35.6631 20.29178 36.08884 20.37183 36.35431 20.4215 36.6198 20.47118 37.04553 20.55034 37.31102 20.59924 37.57649 20.64815 38.00223 20.72589 38.2677 20.77396 38.53316 20.822 38.95891 20.89838 39.22438 20.94563 39.48987 20.99286 39.91562 21.06807 40.18109 21.11449 40.44656 21.16093 40.87228 21.23454 41.13777 21.28033 41.40324 21.32611 41.829 21.39938 42.09447 21.44452 42.35995 21.48965 42.78569 21.56133 43.05116 21.60568 43.31665 21.65005 43.74237 21.72057 44.00786 21.76428 44.27333 21.80798 44.69907 21.87756 44.96454 21.92076 45.23003 21.96396 45.65578 22.03304 45.92125 22.07562 46.18672 22.1182 46.61247 22.18578 46.87794 22.22768 47.14342 22.26956 47.56914 22.33627 47.83463 22.37762 48.1001 22.41898 48.52585 22.48488 48.79132 22.52571 49.05681 22.56654 49.48254 22.63158 49.74802 22.67192 50.01349 22.71227 50.43922 22.77667 50.7047 22.8165 50.97018 22.85632 51.39592 22.91971 51.66139 22.95898 51.92688 22.99825 52.35262 23.0608 52.6181 23.09958 52.88358 23.13837 53.30931 23.20013 53.57478 23.23856 53.84026 23.277 54.26599 23.33865 54.53148 23.37659 54.79695 23.41454 55.2227 23.47464 55.48817 23.51207 55.75365 23.54948 56.1794 23.60939 56.44485 23.64636 56.71033 23.68333 57.13608 23.74202 57.40155 23.77856 57.66704 23.81512 58.09277 23.87361 58.35825 23.90984 58.62373 23.94606 59.04947 24.00392 59.31496 24.0397 59.58043 24.07547 60.00615 24.13194 60.27164 24.1677 60.53711 24.20343 61.22833 24.29732 61.22833 24.29732"/>
<use data-text="f" xlink:href="#font_1_1" transform="matrix(9.962799,0,0,-9.962899,133.43433,57.730348)" fill="#ff0000"/>
<use data-text="&#x2212;" xlink:href="#font_5_1" transform="matrix(6.97394,0,0,-6.9740097,139.38446,54.115236)" fill="#ff0000"/>
<use data-text="1" xlink:href="#font_4_1" transform="matrix(6.97394,0,0,-6.9740097,145.61157,54.115236)" fill="#ff0000"/>
<use data-text="(" xlink:href="#font_3_1" transform="matrix(9.962799,0,0,-9.962899,150.08066,57.730348)" fill="#ff0000"/>
<use data-text="x" xlink:href="#font_1_2" transform="matrix(9.962799,0,0,-9.962899,153.95575,57.730348)" fill="#ff0000"/>
<use data-text=")" xlink:href="#font_3_2" transform="matrix(9.962799,0,0,-9.962899,159.64984,57.730348)" fill="#ff0000"/>
<use data-text="=" xlink:href="#font_3_5" transform="matrix(9.962799,0,0,-9.962899,166.27512,57.730348)" fill="#ff0000"/>
<use data-text="3" xlink:href="#font_6_1" transform="matrix(4.9813997,0,0,-4.9814498,179.57526,54.379243)" fill="#ff0000"/>
<use data-text="&#x221a;" xlink:href="#font_2_2" transform="matrix(9.962799,0,0,-9.962899,177.4302,50.55413)" fill="#ff0000"/>
<path transform="matrix(1.00002,0,0,-1.00003,-18.053704,-8.492643)" stroke-width=".3985" stroke-linecap="butt" stroke-miterlimit="10" stroke-linejoin="miter" fill="none" stroke="#ff0000" d="M203.783-58.846H209.476"/>
<use data-text="x" xlink:href="#font_1_2" transform="matrix(9.962799,0,0,-9.962899,185.73337,57.730348)" fill="#ff0000"/>
</svg>
