<svg xmlns="http://www.w3.org/2000/svg" xmlns:xlink="http://www.w3.org/1999/xlink" version="1.1" width="126" height="87" viewBox="0 0 126 87">
<defs>
<path id="font_1_2" d="M.3909912 .37405396C.36299134 .37304688 .34298707 .3510437 .34298707 .32904054 .34298707 .31503297 .35198976 .30003358 .37399293 .30003358 .3959961 .30003358 .41999818 .31703187 .41999818 .35603334 .41999818 .40124513 .3769989 .4423828 .30099488 .4423828 .16899109 .4423828 .13198853 .3400421 .13198853 .29605104 .13198853 .21820069 .20599365 .20323181 .23498535 .19725037 .2869873 .18727112 .33898927 .17628479 .33898927 .12133789 .33898927 .095336917 .31599427 .011245728 .19599915 .011245728 .18199158 .011245728 .10499573 .011245728 .08198547 .064331058 .11999512 .059326173 .14498902 .08934021 .14498902 .11734009 .14498902 .14033509 .1289978 .15234375 .10798645 .15234375 .08198547 .15234375 .051986696 .1313324 .051986696 .08633423 .051986696 .029281617 .10899353-.0107421879 .19499207-.0107421879 .35699464-.0107421879 .3959961 .1103363 .3959961 .15533448 .3959961 .19125366 .3769989 .21620178 .36499024 .22817993 .33799745 .25613404 .30899049 .26112367 .2649994 .27009584 .22898865 .27807618 .18899536 .2850647 .18899536 .33003236 .18899536 .3590393 .21299744 .42037965 .30099488 .42037965 .32598878 .42037965 .37599183 .41333009 .3909912 .37405396Z"/>
<path id="font_2_7" d="M.68699648 .32714845C.70199587 .32714845 .72099307 .32714845 .72099307 .34713746 .72099307 .36714173 .70199587 .36714173 .6879883 .36714173H.08898926C.07499695 .36714173 .055999757 .36714173 .055999757 .34713746 .055999757 .32714845 .07499695 .32714845 .08999634 .32714845H.68699648M.6879883 .13284302C.70199587 .13284302 .72099307 .13284302 .72099307 .15284729 .72099307 .17285156 .70199587 .17285156 .68699648 .17285156H.08999634C.07499695 .17285156 .055999757 .17285156 .055999757 .15284729 .055999757 .13284302 .07499695 .13284302 .08898926 .13284302H.6879883Z"/>
<path id="font_2_1" d="M.45999146 .31976319C.45999146 .39982606 .45498658 .47988893 .41999818 .5539398 .37399293 .65000918 .2919922 .6660156 .25 .6660156 .18998719 .6660156 .116989139 .64001467 .07598877 .54693606 .04399109 .47789 .038986207 .39982606 .038986207 .31976319 .038986207 .24472046 .042999269 .15464783 .083999637 .07859802 .1269989-.0024719239 .19999695-.022460938 .24899292-.022460938 .30299378-.022460938 .3789978-.0014648438 .4229889 .09359741 .45498658 .16265869 .45999146 .2407074 .45999146 .31976319M.24899292-.00047302247C.20999146-.00047302247 .15098572 .024551392 .1329956 .12062073 .12199402 .18066406 .12199402 .2727356 .12199402 .3317871 .12199402 .39582826 .12199402 .46188355 .12998963 .5159149 .14898682 .63500979 .22399903 .64401248 .24899292 .64401248 .28199769 .64401248 .34799195 .6259918 .36698915 .52693179 .3769989 .47088624 .3769989 .39482118 .3769989 .3317871 .3769989 .25672914 .3769989 .18867493 .3659973 .12461853 .35099793 .029556275 .2939911-.00047302247 .24899292-.00047302247Z"/>
<path id="font_2_2" d="M.2939911 .64004519C.2939911 .66400149 .2939911 .6660156 .2709961 .6660156 .20899964 .60227969 .12098694 .60227969 .08898926 .60227969V.57128909C.10899353 .57128909 .16799927 .57128909 .21998596 .5972748V.07902527C.21998596 .042999269 .21699524 .0309906 .1269989 .0309906H.09498596V0C.12998963 .0029907227 .21699524 .0029907227 .25698854 .0029907227 .29699708 .0029907227 .38398744 .0029907227 .4189911 0V.0309906H.3869934C.29699708 .0309906 .2939911 .041992189 .2939911 .07902527V.64004519Z"/>
<path id="font_2_5" d="M.44898988 .20022583C.44898988 .3193512 .36698915 .41944886 .25898744 .41944886 .21099854 .41944886 .16799927 .40345765 .13198853 .36842347V.5637665C.1519928 .5577698 .18499756 .55078127 .21699524 .55078127 .33999635 .55078127 .4099884 .6417694 .4099884 .6547699 .4099884 .6607666 .40699769 .6657715 .3999939 .6657715 .39898683 .6657715 .39698792 .6657715 .3919983 .66278079 .37199403 .6537781 .32299806 .6337738 .2559967 .6337738 .21598816 .6337738 .16999817 .6407776 .12298584 .6617737 .114990238 .66477969 .11299133 .66477969 .11099243 .66477969 .100997928 .66477969 .100997928 .6567688 .100997928 .6407776V.34439088C.100997928 .32637025 .100997928 .31835938 .114990238 .31835938 .12199402 .31835938 .12399292 .32136537 .12799073 .32736207 .13899231 .3433838 .17599488 .39746095 .25698854 .39746095 .30899049 .39746095 .33399964 .35139466 .34199525 .33337403 .35798646 .29632569 .3600006 .25727845 .3600006 .20722962 .3600006 .17222595 .3600006 .11222839 .33599855 .07035828 .31199647 .031463624 .2749939 .0055389406 .22898865 .0055389406 .1559906 .0055389406 .09899902 .058380128 .08198547 .11723328 .084991458 .1162262 .08799744 .115234378 .09899902 .115234378 .13198853 .115234378 .14898682 .14022827 .14898682 .16423035 .14898682 .18823242 .13198853 .21322632 .09899902 .21322632 .084991458 .21322632 .049987794 .20622254 .049987794 .16023255 .049987794 .07434082 .11898804-.022460938 .23098755-.022460938 .34700013-.022460938 .44898988 .073349 .44898988 .20022583Z"/>
<path id="font_2_6" d="M.47599793 .609375C.4850006 .6213684 .4850006 .62338259 .4850006 .64437869H.24198914C.11999512 .64437869 .117996219 .65737918 .11399841 .67637637H.08898926L.055999757 .4702301H.08099365C.083999637 .48625184 .09298706 .5493469 .10598755 .56137087 .11299133 .5673828 .19099427 .5673828 .20399475 .5673828H.41099549C.3999939 .5513611 .32099916 .4421997 .29899598 .40914918 .20899964 .27394105 .17599488 .1347351 .17599488 .032577516 .17599488 .022567749 .17599488-.022460938 .22200012-.022460938 .2679901-.022460938 .2679901 .022567749 .2679901 .032577516V.08366394C.2679901 .13873291 .2709961 .19381714 .2789917 .24790955 .2829895 .27093507 .29699708 .35707093 .34098817 .41915895L.47599793 .609375Z"/>
<path id="font_2_3" d="M.2899933 .35191346C.37199403 .37893678 .42999269 .4490509 .42999269 .52809146 .42999269 .6100464 .34199525 .6660156 .24598694 .6660156 .14498902 .6660156 .068984989 .60606387 .068984989 .53009036 .068984989 .49710084 .09098816 .47808839 .11999512 .47808839 .15098572 .47808839 .17098999 .50009158 .17098999 .5290985 .17098999 .57910159 .12399292 .57910159 .10899353 .57910159 .13999939 .62802127 .20599365 .64100649 .24198914 .64100649 .2829895 .64100649 .33799745 .6190338 .33799745 .5290985 .33799745 .51708987 .33599855 .45906068 .30999757 .4149933 .27999879 .36691285 .24598694 .36390687 .22099304 .36291505 .21299744 .36190797 .18899536 .35990907 .18199158 .35990907 .17399597 .35890199 .16699219 .35791017 .16699219 .3479004 .16699219 .33691407 .17399597 .33691407 .19099427 .33691407H.23498535C.31698609 .33691407 .35398866 .2686615 .35398866 .17037964 .35398866 .034469606 .2849884 .0055389406 .24099732 .0055389406 .19799805 .0055389406 .12298584 .022491456 .08799744 .08137512 .12298584 .07637024 .1539917 .09837341 .1539917 .1363678 .1539917 .17237854 .1269989 .19238281 .09799194 .19238281 .07398987 .19238281 .041992189 .17837525 .041992189 .1343689 .041992189 .043441774 .1349945-.022460938 .24398804-.022460938 .3659973-.022460938 .45700074 .06838989 .45700074 .17037964 .45700074 .252594 .3939972 .33088685 .2899933 .35191346Z"/>
<path id="font_2_4" d="M.2939911 .16503906V.07800293C.2939911 .041992189 .2919922 .0309906 .21798706 .0309906H.19699097V0C.23799134 .0029907227 .2899933 .0029907227 .33198548 .0029907227 .37399293 .0029907227 .4269867 .0029907227 .46798707 0V.0309906H.44699098C.37298585 .0309906 .37098695 .041992189 .37098695 .07800293V.16503906H.47099305V.19602967H.37098695V.65075686C.37098695 .67074587 .37098695 .6767578 .35499574 .6767578 .34599305 .6767578 .34298707 .6767578 .33499146 .66474917L.027999878 .19602967V.16503906H.2939911M.2999878 .19602967H.055999757L.2999878 .5688019V.19602967Z"/>
<path id="font_1_1" d="M.08799744 .059265138C.084991458 .044265748 .07899475 .021255494 .07899475 .01625061 .07899475-.0017547608 .09298706-.0107421879 .10798645-.0107421879 .11999512-.0107421879 .13798523-.002746582 .14498902 .01725769 .14698792 .021255494 .18099976 .15730286 .18499756 .17530823 .19299317 .20831299 .21099854 .27833558 .21699524 .30534364 .22099304 .31835938 .24899292 .36535646 .272995 .38734437 .2809906 .39434815 .30999757 .42037965 .35299684 .42037965 .3789978 .42037965 .3939972 .4083557 .394989 .4083557 .36499024 .40335084 .34298707 .37934876 .34298707 .35334779 .34298707 .33735658 .35398866 .31835938 .3809967 .31835938 .4079895 .31835938 .43598939 .34135438 .43598939 .37734986 .43598939 .41235353 .4039917 .4423828 .35299684 .4423828 .28799439 .4423828 .24398804 .39335633 .22499085 .36535646 .21699524 .4103546 .18099976 .4423828 .13398743 .4423828 .08799744 .4423828 .068984989 .40335084 .05999756 .38534547 .041992189 .35134889 .0289917 .29133607 .0289917 .28834535 .0289917 .27833558 .038986207 .27833558 .040985109 .27833558 .050994874 .27833558 .051986696 .27934266 .057998659 .30134584 .07499695 .37234498 .09498596 .42037965 .1309967 .42037965 .147995 .42037965 .1619873 .41235353 .1619873 .37435914 .1619873 .35334779 .15899658 .3423462 .1459961 .29034425L.08799744 .059265138Z"/>
</defs>
<path transform="matrix(1,0,0,-1,68.248,42.475)" stroke-width=".79701" stroke-linecap="butt" stroke-miterlimit="10" stroke-linejoin="miter" fill="none" stroke="#929292" d="M30.61461 0C30.61461 16.90817 16.90817 30.61461 0 30.61461-16.90817 30.61461-30.61461 16.90817-30.61461 0-30.61461-16.90817-16.90817-30.61461 0-30.61461 16.90817-30.61461 30.61461-16.90817 30.61461 0ZM0 0"/>
<path transform="matrix(1,0,0,-1,68.248,42.475)" stroke-width=".79701" stroke-linecap="butt" stroke-miterlimit="10" stroke-linejoin="miter" fill="none" stroke="#000000" d="M-34.69647 0H34.69647"/>
<path transform="matrix(1,0,0,-1,68.248,42.475)" stroke-width=".79701" stroke-linecap="butt" stroke-miterlimit="10" stroke-linejoin="miter" fill="none" stroke="#000000" d="M0-34.69647V34.69647"/>
<path transform="matrix(1,0,0,-1,68.248,42.475)" d="M32.0492 0C32.0492 .79231 31.40689 1.43463 30.61456 1.43463 29.82224 1.43463 29.17992 .79231 29.17992 0 29.17992-.79231 29.82224-1.43463 30.61456-1.43463 31.40689-1.43463 32.0492-.79231 32.0492 0ZM30.61456 0" fill="#ff0000"/>
<path transform="matrix(1,0,0,-1,68.248,42.475)" stroke-width=".3985" stroke-linecap="butt" stroke-miterlimit="10" stroke-linejoin="miter" fill="none" stroke="#ff0000" d="M32.0492 0C32.0492 .79231 31.40689 1.43463 30.61456 1.43463 29.82224 1.43463 29.17992 .79231 29.17992 0 29.17992-.79231 29.82224-1.43463 30.61456-1.43463 31.40689-1.43463 32.0492-.79231 32.0492 0ZM30.61456 0"/>
<use data-text="s" xlink:href="#font_1_2" transform="matrix(9.9626,0,0,-9.9626,102.382,38.954999)" fill="#0000ff"/>
<use data-text="=" xlink:href="#font_2_7" transform="matrix(9.9626,0,0,-9.9626,109.82001,38.954999)" fill="#0000ff"/>
<use data-text="0" xlink:href="#font_2_1" transform="matrix(9.9626,0,0,-9.9626,120.32059,38.954999)" fill="#0000ff"/>
<path transform="matrix(1,0,0,-1,68.248,42.475)" d="M1.43463 30.61456C1.43463 31.40689 .79231 32.0492 0 32.0492-.79231 32.0492-1.43463 31.40689-1.43463 30.61456-1.43463 29.82224-.79231 29.17992 0 29.17992 .79231 29.17992 1.43463 29.82224 1.43463 30.61456ZM0 30.61456" fill="#ff0000"/>
<path transform="matrix(1,0,0,-1,68.248,42.475)" stroke-width=".3985" stroke-linecap="butt" stroke-miterlimit="10" stroke-linejoin="miter" fill="none" stroke="#ff0000" d="M1.43463 30.61456C1.43463 31.40689 .79231 32.0492 0 32.0492-.79231 32.0492-1.43463 31.40689-1.43463 30.61456-1.43463 29.82224-.79231 29.17992 0 29.17992 .79231 29.17992 1.43463 29.82224 1.43463 30.61456ZM0 30.61456"/>
<use data-text="s" xlink:href="#font_1_2" transform="matrix(9.9626,0,0,-9.9626,71.768,8.341)" fill="#0000ff"/>
<use data-text="=" xlink:href="#font_2_7" transform="matrix(9.9626,0,0,-9.9626,79.206,8.341)" fill="#0000ff"/>
<use data-text="1" xlink:href="#font_2_2" transform="matrix(9.9626,0,0,-9.9626,89.70658,8.341)" fill="#0000ff"/>
<use data-text="5" xlink:href="#font_2_5" transform="matrix(9.9626,0,0,-9.9626,94.687877,8.341)" fill="#0000ff"/>
<use data-text="7" xlink:href="#font_2_6" transform="matrix(9.9626,0,0,-9.9626,99.66917,8.341)" fill="#0000ff"/>
<path transform="matrix(1,0,0,-1,68.248,42.475)" d="M-29.17992 0C-29.17992 .79231-29.82224 1.43463-30.61456 1.43463-31.40689 1.43463-32.0492 .79231-32.0492 0-32.0492-.79231-31.40689-1.43463-30.61456-1.43463-29.82224-1.43463-29.17992-.79231-29.17992 0ZM-30.61456 0" fill="#ff0000"/>
<path transform="matrix(1,0,0,-1,68.248,42.475)" stroke-width=".3985" stroke-linecap="butt" stroke-miterlimit="10" stroke-linejoin="miter" fill="none" stroke="#ff0000" d="M-29.17992 0C-29.17992 .79231-29.82224 1.43463-30.61456 1.43463-31.40689 1.43463-32.0492 .79231-32.0492 0-32.0492-.79231-31.40689-1.43463-30.61456-1.43463-29.82224-1.43463-29.17992-.79231-29.17992 0ZM-30.61456 0"/>
<use data-text="s" xlink:href="#font_1_2" transform="matrix(9.9626,0,0,-9.9626,1.2160034,51.353998)" fill="#0000ff"/>
<use data-text="=" xlink:href="#font_2_7" transform="matrix(9.9626,0,0,-9.9626,8.654007,51.353998)" fill="#0000ff"/>
<use data-text="3" xlink:href="#font_2_3" transform="matrix(9.9626,0,0,-9.9626,19.154587,51.353998)" fill="#0000ff"/>
<use data-text="1" xlink:href="#font_2_2" transform="matrix(9.9626,0,0,-9.9626,24.13588,51.353998)" fill="#0000ff"/>
<use data-text="4" xlink:href="#font_2_4" transform="matrix(9.9626,0,0,-9.9626,29.117173,51.353998)" fill="#0000ff"/>
<path transform="matrix(1,0,0,-1,68.248,42.475)" d="M1.43463-30.61456C1.43463-29.82224 .79231-29.17992 0-29.17992-.79231-29.17992-1.43463-29.82224-1.43463-30.61456-1.43463-31.40689-.79231-32.0492 0-32.0492 .79231-32.0492 1.43463-31.40689 1.43463-30.61456ZM0-30.61456" fill="#ff0000"/>
<path transform="matrix(1,0,0,-1,68.248,42.475)" stroke-width=".3985" stroke-linecap="butt" stroke-miterlimit="10" stroke-linejoin="miter" fill="none" stroke="#ff0000" d="M1.43463-30.61456C1.43463-29.82224 .79231-29.17992 0-29.17992-.79231-29.17992-1.43463-29.82224-1.43463-30.61456-1.43463-31.40689-.79231-32.0492 0-32.0492 .79231-32.0492 1.43463-31.40689 1.43463-30.61456ZM0-30.61456"/>
<use data-text="s" xlink:href="#font_1_2" transform="matrix(9.9626,0,0,-9.9626,71.768,85.021999)" fill="#0000ff"/>
<use data-text="=" xlink:href="#font_2_7" transform="matrix(9.9626,0,0,-9.9626,79.206,85.021999)" fill="#0000ff"/>
<use data-text="4" xlink:href="#font_2_4" transform="matrix(9.9626,0,0,-9.9626,89.70658,85.021999)" fill="#0000ff"/>
<use data-text="7" xlink:href="#font_2_6" transform="matrix(9.9626,0,0,-9.9626,94.687877,85.021999)" fill="#0000ff"/>
<use data-text="1" xlink:href="#font_2_2" transform="matrix(9.9626,0,0,-9.9626,99.66917,85.021999)" fill="#0000ff"/>
<path transform="matrix(1,0,0,-1,68.248,42.475)" d="M-16.49965 6.99463H16.49965V13.41506H-16.49965Z" fill="#ffffff"/>
<use data-text="r" xlink:href="#font_1_1" transform="matrix(9.9626,0,0,-9.9626,51.748,35.48)" fill="#0000ff"/>
<use data-text="=" xlink:href="#font_2_7" transform="matrix(9.9626,0,0,-9.9626,59.287004,35.48)" fill="#0000ff"/>
<use data-text="1" xlink:href="#font_2_2" transform="matrix(9.9626,0,0,-9.9626,69.78758,35.48)" fill="#0000ff"/>
<use data-text="0" xlink:href="#font_2_1" transform="matrix(9.9626,0,0,-9.9626,74.768878,35.48)" fill="#0000ff"/>
<use data-text="0" xlink:href="#font_2_1" transform="matrix(9.9626,0,0,-9.9626,79.75017,35.48)" fill="#0000ff"/>
</svg>
