<svg xmlns="http://www.w3.org/2000/svg" xmlns:xlink="http://www.w3.org/1999/xlink" version="1.1" width="318" height="249" viewBox="0 0 318 249">
<defs>
<path id="font_1_4" d="M.08799744 .059265138C.084991458 .044265748 .07899475 .021255494 .07899475 .01625061 .07899475-.0017547608 .09298706-.0107421879 .10798645-.0107421879 .11999512-.0107421879 .13798523-.002746582 .14498902 .01725769 .14698792 .021255494 .18099976 .15730286 .18499756 .17530823 .19299317 .20831299 .21099854 .27833558 .21699524 .30534364 .22099304 .31835938 .24899292 .36535646 .272995 .38734437 .2809906 .39434815 .30999757 .42037965 .35299684 .42037965 .3789978 .42037965 .3939972 .4083557 .394989 .4083557 .36499024 .40335084 .34298707 .37934876 .34298707 .35334779 .34298707 .33735658 .35398866 .31835938 .3809967 .31835938 .4079895 .31835938 .43598939 .34135438 .43598939 .37734986 .43598939 .41235353 .4039917 .4423828 .35299684 .4423828 .28799439 .4423828 .24398804 .39335633 .22499085 .36535646 .21699524 .4103546 .18099976 .4423828 .13398743 .4423828 .08799744 .4423828 .068984989 .40335084 .05999756 .38534547 .041992189 .35134889 .0289917 .29133607 .0289917 .28834535 .0289917 .27833558 .038986207 .27833558 .040985109 .27833558 .050994874 .27833558 .051986696 .27934266 .057998659 .30134584 .07499695 .37234498 .09498596 .42037965 .1309967 .42037965 .147995 .42037965 .1619873 .41235353 .1619873 .37435914 .1619873 .35334779 .15899658 .3423462 .1459961 .29034425L.08799744 .059265138Z"/>
<path id="font_1_1" d="M.45498658 .5001831C.45498658 .56614688 .43699647 .7050781 .33499146 .7050781 .19599915 .7050781 .041992189 .42323304 .041992189 .19425965 .041992189 .100250247 .070999149-.0107421879 .1619873-.0107421879 .30299378-.0107421879 .45498658 .27627564 .45498658 .5001831M.147995 .36328126C.16499329 .42723084 .18499756 .5071869 .22499085 .57814028 .2519989 .6271057 .2889862 .68307498 .33399964 .68307498 .3829956 .68307498 .3889923 .6191101 .3889923 .56214907 .3889923 .5131836 .3809967 .46220399 .35699464 .36328126H.147995M.34799195 .3312683C.33699037 .28527833 .31599427 .2002716 .27799989 .12826538 .24299622 .060256959 .20498657 .011245728 .1619873 .011245728 .1289978 .011245728 .10798645 .040252687 .10798645 .133255 .10798645 .17526245 .11399841 .23326111 .13999939 .3312683H.34799195Z"/>
<path id="font_2_8" d="M.68699648 .32714845C.70199587 .32714845 .72099307 .32714845 .72099307 .34713746 .72099307 .36714173 .70199587 .36714173 .6879883 .36714173H.08898926C.07499695 .36714173 .055999757 .36714173 .055999757 .34713746 .055999757 .32714845 .07499695 .32714845 .08999634 .32714845H.68699648M.6879883 .13284302C.70199587 .13284302 .72099307 .13284302 .72099307 .15284729 .72099307 .17285156 .70199587 .17285156 .68699648 .17285156H.08999634C.07499695 .17285156 .055999757 .17285156 .055999757 .15284729 .055999757 .13284302 .07499695 .13284302 .08898926 .13284302H.6879883Z"/>
<path id="font_2_9" d="M.41600038 .6529541 .3999939 .66796877C.3999939 .66696169 .3619995 .6199646 .31799317 .6199646 .29499818 .6199646 .269989 .634964 .25299073 .6449585 .22599793 .66096499 .20799256 .66796877 .19099427 .66796877 .15299988 .66796877 .13398743 .6459656 .08299255 .5899658L.09899902 .57496646C.09899902 .57595828 .13699341 .6229553 .18099976 .6229553 .20399475 .6229553 .22898865 .60795596 .24598694 .5979614 .272995 .58195498 .29100038 .57496646 .30799867 .57496646 .34599305 .57496646 .36499024 .59695437 .41600038 .6529541Z"/>
<path id="font_1_3" d="M.30299378 .3157959H.47299195C.61499026 .3157959 .7539978 .41973878 .7539978 .53167727 .7539978 .6086273 .6879883 .6826172 .5569916 .6826172H.23298645C.21398926 .6826172 .20298767 .6826172 .20298767 .66360476 .20298767 .6516113 .21199036 .6516113 .23199463 .6516113 .24499512 .6516113 .2630005 .65060427 .2749939 .6496124 .29100038 .6476135 .29699708 .64460757 .29699708 .6336212 .29699708 .6296234 .29599 .62661746 .29299928 .614624L.15899658 .07795715C.14898682 .038986207 .14698792 .0309906 .067993167 .0309906 .050994874 .0309906 .039993287 .0309906 .039993287 .011993408 .039993287 0 .051986696 0 .054992677 0 .08299255 0 .1539917 .0029907227 .18199158 .0029907227 .20298767 .0029907227 .22499085 .0019989014 .24598694 .0019989014 .2679901 .0019989014 .2899933 0 .31098939 0 .31799317 0 .33099366 0 .33099366 .019989014 .33099366 .0309906 .32199098 .0309906 .30299378 .0309906 .2659912 .0309906 .23799134 .0309906 .23799134 .048980714 .23799134 .054977418 .23999024 .05996704 .24099732 .065963748L.30299378 .3157959M.375 .6136322C.38398744 .64860537 .38598634 .6516113 .42900086 .6516113H.5249939C.60798647 .6516113 .6609955 .62461856 .6609955 .55566409 .6609955 .5166931 .6409912 .43074037 .60198977 .39476014 .5519867 .34977723 .49198915 .34179688 .44799806 .34179688H.30699159L.375 .6136322Z"/>
<path id="font_2_1" d="M.33099366-.2400055C.33099366-.23701477 .33099366-.23500061 .31399537-.21800232 .18899536-.0920105 .15699768 .09700012 .15699768 .25 .15699768 .42399598 .19499207 .59799197 .31799317 .72299197 .33099366 .73498538 .33099366 .7369995 .33099366 .73999026 .33099366 .746994 .32699586 .75 .32099916 .75 .31098939 .75 .22099304 .6819916 .1619873 .5549927 .11099243 .44499208 .09899902 .33399964 .09899902 .25 .09899902 .17199707 .10998535 .050994874 .16499329-.06201172 .22499085-.18501282 .31098939-.25 .32099916-.25 .32699586-.25 .33099366-.24700928 .33099366-.2400055Z"/>
<path id="font_1_5" d="M.33399964 .30233766C.33999635 .32835389 .36299134 .42037965 .43299867 .42037965 .43798829 .42037965 .46199037 .42037965 .48298646 .40734864 .45498658 .402359 .43499757 .37734986 .43499757 .35334779 .43499757 .33735658 .44599916 .31835938 .47299195 .31835938 .49499513 .31835938 .5269928 .3363495 .5269928 .37635804 .5269928 .42837525 .46798707 .4423828 .43399049 .4423828 .37599183 .4423828 .34098817 .38935853 .32899476 .36634828 .3039856 .43237306 .25 .4423828 .22099304 .4423828 .116989139 .4423828 .05999756 .3133545 .05999756 .28834535 .05999756 .27833558 .069992069 .27833558 .07199097 .27833558 .07998657 .27833558 .08299255 .28033448 .084991458 .28933717 .11898804 .39535523 .18499756 .42037965 .21899414 .42037965 .23799134 .42037965 .272995 .4113617 .272995 .35334779 .272995 .32235719 .2559967 .25532533 .21899414 .11528015 .20298767 .053268434 .16799927 .011245728 .12399292 .011245728 .117996219 .011245728 .09498596 .011245728 .07398987 .024276734 .09899902 .029266358 .12098694 .05027771 .12098694 .07827759 .12098694 .105270389 .09899902 .11328125 .083999637 .11328125 .053985597 .11328125 .0289917 .08728027 .0289917 .055267335 .0289917 .009246826 .07899475-.0107421879 .12298584-.0107421879 .18899536-.0107421879 .22499085 .059280397 .22799683 .0652771 .23999024 .028274537 .27598573-.0107421879 .33599855-.0107421879 .43899537-.0107421879 .49598695 .118270877 .49598695 .14328003 .49598695 .1532898 .4869995 .1532898 .48399354 .1532898 .47499085 .1532898 .47299195 .14929199 .47099305 .14228821 .43798829 .03527832 .36999513 .011245728 .33799745 .011245728 .29899598 .011245728 .2829895 .043273927 .2829895 .07727051 .2829895 .09927368 .2889862 .121276859 .2999878 .16529846L.33399964 .30233766Z"/>
<path id="font_1_2" d="M.20298767 .0009918213C.20298767 .066986087 .17799378 .10598755 .13899231 .10598755 .10598755 .10598755 .085998538 .08099365 .085998538 .052993776 .085998538 .025985718 .10598755 0 .13899231 0 .15098572 0 .1639862 .0039978029 .17399597 .0129852299 .1769867 .01499939 .17799378 .015991211 .1789856 .015991211 .17999268 .015991211 .18099976 .01499939 .18099976 .0009918213 .18099976-.07316589 .1459961-.13328552 .11299133-.16635132 .101989749-.17736817 .101989749-.17936707 .101989749-.18237305 .101989749-.18936157 .10699463-.19335938 .11199951-.19335938 .12298584-.19335938 .20298767-.116256717 .20298767 .0009918213Z"/>
<path id="font_1_6" d="M.48599244 .38136292C.48999024 .39537049 .48999024 .39736939 .48999024 .40437318 .48999024 .42237855 .47599793 .43138124 .46099855 .43138124 .45098878 .43138124 .43499757 .42536927 .42599488 .41036988 .42399598 .405365 .41600038 .37435914 .4119873 .35635377 .40499879 .33035279 .397995 .30334474 .3919983 .27633668L.34700013 .09628296C.34298707 .08126831 .2999878 .011245728 .23399353 .011245728 .18299866 .011245728 .17199707 .055267335 .17199707 .0922699 .17199707 .1382904 .18899536 .20030213 .22299195 .28833009 .23899842 .3293457 .24299622 .3403473 .24299622 .36035157 .24299622 .405365 .21099854 .4423828 .16099549 .4423828 .06599426 .4423828 .0289917 .29733277 .0289917 .28833009 .0289917 .27833558 .038986207 .27833558 .040985109 .27833558 .050994874 .27833558 .051986696 .28033448 .056991579 .29634095 .083999637 .3903656 .12399292 .42037965 .1579895 .42037965 .1659851 .42037965 .18299866 .42037965 .18299866 .3883667 .18299866 .36335755 .17298889 .3373413 .1659851 .31834413 .12599182 .21231079 .10798645 .1552887 .10798645 .10827637 .10798645 .019256592 .17098999-.0107421879 .22999573-.0107421879 .2689972-.0107421879 .30299378 .0062561037 .33099366 .03425598 .31799317-.017745972 .30599977-.06674194 .2659912-.11973572 .23999024-.15385437 .20199585-.18309021 .1559906-.18309021 .14199829-.18309021 .09700012-.18005371 .07998657-.14074707 .09599304-.14074707 .10899353-.14074707 .12298584-.1287384 .1329956-.11973572 .14299011-.10673523 .14299011-.08773804 .14299011-.056747438 .115997318-.052734376 .10598755-.052734376 .08299255-.052734376 .049987794-.068740848 .049987794-.11773682 .049987794-.16796875 .09399414-.20507813 .1559906-.20507813 .25898744-.20507813 .3619995-.11373901 .3899994-.00074768069L.48599244 .38136292Z"/>
<path id="font_2_2" d="M.2889862 .25C.2889862 .32798768 .27799989 .44898988 .22299195 .56199648 .16299439 .68499758 .07699585 .75 .066986087 .75 .06098938 .75 .056991579 .74598696 .056991579 .73999026 .056991579 .7369995 .056991579 .73498538 .07598877 .71699526 .17399597 .6179962 .23098755 .45899964 .23098755 .25 .23098755 .07899475 .19400025-.09700012 .069992069-.2230072 .056991579-.23500061 .056991579-.23701477 .056991579-.2400055 .056991579-.2460022 .06098938-.25 .066986087-.25 .07699585-.25 .16699219-.18200684 .22599793-.055007936 .2769928 .054992677 .2889862 .16600037 .2889862 .25Z"/>
<path id="font_3_54" d="M.6100006 .45477296 .58200076 .6796875H.032989503V.64868167H.056991579C.13398743 .64868167 .13598633 .63768008 .13598633 .6016998V.07797241C.13598633 .041992189 .13398743 .0309906 .056991579 .0309906H.032989503V0C.067993167 .0029907227 .1459961 .0029907227 .18499756 .0029907227 .22599793 .0029907227 .31698609 .0029907227 .35299684 0V.0309906H.31999208C.22499085 .031188965 .22499085 .044189454 .22499085 .079193118V.3251953H.31098939C.40699769 .3251953 .4169922 .29318238 .4169922 .20819092H.44198609V.4731903H.4169922C.4169922 .38919068 .40699769 .3561859 .31098939 .3561859H.22499085V.6091919C.22499085 .64167788 .22698975 .64868167 .27398683 .64868167H.3939972C.5439911 .64868167 .56900027 .5926819 .58499148 .4546814L.6100006 .45477296Z"/>
<path id="font_3_66" d="M.24699402 0V.0309906C.18099976 .0309906 .1769867 .035995485 .1769867 .075042728V.4423828L.036987306 .43066407V.3996582C.101989749 .3996582 .11099243 .3936615 .11099243 .3447113V.07595825C.11099243 .0309906 .099990848 .0309906 .032989503 .0309906V0L.14299011 .0029907227C.17799378 .0029907227 .21299744 .0009918213 .24699402 0M.19198609 .603775C.19198609 .6307678 .16899109 .6567688 .13899231 .6567688 .10499573 .6567688 .084991458 .6287689 .084991458 .603775 .084991458 .57676699 .10798645 .55078127 .13798523 .55078127 .17199707 .55078127 .19198609 .5787811 .19198609 .603775Z"/>
<path id="font_3_96" d="M.3639984 .38137818C.3639984 .41337586 .33299256 .4423828 .2899933 .4423828 .21699524 .4423828 .18099976 .37538148 .16699219 .3323822V.4423828L.027999878 .43066407V.3996582C.09799194 .3996582 .10598755 .39266969 .10598755 .34370423V.07595825C.10598755 .0309906 .09498596 .0309906 .027999878 .0309906V0L.14199829 .0029907227C.18199158 .0029907227 .22898865 .0029907227 .2689972 0V.0309906H.24798584C.17399597 .0309906 .17199707 .04197693 .17199707 .07795715V.23181153C.17199707 .33137513 .21398926 .42037965 .2899933 .42037965 .29699708 .42037965 .29899598 .42037965 .30099488 .41937257 .2979889 .41838075 .27799989 .40637208 .27799989 .3803711 .27799989 .35237123 .29899598 .33737184 .32099916 .33737184 .33898927 .33737184 .3639984 .3493805 .3639984 .38137818Z"/>
<path id="font_3_98" d="M.3600006 .12823487C.3600006 .18122864 .32998658 .21122742 .31799317 .22323609 .2849884 .25523377 .24598694 .26322938 .20399475 .27124024 .147995 .28224183 .08099365 .29522706 .08099365 .35324098 .08099365 .38822938 .10699463 .42922975 .19299317 .42922975 .30299378 .42922975 .30799867 .3392334 .30999757 .30822755 .31098939 .2992401 .32199098 .2992401 .32199098 .2992401 .33499146 .2992401 .33499146 .30422975 .33499146 .32322694V.4242401C.33499146 .4412384 .33499146 .4482422 .32398988 .4482422 .31900025 .4482422 .31698609 .4482422 .3039856 .43623353 .30099488 .43223573 .29100038 .42323304 .2869873 .42022706 .24899292 .4482422 .20799256 .4482422 .19299317 .4482422 .070999149 .4482422 .032989503 .38124085 .032989503 .3252411 .032989503 .29023744 .04899597 .26223756 .07598877 .24023438 .10798645 .2142334 .13598633 .2082367 .20799256 .19422913 .22999573 .19021607 .31199647 .17422486 .31199647 .10221863 .31199647 .051223756 .2769928 .011245728 .19898987 .011245728 .114990238 .011245728 .07899475 .068222049 .05999756 .1532135 .056991579 .16621399 .055999757 .17021179 .04598999 .17021179 .032989503 .17021179 .032989503 .16322327 .032989503 .1452179V.013214111C.032989503-.003753662 .032989503-.0107421879 .04399109-.0107421879 .04899597-.0107421879 .049987794-.009750366 .068984989 .009246826 .070999149 .011245728 .070999149 .013214111 .08898926 .032226564 .1329956-.009750366 .17799378-.0107421879 .19898987-.0107421879 .31399537-.0107421879 .3600006 .05621338 .3600006 .1282196V.12823487Z"/>
<path id="font_3_105" d="M.33198548 .12385559V.18066406H.30699159V.12585449C.30699159 .052108766 .2769928 .014251709 .23999024 .014251709 .17298889 .014251709 .17298889 .10491943 .17298889 .12187195V.3996582H.31599427V.43066407H.17298889V.6142578H.147995C.14698792 .5324249 .116989139 .42565919 .018997193 .42166139V.3996582H.10398865V.12408447C.10398865 .0012512207 .19699097-.0107421879 .23298645-.0107421879 .3039856-.0107421879 .33198548 .060180665 .33198548 .12408447V.12385559Z"/>
<path id="font_3_64" d="M.27598573 .18710327V.24511719H.010986328V.18710327H.27598573Z"/>
<path id="font_3_91" d="M.5269928-.1940918V-.16308594C.45999146-.16308594 .44898988-.16308594 .44898988-.117996219V.4423828H.4269867L.3889923 .35136415C.37599183 .379364 .33499146 .4423828 .25498963 .4423828 .13899231 .4423828 .033996583 .34535218 .033996583 .21531677 .033996583 .090270999 .1309967-.0107421879 .24699402-.0107421879 .31698609-.0107421879 .35798646 .03225708 .37998963 .061264039V-.117996219C.37998963-.16308594 .36898805-.16308594 .3019867-.16308594V-.1940918L.4139862-.19110108 .5269928-.1940918M.3829956 .1362915C.3829956 .104278568 .36499024 .07626343 .34298707 .052261354 .32998658 .038253786 .2979889 .011245728 .25099183 .011245728 .17799378 .011245728 .116989139 .10028076 .116989139 .21531677 .116989139 .3343506 .18699646 .41737367 .26098634 .41737367 .34098817 .41737367 .3829956 .33035279 .3829956 .2773285V.1362915Z"/>
<path id="font_3_109" d="M.5349884 0V.0309906C.46499635 .0309906 .45700074 .037994386 .45700074 .08705139V.4423828L.30999757 .43066407V.3996582C.37998963 .3996582 .3880005 .39266969 .3880005 .34373475V.16601563C.3880005 .07910156 .33999635 .011245728 .2669983 .011245728 .18299866 .011245728 .1789856 .058135988 .1789856 .11009216V.4423828L.03199768 .43066407V.3996582C.10998535 .3996582 .10998535 .39666749 .10998535 .3078003V.15802002C.10998535 .080093387 .10998535-.0107421879 .2619934-.0107421879 .31799317-.0107421879 .3619995 .017242432 .3909912 .07910156V-.0107421879L.5349884 0Z"/>
<path id="font_3_28" d="M.48298646 .08912659V.14511109H.45799256V.08912659C.45799256 .03112793 .43299867 .025131226 .42199708 .025131226 .3889923 .025131226 .3849945 .070129398 .3849945 .07511902V.27508546C.3849945 .31707765 .3849945 .3560791 .34899903 .39312745 .30999757 .43223573 .2599945 .4482422 .21199036 .4482422 .12998963 .4482422 .06098938 .40115357 .06098938 .335083 .06098938 .30508424 .08099365 .28808595 .10699463 .28808595 .1349945 .28808595 .15299988 .30807496 .15299988 .33407594 .15299988 .3460846 .147995 .37908937 .101989749 .38008119 .1289978 .41519166 .17799378 .426239 .20999146 .426239 .25898744 .426239 .31599427 .38710023 .31599427 .29808045V.26107789C.2649994 .25808717 .19499207 .25508119 .13198853 .22509766 .056991579 .19110108 .03199768 .13911438 .03199768 .09512329 .03199768 .014251709 .1289978-.0107421879 .19198609-.0107421879 .2579956-.0107421879 .3039856 .029251099 .32299806 .07624817 .32699586 .036132814 .35398866-.005859375 .40098573-.005859375 .42199708-.005859375 .48298646 .008132935 .48298646 .08912659M.31599427 .14013672C.31599427 .04525757 .24398804 .011245728 .19898987 .011245728 .1499939 .011245728 .10899353 .04624939 .10899353 .09625244 .10899353 .15124512 .15098572 .23425293 .31599427 .24024964V.14013672Z"/>
<path id="font_3_47" d="M.5269928 0V.0309906C.45700074 .0309906 .44898988 .038009645 .44898988 .0871582V.69433596L.30499269 .6826172V.6516113C.375 .6516113 .3829956 .64463809 .3829956 .59580996V.38035584C.35398866 .41636659 .31098939 .4423828 .25698854 .4423828 .13899231 .4423828 .033996583 .3443451 .033996583 .21531677 .033996583 .088272098 .13198853-.0107421879 .24598694-.0107421879 .30999757-.0107421879 .35499574 .023254395 .37998963 .055267335V-.0107421879L.5269928 0M.37998963 .117996219C.37998963 .099990848 .37998963 .09799194 .36898805 .08099365 .33898927 .033218385 .2939911 .011245728 .25099183 .011245728 .20599365 .011245728 .16999817 .037216188 .1459961 .075164798 .11999512 .1161499 .116989139 .17320252 .116989139 .21421814 .116989139 .25125123 .11898804 .31129457 .147995 .35632325 .16899109 .38734437 .20698548 .42037965 .26098634 .42037965 .29599 .42037965 .33799745 .405365 .36898805 .3603363 .37998963 .34332276 .37998963 .34132386 .37998963 .32330323V.117996219Z"/>
<path id="font_3_77" d="M.5349884 0V.0309906C.48298646 .0309906 .45799256 .0309906 .45700074 .061019899V.25221253C.45700074 .3383026 .45700074 .36932374 .42599488 .405365 .4119873 .42237855 .3789978 .4423828 .32099916 .4423828 .24798584 .4423828 .20098877 .39935304 .17298889 .33729554V.4423828L.03199768 .43066407V.3996582C.101989749 .3996582 .10998535 .39266969 .10998535 .34370423V.07595825C.10998535 .0309906 .09899902 .0309906 .03199768 .0309906V0L.14498902 .0029907227 .25698854 0V.0309906C.18998719 .0309906 .1789856 .0309906 .1789856 .07595825V.25978089C.1789856 .36431886 .25 .42037965 .31399537 .42037965 .3769989 .42037965 .3880005 .36631776 .3880005 .30926515V.076034549C.3880005 .0309906 .3769989 .0309906 .30999757 .0309906V0L.4229889 .0029907227 .5349884 0Z"/>
<path id="font_3_44" d="M.19198609 .37765504C.19198609 .406662 .16799927 .43066407 .13899231 .43066407 .10998535 .43066407 .085998538 .406662 .085998538 .37765504 .085998538 .34866334 .10998535 .32466126 .13899231 .32466126 .16799927 .32466126 .19198609 .34866334 .19198609 .37765504M.19198609 .052993776C.19198609 .08198547 .16799927 .10598755 .13899231 .10598755 .10998535 .10598755 .085998538 .08198547 .085998538 .052993776 .085998538 .023986817 .10998535 0 .13899231 0 .16799927 0 .19198609 .023986817 .19198609 .052993776Z"/>
<path id="font_3_97" d="M.49899293 .18579102C.49899293 .2858429 .43299867 .36791993 .34899903 .38793946L.22099304 .4189453C.15899658 .43388368 .11999512 .48773194 .11999512 .5458069 .11999512 .61595156 .17399597 .677063 .2519989 .677063 .4189911 .677063 .44099427 .5127411 .44699098 .46777345 .44799806 .461792 .44799806 .45581056 .45899964 .45581056 .47200013 .45581056 .47200013 .46080018 .47200013 .47973634V.68107607C.47200013 .69807437 .47200013 .7050781 .46099855 .7050781 .45399476 .7050781 .45298768 .70407107 .44599916 .69207766L.41099549 .63497927C.3809967 .66404727 .33999635 .7050781 .25099183 .7050781 .13999939 .7050781 .055999757 .61694338 .055999757 .5107422 .055999757 .42790223 .10899353 .35490418 .18699646 .32788087 .19799805 .32388307 .24899292 .3118744 .31900025 .29486085 .34599305 .28785707 .37599183 .280838 .4039917 .24382019 .4249878 .2177887 .43499757 .18478394 .43499757 .1517334 .43499757 .0806427 .3849945 .008529663 .30099488 .008529663 .27198792 .008529663 .19599915 .013534546 .14299011 .06260681 .084991458 .11668396 .08198547 .18078614 .08099365 .21679688 .07998657 .22679138 .07199097 .22679138 .068984989 .22679138 .055999757 .22679138 .055999757 .2197876 .055999757 .20178223V.0015258789C.055999757-.015472412 .055999757-.022460938 .066986087-.022460938 .07398987-.022460938 .07499695-.020462037 .08198547-.009475708 .08198547-.009475708 .084991458-.0054626467 .117996219 .047592164 .14898682 .013534546 .21299744-.022460938 .3019867-.022460938 .4189911-.022460938 .49899293 .07562256 .49899293 .18579102Z"/>
<path id="font_3_50" d="M.4149933 .11933899C.4149933 .12934876 .40699769 .13134766 .4019928 .13134766 .3929901 .13134766 .3909912 .12535095 .3889923 .11734009 .35398866 .014251709 .2639923 .014251709 .2539978 .014251709 .20399475 .014251709 .1639862 .044281007 .14099121 .08131409 .11099243 .12934876 .11099243 .19540406 .11099243 .23144531H.3899994C.4119873 .23144531 .4149933 .23144531 .4149933 .2524414 .4149933 .35131837 .36099244 .4482422 .23599243 .4482422 .11999512 .4482422 .027999878 .34532167 .027999878 .22042847 .027999878 .08631897 .1329956-.0107421879 .24798584-.0107421879 .36999513-.0107421879 .4149933 .10032654 .4149933 .11933899M.34899903 .2524414H.11199951C.117996219 .40126039 .20199585 .426239 .23599243 .426239 .33898927 .426239 .34899903 .2913971 .34899903 .2524414Z"/>
<path id="font_3_43" d="M.4149933 .119140628C.4149933 .12911988 .40499879 .12911988 .4019928 .12911988 .3929901 .12911988 .3909912 .12512207 .3889923 .119140628 .3600006 .026229859 .29499818 .014251709 .2579956 .014251709 .20498657 .014251709 .116989139 .0572052 .116989139 .21801758 .116989139 .38093568 .19898987 .42323304 .2519989 .42323304 .26098634 .42323304 .32398988 .42222596 .35899354 .38594056 .31799317 .38293458 .31199647 .3529358 .31199647 .3399353 .31199647 .31393434 .32998658 .2939453 .35798646 .2939453 .38398744 .2939453 .4039917 .3109436 .4039917 .34094239 .4039917 .40911866 .32798768 .4482422 .25099183 .4482422 .12599182 .4482422 .033996583 .3399353 .033996583 .21601868 .033996583 .08816528 .1329956-.0107421879 .24899292-.0107421879 .3829956-.0107421879 .4149933 .10914612 .4149933 .119140628Z"/>
<path id="font_3_81" d="M.47099305 .21424866C.47099305 .34223939 .37098695 .4482422 .25 .4482422 .125 .4482422 .027999878 .3392334 .027999878 .21424866 .027999878 .085250858 .13198853-.0107421879 .24899292-.0107421879 .36999513-.0107421879 .47099305 .087249759 .47099305 .21424866M.3880005 .22224427C.3880005 .18624878 .3880005 .13224793 .3659973 .08824158 .34399415 .04324341 .2999878 .014251709 .25 .014251709 .20698548 .014251709 .16299439 .035247804 .13598633 .08125305 .11099243 .12524414 .11099243 .18624878 .11099243 .22224427 .11099243 .26124574 .11099243 .31523133 .1349945 .35923768 .1619873 .40522767 .20899964 .426239 .24899292 .426239 .29299928 .426239 .33599855 .40423585 .3619995 .36123658 .3880005 .3182373 .3880005 .26023866 .3880005 .22224427Z"/>
<path id="font_2_4" d="M.2939911 .64004519C.2939911 .66400149 .2939911 .6660156 .2709961 .6660156 .20899964 .60227969 .12098694 .60227969 .08898926 .60227969V.57128909C.10899353 .57128909 .16799927 .57128909 .21998596 .5972748V.07902527C.21998596 .042999269 .21699524 .0309906 .1269989 .0309906H.09498596V0C.12998963 .0029907227 .21699524 .0029907227 .25698854 .0029907227 .29699708 .0029907227 .38398744 .0029907227 .4189911 0V.0309906H.3869934C.29699708 .0309906 .2939911 .041992189 .2939911 .07902527V.64004519Z"/>
<path id="font_2_7" d="M.16299439 .4569702C.116989139 .486969 .11299133 .52098086 .11299133 .5379791 .11299133 .598999 .17799378 .64100649 .24899292 .64100649 .32199098 .64100649 .38598634 .58898928 .38598634 .51698306 .38598634 .45996095 .34700013 .4119568 .2869873 .37695313L.16299439 .4569702M.30899049 .36193849C.3809967 .3989563 .42999269 .45095826 .42999269 .51698306 .42999269 .6090088 .34098817 .6660156 .25 .6660156 .1499939 .6660156 .068984989 .59199526 .068984989 .49897767 .068984989 .4809723 .070999149 .43595887 .11299133 .38894654 .12399292 .37695313 .16099549 .35194398 .18598938 .33494569 .12799073 .30592347 .041992189 .24984741 .041992189 .15072632 .041992189 .04458618 .14399719-.022460938 .24899292-.022460938 .3619995-.022460938 .45700074 .06060791 .45700074 .16773987 .45700074 .20379639 .44599916 .24885559 .4079895 .2909088 .3889923 .31193543 .37298585 .3219452 .30899049 .36193849M.20899964 .3199463 .33198548 .24183655C.3600006 .2228241 .40699769 .19277954 .40699769 .13169861 .40699769 .05760193 .33198548 .0055389406 .25 .0055389406 .1639862 .0055389406 .09199524 .067611698 .09199524 .15072632 .09199524 .20880127 .12399292 .27288819 .20899964 .3199463Z"/>
<path id="font_2_3" d="M.45999146 .31976319C.45999146 .39982606 .45498658 .47988893 .41999818 .5539398 .37399293 .65000918 .2919922 .6660156 .25 .6660156 .18998719 .6660156 .116989139 .64001467 .07598877 .54693606 .04399109 .47789 .038986207 .39982606 .038986207 .31976319 .038986207 .24472046 .042999269 .15464783 .083999637 .07859802 .1269989-.0024719239 .19999695-.022460938 .24899292-.022460938 .30299378-.022460938 .3789978-.0014648438 .4229889 .09359741 .45498658 .16265869 .45999146 .2407074 .45999146 .31976319M.24899292-.00047302247C.20999146-.00047302247 .15098572 .024551392 .1329956 .12062073 .12199402 .18066406 .12199402 .2727356 .12199402 .3317871 .12199402 .39582826 .12199402 .46188355 .12998963 .5159149 .14898682 .63500979 .22399903 .64401248 .24899292 .64401248 .28199769 .64401248 .34799195 .6259918 .36698915 .52693179 .3769989 .47088624 .3769989 .39482118 .3769989 .3317871 .3769989 .25672914 .3769989 .18867493 .3659973 .12461853 .35099793 .029556275 .2939911-.00047302247 .24899292-.00047302247Z"/>
<path id="font_4_1" d="M.5069885 .24998474C.5069885 .3710022 .4099884 .4650116 .2919922 .4650116 .17199707 .4650116 .07699585 .36799623 .07699585 .25097657 .07699585 .1299591 .17399597 .035949708 .2919922 .035949708 .4119873 .035949708 .5069885 .13296509 .5069885 .24998474M.2919922 .08496094C.19799805 .08496094 .12599182 .16096497 .12599182 .24998474 .12599182 .34300233 .19999695 .41601563 .2919922 .41601563 .38598634 .41601563 .45799256 .33999635 .45799256 .25097657 .45799256 .15795899 .38398744 .08496094 .2919922 .08496094Z"/>
<path id="font_5_1" d="M.6589966 .23046875C.6759949 .23046875 .69400027 .23046875 .69400027 .25045777 .69400027 .27046205 .6759949 .27046205 .6589966 .27046205H.117996219C.100997928 .27046205 .08299255 .27046205 .08299255 .25045777 .08299255 .23046875 .100997928 .23046875 .117996219 .23046875H.6589966Z"/>
<path id="font_3_104" d="M.68499758 .45214845 .66600039 .6767578H.054992677L.035995485 .45214845H.06098938C.07499695 .6128235 .08999634 .64575198 .24099732 .64575198 .25898744 .64575198 .2849884 .64575198 .29499818 .64375308 .31599427 .6397705 .31599427 .6287842 .31599427 .60583499V.07901001C.31599427 .04499817 .31599427 .0309906 .21099854 .0309906H.17098999V0C.21199036 .0029907227 .31399537 .0029907227 .3600006 .0029907227 .4059906 .0029907227 .5089874 .0029907227 .5499878 0V.0309906H.5099945C.40499879 .0309906 .40499879 .04499817 .40499879 .07901001V.60583499C.40499879 .62579348 .40499879 .6397705 .4229889 .64375308 .43399049 .64575198 .46099855 .64575198 .47999574 .64575198 .6309967 .64575198 .6459961 .6128235 .6599884 .45214845H.68499758Z"/>
<path id="font_3_63" d="M.5349884 0V.0309906C.48298646 .0309906 .45799256 .0309906 .45700074 .061019899V.25221253C.45700074 .3383026 .45700074 .36932374 .42599488 .405365 .4119873 .42237855 .3789978 .4423828 .32099916 .4423828 .23699951 .4423828 .19299317 .38233949 .1769867 .34629823H.17599488V.69433596L.03199768 .6826172V.6516113C.101989749 .6516113 .10998535 .64463809 .10998535 .59580996V.076034549C.10998535 .0309906 .09899902 .0309906 .03199768 .0309906V0L.14498902 .0029907227 .25698854 0V.0309906C.18998719 .0309906 .1789856 .0309906 .1789856 .076034549V.2602234C.1789856 .36431886 .25 .42037965 .31399537 .42037965 .3769989 .42037965 .3880005 .36631776 .3880005 .30926515V.076034549C.3880005 .0309906 .3769989 .0309906 .30999757 .0309906V0L.4229889 .0029907227 .5349884 0Z"/>
<path id="font_2_5" d="M.2899933 .35191346C.37199403 .37893678 .42999269 .4490509 .42999269 .52809146 .42999269 .6100464 .34199525 .6660156 .24598694 .6660156 .14498902 .6660156 .068984989 .60606387 .068984989 .53009036 .068984989 .49710084 .09098816 .47808839 .11999512 .47808839 .15098572 .47808839 .17098999 .50009158 .17098999 .5290985 .17098999 .57910159 .12399292 .57910159 .10899353 .57910159 .13999939 .62802127 .20599365 .64100649 .24198914 .64100649 .2829895 .64100649 .33799745 .6190338 .33799745 .5290985 .33799745 .51708987 .33599855 .45906068 .30999757 .4149933 .27999879 .36691285 .24598694 .36390687 .22099304 .36291505 .21299744 .36190797 .18899536 .35990907 .18199158 .35990907 .17399597 .35890199 .16699219 .35791017 .16699219 .3479004 .16699219 .33691407 .17399597 .33691407 .19099427 .33691407H.23498535C.31698609 .33691407 .35398866 .2686615 .35398866 .17037964 .35398866 .034469606 .2849884 .0055389406 .24099732 .0055389406 .19799805 .0055389406 .12298584 .022491456 .08799744 .08137512 .12298584 .07637024 .1539917 .09837341 .1539917 .1363678 .1539917 .17237854 .1269989 .19238281 .09799194 .19238281 .07398987 .19238281 .041992189 .17837525 .041992189 .1343689 .041992189 .043441774 .1349945-.022460938 .24398804-.022460938 .3659973-.022460938 .45700074 .06838989 .45700074 .17037964 .45700074 .252594 .3939972 .33088685 .2899933 .35191346Z"/>
<path id="font_2_6" d="M.13198853 .327713V.35173036C.13198853 .6047821 .2559967 .64100649 .30699159 .64100649 .33099366 .64100649 .37298585 .634964 .394989 .6007538 .37998963 .6007538 .33999635 .6007538 .33999635 .5557556 .33999635 .524765 .3639984 .5097656 .38598634 .5097656 .4019928 .5097656 .43199159 .51875308 .43199159 .5577545 .43199159 .6178589 .3880005 .6660156 .30499269 .6660156 .1769867 .6660156 .041992189 .5367584 .041992189 .31570436 .041992189 .048553468 .1579895-.022460938 .25099183-.022460938 .3619995-.022460938 .45700074 .07156372 .45700074 .2036438 .45700074 .33070375 .36799623 .4267578 .25698854 .4267578 .18899536 .4267578 .1519928 .37573243 .13198853 .327713M.25099183 .0055389406C.18798828 .0055389406 .1579895 .06556702 .1519928 .080566409 .13398743 .127594 .13398743 .2076416 .13398743 .22564698 .13398743 .30369569 .1659851 .40374757 .2559967 .40374757 .27198792 .40374757 .31799317 .40374757 .34899903 .34172059 .36698915 .30470277 .36698915 .2536621 .36698915 .20463562 .36698915 .15661621 .36698915 .10658264 .34999085 .0705719 .31999208 .010528564 .27398683 .0055389406 .25099183 .0055389406Z"/>
</defs>
<path transform="matrix(1.00006,0,0,-1.00002,9.72168,86.03842)" stroke-width=".79701" stroke-linecap="butt" stroke-miterlimit="10" stroke-linejoin="miter" fill="none" stroke="#000000" d="M-8.50412 0H97.7792"/>
<path transform="matrix(1.00006,0,0,-1.00002,107.50674,86.03842)" d="M1.0361 0C-.25902 .25902-1.55415 .77707-3.1083 1.68365-1.55415 .51805-1.55415-.51805-3.1083-1.68365-1.55415-.77707-.25902-.25902 1.0361 0Z"/>
<path transform="matrix(1.00006,0,0,-1.00002,107.50674,86.03842)" stroke-width=".79701" stroke-linecap="butt" stroke-linejoin="round" fill="none" stroke="#000000" d="M1.0361 0C-.25902 .25902-1.55415 .77707-3.1083 1.68365-1.55415 .51805-1.55415-.51805-3.1083-1.68365-1.55415-.77707-.25902-.25902 1.0361 0Z"/>
<path transform="matrix(1.00006,0,0,-1.00002,9.72168,86.03842)" stroke-width=".79701" stroke-linecap="butt" stroke-miterlimit="10" stroke-linejoin="miter" fill="none" stroke="#000000" d="M0-8.50412V83.6058"/>
<path transform="matrix(0,-1.00002,-1.00006,-0,9.72168,2.430954)" d="M1.0361 0C-.25902 .25902-1.55415 .77707-3.1083 1.68365-1.55415 .51805-1.55415-.51805-3.1083-1.68365-1.55415-.77707-.25902-.25902 1.0361 0Z"/>
<path transform="matrix(0,-1.00002,-1.00006,-0,9.72168,2.430954)" stroke-width=".79701" stroke-linecap="butt" stroke-linejoin="round" fill="none" stroke="#000000" d="M1.0361 0C-.25902 .25902-1.55415 .77707-3.1083 1.68365-1.55415 .51805-1.55415-.51805-3.1083-1.68365-1.55415-.77707-.25902-.25902 1.0361 0Z"/>
<path transform="matrix(1.00006,0,0,-1.00002,9.72168,86.03842)" stroke-width=".79701" stroke-linecap="butt" stroke-miterlimit="10" stroke-linejoin="miter" fill="none" stroke="#0000ff" d="M0 0 98.09364 78.47499"/>
<path transform="matrix(.78086689,-.62467256,-.62469747,-.7808356,107.821208,7.5618669)" d="M1.0361 0C-.25902 .25902-1.55415 .77707-3.1083 1.68365-1.55415 .51805-1.55415-.51805-3.1083-1.68365-1.55415-.77707-.25902-.25902 1.0361 0Z" fill="#0000ff"/>
<path transform="matrix(.78086689,-.62467256,-.62469747,-.7808356,107.821208,7.5618669)" stroke-width=".79701" stroke-linecap="butt" stroke-linejoin="round" fill="none" stroke="#0000ff" d="M1.0361 0C-.25902 .25902-1.55415 .77707-3.1083 1.68365-1.55415 .51805-1.55415-.51805-3.1083-1.68365-1.55415-.77707-.25902-.25902 1.0361 0Z"/>
<use data-text="r" xlink:href="#font_1_4" transform="matrix(9.963197,0,0,-9.962799,45.858846,50.489709)" fill="#0000ff"/>
<path transform="matrix(1.00006,0,0,-1.00002,9.72168,86.03842)" stroke-width=".79701" stroke-linecap="butt" stroke-miterlimit="10" stroke-linejoin="miter" fill="none" stroke="#ff0000" d="M17.00824 0C17.00824 3.8612 15.69217 7.60953 14.17651 9.50424"/>
<path transform="matrix(-.6246674,-.7808556,-.7808868,.6246425,23.89906,76.53399)" d="M1.0361 0C-.25902 .25902-1.55415 .77707-3.1083 1.68365-1.55415 .51805-1.55415-.51805-3.1083-1.68365-1.55415-.77707-.25902-.25902 1.0361 0Z" fill="#ff0000"/>
<path transform="matrix(-.6246674,-.7808556,-.7808868,.6246425,23.89906,76.53399)" stroke-width=".79701" stroke-linecap="butt" stroke-linejoin="round" fill="none" stroke="#ff0000" d="M1.0361 0C-.25902 .25902-1.55415 .77707-3.1083 1.68365-1.55415 .51805-1.55415-.51805-3.1083-1.68365-1.55415-.77707-.25902-.25902 1.0361 0Z"/>
<use data-text="&#x03b8;" xlink:href="#font_1_1" transform="matrix(9.963197,0,0,-9.962799,29.490868,83.05736)"/>
<use data-text="=" xlink:href="#font_2_8" transform="matrix(9.963197,0,0,-9.962799,37.212335,83.05736)"/>
<use data-text="&#x02dc;" xlink:href="#font_2_9" transform="matrix(9.963197,0,0,-9.962799,48.546014,80.428318)" fill="#ff0000"/>
<use data-text="&#x03b8;" xlink:href="#font_1_1" transform="matrix(9.963197,0,0,-9.962799,47.728967,83.05736)" fill="#ff0000"/>
<path transform="matrix(1.00006,0,0,-1.00002,9.72168,86.03842)" stroke-width=".79701" stroke-linecap="butt" stroke-dasharray="2.98883,2.98883" stroke-miterlimit="10" stroke-linejoin="miter" fill="none" stroke="#929292" d="M70.867 0V56.69362"/>
<path transform="matrix(1.00006,0,0,-1.00002,9.72168,86.03842)" stroke-width=".79701" stroke-linecap="butt" stroke-miterlimit="10" stroke-linejoin="miter" fill="none" stroke="#0000ff" d="M70.867 0V7.08669H63.78032V0ZM63.78032 7.08669"/>
<path transform="matrix(1.00006,0,0,-1.00002,9.72168,86.03842)" d="M72.36142 56.69362C72.36142 57.51895 71.69235 58.18803 70.867 58.18803 70.04166 58.18803 69.37259 57.51895 69.37259 56.69362 69.37259 55.86827 70.04166 55.1992 70.867 55.1992 71.69235 55.1992 72.36142 55.86827 72.36142 56.69362ZM70.867 56.69362"/>
<path transform="matrix(1.00006,0,0,-1.00002,9.72168,86.03842)" stroke-width=".3985" stroke-linecap="butt" stroke-miterlimit="10" stroke-linejoin="miter" fill="none" stroke="#000000" d="M72.36142 56.69362C72.36142 57.51895 71.69235 58.18803 70.867 58.18803 70.04166 58.18803 69.37259 57.51895 69.37259 56.69362 69.37259 55.86827 70.04166 55.1992 70.867 55.1992 71.69235 55.1992 72.36142 55.86827 72.36142 56.69362ZM70.867 56.69362"/>
<use data-text="P" xlink:href="#font_1_3" transform="matrix(9.963197,0,0,-9.962799,48.170984,23.333168)"/>
<use data-text="(" xlink:href="#font_2_1" transform="matrix(9.963197,0,0,-9.962799,55.951456,23.333168)"/>
<use data-text="x" xlink:href="#font_1_5" transform="matrix(9.963197,0,0,-9.962799,59.825685,23.333168)"/>
<use data-text="," xlink:href="#font_1_2" transform="matrix(9.963197,0,0,-9.962799,65.51467,23.333168)"/>
<use data-text="y" xlink:href="#font_1_6" transform="matrix(9.963197,0,0,-9.962799,69.92837,23.333168)"/>
<use data-text=")" xlink:href="#font_2_2" transform="matrix(9.963197,0,0,-9.962799,75.190608,23.333168)"/>
<use data-text="F" xlink:href="#font_3_54" transform="matrix(9.963197,0,0,-9.962799,1.2171707,103.88678)" fill="#0000ff"/>
<use data-text="i" xlink:href="#font_3_66" transform="matrix(9.963197,0,0,-9.962799,7.7231447,103.88678)" fill="#0000ff"/>
<use data-text="r" xlink:href="#font_3_96" transform="matrix(9.963197,0,0,-9.962799,10.492905,103.88678)" fill="#0000ff"/>
<use data-text="s" xlink:href="#font_3_98" transform="matrix(9.963197,0,0,-9.962799,14.398483,103.88678)" fill="#0000ff"/>
<use data-text="t" xlink:href="#font_3_105" transform="matrix(9.963197,0,0,-9.962799,18.323983,103.88678)" fill="#0000ff"/>
<use data-text="-" xlink:href="#font_3_64" transform="matrix(9.963197,0,0,-9.962799,22.199662,103.88678)" fill="#0000ff"/>
<use data-text="q" xlink:href="#font_3_91" transform="matrix(9.963197,0,0,-9.962799,25.517403,103.88678)" fill="#0000ff"/>
<use data-text="u" xlink:href="#font_3_109" transform="matrix(9.963197,0,0,-9.962799,30.777977,103.88678)" fill="#0000ff"/>
<use data-text="a" xlink:href="#font_3_28" transform="matrix(9.963197,0,0,-9.962799,36.317506,103.88678)" fill="#0000ff"/>
<use data-text="d" xlink:href="#font_3_47" transform="matrix(9.963197,0,0,-9.962799,41.299104,103.88678)" fill="#0000ff"/>
<use data-text="r" xlink:href="#font_3_96" transform="matrix(9.963197,0,0,-9.962799,46.838624,103.88678)" fill="#0000ff"/>
<use data-text="a" xlink:href="#font_3_28" transform="matrix(9.963197,0,0,-9.962799,50.7442,103.88678)" fill="#0000ff"/>
<use data-text="n" xlink:href="#font_3_77" transform="matrix(9.963197,0,0,-9.962799,55.725786,103.88678)" fill="#0000ff"/>
<use data-text="t" xlink:href="#font_3_105" transform="matrix(9.963197,0,0,-9.962799,60.996309,103.88678)" fill="#0000ff"/>
<use data-text=":" xlink:href="#font_3_44" transform="matrix(9.963197,0,0,-9.962799,64.871997,103.88678)" fill="#0000ff"/>
<use data-text="&#x02dc;" xlink:href="#font_2_9" transform="matrix(9.963197,0,0,-9.962799,73.4305,101.25774)" fill="#0000ff"/>
<use data-text="&#x03b8;" xlink:href="#font_1_1" transform="matrix(9.963197,0,0,-9.962799,72.61345,103.88678)" fill="#0000ff"/>
<use data-text="=" xlink:href="#font_2_8" transform="matrix(9.963197,0,0,-9.962799,80.3349,103.88678)" fill="#0000ff"/>
<use data-text="&#x03b8;" xlink:href="#font_1_1" transform="matrix(9.963197,0,0,-9.962799,90.85252,103.88678)" fill="#0000ff"/>
<path transform="matrix(1.00006,0,0,-1.00002,9.72168,86.03842)" stroke-width=".79701" stroke-linecap="butt" stroke-miterlimit="10" stroke-linejoin="miter" fill="none" stroke="#000000" d="M285.50593 0H170.08086"/>
<path transform="matrix(1.00006,0,0,-1.00002,295.64326,86.03842)" stroke-width=".79701" stroke-linecap="round" stroke-linejoin="round" fill="none" stroke="#000000" d="M-2.55046 3.11095C-2.0845 1.24435-1.04614 .36295 0 0-1.04614-.36295-2.0845-1.24435-2.55046-3.11095"/>
<path transform="matrix(1.00006,0,0,-1.00002,9.72168,86.03842)" stroke-width=".79701" stroke-linecap="butt" stroke-miterlimit="10" stroke-linejoin="miter" fill="none" stroke="#000000" d="M269.29469-8.50412V83.6058"/>
<path transform="matrix(0,-1.00002,-1.00006,-0,279.0325,2.430954)" d="M1.0361 0C-.25902 .25902-1.55415 .77707-3.1083 1.68365-1.55415 .51805-1.55415-.51805-3.1083-1.68365-1.55415-.77707-.25902-.25902 1.0361 0Z"/>
<path transform="matrix(0,-1.00002,-1.00006,-0,279.0325,2.430954)" stroke-width=".79701" stroke-linecap="butt" stroke-linejoin="round" fill="none" stroke="#000000" d="M1.0361 0C-.25902 .25902-1.55415 .77707-3.1083 1.68365-1.55415 .51805-1.55415-.51805-3.1083-1.68365-1.55415-.77707-.25902-.25902 1.0361 0Z"/>
<path transform="matrix(1.00006,0,0,-1.00002,9.72168,86.03842)" stroke-width=".79701" stroke-linecap="butt" stroke-miterlimit="10" stroke-linejoin="miter" fill="none" stroke="#0000ff" d="M269.29469 0 171.20102 78.47499"/>
<path transform="matrix(-.78086689,-.62467256,-.62469747,.7808356,180.93297,7.5618669)" d="M1.0361 0C-.25902 .25902-1.55415 .77707-3.1083 1.68365-1.55415 .51805-1.55415-.51805-3.1083-1.68365-1.55415-.77707-.25902-.25902 1.0361 0Z" fill="#0000ff"/>
<path transform="matrix(-.78086689,-.62467256,-.62469747,.7808356,180.93297,7.5618669)" stroke-width=".79701" stroke-linecap="butt" stroke-linejoin="round" fill="none" stroke="#0000ff" d="M1.0361 0C-.25902 .25902-1.55415 .77707-3.1083 1.68365-1.55415 .51805-1.55415-.51805-3.1083-1.68365-1.55415-.77707-.25902-.25902 1.0361 0Z"/>
<use data-text="r" xlink:href="#font_1_4" transform="matrix(9.963197,0,0,-9.962799,238.12339,50.489709)" fill="#0000ff"/>
<path transform="matrix(1.00006,0,0,-1.00002,9.72168,86.03842)" stroke-width=".79701" stroke-linecap="butt" stroke-miterlimit="10" stroke-linejoin="miter" fill="none" stroke="#ff0000" d="M249.45201 1.4346C249.45201 4.50467 250.9874 8.87766 252.90499 11.2748"/>
<path transform="matrix(0,1.00002,1.00006,0,259.18867,84.60379)" d="M1.0361 0C-.25902 .25902-1.55415 .77707-3.1083 1.68365-1.55415 .51805-1.55415-.51805-3.1083-1.68365-1.55415-.77707-.25902-.25902 1.0361 0Z" fill="#ff0000"/>
<path transform="matrix(0,1.00002,1.00006,0,259.18867,84.60379)" stroke-width=".79701" stroke-linecap="butt" stroke-linejoin="round" fill="none" stroke="#ff0000" d="M1.0361 0C-.25902 .25902-1.55415 .77707-3.1083 1.68365-1.55415 .51805-1.55415-.51805-3.1083-1.68365-1.55415-.77707-.25902-.25902 1.0361 0Z"/>
<path transform="matrix(.6246674,-.7808556,-.7808868,-.6246425,262.6418,74.7634)" d="M1.0361 0C-.25902 .25902-1.55415 .77707-3.1083 1.68365-1.55415 .51805-1.55415-.51805-3.1083-1.68365-1.55415-.77707-.25902-.25902 1.0361 0Z" fill="#ff0000"/>
<path transform="matrix(.6246674,-.7808556,-.7808868,-.6246425,262.6418,74.7634)" stroke-width=".79701" stroke-linecap="butt" stroke-linejoin="round" fill="none" stroke="#ff0000" d="M1.0361 0C-.25902 .25902-1.55415 .77707-3.1083 1.68365-1.55415 .51805-1.55415-.51805-3.1083-1.68365-1.55415-.77707-.25902-.25902 1.0361 0Z"/>
<use data-text="&#x02dc;" xlink:href="#font_2_9" transform="matrix(9.963197,0,0,-9.962799,252.45224,79.490299)" fill="#ff0000"/>
<use data-text="&#x03b8;" xlink:href="#font_1_1" transform="matrix(9.963197,0,0,-9.962799,251.6352,82.11934)" fill="#ff0000"/>
<path transform="matrix(1.00006,0,0,-1.00002,9.72168,86.03842)" stroke-width=".79701" stroke-linecap="butt" stroke-miterlimit="10" stroke-linejoin="miter" fill="none" stroke="#929292" d="M277.7988 0C277.7988 4.69675 273.99147 8.50412 269.29469 8.50412 266.71177 8.50412 264.2678 7.32898 263.5505 6.43242"/>
<path transform="matrix(-.6246374,.7808656,.78089687,.6246125,273.28804,79.60587)" d="M1.0361 0C-.25902 .25902-1.55415 .77707-3.1083 1.68365-1.55415 .51805-1.55415-.51805-3.1083-1.68365-1.55415-.77707-.25902-.25902 1.0361 0Z" fill="#929292"/>
<path transform="matrix(-.6246374,.7808656,.78089687,.6246125,273.28804,79.60587)" stroke-width=".79701" stroke-linecap="butt" stroke-linejoin="round" fill="none" stroke="#929292" d="M1.0361 0C-.25902 .25902-1.55415 .77707-3.1083 1.68365-1.55415 .51805-1.55415-.51805-3.1083-1.68365-1.55415-.77707-.25902-.25902 1.0361 0Z"/>
<use data-text="&#x03b8;" xlink:href="#font_1_1" transform="matrix(9.963197,0,0,-9.962799,281.36299,74.29519)"/>
<path transform="matrix(1.00006,0,0,-1.00002,9.72168,86.03842)" stroke-width=".79701" stroke-linecap="butt" stroke-dasharray="2.98883,2.98883" stroke-miterlimit="10" stroke-linejoin="miter" fill="none" stroke="#929292" d="M198.42766 0V56.69362"/>
<path transform="matrix(1.00006,0,0,-1.00002,9.72168,86.03842)" stroke-width=".79701" stroke-linecap="butt" stroke-miterlimit="10" stroke-linejoin="miter" fill="none" stroke="#0000ff" d="M198.42766 0V7.08669H205.51436V0ZM205.51436 7.08669"/>
<path transform="matrix(1.00006,0,0,-1.00002,9.72168,86.03842)" d="M199.92208 56.69362C199.92208 57.51895 199.253 58.18803 198.42766 58.18803 197.60231 58.18803 196.93325 57.51895 196.93325 56.69362 196.93325 55.86827 197.60231 55.1992 198.42766 55.1992 199.253 55.1992 199.92208 55.86827 199.92208 56.69362ZM198.42766 56.69362"/>
<path transform="matrix(1.00006,0,0,-1.00002,9.72168,86.03842)" stroke-width=".3985" stroke-linecap="butt" stroke-miterlimit="10" stroke-linejoin="miter" fill="none" stroke="#000000" d="M199.92208 56.69362C199.92208 57.51895 199.253 58.18803 198.42766 58.18803 197.60231 58.18803 196.93325 57.51895 196.93325 56.69362 196.93325 55.86827 197.60231 55.1992 198.42766 55.1992 199.253 55.1992 199.92208 55.86827 199.92208 56.69362ZM198.42766 56.69362"/>
<use data-text="P" xlink:href="#font_1_3" transform="matrix(9.963197,0,0,-9.962799,209.68868,23.333168)"/>
<use data-text="(" xlink:href="#font_2_1" transform="matrix(9.963197,0,0,-9.962799,217.46915,23.333168)"/>
<use data-text="x" xlink:href="#font_1_5" transform="matrix(9.963197,0,0,-9.962799,221.34339,23.333168)"/>
<use data-text="," xlink:href="#font_1_2" transform="matrix(9.963197,0,0,-9.962799,227.03237,23.333168)"/>
<use data-text="y" xlink:href="#font_1_6" transform="matrix(9.963197,0,0,-9.962799,231.44606,23.333168)"/>
<use data-text=")" xlink:href="#font_2_2" transform="matrix(9.963197,0,0,-9.962799,236.7083,23.333168)"/>
<use data-text="S" xlink:href="#font_3_97" transform="matrix(9.963197,0,0,-9.962799,181.22997,103.88678)" fill="#0000ff"/>
<use data-text="e" xlink:href="#font_3_50" transform="matrix(9.963197,0,0,-9.962799,186.7695,103.88678)" fill="#0000ff"/>
<use data-text="c" xlink:href="#font_3_43" transform="matrix(9.963197,0,0,-9.962799,191.19318,103.88678)" fill="#0000ff"/>
<use data-text="o" xlink:href="#font_3_81" transform="matrix(9.963197,0,0,-9.962799,195.61682,103.88678)" fill="#0000ff"/>
<use data-text="n" xlink:href="#font_3_77" transform="matrix(9.963197,0,0,-9.962799,200.59842,103.88678)" fill="#0000ff"/>
<use data-text="d" xlink:href="#font_3_47" transform="matrix(9.963197,0,0,-9.962799,206.13797,103.88678)" fill="#0000ff"/>
<use data-text="-" xlink:href="#font_3_64" transform="matrix(9.963197,0,0,-9.962799,211.6775,103.88678)" fill="#0000ff"/>
<use data-text="q" xlink:href="#font_3_91" transform="matrix(9.963197,0,0,-9.962799,214.99524,103.88678)" fill="#0000ff"/>
<use data-text="u" xlink:href="#font_3_109" transform="matrix(9.963197,0,0,-9.962799,220.25583,103.88678)" fill="#0000ff"/>
<use data-text="a" xlink:href="#font_3_28" transform="matrix(9.963197,0,0,-9.962799,225.79535,103.88678)" fill="#0000ff"/>
<use data-text="d" xlink:href="#font_3_47" transform="matrix(9.963197,0,0,-9.962799,230.77695,103.88678)" fill="#0000ff"/>
<use data-text="r" xlink:href="#font_3_96" transform="matrix(9.963197,0,0,-9.962799,236.31647,103.88678)" fill="#0000ff"/>
<use data-text="a" xlink:href="#font_3_28" transform="matrix(9.963197,0,0,-9.962799,240.22205,103.88678)" fill="#0000ff"/>
<use data-text="n" xlink:href="#font_3_77" transform="matrix(9.963197,0,0,-9.962799,245.20365,103.88678)" fill="#0000ff"/>
<use data-text="t" xlink:href="#font_3_105" transform="matrix(9.963197,0,0,-9.962799,250.47415,103.88678)" fill="#0000ff"/>
<use data-text=":" xlink:href="#font_3_44" transform="matrix(9.963197,0,0,-9.962799,254.34986,103.88678)" fill="#0000ff"/>
<use data-text="&#x02dc;" xlink:href="#font_2_9" transform="matrix(9.963197,0,0,-9.962799,262.90788,101.25774)" fill="#0000ff"/>
<use data-text="&#x03b8;" xlink:href="#font_1_1" transform="matrix(9.963197,0,0,-9.962799,262.09184,103.88678)" fill="#0000ff"/>
<use data-text="=" xlink:href="#font_2_8" transform="matrix(9.963197,0,0,-9.962799,269.81327,103.88678)" fill="#0000ff"/>
<use data-text="1" xlink:href="#font_2_4" transform="matrix(9.963197,0,0,-9.962799,280.31449,103.88678)" fill="#0000ff"/>
<use data-text="8" xlink:href="#font_2_7" transform="matrix(9.963197,0,0,-9.962799,285.29609,103.88678)" fill="#0000ff"/>
<use data-text="0" xlink:href="#font_2_3" transform="matrix(9.963197,0,0,-9.962799,290.27769,103.88678)" fill="#0000ff"/>
<use data-text="&#x25e6;" xlink:href="#font_4_1" transform="matrix(6.9742186,0,0,-6.97394,295.2748,100.27071)" fill="#0000ff"/>
<use data-text="&#x2212;" xlink:href="#font_5_1" transform="matrix(9.963197,0,0,-9.962799,302.0692,103.88678)" fill="#0000ff"/>
<use data-text="&#x03b8;" xlink:href="#font_1_1" transform="matrix(9.963197,0,0,-9.962799,312.0328,103.88678)" fill="#0000ff"/>
<path transform="matrix(1.00006,0,0,-1.00002,9.72168,86.03842)" stroke-width=".79701" stroke-linecap="butt" stroke-miterlimit="10" stroke-linejoin="miter" fill="none" stroke="#000000" d="M112.59021-56.69362H0"/>
<path transform="matrix(1.00006,0,0,-1.00002,122.71716,142.73319)" stroke-width=".79701" stroke-linecap="round" stroke-linejoin="round" fill="none" stroke="#000000" d="M-2.55046 3.11095C-2.0845 1.24435-1.04614 .36295 0 0-1.04614-.36295-2.0845-1.24435-2.55046-3.11095"/>
<path transform="matrix(1.00006,0,0,-1.00002,9.72168,86.03842)" stroke-width=".79701" stroke-linecap="butt" stroke-miterlimit="10" stroke-linejoin="miter" fill="none" stroke="#000000" d="M99.21382-37.64795V-136.06476"/>
<path transform="matrix(0,-1.00002,-1.00006,-0,108.94145,123.28862)" stroke-width=".79701" stroke-linecap="round" stroke-linejoin="round" fill="none" stroke="#000000" d="M-2.55046 3.11095C-2.0845 1.24435-1.04614 .36295 0 0-1.04614-.36295-2.0845-1.24435-2.55046-3.11095"/>
<path transform="matrix(1.00006,0,0,-1.00002,9.72168,86.03842)" stroke-width=".79701" stroke-linecap="butt" stroke-miterlimit="10" stroke-linejoin="miter" fill="none" stroke="#0000ff" d="M99.21382-56.69362 1.12016-135.16861"/>
<path transform="matrix(-.78086689,.62467256,.62469747,.7808356,10.841907,221.20972)" d="M1.0361 0C-.25902 .25902-1.55415 .77707-3.1083 1.68365-1.55415 .51805-1.55415-.51805-3.1083-1.68365-1.55415-.77707-.25902-.25902 1.0361 0Z" fill="#0000ff"/>
<path transform="matrix(-.78086689,.62467256,.62469747,.7808356,10.841907,221.20972)" stroke-width=".79701" stroke-linecap="butt" stroke-linejoin="round" fill="none" stroke="#0000ff" d="M1.0361 0C-.25902 .25902-1.55415 .77707-3.1083 1.68365-1.55415 .51805-1.55415-.51805-3.1083-1.68365-1.55415-.77707-.25902-.25902 1.0361 0Z"/>
<use data-text="r" xlink:href="#font_1_4" transform="matrix(9.963197,0,0,-9.962799,68.03218,182.57135)" fill="#0000ff"/>
<path transform="matrix(1.00006,0,0,-1.00002,9.72168,86.03842)" stroke-width=".79701" stroke-linecap="butt" stroke-miterlimit="10" stroke-linejoin="miter" fill="none" stroke="#ff0000" d="M79.37115-58.12822C79.37115-61.19829 80.90654-65.57127 82.82413-67.96841"/>
<path transform="matrix(0,-1.00002,-1.00006,-0,89.09759,144.1678)" d="M1.0361 0C-.25902 .25902-1.55415 .77707-3.1083 1.68365-1.55415 .51805-1.55415-.51805-3.1083-1.68365-1.55415-.77707-.25902-.25902 1.0361 0Z" fill="#ff0000"/>
<path transform="matrix(0,-1.00002,-1.00006,-0,89.09759,144.1678)" stroke-width=".79701" stroke-linecap="butt" stroke-linejoin="round" fill="none" stroke="#ff0000" d="M1.0361 0C-.25902 .25902-1.55415 .77707-3.1083 1.68365-1.55415 .51805-1.55415-.51805-3.1083-1.68365-1.55415-.77707-.25902-.25902 1.0361 0Z"/>
<path transform="matrix(.6246674,.7808556,.7808868,-.6246425,92.55076,154.00818)" d="M1.0361 0C-.25902 .25902-1.55415 .77707-3.1083 1.68365-1.55415 .51805-1.55415-.51805-3.1083-1.68365-1.55415-.77707-.25902-.25902 1.0361 0Z" fill="#ff0000"/>
<path transform="matrix(.6246674,.7808556,.7808868,-.6246425,92.55076,154.00818)" stroke-width=".79701" stroke-linecap="butt" stroke-linejoin="round" fill="none" stroke="#ff0000" d="M1.0361 0C-.25902 .25902-1.55415 .77707-3.1083 1.68365-1.55415 .51805-1.55415-.51805-3.1083-1.68365-1.55415-.77707-.25902-.25902 1.0361 0Z"/>
<use data-text="&#x02dc;" xlink:href="#font_2_9" transform="matrix(9.963197,0,0,-9.962799,80.36792,153.30577)" fill="#ff0000"/>
<use data-text="&#x03b8;" xlink:href="#font_1_1" transform="matrix(9.963197,0,0,-9.962799,79.550868,155.93482)" fill="#ff0000"/>
<path transform="matrix(1.00006,0,0,-1.00002,9.72168,86.03842)" stroke-width=".79701" stroke-linecap="butt" stroke-miterlimit="10" stroke-linejoin="miter" fill="none" stroke="#929292" d="M107.71794-56.69362C107.71794-51.99686 103.91058-48.18948 99.21382-48.18948 94.51706-48.18948 90.7097-51.99686 90.7097-56.69362 90.7097-58.62422 91.36772-60.49838 91.67757-60.8856"/>
<path transform="matrix(.6246374,.7808656,.78089687,-.6246125,101.40473,146.92525)" d="M1.0361 0C-.25902 .25902-1.55415 .77707-3.1083 1.68365-1.55415 .51805-1.55415-.51805-3.1083-1.68365-1.55415-.77707-.25902-.25902 1.0361 0Z" fill="#929292"/>
<path transform="matrix(.6246374,.7808656,.78089687,-.6246125,101.40473,146.92525)" stroke-width=".79701" stroke-linecap="butt" stroke-linejoin="round" fill="none" stroke="#929292" d="M1.0361 0C-.25902 .25902-1.55415 .77707-3.1083 1.68365-1.55415 .51805-1.55415-.51805-3.1083-1.68365-1.55415-.77707-.25902-.25902 1.0361 0Z"/>
<use data-text="&#x03b8;" xlink:href="#font_1_1" transform="matrix(9.963197,0,0,-9.962799,96.67489,135.97142)"/>
<path transform="matrix(1.00006,0,0,-1.00002,9.72168,86.03842)" stroke-width=".79701" stroke-linecap="butt" stroke-dasharray="2.98883,2.98883" stroke-miterlimit="10" stroke-linejoin="miter" fill="none" stroke="#929292" d="M28.3468-56.69362V-113.38724"/>
<path transform="matrix(1.00006,0,0,-1.00002,9.72168,86.03842)" stroke-width=".79701" stroke-linecap="butt" stroke-miterlimit="10" stroke-linejoin="miter" fill="none" stroke="#0000ff" d="M28.3468-56.69362V-63.7803H35.43349V-56.69362ZM35.43349-63.7803"/>
<path transform="matrix(1.00006,0,0,-1.00002,9.72168,86.03842)" d="M29.84122-113.38724C29.84122-112.56189 29.17215-111.89282 28.3468-111.89282 27.52145-111.89282 26.85239-112.56189 26.85239-113.38724 26.85239-114.21257 27.52145-114.88165 28.3468-114.88165 29.17215-114.88165 29.84122-114.21257 29.84122-113.38724ZM28.3468-113.38724"/>
<path transform="matrix(1.00006,0,0,-1.00002,9.72168,86.03842)" stroke-width=".3985" stroke-linecap="butt" stroke-miterlimit="10" stroke-linejoin="miter" fill="none" stroke="#000000" d="M29.84122-113.38724C29.84122-112.56189 29.17215-111.89282 28.3468-111.89282 27.52145-111.89282 26.85239-112.56189 26.85239-113.38724 26.85239-114.21257 27.52145-114.88165 28.3468-114.88165 29.17215-114.88165 29.84122-114.21257 29.84122-113.38724ZM28.3468-113.38724"/>
<use data-text="P" xlink:href="#font_1_3" transform="matrix(9.963197,0,0,-9.962799,39.597475,210.41992)"/>
<use data-text="(" xlink:href="#font_2_1" transform="matrix(9.963197,0,0,-9.962799,47.377946,210.41992)"/>
<use data-text="x" xlink:href="#font_1_5" transform="matrix(9.963197,0,0,-9.962799,51.252176,210.41992)"/>
<use data-text="," xlink:href="#font_1_2" transform="matrix(9.963197,0,0,-9.962799,56.941164,210.41992)"/>
<use data-text="y" xlink:href="#font_1_6" transform="matrix(9.963197,0,0,-9.962799,61.35486,210.41992)"/>
<use data-text=")" xlink:href="#font_2_2" transform="matrix(9.963197,0,0,-9.962799,66.617099,210.41992)"/>
<use data-text="T" xlink:href="#font_3_104" transform="matrix(9.963197,0,0,-9.962799,2.6342545,245.62363)" fill="#0000ff"/>
<use data-text="h" xlink:href="#font_3_63" transform="matrix(9.963197,0,0,-9.962799,9.82769,245.62363)" fill="#0000ff"/>
<use data-text="i" xlink:href="#font_3_66" transform="matrix(9.963197,0,0,-9.962799,15.367233,245.62363)" fill="#0000ff"/>
<use data-text="r" xlink:href="#font_3_96" transform="matrix(9.963197,0,0,-9.962799,18.136994,245.62363)" fill="#0000ff"/>
<use data-text="d" xlink:href="#font_3_47" transform="matrix(9.963197,0,0,-9.962799,22.042572,245.62363)" fill="#0000ff"/>
<use data-text="-" xlink:href="#font_3_64" transform="matrix(9.963197,0,0,-9.962799,27.582116,245.62363)" fill="#0000ff"/>
<use data-text="q" xlink:href="#font_3_91" transform="matrix(9.963197,0,0,-9.962799,30.899857,245.62363)" fill="#0000ff"/>
<use data-text="u" xlink:href="#font_3_109" transform="matrix(9.963197,0,0,-9.962799,36.160417,245.62363)" fill="#0000ff"/>
<use data-text="a" xlink:href="#font_3_28" transform="matrix(9.963197,0,0,-9.962799,41.69995,245.62363)" fill="#0000ff"/>
<use data-text="d" xlink:href="#font_3_47" transform="matrix(9.963197,0,0,-9.962799,46.681535,245.62363)" fill="#0000ff"/>
<use data-text="r" xlink:href="#font_3_96" transform="matrix(9.963197,0,0,-9.962799,52.22107,245.62363)" fill="#0000ff"/>
<use data-text="a" xlink:href="#font_3_28" transform="matrix(9.963197,0,0,-9.962799,56.126634,245.62363)" fill="#0000ff"/>
<use data-text="n" xlink:href="#font_3_77" transform="matrix(9.963197,0,0,-9.962799,61.10823,245.62363)" fill="#0000ff"/>
<use data-text="t" xlink:href="#font_3_105" transform="matrix(9.963197,0,0,-9.962799,66.37875,245.62363)" fill="#0000ff"/>
<use data-text=":" xlink:href="#font_3_44" transform="matrix(9.963197,0,0,-9.962799,70.25444,245.62363)" fill="#0000ff"/>
<use data-text="&#x02dc;" xlink:href="#font_2_9" transform="matrix(9.963197,0,0,-9.962799,78.812839,242.99457)" fill="#0000ff"/>
<use data-text="&#x03b8;" xlink:href="#font_1_1" transform="matrix(9.963197,0,0,-9.962799,77.99678,245.62363)" fill="#0000ff"/>
<use data-text="=" xlink:href="#font_2_8" transform="matrix(9.963197,0,0,-9.962799,85.71825,245.62363)" fill="#0000ff"/>
<use data-text="&#x03b8;" xlink:href="#font_1_1" transform="matrix(9.963197,0,0,-9.962799,96.23488,245.62363)" fill="#0000ff"/>
<use data-text="&#x2212;" xlink:href="#font_5_1" transform="matrix(9.963197,0,0,-9.962799,103.4023,245.62363)" fill="#0000ff"/>
<use data-text="1" xlink:href="#font_2_4" transform="matrix(9.963197,0,0,-9.962799,113.36589,245.62363)" fill="#0000ff"/>
<use data-text="8" xlink:href="#font_2_7" transform="matrix(9.963197,0,0,-9.962799,118.34749,245.62363)" fill="#0000ff"/>
<use data-text="0" xlink:href="#font_2_3" transform="matrix(9.963197,0,0,-9.962799,123.32907,245.62363)" fill="#0000ff"/>
<use data-text="&#x25e6;" xlink:href="#font_4_1" transform="matrix(6.9742186,0,0,-6.97394,128.31079,242.00756)" fill="#0000ff"/>
<path transform="matrix(1.00006,0,0,-1.00002,9.72168,86.03842)" stroke-width=".79701" stroke-linecap="butt" stroke-miterlimit="10" stroke-linejoin="miter" fill="none" stroke="#000000" d="M155.90746-56.69362H267.86006"/>
<path transform="matrix(1.00006,0,0,-1.00002,277.59779,142.73319)" d="M1.0361 0C-.25902 .25902-1.55415 .77707-3.1083 1.68365-1.55415 .51805-1.55415-.51805-3.1083-1.68365-1.55415-.77707-.25902-.25902 1.0361 0Z"/>
<path transform="matrix(1.00006,0,0,-1.00002,277.59779,142.73319)" stroke-width=".79701" stroke-linecap="butt" stroke-linejoin="round" fill="none" stroke="#000000" d="M1.0361 0C-.25902 .25902-1.55415 .77707-3.1083 1.68365-1.55415 .51805-1.55415-.51805-3.1083-1.68365-1.55415-.77707-.25902-.25902 1.0361 0Z"/>
<path transform="matrix(1.00006,0,0,-1.00002,9.72168,86.03842)" stroke-width=".79701" stroke-linecap="butt" stroke-miterlimit="10" stroke-linejoin="miter" fill="none" stroke="#000000" d="M170.08086-37.64795V-136.06476"/>
<path transform="matrix(0,-1.00002,-1.00006,-0,179.81273,123.28862)" stroke-width=".79701" stroke-linecap="round" stroke-linejoin="round" fill="none" stroke="#000000" d="M-2.55046 3.11095C-2.0845 1.24435-1.04614 .36295 0 0-1.04614-.36295-2.0845-1.24435-2.55046-3.11095"/>
<path transform="matrix(1.00006,0,0,-1.00002,9.72168,86.03842)" stroke-width=".79701" stroke-linecap="butt" stroke-miterlimit="10" stroke-linejoin="miter" fill="none" stroke="#0000ff" d="M170.08086-56.69362 268.1745-135.16861"/>
<path transform="matrix(.78086689,.62467256,.62469747,-.7808356,277.91227,221.20972)" d="M1.0361 0C-.25902 .25902-1.55415 .77707-3.1083 1.68365-1.55415 .51805-1.55415-.51805-3.1083-1.68365-1.55415-.77707-.25902-.25902 1.0361 0Z" fill="#0000ff"/>
<path transform="matrix(.78086689,.62467256,.62469747,-.7808356,277.91227,221.20972)" stroke-width=".79701" stroke-linecap="butt" stroke-linejoin="round" fill="none" stroke="#0000ff" d="M1.0361 0C-.25902 .25902-1.55415 .77707-3.1083 1.68365-1.55415 .51805-1.55415-.51805-3.1083-1.68365-1.55415-.77707-.25902-.25902 1.0361 0Z"/>
<use data-text="r" xlink:href="#font_1_4" transform="matrix(9.963197,0,0,-9.962799,215.95005,182.57135)" fill="#0000ff"/>
<path transform="matrix(1.00006,0,0,-1.00002,9.72168,86.03842)" stroke-width=".79701" stroke-linecap="butt" stroke-miterlimit="10" stroke-linejoin="miter" fill="none" stroke="#ff0000" d="M189.92353-58.12822C189.92353-61.19829 188.38814-65.57127 186.47055-67.96841"/>
<path transform="matrix(0,-1.00002,-1.00006,-0,199.65659,144.1678)" d="M1.0361 0C-.25902 .25902-1.55415 .77707-3.1083 1.68365-1.55415 .51805-1.55415-.51805-3.1083-1.68365-1.55415-.77707-.25902-.25902 1.0361 0Z" fill="#ff0000"/>
<path transform="matrix(0,-1.00002,-1.00006,-0,199.65659,144.1678)" stroke-width=".79701" stroke-linecap="butt" stroke-linejoin="round" fill="none" stroke="#ff0000" d="M1.0361 0C-.25902 .25902-1.55415 .77707-3.1083 1.68365-1.55415 .51805-1.55415-.51805-3.1083-1.68365-1.55415-.77707-.25902-.25902 1.0361 0Z"/>
<path transform="matrix(-.6246674,.7808556,.7808868,.6246425,196.20343,154.00818)" d="M1.0361 0C-.25902 .25902-1.55415 .77707-3.1083 1.68365-1.55415 .51805-1.55415-.51805-3.1083-1.68365-1.55415-.77707-.25902-.25902 1.0361 0Z" fill="#ff0000"/>
<path transform="matrix(-.6246674,.7808556,.7808868,.6246425,196.20343,154.00818)" stroke-width=".79701" stroke-linecap="butt" stroke-linejoin="round" fill="none" stroke="#ff0000" d="M1.0361 0C-.25902 .25902-1.55415 .77707-3.1083 1.68365-1.55415 .51805-1.55415-.51805-3.1083-1.68365-1.55415-.77707-.25902-.25902 1.0361 0Z"/>
<use data-text="&#x02dc;" xlink:href="#font_2_9" transform="matrix(9.963197,0,0,-9.962799,205.0664,153.30577)" fill="#ff0000"/>
<use data-text="&#x03b8;" xlink:href="#font_1_1" transform="matrix(9.963197,0,0,-9.962799,204.24935,155.93482)" fill="#ff0000"/>
<path transform="matrix(1.00006,0,0,-1.00002,9.72168,86.03842)" stroke-width=".79701" stroke-linecap="butt" stroke-miterlimit="10" stroke-linejoin="miter" fill="none" stroke="#929292" d="M178.58498-56.69362C178.58498-51.99686 174.7776-48.18948 170.08086-48.18948 165.3841-48.18948 161.57672-51.99686 161.57672-56.69362 161.57672-61.39037 165.3841-65.19774 170.08086-65.19774 172.66378-65.19774 175.10774-64.0226 175.82501-63.12604"/>
<path transform="matrix(.6246374,-.7808656,-.78089687,-.6246125,185.55722,149.16573)" d="M1.0361 0C-.25902 .25902-1.55415 .77707-3.1083 1.68365-1.55415 .51805-1.55415-.51805-3.1083-1.68365-1.55415-.77707-.25902-.25902 1.0361 0Z" fill="#929292"/>
<path transform="matrix(.6246374,-.7808656,-.78089687,-.6246125,185.55722,149.16573)" stroke-width=".79701" stroke-linecap="butt" stroke-linejoin="round" fill="none" stroke="#929292" d="M1.0361 0C-.25902 .25902-1.55415 .77707-3.1083 1.68365-1.55415 .51805-1.55415-.51805-3.1083-1.68365-1.55415-.77707-.25902-.25902 1.0361 0Z"/>
<use data-text="&#x03b8;" xlink:href="#font_1_1" transform="matrix(9.963197,0,0,-9.962799,169.31125,136.19944)"/>
<path transform="matrix(1.00006,0,0,-1.00002,9.72168,86.03842)" stroke-width=".79701" stroke-linecap="butt" stroke-dasharray="2.98883,2.98883" stroke-miterlimit="10" stroke-linejoin="miter" fill="none" stroke="#929292" d="M240.94788-56.69362V-113.38724"/>
<path transform="matrix(1.00006,0,0,-1.00002,9.72168,86.03842)" stroke-width=".79701" stroke-linecap="butt" stroke-miterlimit="10" stroke-linejoin="miter" fill="none" stroke="#0000ff" d="M240.94788-56.69362V-63.7803H233.86118V-56.69362ZM233.86118-63.7803"/>
<path transform="matrix(1.00006,0,0,-1.00002,9.72168,86.03842)" d="M242.44229-113.38724C242.44229-112.56189 241.77321-111.89282 240.94788-111.89282 240.12253-111.89282 239.45346-112.56189 239.45346-113.38724 239.45346-114.21257 240.12253-114.88165 240.94788-114.88165 241.77321-114.88165 242.44229-114.21257 242.44229-113.38724ZM240.94788-113.38724"/>
<path transform="matrix(1.00006,0,0,-1.00002,9.72168,86.03842)" stroke-width=".3985" stroke-linecap="butt" stroke-miterlimit="10" stroke-linejoin="miter" fill="none" stroke="#000000" d="M242.44229-113.38724C242.44229-112.56189 241.77321-111.89282 240.94788-111.89282 240.12253-111.89282 239.45346-112.56189 239.45346-113.38724 239.45346-114.21257 240.12253-114.88165 240.94788-114.88165 241.77321-114.88165 242.44229-114.21257 242.44229-113.38724ZM240.94788-113.38724"/>
<use data-text="P" xlink:href="#font_1_3" transform="matrix(9.963197,0,0,-9.962799,218.26218,210.41992)"/>
<use data-text="(" xlink:href="#font_2_1" transform="matrix(9.963197,0,0,-9.962799,226.04265,210.41992)"/>
<use data-text="x" xlink:href="#font_1_5" transform="matrix(9.963197,0,0,-9.962799,229.91687,210.41992)"/>
<use data-text="," xlink:href="#font_1_2" transform="matrix(9.963197,0,0,-9.962799,235.60587,210.41992)"/>
<use data-text="y" xlink:href="#font_1_6" transform="matrix(9.963197,0,0,-9.962799,240.01956,210.41992)"/>
<use data-text=")" xlink:href="#font_2_2" transform="matrix(9.963197,0,0,-9.962799,245.2818,210.41992)"/>
<use data-text="F" xlink:href="#font_3_54" transform="matrix(9.963197,0,0,-9.962799,172.72547,245.62363)" fill="#0000ff"/>
<use data-text="o" xlink:href="#font_3_81" transform="matrix(9.963197,0,0,-9.962799,178.41446,245.62363)" fill="#0000ff"/>
<use data-text="u" xlink:href="#font_3_109" transform="matrix(9.963197,0,0,-9.962799,183.39606,245.62363)" fill="#0000ff"/>
<use data-text="r" xlink:href="#font_3_96" transform="matrix(9.963197,0,0,-9.962799,188.9356,245.62363)" fill="#0000ff"/>
<use data-text="t" xlink:href="#font_3_105" transform="matrix(9.963197,0,0,-9.962799,192.84117,245.62363)" fill="#0000ff"/>
<use data-text="h" xlink:href="#font_3_63" transform="matrix(9.963197,0,0,-9.962799,196.71686,245.62363)" fill="#0000ff"/>
<use data-text="-" xlink:href="#font_3_64" transform="matrix(9.963197,0,0,-9.962799,202.2564,245.62363)" fill="#0000ff"/>
<use data-text="q" xlink:href="#font_3_91" transform="matrix(9.963197,0,0,-9.962799,205.57413,245.62363)" fill="#0000ff"/>
<use data-text="u" xlink:href="#font_3_109" transform="matrix(9.963197,0,0,-9.962799,210.83469,245.62363)" fill="#0000ff"/>
<use data-text="a" xlink:href="#font_3_28" transform="matrix(9.963197,0,0,-9.962799,216.37424,245.62363)" fill="#0000ff"/>
<use data-text="d" xlink:href="#font_3_47" transform="matrix(9.963197,0,0,-9.962799,221.3558,245.62363)" fill="#0000ff"/>
<use data-text="r" xlink:href="#font_3_96" transform="matrix(9.963197,0,0,-9.962799,226.89536,245.62363)" fill="#0000ff"/>
<use data-text="a" xlink:href="#font_3_28" transform="matrix(9.963197,0,0,-9.962799,230.8009,245.62363)" fill="#0000ff"/>
<use data-text="n" xlink:href="#font_3_77" transform="matrix(9.963197,0,0,-9.962799,235.7825,245.62363)" fill="#0000ff"/>
<use data-text="t" xlink:href="#font_3_105" transform="matrix(9.963197,0,0,-9.962799,241.04309,245.62363)" fill="#0000ff"/>
<use data-text=":" xlink:href="#font_3_44" transform="matrix(9.963197,0,0,-9.962799,244.91876,245.62363)" fill="#0000ff"/>
<use data-text="&#x02dc;" xlink:href="#font_2_9" transform="matrix(9.963197,0,0,-9.962799,253.47733,242.99457)" fill="#0000ff"/>
<use data-text="&#x03b8;" xlink:href="#font_1_1" transform="matrix(9.963197,0,0,-9.962799,252.66025,245.62363)" fill="#0000ff"/>
<use data-text="=" xlink:href="#font_2_8" transform="matrix(9.963197,0,0,-9.962799,260.3817,245.62363)" fill="#0000ff"/>
<use data-text="3" xlink:href="#font_2_5" transform="matrix(9.963197,0,0,-9.962799,270.88294,245.62363)" fill="#0000ff"/>
<use data-text="6" xlink:href="#font_2_6" transform="matrix(9.963197,0,0,-9.962799,275.86454,245.62363)" fill="#0000ff"/>
<use data-text="0" xlink:href="#font_2_3" transform="matrix(9.963197,0,0,-9.962799,280.8461,245.62363)" fill="#0000ff"/>
<use data-text="&#x25e6;" xlink:href="#font_4_1" transform="matrix(6.9742186,0,0,-6.97394,285.84425,242.00756)" fill="#0000ff"/>
<use data-text="&#x2212;" xlink:href="#font_5_1" transform="matrix(9.963197,0,0,-9.962799,292.63764,245.62363)" fill="#0000ff"/>
<use data-text="&#x03b8;" xlink:href="#font_1_1" transform="matrix(9.963197,0,0,-9.962799,302.60127,245.62363)" fill="#0000ff"/>
</svg>
