<svg xmlns="http://www.w3.org/2000/svg" xmlns:xlink="http://www.w3.org/1999/xlink" version="1.1" width="137" height="74" viewBox="0 0 137 74">
<defs>
<path id="font_1_28" d="M.48298646 .08912659V.14511109H.45799256V.08912659C.45799256 .03112793 .43299867 .025131226 .42199708 .025131226 .3889923 .025131226 .3849945 .070129398 .3849945 .07511902V.27508546C.3849945 .31707765 .3849945 .3560791 .34899903 .39312745 .30999757 .43223573 .2599945 .4482422 .21199036 .4482422 .12998963 .4482422 .06098938 .40115357 .06098938 .335083 .06098938 .30508424 .08099365 .28808595 .10699463 .28808595 .1349945 .28808595 .15299988 .30807496 .15299988 .33407594 .15299988 .3460846 .147995 .37908937 .101989749 .38008119 .1289978 .41519166 .17799378 .426239 .20999146 .426239 .25898744 .426239 .31599427 .38710023 .31599427 .29808045V.26107789C.2649994 .25808717 .19499207 .25508119 .13198853 .22509766 .056991579 .19110108 .03199768 .13911438 .03199768 .09512329 .03199768 .014251709 .1289978-.0107421879 .19198609-.0107421879 .2579956-.0107421879 .3039856 .029251099 .32299806 .07624817 .32699586 .036132814 .35398866-.005859375 .40098573-.005859375 .42199708-.005859375 .48298646 .008132935 .48298646 .08912659M.31599427 .14013672C.31599427 .04525757 .24398804 .011245728 .19898987 .011245728 .1499939 .011245728 .10899353 .04624939 .10899353 .09625244 .10899353 .15124512 .15098572 .23425293 .31599427 .24024964V.14013672Z"/>
<path id="font_1_77" d="M.5349884 0V.0309906C.48298646 .0309906 .45799256 .0309906 .45700074 .061019899V.25221253C.45700074 .3383026 .45700074 .36932374 .42599488 .405365 .4119873 .42237855 .3789978 .4423828 .32099916 .4423828 .24798584 .4423828 .20098877 .39935304 .17298889 .33729554V.4423828L.03199768 .43066407V.3996582C.101989749 .3996582 .10998535 .39266969 .10998535 .34370423V.07595825C.10998535 .0309906 .09899902 .0309906 .03199768 .0309906V0L.14498902 .0029907227 .25698854 0V.0309906C.18998719 .0309906 .1789856 .0309906 .1789856 .07595825V.25978089C.1789856 .36431886 .25 .42037965 .31399537 .42037965 .3769989 .42037965 .3880005 .36631776 .3880005 .30926515V.076034549C.3880005 .0309906 .3769989 .0309906 .30999757 .0309906V0L.4229889 .0029907227 .5349884 0Z"/>
<path id="font_1_59" d="M.4850006 .40411378C.4850006 .42111207 .47299195 .453125 .43399049 .453125 .4139862 .453125 .36999513 .44711305 .32798768 .40611268 .28599549 .43937684 .24398804 .4423828 .22200012 .4423828 .1289978 .4423828 .05999756 .37338258 .05999756 .29638673 .05999756 .25239564 .08198547 .21440125 .10699463 .19340515 .09399414 .17840576 .07598877 .14538574 .07598877 .11035156 .07598877 .07899475 .08898926 .04083252 .11999512 .020828248 .05999756 .003829956 .027999878-.039138795 .027999878-.07911682 .027999878-.15107727 .1269989-.20605469 .24899292-.20605469 .36698915-.20605469 .47099305-.15507508 .47099305-.07711792 .47099305-.042144777 .45700074 .008834839 .4059906 .036834718 .35299684 .064834598 .29499818 .064834598 .23399353 .064834598 .20899964 .064834598 .1659851 .064834598 .15899658 .065841678 .1269989 .069885257 .10598755 .101242069 .10598755 .13334656 .10598755 .13735962 .10598755 .16040039 .12298584 .18040467 .1619873 .15240479 .20298767 .14941406 .22200012 .14941406 .31498719 .14941406 .38398744 .21839905 .38398744 .2953949 .38398744 .3323822 .36799623 .36938478 .34298707 .39237977 .3789978 .42637635 .4149933 .43138124 .43299867 .43138124 .43299867 .43112184 .43998719 .43112184 .44299317 .43011476 .43199159 .42611695 .4269867 .41513063 .4269867 .40315248 .4269867 .38616944 .43998719 .37417604 .45599366 .37417604 .46598817 .37417604 .4850006 .3811798 .4850006 .4041443V.40411378M.30899049 .29626466C.30899049 .26930238 .30799867 .2373352 .29299928 .21235657 .2849884 .20037842 .2619934 .17240906 .22200012 .17240906 .1349945 .17240906 .1349945 .2722931 .1349945 .29527284 .1349945 .3222351 .13598633 .35420228 .15098572 .3791809 .15899658 .3913269 .18199158 .41937257 .22200012 .41937257 .30899049 .41937257 .30899049 .31922914 .30899049 .29618836V.29626466M.4189911-.07911682C.4189911-.13308716 .34799195-.18305969 .25-.18305969 .14898682-.18305969 .07998657-.13209534 .07998657-.07911682 .07998657-.03314209 .117996219 .003829956 .1619873 .0068359377H.22099304C.30699159 .0068359377 .4189911 .0068359377 .4189911-.07911682Z"/>
<path id="font_1_72" d="M.25498963 0V.0309906C.18798828 .0309906 .1769867 .0309906 .1769867 .07601929V.69433596L.032989503 .6826172V.6516113C.102996829 .6516113 .11099243 .64460757 .11099243 .5956421V.07595825C.11099243 .0309906 .099990848 .0309906 .032989503 .0309906V0L.14399719 .0029907227 .25498963 0Z"/>
<path id="font_1_50" d="M.4149933 .11933899C.4149933 .12934876 .40699769 .13134766 .4019928 .13134766 .3929901 .13134766 .3909912 .12535095 .3889923 .11734009 .35398866 .014251709 .2639923 .014251709 .2539978 .014251709 .20399475 .014251709 .1639862 .044281007 .14099121 .08131409 .11099243 .12934876 .11099243 .19540406 .11099243 .23144531H.3899994C.4119873 .23144531 .4149933 .23144531 .4149933 .2524414 .4149933 .35131837 .36099244 .4482422 .23599243 .4482422 .11999512 .4482422 .027999878 .34532167 .027999878 .22042847 .027999878 .08631897 .1329956-.0107421879 .24798584-.0107421879 .36999513-.0107421879 .4149933 .10032654 .4149933 .11933899M.34899903 .2524414H.11199951C.117996219 .40126039 .20199585 .426239 .23599243 .426239 .33898927 .426239 .34899903 .2913971 .34899903 .2524414Z"/>
<path id="font_1_81" d="M.47099305 .21424866C.47099305 .34223939 .37098695 .4482422 .25 .4482422 .125 .4482422 .027999878 .3392334 .027999878 .21424866 .027999878 .085250858 .13198853-.0107421879 .24899292-.0107421879 .36999513-.0107421879 .47099305 .087249759 .47099305 .21424866M.3880005 .22224427C.3880005 .18624878 .3880005 .13224793 .3659973 .08824158 .34399415 .04324341 .2999878 .014251709 .25 .014251709 .20698548 .014251709 .16299439 .035247804 .13598633 .08125305 .11099243 .12524414 .11099243 .18624878 .11099243 .22224427 .11099243 .26124574 .11099243 .31523133 .1349945 .35923768 .1619873 .40522767 .20899964 .426239 .24899292 .426239 .29299928 .426239 .33599855 .40423585 .3619995 .36123658 .3880005 .3182373 .3880005 .26023866 .3880005 .22224427Z"/>
<path id="font_1_55" d="M.35699464 .63479617C.35699464 .6717987 .31999208 .7050781 .2669983 .7050781 .19699097 .7050781 .11199951 .65179446 .11199951 .5457611V.43066407H.032989503V.3996582H.11199951V.07595825C.11199951 .0309906 .100997928 .0309906 .033996583 .0309906V0L.147995 .0029907227C.18798828 .0029907227 .23498535 .0029907227 .2749939 0V.0309906H.2539978C.17999268 .0309906 .17799378 .04197693 .17799378 .07795715V.3996582H.2919922V.43066407H.1749878V.5467529C.1749878 .63479617 .22299195 .68307498 .2669983 .68307498 .269989 .68307498 .2849884 .68307498 .2999878 .675827 .28799439 .6717987 .269989 .6587982 .269989 .6338043 .269989 .61079409 .28599549 .5907898 .31298829 .5907898 .34199525 .5907898 .35699464 .61079409 .35699464 .63479617Z"/>
<path id="font_1_112" d="M.5079956 .3996582V.43066407C.4850006 .4286499 .45599366 .42765809 .43299867 .42765809L.34599305 .43066407V.3996582C.3829956 .39865113 .3939972 .37568666 .3939972 .35671998 .3939972 .34773255 .3919983 .34373475 .3880005 .3327484L.28599549 .078125 .17399597 .35671998C.16799927 .3697052 .16799927 .37368775 .16799927 .37368775 .16799927 .3996582 .20698548 .3996582 .22499085 .3996582V.43066407L.115997318 .42765809C.08898926 .42765809 .04899597 .4286499 .018997193 .43066407V.3996582C.08198547 .3996582 .085998538 .3936615 .09899902 .36271668L.24299622 .008224487C.24899292-.0057525637 .25099183-.0107421879 .2639923-.0107421879 .2769928-.0107421879 .2809906-.0017700195 .2849884 .008224487L.41600038 .3327484C.4249878 .3557129 .44198609 .39865113 .5079956 .3996582Z"/>
<path id="font_1_105" d="M.33198548 .12385559V.18066406H.30699159V.12585449C.30699159 .052108766 .2769928 .014251709 .23999024 .014251709 .17298889 .014251709 .17298889 .10491943 .17298889 .12187195V.3996582H.31599427V.43066407H.17298889V.6142578H.147995C.14698792 .5324249 .116989139 .42565919 .018997193 .42166139V.3996582H.10398865V.12408447C.10398865 .0012512207 .19699097-.0107421879 .23298645-.0107421879 .3039856-.0107421879 .33198548 .060180665 .33198548 .12408447V.12385559Z"/>
<path id="font_1_66" d="M.24699402 0V.0309906C.18099976 .0309906 .1769867 .035995485 .1769867 .075042728V.4423828L.036987306 .43066407V.3996582C.101989749 .3996582 .11099243 .3936615 .11099243 .3447113V.07595825C.11099243 .0309906 .099990848 .0309906 .032989503 .0309906V0L.14299011 .0029907227C.17799378 .0029907227 .21299744 .0009918213 .24699402 0M.19198609 .603775C.19198609 .6307678 .16899109 .6567688 .13899231 .6567688 .10499573 .6567688 .084991458 .6287689 .084991458 .603775 .084991458 .57676699 .10798645 .55078127 .13798523 .55078127 .17199707 .55078127 .19198609 .5787811 .19198609 .603775Z"/>
<path id="font_1_43" d="M.4149933 .119140628C.4149933 .12911988 .40499879 .12911988 .4019928 .12911988 .3929901 .12911988 .3909912 .12512207 .3889923 .119140628 .3600006 .026229859 .29499818 .014251709 .2579956 .014251709 .20498657 .014251709 .116989139 .0572052 .116989139 .21801758 .116989139 .38093568 .19898987 .42323304 .2519989 .42323304 .26098634 .42323304 .32398988 .42222596 .35899354 .38594056 .31799317 .38293458 .31199647 .3529358 .31199647 .3399353 .31199647 .31393434 .32998658 .2939453 .35798646 .2939453 .38398744 .2939453 .4039917 .3109436 .4039917 .34094239 .4039917 .40911866 .32798768 .4482422 .25099183 .4482422 .12599182 .4482422 .033996583 .3399353 .033996583 .21601868 .033996583 .08816528 .1329956-.0107421879 .24899292-.0107421879 .3829956-.0107421879 .4149933 .10914612 .4149933 .119140628Z"/>
<path id="font_1_122" d="M.6279907 .6349945C.6279907 .671051 .59298709 .7050781 .5369873 .7050781 .47799684 .7050781 .43399049 .66703799 .42900086 .66304019 .3999939 .70007327 .34399415 .7050781 .31698609 .7050781 .22200012 .7050781 .10598755 .65301516 .10598755 .5448456V.43066407H.026992798V.3996582H.10598755V.07595825C.10598755 .0309906 .09498596 .0309906 .027999878 .0309906V0L.13899231 .0029907227 .25 0V.0309906C.18299866 .0309906 .17199707 .0309906 .17199707 .07595825V.3996582H.38198854V.07595825C.38198854 .0309906 .37098695 .0309906 .3039856 .0309906V0L.41799928 .0029907227C.45799256 .0029907227 .5049896 .0029907227 .54499819 0V.0309906H.5239868C.44999696 .0309906 .44799806 .04197693 .44799806 .07795715V.3996582H.5629883V.43066407H.44499208V.5468445C.44499208 .6359863 .49299623 .68307498 .5379944 .68307498 .54100039 .68307498 .55599978 .68307498 .57099917 .6760559 .5589905 .6720581 .54100039 .6590271 .54100039 .6339874 .54100039 .61094668 .5569916 .59091189 .58399966 .59091189 .61299136 .59091189 .6279907 .61094668 .6279907 .6349945M.3929901 .664032C.3769989 .66104128 .35699464 .64801028 .35699464 .6199646 .35699464 .61395266 .35798646 .58891299 .3849945 .579895 .38198854 .5668793 .38198854 .5578613 .38198854 .54585269V.43066407H.16899109V.5438385C.16899109 .64100649 .25099183 .68307498 .31599427 .68307498 .36499024 .68307498 .3929901 .664032 .3929901 .664032Z"/>
</defs>
<path transform="matrix(1.00009,0,0,-1.00005,116.10582,59.40117)" stroke-width=".79701" stroke-linecap="butt" stroke-miterlimit="10" stroke-linejoin="miter" fill="none" stroke="#0000ff" d="M0 0V5.74019H-5.74019V0ZM-5.74019 5.74019"/>
<path transform="matrix(1.00009,0,0,-1.00005,116.10582,59.40117)" stroke-width=".79701" stroke-linecap="butt" stroke-miterlimit="10" stroke-linejoin="miter" fill="none" stroke="#000000" d="M0 0H-114.80153"/>
<use data-text="a" xlink:href="#font_1_28" transform="matrix(9.963496,0,0,-9.963098,39.713945,70.14471)" fill="#ff0000"/>
<use data-text="n" xlink:href="#font_1_77" transform="matrix(9.963496,0,0,-9.963098,44.695695,70.14471)" fill="#ff0000"/>
<use data-text="g" xlink:href="#font_1_59" transform="matrix(9.963496,0,0,-9.963098,50.235399,70.14471)" fill="#ff0000"/>
<use data-text="l" xlink:href="#font_1_72" transform="matrix(9.963496,0,0,-9.963098,55.217134,70.14471)" fill="#ff0000"/>
<use data-text="e" xlink:href="#font_1_50" transform="matrix(9.963496,0,0,-9.963098,57.986986,70.14471)" fill="#ff0000"/>
<use data-text="o" xlink:href="#font_1_81" transform="matrix(9.963496,0,0,-9.963098,65.72864,70.14471)" fill="#ff0000"/>
<use data-text="f" xlink:href="#font_1_55" transform="matrix(9.963496,0,0,-9.963098,70.71037,70.14471)" fill="#ff0000"/>
<use data-text="e" xlink:href="#font_1_50" transform="matrix(9.963496,0,0,-9.963098,77.07706,70.14471)" fill="#ff0000"/>
<use data-text="l" xlink:href="#font_1_72" transform="matrix(9.963496,0,0,-9.963098,81.500858,70.14471)" fill="#ff0000"/>
<use data-text="e" xlink:href="#font_1_50" transform="matrix(9.963496,0,0,-9.963098,84.270709,70.14471)" fill="#ff0000"/>
<use data-text="v" xlink:href="#font_1_112" transform="matrix(9.963496,0,0,-9.963098,88.6945,70.14471)" fill="#ff0000"/>
<use data-text="a" xlink:href="#font_1_28" transform="matrix(9.963496,0,0,-9.963098,93.40724,70.14471)" fill="#ff0000"/>
<use data-text="t" xlink:href="#font_1_105" transform="matrix(9.963496,0,0,-9.963098,98.38899,70.14471)" fill="#ff0000"/>
<use data-text="i" xlink:href="#font_1_66" transform="matrix(9.963496,0,0,-9.963098,102.26482,70.14471)" fill="#ff0000"/>
<use data-text="o" xlink:href="#font_1_81" transform="matrix(9.963496,0,0,-9.963098,105.03465,70.14471)" fill="#ff0000"/>
<use data-text="n" xlink:href="#font_1_77" transform="matrix(9.963496,0,0,-9.963098,110.0164,70.14471)" fill="#ff0000"/>
<path transform="matrix(1.00009,0,0,-1.00005,116.10582,59.40117)" stroke-width=".79701" stroke-linecap="butt" stroke-miterlimit="10" stroke-linejoin="miter" fill="none" stroke="#000000" d="M0 0V57.40074"/>
<use data-text="c" xlink:href="#font_1_43" transform="matrix(9.963496,0,0,-9.963098,119.82516,34.156908)"/>
<use data-text="l" xlink:href="#font_1_72" transform="matrix(9.963496,0,0,-9.963098,124.24897,34.156908)"/>
<use data-text="i" xlink:href="#font_1_66" transform="matrix(9.963496,0,0,-9.963098,127.01882,34.156908)"/>
<use data-text="f" xlink:href="#font_1_122" transform="matrix(9.963496,0,0,-9.963098,129.78867,34.156908)"/>
<path transform="matrix(1.00009,0,0,-1.00005,116.10582,59.40117)" stroke-width=".79701" stroke-linecap="butt" stroke-dasharray="2.98883,2.98883" stroke-miterlimit="10" stroke-linejoin="miter" fill="none" stroke="#929292" d="M-114.80153 0 0 57.40074"/>
<path transform="matrix(1.00009,0,0,-1.00005,116.10582,59.40117)" stroke-width=".79701" stroke-linecap="butt" stroke-miterlimit="10" stroke-linejoin="miter" fill="none" stroke="#ff0000" d="M-103.32112 0C-103.32112 1.78154-103.73735 3.5405-104.53387 5.13373"/>
<path transform="matrix(1.00009,0,0,-1.00005,116.10582,59.40117)" stroke-width=".3985" stroke-linecap="butt" stroke-miterlimit="10" stroke-linejoin="miter" fill="none" stroke="#ff0000" d="M-78.06673-6.88829"/>
<path transform="matrix(1.00009,0,0,-1.00005,116.10582,59.40117)" stroke-width=".3985" stroke-linecap="butt" stroke-miterlimit="10" stroke-linejoin="miter" fill="none" stroke="#ff0000" d="M-78.06673-6.88829C-87.9196-6.88829-91.46631 5.00403-100.18848 3.46584"/>
<path transform="matrix(-.9848886,.17365867,.17366563,.98484918,15.908325,55.935148)" d="M.797 0C-.19925 .19925-1.19551 .59775-2.39102 1.29512-1.19551 .3985-1.19551-.3985-2.39102-1.29512-1.19551-.59775-.19925-.19925 .797 0Z" fill="#ff0000"/>
<path transform="matrix(-.9848886,.17365867,.17366563,.98484918,15.908325,55.935148)" stroke-width=".3985" stroke-linecap="butt" stroke-linejoin="round" fill="none" stroke="#ff0000" d="M.797 0C-.19925 .19925-1.19551 .59775-2.39102 1.29512-1.19551 .3985-1.19551-.3985-2.39102-1.29512-1.19551-.59775-.19925-.19925 .797 0Z"/>
</svg>
