<svg xmlns="http://www.w3.org/2000/svg" xmlns:xlink="http://www.w3.org/1999/xlink" version="1.1" width="274" height="60" viewBox="0 0 274 60">
<defs>
<path id="font_1_2" d="M.33399964 .30233766C.33999635 .32835389 .36299134 .42037965 .43299867 .42037965 .43798829 .42037965 .46199037 .42037965 .48298646 .40734864 .45498658 .402359 .43499757 .37734986 .43499757 .35334779 .43499757 .33735658 .44599916 .31835938 .47299195 .31835938 .49499513 .31835938 .5269928 .3363495 .5269928 .37635804 .5269928 .42837525 .46798707 .4423828 .43399049 .4423828 .37599183 .4423828 .34098817 .38935853 .32899476 .36634828 .3039856 .43237306 .25 .4423828 .22099304 .4423828 .116989139 .4423828 .05999756 .3133545 .05999756 .28834535 .05999756 .27833558 .069992069 .27833558 .07199097 .27833558 .07998657 .27833558 .08299255 .28033448 .084991458 .28933717 .11898804 .39535523 .18499756 .42037965 .21899414 .42037965 .23799134 .42037965 .272995 .4113617 .272995 .35334779 .272995 .32235719 .2559967 .25532533 .21899414 .11528015 .20298767 .053268434 .16799927 .011245728 .12399292 .011245728 .117996219 .011245728 .09498596 .011245728 .07398987 .024276734 .09899902 .029266358 .12098694 .05027771 .12098694 .07827759 .12098694 .105270389 .09899902 .11328125 .083999637 .11328125 .053985597 .11328125 .0289917 .08728027 .0289917 .055267335 .0289917 .009246826 .07899475-.0107421879 .12298584-.0107421879 .18899536-.0107421879 .22499085 .059280397 .22799683 .0652771 .23999024 .028274537 .27598573-.0107421879 .33599855-.0107421879 .43899537-.0107421879 .49598695 .118270877 .49598695 .14328003 .49598695 .1532898 .4869995 .1532898 .48399354 .1532898 .47499085 .1532898 .47299195 .14929199 .47099305 .14228821 .43798829 .03527832 .36999513 .011245728 .33799745 .011245728 .29899598 .011245728 .2829895 .043273927 .2829895 .07727051 .2829895 .09927368 .2889862 .121276859 .2999878 .16529846L.33399964 .30233766Z"/>
<path id="font_1_3" d="M.48599244 .38136292C.48999024 .39537049 .48999024 .39736939 .48999024 .40437318 .48999024 .42237855 .47599793 .43138124 .46099855 .43138124 .45098878 .43138124 .43499757 .42536927 .42599488 .41036988 .42399598 .405365 .41600038 .37435914 .4119873 .35635377 .40499879 .33035279 .397995 .30334474 .3919983 .27633668L.34700013 .09628296C.34298707 .08126831 .2999878 .011245728 .23399353 .011245728 .18299866 .011245728 .17199707 .055267335 .17199707 .0922699 .17199707 .1382904 .18899536 .20030213 .22299195 .28833009 .23899842 .3293457 .24299622 .3403473 .24299622 .36035157 .24299622 .405365 .21099854 .4423828 .16099549 .4423828 .06599426 .4423828 .0289917 .29733277 .0289917 .28833009 .0289917 .27833558 .038986207 .27833558 .040985109 .27833558 .050994874 .27833558 .051986696 .28033448 .056991579 .29634095 .083999637 .3903656 .12399292 .42037965 .1579895 .42037965 .1659851 .42037965 .18299866 .42037965 .18299866 .3883667 .18299866 .36335755 .17298889 .3373413 .1659851 .31834413 .12599182 .21231079 .10798645 .1552887 .10798645 .10827637 .10798645 .019256592 .17098999-.0107421879 .22999573-.0107421879 .2689972-.0107421879 .30299378 .0062561037 .33099366 .03425598 .31799317-.017745972 .30599977-.06674194 .2659912-.11973572 .23999024-.15385437 .20199585-.18309021 .1559906-.18309021 .14199829-.18309021 .09700012-.18005371 .07998657-.14074707 .09599304-.14074707 .10899353-.14074707 .12298584-.1287384 .1329956-.11973572 .14299011-.10673523 .14299011-.08773804 .14299011-.056747438 .115997318-.052734376 .10598755-.052734376 .08299255-.052734376 .049987794-.068740848 .049987794-.11773682 .049987794-.16796875 .09399414-.20507813 .1559906-.20507813 .25898744-.20507813 .3619995-.11373901 .3899994-.00074768069L.48599244 .38136292Z"/>
<path id="font_2_1" d="M.6589966 .23046875C.6759949 .23046875 .69400027 .23046875 .69400027 .25045777 .69400027 .27046205 .6759949 .27046205 .6589966 .27046205H.117996219C.100997928 .27046205 .08299255 .27046205 .08299255 .25045777 .08299255 .23046875 .100997928 .23046875 .117996219 .23046875H.6589966Z"/>
<path id="font_3_1" d="M.2939911 .64004519C.2939911 .66400149 .2939911 .6660156 .2709961 .6660156 .20899964 .60227969 .12098694 .60227969 .08898926 .60227969V.57128909C.10899353 .57128909 .16799927 .57128909 .21998596 .5972748V.07902527C.21998596 .042999269 .21699524 .0309906 .1269989 .0309906H.09498596V0C.12998963 .0029907227 .21699524 .0029907227 .25698854 .0029907227 .29699708 .0029907227 .38398744 .0029907227 .4189911 0V.0309906H.3869934C.29699708 .0309906 .2939911 .041992189 .2939911 .07902527V.64004519Z"/>
<path id="font_3_2" d="M.1269989 .07699585 .23298645 .18003845C.3889923 .31811524 .44898988 .3721466 .44898988 .47216798 .44898988 .5860901 .35899354 .6660156 .23699951 .6660156 .12399292 .6660156 .049987794 .57411196 .049987794 .48516847 .049987794 .4291687 .099990848 .4291687 .102996829 .4291687 .11999512 .4291687 .15499878 .44117738 .15499878 .48217774 .15499878 .5081787 .13699341 .5341797 .101989749 .5341797 .09399414 .5341797 .09199524 .5341797 .08898926 .5331726 .11199951 .59806826 .1659851 .63500979 .22399903 .63500979 .31498719 .63500979 .35798646 .5541382 .35798646 .47216798 .35798646 .39215089 .30799867 .31311036 .25299073 .25108338L.06098938 .036987306C.049987794 .025985718 .049987794 .023986817 .049987794 0H.42099L.44898988 .17404175H.42399598C.4189911 .14402771 .4119873 .1000061 .4019928 .084991458 .394989 .07699585 .32899476 .07699585 .30699159 .07699585H.1269989Z"/>
<path id="font_1_1" d="M.2649994 .37265016H.37799073C.34498597 .22489929 .33599855 .18196106 .33599855 .11508179 .33599855 .100097659 .33599855 .073150638 .34399415 .03919983 .35398866-.0047454836 .36499024-.0107421879 .37998963-.0107421879 .3999939-.0107421879 .42099 .007247925 .42099 .02722168 .42099 .033218385 .42099 .035202028 .4149933 .049179079 .38598634 .12106323 .38598634 .18595886 .38598634 .21391297 .38598634 .26683045 .3929901 .32073976 .4039917 .37265016H.5179901C.5309906 .37265016 .5669861 .37265016 .5669861 .406662 .5669861 .43066407 .54599 .43066407 .5269928 .43066407H.19198609C.16999817 .43066407 .13198853 .43066407 .08799744 .38365174 .052993776 .34469605 .026992798 .29878236 .026992798 .29379273 .026992798 .29278565 .026992798 .28379823 .038986207 .28379823 .04699707 .28379823 .04899597 .28779603 .054992677 .29577638 .10398865 .37265016 .1619873 .37265016 .18199158 .37265016H.23899842C.20698548 .25186158 .15299988 .13105774 .11099243 .04020691 .102996829 .025222779 .102996829 .023223877 .102996829 .016235352 .102996829-.002746582 .11898804-.0107421879 .13198853-.0107421879 .1619873-.0107421879 .16999817 .017242432 .18199158 .05418396 .19599915 .100097659 .19599915 .10209656 .20899964 .15202332L.2649994 .37265016Z"/>
<path id="font_3_3" d="M.2899933 .35191346C.37199403 .37893678 .42999269 .4490509 .42999269 .52809146 .42999269 .6100464 .34199525 .6660156 .24598694 .6660156 .14498902 .6660156 .068984989 .60606387 .068984989 .53009036 .068984989 .49710084 .09098816 .47808839 .11999512 .47808839 .15098572 .47808839 .17098999 .50009158 .17098999 .5290985 .17098999 .57910159 .12399292 .57910159 .10899353 .57910159 .13999939 .62802127 .20599365 .64100649 .24198914 .64100649 .2829895 .64100649 .33799745 .6190338 .33799745 .5290985 .33799745 .51708987 .33599855 .45906068 .30999757 .4149933 .27999879 .36691285 .24598694 .36390687 .22099304 .36291505 .21299744 .36190797 .18899536 .35990907 .18199158 .35990907 .17399597 .35890199 .16699219 .35791017 .16699219 .3479004 .16699219 .33691407 .17399597 .33691407 .19099427 .33691407H.23498535C.31698609 .33691407 .35398866 .2686615 .35398866 .17037964 .35398866 .034469606 .2849884 .0055389406 .24099732 .0055389406 .19799805 .0055389406 .12298584 .022491456 .08799744 .08137512 .12298584 .07637024 .1539917 .09837341 .1539917 .1363678 .1539917 .17237854 .1269989 .19238281 .09799194 .19238281 .07398987 .19238281 .041992189 .17837525 .041992189 .1343689 .041992189 .043441774 .1349945-.022460938 .24398804-.022460938 .3659973-.022460938 .45700074 .06838989 .45700074 .17037964 .45700074 .252594 .3939972 .33088685 .2899933 .35191346Z"/>
</defs>
<path transform="matrix(1.00003,0,0,-1.00005,134.27863,32.81499)" stroke-width=".79701" stroke-linecap="butt" stroke-miterlimit="10" stroke-linejoin="miter" fill="none" stroke="#000000" d="M-124.67497 0H127.5428"/>
<path transform="matrix(1.00003,0,0,-1.00005,261.82527,32.81499)" d="M1.0361 0C-.25902 .25902-1.55415 .77707-3.1083 1.68365-1.55415 .51805-1.55415-.51805-3.1083-1.68365-1.55415-.77707-.25902-.25902 1.0361 0Z"/>
<path transform="matrix(1.00003,0,0,-1.00005,261.82527,32.81499)" stroke-width=".79701" stroke-linecap="butt" stroke-linejoin="round" fill="none" stroke="#000000" d="M1.0361 0C-.25902 .25902-1.55415 .77707-3.1083 1.68365-1.55415 .51805-1.55415-.51805-3.1083-1.68365-1.55415-.77707-.25902-.25902 1.0361 0Z"/>
<use data-text="x" xlink:href="#font_1_2" transform="matrix(9.962899,0,0,-9.963098,266.9786,34.9601)"/>
<path transform="matrix(1.00003,0,0,-1.00005,134.27863,32.81499)" stroke-width=".79701" stroke-linecap="butt" stroke-miterlimit="10" stroke-linejoin="miter" fill="none" stroke="#000000" d="M0-19.84267V26.345"/>
<path transform="matrix(0,-1.00005,-1.00003,-0,134.27863,6.4686758)" d="M1.0361 0C-.25902 .25902-1.55415 .77707-3.1083 1.68365-1.55415 .51805-1.55415-.51805-3.1083-1.68365-1.55415-.77707-.25902-.25902 1.0361 0Z"/>
<path transform="matrix(0,-1.00005,-1.00003,-0,134.27863,6.4686758)" stroke-width=".79701" stroke-linecap="butt" stroke-linejoin="round" fill="none" stroke="#000000" d="M1.0361 0C-.25902 .25902-1.55415 .77707-3.1083 1.68365-1.55415 .51805-1.55415-.51805-3.1083-1.68365-1.55415-.77707-.25902-.25902 1.0361 0Z"/>
<use data-text="y" xlink:href="#font_1_3" transform="matrix(9.962899,0,0,-9.963098,137.99774,6.210661)"/>
<path transform="matrix(1.00003,0,0,-1.00005,134.27863,32.81499)" stroke-width=".79701" stroke-linecap="butt" stroke-miterlimit="10" stroke-linejoin="miter" fill="none" stroke="#000000" d="M1.98438-19.84267H-1.98409"/>
<use data-text="&#x2212;" xlink:href="#font_2_1" transform="matrix(9.962899,0,0,-9.963098,115.84507,55.45412)"/>
<use data-text="1" xlink:href="#font_3_1" transform="matrix(9.962899,0,0,-9.963098,123.59429,55.45412)"/>
<path transform="matrix(1.00003,0,0,-1.00005,134.27863,32.81499)" stroke-width=".79701" stroke-linecap="butt" stroke-miterlimit="10" stroke-linejoin="miter" fill="none" stroke="#000000" d="M1.98438 19.84267H-1.98409"/>
<use data-text="1" xlink:href="#font_3_1" transform="matrix(9.962899,0,0,-9.963098,123.59331,16.18216)"/>
<path transform="matrix(1.00003,0,0,-1.00005,134.27863,32.81499)" stroke-width=".79701" stroke-linecap="butt" stroke-miterlimit="10" stroke-linejoin="miter" fill="none" stroke="#000000" d="M-124.67497 1.98438V-1.98409"/>
<use data-text="&#x2212;" xlink:href="#font_2_1" transform="matrix(9.962899,0,0,-9.963098,.21659851,44.939599)"/>
<use data-text="2" xlink:href="#font_3_2" transform="matrix(9.962899,0,0,-9.963098,7.9658205,44.939599)"/>
<use data-text="&#x03c0;" xlink:href="#font_1_1" transform="matrix(9.962899,0,0,-9.963098,12.946976,44.939599)"/>
<path transform="matrix(1.00003,0,0,-1.00005,134.27863,32.81499)" stroke-width=".79701" stroke-linecap="butt" stroke-miterlimit="10" stroke-linejoin="miter" fill="none" stroke="#000000" d="M-93.50607 1.98438V-1.98409"/>
<use data-text="&#x2212;" xlink:href="#font_2_1" transform="matrix(9.962899,0,0,-9.963098,31.385529,44.9386)"/>
<use data-text="3" xlink:href="#font_3_3" transform="matrix(9.962899,0,0,-9.963098,39.13475,44.9386)"/>
<use data-text="&#x03c0;" xlink:href="#font_1_1" transform="matrix(9.962899,0,0,-9.963098,44.115907,44.9386)"/>
<path transform="matrix(1.00003,0,0,-1.00005,-190.09012,31.861945)" stroke-width=".3985" stroke-linecap="butt" stroke-miterlimit="10" stroke-linejoin="miter" fill="none" stroke="#000000" d="M221.469-17.325H240.236"/>
<use data-text="2" xlink:href="#font_3_2" transform="matrix(9.962899,0,0,-9.963098,38.278749,58.513277)"/>
<path transform="matrix(1.00003,0,0,-1.00005,134.27863,32.81499)" stroke-width=".79701" stroke-linecap="butt" stroke-miterlimit="10" stroke-linejoin="miter" fill="none" stroke="#000000" d="M-31.16858 1.98438V-1.98409"/>
<use data-text="&#x2212;" xlink:href="#font_2_1" transform="matrix(9.962899,0,0,-9.963098,96.21547,44.330568)"/>
<use data-text="&#x03c0;" xlink:href="#font_1_1" transform="matrix(9.962899,0,0,-9.963098,103.96469,44.330568)"/>
<path transform="matrix(1.00003,0,0,-1.00005,-125.26018,31.253912)" stroke-width=".3985" stroke-linecap="butt" stroke-miterlimit="10" stroke-linejoin="miter" fill="none" stroke="#000000" d="M221.469-17.325H235.254"/>
<use data-text="2" xlink:href="#font_3_2" transform="matrix(9.962899,0,0,-9.963098,100.617618,57.905244)"/>
<path transform="matrix(1.00003,0,0,-1.00005,134.27863,32.81499)" stroke-width=".79701" stroke-linecap="butt" stroke-miterlimit="10" stroke-linejoin="miter" fill="none" stroke="#000000" d="M-62.33748 1.98438V-1.98409"/>
<use data-text="&#x2212;" xlink:href="#font_2_1" transform="matrix(9.962899,0,0,-9.963098,65.04654,44.330568)"/>
<use data-text="&#x03c0;" xlink:href="#font_1_1" transform="matrix(9.962899,0,0,-9.963098,72.79576,44.330568)"/>
<path transform="matrix(1.00003,0,0,-1.00005,134.27863,32.81499)" stroke-width=".79701" stroke-linecap="butt" stroke-miterlimit="10" stroke-linejoin="miter" fill="none" stroke="#000000" d="M31.16858 1.98438V-1.98409"/>
<use data-text="&#x03c0;" xlink:href="#font_1_1" transform="matrix(9.962899,0,0,-9.963098,162.42946,42.80849)"/>
<path transform="matrix(1.00003,0,0,-1.00005,-59.04619,29.731837)" stroke-width=".3985" stroke-linecap="butt" stroke-miterlimit="10" stroke-linejoin="miter" fill="none" stroke="#000000" d="M221.469-17.325H227.506"/>
<use data-text="2" xlink:href="#font_3_2" transform="matrix(9.962899,0,0,-9.963098,162.95748,56.383169)"/>
<path transform="matrix(1.00003,0,0,-1.00005,134.27863,32.81499)" stroke-width=".79701" stroke-linecap="butt" stroke-miterlimit="10" stroke-linejoin="miter" fill="none" stroke="#000000" d="M62.33748 1.98438V-1.98409"/>
<use data-text="&#x03c0;" xlink:href="#font_1_1" transform="matrix(9.962899,0,0,-9.963098,193.59941,42.80849)"/>
<path transform="matrix(1.00003,0,0,-1.00005,134.27863,32.81499)" stroke-width=".79701" stroke-linecap="butt" stroke-miterlimit="10" stroke-linejoin="miter" fill="none" stroke="#000000" d="M93.50607 1.98438V-1.98409"/>
<use data-text="3" xlink:href="#font_3_3" transform="matrix(9.962899,0,0,-9.963098,222.27826,44.9386)"/>
<use data-text="&#x03c0;" xlink:href="#font_1_1" transform="matrix(9.962899,0,0,-9.963098,227.2604,44.9386)"/>
<path transform="matrix(1.00003,0,0,-1.00005,.8026123,31.861945)" stroke-width=".3985" stroke-linecap="butt" stroke-miterlimit="10" stroke-linejoin="miter" fill="none" stroke="#000000" d="M221.469-17.325H232.487"/>
<use data-text="2" xlink:href="#font_3_2" transform="matrix(9.962899,0,0,-9.963098,225.29737,58.513277)"/>
<path transform="matrix(1.00003,0,0,-1.00005,134.27863,32.81499)" stroke-width=".79701" stroke-linecap="butt" stroke-miterlimit="10" stroke-linejoin="miter" fill="none" stroke="#000000" d="M124.67497 1.98438V-1.98409"/>
<use data-text="2" xlink:href="#font_3_2" transform="matrix(9.962899,0,0,-9.963098,253.44821,44.939599)"/>
<use data-text="&#x03c0;" xlink:href="#font_1_1" transform="matrix(9.962899,0,0,-9.963098,258.42936,44.939599)"/>
<path transform="matrix(1.00003,0,0,-1.00005,134.27863,32.81499)" stroke-width=".3985" stroke-linecap="butt" stroke-dasharray="2.98883,1.99255" stroke-miterlimit="10" stroke-linejoin="miter" fill="none" stroke="#0000ff" d="M-124.67497 19.84236C-124.67497 19.84236-121.86021 19.67023-120.77914 19.46056-119.69809 19.2509-117.96442 18.7422-116.88335 18.3312-115.80228 17.9202-114.0686 17.09477-112.98755 16.4982-111.90646 15.90163-110.17279 14.79097-109.09174 14.0315-108.01067 13.272-106.27698 11.9175-105.19592 11.02434-104.11485 10.13116-102.38118 8.5865-101.30011 7.5942-100.21906 6.60188-98.48535 4.9259-97.4043 3.87247-96.32323 2.81905-94.58955 1.07585-93.50848 .00179-92.42743-1.07224-90.69374-2.81516-89.61267-3.86853-88.53162-4.92192-86.79794-6.59787-85.71686-7.59026-84.6358-8.58264-82.90213-10.12775-81.82108-11.021-80.73999-11.91425-79.00632-13.26855-77.92526-14.02817-76.84418-14.78778-75.1105-15.89897-74.02945-16.49577-72.9484-17.09259-71.21469-17.91847-70.13364-18.32968-69.05257-18.74092-67.31888-19.24977-66.23782-19.45966-65.15677-19.66953-63.42307-19.84212-62.34201-19.84236-61.26094-19.8426-59.52728-19.67084-58.4462-19.46146-57.36514-19.25209-55.63145-18.74414-54.55038-18.33333-53.46933-17.92252-51.73566-17.09706-50.65459-16.50063-49.57352-15.90417-47.83983-14.7938-46.75877-14.03452-45.6777-13.27525-43.94403-11.92122-42.86298-11.02827-41.7819-10.13531-40.04822-8.59094-38.96716-7.59872-37.88611-6.6065-36.1524-4.9304-35.07135-3.87701-33.99028-2.82364-32.25659-1.08064-31.17554-.00664-30.09448 1.06734-28.3608 2.81023-27.27972 3.8637-26.19865 4.91714-24.465 6.59355-23.38391 7.58601-22.30286 8.57849-20.56917 10.12338-19.48811 11.01675-18.40704 11.91014-16.67337 13.26497-15.5923 14.02484-14.51125 14.7847-12.77754 15.89627-11.69649 16.49336-10.61543 17.09044-8.88174 17.91673-7.80067 18.32819-6.71962 18.73962-4.98593 19.24866-3.90488 19.45874-2.8238 19.66881-1.09013 19.84186-.00906 19.84236 1.07198 19.84286 2.80563 19.67154 3.8867 19.46237 4.96777 19.25322 6.70145 18.7454 7.78252 18.33484 8.86359 17.92429 10.59726 17.09955 11.67831 16.50336 12.7594 15.90717 14.49307 14.79698 15.57413 14.03786 16.6552 13.27875 18.38889 11.92506 19.46994 11.03221 20.551 10.13933 22.2847 8.5948 23.36575 7.60268 24.44682 6.61053 26.1805 4.93486 27.26157 3.88156 28.34262 2.82826 30.07631 1.08519 31.15738 .01118 32.23845-1.06279 33.9721-2.80565 35.05319-3.85915 36.13425-4.91264 37.86792-6.58919 38.94897-7.58179 40.03006-8.57437 41.76373-10.11964 42.8448-11.01312 43.92587-11.90662 45.65955-13.26147 46.7406-14.0215 47.82167-14.78152 49.55536-15.89369 50.63641-16.49095 51.71748-17.08818 53.45117-17.91441 54.53223-18.32607 55.61328-18.7377 57.34698-19.24745 58.42804-19.45782 59.50911-19.66821 61.24278-19.84155 62.32385-19.84236 63.4049-19.84315 65.1386-19.67249 66.21967-19.4636 67.30074-19.25468 69.0344-18.747 70.11546-18.33667 71.19653-17.92632 72.9302-17.10207 74.01126-16.50607 75.09233-15.91008 76.82602-14.80017 77.90709-14.04118 78.98814-13.2822 80.72183-11.92853 81.80289-11.03584 82.88396-10.14314 84.61765-8.59917 85.69872-7.60721 86.77977-6.61525 88.51346-4.93967 89.59451-3.88641 90.67557-2.83315 92.40926-1.09007 93.49033-.01602 94.5714 1.058 96.30507 2.80101 97.38612 3.8546 98.4672 4.90819 100.20088 6.58485 101.28194 7.57755 102.36302 8.57022 104.09668 10.11557 105.17775 11.00919 106.2588 11.9028 107.99251 13.25797 109.07356 14.01817 110.15463 14.77837 111.8883 15.89076 112.96938 16.4882 114.05043 17.08568 115.78412 17.91231 116.86517 18.32425 117.94624 18.73618 119.67992 19.2466 120.761 19.45723 121.84206 19.66786 124.6568 19.84236 124.6568 19.84236"/>
<path transform="matrix(1.00003,0,0,-1.00005,134.27863,32.81499)" stroke-width="1.59404" stroke-linecap="butt" stroke-miterlimit="10" stroke-linejoin="miter" fill="none" stroke="#0000ff" d="M0 19.84267C0 19.84267 .7035 19.83124 .97371 19.81783 1.24391 19.80443 1.67723 19.77254 1.94745 19.74606 2.21764 19.7196 2.65096 19.66669 2.92116 19.62709 3.19136 19.58746 3.62468 19.5131 3.8949 19.46056 4.16508 19.408 4.5984 19.31389 4.8686 19.2483 5.13881 19.18274 5.57213 19.06639 5.84235 18.98792 6.11253 18.90944 6.54585 18.77371 6.81606 18.68272 7.08626 18.59174 7.51958 18.43546 7.7898 18.33212 8.06 18.22878 8.4933 18.05325 8.7635 17.9379 9.03372 17.82256 9.46703 17.62793 9.73724 17.50069 10.00745 17.37347 10.44075 17.15968 10.71095 17.0208 10.98117 16.88191 11.41447 16.64973 11.6847 16.49973 11.9549 16.3497 12.3882 16.10043 12.6584 15.93959 12.92862 15.77873 13.36192 15.51173 13.63214 15.34038 13.90234 15.16904 14.33566 14.88583 14.60585 14.70456 14.87607 14.5233 15.30939 14.22481 15.57959 14.03392 15.8498 13.84303 16.28311 13.52888 16.5533 13.32875 16.82352 13.12862 17.25684 12.8003 17.52704 12.5915 17.79724 12.38272 18.23056 12.04086 18.50075 11.82396 18.77097 11.60707 19.20428 11.25272 19.47449 11.02827 19.74469 10.80382 20.17801 10.43782 20.4482 10.20624 20.71841 9.97464 21.15173 9.59724 21.42194 9.35905 21.69214 9.12088 22.12546 8.73361 22.39566 8.48949 22.66586 8.24538 23.09918 7.84912 23.36938 7.59962 23.63959 7.35014 24.0729 6.94559 24.34312 6.69131 24.61331 6.43704 25.04663 6.02533 25.31683 5.76694 25.58704 5.50854 26.02036 5.09087 26.29057 4.82895 26.56076 4.56702 26.99408 4.14404 27.26428 3.87914 27.53448 3.61423 27.9678 3.18681 28.23802 2.91963 28.50821 2.65247 28.94153 2.22221 29.21173 1.95349 29.48193 1.68477 29.91525 1.25253 30.18547 .98279 30.45567 .71306 30.88898 .2794 31.15918 .00937 31.42938-.26064 31.8627-.69373 32.13292-.96341 32.40312-1.2331 32.83643-1.6656 33.10663-1.93442 33.37685-2.20322 33.81015-2.63368 34.08037-2.90086 34.35057-3.16805 34.78389-3.59515 35.05408-3.86006 35.3243-4.12497 35.7576-4.54816 36.02782-4.81017 36.29802-5.07217 36.73134-5.48999 37.00153-5.74847 37.27174-6.00694 37.70505-6.41878 37.97527-6.67314 38.24547-6.9275 38.67879-7.33221 38.94897-7.58179 39.2192-7.83136 39.65251-8.22769 39.92271-8.47194 40.19292-8.71619 40.62624-9.10376 40.89642-9.34212 41.16664-9.58046 41.59996-9.95818 41.87016-10.18988 42.14037-10.4216 42.5737-10.7876 42.8439-11.0122 43.11409-11.23683 43.54741-11.59177 43.81763-11.8088 44.08783-12.02588 44.52115-12.36775 44.79135-12.57666 45.06154-12.78557 45.49486-13.11424 45.76508-13.31453 46.03528-13.51482 46.4686-13.8292 46.7388-14.0203 47.009-14.21138 47.4423-14.5104 47.71252-14.69183 47.98273-14.87328 48.41605-15.15646 48.68625-15.32797 48.95645-15.4995 49.38976-15.76694 49.65997-15.92809 49.93018-16.08922 50.3635-16.33916 50.6337-16.48943 50.90392-16.63968 51.3372-16.87209 51.60742-17.0111 51.87762-17.1501 52.31094-17.36385 52.58115-17.4913 52.85136-17.61874 53.28467-17.81409 53.55487-17.92972 53.82507-18.04538 54.25839-18.2213 54.5286-18.32486 54.79881-18.42839 55.23212-18.5848 55.50232-18.67607 55.77252-18.76735 56.20584-18.90407 56.47604-18.98277 56.74626-19.06151 57.17958-19.17769 57.44977-19.24348 57.71997-19.30925 58.15329-19.40413 58.4235-19.45692 58.69371-19.50972 59.12703-19.5842 59.39722-19.62405 59.66742-19.66393 60.10074-19.7175 60.37094-19.74426 60.64116-19.771 61.07448-19.80331 61.34467-19.81693 61.61487-19.83054 62.3184-19.84236 62.3184-19.84236"/>
</svg>
