<svg xmlns="http://www.w3.org/2000/svg" xmlns:xlink="http://www.w3.org/1999/xlink" version="1.1" width="130" height="130" viewBox="0 0 130 130">
<defs>
<path id="font_1_90" d="M.72698977-.010345459C.72698977-.00033569337 .72698977 .010650635 .71598818 .010650635 .70700076 .010650635 .70599368 .0026550294 .7049866-.0073394777 .69898989-.061340333 .6569977-.09133911 .6139984-.09133911 .5669861-.09133911 .5419922-.05734253 .5179901 .006652832 .6359863 .059570314 .72099307 .1876831 .72099307 .3387909 .72099307 .5429535 .56999209 .7050781 .3880005 .7050781 .20899964 .7050781 .055999757 .54496768 .055999757 .3387909 .055999757 .13664246 .20698548-.022460938 .3889923-.022460938 .41999818-.022460938 .45498658-.016464234 .48399354-.007461548 .49899293-.1023407 .5130005-.19433594 .60598757-.19433594 .70799258-.1945343 .72698977-.061538698 .72698977-.010528564V-.010345459M.62098696 .33866883C.62098696 .2605896 .60899356 .11946106 .5029907 .04147339 .48098756 .097457889 .44898988 .14746094 .3899994 .14746094 .33898927 .14746094 .30799867 .10446167 .30799867 .06347656 .30799867 .036468507 .32099916 .017471314 .32199098 .015472412 .2679901 .035461427 .1559906 .10845947 .1559906 .33866883 .1559906 .59898379 .29599 .68006899 .3880005 .68006899 .4850006 .6794586 .62098696 .5934601 .62098696 .3384552V.33866883M.47698976 .025497437C.44299317 .0065307619 .41099549 .002532959 .3889923 .002532959 .33799745 .002532959 .32998658 .048461915 .32998658 .06347656 .32998658 .09246826 .35099793 .12545777 .3899994 .12545777 .44400025 .12545777 .46598817 .083465579 .47698976 .025497437Z"/>
<path id="font_1_109" d="M.5349884 0V.0309906C.46499635 .0309906 .45700074 .037994386 .45700074 .08705139V.4423828L.30999757 .43066407V.3996582C.37998963 .3996582 .3880005 .39266969 .3880005 .34373475V.16601563C.3880005 .07910156 .33999635 .011245728 .2669983 .011245728 .18299866 .011245728 .1789856 .058135988 .1789856 .11009216V.4423828L.03199768 .43066407V.3996582C.10998535 .3996582 .10998535 .39666749 .10998535 .3078003V.15802002C.10998535 .080093387 .10998535-.0107421879 .2619934-.0107421879 .31799317-.0107421879 .3619995 .017242432 .3909912 .07910156V-.0107421879L.5349884 0Z"/>
<path id="font_1_28" d="M.48298646 .08912659V.14511109H.45799256V.08912659C.45799256 .03112793 .43299867 .025131226 .42199708 .025131226 .3889923 .025131226 .3849945 .070129398 .3849945 .07511902V.27508546C.3849945 .31707765 .3849945 .3560791 .34899903 .39312745 .30999757 .43223573 .2599945 .4482422 .21199036 .4482422 .12998963 .4482422 .06098938 .40115357 .06098938 .335083 .06098938 .30508424 .08099365 .28808595 .10699463 .28808595 .1349945 .28808595 .15299988 .30807496 .15299988 .33407594 .15299988 .3460846 .147995 .37908937 .101989749 .38008119 .1289978 .41519166 .17799378 .426239 .20999146 .426239 .25898744 .426239 .31599427 .38710023 .31599427 .29808045V.26107789C.2649994 .25808717 .19499207 .25508119 .13198853 .22509766 .056991579 .19110108 .03199768 .13911438 .03199768 .09512329 .03199768 .014251709 .1289978-.0107421879 .19198609-.0107421879 .2579956-.0107421879 .3039856 .029251099 .32299806 .07624817 .32699586 .036132814 .35398866-.005859375 .40098573-.005859375 .42199708-.005859375 .48298646 .008132935 .48298646 .08912659M.31599427 .14013672C.31599427 .04525757 .24398804 .011245728 .19898987 .011245728 .1499939 .011245728 .10899353 .04624939 .10899353 .09625244 .10899353 .15124512 .15098572 .23425293 .31599427 .24024964V.14013672Z"/>
<path id="font_1_47" d="M.5269928 0V.0309906C.45700074 .0309906 .44898988 .038009645 .44898988 .0871582V.69433596L.30499269 .6826172V.6516113C.375 .6516113 .3829956 .64463809 .3829956 .59580996V.38035584C.35398866 .41636659 .31098939 .4423828 .25698854 .4423828 .13899231 .4423828 .033996583 .3443451 .033996583 .21531677 .033996583 .088272098 .13198853-.0107421879 .24598694-.0107421879 .30999757-.0107421879 .35499574 .023254395 .37998963 .055267335V-.0107421879L.5269928 0M.37998963 .117996219C.37998963 .099990848 .37998963 .09799194 .36898805 .08099365 .33898927 .033218385 .2939911 .011245728 .25099183 .011245728 .20599365 .011245728 .16999817 .037216188 .1459961 .075164798 .11999512 .1161499 .116989139 .17320252 .116989139 .21421814 .116989139 .25125123 .11898804 .31129457 .147995 .35632325 .16899109 .38734437 .20698548 .42037965 .26098634 .42037965 .29599 .42037965 .33799745 .405365 .36898805 .3603363 .37998963 .34332276 .37998963 .34132386 .37998963 .32330323V.117996219Z"/>
<path id="font_1_96" d="M.3639984 .38137818C.3639984 .41337586 .33299256 .4423828 .2899933 .4423828 .21699524 .4423828 .18099976 .37538148 .16699219 .3323822V.4423828L.027999878 .43066407V.3996582C.09799194 .3996582 .10598755 .39266969 .10598755 .34370423V.07595825C.10598755 .0309906 .09498596 .0309906 .027999878 .0309906V0L.14199829 .0029907227C.18199158 .0029907227 .22898865 .0029907227 .2689972 0V.0309906H.24798584C.17399597 .0309906 .17199707 .04197693 .17199707 .07795715V.23181153C.17199707 .33137513 .21398926 .42037965 .2899933 .42037965 .29699708 .42037965 .29899598 .42037965 .30099488 .41937257 .2979889 .41838075 .27799989 .40637208 .27799989 .3803711 .27799989 .35237123 .29899598 .33737184 .32099916 .33737184 .33898927 .33737184 .3639984 .3493805 .3639984 .38137818Z"/>
<path id="font_1_77" d="M.5349884 0V.0309906C.48298646 .0309906 .45799256 .0309906 .45700074 .061019899V.25221253C.45700074 .3383026 .45700074 .36932374 .42599488 .405365 .4119873 .42237855 .3789978 .4423828 .32099916 .4423828 .24798584 .4423828 .20098877 .39935304 .17298889 .33729554V.4423828L.03199768 .43066407V.3996582C.101989749 .3996582 .10998535 .39266969 .10998535 .34370423V.07595825C.10998535 .0309906 .09899902 .0309906 .03199768 .0309906V0L.14498902 .0029907227 .25698854 0V.0309906C.18998719 .0309906 .1789856 .0309906 .1789856 .07595825V.25978089C.1789856 .36431886 .25 .42037965 .31399537 .42037965 .3769989 .42037965 .3880005 .36631776 .3880005 .30926515V.076034549C.3880005 .0309906 .3769989 .0309906 .30999757 .0309906V0L.4229889 .0029907227 .5349884 0Z"/>
<path id="font_1_105" d="M.33198548 .12385559V.18066406H.30699159V.12585449C.30699159 .052108766 .2769928 .014251709 .23999024 .014251709 .17298889 .014251709 .17298889 .10491943 .17298889 .12187195V.3996582H.31599427V.43066407H.17298889V.6142578H.147995C.14698792 .5324249 .116989139 .42565919 .018997193 .42166139V.3996582H.10398865V.12408447C.10398865 .0012512207 .19699097-.0107421879 .23298645-.0107421879 .3039856-.0107421879 .33198548 .060180665 .33198548 .12408447V.12385559Z"/>
<path id="font_1_65" d="M.33299256 0V.0309906H.30699159C.22799683 .0309906 .22499085 .041992189 .22499085 .07795715V.6046295C.22499085 .64060977 .22799683 .6516113 .30699159 .6516113H.33299256V.6826172C.2979889 .6796112 .21899414 .6796112 .18099976 .6796112 .14199829 .6796112 .06298828 .6796112 .027999878 .6826172V.6516113H.053985597C.1329956 .6516113 .13598633 .64060977 .13598633 .6046295V.07795715C.13598633 .041992189 .1329956 .0309906 .053985597 .0309906H.027999878V0C.06298828 .0029907227 .14199829 .0029907227 .17999268 .0029907227 .21899414 .0029907227 .2979889 .0029907227 .33299256 0Z"/>
<path id="font_2_27" d="M.70199587 0V.0289917C.6369934 .0289917 .61898806 .0289917 .6049957 .06993103L.3869934 .6958618C.3829956 .7078552 .3809967 .7138672 .36698915 .7138672 .35299684 .7138672 .35099793 .7108612 .34599305 .69485476L.13699341 .09689331C.12298584 .05595398 .09498596 .02998352 .0309906 .0289917V0L.1269989 .0019989014C.15499878 .0019989014 .20298767 .0019989014 .22898865 0V.0289917C.18699646 .02998352 .1619873 .050964357 .1619873 .07891846 .1619873 .08491516 .1619873 .08691406 .16699219 .09989929L.21299744 .23271179H.46499635L.519989 .075927738C.5249939 .063949588 .5249939 .061950685 .5249939 .058944704 .5249939 .0289917 .47399903 .0289917 .44898988 .0289917V0C.47200013 .0019989014 .5509949 .0019989014 .57899478 .0019989014 .6069946 .0019989014 .67900088 .0019989014 .70199587 0M.45498658 .26171876H.22299195L.33898927 .5948181 .45498658 .26171876Z"/>
<path id="font_2_72" d="M.24798584 0V.0289917C.18399048 .0289917 .17199707 .0289917 .17199707 .074020389V.69433596L.032989503 .6826172V.6536102C.100997928 .6536102 .10899353 .6466217 .10899353 .597641V.07395935C.10899353 .0289917 .09799194 .0289917 .032989503 .0289917V0C.06098938 .0019989014 .10998535 .0019989014 .13999939 .0019989014 .16999817 .0019989014 .21998596 .0019989014 .24798584 0Z"/>
<path id="font_1_50" d="M.4149933 .11933899C.4149933 .12934876 .40699769 .13134766 .4019928 .13134766 .3929901 .13134766 .3909912 .12535095 .3889923 .11734009 .35398866 .014251709 .2639923 .014251709 .2539978 .014251709 .20399475 .014251709 .1639862 .044281007 .14099121 .08131409 .11099243 .12934876 .11099243 .19540406 .11099243 .23144531H.3899994C.4119873 .23144531 .4149933 .23144531 .4149933 .2524414 .4149933 .35131837 .36099244 .4482422 .23599243 .4482422 .11999512 .4482422 .027999878 .34532167 .027999878 .22042847 .027999878 .08631897 .1329956-.0107421879 .24798584-.0107421879 .36999513-.0107421879 .4149933 .10032654 .4149933 .11933899M.34899903 .2524414H.11199951C.117996219 .40126039 .20199585 .426239 .23599243 .426239 .33898927 .426239 .34899903 .2913971 .34899903 .2524414Z"/>
<path id="font_1_84" d="M.5209961 .21636963C.5209961 .34336854 .42399598 .4423828 .31199647 .4423828 .23399353 .4423828 .19198609 .39837647 .17199707 .3763733V.4423828L.027999878 .43066407V.3996582C.09899902 .3996582 .10598755 .3936615 .10598755 .34973146V-.117996219C.10598755-.16308594 .09498596-.16308594 .027999878-.16308594V-.1940918L.13999939-.19110108 .25299073-.1940918V-.16308594C.18598938-.16308594 .1749878-.16308594 .1749878-.117996219V.050186159 .059173585C.17999268 .04319763 .22200012-.0107421879 .2979889-.0107421879 .4169922-.0107421879 .5209961 .087127689 .5209961 .21594239V.21636963M.43798829 .21594239C.43798829 .09512329 .36799623 .011245728 .2939911 .011245728 .2539978 .011245728 .21598816 .031219483 .18899536 .07215881 .1749878 .09312439 .1749878 .09411621 .1749878 .114089969V.33674623C.20399475 .38838197 .25299073 .41737367 .3039856 .41737367 .3769989 .41737367 .43798829 .32937623 .43798829 .21636963V.21594239Z"/>
<path id="font_1_81" d="M.47099305 .21424866C.47099305 .34223939 .37098695 .4482422 .25 .4482422 .125 .4482422 .027999878 .3392334 .027999878 .21424866 .027999878 .085250858 .13198853-.0107421879 .24899292-.0107421879 .36999513-.0107421879 .47099305 .087249759 .47099305 .21424866M.3880005 .22224427C.3880005 .18624878 .3880005 .13224793 .3659973 .08824158 .34399415 .04324341 .2999878 .014251709 .25 .014251709 .20698548 .014251709 .16299439 .035247804 .13598633 .08125305 .11099243 .12524414 .11099243 .18624878 .11099243 .22224427 .11099243 .26124574 .11099243 .31523133 .1349945 .35923768 .1619873 .40522767 .20899964 .426239 .24899292 .426239 .29299928 .426239 .33599855 .40423585 .3619995 .36123658 .3880005 .3182373 .3880005 .26023866 .3880005 .22224427Z"/>
<path id="font_1_98" d="M.3600006 .12823487C.3600006 .18122864 .32998658 .21122742 .31799317 .22323609 .2849884 .25523377 .24598694 .26322938 .20399475 .27124024 .147995 .28224183 .08099365 .29522706 .08099365 .35324098 .08099365 .38822938 .10699463 .42922975 .19299317 .42922975 .30299378 .42922975 .30799867 .3392334 .30999757 .30822755 .31098939 .2992401 .32199098 .2992401 .32199098 .2992401 .33499146 .2992401 .33499146 .30422975 .33499146 .32322694V.4242401C.33499146 .4412384 .33499146 .4482422 .32398988 .4482422 .31900025 .4482422 .31698609 .4482422 .3039856 .43623353 .30099488 .43223573 .29100038 .42323304 .2869873 .42022706 .24899292 .4482422 .20799256 .4482422 .19299317 .4482422 .070999149 .4482422 .032989503 .38124085 .032989503 .3252411 .032989503 .29023744 .04899597 .26223756 .07598877 .24023438 .10798645 .2142334 .13598633 .2082367 .20799256 .19422913 .22999573 .19021607 .31199647 .17422486 .31199647 .10221863 .31199647 .051223756 .2769928 .011245728 .19898987 .011245728 .114990238 .011245728 .07899475 .068222049 .05999756 .1532135 .056991579 .16621399 .055999757 .17021179 .04598999 .17021179 .032989503 .17021179 .032989503 .16322327 .032989503 .1452179V.013214111C.032989503-.003753662 .032989503-.0107421879 .04399109-.0107421879 .04899597-.0107421879 .049987794-.009750366 .068984989 .009246826 .070999149 .011245728 .070999149 .013214111 .08898926 .032226564 .1329956-.009750366 .17799378-.0107421879 .19898987-.0107421879 .31399537-.0107421879 .3600006 .05621338 .3600006 .1282196V.12823487Z"/>
<path id="font_1_66" d="M.24699402 0V.0309906C.18099976 .0309906 .1769867 .035995485 .1769867 .075042728V.4423828L.036987306 .43066407V.3996582C.101989749 .3996582 .11099243 .3936615 .11099243 .3447113V.07595825C.11099243 .0309906 .099990848 .0309906 .032989503 .0309906V0L.14299011 .0029907227C.17799378 .0029907227 .21299744 .0009918213 .24699402 0M.19198609 .603775C.19198609 .6307678 .16899109 .6567688 .13899231 .6567688 .10499573 .6567688 .084991458 .6287689 .084991458 .603775 .084991458 .57676699 .10798645 .55078127 .13798523 .55078127 .17199707 .55078127 .19198609 .5787811 .19198609 .603775Z"/>
<path id="font_1_112" d="M.5079956 .3996582V.43066407C.4850006 .4286499 .45599366 .42765809 .43299867 .42765809L.34599305 .43066407V.3996582C.3829956 .39865113 .3939972 .37568666 .3939972 .35671998 .3939972 .34773255 .3919983 .34373475 .3880005 .3327484L.28599549 .078125 .17399597 .35671998C.16799927 .3697052 .16799927 .37368775 .16799927 .37368775 .16799927 .3996582 .20698548 .3996582 .22499085 .3996582V.43066407L.115997318 .42765809C.08898926 .42765809 .04899597 .4286499 .018997193 .43066407V.3996582C.08198547 .3996582 .085998538 .3936615 .09899902 .36271668L.24299622 .008224487C.24899292-.0057525637 .25099183-.0107421879 .2639923-.0107421879 .2769928-.0107421879 .2809906-.0017700195 .2849884 .008224487L.41600038 .3327484C.4249878 .3557129 .44198609 .39865113 .5079956 .3996582Z"/>
<path id="font_2_97" d="M.4889984 .18367005C.4889984 .24472046 .46598817 .28974916 .43899537 .32278443 .4019928 .36782838 .35699464 .37882997 .31799317 .38883973L.20799256 .41687013C.15699768 .42988587 .11199951 .47991944 .11199951 .54397585 .11199951 .6140442 .16799927 .6770935 .24598694 .6770935 .4099884 .6770935 .43199159 .5149536 .43798829 .47192384 .43998719 .4598999 .43998719 .4559021 .44999696 .4559021 .46099855 .4559021 .46099855 .46090699 .46099855 .4789276V.6810913C.46099855 .6990967 .46099855 .70410159 .45098878 .70410159 .44799806 .70410159 .44400025 .70410159 .43699647 .6911011L.4039917 .63005068C.35598756 .6920929 .2899933 .70410159 .24598694 .70410159 .1349945 .70410159 .053985597 .615036 .053985597 .5129547 .053985597 .4649048 .070999149 .42086793 .10798645 .38084413 .14299011 .34179688 .17799378 .3327942 .24899292 .31477357 .28399659 .30677796 .33898927 .29275514 .35299684 .28675843 .3999939 .2637329 .43099977 .20968628 .43099977 .15364075 .43099977 .078567508 .37799073 .007507324 .29499818 .007507324 .25 .007507324 .18798828 .01852417 .13899231 .061553956 .08099365 .113601688 .07699585 .18566895 .07598877 .21868897 .07499695 .22669983 .06498718 .22669983 .06498718 .22669983 .053985597 .22669983 .053985597 .22169495 .053985597 .20367432V.0015106201C.053985597-.016494751 .053985597-.021484375 .06399536-.021484375 .069992069-.021484375 .070999149-.019485474 .07798767-.0074920656L.11099243 .05255127C.14698792 .012512207 .20999146-.021484375 .29599-.021484375 .4079895-.021484375 .4889984 .07356262 .4889984 .18367005Z"/>
<path id="font_2_66" d="M.24099732 0V.0289917C.17599488 .0289917 .17199707 .033996583 .17199707 .07304382V.44140626L.035995485 .4303589V.4013672C.099990848 .4013672 .10899353 .39535523 .10899353 .34629823V.074035648C.10899353 .0289917 .09799194 .0289917 .032989503 .0289917V0C.06098938 .0019989014 .10899353 .0019989014 .13798523 .0019989014 .14898682 .0019989014 .20698548 .0019989014 .24099732 0M.18499756 .6043091C.18499756 .63430789 .16099549 .6533203 .13699341 .6533203 .10899353 .6533203 .08799744 .63131716 .08799744 .6043091 .08799744 .5783081 .10998535 .55630496 .13598633 .55630496 .1659851 .55630496 .18499756 .580307 .18499756 .6043091Z"/>
<path id="font_2_77" d="M.5209961 0V.0289917C.47099305 .0289917 .44599916 .0289917 .44499208 .059051515V.24342346C.44499208 .3365631 .44499208 .36450196 .42199708 .39640809 .3929901 .4353943 .34599305 .44140626 .31199647 .44140626 .21499634 .44140626 .1769867 .35850526 .16899109 .338562H.16799927V.44140626L.03199768 .4303589V.4013672C.099990848 .4013672 .10798645 .39437867 .10798645 .34553529V.07408142C.10798645 .0289917 .09700012 .0289917 .03199768 .0289917V0C.057998659 .0019989014 .11199951 .0019989014 .13999939 .0019989014 .16899109 .0019989014 .22299195 .0019989014 .24899292 0V.0289917C.18499756 .0289917 .17298889 .0289917 .17298889 .07408142V.26046754C.17298889 .36547853 .24198914 .4213562 .3039856 .4213562 .3659973 .4213562 .37998963 .37045289 .37998963 .3095703V.07408142C.37998963 .0289917 .36898805 .0289917 .3039856 .0289917V0C.32998658 .0019989014 .38398744 .0019989014 .4119873 .0019989014 .44099427 .0019989014 .49499513 .0019989014 .5209961 0Z"/>
<path id="font_2_50" d="M.40699769 .11932373C.40699769 .1253357 .4019928 .1293335 .3959961 .1293335 .3880005 .1293335 .38598634 .12432861 .38398744 .11932373 .35798646 .035247804 .29100038 .01222229 .24899292 .01222229 .20698548 .01222229 .10598755 .040252687 .10598755 .21340943V.23242188H.3829956C.40499879 .23242188 .40699769 .23242188 .40699769 .25141908 .40699769 .3523407 .35299684 .44628907 .23199463 .44628907 .117996219 .44628907 .02999878 .34335328 .02999878 .21940613 .02999878 .08729553 .13198853-.009765625 .24299622-.009765625 .3619995-.009765625 .40699769 .09829712 .40699769 .11932373M.34498597 .25141908H.10699463C.114990238 .40830995 .20298767 .42630006 .23098755 .42630006 .33799745 .42630006 .34399415 .28538514 .34498597 .25141908Z"/>
<path id="font_2_104" d="M.67099 .45480348 .6529999 .6777344H.052993776L.034988405 .45480348H.056991579C.070999149 .6127472 .07998657 .6487274 .23799134 .6487274 .2559967 .6487274 .28399659 .6487274 .2919922 .6467285 .31199647 .64372256 .31298829 .6317291 .31298829 .6087494V.07696533C.31298829 .04298401 .31298829 .0289917 .21499634 .0289917H.1789856V0C.21099854 .0019989014 .31399537 .0019989014 .35299684 .0019989014 .3919983 .0019989014 .49598695 .0019989014 .5279999 0V.0289917H.49198915C.3939972 .0289917 .3939972 .04298401 .3939972 .07696533V.6087494C.3939972 .633728 .3959961 .6427307 .4119873 .6467285 .41999818 .6487274 .44898988 .6487274 .46798707 .6487274 .6259918 .6487274 .6349945 .6127472 .6489868 .45480348H.67099Z"/>
<path id="font_2_28" d="M.47399903 .08912659V.14515686H.45199586V.08912659C.45199586 .03211975 .42799378 .024108887 .4139862 .024108887 .37599183 .024108887 .37599183 .07713318 .37599183 .09213257V.26719667C.37599183 .3211975 .37599183 .36120606 .33198548 .40023805 .29699708 .43226625 .2519989 .44628907 .20799256 .44628907 .12599182 .44628907 .06298828 .39222718 .06298828 .32720948 .06298828 .2982025 .08198547 .2842102 .10499573 .2842102 .1289978 .2842102 .1459961 .3012085 .1459961 .32521058 .1459961 .36621095 .10998535 .36621095 .09498596 .36621095 .117996219 .4082489 .1659851 .42625428 .20599365 .42625428 .2519989 .42625428 .31098939 .38822938 .31098939 .2982025V.25819398C.10998535 .255188 .033996583 .17115784 .033996583 .09413147 .033996583 .0152282719 .12599182-.009765625 .18699646-.009765625 .25299073-.009765625 .2979889 .030227662 .31698609 .07823181 .32099916 .03111267 .35198976-.0048828127 .394989-.0048828127 .41600038-.0048828127 .47399903 .009109497 .47399903 .089141849V.08912659M.31098939 .14117432C.31098939 .043121339 .23799134 .010116577 .19499207 .010116577 .1459961 .010116577 .10499573 .04612732 .10499573 .09414673 .10499573 .22621155 .2749939 .23822022 .31098939 .24023438V.14117432Z"/>
<path id="font_2_59" d="M.47499085 .4064026C.47499085 .4243927 .46099855 .45239259 .42599488 .45239259 .37399293 .45239259 .33499146 .4203949 .32099916 .4053955 .29100038 .42840577 .2559967 .44140626 .21798706 .44140626 .12799073 .44140626 .06098938 .37339784 .06098938 .29640199 .06098938 .23939514 .09599304 .20239258 .10598755 .19340515 .09399414 .1783905 .07598877 .14936829 .07598877 .11010742 .07598877 .05178833 .11099243 .026779175 .11898804 .021774292 .07299805 .0087890629 .026992798-.027191163 .026992798-.0791626 .026992798-.14811707 .12098694-.20507813 .24398804-.20507813 .36299134-.20507813 .46199037-.15211487 .46199037-.0771637 .46199037-.0521698 .45498658 .006790161 .394989 .03778076 .34399415 .06378174 .2939911 .06378174 .20799256 .06378174 .14698792 .06378174 .13999939 .06378174 .12199402 .08291626 .11199951 .09298706 .102996829 .11212158 .102996829 .13327027 .102996829 .15039063 .10899353 .16738892 .11898804 .18138123 .1659851 .15039063 .20599365 .15039063 .21699524 .15039063 .30699159 .15039063 .37399293 .21838379 .37399293 .29537965 .37399293 .3223877 .3659973 .36038209 .33399964 .39237977 .37298585 .4323883 .41999818 .4323883 .4249878 .4323883 .42900086 .4323883 .43399049 .4323883 .43798829 .4303894 .42799378 .4263916 .4229889 .4163971 .4229889 .4053955 .4229889 .3914032 .43299867 .37939454 .44898988 .37939454 .45700074 .37939454 .47499085 .3843994 .47499085 .4064026M.30499269 .29638673C.30499269 .2783966 .30499269 .23738098 .28799439 .21038819 .2689972 .18138123 .23899842 .17138672 .21798706 .17138672 .12998963 .17138672 .12998963 .27238465 .12998963 .2953949 .12998963 .313385 .12998963 .35440064 .14698792 .38139344 .1659851 .4104004 .19599915 .4203949 .21699524 .4203949 .30499269 .41978456 .30499269 .31878663 .30499269 .29577638V.29638673M.41299439-.07815552C.41299439-.13711548 .33699037-.18408203 .24499512-.18408203 .14898682-.18408203 .07598877-.13511658 .07598877-.07815552 .07598877-.07015991 .07798767-.031188965 .115997318-.005203247 .13798523 .0087890629 .14698792 .0087890629 .21699524 .0087890629 .2999878 .0087890629 .41299439 .0087890629 .41299439-.07815552Z"/>
<path id="font_2_105" d="M.32598878 .124069217V.1809845H.3039856V.12606812C.3039856 .0541687 .2749939 .01222229 .23599243 .01222229 .16799927 .01222229 .16799927 .10508728 .16799927 .12207031V.4016571H.30899049V.43066407H.16799927V.6142578H.1459961C.14498902 .52046206 .10899353 .4246521 .017990113 .42166139V.4016571H.102996829V.124069217C.102996829 .01322937 .1769867-.009765625 .22999573-.009765625 .29299928-.009765625 .32598878 .0521698 .32598878 .124069217Z"/>
<path id="font_1_111" d="M.7299957 .6516113V.6826172C.69898989 .680603 .6589966 .6796112 .6329956 .6796112L.5189972 .6826172V.6516113C.57099917 .6506195 .59199526 .6246033 .59199526 .6016083 .59199526 .5936127 .58898928 .5876007 .58699038 .581604L.4039917 .09954834 .21299744 .60461428C.20698548 .61860659 .20698548 .62260439 .20698548 .62260439 .20698548 .6516113 .2639923 .6516113 .2889862 .6516113V.6826172C.25299073 .6796112 .18399048 .6796112 .1459961 .6796112L.018997193 .6826172V.6516113C.083999637 .6516113 .102996829 .6516113 .116989139 .6136017L.34899903-.00047302247C.35598756-.019470215 .36099244-.022460938 .37399293-.022460938 .3909912-.022460938 .3929901-.017471314 .397995-.0034637452L.62098696 .58461C.6349945 .62161257 .6619873 .6506195 .7299957 .6516113Z"/>
<path id="font_2_42" d="M.6519928 .23170471C.6519928 .24272156 .6519928 .24871826 .6409912 .24871826 .6309967 .24871826 .6299896 .24371338 .6299896 .2367096 .62098696 .07757568 .5049896 .007507324 .4079895 .007507324 .33799745 .007507324 .14698792 .049545289 .14698792 .34179688 .14698792 .63105776 .33499146 .6750946 .40699769 .6750946 .5119934 .6750946 .60398867 .5860138 .6239929 .43588258 .6259918 .4238739 .6259918 .42086793 .6380005 .42086793 .6519928 .42086793 .6519928 .4238739 .6519928 .44389344V.6810913C.6519928 .6990967 .6519928 .70410159 .6419983 .70410159 .6359863 .70410159 .6349945 .7020874 .6289978 .6920929L.5799866 .6130371C.5349884 .6690979 .46699525 .70410159 .394989 .70410159 .21199036 .70410159 .053985597 .54597476 .053985597 .34179688 .053985597 .13461304 .21398926-.021484375 .394989-.021484375 .5589905-.021484375 .6519928 .12161255 .6519928 .23170471Z"/>
<path id="font_2_81" d="M.45899964 .21424866C.45899964 .34326173 .36099244 .44628907 .24499512 .44628907 .125 .44628907 .02999878 .340271 .02999878 .21424866 .02999878 .086242679 .12998963-.009765625 .24398804-.009765625 .3619995-.009765625 .45899964 .08824158 .45899964 .21424866M.3829956 .22325135C.3829956 .18824768 .3829956 .12623596 .35699464 .07923889 .32899476 .031234742 .2829895 .01222229 .24499512 .01222229 .20799256 .01222229 .16299439 .02822876 .13398743 .07723999 .10699463 .12223816 .10598755 .1812439 .10598755 .22325135 .10598755 .261261 .10598755 .32226563 .13699341 .3672638 .16499329 .41027833 .20899964 .42626954 .24398804 .42626954 .2829895 .42626954 .32499696 .40827943 .35198976 .3692627 .3829956 .32325746 .3829956 .2602539 .3829956 .22325135Z"/>
<path id="font_2_98" d="M.35198976 .12739563C.35198976 .181427 .31900025 .21340943 .30999757 .22239685 .27398683 .25338746 .24699402 .25938417 .18099976 .27137757 .15098572 .27737428 .07798767 .29136659 .07798767 .35131837 .07798767 .38230897 .09899902 .4282837 .18899536 .4282837 .2979889 .4282837 .3039856 .33532716 .30599977 .3043518 .30699159 .2963562 .31399537 .2963562 .31698609 .2963562 .32798768 .2963562 .32798768 .30136109 .32798768 .3193512V.4232788C.32798768 .44128419 .32798768 .44628907 .31799317 .44628907 .30999757 .44628907 .29100038 .4242859 .28399659 .4152832 .25299073 .4402771 .22200012 .44628907 .18998719 .44628907 .068984989 .44628907 .032989503 .38031007 .032989503 .32533265 .032989503 .3143463 .032989503 .27937318 .070999149 .24438477 .102996829 .21640015 .13699341 .20941162 .18299866 .20040894 .23799134 .1894226 .25099183 .18641663 .27598573 .16642761 .2939911 .15142823 .30699159 .12940979 .30699159 .101364139 .30699159 .05831909 .28199769 .010253906 .19400025 .010253906 .12799073 .010253906 .07998657 .048294069 .057998659 .1484375 .053985597 .16642761 .052993776 .16842652 .052993776 .16842652 .050994874 .17242432 .04699707 .17242432 .04399109 .17242432 .032989503 .17242432 .032989503 .16743469 .032989503 .14942932V.013259888C.032989503-.004760742 .032989503-.009765625 .042999269-.009765625 .04798889-.009765625 .04899597-.008773804 .06599426 .012252808 .070999149 .019256592 .070999149 .021270752 .085998538 .03729248 .12399292-.009765625 .17799378-.009765625 .19499207-.009765625 .2999878-.009765625 .35198976 .048294069 .35198976 .12739563Z"/>
</defs>
<path transform="matrix(1.00009,0,0,-1.00006,65.08124,64.78198)" stroke-width=".79701" stroke-linecap="butt" stroke-miterlimit="10" stroke-linejoin="miter" fill="none" stroke="#000000" d="M0-63.7803V62.34569"/>
<path transform="matrix(0,-1.00006,-1.00009,-0,65.08124,2.4325524)" d="M1.0361 0C-.25902 .25902-1.55415 .77707-3.1083 1.68365-1.55415 .51805-1.55415-.51805-3.1083-1.68365-1.55415-.77707-.25902-.25902 1.0361 0Z"/>
<path transform="matrix(0,-1.00006,-1.00009,-0,65.08124,2.4325524)" stroke-width=".79701" stroke-linecap="butt" stroke-linejoin="round" fill="none" stroke="#000000" d="M1.0361 0C-.25902 .25902-1.55415 .77707-3.1083 1.68365-1.55415 .51805-1.55415-.51805-3.1083-1.68365-1.55415-.77707-.25902-.25902 1.0361 0Z"/>
<path transform="matrix(1.00009,0,0,-1.00006,65.08124,64.78198)" stroke-width=".79701" stroke-linecap="butt" stroke-miterlimit="10" stroke-linejoin="miter" fill="none" stroke="#000000" d="M-63.7803 0H62.34569"/>
<path transform="matrix(1.00009,0,0,-1.00006,127.43254,64.78198)" d="M1.0361 0C-.25902 .25902-1.55415 .77707-3.1083 1.68365-1.55415 .51805-1.55415-.51805-3.1083-1.68365-1.55415-.77707-.25902-.25902 1.0361 0Z"/>
<path transform="matrix(1.00009,0,0,-1.00006,127.43254,64.78198)" stroke-width=".79701" stroke-linecap="butt" stroke-linejoin="round" fill="none" stroke="#000000" d="M1.0361 0C-.25902 .25902-1.55415 .77707-3.1083 1.68365-1.55415 .51805-1.55415-.51805-3.1083-1.68365-1.55415-.77707-.25902-.25902 1.0361 0Z"/>
<use data-text="Q" xlink:href="#font_1_90" transform="matrix(9.963496,0,0,-9.963197,72.597919,17.501147)"/>
<use data-text="u" xlink:href="#font_1_109" transform="matrix(9.963496,0,0,-9.963197,80.3495,17.501147)"/>
<use data-text="a" xlink:href="#font_1_28" transform="matrix(9.963496,0,0,-9.963197,85.889209,17.501147)"/>
<use data-text="d" xlink:href="#font_1_47" transform="matrix(9.963496,0,0,-9.963197,90.87094,17.501147)"/>
<use data-text="r" xlink:href="#font_1_96" transform="matrix(9.963496,0,0,-9.963197,96.410648,17.501147)"/>
<use data-text="a" xlink:href="#font_1_28" transform="matrix(9.963496,0,0,-9.963197,100.31633,17.501147)"/>
<use data-text="n" xlink:href="#font_1_77" transform="matrix(9.963496,0,0,-9.963197,105.29808,17.501147)"/>
<use data-text="t" xlink:href="#font_1_105" transform="matrix(9.963496,0,0,-9.963197,110.55881,17.501147)"/>
<use data-text="I" xlink:href="#font_1_65" transform="matrix(9.963496,0,0,-9.963197,117.74249,17.501147)"/>
<use data-text="A" xlink:href="#font_2_27" transform="matrix(14.347491,0,0,-14.34706,87.80527,41.41358)"/>
<use data-text="l" xlink:href="#font_2_72" transform="matrix(14.347491,0,0,-14.34706,98.336338,41.41358)"/>
<use data-text="l" xlink:href="#font_2_72" transform="matrix(14.347491,0,0,-14.34706,102.238849,41.41358)"/>
<use data-text="a" xlink:href="#font_1_28" transform="matrix(9.963496,0,0,-9.963197,71.88585,53.3693)"/>
<use data-text="r" xlink:href="#font_1_96" transform="matrix(9.963496,0,0,-9.963197,76.867588,53.3693)"/>
<use data-text="e" xlink:href="#font_1_50" transform="matrix(9.963496,0,0,-9.963197,80.77327,53.3693)"/>
<use data-text="p" xlink:href="#font_1_84" transform="matrix(9.963496,0,0,-9.963197,88.50496,53.3693)"/>
<use data-text="o" xlink:href="#font_1_81" transform="matrix(9.963496,0,0,-9.963197,94.32362,53.3693)"/>
<use data-text="s" xlink:href="#font_1_98" transform="matrix(9.963496,0,0,-9.963197,99.30536,53.3693)"/>
<use data-text="i" xlink:href="#font_1_66" transform="matrix(9.963496,0,0,-9.963197,103.23097,53.3693)"/>
<use data-text="t" xlink:href="#font_1_105" transform="matrix(9.963496,0,0,-9.963197,106.00084,53.3693)"/>
<use data-text="i" xlink:href="#font_1_66" transform="matrix(9.963496,0,0,-9.963197,109.87665,53.3693)"/>
<use data-text="v" xlink:href="#font_1_112" transform="matrix(9.963496,0,0,-9.963197,112.6465,53.3693)"/>
<use data-text="e" xlink:href="#font_1_50" transform="matrix(9.963496,0,0,-9.963197,117.6382,53.3693)"/>
<use data-text="Q" xlink:href="#font_1_90" transform="matrix(9.963496,0,0,-9.963197,6.874008,17.501147)"/>
<use data-text="u" xlink:href="#font_1_109" transform="matrix(9.963496,0,0,-9.963197,14.625595,17.501147)"/>
<use data-text="a" xlink:href="#font_1_28" transform="matrix(9.963496,0,0,-9.963197,20.165299,17.501147)"/>
<use data-text="d" xlink:href="#font_1_47" transform="matrix(9.963496,0,0,-9.963197,25.147034,17.501147)"/>
<use data-text="r" xlink:href="#font_1_96" transform="matrix(9.963496,0,0,-9.963197,30.686738,17.501147)"/>
<use data-text="a" xlink:href="#font_1_28" transform="matrix(9.963496,0,0,-9.963197,34.592424,17.501147)"/>
<use data-text="n" xlink:href="#font_1_77" transform="matrix(9.963496,0,0,-9.963197,39.574159,17.501147)"/>
<use data-text="t" xlink:href="#font_1_105" transform="matrix(9.963496,0,0,-9.963197,44.834886,17.501147)"/>
<use data-text="I" xlink:href="#font_1_65" transform="matrix(9.963496,0,0,-9.963197,52.018587,17.501147)"/>
<use data-text="I" xlink:href="#font_1_65" transform="matrix(9.963496,0,0,-9.963197,55.89438,17.501147)"/>
<use data-text="S" xlink:href="#font_2_97" transform="matrix(14.347491,0,0,-14.34706,20.310212,41.41358)"/>
<use data-text="i" xlink:href="#font_2_66" transform="matrix(14.347491,0,0,-14.34706,28.11525,41.41358)"/>
<use data-text="n" xlink:href="#font_2_77" transform="matrix(14.347491,0,0,-14.34706,32.01776,41.41358)"/>
<use data-text="e" xlink:href="#font_2_50" transform="matrix(14.347491,0,0,-14.34706,39.8228,41.41358)"/>
<use data-text="i" xlink:href="#font_1_66" transform="matrix(9.963496,0,0,-9.963197,11.40741,53.3693)"/>
<use data-text="s" xlink:href="#font_1_98" transform="matrix(9.963496,0,0,-9.963197,14.177277,53.3693)"/>
<use data-text="p" xlink:href="#font_1_84" transform="matrix(9.963496,0,0,-9.963197,21.410767,53.3693)"/>
<use data-text="o" xlink:href="#font_1_81" transform="matrix(9.963496,0,0,-9.963197,27.229447,53.3693)"/>
<use data-text="s" xlink:href="#font_1_98" transform="matrix(9.963496,0,0,-9.963197,32.21118,53.3693)"/>
<use data-text="i" xlink:href="#font_1_66" transform="matrix(9.963496,0,0,-9.963197,36.136796,53.3693)"/>
<use data-text="t" xlink:href="#font_1_105" transform="matrix(9.963496,0,0,-9.963197,38.906648,53.3693)"/>
<use data-text="i" xlink:href="#font_1_66" transform="matrix(9.963496,0,0,-9.963197,42.782457,53.3693)"/>
<use data-text="v" xlink:href="#font_1_112" transform="matrix(9.963496,0,0,-9.963197,45.552324,53.3693)"/>
<use data-text="e" xlink:href="#font_1_50" transform="matrix(9.963496,0,0,-9.963197,50.54402,53.3693)"/>
<use data-text="Q" xlink:href="#font_1_90" transform="matrix(9.963496,0,0,-9.963197,4.9358217,81.28597)"/>
<use data-text="u" xlink:href="#font_1_109" transform="matrix(9.963496,0,0,-9.963197,12.687408,81.28597)"/>
<use data-text="a" xlink:href="#font_1_28" transform="matrix(9.963496,0,0,-9.963197,18.227112,81.28597)"/>
<use data-text="d" xlink:href="#font_1_47" transform="matrix(9.963496,0,0,-9.963197,23.208847,81.28597)"/>
<use data-text="r" xlink:href="#font_1_96" transform="matrix(9.963496,0,0,-9.963197,28.74855,81.28597)"/>
<use data-text="a" xlink:href="#font_1_28" transform="matrix(9.963496,0,0,-9.963197,32.654237,81.28597)"/>
<use data-text="n" xlink:href="#font_1_77" transform="matrix(9.963496,0,0,-9.963197,37.63597,81.28597)"/>
<use data-text="t" xlink:href="#font_1_105" transform="matrix(9.963496,0,0,-9.963197,42.896699,81.28597)"/>
<use data-text="I" xlink:href="#font_1_65" transform="matrix(9.963496,0,0,-9.963197,50.0804,81.28597)"/>
<use data-text="I" xlink:href="#font_1_65" transform="matrix(9.963496,0,0,-9.963197,53.956193,81.28597)"/>
<use data-text="I" xlink:href="#font_1_65" transform="matrix(9.963496,0,0,-9.963197,57.83197,81.28597)"/>
<use data-text="T" xlink:href="#font_2_104" transform="matrix(14.347491,0,0,-14.34706,8.208115,105.19841)"/>
<use data-text="a" xlink:href="#font_2_28" transform="matrix(14.347491,0,0,-14.34706,17.175293,105.19841)"/>
<use data-text="n" xlink:href="#font_2_77" transform="matrix(14.347491,0,0,-14.34706,24.205552,105.19841)"/>
<use data-text="g" xlink:href="#font_2_59" transform="matrix(14.347491,0,0,-14.34706,32.01059,105.19841)"/>
<use data-text="e" xlink:href="#font_2_50" transform="matrix(14.347491,0,0,-14.34706,39.040864,105.19841)"/>
<use data-text="n" xlink:href="#font_2_77" transform="matrix(14.347491,0,0,-14.34706,45.282014,105.19841)"/>
<use data-text="t" xlink:href="#font_2_105" transform="matrix(14.347491,0,0,-14.34706,52.71402,105.19841)"/>
<use data-text="i" xlink:href="#font_1_66" transform="matrix(9.963496,0,0,-9.963197,11.406403,117.15413)"/>
<use data-text="s" xlink:href="#font_1_98" transform="matrix(9.963496,0,0,-9.963197,14.176254,117.15413)"/>
<use data-text="p" xlink:href="#font_1_84" transform="matrix(9.963496,0,0,-9.963197,21.419724,117.15413)"/>
<use data-text="o" xlink:href="#font_1_81" transform="matrix(9.963496,0,0,-9.963197,27.238389,117.15413)"/>
<use data-text="s" xlink:href="#font_1_98" transform="matrix(9.963496,0,0,-9.963197,32.220125,117.15413)"/>
<use data-text="i" xlink:href="#font_1_66" transform="matrix(9.963496,0,0,-9.963197,36.145753,117.15413)"/>
<use data-text="t" xlink:href="#font_1_105" transform="matrix(9.963496,0,0,-9.963197,38.915605,117.15413)"/>
<use data-text="i" xlink:href="#font_1_66" transform="matrix(9.963496,0,0,-9.963197,42.791414,117.15413)"/>
<use data-text="v" xlink:href="#font_1_112" transform="matrix(9.963496,0,0,-9.963197,45.561265,117.15413)"/>
<use data-text="e" xlink:href="#font_1_50" transform="matrix(9.963496,0,0,-9.963197,50.55298,117.15413)"/>
<use data-text="Q" xlink:href="#font_1_90" transform="matrix(9.963496,0,0,-9.963197,68.86158,81.28597)"/>
<use data-text="u" xlink:href="#font_1_109" transform="matrix(9.963496,0,0,-9.963197,76.61317,81.28597)"/>
<use data-text="a" xlink:href="#font_1_28" transform="matrix(9.963496,0,0,-9.963197,82.15287,81.28597)"/>
<use data-text="d" xlink:href="#font_1_47" transform="matrix(9.963496,0,0,-9.963197,87.134609,81.28597)"/>
<use data-text="r" xlink:href="#font_1_96" transform="matrix(9.963496,0,0,-9.963197,92.67431,81.28597)"/>
<use data-text="a" xlink:href="#font_1_28" transform="matrix(9.963496,0,0,-9.963197,96.579998,81.28597)"/>
<use data-text="n" xlink:href="#font_1_77" transform="matrix(9.963496,0,0,-9.963197,101.56173,81.28597)"/>
<use data-text="t" xlink:href="#font_1_105" transform="matrix(9.963496,0,0,-9.963197,106.82246,81.28597)"/>
<use data-text="I" xlink:href="#font_1_65" transform="matrix(9.963496,0,0,-9.963197,114.00616,81.28597)"/>
<use data-text="V" xlink:href="#font_1_111" transform="matrix(9.963496,0,0,-9.963197,117.602977,81.28597)"/>
<use data-text="C" xlink:href="#font_2_42" transform="matrix(14.347491,0,0,-14.34706,76.64327,105.19841)"/>
<use data-text="o" xlink:href="#font_2_81" transform="matrix(14.347491,0,0,-14.34706,86.78695,105.19841)"/>
<use data-text="s" xlink:href="#font_2_98" transform="matrix(14.347491,0,0,-14.34706,93.81722,105.19841)"/>
<use data-text="i" xlink:href="#font_2_66" transform="matrix(14.347491,0,0,-14.34706,99.35534,105.19841)"/>
<use data-text="n" xlink:href="#font_2_77" transform="matrix(14.347491,0,0,-14.34706,103.25785,105.19841)"/>
<use data-text="e" xlink:href="#font_2_50" transform="matrix(14.347491,0,0,-14.34706,111.06289,105.19841)"/>
<use data-text="i" xlink:href="#font_1_66" transform="matrix(9.963496,0,0,-9.963197,75.19315,117.15413)"/>
<use data-text="s" xlink:href="#font_1_98" transform="matrix(9.963496,0,0,-9.963197,77.963008,117.15413)"/>
<use data-text="p" xlink:href="#font_1_84" transform="matrix(9.963496,0,0,-9.963197,85.19651,117.15413)"/>
<use data-text="o" xlink:href="#font_1_81" transform="matrix(9.963496,0,0,-9.963197,91.015178,117.15413)"/>
<use data-text="s" xlink:href="#font_1_98" transform="matrix(9.963496,0,0,-9.963197,95.996929,117.15413)"/>
<use data-text="i" xlink:href="#font_1_66" transform="matrix(9.963496,0,0,-9.963197,99.92254,117.15413)"/>
<use data-text="t" xlink:href="#font_1_105" transform="matrix(9.963496,0,0,-9.963197,102.69239,117.15413)"/>
<use data-text="i" xlink:href="#font_1_66" transform="matrix(9.963496,0,0,-9.963197,106.5682,117.15413)"/>
<use data-text="v" xlink:href="#font_1_112" transform="matrix(9.963496,0,0,-9.963197,109.33805,117.15413)"/>
<use data-text="e" xlink:href="#font_1_50" transform="matrix(9.963496,0,0,-9.963197,114.329769,117.15413)"/>
</svg>
