<svg xmlns="http://www.w3.org/2000/svg" xmlns:xlink="http://www.w3.org/1999/xlink" version="1.1" width="118" height="108" viewBox="0 0 118 108">
<defs>
<path id="font_1_1" d="M.33399964 .30233766C.33999635 .32835389 .36299134 .42037965 .43299867 .42037965 .43798829 .42037965 .46199037 .42037965 .48298646 .40734864 .45498658 .402359 .43499757 .37734986 .43499757 .35334779 .43499757 .33735658 .44599916 .31835938 .47299195 .31835938 .49499513 .31835938 .5269928 .3363495 .5269928 .37635804 .5269928 .42837525 .46798707 .4423828 .43399049 .4423828 .37599183 .4423828 .34098817 .38935853 .32899476 .36634828 .3039856 .43237306 .25 .4423828 .22099304 .4423828 .116989139 .4423828 .05999756 .3133545 .05999756 .28834535 .05999756 .27833558 .069992069 .27833558 .07199097 .27833558 .07998657 .27833558 .08299255 .28033448 .084991458 .28933717 .11898804 .39535523 .18499756 .42037965 .21899414 .42037965 .23799134 .42037965 .272995 .4113617 .272995 .35334779 .272995 .32235719 .2559967 .25532533 .21899414 .11528015 .20298767 .053268434 .16799927 .011245728 .12399292 .011245728 .117996219 .011245728 .09498596 .011245728 .07398987 .024276734 .09899902 .029266358 .12098694 .05027771 .12098694 .07827759 .12098694 .105270389 .09899902 .11328125 .083999637 .11328125 .053985597 .11328125 .0289917 .08728027 .0289917 .055267335 .0289917 .009246826 .07899475-.0107421879 .12298584-.0107421879 .18899536-.0107421879 .22499085 .059280397 .22799683 .0652771 .23999024 .028274537 .27598573-.0107421879 .33599855-.0107421879 .43899537-.0107421879 .49598695 .118270877 .49598695 .14328003 .49598695 .1532898 .4869995 .1532898 .48399354 .1532898 .47499085 .1532898 .47299195 .14929199 .47099305 .14228821 .43798829 .03527832 .36999513 .011245728 .33799745 .011245728 .29899598 .011245728 .2829895 .043273927 .2829895 .07727051 .2829895 .09927368 .2889862 .121276859 .2999878 .16529846L.33399964 .30233766Z"/>
<path id="font_1_2" d="M.48599244 .38136292C.48999024 .39537049 .48999024 .39736939 .48999024 .40437318 .48999024 .42237855 .47599793 .43138124 .46099855 .43138124 .45098878 .43138124 .43499757 .42536927 .42599488 .41036988 .42399598 .405365 .41600038 .37435914 .4119873 .35635377 .40499879 .33035279 .397995 .30334474 .3919983 .27633668L.34700013 .09628296C.34298707 .08126831 .2999878 .011245728 .23399353 .011245728 .18299866 .011245728 .17199707 .055267335 .17199707 .0922699 .17199707 .1382904 .18899536 .20030213 .22299195 .28833009 .23899842 .3293457 .24299622 .3403473 .24299622 .36035157 .24299622 .405365 .21099854 .4423828 .16099549 .4423828 .06599426 .4423828 .0289917 .29733277 .0289917 .28833009 .0289917 .27833558 .038986207 .27833558 .040985109 .27833558 .050994874 .27833558 .051986696 .28033448 .056991579 .29634095 .083999637 .3903656 .12399292 .42037965 .1579895 .42037965 .1659851 .42037965 .18299866 .42037965 .18299866 .3883667 .18299866 .36335755 .17298889 .3373413 .1659851 .31834413 .12599182 .21231079 .10798645 .1552887 .10798645 .10827637 .10798645 .019256592 .17098999-.0107421879 .22999573-.0107421879 .2689972-.0107421879 .30299378 .0062561037 .33099366 .03425598 .31799317-.017745972 .30599977-.06674194 .2659912-.11973572 .23999024-.15385437 .20199585-.18309021 .1559906-.18309021 .14199829-.18309021 .09700012-.18005371 .07998657-.14074707 .09599304-.14074707 .10899353-.14074707 .12298584-.1287384 .1329956-.11973572 .14299011-.10673523 .14299011-.08773804 .14299011-.056747438 .115997318-.052734376 .10598755-.052734376 .08299255-.052734376 .049987794-.068740848 .049987794-.11773682 .049987794-.16796875 .09399414-.20507813 .1559906-.20507813 .25898744-.20507813 .3619995-.11373901 .3899994-.00074768069L.48599244 .38136292Z"/>
<path id="font_2_2" d="M.2939911 .64004519C.2939911 .66400149 .2939911 .6660156 .2709961 .6660156 .20899964 .60227969 .12098694 .60227969 .08898926 .60227969V.57128909C.10899353 .57128909 .16799927 .57128909 .21998596 .5972748V.07902527C.21998596 .042999269 .21699524 .0309906 .1269989 .0309906H.09498596V0C.12998963 .0029907227 .21699524 .0029907227 .25698854 .0029907227 .29699708 .0029907227 .38398744 .0029907227 .4189911 0V.0309906H.3869934C.29699708 .0309906 .2939911 .041992189 .2939911 .07902527V.64004519Z"/>
<path id="font_2_9" d="M.16299439 .4569702C.116989139 .486969 .11299133 .52098086 .11299133 .5379791 .11299133 .598999 .17799378 .64100649 .24899292 .64100649 .32199098 .64100649 .38598634 .58898928 .38598634 .51698306 .38598634 .45996095 .34700013 .4119568 .2869873 .37695313L.16299439 .4569702M.30899049 .36193849C.3809967 .3989563 .42999269 .45095826 .42999269 .51698306 .42999269 .6090088 .34098817 .6660156 .25 .6660156 .1499939 .6660156 .068984989 .59199526 .068984989 .49897767 .068984989 .4809723 .070999149 .43595887 .11299133 .38894654 .12399292 .37695313 .16099549 .35194398 .18598938 .33494569 .12799073 .30592347 .041992189 .24984741 .041992189 .15072632 .041992189 .04458618 .14399719-.022460938 .24899292-.022460938 .3619995-.022460938 .45700074 .06060791 .45700074 .16773987 .45700074 .20379639 .44599916 .24885559 .4079895 .2909088 .3889923 .31193543 .37298585 .3219452 .30899049 .36193849M.20899964 .3199463 .33198548 .24183655C.3600006 .2228241 .40699769 .19277954 .40699769 .13169861 .40699769 .05760193 .33198548 .0055389406 .25 .0055389406 .1639862 .0055389406 .09199524 .067611698 .09199524 .15072632 .09199524 .20880127 .12399292 .27288819 .20899964 .3199463Z"/>
<path id="font_2_1" d="M.45999146 .31976319C.45999146 .39982606 .45498658 .47988893 .41999818 .5539398 .37399293 .65000918 .2919922 .6660156 .25 .6660156 .18998719 .6660156 .116989139 .64001467 .07598877 .54693606 .04399109 .47789 .038986207 .39982606 .038986207 .31976319 .038986207 .24472046 .042999269 .15464783 .083999637 .07859802 .1269989-.0024719239 .19999695-.022460938 .24899292-.022460938 .30299378-.022460938 .3789978-.0014648438 .4229889 .09359741 .45498658 .16265869 .45999146 .2407074 .45999146 .31976319M.24899292-.00047302247C.20999146-.00047302247 .15098572 .024551392 .1329956 .12062073 .12199402 .18066406 .12199402 .2727356 .12199402 .3317871 .12199402 .39582826 .12199402 .46188355 .12998963 .5159149 .14898682 .63500979 .22399903 .64401248 .24899292 .64401248 .28199769 .64401248 .34799195 .6259918 .36698915 .52693179 .3769989 .47088624 .3769989 .39482118 .3769989 .3317871 .3769989 .25672914 .3769989 .18867493 .3659973 .12461853 .35099793 .029556275 .2939911-.00047302247 .24899292-.00047302247Z"/>
<path id="font_2_4" d="M.2899933 .35191346C.37199403 .37893678 .42999269 .4490509 .42999269 .52809146 .42999269 .6100464 .34199525 .6660156 .24598694 .6660156 .14498902 .6660156 .068984989 .60606387 .068984989 .53009036 .068984989 .49710084 .09098816 .47808839 .11999512 .47808839 .15098572 .47808839 .17098999 .50009158 .17098999 .5290985 .17098999 .57910159 .12399292 .57910159 .10899353 .57910159 .13999939 .62802127 .20599365 .64100649 .24198914 .64100649 .2829895 .64100649 .33799745 .6190338 .33799745 .5290985 .33799745 .51708987 .33599855 .45906068 .30999757 .4149933 .27999879 .36691285 .24598694 .36390687 .22099304 .36291505 .21299744 .36190797 .18899536 .35990907 .18199158 .35990907 .17399597 .35890199 .16699219 .35791017 .16699219 .3479004 .16699219 .33691407 .17399597 .33691407 .19099427 .33691407H.23498535C.31698609 .33691407 .35398866 .2686615 .35398866 .17037964 .35398866 .034469606 .2849884 .0055389406 .24099732 .0055389406 .19799805 .0055389406 .12298584 .022491456 .08799744 .08137512 .12298584 .07637024 .1539917 .09837341 .1539917 .1363678 .1539917 .17237854 .1269989 .19238281 .09799194 .19238281 .07398987 .19238281 .041992189 .17837525 .041992189 .1343689 .041992189 .043441774 .1349945-.022460938 .24398804-.022460938 .3659973-.022460938 .45700074 .06838989 .45700074 .17037964 .45700074 .252594 .3939972 .33088685 .2899933 .35191346Z"/>
<path id="font_2_7" d="M.13198853 .327713V.35173036C.13198853 .6047821 .2559967 .64100649 .30699159 .64100649 .33099366 .64100649 .37298585 .634964 .394989 .6007538 .37998963 .6007538 .33999635 .6007538 .33999635 .5557556 .33999635 .524765 .3639984 .5097656 .38598634 .5097656 .4019928 .5097656 .43199159 .51875308 .43199159 .5577545 .43199159 .6178589 .3880005 .6660156 .30499269 .6660156 .1769867 .6660156 .041992189 .5367584 .041992189 .31570436 .041992189 .048553468 .1579895-.022460938 .25099183-.022460938 .3619995-.022460938 .45700074 .07156372 .45700074 .2036438 .45700074 .33070375 .36799623 .4267578 .25698854 .4267578 .18899536 .4267578 .1519928 .37573243 .13198853 .327713M.25099183 .0055389406C.18798828 .0055389406 .1579895 .06556702 .1519928 .080566409 .13398743 .127594 .13398743 .2076416 .13398743 .22564698 .13398743 .30369569 .1659851 .40374757 .2559967 .40374757 .27198792 .40374757 .31799317 .40374757 .34899903 .34172059 .36698915 .30470277 .36698915 .2536621 .36698915 .20463562 .36698915 .15661621 .36698915 .10658264 .34999085 .0705719 .31999208 .010528564 .27398683 .0055389406 .25099183 .0055389406Z"/>
<path id="font_2_6" d="M.44898988 .20022583C.44898988 .3193512 .36698915 .41944886 .25898744 .41944886 .21099854 .41944886 .16799927 .40345765 .13198853 .36842347V.5637665C.1519928 .5577698 .18499756 .55078127 .21699524 .55078127 .33999635 .55078127 .4099884 .6417694 .4099884 .6547699 .4099884 .6607666 .40699769 .6657715 .3999939 .6657715 .39898683 .6657715 .39698792 .6657715 .3919983 .66278079 .37199403 .6537781 .32299806 .6337738 .2559967 .6337738 .21598816 .6337738 .16999817 .6407776 .12298584 .6617737 .114990238 .66477969 .11299133 .66477969 .11099243 .66477969 .100997928 .66477969 .100997928 .6567688 .100997928 .6407776V.34439088C.100997928 .32637025 .100997928 .31835938 .114990238 .31835938 .12199402 .31835938 .12399292 .32136537 .12799073 .32736207 .13899231 .3433838 .17599488 .39746095 .25698854 .39746095 .30899049 .39746095 .33399964 .35139466 .34199525 .33337403 .35798646 .29632569 .3600006 .25727845 .3600006 .20722962 .3600006 .17222595 .3600006 .11222839 .33599855 .07035828 .31199647 .031463624 .2749939 .0055389406 .22898865 .0055389406 .1559906 .0055389406 .09899902 .058380128 .08198547 .11723328 .084991458 .1162262 .08799744 .115234378 .09899902 .115234378 .13198853 .115234378 .14898682 .14022827 .14898682 .16423035 .14898682 .18823242 .13198853 .21322632 .09899902 .21322632 .084991458 .21322632 .049987794 .20622254 .049987794 .16023255 .049987794 .07434082 .11898804-.022460938 .23098755-.022460938 .34700013-.022460938 .44898988 .073349 .44898988 .20022583Z"/>
<path id="font_2_5" d="M.2939911 .16503906V.07800293C.2939911 .041992189 .2919922 .0309906 .21798706 .0309906H.19699097V0C.23799134 .0029907227 .2899933 .0029907227 .33198548 .0029907227 .37399293 .0029907227 .4269867 .0029907227 .46798707 0V.0309906H.44699098C.37298585 .0309906 .37098695 .041992189 .37098695 .07800293V.16503906H.47099305V.19602967H.37098695V.65075686C.37098695 .67074587 .37098695 .6767578 .35499574 .6767578 .34599305 .6767578 .34298707 .6767578 .33499146 .66474917L.027999878 .19602967V.16503906H.2939911M.2999878 .19602967H.055999757L.2999878 .5688019V.19602967Z"/>
<path id="font_2_8" d="M.47599793 .609375C.4850006 .6213684 .4850006 .62338259 .4850006 .64437869H.24198914C.11999512 .64437869 .117996219 .65737918 .11399841 .67637637H.08898926L.055999757 .4702301H.08099365C.083999637 .48625184 .09298706 .5493469 .10598755 .56137087 .11299133 .5673828 .19099427 .5673828 .20399475 .5673828H.41099549C.3999939 .5513611 .32099916 .4421997 .29899598 .40914918 .20899964 .27394105 .17599488 .1347351 .17599488 .032577516 .17599488 .022567749 .17599488-.022460938 .22200012-.022460938 .2679901-.022460938 .2679901 .022567749 .2679901 .032577516V.08366394C.2679901 .13873291 .2709961 .19381714 .2789917 .24790955 .2829895 .27093507 .29699708 .35707093 .34098817 .41915895L.47599793 .609375Z"/>
<path id="font_2_3" d="M.1269989 .07699585 .23298645 .18003845C.3889923 .31811524 .44898988 .3721466 .44898988 .47216798 .44898988 .5860901 .35899354 .6660156 .23699951 .6660156 .12399292 .6660156 .049987794 .57411196 .049987794 .48516847 .049987794 .4291687 .099990848 .4291687 .102996829 .4291687 .11999512 .4291687 .15499878 .44117738 .15499878 .48217774 .15499878 .5081787 .13699341 .5341797 .101989749 .5341797 .09399414 .5341797 .09199524 .5341797 .08898926 .5331726 .11199951 .59806826 .1659851 .63500979 .22399903 .63500979 .31498719 .63500979 .35798646 .5541382 .35798646 .47216798 .35798646 .39215089 .30799867 .31311036 .25299073 .25108338L.06098938 .036987306C.049987794 .025985718 .049987794 .023986817 .049987794 0H.42099L.44898988 .17404175H.42399598C.4189911 .14402771 .4119873 .1000061 .4019928 .084991458 .394989 .07699585 .32899476 .07699585 .30699159 .07699585H.1269989Z"/>
<path id="font_3_64" d="M.27598573 .18710327V.24511719H.010986328V.18710327H.27598573Z"/>
<path id="font_3_51" d="M.45700074 .16764832C.45700074 .20367432 .44599916 .24871826 .4079895 .29074098 .3889923 .31176759 .37298585 .32176209 .30899049 .36180116 .3809967 .39881898 .42999269 .4508667 .42999269 .51690676 .42999269 .6089783 .34098817 .6660156 .25 .6660156 .1499939 .6660156 .068984989 .5919647 .068984989 .49890138 .068984989 .48088075 .070999149 .43585206 .11299133 .38882447 .12399292 .3768158 .16099549 .35179139 .18598938 .33477784 .12799073 .30575563 .041992189 .24971009 .041992189 .15063477 .041992189 .044555665 .14399719-.022460938 .24899292-.022460938 .3619995-.022460938 .45700074 .060577394 .45700074 .16764832M.38598634 .51690676C.38598634 .45986939 .34700013 .41183473 .2869873 .3768158L.16299439 .4568634C.116989139 .4868927 .11299133 .5209198 .11299133 .53793337 .11299133 .5989685 .17799378 .64100649 .24899292 .64100649 .32199098 .64100649 .38598634 .588974 .38598634 .51690676M.40699769 .13162232C.40699769 .05757141 .33198548 .0055389406 .25 .0055389406 .1639862 .0055389406 .09199524 .06758118 .09199524 .15063477 .09199524 .2086792 .12399292 .2727356 .20899964 .31976319L.33198548 .24171448C.3600006 .22268677 .40699769 .19267273 .40699769 .13162232Z"/>
<path id="font_3_57" d="M.47099305 .16503906V.19602967H.37098695V.6507721C.37098695 .6707611 .37098695 .6767578 .35499574 .6767578 .34599305 .6767578 .34298707 .6767578 .33499146 .6647644L.027999878 .19602967V.16503906H.2939911V.07800293C.2939911 .041992189 .2919922 .0309906 .21798706 .0309906H.19699097V0C.23799134 .0029907227 .2899933 .0029907227 .33198548 .0029907227 .37399293 .0029907227 .4269867 .0029907227 .46798707 0V.0309906H.44699098C.37298585 .0309906 .37098695 .041992189 .37098695 .07800293V.16503906H.47099305M.2999878 .19602967H.055999757L.2999878 .56881716V.19602967Z"/>
<path id="font_3_85" d="M.33099366-.2400055C.33099366-.23701477 .33099366-.23500061 .31399537-.21800232 .18899536-.0920105 .15699768 .09700012 .15699768 .25 .15699768 .42399598 .19499207 .59799197 .31799317 .72299197 .33099366 .7350006 .33099366 .7369995 .33099366 .73999026 .33099366 .746994 .32699586 .75 .32099916 .75 .31098939 .75 .22099304 .6819916 .1619873 .5549927 .11099243 .44499208 .09899902 .33399964 .09899902 .25 .09899902 .17199707 .10998535 .050994874 .16499329-.06201172 .22499085-.18501282 .31098939-.25 .32099916-.25 .32699586-.25 .33099366-.24700928 .33099366-.2400055Z"/>
<path id="font_3_28" d="M.48298646 .08912659V.14511109H.45799256V.08912659C.45799256 .03112793 .43299867 .025131226 .42199708 .025131226 .3889923 .025131226 .3849945 .070129398 .3849945 .07511902V.27508546C.3849945 .31707765 .3849945 .3560791 .34899903 .39312745 .30999757 .43223573 .2599945 .4482422 .21199036 .4482422 .12998963 .4482422 .06098938 .40115357 .06098938 .335083 .06098938 .30508424 .08099365 .28808595 .10699463 .28808595 .1349945 .28808595 .15299988 .30807496 .15299988 .33407594 .15299988 .3460846 .147995 .37908937 .101989749 .38008119 .1289978 .41519166 .17799378 .426239 .20999146 .426239 .25898744 .426239 .31599427 .38710023 .31599427 .29808045V.26107789C.2649994 .25808717 .19499207 .25508119 .13198853 .22509766 .056991579 .19110108 .03199768 .13911438 .03199768 .09512329 .03199768 .014251709 .1289978-.0107421879 .19198609-.0107421879 .2579956-.0107421879 .3039856 .029251099 .32299806 .07624817 .32699586 .036132814 .35398866-.005859375 .40098573-.005859375 .42199708-.005859375 .48298646 .008132935 .48298646 .08912659M.31599427 .14013672C.31599427 .04525757 .24398804 .011245728 .19898987 .011245728 .1499939 .011245728 .10899353 .04624939 .10899353 .09625244 .10899353 .15124512 .15098572 .23425293 .31599427 .24024964V.14013672Z"/>
<path id="font_3_86" d="M.2889862 .25C.2889862 .32798768 .27799989 .44898988 .22299195 .56199648 .16299439 .68499758 .07699585 .75 .066986087 .75 .06098938 .75 .056991579 .74598696 .056991579 .73999026 .056991579 .7369995 .056991579 .7350006 .07598877 .71699526 .17399597 .6179962 .23098755 .45899964 .23098755 .25 .23098755 .07899475 .19400025-.09700012 .069992069-.2230072 .056991579-.23500061 .056991579-.23701477 .056991579-.2400055 .056991579-.2460022 .06098938-.25 .066986087-.25 .07699585-.25 .16699219-.18200684 .22599793-.055007936 .2769928 .054992677 .2889862 .16600037 .2889862 .25Z"/>
</defs>
<path transform="matrix(1.00003,0,0,-1.00005,11.837845,50.78589)" stroke-width=".3985" stroke-linecap="butt" stroke-miterlimit="10" stroke-linejoin="miter" fill="none" stroke="#00aeef" d="M0-34.01564H90.70839M0-28.34636H90.70839M0-22.6771H90.70839M0-17.00781H90.70839M0-11.33855H90.70839M0-5.66927H90.70839M0 0H90.70839M0 5.66927H90.70839M0 11.33855H90.70839M0 17.00781H90.70839M0 22.6771H90.70839M0 28.34636H90.70839M0 34.01364H90.70839M0-34.01564V34.01564M5.66927-34.01564V34.01564M11.33855-34.01564V34.01564M17.00781-34.01564V34.01564M22.6771-34.01564V34.01564M28.34636-34.01564V34.01564M34.01564-34.01564V34.01564M39.6849-34.01564V34.01564M45.35419-34.01564V34.01564M51.02345-34.01564V34.01564M56.69275-34.01564V34.01564M62.36201-34.01564V34.01564M68.0313-34.01564V34.01564M73.70056-34.01564V34.01564M79.36984-34.01564V34.01564M85.03911-34.01564V34.01564M90.70639-34.01564V34.01564M90.70839 34.01564"/>
<path transform="matrix(1.00003,0,0,-1.00005,11.837845,50.78589)" stroke-width=".3985" stroke-linecap="butt" stroke-miterlimit="10" stroke-linejoin="miter" fill="none" stroke="#000000" d="M0 0H94.81444"/>
<path transform="matrix(1.00003,0,0,-1.00005,106.65513,50.78589)" d="M.797 0C-.19925 .19925-1.19551 .59775-2.39102 1.29512-1.19551 .3985-1.19551-.3985-2.39102-1.29512-1.19551-.59775-.19925-.19925 .797 0Z"/>
<path transform="matrix(1.00003,0,0,-1.00005,106.65513,50.78589)" stroke-width=".3985" stroke-linecap="butt" stroke-linejoin="round" fill="none" stroke="#000000" d="M.797 0C-.19925 .19925-1.19551 .59775-2.39102 1.29512-1.19551 .3985-1.19551-.3985-2.39102-1.29512-1.19551-.59775-.19925-.19925 .797 0Z"/>
<use data-text="x" xlink:href="#font_1_1" transform="matrix(9.962899,0,0,-9.963098,111.17183,52.930997)"/>
<path transform="matrix(1.00003,0,0,-1.00005,11.837845,50.78589)" stroke-width=".3985" stroke-linecap="butt" stroke-miterlimit="10" stroke-linejoin="miter" fill="none" stroke="#000000" d="M0-34.01564V38.12169"/>
<path transform="matrix(0,-1.00005,-1.00003,-0,11.837845,12.662296)" d="M.797 0C-.19925 .19925-1.19551 .59775-2.39102 1.29512-1.19551 .3985-1.19551-.3985-2.39102-1.29512-1.19551-.59775-.19925-.19925 .797 0Z"/>
<path transform="matrix(0,-1.00005,-1.00003,-0,11.837845,12.662296)" stroke-width=".3985" stroke-linecap="butt" stroke-linejoin="round" fill="none" stroke="#000000" d="M.797 0C-.19925 .19925-1.19551 .59775-2.39102 1.29512-1.19551 .3985-1.19551-.3985-2.39102-1.29512-1.19551-.59775-.19925-.19925 .797 0Z"/>
<use data-text="y" xlink:href="#font_1_2" transform="matrix(9.962899,0,0,-9.963098,9.216766,6.20866)"/>
<path transform="matrix(1.00003,0,0,-1.00005,11.837845,50.78589)" stroke-width=".3985" stroke-linecap="butt" stroke-miterlimit="10" stroke-linejoin="miter" fill="none" stroke="#000000" d="M22.6771 .45352V-.45354"/>
<path transform="matrix(1.00003,0,0,-1.00005,11.837845,50.78589)" d="M14.20872-12.05461H31.14544V-3.6416302H14.20872Z" fill="#ffffff"/>
<use data-text="1" xlink:href="#font_2_2" transform="matrix(9.962899,0,0,-9.963098,27.043305,61.84444)"/>
<use data-text="8" xlink:href="#font_2_9" transform="matrix(9.962899,0,0,-9.963098,32.024759,61.84444)"/>
<use data-text="0" xlink:href="#font_2_1" transform="matrix(9.962899,0,0,-9.963098,37.00621,61.84444)"/>
<path transform="matrix(1.00003,0,0,-1.00005,11.837845,50.78589)" stroke-width=".3985" stroke-linecap="butt" stroke-miterlimit="10" stroke-linejoin="miter" fill="none" stroke="#000000" d="M45.35419 .45352V-.45354"/>
<path transform="matrix(1.00003,0,0,-1.00005,11.837845,50.78589)" d="M36.88582-12.05461H53.82254V-3.6416302H36.88582Z" fill="#ffffff"/>
<use data-text="3" xlink:href="#font_2_4" transform="matrix(9.962899,0,0,-9.963098,49.72098,61.84444)"/>
<use data-text="6" xlink:href="#font_2_7" transform="matrix(9.962899,0,0,-9.963098,54.702436,61.84444)"/>
<use data-text="0" xlink:href="#font_2_1" transform="matrix(9.962899,0,0,-9.963098,59.683889,61.84444)"/>
<path transform="matrix(1.00003,0,0,-1.00005,11.837845,50.78589)" stroke-width=".3985" stroke-linecap="butt" stroke-miterlimit="10" stroke-linejoin="miter" fill="none" stroke="#000000" d="M68.0313 .45352V-.45354"/>
<path transform="matrix(1.00003,0,0,-1.00005,11.837845,50.78589)" d="M59.56293-12.05461H76.49965V-3.6416302H59.56293Z" fill="#ffffff"/>
<use data-text="5" xlink:href="#font_2_6" transform="matrix(9.962899,0,0,-9.963098,72.39867,61.84444)"/>
<use data-text="4" xlink:href="#font_2_5" transform="matrix(9.962899,0,0,-9.963098,77.38011,61.84444)"/>
<use data-text="0" xlink:href="#font_2_1" transform="matrix(9.962899,0,0,-9.963098,82.36157,61.84444)"/>
<path transform="matrix(1.00003,0,0,-1.00005,11.837845,50.78589)" stroke-width=".3985" stroke-linecap="butt" stroke-miterlimit="10" stroke-linejoin="miter" fill="none" stroke="#000000" d="M90.70839 .45352V-.45354"/>
<path transform="matrix(1.00003,0,0,-1.00005,11.837845,50.78589)" d="M82.24002-12.05461H99.17674V-3.6416302H82.24002Z" fill="#ffffff"/>
<use data-text="7" xlink:href="#font_2_8" transform="matrix(9.962899,0,0,-9.963098,95.07635,61.84444)"/>
<use data-text="2" xlink:href="#font_2_3" transform="matrix(9.962899,0,0,-9.963098,100.0578,61.84444)"/>
<use data-text="0" xlink:href="#font_2_1" transform="matrix(9.962899,0,0,-9.963098,105.03925,61.84444)"/>
<path transform="matrix(1.00003,0,0,-1.00005,11.837845,50.78589)" stroke-width=".3985" stroke-linecap="butt" stroke-miterlimit="10" stroke-linejoin="miter" fill="none" stroke="#000000" d="M.45352-34.01564H-.45354"/>
<path transform="matrix(1.00003,0,0,-1.00005,11.837845,50.78589)" d="M-11.9406-38.43909H-1.6490803V-29.59218H-11.9406Z" fill="#ffffff"/>
<use data-text="-" xlink:href="#font_3_64" transform="matrix(9.962899,0,0,-9.963098,.89351657,88.01175)"/>
<use data-text="8" xlink:href="#font_3_51" transform="matrix(9.962899,0,0,-9.963098,4.2111589,88.01175)"/>
<path transform="matrix(1.00003,0,0,-1.00005,11.837845,50.78589)" stroke-width=".3985" stroke-linecap="butt" stroke-miterlimit="10" stroke-linejoin="miter" fill="none" stroke="#000000" d="M.45352-17.00781H-.45354"/>
<path transform="matrix(1.00003,0,0,-1.00005,11.837845,50.78589)" d="M-11.9406-21.37648H-1.6490803V-12.63914H-11.9406Z" fill="#ffffff"/>
<use data-text="-" xlink:href="#font_3_64" transform="matrix(9.962899,0,0,-9.963098,.89351657,71.1669)"/>
<use data-text="4" xlink:href="#font_3_57" transform="matrix(9.962899,0,0,-9.963098,4.2111589,71.1669)"/>
<path transform="matrix(1.00003,0,0,-1.00005,11.837845,50.78589)" stroke-width=".3985" stroke-linecap="butt" stroke-miterlimit="10" stroke-linejoin="miter" fill="none" stroke="#000000" d="M.45352 17.00781H-.45354"/>
<path transform="matrix(1.00003,0,0,-1.00005,11.837845,50.78589)" d="M-8.62302 12.63914H-1.6490803V21.37648H-8.62302Z" fill="#ffffff"/>
<use data-text="4" xlink:href="#font_3_57" transform="matrix(9.962899,0,0,-9.963098,4.210617,37.150209)"/>
<path transform="matrix(1.00003,0,0,-1.00005,11.837845,50.78589)" stroke-width=".3985" stroke-linecap="butt" stroke-miterlimit="10" stroke-linejoin="miter" fill="none" stroke="#000000" d="M.45352 34.01564H-.45354"/>
<path transform="matrix(1.00003,0,0,-1.00005,11.837845,50.78589)" d="M-8.62302 29.59218H-1.6490803V38.43909H-8.62302Z" fill="#ffffff"/>
<use data-text="8" xlink:href="#font_3_51" transform="matrix(9.962899,0,0,-9.963098,4.210617,19.976349)"/>
<path transform="matrix(1.00003,0,0,-1.00005,11.837845,50.78589)" stroke-width=".79701" stroke-linecap="butt" stroke-miterlimit="10" stroke-linejoin="miter" fill="none" stroke="#ff0000" d="M0 5.66927C0 5.66927 .30493 5.67343 .42204 5.67886 .53915 5.68428 .72699 5.69751 .84412 5.70836 .96123 5.71921 1.14905 5.74048 1.26617 5.75706 1.3833 5.77365 1.57112 5.80534 1.68823 5.82799 1.80536 5.85066 1.99318 5.89145 2.1103 5.9204 2.22742 5.94933 2.41525 6.00061 2.53236 6.03665 2.64949 6.0727 2.83731 6.1365 2.95444 6.18016 3.07155 6.22382 3.25937 6.29913 3.37651 6.35136 3.49362 6.4036 3.68144 6.49457 3.79855 6.55664 3.91568 6.61871 4.10352 6.72543 4.22063 6.79877 4.33774 6.8721 4.52557 6.99855 4.64268 7.08519 4.75981 7.17183 4.94763 7.32083 5.06476 7.42317 5.18187 7.52553 5.36969 7.70152 5.48682 7.82292 5.60394 7.94432 5.79176 8.15317 5.90887 8.2981 6.026 8.44304 6.21384 8.69304 6.33095 8.8675 6.44806 9.04192 6.63588 9.3431 6.75302 9.5553 6.87013 9.76749 7.05795 10.13477 7.17506 10.39682 7.2922 10.65887 7.48003 11.11404 7.59714 11.44398 7.71425 11.77394 7.90208 12.34915 8.01921 12.77489 8.13632 13.20062 8.32414 13.94508 8.44127 14.51236 8.55838 15.07964 8.7462 16.07344 8.86333 16.86342 8.98045 17.65341 9.16827 19.03465 9.28539 20.20604 9.40251 21.37741 9.59035 23.3904 9.70746 25.30592 9.82457 27.22145 10.12953 34.01184 10.06522 32.57877"/>
<path transform="matrix(.044831348,-.99897989,-.99895998,-.044832238,21.903347,18.20549)" d="M1.0361 0C-.25902 .25902-1.55415 .77707-3.1083 1.68365-1.55415 .51805-1.55415-.51805-3.1083-1.68365-1.55415-.77707-.25902-.25902 1.0361 0Z" fill="#ff0000"/>
<path transform="matrix(.044831348,-.99897989,-.99895998,-.044832238,21.903347,18.20549)" stroke-width=".79701" stroke-linecap="butt" stroke-linejoin="round" fill="none" stroke="#ff0000" d="M1.0361 0C-.25902 .25902-1.55415 .77707-3.1083 1.68365-1.55415 .51805-1.55415-.51805-3.1083-1.68365-1.55415-.77707-.25902-.25902 1.0361 0Z"/>
<path transform="matrix(1.00003,0,0,-1.00005,11.837845,50.78589)" stroke-width=".79701" stroke-linecap="butt" stroke-miterlimit="10" stroke-linejoin="miter" fill="none" stroke="#ff0000" d="M12.62575-32.5906C13.157-22.91623 13.157-22.91623 13.39125-20.20941 13.62547-17.5026 14.00113-15.73021 14.23537-14.5141 14.46962-13.29799 14.84526-12.13245 15.0795-11.4445 15.31374-10.75656 15.68939-9.99237 15.92363-9.5559 16.15787-9.11943 16.53351-8.59454 16.76776-8.2987 17.002-8.00287 17.37766-7.63171 17.61188-7.42369 17.84613-7.21567 18.22177-6.94807 18.45601-6.79938 18.69025-6.65068 19.0659-6.4578 19.30014-6.35197 19.53438-6.24614 19.91002-6.10934 20.14427-6.03665 20.37851-5.96396 20.75417-5.87355 20.98839-5.82799 21.22264-5.78244 21.59828-5.73038 21.83252-5.70836 22.06676-5.68634 22.44241-5.66927 22.67665-5.66927 22.91089-5.66927 23.28653-5.68634 23.52078-5.70836 23.75502-5.73038 24.13068-5.78244 24.3649-5.82799 24.59915-5.87355 24.9748-5.96404 25.20905-6.03665 25.44328-6.10925 25.81892-6.24562 26.05318-6.35136 26.2874-6.45709 26.66306-6.65015 26.8973-6.79877 27.13155-6.9474 27.50719-7.21461 27.74141-7.42258 27.97566-7.63052 28.3513-8.00174 28.58556-8.29758 28.8198-8.59341 29.19543-9.11838 29.42969-9.55476 29.66391-9.99118 30.03957-10.75531 30.2738-11.44286 30.50806-12.13042 30.8837-13.29488 31.11794-14.51012 31.35217-15.72534 31.72783-17.4967 31.96207-20.20145 32.1963-22.90619 32.8062-34.00397 32.72751-32.57156"/>
<path transform="matrix(-.054821649,.9985099,.99849,.05482274,24.463974,83.37811)" d="M1.0361 0C-.25902 .25902-1.55415 .77707-3.1083 1.68365-1.55415 .51805-1.55415-.51805-3.1083-1.68365-1.55415-.77707-.25902-.25902 1.0361 0Z" fill="#ff0000"/>
<path transform="matrix(-.054821649,.9985099,.99849,.05482274,24.463974,83.37811)" stroke-width=".79701" stroke-linecap="butt" stroke-linejoin="round" fill="none" stroke="#ff0000" d="M1.0361 0C-.25902 .25902-1.55415 .77707-3.1083 1.68365-1.55415 .51805-1.55415-.51805-3.1083-1.68365-1.55415-.77707-.25902-.25902 1.0361 0Z"/>
<path transform="matrix(.054861648,.9985099,.99849,-.05486274,44.566339,83.35906)" d="M1.0361 0C-.25902 .25902-1.55415 .77707-3.1083 1.68365-1.55415 .51805-1.55415-.51805-3.1083-1.68365-1.55415-.77707-.25902-.25902 1.0361 0Z" fill="#ff0000"/>
<path transform="matrix(.054861648,.9985099,.99849,-.05486274,44.566339,83.35906)" stroke-width=".79701" stroke-linecap="butt" stroke-linejoin="round" fill="none" stroke="#ff0000" d="M1.0361 0C-.25902 .25902-1.55415 .77707-3.1083 1.68365-1.55415 .51805-1.55415-.51805-3.1083-1.68365-1.55415-.77707-.25902-.25902 1.0361 0Z"/>
<path transform="matrix(1.00003,0,0,-1.00005,11.837845,50.78589)" stroke-width=".79701" stroke-linecap="butt" stroke-miterlimit="10" stroke-linejoin="miter" fill="none" stroke="#ff0000" d="M35.30293 32.58826C35.83418 22.91486 35.83418 22.91486 36.06844 20.20828 36.30267 17.5017 36.67833 15.72945 36.91255 14.51349 37.1468 13.29753 37.52245 12.13235 37.75668 11.4445 37.99092 10.75665 38.36658 9.99237 38.60081 9.5559 38.83505 9.11943 39.2107 8.59462 39.44495 8.2987 39.67918 8.00279 40.05484 7.63121 40.28906 7.42317 40.52332 7.21513 40.89896 6.94801 41.1332 6.79938 41.36743 6.65076 41.74309 6.4577 41.97733 6.35197 42.21156 6.24623 42.5872 6.10995 42.82146 6.03726 43.0557 5.96457 43.43135 5.87363 43.66557 5.82799 43.89983 5.78236 44.27547 5.73038 44.50972 5.70836 44.74396 5.68634 45.1196 5.66927 45.35385 5.66927 45.58807 5.66927 45.96373 5.68634 46.19797 5.70836 46.43222 5.73038 46.80786 5.78244 47.04208 5.82799 47.27634 5.87355 47.65198 5.96404 47.88623 6.03665 48.12047 6.10925 48.49611 6.24562 48.73036 6.35136 48.96458 6.45709 49.34024 6.65007 49.57448 6.79877 49.80873 6.94748 50.18437 7.21521 50.41861 7.42317 50.65285 7.63113 51.0285 8.00183 51.26274 8.29758 51.49698 8.59334 51.87262 9.11838 52.10687 9.55476 52.34111 9.99118 52.71677 10.75516 52.95099 11.44286 53.18524 12.13057 53.56088 13.296 53.79512 14.51125 54.02936 15.72647 54.40501 17.49687 54.63925 20.20145 54.87349 22.90604 55.48338 34.00397 55.4047 32.57156"/>
<path transform="matrix(-.054821649,-.9985099,-.99849,.05482274,47.141836,18.196019)" d="M1.0361 0C-.25902 .25902-1.55415 .77707-3.1083 1.68365-1.55415 .51805-1.55415-.51805-3.1083-1.68365-1.55415-.77707-.25902-.25902 1.0361 0Z" fill="#ff0000"/>
<path transform="matrix(-.054821649,-.9985099,-.99849,.05482274,47.141836,18.196019)" stroke-width=".79701" stroke-linecap="butt" stroke-linejoin="round" fill="none" stroke="#ff0000" d="M1.0361 0C-.25902 .25902-1.55415 .77707-3.1083 1.68365-1.55415 .51805-1.55415-.51805-3.1083-1.68365-1.55415-.77707-.25902-.25902 1.0361 0Z"/>
<path transform="matrix(.054861648,-.9985099,-.99849,-.05486274,67.24421,18.212716)" d="M1.0361 0C-.25902 .25902-1.55415 .77707-3.1083 1.68365-1.55415 .51805-1.55415-.51805-3.1083-1.68365-1.55415-.77707-.25902-.25902 1.0361 0Z" fill="#ff0000"/>
<path transform="matrix(.054861648,-.9985099,-.99849,-.05486274,67.24421,18.212716)" stroke-width=".79701" stroke-linecap="butt" stroke-linejoin="round" fill="none" stroke="#ff0000" d="M1.0361 0C-.25902 .25902-1.55415 .77707-3.1083 1.68365-1.55415 .51805-1.55415-.51805-3.1083-1.68365-1.55415-.77707-.25902-.25902 1.0361 0Z"/>
<path transform="matrix(1.00003,0,0,-1.00005,11.837845,50.78589)" stroke-width=".79701" stroke-linecap="butt" stroke-miterlimit="10" stroke-linejoin="miter" fill="none" stroke="#ff0000" d="M57.97997-32.5906C58.5112-22.91623 58.5112-22.91623 58.74545-20.20941 58.97969-17.5026 59.35535-15.73021 59.58957-14.5141 59.82382-13.29799 60.19946-12.13245 60.4337-11.4445 60.66794-10.75656 61.04358-9.99237 61.27783-9.5559 61.51207-9.11943 61.88771-8.59454 62.12196-8.2987 62.3562-8.00287 62.73186-7.63171 62.96608-7.42369 63.20033-7.21567 63.57597-6.94807 63.81023-6.79938 64.04445-6.65068 64.4201-6.4578 64.65434-6.35197 64.8886-6.24614 65.26424-6.10934 65.49847-6.03665 65.73271-5.96396 66.10837-5.87355 66.34259-5.82799 66.57684-5.78244 66.95248-5.73038 67.18674-5.70836 67.42096-5.68634 67.79662-5.66927 68.03085-5.66927 68.2651-5.66927 68.64075-5.68634 68.87498-5.70836 69.10922-5.73038 69.48488-5.78244 69.7191-5.82799 69.95335-5.87355 70.329-5.96404 70.56325-6.03665 70.79747-6.10925 71.17313-6.24562 71.40736-6.35136 71.64162-6.45709 72.01726-6.65015 72.2515-6.79877 72.48575-6.9474 72.86139-7.21461 73.09563-7.42258 73.32986-7.63052 73.7055-8.00174 73.93976-8.29758 74.17398-8.59341 74.54964-9.11838 74.78387-9.55476 75.01813-9.99118 75.39377-10.75531 75.628-11.44286 75.86226-12.13042 76.2379-13.29488 76.47215-14.51012 76.70638-15.72534 77.08203-17.4967 77.31627-20.20145 77.5505-22.90619 78.1604-34.00397 78.08171-32.57156"/>
<path transform="matrix(-.054821649,.9985099,.99849,.05482274,69.81956,83.37811)" d="M1.0361 0C-.25902 .25902-1.55415 .77707-3.1083 1.68365-1.55415 .51805-1.55415-.51805-3.1083-1.68365-1.55415-.77707-.25902-.25902 1.0361 0Z" fill="#ff0000"/>
<path transform="matrix(-.054821649,.9985099,.99849,.05482274,69.81956,83.37811)" stroke-width=".79701" stroke-linecap="butt" stroke-linejoin="round" fill="none" stroke="#ff0000" d="M1.0361 0C-.25902 .25902-1.55415 .77707-3.1083 1.68365-1.55415 .51805-1.55415-.51805-3.1083-1.68365-1.55415-.77707-.25902-.25902 1.0361 0Z"/>
<path transform="matrix(.054861648,.9985099,.99849,-.05486274,89.9219,83.35906)" d="M1.0361 0C-.25902 .25902-1.55415 .77707-3.1083 1.68365-1.55415 .51805-1.55415-.51805-3.1083-1.68365-1.55415-.77707-.25902-.25902 1.0361 0Z" fill="#ff0000"/>
<path transform="matrix(.054861648,.9985099,.99849,-.05486274,89.9219,83.35906)" stroke-width=".79701" stroke-linecap="butt" stroke-linejoin="round" fill="none" stroke="#ff0000" d="M1.0361 0C-.25902 .25902-1.55415 .77707-3.1083 1.68365-1.55415 .51805-1.55415-.51805-3.1083-1.68365-1.55415-.77707-.25902-.25902 1.0361 0Z"/>
<path transform="matrix(1.00003,0,0,-1.00005,11.837845,50.78589)" stroke-width=".79701" stroke-linecap="butt" stroke-miterlimit="10" stroke-linejoin="miter" fill="none" stroke="#ff0000" d="M80.6428 32.58757C80.88345 27.2292 80.88345 27.2292 81.00056 25.31276 81.11769 23.39632 81.30551 21.38022 81.42264 20.20828 81.53975 19.03633 81.72757 17.65634 81.8447 16.8662 81.96182 16.07605 82.14964 15.081 82.26675 14.51349 82.38388 13.94598 82.57172 13.20181 82.68883 12.77602 82.80594 12.3502 82.99376 11.77452 83.1109 11.4445 83.22801 11.11447 83.41583 10.65947 83.53294 10.39743 83.65009 10.13539 83.8379 9.7681 83.95502 9.5559 84.07214 9.34369 84.25996 9.04243 84.37709 8.86801 84.4942 8.69357 84.68204 8.44363 84.79915 8.2987 84.91626 8.1538 85.10408 7.945 85.22122 7.82352 85.33833 7.70204 85.52615 7.5256 85.64326 7.42317 85.76039 7.32074 85.94823 7.17174 86.06534 7.08519 86.18245 6.99864 86.37027 6.87271 86.48741 6.79938 86.60452 6.72604 86.79234 6.61871 86.90945 6.55664 87.0266 6.49457 87.21442 6.4042 87.33153 6.35197 87.44865 6.29974 87.63647 6.22383 87.7536 6.18016 87.87071 6.1365 88.05855 6.0733 88.17566 6.03726 88.29279 6.00122 88.4806 5.94942 88.59773 5.9204 88.71484 5.89136 88.90266 5.85057 89.01978 5.82799 89.13692 5.80542 89.32474 5.77426 89.44185 5.75766 89.55896 5.74106 89.7468 5.7193 89.86392 5.70836 89.98103 5.69742 90.16885 5.68428 90.28598 5.67886 90.4031 5.67343 90.70804 5.66927 90.70804 5.66927"/>
<path transform="matrix(-.044831348,-.99897989,-.99895998,.044832238,92.48309,18.19669)" d="M1.0361 0C-.25902 .25902-1.55415 .77707-3.1083 1.68365-1.55415 .51805-1.55415-.51805-3.1083-1.68365-1.55415-.77707-.25902-.25902 1.0361 0Z" fill="#ff0000"/>
<path transform="matrix(-.044831348,-.99897989,-.99895998,.044832238,92.48309,18.19669)" stroke-width=".79701" stroke-linecap="butt" stroke-linejoin="round" fill="none" stroke="#ff0000" d="M1.0361 0C-.25902 .25902-1.55415 .77707-3.1083 1.68365-1.55415 .51805-1.55415-.51805-3.1083-1.68365-1.55415-.77707-.25902-.25902 1.0361 0Z"/>
<use data-text="(" xlink:href="#font_3_85" transform="matrix(9.962899,0,0,-9.963098,50.827016,104.30257)"/>
<use data-text="a" xlink:href="#font_3_28" transform="matrix(9.962899,0,0,-9.963098,54.702589,104.30257)"/>
<use data-text=")" xlink:href="#font_3_86" transform="matrix(9.962899,0,0,-9.963098,59.684034,104.30257)"/>
</svg>
