<svg xmlns="http://www.w3.org/2000/svg" xmlns:xlink="http://www.w3.org/1999/xlink" version="1.1" width="317" height="102" viewBox="0 0 317 102">
<defs>
<path id="font_1_3" d="M.33399964 .30233766C.33999635 .32835389 .36299134 .42037965 .43299867 .42037965 .43798829 .42037965 .46199037 .42037965 .48298646 .40734864 .45498658 .402359 .43499757 .37734986 .43499757 .35334779 .43499757 .33735658 .44599916 .31835938 .47299195 .31835938 .49499513 .31835938 .5269928 .3363495 .5269928 .37635804 .5269928 .42837525 .46798707 .4423828 .43399049 .4423828 .37599183 .4423828 .34098817 .38935853 .32899476 .36634828 .3039856 .43237306 .25 .4423828 .22099304 .4423828 .116989139 .4423828 .05999756 .3133545 .05999756 .28834535 .05999756 .27833558 .069992069 .27833558 .07199097 .27833558 .07998657 .27833558 .08299255 .28033448 .084991458 .28933717 .11898804 .39535523 .18499756 .42037965 .21899414 .42037965 .23799134 .42037965 .272995 .4113617 .272995 .35334779 .272995 .32235719 .2559967 .25532533 .21899414 .11528015 .20298767 .053268434 .16799927 .011245728 .12399292 .011245728 .117996219 .011245728 .09498596 .011245728 .07398987 .024276734 .09899902 .029266358 .12098694 .05027771 .12098694 .07827759 .12098694 .105270389 .09899902 .11328125 .083999637 .11328125 .053985597 .11328125 .0289917 .08728027 .0289917 .055267335 .0289917 .009246826 .07899475-.0107421879 .12298584-.0107421879 .18899536-.0107421879 .22499085 .059280397 .22799683 .0652771 .23999024 .028274537 .27598573-.0107421879 .33599855-.0107421879 .43899537-.0107421879 .49598695 .118270877 .49598695 .14328003 .49598695 .1532898 .4869995 .1532898 .48399354 .1532898 .47499085 .1532898 .47299195 .14929199 .47099305 .14228821 .43798829 .03527832 .36999513 .011245728 .33799745 .011245728 .29899598 .011245728 .2829895 .043273927 .2829895 .07727051 .2829895 .09927368 .2889862 .121276859 .2999878 .16529846L.33399964 .30233766Z"/>
<path id="font_1_4" d="M.48599244 .38136292C.48999024 .39537049 .48999024 .39736939 .48999024 .40437318 .48999024 .42237855 .47599793 .43138124 .46099855 .43138124 .45098878 .43138124 .43499757 .42536927 .42599488 .41036988 .42399598 .405365 .41600038 .37435914 .4119873 .35635377 .40499879 .33035279 .397995 .30334474 .3919983 .27633668L.34700013 .09628296C.34298707 .08126831 .2999878 .011245728 .23399353 .011245728 .18299866 .011245728 .17199707 .055267335 .17199707 .0922699 .17199707 .1382904 .18899536 .20030213 .22299195 .28833009 .23899842 .3293457 .24299622 .3403473 .24299622 .36035157 .24299622 .405365 .21099854 .4423828 .16099549 .4423828 .06599426 .4423828 .0289917 .29733277 .0289917 .28833009 .0289917 .27833558 .038986207 .27833558 .040985109 .27833558 .050994874 .27833558 .051986696 .28033448 .056991579 .29634095 .083999637 .3903656 .12399292 .42037965 .1579895 .42037965 .1659851 .42037965 .18299866 .42037965 .18299866 .3883667 .18299866 .36335755 .17298889 .3373413 .1659851 .31834413 .12599182 .21231079 .10798645 .1552887 .10798645 .10827637 .10798645 .019256592 .17098999-.0107421879 .22999573-.0107421879 .2689972-.0107421879 .30299378 .0062561037 .33099366 .03425598 .31799317-.017745972 .30599977-.06674194 .2659912-.11973572 .23999024-.15385437 .20199585-.18309021 .1559906-.18309021 .14199829-.18309021 .09700012-.18005371 .07998657-.14074707 .09599304-.14074707 .10899353-.14074707 .12298584-.1287384 .1329956-.11973572 .14299011-.10673523 .14299011-.08773804 .14299011-.056747438 .115997318-.052734376 .10598755-.052734376 .08299255-.052734376 .049987794-.068740848 .049987794-.11773682 .049987794-.16796875 .09399414-.20507813 .1559906-.20507813 .25898744-.20507813 .3619995-.11373901 .3899994-.00074768069L.48599244 .38136292Z"/>
<path id="font_1_1" d="M.2649994 .37265016H.37799073C.34498597 .22489929 .33599855 .18196106 .33599855 .11508179 .33599855 .100097659 .33599855 .073150638 .34399415 .03919983 .35398866-.0047454836 .36499024-.0107421879 .37998963-.0107421879 .3999939-.0107421879 .42099 .007247925 .42099 .02722168 .42099 .033218385 .42099 .035202028 .4149933 .049179079 .38598634 .12106323 .38598634 .18595886 .38598634 .21391297 .38598634 .26683045 .3929901 .32073976 .4039917 .37265016H.5179901C.5309906 .37265016 .5669861 .37265016 .5669861 .406662 .5669861 .43066407 .54599 .43066407 .5269928 .43066407H.19198609C.16999817 .43066407 .13198853 .43066407 .08799744 .38365174 .052993776 .34469605 .026992798 .29878236 .026992798 .29379273 .026992798 .29278565 .026992798 .28379823 .038986207 .28379823 .04699707 .28379823 .04899597 .28779603 .054992677 .29577638 .10398865 .37265016 .1619873 .37265016 .18199158 .37265016H.23899842C.20698548 .25186158 .15299988 .13105774 .11099243 .04020691 .102996829 .025222779 .102996829 .023223877 .102996829 .016235352 .102996829-.002746582 .11898804-.0107421879 .13198853-.0107421879 .1619873-.0107421879 .16999817 .017242432 .18199158 .05418396 .19599915 .100097659 .19599915 .10209656 .20899964 .15202332L.2649994 .37265016Z"/>
<path id="font_2_5" d="M.1269989 .07699585 .23298645 .18003845C.3889923 .31811524 .44898988 .3721466 .44898988 .47216798 .44898988 .5860901 .35899354 .6660156 .23699951 .6660156 .12399292 .6660156 .049987794 .57411196 .049987794 .48516847 .049987794 .4291687 .099990848 .4291687 .102996829 .4291687 .11999512 .4291687 .15499878 .44117738 .15499878 .48217774 .15499878 .5081787 .13699341 .5341797 .101989749 .5341797 .09399414 .5341797 .09199524 .5341797 .08898926 .5331726 .11199951 .59806826 .1659851 .63500979 .22399903 .63500979 .31498719 .63500979 .35798646 .5541382 .35798646 .47216798 .35798646 .39215089 .30799867 .31311036 .25299073 .25108338L.06098938 .036987306C.049987794 .025985718 .049987794 .023986817 .049987794 0H.42099L.44898988 .17404175H.42399598C.4189911 .14402771 .4119873 .1000061 .4019928 .084991458 .394989 .07699585 .32899476 .07699585 .30699159 .07699585H.1269989Z"/>
<path id="font_2_6" d="M.2899933 .35191346C.37199403 .37893678 .42999269 .4490509 .42999269 .52809146 .42999269 .6100464 .34199525 .6660156 .24598694 .6660156 .14498902 .6660156 .068984989 .60606387 .068984989 .53009036 .068984989 .49710084 .09098816 .47808839 .11999512 .47808839 .15098572 .47808839 .17098999 .50009158 .17098999 .5290985 .17098999 .57910159 .12399292 .57910159 .10899353 .57910159 .13999939 .62802127 .20599365 .64100649 .24198914 .64100649 .2829895 .64100649 .33799745 .6190338 .33799745 .5290985 .33799745 .51708987 .33599855 .45906068 .30999757 .4149933 .27999879 .36691285 .24598694 .36390687 .22099304 .36291505 .21299744 .36190797 .18899536 .35990907 .18199158 .35990907 .17399597 .35890199 .16699219 .35791017 .16699219 .3479004 .16699219 .33691407 .17399597 .33691407 .19099427 .33691407H.23498535C.31698609 .33691407 .35398866 .2686615 .35398866 .17037964 .35398866 .034469606 .2849884 .0055389406 .24099732 .0055389406 .19799805 .0055389406 .12298584 .022491456 .08799744 .08137512 .12298584 .07637024 .1539917 .09837341 .1539917 .1363678 .1539917 .17237854 .1269989 .19238281 .09799194 .19238281 .07398987 .19238281 .041992189 .17837525 .041992189 .1343689 .041992189 .043441774 .1349945-.022460938 .24398804-.022460938 .3659973-.022460938 .45700074 .06838989 .45700074 .17037964 .45700074 .252594 .3939972 .33088685 .2899933 .35191346Z"/>
<path id="font_3_1" d="M.6589966 .23046875C.6759949 .23046875 .69400027 .23046875 .69400027 .25045777 .69400027 .27046205 .6759949 .27046205 .6589966 .27046205H.117996219C.100997928 .27046205 .08299255 .27046205 .08299255 .25045777 .08299255 .23046875 .100997928 .23046875 .117996219 .23046875H.6589966Z"/>
<path id="font_2_4" d="M.2939911 .64004519C.2939911 .66400149 .2939911 .6660156 .2709961 .6660156 .20899964 .60227969 .12098694 .60227969 .08898926 .60227969V.57128909C.10899353 .57128909 .16799927 .57128909 .21998596 .5972748V.07902527C.21998596 .042999269 .21699524 .0309906 .1269989 .0309906H.09498596V0C.12998963 .0029907227 .21699524 .0029907227 .25698854 .0029907227 .29699708 .0029907227 .38398744 .0029907227 .4189911 0V.0309906H.3869934C.29699708 .0309906 .2939911 .041992189 .2939911 .07902527V.64004519Z"/>
<path id="font_2_3" d="M.45999146 .31976319C.45999146 .39982606 .45498658 .47988893 .41999818 .5539398 .37399293 .65000918 .2919922 .6660156 .25 .6660156 .18998719 .6660156 .116989139 .64001467 .07598877 .54693606 .04399109 .47789 .038986207 .39982606 .038986207 .31976319 .038986207 .24472046 .042999269 .15464783 .083999637 .07859802 .1269989-.0024719239 .19999695-.022460938 .24899292-.022460938 .30299378-.022460938 .3789978-.0014648438 .4229889 .09359741 .45498658 .16265869 .45999146 .2407074 .45999146 .31976319M.24899292-.00047302247C.20999146-.00047302247 .15098572 .024551392 .1329956 .12062073 .12199402 .18066406 .12199402 .2727356 .12199402 .3317871 .12199402 .39582826 .12199402 .46188355 .12998963 .5159149 .14898682 .63500979 .22399903 .64401248 .24899292 .64401248 .28199769 .64401248 .34799195 .6259918 .36698915 .52693179 .3769989 .47088624 .3769989 .39482118 .3769989 .3317871 .3769989 .25672914 .3769989 .18867493 .3659973 .12461853 .35099793 .029556275 .2939911-.00047302247 .24899292-.00047302247Z"/>
<path id="font_1_2" d="M.19198609 .052993776C.19198609 .08198547 .16799927 .10598755 .13899231 .10598755 .10998535 .10598755 .085998538 .08198547 .085998538 .052993776 .085998538 .023986817 .10998535 0 .13899231 0 .16799927 0 .19198609 .023986817 .19198609 .052993776Z"/>
<path id="font_2_7" d="M.44898988 .20022583C.44898988 .3193512 .36698915 .41944886 .25898744 .41944886 .21099854 .41944886 .16799927 .40345765 .13198853 .36842347V.5637665C.1519928 .5577698 .18499756 .55078127 .21699524 .55078127 .33999635 .55078127 .4099884 .6417694 .4099884 .6547699 .4099884 .6607666 .40699769 .6657715 .3999939 .6657715 .39898683 .6657715 .39698792 .6657715 .3919983 .66278079 .37199403 .6537781 .32299806 .6337738 .2559967 .6337738 .21598816 .6337738 .16999817 .6407776 .12298584 .6617737 .114990238 .66477969 .11299133 .66477969 .11099243 .66477969 .100997928 .66477969 .100997928 .6567688 .100997928 .6407776V.34439088C.100997928 .32637025 .100997928 .31835938 .114990238 .31835938 .12199402 .31835938 .12399292 .32136537 .12799073 .32736207 .13899231 .3433838 .17599488 .39746095 .25698854 .39746095 .30899049 .39746095 .33399964 .35139466 .34199525 .33337403 .35798646 .29632569 .3600006 .25727845 .3600006 .20722962 .3600006 .17222595 .3600006 .11222839 .33599855 .07035828 .31199647 .031463624 .2749939 .0055389406 .22898865 .0055389406 .1559906 .0055389406 .09899902 .058380128 .08198547 .11723328 .084991458 .1162262 .08799744 .115234378 .09899902 .115234378 .13198853 .115234378 .14898682 .14022827 .14898682 .16423035 .14898682 .18823242 .13198853 .21322632 .09899902 .21322632 .084991458 .21322632 .049987794 .20622254 .049987794 .16023255 .049987794 .07434082 .11898804-.022460938 .23098755-.022460938 .34700013-.022460938 .44898988 .073349 .44898988 .20022583Z"/>
<path id="font_2_8" d="M.68699648 .32714845C.70199587 .32714845 .72099307 .32714845 .72099307 .34713746 .72099307 .36714173 .70199587 .36714173 .6879883 .36714173H.08898926C.07499695 .36714173 .055999757 .36714173 .055999757 .34713746 .055999757 .32714845 .07499695 .32714845 .08999634 .32714845H.68699648M.6879883 .13284302C.70199587 .13284302 .72099307 .13284302 .72099307 .15284729 .72099307 .17285156 .70199587 .17285156 .68699648 .17285156H.08999634C.07499695 .17285156 .055999757 .17285156 .055999757 .15284729 .055999757 .13284302 .07499695 .13284302 .08898926 .13284302H.6879883Z"/>
<path id="font_2_11" d="M.20799256 .19424439C.22999573 .19024658 .31199647 .17424011 .31199647 .102249149 .31199647 .051254274 .2769928 .011245728 .19898987 .011245728 .114990238 .011245728 .07899475 .06825256 .05999756 .15324402 .056991579 .1662445 .055999757 .17024231 .04598999 .17024231 .032989503 .17024231 .032989503 .16323853 .032989503 .14524842V.013244629C.032989503-.003753662 .032989503-.0107421879 .04399109-.0107421879 .04899597-.0107421879 .049987794-.009750366 .068984989 .009246826 .070999149 .011245728 .070999149 .013244629 .08898926 .03224182 .1329956-.009750366 .17799378-.0107421879 .19898987-.0107421879 .31399537-.0107421879 .3600006 .056243898 .3600006 .12825012 .3600006 .1812439 .32998658 .21124268 .31799317 .22323609 .2849884 .25523377 .24598694 .26324464 .20399475 .27124024 .147995 .28224183 .08099365 .2952423 .08099365 .35324098 .08099365 .38822938 .10699463 .42922975 .19299317 .42922975 .30299378 .42922975 .30799867 .3392334 .30999757 .3082428 .31098939 .2992401 .31999208 .2992401 .32199098 .2992401 .33499146 .2992401 .33499146 .304245 .33499146 .3232422V.4242401C.33499146 .4412384 .33499146 .4482422 .32398988 .4482422 .31900025 .4482422 .31698609 .4482422 .3039856 .43623353 .30099488 .43223573 .29100038 .42323304 .2869873 .42022706 .24899292 .4482422 .20799256 .4482422 .19299317 .4482422 .070999149 .4482422 .032989503 .38124085 .032989503 .3252411 .032989503 .29023744 .04899597 .26223756 .07598877 .24023438 .10798645 .21424866 .13598633 .2082367 .20799256 .19424439Z"/>
<path id="font_2_9" d="M.1769867 .4423828 .036987306 .43138124V.40037538C.101989749 .40037538 .11099243 .3943634 .11099243 .34532167V.076034549C.11099243 .0309906 .099990848 .0309906 .032989503 .0309906V0C.06498718 .0009918213 .11898804 .0029907227 .14299011 .0029907227 .17799378 .0029907227 .21299744 .0009918213 .24699402 0V.0309906C.18099976 .0309906 .1769867 .035995485 .1769867 .075042728V.4423828M.18099976 .6159363C.18099976 .64793398 .1559906 .6689453 .12799073 .6689453 .09700012 .6689453 .07499695 .64193728 .07499695 .6159363 .07499695 .5889435 .09700012 .5629425 .12799073 .5629425 .1559906 .5629425 .18099976 .5839386 .18099976 .6159363Z"/>
<path id="font_2_10" d="M.10998535 .34429933V.076034549C.10998535 .0309906 .09899902 .0309906 .03199768 .0309906V0C.066986087 .0009918213 .117996219 .0029907227 .14498902 .0029907227 .17098999 .0029907227 .22299195 .0009918213 .25698854 0V.0309906C.18998719 .0309906 .1789856 .0309906 .1789856 .076034549V.2602234C.1789856 .36431886 .25 .42037965 .31399537 .42037965 .3769989 .42037965 .3880005 .36631776 .3880005 .30926515V.076034549C.3880005 .0309906 .3769989 .0309906 .30999757 .0309906V0C.34498597 .0009918213 .3959961 .0029907227 .4229889 .0029907227 .44898988 .0029907227 .5009918 .0009918213 .5349884 0V.0309906C.48298646 .0309906 .45799256 .0309906 .45700074 .061019899V.25221253C.45700074 .3383026 .45700074 .36932374 .42599488 .405365 .4119873 .42237855 .3789978 .4423828 .32099916 .4423828 .24798584 .4423828 .20098877 .39935304 .17298889 .33729554V.4423828L.03199768 .43138124V.40037538C.101989749 .4003601 .10998535 .39335633 .10998535 .34429933Z"/>
<path id="font_2_1" d="M.33099366-.2400055C.33099366-.23701477 .33099366-.23500061 .31399537-.21800232 .18899536-.0920105 .15699768 .09700012 .15699768 .25 .15699768 .42399598 .19499207 .59799197 .31799317 .72299197 .33099366 .73498538 .33099366 .7369995 .33099366 .73999026 .33099366 .746994 .32699586 .75 .32099916 .75 .31098939 .75 .22099304 .6819916 .1619873 .5549927 .11099243 .44499208 .09899902 .33399964 .09899902 .25 .09899902 .17199707 .10998535 .050994874 .16499329-.06201172 .22499085-.18501282 .31098939-.25 .32099916-.25 .32699586-.25 .33099366-.24700928 .33099366-.2400055Z"/>
<path id="font_2_2" d="M.2889862 .25C.2889862 .32798768 .27799989 .44898988 .22299195 .56199648 .16299439 .68499758 .07699585 .75 .066986087 .75 .06098938 .75 .056991579 .74598696 .056991579 .73999026 .056991579 .7369995 .056991579 .73498538 .07598877 .71699526 .17399597 .6179962 .23098755 .45899964 .23098755 .25 .23098755 .07899475 .19400025-.09700012 .069992069-.2230072 .056991579-.23500061 .056991579-.23701477 .056991579-.2400055 .056991579-.2460022 .06098938-.25 .066986087-.25 .07699585-.25 .16699219-.18200684 .22599793-.055007936 .2769928 .054992677 .2889862 .16600037 .2889862 .25Z"/>
<path id="font_4_104" d="M.68499758 .45214845 .66600039 .6767578H.054992677L.035995485 .45214845H.06098938C.07499695 .6128235 .08999634 .64575198 .24099732 .64575198 .25898744 .64575198 .2849884 .64575198 .29499818 .64375308 .31599427 .6397705 .31599427 .6287842 .31599427 .60583499V.07901001C.31599427 .04499817 .31599427 .0309906 .21099854 .0309906H.17098999V0C.21199036 .0029907227 .31399537 .0029907227 .3600006 .0029907227 .4059906 .0029907227 .5089874 .0029907227 .5499878 0V.0309906H.5099945C.40499879 .0309906 .40499879 .04499817 .40499879 .07901001V.60583499C.40499879 .62579348 .40499879 .6397705 .4229889 .64375308 .43399049 .64575198 .46099855 .64575198 .47999574 .64575198 .6309967 .64575198 .6459961 .6128235 .6599884 .45214845H.68499758Z"/>
<path id="font_4_63" d="M.5349884 0V.0309906C.48298646 .0309906 .45799256 .0309906 .45700074 .061019899V.25221253C.45700074 .3383026 .45700074 .36932374 .42599488 .405365 .4119873 .42237855 .3789978 .4423828 .32099916 .4423828 .23699951 .4423828 .19299317 .38233949 .1769867 .34629823H.17599488V.69433596L.03199768 .6826172V.6516113C.101989749 .6516113 .10998535 .64463809 .10998535 .59580996V.076034549C.10998535 .0309906 .09899902 .0309906 .03199768 .0309906V0L.14498902 .0029907227 .25698854 0V.0309906C.18998719 .0309906 .1789856 .0309906 .1789856 .076034549V.2602234C.1789856 .36431886 .25 .42037965 .31399537 .42037965 .3769989 .42037965 .3880005 .36631776 .3880005 .30926515V.076034549C.3880005 .0309906 .3769989 .0309906 .30999757 .0309906V0L.4229889 .0029907227 .5349884 0Z"/>
<path id="font_4_50" d="M.4149933 .11933899C.4149933 .12934876 .40699769 .13134766 .4019928 .13134766 .3929901 .13134766 .3909912 .12535095 .3889923 .11734009 .35398866 .014251709 .2639923 .014251709 .2539978 .014251709 .20399475 .014251709 .1639862 .044281007 .14099121 .08131409 .11099243 .12934876 .11099243 .19540406 .11099243 .23144531H.3899994C.4119873 .23144531 .4149933 .23144531 .4149933 .2524414 .4149933 .35131837 .36099244 .4482422 .23599243 .4482422 .11999512 .4482422 .027999878 .34532167 .027999878 .22042847 .027999878 .08631897 .1329956-.0107421879 .24798584-.0107421879 .36999513-.0107421879 .4149933 .10032654 .4149933 .11933899M.34899903 .2524414H.11199951C.117996219 .40126039 .20199585 .426239 .23599243 .426239 .33898927 .426239 .34899903 .2913971 .34899903 .2524414Z"/>
<path id="font_4_109" d="M.5349884 0V.0309906C.46499635 .0309906 .45700074 .037994386 .45700074 .08705139V.4423828L.30999757 .43066407V.3996582C.37998963 .3996582 .3880005 .39266969 .3880005 .34373475V.16601563C.3880005 .07910156 .33999635 .011245728 .2669983 .011245728 .18299866 .011245728 .1789856 .058135988 .1789856 .11009216V.4423828L.03199768 .43066407V.3996582C.10998535 .3996582 .10998535 .39666749 .10998535 .3078003V.15802002C.10998535 .080093387 .10998535-.0107421879 .2619934-.0107421879 .31799317-.0107421879 .3619995 .017242432 .3909912 .07910156V-.0107421879L.5349884 0Z"/>
<path id="font_4_77" d="M.5349884 0V.0309906C.48298646 .0309906 .45799256 .0309906 .45700074 .061019899V.25221253C.45700074 .3383026 .45700074 .36932374 .42599488 .405365 .4119873 .42237855 .3789978 .4423828 .32099916 .4423828 .24798584 .4423828 .20098877 .39935304 .17298889 .33729554V.4423828L.03199768 .43066407V.3996582C.101989749 .3996582 .10998535 .39266969 .10998535 .34370423V.07595825C.10998535 .0309906 .09899902 .0309906 .03199768 .0309906V0L.14498902 .0029907227 .25698854 0V.0309906C.18998719 .0309906 .1789856 .0309906 .1789856 .07595825V.25978089C.1789856 .36431886 .25 .42037965 .31399537 .42037965 .3769989 .42037965 .3880005 .36631776 .3880005 .30926515V.076034549C.3880005 .0309906 .3769989 .0309906 .30999757 .0309906V0L.4229889 .0029907227 .5349884 0Z"/>
<path id="font_4_66" d="M.24699402 0V.0309906C.18099976 .0309906 .1769867 .035995485 .1769867 .075042728V.4423828L.036987306 .43066407V.3996582C.101989749 .3996582 .11099243 .3936615 .11099243 .3447113V.07595825C.11099243 .0309906 .099990848 .0309906 .032989503 .0309906V0L.14299011 .0029907227C.17799378 .0029907227 .21299744 .0009918213 .24699402 0M.19198609 .603775C.19198609 .6307678 .16899109 .6567688 .13899231 .6567688 .10499573 .6567688 .084991458 .6287689 .084991458 .603775 .084991458 .57676699 .10798645 .55078127 .13798523 .55078127 .17199707 .55078127 .19198609 .5787811 .19198609 .603775Z"/>
<path id="font_4_105" d="M.33198548 .12385559V.18066406H.30699159V.12585449C.30699159 .052108766 .2769928 .014251709 .23999024 .014251709 .17298889 .014251709 .17298889 .10491943 .17298889 .12187195V.3996582H.31599427V.43066407H.17298889V.6142578H.147995C.14698792 .5324249 .116989139 .42565919 .018997193 .42166139V.3996582H.10398865V.12408447C.10398865 .0012512207 .19699097-.0107421879 .23298645-.0107421879 .3039856-.0107421879 .33198548 .060180665 .33198548 .12408447V.12385559Z"/>
<path id="font_4_43" d="M.4149933 .119140628C.4149933 .12911988 .40499879 .12911988 .4019928 .12911988 .3929901 .12911988 .3909912 .12512207 .3889923 .119140628 .3600006 .026229859 .29499818 .014251709 .2579956 .014251709 .20498657 .014251709 .116989139 .0572052 .116989139 .21801758 .116989139 .38093568 .19898987 .42323304 .2519989 .42323304 .26098634 .42323304 .32398988 .42222596 .35899354 .38594056 .31799317 .38293458 .31199647 .3529358 .31199647 .3399353 .31199647 .31393434 .32998658 .2939453 .35798646 .2939453 .38398744 .2939453 .4039917 .3109436 .4039917 .34094239 .4039917 .40911866 .32798768 .4482422 .25099183 .4482422 .12599182 .4482422 .033996583 .3399353 .033996583 .21601868 .033996583 .08816528 .1329956-.0107421879 .24899292-.0107421879 .3829956-.0107421879 .4149933 .10914612 .4149933 .119140628Z"/>
<path id="font_4_96" d="M.3639984 .38137818C.3639984 .41337586 .33299256 .4423828 .2899933 .4423828 .21699524 .4423828 .18099976 .37538148 .16699219 .3323822V.4423828L.027999878 .43066407V.3996582C.09799194 .3996582 .10598755 .39266969 .10598755 .34370423V.07595825C.10598755 .0309906 .09498596 .0309906 .027999878 .0309906V0L.14199829 .0029907227C.18199158 .0029907227 .22898865 .0029907227 .2689972 0V.0309906H.24798584C.17399597 .0309906 .17199707 .04197693 .17199707 .07795715V.23181153C.17199707 .33137513 .21398926 .42037965 .2899933 .42037965 .29699708 .42037965 .29899598 .42037965 .30099488 .41937257 .2979889 .41838075 .27799989 .40637208 .27799989 .3803711 .27799989 .35237123 .29899598 .33737184 .32099916 .33737184 .33898927 .33737184 .3639984 .3493805 .3639984 .38137818Z"/>
<path id="font_4_72" d="M.25498963 0V.0309906C.18798828 .0309906 .1769867 .0309906 .1769867 .07601929V.69433596L.032989503 .6826172V.6516113C.102996829 .6516113 .11099243 .64460757 .11099243 .5956421V.07595825C.11099243 .0309906 .099990848 .0309906 .032989503 .0309906V0L.14399719 .0029907227 .25498963 0Z"/>
<path id="font_4_82" d="M.4189911 0V.0309906H.3869934C.29699708 .0309906 .2939911 .041992189 .2939911 .07902527V.64012148C.2939911 .6640167 .2939911 .6660156 .2709961 .6660156 .20899964 .60227969 .12098694 .60227969 .08898926 .60227969V.57128909C.10899353 .57128909 .16799927 .57128909 .21998596 .5972748V.07902527C.21998596 .042999269 .21699524 .0309906 .1269989 .0309906H.09498596V0C.12998963 .0029907227 .21699524 .0029907227 .25698854 .0029907227 .29699708 .0029907227 .38398744 .0029907227 .4189911 0Z"/>
</defs>
<path transform="matrix(1,0,0,-1.00005,20.501,52.969995)" stroke-width=".3985" stroke-linecap="butt" stroke-miterlimit="10" stroke-linejoin="miter" fill="none" stroke="#00aeef" d="M0-28.34679H178.1079M0-14.17339H178.1079M0 0H178.1079M0 14.17339H178.1079M0 28.34679H178.1079M0-28.3468V28.3468M14.84209-28.3468V28.3468M29.68419-28.3468V28.3468M44.52629-28.3468V28.3468M59.3684-28.3468V28.3468M74.2105-28.3468V28.3468M89.0526-28.3468V28.3468M103.8947-28.3468V28.3468M118.7368-28.3468V28.3468M133.5789-28.3468V28.3468M148.421-28.3468V28.3468M163.2631-28.3468V28.3468M178.10521-28.3468V28.3468M178.1079 28.3468"/>
<path transform="matrix(1,0,0,-1.00005,20.501,52.969995)" stroke-width=".79701" stroke-linecap="butt" stroke-miterlimit="10" stroke-linejoin="miter" fill="none" stroke="#000000" d="M0 0H185.6545"/>
<path transform="matrix(1,0,0,-1.00005,206.15549,52.969995)" d="M1.0361 0C-.25902 .25902-1.55415 .77707-3.1083 1.68365-1.55415 .51805-1.55415-.51805-3.1083-1.68365-1.55415-.77707-.25902-.25902 1.0361 0Z"/>
<path transform="matrix(1,0,0,-1.00005,206.15549,52.969995)" stroke-width=".79701" stroke-linecap="butt" stroke-linejoin="round" fill="none" stroke="#000000" d="M1.0361 0C-.25902 .25902-1.55415 .77707-3.1083 1.68365-1.55415 .51805-1.55415-.51805-3.1083-1.68365-1.55415-.77707-.25902-.25902 1.0361 0Z"/>
<use data-text="x" xlink:href="#font_1_3" transform="matrix(9.9626,0,0,-9.963098,211.30899,55.1151)"/>
<path transform="matrix(1,0,0,-1.00005,20.501,52.969995)" stroke-width=".79701" stroke-linecap="butt" stroke-miterlimit="10" stroke-linejoin="miter" fill="none" stroke="#000000" d="M0-31.18166V39.66815"/>
<path transform="matrix(0,-1.00005,-1,-0,20.501,13.299862)" d="M1.0361 0C-.25902 .25902-1.55415 .77707-3.1083 1.68365-1.55415 .51805-1.55415-.51805-3.1083-1.68365-1.55415-.77707-.25902-.25902 1.0361 0Z"/>
<path transform="matrix(0,-1.00005,-1,-0,20.501,13.299862)" stroke-width=".79701" stroke-linecap="butt" stroke-linejoin="round" fill="none" stroke="#000000" d="M1.0361 0C-.25902 .25902-1.55415 .77707-3.1083 1.68365-1.55415 .51805-1.55415-.51805-3.1083-1.68365-1.55415-.77707-.25902-.25902 1.0361 0Z"/>
<use data-text="y" xlink:href="#font_1_4" transform="matrix(9.9626,0,0,-9.963098,17.879998,6.20866)"/>
<path transform="matrix(1,0,0,-1.00005,20.501,52.969995)" stroke-width=".79701" stroke-linecap="butt" stroke-miterlimit="10" stroke-linejoin="miter" fill="none" stroke="#000000" d="M44.52673 2.83484V-2.83441"/>
<path transform="matrix(1,0,0,-1.00005,20.501,52.969995)" d="M39.31668-25.08139H49.73677V-5.225481H39.31668Z" fill="#ffffff"/>
<use data-text="&#x03c0;" xlink:href="#font_1_1" transform="matrix(9.9626,0,0,-9.963098,62.009,63.48152)"/>
<path transform="matrix(1,0,0,-1.00005,-44.687,30.24686)" stroke-width=".3985" stroke-linecap="butt" stroke-miterlimit="10" stroke-linejoin="miter" fill="none" stroke="#000000" d="M106.696-37.483H112.733"/>
<use data-text="2" xlink:href="#font_2_5" transform="matrix(9.9626,0,0,-9.963098,62.537,77.0562)"/>
<path transform="matrix(1,0,0,-1.00005,20.501,52.969995)" stroke-width=".79701" stroke-linecap="butt" stroke-miterlimit="10" stroke-linejoin="miter" fill="none" stroke="#000000" d="M89.05394 2.83484V-2.83441"/>
<path transform="matrix(1,0,0,-1.00005,20.501,52.969995)" d="M85.03941-13.50009H93.06845V-7.2180297H85.03941Z" fill="#ffffff"/>
<use data-text="&#x03c0;" xlink:href="#font_1_1" transform="matrix(9.9626,0,0,-9.963098,106.537,65.47462)"/>
<path transform="matrix(1,0,0,-1.00005,20.501,52.969995)" stroke-width=".79701" stroke-linecap="butt" stroke-miterlimit="10" stroke-linejoin="miter" fill="none" stroke="#000000" d="M133.58069 2.83484V-2.83441"/>
<path transform="matrix(1,0,0,-1.00005,20.501,52.969995)" d="M125.87994-27.21234H141.2814V-5.225479H125.87994Z" fill="#ffffff"/>
<use data-text="3" xlink:href="#font_2_6" transform="matrix(9.9626,0,0,-9.963098,148.57199,65.612628)"/>
<use data-text="&#x03c0;" xlink:href="#font_1_1" transform="matrix(9.9626,0,0,-9.963098,153.55301,65.612628)"/>
<path transform="matrix(1,0,0,-1.00005,41.876,32.377969)" stroke-width=".3985" stroke-linecap="butt" stroke-miterlimit="10" stroke-linejoin="miter" fill="none" stroke="#000000" d="M106.696-37.483H117.714"/>
<use data-text="2" xlink:href="#font_2_5" transform="matrix(9.9626,0,0,-9.963098,151.59,79.1873)"/>
<path transform="matrix(1,0,0,-1.00005,20.501,52.969995)" stroke-width=".79701" stroke-linecap="butt" stroke-miterlimit="10" stroke-linejoin="miter" fill="none" stroke="#000000" d="M178.1079 2.83484V-2.83441"/>
<path transform="matrix(1,0,0,-1.00005,20.501,52.969995)" d="M171.60268-15.63101H184.6131V-7.21803H171.60268Z" fill="#ffffff"/>
<use data-text="2" xlink:href="#font_2_5" transform="matrix(9.9626,0,0,-9.963098,193.1,67.60573)"/>
<use data-text="&#x03c0;" xlink:href="#font_1_1" transform="matrix(9.9626,0,0,-9.963098,198.081,67.60573)"/>
<path transform="matrix(1,0,0,-1.00005,20.501,52.969995)" stroke-width=".79701" stroke-linecap="butt" stroke-miterlimit="10" stroke-linejoin="miter" fill="none" stroke="#000000" d="M2.83484-28.3468H-2.83441"/>
<use data-text="&#x2212;" xlink:href="#font_3_1" transform="matrix(9.9626,0,0,-9.963098,1.2170029,84.113559)"/>
<use data-text="1" xlink:href="#font_2_4" transform="matrix(9.9626,0,0,-9.963098,8.965004,84.113559)"/>
<path transform="matrix(1,0,0,-1.00005,20.501,52.969995)" stroke-width=".79701" stroke-linecap="butt" stroke-miterlimit="10" stroke-linejoin="miter" fill="none" stroke="#000000" d="M2.83484 14.17339H-2.83441"/>
<use data-text="0" xlink:href="#font_2_3" transform="matrix(9.9626,0,0,-9.963098,1.2170029,42.006448)"/>
<use data-text="." xlink:href="#font_1_2" transform="matrix(9.9626,0,0,-9.963098,6.1980059,42.006448)"/>
<use data-text="5" xlink:href="#font_2_7" transform="matrix(9.9626,0,0,-9.963098,8.965004,42.006448)"/>
<path transform="matrix(1,0,0,-1.00005,20.501,52.969995)" stroke-width=".79701" stroke-linecap="butt" stroke-miterlimit="10" stroke-linejoin="miter" fill="none" stroke="#000000" d="M2.83484 28.3468H-2.83441"/>
<use data-text="1" xlink:href="#font_2_4" transform="matrix(9.9626,0,0,-9.963098,8.965996,27.83174)"/>
<path transform="matrix(1,0,0,-1.00005,20.501,52.969995)" stroke-width=".79701" stroke-linecap="butt" stroke-miterlimit="10" stroke-linejoin="miter" fill="none" stroke="#ff0000" d="M0 0C0 0 2.01038 2.01016 2.7825 2.77731 3.55463 3.54446 4.7929 4.77303 5.56502 5.52911 6.33713 6.28522 7.57541 7.48923 8.34753 8.22687 9.11966 8.9645 10.35793 10.13327 11.13005 10.84544 11.90218 11.55763 13.14044 12.67989 13.91257 13.35979 14.6847 14.03967 15.92296 15.10472 16.69508 15.74567 17.46721 16.38661 18.70547 17.38324 19.4776 17.9793 20.24973 18.57535 21.48799 19.49648 22.26012 20.04163 23.03224 20.58679 24.27051 21.41948 25.04263 21.90846 25.81476 22.39745 27.05302 23.13745 27.82515 23.56595 28.59727 23.99445 29.83554 24.6333 30.60767 24.99678 31.37979 25.36028 32.61806 25.89076 33.39018 26.18584 34.16231 26.48093 35.40057 26.89966 36.1727 27.12358 36.94482 27.34749 38.18309 27.64919 38.95522 27.79964 39.72734 27.95009 40.96562 28.13211 41.73773 28.20795 42.50986 28.28378 43.74812 28.34619 44.52025 28.34636 45.29237 28.34653 46.53065 28.28468 47.30276 28.20926 48.07489 28.13382 49.31316 27.95276 50.08528 27.80266 50.8574 27.65257 52.09569 27.35107 52.86781 27.12747 53.63992 26.90385 54.87819 26.48575 55.65031 26.19102 56.42244 25.8963 57.66072 25.36641 58.43285 25.00328 59.20497 24.64015 60.44322 24.00186 61.21535 23.57373 61.98747 23.1456 63.22575 22.40636 63.99788 21.91756 64.77 21.42874 66.00826 20.59563 66.78038 20.05072 67.5525 19.5058 68.79079 18.58586 69.56291 17.99011 70.33504 17.39435 71.57329 16.39767 72.34541 15.7569 73.11754 15.11613 74.35582 14.0516 75.12794 13.3719 75.90007 12.69218 77.13832 11.56999 77.91045 10.85799 78.68257 10.146 79.92085 8.97784 80.69298 8.24026 81.4651 7.5027 82.70335 6.2982 83.47548 5.5421 84.2476 4.786 85.48589 3.55782 86.25801 2.79073 87.03014 2.02364 88.2684 .78409 89.04051 .0134 89.81264-.75728 91.05092-1.99681 91.82304-2.76392 92.59517-3.531 93.83344-4.75911 94.60555-5.51527 95.37767-6.27144 96.61595-7.47615 97.38808-8.21388 98.1602-8.95161 99.39847-10.12012 100.1706-10.83246 100.9427-11.54482 102.18098-12.66797 102.95311-13.3481 103.72523-14.02824 104.9635-15.09325 105.73563-15.73442 106.50774-16.3756 107.74602-17.37311 108.51814-17.96935 109.29027-18.56558 110.52853-19.48628 111.30066-20.0317 112.07278-20.57709 113.31105-21.4109 114.08318-21.90025 114.8553-22.3896 116.09357-23.12988 116.86569-23.55861 117.63782-23.98734 118.87608-24.6265 119.64821-24.9903 120.42033-25.3541 121.6586-25.88521 122.43073-26.18065 123.20285-26.47607 124.44112-26.89542 125.21324-27.11969 125.98537-27.34395 127.22363-27.64618 127.99576-27.79704 128.76789-27.9479 130.00615-28.13087 130.77828-28.20708 131.5504-28.2833 132.78867-28.34589 133.56079-28.34636 134.33292-28.34683 135.5712-28.28561 136.3433-28.21054 137.11544-28.13548 138.3537-27.95499 139.12583-27.80527 139.89795-27.65553 141.13623-27.35466 141.90834-27.13136 142.68047-26.90805 143.91873-26.4902 144.69086-26.19579 145.46298-25.90137 146.70127-25.37212 147.47339-25.00932 148.2455-24.64655 149.48377-24.00885 150.25589-23.58109 151.02802-23.15332 152.2663-22.41464 153.03842-21.92621 153.81053-21.43776 155.0488-20.60529 155.82093-20.06065 156.59305-19.51604 157.83133-18.59648 158.60346-18.00092 159.37558-17.40535 160.61383-16.40874 161.38596-15.76816 162.15808-15.12758 163.39636-14.06354 164.16849-13.38402 164.94062-12.70448 166.17887-11.58247 166.95099-10.87053 167.72312-10.1586 168.9614-8.99026 169.73352-8.2528 170.50565-7.51537 171.7439-6.3115 172.51602-5.55551 173.28815-4.79953 174.52643-3.57123 175.29856-2.80414 176.07068-2.03705 178.08106-.02681 178.08106-.02681"/>
<path transform="matrix(1,0,0,-1.00005,20.501,52.969995)" stroke-width="1.19553" stroke-linecap="butt" stroke-dasharray="2.98883,2.98883" stroke-miterlimit="10" stroke-linejoin="miter" fill="none" stroke="#a9a9a9" d="M0 14.17339H178.1079"/>
<use data-text="y" xlink:href="#font_1_4" transform="matrix(9.9626,0,0,-9.963098,87.455,97.983249)" fill="#0000ff"/>
<use data-text="=" xlink:href="#font_2_8" transform="matrix(9.9626,0,0,-9.963098,95.464008,97.983249)" fill="#0000ff"/>
<use data-text="s" xlink:href="#font_2_11" transform="matrix(9.9626,0,0,-9.963098,105.96459,97.983249)" fill="#0000ff"/>
<use data-text="i" xlink:href="#font_2_9" transform="matrix(9.9626,0,0,-9.963098,109.889858,97.983249)" fill="#0000ff"/>
<use data-text="n" xlink:href="#font_2_10" transform="matrix(9.9626,0,0,-9.963098,112.6495,97.983249)" fill="#0000ff"/>
<use data-text="(" xlink:href="#font_2_1" transform="matrix(9.9626,0,0,-9.963098,118.178737,97.983249)" fill="#0000ff"/>
<use data-text="x" xlink:href="#font_1_3" transform="matrix(9.9626,0,0,-9.963098,122.086009,97.983249)" fill="#0000ff"/>
<use data-text=")" xlink:href="#font_2_2" transform="matrix(9.9626,0,0,-9.963098,127.78001,97.983249)" fill="#0000ff"/>
<path transform="matrix(1,0,0,-1.00005,20.501,52.969995)" d="M17.10988 14.17339C17.10988 15.42587 16.09457 16.44118 14.84209 16.44118 13.58961 16.44118 12.57431 15.42587 12.57431 14.17339 12.57431 12.92091 13.58961 11.90561 14.84209 11.90561 16.09457 11.90561 17.10988 12.92091 17.10988 14.17339ZM14.84209 14.17339" fill="#0000ff"/>
<path transform="matrix(1,0,0,-1.00005,20.501,52.969995)" stroke-width=".3985" stroke-linecap="butt" stroke-miterlimit="10" stroke-linejoin="miter" fill="none" stroke="#0000ff" d="M17.10988 14.17339C17.10988 15.42587 16.09457 16.44118 14.84209 16.44118 13.58961 16.44118 12.57431 15.42587 12.57431 14.17339 12.57431 12.92091 13.58961 11.90561 14.84209 11.90561 16.09457 11.90561 17.10988 12.92091 17.10988 14.17339ZM14.84209 14.17339"/>
<path transform="matrix(1,0,0,-1.00005,20.501,52.969995)" d="M76.47919 14.17339C76.47919 15.42587 75.46388 16.44118 74.2114 16.44118 72.95892 16.44118 71.94362 15.42587 71.94362 14.17339 71.94362 12.92091 72.95892 11.90561 74.2114 11.90561 75.46388 11.90561 76.47919 12.92091 76.47919 14.17339ZM74.2114 14.17339" fill="#00ff00"/>
<path transform="matrix(1,0,0,-1.00005,20.501,52.969995)" stroke-width=".3985" stroke-linecap="butt" stroke-miterlimit="10" stroke-linejoin="miter" fill="none" stroke="#00ff00" d="M76.47919 14.17339C76.47919 15.42587 75.46388 16.44118 74.2114 16.44118 72.95892 16.44118 71.94362 15.42587 71.94362 14.17339 71.94362 12.92091 72.95892 11.90561 74.2114 11.90561 75.46388 11.90561 76.47919 12.92091 76.47919 14.17339ZM74.2114 14.17339"/>
<path transform="matrix(1,0,0,-1.00005,20.501,52.969995)" stroke-width=".79701" stroke-linecap="butt" stroke-miterlimit="10" stroke-linejoin="miter" fill="none" stroke="#000000" d="M223.93962 0H293.372"/>
<path transform="matrix(1,0,0,-1.00005,313.87303,52.969995)" d="M1.0361 0C-.25902 .25902-1.55415 .77707-3.1083 1.68365-1.55415 .51805-1.55415-.51805-3.1083-1.68365-1.55415-.77707-.25902-.25902 1.0361 0Z"/>
<path transform="matrix(1,0,0,-1.00005,313.87303,52.969995)" stroke-width=".79701" stroke-linecap="butt" stroke-linejoin="round" fill="none" stroke="#000000" d="M1.0361 0C-.25902 .25902-1.55415 .77707-3.1083 1.68365-1.55415 .51805-1.55415-.51805-3.1083-1.68365-1.55415-.77707-.25902-.25902 1.0361 0Z"/>
<path transform="matrix(1,0,0,-1.00005,20.501,52.969995)" stroke-width=".79701" stroke-linecap="butt" stroke-miterlimit="10" stroke-linejoin="miter" fill="none" stroke="#000000" d="M255.12128-31.18166V39.66817"/>
<path transform="matrix(0,-1.00005,-1,-0,275.62229,13.299843)" d="M1.0361 0C-.25902 .25902-1.55415 .77707-3.1083 1.68365-1.55415 .51805-1.55415-.51805-3.1083-1.68365-1.55415-.77707-.25902-.25902 1.0361 0Z"/>
<path transform="matrix(0,-1.00005,-1,-0,275.62229,13.299843)" stroke-width=".79701" stroke-linecap="butt" stroke-linejoin="round" fill="none" stroke="#000000" d="M1.0361 0C-.25902 .25902-1.55415 .77707-3.1083 1.68365-1.55415 .51805-1.55415-.51805-3.1083-1.68365-1.55415-.77707-.25902-.25902 1.0361 0Z"/>
<path transform="matrix(1,0,0,-1.00005,20.501,52.969995)" stroke-width=".79701" stroke-linecap="butt" stroke-miterlimit="10" stroke-linejoin="miter" fill="none" stroke="#ff0000" d="M283.4681 0C283.4681 15.6557 270.777 28.3468 255.12128 28.3468 239.46558 28.3468 226.77448 15.6557 226.77448 0 226.77448-15.6557 239.46558-28.3468 255.12128-28.3468 270.777-28.3468 283.4681-15.6557 283.4681 0ZM255.12128 0"/>
<path transform="matrix(1,0,0,-1.00005,20.501,52.969995)" stroke-width=".79701" stroke-linecap="butt" stroke-miterlimit="10" stroke-linejoin="miter" fill="none" stroke="#929292" d="M255.12128 0 279.6704 14.17339"/>
<path transform="matrix(1,0,0,-1.00005,20.501,52.969995)" stroke-width=".79701" stroke-linecap="butt" stroke-miterlimit="10" stroke-linejoin="miter" fill="none" stroke="#929292" d="M255.12128 0 230.57218 14.17339"/>
<path transform="matrix(1,0,0,-1.00005,20.501,52.969995)" stroke-width=".79701" stroke-linecap="butt" stroke-miterlimit="10" stroke-linejoin="miter" fill="none" stroke="#b5b5b5" d="M269.29469 0C269.29469 2.48729 268.63938 4.93265 268.11305 5.84425"/>
<path transform="matrix(-.49995,-.86608329,-.86604,.49997498,288.61408,47.12546)" d="M1.0361 0C-.25902 .25902-1.55415 .77707-3.1083 1.68365-1.55415 .51805-1.55415-.51805-3.1083-1.68365-1.55415-.77707-.25902-.25902 1.0361 0Z" fill="#b5b5b5"/>
<path transform="matrix(-.49995,-.86608329,-.86604,.49997498,288.61408,47.12546)" stroke-width=".79701" stroke-linecap="butt" stroke-linejoin="round" fill="none" stroke="#b5b5b5" d="M1.0361 0C-.25902 .25902-1.55415 .77707-3.1083 1.68365-1.55415 .51805-1.55415-.51805-3.1083-1.68365-1.55415-.77707-.25902-.25902 1.0361 0Z"/>
<path transform="matrix(1,0,0,-1.00005,20.501,52.969995)" stroke-width=".79701" stroke-linecap="butt" stroke-miterlimit="10" stroke-linejoin="miter" fill="none" stroke="#b5b5b5" d="M263.6254 0C263.6254 4.69675 259.81806 8.50412 255.12128 8.50412 252.0834 8.50412 249.27535 6.88284 248.47374 5.49446"/>
<path transform="matrix(-.49997,.86607328,.86603,.49999497,268.97477,47.475259)" d="M1.0361 0C-.25902 .25902-1.55415 .77707-3.1083 1.68365-1.55415 .51805-1.55415-.51805-3.1083-1.68365-1.55415-.77707-.25902-.25902 1.0361 0Z" fill="#b5b5b5"/>
<path transform="matrix(-.49997,.86607328,.86603,.49999497,268.97477,47.475259)" stroke-width=".79701" stroke-linecap="butt" stroke-linejoin="round" fill="none" stroke="#b5b5b5" d="M1.0361 0C-.25902 .25902-1.55415 .77707-3.1083 1.68365-1.55415 .51805-1.55415-.51805-3.1083-1.68365-1.55415-.77707-.25902-.25902 1.0361 0Z"/>
<use data-text="T" xlink:href="#font_4_104" transform="matrix(9.9626,0,0,-9.963098,243.50699,98.89429)" fill="#0000ff"/>
<use data-text="h" xlink:href="#font_4_63" transform="matrix(9.9626,0,0,-9.963098,250.7,98.89429)" fill="#0000ff"/>
<use data-text="e" xlink:href="#font_4_50" transform="matrix(9.9626,0,0,-9.963098,256.2392,98.89429)" fill="#0000ff"/>
<use data-text="u" xlink:href="#font_4_109" transform="matrix(9.9626,0,0,-9.963098,263.97019,98.89429)" fill="#0000ff"/>
<use data-text="n" xlink:href="#font_4_77" transform="matrix(9.9626,0,0,-9.963098,269.5094,98.89429)" fill="#0000ff"/>
<use data-text="i" xlink:href="#font_4_66" transform="matrix(9.9626,0,0,-9.963098,275.04859,98.89429)" fill="#0000ff"/>
<use data-text="t" xlink:href="#font_4_105" transform="matrix(9.9626,0,0,-9.963098,277.81819,98.89429)" fill="#0000ff"/>
<use data-text="c" xlink:href="#font_4_43" transform="matrix(9.9626,0,0,-9.963098,285.0112,98.89429)" fill="#0000ff"/>
<use data-text="i" xlink:href="#font_4_66" transform="matrix(9.9626,0,0,-9.963098,289.4346,98.89429)" fill="#0000ff"/>
<use data-text="r" xlink:href="#font_4_96" transform="matrix(9.9626,0,0,-9.963098,292.20423,98.89429)" fill="#0000ff"/>
<use data-text="c" xlink:href="#font_4_43" transform="matrix(9.9626,0,0,-9.963098,296.10957,98.89429)" fill="#0000ff"/>
<use data-text="l" xlink:href="#font_4_72" transform="matrix(9.9626,0,0,-9.963098,300.53297,98.89429)" fill="#0000ff"/>
<use data-text="e" xlink:href="#font_4_50" transform="matrix(9.9626,0,0,-9.963098,303.30256,98.89429)" fill="#0000ff"/>
<use data-text="1" xlink:href="#font_4_82" transform="matrix(9.9626,0,0,-9.963098,304.31303,61.957445)"/>
<use data-text="1" xlink:href="#font_4_82" transform="matrix(9.9626,0,0,-9.963098,267.462,23.68753)"/>
<path transform="matrix(1,0,0,-1.00005,20.501,52.969995)" d="M281.93818 14.17339C281.93818 15.42587 280.92289 16.44118 279.6704 16.44118 278.4179 16.44118 277.4026 15.42587 277.4026 14.17339 277.4026 12.92091 278.4179 11.90561 279.6704 11.90561 280.92289 11.90561 281.93818 12.92091 281.93818 14.17339ZM279.6704 14.17339" fill="#0000ff"/>
<path transform="matrix(1,0,0,-1.00005,20.501,52.969995)" stroke-width=".3985" stroke-linecap="butt" stroke-miterlimit="10" stroke-linejoin="miter" fill="none" stroke="#0000ff" d="M281.93818 14.17339C281.93818 15.42587 280.92289 16.44118 279.6704 16.44118 278.4179 16.44118 277.4026 15.42587 277.4026 14.17339 277.4026 12.92091 278.4179 11.90561 279.6704 11.90561 280.92289 11.90561 281.93818 12.92091 281.93818 14.17339ZM279.6704 14.17339"/>
<path transform="matrix(1,0,0,-1.00005,20.501,52.969995)" d="M232.83995 14.17339C232.83995 15.42587 231.82465 16.44118 230.57218 16.44118 229.31969 16.44118 228.30438 15.42587 228.30438 14.17339 228.30438 12.92091 229.31969 11.90561 230.57218 11.90561 231.82465 11.90561 232.83995 12.92091 232.83995 14.17339ZM230.57218 14.17339" fill="#00ff00"/>
<path transform="matrix(1,0,0,-1.00005,20.501,52.969995)" stroke-width=".3985" stroke-linecap="butt" stroke-miterlimit="10" stroke-linejoin="miter" fill="none" stroke="#00ff00" d="M232.83995 14.17339C232.83995 15.42587 231.82465 16.44118 230.57218 16.44118 229.31969 16.44118 228.30438 15.42587 228.30438 14.17339 228.30438 12.92091 229.31969 11.90561 230.57218 11.90561 231.82465 11.90561 232.83995 12.92091 232.83995 14.17339ZM230.57218 14.17339"/>
</svg>
