<svg xmlns="http://www.w3.org/2000/svg" xmlns:xlink="http://www.w3.org/1999/xlink" version="1.1" width="193" height="145" viewBox="0 0 193 145">
<defs>
<path id="font_1_2" d="M.33399964 .30233766C.33999635 .32835389 .36299134 .42037965 .43299867 .42037965 .43798829 .42037965 .46199037 .42037965 .48298646 .40734864 .45498658 .402359 .43499757 .37734986 .43499757 .35334779 .43499757 .33735658 .44599916 .31835938 .47299195 .31835938 .49499513 .31835938 .5269928 .3363495 .5269928 .37635804 .5269928 .42837525 .46798707 .4423828 .43399049 .4423828 .37599183 .4423828 .34098817 .38935853 .32899476 .36634828 .3039856 .43237306 .25 .4423828 .22099304 .4423828 .116989139 .4423828 .05999756 .3133545 .05999756 .28834535 .05999756 .27833558 .069992069 .27833558 .07199097 .27833558 .07998657 .27833558 .08299255 .28033448 .084991458 .28933717 .11898804 .39535523 .18499756 .42037965 .21899414 .42037965 .23799134 .42037965 .272995 .4113617 .272995 .35334779 .272995 .32235719 .2559967 .25532533 .21899414 .11528015 .20298767 .053268434 .16799927 .011245728 .12399292 .011245728 .117996219 .011245728 .09498596 .011245728 .07398987 .024276734 .09899902 .029266358 .12098694 .05027771 .12098694 .07827759 .12098694 .105270389 .09899902 .11328125 .083999637 .11328125 .053985597 .11328125 .0289917 .08728027 .0289917 .055267335 .0289917 .009246826 .07899475-.0107421879 .12298584-.0107421879 .18899536-.0107421879 .22499085 .059280397 .22799683 .0652771 .23999024 .028274537 .27598573-.0107421879 .33599855-.0107421879 .43899537-.0107421879 .49598695 .118270877 .49598695 .14328003 .49598695 .1532898 .4869995 .1532898 .48399354 .1532898 .47499085 .1532898 .47299195 .14929199 .47099305 .14228821 .43798829 .03527832 .36999513 .011245728 .33799745 .011245728 .29899598 .011245728 .2829895 .043273927 .2829895 .07727051 .2829895 .09927368 .2889862 .121276859 .2999878 .16529846L.33399964 .30233766Z"/>
<path id="font_1_3" d="M.48599244 .38136292C.48999024 .39537049 .48999024 .39736939 .48999024 .40437318 .48999024 .42237855 .47599793 .43138124 .46099855 .43138124 .45098878 .43138124 .43499757 .42536927 .42599488 .41036988 .42399598 .405365 .41600038 .37435914 .4119873 .35635377 .40499879 .33035279 .397995 .30334474 .3919983 .27633668L.34700013 .09628296C.34298707 .08126831 .2999878 .011245728 .23399353 .011245728 .18299866 .011245728 .17199707 .055267335 .17199707 .0922699 .17199707 .1382904 .18899536 .20030213 .22299195 .28833009 .23899842 .3293457 .24299622 .3403473 .24299622 .36035157 .24299622 .405365 .21099854 .4423828 .16099549 .4423828 .06599426 .4423828 .0289917 .29733277 .0289917 .28833009 .0289917 .27833558 .038986207 .27833558 .040985109 .27833558 .050994874 .27833558 .051986696 .28033448 .056991579 .29634095 .083999637 .3903656 .12399292 .42037965 .1579895 .42037965 .1659851 .42037965 .18299866 .42037965 .18299866 .3883667 .18299866 .36335755 .17298889 .3373413 .1659851 .31834413 .12599182 .21231079 .10798645 .1552887 .10798645 .10827637 .10798645 .019256592 .17098999-.0107421879 .22999573-.0107421879 .2689972-.0107421879 .30299378 .0062561037 .33099366 .03425598 .31799317-.017745972 .30599977-.06674194 .2659912-.11973572 .23999024-.15385437 .20199585-.18309021 .1559906-.18309021 .14199829-.18309021 .09700012-.18005371 .07998657-.14074707 .09599304-.14074707 .10899353-.14074707 .12298584-.1287384 .1329956-.11973572 .14299011-.10673523 .14299011-.08773804 .14299011-.056747438 .115997318-.052734376 .10598755-.052734376 .08299255-.052734376 .049987794-.068740848 .049987794-.11773682 .049987794-.16796875 .09399414-.20507813 .1559906-.20507813 .25898744-.20507813 .3619995-.11373901 .3899994-.00074768069L.48599244 .38136292Z"/>
<path id="font_2_64" d="M.27598573 .18710327V.24511719H.010986328V.18710327H.27598573Z"/>
<path id="font_2_82" d="M.4189911 0V.0309906H.3869934C.29699708 .0309906 .2939911 .041992189 .2939911 .07902527V.64012148C.2939911 .6640167 .2939911 .6660156 .2709961 .6660156 .20899964 .60227969 .12098694 .60227969 .08898926 .60227969V.57128909C.10899353 .57128909 .16799927 .57128909 .21998596 .5972748V.07902527C.21998596 .042999269 .21699524 .0309906 .1269989 .0309906H.09498596V0C.12998963 .0029907227 .21699524 .0029907227 .25698854 .0029907227 .29699708 .0029907227 .38398744 .0029907227 .4189911 0Z"/>
<path id="font_1_1" d="M.2649994 .37265016H.37799073C.34498597 .22489929 .33599855 .18196106 .33599855 .11508179 .33599855 .100097659 .33599855 .073150638 .34399415 .03919983 .35398866-.0047454836 .36499024-.0107421879 .37998963-.0107421879 .3999939-.0107421879 .42099 .007247925 .42099 .02722168 .42099 .033218385 .42099 .035202028 .4149933 .049179079 .38598634 .12106323 .38598634 .18595886 .38598634 .21391297 .38598634 .26683045 .3929901 .32073976 .4039917 .37265016H.5179901C.5309906 .37265016 .5669861 .37265016 .5669861 .406662 .5669861 .43066407 .54599 .43066407 .5269928 .43066407H.19198609C.16999817 .43066407 .13198853 .43066407 .08799744 .38365174 .052993776 .34469605 .026992798 .29878236 .026992798 .29379273 .026992798 .29278565 .026992798 .28379823 .038986207 .28379823 .04699707 .28379823 .04899597 .28779603 .054992677 .29577638 .10398865 .37265016 .1619873 .37265016 .18199158 .37265016H.23899842C.20698548 .25186158 .15299988 .13105774 .11099243 .04020691 .102996829 .025222779 .102996829 .023223877 .102996829 .016235352 .102996829-.002746582 .11898804-.0107421879 .13198853-.0107421879 .1619873-.0107421879 .16999817 .017242432 .18199158 .05418396 .19599915 .100097659 .19599915 .10209656 .20899964 .15202332L.2649994 .37265016Z"/>
<path id="font_3_1" d="M.1269989 .07699585 .23298645 .18003845C.3889923 .31811524 .44898988 .3721466 .44898988 .47216798 .44898988 .5860901 .35899354 .6660156 .23699951 .6660156 .12399292 .6660156 .049987794 .57411196 .049987794 .48516847 .049987794 .4291687 .099990848 .4291687 .102996829 .4291687 .11999512 .4291687 .15499878 .44117738 .15499878 .48217774 .15499878 .5081787 .13699341 .5341797 .101989749 .5341797 .09399414 .5341797 .09199524 .5341797 .08898926 .5331726 .11199951 .59806826 .1659851 .63500979 .22399903 .63500979 .31498719 .63500979 .35798646 .5541382 .35798646 .47216798 .35798646 .39215089 .30799867 .31311036 .25299073 .25108338L.06098938 .036987306C.049987794 .025985718 .049987794 .023986817 .049987794 0H.42099L.44898988 .17404175H.42399598C.4189911 .14402771 .4119873 .1000061 .4019928 .084991458 .394989 .07699585 .32899476 .07699585 .30699159 .07699585H.1269989Z"/>
<path id="font_3_3" d="M.68699648 .32714845C.70199587 .32714845 .72099307 .32714845 .72099307 .34713746 .72099307 .36714173 .70199587 .36714173 .6879883 .36714173H.08898926C.07499695 .36714173 .055999757 .36714173 .055999757 .34713746 .055999757 .32714845 .07499695 .32714845 .08999634 .32714845H.68699648M.6879883 .13284302C.70199587 .13284302 .72099307 .13284302 .72099307 .15284729 .72099307 .17285156 .70199587 .17285156 .68699648 .17285156H.08999634C.07499695 .17285156 .055999757 .17285156 .055999757 .15284729 .055999757 .13284302 .07499695 .13284302 .08898926 .13284302H.6879883Z"/>
<path id="font_3_6" d="M.20799256 .19424439C.22999573 .19024658 .31199647 .17424011 .31199647 .102249149 .31199647 .051254274 .2769928 .011245728 .19898987 .011245728 .114990238 .011245728 .07899475 .06825256 .05999756 .15324402 .056991579 .1662445 .055999757 .17024231 .04598999 .17024231 .032989503 .17024231 .032989503 .16323853 .032989503 .14524842V.013244629C.032989503-.003753662 .032989503-.0107421879 .04399109-.0107421879 .04899597-.0107421879 .049987794-.009750366 .068984989 .009246826 .070999149 .011245728 .070999149 .013244629 .08898926 .03224182 .1329956-.009750366 .17799378-.0107421879 .19898987-.0107421879 .31399537-.0107421879 .3600006 .056243898 .3600006 .12825012 .3600006 .1812439 .32998658 .21124268 .31799317 .22323609 .2849884 .25523377 .24598694 .26324464 .20399475 .27124024 .147995 .28224183 .08099365 .2952423 .08099365 .35324098 .08099365 .38822938 .10699463 .42922975 .19299317 .42922975 .30299378 .42922975 .30799867 .3392334 .30999757 .3082428 .31098939 .2992401 .31999208 .2992401 .32199098 .2992401 .33499146 .2992401 .33499146 .304245 .33499146 .3232422V.4242401C.33499146 .4412384 .33499146 .4482422 .32398988 .4482422 .31900025 .4482422 .31698609 .4482422 .3039856 .43623353 .30099488 .43223573 .29100038 .42323304 .2869873 .42022706 .24899292 .4482422 .20799256 .4482422 .19299317 .4482422 .070999149 .4482422 .032989503 .38124085 .032989503 .3252411 .032989503 .29023744 .04899597 .26223756 .07598877 .24023438 .10798645 .21424866 .13598633 .2082367 .20799256 .19424439Z"/>
<path id="font_3_4" d="M.1769867 .4423828 .036987306 .43138124V.40037538C.101989749 .40037538 .11099243 .3943634 .11099243 .34532167V.076034549C.11099243 .0309906 .099990848 .0309906 .032989503 .0309906V0C.06498718 .0009918213 .11898804 .0029907227 .14299011 .0029907227 .17799378 .0029907227 .21299744 .0009918213 .24699402 0V.0309906C.18099976 .0309906 .1769867 .035995485 .1769867 .075042728V.4423828M.18099976 .6159363C.18099976 .64793398 .1559906 .6689453 .12799073 .6689453 .09700012 .6689453 .07499695 .64193728 .07499695 .6159363 .07499695 .5889435 .09700012 .5629425 .12799073 .5629425 .1559906 .5629425 .18099976 .5839386 .18099976 .6159363Z"/>
<path id="font_3_5" d="M.10998535 .34429933V.076034549C.10998535 .0309906 .09899902 .0309906 .03199768 .0309906V0C.066986087 .0009918213 .117996219 .0029907227 .14498902 .0029907227 .17098999 .0029907227 .22299195 .0009918213 .25698854 0V.0309906C.18998719 .0309906 .1789856 .0309906 .1789856 .076034549V.2602234C.1789856 .36431886 .25 .42037965 .31399537 .42037965 .3769989 .42037965 .3880005 .36631776 .3880005 .30926515V.076034549C.3880005 .0309906 .3769989 .0309906 .30999757 .0309906V0C.34498597 .0009918213 .3959961 .0029907227 .4229889 .0029907227 .44898988 .0029907227 .5009918 .0009918213 .5349884 0V.0309906C.48298646 .0309906 .45799256 .0309906 .45700074 .061019899V.25221253C.45700074 .3383026 .45700074 .36932374 .42599488 .405365 .4119873 .42237855 .3789978 .4423828 .32099916 .4423828 .24798584 .4423828 .20098877 .39935304 .17298889 .33729554V.4423828L.03199768 .43138124V.40037538C.101989749 .4003601 .10998535 .39335633 .10998535 .34429933Z"/>
<path id="font_4_1" d="M.69999697-2.3488923C.69999697-2.3448945 .69799807-2.3428956 .69599917-2.3399049 .6589966-2.3029023 .59199526-2.2359009 .5249939-2.1278992 .3639984-1.8699188 .29100038-1.5449219 .29100038-1.1599274 .29100038-.89094546 .32699586-.5439453 .49198915-.24595642 .57099917-.10395813 .6529999-.021957398 .69699099 .022033692 .69999697 .025024414 .69999697 .027038575 .69999697 .030029297 .69999697 .040039064 .69299319 .040039064 .67900088 .040039064 .6649933 .040039064 .6629944 .040039064 .647995 .025024414 .31298829-.279953 .20799256-.73794558 .20799256-1.1589356 .20799256-1.5519257 .2979889-1.9479065 .5519867-2.2469025 .57199099-2.2698975 .6100006-2.3108979 .651001-2.3468934 .6629944-2.358902 .6649933-2.358902 .67900088-2.358902 .69299319-2.358902 .69999697-2.358902 .69999697-2.3488923Z"/>
<path id="font_5_1" d="M.6589966 .23046875C.6759949 .23046875 .69400027 .23046875 .69400027 .25045777 .69400027 .27046205 .6759949 .27046205 .6589966 .27046205H.117996219C.100997928 .27046205 .08299255 .27046205 .08299255 .25045777 .08299255 .23046875 .100997928 .23046875 .117996219 .23046875H.6589966Z"/>
<path id="font_3_2" d="M.2899933 .35191346C.37199403 .37893678 .42999269 .4490509 .42999269 .52809146 .42999269 .6100464 .34199525 .6660156 .24598694 .6660156 .14498902 .6660156 .068984989 .60606387 .068984989 .53009036 .068984989 .49710084 .09098816 .47808839 .11999512 .47808839 .15098572 .47808839 .17098999 .50009158 .17098999 .5290985 .17098999 .57910159 .12399292 .57910159 .10899353 .57910159 .13999939 .62802127 .20599365 .64100649 .24198914 .64100649 .2829895 .64100649 .33799745 .6190338 .33799745 .5290985 .33799745 .51708987 .33599855 .45906068 .30999757 .4149933 .27999879 .36691285 .24598694 .36390687 .22099304 .36291505 .21299744 .36190797 .18899536 .35990907 .18199158 .35990907 .17399597 .35890199 .16699219 .35791017 .16699219 .3479004 .16699219 .33691407 .17399597 .33691407 .19099427 .33691407H.23498535C.31698609 .33691407 .35398866 .2686615 .35398866 .17037964 .35398866 .034469606 .2849884 .0055389406 .24099732 .0055389406 .19799805 .0055389406 .12298584 .022491456 .08799744 .08137512 .12298584 .07637024 .1539917 .09837341 .1539917 .1363678 .1539917 .17237854 .1269989 .19238281 .09799194 .19238281 .07398987 .19238281 .041992189 .17837525 .041992189 .1343689 .041992189 .043441774 .1349945-.022460938 .24398804-.022460938 .3659973-.022460938 .45700074 .06838989 .45700074 .17037964 .45700074 .252594 .3939972 .33088685 .2899933 .35191346Z"/>
<path id="font_4_2" d="M.5269928-1.1599274C.5269928-.76693728 .43699647-.37095643 .18299866-.07196045 .16299439-.048965455 .125-.007965088 .083999637 .028030396 .07199097 .040039064 .069992069 .040039064 .055999757 .040039064 .04399109 .040039064 .034988405 .040039064 .034988405 .030029297 .034988405 .026031495 .038986207 .022033692 .040985109 .02003479 .07598877-.015960694 .14299011-.082962039 .20999146-.19096375 .37098695-.4489441 .44400025-.77394106 .44400025-1.1589356 .44400025-1.4279175 .4079895-1.7749176 .24299622-2.0729066 .1639862-2.2149049 .08099365-2.2978974 .038986207-2.3399049 .036987306-2.3428956 .034988405-2.3459016 .034988405-2.3488923 .034988405-2.358902 .04399109-2.358902 .055999757-2.358902 .069992069-2.358902 .07199097-2.358902 .08699036-2.3439027 .42199708-2.03891 .5269928-1.5809174 .5269928-1.1599274Z"/>
<path id="font_2_35" d="M.5209961 .2163086C.5209961 .34335328 .4229889 .4423828 .30899049 .4423828 .23098755 .4423828 .18798828 .39537049 .17199707 .3773651V.69433596L.027999878 .68333438V.6523285C.09799194 .6523285 .10598755 .6453247 .10598755 .596344V.00024414063H.1309967L.16699219 .06227112C.18199158 .039260866 .22399903-.0107421879 .2979889-.0107421879 .4169922-.0107421879 .5209961 .08728027 .5209961 .2163086M.43798829 .21731568C.43798829 .18029785 .43598939 .120285037 .40699769 .07527161 .38598634 .044265748 .34799195 .011245728 .2939911 .011245728 .24899292 .011260986 .21299744 .03526306 .18899536 .072265628 .1749878 .09326172 .1749878 .09625244 .1749878 .11425781V.32034303C.1749878 .3393402 .1749878 .3403473 .18598938 .35635377 .22499085 .41236878 .27999879 .42037965 .3039856 .42037965 .34899903 .42037965 .3849945 .3943634 .40899659 .35635377 .43499757 .31533814 .43798829 .25831605 .43798829 .21730042V.21731568Z"/>
<path id="font_2_88" d="M.19198609 .052993776C.19198609 .08198547 .16799927 .10598755 .13899231 .10598755 .10998535 .10598755 .085998538 .08198547 .085998538 .052993776 .085998538 .023986817 .10998535 0 .13899231 0 .16799927 0 .19198609 .023986817 .19198609 .052993776Z"/>
<path id="font_2_97" d="M.49899293 .18579102C.49899293 .2858429 .43299867 .36791993 .34899903 .38793946L.22099304 .4189453C.15899658 .43388368 .11999512 .48773194 .11999512 .5458069 .11999512 .61595156 .17399597 .677063 .2519989 .677063 .4189911 .677063 .44099427 .5127411 .44699098 .46777345 .44799806 .461792 .44799806 .45581056 .45899964 .45581056 .47200013 .45581056 .47200013 .46080018 .47200013 .47973634V.68107607C.47200013 .69807437 .47200013 .7050781 .46099855 .7050781 .45399476 .7050781 .45298768 .70407107 .44599916 .69207766L.41099549 .63497927C.3809967 .66404727 .33999635 .7050781 .25099183 .7050781 .13999939 .7050781 .055999757 .61694338 .055999757 .5107422 .055999757 .42790223 .10899353 .35490418 .18699646 .32788087 .19799805 .32388307 .24899292 .3118744 .31900025 .29486085 .34599305 .28785707 .37599183 .280838 .4039917 .24382019 .4249878 .2177887 .43499757 .18478394 .43499757 .1517334 .43499757 .0806427 .3849945 .008529663 .30099488 .008529663 .27198792 .008529663 .19599915 .013534546 .14299011 .06260681 .084991458 .11668396 .08198547 .18078614 .08099365 .21679688 .07998657 .22679138 .07199097 .22679138 .068984989 .22679138 .055999757 .22679138 .055999757 .2197876 .055999757 .20178223V.0015258789C.055999757-.015472412 .055999757-.022460938 .066986087-.022460938 .07398987-.022460938 .07499695-.020462037 .08198547-.009475708 .08198547-.009475708 .084991458-.0054626467 .117996219 .047592164 .14898682 .013534546 .21299744-.022460938 .3019867-.022460938 .4189911-.022460938 .49899293 .07562256 .49899293 .18579102Z"/>
<path id="font_2_105" d="M.33198548 .12385559V.18066406H.30699159V.12585449C.30699159 .052108766 .2769928 .014251709 .23999024 .014251709 .17298889 .014251709 .17298889 .10491943 .17298889 .12187195V.3996582H.31599427V.43066407H.17298889V.6142578H.147995C.14698792 .5324249 .116989139 .42565919 .018997193 .42166139V.3996582H.10398865V.12408447C.10398865 .0012512207 .19699097-.0107421879 .23298645-.0107421879 .3039856-.0107421879 .33198548 .060180665 .33198548 .12408447V.12385559Z"/>
<path id="font_2_50" d="M.4149933 .11933899C.4149933 .12934876 .40699769 .13134766 .4019928 .13134766 .3929901 .13134766 .3909912 .12535095 .3889923 .11734009 .35398866 .014251709 .2639923 .014251709 .2539978 .014251709 .20399475 .014251709 .1639862 .044281007 .14099121 .08131409 .11099243 .12934876 .11099243 .19540406 .11099243 .23144531H.3899994C.4119873 .23144531 .4149933 .23144531 .4149933 .2524414 .4149933 .35131837 .36099244 .4482422 .23599243 .4482422 .11999512 .4482422 .027999878 .34532167 .027999878 .22042847 .027999878 .08631897 .1329956-.0107421879 .24798584-.0107421879 .36999513-.0107421879 .4149933 .10032654 .4149933 .11933899M.34899903 .2524414H.11199951C.117996219 .40126039 .20199585 .426239 .23599243 .426239 .33898927 .426239 .34899903 .2913971 .34899903 .2524414Z"/>
<path id="font_2_84" d="M.5209961 .21636963C.5209961 .34336854 .42399598 .4423828 .31199647 .4423828 .23399353 .4423828 .19198609 .39837647 .17199707 .3763733V.4423828L.027999878 .43066407V.3996582C.09899902 .3996582 .10598755 .3936615 .10598755 .34973146V-.117996219C.10598755-.16308594 .09498596-.16308594 .027999878-.16308594V-.1940918L.13999939-.19110108 .25299073-.1940918V-.16308594C.18598938-.16308594 .1749878-.16308594 .1749878-.117996219V.050186159 .059173585C.17999268 .04319763 .22200012-.0107421879 .2979889-.0107421879 .4169922-.0107421879 .5209961 .087127689 .5209961 .21594239V.21636963M.43798829 .21594239C.43798829 .09512329 .36799623 .011245728 .2939911 .011245728 .2539978 .011245728 .21598816 .031219483 .18899536 .07215881 .1749878 .09312439 .1749878 .09411621 .1749878 .114089969V.33674623C.20399475 .38838197 .25299073 .41737367 .3039856 .41737367 .3769989 .41737367 .43798829 .32937623 .43798829 .21636963V.21594239Z"/>
<path id="font_2_107" d="M.44898988 .17396546H.42399598C.4189911 .14398194 .4119873 .099990848 .4019928 .084991458 .394989 .07699585 .32899476 .07699585 .30699159 .07699585H.1269989L.23298645 .17996216C.3889923 .31803895 .44898988 .37210084 .44898988 .47216798 .44898988 .5860901 .35899354 .6660156 .23699951 .6660156 .12399292 .6660156 .049987794 .57411196 .049987794 .48516847 .049987794 .4291687 .099990848 .4291687 .102996829 .4291687 .11999512 .4291687 .15499878 .44117738 .15499878 .48217774 .15499878 .5081787 .13699341 .5341797 .101989749 .5341797 .09399414 .5341797 .09199524 .5341797 .08898926 .5331726 .11199951 .59806826 .1659851 .63500979 .22399903 .63500979 .31498719 .63500979 .35798646 .5541382 .35798646 .47216798 .35798646 .39196778 .30799867 .31297303 .25299073 .25097657L.06098938 .036987306C.049987794 .025985718 .049987794 .023986817 .049987794 0H.42099L.44898988 .17396546Z"/>
</defs>
<path transform="matrix(1.00003,0,0,-1.00005,13.855911,70.545879)" stroke-width=".3985" stroke-linecap="butt" stroke-miterlimit="10" stroke-linejoin="miter" fill="none" stroke="#00aeef" d="M0-51.02386H160.296M0-38.2679H160.296M0-25.51192H160.296M0-12.75595H160.296M0 0H160.296M0 12.75595H160.296M0 25.51192H160.296M0 38.2679H160.296M0 51.02386H160.296M0-51.0239V51.0239M13.35779-51.0239V51.0239M26.71559-51.0239V51.0239M40.0734-51.0239V51.0239M53.4312-51.0239V51.0239M66.78899-51.0239V51.0239M80.1468-51.0239V51.0239M93.5046-51.0239V51.0239M106.8624-51.0239V51.0239M120.2202-51.0239V51.0239M133.578-51.0239V51.0239M146.93579-51.0239V51.0239M160.29361-51.0239V51.0239M160.296 51.0239"/>
<path transform="matrix(1.00003,0,0,-1.00005,13.855911,70.545879)" stroke-width=".79701" stroke-linecap="butt" stroke-miterlimit="10" stroke-linejoin="miter" fill="none" stroke="#000000" d="M0 0H166.94443"/>
<path transform="matrix(1.00003,0,0,-1.00005,180.80536,70.545879)" d="M1.0361 0C-.25902 .25902-1.55415 .77707-3.1083 1.68365-1.55415 .51805-1.55415-.51805-3.1083-1.68365-1.55415-.77707-.25902-.25902 1.0361 0Z"/>
<path transform="matrix(1.00003,0,0,-1.00005,180.80536,70.545879)" stroke-width=".79701" stroke-linecap="butt" stroke-linejoin="round" fill="none" stroke="#000000" d="M1.0361 0C-.25902 .25902-1.55415 .77707-3.1083 1.68365-1.55415 .51805-1.55415-.51805-3.1083-1.68365-1.55415-.77707-.25902-.25902 1.0361 0Z"/>
<use data-text="x" xlink:href="#font_1_2" transform="matrix(9.962899,0,0,-9.963098,185.95909,72.69098)"/>
<path transform="matrix(1.00003,0,0,-1.00005,13.855911,70.545879)" stroke-width=".79701" stroke-linecap="butt" stroke-miterlimit="10" stroke-linejoin="miter" fill="none" stroke="#000000" d="M0-51.0239V57.24295"/>
<path transform="matrix(0,-1.00005,-1.00003,-0,13.855911,13.300064)" d="M1.0361 0C-.25902 .25902-1.55415 .77707-3.1083 1.68365-1.55415 .51805-1.55415-.51805-3.1083-1.68365-1.55415-.77707-.25902-.25902 1.0361 0Z"/>
<path transform="matrix(0,-1.00005,-1.00003,-0,13.855911,13.300064)" stroke-width=".79701" stroke-linecap="butt" stroke-linejoin="round" fill="none" stroke="#000000" d="M1.0361 0C-.25902 .25902-1.55415 .77707-3.1083 1.68365-1.55415 .51805-1.55415-.51805-3.1083-1.68365-1.55415-.77707-.25902-.25902 1.0361 0Z"/>
<use data-text="y" xlink:href="#font_1_3" transform="matrix(9.962899,0,0,-9.963098,11.234833,6.208664)"/>
<path transform="matrix(1.00003,0,0,-1.00005,13.855911,70.545879)" stroke-width=".79701" stroke-linecap="butt" stroke-miterlimit="10" stroke-linejoin="miter" fill="none" stroke="#000000" d="M1.27565-25.51193H-1.27567"/>
<path transform="matrix(1.00003,0,0,-1.00005,13.855911,70.545879)" d="M-13.95825-29.82582H-3.66673V-21.19807H-13.95825Z" fill="#ffffff"/>
<use data-text="-" xlink:href="#font_2_64" transform="matrix(9.962899,0,0,-9.963098,.89352419,99.37732)"/>
<use data-text="1" xlink:href="#font_2_82" transform="matrix(9.962899,0,0,-9.963098,4.2111666,99.37732)"/>
<path transform="matrix(1.00003,0,0,-1.00005,13.855911,70.545879)" stroke-width=".79701" stroke-linecap="butt" stroke-miterlimit="10" stroke-linejoin="miter" fill="none" stroke="#000000" d="M1.27565 25.51193H-1.27567"/>
<path transform="matrix(1.00003,0,0,-1.00005,13.855911,70.545879)" d="M-10.64066 21.19806H-3.6667205V29.82581H-10.64066Z" fill="#ffffff"/>
<use data-text="1" xlink:href="#font_2_82" transform="matrix(9.962899,0,0,-9.963098,4.211624,48.35077)"/>
<path transform="matrix(1.00003,0,0,-1.00005,13.855911,70.545879)" stroke-width=".79701" stroke-linecap="butt" stroke-miterlimit="10" stroke-linejoin="miter" fill="none" stroke="#000000" d="M80.148 2.55133V-2.55095"/>
<use data-text="&#x03c0;" xlink:href="#font_1_1" transform="matrix(9.962899,0,0,-9.963098,90.98823,83.0985)"/>
<path transform="matrix(1.00003,0,0,-1.00005,13.855911,70.545879)" stroke-width=".79701" stroke-linecap="butt" stroke-miterlimit="10" stroke-linejoin="miter" fill="none" stroke="#000000" d="M160.296 2.55133V-2.55095"/>
<use data-text="2" xlink:href="#font_3_1" transform="matrix(9.962899,0,0,-9.963098,168.64757,85.22961)"/>
<use data-text="&#x03c0;" xlink:href="#font_1_1" transform="matrix(9.962899,0,0,-9.963098,173.62873,85.22961)"/>
<path transform="matrix(1.00003,0,0,-1.00005,13.855911,70.545879)" stroke-width="1.19553" stroke-linecap="butt" stroke-miterlimit="10" stroke-linejoin="miter" fill="none" stroke="#ff0000" d="M0-22.09366C0-22.09366 1.80931-20.09125 2.50423-19.18066 3.19913-18.27008 4.31355-16.62628 5.00847-15.53076 5.70338-14.43523 6.81783-12.52324 7.51273-11.28487 8.20763-10.04648 9.32205-7.93909 10.01697-6.60532 10.71187-5.27153 11.82631-3.04973 12.52122-1.67194 13.21613-.29414 14.33055 1.9558 15.02547 3.32483 15.72037 4.69386 16.83481 6.8874 17.52971 8.19513 18.22462 9.50287 19.33905 11.55408 20.03395 12.75012 20.72887 13.94615 21.8433 15.77696 22.53822 16.81538 23.23311 17.8538 24.34753 19.39355 25.04245 20.23445 25.73737 21.07535 26.8518 22.26492 27.5467 22.87611 28.24162 23.48729 29.35605 24.2817 30.05095 24.63956 30.74585 24.99742 31.8603 25.36469 32.5552 25.45549 33.2501 25.54628 34.36453 25.47353 35.05945 25.29395 35.75435 25.11435 36.86879 24.6043 37.5637 24.16112 38.25862 23.71796 39.37305 22.78976 40.06793 22.09988 40.76285 21.40999 41.87729 20.09888 42.5722 19.18884 43.2671 18.27881 44.38153 16.63602 45.07645 15.54088 45.77135 14.44574 46.88579 12.53387 47.58069 11.29576 48.2756 10.05765 49.39003 7.95093 50.08493 6.61739 50.77985 5.28381 51.89429 3.06226 52.58919 1.6844 53.2841 .30656 54.39853-1.94402 55.09343-3.31316 55.78833-4.6823 56.90277-6.87556 57.59769-8.18346 58.29259-9.49135 59.40703-11.54324 60.10193-12.7396 60.79684-13.93596 61.91129-15.76723 62.60619-16.80605 63.30109-17.84485 64.41551-19.38521 65.11043-20.22667 65.80533-21.06812 66.91977-22.25876 67.61469-22.87067 68.30959-23.48256 69.42403-24.27829 70.11893-24.63684 70.81383-24.99536 71.92827-25.36339 72.62317-25.45471 73.31808-25.54604 74.43251-25.47409 75.12743-25.29509 75.82233-25.1161 76.93677-24.60716 77.63168-24.16463 78.32657-23.72212 79.441-22.79503 80.13591-22.10573 80.83083-21.41641 81.94527-20.10612 82.64017-19.19662 83.33508-18.28712 84.44951-16.64532 85.14442-15.5506 85.83931-14.45589 86.95375-12.5445 87.64867-11.30666 88.34357-10.06883 89.458-7.9625 90.15291-6.62904 90.84782-5.29561 91.96227-3.0738 92.65717-1.69608 93.35207-.31834 94.4665 1.93155 95.16139 3.30069 95.85631 4.66983 96.97075 6.86362 97.66566 8.17177 98.36057 9.47993 99.47499 11.53236 100.1699 12.7291 100.86482 13.92584 101.97926 15.7578 102.67415 16.79709 103.36906 17.83638 104.48349 19.37772 105.17839 20.21964 105.8733 21.06157 106.98775 22.25284 107.68266 22.8652 108.37756 23.47758 109.49199 24.27415 110.18689 24.63333 110.88179 24.99251 111.99623 25.36185 112.69115 25.45393 113.38606 25.546 114.50049 25.47539 115.19539 25.29706 115.8903 25.11871 117.00475 24.61049 117.69963 24.16852 118.39455 23.72656 119.50897 22.80025 120.20389 22.11156 120.89879 21.42287 122.01323 20.1138 122.70815 19.20479 123.40306 18.29579 124.51749 16.65424 125.21239 15.55995 125.90729 14.46568 127.02173 12.55548 127.71663 11.31796 128.41155 10.08044 129.52597 7.97401 130.22089 6.64073 130.91579 5.30746 132.03023 3.08623 132.72515 1.70854 133.42003 .33086 134.53447-1.91931 135.22937-3.28862 135.92429-4.65793 137.03873-6.85216 137.73363-8.16048 138.42855-9.4688 139.54297-11.52118 140.23789-12.7182 140.93277-13.9152 142.04721-15.74802 142.74213-16.78775 143.43703-17.82747 144.55147-19.36938 145.24637-20.21185 145.94129-21.05434 147.05573-22.24678 147.75063-22.85976 148.44553-23.47275 149.55995-24.27 150.25487-24.62982 150.94977-24.98964 152.06421-25.36035 152.75913-25.45316 153.45403-25.54594 154.56845-25.4763 155.26337-25.29861 155.95827-25.1209 157.07273-24.6138 157.76761-24.17241 158.46253-23.73103 160.27187-22.11742 160.27187-22.11742"/>
<path transform="matrix(1.00003,0,0,-1.00005,13.855911,70.545879)" stroke-width=".79701" stroke-linecap="butt" stroke-dasharray="2.98883,2.98883" stroke-miterlimit="10" stroke-linejoin="miter" fill="none" stroke="#0000ff" d="M0-22.09366C0-22.09366 1.80931-21.1404 2.50423-20.73622 3.19913-20.33206 4.31355-19.63803 5.00847-19.18066 5.70338-18.7233 6.81783-17.9462 7.51273-17.43979 8.20763-16.93336 9.32205-16.08113 10.01697-15.53076 10.71187-14.9804 11.82631-14.06213 12.52122-13.47302 13.21613-12.88391 14.33055-11.90712 15.02547-11.28487 15.72037-10.66258 16.83481-9.63737 17.52971-8.9881 18.22462-8.33882 19.33905-7.27544 20.03395-6.60532 20.72887-5.9352 21.8433-4.84277 22.53822-4.15828 23.23311-3.4738 24.34753-2.36404 25.04245-1.67194 25.73737-.97984 26.8518 .13664 27.5467 .82993 28.24162 1.52321 29.35605 2.63695 30.05095 3.32483 30.74585 4.01273 31.8603 5.11208 32.5552 5.78781 33.2501 6.46355 34.36453 7.53809 35.05945 8.19513 35.75435 8.85217 36.86879 9.89145 37.5637 10.52344 38.25862 11.15541 39.37305 12.14929 40.06793 12.75012 40.76285 13.35094 41.87729 14.28976 42.5722 14.8538 43.2671 15.41783 44.38153 16.29358 45.07645 16.81538 45.77135 17.33717 46.88579 18.14026 47.58069 18.61465 48.2756 19.08902 49.39003 19.8119 50.08493 20.23445 50.77985 20.65697 51.89429 21.29347 52.58919 21.66 53.2841 22.02652 54.39853 22.56915 55.09343 22.87611 55.78833 23.18306 56.90277 23.62762 57.59769 23.87228 58.29259 24.11696 59.40703 24.45975 60.10193 24.63956 60.79684 24.81937 61.91129 25.055 62.60619 25.16821 63.30109 25.2814 64.41551 25.4098 65.11043 25.45549 65.80533 25.50117 66.91977 25.51994 67.61469 25.49754 68.30959 25.47511 69.42403 25.38419 70.11893 25.29395 70.81383 25.20369 71.92827 25.00421 72.62317 24.84703 73.31808 24.68987 74.43251 24.38387 75.12743 24.16112 75.82233 23.93839 76.93677 23.52763 77.63168 23.24164 78.32657 22.95564 79.441 22.44646 80.13591 22.09988 80.83083 21.7533 81.94527 21.14752 82.64017 20.74362 83.33508 20.33972 84.44951 19.64598 85.14442 19.18884 85.83931 18.73169 86.95375 17.95488 87.64867 17.44875 88.34357 16.94261 89.458 16.09103 90.15291 15.54088 90.84782 14.99072 91.96227 14.07253 92.65717 13.48352 93.35207 12.89452 94.4665 11.91788 95.16139 11.29576 95.85631 10.67365 96.97075 9.64888 97.66566 8.99977 98.36057 8.35065 99.47499 7.28745 100.1699 6.61739 100.86482 5.94733 101.97926 4.8548 102.67415 4.17035 103.36906 3.48592 104.48349 2.3765 105.17839 1.6844 105.8733 .9923 106.98775-.12447 107.68266-.81786 108.37756-1.51126 109.49199-2.62527 110.18689-3.31316 110.88179-4.00105 111.99623-5.1 112.69115-5.77576 113.38606-6.45148 114.50049-7.52635 115.19539-8.18346 115.8903-8.84055 117.00475-9.87961 117.69963-10.51175 118.39455-11.14389 119.50897-12.13852 120.20389-12.7396 120.89879-13.3407 122.01323-14.27986 122.70815-14.84407 123.40306-15.40828 124.51749-16.28406 125.21239-16.80605 125.90729-17.32802 127.02173-18.13148 127.71663-18.60608 128.41155-19.08067 129.52597-19.80385 130.22089-20.22667 130.91579-20.64946 132.03023-21.28653 132.72515-21.65337 133.42003-22.02022 134.53447-22.56334 135.22937-22.87067 135.92429-23.17798 137.03873-23.62334 137.73363-23.8684 138.42855-24.11345 139.54297-24.45671 140.23789-24.63684 140.93277-24.81696 142.04721-25.05318 142.74213-25.16664 143.43703-25.28012 144.55147-25.4087 145.24637-25.45471 145.94129-25.50072 147.05573-25.52045 147.75063-25.49832 148.44553-25.47618 149.55995-25.38503 150.25487-25.29509 150.94977-25.20517 152.06421-25.007 152.75913-24.85016 153.45403-24.69331 154.56845-24.38716 155.26337-24.16463 155.95827-23.94212 157.07273-23.53198 157.76761-23.24632 158.46253-22.96066 160.27187-22.10573 160.27187-22.10573"/>
<path transform="matrix(1.00003,0,0,-1.00005,13.855911,70.545879)" stroke-width=".3985" stroke-linecap="butt" stroke-miterlimit="10" stroke-linejoin="miter" fill="none" stroke="#ff0000" d="M32.9459 29.75293 44.64589 48.47292"/>
<path transform="matrix(-.5299959,.84803238,.8480154,.53000649,46.80282,40.79145)" d="M1.99252 0-1.19551 1.59401 0 0-1.19551-1.59401" fill="#ff0000"/>
<path transform="matrix(1.00003,0,0,-1.00005,13.855911,70.545879)" d="M6.4596 42.6945H86.81728V68.5979H6.4596Z" fill="#ffffff"/>
<use data-text="y" xlink:href="#font_1_3" transform="matrix(9.962899,0,0,-9.963098,21.312134,17.387223)" fill="#ff0000"/>
<use data-text="=" xlink:href="#font_3_3" transform="matrix(9.962899,0,0,-9.963098,29.32138,17.387223)" fill="#ff0000"/>
<use data-text="s" xlink:href="#font_3_6" transform="matrix(9.962899,0,0,-9.963098,39.82228,17.387223)" fill="#ff0000"/>
<use data-text="i" xlink:href="#font_3_4" transform="matrix(9.962899,0,0,-9.963098,43.747667,17.387223)" fill="#ff0000"/>
<use data-text="n" xlink:href="#font_3_5" transform="matrix(9.962899,0,0,-9.963098,46.507394,17.387223)" fill="#ff0000"/>
<use data-text="(" xlink:href="#font_4_1" transform="matrix(9.962899,0,0,-9.963098,53.730119,3.33852)" fill="#ff0000"/>
<use data-text="2" xlink:href="#font_3_1" transform="matrix(9.962899,0,0,-9.963098,61.06433,17.387223)" fill="#ff0000"/>
<use data-text="x" xlink:href="#font_1_2" transform="matrix(9.962899,0,0,-9.963098,66.04549,17.387223)" fill="#ff0000"/>
<use data-text="&#x2212;" xlink:href="#font_5_1" transform="matrix(9.962899,0,0,-9.963098,73.95372,17.387223)" fill="#ff0000"/>
<use data-text="&#x03c0;" xlink:href="#font_1_1" transform="matrix(9.962899,0,0,-9.963098,85.11206,10.646881)" fill="#ff0000"/>
<path transform="matrix(1.00003,0,0,-1.00005,-75.54578,-40.165655)" stroke-width=".3985" stroke-linecap="butt" stroke-miterlimit="10" stroke-linejoin="miter" fill="none" stroke="#ff0000" d="M160.653-55.059H166.69"/>
<use data-text="3" xlink:href="#font_3_2" transform="matrix(9.962899,0,0,-9.963098,85.64006,24.22157)" fill="#ff0000"/>
<use data-text=")" xlink:href="#font_4_2" transform="matrix(9.962899,0,0,-9.963098,92.34427,3.3385239)" fill="#ff0000"/>
<path transform="matrix(1.00003,0,0,-1.00005,13.855911,70.545879)" stroke-width=".3985" stroke-linecap="butt" stroke-miterlimit="10" stroke-linejoin="miter" fill="none" stroke="#0000ff" d="M78.24438 29.08841 89.29182 35.71695"/>
<path transform="matrix(-.8574957,.5145257,.51451548,.85751286,92.10266,41.456)" d="M1.99252 0-1.19551 1.59401 0 0-1.19551-1.59401" fill="#0000ff"/>
<path transform="matrix(1.00003,0,0,-1.00005,13.855911,70.545879)" d="M94.47246 26.75035H169.84876V52.65375H94.47246Z" fill="#ffffff"/>
<use data-text="y" xlink:href="#font_1_3" transform="matrix(9.962899,0,0,-9.963098,109.32778,33.33302)" fill="#0000ff"/>
<use data-text="=" xlink:href="#font_3_3" transform="matrix(9.962899,0,0,-9.963098,117.33703,33.33302)" fill="#0000ff"/>
<use data-text="s" xlink:href="#font_3_6" transform="matrix(9.962899,0,0,-9.963098,127.83793,33.33302)" fill="#0000ff"/>
<use data-text="i" xlink:href="#font_3_4" transform="matrix(9.962899,0,0,-9.963098,131.7633,33.33302)" fill="#0000ff"/>
<use data-text="n" xlink:href="#font_3_5" transform="matrix(9.962899,0,0,-9.963098,134.52304,33.33302)" fill="#0000ff"/>
<use data-text="(" xlink:href="#font_4_1" transform="matrix(9.962899,0,0,-9.963098,141.74576,19.284317)" fill="#0000ff"/>
<use data-text="x" xlink:href="#font_1_2" transform="matrix(9.962899,0,0,-9.963098,149.07999,33.33302)" fill="#0000ff"/>
<use data-text="&#x2212;" xlink:href="#font_5_1" transform="matrix(9.962899,0,0,-9.963098,156.98822,33.33302)" fill="#0000ff"/>
<use data-text="&#x03c0;" xlink:href="#font_1_1" transform="matrix(9.962899,0,0,-9.963098,168.14655,26.592679)" fill="#0000ff"/>
<path transform="matrix(1.00003,0,0,-1.00005,12.4698719,-24.219857)" stroke-width=".3985" stroke-linecap="butt" stroke-miterlimit="10" stroke-linejoin="miter" fill="none" stroke="#0000ff" d="M155.672-55.059H161.708"/>
<use data-text="3" xlink:href="#font_3_2" transform="matrix(9.962899,0,0,-9.963098,168.67456,40.167367)" fill="#0000ff"/>
<use data-text=")" xlink:href="#font_4_2" transform="matrix(9.962899,0,0,-9.963098,175.37876,19.28432)" fill="#0000ff"/>
<use data-text="b" xlink:href="#font_2_35" transform="matrix(9.962899,0,0,-9.963098,73.80171,141.97745)" fill="#0000ff"/>
<use data-text="." xlink:href="#font_2_88" transform="matrix(9.962899,0,0,-9.963098,79.34109,141.97745)" fill="#0000ff"/>
<use data-text="S" xlink:href="#font_2_97" transform="matrix(9.962899,0,0,-9.963098,86.52433,141.97745)" fill="#0000ff"/>
<use data-text="t" xlink:href="#font_2_105" transform="matrix(9.962899,0,0,-9.963098,92.063709,141.97745)" fill="#0000ff"/>
<use data-text="e" xlink:href="#font_2_50" transform="matrix(9.962899,0,0,-9.963098,95.93928,141.97745)" fill="#0000ff"/>
<use data-text="p" xlink:href="#font_2_84" transform="matrix(9.962899,0,0,-9.963098,100.3628,141.97745)" fill="#0000ff"/>
<use data-text="2" xlink:href="#font_2_107" transform="matrix(9.962899,0,0,-9.963098,109.21982,141.97745)" fill="#0000ff"/>
</svg>
