<svg xmlns="http://www.w3.org/2000/svg" xmlns:xlink="http://www.w3.org/1999/xlink" version="1.1" width="174" height="139" viewBox="0 0 174 139">
<defs>
<path id="font_1_3" d="M.33399964 .30233766C.33999635 .32835389 .36299134 .42037965 .43299867 .42037965 .43798829 .42037965 .46199037 .42037965 .48298646 .40734864 .45498658 .402359 .43499757 .37734986 .43499757 .35334779 .43499757 .33735658 .44599916 .31835938 .47299195 .31835938 .49499513 .31835938 .5269928 .3363495 .5269928 .37635804 .5269928 .42837525 .46798707 .4423828 .43399049 .4423828 .37599183 .4423828 .34098817 .38935853 .32899476 .36634828 .3039856 .43237306 .25 .4423828 .22099304 .4423828 .116989139 .4423828 .05999756 .3133545 .05999756 .28834535 .05999756 .27833558 .069992069 .27833558 .07199097 .27833558 .07998657 .27833558 .08299255 .28033448 .084991458 .28933717 .11898804 .39535523 .18499756 .42037965 .21899414 .42037965 .23799134 .42037965 .272995 .4113617 .272995 .35334779 .272995 .32235719 .2559967 .25532533 .21899414 .11528015 .20298767 .053268434 .16799927 .011245728 .12399292 .011245728 .117996219 .011245728 .09498596 .011245728 .07398987 .024276734 .09899902 .029266358 .12098694 .05027771 .12098694 .07827759 .12098694 .105270389 .09899902 .11328125 .083999637 .11328125 .053985597 .11328125 .0289917 .08728027 .0289917 .055267335 .0289917 .009246826 .07899475-.0107421879 .12298584-.0107421879 .18899536-.0107421879 .22499085 .059280397 .22799683 .0652771 .23999024 .028274537 .27598573-.0107421879 .33599855-.0107421879 .43899537-.0107421879 .49598695 .118270877 .49598695 .14328003 .49598695 .1532898 .4869995 .1532898 .48399354 .1532898 .47499085 .1532898 .47299195 .14929199 .47099305 .14228821 .43798829 .03527832 .36999513 .011245728 .33799745 .011245728 .29899598 .011245728 .2829895 .043273927 .2829895 .07727051 .2829895 .09927368 .2889862 .121276859 .2999878 .16529846L.33399964 .30233766Z"/>
<path id="font_1_4" d="M.48599244 .38136292C.48999024 .39537049 .48999024 .39736939 .48999024 .40437318 .48999024 .42237855 .47599793 .43138124 .46099855 .43138124 .45098878 .43138124 .43499757 .42536927 .42599488 .41036988 .42399598 .405365 .41600038 .37435914 .4119873 .35635377 .40499879 .33035279 .397995 .30334474 .3919983 .27633668L.34700013 .09628296C.34298707 .08126831 .2999878 .011245728 .23399353 .011245728 .18299866 .011245728 .17199707 .055267335 .17199707 .0922699 .17199707 .1382904 .18899536 .20030213 .22299195 .28833009 .23899842 .3293457 .24299622 .3403473 .24299622 .36035157 .24299622 .405365 .21099854 .4423828 .16099549 .4423828 .06599426 .4423828 .0289917 .29733277 .0289917 .28833009 .0289917 .27833558 .038986207 .27833558 .040985109 .27833558 .050994874 .27833558 .051986696 .28033448 .056991579 .29634095 .083999637 .3903656 .12399292 .42037965 .1579895 .42037965 .1659851 .42037965 .18299866 .42037965 .18299866 .3883667 .18299866 .36335755 .17298889 .3373413 .1659851 .31834413 .12599182 .21231079 .10798645 .1552887 .10798645 .10827637 .10798645 .019256592 .17098999-.0107421879 .22999573-.0107421879 .2689972-.0107421879 .30299378 .0062561037 .33099366 .03425598 .31799317-.017745972 .30599977-.06674194 .2659912-.11973572 .23999024-.15385437 .20199585-.18309021 .1559906-.18309021 .14199829-.18309021 .09700012-.18005371 .07998657-.14074707 .09599304-.14074707 .10899353-.14074707 .12298584-.1287384 .1329956-.11973572 .14299011-.10673523 .14299011-.08773804 .14299011-.056747438 .115997318-.052734376 .10598755-.052734376 .08299255-.052734376 .049987794-.068740848 .049987794-.11773682 .049987794-.16796875 .09399414-.20507813 .1559906-.20507813 .25898744-.20507813 .3619995-.11373901 .3899994-.00074768069L.48599244 .38136292Z"/>
<path id="font_2_64" d="M.27598573 .18710327V.24511719H.010986328V.18710327H.27598573Z"/>
<path id="font_2_82" d="M.4189911 0V.0309906H.3869934C.29699708 .0309906 .2939911 .041992189 .2939911 .07902527V.64012148C.2939911 .6640167 .2939911 .6660156 .2709961 .6660156 .20899964 .60227969 .12098694 .60227969 .08898926 .60227969V.57128909C.10899353 .57128909 .16799927 .57128909 .21998596 .5972748V.07902527C.21998596 .042999269 .21699524 .0309906 .1269989 .0309906H.09498596V0C.12998963 .0029907227 .21699524 .0029907227 .25698854 .0029907227 .29699708 .0029907227 .38398744 .0029907227 .4189911 0Z"/>
<path id="font_1_1" d="M.2649994 .37265016H.37799073C.34498597 .22489929 .33599855 .18196106 .33599855 .11508179 .33599855 .100097659 .33599855 .073150638 .34399415 .03919983 .35398866-.0047454836 .36499024-.0107421879 .37998963-.0107421879 .3999939-.0107421879 .42099 .007247925 .42099 .02722168 .42099 .033218385 .42099 .035202028 .4149933 .049179079 .38598634 .12106323 .38598634 .18595886 .38598634 .21391297 .38598634 .26683045 .3929901 .32073976 .4039917 .37265016H.5179901C.5309906 .37265016 .5669861 .37265016 .5669861 .406662 .5669861 .43066407 .54599 .43066407 .5269928 .43066407H.19198609C.16999817 .43066407 .13198853 .43066407 .08799744 .38365174 .052993776 .34469605 .026992798 .29878236 .026992798 .29379273 .026992798 .29278565 .026992798 .28379823 .038986207 .28379823 .04699707 .28379823 .04899597 .28779603 .054992677 .29577638 .10398865 .37265016 .1619873 .37265016 .18199158 .37265016H.23899842C.20698548 .25186158 .15299988 .13105774 .11099243 .04020691 .102996829 .025222779 .102996829 .023223877 .102996829 .016235352 .102996829-.002746582 .11898804-.0107421879 .13198853-.0107421879 .1619873-.0107421879 .16999817 .017242432 .18199158 .05418396 .19599915 .100097659 .19599915 .10209656 .20899964 .15202332L.2649994 .37265016Z"/>
<path id="font_3_3" d="M.1269989 .07699585 .23298645 .18003845C.3889923 .31811524 .44898988 .3721466 .44898988 .47216798 .44898988 .5860901 .35899354 .6660156 .23699951 .6660156 .12399292 .6660156 .049987794 .57411196 .049987794 .48516847 .049987794 .4291687 .099990848 .4291687 .102996829 .4291687 .11999512 .4291687 .15499878 .44117738 .15499878 .48217774 .15499878 .5081787 .13699341 .5341797 .101989749 .5341797 .09399414 .5341797 .09199524 .5341797 .08898926 .5331726 .11199951 .59806826 .1659851 .63500979 .22399903 .63500979 .31498719 .63500979 .35798646 .5541382 .35798646 .47216798 .35798646 .39215089 .30799867 .31311036 .25299073 .25108338L.06098938 .036987306C.049987794 .025985718 .049987794 .023986817 .049987794 0H.42099L.44898988 .17404175H.42399598C.4189911 .14402771 .4119873 .1000061 .4019928 .084991458 .394989 .07699585 .32899476 .07699585 .30699159 .07699585H.1269989Z"/>
<path id="font_1_2" d="M.47099305 .3773346C.47200013 .3833313 .47399903 .38833619 .47399903 .39535523 .47399903 .41236878 .46199037 .42237855 .44499208 .42237855 .43499757 .42237855 .4079895 .41537477 .4039917 .3793335 .38598634 .41636659 .35099793 .4423828 .31098939 .4423828 .19699097 .4423828 .07299805 .30226136 .07299805 .15812683 .07299805 .059020997 .13398743 0 .20599365 0 .2649994 0 .31199647 .04701233 .32199098 .058029176L.32299806 .057022096C.3019867-.031982423 .2899933-.07295227 .2899933-.07495117 .28599549-.08395386 .2519989-.18309021 .1459961-.18309021 .1269989-.18309021 .09399414-.18206787 .06599426-.17297364 .09599304-.16394043 .10699463-.13793946 .10699463-.12094116 .10699463-.10494995 .09599304-.0859375 .068984989-.0859375 .04699707-.0859375 .01499939-.10394287 .01499939-.14395142 .01499939-.18508911 .051986696-.20507813 .147995-.20507813 .272995-.20507813 .34498597-.12693787 .3600006-.06695557L.47099305 .3773346M.34098817 .12809754C.33499146 .10206604 .31199647 .077041629 .2899933 .058029176 .2689972 .040008546 .23799134 .021987915 .20899964 .021987915 .15899658 .021987915 .14399719 .074035648 .14399719 .11407471 .14399719 .16212464 .17298889 .28024293 .19999695 .33128358 .22698975 .38034059 .269989 .42037965 .31199647 .42037965 .37799073 .42037965 .3919983 .33929444 .3919983 .33428956 .3919983 .32928468 .3899994 .3232727 .3889923 .3192749L.34098817 .12809754Z"/>
<path id="font_3_1" d="M.33099366-.2400055C.33099366-.23701477 .33099366-.23500061 .31399537-.21800232 .18899536-.0920105 .15699768 .09700012 .15699768 .25 .15699768 .42399598 .19499207 .59799197 .31799317 .72299197 .33099366 .73498538 .33099366 .7369995 .33099366 .73999026 .33099366 .746994 .32699586 .75 .32099916 .75 .31098939 .75 .22099304 .6819916 .1619873 .5549927 .11099243 .44499208 .09899902 .33399964 .09899902 .25 .09899902 .17199707 .10998535 .050994874 .16499329-.06201172 .22499085-.18501282 .31098939-.25 .32099916-.25 .32699586-.25 .33099366-.24700928 .33099366-.2400055Z"/>
<path id="font_3_2" d="M.2889862 .25C.2889862 .32798768 .27799989 .44898988 .22299195 .56199648 .16299439 .68499758 .07699585 .75 .066986087 .75 .06098938 .75 .056991579 .74598696 .056991579 .73999026 .056991579 .7369995 .056991579 .73498538 .07598877 .71699526 .17399597 .6179962 .23098755 .45899964 .23098755 .25 .23098755 .07899475 .19400025-.09700012 .069992069-.2230072 .056991579-.23500061 .056991579-.23701477 .056991579-.2400055 .056991579-.2460022 .06098938-.25 .066986087-.25 .07699585-.25 .16699219-.18200684 .22599793-.055007936 .2769928 .054992677 .2889862 .16600037 .2889862 .25Z"/>
<path id="font_3_5" d="M.68699648 .32714845C.70199587 .32714845 .72099307 .32714845 .72099307 .34713746 .72099307 .36714173 .70199587 .36714173 .6879883 .36714173H.08898926C.07499695 .36714173 .055999757 .36714173 .055999757 .34713746 .055999757 .32714845 .07499695 .32714845 .08999634 .32714845H.68699648M.6879883 .13284302C.70199587 .13284302 .72099307 .13284302 .72099307 .15284729 .72099307 .17285156 .70199587 .17285156 .68699648 .17285156H.08999634C.07499695 .17285156 .055999757 .17285156 .055999757 .15284729 .055999757 .13284302 .07499695 .13284302 .08898926 .13284302H.6879883Z"/>
<path id="font_3_8" d="M.20799256 .19424439C.22999573 .19024658 .31199647 .17424011 .31199647 .102249149 .31199647 .051254274 .2769928 .011245728 .19898987 .011245728 .114990238 .011245728 .07899475 .06825256 .05999756 .15324402 .056991579 .1662445 .055999757 .17024231 .04598999 .17024231 .032989503 .17024231 .032989503 .16323853 .032989503 .14524842V.013244629C.032989503-.003753662 .032989503-.0107421879 .04399109-.0107421879 .04899597-.0107421879 .049987794-.009750366 .068984989 .009246826 .070999149 .011245728 .070999149 .013244629 .08898926 .03224182 .1329956-.009750366 .17799378-.0107421879 .19898987-.0107421879 .31399537-.0107421879 .3600006 .056243898 .3600006 .12825012 .3600006 .1812439 .32998658 .21124268 .31799317 .22323609 .2849884 .25523377 .24598694 .26324464 .20399475 .27124024 .147995 .28224183 .08099365 .2952423 .08099365 .35324098 .08099365 .38822938 .10699463 .42922975 .19299317 .42922975 .30299378 .42922975 .30799867 .3392334 .30999757 .3082428 .31098939 .2992401 .31999208 .2992401 .32199098 .2992401 .33499146 .2992401 .33499146 .304245 .33499146 .3232422V.4242401C.33499146 .4412384 .33499146 .4482422 .32398988 .4482422 .31900025 .4482422 .31698609 .4482422 .3039856 .43623353 .30099488 .43223573 .29100038 .42323304 .2869873 .42022706 .24899292 .4482422 .20799256 .4482422 .19299317 .4482422 .070999149 .4482422 .032989503 .38124085 .032989503 .3252411 .032989503 .29023744 .04899597 .26223756 .07598877 .24023438 .10798645 .21424866 .13598633 .2082367 .20799256 .19424439Z"/>
<path id="font_3_6" d="M.1769867 .4423828 .036987306 .43138124V.40037538C.101989749 .40037538 .11099243 .3943634 .11099243 .34532167V.076034549C.11099243 .0309906 .099990848 .0309906 .032989503 .0309906V0C.06498718 .0009918213 .11898804 .0029907227 .14299011 .0029907227 .17799378 .0029907227 .21299744 .0009918213 .24699402 0V.0309906C.18099976 .0309906 .1769867 .035995485 .1769867 .075042728V.4423828M.18099976 .6159363C.18099976 .64793398 .1559906 .6689453 .12799073 .6689453 .09700012 .6689453 .07499695 .64193728 .07499695 .6159363 .07499695 .5889435 .09700012 .5629425 .12799073 .5629425 .1559906 .5629425 .18099976 .5839386 .18099976 .6159363Z"/>
<path id="font_3_7" d="M.10998535 .34429933V.076034549C.10998535 .0309906 .09899902 .0309906 .03199768 .0309906V0C.066986087 .0009918213 .117996219 .0029907227 .14498902 .0029907227 .17098999 .0029907227 .22299195 .0009918213 .25698854 0V.0309906C.18998719 .0309906 .1789856 .0309906 .1789856 .076034549V.2602234C.1789856 .36431886 .25 .42037965 .31399537 .42037965 .3769989 .42037965 .3880005 .36631776 .3880005 .30926515V.076034549C.3880005 .0309906 .3769989 .0309906 .30999757 .0309906V0C.34498597 .0009918213 .3959961 .0029907227 .4229889 .0029907227 .44898988 .0029907227 .5009918 .0009918213 .5349884 0V.0309906C.48298646 .0309906 .45799256 .0309906 .45700074 .061019899V.25221253C.45700074 .3383026 .45700074 .36932374 .42599488 .405365 .4119873 .42237855 .3789978 .4423828 .32099916 .4423828 .24798584 .4423828 .20098877 .39935304 .17298889 .33729554V.4423828L.03199768 .43138124V.40037538C.101989749 .4003601 .10998535 .39335633 .10998535 .34429933Z"/>
<path id="font_4_1" d="M.69999697-2.3488923C.69999697-2.3448945 .69799807-2.3428956 .69599917-2.3399049 .6589966-2.3029023 .59199526-2.2359009 .5249939-2.1278992 .3639984-1.8699188 .29100038-1.5449219 .29100038-1.1599274 .29100038-.89094546 .32699586-.5439453 .49198915-.24595642 .57099917-.10395813 .6529999-.021957398 .69699099 .022033692 .69999697 .025024414 .69999697 .027038575 .69999697 .030029297 .69999697 .040039064 .69299319 .040039064 .67900088 .040039064 .6649933 .040039064 .6629944 .040039064 .647995 .025024414 .31298829-.279953 .20799256-.73794558 .20799256-1.1589356 .20799256-1.5519257 .2979889-1.9479065 .5519867-2.2469025 .57199099-2.2698975 .6100006-2.3108979 .651001-2.3468934 .6629944-2.358902 .6649933-2.358902 .67900088-2.358902 .69299319-2.358902 .69999697-2.358902 .69999697-2.3488923Z"/>
<path id="font_5_1" d="M.6589966 .23046875C.6759949 .23046875 .69400027 .23046875 .69400027 .25045777 .69400027 .27046205 .6759949 .27046205 .6589966 .27046205H.117996219C.100997928 .27046205 .08299255 .27046205 .08299255 .25045777 .08299255 .23046875 .100997928 .23046875 .117996219 .23046875H.6589966Z"/>
<path id="font_3_4" d="M.2899933 .35191346C.37199403 .37893678 .42999269 .4490509 .42999269 .52809146 .42999269 .6100464 .34199525 .6660156 .24598694 .6660156 .14498902 .6660156 .068984989 .60606387 .068984989 .53009036 .068984989 .49710084 .09098816 .47808839 .11999512 .47808839 .15098572 .47808839 .17098999 .50009158 .17098999 .5290985 .17098999 .57910159 .12399292 .57910159 .10899353 .57910159 .13999939 .62802127 .20599365 .64100649 .24198914 .64100649 .2829895 .64100649 .33799745 .6190338 .33799745 .5290985 .33799745 .51708987 .33599855 .45906068 .30999757 .4149933 .27999879 .36691285 .24598694 .36390687 .22099304 .36291505 .21299744 .36190797 .18899536 .35990907 .18199158 .35990907 .17399597 .35890199 .16699219 .35791017 .16699219 .3479004 .16699219 .33691407 .17399597 .33691407 .19099427 .33691407H.23498535C.31698609 .33691407 .35398866 .2686615 .35398866 .17037964 .35398866 .034469606 .2849884 .0055389406 .24099732 .0055389406 .19799805 .0055389406 .12298584 .022491456 .08799744 .08137512 .12298584 .07637024 .1539917 .09837341 .1539917 .1363678 .1539917 .17237854 .1269989 .19238281 .09799194 .19238281 .07398987 .19238281 .041992189 .17837525 .041992189 .1343689 .041992189 .043441774 .1349945-.022460938 .24398804-.022460938 .3659973-.022460938 .45700074 .06838989 .45700074 .17037964 .45700074 .252594 .3939972 .33088685 .2899933 .35191346Z"/>
<path id="font_4_2" d="M.5269928-1.1599274C.5269928-.76693728 .43699647-.37095643 .18299866-.07196045 .16299439-.048965455 .125-.007965088 .083999637 .028030396 .07199097 .040039064 .069992069 .040039064 .055999757 .040039064 .04399109 .040039064 .034988405 .040039064 .034988405 .030029297 .034988405 .026031495 .038986207 .022033692 .040985109 .02003479 .07598877-.015960694 .14299011-.082962039 .20999146-.19096375 .37098695-.4489441 .44400025-.77394106 .44400025-1.1589356 .44400025-1.4279175 .4079895-1.7749176 .24299622-2.0729066 .1639862-2.2149049 .08099365-2.2978974 .038986207-2.3399049 .036987306-2.3428956 .034988405-2.3459016 .034988405-2.3488923 .034988405-2.358902 .04399109-2.358902 .055999757-2.358902 .069992069-2.358902 .07199097-2.358902 .08699036-2.3439027 .42199708-2.03891 .5269928-1.5809174 .5269928-1.1599274Z"/>
</defs>
<path transform="matrix(1.00005,0,0,-1.00005,13.713829,64.02655)" stroke-width=".3985" stroke-linecap="butt" stroke-miterlimit="10" stroke-linejoin="miter" fill="none" stroke="#00aeef" d="M0-45.35504H142.48685M0-34.01628H142.48685M0-22.67752H142.48685M0-11.33876H142.48685M0 0H142.48685M0 11.33876H142.48685M0 22.67752H142.48685M0 34.01628H142.48685M0 45.35504H142.48685M0-45.35506V45.35506M11.8737-45.35506V45.35506M23.74744-45.35506V45.35506M35.62115-45.35506V45.35506M47.49489-45.35506V45.35506M59.3686-45.35506V45.35506M71.24234-45.35506V45.35506M83.11607-45.35506V45.35506M94.98979-45.35506V45.35506M106.86353-45.35506V45.35506M118.73724-45.35506V45.35506M130.61098-45.35506V45.35506M142.4847-45.35506V45.35506M142.48685 45.35506"/>
<path transform="matrix(1.00005,0,0,-1.00005,13.713829,64.02655)" stroke-width=".79701" stroke-linecap="butt" stroke-miterlimit="10" stroke-linejoin="miter" fill="none" stroke="#000000" d="M0 0H148.23723"/>
<path transform="matrix(1.00005,0,0,-1.00005,161.95847,64.02655)" d="M1.0361 0C-.25902 .25902-1.55415 .77707-3.1083 1.68365-1.55415 .51805-1.55415-.51805-3.1083-1.68365-1.55415-.77707-.25902-.25902 1.0361 0Z"/>
<path transform="matrix(1.00005,0,0,-1.00005,161.95847,64.02655)" stroke-width=".79701" stroke-linecap="butt" stroke-linejoin="round" fill="none" stroke="#000000" d="M1.0361 0C-.25902 .25902-1.55415 .77707-3.1083 1.68365-1.55415 .51805-1.55415-.51805-3.1083-1.68365-1.55415-.77707-.25902-.25902 1.0361 0Z"/>
<use data-text="x" xlink:href="#font_1_3" transform="matrix(9.963098,0,0,-9.963098,167.11249,66.17166)"/>
<path transform="matrix(1.00005,0,0,-1.00005,13.713829,64.02655)" stroke-width=".79701" stroke-linecap="butt" stroke-miterlimit="10" stroke-linejoin="miter" fill="none" stroke="#000000" d="M0-45.35506V50.72377"/>
<path transform="matrix(0,-1.00005,-1.00005,-0,13.713829,13.300247)" d="M1.0361 0C-.25902 .25902-1.55415 .77707-3.1083 1.68365-1.55415 .51805-1.55415-.51805-3.1083-1.68365-1.55415-.77707-.25902-.25902 1.0361 0Z"/>
<path transform="matrix(0,-1.00005,-1.00005,-0,13.713829,13.300247)" stroke-width=".79701" stroke-linecap="butt" stroke-linejoin="round" fill="none" stroke="#000000" d="M1.0361 0C-.25902 .25902-1.55415 .77707-3.1083 1.68365-1.55415 .51805-1.55415-.51805-3.1083-1.68365-1.55415-.77707-.25902-.25902 1.0361 0Z"/>
<use data-text="y" xlink:href="#font_1_4" transform="matrix(9.963098,0,0,-9.963098,11.092697,6.208664)"/>
<path transform="matrix(1.00005,0,0,-1.00005,13.713829,64.02655)" stroke-width=".79701" stroke-linecap="butt" stroke-miterlimit="10" stroke-linejoin="miter" fill="none" stroke="#000000" d="M1.13393-22.67752H-1.13394"/>
<path transform="matrix(1.00005,0,0,-1.00005,13.713829,64.02655)" d="M-13.81653-26.9914H-3.52501V-18.36365H-13.81653Z" fill="#ffffff"/>
<use data-text="-" xlink:href="#font_2_64" transform="matrix(9.963098,0,0,-9.963098,.8931885,90.02285)"/>
<use data-text="1" xlink:href="#font_2_82" transform="matrix(9.963098,0,0,-9.963098,4.2108995,90.02285)"/>
<path transform="matrix(1.00005,0,0,-1.00005,13.713829,64.02655)" stroke-width=".79701" stroke-linecap="butt" stroke-miterlimit="10" stroke-linejoin="miter" fill="none" stroke="#000000" d="M1.13393 22.67752H-1.13394"/>
<path transform="matrix(1.00005,0,0,-1.00005,13.713829,64.02655)" d="M-10.49893 18.36363H-3.52499V26.99138H-10.49893Z" fill="#ffffff"/>
<use data-text="1" xlink:href="#font_2_82" transform="matrix(9.963098,0,0,-9.963098,4.21035,44.66558)"/>
<path transform="matrix(1.00005,0,0,-1.00005,13.713829,64.02655)" stroke-width=".79701" stroke-linecap="butt" stroke-miterlimit="10" stroke-linejoin="miter" fill="none" stroke="#000000" d="M71.24341 2.26787V-2.26753"/>
<use data-text="&#x03c0;" xlink:href="#font_1_1" transform="matrix(9.963098,0,0,-9.963098,81.94224,76.296169)"/>
<path transform="matrix(1.00005,0,0,-1.00005,13.713829,64.02655)" stroke-width=".79701" stroke-linecap="butt" stroke-miterlimit="10" stroke-linejoin="miter" fill="none" stroke="#000000" d="M142.48685 2.26787V-2.26753"/>
<use data-text="2" xlink:href="#font_3_3" transform="matrix(9.963098,0,0,-9.963098,150.69867,78.42727)"/>
<use data-text="&#x03c0;" xlink:href="#font_1_1" transform="matrix(9.963098,0,0,-9.963098,155.67992,78.42727)"/>
<path transform="matrix(1.00005,0,0,-1.00005,13.713829,64.02655)" stroke-width=".79701" stroke-linecap="butt" stroke-dasharray="2.98883,2.98883" stroke-miterlimit="10" stroke-linejoin="miter" fill="none" stroke="#ff0000" d="M0 0C0 0 1.6083 3.21947 2.226 4.4233 2.8437 5.62714 3.8343 7.54236 4.45201 8.67639 5.06972 9.81041 6.06033 11.5758 6.67804 12.59657 7.29575 13.61732 8.28636 15.16531 8.90407 16.03336 9.52177 16.90138 10.51239 18.17082 11.1301 18.85281 11.74779 19.53482 12.7384 20.47882 13.3561 20.94875 13.9738 21.41867 14.96443 21.99997 15.58212 22.23979 16.19983 22.4796 17.19044 22.67685 17.80815 22.67717 18.42586 22.6775 19.41647 22.48145 20.03418 22.2422 20.65189 22.00298 21.64249 21.42229 22.2602 20.9529 22.87788 20.48349 23.86852 19.54062 24.48622 18.85905 25.10391 18.17749 26.09454 16.90828 26.71223 16.04063 27.32994 15.17296 28.32056 13.62593 28.93826 12.60556 29.55597 11.58519 30.54657 9.82024 31.16428 8.68642 31.78198 7.5526 32.77261 5.63742 33.3903 4.4337 34.00801 3.22995 34.99863 1.23805 35.61633 .01071 36.23402-1.21661 37.22466-3.20834 37.84235-4.41223 38.46005-5.6161 39.45067-7.5317 40.06836-8.666 40.68607-9.8003 41.6767-11.56648 42.2944-12.58759 42.9121-13.60869 43.90271-15.15692 44.52042-16.0254 45.13812-16.89388 46.12874-18.16443 46.74644-18.84695 47.36414-19.52946 48.35475-20.47412 48.97246-20.94458 49.59015-21.41505 50.5808-21.99731 51.19849-22.2377 51.8162-22.47809 52.8068-22.67625 53.4245-22.67717 54.0422-22.67807 55.03282-22.48299 55.65053-22.2443 56.26823-22.00557 57.25883-21.42557 57.87654-20.9567 58.49425-20.48784 59.48488-19.54591 60.10258-18.86493 60.72028-18.18394 61.71089-16.9158 62.32858-16.04858 62.94629-15.18135 63.93692-13.63466 64.55461-12.61456 65.17232-11.59447 66.16293-9.83003 66.78062-8.69646 67.39833-7.56287 68.38896-5.64806 69.00667-4.44441 69.62437-3.24078 70.61497-1.24884 71.23268-.02144 71.85037 1.20593 72.841 3.19783 73.45871 4.40184 74.0764 5.60587 75.06703 7.52185 75.68471 8.6563 76.30241 9.79076 77.29306 11.5569 77.91075 12.57823 78.52846 13.59958 79.51906 15.14854 80.13676 16.01746 80.75447 16.88635 81.74509 18.1577 82.3628 18.8407 82.9805 19.52371 83.97112 20.46904 84.58882 20.94008 85.2065 21.41112 86.19714 21.99463 86.81485 22.23563 87.43254 22.47664 88.42316 22.67569 89.04085 22.67717 89.65855 22.67865 90.64917 22.48448 91.26688 22.24635 91.88458 22.00822 92.8752 21.42918 93.4929 20.96085 94.11061 20.49251 95.10123 19.55132 95.71893 18.87082 96.33664 18.1903 97.32724 16.92297 97.94495 16.0562 98.56264 15.1894 99.55327 13.64331 100.17096 12.62357 100.78867 11.60382 101.7793 9.83983 102.39699 8.70648 103.0147 7.57315 104.00531 5.65865 104.62302 4.45514 105.24072 3.25165 106.23132 1.2599 106.84903 .03252 107.46674-1.19487 108.45735-3.18697 109.07506-4.39113 109.69275-5.59528 110.68338-7.51158 111.30109-8.64627 111.91878-9.78096 112.90941-11.54756 113.5271-12.56923 114.1448-13.59091 115.1354-15.14044 115.75311-16.00984 116.37082-16.87923 117.36143-18.15169 117.97914-18.83517 118.59685-19.51866 119.58746-20.46448 120.20517-20.93594 120.82288-21.40741 121.81349-21.99161 122.4312-22.2332 123.04889-22.4748 124.0395-22.67502 124.6572-22.67717 125.2749-22.67932 126.26553-22.48633 126.88322-22.2488 127.50093-22.01123 128.49155-21.43282 129.10926-20.96501 129.72696-20.49718 130.71758-19.55713 131.33528-18.87704 131.95299-18.19698 132.94359-16.92987 133.5613-16.06346 134.17899-15.19707 135.16962-13.65187 135.78733-12.63257 136.40502-11.61324 137.39565-9.85002 138.01334-8.71687 138.63105-7.58371 139.62166-5.66896 140.23937-4.46552 140.85707-3.26208 142.46538-.04323 142.46538-.04323"/>
<path transform="matrix(1.00005,0,0,-1.00005,13.713829,64.02655)" stroke-width="1.19553" stroke-linecap="butt" stroke-miterlimit="10" stroke-linejoin="miter" fill="none" stroke="#0000ff" d="M0-19.639C0-19.639 1.6083-17.85907 2.226-17.04965 2.8437-16.24023 3.8343-14.77907 4.45201-13.80525 5.06972-12.83145 6.06033-11.13188 6.67804-10.0311 7.29575-8.93028 8.28636-7.05704 8.90407-5.87146 9.52177-4.68587 10.51239-2.7109 11.1301-1.48619 11.74779-.26146 12.7384 1.73851 13.3561 2.95543 13.9738 4.17236 14.96443 6.1222 15.58212 7.28464 16.19983 8.4471 17.19044 10.27039 17.80815 11.33356 18.42586 12.3967 19.41647 14.02411 20.03418 14.94716 20.65189 15.87022 21.64249 17.23888 22.2602 17.98636 22.87788 18.73384 23.86852 19.79124 24.48622 20.33453 25.10391 20.8778 26.09454 21.58394 26.71223 21.90205 27.32994 22.22017 28.32056 22.54665 28.93826 22.62735 29.55597 22.70804 30.54657 22.64337 31.16428 22.48373 31.78198 22.3241 32.77261 21.8707 33.3903 21.47678 34.00801 21.08286 34.99863 20.25778 35.61633 19.64453 36.23402 19.03131 37.22466 17.86586 37.84235 17.05693 38.46005 16.24799 39.45067 14.78772 40.06836 13.81425 40.68607 12.8408 41.6767 11.14134 42.2944 10.04077 42.9121 8.94023 43.90271 7.06758 44.52042 5.88217 45.13812 4.69678 46.12874 2.72203 46.74644 1.49727 47.36414 .2725 48.35475-1.72803 48.97246-2.94505 49.59015-4.16208 50.5808-6.11166 51.19849-7.27426 51.8162-8.43684 52.8068-10.26079 53.4245-11.32422 54.0422-12.38765 55.03282-14.01546 55.65053-14.93886 56.26823-15.86226 57.25883-17.23148 57.87654-17.97945 58.49425-18.72742 59.48488-19.78578 60.10258-20.3297 60.72028-20.87361 61.71089-21.58095 62.32858-21.89964 62.94629-22.21834 63.93692-22.54547 64.55461-22.62665 65.17232-22.70782 66.16293-22.64388 66.78062-22.48477 67.39833-22.32568 68.38896-21.87325 69.00667-21.4799 69.62437-21.08655 70.61497-20.26245 71.23268-19.64973 71.85037-19.03702 72.841-17.8723 73.45871-17.06384 74.0764-16.25539 75.06703-14.79599 75.68471-13.8229 76.30241-12.84981 77.29306-11.15079 77.91075-10.05046 78.52846-8.95015 79.51906-7.07785 80.13676-5.89255 80.75447-4.70726 81.74509-2.7323 82.3628-1.50763 82.9805-.28297 83.97112 1.71695 84.58882 2.93398 85.2065 4.151 86.19714 6.10104 86.81485 7.26387 87.43254 8.4267 88.42316 10.2511 89.04085 11.31487 89.65855 12.37865 90.64917 14.00708 91.26688 14.93091 91.88458 15.85472 92.8752 17.22482 93.4929 17.9732 94.11061 18.72159 95.10123 19.7805 95.71893 20.32484 96.33664 20.86917 97.32724 21.57726 97.94495 21.89653 98.56264 22.21579 99.55327 22.5441 100.17096 22.62595 100.78867 22.7078 101.7793 22.64503 102.39699 22.48651 103.0147 22.32799 104.00531 21.87624 104.62302 21.48335 105.24072 21.09048 106.23132 20.2671 106.84903 19.65494 107.46674 19.04276 108.45735 17.87914 109.07506 17.0711 109.69275 16.26308 110.68338 14.80391 111.30109 13.8312 111.91878 12.8585 112.90941 11.16054 113.5271 10.06052 114.1448 8.96048 115.1354 7.08809 115.75311 5.90294 116.37082 4.71779 117.36143 2.74333 117.97914 1.51872 118.59685 .2941 119.58746-1.70609 120.20517-2.92326 120.82288-4.14041 121.81349-6.09087 122.4312-7.25385 123.04889-8.41681 124.0395-10.24115 124.6572-11.30519 125.2749-12.3692 126.26553-13.99838 126.88322-14.92259 127.50093-15.8468 128.49155-17.2174 129.10926-17.96628 129.72696-18.71516 130.71758-19.77512 131.33528-20.32 131.95299-20.86487 132.94359-21.57358 133.5613-21.89342 134.17899-22.21324 135.16962-22.54279 135.78733-22.62526 136.40502-22.70773 137.39565-22.64583 138.01334-22.48788 138.63105-22.32994 139.62166-21.87917 140.23937-21.48682 140.85707-21.09447 142.46538-19.66013 142.46538-19.66013"/>
<use data-text="g" xlink:href="#font_1_2" transform="matrix(9.963098,0,0,-9.963098,39.121099,127.74973)" fill="#0000ff"/>
<use data-text="(" xlink:href="#font_3_1" transform="matrix(9.963098,0,0,-9.963098,44.23036,127.74973)" fill="#0000ff"/>
<use data-text="x" xlink:href="#font_1_3" transform="matrix(9.963098,0,0,-9.963098,48.10555,127.74973)" fill="#0000ff"/>
<use data-text=")" xlink:href="#font_3_2" transform="matrix(9.963098,0,0,-9.963098,53.79983,127.74973)" fill="#0000ff"/>
<use data-text="=" xlink:href="#font_3_5" transform="matrix(9.963098,0,0,-9.963098,60.425298,127.74973)" fill="#0000ff"/>
<use data-text="s" xlink:href="#font_3_8" transform="matrix(9.963098,0,0,-9.963098,70.93637,127.74973)" fill="#0000ff"/>
<use data-text="i" xlink:href="#font_3_6" transform="matrix(9.963098,0,0,-9.963098,74.86183,127.74973)" fill="#0000ff"/>
<use data-text="n" xlink:href="#font_3_7" transform="matrix(9.963098,0,0,-9.963098,77.62161,127.74973)" fill="#0000ff"/>
<use data-text="(" xlink:href="#font_4_1" transform="matrix(9.963098,0,0,-9.963098,84.85138,113.70203)" fill="#0000ff"/>
<use data-text="2" xlink:href="#font_3_3" transform="matrix(9.963098,0,0,-9.963098,92.18474,127.74973)" fill="#0000ff"/>
<use data-text="x" xlink:href="#font_1_3" transform="matrix(9.963098,0,0,-9.963098,97.16699,127.74973)" fill="#0000ff"/>
<use data-text="&#x2212;" xlink:href="#font_5_1" transform="matrix(9.963098,0,0,-9.963098,105.07437,127.74973)" fill="#0000ff"/>
<use data-text="&#x03c0;" xlink:href="#font_1_1" transform="matrix(9.963098,0,0,-9.963098,116.23393,121.0104)" fill="#0000ff"/>
<path transform="matrix(1.00005,0,0,-1.00005,-57.59673,76.717189)" stroke-width=".3985" stroke-linecap="butt" stroke-miterlimit="10" stroke-linejoin="miter" fill="none" stroke="#0000ff" d="M173.822-48.54H179.858"/>
<use data-text="3" xlink:href="#font_3_4" transform="matrix(9.963098,0,0,-9.963098,116.76099,134.58408)" fill="#0000ff"/>
<use data-text=")" xlink:href="#font_4_2" transform="matrix(9.963098,0,0,-9.963098,123.466327,113.70203)" fill="#0000ff"/>
</svg>
