<svg xmlns="http://www.w3.org/2000/svg" xmlns:xlink="http://www.w3.org/1999/xlink" version="1.1" width="287" height="225" viewBox="0 0 287 225">
<defs>
<path id="font_1_3" d="M.08799744 .059265138C.084991458 .044265748 .07899475 .021255494 .07899475 .01625061 .07899475-.0017547608 .09298706-.0107421879 .10798645-.0107421879 .11999512-.0107421879 .13798523-.002746582 .14498902 .01725769 .14698792 .021255494 .18099976 .15730286 .18499756 .17530823 .19299317 .20831299 .21099854 .27833558 .21699524 .30534364 .22099304 .31835938 .24899292 .36535646 .272995 .38734437 .2809906 .39434815 .30999757 .42037965 .35299684 .42037965 .3789978 .42037965 .3939972 .4083557 .394989 .4083557 .36499024 .40335084 .34298707 .37934876 .34298707 .35334779 .34298707 .33735658 .35398866 .31835938 .3809967 .31835938 .4079895 .31835938 .43598939 .34135438 .43598939 .37734986 .43598939 .41235353 .4039917 .4423828 .35299684 .4423828 .28799439 .4423828 .24398804 .39335633 .22499085 .36535646 .21699524 .4103546 .18099976 .4423828 .13398743 .4423828 .08799744 .4423828 .068984989 .40335084 .05999756 .38534547 .041992189 .35134889 .0289917 .29133607 .0289917 .28834535 .0289917 .27833558 .038986207 .27833558 .040985109 .27833558 .050994874 .27833558 .051986696 .27934266 .057998659 .30134584 .07499695 .37234498 .09498596 .42037965 .1309967 .42037965 .147995 .42037965 .1619873 .41235353 .1619873 .37435914 .1619873 .35334779 .15899658 .3423462 .1459961 .29034425L.08799744 .059265138Z"/>
<path id="font_1_1" d="M.45498658 .5001831C.45498658 .56614688 .43699647 .7050781 .33499146 .7050781 .19599915 .7050781 .041992189 .42323304 .041992189 .19425965 .041992189 .100250247 .070999149-.0107421879 .1619873-.0107421879 .30299378-.0107421879 .45498658 .27627564 .45498658 .5001831M.147995 .36328126C.16499329 .42723084 .18499756 .5071869 .22499085 .57814028 .2519989 .6271057 .2889862 .68307498 .33399964 .68307498 .3829956 .68307498 .3889923 .6191101 .3889923 .56214907 .3889923 .5131836 .3809967 .46220399 .35699464 .36328126H.147995M.34799195 .3312683C.33699037 .28527833 .31599427 .2002716 .27799989 .12826538 .24299622 .060256959 .20498657 .011245728 .1619873 .011245728 .1289978 .011245728 .10798645 .040252687 .10798645 .133255 .10798645 .17526245 .11399841 .23326111 .13999939 .3312683H.34799195Z"/>
<path id="font_2_2" d="M.68699648 .32714845C.70199587 .32714845 .72099307 .32714845 .72099307 .34713746 .72099307 .36714173 .70199587 .36714173 .6879883 .36714173H.08898926C.07499695 .36714173 .055999757 .36714173 .055999757 .34713746 .055999757 .32714845 .07499695 .32714845 .08999634 .32714845H.68699648M.6879883 .13284302C.70199587 .13284302 .72099307 .13284302 .72099307 .15284729 .72099307 .17285156 .70199587 .17285156 .68699648 .17285156H.08999634C.07499695 .17285156 .055999757 .17285156 .055999757 .15284729 .055999757 .13284302 .07499695 .13284302 .08898926 .13284302H.6879883Z"/>
<path id="font_2_3" d="M.41600038 .6529541 .3999939 .66796877C.3999939 .66696169 .3619995 .6199646 .31799317 .6199646 .29499818 .6199646 .269989 .634964 .25299073 .6449585 .22599793 .66096499 .20799256 .66796877 .19099427 .66796877 .15299988 .66796877 .13398743 .6459656 .08299255 .5899658L.09899902 .57496646C.09899902 .57595828 .13699341 .6229553 .18099976 .6229553 .20399475 .6229553 .22898865 .60795596 .24598694 .5979614 .272995 .58195498 .29100038 .57496646 .30799867 .57496646 .34599305 .57496646 .36499024 .59695437 .41600038 .6529541Z"/>
<path id="font_3_54" d="M.6100006 .45477296 .58200076 .6796875H.032989503V.64868167H.056991579C.13398743 .64868167 .13598633 .63768008 .13598633 .6016998V.07797241C.13598633 .041992189 .13398743 .0309906 .056991579 .0309906H.032989503V0C.067993167 .0029907227 .1459961 .0029907227 .18499756 .0029907227 .22599793 .0029907227 .31698609 .0029907227 .35299684 0V.0309906H.31999208C.22499085 .031188965 .22499085 .044189454 .22499085 .079193118V.3251953H.31098939C.40699769 .3251953 .4169922 .29318238 .4169922 .20819092H.44198609V.4731903H.4169922C.4169922 .38919068 .40699769 .3561859 .31098939 .3561859H.22499085V.6091919C.22499085 .64167788 .22698975 .64868167 .27398683 .64868167H.3939972C.5439911 .64868167 .56900027 .5926819 .58499148 .4546814L.6100006 .45477296Z"/>
<path id="font_3_66" d="M.24699402 0V.0309906C.18099976 .0309906 .1769867 .035995485 .1769867 .075042728V.4423828L.036987306 .43066407V.3996582C.101989749 .3996582 .11099243 .3936615 .11099243 .3447113V.07595825C.11099243 .0309906 .099990848 .0309906 .032989503 .0309906V0L.14299011 .0029907227C.17799378 .0029907227 .21299744 .0009918213 .24699402 0M.19198609 .603775C.19198609 .6307678 .16899109 .6567688 .13899231 .6567688 .10499573 .6567688 .084991458 .6287689 .084991458 .603775 .084991458 .57676699 .10798645 .55078127 .13798523 .55078127 .17199707 .55078127 .19198609 .5787811 .19198609 .603775Z"/>
<path id="font_3_96" d="M.3639984 .38137818C.3639984 .41337586 .33299256 .4423828 .2899933 .4423828 .21699524 .4423828 .18099976 .37538148 .16699219 .3323822V.4423828L.027999878 .43066407V.3996582C.09799194 .3996582 .10598755 .39266969 .10598755 .34370423V.07595825C.10598755 .0309906 .09498596 .0309906 .027999878 .0309906V0L.14199829 .0029907227C.18199158 .0029907227 .22898865 .0029907227 .2689972 0V.0309906H.24798584C.17399597 .0309906 .17199707 .04197693 .17199707 .07795715V.23181153C.17199707 .33137513 .21398926 .42037965 .2899933 .42037965 .29699708 .42037965 .29899598 .42037965 .30099488 .41937257 .2979889 .41838075 .27799989 .40637208 .27799989 .3803711 .27799989 .35237123 .29899598 .33737184 .32099916 .33737184 .33898927 .33737184 .3639984 .3493805 .3639984 .38137818Z"/>
<path id="font_3_98" d="M.3600006 .12823487C.3600006 .18122864 .32998658 .21122742 .31799317 .22323609 .2849884 .25523377 .24598694 .26322938 .20399475 .27124024 .147995 .28224183 .08099365 .29522706 .08099365 .35324098 .08099365 .38822938 .10699463 .42922975 .19299317 .42922975 .30299378 .42922975 .30799867 .3392334 .30999757 .30822755 .31098939 .2992401 .32199098 .2992401 .32199098 .2992401 .33499146 .2992401 .33499146 .30422975 .33499146 .32322694V.4242401C.33499146 .4412384 .33499146 .4482422 .32398988 .4482422 .31900025 .4482422 .31698609 .4482422 .3039856 .43623353 .30099488 .43223573 .29100038 .42323304 .2869873 .42022706 .24899292 .4482422 .20799256 .4482422 .19299317 .4482422 .070999149 .4482422 .032989503 .38124085 .032989503 .3252411 .032989503 .29023744 .04899597 .26223756 .07598877 .24023438 .10798645 .2142334 .13598633 .2082367 .20799256 .19422913 .22999573 .19021607 .31199647 .17422486 .31199647 .10221863 .31199647 .051223756 .2769928 .011245728 .19898987 .011245728 .114990238 .011245728 .07899475 .068222049 .05999756 .1532135 .056991579 .16621399 .055999757 .17021179 .04598999 .17021179 .032989503 .17021179 .032989503 .16322327 .032989503 .1452179V.013214111C.032989503-.003753662 .032989503-.0107421879 .04399109-.0107421879 .04899597-.0107421879 .049987794-.009750366 .068984989 .009246826 .070999149 .011245728 .070999149 .013214111 .08898926 .032226564 .1329956-.009750366 .17799378-.0107421879 .19898987-.0107421879 .31399537-.0107421879 .3600006 .05621338 .3600006 .1282196V.12823487Z"/>
<path id="font_3_105" d="M.33198548 .12385559V.18066406H.30699159V.12585449C.30699159 .052108766 .2769928 .014251709 .23999024 .014251709 .17298889 .014251709 .17298889 .10491943 .17298889 .12187195V.3996582H.31599427V.43066407H.17298889V.6142578H.147995C.14698792 .5324249 .116989139 .42565919 .018997193 .42166139V.3996582H.10398865V.12408447C.10398865 .0012512207 .19699097-.0107421879 .23298645-.0107421879 .3039856-.0107421879 .33198548 .060180665 .33198548 .12408447V.12385559Z"/>
<path id="font_3_64" d="M.27598573 .18710327V.24511719H.010986328V.18710327H.27598573Z"/>
<path id="font_3_91" d="M.5269928-.1940918V-.16308594C.45999146-.16308594 .44898988-.16308594 .44898988-.117996219V.4423828H.4269867L.3889923 .35136415C.37599183 .379364 .33499146 .4423828 .25498963 .4423828 .13899231 .4423828 .033996583 .34535218 .033996583 .21531677 .033996583 .090270999 .1309967-.0107421879 .24699402-.0107421879 .31698609-.0107421879 .35798646 .03225708 .37998963 .061264039V-.117996219C.37998963-.16308594 .36898805-.16308594 .3019867-.16308594V-.1940918L.4139862-.19110108 .5269928-.1940918M.3829956 .1362915C.3829956 .104278568 .36499024 .07626343 .34298707 .052261354 .32998658 .038253786 .2979889 .011245728 .25099183 .011245728 .17799378 .011245728 .116989139 .10028076 .116989139 .21531677 .116989139 .3343506 .18699646 .41737367 .26098634 .41737367 .34098817 .41737367 .3829956 .33035279 .3829956 .2773285V.1362915Z"/>
<path id="font_3_109" d="M.5349884 0V.0309906C.46499635 .0309906 .45700074 .037994386 .45700074 .08705139V.4423828L.30999757 .43066407V.3996582C.37998963 .3996582 .3880005 .39266969 .3880005 .34373475V.16601563C.3880005 .07910156 .33999635 .011245728 .2669983 .011245728 .18299866 .011245728 .1789856 .058135988 .1789856 .11009216V.4423828L.03199768 .43066407V.3996582C.10998535 .3996582 .10998535 .39666749 .10998535 .3078003V.15802002C.10998535 .080093387 .10998535-.0107421879 .2619934-.0107421879 .31799317-.0107421879 .3619995 .017242432 .3909912 .07910156V-.0107421879L.5349884 0Z"/>
<path id="font_3_28" d="M.48298646 .08912659V.14511109H.45799256V.08912659C.45799256 .03112793 .43299867 .025131226 .42199708 .025131226 .3889923 .025131226 .3849945 .070129398 .3849945 .07511902V.27508546C.3849945 .31707765 .3849945 .3560791 .34899903 .39312745 .30999757 .43223573 .2599945 .4482422 .21199036 .4482422 .12998963 .4482422 .06098938 .40115357 .06098938 .335083 .06098938 .30508424 .08099365 .28808595 .10699463 .28808595 .1349945 .28808595 .15299988 .30807496 .15299988 .33407594 .15299988 .3460846 .147995 .37908937 .101989749 .38008119 .1289978 .41519166 .17799378 .426239 .20999146 .426239 .25898744 .426239 .31599427 .38710023 .31599427 .29808045V.26107789C.2649994 .25808717 .19499207 .25508119 .13198853 .22509766 .056991579 .19110108 .03199768 .13911438 .03199768 .09512329 .03199768 .014251709 .1289978-.0107421879 .19198609-.0107421879 .2579956-.0107421879 .3039856 .029251099 .32299806 .07624817 .32699586 .036132814 .35398866-.005859375 .40098573-.005859375 .42199708-.005859375 .48298646 .008132935 .48298646 .08912659M.31599427 .14013672C.31599427 .04525757 .24398804 .011245728 .19898987 .011245728 .1499939 .011245728 .10899353 .04624939 .10899353 .09625244 .10899353 .15124512 .15098572 .23425293 .31599427 .24024964V.14013672Z"/>
<path id="font_3_47" d="M.5269928 0V.0309906C.45700074 .0309906 .44898988 .038009645 .44898988 .0871582V.69433596L.30499269 .6826172V.6516113C.375 .6516113 .3829956 .64463809 .3829956 .59580996V.38035584C.35398866 .41636659 .31098939 .4423828 .25698854 .4423828 .13899231 .4423828 .033996583 .3443451 .033996583 .21531677 .033996583 .088272098 .13198853-.0107421879 .24598694-.0107421879 .30999757-.0107421879 .35499574 .023254395 .37998963 .055267335V-.0107421879L.5269928 0M.37998963 .117996219C.37998963 .099990848 .37998963 .09799194 .36898805 .08099365 .33898927 .033218385 .2939911 .011245728 .25099183 .011245728 .20599365 .011245728 .16999817 .037216188 .1459961 .075164798 .11999512 .1161499 .116989139 .17320252 .116989139 .21421814 .116989139 .25125123 .11898804 .31129457 .147995 .35632325 .16899109 .38734437 .20698548 .42037965 .26098634 .42037965 .29599 .42037965 .33799745 .405365 .36898805 .3603363 .37998963 .34332276 .37998963 .34132386 .37998963 .32330323V.117996219Z"/>
<path id="font_3_77" d="M.5349884 0V.0309906C.48298646 .0309906 .45799256 .0309906 .45700074 .061019899V.25221253C.45700074 .3383026 .45700074 .36932374 .42599488 .405365 .4119873 .42237855 .3789978 .4423828 .32099916 .4423828 .24798584 .4423828 .20098877 .39935304 .17298889 .33729554V.4423828L.03199768 .43066407V.3996582C.101989749 .3996582 .10998535 .39266969 .10998535 .34370423V.07595825C.10998535 .0309906 .09899902 .0309906 .03199768 .0309906V0L.14498902 .0029907227 .25698854 0V.0309906C.18998719 .0309906 .1789856 .0309906 .1789856 .07595825V.25978089C.1789856 .36431886 .25 .42037965 .31399537 .42037965 .3769989 .42037965 .3880005 .36631776 .3880005 .30926515V.076034549C.3880005 .0309906 .3769989 .0309906 .30999757 .0309906V0L.4229889 .0029907227 .5349884 0Z"/>
<path id="font_3_44" d="M.19198609 .37765504C.19198609 .406662 .16799927 .43066407 .13899231 .43066407 .10998535 .43066407 .085998538 .406662 .085998538 .37765504 .085998538 .34866334 .10998535 .32466126 .13899231 .32466126 .16799927 .32466126 .19198609 .34866334 .19198609 .37765504M.19198609 .052993776C.19198609 .08198547 .16799927 .10598755 .13899231 .10598755 .10998535 .10598755 .085998538 .08198547 .085998538 .052993776 .085998538 .023986817 .10998535 0 .13899231 0 .16799927 0 .19198609 .023986817 .19198609 .052993776Z"/>
<path id="font_3_97" d="M.49899293 .18579102C.49899293 .2858429 .43299867 .36791993 .34899903 .38793946L.22099304 .4189453C.15899658 .43388368 .11999512 .48773194 .11999512 .5458069 .11999512 .61595156 .17399597 .677063 .2519989 .677063 .4189911 .677063 .44099427 .5127411 .44699098 .46777345 .44799806 .461792 .44799806 .45581056 .45899964 .45581056 .47200013 .45581056 .47200013 .46080018 .47200013 .47973634V.68107607C.47200013 .69807437 .47200013 .7050781 .46099855 .7050781 .45399476 .7050781 .45298768 .70407107 .44599916 .69207766L.41099549 .63497927C.3809967 .66404727 .33999635 .7050781 .25099183 .7050781 .13999939 .7050781 .055999757 .61694338 .055999757 .5107422 .055999757 .42790223 .10899353 .35490418 .18699646 .32788087 .19799805 .32388307 .24899292 .3118744 .31900025 .29486085 .34599305 .28785707 .37599183 .280838 .4039917 .24382019 .4249878 .2177887 .43499757 .18478394 .43499757 .1517334 .43499757 .0806427 .3849945 .008529663 .30099488 .008529663 .27198792 .008529663 .19599915 .013534546 .14299011 .06260681 .084991458 .11668396 .08198547 .18078614 .08099365 .21679688 .07998657 .22679138 .07199097 .22679138 .068984989 .22679138 .055999757 .22679138 .055999757 .2197876 .055999757 .20178223V.0015258789C.055999757-.015472412 .055999757-.022460938 .066986087-.022460938 .07398987-.022460938 .07499695-.020462037 .08198547-.009475708 .08198547-.009475708 .084991458-.0054626467 .117996219 .047592164 .14898682 .013534546 .21299744-.022460938 .3019867-.022460938 .4189911-.022460938 .49899293 .07562256 .49899293 .18579102Z"/>
<path id="font_3_50" d="M.4149933 .11933899C.4149933 .12934876 .40699769 .13134766 .4019928 .13134766 .3929901 .13134766 .3909912 .12535095 .3889923 .11734009 .35398866 .014251709 .2639923 .014251709 .2539978 .014251709 .20399475 .014251709 .1639862 .044281007 .14099121 .08131409 .11099243 .12934876 .11099243 .19540406 .11099243 .23144531H.3899994C.4119873 .23144531 .4149933 .23144531 .4149933 .2524414 .4149933 .35131837 .36099244 .4482422 .23599243 .4482422 .11999512 .4482422 .027999878 .34532167 .027999878 .22042847 .027999878 .08631897 .1329956-.0107421879 .24798584-.0107421879 .36999513-.0107421879 .4149933 .10032654 .4149933 .11933899M.34899903 .2524414H.11199951C.117996219 .40126039 .20199585 .426239 .23599243 .426239 .33898927 .426239 .34899903 .2913971 .34899903 .2524414Z"/>
<path id="font_3_43" d="M.4149933 .119140628C.4149933 .12911988 .40499879 .12911988 .4019928 .12911988 .3929901 .12911988 .3909912 .12512207 .3889923 .119140628 .3600006 .026229859 .29499818 .014251709 .2579956 .014251709 .20498657 .014251709 .116989139 .0572052 .116989139 .21801758 .116989139 .38093568 .19898987 .42323304 .2519989 .42323304 .26098634 .42323304 .32398988 .42222596 .35899354 .38594056 .31799317 .38293458 .31199647 .3529358 .31199647 .3399353 .31199647 .31393434 .32998658 .2939453 .35798646 .2939453 .38398744 .2939453 .4039917 .3109436 .4039917 .34094239 .4039917 .40911866 .32798768 .4482422 .25099183 .4482422 .12599182 .4482422 .033996583 .3399353 .033996583 .21601868 .033996583 .08816528 .1329956-.0107421879 .24899292-.0107421879 .3829956-.0107421879 .4149933 .10914612 .4149933 .119140628Z"/>
<path id="font_3_81" d="M.47099305 .21424866C.47099305 .34223939 .37098695 .4482422 .25 .4482422 .125 .4482422 .027999878 .3392334 .027999878 .21424866 .027999878 .085250858 .13198853-.0107421879 .24899292-.0107421879 .36999513-.0107421879 .47099305 .087249759 .47099305 .21424866M.3880005 .22224427C.3880005 .18624878 .3880005 .13224793 .3659973 .08824158 .34399415 .04324341 .2999878 .014251709 .25 .014251709 .20698548 .014251709 .16299439 .035247804 .13598633 .08125305 .11099243 .12524414 .11099243 .18624878 .11099243 .22224427 .11099243 .26124574 .11099243 .31523133 .1349945 .35923768 .1619873 .40522767 .20899964 .426239 .24899292 .426239 .29299928 .426239 .33599855 .40423585 .3619995 .36123658 .3880005 .3182373 .3880005 .26023866 .3880005 .22224427Z"/>
<path id="font_1_2" d="M.2649994 .37265016H.37799073C.34498597 .22489929 .33599855 .18196106 .33599855 .11508179 .33599855 .100097659 .33599855 .073150638 .34399415 .03919983 .35398866-.0047454836 .36499024-.0107421879 .37998963-.0107421879 .3999939-.0107421879 .42099 .007247925 .42099 .02722168 .42099 .033218385 .42099 .035202028 .4149933 .049179079 .38598634 .12106323 .38598634 .18595886 .38598634 .21391297 .38598634 .26683045 .3929901 .32073976 .4039917 .37265016H.5179901C.5309906 .37265016 .5669861 .37265016 .5669861 .406662 .5669861 .43066407 .54599 .43066407 .5269928 .43066407H.19198609C.16999817 .43066407 .13198853 .43066407 .08799744 .38365174 .052993776 .34469605 .026992798 .29878236 .026992798 .29379273 .026992798 .29278565 .026992798 .28379823 .038986207 .28379823 .04699707 .28379823 .04899597 .28779603 .054992677 .29577638 .10398865 .37265016 .1619873 .37265016 .18199158 .37265016H.23899842C.20698548 .25186158 .15299988 .13105774 .11099243 .04020691 .102996829 .025222779 .102996829 .023223877 .102996829 .016235352 .102996829-.002746582 .11898804-.0107421879 .13198853-.0107421879 .1619873-.0107421879 .16999817 .017242432 .18199158 .05418396 .19599915 .100097659 .19599915 .10209656 .20899964 .15202332L.2649994 .37265016Z"/>
<path id="font_4_1" d="M.6589966 .23046875C.6759949 .23046875 .69400027 .23046875 .69400027 .25045777 .69400027 .27046205 .6759949 .27046205 .6589966 .27046205H.117996219C.100997928 .27046205 .08299255 .27046205 .08299255 .25045777 .08299255 .23046875 .100997928 .23046875 .117996219 .23046875H.6589966Z"/>
<path id="font_3_104" d="M.68499758 .45214845 .66600039 .6767578H.054992677L.035995485 .45214845H.06098938C.07499695 .6128235 .08999634 .64575198 .24099732 .64575198 .25898744 .64575198 .2849884 .64575198 .29499818 .64375308 .31599427 .6397705 .31599427 .6287842 .31599427 .60583499V.07901001C.31599427 .04499817 .31599427 .0309906 .21099854 .0309906H.17098999V0C.21199036 .0029907227 .31399537 .0029907227 .3600006 .0029907227 .4059906 .0029907227 .5089874 .0029907227 .5499878 0V.0309906H.5099945C.40499879 .0309906 .40499879 .04499817 .40499879 .07901001V.60583499C.40499879 .62579348 .40499879 .6397705 .4229889 .64375308 .43399049 .64575198 .46099855 .64575198 .47999574 .64575198 .6309967 .64575198 .6459961 .6128235 .6599884 .45214845H.68499758Z"/>
<path id="font_3_63" d="M.5349884 0V.0309906C.48298646 .0309906 .45799256 .0309906 .45700074 .061019899V.25221253C.45700074 .3383026 .45700074 .36932374 .42599488 .405365 .4119873 .42237855 .3789978 .4423828 .32099916 .4423828 .23699951 .4423828 .19299317 .38233949 .1769867 .34629823H.17599488V.69433596L.03199768 .6826172V.6516113C.101989749 .6516113 .10998535 .64463809 .10998535 .59580996V.076034549C.10998535 .0309906 .09899902 .0309906 .03199768 .0309906V0L.14498902 .0029907227 .25698854 0V.0309906C.18998719 .0309906 .1789856 .0309906 .1789856 .076034549V.2602234C.1789856 .36431886 .25 .42037965 .31399537 .42037965 .3769989 .42037965 .3880005 .36631776 .3880005 .30926515V.076034549C.3880005 .0309906 .3769989 .0309906 .30999757 .0309906V0L.4229889 .0029907227 .5349884 0Z"/>
<path id="font_2_1" d="M.1269989 .07699585 .23298645 .18003845C.3889923 .31811524 .44898988 .3721466 .44898988 .47216798 .44898988 .5860901 .35899354 .6660156 .23699951 .6660156 .12399292 .6660156 .049987794 .57411196 .049987794 .48516847 .049987794 .4291687 .099990848 .4291687 .102996829 .4291687 .11999512 .4291687 .15499878 .44117738 .15499878 .48217774 .15499878 .5081787 .13699341 .5341797 .101989749 .5341797 .09399414 .5341797 .09199524 .5341797 .08898926 .5331726 .11199951 .59806826 .1659851 .63500979 .22399903 .63500979 .31498719 .63500979 .35798646 .5541382 .35798646 .47216798 .35798646 .39215089 .30799867 .31311036 .25299073 .25108338L.06098938 .036987306C.049987794 .025985718 .049987794 .023986817 .049987794 0H.42099L.44898988 .17404175H.42399598C.4189911 .14402771 .4119873 .1000061 .4019928 .084991458 .394989 .07699585 .32899476 .07699585 .30699159 .07699585H.1269989Z"/>
</defs>
<path transform="matrix(1.00002,0,0,-1.00003,28.14727,77.53588)" stroke-width=".79701" stroke-linecap="butt" stroke-miterlimit="10" stroke-linejoin="miter" fill="none" stroke="#000000" d="M-7.65364 0H87.85687"/>
<path transform="matrix(1.00002,0,0,-1.00003,116.005908,77.53588)" d="M1.0361 0C-.25902 .25902-1.55415 .77707-3.1083 1.68365-1.55415 .51805-1.55415-.51805-3.1083-1.68365-1.55415-.77707-.25902-.25902 1.0361 0Z"/>
<path transform="matrix(1.00002,0,0,-1.00003,116.005908,77.53588)" stroke-width=".79701" stroke-linecap="butt" stroke-linejoin="round" fill="none" stroke="#000000" d="M1.0361 0C-.25902 .25902-1.55415 .77707-3.1083 1.68365-1.55415 .51805-1.55415-.51805-3.1083-1.68365-1.55415-.77707-.25902-.25902 1.0361 0Z"/>
<path transform="matrix(1.00002,0,0,-1.00003,28.14727,77.53588)" stroke-width=".79701" stroke-linecap="butt" stroke-miterlimit="10" stroke-linejoin="miter" fill="none" stroke="#000000" d="M0-7.65364V75.10094"/>
<path transform="matrix(0,-1.00003,-1.00002,-0,28.14727,2.4326859)" d="M1.0361 0C-.25902 .25902-1.55415 .77707-3.1083 1.68365-1.55415 .51805-1.55415-.51805-3.1083-1.68365-1.55415-.77707-.25902-.25902 1.0361 0Z"/>
<path transform="matrix(0,-1.00003,-1.00002,-0,28.14727,2.4326859)" stroke-width=".79701" stroke-linecap="butt" stroke-linejoin="round" fill="none" stroke="#000000" d="M1.0361 0C-.25902 .25902-1.55415 .77707-3.1083 1.68365-1.55415 .51805-1.55415-.51805-3.1083-1.68365-1.55415-.77707-.25902-.25902 1.0361 0Z"/>
<path transform="matrix(1.00002,0,0,-1.00003,28.14727,77.53588)" stroke-width=".79701" stroke-linecap="butt" stroke-miterlimit="10" stroke-linejoin="miter" fill="none" stroke="#0000ff" d="M0 0 88.17131 70.5371"/>
<path transform="matrix(.7808356,-.6246788,-.62467256,-.7808435,116.32034,6.996681)" d="M1.0361 0C-.25902 .25902-1.55415 .77707-3.1083 1.68365-1.55415 .51805-1.55415-.51805-3.1083-1.68365-1.55415-.77707-.25902-.25902 1.0361 0Z" fill="#0000ff"/>
<path transform="matrix(.7808356,-.6246788,-.62467256,-.7808435,116.32034,6.996681)" stroke-width=".79701" stroke-linecap="butt" stroke-linejoin="round" fill="none" stroke="#0000ff" d="M1.0361 0C-.25902 .25902-1.55415 .77707-3.1083 1.68365-1.55415 .51805-1.55415-.51805-3.1083-1.68365-1.55415-.77707-.25902-.25902 1.0361 0Z"/>
<use data-text="r" xlink:href="#font_1_3" transform="matrix(9.962799,0,0,-9.962899,59.32189,45.955934)" fill="#0000ff"/>
<path transform="matrix(1.00002,0,0,-1.00003,28.14727,77.53588)" stroke-width=".79701" stroke-linecap="butt" stroke-miterlimit="10" stroke-linejoin="miter" fill="none" stroke="#ff0000" d="M17.85828 0C17.85828 4.05418 16.47644 7.98985 14.84024 10.03523"/>
<path transform="matrix(-.6246425,-.78086349,-.7808556,.62464877,42.987829,67.50035)" d="M1.0361 0C-.25902 .25902-1.55415 .77707-3.1083 1.68365-1.55415 .51805-1.55415-.51805-3.1083-1.68365-1.55415-.77707-.25902-.25902 1.0361 0Z" fill="#ff0000"/>
<path transform="matrix(-.6246425,-.78086349,-.7808556,.62464877,42.987829,67.50035)" stroke-width=".79701" stroke-linecap="butt" stroke-linejoin="round" fill="none" stroke="#ff0000" d="M1.0361 0C-.25902 .25902-1.55415 .77707-3.1083 1.68365-1.55415 .51805-1.55415-.51805-3.1083-1.68365-1.55415-.77707-.25902-.25902 1.0361 0Z"/>
<use data-text="&#x03b8;" xlink:href="#font_1_1" transform="matrix(9.962799,0,0,-9.962899,48.71768,74.27378)"/>
<use data-text="=" xlink:href="#font_2_2" transform="matrix(9.962799,0,0,-9.962899,56.438837,74.27378)"/>
<use data-text="&#x02dc;" xlink:href="#font_2_3" transform="matrix(9.962799,0,0,-9.962899,67.771068,71.6447)" fill="#ff0000"/>
<use data-text="&#x03b8;" xlink:href="#font_1_1" transform="matrix(9.962799,0,0,-9.962899,66.95504,74.27378)" fill="#ff0000"/>
<path transform="matrix(1.00002,0,0,-1.00003,28.14727,77.53588)" stroke-width=".79701" stroke-linecap="butt" stroke-dasharray="2.98883,2.98883" stroke-miterlimit="10" stroke-linejoin="miter" fill="none" stroke="#929292" d="M63.7796 0V51.02368"/>
<path transform="matrix(1.00002,0,0,-1.00003,28.14727,77.53588)" stroke-width=".79701" stroke-linecap="butt" stroke-miterlimit="10" stroke-linejoin="miter" fill="none" stroke="#0000ff" d="M63.7796 0V6.37796H57.40163V0ZM57.40163 6.37796"/>
<path transform="matrix(1.00002,0,0,-1.00003,28.14727,77.53588)" d="M65.12457 51.02368C65.12457 51.76648 64.5224 52.36865 63.7796 52.36865 63.0368 52.36865 62.43465 51.76648 62.43465 51.02368 62.43465 50.28088 63.0368 49.67873 63.7796 49.67873 64.5224 49.67873 65.12457 50.28088 65.12457 51.02368ZM63.7796 51.02368"/>
<path transform="matrix(1.00002,0,0,-1.00003,28.14727,77.53588)" stroke-width=".3985" stroke-linecap="butt" stroke-miterlimit="10" stroke-linejoin="miter" fill="none" stroke="#000000" d="M65.12457 51.02368C65.12457 51.76648 64.5224 52.36865 63.7796 52.36865 63.0368 52.36865 62.43465 51.76648 62.43465 51.02368 62.43465 50.28088 63.0368 49.67873 63.7796 49.67873 64.5224 49.67873 65.12457 50.28088 65.12457 51.02368ZM63.7796 51.02368"/>
<use data-text="F" xlink:href="#font_3_54" transform="matrix(9.962799,0,0,-9.962899,14.824005,93.96738)" fill="#0000ff"/>
<use data-text="i" xlink:href="#font_3_66" transform="matrix(9.962799,0,0,-9.962899,21.329712,93.96738)" fill="#0000ff"/>
<use data-text="r" xlink:href="#font_3_96" transform="matrix(9.962799,0,0,-9.962899,24.099366,93.96738)" fill="#0000ff"/>
<use data-text="s" xlink:href="#font_3_98" transform="matrix(9.962799,0,0,-9.962899,28.004792,93.96738)" fill="#0000ff"/>
<use data-text="t" xlink:href="#font_3_105" transform="matrix(9.962799,0,0,-9.962899,31.930138,93.96738)" fill="#0000ff"/>
<use data-text="-" xlink:href="#font_3_64" transform="matrix(9.962799,0,0,-9.962899,35.80567,93.96738)" fill="#0000ff"/>
<use data-text="q" xlink:href="#font_3_91" transform="matrix(9.962799,0,0,-9.962899,39.123285,93.96738)" fill="#0000ff"/>
<use data-text="u" xlink:href="#font_3_109" transform="matrix(9.962799,0,0,-9.962899,44.383646,93.96738)" fill="#0000ff"/>
<use data-text="a" xlink:href="#font_3_28" transform="matrix(9.962799,0,0,-9.962899,49.922967,93.96738)" fill="#0000ff"/>
<use data-text="d" xlink:href="#font_3_47" transform="matrix(9.962799,0,0,-9.962899,54.90435,93.96738)" fill="#0000ff"/>
<use data-text="r" xlink:href="#font_3_96" transform="matrix(9.962799,0,0,-9.962899,60.443658,93.96738)" fill="#0000ff"/>
<use data-text="a" xlink:href="#font_3_28" transform="matrix(9.962799,0,0,-9.962899,64.34908,93.96738)" fill="#0000ff"/>
<use data-text="n" xlink:href="#font_3_77" transform="matrix(9.962799,0,0,-9.962899,69.33047,93.96738)" fill="#0000ff"/>
<use data-text="t" xlink:href="#font_3_105" transform="matrix(9.962799,0,0,-9.962899,74.59083,93.96738)" fill="#0000ff"/>
<use data-text=":" xlink:href="#font_3_44" transform="matrix(9.962799,0,0,-9.962899,78.46636,93.96738)" fill="#0000ff"/>
<use data-text="&#x02dc;" xlink:href="#font_2_3" transform="matrix(9.962799,0,0,-9.962899,87.033458,91.338298)" fill="#0000ff"/>
<use data-text="&#x03b8;" xlink:href="#font_1_1" transform="matrix(9.962799,0,0,-9.962899,86.217449,93.96738)" fill="#0000ff"/>
<use data-text="=" xlink:href="#font_2_2" transform="matrix(9.962799,0,0,-9.962899,93.93859,93.96738)" fill="#0000ff"/>
<use data-text="&#x03b8;" xlink:href="#font_1_1" transform="matrix(9.962799,0,0,-9.962899,104.45481,93.96738)" fill="#0000ff"/>
<path transform="matrix(1.00002,0,0,-1.00003,28.14727,77.53588)" stroke-width=".79701" stroke-linecap="butt" stroke-miterlimit="10" stroke-linejoin="miter" fill="none" stroke="#000000" d="M256.23536 0H153.07114"/>
<path transform="matrix(1.00002,0,0,-1.00003,284.38777,77.53588)" d="M1.0361 0C-.25902 .25902-1.55415 .77707-3.1083 1.68365-1.55415 .51805-1.55415-.51805-3.1083-1.68365-1.55415-.77707-.25902-.25902 1.0361 0Z"/>
<path transform="matrix(1.00002,0,0,-1.00003,284.38777,77.53588)" stroke-width=".79701" stroke-linecap="butt" stroke-linejoin="round" fill="none" stroke="#000000" d="M1.0361 0C-.25902 .25902-1.55415 .77707-3.1083 1.68365-1.55415 .51805-1.55415-.51805-3.1083-1.68365-1.55415-.77707-.25902-.25902 1.0361 0Z"/>
<path transform="matrix(1.00002,0,0,-1.00003,28.14727,77.53588)" stroke-width=".79701" stroke-linecap="butt" stroke-miterlimit="10" stroke-linejoin="miter" fill="none" stroke="#000000" d="M242.36263-7.65364V75.10094"/>
<path transform="matrix(0,-1.00003,-1.00002,-0,270.51475,2.4326859)" d="M1.0361 0C-.25902 .25902-1.55415 .77707-3.1083 1.68365-1.55415 .51805-1.55415-.51805-3.1083-1.68365-1.55415-.77707-.25902-.25902 1.0361 0Z"/>
<path transform="matrix(0,-1.00003,-1.00002,-0,270.51475,2.4326859)" stroke-width=".79701" stroke-linecap="butt" stroke-linejoin="round" fill="none" stroke="#000000" d="M1.0361 0C-.25902 .25902-1.55415 .77707-3.1083 1.68365-1.55415 .51805-1.55415-.51805-3.1083-1.68365-1.55415-.77707-.25902-.25902 1.0361 0Z"/>
<path transform="matrix(1.00002,0,0,-1.00003,28.14727,77.53588)" stroke-width=".79701" stroke-linecap="butt" stroke-miterlimit="10" stroke-linejoin="miter" fill="none" stroke="#0000ff" d="M242.36263 0 154.1913 70.5371"/>
<path transform="matrix(-.7808356,-.6246788,-.62467256,.7808435,182.34165,6.996681)" d="M1.0361 0C-.25902 .25902-1.55415 .77707-3.1083 1.68365-1.55415 .51805-1.55415-.51805-3.1083-1.68365-1.55415-.77707-.25902-.25902 1.0361 0Z" fill="#0000ff"/>
<path transform="matrix(-.7808356,-.6246788,-.62467256,.7808435,182.34165,6.996681)" stroke-width=".79701" stroke-linecap="butt" stroke-linejoin="round" fill="none" stroke="#0000ff" d="M1.0361 0C-.25902 .25902-1.55415 .77707-3.1083 1.68365-1.55415 .51805-1.55415-.51805-3.1083-1.68365-1.55415-.77707-.25902-.25902 1.0361 0Z"/>
<use data-text="r" xlink:href="#font_1_3" transform="matrix(9.962799,0,0,-9.962899,234.56842,45.955934)" fill="#0000ff"/>
<path transform="matrix(1.00002,0,0,-1.00003,28.14727,77.53588)" stroke-width=".79701" stroke-linecap="butt" stroke-miterlimit="10" stroke-linejoin="miter" fill="none" stroke="#ff0000" d="M221.953 1.4346C221.953 4.63339 223.53226 9.13132 225.53023 11.62892"/>
<path transform="matrix(0,1.00003,1.00002,0,250.1047,76.101238)" d="M1.0361 0C-.25902 .25902-1.55415 .77707-3.1083 1.68365-1.55415 .51805-1.55415-.51805-3.1083-1.68365-1.55415-.77707-.25902-.25902 1.0361 0Z" fill="#ff0000"/>
<path transform="matrix(0,1.00003,1.00002,0,250.1047,76.101238)" stroke-width=".79701" stroke-linecap="butt" stroke-linejoin="round" fill="none" stroke="#ff0000" d="M1.0361 0C-.25902 .25902-1.55415 .77707-3.1083 1.68365-1.55415 .51805-1.55415-.51805-3.1083-1.68365-1.55415-.77707-.25902-.25902 1.0361 0Z"/>
<path transform="matrix(.6246425,-.7808735,-.7808656,-.62464877,253.682,65.90662)" d="M1.0361 0C-.25902 .25902-1.55415 .77707-3.1083 1.68365-1.55415 .51805-1.55415-.51805-3.1083-1.68365-1.55415-.77707-.25902-.25902 1.0361 0Z" fill="#ff0000"/>
<path transform="matrix(.6246425,-.7808735,-.7808656,-.62464877,253.682,65.90662)" stroke-width=".79701" stroke-linecap="butt" stroke-linejoin="round" fill="none" stroke="#ff0000" d="M1.0361 0C-.25902 .25902-1.55415 .77707-3.1083 1.68365-1.55415 .51805-1.55415-.51805-3.1083-1.68365-1.55415-.77707-.25902-.25902 1.0361 0Z"/>
<use data-text="&#x02dc;" xlink:href="#font_2_3" transform="matrix(9.962799,0,0,-9.962899,243.39957,70.800678)" fill="#ff0000"/>
<use data-text="&#x03b8;" xlink:href="#font_1_1" transform="matrix(9.962799,0,0,-9.962899,242.58356,73.429759)" fill="#ff0000"/>
<path transform="matrix(1.00002,0,0,-1.00003,28.14727,77.53588)" stroke-width=".79701" stroke-linecap="butt" stroke-miterlimit="10" stroke-linejoin="miter" fill="none" stroke="#929292" d="M250.0163 0C250.0163 4.22704 246.58969 7.65364 242.36264 7.65364 240.03803 7.65364 237.83849 6.59601 237.28255 5.90115"/>
<path transform="matrix(-.6246125,.7808735,.7808656,.62461879,265.43458,71.63455)" d="M1.0361 0C-.25902 .25902-1.55415 .77707-3.1083 1.68365-1.55415 .51805-1.55415-.51805-3.1083-1.68365-1.55415-.77707-.25902-.25902 1.0361 0Z" fill="#929292"/>
<path transform="matrix(-.6246125,.7808735,.7808656,.62461879,265.43458,71.63455)" stroke-width=".79701" stroke-linecap="butt" stroke-linejoin="round" fill="none" stroke="#929292" d="M1.0361 0C-.25902 .25902-1.55415 .77707-3.1083 1.68365-1.55415 .51805-1.55415-.51805-3.1083-1.68365-1.55415-.77707-.25902-.25902 1.0361 0Z"/>
<use data-text="&#x03b8;" xlink:href="#font_1_1" transform="matrix(9.962799,0,0,-9.962899,272.56419,66.59455)"/>
<path transform="matrix(1.00002,0,0,-1.00003,28.14727,77.53588)" stroke-width=".79701" stroke-linecap="butt" stroke-dasharray="2.98883,2.98883" stroke-miterlimit="10" stroke-linejoin="miter" fill="none" stroke="#929292" d="M178.583 0V51.02368"/>
<path transform="matrix(1.00002,0,0,-1.00003,28.14727,77.53588)" stroke-width=".79701" stroke-linecap="butt" stroke-miterlimit="10" stroke-linejoin="miter" fill="none" stroke="#0000ff" d="M178.583 0V6.37796H184.96099V0ZM184.96099 6.37796"/>
<path transform="matrix(1.00002,0,0,-1.00003,28.14727,77.53588)" d="M179.92797 51.02368C179.92797 51.76648 179.32579 52.36865 178.583 52.36865 177.8402 52.36865 177.23804 51.76648 177.23804 51.02368 177.23804 50.28088 177.8402 49.67873 178.583 49.67873 179.32579 49.67873 179.92797 50.28088 179.92797 51.02368ZM178.583 51.02368"/>
<path transform="matrix(1.00002,0,0,-1.00003,28.14727,77.53588)" stroke-width=".3985" stroke-linecap="butt" stroke-miterlimit="10" stroke-linejoin="miter" fill="none" stroke="#000000" d="M179.92797 51.02368C179.92797 51.76648 179.32579 52.36865 178.583 52.36865 177.8402 52.36865 177.23804 51.76648 177.23804 51.02368 177.23804 50.28088 177.8402 49.67873 178.583 49.67873 179.32579 49.67873 179.92797 50.28088 179.92797 51.02368ZM178.583 51.02368"/>
<use data-text="S" xlink:href="#font_3_97" transform="matrix(9.962799,0,0,-9.962899,156.27585,93.96738)" fill="#0000ff"/>
<use data-text="e" xlink:href="#font_3_50" transform="matrix(9.962799,0,0,-9.962899,161.81516,93.96738)" fill="#0000ff"/>
<use data-text="c" xlink:href="#font_3_43" transform="matrix(9.962799,0,0,-9.962899,166.23865,93.96738)" fill="#0000ff"/>
<use data-text="o" xlink:href="#font_3_81" transform="matrix(9.962799,0,0,-9.962899,170.66213,93.96738)" fill="#0000ff"/>
<use data-text="n" xlink:href="#font_3_77" transform="matrix(9.962799,0,0,-9.962899,175.64353,93.96738)" fill="#0000ff"/>
<use data-text="d" xlink:href="#font_3_47" transform="matrix(9.962799,0,0,-9.962899,181.18283,93.96738)" fill="#0000ff"/>
<use data-text="-" xlink:href="#font_3_64" transform="matrix(9.962799,0,0,-9.962899,186.72214,93.96738)" fill="#0000ff"/>
<use data-text="q" xlink:href="#font_3_91" transform="matrix(9.962799,0,0,-9.962899,190.03977,93.96738)" fill="#0000ff"/>
<use data-text="u" xlink:href="#font_3_109" transform="matrix(9.962799,0,0,-9.962899,195.30013,93.96738)" fill="#0000ff"/>
<use data-text="a" xlink:href="#font_3_28" transform="matrix(9.962799,0,0,-9.962899,200.83943,93.96738)" fill="#0000ff"/>
<use data-text="d" xlink:href="#font_3_47" transform="matrix(9.962799,0,0,-9.962899,205.82083,93.96738)" fill="#0000ff"/>
<use data-text="r" xlink:href="#font_3_96" transform="matrix(9.962799,0,0,-9.962899,211.36014,93.96738)" fill="#0000ff"/>
<use data-text="a" xlink:href="#font_3_28" transform="matrix(9.962799,0,0,-9.962899,215.26555,93.96738)" fill="#0000ff"/>
<use data-text="n" xlink:href="#font_3_77" transform="matrix(9.962799,0,0,-9.962899,220.24694,93.96738)" fill="#0000ff"/>
<use data-text="t" xlink:href="#font_3_105" transform="matrix(9.962799,0,0,-9.962899,225.5073,93.96738)" fill="#0000ff"/>
<use data-text=":" xlink:href="#font_3_44" transform="matrix(9.962799,0,0,-9.962899,229.38283,93.96738)" fill="#0000ff"/>
<use data-text="&#x02dc;" xlink:href="#font_2_3" transform="matrix(9.962799,0,0,-9.962899,237.95049,91.338298)" fill="#0000ff"/>
<use data-text="&#x03b8;" xlink:href="#font_1_1" transform="matrix(9.962799,0,0,-9.962899,237.13347,93.96738)" fill="#0000ff"/>
<use data-text="=" xlink:href="#font_2_2" transform="matrix(9.962799,0,0,-9.962899,244.85462,93.96738)" fill="#0000ff"/>
<use data-text="&#x03c0;" xlink:href="#font_1_2" transform="matrix(9.962799,0,0,-9.962899,255.37183,93.96738)" fill="#0000ff"/>
<use data-text="&#x2212;" xlink:href="#font_4_1" transform="matrix(9.962799,0,0,-9.962899,263.62199,93.96738)" fill="#0000ff"/>
<use data-text="&#x03b8;" xlink:href="#font_1_1" transform="matrix(9.962799,0,0,-9.962899,273.58418,93.96738)" fill="#0000ff"/>
<path transform="matrix(1.00002,0,0,-1.00003,28.14727,77.53588)" stroke-width=".79701" stroke-linecap="butt" stroke-miterlimit="10" stroke-linejoin="miter" fill="none" stroke="#000000" d="M100.61284-51.02368H0"/>
<path transform="matrix(1.00002,0,0,-1.00003,128.76212,128.5611)" d="M1.0361 0C-.25902 .25902-1.55415 .77707-3.1083 1.68365-1.55415 .51805-1.55415-.51805-3.1083-1.68365-1.55415-.77707-.25902-.25902 1.0361 0Z"/>
<path transform="matrix(1.00002,0,0,-1.00003,128.76212,128.5611)" stroke-width=".79701" stroke-linecap="butt" stroke-linejoin="round" fill="none" stroke="#000000" d="M1.0361 0C-.25902 .25902-1.55415 .77707-3.1083 1.68365-1.55415 .51805-1.55415-.51805-3.1083-1.68365-1.55415-.77707-.25902-.25902 1.0361 0Z"/>
<path transform="matrix(1.00002,0,0,-1.00003,28.14727,77.53588)" stroke-width=".79701" stroke-linecap="butt" stroke-miterlimit="10" stroke-linejoin="miter" fill="none" stroke="#000000" d="M89.29149-34.60002V-122.45695"/>
<path transform="matrix(0,-1.00003,-1.00002,-0,117.440547,112.13694)" d="M1.0361 0C-.25902 .25902-1.55415 .77707-3.1083 1.68365-1.55415 .51805-1.55415-.51805-3.1083-1.68365-1.55415-.77707-.25902-.25902 1.0361 0Z"/>
<path transform="matrix(0,-1.00003,-1.00002,-0,117.440547,112.13694)" stroke-width=".79701" stroke-linecap="butt" stroke-linejoin="round" fill="none" stroke="#000000" d="M1.0361 0C-.25902 .25902-1.55415 .77707-3.1083 1.68365-1.55415 .51805-1.55415-.51805-3.1083-1.68365-1.55415-.77707-.25902-.25902 1.0361 0Z"/>
<path transform="matrix(1.00002,0,0,-1.00003,28.14727,77.53588)" stroke-width=".79701" stroke-linecap="butt" stroke-miterlimit="10" stroke-linejoin="miter" fill="none" stroke="#0000ff" d="M89.29149-51.02368 1.12016-121.56082"/>
<path transform="matrix(-.7808356,.6246788,.62467256,.7808435,29.267453,199.10034)" d="M1.0361 0C-.25902 .25902-1.55415 .77707-3.1083 1.68365-1.55415 .51805-1.55415-.51805-3.1083-1.68365-1.55415-.77707-.25902-.25902 1.0361 0Z" fill="#0000ff"/>
<path transform="matrix(-.7808356,.6246788,.62467256,.7808435,29.267453,199.10034)" stroke-width=".79701" stroke-linecap="butt" stroke-linejoin="round" fill="none" stroke="#0000ff" d="M1.0361 0C-.25902 .25902-1.55415 .77707-3.1083 1.68365-1.55415 .51805-1.55415-.51805-3.1083-1.68365-1.55415-.77707-.25902-.25902 1.0361 0Z"/>
<use data-text="r" xlink:href="#font_1_3" transform="matrix(9.962799,0,0,-9.962899,81.49434,164.43149)" fill="#0000ff"/>
<path transform="matrix(1.00002,0,0,-1.00003,28.14727,77.53588)" stroke-width=".79701" stroke-linecap="butt" stroke-miterlimit="10" stroke-linejoin="miter" fill="none" stroke="#ff0000" d="M68.88185-52.4583C68.88185-55.65707 70.4611-60.15501 72.45908-62.65262"/>
<path transform="matrix(0,-1.00003,-1.00002,-0,97.0305,129.99576)" d="M1.0361 0C-.25902 .25902-1.55415 .77707-3.1083 1.68365-1.55415 .51805-1.55415-.51805-3.1083-1.68365-1.55415-.77707-.25902-.25902 1.0361 0Z" fill="#ff0000"/>
<path transform="matrix(0,-1.00003,-1.00002,-0,97.0305,129.99576)" stroke-width=".79701" stroke-linecap="butt" stroke-linejoin="round" fill="none" stroke="#ff0000" d="M1.0361 0C-.25902 .25902-1.55415 .77707-3.1083 1.68365-1.55415 .51805-1.55415-.51805-3.1083-1.68365-1.55415-.77707-.25902-.25902 1.0361 0Z"/>
<path transform="matrix(.6246425,.7808735,.7808656,-.62464877,100.60778,140.19039)" d="M1.0361 0C-.25902 .25902-1.55415 .77707-3.1083 1.68365-1.55415 .51805-1.55415-.51805-3.1083-1.68365-1.55415-.77707-.25902-.25902 1.0361 0Z" fill="#ff0000"/>
<path transform="matrix(.6246425,.7808735,.7808656,-.62464877,100.60778,140.19039)" stroke-width=".79701" stroke-linecap="butt" stroke-linejoin="round" fill="none" stroke="#ff0000" d="M1.0361 0C-.25902 .25902-1.55415 .77707-3.1083 1.68365-1.55415 .51805-1.55415-.51805-3.1083-1.68365-1.55415-.77707-.25902-.25902 1.0361 0Z"/>
<use data-text="&#x02dc;" xlink:href="#font_2_3" transform="matrix(9.962799,0,0,-9.962899,88.33247,139.32173)" fill="#ff0000"/>
<use data-text="&#x03b8;" xlink:href="#font_1_1" transform="matrix(9.962799,0,0,-9.962899,87.51645,141.95082)" fill="#ff0000"/>
<path transform="matrix(1.00002,0,0,-1.00003,28.14727,77.53588)" stroke-width=".79701" stroke-linecap="butt" stroke-miterlimit="10" stroke-linejoin="miter" fill="none" stroke="#929292" d="M96.94513-51.02368C96.94513-46.79663 93.51854-43.37004 89.29149-43.37004 85.06444-43.37004 81.63783-46.79663 81.63783-51.02368 81.63783-52.76122 82.23006-54.44795 82.4192-54.68446"/>
<path transform="matrix(.62467256,.7808435,.7808356,-.6246788,110.56811,132.22199)" d="M1.0361 0C-.25902 .25902-1.55415 .77707-3.1083 1.68365-1.55415 .51805-1.55415-.51805-3.1083-1.68365-1.55415-.77707-.25902-.25902 1.0361 0Z" fill="#929292"/>
<path transform="matrix(.62467256,.7808435,.7808356,-.6246788,110.56811,132.22199)" stroke-width=".79701" stroke-linecap="butt" stroke-linejoin="round" fill="none" stroke="#929292" d="M1.0361 0C-.25902 .25902-1.55415 .77707-3.1083 1.68365-1.55415 .51805-1.55415-.51805-3.1083-1.68365-1.55415-.77707-.25902-.25902 1.0361 0Z"/>
<use data-text="&#x03b8;" xlink:href="#font_1_1" transform="matrix(9.962799,0,0,-9.962899,105.45582,122.601238)"/>
<path transform="matrix(1.00002,0,0,-1.00003,28.14727,77.53588)" stroke-width=".79701" stroke-linecap="butt" stroke-dasharray="2.98883,2.98883" stroke-miterlimit="10" stroke-linejoin="miter" fill="none" stroke="#929292" d="M25.51183-51.02368V-102.04741"/>
<path transform="matrix(1.00002,0,0,-1.00003,28.14727,77.53588)" stroke-width=".79701" stroke-linecap="butt" stroke-miterlimit="10" stroke-linejoin="miter" fill="none" stroke="#0000ff" d="M25.51183-51.02368V-57.40167H31.8898V-51.02368ZM31.8898-57.40167"/>
<path transform="matrix(1.00002,0,0,-1.00003,28.14727,77.53588)" d="M26.8568-102.04741C26.8568-101.30461 26.25462-100.70244 25.51183-100.70244 24.76903-100.70244 24.16687-101.30461 24.16687-102.04741 24.16687-102.7902 24.76903-103.39236 25.51183-103.39236 26.25462-103.39236 26.8568-102.7902 26.8568-102.04741ZM25.51183-102.04741"/>
<path transform="matrix(1.00002,0,0,-1.00003,28.14727,77.53588)" stroke-width=".3985" stroke-linecap="butt" stroke-miterlimit="10" stroke-linejoin="miter" fill="none" stroke="#000000" d="M26.8568-102.04741C26.8568-101.30461 26.25462-100.70244 25.51183-100.70244 24.76903-100.70244 24.16687-101.30461 24.16687-102.04741 24.16687-102.7902 24.76903-103.39236 25.51183-103.39236 26.25462-103.39236 26.8568-102.7902 26.8568-102.04741ZM25.51183-102.04741"/>
<use data-text="T" xlink:href="#font_3_104" transform="matrix(9.962799,0,0,-9.962899,1.2167282,221.5312)" fill="#0000ff"/>
<use data-text="h" xlink:href="#font_3_63" transform="matrix(9.962799,0,0,-9.962899,8.409874,221.5312)" fill="#0000ff"/>
<use data-text="i" xlink:href="#font_3_66" transform="matrix(9.962799,0,0,-9.962899,13.949188,221.5312)" fill="#0000ff"/>
<use data-text="r" xlink:href="#font_3_96" transform="matrix(9.962799,0,0,-9.962899,16.718857,221.5312)" fill="#0000ff"/>
<use data-text="d" xlink:href="#font_3_47" transform="matrix(9.962799,0,0,-9.962899,20.624268,221.5312)" fill="#0000ff"/>
<use data-text="-" xlink:href="#font_3_64" transform="matrix(9.962799,0,0,-9.962899,26.163575,221.5312)" fill="#0000ff"/>
<use data-text="q" xlink:href="#font_3_91" transform="matrix(9.962799,0,0,-9.962899,29.481202,221.5312)" fill="#0000ff"/>
<use data-text="u" xlink:href="#font_3_109" transform="matrix(9.962799,0,0,-9.962899,34.74156,221.5312)" fill="#0000ff"/>
<use data-text="a" xlink:href="#font_3_28" transform="matrix(9.962799,0,0,-9.962899,40.28087,221.5312)" fill="#0000ff"/>
<use data-text="d" xlink:href="#font_3_47" transform="matrix(9.962799,0,0,-9.962899,45.262254,221.5312)" fill="#0000ff"/>
<use data-text="r" xlink:href="#font_3_96" transform="matrix(9.962799,0,0,-9.962899,50.801576,221.5312)" fill="#0000ff"/>
<use data-text="a" xlink:href="#font_3_28" transform="matrix(9.962799,0,0,-9.962899,54.706987,221.5312)" fill="#0000ff"/>
<use data-text="n" xlink:href="#font_3_77" transform="matrix(9.962799,0,0,-9.962899,59.68837,221.5312)" fill="#0000ff"/>
<use data-text="t" xlink:href="#font_3_105" transform="matrix(9.962799,0,0,-9.962899,64.94873,221.5312)" fill="#0000ff"/>
<use data-text=":" xlink:href="#font_3_44" transform="matrix(9.962799,0,0,-9.962899,68.824268,221.5312)" fill="#0000ff"/>
<use data-text="&#x02dc;" xlink:href="#font_2_3" transform="matrix(9.962799,0,0,-9.962899,77.39125,218.90212)" fill="#0000ff"/>
<use data-text="&#x03b8;" xlink:href="#font_1_1" transform="matrix(9.962799,0,0,-9.962899,76.57524,221.5312)" fill="#0000ff"/>
<use data-text="=" xlink:href="#font_2_2" transform="matrix(9.962799,0,0,-9.962899,84.2964,221.5312)" fill="#0000ff"/>
<use data-text="&#x03b8;" xlink:href="#font_1_1" transform="matrix(9.962799,0,0,-9.962899,94.81261,221.5312)" fill="#0000ff"/>
<use data-text="&#x2212;" xlink:href="#font_4_1" transform="matrix(9.962799,0,0,-9.962899,101.98076,221.5312)" fill="#0000ff"/>
<use data-text="&#x03c0;" xlink:href="#font_1_2" transform="matrix(9.962799,0,0,-9.962899,111.94296,221.5312)" fill="#0000ff"/>
<path transform="matrix(1.00002,0,0,-1.00003,28.14727,77.53588)" stroke-width=".79701" stroke-linecap="butt" stroke-miterlimit="10" stroke-linejoin="miter" fill="none" stroke="#000000" d="M140.31517-51.02368H240.92801"/>
<path transform="matrix(1.00002,0,0,-1.00003,269.0801,128.5611)" d="M1.0361 0C-.25902 .25902-1.55415 .77707-3.1083 1.68365-1.55415 .51805-1.55415-.51805-3.1083-1.68365-1.55415-.77707-.25902-.25902 1.0361 0Z"/>
<path transform="matrix(1.00002,0,0,-1.00003,269.0801,128.5611)" stroke-width=".79701" stroke-linecap="butt" stroke-linejoin="round" fill="none" stroke="#000000" d="M1.0361 0C-.25902 .25902-1.55415 .77707-3.1083 1.68365-1.55415 .51805-1.55415-.51805-3.1083-1.68365-1.55415-.77707-.25902-.25902 1.0361 0Z"/>
<path transform="matrix(1.00002,0,0,-1.00003,28.14727,77.53588)" stroke-width=".79701" stroke-linecap="butt" stroke-miterlimit="10" stroke-linejoin="miter" fill="none" stroke="#000000" d="M153.07114-34.60002V-122.45695"/>
<path transform="matrix(0,-1.00003,-1.00002,-0,181.22147,112.13694)" d="M1.0361 0C-.25902 .25902-1.55415 .77707-3.1083 1.68365-1.55415 .51805-1.55415-.51805-3.1083-1.68365-1.55415-.77707-.25902-.25902 1.0361 0Z"/>
<path transform="matrix(0,-1.00003,-1.00002,-0,181.22147,112.13694)" stroke-width=".79701" stroke-linecap="butt" stroke-linejoin="round" fill="none" stroke="#000000" d="M1.0361 0C-.25902 .25902-1.55415 .77707-3.1083 1.68365-1.55415 .51805-1.55415-.51805-3.1083-1.68365-1.55415-.77707-.25902-.25902 1.0361 0Z"/>
<path transform="matrix(1.00002,0,0,-1.00003,28.14727,77.53588)" stroke-width=".79701" stroke-linecap="butt" stroke-miterlimit="10" stroke-linejoin="miter" fill="none" stroke="#0000ff" d="M153.07114-51.02368 241.24245-121.56082"/>
<path transform="matrix(.7808356,.6246788,.62467256,-.7808435,269.39457,199.10034)" d="M1.0361 0C-.25902 .25902-1.55415 .77707-3.1083 1.68365-1.55415 .51805-1.55415-.51805-3.1083-1.68365-1.55415-.77707-.25902-.25902 1.0361 0Z" fill="#0000ff"/>
<path transform="matrix(.7808356,.6246788,.62467256,-.7808435,269.39457,199.10034)" stroke-width=".79701" stroke-linecap="butt" stroke-linejoin="round" fill="none" stroke="#0000ff" d="M1.0361 0C-.25902 .25902-1.55415 .77707-3.1083 1.68365-1.55415 .51805-1.55415-.51805-3.1083-1.68365-1.55415-.77707-.25902-.25902 1.0361 0Z"/>
<use data-text="r" xlink:href="#font_1_3" transform="matrix(9.962799,0,0,-9.962899,212.39597,164.43149)" fill="#0000ff"/>
<path transform="matrix(1.00002,0,0,-1.00003,28.14727,77.53588)" stroke-width=".79701" stroke-linecap="butt" stroke-miterlimit="10" stroke-linejoin="miter" fill="none" stroke="#ff0000" d="M173.48076-52.4583C173.48076-55.65707 171.9015-60.15501 169.90352-62.65262"/>
<path transform="matrix(0,-1.00003,-1.00002,-0,201.6315,129.99576)" d="M1.0361 0C-.25902 .25902-1.55415 .77707-3.1083 1.68365-1.55415 .51805-1.55415-.51805-3.1083-1.68365-1.55415-.77707-.25902-.25902 1.0361 0Z" fill="#ff0000"/>
<path transform="matrix(0,-1.00003,-1.00002,-0,201.6315,129.99576)" stroke-width=".79701" stroke-linecap="butt" stroke-linejoin="round" fill="none" stroke="#ff0000" d="M1.0361 0C-.25902 .25902-1.55415 .77707-3.1083 1.68365-1.55415 .51805-1.55415-.51805-3.1083-1.68365-1.55415-.77707-.25902-.25902 1.0361 0Z"/>
<path transform="matrix(-.6246425,.7808735,.7808656,.62464877,198.0542,140.19039)" d="M1.0361 0C-.25902 .25902-1.55415 .77707-3.1083 1.68365-1.55415 .51805-1.55415-.51805-3.1083-1.68365-1.55415-.77707-.25902-.25902 1.0361 0Z" fill="#ff0000"/>
<path transform="matrix(-.6246425,.7808735,.7808656,.62464877,198.0542,140.19039)" stroke-width=".79701" stroke-linecap="butt" stroke-linejoin="round" fill="none" stroke="#ff0000" d="M1.0361 0C-.25902 .25902-1.55415 .77707-3.1083 1.68365-1.55415 .51805-1.55415-.51805-3.1083-1.68365-1.55415-.77707-.25902-.25902 1.0361 0Z"/>
<use data-text="&#x02dc;" xlink:href="#font_2_3" transform="matrix(9.962799,0,0,-9.962899,207.00785,139.32173)" fill="#ff0000"/>
<use data-text="&#x03b8;" xlink:href="#font_1_1" transform="matrix(9.962799,0,0,-9.962899,206.19184,141.95082)" fill="#ff0000"/>
<path transform="matrix(1.00002,0,0,-1.00003,28.14727,77.53588)" stroke-width=".79701" stroke-linecap="butt" stroke-miterlimit="10" stroke-linejoin="miter" fill="none" stroke="#929292" d="M160.7248-51.02368C160.7248-46.79663 157.29819-43.37004 153.07115-43.37004 148.8441-43.37004 145.4175-46.79663 145.4175-51.02368 145.4175-55.25073 148.8441-58.67734 153.07115-58.67734 155.39575-58.67734 157.5953-57.6197 158.15123-56.92485"/>
<path transform="matrix(.6246125,-.7808735,-.7808656,-.62461879,186.30167,134.46244)" d="M1.0361 0C-.25902 .25902-1.55415 .77707-3.1083 1.68365-1.55415 .51805-1.55415-.51805-3.1083-1.68365-1.55415-.77707-.25902-.25902 1.0361 0Z" fill="#929292"/>
<path transform="matrix(.6246125,-.7808735,-.7808656,-.62461879,186.30167,134.46244)" stroke-width=".79701" stroke-linecap="butt" stroke-linejoin="round" fill="none" stroke="#929292" d="M1.0361 0C-.25902 .25902-1.55415 .77707-3.1083 1.68365-1.55415 .51805-1.55415-.51805-3.1083-1.68365-1.55415-.77707-.25902-.25902 1.0361 0Z"/>
<use data-text="&#x03b8;" xlink:href="#font_1_1" transform="matrix(9.962799,0,0,-9.962899,171.52213,122.30823)"/>
<path transform="matrix(1.00002,0,0,-1.00003,28.14727,77.53588)" stroke-width=".79701" stroke-linecap="butt" stroke-dasharray="2.98883,2.98883" stroke-miterlimit="10" stroke-linejoin="miter" fill="none" stroke="#929292" d="M216.85079-51.02368V-102.04741"/>
<path transform="matrix(1.00002,0,0,-1.00003,28.14727,77.53588)" stroke-width=".79701" stroke-linecap="butt" stroke-miterlimit="10" stroke-linejoin="miter" fill="none" stroke="#0000ff" d="M216.85079-51.02368V-57.40167H210.4728V-51.02368ZM210.4728-57.40167"/>
<path transform="matrix(1.00002,0,0,-1.00003,28.14727,77.53588)" d="M218.19576-102.04741C218.19576-101.30461 217.59358-100.70244 216.85079-100.70244 216.10799-100.70244 215.50583-101.30461 215.50583-102.04741 215.50583-102.7902 216.10799-103.39236 216.85079-103.39236 217.59358-103.39236 218.19576-102.7902 218.19576-102.04741ZM216.85079-102.04741"/>
<path transform="matrix(1.00002,0,0,-1.00003,28.14727,77.53588)" stroke-width=".3985" stroke-linecap="butt" stroke-miterlimit="10" stroke-linejoin="miter" fill="none" stroke="#000000" d="M218.19576-102.04741C218.19576-101.30461 217.59358-100.70244 216.85079-100.70244 216.10799-100.70244 215.50583-101.30461 215.50583-102.04741 215.50583-102.7902 216.10799-103.39236 216.85079-103.39236 217.59358-103.39236 218.19576-102.7902 218.19576-102.04741ZM216.85079-102.04741"/>
<use data-text="F" xlink:href="#font_3_54" transform="matrix(9.962799,0,0,-9.962899,148.33869,221.5312)" fill="#0000ff"/>
<use data-text="o" xlink:href="#font_3_81" transform="matrix(9.962799,0,0,-9.962899,154.01747,221.5312)" fill="#0000ff"/>
<use data-text="u" xlink:href="#font_3_109" transform="matrix(9.962799,0,0,-9.962899,158.99887,221.5312)" fill="#0000ff"/>
<use data-text="r" xlink:href="#font_3_96" transform="matrix(9.962799,0,0,-9.962899,164.5382,221.5312)" fill="#0000ff"/>
<use data-text="t" xlink:href="#font_3_105" transform="matrix(9.962799,0,0,-9.962899,168.4436,221.5312)" fill="#0000ff"/>
<use data-text="h" xlink:href="#font_3_63" transform="matrix(9.962799,0,0,-9.962899,172.31914,221.5312)" fill="#0000ff"/>
<use data-text="-" xlink:href="#font_3_64" transform="matrix(9.962799,0,0,-9.962899,177.85845,221.5312)" fill="#0000ff"/>
<use data-text="q" xlink:href="#font_3_91" transform="matrix(9.962799,0,0,-9.962899,181.17607,221.5312)" fill="#0000ff"/>
<use data-text="u" xlink:href="#font_3_109" transform="matrix(9.962799,0,0,-9.962899,186.43643,221.5312)" fill="#0000ff"/>
<use data-text="a" xlink:href="#font_3_28" transform="matrix(9.962799,0,0,-9.962899,191.97574,221.5312)" fill="#0000ff"/>
<use data-text="d" xlink:href="#font_3_47" transform="matrix(9.962799,0,0,-9.962899,196.95713,221.5312)" fill="#0000ff"/>
<use data-text="r" xlink:href="#font_3_96" transform="matrix(9.962799,0,0,-9.962899,202.49645,221.5312)" fill="#0000ff"/>
<use data-text="a" xlink:href="#font_3_28" transform="matrix(9.962799,0,0,-9.962899,206.40186,221.5312)" fill="#0000ff"/>
<use data-text="n" xlink:href="#font_3_77" transform="matrix(9.962799,0,0,-9.962899,211.38324,221.5312)" fill="#0000ff"/>
<use data-text="t" xlink:href="#font_3_105" transform="matrix(9.962799,0,0,-9.962899,216.6436,221.5312)" fill="#0000ff"/>
<use data-text=":" xlink:href="#font_3_44" transform="matrix(9.962799,0,0,-9.962899,220.51914,221.5312)" fill="#0000ff"/>
<use data-text="&#x02dc;" xlink:href="#font_2_3" transform="matrix(9.962799,0,0,-9.962899,229.08629,218.90212)" fill="#0000ff"/>
<use data-text="&#x03b8;" xlink:href="#font_1_1" transform="matrix(9.962799,0,0,-9.962899,228.27028,221.5312)" fill="#0000ff"/>
<use data-text="=" xlink:href="#font_2_2" transform="matrix(9.962799,0,0,-9.962899,235.99144,221.5312)" fill="#0000ff"/>
<use data-text="2" xlink:href="#font_2_1" transform="matrix(9.962799,0,0,-9.962899,246.49222,221.5312)" fill="#0000ff"/>
<use data-text="&#x03c0;" xlink:href="#font_1_2" transform="matrix(9.962799,0,0,-9.962899,251.48874,221.5312)" fill="#0000ff"/>
<use data-text="&#x2212;" xlink:href="#font_4_1" transform="matrix(9.962799,0,0,-9.962899,259.73994,221.5312)" fill="#0000ff"/>
<use data-text="&#x03b8;" xlink:href="#font_1_1" transform="matrix(9.962799,0,0,-9.962899,269.70213,221.5312)" fill="#0000ff"/>
</svg>
