<svg xmlns="http://www.w3.org/2000/svg" xmlns:xlink="http://www.w3.org/1999/xlink" version="1.1" width="129" height="99" viewBox="0 0 129 99">
<defs>
<path id="font_1_2" d="M.33399964 .30233766C.33999635 .32835389 .36299134 .42037965 .43299867 .42037965 .43798829 .42037965 .46199037 .42037965 .48298646 .40734864 .45498658 .402359 .43499757 .37734986 .43499757 .35334779 .43499757 .33735658 .44599916 .31835938 .47299195 .31835938 .49499513 .31835938 .5269928 .3363495 .5269928 .37635804 .5269928 .42837525 .46798707 .4423828 .43399049 .4423828 .37599183 .4423828 .34098817 .38935853 .32899476 .36634828 .3039856 .43237306 .25 .4423828 .22099304 .4423828 .116989139 .4423828 .05999756 .3133545 .05999756 .28834535 .05999756 .27833558 .069992069 .27833558 .07199097 .27833558 .07998657 .27833558 .08299255 .28033448 .084991458 .28933717 .11898804 .39535523 .18499756 .42037965 .21899414 .42037965 .23799134 .42037965 .272995 .4113617 .272995 .35334779 .272995 .32235719 .2559967 .25532533 .21899414 .11528015 .20298767 .053268434 .16799927 .011245728 .12399292 .011245728 .117996219 .011245728 .09498596 .011245728 .07398987 .024276734 .09899902 .029266358 .12098694 .05027771 .12098694 .07827759 .12098694 .105270389 .09899902 .11328125 .083999637 .11328125 .053985597 .11328125 .0289917 .08728027 .0289917 .055267335 .0289917 .009246826 .07899475-.0107421879 .12298584-.0107421879 .18899536-.0107421879 .22499085 .059280397 .22799683 .0652771 .23999024 .028274537 .27598573-.0107421879 .33599855-.0107421879 .43899537-.0107421879 .49598695 .118270877 .49598695 .14328003 .49598695 .1532898 .4869995 .1532898 .48399354 .1532898 .47499085 .1532898 .47299195 .14929199 .47099305 .14228821 .43798829 .03527832 .36999513 .011245728 .33799745 .011245728 .29899598 .011245728 .2829895 .043273927 .2829895 .07727051 .2829895 .09927368 .2889862 .121276859 .2999878 .16529846L.33399964 .30233766Z"/>
<path id="font_1_3" d="M.48599244 .38136292C.48999024 .39537049 .48999024 .39736939 .48999024 .40437318 .48999024 .42237855 .47599793 .43138124 .46099855 .43138124 .45098878 .43138124 .43499757 .42536927 .42599488 .41036988 .42399598 .405365 .41600038 .37435914 .4119873 .35635377 .40499879 .33035279 .397995 .30334474 .3919983 .27633668L.34700013 .09628296C.34298707 .08126831 .2999878 .011245728 .23399353 .011245728 .18299866 .011245728 .17199707 .055267335 .17199707 .0922699 .17199707 .1382904 .18899536 .20030213 .22299195 .28833009 .23899842 .3293457 .24299622 .3403473 .24299622 .36035157 .24299622 .405365 .21099854 .4423828 .16099549 .4423828 .06599426 .4423828 .0289917 .29733277 .0289917 .28833009 .0289917 .27833558 .038986207 .27833558 .040985109 .27833558 .050994874 .27833558 .051986696 .28033448 .056991579 .29634095 .083999637 .3903656 .12399292 .42037965 .1579895 .42037965 .1659851 .42037965 .18299866 .42037965 .18299866 .3883667 .18299866 .36335755 .17298889 .3373413 .1659851 .31834413 .12599182 .21231079 .10798645 .1552887 .10798645 .10827637 .10798645 .019256592 .17098999-.0107421879 .22999573-.0107421879 .2689972-.0107421879 .30299378 .0062561037 .33099366 .03425598 .31799317-.017745972 .30599977-.06674194 .2659912-.11973572 .23999024-.15385437 .20199585-.18309021 .1559906-.18309021 .14199829-.18309021 .09700012-.18005371 .07998657-.14074707 .09599304-.14074707 .10899353-.14074707 .12298584-.1287384 .1329956-.11973572 .14299011-.10673523 .14299011-.08773804 .14299011-.056747438 .115997318-.052734376 .10598755-.052734376 .08299255-.052734376 .049987794-.068740848 .049987794-.11773682 .049987794-.16796875 .09399414-.20507813 .1559906-.20507813 .25898744-.20507813 .3619995-.11373901 .3899994-.00074768069L.48599244 .38136292Z"/>
<path id="font_2_1" d="M.6589966 .23046875C.6759949 .23046875 .69400027 .23046875 .69400027 .25045777 .69400027 .27046205 .6759949 .27046205 .6589966 .27046205H.117996219C.100997928 .27046205 .08299255 .27046205 .08299255 .25045777 .08299255 .23046875 .100997928 .23046875 .117996219 .23046875H.6589966Z"/>
<path id="font_1_1" d="M.2649994 .37265016H.37799073C.34498597 .22489929 .33599855 .18196106 .33599855 .11508179 .33599855 .100097659 .33599855 .073150638 .34399415 .03919983 .35398866-.0047454836 .36499024-.0107421879 .37998963-.0107421879 .3999939-.0107421879 .42099 .007247925 .42099 .02722168 .42099 .033218385 .42099 .035202028 .4149933 .049179079 .38598634 .12106323 .38598634 .18595886 .38598634 .21391297 .38598634 .26683045 .3929901 .32073976 .4039917 .37265016H.5179901C.5309906 .37265016 .5669861 .37265016 .5669861 .406662 .5669861 .43066407 .54599 .43066407 .5269928 .43066407H.19198609C.16999817 .43066407 .13198853 .43066407 .08799744 .38365174 .052993776 .34469605 .026992798 .29878236 .026992798 .29379273 .026992798 .29278565 .026992798 .28379823 .038986207 .28379823 .04699707 .28379823 .04899597 .28779603 .054992677 .29577638 .10398865 .37265016 .1619873 .37265016 .18199158 .37265016H.23899842C.20698548 .25186158 .15299988 .13105774 .11099243 .04020691 .102996829 .025222779 .102996829 .023223877 .102996829 .016235352 .102996829-.002746582 .11898804-.0107421879 .13198853-.0107421879 .1619873-.0107421879 .16999817 .017242432 .18199158 .05418396 .19599915 .100097659 .19599915 .10209656 .20899964 .15202332L.2649994 .37265016Z"/>
<path id="font_3_2" d="M.1269989 .07699585 .23298645 .18003845C.3889923 .31811524 .44898988 .3721466 .44898988 .47216798 .44898988 .5860901 .35899354 .6660156 .23699951 .6660156 .12399292 .6660156 .049987794 .57411196 .049987794 .48516847 .049987794 .4291687 .099990848 .4291687 .102996829 .4291687 .11999512 .4291687 .15499878 .44117738 .15499878 .48217774 .15499878 .5081787 .13699341 .5341797 .101989749 .5341797 .09399414 .5341797 .09199524 .5341797 .08898926 .5331726 .11199951 .59806826 .1659851 .63500979 .22399903 .63500979 .31498719 .63500979 .35798646 .5541382 .35798646 .47216798 .35798646 .39215089 .30799867 .31311036 .25299073 .25108338L.06098938 .036987306C.049987794 .025985718 .049987794 .023986817 .049987794 0H.42099L.44898988 .17404175H.42399598C.4189911 .14402771 .4119873 .1000061 .4019928 .084991458 .394989 .07699585 .32899476 .07699585 .30699159 .07699585H.1269989Z"/>
<path id="font_3_1" d="M.2939911 .64004519C.2939911 .66400149 .2939911 .6660156 .2709961 .6660156 .20899964 .60227969 .12098694 .60227969 .08898926 .60227969V.57128909C.10899353 .57128909 .16799927 .57128909 .21998596 .5972748V.07902527C.21998596 .042999269 .21699524 .0309906 .1269989 .0309906H.09498596V0C.12998963 .0029907227 .21699524 .0029907227 .25698854 .0029907227 .29699708 .0029907227 .38398744 .0029907227 .4189911 0V.0309906H.3869934C.29699708 .0309906 .2939911 .041992189 .2939911 .07902527V.64004519Z"/>
<path id="font_3_3" d="M.68699648 .32714845C.70199587 .32714845 .72099307 .32714845 .72099307 .34713746 .72099307 .36714173 .70199587 .36714173 .6879883 .36714173H.08898926C.07499695 .36714173 .055999757 .36714173 .055999757 .34713746 .055999757 .32714845 .07499695 .32714845 .08999634 .32714845H.68699648M.6879883 .13284302C.70199587 .13284302 .72099307 .13284302 .72099307 .15284729 .72099307 .17285156 .70199587 .17285156 .68699648 .17285156H.08999634C.07499695 .17285156 .055999757 .17285156 .055999757 .15284729 .055999757 .13284302 .07499695 .13284302 .08898926 .13284302H.6879883Z"/>
<path id="font_3_6" d="M.20799256 .19424439C.22999573 .19024658 .31199647 .17424011 .31199647 .102249149 .31199647 .051254274 .2769928 .011245728 .19898987 .011245728 .114990238 .011245728 .07899475 .06825256 .05999756 .15324402 .056991579 .1662445 .055999757 .17024231 .04598999 .17024231 .032989503 .17024231 .032989503 .16323853 .032989503 .14524842V.013244629C.032989503-.003753662 .032989503-.0107421879 .04399109-.0107421879 .04899597-.0107421879 .049987794-.009750366 .068984989 .009246826 .070999149 .011245728 .070999149 .013244629 .08898926 .03224182 .1329956-.009750366 .17799378-.0107421879 .19898987-.0107421879 .31399537-.0107421879 .3600006 .056243898 .3600006 .12825012 .3600006 .1812439 .32998658 .21124268 .31799317 .22323609 .2849884 .25523377 .24598694 .26324464 .20399475 .27124024 .147995 .28224183 .08099365 .2952423 .08099365 .35324098 .08099365 .38822938 .10699463 .42922975 .19299317 .42922975 .30299378 .42922975 .30799867 .3392334 .30999757 .3082428 .31098939 .2992401 .31999208 .2992401 .32199098 .2992401 .33499146 .2992401 .33499146 .304245 .33499146 .3232422V.4242401C.33499146 .4412384 .33499146 .4482422 .32398988 .4482422 .31900025 .4482422 .31698609 .4482422 .3039856 .43623353 .30099488 .43223573 .29100038 .42323304 .2869873 .42022706 .24899292 .4482422 .20799256 .4482422 .19299317 .4482422 .070999149 .4482422 .032989503 .38124085 .032989503 .3252411 .032989503 .29023744 .04899597 .26223756 .07598877 .24023438 .10798645 .21424866 .13598633 .2082367 .20799256 .19424439Z"/>
<path id="font_3_4" d="M.1769867 .4423828 .036987306 .43138124V.40037538C.101989749 .40037538 .11099243 .3943634 .11099243 .34532167V.076034549C.11099243 .0309906 .099990848 .0309906 .032989503 .0309906V0C.06498718 .0009918213 .11898804 .0029907227 .14299011 .0029907227 .17799378 .0029907227 .21299744 .0009918213 .24699402 0V.0309906C.18099976 .0309906 .1769867 .035995485 .1769867 .075042728V.4423828M.18099976 .6159363C.18099976 .64793398 .1559906 .6689453 .12799073 .6689453 .09700012 .6689453 .07499695 .64193728 .07499695 .6159363 .07499695 .5889435 .09700012 .5629425 .12799073 .5629425 .1559906 .5629425 .18099976 .5839386 .18099976 .6159363Z"/>
<path id="font_3_5" d="M.10998535 .34429933V.076034549C.10998535 .0309906 .09899902 .0309906 .03199768 .0309906V0C.066986087 .0009918213 .117996219 .0029907227 .14498902 .0029907227 .17098999 .0029907227 .22299195 .0009918213 .25698854 0V.0309906C.18998719 .0309906 .1789856 .0309906 .1789856 .076034549V.2602234C.1789856 .36431886 .25 .42037965 .31399537 .42037965 .3769989 .42037965 .3880005 .36631776 .3880005 .30926515V.076034549C.3880005 .0309906 .3769989 .0309906 .30999757 .0309906V0C.34498597 .0009918213 .3959961 .0029907227 .4229889 .0029907227 .44898988 .0029907227 .5009918 .0009918213 .5349884 0V.0309906C.48298646 .0309906 .45799256 .0309906 .45700074 .061019899V.25221253C.45700074 .3383026 .45700074 .36932374 .42599488 .405365 .4119873 .42237855 .3789978 .4423828 .32099916 .4423828 .24798584 .4423828 .20098877 .39935304 .17298889 .33729554V.4423828L.03199768 .43138124V.40037538C.101989749 .4003601 .10998535 .39335633 .10998535 .34429933Z"/>
<path id="font_4_1" d="M.74398806 .2263794C.7599945 .2263794 .7839966 .2263794 .7839966 .25038148 .7839966 .27539063 .7609863 .27539063 .74398806 .27539063H.147995C.13198853 .27539063 .10798645 .27539063 .10798645 .25138856 .10798645 .2263794 .1309967 .2263794 .147995 .2263794H.74398806Z"/>
<path id="font_5_1" d="M.33499146 .63612368C.33499146 .6630554 .33299256 .6640625 .30499269 .6640625 .24099732 .6014404 .1499939 .6004486 .10899353 .6004486V.5644531C.1329956 .5644531 .19898987 .5644531 .2539978 .592453V.08203125C.2539978 .04899597 .2539978 .035995485 .1539917 .035995485H.115997318V0C.13398743 .0009918213 .25698854 .0039978029 .2939911 .0039978029 .32499696 .0039978029 .45098878 .0009918213 .47299195 0V.035995485H.43499757C.33499146 .035995485 .33499146 .04899597 .33499146 .08203125V.63612368Z"/>
</defs>
<path transform="matrix(1.00006,0,0,-1.00003,54.44819,54.387247)" stroke-width=".79701" stroke-linecap="butt" stroke-miterlimit="10" stroke-linejoin="miter" fill="none" stroke="#000000" d="M-53.15024 0H51.71564"/>
<path transform="matrix(1.00006,0,0,-1.00003,106.16693,54.387247)" d="M1.0361 0C-.25902 .25902-1.55415 .77707-3.1083 1.68365-1.55415 .51805-1.55415-.51805-3.1083-1.68365-1.55415-.77707-.25902-.25902 1.0361 0Z"/>
<path transform="matrix(1.00006,0,0,-1.00003,106.16693,54.387247)" stroke-width=".79701" stroke-linecap="butt" stroke-linejoin="round" fill="none" stroke="#000000" d="M1.0361 0C-.25902 .25902-1.55415 .77707-3.1083 1.68365-1.55415 .51805-1.55415-.51805-3.1083-1.68365-1.55415-.77707-.25902-.25902 1.0361 0Z"/>
<use data-text="x" xlink:href="#font_1_2" transform="matrix(9.963197,0,0,-9.962899,111.3206,56.53231)"/>
<path transform="matrix(1.00006,0,0,-1.00003,54.44819,54.387247)" stroke-width=".79701" stroke-linecap="butt" stroke-miterlimit="10" stroke-linejoin="miter" fill="none" stroke="#000000" d="M0-40.39406V41.08559"/>
<path transform="matrix(0,-1.00003,-1.00006,-0,54.44819,13.300419)" d="M1.0361 0C-.25902 .25902-1.55415 .77707-3.1083 1.68365-1.55415 .51805-1.55415-.51805-3.1083-1.68365-1.55415-.77707-.25902-.25902 1.0361 0Z"/>
<path transform="matrix(0,-1.00003,-1.00006,-0,54.44819,13.300419)" stroke-width=".79701" stroke-linecap="butt" stroke-linejoin="round" fill="none" stroke="#000000" d="M1.0361 0C-.25902 .25902-1.55415 .77707-3.1083 1.68365-1.55415 .51805-1.55415-.51805-3.1083-1.68365-1.55415-.77707-.25902-.25902 1.0361 0Z"/>
<use data-text="y" xlink:href="#font_1_3" transform="matrix(9.963197,0,0,-9.962899,51.827035,6.2098009)"/>
<path transform="matrix(1.00006,0,0,-1.00003,54.44819,54.387247)" stroke-width=".79701" stroke-linecap="butt" stroke-miterlimit="10" stroke-linejoin="miter" fill="none" stroke="#000000" d="M2.12613-33.39505H-2.12581"/>
<use data-text="&#x2212;" xlink:href="#font_2_1" transform="matrix(9.963197,0,0,-9.962899,35.613054,83.90213)"/>
<use data-text="&#x03c0;" xlink:href="#font_1_1" transform="matrix(9.963197,0,0,-9.962899,43.362504,83.90213)"/>
<path transform="matrix(1.00006,0,0,-1.00003,-102.0352,49.252096)" stroke-width=".3985" stroke-linecap="butt" stroke-miterlimit="10" stroke-linejoin="miter" fill="none" stroke="#000000" d="M137.64-38.898H151.425"/>
<use data-text="2" xlink:href="#font_3_2" transform="matrix(9.963197,0,0,-9.962899,40.01532,97.47655)"/>
<path transform="matrix(1.00006,0,0,-1.00003,54.44819,54.387247)" stroke-width=".79701" stroke-linecap="butt" stroke-miterlimit="10" stroke-linejoin="miter" fill="none" stroke="#000000" d="M2.12613 33.39505H-2.12581"/>
<use data-text="&#x03c0;" xlink:href="#font_1_1" transform="matrix(9.963197,0,0,-9.962899,43.36252,16.3491)"/>
<path transform="matrix(1.00006,0,0,-1.00003,-94.285739,-18.30094)" stroke-width=".3985" stroke-linecap="butt" stroke-miterlimit="10" stroke-linejoin="miter" fill="none" stroke="#000000" d="M137.64-38.898H143.677"/>
<use data-text="2" xlink:href="#font_3_2" transform="matrix(9.963197,0,0,-9.962899,43.89055,29.92351)"/>
<path transform="matrix(1.00006,0,0,-1.00003,54.44819,54.387247)" stroke-width=".79701" stroke-linecap="butt" stroke-miterlimit="10" stroke-linejoin="miter" fill="none" stroke="#000000" d="M-42.5202 2.12613V-2.12581"/>
<use data-text="&#x2212;" xlink:href="#font_2_1" transform="matrix(9.963197,0,0,-9.962899,5.560257,64.66055)"/>
<use data-text="2" xlink:href="#font_3_2" transform="matrix(9.963197,0,0,-9.962899,13.308731,64.66055)"/>
<path transform="matrix(1.00006,0,0,-1.00003,54.44819,54.387247)" stroke-width=".79701" stroke-linecap="butt" stroke-miterlimit="10" stroke-linejoin="miter" fill="none" stroke="#000000" d="M-21.2601 2.12613V-2.12581"/>
<use data-text="&#x2212;" xlink:href="#font_2_1" transform="matrix(9.963197,0,0,-9.962899,26.821534,64.66055)"/>
<use data-text="1" xlink:href="#font_3_1" transform="matrix(9.963197,0,0,-9.962899,34.570009,64.66055)"/>
<path transform="matrix(1.00006,0,0,-1.00003,54.44819,54.387247)" stroke-width=".79701" stroke-linecap="butt" stroke-miterlimit="10" stroke-linejoin="miter" fill="none" stroke="#000000" d="M21.2601 2.12613V-2.12581"/>
<use data-text="1" xlink:href="#font_3_1" transform="matrix(9.963197,0,0,-9.962899,73.218318,64.66055)"/>
<path transform="matrix(1.00006,0,0,-1.00003,54.44819,54.387247)" stroke-width=".79701" stroke-linecap="butt" stroke-miterlimit="10" stroke-linejoin="miter" fill="none" stroke="#000000" d="M42.5202 2.12613V-2.12581"/>
<use data-text="2" xlink:href="#font_3_2" transform="matrix(9.963197,0,0,-9.962899,94.48059,64.66055)"/>
<path transform="matrix(1.00006,0,0,-1.00003,54.44819,54.387247)" stroke-width=".3985" stroke-linecap="butt" stroke-dasharray="2.98883,2.98883" stroke-miterlimit="10" stroke-linejoin="miter" fill="none" stroke="#929292" d="M34.01628 34.01628-34.01628-34.01628"/>
<use data-text="y" xlink:href="#font_1_3" transform="matrix(9.963197,0,0,-9.962899,4.3341829,96.2145)" fill="#929292"/>
<use data-text="=" xlink:href="#font_3_3" transform="matrix(9.963197,0,0,-9.962899,12.343674,96.2145)" fill="#929292"/>
<use data-text="x" xlink:href="#font_1_2" transform="matrix(9.963197,0,0,-9.962899,22.860306,96.2145)" fill="#929292"/>
<path transform="matrix(1.00006,0,0,-1.00003,54.44819,54.387247)" stroke-width=".3985" stroke-linecap="butt" stroke-dasharray="2.98883,1.99255" stroke-miterlimit="10" stroke-linejoin="miter" fill="none" stroke="#0000ff" d="M-53.15024-12.72308C-53.15024-12.72308-51.95021-13.66734-51.4893-14.01355-51.0284-14.35979-50.28926-14.89694-49.82835-15.2184-49.36746-15.53987-48.62833-16.03569-48.16742-16.33046-47.70651-16.62523-46.96738-17.07664-46.50647-17.34293-46.04556-17.60919-45.30643-18.01347-44.84552-18.24962-44.38461-18.48578-43.64548-18.84044-43.18457-19.04506-42.72368-19.24966-41.98454-19.55261-41.52364-19.72437-41.06273-19.89612-40.3236-20.14505-39.86269-20.28299-39.4018-20.42093-38.66266-20.61551-38.20174-20.71866-37.74083-20.82182-37.0017-20.95865-36.54079-21.02652-36.0799-21.09439-35.34074-21.17569-34.87984-21.20786-34.41893-21.24005-33.6798-21.26228-33.2189-21.25847-32.758-21.25464-32.01886-21.22002-31.55795-21.18028-31.09703-21.14055-30.3579-21.04745-29.897-20.97202-29.4361-20.89659-28.69696-20.74721-28.23605-20.63658-27.77515-20.52594-27.03601-20.31984-26.57512-20.17464-26.11421-20.02943-25.37508-19.76894-24.91417-19.59007-24.45326-19.4112-23.71413-19.09685-23.25323-18.88545-22.79231-18.67404-22.05318-18.30898-21.59227-18.06633-21.13136-17.82368-20.39223-17.40909-19.93134-17.13661-19.47043-16.8641-18.7313-16.40302-18.27039-16.1024-17.80948-15.80176-17.07034-15.29681-16.60945-14.96991-16.14854-14.643-15.40941-14.09747-14.94849-13.74626-14.48758-13.39505-13.74844-12.81194-13.28755-12.43858-12.82664-12.06523-12.08751-11.4486-11.6266-11.05533-11.1657-10.66208-10.42656-10.01508-9.96567-9.60426-9.50476-9.19347-8.76563-8.52023-8.30472-8.0945-7.8438-7.66875-7.10466-6.97388-6.64377-6.53574-6.18286-6.09761-5.44373-5.3846-4.98282-4.93674-4.52191-4.48889-3.78278-3.76271-3.32188-3.30792-2.86098-2.85315-2.12184-2.11795-1.66093-1.65898-1.20003-1.20003-.46089-.46034 0 0 .46089 .46034 1.20003 1.20003 1.66093 1.65898 2.12184 2.11795 2.86098 2.85315 3.32188 3.30792 3.78278 3.76271 4.52191 4.48889 4.98282 4.93674 5.44373 5.3846 6.18286 6.09761 6.64377 6.53574 7.10466 6.97388 7.8438 7.66875 8.30472 8.0945 8.76563 8.52023 9.50476 9.19347 9.96567 9.60426 10.42656 10.01508 11.1657 10.66208 11.6266 11.05533 12.08751 11.4486 12.82664 12.06523 13.28755 12.43858 13.74844 12.81194 14.48758 13.39505 14.94849 13.74626 15.40941 14.09747 16.14854 14.643 16.60945 14.96991 17.07034 15.29681 17.80948 15.80176 18.27039 16.1024 18.7313 16.40302 19.47043 16.8641 19.93134 17.13661 20.39223 17.40909 21.13136 17.82368 21.59227 18.06633 22.05318 18.30898 22.79231 18.67404 23.25323 18.88545 23.71413 19.09685 24.45326 19.4112 24.91417 19.59007 25.37508 19.76894 26.11421 20.02943 26.57512 20.17464 27.03601 20.31984 27.77515 20.52594 28.23605 20.63658 28.69696 20.74721 29.4361 20.89659 29.897 20.97202 30.3579 21.04745 31.09703 21.14055 31.55795 21.18028 32.01886 21.22002 32.758 21.25464 33.2189 21.25847 33.6798 21.26228 34.41893 21.24005 34.87984 21.20786 35.34074 21.17569 36.0799 21.09439 36.54079 21.02652 37.0017 20.95865 37.74083 20.82182 38.20174 20.71866 38.66266 20.61551 39.4018 20.42093 39.86269 20.28299 40.3236 20.14505 41.06273 19.89612 41.52364 19.72437 41.98454 19.55261 42.72368 19.24966 43.18457 19.04506 43.64548 18.84044 44.38461 18.48578 44.84552 18.24962 45.30643 18.01347 46.04556 17.60919 46.50647 17.34293 46.96738 17.07664 47.70651 16.62523 48.16742 16.33046 48.62833 16.03569 49.36746 15.53987 49.82835 15.2184 50.28926 14.89694 51.0284 14.35979 51.4893 14.01355 51.95021 13.66734 53.15024 12.72308 53.15024 12.72308"/>
<path transform="matrix(1.00006,0,0,-1.00003,54.44819,54.387247)" stroke-width="1.59404" stroke-linecap="butt" stroke-miterlimit="10" stroke-linejoin="miter" fill="none" stroke="#0000ff" d="M-33.39505-21.25977C-33.39505-21.25977-32.64127-21.2478-32.35176-21.23347-32.06226-21.21918-31.59799-21.185-31.30849-21.1566-31.01898-21.12822-30.5547-21.07118-30.2652-21.0288-29.9757-20.9864-29.51143-20.90732-29.22192-20.85103-28.93242-20.79472-28.46814-20.6932-28.17863-20.62296-27.88913-20.5527-27.42487-20.4287-27.13536-20.34462-26.84586-20.26054-26.38158-20.11455-26.09207-20.01698-25.80257-19.9194-25.3383-19.75203-25.0488-19.64131-24.7593-19.5306-24.29501-19.34253-24.00551-19.21895-23.716-19.09535-23.25174-18.88678-22.96223-18.7505-22.67273-18.61423-22.20845-18.3854-21.91895-18.23665-21.62944-18.0879-21.16518-17.83911-20.87567-17.67836-20.58617-17.51758-20.12189-17.25026-19.83238-17.07788-19.54288-16.9055-19.07861-16.61943-18.78911-16.43588-18.4996-16.25233-18.03532-15.94916-17.74582-15.75496-17.45631-15.56073-16.99205-15.24065-16.70255-15.03609-16.41304-14.83151-15.94876-14.49498-15.65926-14.28055-15.36975-14.06613-14.90549-13.71428-14.61598-13.49062-14.32648-13.26697-13.8622-12.90092-13.5727-12.6686-13.28319-12.43625-12.81892-12.05653-12.52942-11.81606-12.23991-11.57558-11.77565-11.18344-11.48613-10.93529-11.19662-10.68715-10.73236-10.2828-10.44286-10.02762-10.15335-9.77242-9.68909-9.35753-9.39957-9.09593-9.11006-8.83434-8.6458-8.4095-8.3563-8.14218-8.06679-7.87488-7.60252-7.4417-7.313-7.1693-7.0235-6.8969-6.55923-6.45578-6.26973-6.1789-5.98022-5.902-5.51596-5.45425-5.22644-5.17357-4.93694-4.89288-4.47267-4.4397-4.18317-4.15593-3.89366-3.87213-3.4294-3.41446-3.1399-3.12819-2.85037-2.84193-2.38611-2.3807-2.0966-2.09271-1.8071-1.8047-1.34283-1.34131-1.05333-1.05235-.76381-.7634-.29953-.29927-.01004-.01004 .27942 .27916 .74368 .74327 1.03319 1.03224 1.32271 1.3212 1.78699 1.78458 2.07649 2.0726 2.366 2.3606 2.83026 2.82178 3.11977 3.10808 3.40929 3.3944 3.87355 3.8523 4.16306 4.13614 4.45256 4.41995 4.91682 4.87305 5.20633 5.15378 5.49585 5.43451 5.96011 5.88245 6.24962 6.15944 6.53912 6.43642 7.00339 6.87767 7.2929 7.15015 7.5824 7.42264 8.04668 7.85597 8.33618 8.12337 8.62569 8.39076 9.08995 8.8157 9.37946 9.07744 9.66896 9.33917 10.13324 9.75444 10.42274 10.00977 10.71225 10.2651 11.17651 10.66951 11.46602 10.91779 11.75552 11.16606 12.2198 11.55853 12.50931 11.7992 12.79881 12.03986 13.26308 12.41985 13.55258 12.65236 13.84209 12.88489 14.30637 13.25117 14.59587 13.47505 14.88538 13.69893 15.34964 14.0513 15.63914 14.26595 15.92865 14.48059 16.39293 14.81744 16.68243 15.02213 16.97194 15.22684 17.4362 15.54694 17.72571 15.74133 18.01521 15.93573 18.47949 16.23946 18.769 16.42323 19.0585 16.607 19.52277 16.89326 19.81227 17.06587 20.10178 17.2385 20.56606 17.50632 20.85556 17.66733 21.14507 17.82831 21.60933 18.07727 21.89883 18.22627 22.18834 18.37524 22.65262 18.60454 22.94212 18.7411 23.23163 18.87766 23.69589 19.08664 23.9854 19.21051 24.2749 19.33437 24.73918 19.52286 25.02869 19.63385 25.31819 19.74486 25.78246 19.91273 26.07196 20.0105 26.36147 20.10825 26.82574 20.2542 27.11525 20.33846 27.40475 20.42271 27.86902 20.54724 28.15852 20.61777 28.44803 20.68831 28.91231 20.79019 29.20181 20.8468 29.49132 20.90343 29.95558 20.98315 30.24509 21.02588 30.53459 21.06859 30.99887 21.12595 31.28838 21.15465 31.57788 21.18335 32.04214 21.21825 32.33165 21.23283 32.62115 21.24742 33.37494 21.25977 33.37494 21.25977"/>
<path transform="matrix(1.00006,0,0,-1.00003,54.44819,54.387247)" stroke-width=".79701" stroke-linecap="butt" stroke-dasharray="2.98883,1.99255" stroke-miterlimit="10" stroke-linejoin="miter" fill="none" stroke="#0000ff" d="M-33.39505-21.25977C-33.39505-21.25977-32.64127-21.2478-32.35176-21.23347-32.06226-21.21918-31.59799-21.185-31.30849-21.1566-31.01898-21.12822-30.5547-21.07118-30.2652-21.0288-29.9757-20.9864-29.51143-20.90732-29.22192-20.85103-28.93242-20.79472-28.46814-20.6932-28.17863-20.62296-27.88913-20.5527-27.42487-20.4287-27.13536-20.34462-26.84586-20.26054-26.38158-20.11455-26.09207-20.01698-25.80257-19.9194-25.3383-19.75203-25.0488-19.64131-24.7593-19.5306-24.29501-19.34253-24.00551-19.21895-23.716-19.09535-23.25174-18.88678-22.96223-18.7505-22.67273-18.61423-22.20845-18.3854-21.91895-18.23665-21.62944-18.0879-21.16518-17.83911-20.87567-17.67836-20.58617-17.51758-20.12189-17.25026-19.83238-17.07788-19.54288-16.9055-19.07861-16.61943-18.78911-16.43588-18.4996-16.25233-18.03532-15.94916-17.74582-15.75496-17.45631-15.56073-16.99205-15.24065-16.70255-15.03609-16.41304-14.83151-15.94876-14.49498-15.65926-14.28055-15.36975-14.06613-14.90549-13.71428-14.61598-13.49062-14.32648-13.26697-13.8622-12.90092-13.5727-12.6686-13.28319-12.43625-12.81892-12.05653-12.52942-11.81606-12.23991-11.57558-11.77565-11.18344-11.48613-10.93529-11.19662-10.68715-10.73236-10.2828-10.44286-10.02762-10.15335-9.77242-9.68909-9.35753-9.39957-9.09593-9.11006-8.83434-8.6458-8.4095-8.3563-8.14218-8.06679-7.87488-7.60252-7.4417-7.313-7.1693-7.0235-6.8969-6.55923-6.45578-6.26973-6.1789-5.98022-5.902-5.51596-5.45425-5.22644-5.17357-4.93694-4.89288-4.47267-4.4397-4.18317-4.15593-3.89366-3.87213-3.4294-3.41446-3.1399-3.12819-2.85037-2.84193-2.38611-2.3807-2.0966-2.09271-1.8071-1.8047-1.34283-1.34131-1.05333-1.05235-.76381-.7634-.29953-.29927-.01004-.01004 .27942 .27916 .74368 .74327 1.03319 1.03224 1.32271 1.3212 1.78699 1.78458 2.07649 2.0726 2.366 2.3606 2.83026 2.82178 3.11977 3.10808 3.40929 3.3944 3.87355 3.8523 4.16306 4.13614 4.45256 4.41995 4.91682 4.87305 5.20633 5.15378 5.49585 5.43451 5.96011 5.88245 6.24962 6.15944 6.53912 6.43642 7.00339 6.87767 7.2929 7.15015 7.5824 7.42264 8.04668 7.85597 8.33618 8.12337 8.62569 8.39076 9.08995 8.8157 9.37946 9.07744 9.66896 9.33917 10.13324 9.75444 10.42274 10.00977 10.71225 10.2651 11.17651 10.66951 11.46602 10.91779 11.75552 11.16606 12.2198 11.55853 12.50931 11.7992 12.79881 12.03986 13.26308 12.41985 13.55258 12.65236 13.84209 12.88489 14.30637 13.25117 14.59587 13.47505 14.88538 13.69893 15.34964 14.0513 15.63914 14.26595 15.92865 14.48059 16.39293 14.81744 16.68243 15.02213 16.97194 15.22684 17.4362 15.54694 17.72571 15.74133 18.01521 15.93573 18.47949 16.23946 18.769 16.42323 19.0585 16.607 19.52277 16.89326 19.81227 17.06587 20.10178 17.2385 20.56606 17.50632 20.85556 17.66733 21.14507 17.82831 21.60933 18.07727 21.89883 18.22627 22.18834 18.37524 22.65262 18.60454 22.94212 18.7411 23.23163 18.87766 23.69589 19.08664 23.9854 19.21051 24.2749 19.33437 24.73918 19.52286 25.02869 19.63385 25.31819 19.74486 25.78246 19.91273 26.07196 20.0105 26.36147 20.10825 26.82574 20.2542 27.11525 20.33846 27.40475 20.42271 27.86902 20.54724 28.15852 20.61777 28.44803 20.68831 28.91231 20.79019 29.20181 20.8468 29.49132 20.90343 29.95558 20.98315 30.24509 21.02588 30.53459 21.06859 30.99887 21.12595 31.28838 21.15465 31.57788 21.18335 32.04214 21.21825 32.33165 21.23283 32.62115 21.24742 33.37494 21.25977 33.37494 21.25977"/>
<use data-text="y" xlink:href="#font_1_3" transform="matrix(9.963197,0,0,-9.962899,89.5513,29.463496)" fill="#0000ff"/>
<use data-text="=" xlink:href="#font_3_3" transform="matrix(9.963197,0,0,-9.962899,97.56079,29.463496)" fill="#0000ff"/>
<use data-text="s" xlink:href="#font_3_6" transform="matrix(9.963197,0,0,-9.962899,108.062,29.463496)" fill="#0000ff"/>
<use data-text="i" xlink:href="#font_3_4" transform="matrix(9.963197,0,0,-9.962899,111.98749,29.463496)" fill="#0000ff"/>
<use data-text="n" xlink:href="#font_3_5" transform="matrix(9.963197,0,0,-9.962899,114.7473,29.463496)" fill="#0000ff"/>
<use data-text="x" xlink:href="#font_1_2" transform="matrix(9.963197,0,0,-9.962899,121.97026,29.463496)" fill="#0000ff"/>
<path transform="matrix(1.00006,0,0,-1.00003,54.44819,54.387247)" stroke-width="1.59404" stroke-linecap="butt" stroke-miterlimit="10" stroke-linejoin="miter" fill="none" stroke="#ff0000" d="M-21.25977-33.39505C-21.25977-33.39505-21.2478-32.64127-21.23347-32.35176-21.21918-32.06226-21.185-31.59799-21.1566-31.30849-21.12822-31.01898-21.07118-30.5547-21.0288-30.2652-20.9864-29.9757-20.90732-29.51143-20.85103-29.22192-20.79472-28.93242-20.6932-28.46814-20.62296-28.17863-20.5527-27.88913-20.4287-27.42487-20.34462-27.13536-20.26054-26.84586-20.11455-26.38158-20.01698-26.09207-19.9194-25.80257-19.75203-25.3383-19.64131-25.0488-19.5306-24.7593-19.34253-24.29501-19.21895-24.00551-19.09535-23.716-18.88678-23.25174-18.7505-22.96223-18.61423-22.67273-18.3854-22.20845-18.23665-21.91895-18.0879-21.62944-17.83911-21.16518-17.67836-20.87567-17.51758-20.58617-17.25026-20.12189-17.07788-19.83238-16.9055-19.54288-16.61943-19.07861-16.43588-18.78911-16.25233-18.4996-15.94916-18.03532-15.75496-17.74582-15.56073-17.45631-15.24065-16.99205-15.03609-16.70255-14.83151-16.41304-14.49498-15.94876-14.28055-15.65926-14.06613-15.36975-13.71428-14.90549-13.49062-14.61598-13.26697-14.32648-12.90092-13.8622-12.6686-13.5727-12.43625-13.28319-12.05653-12.81892-11.81606-12.52942-11.57558-12.23991-11.18344-11.77565-10.93529-11.48613-10.68715-11.19662-10.2828-10.73236-10.02762-10.44286-9.77242-10.15335-9.35753-9.68909-9.09593-9.39957-8.83434-9.11006-8.4095-8.6458-8.14218-8.3563-7.87488-8.06679-7.4417-7.60252-7.1693-7.313-6.8969-7.0235-6.45578-6.55923-6.1789-6.26973-5.902-5.98022-5.45425-5.51596-5.17357-5.22644-4.89288-4.93694-4.4397-4.47267-4.15593-4.18317-3.87213-3.89366-3.41446-3.4294-3.12819-3.1399-2.84193-2.85037-2.3807-2.38611-2.09271-2.0966-1.8047-1.8071-1.34131-1.34283-1.05235-1.05333-.7634-.76381-.29927-.29953-.01004-.01004 .27916 .27942 .74327 .74368 1.03224 1.03319 1.3212 1.32271 1.78458 1.78699 2.0726 2.07649 2.3606 2.366 2.82178 2.83026 3.10808 3.11977 3.3944 3.40929 3.8523 3.87355 4.13614 4.16306 4.41995 4.45256 4.87305 4.91682 5.15378 5.20633 5.43451 5.49585 5.88245 5.96011 6.15944 6.24962 6.43642 6.53912 6.87767 7.00339 7.15015 7.2929 7.42264 7.5824 7.85597 8.04668 8.12337 8.33618 8.39076 8.62569 8.8157 9.08995 9.07744 9.37946 9.33917 9.66896 9.75444 10.13324 10.00977 10.42274 10.2651 10.71225 10.66951 11.17651 10.91779 11.46602 11.16606 11.75552 11.55853 12.2198 11.7992 12.50931 12.03986 12.79881 12.41985 13.26308 12.65236 13.55258 12.88489 13.84209 13.25117 14.30637 13.47505 14.59587 13.69893 14.88538 14.0513 15.34964 14.26595 15.63914 14.48059 15.92865 14.81744 16.39293 15.02213 16.68243 15.22684 16.97194 15.54694 17.4362 15.74133 17.72571 15.93573 18.01521 16.23946 18.47949 16.42323 18.769 16.607 19.0585 16.89326 19.52277 17.06587 19.81227 17.2385 20.10178 17.50632 20.56606 17.66733 20.85556 17.82831 21.14507 18.07727 21.60933 18.22627 21.89883 18.37524 22.18834 18.60454 22.65262 18.7411 22.94212 18.87766 23.23163 19.08664 23.69589 19.21051 23.9854 19.33437 24.2749 19.52286 24.73918 19.63385 25.02869 19.74486 25.31819 19.91273 25.78246 20.0105 26.07196 20.10825 26.36147 20.2542 26.82574 20.33846 27.11525 20.42271 27.40475 20.54724 27.86902 20.61777 28.15852 20.68831 28.44803 20.79019 28.91231 20.8468 29.20181 20.90343 29.49132 20.98315 29.95558 21.02588 30.24509 21.06859 30.53459 21.12595 30.99887 21.15465 31.28838 21.18335 31.57788 21.21825 32.04214 21.23283 32.33165 21.24742 32.62115 21.25977 33.37494 21.25977 33.37494"/>
<use data-text="y" xlink:href="#font_1_3" transform="matrix(9.963197,0,0,-9.962899,67.870998,14.9560589)" fill="#ff0000"/>
<use data-text="=" xlink:href="#font_3_3" transform="matrix(9.963197,0,0,-9.962899,75.880489,14.9560589)" fill="#ff0000"/>
<use data-text="s" xlink:href="#font_3_6" transform="matrix(9.963197,0,0,-9.962899,86.38169,14.9560589)" fill="#ff0000"/>
<use data-text="i" xlink:href="#font_3_4" transform="matrix(9.963197,0,0,-9.962899,90.30718,14.9560589)" fill="#ff0000"/>
<use data-text="n" xlink:href="#font_3_5" transform="matrix(9.963197,0,0,-9.962899,93.06699,14.9560589)" fill="#ff0000"/>
<use data-text="&#x2212;" xlink:href="#font_4_1" transform="matrix(6.9742186,0,0,-6.9740097,98.629848,10.764931)" fill="#ff0000"/>
<use data-text="1" xlink:href="#font_5_1" transform="matrix(6.9742186,0,0,-6.9740097,104.85723,10.764931)" fill="#ff0000"/>
<use data-text="x" xlink:href="#font_1_2" transform="matrix(9.963197,0,0,-9.962899,110.986598,14.9560589)" fill="#ff0000"/>
</svg>
