<svg xmlns="http://www.w3.org/2000/svg" xmlns:xlink="http://www.w3.org/1999/xlink" version="1.1" width="141" height="133" viewBox="0 0 141 133">
<defs>
<path id="font_1_2" d="M.33399964 .30233766C.33999635 .32835389 .36299134 .42037965 .43299867 .42037965 .43798829 .42037965 .46199037 .42037965 .48298646 .40734864 .45498658 .402359 .43499757 .37734986 .43499757 .35334779 .43499757 .33735658 .44599916 .31835938 .47299195 .31835938 .49499513 .31835938 .5269928 .3363495 .5269928 .37635804 .5269928 .42837525 .46798707 .4423828 .43399049 .4423828 .37599183 .4423828 .34098817 .38935853 .32899476 .36634828 .3039856 .43237306 .25 .4423828 .22099304 .4423828 .116989139 .4423828 .05999756 .3133545 .05999756 .28834535 .05999756 .27833558 .069992069 .27833558 .07199097 .27833558 .07998657 .27833558 .08299255 .28033448 .084991458 .28933717 .11898804 .39535523 .18499756 .42037965 .21899414 .42037965 .23799134 .42037965 .272995 .4113617 .272995 .35334779 .272995 .32235719 .2559967 .25532533 .21899414 .11528015 .20298767 .053268434 .16799927 .011245728 .12399292 .011245728 .117996219 .011245728 .09498596 .011245728 .07398987 .024276734 .09899902 .029266358 .12098694 .05027771 .12098694 .07827759 .12098694 .105270389 .09899902 .11328125 .083999637 .11328125 .053985597 .11328125 .0289917 .08728027 .0289917 .055267335 .0289917 .009246826 .07899475-.0107421879 .12298584-.0107421879 .18899536-.0107421879 .22499085 .059280397 .22799683 .0652771 .23999024 .028274537 .27598573-.0107421879 .33599855-.0107421879 .43899537-.0107421879 .49598695 .118270877 .49598695 .14328003 .49598695 .1532898 .4869995 .1532898 .48399354 .1532898 .47499085 .1532898 .47299195 .14929199 .47099305 .14228821 .43798829 .03527832 .36999513 .011245728 .33799745 .011245728 .29899598 .011245728 .2829895 .043273927 .2829895 .07727051 .2829895 .09927368 .2889862 .121276859 .2999878 .16529846L.33399964 .30233766Z"/>
<path id="font_1_3" d="M.48599244 .38136292C.48999024 .39537049 .48999024 .39736939 .48999024 .40437318 .48999024 .42237855 .47599793 .43138124 .46099855 .43138124 .45098878 .43138124 .43499757 .42536927 .42599488 .41036988 .42399598 .405365 .41600038 .37435914 .4119873 .35635377 .40499879 .33035279 .397995 .30334474 .3919983 .27633668L.34700013 .09628296C.34298707 .08126831 .2999878 .011245728 .23399353 .011245728 .18299866 .011245728 .17199707 .055267335 .17199707 .0922699 .17199707 .1382904 .18899536 .20030213 .22299195 .28833009 .23899842 .3293457 .24299622 .3403473 .24299622 .36035157 .24299622 .405365 .21099854 .4423828 .16099549 .4423828 .06599426 .4423828 .0289917 .29733277 .0289917 .28833009 .0289917 .27833558 .038986207 .27833558 .040985109 .27833558 .050994874 .27833558 .051986696 .28033448 .056991579 .29634095 .083999637 .3903656 .12399292 .42037965 .1579895 .42037965 .1659851 .42037965 .18299866 .42037965 .18299866 .3883667 .18299866 .36335755 .17298889 .3373413 .1659851 .31834413 .12599182 .21231079 .10798645 .1552887 .10798645 .10827637 .10798645 .019256592 .17098999-.0107421879 .22999573-.0107421879 .2689972-.0107421879 .30299378 .0062561037 .33099366 .03425598 .31799317-.017745972 .30599977-.06674194 .2659912-.11973572 .23999024-.15385437 .20199585-.18309021 .1559906-.18309021 .14199829-.18309021 .09700012-.18005371 .07998657-.14074707 .09599304-.14074707 .10899353-.14074707 .12298584-.1287384 .1329956-.11973572 .14299011-.10673523 .14299011-.08773804 .14299011-.056747438 .115997318-.052734376 .10598755-.052734376 .08299255-.052734376 .049987794-.068740848 .049987794-.11773682 .049987794-.16796875 .09399414-.20507813 .1559906-.20507813 .25898744-.20507813 .3619995-.11373901 .3899994-.00074768069L.48599244 .38136292Z"/>
<path id="font_2_1" d="M.6589966 .23046875C.6759949 .23046875 .69400027 .23046875 .69400027 .25045777 .69400027 .27046205 .6759949 .27046205 .6589966 .27046205H.117996219C.100997928 .27046205 .08299255 .27046205 .08299255 .25045777 .08299255 .23046875 .100997928 .23046875 .117996219 .23046875H.6589966Z"/>
<path id="font_3_3" d="M.2939911 .16503906V.07800293C.2939911 .041992189 .2919922 .0309906 .21798706 .0309906H.19699097V0C.23799134 .0029907227 .2899933 .0029907227 .33198548 .0029907227 .37399293 .0029907227 .4269867 .0029907227 .46798707 0V.0309906H.44699098C.37298585 .0309906 .37098695 .041992189 .37098695 .07800293V.16503906H.47099305V.19602967H.37098695V.65075686C.37098695 .67074587 .37098695 .6767578 .35499574 .6767578 .34599305 .6767578 .34298707 .6767578 .33499146 .66474917L.027999878 .19602967V.16503906H.2939911M.2999878 .19602967H.055999757L.2999878 .5688019V.19602967Z"/>
<path id="font_3_1" d="M.1269989 .07699585 .23298645 .18003845C.3889923 .31811524 .44898988 .3721466 .44898988 .47216798 .44898988 .5860901 .35899354 .6660156 .23699951 .6660156 .12399292 .6660156 .049987794 .57411196 .049987794 .48516847 .049987794 .4291687 .099990848 .4291687 .102996829 .4291687 .11999512 .4291687 .15499878 .44117738 .15499878 .48217774 .15499878 .5081787 .13699341 .5341797 .101989749 .5341797 .09399414 .5341797 .09199524 .5341797 .08898926 .5331726 .11199951 .59806826 .1659851 .63500979 .22399903 .63500979 .31498719 .63500979 .35798646 .5541382 .35798646 .47216798 .35798646 .39215089 .30799867 .31311036 .25299073 .25108338L.06098938 .036987306C.049987794 .025985718 .049987794 .023986817 .049987794 0H.42099L.44898988 .17404175H.42399598C.4189911 .14402771 .4119873 .1000061 .4019928 .084991458 .394989 .07699585 .32899476 .07699585 .30699159 .07699585H.1269989Z"/>
<path id="font_3_2" d="M.2899933 .35191346C.37199403 .37893678 .42999269 .4490509 .42999269 .52809146 .42999269 .6100464 .34199525 .6660156 .24598694 .6660156 .14498902 .6660156 .068984989 .60606387 .068984989 .53009036 .068984989 .49710084 .09098816 .47808839 .11999512 .47808839 .15098572 .47808839 .17098999 .50009158 .17098999 .5290985 .17098999 .57910159 .12399292 .57910159 .10899353 .57910159 .13999939 .62802127 .20599365 .64100649 .24198914 .64100649 .2829895 .64100649 .33799745 .6190338 .33799745 .5290985 .33799745 .51708987 .33599855 .45906068 .30999757 .4149933 .27999879 .36691285 .24598694 .36390687 .22099304 .36291505 .21299744 .36190797 .18899536 .35990907 .18199158 .35990907 .17399597 .35890199 .16699219 .35791017 .16699219 .3479004 .16699219 .33691407 .17399597 .33691407 .19099427 .33691407H.23498535C.31698609 .33691407 .35398866 .2686615 .35398866 .17037964 .35398866 .034469606 .2849884 .0055389406 .24099732 .0055389406 .19799805 .0055389406 .12298584 .022491456 .08799744 .08137512 .12298584 .07637024 .1539917 .09837341 .1539917 .1363678 .1539917 .17237854 .1269989 .19238281 .09799194 .19238281 .07398987 .19238281 .041992189 .17837525 .041992189 .1343689 .041992189 .043441774 .1349945-.022460938 .24398804-.022460938 .3659973-.022460938 .45700074 .06838989 .45700074 .17037964 .45700074 .252594 .3939972 .33088685 .2899933 .35191346Z"/>
<path id="font_1_1" d="M.2649994 .37265016H.37799073C.34498597 .22489929 .33599855 .18196106 .33599855 .11508179 .33599855 .100097659 .33599855 .073150638 .34399415 .03919983 .35398866-.0047454836 .36499024-.0107421879 .37998963-.0107421879 .3999939-.0107421879 .42099 .007247925 .42099 .02722168 .42099 .033218385 .42099 .035202028 .4149933 .049179079 .38598634 .12106323 .38598634 .18595886 .38598634 .21391297 .38598634 .26683045 .3929901 .32073976 .4039917 .37265016H.5179901C.5309906 .37265016 .5669861 .37265016 .5669861 .406662 .5669861 .43066407 .54599 .43066407 .5269928 .43066407H.19198609C.16999817 .43066407 .13198853 .43066407 .08799744 .38365174 .052993776 .34469605 .026992798 .29878236 .026992798 .29379273 .026992798 .29278565 .026992798 .28379823 .038986207 .28379823 .04699707 .28379823 .04899597 .28779603 .054992677 .29577638 .10398865 .37265016 .1619873 .37265016 .18199158 .37265016H.23899842C.20698548 .25186158 .15299988 .13105774 .11099243 .04020691 .102996829 .025222779 .102996829 .023223877 .102996829 .016235352 .102996829-.002746582 .11898804-.0107421879 .13198853-.0107421879 .1619873-.0107421879 .16999817 .017242432 .18199158 .05418396 .19599915 .100097659 .19599915 .10209656 .20899964 .15202332L.2649994 .37265016Z"/>
</defs>
<path transform="matrix(1.00009,0,0,-1.00006,70.91313,71.82353)" stroke-width=".79701" stroke-linecap="butt" stroke-miterlimit="10" stroke-linejoin="miter" fill="none" stroke="#000000" d="M-60.1109 0H58.51843"/>
<path transform="matrix(1.00009,0,0,-1.00006,129.43683,71.82353)" d="M1.0361 0C-.25902 .25902-1.55415 .77707-3.1083 1.68365-1.55415 .51805-1.55415-.51805-3.1083-1.68365-1.55415-.77707-.25902-.25902 1.0361 0Z"/>
<path transform="matrix(1.00009,0,0,-1.00006,129.43683,71.82353)" stroke-width=".79701" stroke-linecap="butt" stroke-linejoin="round" fill="none" stroke="#000000" d="M1.0361 0C-.25902 .25902-1.55415 .77707-3.1083 1.68365-1.55415 .51805-1.55415-.51805-3.1083-1.68365-1.55415-.77707-.25902-.25902 1.0361 0Z"/>
<use data-text="x" xlink:href="#font_1_2" transform="matrix(9.963496,0,0,-9.963197,134.59087,73.96866)"/>
<path transform="matrix(1.00009,0,0,-1.00006,70.91313,71.82353)" stroke-width=".79701" stroke-linecap="butt" stroke-miterlimit="10" stroke-linejoin="miter" fill="none" stroke="#000000" d="M0-59.95303V58.51843"/>
<path transform="matrix(0,-1.00006,-1.00009,-0,70.91313,13.301594)" d="M1.0361 0C-.25902 .25902-1.55415 .77707-3.1083 1.68365-1.55415 .51805-1.55415-.51805-3.1083-1.68365-1.55415-.77707-.25902-.25902 1.0361 0Z"/>
<path transform="matrix(0,-1.00006,-1.00009,-0,70.91313,13.301594)" stroke-width=".79701" stroke-linecap="butt" stroke-linejoin="round" fill="none" stroke="#000000" d="M1.0361 0C-.25902 .25902-1.55415 .77707-3.1083 1.68365-1.55415 .51805-1.55415-.51805-3.1083-1.68365-1.55415-.77707-.25902-.25902 1.0361 0Z"/>
<use data-text="y" xlink:href="#font_1_3" transform="matrix(9.963496,0,0,-9.963197,68.29189,6.210594)"/>
<path transform="matrix(1.00009,0,0,-1.00006,70.91313,71.82353)" stroke-width=".79701" stroke-linecap="butt" stroke-miterlimit="10" stroke-linejoin="miter" fill="none" stroke="#000000" d="M1.27565-51.0239H-1.27547"/>
<use data-text="&#x2212;" xlink:href="#font_2_1" transform="matrix(9.963496,0,0,-9.963197,53.18654,125.64576)"/>
<use data-text="4" xlink:href="#font_3_3" transform="matrix(9.963496,0,0,-9.963197,60.93622,125.64576)"/>
<path transform="matrix(1.00009,0,0,-1.00006,70.91313,71.82353)" stroke-width=".79701" stroke-linecap="butt" stroke-miterlimit="10" stroke-linejoin="miter" fill="none" stroke="#000000" d="M1.27565-25.51193H-1.27547"/>
<use data-text="&#x2212;" xlink:href="#font_2_1" transform="matrix(9.963496,0,0,-9.963197,53.18654,100.13223)"/>
<use data-text="2" xlink:href="#font_3_1" transform="matrix(9.963496,0,0,-9.963197,60.93622,100.13223)"/>
<path transform="matrix(1.00009,0,0,-1.00006,70.91313,71.82353)" stroke-width=".79701" stroke-linecap="butt" stroke-miterlimit="10" stroke-linejoin="miter" fill="none" stroke="#000000" d="M1.27565 25.51193H-1.27547"/>
<use data-text="2" xlink:href="#font_3_1" transform="matrix(9.963496,0,0,-9.963197,60.936235,49.520196)"/>
<path transform="matrix(1.00009,0,0,-1.00006,70.91313,71.82353)" stroke-width=".79701" stroke-linecap="butt" stroke-miterlimit="10" stroke-linejoin="miter" fill="none" stroke="#000000" d="M1.27565 51.0239H-1.27547"/>
<use data-text="4" xlink:href="#font_3_3" transform="matrix(9.963496,0,0,-9.963197,60.936235,24.006665)"/>
<path transform="matrix(1.00009,0,0,-1.00006,70.91313,71.82353)" stroke-width=".79701" stroke-linecap="butt" stroke-miterlimit="10" stroke-linejoin="miter" fill="none" stroke="#000000" d="M-60.1109 1.27565V-1.27547"/>
<use data-text="&#x2212;" xlink:href="#font_2_1" transform="matrix(9.963496,0,0,-9.963197,1.4128723,83.23922)"/>
<use data-text="3" xlink:href="#font_3_2" transform="matrix(9.963496,0,0,-9.963197,9.16156,83.23922)"/>
<use data-text="&#x03c0;" xlink:href="#font_1_1" transform="matrix(9.963496,0,0,-9.963197,14.144012,83.23922)"/>
<path transform="matrix(1.00009,0,0,-1.00006,-156.70337,31.149094)" stroke-width=".3985" stroke-linecap="butt" stroke-miterlimit="10" stroke-linejoin="miter" fill="none" stroke="#000000" d="M158.102-56.336H176.868"/>
<use data-text="2" xlink:href="#font_3_1" transform="matrix(9.963496,0,0,-9.963197,8.305481,96.813037)"/>
<path transform="matrix(1.00009,0,0,-1.00006,70.91313,71.82353)" stroke-width=".79701" stroke-linecap="butt" stroke-miterlimit="10" stroke-linejoin="miter" fill="none" stroke="#000000" d="M-20.03688 1.27565V-1.27547"/>
<use data-text="&#x2212;" xlink:href="#font_2_1" transform="matrix(9.963496,0,0,-9.963197,43.981706,82.63018)"/>
<use data-text="&#x03c0;" xlink:href="#font_1_1" transform="matrix(9.963496,0,0,-9.963197,51.730394,82.63018)"/>
<path transform="matrix(1.00009,0,0,-1.00006,-114.13454,30.540057)" stroke-width=".3985" stroke-linecap="butt" stroke-miterlimit="10" stroke-linejoin="miter" fill="none" stroke="#000000" d="M158.102-56.336H171.887"/>
<use data-text="2" xlink:href="#font_3_1" transform="matrix(9.963496,0,0,-9.963197,48.383104,96.203998)"/>
<path transform="matrix(1.00009,0,0,-1.00006,70.91313,71.82353)" stroke-width=".79701" stroke-linecap="butt" stroke-miterlimit="10" stroke-linejoin="miter" fill="none" stroke="#000000" d="M-40.07399 1.27565V-1.27547"/>
<use data-text="&#x2212;" xlink:href="#font_2_1" transform="matrix(9.963496,0,0,-9.963197,23.94191,82.63018)"/>
<use data-text="&#x03c0;" xlink:href="#font_1_1" transform="matrix(9.963496,0,0,-9.963197,31.69159,82.63018)"/>
<path transform="matrix(1.00009,0,0,-1.00006,70.91313,71.82353)" stroke-width=".79701" stroke-linecap="butt" stroke-miterlimit="10" stroke-linejoin="miter" fill="none" stroke="#000000" d="M20.03688 1.27565V-1.27547"/>
<use data-text="&#x03c0;" xlink:href="#font_1_1" transform="matrix(9.963496,0,0,-9.963197,87.93366,81.10809)"/>
<path transform="matrix(1.00009,0,0,-1.00006,-70.18258,29.017966)" stroke-width=".3985" stroke-linecap="butt" stroke-miterlimit="10" stroke-linejoin="miter" fill="none" stroke="#000000" d="M158.102-56.336H164.138"/>
<use data-text="2" xlink:href="#font_3_1" transform="matrix(9.963496,0,0,-9.963197,88.4607,94.68191)"/>
<path transform="matrix(1.00009,0,0,-1.00006,70.91313,71.82353)" stroke-width=".79701" stroke-linecap="butt" stroke-miterlimit="10" stroke-linejoin="miter" fill="none" stroke="#000000" d="M40.07399 1.27565V-1.27547"/>
<use data-text="&#x03c0;" xlink:href="#font_1_1" transform="matrix(9.963496,0,0,-9.963197,107.972469,81.10809)"/>
<path transform="matrix(1.00009,0,0,-1.00006,70.91313,71.82353)" stroke-width=".79701" stroke-linecap="butt" stroke-miterlimit="10" stroke-linejoin="miter" fill="none" stroke="#000000" d="M60.1109 1.27565V-1.27547"/>
<use data-text="3" xlink:href="#font_3_2" transform="matrix(9.963496,0,0,-9.963197,125.52004,83.23922)"/>
<use data-text="&#x03c0;" xlink:href="#font_1_1" transform="matrix(9.963496,0,0,-9.963197,130.5015,83.23922)"/>
<path transform="matrix(1.00009,0,0,-1.00006,-32.5962,31.149094)" stroke-width=".3985" stroke-linecap="butt" stroke-miterlimit="10" stroke-linejoin="miter" fill="none" stroke="#000000" d="M158.102-56.336H169.119"/>
<use data-text="2" xlink:href="#font_3_1" transform="matrix(9.963496,0,0,-9.963197,128.5383,96.813037)"/>
<path transform="matrix(1.00009,0,0,-1.00006,70.91313,71.82353)" stroke-width=".3985" stroke-linecap="butt" stroke-dasharray="2.98883,2.98883" stroke-miterlimit="10" stroke-linejoin="miter" fill="none" stroke="#00ff00" d="M-20.03688-59.95303V59.95303"/>
<path transform="matrix(1.00009,0,0,-1.00006,70.91313,71.82353)" stroke-width=".3985" stroke-linecap="butt" stroke-dasharray="2.98883,2.98883" stroke-miterlimit="10" stroke-linejoin="miter" fill="none" stroke="#00ff00" d="M20.03688-59.95303V59.95303"/>
<path transform="matrix(1.00009,0,0,-1.00006,70.91313,71.82353)" stroke-width=".79701" stroke-linecap="butt" stroke-dasharray="2.98883,1.99255" stroke-miterlimit="10" stroke-linejoin="miter" fill="none" stroke="#0000ff" d="M-57.4371-59.9616C-57.4371-59.9616-57.04517-52.00378-56.89464-49.516-56.74413-47.02824-56.5027-43.85353-56.35217-42.03148-56.20166-40.20946-55.96025-37.78076-55.80972-36.38399-55.6592-34.98721-55.41779-33.07317-55.26726-31.96448-55.11673-30.85577-54.87532-29.29845-54.7248-28.3932-54.57428-27.48796-54.33286-26.19547-54.18233-25.44011-54.0318-24.68475-53.79039-23.59076-53.63986-22.9491-53.48933-22.30743-53.24792-21.36948-53.0974-20.81546-52.94687-20.26141-52.70546-19.44136-52.55493-18.95604-52.40442-18.47072-52.163-17.74725-52.01247-17.31755-51.86195-16.88786-51.62053-16.2436-51.47002-15.85912-51.31949-15.47464-51.07806-14.89389-50.92755-14.54646-50.77702-14.19902-50.53561-13.67146-50.38509-13.35507-50.23456-13.03867-49.99315-12.55641-49.8426-12.26604-49.6921-11.9757-49.45067-11.53075-49.30016-11.26228-49.14963-10.99382-48.9082-10.58087-48.75769-10.33112-48.60716-10.08138-48.36575-9.69598-48.21523-9.46225-48.0647-9.22852-47.82329-8.86655-47.67276-8.64651-47.52225-8.42647-47.28082-8.08455-47.13031-7.87631-46.97978-7.66806-46.73836-7.34369-46.58784-7.14563-46.4373-6.94759-46.1959-6.63806-46.04536-6.44882-45.89484-6.25958-45.65343-5.96336-45.5029-5.78178-45.35237-5.6002-45.11096-5.31517-44.96045-5.14006-44.80992-4.96497-44.56851-4.68933-44.41798-4.51974-44.26746-4.35014-44.02605-4.08257-43.87552-3.91771-43.72499-3.75285-43.48358-3.49254-43.33305-3.33165-43.18253-3.17075-42.94112-2.91574-42.79059-2.75804-42.64005-2.60034-42.39867-2.35004-42.24812-2.19495-42.0976-2.03986-41.85619-1.79327-41.70566-1.64023-41.55513-1.48715-41.31372-1.24344-41.1632-1.09172-41.01266-.94-40.77126-.69765-40.62073-.54674-40.4702-.39583-40.22879-.1546-40.07826-.00407-39.92775 .14644-39.68634 .38736-39.53581 .53816-39.38528 .68896-39.14388 .93108-38.99335 1.08276-38.8428 1.23445-38.60141 1.47836-38.45087 1.63145-38.30035 1.78455-38.05893 2.03111-37.9084 2.18619-37.75789 2.34126-37.51646 2.59146-37.36595 2.74908-37.21542 2.90672-36.97401 3.16142-36.82349 3.32231-36.67296 3.48317-36.43155 3.74376-36.28102 3.90855-36.13051 4.07338-35.88908 4.34076-35.73856 4.5102-35.58804 4.67963-35.34662 4.95477-35.1961 5.12975-35.04556 5.3047-34.80417 5.58968-34.65363 5.77127-34.5031 5.9529-34.26169 6.24953-34.11116 6.4387-33.96065 6.62787-33.71922 6.93695-33.5687 7.13474-33.41818 7.33252-33.17676 7.65625-33.02625 7.86424-32.87572 8.07225-32.6343 8.41396-32.48378 8.63385-32.33325 8.85376-32.09184 9.21568-31.94131 9.4492-31.7908 9.68272-31.54938 10.06752-31.39885 10.31693-31.24832 10.56631-31.00691 10.97864-30.85638 11.24672-30.70586 11.5148-30.46443 11.95906-30.31392 12.24913-30.16339 12.53918-29.92198 13.02127-29.77145 13.33736-29.62093 13.65343-29.37952 14.18031-29.22899 14.52719-29.07848 14.87408-28.83705 15.4537-28.68654 15.83751-28.53601 16.22131-28.29459 16.86455-28.14407 17.29343-27.99355 17.7223-27.75214 18.44427-27.60161 18.9286-27.45107 19.41292-27.20967 20.23131-27.05913 20.7841-26.9086 21.33691-26.66719 22.27286-26.51668 22.9129-26.36615 23.55293-26.12473 24.64372-25.97421 25.3971-25.82368 26.15048-25.58228 27.44014-25.43175 28.34279-25.28122 29.24544-25.03981 30.79774-24.88928 31.90277-24.73875 33.0078-24.49734 34.916-24.34682 36.3071-24.19629 37.69821-23.9549 40.11469-23.80437 41.92892-23.65382 43.74313-23.41243 46.90848-23.26189 49.38287-23.11136 51.85727-22.71942 59.76268-22.71942 59.76268"/>
<path transform="matrix(1.00009,0,0,-1.00006,70.91313,71.82353)" stroke-width=".79701" stroke-linecap="butt" stroke-dasharray="2.98883,1.99255" stroke-miterlimit="10" stroke-linejoin="miter" fill="none" stroke="#0000ff" d="M22.71086-59.9616C22.71086-59.9616 23.1028-52.00378 23.25333-49.516 23.40385-47.02824 23.64526-43.85353 23.79579-42.03148 23.94632-40.20946 24.18773-37.78076 24.33826-36.38399 24.48878-34.98721 24.7302-33.07317 24.88072-31.96448 25.03123-30.85577 25.27266-29.29845 25.42319-28.3932 25.5737-27.48796 25.81512-26.19547 25.96564-25.44011 26.11617-24.68475 26.35757-23.59076 26.5081-22.9491 26.65863-22.30743 26.90004-21.36948 27.05057-20.81546 27.2011-20.26141 27.44252-19.44136 27.59303-18.95604 27.74356-18.47072 27.98499-17.74725 28.1355-17.31755 28.28603-16.88786 28.52744-16.2436 28.67796-15.85912 28.82849-15.47464 29.0699-14.89389 29.22043-14.54646 29.37096-14.19902 29.61237-13.67146 29.76288-13.35507 29.9134-13.03867 30.15483-12.55641 30.30534-12.26604 30.45587-11.9757 30.69728-11.53075 30.84782-11.26228 30.99835-10.99382 31.23976-10.58087 31.39029-10.33112 31.54082-10.08138 31.78223-9.69598 31.93275-9.46225 32.08328-9.22852 32.32469-8.86655 32.4752-8.64651 32.62573-8.42647 32.86714-8.08455 33.01767-7.87631 33.1682-7.66806 33.4096-7.34369 33.56013-7.14563 33.71066-6.94759 33.95207-6.63806 34.1026-6.44882 34.25313-6.25958 34.49454-5.96336 34.64508-5.78178 34.7956-5.6002 35.037-5.31517 35.18753-5.14006 35.33806-4.96497 35.57947-4.68933 35.73-4.51974 35.88052-4.35014 36.12193-4.08257 36.27246-3.91771 36.42299-3.75285 36.6644-3.49254 36.81493-3.33165 36.96544-3.17075 37.20686-2.91574 37.35739-2.75804 37.5079-2.60034 37.74931-2.35004 37.89984-2.19495 38.05038-2.03986 38.29178-1.79327 38.44232-1.64023 38.59285-1.48715 38.83426-1.24344 38.98479-1.09172 39.1353-.94 39.37672-.69765 39.52725-.54674 39.67776-.39583 39.91919-.1546 40.0697-.00407 40.22023 .14644 40.46164 .38736 40.61217 .53816 40.7627 .68896 41.0041 .93108 41.15463 1.08276 41.30515 1.23445 41.54657 1.47836 41.6971 1.63145 41.84763 1.78455 42.08904 2.03111 42.23956 2.18619 42.39009 2.34126 42.63152 2.59146 42.78203 2.74908 42.93256 2.90672 43.17397 3.16142 43.3245 3.32231 43.475 3.48317 43.71643 3.74376 43.86696 3.90855 44.01747 4.07338 44.2589 4.34076 44.40941 4.5102 44.55994 4.67963 44.80136 4.95477 44.95187 5.12975 45.1024 5.3047 45.34381 5.58968 45.49434 5.77127 45.64488 5.9529 45.88628 6.24953 46.03682 6.4387 46.18733 6.62787 46.42876 6.93695 46.57927 7.13474 46.7298 7.33252 46.9712 7.65625 47.12173 7.86424 47.27226 8.07225 47.51367 8.41396 47.6642 8.63385 47.81473 8.85376 48.05614 9.21568 48.20665 9.4492 48.35718 9.68272 48.5986 10.06752 48.74911 10.31693 48.89964 10.56631 49.14105 10.97864 49.29158 11.24672 49.44212 11.5148 49.68352 11.95906 49.83406 12.24913 49.98459 12.53918 50.226 13.02127 50.37653 13.33736 50.52705 13.65343 50.76846 14.18031 50.91898 14.52719 51.0695 14.87408 51.31091 15.4537 51.46144 15.83751 51.61197 16.22131 51.85338 16.86455 52.0039 17.29343 52.15443 17.7223 52.39584 18.44427 52.54637 18.9286 52.6969 19.41292 52.93831 20.23131 53.08884 20.7841 53.23936 21.33691 53.48076 22.27286 53.6313 22.9129 53.78183 23.55293 54.02324 24.64372 54.17377 25.3971 54.3243 26.15048 54.5657 27.44014 54.71623 28.34279 54.86676 29.24544 55.10817 30.79774 55.2587 31.90277 55.40921 33.0078 55.65063 34.916 55.80116 36.3071 55.95168 37.69821 56.19308 40.11469 56.34361 41.92892 56.49414 43.74313 56.73555 46.90848 56.88608 49.38287 57.03662 51.85727 57.42856 59.76268 57.42856 59.76268"/>
<path transform="matrix(1.00009,0,0,-1.00006,70.91313,71.82353)" stroke-width="1.59404" stroke-linecap="butt" stroke-miterlimit="10" stroke-linejoin="miter" fill="none" stroke="#0000ff" d="M-17.36311-59.9616C-17.36311-59.9616-16.97116-52.00378-16.82065-49.516-16.67012-47.02824-16.42871-43.85353-16.27818-42.03148-16.12766-40.20946-15.88625-37.78076-15.73572-36.38399-15.58519-34.98721-15.34378-33.07317-15.19325-31.96448-15.04272-30.85577-14.8013-29.29845-14.65079-28.3932-14.50026-27.48796-14.25885-26.19547-14.10832-25.44011-13.9578-24.68475-13.71638-23.59076-13.56586-22.9491-13.41533-22.30743-13.17392-21.36948-13.0234-20.81546-12.87288-20.26141-12.63145-19.44136-12.48094-18.95604-12.33041-18.47072-12.089-17.74725-11.93848-17.31755-11.78793-16.88786-11.54654-16.2436-11.396-15.85912-11.24547-15.47464-11.00406-14.89389-10.85353-14.54646-10.703-14.19902-10.4616-13.67146-10.31108-13.35507-10.16055-13.03867-9.91914-12.55641-9.76862-12.26604-9.61809-11.9757-9.37668-11.53075-9.22615-11.26228-9.07562-10.99382-8.83421-10.58087-8.68369-10.33112-8.53316-10.08138-8.29175-9.69598-8.14122-9.46225-7.99069-9.22852-7.7493-8.86655-7.59875-8.64651-7.44823-8.42647-7.20682-8.08455-7.05629-7.87631-6.90576-7.66806-6.66435-7.34369-6.51382-7.14563-6.3633-6.94759-6.12189-6.63806-5.97136-6.44882-5.82085-6.25958-5.57942-5.96336-5.4289-5.78178-5.27838-5.6002-5.03697-5.31517-4.88644-5.14006-4.73592-4.96497-4.4945-4.68933-4.34398-4.51974-4.19344-4.35014-3.95204-4.08257-3.8015-3.91771-3.65099-3.75285-3.40956-3.49254-3.25903-3.33165-3.10852-3.17075-2.8671-2.91574-2.71658-2.75804-2.56606-2.60034-2.32465-2.35004-2.17412-2.19495-2.02359-2.03986-1.78218-1.79327-1.63165-1.64023-1.48114-1.48715-1.23972-1.24344-1.08919-1.09172-.93867-.94-.69725-.69765-.54674-.54674-.3962-.39583-.15479-.1546-.00426-.00407 .14624 .14644 .38763 .38736 .53816 .53816 .68869 .68896 .9301 .93108 1.08063 1.08276 1.23116 1.23445 1.47256 1.47836 1.6231 1.63145 1.77362 1.78455 2.01503 2.03111 2.16556 2.18619 2.31609 2.34126 2.5575 2.59146 2.70802 2.74908 2.85854 2.90672 3.09995 3.16142 3.25047 3.32231 3.40102 3.48317 3.64241 3.74376 3.79295 3.90855 3.94348 4.07338 4.18489 4.34076 4.33542 4.5102 4.48593 4.67963 4.72736 4.95477 4.87788 5.12975 5.0284 5.3047 5.26982 5.58968 5.42033 5.77127 5.57086 5.9529 5.81227 6.24953 5.9628 6.4387 6.11333 6.62787 6.35474 6.93695 6.50526 7.13474 6.65578 7.33252 6.8972 7.65625 7.04773 7.86424 7.19826 8.07225 7.43967 8.41396 7.5902 8.63385 7.74072 8.85376 7.98213 9.21568 8.13266 9.4492 8.28319 9.68272 8.5246 10.06752 8.67513 10.31693 8.82564 10.56631 9.06706 10.97864 9.21759 11.24672 9.3681 11.5148 9.60953 11.95906 9.76004 12.24913 9.91057 12.53918 10.152 13.02127 10.3025 13.33736 10.45303 13.65343 10.69444 14.18031 10.84497 14.52719 10.9955 14.87408 11.23691 15.4537 11.38745 15.83751 11.53796 16.22131 11.77939 16.86455 11.9299 17.29343 12.08043 17.7223 12.32185 18.44427 12.47237 18.9286 12.6229 19.41292 12.8643 20.23131 13.01483 20.7841 13.16536 21.33691 13.40677 22.27286 13.5573 22.9129 13.70781 23.55293 13.94923 24.64372 14.09975 25.3971 14.25027 26.15048 14.4917 27.44014 14.64221 28.34279 14.79276 29.24544 15.03415 30.79774 15.1847 31.90277 15.33522 33.0078 15.57663 34.916 15.72716 36.3071 15.87769 37.69821 16.1191 40.11469 16.2696 41.92892 16.42014 43.74313 16.66156 46.90848 16.81207 49.38287 16.9626 51.85727 17.35454 59.76268 17.35454 59.76268"/>
</svg>
