<svg xmlns="http://www.w3.org/2000/svg" xmlns:xlink="http://www.w3.org/1999/xlink" version="1.1" width="245" height="246" viewBox="0 0 245 246">
<defs>
<path id="font_1_82" d="M.4189911 0V.0309906H.3869934C.29699708 .0309906 .2939911 .041992189 .2939911 .07902527V.64012148C.2939911 .6640167 .2939911 .6660156 .2709961 .6660156 .20899964 .60227969 .12098694 .60227969 .08898926 .60227969V.57128909C.10899353 .57128909 .16799927 .57128909 .21998596 .5972748V.07902527C.21998596 .042999269 .21699524 .0309906 .1269989 .0309906H.09498596V0C.12998963 .0029907227 .21699524 .0029907227 .25698854 .0029907227 .29699708 .0029907227 .38398744 .0029907227 .4189911 0Z"/>
<path id="font_1_107" d="M.44898988 .17396546H.42399598C.4189911 .14398194 .4119873 .099990848 .4019928 .084991458 .394989 .07699585 .32899476 .07699585 .30699159 .07699585H.1269989L.23298645 .17996216C.3889923 .31803895 .44898988 .37210084 .44898988 .47216798 .44898988 .5860901 .35899354 .6660156 .23699951 .6660156 .12399292 .6660156 .049987794 .57411196 .049987794 .48516847 .049987794 .4291687 .099990848 .4291687 .102996829 .4291687 .11999512 .4291687 .15499878 .44117738 .15499878 .48217774 .15499878 .5081787 .13699341 .5341797 .101989749 .5341797 .09399414 .5341797 .09199524 .5341797 .08898926 .5331726 .11199951 .59806826 .1659851 .63500979 .22399903 .63500979 .31498719 .63500979 .35798646 .5541382 .35798646 .47216798 .35798646 .39196778 .30799867 .31297303 .25299073 .25097657L.06098938 .036987306C.049987794 .025985718 .049987794 .023986817 .049987794 0H.42099L.44898988 .17396546Z"/>
<path id="font_1_106" d="M.45700074 .17037964C.45700074 .252594 .3939972 .33088685 .2899933 .35191346 .37199403 .37893678 .42999269 .4490509 .42999269 .52809146 .42999269 .6100464 .34199525 .6660156 .24598694 .6660156 .14498902 .6660156 .068984989 .60606387 .068984989 .53009036 .068984989 .49710084 .09098816 .47808839 .11999512 .47808839 .15098572 .47808839 .17098999 .50009158 .17098999 .5290985 .17098999 .57910159 .12399292 .57910159 .10899353 .57910159 .13999939 .62802127 .20599365 .64100649 .24198914 .64100649 .2829895 .64100649 .33799745 .6190338 .33799745 .5290985 .33799745 .51708987 .33599855 .45906068 .30999757 .4149933 .27999879 .36691285 .24598694 .36390687 .22099304 .36291505 .21299744 .36190797 .18899536 .35990907 .18199158 .35990907 .17399597 .35890199 .16699219 .35791017 .16699219 .3479004 .16699219 .33691407 .17399597 .33691407 .19099427 .33691407H.23498535C.31698609 .33691407 .35398866 .2686615 .35398866 .17037964 .35398866 .034469606 .2849884 .0055389406 .24099732 .0055389406 .19799805 .0055389406 .12298584 .022491456 .08799744 .08137512 .12298584 .07637024 .1539917 .09837341 .1539917 .1363678 .1539917 .17237854 .1269989 .19238281 .09799194 .19238281 .07398987 .19238281 .041992189 .17837525 .041992189 .1343689 .041992189 .043441774 .1349945-.022460938 .24398804-.022460938 .3659973-.022460938 .45700074 .06838989 .45700074 .17037964Z"/>
<path id="font_1_57" d="M.47099305 .16503906V.19602967H.37098695V.6507721C.37098695 .6707611 .37098695 .6767578 .35499574 .6767578 .34599305 .6767578 .34298707 .6767578 .33499146 .6647644L.027999878 .19602967V.16503906H.2939911V.07800293C.2939911 .041992189 .2919922 .0309906 .21798706 .0309906H.19699097V0C.23799134 .0029907227 .2899933 .0029907227 .33198548 .0029907227 .37399293 .0029907227 .4269867 .0029907227 .46798707 0V.0309906H.44699098C.37298585 .0309906 .37098695 .041992189 .37098695 .07800293V.16503906H.47099305M.2999878 .19602967H.055999757L.2999878 .56881716V.19602967Z"/>
<path id="font_1_56" d="M.44898988 .20091248C.44898988 .31991578 .36698915 .41992188 .25898744 .41992188 .21099854 .41992188 .16799927 .4039154 .13198853 .36891175V.5641022C.1519928 .55778506 .18499756 .55078127 .21699524 .55078127 .33999635 .55078127 .4099884 .6418457 .4099884 .65493777 .4099884 .6609802 .40699769 .6660156 .3999939 .6660156 .3999939 .66607668 .39698792 .66607668 .3919983 .66308596 .37199403 .65408328 .32299806 .63378909 .2559967 .63378909 .21598816 .63409426 .16999817 .641098 .12298584 .6621094 .114990238 .6651001 .11099243 .6651001 .11099243 .6651001 .100997928 .66508486 .100997928 .657074 .100997928 .64108279V.3447113C.100997928 .3266449 .100997928 .31861878 .114990238 .31861878 .12199402 .31861878 .12399292 .32164 .12799073 .32765199 .13899231 .34371949 .17599488 .3979187 .25698854 .3979187 .30899049 .3979187 .33399964 .3517456 .34199525 .3336792 .35798646 .2965393 .3600006 .2574005 .3600006 .20721436 .3600006 .17218018 .3600006 .112197879 .33599855 .07032776 .31199647 .031448366 .2749939 .0055389406 .22898865 .0055389406 .1559906 .0055389406 .09899902 .05836487 .08198547 .1171875 .084991458 .11685181 .08799744 .115859989 .09899902 .115859989 .13198853 .115859989 .14898682 .14085388 .14898682 .16485596 .14898682 .18885803 .13198853 .21386719 .09899902 .21386719 .084991458 .21386719 .049987794 .2068634 .049987794 .16085816 .049987794 .07432556 .11898804-.022460938 .23098755-.022460938 .34700013-.022460938 .44898988 .07331848 .44898988 .20019531V.20091248Z"/>
<path id="font_1_101" d="M.45700074 .2036438C.45700074 .33070375 .36799623 .4267578 .25698854 .4267578 .18899536 .4267578 .1519928 .37573243 .13198853 .327713V.35173036C.13198853 .6047821 .2559967 .64100649 .30699159 .64100649 .33099366 .64100649 .37298585 .634964 .394989 .6007538 .37998963 .6007538 .33999635 .6007538 .33999635 .5557556 .33999635 .524765 .3639984 .5097656 .38598634 .5097656 .4019928 .5097656 .43199159 .51875308 .43199159 .5577545 .43199159 .6178589 .3880005 .6660156 .30499269 .6660156 .1769867 .6660156 .041992189 .5367584 .041992189 .31570436 .041992189 .048553468 .1579895-.022460938 .25099183-.022460938 .3619995-.022460938 .45700074 .07156372 .45700074 .2036438M.36698915 .20463562C.36698915 .15661621 .36698915 .10658264 .34999085 .0705719 .31999208 .010528564 .27398683 .0055389406 .25099183 .0055389406 .18798828 .0055389406 .1579895 .06556702 .1519928 .080566409 .13398743 .127594 .13398743 .2076416 .13398743 .22564698 .13398743 .30369569 .1659851 .40374757 .2559967 .40374757 .27198792 .40374757 .31799317 .40374757 .34899903 .34172059 .36698915 .30470277 .36698915 .2536621 .36698915 .20463562Z"/>
<path id="font_1_121" d="M.45999146 .31976319C.45999146 .39982606 .45498658 .47988893 .41999818 .5539398 .37399293 .65000918 .2919922 .6660156 .25 .6660156 .18998719 .6660156 .116989139 .64001467 .07598877 .54693606 .04399109 .47789 .038986207 .39982606 .038986207 .31976319 .038986207 .24472046 .042999269 .15464783 .083999637 .07859802 .1269989-.0024719239 .19999695-.022460938 .24899292-.022460938 .30299378-.022460938 .3789978-.0014648438 .4229889 .09359741 .45498658 .16265869 .45999146 .2407074 .45999146 .31976319M.3769989 .3317871C.3769989 .25672914 .3769989 .18867493 .3659973 .12461853 .35099793 .029556275 .2939911-.00047302247 .24899292-.00047302247 .20999146-.00047302247 .15098572 .024551392 .1329956 .12062073 .12199402 .18066406 .12199402 .2727356 .12199402 .3317871 .12199402 .39582826 .12199402 .46188355 .12998963 .5159149 .14898682 .63500979 .22399903 .64401248 .24899292 .64401248 .28199769 .64401248 .34799195 .6259918 .36698915 .52693179 .3769989 .47088624 .3769989 .39482118 .3769989 .3317871Z"/>
<path id="font_1_88" d="M.19198609 .052993776C.19198609 .08198547 .16799927 .10598755 .13899231 .10598755 .10998535 .10598755 .085998538 .08198547 .085998538 .052993776 .085998538 .023986817 .10998535 0 .13899231 0 .16799927 0 .19198609 .023986817 .19198609 .052993776Z"/>
</defs>
<path transform="matrix(1.00003,0,0,-1.00002,122.338138,123.03815)" stroke-width=".79701" stroke-linecap="butt" stroke-miterlimit="10" stroke-linejoin="miter" fill="none" stroke="#c0c0c0" d="M-121.04045 0H121.04045"/>
<path transform="matrix(1.00003,0,0,-1.00002,122.338138,123.03815)" stroke-width=".79701" stroke-linecap="butt" stroke-miterlimit="10" stroke-linejoin="miter" fill="none" stroke="#c0c0c0" d="M0-121.04045V121.04045"/>
<path transform="matrix(1.00003,0,0,-1.00002,122.338138,123.03815)" stroke-width=".79701" stroke-linecap="butt" stroke-miterlimit="10" stroke-linejoin="miter" fill="none" stroke="#ff0000" d="M69.4494 0C69.4494 38.35634 38.35634 69.4494 0 69.4494-38.35634 69.4494-69.4494 38.35634-69.4494 0-69.4494-38.35634-38.35634-69.4494 0-69.4494 38.35634-69.4494 69.4494-38.35634 69.4494 0ZM0 0"/>
<path transform="matrix(1.00003,0,0,-1.00002,122.338138,123.03815)" stroke-width=".79701" stroke-linecap="butt" stroke-miterlimit="10" stroke-linejoin="miter" fill="none" stroke="#ff0000" d="M119.0561 0C119.0561 65.75372 65.75372 119.0561 0 119.0561-65.75372 119.0561-119.0561 65.75372-119.0561 0-119.0561-65.75372-65.75372-119.0561 0-119.0561 65.75372-119.0561 119.0561-65.75372 119.0561 0ZM0 0"/>
<path transform="matrix(1.00003,0,0,-1.00002,122.338138,123.03815)" stroke-width=".79701" stroke-linecap="butt" stroke-miterlimit="10" stroke-linejoin="miter" fill="none" stroke="#000000" d="M118.45476 11.88269 112.53186 11.28835"/>
<path transform="matrix(1.00003,0,0,-1.00002,122.338138,123.03815)" stroke-width=".79701" stroke-linecap="butt" stroke-miterlimit="10" stroke-linejoin="miter" fill="none" stroke="#000000" d="M116.67625 23.64915 110.84238 22.4665"/>
<path transform="matrix(1.00003,0,0,-1.00002,122.338138,123.03815)" stroke-width=".79701" stroke-linecap="butt" stroke-miterlimit="10" stroke-linejoin="miter" fill="none" stroke="#000000" d="M113.73508 35.17944 108.04805 33.4203"/>
<path transform="matrix(1.00003,0,0,-1.00002,122.338138,123.03815)" stroke-width=".79701" stroke-linecap="butt" stroke-miterlimit="10" stroke-linejoin="miter" fill="none" stroke="#000000" d="M109.65489 46.3573 104.17194 44.03925"/>
<path transform="matrix(1.00003,0,0,-1.00002,122.338138,123.03815)" stroke-width=".79701" stroke-linecap="butt" stroke-miterlimit="10" stroke-linejoin="miter" fill="none" stroke="#000000" d="M104.47743 57.07191 99.25334 54.21826"/>
<path transform="matrix(1.00003,0,0,-1.00002,122.338138,123.03815)" stroke-width=".79701" stroke-linecap="butt" stroke-miterlimit="10" stroke-linejoin="miter" fill="none" stroke="#000000" d="M98.25903 67.2161 93.3459 63.855"/>
<path transform="matrix(1.00003,0,0,-1.00002,122.338138,123.03815)" stroke-width=".79701" stroke-linecap="butt" stroke-miterlimit="10" stroke-linejoin="miter" fill="none" stroke="#000000" d="M91.05965 76.69176 86.50652 72.8571"/>
<path transform="matrix(1.00003,0,0,-1.00002,122.338138,123.03815)" stroke-width=".79701" stroke-linecap="butt" stroke-miterlimit="10" stroke-linejoin="miter" fill="none" stroke="#000000" d="M82.94829 85.39896 78.80057 81.12892"/>
<path transform="matrix(1.00003,0,0,-1.00002,122.338138,123.03815)" stroke-width=".79701" stroke-linecap="butt" stroke-miterlimit="10" stroke-linejoin="miter" fill="none" stroke="#000000" d="M74.00854 93.25052 70.30803 88.58778"/>
<path transform="matrix(1.00003,0,0,-1.00002,122.338138,123.03815)" stroke-width=".79701" stroke-linecap="butt" stroke-miterlimit="10" stroke-linejoin="miter" fill="none" stroke="#000000" d="M64.32942 100.17197 61.11275 95.16316"/>
<path transform="matrix(1.00003,0,0,-1.00002,122.338138,123.03815)" stroke-width=".79701" stroke-linecap="butt" stroke-miterlimit="10" stroke-linejoin="miter" fill="none" stroke="#000000" d="M54.01086 106.09789 51.31009 100.79265"/>
<path transform="matrix(1.00003,0,0,-1.00002,122.338138,123.03815)" stroke-width=".79701" stroke-linecap="butt" stroke-miterlimit="10" stroke-linejoin="miter" fill="none" stroke="#000000" d="M43.14726 110.95561 40.9897 105.40756"/>
<path transform="matrix(1.00003,0,0,-1.00002,122.338138,123.03815)" stroke-width=".79701" stroke-linecap="butt" stroke-miterlimit="10" stroke-linejoin="miter" fill="none" stroke="#000000" d="M31.85677 114.70882 30.26389 108.97304"/>
<path transform="matrix(1.00003,0,0,-1.00002,122.338138,123.03815)" stroke-width=".79701" stroke-linecap="butt" stroke-miterlimit="10" stroke-linejoin="miter" fill="none" stroke="#000000" d="M20.24655 117.31752 19.23409 111.45155"/>
<path transform="matrix(1.00003,0,0,-1.00002,122.338138,123.03815)" stroke-width=".79701" stroke-linecap="butt" stroke-miterlimit="10" stroke-linejoin="miter" fill="none" stroke="#000000" d="M8.4347 118.7545 8.01292 112.81645"/>
<path transform="matrix(1.00003,0,0,-1.00002,122.338138,123.03815)" stroke-width=".79701" stroke-linecap="butt" stroke-miterlimit="10" stroke-linejoin="miter" fill="none" stroke="#000000" d="M-3.45888 118.99974-3.2857 113.0496"/>
<path transform="matrix(1.00003,0,0,-1.00002,122.338138,123.03815)" stroke-width=".79701" stroke-linecap="butt" stroke-miterlimit="10" stroke-linejoin="miter" fill="none" stroke="#000000" d="M-15.3198 118.06053-14.55379 112.15733"/>
<path transform="matrix(1.00003,0,0,-1.00002,122.338138,123.03815)" stroke-width=".79701" stroke-linecap="butt" stroke-miterlimit="10" stroke-linejoin="miter" fill="none" stroke="#000000" d="M-27.02995 115.94412-25.67836 110.14659"/>
<path transform="matrix(1.00003,0,0,-1.00002,122.338138,123.03815)" stroke-width=".79701" stroke-linecap="butt" stroke-miterlimit="10" stroke-linejoin="miter" fill="none" stroke="#000000" d="M-38.46939 112.6669-36.54587 107.03346"/>
<path transform="matrix(1.00003,0,0,-1.00002,122.338138,123.03815)" stroke-width=".79701" stroke-linecap="butt" stroke-miterlimit="10" stroke-linejoin="miter" fill="none" stroke="#000000" d="M-49.52373 108.2597-47.04732 102.84637"/>
<path transform="matrix(1.00003,0,0,-1.00002,122.338138,123.03815)" stroke-width=".79701" stroke-linecap="butt" stroke-miterlimit="10" stroke-linejoin="miter" fill="none" stroke="#000000" d="M-60.08391 102.77524-57.07947 97.63622"/>
<path transform="matrix(1.00003,0,0,-1.00002,122.338138,123.03815)" stroke-width=".79701" stroke-linecap="butt" stroke-miterlimit="10" stroke-linejoin="miter" fill="none" stroke="#000000" d="M-70.04462 96.26797-66.54213 91.45445"/>
<path transform="matrix(1.00003,0,0,-1.00002,122.338138,123.03815)" stroke-width=".79701" stroke-linecap="butt" stroke-miterlimit="10" stroke-linejoin="miter" fill="none" stroke="#000000" d="M-79.3041 88.79247-75.33864 84.35257"/>
<path transform="matrix(1.00003,0,0,-1.00002,122.338138,123.03815)" stroke-width=".79701" stroke-linecap="butt" stroke-miterlimit="10" stroke-linejoin="miter" fill="none" stroke="#000000" d="M-87.7697 80.43224-83.38097 76.41048"/>
<path transform="matrix(1.00003,0,0,-1.00002,122.338138,123.03815)" stroke-width=".79701" stroke-linecap="butt" stroke-miterlimit="10" stroke-linejoin="miter" fill="none" stroke="#000000" d="M-95.36147 71.26904-90.59306 67.70538"/>
<path transform="matrix(1.00003,0,0,-1.00002,122.338138,123.03815)" stroke-width=".79701" stroke-linecap="butt" stroke-miterlimit="10" stroke-linejoin="miter" fill="none" stroke="#000000" d="M-102.00133 61.39554-96.90108 58.3257"/>
<path transform="matrix(1.00003,0,0,-1.00002,122.338138,123.03815)" stroke-width=".79701" stroke-linecap="butt" stroke-miterlimit="10" stroke-linejoin="miter" fill="none" stroke="#000000" d="M-107.61842 50.90256-102.2372 48.35713"/>
<path transform="matrix(1.00003,0,0,-1.00002,122.338138,123.03815)" stroke-width=".79701" stroke-linecap="butt" stroke-miterlimit="10" stroke-linejoin="miter" fill="none" stroke="#000000" d="M-112.16188 39.90819-106.55356 37.9126"/>
<path transform="matrix(1.00003,0,0,-1.00002,122.338138,123.03815)" stroke-width=".79701" stroke-linecap="butt" stroke-miterlimit="10" stroke-linejoin="miter" fill="none" stroke="#000000" d="M-115.58989 28.51051-109.81021 27.08475"/>
<path transform="matrix(1.00003,0,0,-1.00002,122.338138,123.03815)" stroke-width=".79701" stroke-linecap="butt" stroke-miterlimit="10" stroke-linejoin="miter" fill="none" stroke="#000000" d="M-117.85707 16.82945-111.96416 15.98773"/>
<path transform="matrix(1.00003,0,0,-1.00002,122.338138,123.03815)" stroke-width=".79701" stroke-linecap="butt" stroke-miterlimit="10" stroke-linejoin="miter" fill="none" stroke="#000000" d="M-118.94524 4.97942-112.99783 4.73024"/>
<path transform="matrix(1.00003,0,0,-1.00002,122.338138,123.03815)" stroke-width=".79701" stroke-linecap="butt" stroke-miterlimit="10" stroke-linejoin="miter" fill="none" stroke="#000000" d="M-118.84897-6.91597-112.90639-6.5699"/>
<path transform="matrix(1.00003,0,0,-1.00002,122.338138,123.03815)" stroke-width=".79701" stroke-linecap="butt" stroke-miterlimit="10" stroke-linejoin="miter" fill="none" stroke="#000000" d="M-117.56824-18.7442-111.68953-17.8068"/>
<path transform="matrix(1.00003,0,0,-1.00002,122.338138,123.03815)" stroke-width=".79701" stroke-linecap="butt" stroke-miterlimit="10" stroke-linejoin="miter" fill="none" stroke="#000000" d="M-115.10667-30.38712-109.35121-28.8675"/>
<path transform="matrix(1.00003,0,0,-1.00002,122.338138,123.03815)" stroke-width=".79701" stroke-linecap="butt" stroke-miterlimit="10" stroke-linejoin="miter" fill="none" stroke="#000000" d="M-111.4988-41.72665-105.9238-39.64023"/>
<path transform="matrix(1.00003,0,0,-1.00002,122.338138,123.03815)" stroke-width=".79701" stroke-linecap="butt" stroke-miterlimit="10" stroke-linejoin="miter" fill="none" stroke="#000000" d="M-106.7755-52.64836-101.43666-50.01573"/>
<path transform="matrix(1.00003,0,0,-1.00002,122.338138,123.03815)" stroke-width=".79701" stroke-linecap="butt" stroke-miterlimit="10" stroke-linejoin="miter" fill="none" stroke="#000000" d="M-100.98946-63.04506-95.93977-59.89256"/>
<path transform="matrix(1.00003,0,0,-1.00002,122.338138,123.03815)" stroke-width=".79701" stroke-linecap="butt" stroke-miterlimit="10" stroke-linejoin="miter" fill="none" stroke="#000000" d="M-94.18973-72.80957-89.48007-69.16899"/>
<path transform="matrix(1.00003,0,0,-1.00002,122.338138,123.03815)" stroke-width=".79701" stroke-linecap="butt" stroke-miterlimit="10" stroke-linejoin="miter" fill="none" stroke="#000000" d="M-86.44899-81.84923-82.12627-77.7566"/>
<path transform="matrix(1.00003,0,0,-1.00002,122.338138,123.03815)" stroke-width=".79701" stroke-linecap="butt" stroke-miterlimit="10" stroke-linejoin="miter" fill="none" stroke="#000000" d="M-77.84895-90.07138-73.95618-85.56761"/>
<path transform="matrix(1.00003,0,0,-1.00002,122.338138,123.03815)" stroke-width=".79701" stroke-linecap="butt" stroke-miterlimit="10" stroke-linejoin="miter" fill="none" stroke="#000000" d="M-68.46776-97.3925-65.04428-92.52266"/>
<path transform="matrix(1.00003,0,0,-1.00002,122.338138,123.03815)" stroke-width=".79701" stroke-linecap="butt" stroke-miterlimit="10" stroke-linejoin="miter" fill="none" stroke="#000000" d="M-58.40533-103.73987-55.48477-98.55273"/>
<path transform="matrix(1.00003,0,0,-1.00002,122.338138,123.03815)" stroke-width=".79701" stroke-linecap="butt" stroke-miterlimit="10" stroke-linejoin="miter" fill="none" stroke="#000000" d="M-47.75612-109.04994-45.36812-103.59726"/>
<path transform="matrix(1.00003,0,0,-1.00002,122.338138,123.03815)" stroke-width=".79701" stroke-linecap="butt" stroke-miterlimit="10" stroke-linejoin="miter" fill="none" stroke="#000000" d="M-36.63094-113.27911-34.79915-107.6151"/>
<path transform="matrix(1.00003,0,0,-1.00002,122.338138,123.03815)" stroke-width=".79701" stroke-linecap="butt" stroke-miterlimit="10" stroke-linejoin="miter" fill="none" stroke="#000000" d="M-25.14063-116.3656-23.8835-110.54716"/>
<path transform="matrix(1.00003,0,0,-1.00002,122.338138,123.03815)" stroke-width=".79701" stroke-linecap="butt" stroke-miterlimit="10" stroke-linejoin="miter" fill="none" stroke="#000000" d="M-13.39778-118.29489-12.72774-112.37987"/>
<path transform="matrix(1.00003,0,0,-1.00002,122.338138,123.03815)" stroke-width=".79701" stroke-linecap="butt" stroke-miterlimit="10" stroke-linejoin="miter" fill="none" stroke="#000000" d="M-1.52415-119.04153-1.44786-113.08928"/>
<path transform="matrix(1.00003,0,0,-1.00002,122.338138,123.03815)" stroke-width=".79701" stroke-linecap="butt" stroke-miterlimit="10" stroke-linejoin="miter" fill="none" stroke="#000000" d="M10.36397-118.60188 9.84563-112.67174"/>
<path transform="matrix(1.00003,0,0,-1.00002,122.338138,123.03815)" stroke-width=".79701" stroke-linecap="butt" stroke-miterlimit="10" stroke-linejoin="miter" fill="none" stroke="#000000" d="M22.15222-116.97055 21.04436-111.12183"/>
<path transform="matrix(1.00003,0,0,-1.00002,122.338138,123.03815)" stroke-width=".79701" stroke-linecap="butt" stroke-miterlimit="10" stroke-linejoin="miter" fill="none" stroke="#000000" d="M33.71704-114.17471 32.03088-108.4659"/>
<path transform="matrix(1.00003,0,0,-1.00002,122.338138,123.03815)" stroke-width=".79701" stroke-linecap="butt" stroke-miterlimit="10" stroke-linejoin="miter" fill="none" stroke="#000000" d="M44.94757-110.23985 42.70007-104.72752"/>
<path transform="matrix(1.00003,0,0,-1.00002,122.338138,123.03815)" stroke-width=".79701" stroke-linecap="butt" stroke-miterlimit="10" stroke-linejoin="miter" fill="none" stroke="#000000" d="M55.72758-105.20227 52.94115-99.94186"/>
<path transform="matrix(1.00003,0,0,-1.00002,122.338138,123.03815)" stroke-width=".79701" stroke-linecap="butt" stroke-miterlimit="10" stroke-linejoin="miter" fill="none" stroke="#000000" d="M65.9517-99.11104 62.65388-94.15523"/>
<path transform="matrix(1.00003,0,0,-1.00002,122.338138,123.03815)" stroke-width=".79701" stroke-linecap="butt" stroke-miterlimit="10" stroke-linejoin="miter" fill="none" stroke="#000000" d="M75.51456-92.03156 71.73865-87.42967"/>
<path transform="matrix(1.00003,0,0,-1.00002,122.338138,123.03815)" stroke-width=".79701" stroke-linecap="butt" stroke-miterlimit="10" stroke-linejoin="miter" fill="none" stroke="#000000" d="M84.32895-84.03828 80.1122-79.83607"/>
<path transform="matrix(1.00003,0,0,-1.00002,122.338138,123.03815)" stroke-width=".79701" stroke-linecap="butt" stroke-miterlimit="10" stroke-linejoin="miter" fill="none" stroke="#000000" d="M92.29495-75.19847 87.68007-71.43828"/>
<path transform="matrix(1.00003,0,0,-1.00002,122.338138,123.03815)" stroke-width=".79701" stroke-linecap="butt" stroke-miterlimit="10" stroke-linejoin="miter" fill="none" stroke="#000000" d="M99.33995-65.60834 94.37262-62.32779"/>
<path transform="matrix(1.00003,0,0,-1.00002,122.338138,123.03815)" stroke-width=".79701" stroke-linecap="butt" stroke-miterlimit="10" stroke-linejoin="miter" fill="none" stroke="#000000" d="M105.39302-55.36424 100.12321-52.59598"/>
<path transform="matrix(1.00003,0,0,-1.00002,122.338138,123.03815)" stroke-width=".79701" stroke-linecap="butt" stroke-miterlimit="10" stroke-linejoin="miter" fill="none" stroke="#000000" d="M110.39607-44.56789 104.87619-42.33946"/>
<path transform="matrix(1.00003,0,0,-1.00002,122.338138,123.03815)" stroke-width=".79701" stroke-linecap="butt" stroke-miterlimit="10" stroke-linejoin="miter" fill="none" stroke="#000000" d="M114.28918-33.32463 108.57458-31.65816"/>
<path transform="matrix(1.00003,0,0,-1.00002,122.338138,123.03815)" stroke-width=".79701" stroke-linecap="butt" stroke-miterlimit="10" stroke-linejoin="miter" fill="none" stroke="#000000" d="M117.04684-21.7471 111.19421-20.65955"/>
<path transform="matrix(1.00003,0,0,-1.00002,122.338138,123.03815)" stroke-width=".79701" stroke-linecap="butt" stroke-miterlimit="10" stroke-linejoin="miter" fill="none" stroke="#000000" d="M118.63278-9.95705 112.7008-9.45898"/>
<path transform="matrix(1.00003,0,0,-1.00002,122.338138,123.03815)" stroke-width=".79701" stroke-linecap="butt" stroke-miterlimit="10" stroke-linejoin="miter" fill="none" stroke="#000000" d="M64.32399 100.17741 53.6033 83.48119"/>
<use data-text="1" xlink:href="#font_1_82" transform="matrix(9.962899,0,0,-9.962799,168.47452,47.882646)"/>
<path transform="matrix(1.00003,0,0,-1.00002,122.338138,123.03815)" stroke-width=".79701" stroke-linecap="butt" stroke-miterlimit="10" stroke-linejoin="miter" fill="none" stroke="#000000" d="M-49.54189 108.25063-41.2849 90.20885"/>
<use data-text="2" xlink:href="#font_1_107" transform="matrix(9.962899,0,0,-9.962799,79.27684,41.557519)"/>
<path transform="matrix(1.00003,0,0,-1.00002,122.338138,123.03815)" stroke-width=".79701" stroke-linecap="butt" stroke-miterlimit="10" stroke-linejoin="miter" fill="none" stroke="#000000" d="M-117.8607 16.80037-98.21725 14.0003"/>
<use data-text="3" xlink:href="#font_1_106" transform="matrix(9.962899,0,0,-9.962799,25.759232,113.085948)"/>
<path transform="matrix(1.00003,0,0,-1.00002,122.338138,123.03815)" stroke-width=".79701" stroke-linecap="butt" stroke-miterlimit="10" stroke-linejoin="miter" fill="none" stroke="#000000" d="M-77.81807-90.09863-64.84839-75.0822"/>
<use data-text="4" xlink:href="#font_1_57" transform="matrix(9.962899,0,0,-9.962799,57.127183,196.98963)"/>
<path transform="matrix(1.00003,0,0,-1.00002,122.338138,123.03815)" stroke-width=".79701" stroke-linecap="butt" stroke-miterlimit="10" stroke-linejoin="miter" fill="none" stroke="#000000" d="M33.7679-114.15837 28.13991-95.13199"/>
<use data-text="5" xlink:href="#font_1_56" transform="matrix(9.962899,0,0,-9.962799,144.53781,215.672)"/>
<path transform="matrix(1.00003,0,0,-1.00002,122.338138,123.03815)" stroke-width=".79701" stroke-linecap="butt" stroke-miterlimit="10" stroke-linejoin="miter" fill="none" stroke="#000000" d="M114.30914-33.26288 95.25761-27.71906"/>
<use data-text="6" xlink:href="#font_1_101" transform="matrix(9.962899,0,0,-9.962799,207.6307,152.30274)"/>
<path transform="matrix(1.00003,0,0,-1.00002,122.338138,123.03815)" stroke-width=".79701" stroke-linecap="butt" stroke-miterlimit="10" stroke-linejoin="miter" fill="none" stroke="#000000" d="M104.47562 57.07553 92.28679 50.41661"/>
<use data-text="0" xlink:href="#font_1_121" transform="matrix(8.966609,0,0,-8.966518,204.4732,79.31316)"/>
<use data-text="." xlink:href="#font_1_88" transform="matrix(8.966609,0,0,-8.966518,208.95652,79.31316)"/>
<use data-text="5" xlink:href="#font_1_56" transform="matrix(8.966609,0,0,-8.966518,211.44922,79.31316)"/>
<path transform="matrix(1.00003,0,0,-1.00002,122.338138,123.03815)" stroke-width=".79701" stroke-linecap="butt" stroke-miterlimit="10" stroke-linejoin="miter" fill="none" stroke="#000000" d="M8.42015 118.7545 7.43765 104.8998"/>
<use data-text="1" xlink:href="#font_1_82" transform="matrix(8.966609,0,0,-8.966518,126.025859,28.941155)"/>
<use data-text="." xlink:href="#font_1_88" transform="matrix(8.966609,0,0,-8.966518,130.50916,28.941155)"/>
<use data-text="5" xlink:href="#font_1_56" transform="matrix(8.966609,0,0,-8.966518,133.00186,28.941155)"/>
<path transform="matrix(1.00003,0,0,-1.00002,122.338138,123.03815)" stroke-width=".79701" stroke-linecap="butt" stroke-miterlimit="10" stroke-linejoin="miter" fill="none" stroke="#000000" d="M-95.37782 71.24905-84.25023 62.93666"/>
<use data-text="2" xlink:href="#font_1_107" transform="matrix(8.966609,0,0,-8.966518,41.25531,67.73793)"/>
<use data-text="." xlink:href="#font_1_88" transform="matrix(8.966609,0,0,-8.966518,45.7386,67.73793)"/>
<use data-text="5" xlink:href="#font_1_56" transform="matrix(8.966609,0,0,-8.966518,48.231325,67.73793)"/>
<path transform="matrix(1.00003,0,0,-1.00002,122.338138,123.03815)" stroke-width=".79701" stroke-linecap="butt" stroke-miterlimit="10" stroke-linejoin="miter" fill="none" stroke="#000000" d="M-111.48607-41.76118-98.47916-36.88892"/>
<use data-text="3" xlink:href="#font_1_106" transform="matrix(8.966609,0,0,-8.966518,28.099915,160.03078)"/>
<use data-text="." xlink:href="#font_1_88" transform="matrix(8.966609,0,0,-8.966518,32.583208,160.03078)"/>
<use data-text="5" xlink:href="#font_1_56" transform="matrix(8.966609,0,0,-8.966518,35.075929,160.03078)"/>
<path transform="matrix(1.00003,0,0,-1.00002,122.338138,123.03815)" stroke-width=".79701" stroke-linecap="butt" stroke-miterlimit="10" stroke-linejoin="miter" fill="none" stroke="#000000" d="M-25.0952-116.37831-22.16736-102.80066"/>
<use data-text="4" xlink:href="#font_1_57" transform="matrix(8.966609,0,0,-8.966518,98.65403,221.019)"/>
<use data-text="." xlink:href="#font_1_88" transform="matrix(8.966609,0,0,-8.966518,103.13732,221.019)"/>
<use data-text="5" xlink:href="#font_1_56" transform="matrix(8.966609,0,0,-8.966518,105.63004,221.019)"/>
<path transform="matrix(1.00003,0,0,-1.00002,122.338138,123.03815)" stroke-width=".79701" stroke-linecap="butt" stroke-miterlimit="10" stroke-linejoin="miter" fill="none" stroke="#000000" d="M84.36891-83.9965 74.5257-74.19688"/>
<use data-text="5" xlink:href="#font_1_56" transform="matrix(8.966609,0,0,-8.966518,188.05171,194.52347)"/>
<use data-text="." xlink:href="#font_1_88" transform="matrix(8.966609,0,0,-8.966518,192.535,194.52347)"/>
<use data-text="5" xlink:href="#font_1_56" transform="matrix(8.966609,0,0,-8.966518,195.02773,194.52347)"/>
</svg>
