<svg xmlns="http://www.w3.org/2000/svg" xmlns:xlink="http://www.w3.org/1999/xlink" version="1.1" width="97pt" height="114pt" viewBox="0 0 97 114">
<defs>
<path id="font_1_1" d="M.33399964 .30233766C.33999635 .32835389 .36299134 .42037965 .43299867 .42037965 .43798829 .42037965 .46199037 .42037965 .48298646 .40734864 .45498658 .402359 .43499757 .37734986 .43499757 .35334779 .43499757 .33735658 .44599916 .31835938 .47299195 .31835938 .49499513 .31835938 .5269928 .3363495 .5269928 .37635804 .5269928 .42837525 .46798707 .4423828 .43399049 .4423828 .37599183 .4423828 .34098817 .38935853 .32899476 .36634828 .3039856 .43237306 .25 .4423828 .22099304 .4423828 .116989139 .4423828 .05999756 .3133545 .05999756 .28834535 .05999756 .27833558 .069992069 .27833558 .07199097 .27833558 .07998657 .27833558 .08299255 .28033448 .084991458 .28933717 .11898804 .39535523 .18499756 .42037965 .21899414 .42037965 .23799134 .42037965 .272995 .4113617 .272995 .35334779 .272995 .32235719 .2559967 .25532533 .21899414 .11528015 .20298767 .053268434 .16799927 .011245728 .12399292 .011245728 .117996219 .011245728 .09498596 .011245728 .07398987 .024276734 .09899902 .029266358 .12098694 .05027771 .12098694 .07827759 .12098694 .105270389 .09899902 .11328125 .083999637 .11328125 .053985597 .11328125 .0289917 .08728027 .0289917 .055267335 .0289917 .009246826 .07899475-.0107421879 .12298584-.0107421879 .18899536-.0107421879 .22499085 .059280397 .22799683 .0652771 .23999024 .028274537 .27598573-.0107421879 .33599855-.0107421879 .43899537-.0107421879 .49598695 .118270877 .49598695 .14328003 .49598695 .1532898 .4869995 .1532898 .48399354 .1532898 .47499085 .1532898 .47299195 .14929199 .47099305 .14228821 .43798829 .03527832 .36999513 .011245728 .33799745 .011245728 .29899598 .011245728 .2829895 .043273927 .2829895 .07727051 .2829895 .09927368 .2889862 .121276859 .2999878 .16529846L.33399964 .30233766Z"/>
<path id="font_1_2" d="M.48599244 .38136292C.48999024 .39537049 .48999024 .39736939 .48999024 .40437318 .48999024 .42237855 .47599793 .43138124 .46099855 .43138124 .45098878 .43138124 .43499757 .42536927 .42599488 .41036988 .42399598 .405365 .41600038 .37435914 .4119873 .35635377 .40499879 .33035279 .397995 .30334474 .3919983 .27633668L.34700013 .09628296C.34298707 .08126831 .2999878 .011245728 .23399353 .011245728 .18299866 .011245728 .17199707 .055267335 .17199707 .0922699 .17199707 .1382904 .18899536 .20030213 .22299195 .28833009 .23899842 .3293457 .24299622 .3403473 .24299622 .36035157 .24299622 .405365 .21099854 .4423828 .16099549 .4423828 .06599426 .4423828 .0289917 .29733277 .0289917 .28833009 .0289917 .27833558 .038986207 .27833558 .040985109 .27833558 .050994874 .27833558 .051986696 .28033448 .056991579 .29634095 .083999637 .3903656 .12399292 .42037965 .1579895 .42037965 .1659851 .42037965 .18299866 .42037965 .18299866 .3883667 .18299866 .36335755 .17298889 .3373413 .1659851 .31834413 .12599182 .21231079 .10798645 .1552887 .10798645 .10827637 .10798645 .019256592 .17098999-.0107421879 .22999573-.0107421879 .2689972-.0107421879 .30299378 .0062561037 .33099366 .03425598 .31799317-.017745972 .30599977-.06674194 .2659912-.11973572 .23999024-.15385437 .20199585-.18309021 .1559906-.18309021 .14199829-.18309021 .09700012-.18005371 .07998657-.14074707 .09599304-.14074707 .10899353-.14074707 .12298584-.1287384 .1329956-.11973572 .14299011-.10673523 .14299011-.08773804 .14299011-.056747438 .115997318-.052734376 .10598755-.052734376 .08299255-.052734376 .049987794-.068740848 .049987794-.11773682 .049987794-.16796875 .09399414-.20507813 .1559906-.20507813 .25898744-.20507813 .3619995-.11373901 .3899994-.00074768069L.48599244 .38136292Z"/>
<path id="font_2_1" d="M.1269989 .07699585 .23298645 .18003845C.3889923 .31811524 .44898988 .3721466 .44898988 .47216798 .44898988 .5860901 .35899354 .6660156 .23699951 .6660156 .12399292 .6660156 .049987794 .57411196 .049987794 .48516847 .049987794 .4291687 .099990848 .4291687 .102996829 .4291687 .11999512 .4291687 .15499878 .44117738 .15499878 .48217774 .15499878 .5081787 .13699341 .5341797 .101989749 .5341797 .09399414 .5341797 .09199524 .5341797 .08898926 .5331726 .11199951 .59806826 .1659851 .63500979 .22399903 .63500979 .31498719 .63500979 .35798646 .5541382 .35798646 .47216798 .35798646 .39215089 .30799867 .31311036 .25299073 .25108338L.06098938 .036987306C.049987794 .025985718 .049987794 .023986817 .049987794 0H.42099L.44898988 .17404175H.42399598C.4189911 .14402771 .4119873 .1000061 .4019928 .084991458 .394989 .07699585 .32899476 .07699585 .30699159 .07699585H.1269989Z"/>
<path id="font_3_1" d="M.6589966 .23046875C.6759949 .23046875 .69400027 .23046875 .69400027 .25045777 .69400027 .27046205 .6759949 .27046205 .6589966 .27046205H.117996219C.100997928 .27046205 .08299255 .27046205 .08299255 .25045777 .08299255 .23046875 .100997928 .23046875 .117996219 .23046875H.6589966Z"/>
<path id="font_2_2" d="M.2939911 .16503906V.07800293C.2939911 .041992189 .2919922 .0309906 .21798706 .0309906H.19699097V0C.23799134 .0029907227 .2899933 .0029907227 .33198548 .0029907227 .37399293 .0029907227 .4269867 .0029907227 .46798707 0V.0309906H.44699098C.37298585 .0309906 .37098695 .041992189 .37098695 .07800293V.16503906H.47099305V.19602967H.37098695V.65075686C.37098695 .67074587 .37098695 .6767578 .35499574 .6767578 .34599305 .6767578 .34298707 .6767578 .33499146 .66474917L.027999878 .19602967V.16503906H.2939911M.2999878 .19602967H.055999757L.2999878 .5688019V.19602967Z"/>
<path id="font_2_3" d="M.13198853 .327713V.35173036C.13198853 .6047821 .2559967 .64100649 .30699159 .64100649 .33099366 .64100649 .37298585 .634964 .394989 .6007538 .37998963 .6007538 .33999635 .6007538 .33999635 .5557556 .33999635 .524765 .3639984 .5097656 .38598634 .5097656 .4019928 .5097656 .43199159 .51875308 .43199159 .5577545 .43199159 .6178589 .3880005 .6660156 .30499269 .6660156 .1769867 .6660156 .041992189 .5367584 .041992189 .31570436 .041992189 .048553468 .1579895-.022460938 .25099183-.022460938 .3619995-.022460938 .45700074 .07156372 .45700074 .2036438 .45700074 .33070375 .36799623 .4267578 .25698854 .4267578 .18899536 .4267578 .1519928 .37573243 .13198853 .327713M.25099183 .0055389406C.18798828 .0055389406 .1579895 .06556702 .1519928 .080566409 .13398743 .127594 .13398743 .2076416 .13398743 .22564698 .13398743 .30369569 .1659851 .40374757 .2559967 .40374757 .27198792 .40374757 .31799317 .40374757 .34899903 .34172059 .36698915 .30470277 .36698915 .2536621 .36698915 .20463562 .36698915 .15661621 .36698915 .10658264 .34999085 .0705719 .31999208 .010528564 .27398683 .0055389406 .25099183 .0055389406Z"/>
<path id="font_2_4" d="M.16299439 .4569702C.116989139 .486969 .11299133 .52098086 .11299133 .5379791 .11299133 .598999 .17799378 .64100649 .24899292 .64100649 .32199098 .64100649 .38598634 .58898928 .38598634 .51698306 .38598634 .45996095 .34700013 .4119568 .2869873 .37695313L.16299439 .4569702M.30899049 .36193849C.3809967 .3989563 .42999269 .45095826 .42999269 .51698306 .42999269 .6090088 .34098817 .6660156 .25 .6660156 .1499939 .6660156 .068984989 .59199526 .068984989 .49897767 .068984989 .4809723 .070999149 .43595887 .11299133 .38894654 .12399292 .37695313 .16099549 .35194398 .18598938 .33494569 .12799073 .30592347 .041992189 .24984741 .041992189 .15072632 .041992189 .04458618 .14399719-.022460938 .24899292-.022460938 .3619995-.022460938 .45700074 .06060791 .45700074 .16773987 .45700074 .20379639 .44599916 .24885559 .4079895 .2909088 .3889923 .31193543 .37298585 .3219452 .30899049 .36193849M.20899964 .3199463 .33198548 .24183655C.3600006 .2228241 .40699769 .19277954 .40699769 .13169861 .40699769 .05760193 .33198548 .0055389406 .25 .0055389406 .1639862 .0055389406 .09199524 .067611698 .09199524 .15072632 .09199524 .20880127 .12399292 .27288819 .20899964 .3199463Z"/>
</defs>
<path transform="matrix(1.00002,0,0,-1,43.542535,91.692)" stroke-width=".3985" stroke-linecap="butt" stroke-miterlimit="10" stroke-linejoin="miter" fill="none" stroke="#929292" d="M-36.28473-18.14235H36.28473M-36.28473-9.07117H36.28473M-36.28473 0H36.28473M-36.28473 9.07117H36.28473M-36.28473 18.14235H36.28473M-36.28473 27.21355H36.28473M-36.28473 36.28473H36.28473M-36.28473 45.35591H36.28473M-36.28473 54.42711H36.28473M-36.28473 63.49829H36.28473M-36.28473 72.56628H36.28473M-36.28473-18.14235V72.56947M-27.21355-18.14235V72.56947M-18.14235-18.14235V72.56947M-9.07117-18.14235V72.56947M0-18.14235V72.56947M9.07117-18.14235V72.56947M18.14235-18.14235V72.56947M27.21355-18.14235V72.56947M36.28156-18.14235V72.56947M36.28473 72.56947"/>
<path transform="matrix(1.00002,0,0,-1,43.542535,91.692)" stroke-width=".79701" stroke-linecap="butt" stroke-miterlimit="10" stroke-linejoin="miter" fill="none" stroke="#000000" d="M-36.28473 0H42.1071"/>
<path transform="matrix(1.00002,0,0,-1,85.65048,91.692)" d="M1.0361 0C-.25902 .25902-1.55415 .77707-3.1083 1.68365-1.55415 .51805-1.55415-.51805-3.1083-1.68365-1.55415-.77707-.25902-.25902 1.0361 0Z"/>
<path transform="matrix(1.00002,0,0,-1,85.65048,91.692)" stroke-width=".79701" stroke-linecap="butt" stroke-linejoin="round" fill="none" stroke="#000000" d="M1.0361 0C-.25902 .25902-1.55415 .77707-3.1083 1.68365-1.55415 .51805-1.55415-.51805-3.1083-1.68365-1.55415-.77707-.25902-.25902 1.0361 0Z"/>
<use data-text="x" xlink:href="#font_1_1" transform="matrix(9.962799,0,0,-9.9626,90.80448,93.837009)"/>
<path transform="matrix(1.00002,0,0,-1,43.542535,91.692)" stroke-width=".79701" stroke-linecap="butt" stroke-miterlimit="10" stroke-linejoin="miter" fill="none" stroke="#000000" d="M0-18.14235V78.39183"/>
<path transform="matrix(0,-1,-1.00002,-0,43.542535,13.300171)" d="M1.0361 0C-.25902 .25902-1.55415 .77707-3.1083 1.68365-1.55415 .51805-1.55415-.51805-3.1083-1.68365-1.55415-.77707-.25902-.25902 1.0361 0Z"/>
<path transform="matrix(0,-1,-1.00002,-0,43.542535,13.300171)" stroke-width=".79701" stroke-linecap="butt" stroke-linejoin="round" fill="none" stroke="#000000" d="M1.0361 0C-.25902 .25902-1.55415 .77707-3.1083 1.68365-1.55415 .51805-1.55415-.51805-3.1083-1.68365-1.55415-.77707-.25902-.25902 1.0361 0Z"/>
<use data-text="y" xlink:href="#font_1_2" transform="matrix(9.962799,0,0,-9.9626,40.92148,6.2089998)"/>
<path transform="matrix(1.00002,0,0,-1,43.542535,91.692)" stroke-width=".3985" stroke-linecap="butt" stroke-miterlimit="10" stroke-linejoin="miter" fill="none" stroke="#000000" d="M18.14235 1.8142V-1.8142"/>
<path transform="matrix(1.00002,0,0,-1,43.542535,91.692)" d="M14.65538-11.42271H21.62932V-3.0097304H14.65538Z" fill="#ffffff"/>
<use data-text="2" xlink:href="#font_2_1" transform="matrix(9.962799,0,0,-9.9626,59.194849,102.118)"/>
<path transform="matrix(1.00002,0,0,-1,43.542535,91.692)" stroke-width=".3985" stroke-linecap="butt" stroke-miterlimit="10" stroke-linejoin="miter" fill="none" stroke="#000000" d="M-18.14235 1.8142V-1.8142"/>
<path transform="matrix(1.00002,0,0,-1,43.542535,91.692)" d="M-25.50374-12.25296H-10.78096V-3.0097304H-25.50374Z" fill="#ffffff"/>
<use data-text="&#x2212;" xlink:href="#font_3_1" transform="matrix(9.962799,0,0,-9.9626,19.035042,102.118)"/>
<use data-text="2" xlink:href="#font_2_1" transform="matrix(9.962799,0,0,-9.9626,26.784195,102.118)"/>
<path transform="matrix(1.00002,0,0,-1,43.542535,91.692)" stroke-width=".3985" stroke-linecap="butt" stroke-miterlimit="10" stroke-linejoin="miter" fill="none" stroke="#000000" d="M36.28473 1.8142V-1.8142"/>
<path transform="matrix(1.00002,0,0,-1,43.542535,91.692)" d="M32.79776-11.42271H39.771699V-3.0097304H32.79776Z" fill="#ffffff"/>
<use data-text="4" xlink:href="#font_2_2" transform="matrix(9.962799,0,0,-9.9626,77.337207,102.118)"/>
<path transform="matrix(1.00002,0,0,-1,43.542535,91.692)" stroke-width=".3985" stroke-linecap="butt" stroke-miterlimit="10" stroke-linejoin="miter" fill="none" stroke="#000000" d="M-36.28473 1.8142V-1.8142"/>
<path transform="matrix(1.00002,0,0,-1,43.542535,91.692)" d="M-43.64612-12.25296H-28.923338V-3.0097304H-43.64612Z" fill="#ffffff"/>
<use data-text="&#x2212;" xlink:href="#font_3_1" transform="matrix(9.962799,0,0,-9.9626,.89167788,102.118)"/>
<use data-text="4" xlink:href="#font_2_2" transform="matrix(9.962799,0,0,-9.9626,8.640831,102.118)"/>
<path transform="matrix(1.00002,0,0,-1,43.542535,91.692)" stroke-width=".3985" stroke-linecap="butt" stroke-miterlimit="10" stroke-linejoin="miter" fill="none" stroke="#000000" d="M1.8142 18.14235H-1.8142"/>
<path transform="matrix(1.00002,0,0,-1,43.542535,91.692)" d="M-9.98366 13.93585H-3.0097199V22.348832H-9.98366Z" fill="#ffffff"/>
<use data-text="2" xlink:href="#font_2_1" transform="matrix(9.962799,0,0,-9.9626,34.55535,76.76)"/>
<path transform="matrix(1.00002,0,0,-1,43.542535,91.692)" stroke-width=".3985" stroke-linecap="butt" stroke-miterlimit="10" stroke-linejoin="miter" fill="none" stroke="#000000" d="M1.8142 36.28473H-1.8142"/>
<path transform="matrix(1.00002,0,0,-1,43.542535,91.692)" d="M-9.98366 32.07823H-3.0097199V40.49121H-9.98366Z" fill="#ffffff"/>
<use data-text="4" xlink:href="#font_2_2" transform="matrix(9.962799,0,0,-9.9626,34.55535,58.617)"/>
<path transform="matrix(1.00002,0,0,-1,43.542535,91.692)" stroke-width=".3985" stroke-linecap="butt" stroke-miterlimit="10" stroke-linejoin="miter" fill="none" stroke="#000000" d="M1.8142 54.42711H-1.8142"/>
<path transform="matrix(1.00002,0,0,-1,43.542535,91.692)" d="M-9.98366 50.22061H-3.0097199V58.63359H-9.98366Z" fill="#ffffff"/>
<use data-text="6" xlink:href="#font_2_3" transform="matrix(9.962799,0,0,-9.9626,34.55535,40.475004)"/>
<path transform="matrix(1.00002,0,0,-1,43.542535,91.692)" stroke-width=".3985" stroke-linecap="butt" stroke-miterlimit="10" stroke-linejoin="miter" fill="none" stroke="#000000" d="M1.8142 72.56947H-1.8142"/>
<path transform="matrix(1.00002,0,0,-1,43.542535,91.692)" d="M-9.98366 68.36299H-3.0097199V76.77597H-9.98366Z" fill="#ffffff"/>
<use data-text="8" xlink:href="#font_2_4" transform="matrix(9.962799,0,0,-9.9626,34.55535,22.333)"/>
<path transform="matrix(1.00002,0,0,-1,43.542535,91.692)" stroke-width=".3985" stroke-linecap="butt" stroke-miterlimit="10" stroke-linejoin="miter" fill="none" stroke="#000000" d="M1.8142-18.14235H-1.8142"/>
<path transform="matrix(1.00002,0,0,-1,43.542535,91.692)" d="M-17.73251-22.76396H-3.0097295V-13.52073H-17.73251Z" fill="#ffffff"/>
<use data-text="&#x2212;" xlink:href="#font_3_1" transform="matrix(9.962799,0,0,-9.9626,26.806199,112.629)"/>
<use data-text="2" xlink:href="#font_2_1" transform="matrix(9.962799,0,0,-9.9626,34.55535,112.629)"/>
<path transform="matrix(1.00002,0,0,-1,43.542535,91.692)" stroke-width="1.19553" stroke-linecap="butt" stroke-miterlimit="10" stroke-linejoin="miter" fill="none" stroke="#ff0000" d="M-36.28473-18.14235 36.28473 54.42711"/>
<path transform="matrix(1.00002,0,0,-1,43.542535,91.692)" stroke-width="1.19553" stroke-linecap="butt" stroke-miterlimit="10" stroke-linejoin="miter" fill="none" stroke="#0000ff" d="M-25.65706 72.56879C-25.65706 72.56879-25.07784 69.32375-24.85536 68.10461-24.6329 66.88547-24.27612 64.96188-24.05365 63.78204-23.83119 62.6022-23.47443 60.74171-23.25197 59.6012-23.0295 58.46071-22.67273 56.6633-22.45026 55.56212-22.2278 54.46092-21.87102 52.72646-21.64856 51.66461-21.42609 50.60275-21.06932 48.93152-20.84686 47.90898-20.62439 46.88646-20.26762 45.27817-20.04515 44.29495-19.8227 43.31175-19.46591 41.76656-19.24345 40.82268-19.02098 39.8788-18.66422 38.3967-18.44176 37.49213-18.21928 36.58757-17.86252 35.16841-17.64005 34.30318-17.41759 33.43794-17.0608 32.082-16.83835 31.2561-16.61588 30.4302-16.2591 29.1372-16.03665 28.35063-15.81418 27.56404-15.45741 26.33415-15.23494 25.58688-15.01248 24.83963-14.6557 23.67284-14.43324 22.96489-14.21077 22.25694-13.85399 21.15312-13.63155 20.48448-13.40907 19.81584-13.0523 18.77512-12.82983 18.14581-12.60738 17.51651-12.2506 16.53886-12.02814 15.94888-11.80566 15.35892-11.4489 14.44434-11.22644 13.8937-11.00397 13.34306-10.6472 12.49158-10.42473 11.98024-10.20227 11.46892-9.84549 10.6804-9.62303 10.20839-9.40056 9.73637-9.0438 9.01096-8.82133 8.57828-8.59888 8.1456-8.2421 7.48325-8.01962 7.08989-7.79716 6.69653-7.44038 6.09729-7.21793 5.74326-6.99545 5.3892-6.63869 4.85292-6.41621 4.53821-6.19377 4.2235-5.83699 3.75041-5.61452 3.47504-5.39206 3.19966-5.03528 2.78952-4.81282 2.55347-4.59035 2.31741-4.2336 1.97038-4.01112 1.77364-3.78867 1.57689-3.43188 1.29282-3.20941 1.13539-2.98695 .97798-2.63017 .75713-2.40771 .63905-2.18524 .52097-1.82849 .36307-1.60602 .28429-1.38356 .2055-1.02678 .1107-.80432 .07127-.58185 .03183-.22507 .0001-.00261 0 .21983-.0001 .57658 .03113 .79906 .0703 1.02151 .10948 1.3783 .20384 1.60075 .28235 1.82321 .36086 2.18 .51831 2.40245 .63614 2.62492 .75398 2.98169 .9745 3.20416 1.13165 3.42662 1.28883 3.7834 1.57245 4.00586 1.76892 4.22832 1.96541 4.5851 2.31198 4.80756 2.5478 5.03003 2.78362 5.3868 3.19337 5.60927 3.46854 5.83173 3.74368 6.1885 4.21643 6.41096 4.53087 6.63342 4.8453 6.99022 5.38104 7.21266 5.7348 7.43513 6.08858 7.7919 6.68753 8.01437 7.08061 8.23683 7.47372 8.59361 8.13562 8.81607 8.56802 9.03854 9.00044 9.3953 9.72545 9.61777 10.19717 9.84024 10.66893 10.197 11.457 10.41948 11.96806 10.64194 12.47914 10.99872 13.33028 11.22118 13.88069 11.44365 14.43109 11.8004 15.34532 12.02287 15.93506 12.24533 16.52477 12.60211 17.50197 12.82458 18.131 13.04704 18.76004 13.40382 19.80034 13.62628 20.46869 13.84875 21.13707 14.2055 22.24046 14.42798 22.94814 14.65044 23.65582 15.00722 24.82216 15.22969 25.56917 15.45215 26.31618 15.80893 27.54573 16.03139 28.33208 16.25386 29.11842 16.61061 30.41093 16.83308 31.23657 17.05554 32.06224 17.41232 33.41786 17.6348 34.28282 17.85725 35.14778 18.21404 36.56638 18.4365 37.47067 18.65897 38.37497 19.01572 39.85677 19.23819 40.80038 19.46065 41.74402 19.81743 43.28877 20.03989 44.27171 20.26236 45.25465 20.61913 46.86249 20.84158 47.88477 21.06406 48.90704 21.42082 50.57794 21.6433 51.63956 21.86575 52.70116 22.22253 54.43518 22.44499 55.53609 22.66747 56.637 23.02423 58.43398 23.24669 59.57422 23.46916 60.71445 23.82593 62.57452 24.0484 63.75407 24.27086 64.93364 24.62764 66.85678 24.8501 68.07568 25.07257 69.29457 25.6518 72.53903 25.6518 72.53903"/>
<path transform="matrix(1.00002,0,0,-1,43.542535,91.692)" d="M19.04951 36.28473C19.04951 36.78574 18.64337 37.1919 18.14235 37.1919 17.64134 37.1919 17.23518 36.78574 17.23518 36.28473 17.23518 35.78372 17.64134 35.37756 18.14235 35.37756 18.64337 35.37756 19.04951 35.78372 19.04951 36.28473ZM18.14235 36.28473"/>
<path transform="matrix(1.00002,0,0,-1,43.542535,91.692)" stroke-width=".3985" stroke-linecap="butt" stroke-miterlimit="10" stroke-linejoin="miter" fill="none" stroke="#000000" d="M19.04951 36.28473C19.04951 36.78574 18.64337 37.1919 18.14235 37.1919 17.64134 37.1919 17.23518 36.78574 17.23518 36.28473 17.23518 35.78372 17.64134 35.37756 18.14235 35.37756 18.64337 35.37756 19.04951 35.78372 19.04951 36.28473ZM18.14235 36.28473"/>
<path transform="matrix(1.00002,0,0,-1,43.542535,91.692)" d="M-8.164 9.07117C-8.164 9.57217-8.57016 9.97833-9.07117 9.97833-9.57217 9.97833-9.97833 9.57217-9.97833 9.07117-9.97833 8.57016-9.57217 8.164-9.07117 8.164-8.57016 8.164-8.164 8.57016-8.164 9.07117ZM-9.07117 9.07117"/>
<path transform="matrix(1.00002,0,0,-1,43.542535,91.692)" stroke-width=".3985" stroke-linecap="butt" stroke-miterlimit="10" stroke-linejoin="miter" fill="none" stroke="#000000" d="M-8.164 9.07117C-8.164 9.57217-8.57016 9.97833-9.07117 9.97833-9.57217 9.97833-9.97833 9.57217-9.97833 9.07117-9.97833 8.57016-9.57217 8.164-9.07117 8.164-8.57016 8.164-8.164 8.57016-8.164 9.07117ZM-9.07117 9.07117"/>
</svg>
