<svg xmlns="http://www.w3.org/2000/svg" xmlns:xlink="http://www.w3.org/1999/xlink" version="1.1" width="194pt" height="89pt" viewBox="0 0 194 89">
<defs>
<path id="font_1_28" d="M.48298646 .08912659V.14511109H.45799256V.08912659C.45799256 .03112793 .43299867 .025131226 .42199708 .025131226 .3889923 .025131226 .3849945 .070129398 .3849945 .07511902V.27508546C.3849945 .31707765 .3849945 .3560791 .34899903 .39312745 .30999757 .43223573 .2599945 .4482422 .21199036 .4482422 .12998963 .4482422 .06098938 .40115357 .06098938 .335083 .06098938 .30508424 .08099365 .28808595 .10699463 .28808595 .1349945 .28808595 .15299988 .30807496 .15299988 .33407594 .15299988 .3460846 .147995 .37908937 .101989749 .38008119 .1289978 .41519166 .17799378 .426239 .20999146 .426239 .25898744 .426239 .31599427 .38710023 .31599427 .29808045V.26107789C.2649994 .25808717 .19499207 .25508119 .13198853 .22509766 .056991579 .19110108 .03199768 .13911438 .03199768 .09512329 .03199768 .014251709 .1289978-.0107421879 .19198609-.0107421879 .2579956-.0107421879 .3039856 .029251099 .32299806 .07624817 .32699586 .036132814 .35398866-.005859375 .40098573-.005859375 .42199708-.005859375 .48298646 .008132935 .48298646 .08912659M.31599427 .14013672C.31599427 .04525757 .24398804 .011245728 .19898987 .011245728 .1499939 .011245728 .10899353 .04624939 .10899353 .09625244 .10899353 .15124512 .15098572 .23425293 .31599427 .24024964V.14013672Z"/>
<path id="font_1_88" d="M.19198609 .052993776C.19198609 .08198547 .16799927 .10598755 .13899231 .10598755 .10998535 .10598755 .085998538 .08198547 .085998538 .052993776 .085998538 .023986817 .10998535 0 .13899231 0 .16799927 0 .19198609 .023986817 .19198609 .052993776Z"/>
<path id="font_1_35" d="M.5209961 .2163086C.5209961 .34335328 .4229889 .4423828 .30899049 .4423828 .23098755 .4423828 .18798828 .39537049 .17199707 .3773651V.69433596L.027999878 .68333438V.6523285C.09799194 .6523285 .10598755 .6453247 .10598755 .596344V.00024414063H.1309967L.16699219 .06227112C.18199158 .039260866 .22399903-.0107421879 .2979889-.0107421879 .4169922-.0107421879 .5209961 .08728027 .5209961 .2163086M.43798829 .21731568C.43798829 .18029785 .43598939 .120285037 .40699769 .07527161 .38598634 .044265748 .34799195 .011245728 .2939911 .011245728 .24899292 .011260986 .21299744 .03526306 .18899536 .072265628 .1749878 .09326172 .1749878 .09625244 .1749878 .11425781V.32034303C.1749878 .3393402 .1749878 .3403473 .18598938 .35635377 .22499085 .41236878 .27999879 .42037965 .3039856 .42037965 .34899903 .42037965 .3849945 .3943634 .40899659 .35635377 .43499757 .31533814 .43798829 .25831605 .43798829 .21730042V.21731568Z"/>
</defs>
<path transform="matrix(1,0,0,-1.00008,157.797,36.0096)" stroke-width=".79701" stroke-linecap="butt" stroke-miterlimit="10" stroke-linejoin="miter" fill="none" stroke="#000000" d="M-156.50368-34.02261H-86.5043"/>
<path transform="matrix(1,0,0,-1.00008,71.292697,70.03493)" d="M1.0361 0C-.25902 .25902-1.55415 .77707-3.1083 1.68365-1.55415 .51805-1.55415-.51805-3.1083-1.68365-1.55415-.77707-.25902-.25902 1.0361 0Z"/>
<path transform="matrix(1,0,0,-1.00008,71.292697,70.03493)" stroke-width=".79701" stroke-linecap="butt" stroke-linejoin="round" fill="none" stroke="#000000" d="M1.0361 0C-.25902 .25902-1.55415 .77707-3.1083 1.68365-1.55415 .51805-1.55415-.51805-3.1083-1.68365-1.55415-.77707-.25902-.25902 1.0361 0Z"/>
<path transform="matrix(1,0,0,-1.00008,157.797,36.0096)" stroke-width=".79701" stroke-linecap="butt" stroke-miterlimit="10" stroke-linejoin="miter" fill="none" stroke="#000000" d="M-153.10186-37.42444V32.57492"/>
<path transform="matrix(0,-1.00008,-1,-0,4.6951448,3.4320756)" d="M1.0361 0C-.25902 .25902-1.55415 .77707-3.1083 1.68365-1.55415 .51805-1.55415-.51805-3.1083-1.68365-1.55415-.77707-.25902-.25902 1.0361 0Z"/>
<path transform="matrix(0,-1.00008,-1,-0,4.6951448,3.4320756)" stroke-width=".79701" stroke-linecap="butt" stroke-linejoin="round" fill="none" stroke="#000000" d="M1.0361 0C-.25902 .25902-1.55415 .77707-3.1083 1.68365-1.55415 .51805-1.55415-.51805-3.1083-1.68365-1.55415-.77707-.25902-.25902 1.0361 0Z"/>
<path transform="matrix(1,0,0,-1.00008,157.797,36.0096)" stroke-width=".3985" stroke-linecap="butt" stroke-dasharray="2.98883,2.98883" stroke-miterlimit="10" stroke-linejoin="miter" fill="none" stroke="#0000ff" d="M-136.09383-34.02261V12.0197"/>
<path transform="matrix(1,0,0,-1.00008,157.797,36.0096)" stroke-width=".3985" stroke-linecap="butt" stroke-dasharray="2.98883,2.98883" stroke-miterlimit="10" stroke-linejoin="miter" fill="none" stroke="#0000ff" d="M-119.08577-34.02261V-.00653"/>
<path transform="matrix(1,0,0,-1.00008,157.797,36.0096)" stroke-width=".3985" stroke-linecap="butt" stroke-dasharray="2.98883,2.98883" stroke-miterlimit="10" stroke-linejoin="miter" fill="none" stroke="#0000ff" d="M-102.07773-34.02261V-12.03279"/>
<path transform="matrix(1,0,0,-1.00008,157.797,36.0096)" stroke-width="1.19553" stroke-linecap="butt" stroke-miterlimit="10" stroke-linejoin="miter" fill="none" stroke="#ff0000" d="M-153.07236 17.00801C-153.07236 17.00801-151.02443 16.94206-150.23786 16.86165-149.45131 16.78122-148.18991 16.58768-147.40337 16.42824-146.61679 16.2688-145.35541 15.9482-144.56887 15.71248-143.78232 15.47678-142.5209 15.03734-141.73435 14.7294-140.9478 14.42148-139.68642 13.86803-138.89986 13.49306-138.11331 13.11809-136.8519 12.4623-136.06534 12.02675-135.2788 11.5912-134.01741 10.84256-133.23087 10.35388-132.44429 9.86517-131.1829 9.03802-130.39636 8.50453-129.60982 7.97102-128.3484 7.07787-127.56184 6.50879-126.7753 5.93973-125.51392 4.99794-124.72736 4.40303-123.94081 3.8081-122.6794 2.83167-121.89284 2.22098-121.1063 1.61028-119.84491 .61742-119.05836 .00153-118.27179-.61432-117.01039-1.60718-116.22385-2.21785-115.4373-2.82854-114.1759-3.80492-113.38934-4.3999-112.6028-4.99489-111.34142-5.93706-110.55486-6.5062-109.76831-7.07535-108.5069-7.96841-107.72035-8.5019-106.93379-9.03542-105.67241-9.86252-104.88586-10.35127-104.09929-10.84006-102.83789-11.58907-102.05135-12.02467-101.2648-12.46028-100.0034-13.11592-99.21684-13.49097-98.4303-13.86603-97.1689-14.41985-96.38234-14.72784-95.59578-15.03586-94.3344-15.47516-93.54785-15.71094-92.76129-15.9467-91.4999-16.26761-90.71333-16.4272-89.92677-16.58678-88.66539-16.78062-87.87885-16.86113-87.0923-16.94164-85.04434-17.0075-85.04434-17.0075"/>
<use data-text="a" xlink:href="#font_1_28" transform="matrix(9.9626,0,0,-9.963397,34.86499,85.812587)"/>
<use data-text="." xlink:href="#font_1_88" transform="matrix(9.9626,0,0,-9.963397,39.846284,85.812587)"/>
<path transform="matrix(1,0,0,-1.00008,157.797,36.0096)" stroke-width=".3985" stroke-linecap="butt" stroke-miterlimit="10" stroke-linejoin="miter" fill="none" stroke="#00ff00" d="M0 0H34.01608"/>
<path transform="matrix(1,0,0,-1.00008,157.797,36.0096)" stroke-width=".3985" stroke-linecap="butt" stroke-miterlimit="10" stroke-linejoin="miter" fill="none" stroke="#00ff00" d="M0 0 29.45885 17.00801"/>
<path transform="matrix(1,0,0,-1.00008,157.797,36.0096)" stroke-width=".3985" stroke-linecap="butt" stroke-miterlimit="10" stroke-linejoin="miter" fill="none" stroke="#00ff00" d="M0 0 17.00801 29.45885"/>
<path transform="matrix(1,0,0,-1.00008,157.797,36.0096)" stroke-width=".3985" stroke-linecap="butt" stroke-miterlimit="10" stroke-linejoin="miter" fill="none" stroke="#00ff00" d="M0 0V34.01608"/>
<path transform="matrix(1,0,0,-1.00008,157.797,36.0096)" stroke-width=".3985" stroke-linecap="butt" stroke-miterlimit="10" stroke-linejoin="miter" fill="none" stroke="#00ff00" d="M0 0-17.00801 29.45885"/>
<path transform="matrix(1,0,0,-1.00008,157.797,36.0096)" stroke-width=".3985" stroke-linecap="butt" stroke-miterlimit="10" stroke-linejoin="miter" fill="none" stroke="#00ff00" d="M0 0-29.45885 17.00801"/>
<path transform="matrix(1,0,0,-1.00008,157.797,36.0096)" stroke-width=".3985" stroke-linecap="butt" stroke-miterlimit="10" stroke-linejoin="miter" fill="none" stroke="#00ff00" d="M0 0H-34.01608"/>
<path transform="matrix(1,0,0,-1.00008,157.797,36.0096)" stroke-width=".3985" stroke-linecap="butt" stroke-miterlimit="10" stroke-linejoin="miter" fill="none" stroke="#00ff00" d="M0 0-29.45885-17.00801"/>
<path transform="matrix(1,0,0,-1.00008,157.797,36.0096)" stroke-width=".3985" stroke-linecap="butt" stroke-miterlimit="10" stroke-linejoin="miter" fill="none" stroke="#00ff00" d="M0 0-17.00801-29.45885"/>
<path transform="matrix(1,0,0,-1.00008,157.797,36.0096)" stroke-width=".3985" stroke-linecap="butt" stroke-miterlimit="10" stroke-linejoin="miter" fill="none" stroke="#00ff00" d="M0 0V-34.01608"/>
<path transform="matrix(1,0,0,-1.00008,157.797,36.0096)" stroke-width=".3985" stroke-linecap="butt" stroke-miterlimit="10" stroke-linejoin="miter" fill="none" stroke="#00ff00" d="M0 0 17.00801-29.45885"/>
<path transform="matrix(1,0,0,-1.00008,157.797,36.0096)" stroke-width=".3985" stroke-linecap="butt" stroke-miterlimit="10" stroke-linejoin="miter" fill="none" stroke="#00ff00" d="M0 0 29.45885-17.00801"/>
<path transform="matrix(1,0,0,-1.00008,157.797,36.0096)" stroke-width=".3985" stroke-linecap="butt" stroke-miterlimit="10" stroke-linejoin="miter" fill="none" stroke="#00ff00" d="M8.504 0C8.504 4.69667 4.69667 8.504 0 8.504-4.69667 8.504-8.504 4.69667-8.504 0-8.504-4.69667-4.69667-8.504 0-8.504 4.69667-8.504 8.504-4.69667 8.504 0ZM0 0"/>
<path transform="matrix(1,0,0,-1.00008,157.797,36.0096)" stroke-width=".3985" stroke-linecap="butt" stroke-miterlimit="10" stroke-linejoin="miter" fill="none" stroke="#00ff00" d="M17.00801 0C17.00801 9.39337 9.39337 17.00801 0 17.00801-9.39337 17.00801-17.00801 9.39337-17.00801 0-17.00801-9.39337-9.39337-17.00801 0-17.00801 9.39337-17.00801 17.00801-9.39337 17.00801 0ZM0 0"/>
<path transform="matrix(1,0,0,-1.00008,157.797,36.0096)" stroke-width=".3985" stroke-linecap="butt" stroke-miterlimit="10" stroke-linejoin="miter" fill="none" stroke="#00ff00" d="M25.51204 0C25.51204 14.09009 14.09009 25.51204 0 25.51204-14.09009 25.51204-25.51204 14.09009-25.51204 0-25.51204-14.09009-14.09009-25.51204 0-25.51204 14.09009-25.51204 25.51204-14.09009 25.51204 0ZM0 0"/>
<path transform="matrix(1,0,0,-1.00008,157.797,36.0096)" stroke-width=".3985" stroke-linecap="butt" stroke-miterlimit="10" stroke-linejoin="miter" fill="none" stroke="#00ff00" d="M34.01608 0C34.01608 18.78679 18.78679 34.01608 0 34.01608-18.78679 34.01608-34.01608 18.78679-34.01608 0-34.01608-18.78679-18.78679-34.01608 0-34.01608 18.78679-34.01608 34.01608-18.78679 34.01608 0ZM0 0"/>
<path transform="matrix(1,0,0,-1.00008,157.797,36.0096)" stroke-width="1.19553" stroke-linecap="butt" stroke-miterlimit="10" stroke-linejoin="miter" fill="none" stroke="#ff0000" d="M34.01608 0C34.01608 0 33.8165 3.21965 33.57799 4.42015 33.33946 5.62067 32.76169 7.52873 32.297 8.65244 31.83228 9.77617 30.89618 11.51825 30.22859 12.51932 29.56102 13.52042 28.32228 15.02884 27.48544 15.86766 26.64862 16.70651 25.16225 17.91838 24.1973 18.56516 23.23236 19.2119 21.57695 20.09352 20.53078 20.5292 19.48459 20.96489 17.73573 21.48839 16.65715 21.70537 15.57857 21.92233 13.8195 22.09044 12.75705 22.09311 11.6946 22.09576 10.00064 21.92052 8.99968 21.72458 7.99875 21.52863 6.44313 21.05008 5.54285 20.68079 4.64256 20.3115 3.27995 19.57234 2.51111 19.06291 1.74228 18.55348 .61755 17.61954 .00153 17.00906-.61446 16.39857-1.47598 15.33322-1.92874 14.66298-2.3815 13.99275-2.97195 12.86662-3.26166 12.17831-3.55138 11.48997-3.87952 10.36952-4.01686 9.70193-4.15417 9.03438-4.24672 7.98013-4.25146 7.36676-4.25621 6.75342-4.15222 5.81445-4.0511 5.28125-3.95001 4.74805-3.69778 3.95944-3.52274 3.52376-3.34767 3.08807-3.00415 2.47173-2.78932 2.14104-2.57451 1.81033-2.19522 1.36852-1.97443 1.1403-1.75363 .9121-1.39407 .63358-1.19792 .49617-1.00175 .35878-.70657 .21622-.56053 .14998-.41449 .08374-.22307 .03946-.14531 .01866-.06754-.0021 0 0 0 0"/>
<path transform="matrix(1,0,0,-1.00008,157.797,36.0096)" stroke-width=".3985" stroke-linecap="butt" stroke-dasharray="2.98883,2.98883" stroke-miterlimit="10" stroke-linejoin="miter" fill="none" stroke="#0000ff" d="M0 0 29.38464 13.70222"/>
<path transform="matrix(1,0,0,-1.00008,157.797,36.0096)" stroke-width=".3985" stroke-linecap="butt" stroke-dasharray="2.98883,2.98883" stroke-miterlimit="10" stroke-linejoin="miter" fill="none" stroke="#0000ff" d="M0 0 17.95995 21.40329"/>
<path transform="matrix(1,0,0,-1.00008,157.797,36.0096)" stroke-width=".3985" stroke-linecap="butt" stroke-dasharray="2.98883,2.98883" stroke-miterlimit="10" stroke-linejoin="miter" fill="none" stroke="#0000ff" d="M0 0 5.54129 20.68025"/>
<path transform="matrix(1,0,0,-1.00008,157.797,36.0096)" stroke-width=".3985" stroke-linecap="butt" stroke-dasharray="2.98883,2.98883" stroke-miterlimit="10" stroke-linejoin="miter" fill="none" stroke="#0000ff" d="M0 0-2.44 13.8408"/>
<use data-text="b" xlink:href="#font_1_35" transform="matrix(9.9626,0,0,-9.963397,153.643,87.03869)"/>
<use data-text="." xlink:href="#font_1_88" transform="matrix(9.9626,0,0,-9.963397,159.18219,87.03869)"/>
</svg>
