<svg xmlns="http://www.w3.org/2000/svg" xmlns:xlink="http://www.w3.org/1999/xlink" version="1.1" width="145" height="99" viewBox="0 0 145 99">
<defs>
<path id="font_1_2" d="M.33399964 .30233766C.33999635 .32835389 .36299134 .42037965 .43299867 .42037965 .43798829 .42037965 .46199037 .42037965 .48298646 .40734864 .45498658 .402359 .43499757 .37734986 .43499757 .35334779 .43499757 .33735658 .44599916 .31835938 .47299195 .31835938 .49499513 .31835938 .5269928 .3363495 .5269928 .37635804 .5269928 .42837525 .46798707 .4423828 .43399049 .4423828 .37599183 .4423828 .34098817 .38935853 .32899476 .36634828 .3039856 .43237306 .25 .4423828 .22099304 .4423828 .116989139 .4423828 .05999756 .3133545 .05999756 .28834535 .05999756 .27833558 .069992069 .27833558 .07199097 .27833558 .07998657 .27833558 .08299255 .28033448 .084991458 .28933717 .11898804 .39535523 .18499756 .42037965 .21899414 .42037965 .23799134 .42037965 .272995 .4113617 .272995 .35334779 .272995 .32235719 .2559967 .25532533 .21899414 .11528015 .20298767 .053268434 .16799927 .011245728 .12399292 .011245728 .117996219 .011245728 .09498596 .011245728 .07398987 .024276734 .09899902 .029266358 .12098694 .05027771 .12098694 .07827759 .12098694 .105270389 .09899902 .11328125 .083999637 .11328125 .053985597 .11328125 .0289917 .08728027 .0289917 .055267335 .0289917 .009246826 .07899475-.0107421879 .12298584-.0107421879 .18899536-.0107421879 .22499085 .059280397 .22799683 .0652771 .23999024 .028274537 .27598573-.0107421879 .33599855-.0107421879 .43899537-.0107421879 .49598695 .118270877 .49598695 .14328003 .49598695 .1532898 .4869995 .1532898 .48399354 .1532898 .47499085 .1532898 .47299195 .14929199 .47099305 .14228821 .43798829 .03527832 .36999513 .011245728 .33799745 .011245728 .29899598 .011245728 .2829895 .043273927 .2829895 .07727051 .2829895 .09927368 .2889862 .121276859 .2999878 .16529846L.33399964 .30233766Z"/>
<path id="font_1_3" d="M.48599244 .38136292C.48999024 .39537049 .48999024 .39736939 .48999024 .40437318 .48999024 .42237855 .47599793 .43138124 .46099855 .43138124 .45098878 .43138124 .43499757 .42536927 .42599488 .41036988 .42399598 .405365 .41600038 .37435914 .4119873 .35635377 .40499879 .33035279 .397995 .30334474 .3919983 .27633668L.34700013 .09628296C.34298707 .08126831 .2999878 .011245728 .23399353 .011245728 .18299866 .011245728 .17199707 .055267335 .17199707 .0922699 .17199707 .1382904 .18899536 .20030213 .22299195 .28833009 .23899842 .3293457 .24299622 .3403473 .24299622 .36035157 .24299622 .405365 .21099854 .4423828 .16099549 .4423828 .06599426 .4423828 .0289917 .29733277 .0289917 .28833009 .0289917 .27833558 .038986207 .27833558 .040985109 .27833558 .050994874 .27833558 .051986696 .28033448 .056991579 .29634095 .083999637 .3903656 .12399292 .42037965 .1579895 .42037965 .1659851 .42037965 .18299866 .42037965 .18299866 .3883667 .18299866 .36335755 .17298889 .3373413 .1659851 .31834413 .12599182 .21231079 .10798645 .1552887 .10798645 .10827637 .10798645 .019256592 .17098999-.0107421879 .22999573-.0107421879 .2689972-.0107421879 .30299378 .0062561037 .33099366 .03425598 .31799317-.017745972 .30599977-.06674194 .2659912-.11973572 .23999024-.15385437 .20199585-.18309021 .1559906-.18309021 .14199829-.18309021 .09700012-.18005371 .07998657-.14074707 .09599304-.14074707 .10899353-.14074707 .12298584-.1287384 .1329956-.11973572 .14299011-.10673523 .14299011-.08773804 .14299011-.056747438 .115997318-.052734376 .10598755-.052734376 .08299255-.052734376 .049987794-.068740848 .049987794-.11773682 .049987794-.16796875 .09399414-.20507813 .1559906-.20507813 .25898744-.20507813 .3619995-.11373901 .3899994-.00074768069L.48599244 .38136292Z"/>
<path id="font_2_64" d="M.27598573 .18710327V.24511719H.010986328V.18710327H.27598573Z"/>
<path id="font_2_106" d="M.45700074 .17037964C.45700074 .252594 .3939972 .33088685 .2899933 .35191346 .37199403 .37893678 .42999269 .4490509 .42999269 .52809146 .42999269 .6100464 .34199525 .6660156 .24598694 .6660156 .14498902 .6660156 .068984989 .60606387 .068984989 .53009036 .068984989 .49710084 .09098816 .47808839 .11999512 .47808839 .15098572 .47808839 .17098999 .50009158 .17098999 .5290985 .17098999 .57910159 .12399292 .57910159 .10899353 .57910159 .13999939 .62802127 .20599365 .64100649 .24198914 .64100649 .2829895 .64100649 .33799745 .6190338 .33799745 .5290985 .33799745 .51708987 .33599855 .45906068 .30999757 .4149933 .27999879 .36691285 .24598694 .36390687 .22099304 .36291505 .21299744 .36190797 .18899536 .35990907 .18199158 .35990907 .17399597 .35890199 .16699219 .35791017 .16699219 .3479004 .16699219 .33691407 .17399597 .33691407 .19099427 .33691407H.23498535C.31698609 .33691407 .35398866 .2686615 .35398866 .17037964 .35398866 .034469606 .2849884 .0055389406 .24099732 .0055389406 .19799805 .0055389406 .12298584 .022491456 .08799744 .08137512 .12298584 .07637024 .1539917 .09837341 .1539917 .1363678 .1539917 .17237854 .1269989 .19238281 .09799194 .19238281 .07398987 .19238281 .041992189 .17837525 .041992189 .1343689 .041992189 .043441774 .1349945-.022460938 .24398804-.022460938 .3659973-.022460938 .45700074 .06838989 .45700074 .17037964Z"/>
<path id="font_1_1" d="M.2649994 .37265016H.37799073C.34498597 .22489929 .33599855 .18196106 .33599855 .11508179 .33599855 .100097659 .33599855 .073150638 .34399415 .03919983 .35398866-.0047454836 .36499024-.0107421879 .37998963-.0107421879 .3999939-.0107421879 .42099 .007247925 .42099 .02722168 .42099 .033218385 .42099 .035202028 .4149933 .049179079 .38598634 .12106323 .38598634 .18595886 .38598634 .21391297 .38598634 .26683045 .3929901 .32073976 .4039917 .37265016H.5179901C.5309906 .37265016 .5669861 .37265016 .5669861 .406662 .5669861 .43066407 .54599 .43066407 .5269928 .43066407H.19198609C.16999817 .43066407 .13198853 .43066407 .08799744 .38365174 .052993776 .34469605 .026992798 .29878236 .026992798 .29379273 .026992798 .29278565 .026992798 .28379823 .038986207 .28379823 .04699707 .28379823 .04899597 .28779603 .054992677 .29577638 .10398865 .37265016 .1619873 .37265016 .18199158 .37265016H.23899842C.20698548 .25186158 .15299988 .13105774 .11099243 .04020691 .102996829 .025222779 .102996829 .023223877 .102996829 .016235352 .102996829-.002746582 .11898804-.0107421879 .13198853-.0107421879 .1619873-.0107421879 .16999817 .017242432 .18199158 .05418396 .19599915 .100097659 .19599915 .10209656 .20899964 .15202332L.2649994 .37265016Z"/>
<path id="font_3_3" d="M.1269989 .07699585 .23298645 .18003845C.3889923 .31811524 .44898988 .3721466 .44898988 .47216798 .44898988 .5860901 .35899354 .6660156 .23699951 .6660156 .12399292 .6660156 .049987794 .57411196 .049987794 .48516847 .049987794 .4291687 .099990848 .4291687 .102996829 .4291687 .11999512 .4291687 .15499878 .44117738 .15499878 .48217774 .15499878 .5081787 .13699341 .5341797 .101989749 .5341797 .09399414 .5341797 .09199524 .5341797 .08898926 .5331726 .11199951 .59806826 .1659851 .63500979 .22399903 .63500979 .31498719 .63500979 .35798646 .5541382 .35798646 .47216798 .35798646 .39215089 .30799867 .31311036 .25299073 .25108338L.06098938 .036987306C.049987794 .025985718 .049987794 .023986817 .049987794 0H.42099L.44898988 .17404175H.42399598C.4189911 .14402771 .4119873 .1000061 .4019928 .084991458 .394989 .07699585 .32899476 .07699585 .30699159 .07699585H.1269989Z"/>
<path id="font_2_35" d="M.5209961 .2163086C.5209961 .34335328 .4229889 .4423828 .30899049 .4423828 .23098755 .4423828 .18798828 .39537049 .17199707 .3773651V.69433596L.027999878 .68333438V.6523285C.09799194 .6523285 .10598755 .6453247 .10598755 .596344V.00024414063H.1309967L.16699219 .06227112C.18199158 .039260866 .22399903-.0107421879 .2979889-.0107421879 .4169922-.0107421879 .5209961 .08728027 .5209961 .2163086M.43798829 .21731568C.43798829 .18029785 .43598939 .120285037 .40699769 .07527161 .38598634 .044265748 .34799195 .011245728 .2939911 .011245728 .24899292 .011260986 .21299744 .03526306 .18899536 .072265628 .1749878 .09326172 .1749878 .09625244 .1749878 .11425781V.32034303C.1749878 .3393402 .1749878 .3403473 .18598938 .35635377 .22499085 .41236878 .27999879 .42037965 .3039856 .42037965 .34899903 .42037965 .3849945 .3943634 .40899659 .35635377 .43499757 .31533814 .43798829 .25831605 .43798829 .21730042V.21731568Z"/>
<path id="font_2_88" d="M.19198609 .052993776C.19198609 .08198547 .16799927 .10598755 .13899231 .10598755 .10998535 .10598755 .085998538 .08198547 .085998538 .052993776 .085998538 .023986817 .10998535 0 .13899231 0 .16799927 0 .19198609 .023986817 .19198609 .052993776Z"/>
<path id="font_3_5" d="M.68699648 .32714845C.70199587 .32714845 .72099307 .32714845 .72099307 .34713746 .72099307 .36714173 .70199587 .36714173 .6879883 .36714173H.08898926C.07499695 .36714173 .055999757 .36714173 .055999757 .34713746 .055999757 .32714845 .07499695 .32714845 .08999634 .32714845H.68699648M.6879883 .13284302C.70199587 .13284302 .72099307 .13284302 .72099307 .15284729 .72099307 .17285156 .70199587 .17285156 .68699648 .17285156H.08999634C.07499695 .17285156 .055999757 .17285156 .055999757 .15284729 .055999757 .13284302 .07499695 .13284302 .08898926 .13284302H.6879883Z"/>
<path id="font_4_1" d="M.6589966 .23046875C.6759949 .23046875 .69400027 .23046875 .69400027 .25045777 .69400027 .27046205 .6759949 .27046205 .6589966 .27046205H.117996219C.100997928 .27046205 .08299255 .27046205 .08299255 .25045777 .08299255 .23046875 .100997928 .23046875 .117996219 .23046875H.6589966Z"/>
<path id="font_3_4" d="M.2899933 .35191346C.37199403 .37893678 .42999269 .4490509 .42999269 .52809146 .42999269 .6100464 .34199525 .6660156 .24598694 .6660156 .14498902 .6660156 .068984989 .60606387 .068984989 .53009036 .068984989 .49710084 .09098816 .47808839 .11999512 .47808839 .15098572 .47808839 .17098999 .50009158 .17098999 .5290985 .17098999 .57910159 .12399292 .57910159 .10899353 .57910159 .13999939 .62802127 .20599365 .64100649 .24198914 .64100649 .2829895 .64100649 .33799745 .6190338 .33799745 .5290985 .33799745 .51708987 .33599855 .45906068 .30999757 .4149933 .27999879 .36691285 .24598694 .36390687 .22099304 .36291505 .21299744 .36190797 .18899536 .35990907 .18199158 .35990907 .17399597 .35890199 .16699219 .35791017 .16699219 .3479004 .16699219 .33691407 .17399597 .33691407 .19099427 .33691407H.23498535C.31698609 .33691407 .35398866 .2686615 .35398866 .17037964 .35398866 .034469606 .2849884 .0055389406 .24099732 .0055389406 .19799805 .0055389406 .12298584 .022491456 .08799744 .08137512 .12298584 .07637024 .1539917 .09837341 .1539917 .1363678 .1539917 .17237854 .1269989 .19238281 .09799194 .19238281 .07398987 .19238281 .041992189 .17837525 .041992189 .1343689 .041992189 .043441774 .1349945-.022460938 .24398804-.022460938 .3659973-.022460938 .45700074 .06838989 .45700074 .17037964 .45700074 .252594 .3939972 .33088685 .2899933 .35191346Z"/>
<path id="font_3_8" d="M.20799256 .19424439C.22999573 .19024658 .31199647 .17424011 .31199647 .102249149 .31199647 .051254274 .2769928 .011245728 .19898987 .011245728 .114990238 .011245728 .07899475 .06825256 .05999756 .15324402 .056991579 .1662445 .055999757 .17024231 .04598999 .17024231 .032989503 .17024231 .032989503 .16323853 .032989503 .14524842V.013244629C.032989503-.003753662 .032989503-.0107421879 .04399109-.0107421879 .04899597-.0107421879 .049987794-.009750366 .068984989 .009246826 .070999149 .011245728 .070999149 .013244629 .08898926 .03224182 .1329956-.009750366 .17799378-.0107421879 .19898987-.0107421879 .31399537-.0107421879 .3600006 .056243898 .3600006 .12825012 .3600006 .1812439 .32998658 .21124268 .31799317 .22323609 .2849884 .25523377 .24598694 .26324464 .20399475 .27124024 .147995 .28224183 .08099365 .2952423 .08099365 .35324098 .08099365 .38822938 .10699463 .42922975 .19299317 .42922975 .30299378 .42922975 .30799867 .3392334 .30999757 .3082428 .31098939 .2992401 .31999208 .2992401 .32199098 .2992401 .33499146 .2992401 .33499146 .304245 .33499146 .3232422V.4242401C.33499146 .4412384 .33499146 .4482422 .32398988 .4482422 .31900025 .4482422 .31698609 .4482422 .3039856 .43623353 .30099488 .43223573 .29100038 .42323304 .2869873 .42022706 .24899292 .4482422 .20799256 .4482422 .19299317 .4482422 .070999149 .4482422 .032989503 .38124085 .032989503 .3252411 .032989503 .29023744 .04899597 .26223756 .07598877 .24023438 .10798645 .21424866 .13598633 .2082367 .20799256 .19424439Z"/>
<path id="font_3_6" d="M.1769867 .4423828 .036987306 .43138124V.40037538C.101989749 .40037538 .11099243 .3943634 .11099243 .34532167V.076034549C.11099243 .0309906 .099990848 .0309906 .032989503 .0309906V0C.06498718 .0009918213 .11898804 .0029907227 .14299011 .0029907227 .17799378 .0029907227 .21299744 .0009918213 .24699402 0V.0309906C.18099976 .0309906 .1769867 .035995485 .1769867 .075042728V.4423828M.18099976 .6159363C.18099976 .64793398 .1559906 .6689453 .12799073 .6689453 .09700012 .6689453 .07499695 .64193728 .07499695 .6159363 .07499695 .5889435 .09700012 .5629425 .12799073 .5629425 .1559906 .5629425 .18099976 .5839386 .18099976 .6159363Z"/>
<path id="font_3_7" d="M.10998535 .34429933V.076034549C.10998535 .0309906 .09899902 .0309906 .03199768 .0309906V0C.066986087 .0009918213 .117996219 .0029907227 .14498902 .0029907227 .17098999 .0029907227 .22299195 .0009918213 .25698854 0V.0309906C.18998719 .0309906 .1789856 .0309906 .1789856 .076034549V.2602234C.1789856 .36431886 .25 .42037965 .31399537 .42037965 .3769989 .42037965 .3880005 .36631776 .3880005 .30926515V.076034549C.3880005 .0309906 .3769989 .0309906 .30999757 .0309906V0C.34498597 .0009918213 .3959961 .0029907227 .4229889 .0029907227 .44898988 .0029907227 .5009918 .0009918213 .5349884 0V.0309906C.48298646 .0309906 .45799256 .0309906 .45700074 .061019899V.25221253C.45700074 .3383026 .45700074 .36932374 .42599488 .405365 .4119873 .42237855 .3789978 .4423828 .32099916 .4423828 .24798584 .4423828 .20098877 .39935304 .17298889 .33729554V.4423828L.03199768 .43138124V.40037538C.101989749 .4003601 .10998535 .39335633 .10998535 .34429933Z"/>
<path id="font_3_1" d="M.33099366-.2400055C.33099366-.23701477 .33099366-.23500061 .31399537-.21800232 .18899536-.0920105 .15699768 .09700012 .15699768 .25 .15699768 .42399598 .19499207 .59799197 .31799317 .72299197 .33099366 .73498538 .33099366 .7369995 .33099366 .73999026 .33099366 .746994 .32699586 .75 .32099916 .75 .31098939 .75 .22099304 .6819916 .1619873 .5549927 .11099243 .44499208 .09899902 .33399964 .09899902 .25 .09899902 .17199707 .10998535 .050994874 .16499329-.06201172 .22499085-.18501282 .31098939-.25 .32099916-.25 .32699586-.25 .33099366-.24700928 .33099366-.2400055Z"/>
<path id="font_3_2" d="M.2889862 .25C.2889862 .32798768 .27799989 .44898988 .22299195 .56199648 .16299439 .68499758 .07699585 .75 .066986087 .75 .06098938 .75 .056991579 .74598696 .056991579 .73999026 .056991579 .7369995 .056991579 .73498538 .07598877 .71699526 .17399597 .6179962 .23098755 .45899964 .23098755 .25 .23098755 .07899475 .19400025-.09700012 .069992069-.2230072 .056991579-.23500061 .056991579-.23701477 .056991579-.2400055 .056991579-.2460022 .06098938-.25 .066986087-.25 .07699585-.25 .16699219-.18200684 .22599793-.055007936 .2769928 .054992677 .2889862 .16600037 .2889862 .25Z"/>
</defs>
<path transform="matrix(1.00006,0,0,-1.00005,15.022003,46.564683)" stroke-width=".3985" stroke-linecap="butt" stroke-miterlimit="10" stroke-linejoin="miter" fill="none" stroke="#00aeef" d="M0-30.6146H112.20883M0-20.40973H112.20883M0-10.20485H112.20883M0 0H112.20883M0 10.20485H112.20883M0 20.40973H112.20883M0 30.61101H112.20883M0-30.6146V30.6146M9.35057-30.6146V30.6146M18.70117-30.6146V30.6146M28.05177-30.6146V30.6146M37.40237-30.6146V30.6146M46.75296-30.6146V30.6146M56.10356-30.6146V30.6146M65.45416-30.6146V30.6146M74.80476-30.6146V30.6146M84.15535-30.6146V30.6146M93.50595-30.6146V30.6146M102.85655-30.6146V30.6146M112.20715-30.6146V30.6146M112.20883 30.6146"/>
<path transform="matrix(1.00006,0,0,-1.00005,15.022003,46.564683)" stroke-width=".79701" stroke-linecap="butt" stroke-miterlimit="10" stroke-linejoin="miter" fill="none" stroke="#000000" d="M0 0H118.21812"/>
<path transform="matrix(1.00006,0,0,-1.00005,133.24721,46.564683)" d="M1.0361 0C-.25902 .25902-1.55415 .77707-3.1083 1.68365-1.55415 .51805-1.55415-.51805-3.1083-1.68365-1.55415-.77707-.25902-.25902 1.0361 0Z"/>
<path transform="matrix(1.00006,0,0,-1.00005,133.24721,46.564683)" stroke-width=".79701" stroke-linecap="butt" stroke-linejoin="round" fill="none" stroke="#000000" d="M1.0361 0C-.25902 .25902-1.55415 .77707-3.1083 1.68365-1.55415 .51805-1.55415-.51805-3.1083-1.68365-1.55415-.77707-.25902-.25902 1.0361 0Z"/>
<use data-text="x" xlink:href="#font_1_2" transform="matrix(9.963197,0,0,-9.963098,138.4014,48.70979)"/>
<path transform="matrix(1.00006,0,0,-1.00005,15.022003,46.564683)" stroke-width=".79701" stroke-linecap="butt" stroke-miterlimit="10" stroke-linejoin="miter" fill="none" stroke="#000000" d="M0-30.6146V33.26186"/>
<path transform="matrix(0,-1.00005,-1.00006,-0,15.022003,13.301159)" d="M1.0361 0C-.25902 .25902-1.55415 .77707-3.1083 1.68365-1.55415 .51805-1.55415-.51805-3.1083-1.68365-1.55415-.77707-.25902-.25902 1.0361 0Z"/>
<path transform="matrix(0,-1.00005,-1.00006,-0,15.022003,13.301159)" stroke-width=".79701" stroke-linecap="butt" stroke-linejoin="round" fill="none" stroke="#000000" d="M1.0361 0C-.25902 .25902-1.55415 .77707-3.1083 1.68365-1.55415 .51805-1.55415-.51805-3.1083-1.68365-1.55415-.77707-.25902-.25902 1.0361 0Z"/>
<use data-text="y" xlink:href="#font_1_3" transform="matrix(9.963197,0,0,-9.963098,12.400848,6.209667)"/>
<path transform="matrix(1.00006,0,0,-1.00005,15.022003,46.564683)" stroke-width=".79701" stroke-linecap="butt" stroke-miterlimit="10" stroke-linejoin="miter" fill="none" stroke="#000000" d="M1.78595-30.6146H-1.78569"/>
<use data-text="-" xlink:href="#font_2_64" transform="matrix(9.963197,0,0,-9.963098,1.2171784,80.38937)"/>
<use data-text="3" xlink:href="#font_2_106" transform="matrix(9.963197,0,0,-9.963098,4.5349199,80.38937)"/>
<path transform="matrix(1.00006,0,0,-1.00005,15.022003,46.564683)" stroke-width=".79701" stroke-linecap="butt" stroke-miterlimit="10" stroke-linejoin="miter" fill="none" stroke="#000000" d="M1.78595 30.6146H-1.78569"/>
<use data-text="3" xlink:href="#font_2_106" transform="matrix(9.963197,0,0,-9.963098,4.5353777,19.156313)"/>
<path transform="matrix(1.00006,0,0,-1.00005,15.022003,46.564683)" stroke-width=".79701" stroke-linecap="butt" stroke-miterlimit="10" stroke-linejoin="miter" fill="none" stroke="#000000" d="M56.10442 1.53065V-1.53082"/>
<use data-text="&#x03c0;" xlink:href="#font_1_1" transform="matrix(9.963197,0,0,-9.963098,71.100368,56.104158)"/>
<path transform="matrix(1.00006,0,0,-1.00005,15.022003,46.564683)" stroke-width=".79701" stroke-linecap="butt" stroke-miterlimit="10" stroke-linejoin="miter" fill="none" stroke="#000000" d="M112.20883 1.53065V-1.53082"/>
<use data-text="2" xlink:href="#font_3_3" transform="matrix(9.963197,0,0,-9.963098,126.7097,58.235265)"/>
<use data-text="&#x03c0;" xlink:href="#font_1_1" transform="matrix(9.963197,0,0,-9.963098,131.69101,58.235265)"/>
<path transform="matrix(1.00006,0,0,-1.00005,15.022003,46.564683)" stroke-width="1.19553" stroke-linecap="butt" stroke-miterlimit="10" stroke-linejoin="miter" fill="none" stroke="#ff0000" d="M0 0C0 0 1.26653-4.34628 1.75298-5.97145 2.23943-7.59662 3.01953-10.18217 3.50598-11.7131 3.99242-13.24403 4.77254-15.6273 5.25899-17.00536 5.7454-18.38338 6.52553-20.47314 7.01196-21.64499 7.49841-22.81685 8.27853-24.53058 8.76498-25.45126 9.25142-26.37198 10.03154-27.64635 10.51797-28.28075 11.00441-28.91516 11.78453-29.6999 12.27097-30.02365 12.75742-30.3474 13.53752-30.61368 14.02397-30.61412 14.51042-30.61458 15.29054-30.34988 15.77698-30.02693 16.26341-29.70396 17.04352-28.92006 17.52997-28.28636 18.0164-27.65265 18.79652-26.37979 19.28297-25.45967 19.76942-24.53955 20.54953-22.82614 21.03598-21.65482 21.5224-20.48347 22.30252-18.39499 22.78897-17.01749 23.2754-15.63997 24.05553-13.25732 24.54196-11.72665 25.02841-10.19597 25.80853-7.61052 26.29498-5.98547 26.7814-4.36044 27.56152-1.67139 28.04796-.01447 28.53441 1.64243 29.31453 4.33128 29.80096 5.95651 30.28741 7.58174 31.06752 10.16776 31.55397 11.69908 32.04039 13.2304 32.82051 15.61472 33.30696 16.99321 33.79341 18.37169 34.57352 20.46182 35.05997 21.63426 35.5464 22.8067 36.32652 24.52193 36.81297 25.44333 37.2994 26.36473 38.07951 27.64001 38.56595 28.27515 39.0524 28.91026 39.83252 29.69633 40.31897 30.02084 40.8054 30.34538 41.58553 30.61288 42.07196 30.61412 42.5584 30.61534 43.33852 30.35199 43.82495 30.02972 44.3114 29.70747 45.0915 28.92448 45.57796 28.2915 46.0644 27.65852 46.84453 26.38696 47.33096 25.46762 47.8174 24.54828 48.5975 22.8363 49.08395 21.66554 49.57039 20.4948 50.35051 18.40675 50.83696 17.02965 51.32341 15.65251 52.10352 13.27054 52.58997 11.74019 53.07639 10.20984 53.8565 7.62486 54.34296 5.99995 54.82939 4.37505 55.60951 1.68594 56.09595 .02895 56.5824-1.62802 57.36252-4.31706 57.84897-5.94249 58.33539-7.56793 59.11551-10.1545 59.60194-11.68599 60.0884-13.21751 60.86852-15.60178 61.35495-16.98059 61.8414-18.35939 62.6215-20.4505 63.10796-21.62352 63.59438-22.79652 64.3745-24.51286 64.86095-25.43492 65.3474-26.35696 66.1275-27.63318 66.61395-28.26907 67.10039-28.90497 67.88051-29.69267 68.36696-30.01805 68.85338-30.34341 69.6335-30.6121 70.11993-30.61412 70.60638-30.61612 71.3865-30.354 71.87296-30.03253 72.35939-29.71104 73.13951-28.92937 73.62595-28.29709 74.11238-27.66483 74.8925-26.39424 75.37894-25.47556 75.86539-24.55687 76.6455-22.846 77.13194-21.67583 77.6184-20.50566 78.39851-18.41846 78.88495-17.04178 79.3714-15.66512 80.15149-13.28375 80.63794-11.75374 81.12437-10.22372 81.9045-7.63916 82.39095-6.01442 82.8774-4.38971 83.6575-1.70088 84.14395-.0439 84.63039 1.61307 85.41049 4.30238 85.89694 5.92801 86.38338 7.55363 87.1635 10.14063 87.64993 11.67245 88.13638 13.2043 88.9165 15.58919 89.40295 16.96844 89.88939 18.3477 90.6695 20.43958 91.15593 21.61324 91.64238 22.78691 92.4225 24.50475 92.90894 25.42744 93.39539 26.35016 94.17549 27.62698 94.66194 28.26346 95.14838 28.89996 95.92848 29.68863 96.41493 30.01479 96.90138 30.34093 97.68149 30.6112 98.16794 30.61412 98.65437 30.61703 99.4345 30.3565 99.92094 30.0358 100.40738 29.7151 101.18748 28.93427 101.67392 28.3027 102.16037 27.67116 102.94049 26.40207 103.42694 25.48396 103.91338 24.56587 104.6935 22.85529 105.17993 21.68564 105.66638 20.51599 106.44649 18.43001 106.93292 17.05392 107.41937 15.67784 108.19948 13.29752 108.68593 11.76775 109.17238 10.23799 109.9525 7.65309 110.43893 6.02844 110.92538 4.4038 112.19193 .05836 112.19193 .05836"/>
<use data-text="b" xlink:href="#font_2_35" transform="matrix(9.963197,0,0,-9.963098,32.975076,94.9801)"/>
<use data-text="." xlink:href="#font_2_88" transform="matrix(9.963197,0,0,-9.963098,38.514619,94.9801)"/>
<use data-text="y" xlink:href="#font_1_3" transform="matrix(9.963197,0,0,-9.963098,45.707834,94.9801)" fill="#0000ff"/>
<use data-text="=" xlink:href="#font_3_5" transform="matrix(9.963197,0,0,-9.963098,53.717317,94.9801)" fill="#0000ff"/>
<use data-text="&#x2212;" xlink:href="#font_4_1" transform="matrix(9.963197,0,0,-9.963098,64.23395,94.9801)" fill="#0000ff"/>
<use data-text="3" xlink:href="#font_3_4" transform="matrix(9.963197,0,0,-9.963098,71.9834,94.9801)" fill="#0000ff"/>
<use data-text="s" xlink:href="#font_3_8" transform="matrix(9.963197,0,0,-9.963098,78.61888,94.9801)" fill="#0000ff"/>
<use data-text="i" xlink:href="#font_3_6" transform="matrix(9.963197,0,0,-9.963098,82.54439,94.9801)" fill="#0000ff"/>
<use data-text="n" xlink:href="#font_3_7" transform="matrix(9.963197,0,0,-9.963098,85.3042,94.9801)" fill="#0000ff"/>
<use data-text="(" xlink:href="#font_3_1" transform="matrix(9.963197,0,0,-9.963098,90.833759,94.9801)" fill="#0000ff"/>
<use data-text="2" xlink:href="#font_3_3" transform="matrix(9.963197,0,0,-9.963098,94.69949,94.9801)" fill="#0000ff"/>
<use data-text="x" xlink:href="#font_1_2" transform="matrix(9.963197,0,0,-9.963098,99.714069,94.9801)" fill="#0000ff"/>
<use data-text=")" xlink:href="#font_3_2" transform="matrix(9.963197,0,0,-9.963098,105.40842,94.9801)" fill="#0000ff"/>
</svg>
