<svg xmlns="http://www.w3.org/2000/svg" xmlns:xlink="http://www.w3.org/1999/xlink" version="1.1" width="83pt" height="83pt" viewBox="0 0 83 83">
<defs>
<path id="font_1_109" d="M.61499026 .0001373291V.0471344C.5529938 .0471344 .54599 .0471344 .54599 .086135867V.4501953L.36299134 .44218446V.39518739C.4249878 .39518739 .43199159 .39518739 .43199159 .3561859V.16514588C.43199159 .08314514 .3809967 .030136109 .30799867 .030136109 .23098755 .030136109 .22799683 .055130006 .22799683 .10914612V.4501953L.04499817 .44218446V.39518739C.10699463 .39518739 .11399841 .39518739 .11399841 .3561859V.12313843C.11399841 .01612854 .19499207-.005859375 .2939911-.005859375 .31999208-.005859375 .3919983-.005859375 .43798829 .072143558V-.005859375L.61499026 .0001373291Z"/>
<path id="font_1_112" d="M.5799866 .3973236V.44433595C.5549927 .44232179 .526001 .44132997 .5009918 .44132997L.4099884 .44433595V.3973236C.42900086 .3973236 .45799256 .39431764 .45799256 .38632203 .45799256 .38632203 .45799256 .38432313 .45298768 .37431336L.33699037 .12416077 .20999146 .3973236H.2639923V.44433595L.13999939 .44132997 .025985718 .44433595V.3973236H.08999634L.2649994 .021102906C.2769928-.00390625 .2899933-.00390625 .30299378-.00390625 .31999208-.00390625 .32998658-.00091552737 .33999635 .020095826L.5059967 .37631227C.5119934 .39031983 .5159912 .3973236 .5799866 .3973236Z"/>
</defs>
<path transform="matrix(1.00008,0,0,-1.00005,2.0966492,81.17226)" stroke-width=".3985" stroke-linecap="butt" stroke-miterlimit="10" stroke-linejoin="miter" fill="none" stroke="#00aeef" d="M0 0H79.36984M0 11.33855H79.36984M0 22.6771H79.36984M0 34.01564H79.36984M0 45.35419H79.36984M0 56.69275H79.36984M0 68.0313H79.36984M0 79.36586H79.36984M0 0V79.36984M11.33855 0V79.36984M22.6771 0V79.36984M34.01564 0V79.36984M45.35419 0V79.36984M56.69275 0V79.36984M68.0313 0V79.36984M79.36586 0V79.36984M79.36984 79.36984"/>
<path transform="matrix(1.00008,0,0,-1.00005,2.0966492,81.17226)" stroke-width="1.59404" stroke-linecap="butt" stroke-miterlimit="10" stroke-linejoin="miter" fill="none" stroke="#ff0000" d="M68.0313 56.69275H13.64989"/>
<path transform="matrix(-1.00008,-0,0,1.00005,15.747631,24.476677)" d="M1.51433 0C-.37857 .37857-2.27148 1.13573-4.54298 2.46077-2.27148 .75716-2.27148-.75716-4.54298-2.46077-2.27148-1.13573-.37857-.37857 1.51433 0Z" fill="#ff0000"/>
<path transform="matrix(-1.00008,-0,0,1.00005,15.747631,24.476677)" stroke-width="1.59404" stroke-linecap="butt" stroke-linejoin="round" fill="none" stroke="#ff0000" d="M1.51433 0C-.37857 .37857-2.27148 1.13573-4.54298 2.46077-2.27148 .75716-2.27148-.75716-4.54298-2.46077-2.27148-1.13573-.37857-.37857 1.51433 0Z"/>
<use data-text="u" xlink:href="#font_1_109" transform="matrix(9.963397,0,0,-9.963098,38.601568,20.299218)" fill="#ff0000"/>
<path transform="matrix(1.00008,0,0,-1.00005,2.0966492,81.17226)" stroke-width="1.59404" stroke-linecap="butt" stroke-miterlimit="10" stroke-linejoin="miter" fill="none" stroke="#ff0000" d="M68.0313 11.33855 24.52611 43.96739"/>
<path transform="matrix(-.800034,-.60002,-.600038,.8000099,26.624722,37.20267)" d="M1.51433 0C-.37857 .37857-2.27148 1.13573-4.54298 2.46077-2.27148 .75716-2.27148-.75716-4.54298-2.46077-2.27148-1.13573-.37857-.37857 1.51433 0Z" fill="#ff0000"/>
<path transform="matrix(-.800034,-.60002,-.600038,.8000099,26.624722,37.20267)" stroke-width="1.59404" stroke-linecap="butt" stroke-linejoin="round" fill="none" stroke="#ff0000" d="M1.51433 0C-.37857 .37857-2.27148 1.13573-4.54298 2.46077-2.27148 .75716-2.27148-.75716-4.54298-2.46077-2.27148-1.13573-.37857-.37857 1.51433 0Z"/>
<use data-text="v" xlink:href="#font_1_112" transform="matrix(9.963397,0,0,-9.963098,51.572607,48.66663)" fill="#ff0000"/>
</svg>
