<svg xmlns="http://www.w3.org/2000/svg" xmlns:xlink="http://www.w3.org/1999/xlink" version="1.1" width="101pt" height="100pt" viewBox="0 0 101 100">
<path transform="matrix(1.00003,0,0,-1,50.485948,50.188)" stroke-width=".79701" stroke-linecap="butt" stroke-miterlimit="10" stroke-linejoin="miter" fill="none" stroke="#000000" d="M48.18991 0C48.18991 26.61488 26.61488 48.18991 0 48.18991-26.61488 48.18991-48.18991 26.61488-48.18991 0-48.18991-26.61488-26.61488-48.18991 0-48.18991 26.61488-48.18991 48.18991-26.61488 48.18991 0ZM0 0"/>
<path transform="matrix(1.00003,0,0,-1,50.485948,50.188)" stroke-width=".3985" stroke-linecap="butt" stroke-miterlimit="10" stroke-linejoin="miter" fill="none" stroke="#929292" d="M34.06955 34.06955-34.06955-34.06955"/>
<path transform="matrix(1.00003,0,0,-1,50.485948,50.188)" stroke-width=".3985" stroke-linecap="butt" stroke-miterlimit="10" stroke-linejoin="miter" fill="none" stroke="#929292" d="M34.06955-34.06955-34.06955 34.06955"/>
<path transform="matrix(1.00003,0,0,-1,50.485948,50.188)" stroke-width=".3985" stroke-linecap="butt" stroke-miterlimit="10" stroke-linejoin="miter" fill="none" stroke="#929292" d="M-48.18991 0H48.18991"/>
<path transform="matrix(1.00003,0,0,-1,50.485948,50.188)" stroke-width=".3985" stroke-linecap="butt" stroke-miterlimit="10" stroke-linejoin="miter" fill="none" stroke="#929292" d="M0-48.18991V48.18991"/>
</svg>
