<svg xmlns="http://www.w3.org/2000/svg" xmlns:xlink="http://www.w3.org/1999/xlink" version="1.1" width="75pt" height="95pt" viewBox="0 0 75 95">
<defs>
<path id="font_1_1" d="M.2939911 .64004519C.2939911 .66400149 .2939911 .6660156 .2709961 .6660156 .20899964 .60227969 .12098694 .60227969 .08898926 .60227969V.57128909C.10899353 .57128909 .16799927 .57128909 .21998596 .5972748V.07902527C.21998596 .042999269 .21699524 .0309906 .1269989 .0309906H.09498596V0C.12998963 .0029907227 .21699524 .0029907227 .25698854 .0029907227 .29699708 .0029907227 .38398744 .0029907227 .4189911 0V.0309906H.3869934C.29699708 .0309906 .2939911 .041992189 .2939911 .07902527V.64004519Z"/>
<path id="font_2_1" d="M.5069885 .24998474C.5069885 .3710022 .4099884 .4650116 .2919922 .4650116 .17199707 .4650116 .07699585 .36799623 .07699585 .25097657 .07699585 .1299591 .17399597 .035949708 .2919922 .035949708 .4119873 .035949708 .5069885 .13296509 .5069885 .24998474M.2919922 .08496094C.19799805 .08496094 .12599182 .16096497 .12599182 .24998474 .12599182 .34300233 .19999695 .41601563 .2919922 .41601563 .38598634 .41601563 .45799256 .33999635 .45799256 .25097657 .45799256 .15795899 .38398744 .08496094 .2919922 .08496094Z"/>
<path id="font_3_76" d="M.71598818 .6516113V.6826172L.598999 .6796112 .48199464 .6826172V.6516113C.58499148 .6516113 .58499148 .6046295 .58499148 .577652V.15092469L.23199463 .6696167C.22299195 .6816101 .22200012 .6826172 .20298767 .6826172H.032989503V.6516113H.06199646C.07699585 .6516113 .09700012 .65060427 .11199951 .6496124 .1349945 .64660647 .13598633 .6456146 .13598633 .62661746V.10494995C.13598633 .07795715 .13598633 .0309906 .032989503 .0309906V0L.1499939 .0029907227 .2669983 0V.0309906C.1639862 .0309906 .1639862 .07795715 .1639862 .10494995V.62461856C.16899109 .6196289 .16999817 .6186218 .17399597 .6126251L.58200076 .0129852299C.59098818 .0009918213 .59199526 0 .598999 0 .61299136 0 .61299136 .0069885256 .61299136 .025985718V.577652C.61299136 .6046295 .61299136 .6516113 .71598818 .6516113Z"/>
<path id="font_3_97" d="M.49899293 .18579102C.49899293 .2858429 .43299867 .36791993 .34899903 .38793946L.22099304 .4189453C.15899658 .43388368 .11999512 .48773194 .11999512 .5458069 .11999512 .61595156 .17399597 .677063 .2519989 .677063 .4189911 .677063 .44099427 .5127411 .44699098 .46777345 .44799806 .461792 .44799806 .45581056 .45899964 .45581056 .47200013 .45581056 .47200013 .46080018 .47200013 .47973634V.68107607C.47200013 .69807437 .47200013 .7050781 .46099855 .7050781 .45399476 .7050781 .45298768 .70407107 .44599916 .69207766L.41099549 .63497927C.3809967 .66404727 .33999635 .7050781 .25099183 .7050781 .13999939 .7050781 .055999757 .61694338 .055999757 .5107422 .055999757 .42790223 .10899353 .35490418 .18699646 .32788087 .19799805 .32388307 .24899292 .3118744 .31900025 .29486085 .34599305 .28785707 .37599183 .280838 .4039917 .24382019 .4249878 .2177887 .43499757 .18478394 .43499757 .1517334 .43499757 .0806427 .3849945 .008529663 .30099488 .008529663 .27198792 .008529663 .19599915 .013534546 .14299011 .06260681 .084991458 .11668396 .08198547 .18078614 .08099365 .21679688 .07998657 .22679138 .07199097 .22679138 .068984989 .22679138 .055999757 .22679138 .055999757 .2197876 .055999757 .20178223V.0015258789C.055999757-.015472412 .055999757-.022460938 .066986087-.022460938 .07398987-.022460938 .07499695-.020462037 .08198547-.009475708 .08198547-.009475708 .084991458-.0054626467 .117996219 .047592164 .14898682 .013534546 .21299744-.022460938 .3019867-.022460938 .4189911-.022460938 .49899293 .07562256 .49899293 .18579102Z"/>
</defs>
<path transform="matrix(1.00005,0,0,-1.00002,37.81494,46.961706)" stroke-width=".3985" stroke-linecap="butt" stroke-miterlimit="10" stroke-linejoin="miter" fill="none" stroke="#000000" d="M35.71724 0C35.71724 19.72632 19.72632 35.71724 0 35.71724-19.72632 35.71724-35.71724 19.72632-35.71724 0-35.71724-19.72632-19.72632-35.71724 0-35.71724 19.72632-35.71724 35.71724-19.72632 35.71724 0ZM0 0"/>
<path transform="matrix(1.00005,0,0,-1.00002,37.81494,46.961706)" stroke-width=".79701" stroke-linecap="butt" stroke-miterlimit="10" stroke-linejoin="miter" fill="none" stroke="#000000" d="M-21.98598 28.1478 0 0"/>
<path transform="matrix(1.00005,0,0,-1.00002,37.81494,46.961706)" stroke-width=".79701" stroke-linecap="butt" stroke-miterlimit="10" stroke-linejoin="miter" fill="none" stroke="#000000" d="M-23.89693 26.54016 0 0"/>
<path transform="matrix(1.00005,0,0,-1.00002,37.81494,46.961706)" stroke-width=".79701" stroke-linecap="butt" stroke-miterlimit="10" stroke-linejoin="miter" fill="none" stroke="#ff0000" d="M-6.00046 22.859C-9.01053 22.05273-11.82933 20.64668-13.15446 19.61153"/>
<path transform="matrix(-.78809937,.6156023,.61562076,.7880758,24.659825,27.349772)" d="M1.0361 0C-.25902 .25902-1.55415 .77707-3.1083 1.68365-1.55415 .51805-1.55415-.51805-3.1083-1.68365-1.55415-.77707-.25902-.25902 1.0361 0Z" fill="#ff0000"/>
<path transform="matrix(-.78809937,.6156023,.61562076,.7880758,24.659825,27.349772)" stroke-width=".79701" stroke-linecap="butt" stroke-linejoin="round" fill="none" stroke="#ff0000" d="M1.0361 0C-.25902 .25902-1.55415 .77707-3.1083 1.68365-1.55415 .51805-1.55415-.51805-3.1083-1.68365-1.55415-.77707-.25902-.25902 1.0361 0Z"/>
<use data-text="1" xlink:href="#font_1_1" transform="matrix(9.963098,0,0,-9.962799,35.75284,26.506295)" fill="#ff0000"/>
<use data-text="&#x25e6;" xlink:href="#font_2_1" transform="matrix(6.9741489,0,0,-6.97394,40.734086,22.89122)" fill="#ff0000"/>
<path transform="matrix(1.00005,0,0,-1.00002,37.81494,46.961706)" stroke-width=".79701" stroke-linecap="butt" stroke-miterlimit="10" stroke-linejoin="miter" fill="none" stroke="#ff0000" d="M-21.03734 9.80429C-19.7206 12.62839-17.84659 15.16025-16.59694 16.28545"/>
<path transform="matrix(.74315717,-.6691234,-.66914346,-.7431349,21.217173,30.675929)" d="M1.0361 0C-.25902 .25902-1.55415 .77707-3.1083 1.68365-1.55415 .51805-1.55415-.51805-3.1083-1.68365-1.55415-.77707-.25902-.25902 1.0361 0Z" fill="#ff0000"/>
<path transform="matrix(.74315717,-.6691234,-.66914346,-.7431349,21.217173,30.675929)" stroke-width=".79701" stroke-linecap="butt" stroke-linejoin="round" fill="none" stroke="#ff0000" d="M1.0361 0C-.25902 .25902-1.55415 .77707-3.1083 1.68365-1.55415 .51805-1.55415-.51805-3.1083-1.68365-1.55415-.77707-.25902-.25902 1.0361 0Z"/>
<path transform="matrix(1.00005,0,0,-1.00002,37.81494,46.961706)" d="M1.12978 35.71724C1.12978 36.3412 .62396 36.84702 0 36.84702-.62396 36.84702-1.12978 36.3412-1.12978 35.71724-1.12978 35.09328-.62396 34.58746 0 34.58746 .62396 34.58746 1.12978 35.09328 1.12978 35.71724ZM0 35.71724"/>
<path transform="matrix(1.00005,0,0,-1.00002,37.81494,46.961706)" stroke-width=".3985" stroke-linecap="butt" stroke-miterlimit="10" stroke-linejoin="miter" fill="none" stroke="#000000" d="M1.12978 35.71724C1.12978 36.3412 .62396 36.84702 0 36.84702-.62396 36.84702-1.12978 36.3412-1.12978 35.71724-1.12978 35.09328-.62396 34.58746 0 34.58746 .62396 34.58746 1.12978 35.09328 1.12978 35.71724ZM0 35.71724"/>
<use data-text="N" xlink:href="#font_3_76" transform="matrix(9.963098,0,0,-9.962799,34.07876,7.723919)"/>
<path transform="matrix(1.00005,0,0,-1.00002,37.81494,46.961706)" d="M1.12978-35.71724C1.12978-35.09328 .62396-34.58746 0-34.58746-.62396-34.58746-1.12978-35.09328-1.12978-35.71724-1.12978-36.3412-.62396-36.84702 0-36.84702 .62396-36.84702 1.12978-36.3412 1.12978-35.71724ZM0-35.71724"/>
<path transform="matrix(1.00005,0,0,-1.00002,37.81494,46.961706)" stroke-width=".3985" stroke-linecap="butt" stroke-miterlimit="10" stroke-linejoin="miter" fill="none" stroke="#000000" d="M1.12978-35.71724C1.12978-35.09328 .62396-34.58746 0-34.58746-.62396-34.58746-1.12978-35.09328-1.12978-35.71724-1.12978-36.3412-.62396-36.84702 0-36.84702 .62396-36.84702 1.12978-36.3412 1.12978-35.71724ZM0-35.71724"/>
<use data-text="S" xlink:href="#font_3_97" transform="matrix(9.963098,0,0,-9.962799,35.0448,93.22363)"/>
</svg>
