<svg xmlns="http://www.w3.org/2000/svg" xmlns:xlink="http://www.w3.org/1999/xlink" version="1.1" width="98" height="83" viewBox="0 0 98 83">
<defs>
<path id="font_1_8" d="M.73999026 .4358673C.73999026 .5970001 .6339874 .7050781 .4850006 .7050781 .2689972 .7050781 .04899597 .47790528 .04899597 .24472046 .04899597 .07859802 .16099549-.022460938 .30499269-.022460938 .5169983-.022460938 .73999026 .19668579 .73999026 .4358673M.31098939 .0035247803C.21199036 .0035247803 .14199829 .08459473 .14199829 .21670532 .14199829 .2607422 .1559906 .4068451 .23298645 .52394106 .3019867 .62802127 .3999939 .68006899 .47898866 .68006899 .5609894 .68006899 .651001 .62402346 .651001 .4748993 .651001 .4028473 .6239929 .24671936 .5249939 .12362671 .47698976 .062576297 .394989 .0035247803 .31098939 .0035247803Z"/>
<path id="font_1_3" d="M.040985109 .2543335C.07998657 .3693695 .18899536 .3703766 .19999695 .3703766 .35099793 .3703766 .3619995 .1953125 .3619995 .11627197 .3619995 .055252077 .35699464 .038238527 .34999085 .018234253 .32798768-.05479431 .2979889-.1708374 .2979889-.19685364 .2979889-.20785523 .30299378-.21484375 .31098939-.21484375 .32398988-.21484375 .33198548-.19285584 .34298707-.15483094 .3659973-.07080078 .37599183-.0137786869 .37998963 .017227173 .38198854 .03024292 .38398744 .04324341 .3880005 .056243898 .41999818 .1552887 .48399354 .3043518 .5239868 .38337709 .5309906 .39537049 .54299929 .41737367 .54299929 .42137147 .54299929 .43138124 .5329895 .43138124 .5309906 .43138124 .5279999 .43138124 .5219879 .43138124 .5189972 .42437745 .46699525 .32936097 .4269867 .22932434 .3869934 .12828064 .38598634 .1592865 .3849945 .23532105 .34599305 .33236695 .32199098 .39337159 .28199769 .4423828 .21299744 .4423828 .08799744 .4423828 .017990113 .29034425 .017990113 .25933839 .017990113 .24932862 .026992798 .24932862 .036987306 .24932862L.040985109 .2543335Z"/>
<path id="font_1_4" d="M.45498658 .5001831C.45498658 .56614688 .43699647 .7050781 .33499146 .7050781 .19599915 .7050781 .041992189 .42323304 .041992189 .19425965 .041992189 .100250247 .070999149-.0107421879 .1619873-.0107421879 .30299378-.0107421879 .45498658 .27627564 .45498658 .5001831M.147995 .36328126C.16499329 .42723084 .18499756 .5071869 .22499085 .57814028 .2519989 .6271057 .2889862 .68307498 .33399964 .68307498 .3829956 .68307498 .3889923 .6191101 .3889923 .56214907 .3889923 .5131836 .3809967 .46220399 .35699464 .36328126H.147995M.34799195 .3312683C.33699037 .28527833 .31599427 .2002716 .27799989 .12826538 .24299622 .060256959 .20498657 .011245728 .1619873 .011245728 .1289978 .011245728 .10798645 .040252687 .10798645 .133255 .10798645 .17526245 .11399841 .23326111 .13999939 .3312683H.34799195Z"/>
<path id="font_1_5" d="M.1789856 .114868167C.13899231 .047973634 .099990848 .033981325 .055999757 .0309906 .04399109 .02999878 .034988405 .02999878 .034988405 .010986328 .034988405 .004989624 .039993287 0 .04798889 0 .07499695 0 .10598755 .0029907227 .13398743 .0029907227 .16699219 .0029907227 .20199585 0 .23399353 0 .23999024 0 .25299073 0 .25299073 .018997193 .25299073 .02999878 .24398804 .0309906 .23699951 .0309906 .21398926 .032989503 .18998719 .04096985 .18998719 .06593323 .18998719 .077926639 .19599915 .088897708 .20399475 .102890018L.27999879 .23068238H.5309906C.5329895 .2097168 .5469971 .07392883 .5469971 .063949588 .5469971 .033981325 .49499513 .0309906 .47499085 .0309906 .46099855 .0309906 .45098878 .0309906 .45098878 .010986328 .45098878 0 .46299745 0 .46499635 0 .5059967 0 .548996 .0029907227 .58999636 .0029907227 .61499026 .0029907227 .6779938 0 .7029877 0 .70899966 0 .72099307 0 .72099307 .019989014 .72099307 .0309906 .71099856 .0309906 .69799807 .0309906 .6359863 .0309906 .6359863 .037979127 .6329956 .06694031L.57199099 .691803C.56999209 .71180728 .56999209 .7158203 .5529938 .7158203 .5369873 .7158203 .5329895 .7088165 .5269928 .69880679L.1789856 .114868167M.29899598 .26168824 .49598695 .5917816 .5279999 .26168824H.29899598Z"/>
<path id="font_1_1" d="M.47698976 .23631287C.47698976 .39337159 .38398744 .4423828 .30999757 .4423828 .17298889 .4423828 .040985109 .29933167 .040985109 .15829468 .040985109 .06526184 .100997928-.0107421879 .20298767-.0107421879 .2659912-.0107421879 .33799745 .012252808 .4139862 .073272708 .4269867 .020248414 .45999146-.0107421879 .5049896-.0107421879 .55799868-.0107421879 .58898928 .044265748 .58898928 .060272218 .58898928 .06726074 .58299258 .07026672 .57699587 .07026672 .56999209 .07026672 .5669861 .06726074 .56399539 .060272218 .54599 .011245728 .5099945 .011245728 .5079956 .011245728 .47698976 .011245728 .47698976 .089279178 .47698976 .11328125 .47698976 .1342926 .47698976 .1362915 .4869995 .14828491 .58099368 .2663269 .60198977 .38235475 .60198977 .38336183 .60198977 .38536073 .6009979 .39337159 .58999636 .39337159 .5799866 .39337159 .5799866 .3903656 .57499697 .37236024 .5569916 .30934144 .5239868 .23332215 .47698976 .17430115V.23631287M.4099884 .09927368C.32199098 .022247315 .24499512 .011245728 .20498657 .011245728 .14498902 .011245728 .114990238 .056259157 .114990238 .120285037 .114990238 .16929627 .14099121 .2773285 .17298889 .32833863 .21998596 .4013672 .27398683 .42037965 .30899049 .42037965 .4079895 .42037965 .4079895 .28933717 .4079895 .21130371 .4079895 .17430115 .4079895 .11628723 .4099884 .09927368Z"/>
<path id="font_1_6" d="M.1599884 .07795715C.1499939 .038986207 .147995 .0309906 .068984989 .0309906 .051986696 .0309906 .041992189 .0309906 .041992189 .010986328 .041992189 0 .050994874 0 .068984989 0H.42599488C.58399966 0 .70199587 .11791992 .70199587 .21585083 .70199587 .28778077 .6439972 .3457489 .5469971 .35673524 .651001 .37573243 .7559967 .44970704 .7559967 .5446625 .7559967 .6186218 .6899872 .6826172 .56999209 .6826172H.23399353C.21499634 .6826172 .20498657 .6826172 .20498657 .6626129 .20498657 .6516113 .21398926 .6516113 .23298645 .6516113 .23498535 .6516113 .2539978 .6516113 .2709961 .6496124 .2889862 .6476135 .2979889 .64660647 .2979889 .6336212 .2979889 .6296234 .29699708 .62661746 .2939911 .614624L.1599884 .07795715M.31098939 .36573792 .37298585 .6136322C.38198854 .64860537 .38398744 .6516113 .4269867 .6516113H.55599978C.6439972 .6516113 .6649933 .5926361 .6649933 .5486603 .6649933 .46069337 .57899478 .36573792 .45700074 .36573792H.31098939M.2659912 .0309906C.2519989 .0309906 .25 .0309906 .24398804 .03199768 .23399353 .032989503 .23098755 .033996583 .23098755 .04197693 .23098755 .04498291 .23098755 .04698181 .23599243 .064971927L.30499269 .34375H.49398805C.58999636 .34375 .60899356 .2698059 .60899356 .22683716 .60899356 .12791443 .519989 .0309906 .4019928 .0309906H.2659912Z"/>
<path id="font_1_2" d="M.57499697 .5688782C.57499697 .64401248 .519989 .70606997 .43899537 .70606997 .3809967 .70606997 .35299684 .6900635 .31799317 .664032 .2630005 .62397769 .20799256 .5268097 .18899536 .4506836L.02999878-.18434143C.0289917-.18833924 .033996583-.19433594 .041992189-.19433594 .049987794-.19433594 .052993776-.19233704 .053985597-.18934632L.12399292 .08711243C.14299011 .027236939 .18699646-.009719849 .2599945-.009719849 .33299256-.009719849 .4079895 .025238038 .45298768 .06915283 .5009918 .11505127 .5329895 .17892456 .5329895 .2527771 .5329895 .32461549 .49598695 .37652589 .45999146 .40159608 .5179901 .43466188 .57499697 .49676515 .57499697 .5688782M.394989 .40260316C.38198854 .3975525 .37098695 .39553834 .34700013 .39553834 .33299256 .39553834 .31298829 .39453126 .30299378 .39956666 .30499269 .4096527 .34098817 .4076538 .35198976 .4076538 .37298585 .4076538 .38198854 .4076538 .394989 .40260316M.5189972 .59191897C.5189972 .5218048 .48098756 .44969178 .42900086 .4186554 .4019928 .4286499 .38198854 .43066407 .35198976 .43066407 .33099366 .43066407 .2749939 .43165589 .2749939 .39855958 .27398683 .37052918 .32598878 .3735199 .34399415 .3735199 .3809967 .3735199 .3959961 .37452699 .42599488 .3865204 .46398927 .35057069 .46899415 .31962586 .46998597 .27372743 .47200013 .21585083 .44799806 .14100647 .41999818 .1020813 .3809967 .048202516 .31399537 .012268066 .25698854 .012268066 .18099976 .012268066 .14299011 .07014465 .14299011 .14100647 .14299011 .15098572 .14299011 .16595459 .147995 .184906L.21199036 .43766786C.23399353 .5238037 .30599977 .68307498 .42599488 .68307498 .48399354 .68307498 .5189972 .6520233 .5189972 .59191897Z"/>
<path id="font_1_7" d="M.15899658 .07795715C.14898682 .038986207 .14698792 .0309906 .067993167 .0309906 .050994874 .0309906 .039993287 .0309906 .039993287 .011993408 .039993287 0 .04899597 0 .067993167 0H.39898683C.6069946 0 .80400088 .21087647 .80400088 .42974855 .80400088 .5706482 .71899417 .6826172 .56900027 .6826172H.23298645C.21398926 .6826172 .20298767 .6826172 .20298767 .66360476 .20298767 .6516113 .21199036 .6516113 .23199463 .6516113 .24499512 .6516113 .2630005 .65060427 .2749939 .6496124 .29100038 .6476135 .29699708 .64460757 .29699708 .6336212 .29699708 .6296234 .29599 .62661746 .29299928 .614624L.15899658 .07795715M.375 .6136322C.38398744 .64860537 .38598634 .6516113 .42900086 .6516113H.5359955C.6339874 .6516113 .71699526 .5986328 .71699526 .46672059 .71699526 .41775514 .69699099 .25386048 .6119995 .1439209 .58299258 .10694885 .5039978 .0309906 .3809967 .0309906H.2679901C.2539978 .0309906 .2519989 .0309906 .24598694 .03199768 .23599243 .032989503 .23298645 .033996583 .23298645 .041992189 .23298645 .04498291 .23298645 .04698181 .23799134 .064971927L.375 .6136322Z"/>
<path id="font_1_9" d="M.08799744 .059265138C.084991458 .044265748 .07899475 .021255494 .07899475 .01625061 .07899475-.0017547608 .09298706-.0107421879 .10798645-.0107421879 .11999512-.0107421879 .13798523-.002746582 .14498902 .01725769 .14698792 .021255494 .18099976 .15730286 .18499756 .17530823 .19299317 .20831299 .21099854 .27833558 .21699524 .30534364 .22099304 .31835938 .24899292 .36535646 .272995 .38734437 .2809906 .39434815 .30999757 .42037965 .35299684 .42037965 .3789978 .42037965 .3939972 .4083557 .394989 .4083557 .36499024 .40335084 .34298707 .37934876 .34298707 .35334779 .34298707 .33735658 .35398866 .31835938 .3809967 .31835938 .4079895 .31835938 .43598939 .34135438 .43598939 .37734986 .43598939 .41235353 .4039917 .4423828 .35299684 .4423828 .28799439 .4423828 .24398804 .39335633 .22499085 .36535646 .21699524 .4103546 .18099976 .4423828 .13398743 .4423828 .08799744 .4423828 .068984989 .40335084 .05999756 .38534547 .041992189 .35134889 .0289917 .29133607 .0289917 .28834535 .0289917 .27833558 .038986207 .27833558 .040985109 .27833558 .050994874 .27833558 .051986696 .27934266 .057998659 .30134584 .07499695 .37234498 .09498596 .42037965 .1309967 .42037965 .147995 .42037965 .1619873 .41235353 .1619873 .37435914 .1619873 .35334779 .15899658 .3423462 .1459961 .29034425L.08799744 .059265138Z"/>
</defs>
<path transform="matrix(1.00002,0,0,-1.00003,48.495668,45.267004)" stroke-width=".3985" stroke-linecap="butt" stroke-miterlimit="10" stroke-linejoin="miter" fill="none" stroke="#000000" d="M36.28416 0C36.28416 20.03944 20.03944 36.28416 0 36.28416-20.03944 36.28416-36.28416 20.03944-36.28416 0-36.28416-20.03944-20.03944-36.28416 0-36.28416 20.03944-36.28416 36.28416-20.03944 36.28416 0ZM0 0"/>
<path transform="matrix(1.00002,0,0,-1.00003,48.495668,45.267004)" d="M1.11581 0C1.11581 .61626 .61626 1.11581 0 1.11581-.61626 1.11581-1.11581 .61626-1.11581 0-1.11581-.61626-.61626-1.11581 0-1.11581 .61626-1.11581 1.11581-.61626 1.11581 0ZM0 0"/>
<path transform="matrix(1.00002,0,0,-1.00003,48.495668,45.267004)" stroke-width=".3985" stroke-linecap="butt" stroke-miterlimit="10" stroke-linejoin="miter" fill="none" stroke="#000000" d="M1.11581 0C1.11581 .61626 .61626 1.11581 0 1.11581-.61626 1.11581-1.11581 .61626-1.11581 0-1.11581-.61626-.61626-1.11581 0-1.11581 .61626-1.11581 1.11581-.61626 1.11581 0ZM0 0"/>
<use data-text="O" xlink:href="#font_1_8" transform="matrix(9.962799,0,0,-9.962899,44.557588,56.591344)"/>
<path transform="matrix(1.00002,0,0,-1.00003,48.495668,45.267004)" stroke-width=".3985" stroke-linecap="butt" stroke-miterlimit="10" stroke-linejoin="miter" fill="none" stroke="#ff0000" d="M-5.66936 0C-5.66936 2.0252-4.58853 3.89725-2.83467 4.9098-1.37971 5.74986 .37422 5.90092 1.9516 5.32263"/>
<use data-text="&#x03b3;" xlink:href="#font_1_3" transform="matrix(9.962799,0,0,-9.962899,38.01046,38.150789)" fill="#ff0000"/>
<path transform="matrix(1.00002,0,0,-1.00003,48.495668,45.267004)" stroke-width=".3985" stroke-linecap="butt" stroke-miterlimit="10" stroke-linejoin="miter" fill="none" stroke="#ff0000" d="M9.07086 0C9.07086 3.8049 6.69461 7.20634 3.12253 8.51611"/>
<use data-text="&#x03b8;" xlink:href="#font_1_4" transform="matrix(9.962799,0,0,-9.962899,59.45189,41.53989)" fill="#ff0000"/>
<path transform="matrix(1.00002,0,0,-1.00003,48.495668,45.267004)" d="M-35.96727 0C-35.96727 .17606-36.11 .31879-36.28607 .31879-36.46213 .31879-36.60487 .17606-36.60487 0-36.60487-.17606-36.46213-.31879-36.28607-.31879-36.11-.31879-35.96727-.17606-35.96727 0ZM-36.28607 0"/>
<path transform="matrix(1.00002,0,0,-1.00003,48.495668,45.267004)" stroke-width=".3985" stroke-linecap="butt" stroke-miterlimit="10" stroke-linejoin="miter" fill="none" stroke="#000000" d="M-35.96727 0C-35.96727 .17606-36.11 .31879-36.28607 .31879-36.46213 .31879-36.60487 .17606-36.60487 0-36.60487-.17606-36.46213-.31879-36.28607-.31879-36.11-.31879-35.96727-.17606-35.96727 0ZM-36.28607 0"/>
<use data-text="A" xlink:href="#font_1_5" transform="matrix(9.962799,0,0,-9.962899,1.2167206,55.595315)"/>
<path transform="matrix(1.00002,0,0,-1.00003,48.495668,45.267004)" stroke-width=".3985" stroke-linecap="butt" stroke-miterlimit="10" stroke-linejoin="miter" fill="none" stroke="#ff0000" d="M-27.2152 0C-27.2152 1.85565-27.78519 3.66774-28.84679 5.18956"/>
<use data-text="&#x03b1;" xlink:href="#font_1_1" transform="matrix(9.962799,0,0,-9.962899,24.382187,42.698926)" fill="#ff0000"/>
<path transform="matrix(1.00002,0,0,-1.00003,48.495668,45.267004)" d="M12.79214 34.01805C12.79214 34.19412 12.64941 34.33685 12.47334 34.33685 12.29727 34.33685 12.15454 34.19412 12.15454 34.01805 12.15454 33.84198 12.29727 33.69925 12.47334 33.69925 12.64941 33.69925 12.79214 33.84198 12.79214 34.01805ZM12.47334 34.01805"/>
<path transform="matrix(1.00002,0,0,-1.00003,48.495668,45.267004)" stroke-width=".3985" stroke-linecap="butt" stroke-miterlimit="10" stroke-linejoin="miter" fill="none" stroke="#000000" d="M12.79214 34.01805C12.79214 34.19412 12.64941 34.33685 12.47334 34.33685 12.29727 34.33685 12.15454 34.19412 12.15454 34.01805 12.15454 33.84198 12.29727 33.69925 12.47334 33.69925 12.64941 33.69925 12.79214 33.84198 12.79214 34.01805ZM12.47334 34.01805"/>
<use data-text="B" xlink:href="#font_1_6" transform="matrix(9.962799,0,0,-9.962899,64.48898,7.7278749)"/>
<path transform="matrix(1.00002,0,0,-1.00003,48.495668,45.267004)" stroke-width=".3985" stroke-linecap="butt" stroke-miterlimit="10" stroke-linejoin="miter" fill="none" stroke="#ff0000" d="M8.57011 23.37274C6.38857 24.17258 4.50354 25.62524 3.17409 27.531"/>
<use data-text="&#x03b2;" xlink:href="#font_1_2" transform="matrix(9.962799,0,0,-9.962899,46.359628,28.675505)" fill="#ff0000"/>
<path transform="matrix(1.00002,0,0,-1.00003,48.495668,45.267004)" d="M36.60487 0C36.60487 .17606 36.46213 .31879 36.28607 .31879 36.11 .31879 35.96727 .17606 35.96727 0 35.96727-.17606 36.11-.31879 36.28607-.31879 36.46213-.31879 36.60487-.17606 36.60487 0ZM36.28607 0"/>
<path transform="matrix(1.00002,0,0,-1.00003,48.495668,45.267004)" stroke-width=".3985" stroke-linecap="butt" stroke-miterlimit="10" stroke-linejoin="miter" fill="none" stroke="#000000" d="M36.60487 0C36.60487 .17606 36.46213 .31879 36.28607 .31879 36.11 .31879 35.96727 .17606 35.96727 0 35.96727-.17606 36.11-.31879 36.28607-.31879 36.46213-.31879 36.60487-.17606 36.60487 0ZM36.28607 0"/>
<use data-text="D" xlink:href="#font_1_7" transform="matrix(9.962799,0,0,-9.962899,88.30246,55.595315)"/>
<path transform="matrix(1.00002,0,0,-1.00003,48.495668,45.267004)" stroke-width=".79701" stroke-linecap="butt" stroke-miterlimit="10" stroke-linejoin="miter" fill="none" stroke="#000000" d="M-36.28607 0 12.47334 34.01805"/>
<path transform="matrix(1.00002,0,0,-1.00003,48.495668,45.267004)" stroke-width=".79701" stroke-linecap="butt" stroke-miterlimit="10" stroke-linejoin="miter" fill="none" stroke="#000000" d="M-36.28607 0H0"/>
<path transform="matrix(1.00002,0,0,-1.00003,48.495668,45.267004)" stroke-width=".79701" stroke-linecap="butt" stroke-miterlimit="10" stroke-linejoin="miter" fill="none" stroke="#000000" d="M0 0H36.28607"/>
<path transform="matrix(1.00002,0,0,-1.00003,48.495668,45.267004)" stroke-width=".79701" stroke-linecap="butt" stroke-miterlimit="10" stroke-linejoin="miter" fill="none" stroke="#000000" d="M12.47334 34.01805 0 0"/>
<use data-text="r" xlink:href="#font_1_9" transform="matrix(9.962799,0,0,-9.962899,58.451868,31.398587)" fill="#0000ff"/>
</svg>
