<svg xmlns="http://www.w3.org/2000/svg" xmlns:xlink="http://www.w3.org/1999/xlink" version="1.1" width="128pt" height="113pt" viewBox="0 0 128 113">
<defs>
<path id="font_1_2" d="M.33399964 .30233766C.33999635 .32835389 .36299134 .42037965 .43299867 .42037965 .43798829 .42037965 .46199037 .42037965 .48298646 .40734864 .45498658 .402359 .43499757 .37734986 .43499757 .35334779 .43499757 .33735658 .44599916 .31835938 .47299195 .31835938 .49499513 .31835938 .5269928 .3363495 .5269928 .37635804 .5269928 .42837525 .46798707 .4423828 .43399049 .4423828 .37599183 .4423828 .34098817 .38935853 .32899476 .36634828 .3039856 .43237306 .25 .4423828 .22099304 .4423828 .116989139 .4423828 .05999756 .3133545 .05999756 .28834535 .05999756 .27833558 .069992069 .27833558 .07199097 .27833558 .07998657 .27833558 .08299255 .28033448 .084991458 .28933717 .11898804 .39535523 .18499756 .42037965 .21899414 .42037965 .23799134 .42037965 .272995 .4113617 .272995 .35334779 .272995 .32235719 .2559967 .25532533 .21899414 .11528015 .20298767 .053268434 .16799927 .011245728 .12399292 .011245728 .117996219 .011245728 .09498596 .011245728 .07398987 .024276734 .09899902 .029266358 .12098694 .05027771 .12098694 .07827759 .12098694 .105270389 .09899902 .11328125 .083999637 .11328125 .053985597 .11328125 .0289917 .08728027 .0289917 .055267335 .0289917 .009246826 .07899475-.0107421879 .12298584-.0107421879 .18899536-.0107421879 .22499085 .059280397 .22799683 .0652771 .23999024 .028274537 .27598573-.0107421879 .33599855-.0107421879 .43899537-.0107421879 .49598695 .118270877 .49598695 .14328003 .49598695 .1532898 .4869995 .1532898 .48399354 .1532898 .47499085 .1532898 .47299195 .14929199 .47099305 .14228821 .43798829 .03527832 .36999513 .011245728 .33799745 .011245728 .29899598 .011245728 .2829895 .043273927 .2829895 .07727051 .2829895 .09927368 .2889862 .121276859 .2999878 .16529846L.33399964 .30233766Z"/>
<path id="font_1_3" d="M.48599244 .38136292C.48999024 .39537049 .48999024 .39736939 .48999024 .40437318 .48999024 .42237855 .47599793 .43138124 .46099855 .43138124 .45098878 .43138124 .43499757 .42536927 .42599488 .41036988 .42399598 .405365 .41600038 .37435914 .4119873 .35635377 .40499879 .33035279 .397995 .30334474 .3919983 .27633668L.34700013 .09628296C.34298707 .08126831 .2999878 .011245728 .23399353 .011245728 .18299866 .011245728 .17199707 .055267335 .17199707 .0922699 .17199707 .1382904 .18899536 .20030213 .22299195 .28833009 .23899842 .3293457 .24299622 .3403473 .24299622 .36035157 .24299622 .405365 .21099854 .4423828 .16099549 .4423828 .06599426 .4423828 .0289917 .29733277 .0289917 .28833009 .0289917 .27833558 .038986207 .27833558 .040985109 .27833558 .050994874 .27833558 .051986696 .28033448 .056991579 .29634095 .083999637 .3903656 .12399292 .42037965 .1579895 .42037965 .1659851 .42037965 .18299866 .42037965 .18299866 .3883667 .18299866 .36335755 .17298889 .3373413 .1659851 .31834413 .12599182 .21231079 .10798645 .1552887 .10798645 .10827637 .10798645 .019256592 .17098999-.0107421879 .22999573-.0107421879 .2689972-.0107421879 .30299378 .0062561037 .33099366 .03425598 .31799317-.017745972 .30599977-.06674194 .2659912-.11973572 .23999024-.15385437 .20199585-.18309021 .1559906-.18309021 .14199829-.18309021 .09700012-.18005371 .07998657-.14074707 .09599304-.14074707 .10899353-.14074707 .12298584-.1287384 .1329956-.11973572 .14299011-.10673523 .14299011-.08773804 .14299011-.056747438 .115997318-.052734376 .10598755-.052734376 .08299255-.052734376 .049987794-.068740848 .049987794-.11773682 .049987794-.16796875 .09399414-.20507813 .1559906-.20507813 .25898744-.20507813 .3619995-.11373901 .3899994-.00074768069L.48599244 .38136292Z"/>
<path id="font_2_6" d="M.44898988 .20022583C.44898988 .3193512 .36698915 .41944886 .25898744 .41944886 .21099854 .41944886 .16799927 .40345765 .13198853 .36842347V.5637665C.1519928 .5577698 .18499756 .55078127 .21699524 .55078127 .33999635 .55078127 .4099884 .6417694 .4099884 .6547699 .4099884 .6607666 .40699769 .6657715 .3999939 .6657715 .39898683 .6657715 .39698792 .6657715 .3919983 .66278079 .37199403 .6537781 .32299806 .6337738 .2559967 .6337738 .21598816 .6337738 .16999817 .6407776 .12298584 .6617737 .114990238 .66477969 .11299133 .66477969 .11099243 .66477969 .100997928 .66477969 .100997928 .6567688 .100997928 .6407776V.34439088C.100997928 .32637025 .100997928 .31835938 .114990238 .31835938 .12199402 .31835938 .12399292 .32136537 .12799073 .32736207 .13899231 .3433838 .17599488 .39746095 .25698854 .39746095 .30899049 .39746095 .33399964 .35139466 .34199525 .33337403 .35798646 .29632569 .3600006 .25727845 .3600006 .20722962 .3600006 .17222595 .3600006 .11222839 .33599855 .07035828 .31199647 .031463624 .2749939 .0055389406 .22898865 .0055389406 .1559906 .0055389406 .09899902 .058380128 .08198547 .11723328 .084991458 .1162262 .08799744 .115234378 .09899902 .115234378 .13198853 .115234378 .14898682 .14022827 .14898682 .16423035 .14898682 .18823242 .13198853 .21322632 .09899902 .21322632 .084991458 .21322632 .049987794 .20622254 .049987794 .16023255 .049987794 .07434082 .11898804-.022460938 .23098755-.022460938 .34700013-.022460938 .44898988 .073349 .44898988 .20022583Z"/>
<path id="font_2_4" d="M.2939911 .64004519C.2939911 .66400149 .2939911 .6660156 .2709961 .6660156 .20899964 .60227969 .12098694 .60227969 .08898926 .60227969V.57128909C.10899353 .57128909 .16799927 .57128909 .21998596 .5972748V.07902527C.21998596 .042999269 .21699524 .0309906 .1269989 .0309906H.09498596V0C.12998963 .0029907227 .21699524 .0029907227 .25698854 .0029907227 .29699708 .0029907227 .38398744 .0029907227 .4189911 0V.0309906H.3869934C.29699708 .0309906 .2939911 .041992189 .2939911 .07902527V.64004519Z"/>
<path id="font_2_3" d="M.45999146 .31976319C.45999146 .39982606 .45498658 .47988893 .41999818 .5539398 .37399293 .65000918 .2919922 .6660156 .25 .6660156 .18998719 .6660156 .116989139 .64001467 .07598877 .54693606 .04399109 .47789 .038986207 .39982606 .038986207 .31976319 .038986207 .24472046 .042999269 .15464783 .083999637 .07859802 .1269989-.0024719239 .19999695-.022460938 .24899292-.022460938 .30299378-.022460938 .3789978-.0014648438 .4229889 .09359741 .45498658 .16265869 .45999146 .2407074 .45999146 .31976319M.24899292-.00047302247C.20999146-.00047302247 .15098572 .024551392 .1329956 .12062073 .12199402 .18066406 .12199402 .2727356 .12199402 .3317871 .12199402 .39582826 .12199402 .46188355 .12998963 .5159149 .14898682 .63500979 .22399903 .64401248 .24899292 .64401248 .28199769 .64401248 .34799195 .6259918 .36698915 .52693179 .3769989 .47088624 .3769989 .39482118 .3769989 .3317871 .3769989 .25672914 .3769989 .18867493 .3659973 .12461853 .35099793 .029556275 .2939911-.00047302247 .24899292-.00047302247Z"/>
<path id="font_2_1" d="M.33099366-.2400055C.33099366-.23701477 .33099366-.23500061 .31399537-.21800232 .18899536-.0920105 .15699768 .09700012 .15699768 .25 .15699768 .42399598 .19499207 .59799197 .31799317 .72299197 .33099366 .73498538 .33099366 .7369995 .33099366 .73999026 .33099366 .746994 .32699586 .75 .32099916 .75 .31098939 .75 .22099304 .6819916 .1619873 .5549927 .11099243 .44499208 .09899902 .33399964 .09899902 .25 .09899902 .17199707 .10998535 .050994874 .16499329-.06201172 .22499085-.18501282 .31098939-.25 .32099916-.25 .32699586-.25 .33099366-.24700928 .33099366-.2400055Z"/>
<path id="font_1_1" d="M.20298767 .0009918213C.20298767 .066986087 .17799378 .10598755 .13899231 .10598755 .10598755 .10598755 .085998538 .08099365 .085998538 .052993776 .085998538 .025985718 .10598755 0 .13899231 0 .15098572 0 .1639862 .0039978029 .17399597 .0129852299 .1769867 .01499939 .17799378 .015991211 .1789856 .015991211 .17999268 .015991211 .18099976 .01499939 .18099976 .0009918213 .18099976-.07316589 .1459961-.13328552 .11299133-.16635132 .101989749-.17736817 .101989749-.17936707 .101989749-.18237305 .101989749-.18936157 .10699463-.19335938 .11199951-.19335938 .12298584-.19335938 .20298767-.116256717 .20298767 .0009918213Z"/>
<path id="font_2_2" d="M.2889862 .25C.2889862 .32798768 .27799989 .44898988 .22299195 .56199648 .16299439 .68499758 .07699585 .75 .066986087 .75 .06098938 .75 .056991579 .74598696 .056991579 .73999026 .056991579 .7369995 .056991579 .73498538 .07598877 .71699526 .17399597 .6179962 .23098755 .45899964 .23098755 .25 .23098755 .07899475 .19400025-.09700012 .069992069-.2230072 .056991579-.23500061 .056991579-.23701477 .056991579-.2400055 .056991579-.2460022 .06098938-.25 .066986087-.25 .07699585-.25 .16699219-.18200684 .22599793-.055007936 .2769928 .054992677 .2889862 .16600037 .2889862 .25Z"/>
<path id="font_2_5" d="M.2899933 .35191346C.37199403 .37893678 .42999269 .4490509 .42999269 .52809146 .42999269 .6100464 .34199525 .6660156 .24598694 .6660156 .14498902 .6660156 .068984989 .60606387 .068984989 .53009036 .068984989 .49710084 .09098816 .47808839 .11999512 .47808839 .15098572 .47808839 .17098999 .50009158 .17098999 .5290985 .17098999 .57910159 .12399292 .57910159 .10899353 .57910159 .13999939 .62802127 .20599365 .64100649 .24198914 .64100649 .2829895 .64100649 .33799745 .6190338 .33799745 .5290985 .33799745 .51708987 .33599855 .45906068 .30999757 .4149933 .27999879 .36691285 .24598694 .36390687 .22099304 .36291505 .21299744 .36190797 .18899536 .35990907 .18199158 .35990907 .17399597 .35890199 .16699219 .35791017 .16699219 .3479004 .16699219 .33691407 .17399597 .33691407 .19099427 .33691407H.23498535C.31698609 .33691407 .35398866 .2686615 .35398866 .17037964 .35398866 .034469606 .2849884 .0055389406 .24099732 .0055389406 .19799805 .0055389406 .12298584 .022491456 .08799744 .08137512 .12298584 .07637024 .1539917 .09837341 .1539917 .1363678 .1539917 .17237854 .1269989 .19238281 .09799194 .19238281 .07398987 .19238281 .041992189 .17837525 .041992189 .1343689 .041992189 .043441774 .1349945-.022460938 .24398804-.022460938 .3659973-.022460938 .45700074 .06838989 .45700074 .17037964 .45700074 .252594 .3939972 .33088685 .2899933 .35191346Z"/>
<path id="font_2_7" d="M.36698915 .31781007V.28579713C.36698915 .05178833 .2630005 .0055389406 .20498657 .0055389406 .18798828 .0055389406 .13398743 .007537842 .10699463 .041778566 .15098572 .041778566 .15899658 .07078552 .15899658 .08778381 .15899658 .118774417 .1349945 .13378906 .11299133 .13378906 .09700012 .13378906 .066986087 .12478638 .066986087 .08578491 .066986087 .018615723 .12098694-.022460938 .20599365-.022460938 .33499146-.022460938 .45700074 .11378479 .45700074 .32881166 .45700074 .5979767 .34199525 .6660156 .25299073 .6660156 .19799805 .6660156 .14898682 .64801028 .10598755 .60298159 .06498718 .5579529 .041992189 .5159302 .041992189 .44088746 .041992189 .31581117 .12998963 .21777344 .24198914 .21777344 .30299378 .21777344 .34399415 .25978089 .36698915 .31781007M.24299622 .24076844C.22698975 .24076844 .18099976 .24076844 .1499939 .3038025 .13198853 .3408203 .13198853 .39085389 .13198853 .43988038 .13198853 .49391175 .13198853 .54093936 .15299988 .5779724 .17999268 .6279907 .21798706 .64100649 .25299073 .64100649 .29899598 .64100649 .33198548 .60697939 .34899903 .5619507 .36099244 .52993777 .36499024 .4669037 .36499024 .42086793 .36499024 .3378296 .33099366 .24076844 .24299622 .24076844Z"/>
</defs>
<path transform="matrix(1.00008,0,0,-1.00006,14.2990269,100.31424)" stroke-width=".19925" stroke-linecap="butt" stroke-miterlimit="10" stroke-linejoin="miter" fill="none" stroke="#00aeef" d="M0 0H85.04128M0 8.50412H85.04128M0 17.00824H85.04128M0 25.51237H85.04128M0 34.0165H85.04128M0 42.52063H85.04128M0 51.02477H85.04128M0 59.52888H85.04128M0 68.03302H85.04128M0 76.53716H85.04128M0 85.0383H85.04128M0 0V85.04128M8.50412 0V85.04128M17.00824 0V85.04128M25.51237 0V85.04128M34.0165 0V85.04128M42.52063 0V85.04128M51.02477 0V85.04128M59.52888 0V85.04128M68.03302 0V85.04128M76.53716 0V85.04128M85.0383 0V85.04128M85.04128 85.04128"/>
<path transform="matrix(1.00008,0,0,-1.00006,14.2990269,100.31424)" stroke-width=".79701" stroke-linecap="butt" stroke-miterlimit="10" stroke-linejoin="miter" fill="none" stroke="#000000" d="M-4.25204 0H87.00827"/>
<path transform="matrix(1.00008,0,0,-1.00006,101.314258,100.31424)" d="M1.0361 0C-.25902 .25902-1.55415 .77707-3.1083 1.68365-1.55415 .51805-1.55415-.51805-3.1083-1.68365-1.55415-.77707-.25902-.25902 1.0361 0Z"/>
<path transform="matrix(1.00008,0,0,-1.00006,101.314258,100.31424)" stroke-width=".79701" stroke-linecap="butt" stroke-linejoin="round" fill="none" stroke="#000000" d="M1.0361 0C-.25902 .25902-1.55415 .77707-3.1083 1.68365-1.55415 .51805-1.55415-.51805-3.1083-1.68365-1.55415-.77707-.25902-.25902 1.0361 0Z"/>
<use data-text="x" xlink:href="#font_1_2" transform="matrix(9.963397,0,0,-9.963197,106.4684,102.459369)"/>
<path transform="matrix(1.00008,0,0,-1.00006,14.2990269,100.31424)" stroke-width=".79701" stroke-linecap="butt" stroke-miterlimit="10" stroke-linejoin="miter" fill="none" stroke="#000000" d="M0-4.25204V87.00827"/>
<path transform="matrix(0,-1.00006,-1.00008,-0,14.2990269,13.300751)" d="M1.0361 0C-.25902 .25902-1.55415 .77707-3.1083 1.68365-1.55415 .51805-1.55415-.51805-3.1083-1.68365-1.55415-.77707-.25902-.25902 1.0361 0Z"/>
<path transform="matrix(0,-1.00006,-1.00008,-0,14.2990269,13.300751)" stroke-width=".79701" stroke-linecap="butt" stroke-linejoin="round" fill="none" stroke="#000000" d="M1.0361 0C-.25902 .25902-1.55415 .77707-3.1083 1.68365-1.55415 .51805-1.55415-.51805-3.1083-1.68365-1.55415-.77707-.25902-.25902 1.0361 0Z"/>
<use data-text="y" xlink:href="#font_1_3" transform="matrix(9.963397,0,0,-9.963197,11.677818,6.2095949)"/>
<path transform="matrix(1.00008,0,0,-1.00006,14.2990269,100.31424)" stroke-width=".3985" stroke-linecap="butt" stroke-miterlimit="10" stroke-linejoin="miter" fill="none" stroke="#000000" d="M42.52066 .59776V-.59776"/>
<use data-text="5" xlink:href="#font_2_6" transform="matrix(9.963397,0,0,-9.963197,54.332227,110.852878)"/>
<path transform="matrix(1.00008,0,0,-1.00006,14.2990269,100.31424)" stroke-width=".3985" stroke-linecap="butt" stroke-miterlimit="10" stroke-linejoin="miter" fill="none" stroke="#000000" d="M85.04132 .59776V-.59776"/>
<use data-text="1" xlink:href="#font_2_4" transform="matrix(9.963397,0,0,-9.963197,94.365428,110.852878)"/>
<use data-text="0" xlink:href="#font_2_3" transform="matrix(9.963397,0,0,-9.963197,99.34712,110.852878)"/>
<path transform="matrix(1.00008,0,0,-1.00006,14.2990269,100.31424)" stroke-width=".3985" stroke-linecap="butt" stroke-miterlimit="10" stroke-linejoin="miter" fill="none" stroke="#000000" d="M.59776 42.52066H-.59776"/>
<use data-text="5" xlink:href="#font_2_6" transform="matrix(9.963397,0,0,-9.963197,5.199295,61.00188)"/>
<path transform="matrix(1.00008,0,0,-1.00006,14.2990269,100.31424)" stroke-width=".3985" stroke-linecap="butt" stroke-miterlimit="10" stroke-linejoin="miter" fill="none" stroke="#000000" d="M.59776 85.04132H-.59776"/>
<use data-text="1" xlink:href="#font_2_4" transform="matrix(9.963397,0,0,-9.963197,.21790314,18.478333)"/>
<use data-text="0" xlink:href="#font_2_3" transform="matrix(9.963397,0,0,-9.963197,5.1996,18.478333)"/>
<path transform="matrix(1.00008,0,0,-1.00006,14.2990269,100.31424)" d="M86.5376 8.5043C86.5376 9.32967 85.86853 9.99873 85.04317 9.99873 84.21782 9.99873 83.54874 9.32967 83.54874 8.5043 83.54874 7.67894 84.21782 7.00987 85.04317 7.00987 85.86853 7.00987 86.5376 7.67894 86.5376 8.5043ZM85.04317 8.5043"/>
<path transform="matrix(1.00008,0,0,-1.00006,14.2990269,100.31424)" stroke-width=".3985" stroke-linecap="butt" stroke-miterlimit="10" stroke-linejoin="miter" fill="none" stroke="#000000" d="M86.5376 8.5043C86.5376 9.32967 85.86853 9.99873 85.04317 9.99873 84.21782 9.99873 83.54874 9.32967 83.54874 8.5043 83.54874 7.67894 84.21782 7.00987 85.04317 7.00987 85.86853 7.00987 86.5376 7.67894 86.5376 8.5043ZM85.04317 8.5043"/>
<path transform="matrix(1.00008,0,0,-1.00006,14.2990269,100.31424)" d="M82.2536 11.69238H116.01564V28.29628H82.2536Z" fill="#ffffff"/>
<use data-text="(" xlink:href="#font_2_1" transform="matrix(9.963397,0,0,-9.963197,99.87987,82.80919)"/>
<use data-text="1" xlink:href="#font_2_4" transform="matrix(9.963397,0,0,-9.963197,103.74566,82.80919)"/>
<use data-text="0" xlink:href="#font_2_3" transform="matrix(9.963397,0,0,-9.963197,108.727359,82.80919)"/>
<use data-text="," xlink:href="#font_1_1" transform="matrix(9.963397,0,0,-9.963197,113.71797,82.80919)"/>
<use data-text="1" xlink:href="#font_2_4" transform="matrix(9.963397,0,0,-9.963197,118.146327,82.80919)"/>
<use data-text=")" xlink:href="#font_2_2" transform="matrix(9.963397,0,0,-9.963197,123.12802,82.80919)"/>
<path transform="matrix(1.00008,0,0,-1.00006,14.2990269,100.31424)" d="M27.00737 8.5043C27.00737 9.32967 26.3383 9.99873 25.51294 9.99873 24.68758 9.99873 24.01851 9.32967 24.01851 8.5043 24.01851 7.67894 24.68758 7.00987 25.51294 7.00987 26.3383 7.00987 27.00737 7.67894 27.00737 8.5043ZM25.51294 8.5043"/>
<path transform="matrix(1.00008,0,0,-1.00006,14.2990269,100.31424)" stroke-width=".3985" stroke-linecap="butt" stroke-miterlimit="10" stroke-linejoin="miter" fill="none" stroke="#000000" d="M27.00737 8.5043C27.00737 9.32967 26.3383 9.99873 25.51294 9.99873 24.68758 9.99873 24.01851 9.32967 24.01851 8.5043 24.01851 7.67894 24.68758 7.00987 25.51294 7.00987 26.3383 7.00987 27.00737 7.67894 27.00737 8.5043ZM25.51294 8.5043"/>
<path transform="matrix(1.00008,0,0,-1.00006,14.2990269,100.31424)" d="M-5.45947 8.70355H23.321152V25.307452H-5.45947Z" fill="#ffffff"/>
<use data-text="(" xlink:href="#font_2_1" transform="matrix(9.963397,0,0,-9.963197,12.159859,85.79837)"/>
<use data-text="3" xlink:href="#font_2_5" transform="matrix(9.963397,0,0,-9.963197,16.02565,85.79837)"/>
<use data-text="," xlink:href="#font_1_1" transform="matrix(9.963397,0,0,-9.963197,21.016564,85.79837)"/>
<use data-text="1" xlink:href="#font_2_4" transform="matrix(9.963397,0,0,-9.963197,25.444924,85.79837)"/>
<use data-text=")" xlink:href="#font_2_2" transform="matrix(9.963397,0,0,-9.963197,30.42662,85.79837)"/>
<path transform="matrix(1.00008,0,0,-1.00006,14.2990269,100.31424)" d="M44.01599 76.53885C44.01599 77.36421 43.34692 78.03328 42.52156 78.03328 41.69621 78.03328 41.02713 77.36421 41.02713 76.53885 41.02713 75.71349 41.69621 75.04442 42.52156 75.04442 43.34692 75.04442 44.01599 75.71349 44.01599 76.53885ZM42.52156 76.53885"/>
<path transform="matrix(1.00008,0,0,-1.00006,14.2990269,100.31424)" stroke-width=".3985" stroke-linecap="butt" stroke-miterlimit="10" stroke-linejoin="miter" fill="none" stroke="#000000" d="M44.01599 76.53885C44.01599 77.36421 43.34692 78.03328 42.52156 78.03328 41.69621 78.03328 41.02713 77.36421 41.02713 76.53885 41.02713 75.71349 41.69621 75.04442 42.52156 75.04442 43.34692 75.04442 44.01599 75.71349 44.01599 76.53885ZM42.52156 76.53885"/>
<path transform="matrix(1.00008,0,0,-1.00006,14.2990269,100.31424)" d="M44.71338 68.2369H73.494V84.840808H44.71338Z" fill="#ffffff"/>
<use data-text="(" xlink:href="#font_2_1" transform="matrix(9.963397,0,0,-9.963197,62.33687,26.261803)"/>
<use data-text="5" xlink:href="#font_2_6" transform="matrix(9.963397,0,0,-9.963197,66.20266,26.261803)"/>
<use data-text="," xlink:href="#font_1_1" transform="matrix(9.963397,0,0,-9.963197,71.19357,26.261803)"/>
<use data-text="9" xlink:href="#font_2_7" transform="matrix(9.963397,0,0,-9.963197,75.62193,26.261803)"/>
<use data-text=")" xlink:href="#font_2_2" transform="matrix(9.963397,0,0,-9.963197,80.60363,26.261803)"/>
<path transform="matrix(1.00008,0,0,-1.00006,14.2990269,100.31424)" stroke-width=".79701" stroke-linecap="butt" stroke-miterlimit="10" stroke-linejoin="miter" fill="none" stroke="#000000" d="M85.04317 8.5043 42.52156 76.53885 25.51294 8.5043Z"/>
</svg>
