<svg xmlns="http://www.w3.org/2000/svg" xmlns:xlink="http://www.w3.org/1999/xlink" version="1.1" width="105pt" height="67pt" viewBox="0 0 105 67">
<defs>
<path id="font_1_2" d="M.16299439 .4569702C.116989139 .486969 .11299133 .52098086 .11299133 .5379791 .11299133 .598999 .17799378 .64100649 .24899292 .64100649 .32199098 .64100649 .38598634 .58898928 .38598634 .51698306 .38598634 .45996095 .34700013 .4119568 .2869873 .37695313L.16299439 .4569702M.30899049 .36193849C.3809967 .3989563 .42999269 .45095826 .42999269 .51698306 .42999269 .6090088 .34098817 .6660156 .25 .6660156 .1499939 .6660156 .068984989 .59199526 .068984989 .49897767 .068984989 .4809723 .070999149 .43595887 .11299133 .38894654 .12399292 .37695313 .16099549 .35194398 .18598938 .33494569 .12799073 .30592347 .041992189 .24984741 .041992189 .15072632 .041992189 .04458618 .14399719-.022460938 .24899292-.022460938 .3619995-.022460938 .45700074 .06060791 .45700074 .16773987 .45700074 .20379639 .44599916 .24885559 .4079895 .2909088 .3889923 .31193543 .37298585 .3219452 .30899049 .36193849M.20899964 .3199463 .33198548 .24183655C.3600006 .2228241 .40699769 .19277954 .40699769 .13169861 .40699769 .05760193 .33198548 .0055389406 .25 .0055389406 .1639862 .0055389406 .09199524 .067611698 .09199524 .15072632 .09199524 .20880127 .12399292 .27288819 .20899964 .3199463Z"/>
<path id="font_1_1" d="M.45999146 .31976319C.45999146 .39982606 .45498658 .47988893 .41999818 .5539398 .37399293 .65000918 .2919922 .6660156 .25 .6660156 .18998719 .6660156 .116989139 .64001467 .07598877 .54693606 .04399109 .47789 .038986207 .39982606 .038986207 .31976319 .038986207 .24472046 .042999269 .15464783 .083999637 .07859802 .1269989-.0024719239 .19999695-.022460938 .24899292-.022460938 .30299378-.022460938 .3789978-.0014648438 .4229889 .09359741 .45498658 .16265869 .45999146 .2407074 .45999146 .31976319M.24899292-.00047302247C.20999146-.00047302247 .15098572 .024551392 .1329956 .12062073 .12199402 .18066406 .12199402 .2727356 .12199402 .3317871 .12199402 .39582826 .12199402 .46188355 .12998963 .5159149 .14898682 .63500979 .22399903 .64401248 .24899292 .64401248 .28199769 .64401248 .34799195 .6259918 .36698915 .52693179 .3769989 .47088624 .3769989 .39482118 .3769989 .3317871 .3769989 .25672914 .3769989 .18867493 .3659973 .12461853 .35099793 .029556275 .2939911-.00047302247 .24899292-.00047302247Z"/>
<path id="font_2_1" d="M.5069885 .24998474C.5069885 .3710022 .4099884 .4650116 .2919922 .4650116 .17199707 .4650116 .07699585 .36799623 .07699585 .25097657 .07699585 .1299591 .17399597 .035949708 .2919922 .035949708 .4119873 .035949708 .5069885 .13296509 .5069885 .24998474M.2919922 .08496094C.19799805 .08496094 .12599182 .16096497 .12599182 .24998474 .12599182 .34300233 .19999695 .41601563 .2919922 .41601563 .38598634 .41601563 .45799256 .33999635 .45799256 .25097657 .45799256 .15795899 .38398744 .08496094 .2919922 .08496094Z"/>
<path id="font_3_1" d="M.33399964 .30233766C.33999635 .32835389 .36299134 .42037965 .43299867 .42037965 .43798829 .42037965 .46199037 .42037965 .48298646 .40734864 .45498658 .402359 .43499757 .37734986 .43499757 .35334779 .43499757 .33735658 .44599916 .31835938 .47299195 .31835938 .49499513 .31835938 .5269928 .3363495 .5269928 .37635804 .5269928 .42837525 .46798707 .4423828 .43399049 .4423828 .37599183 .4423828 .34098817 .38935853 .32899476 .36634828 .3039856 .43237306 .25 .4423828 .22099304 .4423828 .116989139 .4423828 .05999756 .3133545 .05999756 .28834535 .05999756 .27833558 .069992069 .27833558 .07199097 .27833558 .07998657 .27833558 .08299255 .28033448 .084991458 .28933717 .11898804 .39535523 .18499756 .42037965 .21899414 .42037965 .23799134 .42037965 .272995 .4113617 .272995 .35334779 .272995 .32235719 .2559967 .25532533 .21899414 .11528015 .20298767 .053268434 .16799927 .011245728 .12399292 .011245728 .117996219 .011245728 .09498596 .011245728 .07398987 .024276734 .09899902 .029266358 .12098694 .05027771 .12098694 .07827759 .12098694 .105270389 .09899902 .11328125 .083999637 .11328125 .053985597 .11328125 .0289917 .08728027 .0289917 .055267335 .0289917 .009246826 .07899475-.0107421879 .12298584-.0107421879 .18899536-.0107421879 .22499085 .059280397 .22799683 .0652771 .23999024 .028274537 .27598573-.0107421879 .33599855-.0107421879 .43899537-.0107421879 .49598695 .118270877 .49598695 .14328003 .49598695 .1532898 .4869995 .1532898 .48399354 .1532898 .47499085 .1532898 .47299195 .14929199 .47099305 .14228821 .43798829 .03527832 .36999513 .011245728 .33799745 .011245728 .29899598 .011245728 .2829895 .043273927 .2829895 .07727051 .2829895 .09927368 .2889862 .121276859 .2999878 .16529846L.33399964 .30233766Z"/>
<path id="font_3_2" d="M.48599244 .38136292C.48999024 .39537049 .48999024 .39736939 .48999024 .40437318 .48999024 .42237855 .47599793 .43138124 .46099855 .43138124 .45098878 .43138124 .43499757 .42536927 .42599488 .41036988 .42399598 .405365 .41600038 .37435914 .4119873 .35635377 .40499879 .33035279 .397995 .30334474 .3919983 .27633668L.34700013 .09628296C.34298707 .08126831 .2999878 .011245728 .23399353 .011245728 .18299866 .011245728 .17199707 .055267335 .17199707 .0922699 .17199707 .1382904 .18899536 .20030213 .22299195 .28833009 .23899842 .3293457 .24299622 .3403473 .24299622 .36035157 .24299622 .405365 .21099854 .4423828 .16099549 .4423828 .06599426 .4423828 .0289917 .29733277 .0289917 .28833009 .0289917 .27833558 .038986207 .27833558 .040985109 .27833558 .050994874 .27833558 .051986696 .28033448 .056991579 .29634095 .083999637 .3903656 .12399292 .42037965 .1579895 .42037965 .1659851 .42037965 .18299866 .42037965 .18299866 .3883667 .18299866 .36335755 .17298889 .3373413 .1659851 .31834413 .12599182 .21231079 .10798645 .1552887 .10798645 .10827637 .10798645 .019256592 .17098999-.0107421879 .22999573-.0107421879 .2689972-.0107421879 .30299378 .0062561037 .33099366 .03425598 .31799317-.017745972 .30599977-.06674194 .2659912-.11973572 .23999024-.15385437 .20199585-.18309021 .1559906-.18309021 .14199829-.18309021 .09700012-.18005371 .07998657-.14074707 .09599304-.14074707 .10899353-.14074707 .12298584-.1287384 .1329956-.11973572 .14299011-.10673523 .14299011-.08773804 .14299011-.056747438 .115997318-.052734376 .10598755-.052734376 .08299255-.052734376 .049987794-.068740848 .049987794-.11773682 .049987794-.16796875 .09399414-.20507813 .1559906-.20507813 .25898744-.20507813 .3619995-.11373901 .3899994-.00074768069L.48599244 .38136292Z"/>
</defs>
<path transform="matrix(1.00006,0,0,-1.00002,23.973359,61.803918)" stroke-width=".79701" stroke-linecap="butt" stroke-miterlimit="10" stroke-linejoin="miter" fill="none" stroke="#000000" d="M0 0H56.6968L9.97867 56.6968Z"/>
<path transform="matrix(1.00006,0,0,-1.00002,23.973359,61.803918)" stroke-width=".79701" stroke-linecap="butt" stroke-miterlimit="10" stroke-linejoin="miter" fill="none" stroke="#000000" d="M-22.67752 0H79.37135"/>
<path transform="matrix(1.00006,0,0,-1.00002,23.973359,61.803918)" stroke-width=".79701" stroke-linecap="butt" stroke-miterlimit="10" stroke-linejoin="miter" fill="none" stroke="#000000" d="M-22.67752 56.69382H79.37135"/>
<path transform="matrix(1.00006,0,0,-1.00002,23.973359,61.803918)" stroke-width=".79701" stroke-linecap="butt" stroke-miterlimit="10" stroke-linejoin="miter" fill="none" stroke="#000000" d="M0 0H74.0389"/>
<path transform="matrix(1.00006,0,0,-1.00002,98.41523,61.803918)" stroke-width=".79701" stroke-linecap="round" stroke-linejoin="round" fill="none" stroke="#000000" d="M-2.55046 3.11095C-2.0845 1.24435-1.04614 .36295 0 0-1.04614-.36295-2.0845-1.24435-2.55046-3.11095"/>
<path transform="matrix(1.00006,0,0,-1.00002,23.973359,61.803918)" stroke-width=".79701" stroke-linecap="butt" stroke-miterlimit="10" stroke-linejoin="miter" fill="none" stroke="#000000" d="M9.97867 56.6968 74.03891 56.69385"/>
<path transform="matrix(1.0000399,.000050001,.000050002998,-1,98.415248,5.1089289)" stroke-width=".79701" stroke-linecap="round" stroke-linejoin="round" fill="none" stroke="#000000" d="M-2.55046 3.11095C-2.0845 1.24435-1.04614 .36295 0 0-1.04614-.36295-2.0845-1.24435-2.55046-3.11095"/>
<path transform="matrix(1.00006,0,0,-1.00002,23.973359,61.803918)" stroke-width=".3985" stroke-linecap="butt" stroke-miterlimit="10" stroke-linejoin="miter" fill="none" stroke="#ff0000" d="M13.60663 .99626C13.60663 6.60252 8.86497 12.25356 3.34384 13.22707"/>
<path transform="matrix(0,1.00002,1.00006,0,37.580804,60.807638)" d="M.797 0C-.19925 .19925-1.19551 .59775-2.39102 1.29512-1.19551 .3985-1.19551-.3985-2.39102-1.29512-1.19551-.59775-.19925-.19925 .797 0Z" fill="#ff0000"/>
<path transform="matrix(0,1.00002,1.00006,0,37.580804,60.807638)" stroke-width=".3985" stroke-linecap="butt" stroke-linejoin="round" fill="none" stroke="#ff0000" d="M.797 0C-.19925 .19925-1.19551 .59775-2.39102 1.29512-1.19551 .3985-1.19551-.3985-2.39102-1.29512-1.19551-.59775-.19925-.19925 .797 0Z"/>
<path transform="matrix(-.98485907,-.17363347,-.17364042,.9848197,27.317399,48.576604)" d="M.797 0C-.19925 .19925-1.19551 .59775-2.39102 1.29512-1.19551 .3985-1.19551-.3985-2.39102-1.29512-1.19551-.59775-.19925-.19925 .797 0Z" fill="#ff0000"/>
<path transform="matrix(-.98485907,-.17363347,-.17364042,.9848197,27.317399,48.576604)" stroke-width=".3985" stroke-linecap="butt" stroke-linejoin="round" fill="none" stroke="#ff0000" d="M.797 0C-.19925 .19925-1.19551 .59775-2.39102 1.29512-1.19551 .3985-1.19551-.3985-2.39102-1.29512-1.19551-.59775-.19925-.19925 .797 0Z"/>
<use data-text="8" xlink:href="#font_1_2" transform="matrix(9.963197,0,0,-9.962799,37.9172,54.49477)" fill="#ff0000"/>
<use data-text="0" xlink:href="#font_1_1" transform="matrix(9.963197,0,0,-9.962799,42.898797,54.49477)" fill="#ff0000"/>
<use data-text="&#x25e6;" xlink:href="#font_2_1" transform="matrix(6.9742186,0,0,-6.97394,47.88079,50.878698)" fill="#ff0000"/>
<path transform="matrix(1.00006,0,0,-1.00002,23.973359,61.803918)" stroke-width=".3985" stroke-linecap="butt" stroke-miterlimit="10" stroke-linejoin="miter" fill="none" stroke="#ff0000" d="M28.12074 55.70053C28.12074 51.88611 26.2087 47.27003 23.51152 44.57286"/>
<path transform="matrix(0,-1.00002,-1.00006,-0,52.095788,6.102272)" d="M.797 0C-.19925 .19925-1.19551 .59775-2.39102 1.29512-1.19551 .3985-1.19551-.3985-2.39102-1.29512-1.19551-.59775-.19925-.19925 .797 0Z" fill="#ff0000"/>
<path transform="matrix(0,-1.00002,-1.00006,-0,52.095788,6.102272)" stroke-width=".3985" stroke-linecap="butt" stroke-linejoin="round" fill="none" stroke="#ff0000" d="M.797 0C-.19925 .19925-1.19551 .59775-2.39102 1.29512-1.19551 .3985-1.19551-.3985-2.39102-1.29512-1.19551-.59775-.19925-.19925 .797 0Z"/>
<path transform="matrix(-.70714238,.70711418,.70714238,.70711418,47.486307,17.230145)" d="M.797 0C-.19925 .19925-1.19551 .59775-2.39102 1.29512-1.19551 .3985-1.19551-.3985-2.39102-1.29512-1.19551-.59775-.19925-.19925 .797 0Z" fill="#ff0000"/>
<path transform="matrix(-.70714238,.70711418,.70714238,.70711418,47.486307,17.230145)" stroke-width=".3985" stroke-linecap="butt" stroke-linejoin="round" fill="none" stroke="#ff0000" d="M.797 0C-.19925 .19925-1.19551 .59775-2.39102 1.29512-1.19551 .3985-1.19551-.3985-2.39102-1.29512-1.19551-.59775-.19925-.19925 .797 0Z"/>
<use data-text="x" xlink:href="#font_3_1" transform="matrix(9.963197,0,0,-9.962799,54.234174,16.186005)" fill="#ff0000"/>
<path transform="matrix(1.00006,0,0,-1.00002,23.973359,61.803918)" stroke-width=".3985" stroke-linecap="butt" stroke-miterlimit="10" stroke-linejoin="miter" fill="none" stroke="#ff0000" d="M22.10228 43.16423C18.62308 39.68503 12.66025 37.80428 7.81451 38.65721"/>
<path transform="matrix(.70714238,-.70711418,-.70714238,-.70711418,46.076944,18.638833)" d="M.797 0C-.19925 .19925-1.19551 .59775-2.39102 1.29512-1.19551 .3985-1.19551-.3985-2.39102-1.29512-1.19551-.59775-.19925-.19925 .797 0Z" fill="#ff0000"/>
<path transform="matrix(.70714238,-.70711418,-.70714238,-.70711418,46.076944,18.638833)" stroke-width=".3985" stroke-linecap="butt" stroke-linejoin="round" fill="none" stroke="#ff0000" d="M.797 0C-.19925 .19925-1.19551 .59775-2.39102 1.29512-1.19551 .3985-1.19551-.3985-2.39102-1.29512-1.19551-.59775-.19925-.19925 .797 0Z"/>
<path transform="matrix(-.98490908,-.17336348,-.1733704,.9848697,31.788338,23.145932)" d="M.797 0C-.19925 .19925-1.19551 .59775-2.39102 1.29512-1.19551 .3985-1.19551-.3985-2.39102-1.29512-1.19551-.59775-.19925-.19925 .797 0Z" fill="#ff0000"/>
<path transform="matrix(-.98490908,-.17336348,-.1733704,.9848697,31.788338,23.145932)" stroke-width=".3985" stroke-linecap="butt" stroke-linejoin="round" fill="none" stroke="#ff0000" d="M.797 0C-.19925 .19925-1.19551 .59775-2.39102 1.29512-1.19551 .3985-1.19551-.3985-2.39102-1.29512-1.19551-.59775-.19925-.19925 .797 0Z"/>
<use data-text="x" xlink:href="#font_3_1" transform="matrix(9.963197,0,0,-9.962799,36.56311,30.216284)" fill="#ff0000"/>
<path transform="matrix(1.00006,0,0,-1.00002,23.973359,61.803918)" stroke-width=".3985" stroke-linecap="butt" stroke-miterlimit="10" stroke-linejoin="miter" fill="none" stroke="#ff0000" d="M65.76765 .99626C65.76765 5.00977 61.70656 9.07086 56.6968 9.07086 54.59212 9.07086 52.55196 8.33783 51.69676 7.63295"/>
<path transform="matrix(0,1.00002,1.00006,0,89.74495,60.807638)" d="M.797 0C-.19925 .19925-1.19551 .59775-2.39102 1.29512-1.19551 .3985-1.19551-.3985-2.39102-1.29512-1.19551-.59775-.19925-.19925 .797 0Z" fill="#ff0000"/>
<path transform="matrix(0,1.00002,1.00006,0,89.74495,60.807638)" stroke-width=".3985" stroke-linecap="butt" stroke-linejoin="round" fill="none" stroke="#ff0000" d="M.797 0C-.19925 .19925-1.19551 .59775-2.39102 1.29512-1.19551 .3985-1.19551-.3985-2.39102-1.29512-1.19551-.59775-.19925-.19925 .797 0Z"/>
<path transform="matrix(-.77171626,.63594278,.63596817,.7716854,75.67322,54.170797)" d="M.797 0C-.19925 .19925-1.19551 .59775-2.39102 1.29512-1.19551 .3985-1.19551-.3985-2.39102-1.29512-1.19551-.59775-.19925-.19925 .797 0Z" fill="#ff0000"/>
<path transform="matrix(-.77171626,.63594278,.63596817,.7716854,75.67322,54.170797)" stroke-width=".3985" stroke-linecap="butt" stroke-linejoin="round" fill="none" stroke="#ff0000" d="M.797 0C-.19925 .19925-1.19551 .59775-2.39102 1.29512-1.19551 .3985-1.19551-.3985-2.39102-1.29512-1.19551-.59775-.19925-.19925 .797 0Z"/>
<use data-text="y" xlink:href="#font_3_2" transform="matrix(9.963197,0,0,-9.962799,81.92183,48.142644)" fill="#ff0000"/>
</svg>
