<?xml version="1.0" encoding="UTF-8"?>
<svg xmlns="http://www.w3.org/2000/svg" xmlns:xlink="http://www.w3.org/1999/xlink" width="147pt" height="89pt" viewBox="0 0 147 89" version="1.1">
<g id="surface1">
<path style="fill:none;stroke-width:0.79701;stroke-linecap:butt;stroke-linejoin:miter;stroke:rgb(0%,0%,100%);stroke-opacity:1;stroke-miterlimit:10;" d="M 0.00137611 0.000358273 L 0.00137611 7.086154 L 7.087101 7.086154 L 7.087101 0.000358273 Z M 0.00137611 0.000358273 " transform="matrix(1.00003,0,0,-1.00002,2.295499,87.039421)"/>
<path style="fill:none;stroke-width:0.79701;stroke-linecap:butt;stroke-linejoin:miter;stroke:rgb(0%,0%,100%);stroke-opacity:1;stroke-miterlimit:10;" d="M 0.00137611 56.694537 L 5.669175 54.425051 L 7.938638 60.096813 L 2.266933 62.362392 L 0.00137611 56.694537 " transform="matrix(1.00003,0,0,-1.00002,2.295499,87.039421)"/>
<path style="fill:none;stroke-width:0.79701;stroke-linecap:butt;stroke-linejoin:miter;stroke:rgb(0%,0%,100%);stroke-opacity:1;stroke-miterlimit:10;" d="M 0.00137611 85.041626 L 0.00137611 80.22141 L 4.817638 80.22141 L 4.817638 85.041626 Z M 0.00137611 85.041626 " transform="matrix(1.00003,0,0,-1.00002,2.295499,87.039421)"/>
<path style="fill:none;stroke-width:0.79701;stroke-linecap:butt;stroke-linejoin:miter;stroke:rgb(0%,0%,0%);stroke-opacity:1;stroke-miterlimit:10;" d="M 0.00137611 0.000358273 L 141.735405 0.000358273 L 0.00137611 56.694537 L 11.336974 85.041626 L 0.00137611 85.041626 Z M 0.00137611 0.000358273 " transform="matrix(1.00003,0,0,-1.00002,2.295499,87.039421)"/>
</g>
</svg>
