<svg xmlns="http://www.w3.org/2000/svg" xmlns:xlink="http://www.w3.org/1999/xlink" version="1.1" width="143pt" height="61pt" viewBox="0 0 143 61">
<defs>
<path id="font_1_6" d="M.16299439 .4569702C.116989139 .486969 .11299133 .52098086 .11299133 .5379791 .11299133 .598999 .17799378 .64100649 .24899292 .64100649 .32199098 .64100649 .38598634 .58898928 .38598634 .51698306 .38598634 .45996095 .34700013 .4119568 .2869873 .37695313L.16299439 .4569702M.30899049 .36193849C.3809967 .3989563 .42999269 .45095826 .42999269 .51698306 .42999269 .6090088 .34098817 .6660156 .25 .6660156 .1499939 .6660156 .068984989 .59199526 .068984989 .49897767 .068984989 .4809723 .070999149 .43595887 .11299133 .38894654 .12399292 .37695313 .16099549 .35194398 .18598938 .33494569 .12799073 .30592347 .041992189 .24984741 .041992189 .15072632 .041992189 .04458618 .14399719-.022460938 .24899292-.022460938 .3619995-.022460938 .45700074 .06060791 .45700074 .16773987 .45700074 .20379639 .44599916 .24885559 .4079895 .2909088 .3889923 .31193543 .37298585 .3219452 .30899049 .36193849M.20899964 .3199463 .33198548 .24183655C.3600006 .2228241 .40699769 .19277954 .40699769 .13169861 .40699769 .05760193 .33198548 .0055389406 .25 .0055389406 .1639862 .0055389406 .09199524 .067611698 .09199524 .15072632 .09199524 .20880127 .12399292 .27288819 .20899964 .3199463Z"/>
<path id="font_2_1" d="M.20599365 .3996582H.2999878C.31999208 .3996582 .32998658 .3996582 .32998658 .41966249 .32998658 .43066407 .31999208 .43066407 .3019867 .43066407H.21398926C.25 .5724945 .25498963 .59246829 .25498963 .59846499 .25498963 .61546328 .24299622 .62545779 .22599793 .62545779 .22299195 .62545779 .19499207 .62446597 .18598938 .58947756L.14698792 .43066407H.052993776C.032989503 .43066407 .022994996 .43066407 .022994996 .4116516 .022994996 .3996582 .0309906 .3996582 .050994874 .3996582H.13899231C.066986087 .11608887 .06298828 .099121097 .06298828 .08114624 .06298828 .02722168 .100997928-.0107421879 .15499878-.0107421879 .25698854-.0107421879 .31399537 .13505554 .31399537 .14305115 .31399537 .1530304 .30599977 .1530304 .3019867 .1530304 .29299928 .1530304 .2919922 .15003968 .2869873 .13905335 .24398804 .035217287 .19099427 .011245728 .15699768 .011245728 .13598633 .011245728 .12599182 .024230957 .12599182 .057174684 .12599182 .08114624 .12799073 .088134769 .13198853 .10510254L.20599365 .3996582Z"/>
<path id="font_1_1" d="M.40899659 .23046875H.6879883C.70199587 .23046875 .72099307 .23046875 .72099307 .25045777 .72099307 .27046205 .70199587 .27046205 .6879883 .27046205H.40899659V.5500183C.40899659 .56399539 .40899659 .5830078 .3889923 .5830078 .36898805 .5830078 .36898805 .56399539 .36898805 .5500183V.27046205H.08898926C.07499695 .27046205 .055999757 .27046205 .055999757 .25045777 .055999757 .23046875 .07499695 .23046875 .08898926 .23046875H.36898805V-.05000305C.36898805-.06401062 .36898805-.08300781 .3889923-.08300781 .40899659-.08300781 .40899659-.06401062 .40899659-.05000305V.23046875Z"/>
<path id="font_1_4" d="M.2899933 .35191346C.37199403 .37893678 .42999269 .4490509 .42999269 .52809146 .42999269 .6100464 .34199525 .6660156 .24598694 .6660156 .14498902 .6660156 .068984989 .60606387 .068984989 .53009036 .068984989 .49710084 .09098816 .47808839 .11999512 .47808839 .15098572 .47808839 .17098999 .50009158 .17098999 .5290985 .17098999 .57910159 .12399292 .57910159 .10899353 .57910159 .13999939 .62802127 .20599365 .64100649 .24198914 .64100649 .2829895 .64100649 .33799745 .6190338 .33799745 .5290985 .33799745 .51708987 .33599855 .45906068 .30999757 .4149933 .27999879 .36691285 .24598694 .36390687 .22099304 .36291505 .21299744 .36190797 .18899536 .35990907 .18199158 .35990907 .17399597 .35890199 .16699219 .35791017 .16699219 .3479004 .16699219 .33691407 .17399597 .33691407 .19099427 .33691407H.23498535C.31698609 .33691407 .35398866 .2686615 .35398866 .17037964 .35398866 .034469606 .2849884 .0055389406 .24099732 .0055389406 .19799805 .0055389406 .12298584 .022491456 .08799744 .08137512 .12298584 .07637024 .1539917 .09837341 .1539917 .1363678 .1539917 .17237854 .1269989 .19238281 .09799194 .19238281 .07398987 .19238281 .041992189 .17837525 .041992189 .1343689 .041992189 .043441774 .1349945-.022460938 .24398804-.022460938 .3659973-.022460938 .45700074 .06838989 .45700074 .17037964 .45700074 .252594 .3939972 .33088685 .2899933 .35191346Z"/>
<path id="font_1_3" d="M.2939911 .64004519C.2939911 .66400149 .2939911 .6660156 .2709961 .6660156 .20899964 .60227969 .12098694 .60227969 .08898926 .60227969V.57128909C.10899353 .57128909 .16799927 .57128909 .21998596 .5972748V.07902527C.21998596 .042999269 .21699524 .0309906 .1269989 .0309906H.09498596V0C.12998963 .0029907227 .21699524 .0029907227 .25698854 .0029907227 .29699708 .0029907227 .38398744 .0029907227 .4189911 0V.0309906H.3869934C.29699708 .0309906 .2939911 .041992189 .2939911 .07902527V.64004519Z"/>
<path id="font_1_2" d="M.45999146 .31976319C.45999146 .39982606 .45498658 .47988893 .41999818 .5539398 .37399293 .65000918 .2919922 .6660156 .25 .6660156 .18998719 .6660156 .116989139 .64001467 .07598877 .54693606 .04399109 .47789 .038986207 .39982606 .038986207 .31976319 .038986207 .24472046 .042999269 .15464783 .083999637 .07859802 .1269989-.0024719239 .19999695-.022460938 .24899292-.022460938 .30299378-.022460938 .3789978-.0014648438 .4229889 .09359741 .45498658 .16265869 .45999146 .2407074 .45999146 .31976319M.24899292-.00047302247C.20999146-.00047302247 .15098572 .024551392 .1329956 .12062073 .12199402 .18066406 .12199402 .2727356 .12199402 .3317871 .12199402 .39582826 .12199402 .46188355 .12998963 .5159149 .14898682 .63500979 .22399903 .64401248 .24899292 .64401248 .28199769 .64401248 .34799195 .6259918 .36698915 .52693179 .3769989 .47088624 .3769989 .39482118 .3769989 .3317871 .3769989 .25672914 .3769989 .18867493 .3659973 .12461853 .35099793 .029556275 .2939911-.00047302247 .24899292-.00047302247Z"/>
<path id="font_3_1" d="M.5069885 .24998474C.5069885 .3710022 .4099884 .4650116 .2919922 .4650116 .17199707 .4650116 .07699585 .36799623 .07699585 .25097657 .07699585 .1299591 .17399597 .035949708 .2919922 .035949708 .4119873 .035949708 .5069885 .13296509 .5069885 .24998474M.2919922 .08496094C.19799805 .08496094 .12599182 .16096497 .12599182 .24998474 .12599182 .34300233 .19999695 .41601563 .2919922 .41601563 .38598634 .41601563 .45799256 .33999635 .45799256 .25097657 .45799256 .15795899 .38398744 .08496094 .2919922 .08496094Z"/>
<path id="font_1_5" d="M.13198853 .327713V.35173036C.13198853 .6047821 .2559967 .64100649 .30699159 .64100649 .33099366 .64100649 .37298585 .634964 .394989 .6007538 .37998963 .6007538 .33999635 .6007538 .33999635 .5557556 .33999635 .524765 .3639984 .5097656 .38598634 .5097656 .4019928 .5097656 .43199159 .51875308 .43199159 .5577545 .43199159 .6178589 .3880005 .6660156 .30499269 .6660156 .1769867 .6660156 .041992189 .5367584 .041992189 .31570436 .041992189 .048553468 .1579895-.022460938 .25099183-.022460938 .3619995-.022460938 .45700074 .07156372 .45700074 .2036438 .45700074 .33070375 .36799623 .4267578 .25698854 .4267578 .18899536 .4267578 .1519928 .37573243 .13198853 .327713M.25099183 .0055389406C.18798828 .0055389406 .1579895 .06556702 .1519928 .080566409 .13398743 .127594 .13398743 .2076416 .13398743 .22564698 .13398743 .30369569 .1659851 .40374757 .2559967 .40374757 .27198792 .40374757 .31799317 .40374757 .34899903 .34172059 .36698915 .30470277 .36698915 .2536621 .36698915 .20463562 .36698915 .15661621 .36698915 .10658264 .34999085 .0705719 .31999208 .010528564 .27398683 .0055389406 .25099183 .0055389406Z"/>
</defs>
<path transform="matrix(1.00003,0,0,-1.00003,13.8869709,48.828989)" stroke-width=".79701" stroke-linecap="butt" stroke-miterlimit="10" stroke-linejoin="miter" fill="none" stroke="#000000" d="M0 0-7.93707 46.82956"/>
<use data-text="8" xlink:href="#font_1_6" transform="matrix(9.962899,0,0,-9.962899,1.2175903,28.62338)" fill="#0000ff"/>
<path transform="matrix(1.00003,0,0,-1.00003,13.8869709,48.828989)" stroke-width=".79701" stroke-linecap="butt" stroke-miterlimit="10" stroke-linejoin="miter" fill="none" stroke="#000000" d="M-7.93707 46.82956 64.29156 0"/>
<path transform="matrix(1.00003,0,0,-1.00003,13.8869709,48.828989)" stroke-width=".79701" stroke-linecap="butt" stroke-miterlimit="10" stroke-linejoin="miter" fill="none" stroke="#000000" d="M0 0H64.29156"/>
<use data-text="t" xlink:href="#font_2_1" transform="matrix(9.962899,0,0,-9.962899,35.655626,58.96929)" fill="#0000ff"/>
<use data-text="+" xlink:href="#font_1_1" transform="matrix(9.962899,0,0,-9.962899,41.467798,58.96929)" fill="#0000ff"/>
<use data-text="3" xlink:href="#font_1_4" transform="matrix(9.962899,0,0,-9.962899,51.42073,58.96929)" fill="#0000ff"/>
<path transform="matrix(1.00003,0,0,-1.00003,13.8869709,48.828989)" d="M.13945 0C.13945 .07701 .07701 .13945 0 .13945-.07701 .13945-.13945 .07701-.13945 0-.13945-.07701-.07701-.13945 0-.13945 .07701-.13945 .13945-.07701 .13945 0ZM0 0"/>
<path transform="matrix(1.00003,0,0,-1.00003,13.8869709,48.828989)" stroke-width=".3985" stroke-linecap="butt" stroke-miterlimit="10" stroke-linejoin="miter" fill="none" stroke="#000000" d="M.13945 0C.13945 .07701 .07701 .13945 0 .13945-.07701 .13945-.13945 .07701-.13945 0-.13945-.07701-.07701-.13945 0-.13945 .07701-.13945 .13945-.07701 .13945 0ZM0 0"/>
<use data-text="1" xlink:href="#font_1_3" transform="matrix(9.962899,0,0,-9.962899,15.414017,47.30194)" fill="#ff0000"/>
<use data-text="0" xlink:href="#font_1_2" transform="matrix(9.962899,0,0,-9.962899,20.39547,47.30194)" fill="#ff0000"/>
<use data-text="0" xlink:href="#font_1_2" transform="matrix(9.962899,0,0,-9.962899,25.376923,47.30194)" fill="#ff0000"/>
<use data-text="&#x25e6;" xlink:href="#font_3_1" transform="matrix(6.9740097,0,0,-6.9740097,30.358468,43.68683)" fill="#ff0000"/>
<path transform="matrix(1.00003,0,0,-1.00003,13.8869709,48.828989)" stroke-width=".79701" stroke-linecap="butt" stroke-miterlimit="10" stroke-linejoin="miter" fill="none" stroke="#ff0000" d="M52.38464 0C52.38464 2.2979 53.05083 4.54857 54.30069 6.47658"/>
<path transform="matrix(1.00003,0,0,-1.00003,13.8869709,48.828989)" stroke-width=".3985" stroke-linecap="butt" stroke-miterlimit="10" stroke-linejoin="miter" fill="none" stroke="#ff0000" d="M55.55954 2.97627 49.60667 4.96065"/>
<path transform="matrix(1.00003,0,0,-1.00003,13.8869709,48.828989)" stroke-width=".79701" stroke-linecap="butt" stroke-miterlimit="10" stroke-linejoin="miter" fill="none" stroke="#ff0000" d="M-6.15115 37.1057C-3.41362 37.56938-.99399 39.16019 .51639 41.49002"/>
<path transform="matrix(1.00003,0,0,-1.00003,13.8869709,48.828989)" stroke-width=".3985" stroke-linecap="butt" stroke-miterlimit="10" stroke-linejoin="miter" fill="none" stroke="#ff0000" d="M-5.35759 40.67754-1.38911 36.70906"/>
<path transform="matrix(1.00003,0,0,-1.00003,13.8869709,48.828989)" stroke-width=".3985" stroke-linecap="butt" stroke-miterlimit="10" stroke-linejoin="miter" fill="none" stroke="#ff0000" d="M-3.3732 41.66972 .59525 37.70126"/>
<path transform="matrix(1.00003,0,0,-1.00003,13.8869709,48.828989)" stroke-width=".79701" stroke-linecap="butt" stroke-miterlimit="10" stroke-linejoin="miter" fill="none" stroke="#000000" d="M79.37216 0 73.41919 35.12225"/>
<use data-text="6" xlink:href="#font_1_5" transform="matrix(9.962899,0,0,-9.962899,81.58401,34.477556)" fill="#0000ff"/>
<path transform="matrix(1.00003,0,0,-1.00003,13.8869709,48.828989)" stroke-width=".79701" stroke-linecap="butt" stroke-miterlimit="10" stroke-linejoin="miter" fill="none" stroke="#000000" d="M73.41919 35.12225 127.5906 0"/>
<path transform="matrix(1.00003,0,0,-1.00003,13.8869709,48.828989)" stroke-width=".79701" stroke-linecap="butt" stroke-miterlimit="10" stroke-linejoin="miter" fill="none" stroke="#000000" d="M79.37216 0H127.5906"/>
<use data-text="t" xlink:href="#font_2_1" transform="matrix(9.962899,0,0,-9.962899,115.57302,58.676286)" fill="#0000ff"/>
<path transform="matrix(1.00003,0,0,-1.00003,13.8869709,48.828989)" d="M79.51163 0C79.51163 .07701 79.44917 .13945 79.37216 .13945 79.29515 .13945 79.2327 .07701 79.2327 0 79.2327-.07701 79.29515-.13945 79.37216-.13945 79.44917-.13945 79.51163-.07701 79.51163 0ZM79.37216 0"/>
<path transform="matrix(1.00003,0,0,-1.00003,13.8869709,48.828989)" stroke-width=".3985" stroke-linecap="butt" stroke-miterlimit="10" stroke-linejoin="miter" fill="none" stroke="#000000" d="M79.51163 0C79.51163 .07701 79.44917 .13945 79.37216 .13945 79.29515 .13945 79.2327 .07701 79.2327 0 79.2327-.07701 79.29515-.13945 79.37216-.13945 79.44917-.13945 79.51163-.07701 79.51163 0ZM79.37216 0"/>
<use data-text="1" xlink:href="#font_1_3" transform="matrix(9.962899,0,0,-9.962899,94.78841,47.30194)" fill="#ff0000"/>
<use data-text="0" xlink:href="#font_1_2" transform="matrix(9.962899,0,0,-9.962899,99.76986,47.30194)" fill="#ff0000"/>
<use data-text="0" xlink:href="#font_1_2" transform="matrix(9.962899,0,0,-9.962899,104.75131,47.30194)" fill="#ff0000"/>
<use data-text="&#x25e6;" xlink:href="#font_3_1" transform="matrix(6.9740097,0,0,-6.9740097,109.73286,43.68683)" fill="#ff0000"/>
<path transform="matrix(1.00003,0,0,-1.00003,13.8869709,48.828989)" stroke-width=".79701" stroke-linecap="butt" stroke-miterlimit="10" stroke-linejoin="miter" fill="none" stroke="#ff0000" d="M115.68283 0C115.68283 2.2979 116.34901 4.54857 117.59888 6.47658"/>
<path transform="matrix(1.00003,0,0,-1.00003,13.8869709,48.828989)" stroke-width=".3985" stroke-linecap="butt" stroke-miterlimit="10" stroke-linejoin="miter" fill="none" stroke="#ff0000" d="M118.85774 2.97627 112.90489 4.96065"/>
<path transform="matrix(1.00003,0,0,-1.00003,13.8869709,48.828989)" stroke-width=".79701" stroke-linecap="butt" stroke-miterlimit="10" stroke-linejoin="miter" fill="none" stroke="#ff0000" d="M75.2036 25.39857C77.94113 25.86227 80.36076 27.45306 81.87115 29.7829"/>
<path transform="matrix(1.00003,0,0,-1.00003,13.8869709,48.828989)" stroke-width=".3985" stroke-linecap="butt" stroke-miterlimit="10" stroke-linejoin="miter" fill="none" stroke="#ff0000" d="M75.99748 28.5735 79.96596 24.60501"/>
<path transform="matrix(1.00003,0,0,-1.00003,13.8869709,48.828989)" stroke-width=".3985" stroke-linecap="butt" stroke-miterlimit="10" stroke-linejoin="miter" fill="none" stroke="#ff0000" d="M77.98157 29.56569 81.95004 25.5972"/>
</svg>
