<?xml version="1.0" encoding="UTF-8"?>
<svg xmlns="http://www.w3.org/2000/svg" xmlns:xlink="http://www.w3.org/1999/xlink" width="106pt" height="40pt" viewBox="0 0 106 40" version="1.1">
<g id="surface1">
<path style="fill:none;stroke-width:0.79701;stroke-linecap:butt;stroke-linejoin:miter;stroke:rgb(0%,0%,0%);stroke-opacity:1;stroke-miterlimit:10;" d="M -0.00186543 -0.000679059 L 76.536511 29.76316 L 90.711442 -5.668308 L -11.337123 28.345276 Z M -0.00186543 -0.000679059 " transform="matrix(1.00006,0,0,-1.00006,13.634678,31.764946)"/>
<path style="fill:none;stroke-width:0.79701;stroke-linecap:butt;stroke-linejoin:miter;stroke:rgb(0%,0%,0%);stroke-opacity:1;stroke-miterlimit:10;" d="M -0.00186543 -0.000679059 L -8.208404 20.521527 " transform="matrix(1.00006,0,0,-1.00006,13.634678,31.764946)"/>
<path style="fill:none;stroke-width:0.79701;stroke-linecap:round;stroke-linejoin:round;stroke:rgb(0%,0%,0%);stroke-opacity:1;stroke-miterlimit:10;" d="M -2.551422 3.112236 C -2.083555 1.242263 -1.046287 0.364584 -0.00104205 0.00118464 C -1.047008 -0.362951 -2.084992 -1.243543 -2.549937 -3.11062 " transform="matrix(-0.371392,-0.928496,-0.928496,0.371392,5.278057,10.873592)"/>
<path style="fill:none;stroke-width:0.79701;stroke-linecap:butt;stroke-linejoin:miter;stroke:rgb(0%,0%,0%);stroke-opacity:1;stroke-miterlimit:10;" d="M 90.711442 -5.668308 L 79.66523 21.939411 " transform="matrix(1.00006,0,0,-1.00006,13.634678,31.764946)"/>
<path style="fill:none;stroke-width:0.79701;stroke-linecap:round;stroke-linejoin:round;stroke:rgb(0%,0%,0%);stroke-opacity:1;stroke-miterlimit:10;" d="M -2.551855 3.109932 C -2.086164 1.245036 -1.04672 0.36228 -0.00147497 -0.00111931 C -1.04599 -0.361629 -2.085425 -1.245847 -2.55037 -3.112924 " transform="matrix(-0.371392,-0.928496,-0.928496,0.371392,93.158569,9.456077)"/>
</g>
</svg>
