<svg xmlns="http://www.w3.org/2000/svg" xmlns:xlink="http://www.w3.org/1999/xlink" version="1.1" width="81" height="45" viewBox="0 0 81 45">
<defs>
<path id="font_1_1" d="M.47698976 .23631287C.47698976 .39337159 .38398744 .4423828 .30999757 .4423828 .17298889 .4423828 .040985109 .29933167 .040985109 .15829468 .040985109 .06526184 .100997928-.0107421879 .20298767-.0107421879 .2659912-.0107421879 .33799745 .012252808 .4139862 .073272708 .4269867 .020248414 .45999146-.0107421879 .5049896-.0107421879 .55799868-.0107421879 .58898928 .044265748 .58898928 .060272218 .58898928 .06726074 .58299258 .07026672 .57699587 .07026672 .56999209 .07026672 .5669861 .06726074 .56399539 .060272218 .54599 .011245728 .5099945 .011245728 .5079956 .011245728 .47698976 .011245728 .47698976 .089279178 .47698976 .11328125 .47698976 .1342926 .47698976 .1362915 .4869995 .14828491 .58099368 .2663269 .60198977 .38235475 .60198977 .38336183 .60198977 .38536073 .6009979 .39337159 .58999636 .39337159 .5799866 .39337159 .5799866 .3903656 .57499697 .37236024 .5569916 .30934144 .5239868 .23332215 .47698976 .17430115V.23631287M.4099884 .09927368C.32199098 .022247315 .24499512 .011245728 .20498657 .011245728 .14498902 .011245728 .114990238 .056259157 .114990238 .120285037 .114990238 .16929627 .14099121 .2773285 .17298889 .32833863 .21998596 .4013672 .27398683 .42037965 .30899049 .42037965 .4079895 .42037965 .4079895 .28933717 .4079895 .21130371 .4079895 .17430115 .4079895 .11628723 .4099884 .09927368Z"/>
<path id="font_2_2" d="M.13198853 .327713V.35173036C.13198853 .6047821 .2559967 .64100649 .30699159 .64100649 .33099366 .64100649 .37298585 .634964 .394989 .6007538 .37998963 .6007538 .33999635 .6007538 .33999635 .5557556 .33999635 .524765 .3639984 .5097656 .38598634 .5097656 .4019928 .5097656 .43199159 .51875308 .43199159 .5577545 .43199159 .6178589 .3880005 .6660156 .30499269 .6660156 .1769867 .6660156 .041992189 .5367584 .041992189 .31570436 .041992189 .048553468 .1579895-.022460938 .25099183-.022460938 .3619995-.022460938 .45700074 .07156372 .45700074 .2036438 .45700074 .33070375 .36799623 .4267578 .25698854 .4267578 .18899536 .4267578 .1519928 .37573243 .13198853 .327713M.25099183 .0055389406C.18798828 .0055389406 .1579895 .06556702 .1519928 .080566409 .13398743 .127594 .13398743 .2076416 .13398743 .22564698 .13398743 .30369569 .1659851 .40374757 .2559967 .40374757 .27198792 .40374757 .31799317 .40374757 .34899903 .34172059 .36698915 .30470277 .36698915 .2536621 .36698915 .20463562 .36698915 .15661621 .36698915 .10658264 .34999085 .0705719 .31999208 .010528564 .27398683 .0055389406 .25099183 .0055389406Z"/>
<path id="font_2_1" d="M.2939911 .64004519C.2939911 .66400149 .2939911 .6660156 .2709961 .6660156 .20899964 .60227969 .12098694 .60227969 .08898926 .60227969V.57128909C.10899353 .57128909 .16799927 .57128909 .21998596 .5972748V.07902527C.21998596 .042999269 .21699524 .0309906 .1269989 .0309906H.09498596V0C.12998963 .0029907227 .21699524 .0029907227 .25698854 .0029907227 .29699708 .0029907227 .38398744 .0029907227 .4189911 0V.0309906H.3869934C.29699708 .0309906 .2939911 .041992189 .2939911 .07902527V.64004519Z"/>
<path id="font_3_1" d="M.5069885 .24998474C.5069885 .3710022 .4099884 .4650116 .2919922 .4650116 .17199707 .4650116 .07699585 .36799623 .07699585 .25097657 .07699585 .1299591 .17399597 .035949708 .2919922 .035949708 .4119873 .035949708 .5069885 .13296509 .5069885 .24998474M.2919922 .08496094C.19799805 .08496094 .12599182 .16096497 .12599182 .24998474 .12599182 .34300233 .19999695 .41601563 .2919922 .41601563 .38598634 .41601563 .45799256 .33999635 .45799256 .25097657 .45799256 .15795899 .38398744 .08496094 .2919922 .08496094Z"/>
</defs>
<path transform="matrix(1,0,0,-1.00006,2.2949982,2.0651646)" stroke-width=".3985" stroke-linecap="butt" stroke-miterlimit="10" stroke-linejoin="miter" fill="none" stroke="#ff0000" d="M59.18803 0C59.18803-2.71042 59.86421-5.37924 61.15277-7.76328"/>
<use data-text="&#x03b1;" xlink:href="#font_1_1" transform="matrix(9.9626,0,0,-9.963197,52.052,9.210593)" fill="#ff0000"/>
<path transform="matrix(1,0,0,-1.00006,2.2949982,2.0651646)" stroke-width=".3985" stroke-linecap="butt" stroke-miterlimit="10" stroke-linejoin="miter" fill="none" stroke="#ff0000" d="M0-32.65565C2.99837-32.65565 5.75583-34.30035 7.1814-36.93785"/>
<use data-text="6" xlink:href="#font_2_2" transform="matrix(9.9626,0,0,-9.963197,7.006996,32.35498)" fill="#ff0000"/>
<use data-text="1" xlink:href="#font_2_1" transform="matrix(9.9626,0,0,-9.963197,11.9882969,32.35498)" fill="#ff0000"/>
<use data-text="&#x25e6;" xlink:href="#font_3_1" transform="matrix(6.9738,0,0,-6.9742186,16.969994,28.738762)" fill="#ff0000"/>
<path transform="matrix(1,0,0,-1.00006,2.2949982,2.0651646)" stroke-width=".79701" stroke-linecap="butt" stroke-miterlimit="10" stroke-linejoin="miter" fill="none" stroke="#000000" d="M0 0H75.51587L0-40.81941Z"/>
<path transform="matrix(1,0,0,-1.00006,2.2949982,2.0651646)" stroke-width=".79701" stroke-linecap="butt" stroke-miterlimit="10" stroke-linejoin="miter" fill="none" stroke="#0000ff" d="M0 0V-5.10242H5.10242V0ZM5.10242-5.10242"/>
</svg>
