<svg xmlns="http://www.w3.org/2000/svg" xmlns:xlink="http://www.w3.org/1999/xlink" version="1.1" width="118" height="61" viewBox="0 0 118 61">
<defs>
<path id="font_1_1" d="M.45498658 .5001831C.45498658 .56614688 .43699647 .7050781 .33499146 .7050781 .19599915 .7050781 .041992189 .42323304 .041992189 .19425965 .041992189 .100250247 .070999149-.0107421879 .1619873-.0107421879 .30299378-.0107421879 .45498658 .27627564 .45498658 .5001831M.147995 .36328126C.16499329 .42723084 .18499756 .5071869 .22499085 .57814028 .2519989 .6271057 .2889862 .68307498 .33399964 .68307498 .3829956 .68307498 .3889923 .6191101 .3889923 .56214907 .3889923 .5131836 .3809967 .46220399 .35699464 .36328126H.147995M.34799195 .3312683C.33699037 .28527833 .31599427 .2002716 .27799989 .12826538 .24299622 .060256959 .20498657 .011245728 .1619873 .011245728 .1289978 .011245728 .10798645 .040252687 .10798645 .133255 .10798645 .17526245 .11399841 .23326111 .13999939 .3312683H.34799195Z"/>
<path id="font_1_2" d="M.43699647 .67033389C.43699647 .67233279 .43998719 .68333438 .43998719 .6843262 .43998719 .68533328 .43998719 .69433596 .42799378 .69433596 .41799928 .69433596 .4169922 .69132998 .41299439 .67433169L.35499574 .44337464C.19599915 .43836976 .04899597 .30532838 .04899597 .169281 .04899597 .07424927 .11898804-.004776001 .24099732-.011779785 .23298645-.04283142 .22599793-.07489014 .21798706-.10594177 .20599365-.1530304 .19599915-.19108582 .19599915-.1940918 .19599915-.2040863 .20298767-.20507813 .20799256-.20507813 .21299744-.20507813 .21499634-.2040863 .21798706-.20108032 .21998596-.19908142 .22599793-.17506409 .22898865-.16104126L.2669983-.011779785C.42799378-.0067749025 .57299807 .12826538 .57299807 .26231385 .57299807 .3413391 .519989 .43338014 .3809967 .44337464L.43699647 .67033389M.24598694 .010223389C.18598938 .01322937 .11399841 .048233034 .11399841 .14826966 .11399841 .2683258 .19999695 .40837098 .34899903 .42137147L.24598694 .010223389M.375 .42137147C.45098878 .41737367 .5079956 .37135316 .5079956 .2833252 .5079956 .1652832 .42199708 .022232056 .27198792 .010223389L.375 .42137147Z"/>
<path id="font_1_3" d="M.1789856 .114868167C.13899231 .047973634 .099990848 .033981325 .055999757 .0309906 .04399109 .02999878 .034988405 .02999878 .034988405 .010986328 .034988405 .004989624 .039993287 0 .04798889 0 .07499695 0 .10598755 .0029907227 .13398743 .0029907227 .16699219 .0029907227 .20199585 0 .23399353 0 .23999024 0 .25299073 0 .25299073 .018997193 .25299073 .02999878 .24398804 .0309906 .23699951 .0309906 .21398926 .032989503 .18998719 .04096985 .18998719 .06593323 .18998719 .077926639 .19599915 .088897708 .20399475 .102890018L.27999879 .23068238H.5309906C.5329895 .2097168 .5469971 .07392883 .5469971 .063949588 .5469971 .033981325 .49499513 .0309906 .47499085 .0309906 .46099855 .0309906 .45098878 .0309906 .45098878 .010986328 .45098878 0 .46299745 0 .46499635 0 .5059967 0 .548996 .0029907227 .58999636 .0029907227 .61499026 .0029907227 .6779938 0 .7029877 0 .70899966 0 .72099307 0 .72099307 .019989014 .72099307 .0309906 .71099856 .0309906 .69799807 .0309906 .6359863 .0309906 .6359863 .037979127 .6329956 .06694031L.57199099 .691803C.56999209 .71180728 .56999209 .7158203 .5529938 .7158203 .5369873 .7158203 .5329895 .7088165 .5269928 .69880679L.1789856 .114868167M.29899598 .26168824 .49598695 .5917816 .5279999 .26168824H.29899598Z"/>
<path id="font_1_4" d="M.1599884 .07795715C.1499939 .038986207 .147995 .0309906 .068984989 .0309906 .051986696 .0309906 .041992189 .0309906 .041992189 .010986328 .041992189 0 .050994874 0 .068984989 0H.42599488C.58399966 0 .70199587 .11791992 .70199587 .21585083 .70199587 .28778077 .6439972 .3457489 .5469971 .35673524 .651001 .37573243 .7559967 .44970704 .7559967 .5446625 .7559967 .6186218 .6899872 .6826172 .56999209 .6826172H.23399353C.21499634 .6826172 .20498657 .6826172 .20498657 .6626129 .20498657 .6516113 .21398926 .6516113 .23298645 .6516113 .23498535 .6516113 .2539978 .6516113 .2709961 .6496124 .2889862 .6476135 .2979889 .64660647 .2979889 .6336212 .2979889 .6296234 .29699708 .62661746 .2939911 .614624L.1599884 .07795715M.31098939 .36573792 .37298585 .6136322C.38198854 .64860537 .38398744 .6516113 .4269867 .6516113H.55599978C.6439972 .6516113 .6649933 .5926361 .6649933 .5486603 .6649933 .46069337 .57899478 .36573792 .45700074 .36573792H.31098939M.2659912 .0309906C.2519989 .0309906 .25 .0309906 .24398804 .03199768 .23399353 .032989503 .23098755 .033996583 .23098755 .04197693 .23098755 .04498291 .23098755 .04698181 .23599243 .064971927L.30499269 .34375H.49398805C.58999636 .34375 .60899356 .2698059 .60899356 .22683716 .60899356 .12791443 .519989 .0309906 .4019928 .0309906H.2659912Z"/>
<path id="font_1_5" d="M.7599945 .69506838C.7599945 .69807437 .7579956 .7050781 .7489929 .7050781 .74598696 .7050781 .7449951 .70407107 .73399356 .69306948L.6639862 .61602786C.6549988 .6300354 .60899356 .7050781 .49798585 .7050781 .2749939 .7050781 .049987794 .48391725 .049987794 .25172425 .049987794 .08659363 .16799927-.022460938 .32099916-.022460938 .4079895-.022460938 .48399354 .017532349 .5369873 .063583377 .6299896 .14564514 .6469879 .2367096 .6469879 .23971558 .6469879 .24972534 .6369934 .24972534 .6349945 .24972534 .6289978 .24972534 .6239929 .24772644 .621994 .23971558 .61299136 .21069336 .58999636 .13963318 .5209961 .081588748 .45199586 .025543213 .3889923 .008529663 .33699037 .008529663 .24699402 .008529663 .14099121 .060577394 .14099121 .21670532 .14099121 .27374269 .1619873 .43588258 .2619934 .55296328 .32299806 .62402346 .4169922 .67407229 .5059967 .67407229 .60798647 .67407229 .6669922 .5970001 .6669922 .48091126 .6669922 .44088746 .6639862 .43988038 .6639862 .4298706 .6639862 .41986085 .6749878 .41986085 .67900088 .41986085 .69200137 .41986085 .69200137 .42185975 .69699099 .43988038L.7599945 .69506838Z"/>
</defs>
<path transform="matrix(1.00009,0,0,-1.00009,11.214653,48.945325)" stroke-width=".3985" stroke-linecap="butt" stroke-miterlimit="10" stroke-linejoin="miter" fill="none" stroke="#ff0000" d="M5.95285 0C5.95285 2.09052 4.85565 4.02835 3.06325 5.10408"/>
<use data-text="&#x03b8;" xlink:href="#font_1_1" transform="matrix(9.963496,0,0,-9.963496,19.915436,47.47919)"/>
<path transform="matrix(1.00009,0,0,-1.00009,11.214653,48.945325)" stroke-width=".3985" stroke-linecap="butt" stroke-miterlimit="10" stroke-linejoin="miter" fill="none" stroke="#ff0000" d="M20.7484 34.5822C22.57169 33.48793 24.84117 33.44958 26.70042 34.48146"/>
<use data-text="&#x03b8;" xlink:href="#font_1_1" transform="matrix(9.963496,0,0,-9.963496,32.45056,25.647229)"/>
<path transform="matrix(1.00009,0,0,-1.00009,11.214653,48.945325)" stroke-width=".3985" stroke-linecap="butt" stroke-miterlimit="10" stroke-linejoin="miter" fill="none" stroke="#ff0000" d="M75.40398 0C75.40398 3.37138 76.26418 6.6895 77.90128 9.6364"/>
<use data-text="&#x03d5;" xlink:href="#font_1_2" transform="matrix(9.963496,0,0,-9.963496,77.80364,44.46592)"/>
<path transform="matrix(1.00009,0,0,-1.00009,11.214653,48.945325)" stroke-width=".3985" stroke-linecap="butt" stroke-miterlimit="10" stroke-linejoin="miter" fill="none" stroke="#ff0000" d="M41.15695 30.04965C39.46747 27.00859 37.00526 24.46283 34.02234 22.67253"/>
<use data-text="&#x03d5;" xlink:href="#font_1_2" transform="matrix(9.963496,0,0,-9.963496,51.816308,31.497756)"/>
<path transform="matrix(1.00009,0,0,-1.00009,11.214653,48.945325)" d="M.13945 0C.13945 .07701 .07701 .13945 0 .13945-.07701 .13945-.13945 .07701-.13945 0-.13945-.07701-.07701-.13945 0-.13945 .07701-.13945 .13945-.07701 .13945 0ZM0 0"/>
<path transform="matrix(1.00009,0,0,-1.00009,11.214653,48.945325)" stroke-width=".3985" stroke-linecap="butt" stroke-miterlimit="10" stroke-linejoin="miter" fill="none" stroke="#000000" d="M.13945 0C.13945 .07701 .07701 .13945 0 .13945-.07701 .13945-.13945 .07701-.13945 0-.13945-.07701-.07701-.13945 0-.13945 .07701-.13945 .13945-.07701 .13945 0ZM0 0"/>
<use data-text="A" xlink:href="#font_1_3" transform="matrix(9.963496,0,0,-9.963496,1.2177506,59.274255)"/>
<path transform="matrix(1.00009,0,0,-1.00009,11.214653,48.945325)" d="M23.95103 39.68607C23.95103 39.76308 23.88858 39.82553 23.81157 39.82553 23.73456 39.82553 23.6721 39.76308 23.6721 39.68607 23.6721 39.60905 23.73456 39.5466 23.81157 39.5466 23.88858 39.5466 23.95103 39.60905 23.95103 39.68607ZM23.81157 39.68607"/>
<path transform="matrix(1.00009,0,0,-1.00009,11.214653,48.945325)" stroke-width=".3985" stroke-linecap="butt" stroke-miterlimit="10" stroke-linejoin="miter" fill="none" stroke="#000000" d="M23.95103 39.68607C23.95103 39.76308 23.88858 39.82553 23.81157 39.82553 23.73456 39.82553 23.6721 39.76308 23.6721 39.68607 23.6721 39.60905 23.73456 39.5466 23.81157 39.5466 23.88858 39.5466 23.95103 39.60905 23.95103 39.68607ZM23.81157 39.68607"/>
<use data-text="B" xlink:href="#font_1_4" transform="matrix(9.963496,0,0,-9.963496,24.446846,7.728615)"/>
<path transform="matrix(1.00009,0,0,-1.00009,11.214653,48.945325)" d="M95.38611 0C95.38611 .07701 95.32367 .13945 95.24664 .13945 95.16963 .13945 95.1072 .07701 95.1072 0 95.1072-.07701 95.16963-.13945 95.24664-.13945 95.32367-.13945 95.38611-.07701 95.38611 0ZM95.24664 0"/>
<path transform="matrix(1.00009,0,0,-1.00009,11.214653,48.945325)" stroke-width=".3985" stroke-linecap="butt" stroke-miterlimit="10" stroke-linejoin="miter" fill="none" stroke="#000000" d="M95.38611 0C95.38611 .07701 95.32367 .13945 95.24664 .13945 95.16963 .13945 95.1072 .07701 95.1072 0 95.1072-.07701 95.16963-.13945 95.24664-.13945 95.32367-.13945 95.38611-.07701 95.38611 0ZM95.24664 0"/>
<use data-text="C" xlink:href="#font_1_5" transform="matrix(9.963496,0,0,-9.963496,108.99345,59.274255)"/>
<path transform="matrix(1.00009,0,0,-1.00009,11.214653,48.945325)" stroke-width=".79701" stroke-linecap="butt" stroke-miterlimit="10" stroke-linejoin="miter" fill="none" stroke="#000000" d="M0 0 23.81157 39.68607 95.24664 0Z"/>
<path transform="matrix(1.00009,0,0,-1.00009,11.214653,48.945325)" stroke-width=".79701" stroke-linecap="butt" stroke-miterlimit="10" stroke-linejoin="miter" fill="none" stroke="#000000" d="M23.81157 39.68607 47.62315 0"/>
</svg>
