<svg xmlns="http://www.w3.org/2000/svg" xmlns:xlink="http://www.w3.org/1999/xlink" version="1.1" width="73pt" height="73pt" viewBox="0 0 73 73">
<defs>
<path id="font_1_2" d="M.2899933 .35191346C.37199403 .37893678 .42999269 .4490509 .42999269 .52809146 .42999269 .6100464 .34199525 .6660156 .24598694 .6660156 .14498902 .6660156 .068984989 .60606387 .068984989 .53009036 .068984989 .49710084 .09098816 .47808839 .11999512 .47808839 .15098572 .47808839 .17098999 .50009158 .17098999 .5290985 .17098999 .57910159 .12399292 .57910159 .10899353 .57910159 .13999939 .62802127 .20599365 .64100649 .24198914 .64100649 .2829895 .64100649 .33799745 .6190338 .33799745 .5290985 .33799745 .51708987 .33599855 .45906068 .30999757 .4149933 .27999879 .36691285 .24598694 .36390687 .22099304 .36291505 .21299744 .36190797 .18899536 .35990907 .18199158 .35990907 .17399597 .35890199 .16699219 .35791017 .16699219 .3479004 .16699219 .33691407 .17399597 .33691407 .19099427 .33691407H.23498535C.31698609 .33691407 .35398866 .2686615 .35398866 .17037964 .35398866 .034469606 .2849884 .0055389406 .24099732 .0055389406 .19799805 .0055389406 .12298584 .022491456 .08799744 .08137512 .12298584 .07637024 .1539917 .09837341 .1539917 .1363678 .1539917 .17237854 .1269989 .19238281 .09799194 .19238281 .07398987 .19238281 .041992189 .17837525 .041992189 .1343689 .041992189 .043441774 .1349945-.022460938 .24398804-.022460938 .3659973-.022460938 .45700074 .06838989 .45700074 .17037964 .45700074 .252594 .3939972 .33088685 .2899933 .35191346Z"/>
<path id="font_2_75" d="M.8129883 0V.0309906C.7609863 .0309906 .73599246 .0309906 .7350006 .061019899V.25221253C.7350006 .3383026 .7350006 .36932374 .70399478 .405365 .6899872 .42237855 .6569977 .4423828 .598999 .4423828 .5149994 .4423828 .47099305 .38233949 .45399476 .34429933 .43998719 .43138124 .3659973 .4423828 .32099916 .4423828 .24798584 .4423828 .20098877 .39935304 .17298889 .33729554V.4423828L.03199768 .43066407V.3996582C.101989749 .3996582 .10998535 .39266969 .10998535 .34370423V.07595825C.10998535 .0309906 .09899902 .0309906 .03199768 .0309906V0L.14498902 .0029907227 .25698854 0V.0309906C.18998719 .0309906 .1789856 .0309906 .1789856 .07595825V.25978089C.1789856 .36431886 .25 .42037965 .31399537 .42037965 .3769989 .42037965 .3880005 .36631776 .3880005 .30926515V.076034549C.3880005 .0309906 .3769989 .0309906 .30999757 .0309906V0L.4229889 .0029907227 .5349884 0V.0309906C.46798707 .0309906 .45700074 .0309906 .45700074 .076034549V.2602234C.45700074 .36431886 .5279999 .42037965 .59199526 .42037965 .6549988 .42037965 .66600039 .36631776 .66600039 .30926515V.076034549C.66600039 .0309906 .6549988 .0309906 .58799746 .0309906V0L.70098879 .0029907227 .8129883 0Z"/>
<path id="font_1_1" d="M.45999146 .31976319C.45999146 .39982606 .45498658 .47988893 .41999818 .5539398 .37399293 .65000918 .2919922 .6660156 .25 .6660156 .18998719 .6660156 .116989139 .64001467 .07598877 .54693606 .04399109 .47789 .038986207 .39982606 .038986207 .31976319 .038986207 .24472046 .042999269 .15464783 .083999637 .07859802 .1269989-.0024719239 .19999695-.022460938 .24899292-.022460938 .30299378-.022460938 .3789978-.0014648438 .4229889 .09359741 .45498658 .16265869 .45999146 .2407074 .45999146 .31976319M.24899292-.00047302247C.20999146-.00047302247 .15098572 .024551392 .1329956 .12062073 .12199402 .18066406 .12199402 .2727356 .12199402 .3317871 .12199402 .39582826 .12199402 .46188355 .12998963 .5159149 .14898682 .63500979 .22399903 .64401248 .24899292 .64401248 .28199769 .64401248 .34799195 .6259918 .36698915 .52693179 .3769989 .47088624 .3769989 .39482118 .3769989 .3317871 .3769989 .25672914 .3769989 .18867493 .3659973 .12461853 .35099793 .029556275 .2939911-.00047302247 .24899292-.00047302247Z"/>
<path id="font_3_1" d="M.5069885 .24998474C.5069885 .3710022 .4099884 .4650116 .2919922 .4650116 .17199707 .4650116 .07699585 .36799623 .07699585 .25097657 .07699585 .1299591 .17399597 .035949708 .2919922 .035949708 .4119873 .035949708 .5069885 .13296509 .5069885 .24998474M.2919922 .08496094C.19799805 .08496094 .12599182 .16096497 .12599182 .24998474 .12599182 .34300233 .19999695 .41601563 .2919922 .41601563 .38598634 .41601563 .45799256 .33999635 .45799256 .25097657 .45799256 .15795899 .38398744 .08496094 .2919922 .08496094Z"/>
<path id="font_4_1" d="M.73999026 .4358673C.73999026 .5970001 .6339874 .7050781 .4850006 .7050781 .2689972 .7050781 .04899597 .47790528 .04899597 .24472046 .04899597 .07859802 .16099549-.022460938 .30499269-.022460938 .5169983-.022460938 .73999026 .19668579 .73999026 .4358673M.31098939 .0035247803C.21199036 .0035247803 .14199829 .08459473 .14199829 .21670532 .14199829 .2607422 .1559906 .4068451 .23298645 .52394106 .3019867 .62802127 .3999939 .68006899 .47898866 .68006899 .5609894 .68006899 .651001 .62402346 .651001 .4748993 .651001 .4028473 .6239929 .24671936 .5249939 .12362671 .47698976 .062576297 .394989 .0035247803 .31098939 .0035247803Z"/>
</defs>
<path transform="matrix(1,0,0,-1.00006,36.708,36.415224)" d="M17.00923-29.45993 0 0H34.0185C34.0185 18.78702 18.78902 34.0165 .00198 34.0165-18.78503 34.0165-34.01451 18.78702-34.01451 0-34.01451-18.78702-18.78503-34.0165 .00198-34.0165 5.97157-34.0165 11.8405-32.44376 17.01022-29.45923L0 0" fill="#dcf2fd"/>
<path transform="matrix(1,0,0,-1.00006,36.708,36.415224)" stroke-width=".3985" stroke-linecap="butt" stroke-miterlimit="10" stroke-linejoin="miter" fill="none" stroke="#dcf2fd" d="M17.00923-29.45993 0 0H34.0185C34.0185 18.78702 18.78902 34.0165 .00198 34.0165-18.78503 34.0165-34.01451 18.78702-34.01451 0-34.01451-18.78702-18.78503-34.0165 .00198-34.0165 5.97157-34.0165 11.8405-32.44376 17.01022-29.45923L0 0"/>
<path transform="matrix(1,0,0,-1.00006,36.708,36.415224)" stroke-width=".3985" stroke-linecap="butt" stroke-miterlimit="10" stroke-linejoin="miter" fill="none" stroke="#000000" d="M34.0165 0C34.0165 18.78702 18.78702 34.0165 0 34.0165-18.78702 34.0165-34.0165 18.78702-34.0165 0-34.0165-18.78702-18.78702-34.0165 0-34.0165 18.78702-34.0165 34.0165-18.78702 34.0165 0ZM0 0"/>
<path transform="matrix(1,0,0,-1.00006,36.708,36.415224)" stroke-width=".79701" stroke-linecap="butt" stroke-miterlimit="10" stroke-linejoin="miter" fill="none" stroke="#000000" d="M34.0185 0H0"/>
<path transform="matrix(1,0,0,-1.00006,36.708,36.415224)" stroke-width=".79701" stroke-linecap="butt" stroke-miterlimit="10" stroke-linejoin="miter" fill="none" stroke="#000000" d="M17.00923-29.45993 0 0"/>
<use data-text="3" xlink:href="#font_1_2" transform="matrix(9.9626,0,0,-9.963197,26.888,61.285715)"/>
<use data-text="m" xlink:href="#font_2_75" transform="matrix(9.9626,0,0,-9.963197,35.187005,61.285715)"/>
<path transform="matrix(1,0,0,-1.00006,36.708,36.415224)" stroke-width=".79701" stroke-linecap="butt" stroke-miterlimit="10" stroke-linejoin="miter" fill="none" stroke="#ff0000" d="M11.05524 0C11.05524 6.1057 6.1057 11.05524 0 11.05524-6.1057 11.05524-11.05524 6.1057-11.05524 0-11.05524-6.1057-6.1057-11.05524 0-11.05524 1.94008-11.05524 3.84747-10.5441 5.52762-9.57414"/>
<use data-text="3" xlink:href="#font_1_2" transform="matrix(9.9626,0,0,-9.963197,29.639,13.921873)" fill="#ff0000"/>
<use data-text="0" xlink:href="#font_1_1" transform="matrix(9.9626,0,0,-9.963197,34.6203,13.921873)" fill="#ff0000"/>
<use data-text="0" xlink:href="#font_1_1" transform="matrix(9.9626,0,0,-9.963197,39.6016,13.921873)" fill="#ff0000"/>
<use data-text="&#x25e6;" xlink:href="#font_3_1" transform="matrix(6.9738,0,0,-6.9742186,44.583009,10.306656)" fill="#ff0000"/>
<path transform="matrix(1,0,0,-1.00006,36.708,36.415224)" stroke-width="1.59404" stroke-linecap="butt" stroke-miterlimit="10" stroke-linejoin="miter" fill="none" stroke="#ff0000" d="M34.0185 0C34.0185 18.78702 18.78902 34.0165 .00198 34.0165-18.78503 34.0165-34.01451 18.78702-34.01451 0-34.01451-18.78702-18.78503-34.0165 .00198-34.0165 5.97157-34.0165 11.8405-32.44376 17.01022-29.45923"/>
<path transform="matrix(1,0,0,-1.00006,36.708,36.415224)" d="M1.19554 0C1.19554 .66028 .66028 1.19554 0 1.19554-.66028 1.19554-1.19554 .66028-1.19554 0-1.19554-.66028-.66028-1.19554 0-1.19554 .66028-1.19554 1.19554-.66028 1.19554 0ZM0 0"/>
<path transform="matrix(1,0,0,-1.00006,36.708,36.415224)" stroke-width=".3985" stroke-linecap="butt" stroke-miterlimit="10" stroke-linejoin="miter" fill="none" stroke="#000000" d="M1.19554 0C1.19554 .66028 .66028 1.19554 0 1.19554-.66028 1.19554-1.19554 .66028-1.19554 0-1.19554-.66028-.66028-1.19554 0-1.19554 .66028-1.19554 1.19554-.66028 1.19554 0ZM0 0"/>
<use data-text="O" xlink:href="#font_4_1" transform="matrix(9.9626,0,0,-9.963197,27.305,37.82631)"/>
</svg>
