<svg xmlns="http://www.w3.org/2000/svg" xmlns:xlink="http://www.w3.org/1999/xlink" version="1.1" width="75" height="77" viewBox="0 0 75 77">
<defs>
<path id="font_1_1" d="M.2939911 .64004519C.2939911 .66400149 .2939911 .6660156 .2709961 .6660156 .20899964 .60227969 .12098694 .60227969 .08898926 .60227969V.57128909C.10899353 .57128909 .16799927 .57128909 .21998596 .5972748V.07902527C.21998596 .042999269 .21699524 .0309906 .1269989 .0309906H.09498596V0C.12998963 .0029907227 .21699524 .0029907227 .25698854 .0029907227 .29699708 .0029907227 .38398744 .0029907227 .4189911 0V.0309906H.3869934C.29699708 .0309906 .2939911 .041992189 .2939911 .07902527V.64004519Z"/>
<path id="font_1_2" d="M.2899933 .35191346C.37199403 .37893678 .42999269 .4490509 .42999269 .52809146 .42999269 .6100464 .34199525 .6660156 .24598694 .6660156 .14498902 .6660156 .068984989 .60606387 .068984989 .53009036 .068984989 .49710084 .09098816 .47808839 .11999512 .47808839 .15098572 .47808839 .17098999 .50009158 .17098999 .5290985 .17098999 .57910159 .12399292 .57910159 .10899353 .57910159 .13999939 .62802127 .20599365 .64100649 .24198914 .64100649 .2829895 .64100649 .33799745 .6190338 .33799745 .5290985 .33799745 .51708987 .33599855 .45906068 .30999757 .4149933 .27999879 .36691285 .24598694 .36390687 .22099304 .36291505 .21299744 .36190797 .18899536 .35990907 .18199158 .35990907 .17399597 .35890199 .16699219 .35791017 .16699219 .3479004 .16699219 .33691407 .17399597 .33691407 .19099427 .33691407H.23498535C.31698609 .33691407 .35398866 .2686615 .35398866 .17037964 .35398866 .034469606 .2849884 .0055389406 .24099732 .0055389406 .19799805 .0055389406 .12298584 .022491456 .08799744 .08137512 .12298584 .07637024 .1539917 .09837341 .1539917 .1363678 .1539917 .17237854 .1269989 .19238281 .09799194 .19238281 .07398987 .19238281 .041992189 .17837525 .041992189 .1343689 .041992189 .043441774 .1349945-.022460938 .24398804-.022460938 .3659973-.022460938 .45700074 .06838989 .45700074 .17037964 .45700074 .252594 .3939972 .33088685 .2899933 .35191346Z"/>
<path id="font_1_3" d="M.44898988 .20022583C.44898988 .3193512 .36698915 .41944886 .25898744 .41944886 .21099854 .41944886 .16799927 .40345765 .13198853 .36842347V.5637665C.1519928 .5577698 .18499756 .55078127 .21699524 .55078127 .33999635 .55078127 .4099884 .6417694 .4099884 .6547699 .4099884 .6607666 .40699769 .6657715 .3999939 .6657715 .39898683 .6657715 .39698792 .6657715 .3919983 .66278079 .37199403 .6537781 .32299806 .6337738 .2559967 .6337738 .21598816 .6337738 .16999817 .6407776 .12298584 .6617737 .114990238 .66477969 .11299133 .66477969 .11099243 .66477969 .100997928 .66477969 .100997928 .6567688 .100997928 .6407776V.34439088C.100997928 .32637025 .100997928 .31835938 .114990238 .31835938 .12199402 .31835938 .12399292 .32136537 .12799073 .32736207 .13899231 .3433838 .17599488 .39746095 .25698854 .39746095 .30899049 .39746095 .33399964 .35139466 .34199525 .33337403 .35798646 .29632569 .3600006 .25727845 .3600006 .20722962 .3600006 .17222595 .3600006 .11222839 .33599855 .07035828 .31199647 .031463624 .2749939 .0055389406 .22898865 .0055389406 .1559906 .0055389406 .09899902 .058380128 .08198547 .11723328 .084991458 .1162262 .08799744 .115234378 .09899902 .115234378 .13198853 .115234378 .14898682 .14022827 .14898682 .16423035 .14898682 .18823242 .13198853 .21322632 .09899902 .21322632 .084991458 .21322632 .049987794 .20622254 .049987794 .16023255 .049987794 .07434082 .11898804-.022460938 .23098755-.022460938 .34700013-.022460938 .44898988 .073349 .44898988 .20022583Z"/>
</defs>
<path transform="matrix(1.00005,0,0,-1.00009,37.530923,40.24718)" stroke-width=".3985" stroke-linecap="butt" stroke-miterlimit="10" stroke-linejoin="miter" fill="none" stroke="#00aeef" d="M0 0H35.43349"/>
<path transform="matrix(1.00005,0,0,-1.00009,37.530923,40.24718)" stroke-width=".3985" stroke-linecap="butt" stroke-miterlimit="10" stroke-linejoin="miter" fill="none" stroke="#00aeef" d="M0 0 34.22618 9.17087"/>
<path transform="matrix(1.00005,0,0,-1.00009,37.530923,40.24718)" stroke-width=".3985" stroke-linecap="butt" stroke-miterlimit="10" stroke-linejoin="miter" fill="none" stroke="#00aeef" d="M0 0 30.68639 17.71674"/>
<path transform="matrix(1.00005,0,0,-1.00009,37.530923,40.24718)" stroke-width=".3985" stroke-linecap="butt" stroke-miterlimit="10" stroke-linejoin="miter" fill="none" stroke="#00aeef" d="M0 0 25.05528 25.05528"/>
<path transform="matrix(1.00005,0,0,-1.00009,37.530923,40.24718)" stroke-width=".3985" stroke-linecap="butt" stroke-miterlimit="10" stroke-linejoin="miter" fill="none" stroke="#00aeef" d="M0 0 17.71674 30.68639"/>
<path transform="matrix(1.00005,0,0,-1.00009,37.530923,40.24718)" stroke-width=".3985" stroke-linecap="butt" stroke-miterlimit="10" stroke-linejoin="miter" fill="none" stroke="#00aeef" d="M0 0 9.17087 34.22618"/>
<path transform="matrix(1.00005,0,0,-1.00009,37.530923,40.24718)" stroke-width=".3985" stroke-linecap="butt" stroke-miterlimit="10" stroke-linejoin="miter" fill="none" stroke="#00aeef" d="M0 0V35.43349"/>
<path transform="matrix(1.00005,0,0,-1.00009,37.530923,40.24718)" stroke-width=".3985" stroke-linecap="butt" stroke-miterlimit="10" stroke-linejoin="miter" fill="none" stroke="#00aeef" d="M0 0-9.17087 34.22618"/>
<path transform="matrix(1.00005,0,0,-1.00009,37.530923,40.24718)" stroke-width=".3985" stroke-linecap="butt" stroke-miterlimit="10" stroke-linejoin="miter" fill="none" stroke="#00aeef" d="M0 0-17.71674 30.68639"/>
<path transform="matrix(1.00005,0,0,-1.00009,37.530923,40.24718)" stroke-width=".3985" stroke-linecap="butt" stroke-miterlimit="10" stroke-linejoin="miter" fill="none" stroke="#00aeef" d="M0 0-25.05528 25.05528"/>
<path transform="matrix(1.00005,0,0,-1.00009,37.530923,40.24718)" stroke-width=".3985" stroke-linecap="butt" stroke-miterlimit="10" stroke-linejoin="miter" fill="none" stroke="#00aeef" d="M0 0-30.68639 17.71674"/>
<path transform="matrix(1.00005,0,0,-1.00009,37.530923,40.24718)" stroke-width=".3985" stroke-linecap="butt" stroke-miterlimit="10" stroke-linejoin="miter" fill="none" stroke="#00aeef" d="M0 0-34.22618 9.17087"/>
<path transform="matrix(1.00005,0,0,-1.00009,37.530923,40.24718)" stroke-width=".3985" stroke-linecap="butt" stroke-miterlimit="10" stroke-linejoin="miter" fill="none" stroke="#00aeef" d="M0 0H-35.43349"/>
<path transform="matrix(1.00005,0,0,-1.00009,37.530923,40.24718)" stroke-width=".3985" stroke-linecap="butt" stroke-miterlimit="10" stroke-linejoin="miter" fill="none" stroke="#00aeef" d="M0 0-34.22618-9.17087"/>
<path transform="matrix(1.00005,0,0,-1.00009,37.530923,40.24718)" stroke-width=".3985" stroke-linecap="butt" stroke-miterlimit="10" stroke-linejoin="miter" fill="none" stroke="#00aeef" d="M0 0-30.68639-17.71674"/>
<path transform="matrix(1.00005,0,0,-1.00009,37.530923,40.24718)" stroke-width=".3985" stroke-linecap="butt" stroke-miterlimit="10" stroke-linejoin="miter" fill="none" stroke="#00aeef" d="M0 0-25.05528-25.05528"/>
<path transform="matrix(1.00005,0,0,-1.00009,37.530923,40.24718)" stroke-width=".3985" stroke-linecap="butt" stroke-miterlimit="10" stroke-linejoin="miter" fill="none" stroke="#00aeef" d="M0 0-17.71674-30.68639"/>
<path transform="matrix(1.00005,0,0,-1.00009,37.530923,40.24718)" stroke-width=".3985" stroke-linecap="butt" stroke-miterlimit="10" stroke-linejoin="miter" fill="none" stroke="#00aeef" d="M0 0-9.17087-34.22618"/>
<path transform="matrix(1.00005,0,0,-1.00009,37.530923,40.24718)" stroke-width=".3985" stroke-linecap="butt" stroke-miterlimit="10" stroke-linejoin="miter" fill="none" stroke="#00aeef" d="M0 0V-35.43349"/>
<path transform="matrix(1.00005,0,0,-1.00009,37.530923,40.24718)" stroke-width=".3985" stroke-linecap="butt" stroke-miterlimit="10" stroke-linejoin="miter" fill="none" stroke="#00aeef" d="M0 0 9.17087-34.22618"/>
<path transform="matrix(1.00005,0,0,-1.00009,37.530923,40.24718)" stroke-width=".3985" stroke-linecap="butt" stroke-miterlimit="10" stroke-linejoin="miter" fill="none" stroke="#00aeef" d="M0 0 17.71674-30.68639"/>
<path transform="matrix(1.00005,0,0,-1.00009,37.530923,40.24718)" stroke-width=".3985" stroke-linecap="butt" stroke-miterlimit="10" stroke-linejoin="miter" fill="none" stroke="#00aeef" d="M0 0 25.05528-25.05528"/>
<path transform="matrix(1.00005,0,0,-1.00009,37.530923,40.24718)" stroke-width=".3985" stroke-linecap="butt" stroke-miterlimit="10" stroke-linejoin="miter" fill="none" stroke="#00aeef" d="M0 0 30.68639-17.71674"/>
<path transform="matrix(1.00005,0,0,-1.00009,37.530923,40.24718)" stroke-width=".3985" stroke-linecap="butt" stroke-miterlimit="10" stroke-linejoin="miter" fill="none" stroke="#00aeef" d="M0 0 34.22618-9.17087"/>
<path transform="matrix(1.00005,0,0,-1.00009,37.530923,40.24718)" stroke-width=".3985" stroke-linecap="butt" stroke-miterlimit="10" stroke-linejoin="miter" fill="none" stroke="#00aeef" d="M14.17339 0C14.17339 7.82784 7.82784 14.17339 0 14.17339-7.82784 14.17339-14.17339 7.82784-14.17339 0-14.17339-7.82784-7.82784-14.17339 0-14.17339 7.82784-14.17339 14.17339-7.82784 14.17339 0ZM0 0"/>
<path transform="matrix(1.00005,0,0,-1.00009,37.530923,40.24718)" stroke-width=".3985" stroke-linecap="butt" stroke-miterlimit="10" stroke-linejoin="miter" fill="none" stroke="#00aeef" d="M28.3468 0C28.3468 15.6557 15.6557 28.3468 0 28.3468-15.6557 28.3468-28.3468 15.6557-28.3468 0-28.3468-15.6557-15.6557-28.3468 0-28.3468 15.6557-28.3468 28.3468-15.6557 28.3468 0ZM0 0"/>
<path transform="matrix(1.00005,0,0,-1.00009,37.530923,40.24718)" stroke-width=".3985" stroke-linecap="butt" stroke-miterlimit="10" stroke-linejoin="miter" fill="none" stroke="#00aeef" d="M7.08669 0C7.08669 3.91391 3.91391 7.08669 0 7.08669-3.91391 7.08669-7.08669 3.91391-7.08669 0-7.08669-3.91391-3.91391-7.08669 0-7.08669 3.91391-7.08669 7.08669-3.91391 7.08669 0ZM0 0"/>
<path transform="matrix(1.00005,0,0,-1.00009,37.530923,40.24718)" d="M-2.49069 3.87646H2.49069V10.29689H-2.49069Z" fill="#ffffff"/>
<use data-text="1" xlink:href="#font_1_1" transform="matrix(9.963098,0,0,-9.963496,35.039796,36.370836)"/>
<path transform="matrix(1.00005,0,0,-1.00009,37.530923,40.24718)" stroke-width=".3985" stroke-linecap="butt" stroke-miterlimit="10" stroke-linejoin="miter" fill="none" stroke="#00aeef" d="M21.2601 0C21.2601 11.74178 11.74178 21.2601 0 21.2601-11.74178 21.2601-21.2601 11.74178-21.2601 0-21.2601-11.74178-11.74178-21.2601 0-21.2601 11.74178-21.2601 21.2601-11.74178 21.2601 0ZM0 0"/>
<path transform="matrix(1.00005,0,0,-1.00009,37.530923,40.24718)" d="M-2.49069 18.04988H2.49069V24.47031H-2.49069Z" fill="#ffffff"/>
<use data-text="3" xlink:href="#font_1_2" transform="matrix(9.963098,0,0,-9.963496,35.039796,22.195557)"/>
<path transform="matrix(1.00005,0,0,-1.00009,37.530923,40.24718)" stroke-width=".3985" stroke-linecap="butt" stroke-miterlimit="10" stroke-linejoin="miter" fill="none" stroke="#00aeef" d="M35.43349 0C35.43349 19.56963 19.56963 35.43349 0 35.43349-19.56963 35.43349-35.43349 19.56963-35.43349 0-35.43349-19.56963-19.56963-35.43349 0-35.43349 19.56963-35.43349 35.43349-19.56963 35.43349 0ZM0 0"/>
<path transform="matrix(1.00005,0,0,-1.00009,37.530923,40.24718)" d="M-2.49069 32.22328H2.49069V38.64371H-2.49069Z" fill="#ffffff"/>
<use data-text="5" xlink:href="#font_1_3" transform="matrix(9.963098,0,0,-9.963496,35.039796,8.021282)"/>
<path transform="matrix(1.00005,0,0,-1.00009,37.530923,40.24718)" stroke-width="1.19553" stroke-linecap="butt" stroke-miterlimit="10" stroke-linejoin="miter" fill="none" stroke="#ff0000" d="M28.3468 0C28.3468 15.6557 15.6557 28.3468 0 28.3468-15.6557 28.3468-28.3468 15.6557-28.3468 0-28.3468-15.6557-15.6557-28.3468 0-28.3468 15.6557-28.3468 28.3468-15.6557 28.3468 0ZM0 0"/>
</svg>
