<svg xmlns="http://www.w3.org/2000/svg" xmlns:xlink="http://www.w3.org/1999/xlink" version="1.1" width="173pt" height="113pt" viewBox="0 0 173 113">
<defs>
<path id="font_1_1" d="M.45498658 .5001831C.45498658 .56614688 .43699647 .7050781 .33499146 .7050781 .19599915 .7050781 .041992189 .42323304 .041992189 .19425965 .041992189 .100250247 .070999149-.0107421879 .1619873-.0107421879 .30299378-.0107421879 .45498658 .27627564 .45498658 .5001831M.147995 .36328126C.16499329 .42723084 .18499756 .5071869 .22499085 .57814028 .2519989 .6271057 .2889862 .68307498 .33399964 .68307498 .3829956 .68307498 .3889923 .6191101 .3889923 .56214907 .3889923 .5131836 .3809967 .46220399 .35699464 .36328126H.147995M.34799195 .3312683C.33699037 .28527833 .31599427 .2002716 .27799989 .12826538 .24299622 .060256959 .20498657 .011245728 .1619873 .011245728 .1289978 .011245728 .10798645 .040252687 .10798645 .133255 .10798645 .17526245 .11399841 .23326111 .13999939 .3312683H.34799195Z"/>
<path id="font_1_3" d="M.48599244 .38136292C.48999024 .39537049 .48999024 .39736939 .48999024 .40437318 .48999024 .42237855 .47599793 .43138124 .46099855 .43138124 .45098878 .43138124 .43499757 .42536927 .42599488 .41036988 .42399598 .405365 .41600038 .37435914 .4119873 .35635377 .40499879 .33035279 .397995 .30334474 .3919983 .27633668L.34700013 .09628296C.34298707 .08126831 .2999878 .011245728 .23399353 .011245728 .18299866 .011245728 .17199707 .055267335 .17199707 .0922699 .17199707 .1382904 .18899536 .20030213 .22299195 .28833009 .23899842 .3293457 .24299622 .3403473 .24299622 .36035157 .24299622 .405365 .21099854 .4423828 .16099549 .4423828 .06599426 .4423828 .0289917 .29733277 .0289917 .28833009 .0289917 .27833558 .038986207 .27833558 .040985109 .27833558 .050994874 .27833558 .051986696 .28033448 .056991579 .29634095 .083999637 .3903656 .12399292 .42037965 .1579895 .42037965 .1659851 .42037965 .18299866 .42037965 .18299866 .3883667 .18299866 .36335755 .17298889 .3373413 .1659851 .31834413 .12599182 .21231079 .10798645 .1552887 .10798645 .10827637 .10798645 .019256592 .17098999-.0107421879 .22999573-.0107421879 .2689972-.0107421879 .30299378 .0062561037 .33099366 .03425598 .31799317-.017745972 .30599977-.06674194 .2659912-.11973572 .23999024-.15385437 .20199585-.18309021 .1559906-.18309021 .14199829-.18309021 .09700012-.18005371 .07998657-.14074707 .09599304-.14074707 .10899353-.14074707 .12298584-.1287384 .1329956-.11973572 .14299011-.10673523 .14299011-.08773804 .14299011-.056747438 .115997318-.052734376 .10598755-.052734376 .08299255-.052734376 .049987794-.068740848 .049987794-.11773682 .049987794-.16796875 .09399414-.20507813 .1559906-.20507813 .25898744-.20507813 .3619995-.11373901 .3899994-.00074768069L.48599244 .38136292Z"/>
<path id="font_2_1" d="M.6589966 .23046875C.6759949 .23046875 .69400027 .23046875 .69400027 .25045777 .69400027 .27046205 .6759949 .27046205 .6589966 .27046205H.117996219C.100997928 .27046205 .08299255 .27046205 .08299255 .25045777 .08299255 .23046875 .100997928 .23046875 .117996219 .23046875H.6589966Z"/>
<path id="font_3_1" d="M.2939911 .64004519C.2939911 .66400149 .2939911 .6660156 .2709961 .6660156 .20899964 .60227969 .12098694 .60227969 .08898926 .60227969V.57128909C.10899353 .57128909 .16799927 .57128909 .21998596 .5972748V.07902527C.21998596 .042999269 .21699524 .0309906 .1269989 .0309906H.09498596V0C.12998963 .0029907227 .21699524 .0029907227 .25698854 .0029907227 .29699708 .0029907227 .38398744 .0029907227 .4189911 0V.0309906H.3869934C.29699708 .0309906 .2939911 .041992189 .2939911 .07902527V.64004519Z"/>
<path id="font_1_2" d="M.2649994 .37265016H.37799073C.34498597 .22489929 .33599855 .18196106 .33599855 .11508179 .33599855 .100097659 .33599855 .073150638 .34399415 .03919983 .35398866-.0047454836 .36499024-.0107421879 .37998963-.0107421879 .3999939-.0107421879 .42099 .007247925 .42099 .02722168 .42099 .033218385 .42099 .035202028 .4149933 .049179079 .38598634 .12106323 .38598634 .18595886 .38598634 .21391297 .38598634 .26683045 .3929901 .32073976 .4039917 .37265016H.5179901C.5309906 .37265016 .5669861 .37265016 .5669861 .406662 .5669861 .43066407 .54599 .43066407 .5269928 .43066407H.19198609C.16999817 .43066407 .13198853 .43066407 .08799744 .38365174 .052993776 .34469605 .026992798 .29878236 .026992798 .29379273 .026992798 .29278565 .026992798 .28379823 .038986207 .28379823 .04699707 .28379823 .04899597 .28779603 .054992677 .29577638 .10398865 .37265016 .1619873 .37265016 .18199158 .37265016H.23899842C.20698548 .25186158 .15299988 .13105774 .11099243 .04020691 .102996829 .025222779 .102996829 .023223877 .102996829 .016235352 .102996829-.002746582 .11898804-.0107421879 .13198853-.0107421879 .1619873-.0107421879 .16999817 .017242432 .18199158 .05418396 .19599915 .100097659 .19599915 .10209656 .20899964 .15202332L.2649994 .37265016Z"/>
<path id="font_3_2" d="M.1269989 .07699585 .23298645 .18003845C.3889923 .31811524 .44898988 .3721466 .44898988 .47216798 .44898988 .5860901 .35899354 .6660156 .23699951 .6660156 .12399292 .6660156 .049987794 .57411196 .049987794 .48516847 .049987794 .4291687 .099990848 .4291687 .102996829 .4291687 .11999512 .4291687 .15499878 .44117738 .15499878 .48217774 .15499878 .5081787 .13699341 .5341797 .101989749 .5341797 .09399414 .5341797 .09199524 .5341797 .08898926 .5331726 .11199951 .59806826 .1659851 .63500979 .22399903 .63500979 .31498719 .63500979 .35798646 .5541382 .35798646 .47216798 .35798646 .39215089 .30799867 .31311036 .25299073 .25108338L.06098938 .036987306C.049987794 .025985718 .049987794 .023986817 .049987794 0H.42099L.44898988 .17404175H.42399598C.4189911 .14402771 .4119873 .1000061 .4019928 .084991458 .394989 .07699585 .32899476 .07699585 .30699159 .07699585H.1269989Z"/>
</defs>
<path transform="matrix(1.00008,0,0,-1.00002,18.737381,66.29207)" stroke-width=".3985" stroke-linecap="butt" stroke-miterlimit="10" stroke-linejoin="miter" fill="none" stroke="#00aeef" d="M0-45.35506H136.0652M0-22.67752H136.0652M0 0H136.0652M0 22.67752H136.0652M0 45.34708H136.0652M0-45.35506V45.35506M3.77933-45.35506V45.35506M7.55867-45.35506V45.35506M11.33803-45.35506V45.35506M15.11737-45.35506V45.35506M18.89671-45.35506V45.35506M22.67607-45.35506V45.35506M26.45541-45.35506V45.35506M30.23477-45.35506V45.35506M34.01411-45.35506V45.35506M37.79346-45.35506V45.35506M41.57281-45.35506V45.35506M45.35216-45.35506V45.35506M49.13152-45.35506V45.35506M52.91086-45.35506V45.35506M56.6902-45.35506V45.35506M60.46956-45.35506V45.35506M64.2489-45.35506V45.35506M68.02826-45.35506V45.35506M71.8076-45.35506V45.35506M75.58693-45.35506V45.35506M79.36629-45.35506V45.35506M83.14563-45.35506V45.35506M86.92499-45.35506V45.35506M90.70433-45.35506V45.35506M94.48367-45.35506V45.35506M98.26303-45.35506V45.35506M102.04237-45.35506V45.35506M105.82173-45.35506V45.35506M109.60107-45.35506V45.35506M113.38042-45.35506V45.35506M117.15977-45.35506V45.35506M120.93912-45.35506V45.35506M124.71846-45.35506V45.35506M128.49782-45.35506V45.35506M132.27716-45.35506V45.35506M136.05652-45.35506V45.35506M136.0652 45.35506"/>
<path transform="matrix(1.00008,0,0,-1.00002,18.737381,66.29207)" stroke-width=".79701" stroke-linecap="butt" stroke-miterlimit="10" stroke-linejoin="miter" fill="none" stroke="#000000" d="M0 0H143.70145"/>
<path transform="matrix(1.00008,0,0,-1.00002,162.45032,66.29207)" d="M1.0361 0C-.25902 .25902-1.55415 .77707-3.1083 1.68365-1.55415 .51805-1.55415-.51805-3.1083-1.68365-1.55415-.77707-.25902-.25902 1.0361 0Z"/>
<path transform="matrix(1.00008,0,0,-1.00002,162.45032,66.29207)" stroke-width=".79701" stroke-linecap="butt" stroke-linejoin="round" fill="none" stroke="#000000" d="M1.0361 0C-.25902 .25902-1.55415 .77707-3.1083 1.68365-1.55415 .51805-1.55415-.51805-3.1083-1.68365-1.55415-.77707-.25902-.25902 1.0361 0Z"/>
<use data-text="&#x03b8;" xlink:href="#font_1_1" transform="matrix(9.963397,0,0,-9.962799,167.60428,69.75114)"/>
<path transform="matrix(1.00008,0,0,-1.00002,18.737381,66.29207)" stroke-width=".79701" stroke-linecap="butt" stroke-miterlimit="10" stroke-linejoin="miter" fill="none" stroke="#000000" d="M0-45.35506V52.99132"/>
<path transform="matrix(0,-1.00002,-1.00008,-0,18.737381,13.299686)" d="M1.0361 0C-.25902 .25902-1.55415 .77707-3.1083 1.68365-1.55415 .51805-1.55415-.51805-3.1083-1.68365-1.55415-.77707-.25902-.25902 1.0361 0Z"/>
<path transform="matrix(0,-1.00002,-1.00008,-0,18.737381,13.299686)" stroke-width=".79701" stroke-linecap="butt" stroke-linejoin="round" fill="none" stroke="#000000" d="M1.0361 0C-.25902 .25902-1.55415 .77707-3.1083 1.68365-1.55415 .51805-1.55415-.51805-3.1083-1.68365-1.55415-.77707-.25902-.25902 1.0361 0Z"/>
<use data-text="y" xlink:href="#font_1_3" transform="matrix(9.963397,0,0,-9.962799,16.116173,6.208866)"/>
<path transform="matrix(1.00008,0,0,-1.00002,18.737381,66.29207)" stroke-width=".3985" stroke-linecap="butt" stroke-miterlimit="10" stroke-linejoin="miter" fill="none" stroke="#000000" d="M2.26787-22.67752H-2.26753"/>
<use data-text="&#x2212;" xlink:href="#font_2_1" transform="matrix(9.963397,0,0,-9.962799,.21789551,91.76558)"/>
<use data-text="1" xlink:href="#font_3_1" transform="matrix(9.963397,0,0,-9.962799,7.9665148,91.76558)"/>
<path transform="matrix(1.00008,0,0,-1.00002,18.737381,66.29207)" stroke-width=".3985" stroke-linecap="butt" stroke-miterlimit="10" stroke-linejoin="miter" fill="none" stroke="#000000" d="M2.26787 22.67752H-2.26753"/>
<use data-text="1" xlink:href="#font_3_1" transform="matrix(9.963397,0,0,-9.962799,7.9675219,46.82468)"/>
<path transform="matrix(1.00008,0,0,-1.00002,18.737381,66.29207)" stroke-width=".3985" stroke-linecap="butt" stroke-miterlimit="10" stroke-linejoin="miter" fill="none" stroke="#000000" d="M68.0326 2.26787V-2.26753"/>
<path transform="matrix(1.00008,0,0,-1.00002,18.737381,66.29207)" d="M65.01434-8.74886H71.05083V-4.45936H65.01434Z" fill="#ffffff"/>
<use data-text="&#x03c0;" xlink:href="#font_1_2" transform="matrix(9.963397,0,0,-9.962799,83.756587,75.041248)"/>
<path transform="matrix(1.00008,0,0,-1.00002,18.737381,66.29207)" stroke-width=".3985" stroke-linecap="butt" stroke-miterlimit="10" stroke-linejoin="miter" fill="none" stroke="#000000" d="M136.0652 2.26787V-2.26753"/>
<path transform="matrix(1.00008,0,0,-1.00002,18.737381,66.29207)" d="M130.55626-9.8835H141.57413V-3.46307H130.55626Z" fill="#ffffff"/>
<use data-text="2" xlink:href="#font_3_2" transform="matrix(9.963397,0,0,-9.962799,149.30382,76.17526)"/>
<use data-text="&#x03c0;" xlink:href="#font_1_2" transform="matrix(9.963397,0,0,-9.962799,154.28522,76.17526)"/>
<path transform="matrix(1.00008,0,0,-1.00002,18.737381,66.29207)" stroke-width="1.19553" stroke-linecap="butt" stroke-miterlimit="10" stroke-linejoin="miter" fill="none" stroke="#ff0000" d="M0 0C0 0 1.53603 4.83455 2.12599 6.58253 2.71596 8.33052 3.66206 11.07951 4.25201 12.5983 4.84198 14.11708 5.78807 16.37006 6.37802 17.5289 6.96799 18.68776 7.9141 20.25143 8.50406 20.95047 9.09401 21.6495 10.04012 22.38805 10.63008 22.56714 11.22005 22.74622 12.16612 22.5975 12.75609 22.24117 13.34605 21.88484 14.29214 20.85992 14.88211 19.99889 15.47206 19.13785 16.41817 17.32707 17.00813 16.03543 17.5981 14.7438 18.54419 12.3007 19.13414 10.68959 19.7241 9.07848 20.6702 6.21516 21.26018 4.42365 21.85013 2.63211 22.79622-.40472 23.38618-2.22253 23.97615-4.04033 24.92224-6.99017 25.51219-8.67775 26.10216-10.36534 27.04826-12.9735 27.63823-14.38554 28.22818-15.79759 29.17429-17.84 29.76425-18.8549 30.3542-19.8698 31.30031-21.16994 31.89026-21.70032 32.48022-22.2307 33.42632-22.67752 34.01628-22.67752 34.60625-22.67752 35.55234-22.2307 36.1423-21.70032 36.73225-21.16994 37.67836-19.8698 38.26831-18.8549 38.85828-17.84 39.80438-15.79759 40.39433-14.38554 40.9843-12.9735 41.93039-10.36534 42.52037-8.67775 43.11032-6.99017 44.05641-4.04033 44.64638-2.22253 45.23634-.40472 46.18243 2.63211 46.77238 4.42365 47.36235 6.21516 48.30846 9.07848 48.89842 10.68959 49.48837 12.3007 50.43446 14.7438 51.02443 16.03543 51.6144 17.32707 52.56049 19.13785 53.15045 19.99889 53.74042 20.85992 54.68651 21.88484 55.27647 22.24117 55.86644 22.5975 56.81252 22.74622 57.40248 22.56714 57.99243 22.38805 58.93855 21.6495 59.5285 20.95047 60.11847 20.25143 61.06458 18.68776 61.65454 17.5289 62.24449 16.37006 63.19058 14.11708 63.78055 12.5983 64.3705 11.07951 65.3166 8.33052 65.90656 6.58253 66.49654 4.83455 67.44263 1.82661 68.0326 0 68.62254-1.82661 69.56863-4.83455 70.1586-6.58253 70.74855-8.33052 71.69467-11.07951 72.28462-12.5983 72.87459-14.11708 73.82068-16.37006 74.41063-17.5289 75.0006-18.68776 75.94669-20.25143 76.53667-20.95047 77.12662-21.6495 78.07272-22.38805 78.66267-22.56714 79.25264-22.74622 80.19873-22.5975 80.78868-22.24117 81.37865-21.88484 82.32475-20.85992 82.91472-19.99889 83.50467-19.13785 84.45078-17.32707 85.04074-16.03543 85.6307-14.7438 86.57678-12.3007 87.16675-10.68959 87.75671-9.07848 88.7028-6.21516 89.29277-4.42365 89.88272-2.63211 90.82883 .40472 91.4188 2.22253 92.00874 4.04033 92.95485 6.99017 93.5448 8.67775 94.13477 10.36534 95.08087 12.9735 95.67084 14.38554 96.26079 15.79759 97.20688 17.84 97.79684 18.8549 98.38681 19.8698 99.3329 21.16994 99.92285 21.70032 100.51283 22.2307 101.45892 22.67752 102.04889 22.67752 102.63884 22.67752 103.58495 22.2307 104.17491 21.70032 104.76486 21.16994 105.71097 19.8698 106.30092 18.8549 106.89088 17.84 107.83698 15.79759 108.42694 14.38554 109.0169 12.9735 109.963 10.36534 110.55296 8.67775 111.14291 6.99017 112.08902 4.04033 112.67897 2.22253 113.26894 .40472 114.21504-2.63211 114.805-4.42365 115.39496-6.21516 116.34105-9.07848 116.93103-10.68959 117.52098-12.3007 118.46707-14.7438 119.05704-16.03543 119.647-17.32707 120.5931-19.13785 121.18304-19.99889 121.77301-20.85992 122.71912-21.88484 123.30908-22.24117 123.89903-22.5975 124.84512-22.74622 125.43509-22.56714 126.02504-22.38805 126.97116-21.6495 127.56111-20.95047 128.15108-20.25143 129.09717-18.68776 129.68714-17.5289 130.2771-16.37006 131.22318-14.11708 131.81314-12.5983 132.4031-11.07951 133.34922-8.33052 133.93917-6.58253 134.52913-4.83455 136.0652 0 136.0652 0"/>
</svg>
