<svg xmlns="http://www.w3.org/2000/svg" xmlns:xlink="http://www.w3.org/1999/xlink" version="1.1" width="89" height="91" viewBox="0 0 89 91">
<defs>
<path id="font_1_1" d="M.45999146 .31976319C.45999146 .39982606 .45498658 .47988893 .41999818 .5539398 .37399293 .65000918 .2919922 .6660156 .25 .6660156 .18998719 .6660156 .116989139 .64001467 .07598877 .54693606 .04399109 .47789 .038986207 .39982606 .038986207 .31976319 .038986207 .24472046 .042999269 .15464783 .083999637 .07859802 .1269989-.0024719239 .19999695-.022460938 .24899292-.022460938 .30299378-.022460938 .3789978-.0014648438 .4229889 .09359741 .45498658 .16265869 .45999146 .2407074 .45999146 .31976319M.24899292-.00047302247C.20999146-.00047302247 .15098572 .024551392 .1329956 .12062073 .12199402 .18066406 .12199402 .2727356 .12199402 .3317871 .12199402 .39582826 .12199402 .46188355 .12998963 .5159149 .14898682 .63500979 .22399903 .64401248 .24899292 .64401248 .28199769 .64401248 .34799195 .6259918 .36698915 .52693179 .3769989 .47088624 .3769989 .39482118 .3769989 .3317871 .3769989 .25672914 .3769989 .18867493 .3659973 .12461853 .35099793 .029556275 .2939911-.00047302247 .24899292-.00047302247Z"/>
<path id="font_2_1" d="M.19198609 .052993776C.19198609 .08198547 .16799927 .10598755 .13899231 .10598755 .10998535 .10598755 .085998538 .08198547 .085998538 .052993776 .085998538 .023986817 .10998535 0 .13899231 0 .16799927 0 .19198609 .023986817 .19198609 .052993776Z"/>
<path id="font_1_3" d="M.44898988 .20022583C.44898988 .3193512 .36698915 .41944886 .25898744 .41944886 .21099854 .41944886 .16799927 .40345765 .13198853 .36842347V.5637665C.1519928 .5577698 .18499756 .55078127 .21699524 .55078127 .33999635 .55078127 .4099884 .6417694 .4099884 .6547699 .4099884 .6607666 .40699769 .6657715 .3999939 .6657715 .39898683 .6657715 .39698792 .6657715 .3919983 .66278079 .37199403 .6537781 .32299806 .6337738 .2559967 .6337738 .21598816 .6337738 .16999817 .6407776 .12298584 .6617737 .114990238 .66477969 .11299133 .66477969 .11099243 .66477969 .100997928 .66477969 .100997928 .6567688 .100997928 .6407776V.34439088C.100997928 .32637025 .100997928 .31835938 .114990238 .31835938 .12199402 .31835938 .12399292 .32136537 .12799073 .32736207 .13899231 .3433838 .17599488 .39746095 .25698854 .39746095 .30899049 .39746095 .33399964 .35139466 .34199525 .33337403 .35798646 .29632569 .3600006 .25727845 .3600006 .20722962 .3600006 .17222595 .3600006 .11222839 .33599855 .07035828 .31199647 .031463624 .2749939 .0055389406 .22898865 .0055389406 .1559906 .0055389406 .09899902 .058380128 .08198547 .11723328 .084991458 .1162262 .08799744 .115234378 .09899902 .115234378 .13198853 .115234378 .14898682 .14022827 .14898682 .16423035 .14898682 .18823242 .13198853 .21322632 .09899902 .21322632 .084991458 .21322632 .049987794 .20622254 .049987794 .16023255 .049987794 .07434082 .11898804-.022460938 .23098755-.022460938 .34700013-.022460938 .44898988 .073349 .44898988 .20022583Z"/>
<path id="font_1_2" d="M.2939911 .64004519C.2939911 .66400149 .2939911 .6660156 .2709961 .6660156 .20899964 .60227969 .12098694 .60227969 .08898926 .60227969V.57128909C.10899353 .57128909 .16799927 .57128909 .21998596 .5972748V.07902527C.21998596 .042999269 .21699524 .0309906 .1269989 .0309906H.09498596V0C.12998963 .0029907227 .21699524 .0029907227 .25698854 .0029907227 .29699708 .0029907227 .38398744 .0029907227 .4189911 0V.0309906H.3869934C.29699708 .0309906 .2939911 .041992189 .2939911 .07902527V.64004519Z"/>
</defs>
<path transform="matrix(1.00003,0,0,-1.00008,44.617776,47.325666)" stroke-width=".3985" stroke-linecap="butt" stroke-miterlimit="10" stroke-linejoin="miter" fill="none" stroke="#cbcbcb" d="M0 0H42.5202"/>
<path transform="matrix(1.00003,0,0,-1.00008,44.617776,47.325666)" stroke-width=".3985" stroke-linecap="butt" stroke-miterlimit="10" stroke-linejoin="miter" fill="none" stroke="#cbcbcb" d="M0 0 41.0712 11.00505"/>
<path transform="matrix(1.00003,0,0,-1.00008,44.617776,47.325666)" stroke-width=".3985" stroke-linecap="butt" stroke-miterlimit="10" stroke-linejoin="miter" fill="none" stroke="#cbcbcb" d="M0 0 36.82367 21.2601"/>
<path transform="matrix(1.00003,0,0,-1.00008,44.617776,47.325666)" stroke-width=".3985" stroke-linecap="butt" stroke-miterlimit="10" stroke-linejoin="miter" fill="none" stroke="#cbcbcb" d="M0 0 30.06613 30.06613"/>
<path transform="matrix(1.00003,0,0,-1.00008,44.617776,47.325666)" stroke-width=".3985" stroke-linecap="butt" stroke-miterlimit="10" stroke-linejoin="miter" fill="none" stroke="#cbcbcb" d="M0 0 21.2601 36.82367"/>
<path transform="matrix(1.00003,0,0,-1.00008,44.617776,47.325666)" stroke-width=".3985" stroke-linecap="butt" stroke-miterlimit="10" stroke-linejoin="miter" fill="none" stroke="#cbcbcb" d="M0 0 11.00505 41.0712"/>
<path transform="matrix(1.00003,0,0,-1.00008,44.617776,47.325666)" stroke-width=".3985" stroke-linecap="butt" stroke-miterlimit="10" stroke-linejoin="miter" fill="none" stroke="#cbcbcb" d="M0 0V42.5202"/>
<path transform="matrix(1.00003,0,0,-1.00008,44.617776,47.325666)" stroke-width=".3985" stroke-linecap="butt" stroke-miterlimit="10" stroke-linejoin="miter" fill="none" stroke="#cbcbcb" d="M0 0-11.00505 41.0712"/>
<path transform="matrix(1.00003,0,0,-1.00008,44.617776,47.325666)" stroke-width=".3985" stroke-linecap="butt" stroke-miterlimit="10" stroke-linejoin="miter" fill="none" stroke="#cbcbcb" d="M0 0-21.2601 36.82367"/>
<path transform="matrix(1.00003,0,0,-1.00008,44.617776,47.325666)" stroke-width=".3985" stroke-linecap="butt" stroke-miterlimit="10" stroke-linejoin="miter" fill="none" stroke="#cbcbcb" d="M0 0-30.06613 30.06613"/>
<path transform="matrix(1.00003,0,0,-1.00008,44.617776,47.325666)" stroke-width=".3985" stroke-linecap="butt" stroke-miterlimit="10" stroke-linejoin="miter" fill="none" stroke="#cbcbcb" d="M0 0-36.82367 21.2601"/>
<path transform="matrix(1.00003,0,0,-1.00008,44.617776,47.325666)" stroke-width=".3985" stroke-linecap="butt" stroke-miterlimit="10" stroke-linejoin="miter" fill="none" stroke="#cbcbcb" d="M0 0-41.0712 11.00505"/>
<path transform="matrix(1.00003,0,0,-1.00008,44.617776,47.325666)" stroke-width=".3985" stroke-linecap="butt" stroke-miterlimit="10" stroke-linejoin="miter" fill="none" stroke="#cbcbcb" d="M0 0H-42.5202"/>
<path transform="matrix(1.00003,0,0,-1.00008,44.617776,47.325666)" stroke-width=".3985" stroke-linecap="butt" stroke-miterlimit="10" stroke-linejoin="miter" fill="none" stroke="#cbcbcb" d="M0 0-41.0712-11.00505"/>
<path transform="matrix(1.00003,0,0,-1.00008,44.617776,47.325666)" stroke-width=".3985" stroke-linecap="butt" stroke-miterlimit="10" stroke-linejoin="miter" fill="none" stroke="#cbcbcb" d="M0 0-36.82367-21.2601"/>
<path transform="matrix(1.00003,0,0,-1.00008,44.617776,47.325666)" stroke-width=".3985" stroke-linecap="butt" stroke-miterlimit="10" stroke-linejoin="miter" fill="none" stroke="#cbcbcb" d="M0 0-30.06613-30.06613"/>
<path transform="matrix(1.00003,0,0,-1.00008,44.617776,47.325666)" stroke-width=".3985" stroke-linecap="butt" stroke-miterlimit="10" stroke-linejoin="miter" fill="none" stroke="#cbcbcb" d="M0 0-21.2601-36.82367"/>
<path transform="matrix(1.00003,0,0,-1.00008,44.617776,47.325666)" stroke-width=".3985" stroke-linecap="butt" stroke-miterlimit="10" stroke-linejoin="miter" fill="none" stroke="#cbcbcb" d="M0 0-11.00505-41.0712"/>
<path transform="matrix(1.00003,0,0,-1.00008,44.617776,47.325666)" stroke-width=".3985" stroke-linecap="butt" stroke-miterlimit="10" stroke-linejoin="miter" fill="none" stroke="#cbcbcb" d="M0 0V-42.5202"/>
<path transform="matrix(1.00003,0,0,-1.00008,44.617776,47.325666)" stroke-width=".3985" stroke-linecap="butt" stroke-miterlimit="10" stroke-linejoin="miter" fill="none" stroke="#cbcbcb" d="M0 0 11.00505-41.0712"/>
<path transform="matrix(1.00003,0,0,-1.00008,44.617776,47.325666)" stroke-width=".3985" stroke-linecap="butt" stroke-miterlimit="10" stroke-linejoin="miter" fill="none" stroke="#cbcbcb" d="M0 0 21.2601-36.82367"/>
<path transform="matrix(1.00003,0,0,-1.00008,44.617776,47.325666)" stroke-width=".3985" stroke-linecap="butt" stroke-miterlimit="10" stroke-linejoin="miter" fill="none" stroke="#cbcbcb" d="M0 0 30.06613-30.06613"/>
<path transform="matrix(1.00003,0,0,-1.00008,44.617776,47.325666)" stroke-width=".3985" stroke-linecap="butt" stroke-miterlimit="10" stroke-linejoin="miter" fill="none" stroke="#cbcbcb" d="M0 0 36.82367-21.2601"/>
<path transform="matrix(1.00003,0,0,-1.00008,44.617776,47.325666)" stroke-width=".3985" stroke-linecap="butt" stroke-miterlimit="10" stroke-linejoin="miter" fill="none" stroke="#cbcbcb" d="M0 0 41.0712-11.00505"/>
<path transform="matrix(1.00003,0,0,-1.00008,44.617776,47.325666)" stroke-width=".3985" stroke-linecap="butt" stroke-miterlimit="10" stroke-linejoin="miter" fill="none" stroke="#cbcbcb" d="M14.17339 0C14.17339 7.82784 7.82784 14.17339 0 14.17339-7.82784 14.17339-14.17339 7.82784-14.17339 0-14.17339-7.82784-7.82784-14.17339 0-14.17339 7.82784-14.17339 14.17339-7.82784 14.17339 0ZM0 0"/>
<path transform="matrix(1.00003,0,0,-1.00008,44.617776,47.325666)" d="M-8.35767 8.97061H8.35766V19.37614H-8.35767Z" fill="#ffffff"/>
<use data-text="0" xlink:href="#font_1_1" transform="matrix(9.962899,0,0,-9.963397,38.252588,36.361787)"/>
<use data-text="." xlink:href="#font_2_1" transform="matrix(9.962899,0,0,-9.963397,43.233736,36.361787)"/>
<use data-text="5" xlink:href="#font_1_3" transform="matrix(9.962899,0,0,-9.963397,46.000825,36.361787)"/>
<path transform="matrix(1.00003,0,0,-1.00008,44.617776,47.325666)" stroke-width=".3985" stroke-linecap="butt" stroke-miterlimit="10" stroke-linejoin="miter" fill="none" stroke="#cbcbcb" d="M28.3468 0C28.3468 15.6557 15.6557 28.3468 0 28.3468-15.6557 28.3468-28.3468 15.6557-28.3468 0-28.3468-15.6557-15.6557-28.3468 0-28.3468 15.6557-28.3468 28.3468-15.6557 28.3468 0ZM0 0"/>
<path transform="matrix(1.00003,0,0,-1.00008,44.617776,47.325666)" d="M-4.48325 23.14403H4.4832398V33.54956H-4.48325Z" fill="#ffffff"/>
<use data-text="1" xlink:href="#font_1_2" transform="matrix(9.962899,0,0,-9.963397,42.1267,22.186655)"/>
<path transform="matrix(1.00003,0,0,-1.00008,44.617776,47.325666)" stroke-width=".3985" stroke-linecap="butt" stroke-miterlimit="10" stroke-linejoin="miter" fill="none" stroke="#cbcbcb" d="M42.5202 0C42.5202 23.48355 23.48355 42.5202 0 42.5202-23.48355 42.5202-42.5202 23.48355-42.5202 0-42.5202-23.48355-23.48355-42.5202 0-42.5202 23.48355-42.5202 42.5202-23.48355 42.5202 0ZM0 0"/>
<path transform="matrix(1.00003,0,0,-1.00008,44.617776,47.325666)" d="M-8.35767 37.31743H8.35766V47.722959H-8.35767Z" fill="#ffffff"/>
<use data-text="1" xlink:href="#font_1_2" transform="matrix(9.962899,0,0,-9.963397,38.252588,8.01252)"/>
<use data-text="." xlink:href="#font_2_1" transform="matrix(9.962899,0,0,-9.963397,43.233736,8.01252)"/>
<use data-text="5" xlink:href="#font_1_3" transform="matrix(9.962899,0,0,-9.963397,46.000825,8.01252)"/>
<path transform="matrix(1.00003,0,0,-1.00008,44.617776,47.325666)" stroke-width="1.19553" stroke-linecap="butt" stroke-miterlimit="10" stroke-linejoin="miter" fill="none" stroke="#ff0000" d="M-14.17339 14.17339C-14.17339 14.17339-14.16408 13.66908-14.15436 13.47614-14.14464 13.28319-14.12216 12.97469-14.10332 12.78278-14.08449 12.59087-14.04686 12.28383-14.01854 12.09288-13.99022 11.90193-13.93672 11.59567-13.89915 11.40645-13.8616 11.21722-13.79465 10.91628-13.74779 10.7291-13.70091 10.54192-13.61745 10.24214-13.56134 10.05736-13.50523 9.87259-13.40834 9.5789-13.34335 9.39731-13.27835 9.21571-13.16678 8.92679-13.09291 8.7485-13.01904 8.57022-12.89323 8.28658-12.8109 8.11224-12.72856 7.9379-12.59038 7.6621-12.49947 7.49197-12.40855 7.32184-12.25491 7.0516-12.1556 6.88599-12.05629 6.72037-11.89085 6.45865-11.78363 6.29817-11.67639 6.1377-11.4977 5.8844-11.38266 5.72939-11.26762 5.57437-11.07681 5.33005-10.95445 5.18092-10.83209 5.03178-10.63022 4.79747-10.50072 4.65453-10.3712 4.51158-10.15744 4.2871-10.02103 4.15062-9.88463 4.01414-9.66057 3.8005-9.51756 3.67093-9.37456 3.54137-9.13948 3.33914-8.9903 3.21678-8.8411 3.09442-8.59721 2.90396-8.44226 2.78899-8.28731 2.67403-8.03401 2.49525-7.87347 2.38803-7.71295 2.28079-7.45073 2.11523-7.28522 2.01605-7.11972 1.91685-6.85072 1.764-6.68053 1.67305-6.51035 1.58208-6.233 1.44283-6.05855 1.3603-5.88408 1.2778-5.60144 1.15216-5.42314 1.0783-5.24486 1.00444-4.95518 .89285-4.77347 .82787-4.59177 .76288-4.29796 .66585-4.11342 .60986-3.92888 .55388-3.6306 .47118-3.44342 .42432-3.25624 .37744-2.95367 .30968-2.76433 .27205-2.575 .23442-2.26971 .18143-2.07875 .1531-1.8878 .12479-1.57997 .08679-1.388 .0679-1.19603 .049-.88765 .02626-.69507 .01685-.50249 .00745-.19286 0 0 0 .19286 0 .50249 .00745 .69507 .01685 .88765 .02626 1.19603 .049 1.388 .0679 1.57997 .08679 1.8878 .12479 2.07875 .1531 2.26971 .18143 2.575 .23442 2.76433 .27205 2.95367 .30968 3.25624 .37744 3.44342 .42432 3.6306 .47118 3.92888 .55388 4.11342 .60986 4.29796 .66585 4.59177 .76288 4.77347 .82787 4.95518 .89285 5.24486 1.00444 5.42314 1.0783 5.60144 1.15216 5.88408 1.2778 6.05855 1.3603 6.233 1.44283 6.51035 1.58208 6.68053 1.67305 6.85072 1.764 7.11972 1.91685 7.28522 2.01605 7.45073 2.11523 7.71295 2.28079 7.87347 2.38803 8.03401 2.49525 8.28731 2.67403 8.44226 2.78899 8.59721 2.90396 8.8411 3.09442 8.9903 3.21678 9.13948 3.33914 9.37456 3.54137 9.51756 3.67093 9.66057 3.8005 9.88463 4.01414 10.02103 4.15062 10.15744 4.2871 10.3712 4.51158 10.50072 4.65453 10.63022 4.79747 10.83209 5.03178 10.95445 5.18092 11.07681 5.33005 11.26762 5.57437 11.38266 5.72939 11.4977 5.8844 11.67639 6.1377 11.78363 6.29817 11.89085 6.45865 12.05629 6.72037 12.1556 6.88599 12.25491 7.0516 12.40855 7.32184 12.49947 7.49197 12.59038 7.6621 12.72856 7.9379 12.8109 8.11224 12.89323 8.28658 13.01904 8.57022 13.09291 8.7485 13.16678 8.92679 13.27835 9.21571 13.34335 9.39731 13.40834 9.5789 13.50523 9.87259 13.56134 10.05736 13.61745 10.24214 13.70091 10.54192 13.74779 10.7291 13.79465 10.91628 13.8616 11.21722 13.89915 11.40645 13.93672 11.59567 13.99022 11.90193 14.01854 12.09288 14.04686 12.28383 14.08449 12.59087 14.10332 12.78278 14.12216 12.97469 14.14464 13.28319 14.15436 13.47614 14.16408 13.66908 14.17339 14.17339 14.17339 14.17339"/>
</svg>
