<svg xmlns="http://www.w3.org/2000/svg" xmlns:xlink="http://www.w3.org/1999/xlink" version="1.1" width="136pt" height="100pt" viewBox="0 0 136 100">
<defs>
<path id="font_1_1" d="M.2939911 .64004519C.2939911 .66400149 .2939911 .6660156 .2709961 .6660156 .20899964 .60227969 .12098694 .60227969 .08898926 .60227969V.57128909C.10899353 .57128909 .16799927 .57128909 .21998596 .5972748V.07902527C.21998596 .042999269 .21699524 .0309906 .1269989 .0309906H.09498596V0C.12998963 .0029907227 .21699524 .0029907227 .25698854 .0029907227 .29699708 .0029907227 .38398744 .0029907227 .4189911 0V.0309906H.3869934C.29699708 .0309906 .2939911 .041992189 .2939911 .07902527V.64004519Z"/>
<path id="font_1_2" d="M.1269989 .07699585 .23298645 .18003845C.3889923 .31811524 .44898988 .3721466 .44898988 .47216798 .44898988 .5860901 .35899354 .6660156 .23699951 .6660156 .12399292 .6660156 .049987794 .57411196 .049987794 .48516847 .049987794 .4291687 .099990848 .4291687 .102996829 .4291687 .11999512 .4291687 .15499878 .44117738 .15499878 .48217774 .15499878 .5081787 .13699341 .5341797 .101989749 .5341797 .09399414 .5341797 .09199524 .5341797 .08898926 .5331726 .11199951 .59806826 .1659851 .63500979 .22399903 .63500979 .31498719 .63500979 .35798646 .5541382 .35798646 .47216798 .35798646 .39215089 .30799867 .31311036 .25299073 .25108338L.06098938 .036987306C.049987794 .025985718 .049987794 .023986817 .049987794 0H.42099L.44898988 .17404175H.42399598C.4189911 .14402771 .4119873 .1000061 .4019928 .084991458 .394989 .07699585 .32899476 .07699585 .30699159 .07699585H.1269989Z"/>
<path id="font_1_3" d="M.2899933 .35191346C.37199403 .37893678 .42999269 .4490509 .42999269 .52809146 .42999269 .6100464 .34199525 .6660156 .24598694 .6660156 .14498902 .6660156 .068984989 .60606387 .068984989 .53009036 .068984989 .49710084 .09098816 .47808839 .11999512 .47808839 .15098572 .47808839 .17098999 .50009158 .17098999 .5290985 .17098999 .57910159 .12399292 .57910159 .10899353 .57910159 .13999939 .62802127 .20599365 .64100649 .24198914 .64100649 .2829895 .64100649 .33799745 .6190338 .33799745 .5290985 .33799745 .51708987 .33599855 .45906068 .30999757 .4149933 .27999879 .36691285 .24598694 .36390687 .22099304 .36291505 .21299744 .36190797 .18899536 .35990907 .18199158 .35990907 .17399597 .35890199 .16699219 .35791017 .16699219 .3479004 .16699219 .33691407 .17399597 .33691407 .19099427 .33691407H.23498535C.31698609 .33691407 .35398866 .2686615 .35398866 .17037964 .35398866 .034469606 .2849884 .0055389406 .24099732 .0055389406 .19799805 .0055389406 .12298584 .022491456 .08799744 .08137512 .12298584 .07637024 .1539917 .09837341 .1539917 .1363678 .1539917 .17237854 .1269989 .19238281 .09799194 .19238281 .07398987 .19238281 .041992189 .17837525 .041992189 .1343689 .041992189 .043441774 .1349945-.022460938 .24398804-.022460938 .3659973-.022460938 .45700074 .06838989 .45700074 .17037964 .45700074 .252594 .3939972 .33088685 .2899933 .35191346Z"/>
<path id="font_1_4" d="M.2939911 .16503906V.07800293C.2939911 .041992189 .2919922 .0309906 .21798706 .0309906H.19699097V0C.23799134 .0029907227 .2899933 .0029907227 .33198548 .0029907227 .37399293 .0029907227 .4269867 .0029907227 .46798707 0V.0309906H.44699098C.37298585 .0309906 .37098695 .041992189 .37098695 .07800293V.16503906H.47099305V.19602967H.37098695V.65075686C.37098695 .67074587 .37098695 .6767578 .35499574 .6767578 .34599305 .6767578 .34298707 .6767578 .33499146 .66474917L.027999878 .19602967V.16503906H.2939911M.2999878 .19602967H.055999757L.2999878 .5688019V.19602967Z"/>
<path id="font_2_1" d="M.45498658 .5001831C.45498658 .56614688 .43699647 .7050781 .33499146 .7050781 .19599915 .7050781 .041992189 .42323304 .041992189 .19425965 .041992189 .100250247 .070999149-.0107421879 .1619873-.0107421879 .30299378-.0107421879 .45498658 .27627564 .45498658 .5001831M.147995 .36328126C.16499329 .42723084 .18499756 .5071869 .22499085 .57814028 .2519989 .6271057 .2889862 .68307498 .33399964 .68307498 .3829956 .68307498 .3889923 .6191101 .3889923 .56214907 .3889923 .5131836 .3809967 .46220399 .35699464 .36328126H.147995M.34799195 .3312683C.33699037 .28527833 .31599427 .2002716 .27799989 .12826538 .24299622 .060256959 .20498657 .011245728 .1619873 .011245728 .1289978 .011245728 .10798645 .040252687 .10798645 .133255 .10798645 .17526245 .11399841 .23326111 .13999939 .3312683H.34799195Z"/>
<path id="font_1_5" d="M.68699648 .32714845C.70199587 .32714845 .72099307 .32714845 .72099307 .34713746 .72099307 .36714173 .70199587 .36714173 .6879883 .36714173H.08898926C.07499695 .36714173 .055999757 .36714173 .055999757 .34713746 .055999757 .32714845 .07499695 .32714845 .08999634 .32714845H.68699648M.6879883 .13284302C.70199587 .13284302 .72099307 .13284302 .72099307 .15284729 .72099307 .17285156 .70199587 .17285156 .68699648 .17285156H.08999634C.07499695 .17285156 .055999757 .17285156 .055999757 .15284729 .055999757 .13284302 .07499695 .13284302 .08898926 .13284302H.6879883Z"/>
<path id="font_3_1" d="M.31098939 .36265565H.42999269C.4149933 .30274964 .3929901 .2118988 .3929901 .13302613 .3929901 .09309387 .397995 .06613159 .4039917 .044174196 .41999818-.0057678224 .43299867-.009765625 .44898988-.009765625 .47200013-.009765625 .49598695 .011230469 .49598695 .035186769 .49598695 .043182374 .49398805 .047164918 .48799134 .057159425 .46899415 .09408569 .45098878 .15100098 .45098878 .23286438 .45098878 .25183106 .45098878 .29177857 .46499635 .36265565H.58999636C.60798647 .36265565 .6159973 .36265565 .6269989 .37065126 .6409912 .380661 .6439972 .39665223 .6439972 .4016571 .6439972 .43066407 .6179962 .43066407 .6009979 .43066407H.22399903C.18299866 .43066407 .15499878 .42166139 .10998535 .37965394 .083999637 .35665895 .04499817 .30274964 .04499817 .2937622 .04499817 .28178407 .057998659 .28178407 .06199646 .28178407 .07299805 .28178407 .07398987 .28378297 .07998657 .2927704 .1309967 .36265565 .19299317 .36265565 .21499634 .36265565H.27598573C.24499512 .25283814 .19099427 .13502503 .16099549 .07511902 .15499878 .062149049 .14498902 .04118347 .14199829 .03718567 .14099121 .033187868 .13899231 .029190064 .13899231 .022201539 .13899231 .006225586 .15098572-.009765625 .17399597-.009765625 .21398926-.009765625 .22499085 .035186769 .24899292 .12504578L.31098939 .36265565Z"/>
<path id="font_4_4" d="M.1499939 .3274536C.1499939 .40945436 .15699768 .48303224 .19499207 .543869 .22898865 .5978699 .2829895 .63505557 .34700013 .63505557 .3769989 .63505557 .4169922 .62701418 .43699647 .5998688 .4119873 .5978699 .3909912 .5808716 .3909912 .5518799 .3909912 .5268707 .4079895 .5048828 .43798829 .5048828 .46798707 .5048828 .48599244 .5248718 .48599244 .5538788 .48599244 .6119385 .44400025 .6640625 .34498597 .6640625 .20098877 .6640625 .053985597 .5318756 .053985597 .3174591 .053985597 .05845642 .17599488-.01953125 .28599549-.01953125 .4079895-.01953125 .5139923 .07345581 .5139923 .20445252 .5139923 .33145143 .41299439 .42546083 .29599 .42546083 .21598816 .42546083 .17199707 .37245179 .1499939 .3274536M.28599549 .012466431C.23599243 .012466431 .19699097 .04145813 .17599488 .08546448 .16099549 .11546326 .15299988 .16545105 .15299988 .22544861 .15299988 .32244874 .21099854 .39746095 .29100038 .39746095 .33699037 .39746095 .36799623 .37945558 .3929901 .342453 .4169922 .30445863 .41799928 .26245118 .41799928 .20445252 .41799928 .14746094 .41799928 .10545349 .3909912 .066467288 .36698915 .031463624 .33499146 .012466431 .28599549 .012466431Z"/>
<path id="font_4_2" d="M.272995 .33428956C.35099793 .33428956 .40699769 .2803192 .40699769 .1733551 .40699769 .04940796 .33499146 .012466431 .2769928 .012466431 .23699951 .012466431 .14898682 .0234375 .10699463 .082351688 .1539917 .084350589 .16499329 .11735535 .16499329 .13835144 .16499329 .17034912 .14099121 .19335938 .10998535 .19335938 .08198547 .19335938 .053985597 .17634583 .053985597 .13534546 .053985597 .041412355 .1579895-.01953125 .2789917-.01953125 .41799928-.01953125 .5139923 .07336426 .5139923 .1733551 .5139923 .2513275 .44999696 .32929994 .33999635 .35229493 .44499208 .39024354 .48298646 .4650879 .48298646 .5260773 .48298646 .60505679 .3919983 .6640625 .2809906 .6640625 .16999817 .6640625 .084991458 .61006167 .084991458 .5300751 .084991458 .49606324 .10699463 .47706605 .13699341 .47706605 .16799927 .47706605 .18798828 .5000763 .18798828 .5280762 .18798828 .5570679 .16799927 .57806399 .13699341 .5800781 .17199707 .62405398 .24099732 .63505557 .27799989 .63505557 .32299806 .63505557 .38598634 .6130676 .38598634 .5260773 .38598634 .48406983 .37199403 .43814088 .34599305 .4072113 .31298829 .36927796 .2849884 .3672943 .23498535 .36428834 .20999146 .3623047 .20799256 .3623047 .20298767 .3612976 .20098877 .3612976 .19299317 .3592987 .19299317 .34829713 .19299317 .33428956 .20199585 .33428956 .21899414 .33428956H.272995Z"/>
<path id="font_4_1" d="M.5049896 .18203736H.47099305C.46798707 .16001892 .45799256 .100997928 .44499208 .09098816 .43699647 .084991458 .3600006 .084991458 .34599305 .084991458H.1619873C.2669983 .17803955 .3019867 .20603943 .3619995 .25306703 .43598939 .312088 .5049896 .374115 .5049896 .46914674 .5049896 .5900879 .39898683 .6640625 .2709961 .6640625 .14698792 .6640625 .06298828 .57710269 .06298828 .4851532 .06298828 .43414308 .10598755 .42915345 .115997318 .42915345 .13999939 .42915345 .16899109 .44615174 .16899109 .48214723 .16899109 .5001526 .1619873 .53515627 .10998535 .53515627 .14099121 .6060791 .20899964 .62805178 .2559967 .62805178 .35598756 .62805178 .4079895 .5501404 .4079895 .46914674 .4079895 .38212586 .34599305 .3130951 .31399537 .27708436L.07299805 .038986207C.06298828 .02999878 .06298828 .027999878 .06298828 0H.47499085L.5049896 .18203736Z"/>
<path id="font_4_3" d="M.15499878 .5588074C.20599365 .5458069 .23599243 .5458069 .2519989 .5458069 .38398744 .5458069 .46199037 .6358032 .46199037 .6508026 .46199037 .6618042 .45498658 .6648102 .44999696 .6648102 .44799806 .6648102 .44599916 .6648102 .44198609 .6618042 .41799928 .6528015 .36499024 .6328125 .29100038 .6328125 .2630005 .6328125 .20999146 .6348114 .14498902 .6598053 .1349945 .6648102 .1329956 .6648102 .13198853 .6648102 .11898804 .6648102 .11898804 .6538086 .11898804 .6378021V.34251405C.11898804 .32548524 .11898804 .3134613 .1349945 .3134613 .14399719 .3134613 .14498902 .3154602 .15499878 .32748414 .19799805 .38259889 .25898744 .390625 .2939911 .390625 .35398866 .390625 .3809967 .34251405 .38598634 .33450318 .4039917 .30143739 .4099884 .26335145 .4099884 .20524597 .4099884 .17524719 .4099884 .116256717 .37998963 .07234192 .35499574 .03640747 .31199647 .012466431 .2630005 .012466431 .19799805 .012466431 .1309967 .04838562 .10598755 .11425781 .14399719 .11125183 .16299439 .13624573 .16299439 .16325379 .16299439 .20625305 .12599182 .21424866 .11299133 .21424866 .11099243 .21424866 .06298828 .21424866 .06298828 .1602478 .06298828 .07034302 .14498902-.01953125 .2649994-.01953125 .3929901-.01953125 .5049896 .07533264 .5049896 .20124817 .5049896 .31445313 .4189911 .41862489 .29499818 .41862489 .25099183 .41862489 .19898987 .4076233 .15499878 .36956788V.5588074Z"/>
</defs>
<path transform="matrix(1.00005,0,0,-1.00005,70.2836,53.329866)" stroke-width=".3985" stroke-linecap="butt" stroke-miterlimit="10" stroke-linejoin="miter" fill="none" stroke="#cbcbcb" d="M0 0H45.35419"/>
<path transform="matrix(1.00005,0,0,-1.00005,70.2836,53.329866)" stroke-width=".3985" stroke-linecap="butt" stroke-miterlimit="10" stroke-linejoin="miter" fill="none" stroke="#cbcbcb" d="M0 0 43.80884 11.73854"/>
<path transform="matrix(1.00005,0,0,-1.00005,70.2836,53.329866)" stroke-width=".3985" stroke-linecap="butt" stroke-miterlimit="10" stroke-linejoin="miter" fill="none" stroke="#cbcbcb" d="M0 0 39.27798 22.6771"/>
<path transform="matrix(1.00005,0,0,-1.00005,70.2836,53.329866)" stroke-width=".3985" stroke-linecap="butt" stroke-miterlimit="10" stroke-linejoin="miter" fill="none" stroke="#cbcbcb" d="M0 0 32.07028 32.07028"/>
<path transform="matrix(1.00005,0,0,-1.00005,70.2836,53.329866)" stroke-width=".3985" stroke-linecap="butt" stroke-miterlimit="10" stroke-linejoin="miter" fill="none" stroke="#cbcbcb" d="M0 0 22.6771 39.27798"/>
<path transform="matrix(1.00005,0,0,-1.00005,70.2836,53.329866)" stroke-width=".3985" stroke-linecap="butt" stroke-miterlimit="10" stroke-linejoin="miter" fill="none" stroke="#cbcbcb" d="M0 0 11.73854 43.80884"/>
<path transform="matrix(1.00005,0,0,-1.00005,70.2836,53.329866)" stroke-width=".3985" stroke-linecap="butt" stroke-miterlimit="10" stroke-linejoin="miter" fill="none" stroke="#cbcbcb" d="M0 0V45.35419"/>
<path transform="matrix(1.00005,0,0,-1.00005,70.2836,53.329866)" stroke-width=".3985" stroke-linecap="butt" stroke-miterlimit="10" stroke-linejoin="miter" fill="none" stroke="#cbcbcb" d="M0 0-11.73854 43.80884"/>
<path transform="matrix(1.00005,0,0,-1.00005,70.2836,53.329866)" stroke-width=".3985" stroke-linecap="butt" stroke-miterlimit="10" stroke-linejoin="miter" fill="none" stroke="#cbcbcb" d="M0 0-22.6771 39.27798"/>
<path transform="matrix(1.00005,0,0,-1.00005,70.2836,53.329866)" stroke-width=".3985" stroke-linecap="butt" stroke-miterlimit="10" stroke-linejoin="miter" fill="none" stroke="#cbcbcb" d="M0 0-32.07028 32.07028"/>
<path transform="matrix(1.00005,0,0,-1.00005,70.2836,53.329866)" stroke-width=".3985" stroke-linecap="butt" stroke-miterlimit="10" stroke-linejoin="miter" fill="none" stroke="#cbcbcb" d="M0 0-39.27798 22.6771"/>
<path transform="matrix(1.00005,0,0,-1.00005,70.2836,53.329866)" stroke-width=".3985" stroke-linecap="butt" stroke-miterlimit="10" stroke-linejoin="miter" fill="none" stroke="#cbcbcb" d="M0 0-43.80884 11.73854"/>
<path transform="matrix(1.00005,0,0,-1.00005,70.2836,53.329866)" stroke-width=".3985" stroke-linecap="butt" stroke-miterlimit="10" stroke-linejoin="miter" fill="none" stroke="#cbcbcb" d="M0 0H-45.35419"/>
<path transform="matrix(1.00005,0,0,-1.00005,70.2836,53.329866)" stroke-width=".3985" stroke-linecap="butt" stroke-miterlimit="10" stroke-linejoin="miter" fill="none" stroke="#cbcbcb" d="M0 0-43.80884-11.73854"/>
<path transform="matrix(1.00005,0,0,-1.00005,70.2836,53.329866)" stroke-width=".3985" stroke-linecap="butt" stroke-miterlimit="10" stroke-linejoin="miter" fill="none" stroke="#cbcbcb" d="M0 0-39.27798-22.6771"/>
<path transform="matrix(1.00005,0,0,-1.00005,70.2836,53.329866)" stroke-width=".3985" stroke-linecap="butt" stroke-miterlimit="10" stroke-linejoin="miter" fill="none" stroke="#cbcbcb" d="M0 0-32.07028-32.07028"/>
<path transform="matrix(1.00005,0,0,-1.00005,70.2836,53.329866)" stroke-width=".3985" stroke-linecap="butt" stroke-miterlimit="10" stroke-linejoin="miter" fill="none" stroke="#cbcbcb" d="M0 0-22.6771-39.27798"/>
<path transform="matrix(1.00005,0,0,-1.00005,70.2836,53.329866)" stroke-width=".3985" stroke-linecap="butt" stroke-miterlimit="10" stroke-linejoin="miter" fill="none" stroke="#cbcbcb" d="M0 0-11.73854-43.80884"/>
<path transform="matrix(1.00005,0,0,-1.00005,70.2836,53.329866)" stroke-width=".3985" stroke-linecap="butt" stroke-miterlimit="10" stroke-linejoin="miter" fill="none" stroke="#cbcbcb" d="M0 0V-45.35419"/>
<path transform="matrix(1.00005,0,0,-1.00005,70.2836,53.329866)" stroke-width=".3985" stroke-linecap="butt" stroke-miterlimit="10" stroke-linejoin="miter" fill="none" stroke="#cbcbcb" d="M0 0 11.73854-43.80884"/>
<path transform="matrix(1.00005,0,0,-1.00005,70.2836,53.329866)" stroke-width=".3985" stroke-linecap="butt" stroke-miterlimit="10" stroke-linejoin="miter" fill="none" stroke="#cbcbcb" d="M0 0 22.6771-39.27798"/>
<path transform="matrix(1.00005,0,0,-1.00005,70.2836,53.329866)" stroke-width=".3985" stroke-linecap="butt" stroke-miterlimit="10" stroke-linejoin="miter" fill="none" stroke="#cbcbcb" d="M0 0 32.07028-32.07028"/>
<path transform="matrix(1.00005,0,0,-1.00005,70.2836,53.329866)" stroke-width=".3985" stroke-linecap="butt" stroke-miterlimit="10" stroke-linejoin="miter" fill="none" stroke="#cbcbcb" d="M0 0 39.27798-22.6771"/>
<path transform="matrix(1.00005,0,0,-1.00005,70.2836,53.329866)" stroke-width=".3985" stroke-linecap="butt" stroke-miterlimit="10" stroke-linejoin="miter" fill="none" stroke="#cbcbcb" d="M0 0 43.80884-11.73854"/>
<path transform="matrix(1.00005,0,0,-1.00005,70.2836,53.329866)" stroke-width=".3985" stroke-linecap="butt" stroke-miterlimit="10" stroke-linejoin="miter" fill="none" stroke="#929292" d="M11.33855 0C11.33855 6.26218 6.26218 11.33855 0 11.33855-6.26218 11.33855-11.33855 6.26218-11.33855 0-11.33855-6.26218-6.26218-11.33855 0-11.33855 6.26218-11.33855 11.33855-6.26218 11.33855 0ZM0 0"/>
<path transform="matrix(1.00005,0,0,-1.00005,70.2836,53.329866)" d="M-4.48325 6.13577H4.4832398V16.5413H-4.48325Z" fill="#ffffff"/>
<use data-text="1" xlink:href="#font_1_1" transform="matrix(9.963098,0,0,-9.963098,67.79247,45.201459)"/>
<path transform="matrix(1.00005,0,0,-1.00005,70.2836,53.329866)" stroke-width=".3985" stroke-linecap="butt" stroke-miterlimit="10" stroke-linejoin="miter" fill="none" stroke="#929292" d="M22.6771 0C22.6771 12.52435 12.52435 22.6771 0 22.6771-12.52435 22.6771-22.6771 12.52435-22.6771 0-22.6771-12.52435-12.52435-22.6771 0-22.6771 12.52435-22.6771 22.6771-12.52435 22.6771 0ZM0 0"/>
<path transform="matrix(1.00005,0,0,-1.00005,70.2836,53.329866)" d="M-4.48325 17.47432H4.4832398V27.879849H-4.48325Z" fill="#ffffff"/>
<use data-text="2" xlink:href="#font_1_2" transform="matrix(9.963098,0,0,-9.963098,67.79247,33.861894)"/>
<path transform="matrix(1.00005,0,0,-1.00005,70.2836,53.329866)" stroke-width=".3985" stroke-linecap="butt" stroke-miterlimit="10" stroke-linejoin="miter" fill="none" stroke="#929292" d="M34.01564 0C34.01564 18.78654 18.78654 34.01564 0 34.01564-18.78654 34.01564-34.01564 18.78654-34.01564 0-34.01564-18.78654-18.78654-34.01564 0-34.01564 18.78654-34.01564 34.01564-18.78654 34.01564 0ZM0 0"/>
<path transform="matrix(1.00005,0,0,-1.00005,70.2836,53.329866)" d="M-4.48325 28.81287H4.4832398V39.2184H-4.48325Z" fill="#ffffff"/>
<use data-text="3" xlink:href="#font_1_3" transform="matrix(9.963098,0,0,-9.963098,67.79247,22.523325)"/>
<path transform="matrix(1.00005,0,0,-1.00005,70.2836,53.329866)" stroke-width=".3985" stroke-linecap="butt" stroke-miterlimit="10" stroke-linejoin="miter" fill="none" stroke="#929292" d="M45.35419 0C45.35419 25.04874 25.04874 45.35419 0 45.35419-25.04874 45.35419-45.35419 25.04874-45.35419 0-45.35419-25.04874-25.04874-45.35419 0-45.35419 25.04874-45.35419 45.35419-25.04874 45.35419 0ZM0 0"/>
<path transform="matrix(1.00005,0,0,-1.00005,70.2836,53.329866)" d="M-4.48325 40.15141H4.4832398V50.55694H-4.48325Z" fill="#ffffff"/>
<use data-text="4" xlink:href="#font_1_4" transform="matrix(9.963098,0,0,-9.963098,67.79247,11.183758)"/>
<path transform="matrix(1.00005,0,0,-1.00005,70.2836,53.329866)" stroke-width="1.19553" stroke-linecap="butt" stroke-miterlimit="10" stroke-linejoin="miter" fill="none" stroke="#ff0000" d="M-39.27798-22.6771 39.27798 22.6771"/>
<path transform="matrix(1.00005,0,0,-1.00005,70.2836,53.329866)" d="M39.87573 23.27484H65.41319V33.63571H39.87573Z" fill="#ffffff"/>
<use data-text="&#x03b8;" xlink:href="#font_2_1" transform="matrix(9.963098,0,0,-9.963098,110.16159,26.618533)" fill="#ff0000"/>
<use data-text="=" xlink:href="#font_1_5" transform="matrix(9.963098,0,0,-9.963098,117.88298,26.618533)" fill="#ff0000"/>
<use data-text="&#x03c0;" xlink:href="#font_3_1" transform="matrix(6.9741489,0,0,-6.9741489,129.59557,22.695334)" fill="#ff0000"/>
<path transform="matrix(1.00005,0,0,-1.00005,-42.126008,-10.715334)" stroke-width=".3985" stroke-linecap="butt" stroke-miterlimit="10" stroke-linejoin="miter" fill="none" stroke="#ff0000" d="M171.713-34.841H176.622"/>
<use data-text="6" xlink:href="#font_4_4" transform="matrix(6.9741489,0,0,-6.9741489,130.0646,30.054705)" fill="#ff0000"/>
<path transform="matrix(1.00005,0,0,-1.00005,70.2836,53.329866)" stroke-width="1.19553" stroke-linecap="butt" stroke-miterlimit="10" stroke-linejoin="miter" fill="none" stroke="#0000ff" d="M-22.6771-39.27798 22.6771 39.27798"/>
<path transform="matrix(1.00005,0,0,-1.00005,70.2836,53.329866)" d="M23.27484 39.87573H48.8123V50.2366H23.27484Z" fill="#ffffff"/>
<use data-text="&#x03b8;" xlink:href="#font_2_1" transform="matrix(9.963098,0,0,-9.963098,93.55976,10.016701)" fill="#0000ff"/>
<use data-text="=" xlink:href="#font_1_5" transform="matrix(9.963098,0,0,-9.963098,101.28115,10.016701)" fill="#0000ff"/>
<use data-text="&#x03c0;" xlink:href="#font_3_1" transform="matrix(6.9741489,0,0,-6.9741489,112.99374,6.093502)" fill="#0000ff"/>
<path transform="matrix(1.00005,0,0,-1.00005,-58.727838,-27.317166)" stroke-width=".3985" stroke-linecap="butt" stroke-miterlimit="10" stroke-linejoin="miter" fill="none" stroke="#0000ff" d="M171.713-34.841H176.622"/>
<use data-text="3" xlink:href="#font_4_2" transform="matrix(6.9741489,0,0,-6.9741489,113.462779,13.452873)" fill="#0000ff"/>
<path transform="matrix(1.00005,0,0,-1.00005,70.2836,53.329866)" stroke-width="1.19553" stroke-linecap="butt" stroke-miterlimit="10" stroke-linejoin="miter" fill="none" stroke="#ec008c" d="M22.6771-39.27798-22.6771 39.27798"/>
<path transform="matrix(1.00005,0,0,-1.00005,70.2836,53.329866)" d="M-52.78362 39.87573H-23.274859V51.72825H-52.78362Z" fill="#ffffff"/>
<use data-text="&#x03b8;" xlink:href="#font_2_1" transform="matrix(9.963098,0,0,-9.963098,17.496964,10.016701)" fill="#ec008c"/>
<use data-text="=" xlink:href="#font_1_5" transform="matrix(9.963098,0,0,-9.963098,25.218354,10.016701)" fill="#ec008c"/>
<use data-text="2" xlink:href="#font_4_1" transform="matrix(6.9741489,0,0,-6.9741489,36.93094,6.093502)" fill="#ec008c"/>
<use data-text="&#x03c0;" xlink:href="#font_3_1" transform="matrix(6.9741489,0,0,-6.9741489,40.90213,6.093502)" fill="#ec008c"/>
<path transform="matrix(1.00005,0,0,-1.00005,-134.79064,-27.317166)" stroke-width=".3985" stroke-linecap="butt" stroke-miterlimit="10" stroke-linejoin="miter" fill="none" stroke="#ec008c" d="M171.713-34.841H180.593"/>
<use data-text="3" xlink:href="#font_4_2" transform="matrix(6.9741489,0,0,-6.9741489,39.38507,13.452873)" fill="#ec008c"/>
<path transform="matrix(1.00005,0,0,-1.00005,70.2836,53.329866)" stroke-width="1.19553" stroke-linecap="butt" stroke-miterlimit="10" stroke-linejoin="miter" fill="none" stroke="#008080" d="M39.27798-22.6771-39.27798 22.6771"/>
<path transform="matrix(1.00005,0,0,-1.00005,70.2836,53.329866)" d="M-69.3845 23.27484H-39.87574V35.127359H-69.3845Z" fill="#ffffff"/>
<use data-text="&#x03b8;" xlink:href="#font_2_1" transform="matrix(9.963098,0,0,-9.963098,.8951416,26.618533)" fill="#008080"/>
<use data-text="=" xlink:href="#font_1_5" transform="matrix(9.963098,0,0,-9.963098,8.616531,26.618533)" fill="#008080"/>
<use data-text="5" xlink:href="#font_4_3" transform="matrix(6.9741489,0,0,-6.9741489,20.329117,22.695334)" fill="#008080"/>
<use data-text="&#x03c0;" xlink:href="#font_3_1" transform="matrix(6.9741489,0,0,-6.9741489,24.300309,22.695334)" fill="#008080"/>
<path transform="matrix(1.00005,0,0,-1.00005,-151.39246,-10.715334)" stroke-width=".3985" stroke-linecap="butt" stroke-miterlimit="10" stroke-linejoin="miter" fill="none" stroke="#008080" d="M171.713-34.841H180.593"/>
<use data-text="6" xlink:href="#font_4_4" transform="matrix(6.9741489,0,0,-6.9741489,22.783249,30.054705)" fill="#008080"/>
</svg>
