<svg xmlns="http://www.w3.org/2000/svg" xmlns:xlink="http://www.w3.org/1999/xlink" version="1.1" width="94" height="97" viewBox="0 0 94 97">
<defs>
<path id="font_1_4" d="M.44898988 .20022583C.44898988 .3193512 .36698915 .41944886 .25898744 .41944886 .21099854 .41944886 .16799927 .40345765 .13198853 .36842347V.5637665C.1519928 .5577698 .18499756 .55078127 .21699524 .55078127 .33999635 .55078127 .4099884 .6417694 .4099884 .6547699 .4099884 .6607666 .40699769 .6657715 .3999939 .6657715 .39898683 .6657715 .39698792 .6657715 .3919983 .66278079 .37199403 .6537781 .32299806 .6337738 .2559967 .6337738 .21598816 .6337738 .16999817 .6407776 .12298584 .6617737 .114990238 .66477969 .11299133 .66477969 .11099243 .66477969 .100997928 .66477969 .100997928 .6567688 .100997928 .6407776V.34439088C.100997928 .32637025 .100997928 .31835938 .114990238 .31835938 .12199402 .31835938 .12399292 .32136537 .12799073 .32736207 .13899231 .3433838 .17599488 .39746095 .25698854 .39746095 .30899049 .39746095 .33399964 .35139466 .34199525 .33337403 .35798646 .29632569 .3600006 .25727845 .3600006 .20722962 .3600006 .17222595 .3600006 .11222839 .33599855 .07035828 .31199647 .031463624 .2749939 .0055389406 .22898865 .0055389406 .1559906 .0055389406 .09899902 .058380128 .08198547 .11723328 .084991458 .1162262 .08799744 .115234378 .09899902 .115234378 .13198853 .115234378 .14898682 .14022827 .14898682 .16423035 .14898682 .18823242 .13198853 .21322632 .09899902 .21322632 .084991458 .21322632 .049987794 .20622254 .049987794 .16023255 .049987794 .07434082 .11898804-.022460938 .23098755-.022460938 .34700013-.022460938 .44898988 .073349 .44898988 .20022583Z"/>
<path id="font_1_2" d="M.2939911 .64004519C.2939911 .66400149 .2939911 .6660156 .2709961 .6660156 .20899964 .60227969 .12098694 .60227969 .08898926 .60227969V.57128909C.10899353 .57128909 .16799927 .57128909 .21998596 .5972748V.07902527C.21998596 .042999269 .21699524 .0309906 .1269989 .0309906H.09498596V0C.12998963 .0029907227 .21699524 .0029907227 .25698854 .0029907227 .29699708 .0029907227 .38398744 .0029907227 .4189911 0V.0309906H.3869934C.29699708 .0309906 .2939911 .041992189 .2939911 .07902527V.64004519Z"/>
<path id="font_1_1" d="M.45999146 .31976319C.45999146 .39982606 .45498658 .47988893 .41999818 .5539398 .37399293 .65000918 .2919922 .6660156 .25 .6660156 .18998719 .6660156 .116989139 .64001467 .07598877 .54693606 .04399109 .47789 .038986207 .39982606 .038986207 .31976319 .038986207 .24472046 .042999269 .15464783 .083999637 .07859802 .1269989-.0024719239 .19999695-.022460938 .24899292-.022460938 .30299378-.022460938 .3789978-.0014648438 .4229889 .09359741 .45498658 .16265869 .45999146 .2407074 .45999146 .31976319M.24899292-.00047302247C.20999146-.00047302247 .15098572 .024551392 .1329956 .12062073 .12199402 .18066406 .12199402 .2727356 .12199402 .3317871 .12199402 .39582826 .12199402 .46188355 .12998963 .5159149 .14898682 .63500979 .22399903 .64401248 .24899292 .64401248 .28199769 .64401248 .34799195 .6259918 .36698915 .52693179 .3769989 .47088624 .3769989 .39482118 .3769989 .3317871 .3769989 .25672914 .3769989 .18867493 .3659973 .12461853 .35099793 .029556275 .2939911-.00047302247 .24899292-.00047302247Z"/>
<path id="font_1_3" d="M.1269989 .07699585 .23298645 .18003845C.3889923 .31811524 .44898988 .3721466 .44898988 .47216798 .44898988 .5860901 .35899354 .6660156 .23699951 .6660156 .12399292 .6660156 .049987794 .57411196 .049987794 .48516847 .049987794 .4291687 .099990848 .4291687 .102996829 .4291687 .11999512 .4291687 .15499878 .44117738 .15499878 .48217774 .15499878 .5081787 .13699341 .5341797 .101989749 .5341797 .09399414 .5341797 .09199524 .5341797 .08898926 .5331726 .11199951 .59806826 .1659851 .63500979 .22399903 .63500979 .31498719 .63500979 .35798646 .5541382 .35798646 .47216798 .35798646 .39215089 .30799867 .31311036 .25299073 .25108338L.06098938 .036987306C.049987794 .025985718 .049987794 .023986817 .049987794 0H.42099L.44898988 .17404175H.42399598C.4189911 .14402771 .4119873 .1000061 .4019928 .084991458 .394989 .07699585 .32899476 .07699585 .30699159 .07699585H.1269989Z"/>
</defs>
<path transform="matrix(1,0,0,-1.00003,47.451005,50.160089)" stroke-width=".3985" stroke-linecap="butt" stroke-miterlimit="10" stroke-linejoin="miter" fill="none" stroke="#cbcbcb" d="M0 0H45.35591"/>
<path transform="matrix(1,0,0,-1.00003,47.451005,50.160089)" stroke-width=".3985" stroke-linecap="butt" stroke-miterlimit="10" stroke-linejoin="miter" fill="none" stroke="#cbcbcb" d="M0 0 43.81052 11.73898"/>
<path transform="matrix(1,0,0,-1.00003,47.451005,50.160089)" stroke-width=".3985" stroke-linecap="butt" stroke-miterlimit="10" stroke-linejoin="miter" fill="none" stroke="#cbcbcb" d="M0 0 39.27948 22.67795"/>
<path transform="matrix(1,0,0,-1.00003,47.451005,50.160089)" stroke-width=".3985" stroke-linecap="butt" stroke-miterlimit="10" stroke-linejoin="miter" fill="none" stroke="#cbcbcb" d="M0 0 32.0715 32.0715"/>
<path transform="matrix(1,0,0,-1.00003,47.451005,50.160089)" stroke-width=".3985" stroke-linecap="butt" stroke-miterlimit="10" stroke-linejoin="miter" fill="none" stroke="#cbcbcb" d="M0 0 22.67795 39.27948"/>
<path transform="matrix(1,0,0,-1.00003,47.451005,50.160089)" stroke-width=".3985" stroke-linecap="butt" stroke-miterlimit="10" stroke-linejoin="miter" fill="none" stroke="#cbcbcb" d="M0 0 11.73898 43.81052"/>
<path transform="matrix(1,0,0,-1.00003,47.451005,50.160089)" stroke-width=".3985" stroke-linecap="butt" stroke-miterlimit="10" stroke-linejoin="miter" fill="none" stroke="#cbcbcb" d="M0 0V45.35591"/>
<path transform="matrix(1,0,0,-1.00003,47.451005,50.160089)" stroke-width=".3985" stroke-linecap="butt" stroke-miterlimit="10" stroke-linejoin="miter" fill="none" stroke="#cbcbcb" d="M0 0-11.73898 43.81052"/>
<path transform="matrix(1,0,0,-1.00003,47.451005,50.160089)" stroke-width=".3985" stroke-linecap="butt" stroke-miterlimit="10" stroke-linejoin="miter" fill="none" stroke="#cbcbcb" d="M0 0-22.67795 39.27948"/>
<path transform="matrix(1,0,0,-1.00003,47.451005,50.160089)" stroke-width=".3985" stroke-linecap="butt" stroke-miterlimit="10" stroke-linejoin="miter" fill="none" stroke="#cbcbcb" d="M0 0-32.0715 32.0715"/>
<path transform="matrix(1,0,0,-1.00003,47.451005,50.160089)" stroke-width=".3985" stroke-linecap="butt" stroke-miterlimit="10" stroke-linejoin="miter" fill="none" stroke="#cbcbcb" d="M0 0-39.27948 22.67795"/>
<path transform="matrix(1,0,0,-1.00003,47.451005,50.160089)" stroke-width=".3985" stroke-linecap="butt" stroke-miterlimit="10" stroke-linejoin="miter" fill="none" stroke="#cbcbcb" d="M0 0-43.81052 11.73898"/>
<path transform="matrix(1,0,0,-1.00003,47.451005,50.160089)" stroke-width=".3985" stroke-linecap="butt" stroke-miterlimit="10" stroke-linejoin="miter" fill="none" stroke="#cbcbcb" d="M0 0H-45.35591"/>
<path transform="matrix(1,0,0,-1.00003,47.451005,50.160089)" stroke-width=".3985" stroke-linecap="butt" stroke-miterlimit="10" stroke-linejoin="miter" fill="none" stroke="#cbcbcb" d="M0 0-43.81052-11.73898"/>
<path transform="matrix(1,0,0,-1.00003,47.451005,50.160089)" stroke-width=".3985" stroke-linecap="butt" stroke-miterlimit="10" stroke-linejoin="miter" fill="none" stroke="#cbcbcb" d="M0 0-39.27948-22.67795"/>
<path transform="matrix(1,0,0,-1.00003,47.451005,50.160089)" stroke-width=".3985" stroke-linecap="butt" stroke-miterlimit="10" stroke-linejoin="miter" fill="none" stroke="#cbcbcb" d="M0 0-32.0715-32.0715"/>
<path transform="matrix(1,0,0,-1.00003,47.451005,50.160089)" stroke-width=".3985" stroke-linecap="butt" stroke-miterlimit="10" stroke-linejoin="miter" fill="none" stroke="#cbcbcb" d="M0 0-22.67795-39.27948"/>
<path transform="matrix(1,0,0,-1.00003,47.451005,50.160089)" stroke-width=".3985" stroke-linecap="butt" stroke-miterlimit="10" stroke-linejoin="miter" fill="none" stroke="#cbcbcb" d="M0 0-11.73898-43.81052"/>
<path transform="matrix(1,0,0,-1.00003,47.451005,50.160089)" stroke-width=".3985" stroke-linecap="butt" stroke-miterlimit="10" stroke-linejoin="miter" fill="none" stroke="#cbcbcb" d="M0 0V-45.35591"/>
<path transform="matrix(1,0,0,-1.00003,47.451005,50.160089)" stroke-width=".3985" stroke-linecap="butt" stroke-miterlimit="10" stroke-linejoin="miter" fill="none" stroke="#cbcbcb" d="M0 0 11.73898-43.81052"/>
<path transform="matrix(1,0,0,-1.00003,47.451005,50.160089)" stroke-width=".3985" stroke-linecap="butt" stroke-miterlimit="10" stroke-linejoin="miter" fill="none" stroke="#cbcbcb" d="M0 0 22.67795-39.27948"/>
<path transform="matrix(1,0,0,-1.00003,47.451005,50.160089)" stroke-width=".3985" stroke-linecap="butt" stroke-miterlimit="10" stroke-linejoin="miter" fill="none" stroke="#cbcbcb" d="M0 0 32.0715-32.0715"/>
<path transform="matrix(1,0,0,-1.00003,47.451005,50.160089)" stroke-width=".3985" stroke-linecap="butt" stroke-miterlimit="10" stroke-linejoin="miter" fill="none" stroke="#cbcbcb" d="M0 0 39.27948-22.67795"/>
<path transform="matrix(1,0,0,-1.00003,47.451005,50.160089)" stroke-width=".3985" stroke-linecap="butt" stroke-miterlimit="10" stroke-linejoin="miter" fill="none" stroke="#cbcbcb" d="M0 0 43.81052-11.73898"/>
<path transform="matrix(1,0,0,-1.00003,47.451005,50.160089)" stroke-width=".3985" stroke-linecap="butt" stroke-miterlimit="10" stroke-linejoin="miter" fill="none" stroke="#cbcbcb" d="M11.33896 0C11.33896 6.2624 6.2624 11.33896 0 11.33896-6.2624 11.33896-11.33896 6.2624-11.33896 0-11.33896-6.2624-6.2624-11.33896 0-11.33896 6.2624-11.33896 11.33896-6.2624 11.33896 0ZM0 0"/>
<path transform="matrix(1,0,0,-1.00003,47.451005,50.160089)" d="M-4.48325 6.1362H4.4832398V16.541729H-4.48325Z" fill="#ffffff"/>
<use data-text="5" xlink:href="#font_1_4" transform="matrix(9.9626,0,0,-9.962899,44.960008,42.030847)"/>
<path transform="matrix(1,0,0,-1.00003,47.451005,50.160089)" stroke-width=".3985" stroke-linecap="butt" stroke-miterlimit="10" stroke-linejoin="miter" fill="none" stroke="#cbcbcb" d="M22.67795 0C22.67795 12.52484 12.52484 22.67795 0 22.67795-12.52484 22.67795-22.67795 12.52484-22.67795 0-22.67795-12.52484-12.52484-22.67795 0-22.67795 12.52484-22.67795 22.67795-12.52484 22.67795 0ZM0 0"/>
<path transform="matrix(1,0,0,-1.00003,47.451005,50.160089)" d="M-6.97394 17.47519H6.9739506V27.880719H-6.97394Z" fill="#ffffff"/>
<use data-text="1" xlink:href="#font_1_2" transform="matrix(9.9626,0,0,-9.962899,42.47,30.691502)"/>
<use data-text="0" xlink:href="#font_1_1" transform="matrix(9.9626,0,0,-9.962899,47.451295,30.691502)"/>
<path transform="matrix(1,0,0,-1.00003,47.451005,50.160089)" stroke-width=".3985" stroke-linecap="butt" stroke-miterlimit="10" stroke-linejoin="miter" fill="none" stroke="#cbcbcb" d="M34.01694 0C34.01694 18.78726 18.78726 34.01694 0 34.01694-18.78726 34.01694-34.01694 18.78726-34.01694 0-34.01694-18.78726-18.78726-34.01694 0-34.01694 18.78726-34.01694 34.01694-18.78726 34.01694 0ZM0 0"/>
<path transform="matrix(1,0,0,-1.00003,47.451005,50.160089)" d="M-6.97394 28.81418H6.9739506V39.21971H-6.97394Z" fill="#ffffff"/>
<use data-text="1" xlink:href="#font_1_2" transform="matrix(9.9626,0,0,-9.962899,42.47,19.352164)"/>
<use data-text="5" xlink:href="#font_1_4" transform="matrix(9.9626,0,0,-9.962899,47.451295,19.352164)"/>
<path transform="matrix(1,0,0,-1.00003,47.451005,50.160089)" stroke-width=".3985" stroke-linecap="butt" stroke-miterlimit="10" stroke-linejoin="miter" fill="none" stroke="#cbcbcb" d="M45.35591 0C45.35591 25.0497 25.0497 45.35591 0 45.35591-25.0497 45.35591-45.35591 25.0497-45.35591 0-45.35591-25.0497-25.0497-45.35591 0-45.35591 25.0497-45.35591 45.35591-25.0497 45.35591 0ZM0 0"/>
<path transform="matrix(1,0,0,-1.00003,47.451005,50.160089)" d="M-6.97394 40.15315H6.9739506V50.558679H-6.97394Z" fill="#ffffff"/>
<use data-text="2" xlink:href="#font_1_3" transform="matrix(9.9626,0,0,-9.962899,42.47,8.012821)"/>
<use data-text="0" xlink:href="#font_1_1" transform="matrix(9.9626,0,0,-9.962899,47.451295,8.012821)"/>
<path transform="matrix(1,0,0,-1.00003,47.451005,50.160089)" stroke-width="1.19553" stroke-linecap="butt" stroke-miterlimit="10" stroke-linejoin="miter" fill="none" stroke="#ff0000" d="M43.10767 20.28413C43.10767 20.28413 32.3406 17.7144 29.23418 16.90341 26.12775 16.09239 22.67705 15.04205 20.71867 14.43901 18.76031 13.83598 16.43373 13.02444 15.11964 12.55716 13.80556 12.08989 12.17178 11.44487 11.24773 11.0712 10.32364 10.69756 9.13438 10.17111 8.4596 9.86412 7.78477 9.55711 6.89189 9.11624 6.38416 8.85854 5.8764 8.60081 5.19139 8.22664 4.80013 8.0067 4.40886 7.78673 3.87196 7.46399 3.56415 7.27328 3.25632 7.0826 2.82787 6.79973 2.58156 6.63222 2.33527 6.46472 1.98885 6.21475 1.78896 6.06604 1.58908 5.91731 1.30527 5.6938 1.14098 5.56038 .97668 5.42694 .74133 5.2251 .60486 5.10435 .46838 4.98363 .27173 4.8004 .15736 4.69023 .043 4.58005-.12273 4.41162-.21935 4.3103-.31595 4.209-.45676 4.05386-.53891 3.96005-.62105 3.86624-.74121 3.72163-.81145 3.63422-.88168 3.5468-.98476 3.4119-1.04506 3.33002-1.10535 3.24812-1.19406 3.1212-1.24599 3.04405-1.29794 2.9669-1.37454 2.84703-1.41937 2.77396-1.46419 2.7009-1.53036 2.58704-1.56906 2.51744-1.60776 2.44786-1.66484 2.33896-1.69824 2.27242-1.73163 2.20587-1.78098 2.10178-1.80975 2.03787-1.83855 1.97398-1.88101 1.87358-1.90569 1.81192-1.93037 1.75024-1.9666 1.65315-1.98763 1.59341-2.00867 1.5337-2.03955 1.43956-2.0573 1.38147-2.07503 1.32338-2.10077 1.23155-2.11548 1.17482-2.13022 1.1181-2.15146 1.02824-2.16339 .97263-2.17532 .91702-2.19218 .82877-2.2015 .77403-2.21085 .71931-2.2237 .63231-2.2306 .5783-2.23753 .52426-2.24681 .43823-2.25137 .3847-2.25595 .33118-2.26129 .2457-2.26355 .19244-2.26584 .1392-2.26773 .0541-2.26775 .00095-2.26776-.05215-2.26596-.13728-2.2637-.19052-2.26144-.24374-2.256-.32918-2.25145-.3827-2.24689-.43623-2.23775-.52226-2.2309-.57626-2.22403-.6303-2.2113-.71736-2.202-.77206-2.19269-.82677-2.17577-.915-2.16383-.9706-2.15189-1.02617-2.13068-1.116-2.11597-1.1727-2.10129-1.22942-2.07559-1.32121-2.0579-1.3793-2.04022-1.43736-2.00946-1.53156-1.98846-1.59128-1.96747-1.65099-1.93121-1.74803-1.90656-1.80966-1.88191-1.87128-1.83954-1.97154-1.8108-2.03542-1.78207-2.09929-1.73283-2.20357-1.69948-2.27007-1.66612-2.33656-1.60901-2.4452-1.57037-2.51476-1.53172-2.5843-1.46573-2.69827-1.42099-2.77135-1.37625-2.8444-1.29977-2.96425-1.24794-3.04135-1.1961-3.11847-1.10754-3.24529-1.04733-3.32712-.98714-3.40894-.88416-3.5438-.81404-3.6311-.74391-3.71843-.62398-3.86269-.54195-3.95645-.45993-4.0502-.31935-4.20558-.2229-4.30678-.12646-4.40797 .03899-4.57576 .15314-4.68579 .2673-4.79582 .46365-4.97914 .59988-5.09982 .7361-5.22052 .97098-5.42232 1.13496-5.55563 1.29892-5.68895 1.5822-5.91212 1.7817-6.0607 1.9812-6.20929 2.32707-6.45924 2.5728-6.62653 2.81856-6.7938 3.24579-7.07591 3.55286-7.26631 3.85994-7.4567 4.39581-7.77917 4.78607-7.99878 5.17635-8.21835 5.8594-8.5917 6.36563-8.8489 6.87186-9.1061 7.76192-9.54607 8.43463-9.85246 9.10736-10.15886 10.29314-10.68431 11.21419-11.05725 12.13524-11.43022 13.764-12.07439 15.07297-12.54048 16.38193-13.00658 18.6988-13.81538 20.64833-14.4165 22.59785-15.01761 26.03394-16.0648 29.12383-16.87285 32.21368-17.6809 42.91797-20.24034 42.91797-20.24034"/>
</svg>
