<svg xmlns="http://www.w3.org/2000/svg" xmlns:xlink="http://www.w3.org/1999/xlink" version="1.1" width="167" height="115" viewBox="0 0 167 115">
<defs>
<path id="font_1_1" d="M.45498658 .5001831C.45498658 .56614688 .43699647 .7050781 .33499146 .7050781 .19599915 .7050781 .041992189 .42323304 .041992189 .19425965 .041992189 .100250247 .070999149-.0107421879 .1619873-.0107421879 .30299378-.0107421879 .45498658 .27627564 .45498658 .5001831M.147995 .36328126C.16499329 .42723084 .18499756 .5071869 .22499085 .57814028 .2519989 .6271057 .2889862 .68307498 .33399964 .68307498 .3829956 .68307498 .3889923 .6191101 .3889923 .56214907 .3889923 .5131836 .3809967 .46220399 .35699464 .36328126H.147995M.34799195 .3312683C.33699037 .28527833 .31599427 .2002716 .27799989 .12826538 .24299622 .060256959 .20498657 .011245728 .1619873 .011245728 .1289978 .011245728 .10798645 .040252687 .10798645 .133255 .10798645 .17526245 .11399841 .23326111 .13999939 .3312683H.34799195Z"/>
<path id="font_1_3" d="M.48599244 .38136292C.48999024 .39537049 .48999024 .39736939 .48999024 .40437318 .48999024 .42237855 .47599793 .43138124 .46099855 .43138124 .45098878 .43138124 .43499757 .42536927 .42599488 .41036988 .42399598 .405365 .41600038 .37435914 .4119873 .35635377 .40499879 .33035279 .397995 .30334474 .3919983 .27633668L.34700013 .09628296C.34298707 .08126831 .2999878 .011245728 .23399353 .011245728 .18299866 .011245728 .17199707 .055267335 .17199707 .0922699 .17199707 .1382904 .18899536 .20030213 .22299195 .28833009 .23899842 .3293457 .24299622 .3403473 .24299622 .36035157 .24299622 .405365 .21099854 .4423828 .16099549 .4423828 .06599426 .4423828 .0289917 .29733277 .0289917 .28833009 .0289917 .27833558 .038986207 .27833558 .040985109 .27833558 .050994874 .27833558 .051986696 .28033448 .056991579 .29634095 .083999637 .3903656 .12399292 .42037965 .1579895 .42037965 .1659851 .42037965 .18299866 .42037965 .18299866 .3883667 .18299866 .36335755 .17298889 .3373413 .1659851 .31834413 .12599182 .21231079 .10798645 .1552887 .10798645 .10827637 .10798645 .019256592 .17098999-.0107421879 .22999573-.0107421879 .2689972-.0107421879 .30299378 .0062561037 .33099366 .03425598 .31799317-.017745972 .30599977-.06674194 .2659912-.11973572 .23999024-.15385437 .20199585-.18309021 .1559906-.18309021 .14199829-.18309021 .09700012-.18005371 .07998657-.14074707 .09599304-.14074707 .10899353-.14074707 .12298584-.1287384 .1329956-.11973572 .14299011-.10673523 .14299011-.08773804 .14299011-.056747438 .115997318-.052734376 .10598755-.052734376 .08299255-.052734376 .049987794-.068740848 .049987794-.11773682 .049987794-.16796875 .09399414-.20507813 .1559906-.20507813 .25898744-.20507813 .3619995-.11373901 .3899994-.00074768069L.48599244 .38136292Z"/>
<path id="font_2_1" d="M.2939911 .64004519C.2939911 .66400149 .2939911 .6660156 .2709961 .6660156 .20899964 .60227969 .12098694 .60227969 .08898926 .60227969V.57128909C.10899353 .57128909 .16799927 .57128909 .21998596 .5972748V.07902527C.21998596 .042999269 .21699524 .0309906 .1269989 .0309906H.09498596V0C.12998963 .0029907227 .21699524 .0029907227 .25698854 .0029907227 .29699708 .0029907227 .38398744 .0029907227 .4189911 0V.0309906H.3869934C.29699708 .0309906 .2939911 .041992189 .2939911 .07902527V.64004519Z"/>
<path id="font_2_2" d="M.1269989 .07699585 .23298645 .18003845C.3889923 .31811524 .44898988 .3721466 .44898988 .47216798 .44898988 .5860901 .35899354 .6660156 .23699951 .6660156 .12399292 .6660156 .049987794 .57411196 .049987794 .48516847 .049987794 .4291687 .099990848 .4291687 .102996829 .4291687 .11999512 .4291687 .15499878 .44117738 .15499878 .48217774 .15499878 .5081787 .13699341 .5341797 .101989749 .5341797 .09399414 .5341797 .09199524 .5341797 .08898926 .5331726 .11199951 .59806826 .1659851 .63500979 .22399903 .63500979 .31498719 .63500979 .35798646 .5541382 .35798646 .47216798 .35798646 .39215089 .30799867 .31311036 .25299073 .25108338L.06098938 .036987306C.049987794 .025985718 .049987794 .023986817 .049987794 0H.42099L.44898988 .17404175H.42399598C.4189911 .14402771 .4119873 .1000061 .4019928 .084991458 .394989 .07699585 .32899476 .07699585 .30699159 .07699585H.1269989Z"/>
<path id="font_2_3" d="M.2899933 .35191346C.37199403 .37893678 .42999269 .4490509 .42999269 .52809146 .42999269 .6100464 .34199525 .6660156 .24598694 .6660156 .14498902 .6660156 .068984989 .60606387 .068984989 .53009036 .068984989 .49710084 .09098816 .47808839 .11999512 .47808839 .15098572 .47808839 .17098999 .50009158 .17098999 .5290985 .17098999 .57910159 .12399292 .57910159 .10899353 .57910159 .13999939 .62802127 .20599365 .64100649 .24198914 .64100649 .2829895 .64100649 .33799745 .6190338 .33799745 .5290985 .33799745 .51708987 .33599855 .45906068 .30999757 .4149933 .27999879 .36691285 .24598694 .36390687 .22099304 .36291505 .21299744 .36190797 .18899536 .35990907 .18199158 .35990907 .17399597 .35890199 .16699219 .35791017 .16699219 .3479004 .16699219 .33691407 .17399597 .33691407 .19099427 .33691407H.23498535C.31698609 .33691407 .35398866 .2686615 .35398866 .17037964 .35398866 .034469606 .2849884 .0055389406 .24099732 .0055389406 .19799805 .0055389406 .12298584 .022491456 .08799744 .08137512 .12298584 .07637024 .1539917 .09837341 .1539917 .1363678 .1539917 .17237854 .1269989 .19238281 .09799194 .19238281 .07398987 .19238281 .041992189 .17837525 .041992189 .1343689 .041992189 .043441774 .1349945-.022460938 .24398804-.022460938 .3659973-.022460938 .45700074 .06838989 .45700074 .17037964 .45700074 .252594 .3939972 .33088685 .2899933 .35191346Z"/>
<path id="font_2_4" d="M.2939911 .16503906V.07800293C.2939911 .041992189 .2919922 .0309906 .21798706 .0309906H.19699097V0C.23799134 .0029907227 .2899933 .0029907227 .33198548 .0029907227 .37399293 .0029907227 .4269867 .0029907227 .46798707 0V.0309906H.44699098C.37298585 .0309906 .37098695 .041992189 .37098695 .07800293V.16503906H.47099305V.19602967H.37098695V.65075686C.37098695 .67074587 .37098695 .6767578 .35499574 .6767578 .34599305 .6767578 .34298707 .6767578 .33499146 .66474917L.027999878 .19602967V.16503906H.2939911M.2999878 .19602967H.055999757L.2999878 .5688019V.19602967Z"/>
<path id="font_2_5" d="M.44898988 .20022583C.44898988 .3193512 .36698915 .41944886 .25898744 .41944886 .21099854 .41944886 .16799927 .40345765 .13198853 .36842347V.5637665C.1519928 .5577698 .18499756 .55078127 .21699524 .55078127 .33999635 .55078127 .4099884 .6417694 .4099884 .6547699 .4099884 .6607666 .40699769 .6657715 .3999939 .6657715 .39898683 .6657715 .39698792 .6657715 .3919983 .66278079 .37199403 .6537781 .32299806 .6337738 .2559967 .6337738 .21598816 .6337738 .16999817 .6407776 .12298584 .6617737 .114990238 .66477969 .11299133 .66477969 .11099243 .66477969 .100997928 .66477969 .100997928 .6567688 .100997928 .6407776V.34439088C.100997928 .32637025 .100997928 .31835938 .114990238 .31835938 .12199402 .31835938 .12399292 .32136537 .12799073 .32736207 .13899231 .3433838 .17599488 .39746095 .25698854 .39746095 .30899049 .39746095 .33399964 .35139466 .34199525 .33337403 .35798646 .29632569 .3600006 .25727845 .3600006 .20722962 .3600006 .17222595 .3600006 .11222839 .33599855 .07035828 .31199647 .031463624 .2749939 .0055389406 .22898865 .0055389406 .1559906 .0055389406 .09899902 .058380128 .08198547 .11723328 .084991458 .1162262 .08799744 .115234378 .09899902 .115234378 .13198853 .115234378 .14898682 .14022827 .14898682 .16423035 .14898682 .18823242 .13198853 .21322632 .09899902 .21322632 .084991458 .21322632 .049987794 .20622254 .049987794 .16023255 .049987794 .07434082 .11898804-.022460938 .23098755-.022460938 .34700013-.022460938 .44898988 .073349 .44898988 .20022583Z"/>
<path id="font_1_2" d="M.2649994 .37265016H.37799073C.34498597 .22489929 .33599855 .18196106 .33599855 .11508179 .33599855 .100097659 .33599855 .073150638 .34399415 .03919983 .35398866-.0047454836 .36499024-.0107421879 .37998963-.0107421879 .3999939-.0107421879 .42099 .007247925 .42099 .02722168 .42099 .033218385 .42099 .035202028 .4149933 .049179079 .38598634 .12106323 .38598634 .18595886 .38598634 .21391297 .38598634 .26683045 .3929901 .32073976 .4039917 .37265016H.5179901C.5309906 .37265016 .5669861 .37265016 .5669861 .406662 .5669861 .43066407 .54599 .43066407 .5269928 .43066407H.19198609C.16999817 .43066407 .13198853 .43066407 .08799744 .38365174 .052993776 .34469605 .026992798 .29878236 .026992798 .29379273 .026992798 .29278565 .026992798 .28379823 .038986207 .28379823 .04699707 .28379823 .04899597 .28779603 .054992677 .29577638 .10398865 .37265016 .1619873 .37265016 .18199158 .37265016H.23899842C.20698548 .25186158 .15299988 .13105774 .11099243 .04020691 .102996829 .025222779 .102996829 .023223877 .102996829 .016235352 .102996829-.002746582 .11898804-.0107421879 .13198853-.0107421879 .1619873-.0107421879 .16999817 .017242432 .18199158 .05418396 .19599915 .100097659 .19599915 .10209656 .20899964 .15202332L.2649994 .37265016Z"/>
</defs>
<path transform="matrix(1.00002,0,0,-1.00003,11.985947,103.71272)" stroke-width=".3985" stroke-linecap="butt" stroke-miterlimit="10" stroke-linejoin="miter" fill="none" stroke="#00aeef" d="M0 0H136.0652M0 17.00824H136.0652M0 34.0165H136.0652M0 51.02477H136.0652M0 68.03302H136.0652M0 85.0353H136.0652M0 0V85.04128M3.77933 0V85.04128M7.55867 0V85.04128M11.33803 0V85.04128M15.11737 0V85.04128M18.89671 0V85.04128M22.67607 0V85.04128M26.45541 0V85.04128M30.23477 0V85.04128M34.01411 0V85.04128M37.79346 0V85.04128M41.57281 0V85.04128M45.35216 0V85.04128M49.13152 0V85.04128M52.91086 0V85.04128M56.6902 0V85.04128M60.46956 0V85.04128M64.2489 0V85.04128M68.02826 0V85.04128M71.8076 0V85.04128M75.58693 0V85.04128M79.36629 0V85.04128M83.14563 0V85.04128M86.92499 0V85.04128M90.70433 0V85.04128M94.48367 0V85.04128M98.26303 0V85.04128M102.04237 0V85.04128M105.82173 0V85.04128M109.60107 0V85.04128M113.38042 0V85.04128M117.15977 0V85.04128M120.93912 0V85.04128M124.71846 0V85.04128M128.49782 0V85.04128M132.27716 0V85.04128M136.05652 0V85.04128M136.0652 85.04128"/>
<path transform="matrix(1.00002,0,0,-1.00003,11.985947,103.71272)" stroke-width=".79701" stroke-linecap="butt" stroke-miterlimit="10" stroke-linejoin="miter" fill="none" stroke="#000000" d="M0 0H143.70145"/>
<path transform="matrix(1.00002,0,0,-1.00003,155.69028,103.71272)" d="M1.0361 0C-.25902 .25902-1.55415 .77707-3.1083 1.68365-1.55415 .51805-1.55415-.51805-3.1083-1.68365-1.55415-.77707-.25902-.25902 1.0361 0Z"/>
<path transform="matrix(1.00002,0,0,-1.00003,155.69028,103.71272)" stroke-width=".79701" stroke-linecap="butt" stroke-linejoin="round" fill="none" stroke="#000000" d="M1.0361 0C-.25902 .25902-1.55415 .77707-3.1083 1.68365-1.55415 .51805-1.55415-.51805-3.1083-1.68365-1.55415-.77707-.25902-.25902 1.0361 0Z"/>
<use data-text="&#x03b8;" xlink:href="#font_1_1" transform="matrix(9.962799,0,0,-9.962899,160.84392,107.17183)"/>
<path transform="matrix(1.00002,0,0,-1.00003,11.985947,103.71272)" stroke-width=".79701" stroke-linecap="butt" stroke-miterlimit="10" stroke-linejoin="miter" fill="none" stroke="#000000" d="M0 0V90.40987"/>
<path transform="matrix(0,-1.00003,-1.00002,-0,11.985947,13.30014)" d="M1.0361 0C-.25902 .25902-1.55415 .77707-3.1083 1.68365-1.55415 .51805-1.55415-.51805-3.1083-1.68365-1.55415-.77707-.25902-.25902 1.0361 0Z"/>
<path transform="matrix(0,-1.00003,-1.00002,-0,11.985947,13.30014)" stroke-width=".79701" stroke-linecap="butt" stroke-linejoin="round" fill="none" stroke="#000000" d="M1.0361 0C-.25902 .25902-1.55415 .77707-3.1083 1.68365-1.55415 .51805-1.55415-.51805-3.1083-1.68365-1.55415-.77707-.25902-.25902 1.0361 0Z"/>
<use data-text="y" xlink:href="#font_1_3" transform="matrix(9.962799,0,0,-9.962899,9.364891,6.2087938)"/>
<path transform="matrix(1.00002,0,0,-1.00003,11.985947,103.71272)" stroke-width=".3985" stroke-linecap="butt" stroke-miterlimit="10" stroke-linejoin="miter" fill="none" stroke="#000000" d="M2.26787 17.00824H-2.26753"/>
<use data-text="1" xlink:href="#font_2_1" transform="matrix(9.962799,0,0,-9.962899,1.2167282,89.91431)"/>
<path transform="matrix(1.00002,0,0,-1.00003,11.985947,103.71272)" stroke-width=".3985" stroke-linecap="butt" stroke-miterlimit="10" stroke-linejoin="miter" fill="none" stroke="#000000" d="M2.26787 34.0165H-2.26753"/>
<use data-text="2" xlink:href="#font_2_2" transform="matrix(9.962799,0,0,-9.962899,1.2167282,72.9058)"/>
<path transform="matrix(1.00002,0,0,-1.00003,11.985947,103.71272)" stroke-width=".3985" stroke-linecap="butt" stroke-miterlimit="10" stroke-linejoin="miter" fill="none" stroke="#000000" d="M2.26787 51.02477H-2.26753"/>
<use data-text="3" xlink:href="#font_2_3" transform="matrix(9.962799,0,0,-9.962899,1.2167282,55.896287)"/>
<path transform="matrix(1.00002,0,0,-1.00003,11.985947,103.71272)" stroke-width=".3985" stroke-linecap="butt" stroke-miterlimit="10" stroke-linejoin="miter" fill="none" stroke="#000000" d="M2.26787 68.03302H-2.26753"/>
<use data-text="4" xlink:href="#font_2_4" transform="matrix(9.962799,0,0,-9.962899,1.2167282,38.88778)"/>
<path transform="matrix(1.00002,0,0,-1.00003,11.985947,103.71272)" stroke-width=".3985" stroke-linecap="butt" stroke-miterlimit="10" stroke-linejoin="miter" fill="none" stroke="#000000" d="M2.26787 85.04128H-2.26753"/>
<use data-text="5" xlink:href="#font_2_5" transform="matrix(9.962799,0,0,-9.962899,1.2167282,21.879265)"/>
<path transform="matrix(1.00002,0,0,-1.00003,11.985947,103.71272)" stroke-width=".3985" stroke-linecap="butt" stroke-miterlimit="10" stroke-linejoin="miter" fill="none" stroke="#000000" d="M68.0326 1.70091V-1.70065"/>
<path transform="matrix(1.00002,0,0,-1.00003,11.985947,103.71272)" d="M65.01434-8.18198H71.05083V-3.89248H65.01434Z" fill="#ffffff"/>
<use data-text="&#x03c0;" xlink:href="#font_1_2" transform="matrix(9.962799,0,0,-9.962899,77.00125,111.89497)"/>
<path transform="matrix(1.00002,0,0,-1.00003,11.985947,103.71272)" stroke-width=".3985" stroke-linecap="butt" stroke-miterlimit="10" stroke-linejoin="miter" fill="none" stroke="#000000" d="M136.0652 1.70091V-1.70065"/>
<path transform="matrix(1.00002,0,0,-1.00003,11.985947,103.71272)" d="M130.55626-9.31662H141.57413V-2.8961898H130.55626Z" fill="#ffffff"/>
<use data-text="2" xlink:href="#font_2_2" transform="matrix(9.962799,0,0,-9.962899,142.54456,113.03)"/>
<use data-text="&#x03c0;" xlink:href="#font_1_2" transform="matrix(9.962799,0,0,-9.962899,147.52567,113.03)"/>
<path transform="matrix(1.00002,0,0,-1.00003,11.985947,103.71272)" stroke-width="1.19553" stroke-linecap="butt" stroke-miterlimit="10" stroke-linejoin="miter" fill="none" stroke="#ff0000" d="M0 68.03302C0 68.03302 1.53603 67.95825 2.12599 67.86745 2.71596 67.77663 3.66206 67.5589 4.25201 67.3785 4.84198 67.19809 5.78807 66.83585 6.37802 66.5672 6.96799 66.29858 7.9141 65.79654 8.50406 65.44243 9.09401 65.08833 10.04012 64.45119 10.63008 64.01503 11.22005 63.5789 12.16612 62.81313 12.75609 62.29907 13.34605 61.78502 14.29214 60.89685 14.88211 60.31006 15.47206 59.72328 16.41817 58.72404 17.00813 58.06984 17.5981 57.41563 18.54419 56.31033 19.13414 55.595 19.7241 54.87965 20.6702 53.68332 21.26018 52.9141 21.85013 52.14488 22.79622 50.86697 23.38618 50.05101 23.97615 49.23506 24.92224 47.88803 25.51219 47.03325 26.10216 46.17848 27.04826 44.77577 27.63823 43.8904 28.22818 43.00504 29.17429 41.55945 29.76425 40.65204 30.3542 39.74463 31.30031 38.27101 31.89026 37.35036 32.48022 36.42969 33.42632 34.94164 34.01628 34.0165 34.60625 33.09137 35.55234 31.6033 36.1423 30.68263 36.73225 29.76196 37.67836 28.28836 38.26831 27.38097 38.85828 26.47354 39.80438 25.02797 40.39433 24.1426 40.9843 23.25722 41.93039 21.85452 42.52037 20.99974 43.11032 20.14497 44.05641 18.79793 44.64638 17.98198 45.23634 17.16602 46.18243 15.8881 46.77238 15.1189 47.36235 14.34969 48.30846 13.15335 48.89842 12.43799 49.48837 11.72264 50.43446 10.61736 51.02443 9.96315 51.6144 9.30896 52.56049 8.30972 53.15045 7.72293 53.74042 7.13615 54.68651 6.24799 55.27647 5.73393 55.86644 5.21988 56.81252 4.45409 57.40248 4.01794 57.99243 3.58182 58.93855 2.94467 59.5285 2.59056 60.11847 2.23647 61.06458 1.7344 61.65454 1.46579 62.24449 1.19716 63.19058 .8349 63.78055 .6545 64.3705 .47409 65.3166 .25636 65.90656 .16556 66.49654 .07474 67.44263 0 68.0326 0 68.62254 0 69.56863 .07474 70.1586 .16556 70.74855 .25636 71.69467 .47409 72.28462 .6545 72.87459 .8349 73.82068 1.19716 74.41063 1.46579 75.0006 1.7344 75.94669 2.23647 76.53667 2.59056 77.12662 2.94467 78.07272 3.58182 78.66267 4.01794 79.25264 4.45409 80.19873 5.21988 80.78868 5.73393 81.37865 6.24799 82.32475 7.13615 82.91472 7.72293 83.50467 8.30972 84.45078 9.30896 85.04074 9.96315 85.6307 10.61736 86.57678 11.72264 87.16675 12.43799 87.75671 13.15335 88.7028 14.34969 89.29277 15.1189 89.88272 15.8881 90.82883 17.16602 91.4188 17.98198 92.00874 18.79793 92.95485 20.14497 93.5448 20.99974 94.13477 21.85452 95.08087 23.25722 95.67084 24.1426 96.26079 25.02797 97.20688 26.47354 97.79684 27.38097 98.38681 28.28836 99.3329 29.76196 99.92285 30.68263 100.51283 31.6033 101.45892 33.09137 102.04889 34.0165 102.63884 34.94164 103.58495 36.42969 104.17491 37.35036 104.76486 38.27101 105.71097 39.74463 106.30092 40.65204 106.89088 41.55945 107.83698 43.00504 108.42694 43.8904 109.0169 44.77577 109.963 46.17848 110.55296 47.03325 111.14291 47.88803 112.08902 49.23506 112.67897 50.05101 113.26894 50.86697 114.21504 52.14488 114.805 52.9141 115.39496 53.68332 116.34105 54.87965 116.93103 55.595 117.52098 56.31033 118.46707 57.41563 119.05704 58.06984 119.647 58.72404 120.5931 59.72328 121.18304 60.31006 121.77301 60.89685 122.71912 61.78502 123.30908 62.29907 123.89903 62.81313 124.84512 63.5789 125.43509 64.01503 126.02504 64.45119 126.97116 65.08833 127.56111 65.44243 128.15108 65.79654 129.09717 66.29858 129.68714 66.5672 130.2771 66.83585 131.22318 67.19809 131.81314 67.3785 132.4031 67.5589 133.34922 67.77663 133.93917 67.86745 134.52913 67.95825 136.0652 68.03302 136.0652 68.03302"/>
</svg>
