<svg xmlns="http://www.w3.org/2000/svg" xmlns:xlink="http://www.w3.org/1999/xlink" version="1.1" width="178" height="114" viewBox="0 0 178 114">
<defs>
<path id="font_1_2" d="M.1269989 .07699585 .23298645 .18003845C.3889923 .31811524 .44898988 .3721466 .44898988 .47216798 .44898988 .5860901 .35899354 .6660156 .23699951 .6660156 .12399292 .6660156 .049987794 .57411196 .049987794 .48516847 .049987794 .4291687 .099990848 .4291687 .102996829 .4291687 .11999512 .4291687 .15499878 .44117738 .15499878 .48217774 .15499878 .5081787 .13699341 .5341797 .101989749 .5341797 .09399414 .5341797 .09199524 .5341797 .08898926 .5331726 .11199951 .59806826 .1659851 .63500979 .22399903 .63500979 .31498719 .63500979 .35798646 .5541382 .35798646 .47216798 .35798646 .39215089 .30799867 .31311036 .25299073 .25108338L.06098938 .036987306C.049987794 .025985718 .049987794 .023986817 .049987794 0H.42099L.44898988 .17404175H.42399598C.4189911 .14402771 .4119873 .1000061 .4019928 .084991458 .394989 .07699585 .32899476 .07699585 .30699159 .07699585H.1269989Z"/>
<path id="font_2_1" d="M.6589966 .23046875C.6759949 .23046875 .69400027 .23046875 .69400027 .25045777 .69400027 .27046205 .6759949 .27046205 .6589966 .27046205H.117996219C.100997928 .27046205 .08299255 .27046205 .08299255 .25045777 .08299255 .23046875 .100997928 .23046875 .117996219 .23046875H.6589966Z"/>
<path id="font_3_2" d="M.28399659 .6252594C.28399659 .6452637 .269989 .6612549 .24699402 .6612549 .21998596 .6612549 .19299317 .6352539 .19299317 .6082611 .19299317 .5892639 .20698548 .5722656 .23098755 .5722656 .2539978 .5722656 .28399659 .5952606 .28399659 .6252594M.20799256 .24932862C.21998596 .27833558 .21998596 .28033448 .22999573 .30734254 .23799134 .3273468 .24299622 .34135438 .24299622 .36035157 .24299622 .405365 .21099854 .4423828 .16099549 .4423828 .066986087 .4423828 .0289917 .29733277 .0289917 .28833009 .0289917 .27833558 .038986207 .27833558 .040985109 .27833558 .050994874 .27833558 .051986696 .28033448 .056991579 .29634095 .083999637 .3903656 .12399292 .42037965 .1579895 .42037965 .1659851 .42037965 .18299866 .42037965 .18299866 .3883667 .18299866 .36735536 .17599488 .346344 .17199707 .3363495 .1639862 .31033326 .11898804 .19430542 .102996829 .1512909 .09298706 .12528992 .07998657 .0922699 .07998657 .0712738 .07998657 .024261475 .11399841-.0107421879 .1619873-.0107421879 .2559967-.0107421879 .29299928 .1342926 .29299928 .14329529 .29299928 .1532898 .28399659 .1532898 .2809906 .1532898 .2709961 .1532898 .2709961 .15029907 .2659912 .13528443 .24798584 .072265628 .21499634 .011245728 .1639862 .011245728 .14698792 .011245728 .13999939 .021255494 .13999939 .044265748 .13999939 .0692749 .1459961 .08326721 .16899109 .14428711L.20799256 .24932862Z"/>
<path id="font_4_1" d="M.69999697-2.3488923C.69999697-2.3448945 .69799807-2.3428956 .69599917-2.3399049 .6589966-2.3029023 .59199526-2.2359009 .5249939-2.1278992 .3639984-1.8699188 .29100038-1.5449219 .29100038-1.1599274 .29100038-.89094546 .32699586-.5439453 .49198915-.24595642 .57099917-.10395813 .6529999-.021957398 .69699099 .022033692 .69999697 .025024414 .69999697 .027038575 .69999697 .030029297 .69999697 .040039064 .69299319 .040039064 .67900088 .040039064 .6649933 .040039064 .6629944 .040039064 .647995 .025024414 .31298829-.279953 .20799256-.73794558 .20799256-1.1589356 .20799256-1.5519257 .2979889-1.9479065 .5519867-2.2469025 .57199099-2.2698975 .6100006-2.3108979 .651001-2.3468934 .6629944-2.358902 .6649933-2.358902 .67900088-2.358902 .69299319-2.358902 .69999697-2.358902 .69999697-2.3488923Z"/>
<path id="font_1_7" d="M.116989139 .21801758C.116989139 .38093568 .19898987 .42323304 .2519989 .42323304 .26098634 .42323304 .32398988 .42222596 .35899354 .38594056 .31799317 .38293458 .31199647 .3529358 .31199647 .3399353 .31199647 .31393434 .32998658 .2939453 .35798646 .2939453 .38398744 .2939453 .4039917 .3109436 .4039917 .34094239 .4039917 .40911866 .32798768 .4482422 .25099183 .4482422 .12599182 .4482422 .033996583 .3399353 .033996583 .21601868 .033996583 .08816528 .1329956-.0107421879 .24899292-.0107421879 .3829956-.0107421879 .4149933 .10914612 .4149933 .119140628 .4149933 .12911988 .40499879 .12911988 .4019928 .12911988 .3929901 .12911988 .3909912 .12512207 .3889923 .119140628 .3600006 .026229859 .29499818 .014251709 .2579956 .014251709 .20498657 .014251709 .116989139 .0572052 .116989139 .21801758Z"/>
<path id="font_1_10" d="M.47099305 .21424866C.47099305 .34223939 .37098695 .4482422 .25 .4482422 .125 .4482422 .027999878 .3392334 .027999878 .21424866 .027999878 .085250858 .13198853-.0107421879 .24899292-.0107421879 .36999513-.0107421879 .47099305 .087249759 .47099305 .21424866M.25 .014251709C.20698548 .014251709 .16299439 .035247804 .13598633 .08125305 .11099243 .12524414 .11099243 .18624878 .11099243 .22224427 .11099243 .26124574 .11099243 .31523133 .1349945 .35923768 .1619873 .40522767 .20899964 .426239 .24899292 .426239 .29299928 .426239 .33599855 .40423585 .3619995 .36123658 .3880005 .3182373 .3880005 .26023866 .3880005 .22224427 .3880005 .18624878 .3880005 .13224793 .3659973 .08824158 .34399415 .04324341 .2999878 .014251709 .25 .014251709Z"/>
<path id="font_1_11" d="M.20799256 .19424439C.22999573 .19024658 .31199647 .17424011 .31199647 .102249149 .31199647 .051254274 .2769928 .011245728 .19898987 .011245728 .114990238 .011245728 .07899475 .06825256 .05999756 .15324402 .056991579 .1662445 .055999757 .17024231 .04598999 .17024231 .032989503 .17024231 .032989503 .16323853 .032989503 .14524842V.013244629C.032989503-.003753662 .032989503-.0107421879 .04399109-.0107421879 .04899597-.0107421879 .049987794-.009750366 .068984989 .009246826 .070999149 .011245728 .070999149 .013244629 .08898926 .03224182 .1329956-.009750366 .17799378-.0107421879 .19898987-.0107421879 .31399537-.0107421879 .3600006 .056243898 .3600006 .12825012 .3600006 .1812439 .32998658 .21124268 .31799317 .22323609 .2849884 .25523377 .24598694 .26324464 .20399475 .27124024 .147995 .28224183 .08099365 .2952423 .08099365 .35324098 .08099365 .38822938 .10699463 .42922975 .19299317 .42922975 .30299378 .42922975 .30799867 .3392334 .30999757 .3082428 .31098939 .2992401 .31999208 .2992401 .32199098 .2992401 .33499146 .2992401 .33499146 .304245 .33499146 .3232422V.4242401C.33499146 .4412384 .33499146 .4482422 .32398988 .4482422 .31900025 .4482422 .31698609 .4482422 .3039856 .43623353 .30099488 .43223573 .29100038 .42323304 .2869873 .42022706 .24899292 .4482422 .20799256 .4482422 .19299317 .4482422 .070999149 .4482422 .032989503 .38124085 .032989503 .3252411 .032989503 .29023744 .04899597 .26223756 .07598877 .24023438 .10798645 .21424866 .13598633 .2082367 .20799256 .19424439Z"/>
<path id="font_3_1" d="M.2649994 .37265016H.37799073C.34498597 .22489929 .33599855 .18196106 .33599855 .11508179 .33599855 .100097659 .33599855 .073150638 .34399415 .03919983 .35398866-.0047454836 .36499024-.0107421879 .37998963-.0107421879 .3999939-.0107421879 .42099 .007247925 .42099 .02722168 .42099 .033218385 .42099 .035202028 .4149933 .049179079 .38598634 .12106323 .38598634 .18595886 .38598634 .21391297 .38598634 .26683045 .3929901 .32073976 .4039917 .37265016H.5179901C.5309906 .37265016 .5669861 .37265016 .5669861 .406662 .5669861 .43066407 .54599 .43066407 .5269928 .43066407H.19198609C.16999817 .43066407 .13198853 .43066407 .08799744 .38365174 .052993776 .34469605 .026992798 .29878236 .026992798 .29379273 .026992798 .29278565 .026992798 .28379823 .038986207 .28379823 .04699707 .28379823 .04899597 .28779603 .054992677 .29577638 .10398865 .37265016 .1619873 .37265016 .18199158 .37265016H.23899842C.20698548 .25186158 .15299988 .13105774 .11099243 .04020691 .102996829 .025222779 .102996829 .023223877 .102996829 .016235352 .102996829-.002746582 .11898804-.0107421879 .13198853-.0107421879 .1619873-.0107421879 .16999817 .017242432 .18199158 .05418396 .19599915 .100097659 .19599915 .10209656 .20899964 .15202332L.2649994 .37265016Z"/>
<path id="font_1_4" d="M.44898988 .20022583C.44898988 .3193512 .36698915 .41944886 .25898744 .41944886 .21099854 .41944886 .16799927 .40345765 .13198853 .36842347V.5637665C.1519928 .5577698 .18499756 .55078127 .21699524 .55078127 .33999635 .55078127 .4099884 .6417694 .4099884 .6547699 .4099884 .6607666 .40699769 .6657715 .3999939 .6657715 .39898683 .6657715 .39698792 .6657715 .3919983 .66278079 .37199403 .6537781 .32299806 .6337738 .2559967 .6337738 .21598816 .6337738 .16999817 .6407776 .12298584 .6617737 .114990238 .66477969 .11299133 .66477969 .11099243 .66477969 .100997928 .66477969 .100997928 .6567688 .100997928 .6407776V.34439088C.100997928 .32637025 .100997928 .31835938 .114990238 .31835938 .12199402 .31835938 .12399292 .32136537 .12799073 .32736207 .13899231 .3433838 .17599488 .39746095 .25698854 .39746095 .30899049 .39746095 .33399964 .35139466 .34199525 .33337403 .35798646 .29632569 .3600006 .25727845 .3600006 .20722962 .3600006 .17222595 .3600006 .11222839 .33599855 .07035828 .31199647 .031463624 .2749939 .0055389406 .22898865 .0055389406 .1559906 .0055389406 .09899902 .058380128 .08198547 .11723328 .084991458 .1162262 .08799744 .115234378 .09899902 .115234378 .13198853 .115234378 .14898682 .14022827 .14898682 .16423035 .14898682 .18823242 .13198853 .21322632 .09899902 .21322632 .084991458 .21322632 .049987794 .20622254 .049987794 .16023255 .049987794 .07434082 .11898804-.022460938 .23098755-.022460938 .34700013-.022460938 .44898988 .073349 .44898988 .20022583Z"/>
<path id="font_1_1" d="M.40899659 .23046875H.6879883C.70199587 .23046875 .72099307 .23046875 .72099307 .25045777 .72099307 .27046205 .70199587 .27046205 .6879883 .27046205H.40899659V.5500183C.40899659 .56399539 .40899659 .5830078 .3889923 .5830078 .36898805 .5830078 .36898805 .56399539 .36898805 .5500183V.27046205H.08898926C.07499695 .27046205 .055999757 .27046205 .055999757 .25045777 .055999757 .23046875 .07499695 .23046875 .08898926 .23046875H.36898805V-.05000305C.36898805-.06401062 .36898805-.08300781 .3889923-.08300781 .40899659-.08300781 .40899659-.06401062 .40899659-.05000305V.23046875Z"/>
<path id="font_1_8" d="M.1769867 .4423828 .036987306 .43138124V.40037538C.101989749 .40037538 .11099243 .3943634 .11099243 .34532167V.076034549C.11099243 .0309906 .099990848 .0309906 .032989503 .0309906V0C.06498718 .0009918213 .11898804 .0029907227 .14299011 .0029907227 .17799378 .0029907227 .21299744 .0009918213 .24699402 0V.0309906C.18099976 .0309906 .1769867 .035995485 .1769867 .075042728V.4423828M.18099976 .6159363C.18099976 .64793398 .1559906 .6689453 .12799073 .6689453 .09700012 .6689453 .07499695 .64193728 .07499695 .6159363 .07499695 .5889435 .09700012 .5629425 .12799073 .5629425 .1559906 .5629425 .18099976 .5839386 .18099976 .6159363Z"/>
<path id="font_1_9" d="M.10998535 .34429933V.076034549C.10998535 .0309906 .09899902 .0309906 .03199768 .0309906V0C.066986087 .0009918213 .117996219 .0029907227 .14498902 .0029907227 .17098999 .0029907227 .22299195 .0009918213 .25698854 0V.0309906C.18998719 .0309906 .1789856 .0309906 .1789856 .076034549V.2602234C.1789856 .36431886 .25 .42037965 .31399537 .42037965 .3769989 .42037965 .3880005 .36631776 .3880005 .30926515V.076034549C.3880005 .0309906 .3769989 .0309906 .30999757 .0309906V0C.34498597 .0009918213 .3959961 .0029907227 .4229889 .0029907227 .44898988 .0029907227 .5009918 .0009918213 .5349884 0V.0309906C.48298646 .0309906 .45799256 .0309906 .45700074 .061019899V.25221253C.45700074 .3383026 .45700074 .36932374 .42599488 .405365 .4119873 .42237855 .3789978 .4423828 .32099916 .4423828 .24798584 .4423828 .20098877 .39935304 .17298889 .33729554V.4423828L.03199768 .43138124V.40037538C.101989749 .4003601 .10998535 .39335633 .10998535 .34429933Z"/>
<path id="font_5_1" d="M.5049896 .18203736H.47099305C.46798707 .16001892 .45799256 .100997928 .44499208 .09098816 .43699647 .084991458 .3600006 .084991458 .34599305 .084991458H.1619873C.2669983 .17803955 .3019867 .20603943 .3619995 .25306703 .43598939 .312088 .5049896 .374115 .5049896 .46914674 .5049896 .5900879 .39898683 .6640625 .2709961 .6640625 .14698792 .6640625 .06298828 .57710269 .06298828 .4851532 .06298828 .43414308 .10598755 .42915345 .115997318 .42915345 .13999939 .42915345 .16899109 .44615174 .16899109 .48214723 .16899109 .5001526 .1619873 .53515627 .10998535 .53515627 .14099121 .6060791 .20899964 .62805178 .2559967 .62805178 .35598756 .62805178 .4079895 .5501404 .4079895 .46914674 .4079895 .38212586 .34599305 .3130951 .31399537 .27708436L.07299805 .038986207C.06298828 .02999878 .06298828 .027999878 .06298828 0H.47499085L.5049896 .18203736Z"/>
<path id="font_6_1" d="M.31098939 .36265565H.42999269C.4149933 .30274964 .3929901 .2118988 .3929901 .13302613 .3929901 .09309387 .397995 .06613159 .4039917 .044174196 .41999818-.0057678224 .43299867-.009765625 .44898988-.009765625 .47200013-.009765625 .49598695 .011230469 .49598695 .035186769 .49598695 .043182374 .49398805 .047164918 .48799134 .057159425 .46899415 .09408569 .45098878 .15100098 .45098878 .23286438 .45098878 .25183106 .45098878 .29177857 .46499635 .36265565H.58999636C.60798647 .36265565 .6159973 .36265565 .6269989 .37065126 .6409912 .380661 .6439972 .39665223 .6439972 .4016571 .6439972 .43066407 .6179962 .43066407 .6009979 .43066407H.22399903C.18299866 .43066407 .15499878 .42166139 .10998535 .37965394 .083999637 .35665895 .04499817 .30274964 .04499817 .2937622 .04499817 .28178407 .057998659 .28178407 .06199646 .28178407 .07299805 .28178407 .07398987 .28378297 .07998657 .2927704 .1309967 .36265565 .19299317 .36265565 .21499634 .36265565H.27598573C.24499512 .25283814 .19099427 .13502503 .16099549 .07511902 .15499878 .062149049 .14498902 .04118347 .14199829 .03718567 .14099121 .033187868 .13899231 .029190064 .13899231 .022201539 .13899231 .006225586 .15098572-.009765625 .17399597-.009765625 .21398926-.009765625 .22499085 .035186769 .24899292 .12504578L.31098939 .36265565Z"/>
<path id="font_5_3" d="M.15499878 .5588074C.20599365 .5458069 .23599243 .5458069 .2519989 .5458069 .38398744 .5458069 .46199037 .6358032 .46199037 .6508026 .46199037 .6618042 .45498658 .6648102 .44999696 .6648102 .44799806 .6648102 .44599916 .6648102 .44198609 .6618042 .41799928 .6528015 .36499024 .6328125 .29100038 .6328125 .2630005 .6328125 .20999146 .6348114 .14498902 .6598053 .1349945 .6648102 .1329956 .6648102 .13198853 .6648102 .11898804 .6648102 .11898804 .6538086 .11898804 .6378021V.34251405C.11898804 .32548524 .11898804 .3134613 .1349945 .3134613 .14399719 .3134613 .14498902 .3154602 .15499878 .32748414 .19799805 .38259889 .25898744 .390625 .2939911 .390625 .35398866 .390625 .3809967 .34251405 .38598634 .33450318 .4039917 .30143739 .4099884 .26335145 .4099884 .20524597 .4099884 .17524719 .4099884 .116256717 .37998963 .07234192 .35499574 .03640747 .31199647 .012466431 .2630005 .012466431 .19799805 .012466431 .1309967 .04838562 .10598755 .11425781 .14399719 .11125183 .16299439 .13624573 .16299439 .16325379 .16299439 .20625305 .12599182 .21424866 .11299133 .21424866 .11099243 .21424866 .06298828 .21424866 .06298828 .1602478 .06298828 .07034302 .14498902-.01953125 .2649994-.01953125 .3929901-.01953125 .5049896 .07533264 .5049896 .20124817 .5049896 .31445313 .4189911 .41862489 .29499818 .41862489 .25099183 .41862489 .19898987 .4076233 .15499878 .36956788V.5588074Z"/>
<path id="font_4_2" d="M.5269928-1.1599274C.5269928-.76693728 .43699647-.37095643 .18299866-.07196045 .16299439-.048965455 .125-.007965088 .083999637 .028030396 .07199097 .040039064 .069992069 .040039064 .055999757 .040039064 .04399109 .040039064 .034988405 .040039064 .034988405 .030029297 .034988405 .026031495 .038986207 .022033692 .040985109 .02003479 .07598877-.015960694 .14299011-.082962039 .20999146-.19096375 .37098695-.4489441 .44400025-.77394106 .44400025-1.1589356 .44400025-1.4279175 .4079895-1.7749176 .24299622-2.0729066 .1639862-2.2149049 .08099365-2.2978974 .038986207-2.3399049 .036987306-2.3428956 .034988405-2.3459016 .034988405-2.3488923 .034988405-2.358902 .04399109-2.358902 .055999757-2.358902 .069992069-2.358902 .07199097-2.358902 .08699036-2.3439027 .42199708-2.03891 .5269928-1.5809174 .5269928-1.1599274Z"/>
<path id="font_1_3" d="M.2939911 .16503906V.07800293C.2939911 .041992189 .2919922 .0309906 .21798706 .0309906H.19699097V0C.23799134 .0029907227 .2899933 .0029907227 .33198548 .0029907227 .37399293 .0029907227 .4269867 .0029907227 .46798707 0V.0309906H.44699098C.37298585 .0309906 .37098695 .041992189 .37098695 .07800293V.16503906H.47099305V.19602967H.37098695V.65075686C.37098695 .67074587 .37098695 .6767578 .35499574 .6767578 .34599305 .6767578 .34298707 .6767578 .33499146 .66474917L.027999878 .19602967V.16503906H.2939911M.2999878 .19602967H.055999757L.2999878 .5688019V.19602967Z"/>
<path id="font_5_2" d="M.5289917 .1640625V.20005799H.41799928V.64582827C.41799928 .66682437 .41799928 .6738281 .3959961 .6738281 .38398744 .6738281 .37998963 .6738281 .36999513 .65982058L.038986207 .20005799V.1640625H.33299256V.08201599C.33299256 .04800415 .33299256 .035995485 .2519989 .035995485H.22499085V0C.2749939 .0019989014 .33898927 .0039978029 .375 .0039978029 .4119873 .0039978029 .47599793 .0019989014 .526001 0V.035995485H.49899293C.41799928 .035995485 .41799928 .04800415 .41799928 .08201599V.1640625H.5289917M.33999635 .5658722V.20005799H.07598877L.33999635 .5658722Z"/>
<path id="font_1_5" d="M.13198853 .327713V.35173036C.13198853 .6047821 .2559967 .64100649 .30699159 .64100649 .33099366 .64100649 .37298585 .634964 .394989 .6007538 .37998963 .6007538 .33999635 .6007538 .33999635 .5557556 .33999635 .524765 .3639984 .5097656 .38598634 .5097656 .4019928 .5097656 .43199159 .51875308 .43199159 .5577545 .43199159 .6178589 .3880005 .6660156 .30499269 .6660156 .1769867 .6660156 .041992189 .5367584 .041992189 .31570436 .041992189 .048553468 .1579895-.022460938 .25099183-.022460938 .3619995-.022460938 .45700074 .07156372 .45700074 .2036438 .45700074 .33070375 .36799623 .4267578 .25698854 .4267578 .18899536 .4267578 .1519928 .37573243 .13198853 .327713M.25099183 .0055389406C.18798828 .0055389406 .1579895 .06556702 .1519928 .080566409 .13398743 .127594 .13398743 .2076416 .13398743 .22564698 .13398743 .30369569 .1659851 .40374757 .2559967 .40374757 .27198792 .40374757 .31799317 .40374757 .34899903 .34172059 .36698915 .30470277 .36698915 .2536621 .36698915 .20463562 .36698915 .15661621 .36698915 .10658264 .34999085 .0705719 .31999208 .010528564 .27398683 .0055389406 .25099183 .0055389406Z"/>
<path id="font_5_4" d="M.1499939 .3274536C.1499939 .40945436 .15699768 .48303224 .19499207 .543869 .22898865 .5978699 .2829895 .63505557 .34700013 .63505557 .3769989 .63505557 .4169922 .62701418 .43699647 .5998688 .4119873 .5978699 .3909912 .5808716 .3909912 .5518799 .3909912 .5268707 .4079895 .5048828 .43798829 .5048828 .46798707 .5048828 .48599244 .5248718 .48599244 .5538788 .48599244 .6119385 .44400025 .6640625 .34498597 .6640625 .20098877 .6640625 .053985597 .5318756 .053985597 .3174591 .053985597 .05845642 .17599488-.01953125 .28599549-.01953125 .4079895-.01953125 .5139923 .07345581 .5139923 .20445252 .5139923 .33145143 .41299439 .42546083 .29599 .42546083 .21598816 .42546083 .17199707 .37245179 .1499939 .3274536M.28599549 .012466431C.23599243 .012466431 .19699097 .04145813 .17599488 .08546448 .16099549 .11546326 .15299988 .16545105 .15299988 .22544861 .15299988 .32244874 .21099854 .39746095 .29100038 .39746095 .33699037 .39746095 .36799623 .37945558 .3929901 .342453 .4169922 .30445863 .41799928 .26245118 .41799928 .20445252 .41799928 .14746094 .41799928 .10545349 .3909912 .066467288 .36698915 .031463624 .33499146 .012466431 .28599549 .012466431Z"/>
<path id="font_1_6" d="M.16299439 .4569702C.116989139 .486969 .11299133 .52098086 .11299133 .5379791 .11299133 .598999 .17799378 .64100649 .24899292 .64100649 .32199098 .64100649 .38598634 .58898928 .38598634 .51698306 .38598634 .45996095 .34700013 .4119568 .2869873 .37695313L.16299439 .4569702M.30899049 .36193849C.3809967 .3989563 .42999269 .45095826 .42999269 .51698306 .42999269 .6090088 .34098817 .6660156 .25 .6660156 .1499939 .6660156 .068984989 .59199526 .068984989 .49897767 .068984989 .4809723 .070999149 .43595887 .11299133 .38894654 .12399292 .37695313 .16099549 .35194398 .18598938 .33494569 .12799073 .30592347 .041992189 .24984741 .041992189 .15072632 .041992189 .04458618 .14399719-.022460938 .24899292-.022460938 .3619995-.022460938 .45700074 .06060791 .45700074 .16773987 .45700074 .20379639 .44599916 .24885559 .4079895 .2909088 .3889923 .31193543 .37298585 .3219452 .30899049 .36193849M.20899964 .3199463 .33198548 .24183655C.3600006 .2228241 .40699769 .19277954 .40699769 .13169861 .40699769 .05760193 .33198548 .0055389406 .25 .0055389406 .1639862 .0055389406 .09199524 .067611698 .09199524 .15072632 .09199524 .20880127 .12399292 .27288819 .20899964 .3199463Z"/>
<path id="font_5_5" d="M.35499574 .36123658C.43299867 .3992157 .48298646 .44618226 .48298646 .5151367 .48298646 .6120758 .38198854 .6640625 .2849884 .6640625 .1749878 .6640625 .084991458 .5920868 .084991458 .4971466 .084991458 .45018006 .10699463 .41619874 .125 .39620973 .14299011 .37522889 .1499939 .37123109 .20899964 .33624269 .15299988 .31227113 .053985597 .25830079 .053985597 .15336609 .053985597 .042434694 .16899109-.01953125 .2829895-.01953125 .4099884-.01953125 .5139923 .061431886 .5139923 .1693573 .5139923 .23532105 .47499085 .29127503 .4169922 .32525636 .4039917 .33325196 .36898805 .35324098 .35499574 .36123658M.19198609 .45617677C.1659851 .4711609 .13798523 .49813844 .13798523 .53512576 .13798523 .5980835 .21099854 .63505557 .2829895 .63505557 .36099244 .63505557 .42999269 .5860901 .42999269 .5151367 .42999269 .42619325 .32598878 .3812256 .32398988 .3812256 .32199098 .3812256 .31999208 .3822174 .31298829 .3862152L.19198609 .45617677M.24099732 .31726075 .37799073 .23831177C.4039917 .22332764 .45399476 .19334412 .45399476 .13438416 .45399476 .059432985 .37098695 .012466431 .2849884 .012466431 .19299317 .012466431 .11399841 .07142639 .11399841 .15336609 .11399841 .22732544 .16899109 .2842865 .24099732 .31726075Z"/>
</defs>
<path transform="matrix(1.00006,0,0,-1.00005,87.833309,57.207059)" stroke-width=".3985" stroke-linecap="butt" stroke-miterlimit="10" stroke-linejoin="miter" fill="none" stroke="#00aeef" d="M-42.5202-42.5202H42.5202M-42.5202-28.3468H42.5202M-42.5202-14.17339H42.5202M-42.5202 0H42.5202M-42.5202 14.17339H42.5202M-42.5202 28.3468H42.5202M-42.5202 42.51523H42.5202M-42.5202-42.5202V42.5202M-28.3468-42.5202V42.5202M-14.17339-42.5202V42.5202M0-42.5202V42.5202M14.17339-42.5202V42.5202M28.3468-42.5202V42.5202M42.51523-42.5202V42.5202M42.5202 42.5202"/>
<path transform="matrix(1.00006,0,0,-1.00005,87.833309,57.207059)" stroke-width=".79701" stroke-linecap="butt" stroke-miterlimit="10" stroke-linejoin="miter" fill="none" stroke="#000000" d="M-42.5202 0H46.75487"/>
<path transform="matrix(1.00006,0,0,-1.00005,134.59098,57.207059)" d="M1.0361 0C-.25902 .25902-1.55415 .77707-3.1083 1.68365-1.55415 .51805-1.55415-.51805-3.1083-1.68365-1.55415-.77707-.25902-.25902 1.0361 0Z"/>
<path transform="matrix(1.00006,0,0,-1.00005,134.59098,57.207059)" stroke-width=".79701" stroke-linecap="butt" stroke-linejoin="round" fill="none" stroke="#000000" d="M1.0361 0C-.25902 .25902-1.55415 .77707-3.1083 1.68365-1.55415 .51805-1.55415-.51805-3.1083-1.68365-1.55415-.77707-.25902-.25902 1.0361 0Z"/>
<path transform="matrix(1.00006,0,0,-1.00005,87.833309,57.207059)" stroke-width=".79701" stroke-linecap="butt" stroke-miterlimit="10" stroke-linejoin="miter" fill="none" stroke="#000000" d="M0-42.5202V46.75487"/>
<path transform="matrix(0,-1.00005,-1.00006,-0,87.833309,10.449852)" d="M1.0361 0C-.25902 .25902-1.55415 .77707-3.1083 1.68365-1.55415 .51805-1.55415-.51805-3.1083-1.68365-1.55415-.77707-.25902-.25902 1.0361 0Z"/>
<path transform="matrix(0,-1.00005,-1.00006,-0,87.833309,10.449852)" stroke-width=".79701" stroke-linecap="butt" stroke-linejoin="round" fill="none" stroke="#000000" d="M1.0361 0C-.25902 .25902-1.55415 .77707-3.1083 1.68365-1.55415 .51805-1.55415-.51805-3.1083-1.68365-1.55415-.77707-.25902-.25902 1.0361 0Z"/>
<path transform="matrix(1.00006,0,0,-1.00005,87.833309,57.207059)" stroke-width=".79701" stroke-linecap="butt" stroke-miterlimit="10" stroke-linejoin="miter" fill="none" stroke="#000000" d="M28.3468 1.4174V-1.41719"/>
<path transform="matrix(1.00006,0,0,-1.00005,87.833309,57.207059)" d="M25.85611-10.22868H30.83749V-3.8082495H25.85611Z" fill="#ffffff"/>
<use data-text="2" xlink:href="#font_1_2" transform="matrix(9.963197,0,0,-9.963098,113.69086,67.43657)"/>
<path transform="matrix(1.00006,0,0,-1.00005,87.833309,57.207059)" stroke-width=".79701" stroke-linecap="butt" stroke-miterlimit="10" stroke-linejoin="miter" fill="none" stroke="#000000" d="M-28.3468 1.4174V-1.41719"/>
<path transform="matrix(1.00006,0,0,-1.00005,87.833309,57.207059)" d="M-34.71191-11.05893H-21.98169V-3.8082605H-34.71191Z" fill="#ffffff"/>
<use data-text="&#x2212;" xlink:href="#font_2_1" transform="matrix(9.963197,0,0,-9.963098,53.119218,67.43657)"/>
<use data-text="2" xlink:href="#font_1_2" transform="matrix(9.963197,0,0,-9.963098,60.868684,67.43657)"/>
<path transform="matrix(1.00006,0,0,-1.00005,87.833309,57.207059)" stroke-width=".79701" stroke-linecap="butt" stroke-miterlimit="10" stroke-linejoin="miter" fill="none" stroke="#000000" d="M1.4174 14.17339H-1.41719"/>
<path transform="matrix(1.00006,0,0,-1.00005,87.833309,57.207059)" d="M-7.24055 10.88805H-3.80825V17.45873H-7.24055Z" fill="#ffffff"/>
<use data-text="i" xlink:href="#font_3_2" transform="matrix(9.963197,0,0,-9.963098,80.59187,46.318517)"/>
<path transform="matrix(1.00006,0,0,-1.00005,87.833309,57.207059)" stroke-width=".79701" stroke-linecap="butt" stroke-miterlimit="10" stroke-linejoin="miter" fill="none" stroke="#000000" d="M1.4174-14.17339H-1.41719"/>
<path transform="matrix(1.00006,0,0,-1.00005,87.833309,57.207059)" d="M-14.9894-17.87384H-3.80826V-10.47294H-14.9894Z" fill="#ffffff"/>
<use data-text="&#x2212;" xlink:href="#font_2_1" transform="matrix(9.963197,0,0,-9.963098,72.84341,74.25191)"/>
<use data-text="i" xlink:href="#font_3_2" transform="matrix(9.963197,0,0,-9.963098,80.59287,74.25191)"/>
<path transform="matrix(1.00006,0,0,-1.00005,87.833309,57.207059)" d="M29.48068 0C29.48068 .62622 28.97304 1.13388 28.3468 1.13388 27.72057 1.13388 27.21292 .62622 27.21292 0 27.21292-.62622 27.72057-1.13388 28.3468-1.13388 28.97304-1.13388 29.48068-.62622 29.48068 0ZM28.3468 0" fill="#ff0000"/>
<path transform="matrix(1.00006,0,0,-1.00005,87.833309,57.207059)" stroke-width=".3985" stroke-linecap="butt" stroke-miterlimit="10" stroke-linejoin="miter" fill="none" stroke="#ff0000" d="M29.48068 0C29.48068 .62622 28.97304 1.13388 28.3468 1.13388 27.72057 1.13388 27.21292 .62622 27.21292 0 27.21292-.62622 27.72057-1.13388 28.3468-1.13388 28.97304-1.13388 29.48068-.62622 29.48068 0ZM28.3468 0"/>
<path transform="matrix(1.00006,0,0,-1.00005,87.833309,57.207059)" d="M25.85611-10.87152H30.83749V-4.45109H25.85611Z" fill="#ffffff"/>
<use data-text="2" xlink:href="#font_1_2" transform="matrix(9.963197,0,0,-9.963098,113.69086,68.079608)"/>
<path transform="matrix(1.00006,0,0,-1.00005,87.833309,57.207059)" d="M9.89362 26.95966C9.89362 27.58588 9.38597 28.09354 8.75974 28.09354 8.13351 28.09354 7.62585 27.58588 7.62585 26.95966 7.62585 26.33342 8.13351 25.82576 8.75974 25.82576 9.38597 25.82576 9.89362 26.33342 9.89362 26.95966ZM8.75974 26.95966" fill="#ff0000"/>
<path transform="matrix(1.00006,0,0,-1.00005,87.833309,57.207059)" stroke-width=".3985" stroke-linecap="butt" stroke-miterlimit="10" stroke-linejoin="miter" fill="none" stroke="#ff0000" d="M9.89362 26.95966C9.89362 27.58588 9.38597 28.09354 8.75974 28.09354 8.13351 28.09354 7.62585 27.58588 7.62585 26.95966 7.62585 26.33342 8.13351 25.82576 8.75974 25.82576 9.38597 25.82576 9.89362 26.33342 9.89362 26.95966ZM8.75974 26.95966"/>
<path transform="matrix(1.00006,0,0,-1.00005,87.833309,57.207059)" d="M5.69049 31.69449H91.19972V55.60533H5.69049Z" fill="#ffffff"/>
<use data-text="(" xlink:href="#font_4_1" transform="matrix(9.963197,0,0,-9.963098,93.52364,1.9972992)"/>
<use data-text="c" xlink:href="#font_1_7" transform="matrix(9.963197,0,0,-9.963098,100.858089,16.046002)"/>
<use data-text="o" xlink:href="#font_1_10" transform="matrix(9.963197,0,0,-9.963098,105.281749,16.046002)"/>
<use data-text="s" xlink:href="#font_1_11" transform="matrix(9.963197,0,0,-9.963098,110.26334,16.046002)"/>
<use data-text="2" xlink:href="#font_1_2" transform="matrix(9.963197,0,0,-9.963098,117.054058,9.305664)"/>
<use data-text="&#x03c0;" xlink:href="#font_3_1" transform="matrix(9.963197,0,0,-9.963098,122.03535,9.305664)"/>
<path transform="matrix(1.00006,0,0,-1.00005,-78.31466,-25.166058)" stroke-width=".3985" stroke-linecap="butt" stroke-miterlimit="10" stroke-linejoin="miter" fill="none" stroke="#000000" d="M195.357-38.719H206.374"/>
<use data-text="5" xlink:href="#font_1_4" transform="matrix(9.963197,0,0,-9.963098,120.07224,22.88034)"/>
<use data-text="+" xlink:href="#font_1_1" transform="matrix(9.963197,0,0,-9.963098,131.4819,16.046002)"/>
<use data-text="i" xlink:href="#font_3_2" transform="matrix(9.963197,0,0,-9.963098,141.44452,16.046002)"/>
<use data-text="s" xlink:href="#font_1_11" transform="matrix(9.963197,0,0,-9.963098,146.53784,16.046002)"/>
<use data-text="i" xlink:href="#font_1_8" transform="matrix(9.963197,0,0,-9.963098,150.46332,16.046002)"/>
<use data-text="n" xlink:href="#font_1_9" transform="matrix(9.963197,0,0,-9.963098,153.22315,16.046002)"/>
<use data-text="2" xlink:href="#font_5_1" transform="matrix(6.9742186,0,0,-6.9741489,161.62674,12.122803)"/>
<use data-text="&#x03c0;" xlink:href="#font_6_1" transform="matrix(6.9742186,0,0,-6.9741489,165.59796,12.122803)"/>
<path transform="matrix(1.00006,0,0,-1.00005,-78.31466,-25.166058)" stroke-width=".3985" stroke-linecap="butt" stroke-miterlimit="10" stroke-linejoin="miter" fill="none" stroke="#000000" d="M239.927-38.719H248.807"/>
<use data-text="5" xlink:href="#font_5_3" transform="matrix(6.9742186,0,0,-6.9741489,164.08188,19.481175)"/>
<use data-text=")" xlink:href="#font_4_2" transform="matrix(9.963197,0,0,-9.963098,171.70334,1.9972992)"/>
<path transform="matrix(1.00006,0,0,-1.00005,87.833309,57.207059)" d="M-21.79927 16.66179C-21.79927 17.28801-22.30692 17.79567-22.93315 17.79567-23.55939 17.79567-24.06703 17.28801-24.06703 16.66179-24.06703 16.03555-23.55939 15.52791-22.93315 15.52791-22.30692 15.52791-21.79927 16.03555-21.79927 16.66179ZM-22.93315 16.66179" fill="#ff0000"/>
<path transform="matrix(1.00006,0,0,-1.00005,87.833309,57.207059)" stroke-width=".3985" stroke-linecap="butt" stroke-miterlimit="10" stroke-linejoin="miter" fill="none" stroke="#ff0000" d="M-21.79927 16.66179C-21.79927 17.28801-22.30692 17.79567-22.93315 17.79567-23.55939 17.79567-24.06703 17.28801-24.06703 16.66179-24.06703 16.03555-23.55939 15.52791-22.93315 15.52791-22.30692 15.52791-21.79927 16.03555-21.79927 16.66179ZM-22.93315 16.66179"/>
<path transform="matrix(1.00006,0,0,-1.00005,87.833309,57.207059)" d="M-88.36531 21.11288H-2.856079V45.02372H-88.36531Z" fill="#ffffff"/>
<use data-text="(" xlink:href="#font_4_1" transform="matrix(9.963197,0,0,-9.963098,-.5369873,12.578829)"/>
<use data-text="c" xlink:href="#font_1_7" transform="matrix(9.963197,0,0,-9.963098,6.797455,26.627532)"/>
<use data-text="o" xlink:href="#font_1_10" transform="matrix(9.963197,0,0,-9.963098,11.221115,26.627532)"/>
<use data-text="s" xlink:href="#font_1_11" transform="matrix(9.963197,0,0,-9.963098,16.202713,26.627532)"/>
<use data-text="4" xlink:href="#font_1_3" transform="matrix(9.963197,0,0,-9.963098,22.993424,19.887194)"/>
<use data-text="&#x03c0;" xlink:href="#font_3_1" transform="matrix(9.963197,0,0,-9.963098,27.974717,19.887194)"/>
<path transform="matrix(1.00006,0,0,-1.00005,-172.37529,-14.584528)" stroke-width=".3985" stroke-linecap="butt" stroke-miterlimit="10" stroke-linejoin="miter" fill="none" stroke="#000000" d="M195.357-38.719H206.374"/>
<use data-text="5" xlink:href="#font_1_4" transform="matrix(9.963197,0,0,-9.963098,26.011612,33.46187)"/>
<use data-text="+" xlink:href="#font_1_1" transform="matrix(9.963197,0,0,-9.963098,37.42128,26.627532)"/>
<use data-text="i" xlink:href="#font_3_2" transform="matrix(9.963197,0,0,-9.963098,47.383897,26.627532)"/>
<use data-text="s" xlink:href="#font_1_11" transform="matrix(9.963197,0,0,-9.963098,52.477205,26.627532)"/>
<use data-text="i" xlink:href="#font_1_8" transform="matrix(9.963197,0,0,-9.963098,56.402696,26.627532)"/>
<use data-text="n" xlink:href="#font_1_9" transform="matrix(9.963197,0,0,-9.963098,59.162508,26.627532)"/>
<use data-text="4" xlink:href="#font_5_2" transform="matrix(6.9742186,0,0,-6.9741489,67.5661,22.704333)"/>
<use data-text="&#x03c0;" xlink:href="#font_6_1" transform="matrix(6.9742186,0,0,-6.9741489,71.53732,22.704333)"/>
<path transform="matrix(1.00006,0,0,-1.00005,-172.37529,-14.584528)" stroke-width=".3985" stroke-linecap="butt" stroke-miterlimit="10" stroke-linejoin="miter" fill="none" stroke="#000000" d="M239.927-38.719H248.807"/>
<use data-text="5" xlink:href="#font_5_3" transform="matrix(6.9742186,0,0,-6.9741489,70.02124,30.062705)"/>
<use data-text=")" xlink:href="#font_4_2" transform="matrix(9.963197,0,0,-9.963098,77.6427,12.578829)"/>
<path transform="matrix(1.00006,0,0,-1.00005,87.833309,57.207059)" d="M-22.36676-15.8512C-22.36676-15.22498-22.8744-14.71732-23.50064-14.71732-24.12688-14.71732-24.63452-15.22498-24.63452-15.8512-24.63452-16.47743-24.12688-16.98509-23.50064-16.98509-22.8744-16.98509-22.36676-16.47743-22.36676-15.8512ZM-23.50064-15.8512" fill="#ff0000"/>
<path transform="matrix(1.00006,0,0,-1.00005,87.833309,57.207059)" stroke-width=".3985" stroke-linecap="butt" stroke-miterlimit="10" stroke-linejoin="miter" fill="none" stroke="#ff0000" d="M-22.36676-15.8512C-22.36676-15.22498-22.8744-14.71732-23.50064-14.71732-24.12688-14.71732-24.63452-15.22498-24.63452-15.8512-24.63452-16.47743-24.12688-16.98509-23.50064-16.98509-22.8744-16.98509-22.36676-16.47743-22.36676-15.8512ZM-23.50064-15.8512"/>
<path transform="matrix(1.00006,0,0,-1.00005,87.833309,57.207059)" d="M-88.9328-44.21315H-3.4235688V-20.30231H-88.9328Z" fill="#ffffff"/>
<use data-text="(" xlink:href="#font_4_1" transform="matrix(9.963197,0,0,-9.963098,-1.1050263,77.9081)"/>
<use data-text="c" xlink:href="#font_1_7" transform="matrix(9.963197,0,0,-9.963098,6.229416,91.956798)"/>
<use data-text="o" xlink:href="#font_1_10" transform="matrix(9.963197,0,0,-9.963098,10.653076,91.956798)"/>
<use data-text="s" xlink:href="#font_1_11" transform="matrix(9.963197,0,0,-9.963098,15.634674,91.956798)"/>
<use data-text="6" xlink:href="#font_1_5" transform="matrix(9.963197,0,0,-9.963098,22.425385,85.21646)"/>
<use data-text="&#x03c0;" xlink:href="#font_3_1" transform="matrix(9.963197,0,0,-9.963098,27.406678,85.21646)"/>
<path transform="matrix(1.00006,0,0,-1.00005,-172.94333,50.744737)" stroke-width=".3985" stroke-linecap="butt" stroke-miterlimit="10" stroke-linejoin="miter" fill="none" stroke="#000000" d="M195.357-38.719H206.374"/>
<use data-text="5" xlink:href="#font_1_4" transform="matrix(9.963197,0,0,-9.963098,25.443573,98.79114)"/>
<use data-text="+" xlink:href="#font_1_1" transform="matrix(9.963197,0,0,-9.963098,36.85324,91.956798)"/>
<use data-text="i" xlink:href="#font_3_2" transform="matrix(9.963197,0,0,-9.963098,46.815858,91.956798)"/>
<use data-text="s" xlink:href="#font_1_11" transform="matrix(9.963197,0,0,-9.963098,51.909166,91.956798)"/>
<use data-text="i" xlink:href="#font_1_8" transform="matrix(9.963197,0,0,-9.963098,55.834657,91.956798)"/>
<use data-text="n" xlink:href="#font_1_9" transform="matrix(9.963197,0,0,-9.963098,58.594469,91.956798)"/>
<use data-text="6" xlink:href="#font_5_4" transform="matrix(6.9742186,0,0,-6.9741489,66.99806,88.0336)"/>
<use data-text="&#x03c0;" xlink:href="#font_6_1" transform="matrix(6.9742186,0,0,-6.9741489,70.969287,88.0336)"/>
<path transform="matrix(1.00006,0,0,-1.00005,-172.94333,50.744737)" stroke-width=".3985" stroke-linecap="butt" stroke-miterlimit="10" stroke-linejoin="miter" fill="none" stroke="#000000" d="M239.927-38.719H248.807"/>
<use data-text="5" xlink:href="#font_5_3" transform="matrix(6.9742186,0,0,-6.9741489,69.4532,95.39197)"/>
<use data-text=")" xlink:href="#font_4_2" transform="matrix(9.963197,0,0,-9.963098,77.07466,77.9081)"/>
<path transform="matrix(1.00006,0,0,-1.00005,87.833309,57.207059)" d="M9.89362-26.95966C9.89362-26.33342 9.38597-25.82576 8.75974-25.82576 8.13351-25.82576 7.62585-26.33342 7.62585-26.95966 7.62585-27.58588 8.13351-28.09354 8.75974-28.09354 9.38597-28.09354 9.89362-27.58588 9.89362-26.95966ZM8.75974-26.95966" fill="#ff0000"/>
<path transform="matrix(1.00006,0,0,-1.00005,87.833309,57.207059)" stroke-width=".3985" stroke-linecap="butt" stroke-miterlimit="10" stroke-linejoin="miter" fill="none" stroke="#ff0000" d="M9.89362-26.95966C9.89362-26.33342 9.38597-25.82576 8.75974-25.82576 8.13351-25.82576 7.62585-26.33342 7.62585-26.95966 7.62585-27.58588 8.13351-28.09354 8.75974-28.09354 9.38597-28.09354 9.89362-27.58588 9.89362-26.95966ZM8.75974-26.95966"/>
<path transform="matrix(1.00006,0,0,-1.00005,87.833309,57.207059)" d="M5.69049-55.32161H91.19972V-31.41077H5.69049Z" fill="#ffffff"/>
<use data-text="(" xlink:href="#font_4_1" transform="matrix(9.963197,0,0,-9.963098,93.52364,89.01764)"/>
<use data-text="c" xlink:href="#font_1_7" transform="matrix(9.963197,0,0,-9.963098,100.858089,103.066349)"/>
<use data-text="o" xlink:href="#font_1_10" transform="matrix(9.963197,0,0,-9.963098,105.281749,103.066349)"/>
<use data-text="s" xlink:href="#font_1_11" transform="matrix(9.963197,0,0,-9.963098,110.26334,103.066349)"/>
<use data-text="8" xlink:href="#font_1_6" transform="matrix(9.963197,0,0,-9.963098,117.054058,96.326007)"/>
<use data-text="&#x03c0;" xlink:href="#font_3_1" transform="matrix(9.963197,0,0,-9.963098,122.03535,96.326007)"/>
<path transform="matrix(1.00006,0,0,-1.00005,-78.31466,61.854288)" stroke-width=".3985" stroke-linecap="butt" stroke-miterlimit="10" stroke-linejoin="miter" fill="none" stroke="#000000" d="M195.357-38.719H206.374"/>
<use data-text="5" xlink:href="#font_1_4" transform="matrix(9.963197,0,0,-9.963098,120.07224,109.90068)"/>
<use data-text="+" xlink:href="#font_1_1" transform="matrix(9.963197,0,0,-9.963098,131.4819,103.066349)"/>
<use data-text="i" xlink:href="#font_3_2" transform="matrix(9.963197,0,0,-9.963098,141.44452,103.066349)"/>
<use data-text="s" xlink:href="#font_1_11" transform="matrix(9.963197,0,0,-9.963098,146.53784,103.066349)"/>
<use data-text="i" xlink:href="#font_1_8" transform="matrix(9.963197,0,0,-9.963098,150.46332,103.066349)"/>
<use data-text="n" xlink:href="#font_1_9" transform="matrix(9.963197,0,0,-9.963098,153.22315,103.066349)"/>
<use data-text="8" xlink:href="#font_5_5" transform="matrix(6.9742186,0,0,-6.9741489,161.62674,99.14314)"/>
<use data-text="&#x03c0;" xlink:href="#font_6_1" transform="matrix(6.9742186,0,0,-6.9741489,165.59796,99.14314)"/>
<path transform="matrix(1.00006,0,0,-1.00005,-78.31466,61.854288)" stroke-width=".3985" stroke-linecap="butt" stroke-miterlimit="10" stroke-linejoin="miter" fill="none" stroke="#000000" d="M239.927-38.719H248.807"/>
<use data-text="5" xlink:href="#font_5_3" transform="matrix(6.9742186,0,0,-6.9741489,164.08188,106.50152)"/>
<use data-text=")" xlink:href="#font_4_2" transform="matrix(9.963197,0,0,-9.963098,171.70334,89.01764)"/>
</svg>
