<svg xmlns="http://www.w3.org/2000/svg" xmlns:xlink="http://www.w3.org/1999/xlink" version="1.1" width="70pt" height="72pt" viewBox="0 0 70 72">
<defs>
<path id="font_1_1" d="M.2939911 .64004519C.2939911 .66400149 .2939911 .6660156 .2709961 .6660156 .20899964 .60227969 .12098694 .60227969 .08898926 .60227969V.57128909C.10899353 .57128909 .16799927 .57128909 .21998596 .5972748V.07902527C.21998596 .042999269 .21699524 .0309906 .1269989 .0309906H.09498596V0C.12998963 .0029907227 .21699524 .0029907227 .25698854 .0029907227 .29699708 .0029907227 .38398744 .0029907227 .4189911 0V.0309906H.3869934C.29699708 .0309906 .2939911 .041992189 .2939911 .07902527V.64004519Z"/>
<path id="font_1_2" d="M.1269989 .07699585 .23298645 .18003845C.3889923 .31811524 .44898988 .3721466 .44898988 .47216798 .44898988 .5860901 .35899354 .6660156 .23699951 .6660156 .12399292 .6660156 .049987794 .57411196 .049987794 .48516847 .049987794 .4291687 .099990848 .4291687 .102996829 .4291687 .11999512 .4291687 .15499878 .44117738 .15499878 .48217774 .15499878 .5081787 .13699341 .5341797 .101989749 .5341797 .09399414 .5341797 .09199524 .5341797 .08898926 .5331726 .11199951 .59806826 .1659851 .63500979 .22399903 .63500979 .31498719 .63500979 .35798646 .5541382 .35798646 .47216798 .35798646 .39215089 .30799867 .31311036 .25299073 .25108338L.06098938 .036987306C.049987794 .025985718 .049987794 .023986817 .049987794 0H.42099L.44898988 .17404175H.42399598C.4189911 .14402771 .4119873 .1000061 .4019928 .084991458 .394989 .07699585 .32899476 .07699585 .30699159 .07699585H.1269989Z"/>
<path id="font_2_2" d="M.08799744 .059265138C.084991458 .044265748 .07899475 .021255494 .07899475 .01625061 .07899475-.0017547608 .09298706-.0107421879 .10798645-.0107421879 .11999512-.0107421879 .13798523-.002746582 .14498902 .01725769 .14698792 .021255494 .18099976 .15730286 .18499756 .17530823 .19299317 .20831299 .21099854 .27833558 .21699524 .30534364 .22099304 .31835938 .24899292 .36535646 .272995 .38734437 .2809906 .39434815 .30999757 .42037965 .35299684 .42037965 .3789978 .42037965 .3939972 .4083557 .394989 .4083557 .36499024 .40335084 .34298707 .37934876 .34298707 .35334779 .34298707 .33735658 .35398866 .31835938 .3809967 .31835938 .4079895 .31835938 .43598939 .34135438 .43598939 .37734986 .43598939 .41235353 .4039917 .4423828 .35299684 .4423828 .28799439 .4423828 .24398804 .39335633 .22499085 .36535646 .21699524 .4103546 .18099976 .4423828 .13398743 .4423828 .08799744 .4423828 .068984989 .40335084 .05999756 .38534547 .041992189 .35134889 .0289917 .29133607 .0289917 .28834535 .0289917 .27833558 .038986207 .27833558 .040985109 .27833558 .050994874 .27833558 .051986696 .27934266 .057998659 .30134584 .07499695 .37234498 .09498596 .42037965 .1309967 .42037965 .147995 .42037965 .1619873 .41235353 .1619873 .37435914 .1619873 .35334779 .15899658 .3423462 .1459961 .29034425L.08799744 .059265138Z"/>
<path id="font_1_4" d="M.68699648 .32714845C.70199587 .32714845 .72099307 .32714845 .72099307 .34713746 .72099307 .36714173 .70199587 .36714173 .6879883 .36714173H.08898926C.07499695 .36714173 .055999757 .36714173 .055999757 .34713746 .055999757 .32714845 .07499695 .32714845 .08999634 .32714845H.68699648M.6879883 .13284302C.70199587 .13284302 .72099307 .13284302 .72099307 .15284729 .72099307 .17285156 .70199587 .17285156 .68699648 .17285156H.08999634C.07499695 .17285156 .055999757 .17285156 .055999757 .15284729 .055999757 .13284302 .07499695 .13284302 .08898926 .13284302H.6879883Z"/>
<path id="font_1_7" d="M.20799256 .19424439C.22999573 .19024658 .31199647 .17424011 .31199647 .102249149 .31199647 .051254274 .2769928 .011245728 .19898987 .011245728 .114990238 .011245728 .07899475 .06825256 .05999756 .15324402 .056991579 .1662445 .055999757 .17024231 .04598999 .17024231 .032989503 .17024231 .032989503 .16323853 .032989503 .14524842V.013244629C.032989503-.003753662 .032989503-.0107421879 .04399109-.0107421879 .04899597-.0107421879 .049987794-.009750366 .068984989 .009246826 .070999149 .011245728 .070999149 .013244629 .08898926 .03224182 .1329956-.009750366 .17799378-.0107421879 .19898987-.0107421879 .31399537-.0107421879 .3600006 .056243898 .3600006 .12825012 .3600006 .1812439 .32998658 .21124268 .31799317 .22323609 .2849884 .25523377 .24598694 .26324464 .20399475 .27124024 .147995 .28224183 .08099365 .2952423 .08099365 .35324098 .08099365 .38822938 .10699463 .42922975 .19299317 .42922975 .30299378 .42922975 .30799867 .3392334 .30999757 .3082428 .31098939 .2992401 .31999208 .2992401 .32199098 .2992401 .33499146 .2992401 .33499146 .304245 .33499146 .3232422V.4242401C.33499146 .4412384 .33499146 .4482422 .32398988 .4482422 .31900025 .4482422 .31698609 .4482422 .3039856 .43623353 .30099488 .43223573 .29100038 .42323304 .2869873 .42022706 .24899292 .4482422 .20799256 .4482422 .19299317 .4482422 .070999149 .4482422 .032989503 .38124085 .032989503 .3252411 .032989503 .29023744 .04899597 .26223756 .07598877 .24023438 .10798645 .21424866 .13598633 .2082367 .20799256 .19424439Z"/>
<path id="font_1_5" d="M.1769867 .4423828 .036987306 .43138124V.40037538C.101989749 .40037538 .11099243 .3943634 .11099243 .34532167V.076034549C.11099243 .0309906 .099990848 .0309906 .032989503 .0309906V0C.06498718 .0009918213 .11898804 .0029907227 .14299011 .0029907227 .17799378 .0029907227 .21299744 .0009918213 .24699402 0V.0309906C.18099976 .0309906 .1769867 .035995485 .1769867 .075042728V.4423828M.18099976 .6159363C.18099976 .64793398 .1559906 .6689453 .12799073 .6689453 .09700012 .6689453 .07499695 .64193728 .07499695 .6159363 .07499695 .5889435 .09700012 .5629425 .12799073 .5629425 .1559906 .5629425 .18099976 .5839386 .18099976 .6159363Z"/>
<path id="font_1_6" d="M.10998535 .34429933V.076034549C.10998535 .0309906 .09899902 .0309906 .03199768 .0309906V0C.066986087 .0009918213 .117996219 .0029907227 .14498902 .0029907227 .17098999 .0029907227 .22299195 .0009918213 .25698854 0V.0309906C.18998719 .0309906 .1789856 .0309906 .1789856 .076034549V.2602234C.1789856 .36431886 .25 .42037965 .31399537 .42037965 .3769989 .42037965 .3880005 .36631776 .3880005 .30926515V.076034549C.3880005 .0309906 .3769989 .0309906 .30999757 .0309906V0C.34498597 .0009918213 .3959961 .0029907227 .4229889 .0029907227 .44898988 .0029907227 .5009918 .0009918213 .5349884 0V.0309906C.48298646 .0309906 .45799256 .0309906 .45700074 .061019899V.25221253C.45700074 .3383026 .45700074 .36932374 .42599488 .405365 .4119873 .42237855 .3789978 .4423828 .32099916 .4423828 .24798584 .4423828 .20098877 .39935304 .17298889 .33729554V.4423828L.03199768 .43138124V.40037538C.101989749 .4003601 .10998535 .39335633 .10998535 .34429933Z"/>
<path id="font_1_3" d="M.2899933 .35191346C.37199403 .37893678 .42999269 .4490509 .42999269 .52809146 .42999269 .6100464 .34199525 .6660156 .24598694 .6660156 .14498902 .6660156 .068984989 .60606387 .068984989 .53009036 .068984989 .49710084 .09098816 .47808839 .11999512 .47808839 .15098572 .47808839 .17098999 .50009158 .17098999 .5290985 .17098999 .57910159 .12399292 .57910159 .10899353 .57910159 .13999939 .62802127 .20599365 .64100649 .24198914 .64100649 .2829895 .64100649 .33799745 .6190338 .33799745 .5290985 .33799745 .51708987 .33599855 .45906068 .30999757 .4149933 .27999879 .36691285 .24598694 .36390687 .22099304 .36291505 .21299744 .36190797 .18899536 .35990907 .18199158 .35990907 .17399597 .35890199 .16699219 .35791017 .16699219 .3479004 .16699219 .33691407 .17399597 .33691407 .19099427 .33691407H.23498535C.31698609 .33691407 .35398866 .2686615 .35398866 .17037964 .35398866 .034469606 .2849884 .0055389406 .24099732 .0055389406 .19799805 .0055389406 .12298584 .022491456 .08799744 .08137512 .12298584 .07637024 .1539917 .09837341 .1539917 .1363678 .1539917 .17237854 .1269989 .19238281 .09799194 .19238281 .07398987 .19238281 .041992189 .17837525 .041992189 .1343689 .041992189 .043441774 .1349945-.022460938 .24398804-.022460938 .3659973-.022460938 .45700074 .06838989 .45700074 .17037964 .45700074 .252594 .3939972 .33088685 .2899933 .35191346Z"/>
<path id="font_2_1" d="M.45498658 .5001831C.45498658 .56614688 .43699647 .7050781 .33499146 .7050781 .19599915 .7050781 .041992189 .42323304 .041992189 .19425965 .041992189 .100250247 .070999149-.0107421879 .1619873-.0107421879 .30299378-.0107421879 .45498658 .27627564 .45498658 .5001831M.147995 .36328126C.16499329 .42723084 .18499756 .5071869 .22499085 .57814028 .2519989 .6271057 .2889862 .68307498 .33399964 .68307498 .3829956 .68307498 .3889923 .6191101 .3889923 .56214907 .3889923 .5131836 .3809967 .46220399 .35699464 .36328126H.147995M.34799195 .3312683C.33699037 .28527833 .31599427 .2002716 .27799989 .12826538 .24299622 .060256959 .20498657 .011245728 .1619873 .011245728 .1289978 .011245728 .10798645 .040252687 .10798645 .133255 .10798645 .17526245 .11399841 .23326111 .13999939 .3312683H.34799195Z"/>
</defs>
<path transform="matrix(1,0,0,-1.00003,34.977998,37.68571)" stroke-width=".3985" stroke-linecap="butt" stroke-miterlimit="10" stroke-linejoin="miter" fill="none" stroke="#cbcbcb" d="M0 0H32.88239"/>
<path transform="matrix(1,0,0,-1.00003,34.977998,37.68571)" stroke-width=".3985" stroke-linecap="butt" stroke-miterlimit="10" stroke-linejoin="miter" fill="none" stroke="#cbcbcb" d="M0 0 31.762 8.51059"/>
<path transform="matrix(1,0,0,-1.00003,34.977998,37.68571)" stroke-width=".3985" stroke-linecap="butt" stroke-miterlimit="10" stroke-linejoin="miter" fill="none" stroke="#cbcbcb" d="M0 0 28.47705 16.4412"/>
<path transform="matrix(1,0,0,-1.00003,34.977998,37.68571)" stroke-width=".3985" stroke-linecap="butt" stroke-miterlimit="10" stroke-linejoin="miter" fill="none" stroke="#cbcbcb" d="M0 0 23.25137 23.25137"/>
<path transform="matrix(1,0,0,-1.00003,34.977998,37.68571)" stroke-width=".3985" stroke-linecap="butt" stroke-miterlimit="10" stroke-linejoin="miter" fill="none" stroke="#cbcbcb" d="M0 0 16.4412 28.47705"/>
<path transform="matrix(1,0,0,-1.00003,34.977998,37.68571)" stroke-width=".3985" stroke-linecap="butt" stroke-miterlimit="10" stroke-linejoin="miter" fill="none" stroke="#cbcbcb" d="M0 0 8.51059 31.762"/>
<path transform="matrix(1,0,0,-1.00003,34.977998,37.68571)" stroke-width=".3985" stroke-linecap="butt" stroke-miterlimit="10" stroke-linejoin="miter" fill="none" stroke="#cbcbcb" d="M0 0V32.88239"/>
<path transform="matrix(1,0,0,-1.00003,34.977998,37.68571)" stroke-width=".3985" stroke-linecap="butt" stroke-miterlimit="10" stroke-linejoin="miter" fill="none" stroke="#cbcbcb" d="M0 0-8.51059 31.762"/>
<path transform="matrix(1,0,0,-1.00003,34.977998,37.68571)" stroke-width=".3985" stroke-linecap="butt" stroke-miterlimit="10" stroke-linejoin="miter" fill="none" stroke="#cbcbcb" d="M0 0-16.4412 28.47705"/>
<path transform="matrix(1,0,0,-1.00003,34.977998,37.68571)" stroke-width=".3985" stroke-linecap="butt" stroke-miterlimit="10" stroke-linejoin="miter" fill="none" stroke="#cbcbcb" d="M0 0-23.25137 23.25137"/>
<path transform="matrix(1,0,0,-1.00003,34.977998,37.68571)" stroke-width=".3985" stroke-linecap="butt" stroke-miterlimit="10" stroke-linejoin="miter" fill="none" stroke="#cbcbcb" d="M0 0-28.47705 16.4412"/>
<path transform="matrix(1,0,0,-1.00003,34.977998,37.68571)" stroke-width=".3985" stroke-linecap="butt" stroke-miterlimit="10" stroke-linejoin="miter" fill="none" stroke="#cbcbcb" d="M0 0-31.762 8.51059"/>
<path transform="matrix(1,0,0,-1.00003,34.977998,37.68571)" stroke-width=".3985" stroke-linecap="butt" stroke-miterlimit="10" stroke-linejoin="miter" fill="none" stroke="#cbcbcb" d="M0 0H-32.88239"/>
<path transform="matrix(1,0,0,-1.00003,34.977998,37.68571)" stroke-width=".3985" stroke-linecap="butt" stroke-miterlimit="10" stroke-linejoin="miter" fill="none" stroke="#cbcbcb" d="M0 0-31.762-8.51059"/>
<path transform="matrix(1,0,0,-1.00003,34.977998,37.68571)" stroke-width=".3985" stroke-linecap="butt" stroke-miterlimit="10" stroke-linejoin="miter" fill="none" stroke="#cbcbcb" d="M0 0-28.47705-16.4412"/>
<path transform="matrix(1,0,0,-1.00003,34.977998,37.68571)" stroke-width=".3985" stroke-linecap="butt" stroke-miterlimit="10" stroke-linejoin="miter" fill="none" stroke="#cbcbcb" d="M0 0-23.25137-23.25137"/>
<path transform="matrix(1,0,0,-1.00003,34.977998,37.68571)" stroke-width=".3985" stroke-linecap="butt" stroke-miterlimit="10" stroke-linejoin="miter" fill="none" stroke="#cbcbcb" d="M0 0-16.4412-28.47705"/>
<path transform="matrix(1,0,0,-1.00003,34.977998,37.68571)" stroke-width=".3985" stroke-linecap="butt" stroke-miterlimit="10" stroke-linejoin="miter" fill="none" stroke="#cbcbcb" d="M0 0-8.51059-31.762"/>
<path transform="matrix(1,0,0,-1.00003,34.977998,37.68571)" stroke-width=".3985" stroke-linecap="butt" stroke-miterlimit="10" stroke-linejoin="miter" fill="none" stroke="#cbcbcb" d="M0 0V-32.88239"/>
<path transform="matrix(1,0,0,-1.00003,34.977998,37.68571)" stroke-width=".3985" stroke-linecap="butt" stroke-miterlimit="10" stroke-linejoin="miter" fill="none" stroke="#cbcbcb" d="M0 0 8.51059-31.762"/>
<path transform="matrix(1,0,0,-1.00003,34.977998,37.68571)" stroke-width=".3985" stroke-linecap="butt" stroke-miterlimit="10" stroke-linejoin="miter" fill="none" stroke="#cbcbcb" d="M0 0 16.4412-28.47705"/>
<path transform="matrix(1,0,0,-1.00003,34.977998,37.68571)" stroke-width=".3985" stroke-linecap="butt" stroke-miterlimit="10" stroke-linejoin="miter" fill="none" stroke="#cbcbcb" d="M0 0 23.25137-23.25137"/>
<path transform="matrix(1,0,0,-1.00003,34.977998,37.68571)" stroke-width=".3985" stroke-linecap="butt" stroke-miterlimit="10" stroke-linejoin="miter" fill="none" stroke="#cbcbcb" d="M0 0 28.47705-16.4412"/>
<path transform="matrix(1,0,0,-1.00003,34.977998,37.68571)" stroke-width=".3985" stroke-linecap="butt" stroke-miterlimit="10" stroke-linejoin="miter" fill="none" stroke="#cbcbcb" d="M0 0 31.762-8.51059"/>
<path transform="matrix(1,0,0,-1.00003,34.977998,37.68571)" stroke-width=".3985" stroke-linecap="butt" stroke-miterlimit="10" stroke-linejoin="miter" fill="none" stroke="#cbcbcb" d="M16.4412 0C16.4412 9.08034 9.08034 16.4412 0 16.4412-9.08034 16.4412-16.4412 9.08034-16.4412 0-16.4412-9.08034-9.08034-16.4412 0-16.4412 9.08034-16.4412 16.4412-9.08034 16.4412 0ZM0 0"/>
<path transform="matrix(1,0,0,-1.00003,34.977998,37.68571)" d="M-4.48325 11.23842H4.4832398V21.64395H-4.48325Z" fill="#ffffff"/>
<use data-text="1" xlink:href="#font_1_1" transform="matrix(9.9626,0,0,-9.962899,32.487,24.454314)"/>
<path transform="matrix(1,0,0,-1.00003,34.977998,37.68571)" stroke-width=".3985" stroke-linecap="butt" stroke-miterlimit="10" stroke-linejoin="miter" fill="none" stroke="#cbcbcb" d="M32.88239 0C32.88239 18.16068 18.16068 32.88239 0 32.88239-18.16068 32.88239-32.88239 18.16068-32.88239 0-32.88239-18.16068-18.16068-32.88239 0-32.88239 18.16068-32.88239 32.88239-18.16068 32.88239 0ZM0 0"/>
<path transform="matrix(1,0,0,-1.00003,34.977998,37.68571)" d="M-4.48325 27.67961H4.4832398V38.08514H-4.48325Z" fill="#ffffff"/>
<use data-text="2" xlink:href="#font_1_2" transform="matrix(9.9626,0,0,-9.962899,32.487,8.012819)"/>
<path transform="matrix(1,0,0,-1.00003,34.977998,37.68571)" stroke-width="1.19553" stroke-linecap="butt" stroke-miterlimit="10" stroke-linejoin="miter" fill="none" stroke="#ff0000" d="M0 0C0 0 1.74995 .05325 2.40887 .11815 3.06778 .18303 4.1186 .34094 4.749 .4676 5.37941 .59427 6.36845 .84875 6.95242 1.03107 7.53639 1.21338 8.43661 1.55257 8.9579 1.78168 9.47919 2.01079 10.26509 2.4177 10.7095 2.68231 11.15388 2.94691 11.80457 3.40189 12.16078 3.68881 12.51701 3.97574 13.01726 4.45564 13.27693 4.75026 13.53659 5.04486 13.87425 5.52531 14.0323 5.81221 14.19035 6.09909 14.36118 6.55435 14.41614 6.81796 14.47108 7.08154 14.47452 7.48679 14.42844 7.71207 14.38235 7.93733 14.22575 8.26874 14.08398 8.4416 13.94221 8.61446 13.63573 8.84987 13.40662 8.9579 13.17752 9.06593 12.7379 9.18706 12.43274 9.2203 12.12758 9.25354 11.57477 9.24641 11.20723 9.19748 10.83969 9.14854 10.19817 9.00313 9.78377 8.86758 9.36938 8.73206 8.6656 8.44421 8.22058 8.22058 7.77556 7.99695 7.03487 7.56517 6.57637 7.25572 6.11787 6.94629 5.3708 6.37985 4.91608 5.99031 4.46135 5.60078 3.73384 4.90936 3.29897 4.44821 2.86406 3.98705 2.1819 3.18776 1.78168 2.6665 1.38145 2.14526 .76698 1.2585 .41441 .69138 .06184 .12427-.46495-.824-.75938-1.42091-1.0538-2.01784-1.47902-3.00151-1.70767-3.6108-1.93631-4.22008-2.24927-5.20906-2.40736-5.81221-2.56544-6.41534-2.76114-7.37965-2.84714-7.95793-2.93314-8.53618-3.01167-9.44464-3.02727-9.97995-3.04285-10.51526-3.00957-11.34065-2.95953-11.8161-2.90948-12.29153-2.77461-13.00647-2.6665-13.40662-2.55841-13.80678-2.33635-14.38805-2.18033-14.70012-2.02428-15.0122-1.7337-15.44206-1.54184-15.65594-1.34999-15.86984-1.01143-16.1328-.7975-16.24174-.58359-16.3507-.22128-16.4412 0-16.4412 .22128-16.4412 .58359-16.3507 .7975-16.24174 1.01143-16.1328 1.34999-15.86984 1.54184-15.65594 1.7337-15.44206 2.02428-15.0122 2.18033-14.70012 2.33635-14.38805 2.55841-13.80678 2.6665-13.40662 2.77461-13.00647 2.90948-12.29153 2.95953-11.8161 3.00957-11.34065 3.04285-10.51526 3.02727-9.97995 3.01167-9.44464 2.93314-8.53618 2.84714-7.95793 2.76114-7.37965 2.56544-6.41534 2.40736-5.81221 2.24927-5.20906 1.93631-4.22008 1.70767-3.6108 1.47902-3.00151 1.0538-2.01784 .75938-1.42091 .46495-.824-.06184 .12427-.41441 .69138-.76698 1.2585-1.38145 2.14526-1.78168 2.6665-2.1819 3.18776-2.86406 3.98705-3.29897 4.44821-3.73384 4.90936-4.46135 5.60078-4.91608 5.99031-5.3708 6.37985-6.11787 6.94629-6.57637 7.25572-7.03487 7.56517-7.77556 7.99695-8.22058 8.22058-8.6656 8.44421-9.36938 8.73206-9.78377 8.86758-10.19817 9.00313-10.83969 9.14854-11.20723 9.19748-11.57477 9.24641-12.12758 9.25354-12.43274 9.2203-12.7379 9.18706-13.17752 9.06593-13.40662 8.9579-13.63573 8.84987-13.94221 8.61446-14.08398 8.4416-14.22575 8.26874-14.38235 7.93733-14.42844 7.71207-14.47452 7.48679-14.47108 7.08154-14.41614 6.81796-14.36118 6.55435-14.19035 6.09909-14.0323 5.81221-13.87425 5.52531-13.53659 5.04486-13.27693 4.75026-13.01726 4.45564-12.51701 3.97574-12.16078 3.68881-11.80457 3.40189-11.15388 2.94691-10.7095 2.68231-10.26509 2.4177-9.47919 2.01079-8.9579 1.78168-8.43661 1.55257-7.53639 1.21338-6.95242 1.03107-6.36845 .84875-5.37941 .59427-4.749 .4676-4.1186 .34094-3.06778 .18303-2.40887 .11815-1.74995 .05325 0 0 0 0"/>
<path transform="matrix(1,0,0,-1.00003,34.977998,37.68571)" d="M-17.88615-29.11734H25.98912V-20.206219H-17.88615Z" fill="#ffffff"/>
<use data-text="r" xlink:href="#font_2_2" transform="matrix(9.9626,0,0,-9.962899,18.087998,65.807559)" fill="#ff0000"/>
<use data-text="=" xlink:href="#font_1_4" transform="matrix(9.9626,0,0,-9.962899,25.626999,65.807559)" fill="#ff0000"/>
<use data-text="s" xlink:href="#font_1_7" transform="matrix(9.9626,0,0,-9.962899,36.12758,65.807559)" fill="#ff0000"/>
<use data-text="i" xlink:href="#font_1_5" transform="matrix(9.9626,0,0,-9.962899,40.05284,65.807559)" fill="#ff0000"/>
<use data-text="n" xlink:href="#font_1_6" transform="matrix(9.9626,0,0,-9.962899,42.812486,65.807559)" fill="#ff0000"/>
<use data-text="3" xlink:href="#font_1_3" transform="matrix(9.9626,0,0,-9.962899,50.005479,65.807559)" fill="#ff0000"/>
<use data-text="&#x03b8;" xlink:href="#font_2_1" transform="matrix(9.9626,0,0,-9.962899,55.016008,65.807559)" fill="#ff0000"/>
</svg>
