<svg xmlns="http://www.w3.org/2000/svg" xmlns:xlink="http://www.w3.org/1999/xlink" version="1.1" width="94pt" height="97pt" viewBox="0 0 94 97">
<defs>
<path id="font_1_1" d="M.2939911 .64004519C.2939911 .66400149 .2939911 .6660156 .2709961 .6660156 .20899964 .60227969 .12098694 .60227969 .08898926 .60227969V.57128909C.10899353 .57128909 .16799927 .57128909 .21998596 .5972748V.07902527C.21998596 .042999269 .21699524 .0309906 .1269989 .0309906H.09498596V0C.12998963 .0029907227 .21699524 .0029907227 .25698854 .0029907227 .29699708 .0029907227 .38398744 .0029907227 .4189911 0V.0309906H.3869934C.29699708 .0309906 .2939911 .041992189 .2939911 .07902527V.64004519Z"/>
<path id="font_1_2" d="M.1269989 .07699585 .23298645 .18003845C.3889923 .31811524 .44898988 .3721466 .44898988 .47216798 .44898988 .5860901 .35899354 .6660156 .23699951 .6660156 .12399292 .6660156 .049987794 .57411196 .049987794 .48516847 .049987794 .4291687 .099990848 .4291687 .102996829 .4291687 .11999512 .4291687 .15499878 .44117738 .15499878 .48217774 .15499878 .5081787 .13699341 .5341797 .101989749 .5341797 .09399414 .5341797 .09199524 .5341797 .08898926 .5331726 .11199951 .59806826 .1659851 .63500979 .22399903 .63500979 .31498719 .63500979 .35798646 .5541382 .35798646 .47216798 .35798646 .39215089 .30799867 .31311036 .25299073 .25108338L.06098938 .036987306C.049987794 .025985718 .049987794 .023986817 .049987794 0H.42099L.44898988 .17404175H.42399598C.4189911 .14402771 .4119873 .1000061 .4019928 .084991458 .394989 .07699585 .32899476 .07699585 .30699159 .07699585H.1269989Z"/>
<path id="font_1_3" d="M.2899933 .35191346C.37199403 .37893678 .42999269 .4490509 .42999269 .52809146 .42999269 .6100464 .34199525 .6660156 .24598694 .6660156 .14498902 .6660156 .068984989 .60606387 .068984989 .53009036 .068984989 .49710084 .09098816 .47808839 .11999512 .47808839 .15098572 .47808839 .17098999 .50009158 .17098999 .5290985 .17098999 .57910159 .12399292 .57910159 .10899353 .57910159 .13999939 .62802127 .20599365 .64100649 .24198914 .64100649 .2829895 .64100649 .33799745 .6190338 .33799745 .5290985 .33799745 .51708987 .33599855 .45906068 .30999757 .4149933 .27999879 .36691285 .24598694 .36390687 .22099304 .36291505 .21299744 .36190797 .18899536 .35990907 .18199158 .35990907 .17399597 .35890199 .16699219 .35791017 .16699219 .3479004 .16699219 .33691407 .17399597 .33691407 .19099427 .33691407H.23498535C.31698609 .33691407 .35398866 .2686615 .35398866 .17037964 .35398866 .034469606 .2849884 .0055389406 .24099732 .0055389406 .19799805 .0055389406 .12298584 .022491456 .08799744 .08137512 .12298584 .07637024 .1539917 .09837341 .1539917 .1363678 .1539917 .17237854 .1269989 .19238281 .09799194 .19238281 .07398987 .19238281 .041992189 .17837525 .041992189 .1343689 .041992189 .043441774 .1349945-.022460938 .24398804-.022460938 .3659973-.022460938 .45700074 .06838989 .45700074 .17037964 .45700074 .252594 .3939972 .33088685 .2899933 .35191346Z"/>
<path id="font_1_4" d="M.2939911 .16503906V.07800293C.2939911 .041992189 .2919922 .0309906 .21798706 .0309906H.19699097V0C.23799134 .0029907227 .2899933 .0029907227 .33198548 .0029907227 .37399293 .0029907227 .4269867 .0029907227 .46798707 0V.0309906H.44699098C.37298585 .0309906 .37098695 .041992189 .37098695 .07800293V.16503906H.47099305V.19602967H.37098695V.65075686C.37098695 .67074587 .37098695 .6767578 .35499574 .6767578 .34599305 .6767578 .34298707 .6767578 .33499146 .66474917L.027999878 .19602967V.16503906H.2939911M.2999878 .19602967H.055999757L.2999878 .5688019V.19602967Z"/>
</defs>
<path transform="matrix(1.00005,0,0,-1,47.451417,50.156)" stroke-width=".3985" stroke-linecap="butt" stroke-miterlimit="10" stroke-linejoin="miter" fill="none" stroke="#cbcbcb" d="M0 0H45.35419"/>
<path transform="matrix(1.00005,0,0,-1,47.451417,50.156)" stroke-width=".3985" stroke-linecap="butt" stroke-miterlimit="10" stroke-linejoin="miter" fill="none" stroke="#cbcbcb" d="M0 0 43.80884 11.73854"/>
<path transform="matrix(1.00005,0,0,-1,47.451417,50.156)" stroke-width=".3985" stroke-linecap="butt" stroke-miterlimit="10" stroke-linejoin="miter" fill="none" stroke="#cbcbcb" d="M0 0 39.27798 22.6771"/>
<path transform="matrix(1.00005,0,0,-1,47.451417,50.156)" stroke-width=".3985" stroke-linecap="butt" stroke-miterlimit="10" stroke-linejoin="miter" fill="none" stroke="#cbcbcb" d="M0 0 32.07028 32.07028"/>
<path transform="matrix(1.00005,0,0,-1,47.451417,50.156)" stroke-width=".3985" stroke-linecap="butt" stroke-miterlimit="10" stroke-linejoin="miter" fill="none" stroke="#cbcbcb" d="M0 0 22.6771 39.27798"/>
<path transform="matrix(1.00005,0,0,-1,47.451417,50.156)" stroke-width=".3985" stroke-linecap="butt" stroke-miterlimit="10" stroke-linejoin="miter" fill="none" stroke="#cbcbcb" d="M0 0 11.73854 43.80884"/>
<path transform="matrix(1.00005,0,0,-1,47.451417,50.156)" stroke-width=".3985" stroke-linecap="butt" stroke-miterlimit="10" stroke-linejoin="miter" fill="none" stroke="#cbcbcb" d="M0 0V45.35419"/>
<path transform="matrix(1.00005,0,0,-1,47.451417,50.156)" stroke-width=".3985" stroke-linecap="butt" stroke-miterlimit="10" stroke-linejoin="miter" fill="none" stroke="#cbcbcb" d="M0 0-11.73854 43.80884"/>
<path transform="matrix(1.00005,0,0,-1,47.451417,50.156)" stroke-width=".3985" stroke-linecap="butt" stroke-miterlimit="10" stroke-linejoin="miter" fill="none" stroke="#cbcbcb" d="M0 0-22.6771 39.27798"/>
<path transform="matrix(1.00005,0,0,-1,47.451417,50.156)" stroke-width=".3985" stroke-linecap="butt" stroke-miterlimit="10" stroke-linejoin="miter" fill="none" stroke="#cbcbcb" d="M0 0-32.07028 32.07028"/>
<path transform="matrix(1.00005,0,0,-1,47.451417,50.156)" stroke-width=".3985" stroke-linecap="butt" stroke-miterlimit="10" stroke-linejoin="miter" fill="none" stroke="#cbcbcb" d="M0 0-39.27798 22.6771"/>
<path transform="matrix(1.00005,0,0,-1,47.451417,50.156)" stroke-width=".3985" stroke-linecap="butt" stroke-miterlimit="10" stroke-linejoin="miter" fill="none" stroke="#cbcbcb" d="M0 0-43.80884 11.73854"/>
<path transform="matrix(1.00005,0,0,-1,47.451417,50.156)" stroke-width=".3985" stroke-linecap="butt" stroke-miterlimit="10" stroke-linejoin="miter" fill="none" stroke="#cbcbcb" d="M0 0H-45.35419"/>
<path transform="matrix(1.00005,0,0,-1,47.451417,50.156)" stroke-width=".3985" stroke-linecap="butt" stroke-miterlimit="10" stroke-linejoin="miter" fill="none" stroke="#cbcbcb" d="M0 0-43.80884-11.73854"/>
<path transform="matrix(1.00005,0,0,-1,47.451417,50.156)" stroke-width=".3985" stroke-linecap="butt" stroke-miterlimit="10" stroke-linejoin="miter" fill="none" stroke="#cbcbcb" d="M0 0-39.27798-22.6771"/>
<path transform="matrix(1.00005,0,0,-1,47.451417,50.156)" stroke-width=".3985" stroke-linecap="butt" stroke-miterlimit="10" stroke-linejoin="miter" fill="none" stroke="#cbcbcb" d="M0 0-32.07028-32.07028"/>
<path transform="matrix(1.00005,0,0,-1,47.451417,50.156)" stroke-width=".3985" stroke-linecap="butt" stroke-miterlimit="10" stroke-linejoin="miter" fill="none" stroke="#cbcbcb" d="M0 0-22.6771-39.27798"/>
<path transform="matrix(1.00005,0,0,-1,47.451417,50.156)" stroke-width=".3985" stroke-linecap="butt" stroke-miterlimit="10" stroke-linejoin="miter" fill="none" stroke="#cbcbcb" d="M0 0-11.73854-43.80884"/>
<path transform="matrix(1.00005,0,0,-1,47.451417,50.156)" stroke-width=".3985" stroke-linecap="butt" stroke-miterlimit="10" stroke-linejoin="miter" fill="none" stroke="#cbcbcb" d="M0 0V-45.35419"/>
<path transform="matrix(1.00005,0,0,-1,47.451417,50.156)" stroke-width=".3985" stroke-linecap="butt" stroke-miterlimit="10" stroke-linejoin="miter" fill="none" stroke="#cbcbcb" d="M0 0 11.73854-43.80884"/>
<path transform="matrix(1.00005,0,0,-1,47.451417,50.156)" stroke-width=".3985" stroke-linecap="butt" stroke-miterlimit="10" stroke-linejoin="miter" fill="none" stroke="#cbcbcb" d="M0 0 22.6771-39.27798"/>
<path transform="matrix(1.00005,0,0,-1,47.451417,50.156)" stroke-width=".3985" stroke-linecap="butt" stroke-miterlimit="10" stroke-linejoin="miter" fill="none" stroke="#cbcbcb" d="M0 0 32.07028-32.07028"/>
<path transform="matrix(1.00005,0,0,-1,47.451417,50.156)" stroke-width=".3985" stroke-linecap="butt" stroke-miterlimit="10" stroke-linejoin="miter" fill="none" stroke="#cbcbcb" d="M0 0 39.27798-22.6771"/>
<path transform="matrix(1.00005,0,0,-1,47.451417,50.156)" stroke-width=".3985" stroke-linecap="butt" stroke-miterlimit="10" stroke-linejoin="miter" fill="none" stroke="#cbcbcb" d="M0 0 43.80884-11.73854"/>
<path transform="matrix(1.00005,0,0,-1,47.451417,50.156)" stroke-width=".3985" stroke-linecap="butt" stroke-miterlimit="10" stroke-linejoin="miter" fill="none" stroke="#cbcbcb" d="M11.33855 0C11.33855 6.26218 6.26218 11.33855 0 11.33855-6.26218 11.33855-11.33855 6.26218-11.33855 0-11.33855-6.26218-6.26218-11.33855 0-11.33855 6.26218-11.33855 11.33855-6.26218 11.33855 0ZM0 0"/>
<path transform="matrix(1.00005,0,0,-1,47.451417,50.156)" d="M-4.48325 6.13577H4.4832398V16.5413H-4.48325Z" fill="#ffffff"/>
<use data-text="1" xlink:href="#font_1_1" transform="matrix(9.963098,0,0,-9.9626,44.96029,42.028)"/>
<path transform="matrix(1.00005,0,0,-1,47.451417,50.156)" stroke-width=".3985" stroke-linecap="butt" stroke-miterlimit="10" stroke-linejoin="miter" fill="none" stroke="#cbcbcb" d="M22.6771 0C22.6771 12.52435 12.52435 22.6771 0 22.6771-12.52435 22.6771-22.6771 12.52435-22.6771 0-22.6771-12.52435-12.52435-22.6771 0-22.6771 12.52435-22.6771 22.6771-12.52435 22.6771 0ZM0 0"/>
<path transform="matrix(1.00005,0,0,-1,47.451417,50.156)" d="M-4.48325 17.47432H4.4832398V27.879849H-4.48325Z" fill="#ffffff"/>
<use data-text="2" xlink:href="#font_1_2" transform="matrix(9.963098,0,0,-9.9626,44.96029,30.689)"/>
<path transform="matrix(1.00005,0,0,-1,47.451417,50.156)" stroke-width=".3985" stroke-linecap="butt" stroke-miterlimit="10" stroke-linejoin="miter" fill="none" stroke="#cbcbcb" d="M34.01564 0C34.01564 18.78654 18.78654 34.01564 0 34.01564-18.78654 34.01564-34.01564 18.78654-34.01564 0-34.01564-18.78654-18.78654-34.01564 0-34.01564 18.78654-34.01564 34.01564-18.78654 34.01564 0ZM0 0"/>
<path transform="matrix(1.00005,0,0,-1,47.451417,50.156)" d="M-4.48325 28.81287H4.4832398V39.2184H-4.48325Z" fill="#ffffff"/>
<use data-text="3" xlink:href="#font_1_3" transform="matrix(9.963098,0,0,-9.9626,44.96029,19.350998)"/>
<path transform="matrix(1.00005,0,0,-1,47.451417,50.156)" stroke-width=".3985" stroke-linecap="butt" stroke-miterlimit="10" stroke-linejoin="miter" fill="none" stroke="#cbcbcb" d="M45.35419 0C45.35419 25.04874 25.04874 45.35419 0 45.35419-25.04874 45.35419-45.35419 25.04874-45.35419 0-45.35419-25.04874-25.04874-45.35419 0-45.35419 25.04874-45.35419 45.35419-25.04874 45.35419 0ZM0 0"/>
<path transform="matrix(1.00005,0,0,-1,47.451417,50.156)" d="M-4.48325 40.15141H4.4832398V50.55694H-4.48325Z" fill="#ffffff"/>
<use data-text="4" xlink:href="#font_1_4" transform="matrix(9.963098,0,0,-9.9626,44.96029,8.011997)"/>
<path transform="matrix(1.00005,0,0,-1,47.451417,50.156)" stroke-width="1.19553" stroke-linecap="butt" stroke-miterlimit="10" stroke-linejoin="miter" fill="none" stroke="#ff0000" d="M-11.33855 0C-11.33855 0-11.26314-.80527-11.17348-1.10034-11.08383-1.39542-10.86697-1.86205-10.69234-2.12666-10.5177-2.39127-10.16634-2.79224-9.91481-3.00746-9.6633-3.22269-9.19556-3.5288-8.87952-3.67789-8.56346-3.82697-8.0019-4.01303-7.63693-4.08205-7.27197-4.15106-6.64476-4.19688-6.24902-4.1753-5.85327-4.15372-5.1909-4.04504-4.78465-3.92651-4.37839-3.80797-3.71667-3.53902-3.32095-3.32095-2.92523-3.1029-2.29623-2.67035-1.93253-2.35486-1.56883-2.03935-1.01022-1.4532-.69965-1.04706-.38907-.64091 .06752 .08595 .30588 .5723 .5442 1.05864 .86908 1.90611 1.01816 2.45813 1.16727 3.01018 1.33458 3.9512 1.38045 4.55109 1.42632 5.15097 1.41638 6.15453 1.34879 6.78174 1.2812 7.40894 1.08038 8.4393 .89325 9.07155 .70612 9.7038 .30832 10.72481 0 11.33855-.30832 11.95227-.90247 12.92326-1.32906 13.49495-1.75566 14.06664-2.53726 14.95189-3.07458 15.45882-3.61191 15.96576-4.56567 16.72784-5.20178 17.14865-5.83789 17.56946-6.94032 18.17575-7.65926 18.49174-8.37817 18.80771-9.601 19.2304-10.38332 19.42601-11.16565 19.62163-12.47432 19.83815-13.29773 19.90161-14.12112 19.96509-15.47725 19.95914-16.31783 19.88345-17.15842 19.80775-18.52426 19.57417-19.35611 19.35611-20.18794 19.13805-21.5158 18.67015-22.31325 18.31181-23.11067 17.95345-24.36513 17.26459-25.10358 16.77338-25.84203 16.28217-26.97974 15.38443-27.63545 14.77145-28.29118 14.15848-29.27748 13.07442-29.82959 12.3555-30.38171 11.63658-31.18413 10.39537-31.61475 9.5899-32.04535 8.78442-32.6382 7.41977-32.9331 6.55023-33.22801 5.6807-33.59 4.23169-33.7402 3.32286-33.8904 2.41402-34.01564 .92207-34.01564 0-34.01564-.92207-33.8904-2.41402-33.7402-3.32286-33.59-4.23169-33.22801-5.6807-32.9331-6.55023-32.6382-7.41977-32.04535-8.78442-31.61475-9.5899-31.18413-10.39537-30.38171-11.63658-29.82959-12.3555-29.27748-13.07442-28.29118-14.15848-27.63545-14.77145-26.97974-15.38443-25.84203-16.28217-25.10358-16.77338-24.36513-17.26459-23.11067-17.95345-22.31325-18.31181-21.5158-18.67015-20.18794-19.13805-19.35611-19.35611-18.52426-19.57417-17.15842-19.80775-16.31783-19.88345-15.47725-19.95914-14.12112-19.96509-13.29773-19.90161-12.47432-19.83815-11.16565-19.62163-10.38332-19.42601-9.601-19.2304-8.37817-18.80771-7.65926-18.49174-6.94032-18.17575-5.83789-17.56946-5.20178-17.14865-4.56567-16.72784-3.61191-15.96576-3.07458-15.45882-2.53726-14.95189-1.75566-14.06664-1.32906-13.49495-.90247-12.92326-.30832-11.95227 0-11.33855 .30832-10.72481 .70612-9.7038 .89325-9.07155 1.08038-8.4393 1.2812-7.40894 1.34879-6.78174 1.41638-6.15453 1.42632-5.15097 1.38045-4.55109 1.33458-3.9512 1.16727-3.01018 1.01816-2.45813 .86908-1.90611 .5442-1.05864 .30588-.5723 .06752-.08595-.38907 .64091-.69965 1.04706-1.01022 1.4532-1.56883 2.03935-1.93253 2.35486-2.29623 2.67035-2.92523 3.1029-3.32095 3.32095-3.71667 3.53902-4.37839 3.80797-4.78465 3.92651-5.1909 4.04504-5.85327 4.15372-6.24902 4.1753-6.64476 4.19688-7.27197 4.15106-7.63693 4.08205-8.0019 4.01303-8.56346 3.82697-8.87952 3.67789-9.19556 3.5288-9.6633 3.22269-9.91481 3.00746-10.16634 2.79224-10.5177 2.39127-10.69234 2.12666-10.86697 1.86205-11.08383 1.39542-11.17348 1.10034-11.26314 .80527-11.33855 0-11.33855 0"/>
</svg>
