<svg xmlns="http://www.w3.org/2000/svg" xmlns:xlink="http://www.w3.org/1999/xlink" version="1.1" width="225pt" height="122pt" viewBox="0 0 225 122">
<defs>
<path id="font_1_4" d="M.2939911 .64004519C.2939911 .66400149 .2939911 .6660156 .2709961 .6660156 .20899964 .60227969 .12098694 .60227969 .08898926 .60227969V.57128909C.10899353 .57128909 .16799927 .57128909 .21998596 .5972748V.07902527C.21998596 .042999269 .21699524 .0309906 .1269989 .0309906H.09498596V0C.12998963 .0029907227 .21699524 .0029907227 .25698854 .0029907227 .29699708 .0029907227 .38398744 .0029907227 .4189911 0V.0309906H.3869934C.29699708 .0309906 .2939911 .041992189 .2939911 .07902527V.64004519Z"/>
<path id="font_1_1" d="M.33099366-.2400055C.33099366-.23701477 .33099366-.23500061 .31399537-.21800232 .18899536-.0920105 .15699768 .09700012 .15699768 .25 .15699768 .42399598 .19499207 .59799197 .31799317 .72299197 .33099366 .73498538 .33099366 .7369995 .33099366 .73999026 .33099366 .746994 .32699586 .75 .32099916 .75 .31098939 .75 .22099304 .6819916 .1619873 .5549927 .11099243 .44499208 .09899902 .33399964 .09899902 .25 .09899902 .17199707 .10998535 .050994874 .16499329-.06201172 .22499085-.18501282 .31098939-.25 .32099916-.25 .32699586-.25 .33099366-.24700928 .33099366-.2400055Z"/>
<path id="font_1_5" d="M.1269989 .07699585 .23298645 .18003845C.3889923 .31811524 .44898988 .3721466 .44898988 .47216798 .44898988 .5860901 .35899354 .6660156 .23699951 .6660156 .12399292 .6660156 .049987794 .57411196 .049987794 .48516847 .049987794 .4291687 .099990848 .4291687 .102996829 .4291687 .11999512 .4291687 .15499878 .44117738 .15499878 .48217774 .15499878 .5081787 .13699341 .5341797 .101989749 .5341797 .09399414 .5341797 .09199524 .5341797 .08898926 .5331726 .11199951 .59806826 .1659851 .63500979 .22399903 .63500979 .31498719 .63500979 .35798646 .5541382 .35798646 .47216798 .35798646 .39215089 .30799867 .31311036 .25299073 .25108338L.06098938 .036987306C.049987794 .025985718 .049987794 .023986817 .049987794 0H.42099L.44898988 .17404175H.42399598C.4189911 .14402771 .4119873 .1000061 .4019928 .084991458 .394989 .07699585 .32899476 .07699585 .30699159 .07699585H.1269989Z"/>
<path id="font_2_2" d="M.20298767 .0009918213C.20298767 .066986087 .17799378 .10598755 .13899231 .10598755 .10598755 .10598755 .085998538 .08099365 .085998538 .052993776 .085998538 .025985718 .10598755 0 .13899231 0 .15098572 0 .1639862 .0039978029 .17399597 .0129852299 .1769867 .01499939 .17799378 .015991211 .1789856 .015991211 .17999268 .015991211 .18099976 .01499939 .18099976 .0009918213 .18099976-.07316589 .1459961-.13328552 .11299133-.16635132 .101989749-.17736817 .101989749-.17936707 .101989749-.18237305 .101989749-.18936157 .10699463-.19335938 .11199951-.19335938 .12298584-.19335938 .20298767-.116256717 .20298767 .0009918213Z"/>
<path id="font_1_3" d="M.45999146 .31976319C.45999146 .39982606 .45498658 .47988893 .41999818 .5539398 .37399293 .65000918 .2919922 .6660156 .25 .6660156 .18998719 .6660156 .116989139 .64001467 .07598877 .54693606 .04399109 .47789 .038986207 .39982606 .038986207 .31976319 .038986207 .24472046 .042999269 .15464783 .083999637 .07859802 .1269989-.0024719239 .19999695-.022460938 .24899292-.022460938 .30299378-.022460938 .3789978-.0014648438 .4229889 .09359741 .45498658 .16265869 .45999146 .2407074 .45999146 .31976319M.24899292-.00047302247C.20999146-.00047302247 .15098572 .024551392 .1329956 .12062073 .12199402 .18066406 .12199402 .2727356 .12199402 .3317871 .12199402 .39582826 .12199402 .46188355 .12998963 .5159149 .14898682 .63500979 .22399903 .64401248 .24899292 .64401248 .28199769 .64401248 .34799195 .6259918 .36698915 .52693179 .3769989 .47088624 .3769989 .39482118 .3769989 .3317871 .3769989 .25672914 .3769989 .18867493 .3659973 .12461853 .35099793 .029556275 .2939911-.00047302247 .24899292-.00047302247Z"/>
<path id="font_1_2" d="M.2889862 .25C.2889862 .32798768 .27799989 .44898988 .22299195 .56199648 .16299439 .68499758 .07699585 .75 .066986087 .75 .06098938 .75 .056991579 .74598696 .056991579 .73999026 .056991579 .7369995 .056991579 .73498538 .07598877 .71699526 .17399597 .6179962 .23098755 .45899964 .23098755 .25 .23098755 .07899475 .19400025-.09700012 .069992069-.2230072 .056991579-.23500061 .056991579-.23701477 .056991579-.2400055 .056991579-.2460022 .06098938-.25 .066986087-.25 .07699585-.25 .16699219-.18200684 .22599793-.055007936 .2769928 .054992677 .2889862 .16600037 .2889862 .25Z"/>
<path id="font_3_28" d="M.48298646 .08912659V.14511109H.45799256V.08912659C.45799256 .03112793 .43299867 .025131226 .42199708 .025131226 .3889923 .025131226 .3849945 .070129398 .3849945 .07511902V.27508546C.3849945 .31707765 .3849945 .3560791 .34899903 .39312745 .30999757 .43223573 .2599945 .4482422 .21199036 .4482422 .12998963 .4482422 .06098938 .40115357 .06098938 .335083 .06098938 .30508424 .08099365 .28808595 .10699463 .28808595 .1349945 .28808595 .15299988 .30807496 .15299988 .33407594 .15299988 .3460846 .147995 .37908937 .101989749 .38008119 .1289978 .41519166 .17799378 .426239 .20999146 .426239 .25898744 .426239 .31599427 .38710023 .31599427 .29808045V.26107789C.2649994 .25808717 .19499207 .25508119 .13198853 .22509766 .056991579 .19110108 .03199768 .13911438 .03199768 .09512329 .03199768 .014251709 .1289978-.0107421879 .19198609-.0107421879 .2579956-.0107421879 .3039856 .029251099 .32299806 .07624817 .32699586 .036132814 .35398866-.005859375 .40098573-.005859375 .42199708-.005859375 .48298646 .008132935 .48298646 .08912659M.31599427 .14013672C.31599427 .04525757 .24398804 .011245728 .19898987 .011245728 .1499939 .011245728 .10899353 .04624939 .10899353 .09625244 .10899353 .15124512 .15098572 .23425293 .31599427 .24024964V.14013672Z"/>
<path id="font_3_77" d="M.5349884 0V.0309906C.48298646 .0309906 .45799256 .0309906 .45700074 .061019899V.25221253C.45700074 .3383026 .45700074 .36932374 .42599488 .405365 .4119873 .42237855 .3789978 .4423828 .32099916 .4423828 .24798584 .4423828 .20098877 .39935304 .17298889 .33729554V.4423828L.03199768 .43066407V.3996582C.101989749 .3996582 .10998535 .39266969 .10998535 .34370423V.07595825C.10998535 .0309906 .09899902 .0309906 .03199768 .0309906V0L.14498902 .0029907227 .25698854 0V.0309906C.18998719 .0309906 .1789856 .0309906 .1789856 .07595825V.25978089C.1789856 .36431886 .25 .42037965 .31399537 .42037965 .3769989 .42037965 .3880005 .36631776 .3880005 .30926515V.076034549C.3880005 .0309906 .3769989 .0309906 .30999757 .0309906V0L.4229889 .0029907227 .5349884 0Z"/>
<path id="font_3_47" d="M.5269928 0V.0309906C.45700074 .0309906 .44898988 .038009645 .44898988 .0871582V.69433596L.30499269 .6826172V.6516113C.375 .6516113 .3829956 .64463809 .3829956 .59580996V.38035584C.35398866 .41636659 .31098939 .4423828 .25698854 .4423828 .13899231 .4423828 .033996583 .3443451 .033996583 .21531677 .033996583 .088272098 .13198853-.0107421879 .24598694-.0107421879 .30999757-.0107421879 .35499574 .023254395 .37998963 .055267335V-.0107421879L.5269928 0M.37998963 .117996219C.37998963 .099990848 .37998963 .09799194 .36898805 .08099365 .33898927 .033218385 .2939911 .011245728 .25099183 .011245728 .20599365 .011245728 .16999817 .037216188 .1459961 .075164798 .11999512 .1161499 .116989139 .17320252 .116989139 .21421814 .116989139 .25125123 .11898804 .31129457 .147995 .35632325 .16899109 .38734437 .20698548 .42037965 .26098634 .42037965 .29599 .42037965 .33799745 .405365 .36898805 .3603363 .37998963 .34332276 .37998963 .34132386 .37998963 .32330323V.117996219Z"/>
<path id="font_4_1" d="M.6589966 .23046875C.6759949 .23046875 .69400027 .23046875 .69400027 .25045777 .69400027 .27046205 .6759949 .27046205 .6589966 .27046205H.117996219C.100997928 .27046205 .08299255 .27046205 .08299255 .25045777 .08299255 .23046875 .100997928 .23046875 .117996219 .23046875H.6589966Z"/>
<path id="font_2_1" d="M.2649994 .37265016H.37799073C.34498597 .22489929 .33599855 .18196106 .33599855 .11508179 .33599855 .100097659 .33599855 .073150638 .34399415 .03919983 .35398866-.0047454836 .36499024-.0107421879 .37998963-.0107421879 .3999939-.0107421879 .42099 .007247925 .42099 .02722168 .42099 .033218385 .42099 .035202028 .4149933 .049179079 .38598634 .12106323 .38598634 .18595886 .38598634 .21391297 .38598634 .26683045 .3929901 .32073976 .4039917 .37265016H.5179901C.5309906 .37265016 .5669861 .37265016 .5669861 .406662 .5669861 .43066407 .54599 .43066407 .5269928 .43066407H.19198609C.16999817 .43066407 .13198853 .43066407 .08799744 .38365174 .052993776 .34469605 .026992798 .29878236 .026992798 .29379273 .026992798 .29278565 .026992798 .28379823 .038986207 .28379823 .04699707 .28379823 .04899597 .28779603 .054992677 .29577638 .10398865 .37265016 .1619873 .37265016 .18199158 .37265016H.23899842C.20698548 .25186158 .15299988 .13105774 .11099243 .04020691 .102996829 .025222779 .102996829 .023223877 .102996829 .016235352 .102996829-.002746582 .11898804-.0107421879 .13198853-.0107421879 .1619873-.0107421879 .16999817 .017242432 .18199158 .05418396 .19599915 .100097659 .19599915 .10209656 .20899964 .15202332L.2649994 .37265016Z"/>
<path id="font_5_1" d="M.31098939 .36265565H.42999269C.4149933 .30274964 .3929901 .2118988 .3929901 .13302613 .3929901 .09309387 .397995 .06613159 .4039917 .044174196 .41999818-.0057678224 .43299867-.009765625 .44898988-.009765625 .47200013-.009765625 .49598695 .011230469 .49598695 .035186769 .49598695 .043182374 .49398805 .047164918 .48799134 .057159425 .46899415 .09408569 .45098878 .15100098 .45098878 .23286438 .45098878 .25183106 .45098878 .29177857 .46499635 .36265565H.58999636C.60798647 .36265565 .6159973 .36265565 .6269989 .37065126 .6409912 .380661 .6439972 .39665223 .6439972 .4016571 .6439972 .43066407 .6179962 .43066407 .6009979 .43066407H.22399903C.18299866 .43066407 .15499878 .42166139 .10998535 .37965394 .083999637 .35665895 .04499817 .30274964 .04499817 .2937622 .04499817 .28178407 .057998659 .28178407 .06199646 .28178407 .07299805 .28178407 .07398987 .28378297 .07998657 .2927704 .1309967 .36265565 .19299317 .36265565 .21499634 .36265565H.27598573C.24499512 .25283814 .19099427 .13502503 .16099549 .07511902 .15499878 .062149049 .14498902 .04118347 .14199829 .03718567 .14099121 .033187868 .13899231 .029190064 .13899231 .022201539 .13899231 .006225586 .15098572-.009765625 .17399597-.009765625 .21398926-.009765625 .22499085 .035186769 .24899292 .12504578L.31098939 .36265565Z"/>
<path id="font_6_3" d="M.5289917 .1640625V.20005799H.41799928V.64582827C.41799928 .66682437 .41799928 .6738281 .3959961 .6738281 .38398744 .6738281 .37998963 .6738281 .36999513 .65982058L.038986207 .20005799V.1640625H.33299256V.08201599C.33299256 .04800415 .33299256 .035995485 .2519989 .035995485H.22499085V0C.2749939 .0019989014 .33898927 .0039978029 .375 .0039978029 .4119873 .0039978029 .47599793 .0019989014 .526001 0V.035995485H.49899293C.41799928 .035995485 .41799928 .04800415 .41799928 .08201599V.1640625H.5289917M.33999635 .5658722V.20005799H.07598877L.33999635 .5658722Z"/>
<path id="font_6_4" d="M.15499878 .5588074C.20599365 .5458069 .23599243 .5458069 .2519989 .5458069 .38398744 .5458069 .46199037 .6358032 .46199037 .6508026 .46199037 .6618042 .45498658 .6648102 .44999696 .6648102 .44799806 .6648102 .44599916 .6648102 .44198609 .6618042 .41799928 .6528015 .36499024 .6328125 .29100038 .6328125 .2630005 .6328125 .20999146 .6348114 .14498902 .6598053 .1349945 .6648102 .1329956 .6648102 .13198853 .6648102 .11898804 .6648102 .11898804 .6538086 .11898804 .6378021V.34251405C.11898804 .32548524 .11898804 .3134613 .1349945 .3134613 .14399719 .3134613 .14498902 .3154602 .15499878 .32748414 .19799805 .38259889 .25898744 .390625 .2939911 .390625 .35398866 .390625 .3809967 .34251405 .38598634 .33450318 .4039917 .30143739 .4099884 .26335145 .4099884 .20524597 .4099884 .17524719 .4099884 .116256717 .37998963 .07234192 .35499574 .03640747 .31199647 .012466431 .2630005 .012466431 .19799805 .012466431 .1309967 .04838562 .10598755 .11425781 .14399719 .11125183 .16299439 .13624573 .16299439 .16325379 .16299439 .20625305 .12599182 .21424866 .11299133 .21424866 .11099243 .21424866 .06298828 .21424866 .06298828 .1602478 .06298828 .07034302 .14498902-.01953125 .2649994-.01953125 .3929901-.01953125 .5049896 .07533264 .5049896 .20124817 .5049896 .31445313 .4189911 .41862489 .29499818 .41862489 .25099183 .41862489 .19898987 .4076233 .15499878 .36956788V.5588074Z"/>
<path id="font_6_1" d="M.5049896 .18203736H.47099305C.46798707 .16001892 .45799256 .100997928 .44499208 .09098816 .43699647 .084991458 .3600006 .084991458 .34599305 .084991458H.1619873C.2669983 .17803955 .3019867 .20603943 .3619995 .25306703 .43598939 .312088 .5049896 .374115 .5049896 .46914674 .5049896 .5900879 .39898683 .6640625 .2709961 .6640625 .14698792 .6640625 .06298828 .57710269 .06298828 .4851532 .06298828 .43414308 .10598755 .42915345 .115997318 .42915345 .13999939 .42915345 .16899109 .44615174 .16899109 .48214723 .16899109 .5001526 .1619873 .53515627 .10998535 .53515627 .14099121 .6060791 .20899964 .62805178 .2559967 .62805178 .35598756 .62805178 .4079895 .5501404 .4079895 .46914674 .4079895 .38212586 .34599305 .3130951 .31399537 .27708436L.07299805 .038986207C.06298828 .02999878 .06298828 .027999878 .06298828 0H.47499085L.5049896 .18203736Z"/>
<path id="font_3_45" d="M.20298767 .0009918213C.20298767 .06498718 .1789856 .10598755 .13899231 .10598755 .10398865 .10598755 .085998538 .07899475 .085998538 .052993776 .085998538 .026992798 .102996829 0 .13899231 0 .1539917 0 .16799927 .005996704 .1789856 .015991211 .18099976-.06312561 .15299988-.12423706 .10899353-.17132569 .102996829-.17733765 .101989749-.17834473 .101989749-.18234253 .101989749-.18936157 .10699463-.19335938 .11199951-.19335938 .12399292-.19335938 .20298767-.114227298 .20298767 .0009918213Z"/>
<path id="font_6_2" d="M.272995 .33428956C.35099793 .33428956 .40699769 .2803192 .40699769 .1733551 .40699769 .04940796 .33499146 .012466431 .2769928 .012466431 .23699951 .012466431 .14898682 .0234375 .10699463 .082351688 .1539917 .084350589 .16499329 .11735535 .16499329 .13835144 .16499329 .17034912 .14099121 .19335938 .10998535 .19335938 .08198547 .19335938 .053985597 .17634583 .053985597 .13534546 .053985597 .041412355 .1579895-.01953125 .2789917-.01953125 .41799928-.01953125 .5139923 .07336426 .5139923 .1733551 .5139923 .2513275 .44999696 .32929994 .33999635 .35229493 .44499208 .39024354 .48298646 .4650879 .48298646 .5260773 .48298646 .60505679 .3919983 .6640625 .2809906 .6640625 .16999817 .6640625 .084991458 .61006167 .084991458 .5300751 .084991458 .49606324 .10699463 .47706605 .13699341 .47706605 .16799927 .47706605 .18798828 .5000763 .18798828 .5280762 .18798828 .5570679 .16799927 .57806399 .13699341 .5800781 .17199707 .62405398 .24099732 .63505557 .27799989 .63505557 .32299806 .63505557 .38598634 .6130676 .38598634 .5260773 .38598634 .48406983 .37199403 .43814088 .34599305 .4072113 .31298829 .36927796 .2849884 .3672943 .23498535 .36428834 .20999146 .3623047 .20799256 .3623047 .20298767 .3612976 .20098877 .3612976 .19299317 .3592987 .19299317 .34829713 .19299317 .33428956 .20199585 .33428956 .21899414 .33428956H.272995Z"/>
<path id="font_6_5" d="M.5349884 .6045227C.54499819 .6165161 .54499819 .6185303 .54499819 .64453127H.2829895C.24299622 .64453127 .23199463 .6455078 .19599915 .6484375 .14399719 .65234377 .14199829 .6592407 .13899231 .676239H.10499573L.069992069 .46250917H.10398865C.10598755 .47750855 .115997318 .54351809 .13198853 .5535126 .13999939 .55952456 .22099304 .55952456 .23599243 .55952456H.45399476C.42199708 .5175171 .37098695 .45550538 .34999085 .4275055 .21899414 .25549317 .20698548 .096466068 .20698548 .037460329 .20698548 .02645874 .20698548-.01953125 .2539978-.01953125 .3019867-.01953125 .3019867 .025466919 .3019867 .038467409V.07847595C.3019867 .27249146 .34199525 .36149598 .3849945 .41551209L.5349884 .6045227Z"/>
</defs>
<path transform="matrix(1.00002,0,0,-1,111.88391,60.67)" stroke-width=".3985" stroke-linecap="butt" stroke-miterlimit="10" stroke-linejoin="miter" fill="none" stroke="#cbcbcb" d="M0 0H51.02477"/>
<path transform="matrix(1.00002,0,0,-1,111.88391,60.67)" stroke-width=".3985" stroke-linecap="butt" stroke-miterlimit="10" stroke-linejoin="miter" fill="none" stroke="#cbcbcb" d="M0 0 49.28621 13.20619"/>
<path transform="matrix(1.00002,0,0,-1,111.88391,60.67)" stroke-width=".3985" stroke-linecap="butt" stroke-miterlimit="10" stroke-linejoin="miter" fill="none" stroke="#cbcbcb" d="M0 0 44.18886 25.51236"/>
<path transform="matrix(1.00002,0,0,-1,111.88391,60.67)" stroke-width=".3985" stroke-linecap="butt" stroke-miterlimit="10" stroke-linejoin="miter" fill="none" stroke="#cbcbcb" d="M0 0 36.07999 36.07999"/>
<path transform="matrix(1.00002,0,0,-1,111.88391,60.67)" stroke-width=".3985" stroke-linecap="butt" stroke-miterlimit="10" stroke-linejoin="miter" fill="none" stroke="#cbcbcb" d="M0 0 25.51236 44.18886"/>
<path transform="matrix(1.00002,0,0,-1,111.88391,60.67)" stroke-width=".3985" stroke-linecap="butt" stroke-miterlimit="10" stroke-linejoin="miter" fill="none" stroke="#cbcbcb" d="M0 0 13.20619 49.28621"/>
<path transform="matrix(1.00002,0,0,-1,111.88391,60.67)" stroke-width=".3985" stroke-linecap="butt" stroke-miterlimit="10" stroke-linejoin="miter" fill="none" stroke="#cbcbcb" d="M0 0V51.02477"/>
<path transform="matrix(1.00002,0,0,-1,111.88391,60.67)" stroke-width=".3985" stroke-linecap="butt" stroke-miterlimit="10" stroke-linejoin="miter" fill="none" stroke="#cbcbcb" d="M0 0-13.20619 49.28621"/>
<path transform="matrix(1.00002,0,0,-1,111.88391,60.67)" stroke-width=".3985" stroke-linecap="butt" stroke-miterlimit="10" stroke-linejoin="miter" fill="none" stroke="#cbcbcb" d="M0 0-25.51236 44.18886"/>
<path transform="matrix(1.00002,0,0,-1,111.88391,60.67)" stroke-width=".3985" stroke-linecap="butt" stroke-miterlimit="10" stroke-linejoin="miter" fill="none" stroke="#cbcbcb" d="M0 0-36.07999 36.07999"/>
<path transform="matrix(1.00002,0,0,-1,111.88391,60.67)" stroke-width=".3985" stroke-linecap="butt" stroke-miterlimit="10" stroke-linejoin="miter" fill="none" stroke="#cbcbcb" d="M0 0-44.18886 25.51236"/>
<path transform="matrix(1.00002,0,0,-1,111.88391,60.67)" stroke-width=".3985" stroke-linecap="butt" stroke-miterlimit="10" stroke-linejoin="miter" fill="none" stroke="#cbcbcb" d="M0 0-49.28621 13.20619"/>
<path transform="matrix(1.00002,0,0,-1,111.88391,60.67)" stroke-width=".3985" stroke-linecap="butt" stroke-miterlimit="10" stroke-linejoin="miter" fill="none" stroke="#cbcbcb" d="M0 0H-51.02477"/>
<path transform="matrix(1.00002,0,0,-1,111.88391,60.67)" stroke-width=".3985" stroke-linecap="butt" stroke-miterlimit="10" stroke-linejoin="miter" fill="none" stroke="#cbcbcb" d="M0 0-49.28621-13.20619"/>
<path transform="matrix(1.00002,0,0,-1,111.88391,60.67)" stroke-width=".3985" stroke-linecap="butt" stroke-miterlimit="10" stroke-linejoin="miter" fill="none" stroke="#cbcbcb" d="M0 0-44.18886-25.51236"/>
<path transform="matrix(1.00002,0,0,-1,111.88391,60.67)" stroke-width=".3985" stroke-linecap="butt" stroke-miterlimit="10" stroke-linejoin="miter" fill="none" stroke="#cbcbcb" d="M0 0-36.07999-36.07999"/>
<path transform="matrix(1.00002,0,0,-1,111.88391,60.67)" stroke-width=".3985" stroke-linecap="butt" stroke-miterlimit="10" stroke-linejoin="miter" fill="none" stroke="#cbcbcb" d="M0 0-25.51236-44.18886"/>
<path transform="matrix(1.00002,0,0,-1,111.88391,60.67)" stroke-width=".3985" stroke-linecap="butt" stroke-miterlimit="10" stroke-linejoin="miter" fill="none" stroke="#cbcbcb" d="M0 0-13.20619-49.28621"/>
<path transform="matrix(1.00002,0,0,-1,111.88391,60.67)" stroke-width=".3985" stroke-linecap="butt" stroke-miterlimit="10" stroke-linejoin="miter" fill="none" stroke="#cbcbcb" d="M0 0V-51.02477"/>
<path transform="matrix(1.00002,0,0,-1,111.88391,60.67)" stroke-width=".3985" stroke-linecap="butt" stroke-miterlimit="10" stroke-linejoin="miter" fill="none" stroke="#cbcbcb" d="M0 0 13.20619-49.28621"/>
<path transform="matrix(1.00002,0,0,-1,111.88391,60.67)" stroke-width=".3985" stroke-linecap="butt" stroke-miterlimit="10" stroke-linejoin="miter" fill="none" stroke="#cbcbcb" d="M0 0 25.51236-44.18886"/>
<path transform="matrix(1.00002,0,0,-1,111.88391,60.67)" stroke-width=".3985" stroke-linecap="butt" stroke-miterlimit="10" stroke-linejoin="miter" fill="none" stroke="#cbcbcb" d="M0 0 36.07999-36.07999"/>
<path transform="matrix(1.00002,0,0,-1,111.88391,60.67)" stroke-width=".3985" stroke-linecap="butt" stroke-miterlimit="10" stroke-linejoin="miter" fill="none" stroke="#cbcbcb" d="M0 0 44.18886-25.51236"/>
<path transform="matrix(1.00002,0,0,-1,111.88391,60.67)" stroke-width=".3985" stroke-linecap="butt" stroke-miterlimit="10" stroke-linejoin="miter" fill="none" stroke="#cbcbcb" d="M0 0 49.28621-13.20619"/>
<path transform="matrix(1.00002,0,0,-1,111.88391,60.67)" stroke-width=".3985" stroke-linecap="butt" stroke-miterlimit="10" stroke-linejoin="miter" fill="none" stroke="#929292" d="M17.00824 0C17.00824 9.39351 9.39351 17.00824 0 17.00824-9.39351 17.00824-17.00824 9.39351-17.00824 0-17.00824-9.39351-9.39351-17.00824 0-17.00824 9.39351-17.00824 17.00824-9.39351 17.00824 0ZM0 0"/>
<path transform="matrix(1.00002,0,0,-1,111.88391,60.67)" stroke-width=".3985" stroke-linecap="butt" stroke-miterlimit="10" stroke-linejoin="miter" fill="none" stroke="#929292" d="M34.0165 0C34.0165 18.78702 18.78702 34.0165 0 34.0165-18.78702 34.0165-34.0165 18.78702-34.0165 0-34.0165-18.78702-18.78702-34.0165 0-34.0165 18.78702-34.0165 34.0165-18.78702 34.0165 0ZM0 0"/>
<path transform="matrix(1.00002,0,0,-1,111.88391,60.67)" stroke-width=".3985" stroke-linecap="butt" stroke-miterlimit="10" stroke-linejoin="miter" fill="none" stroke="#929292" d="M51.02477 0C51.02477 28.18056 28.18056 51.02477 0 51.02477-28.18056 51.02477-51.02477 28.18056-51.02477 0-51.02477-28.18056-28.18056-51.02477 0-51.02477 28.18056-51.02477 51.02477-28.18056 51.02477 0ZM0 0"/>
<path transform="matrix(1.00002,0,0,-1,111.88391,60.67)" d="M-4.48325 11.80547H4.4832398V22.211H-4.48325Z" fill="#ffffff"/>
<use data-text="1" xlink:href="#font_1_4" transform="matrix(9.962799,0,0,-9.9626,109.39286,46.871999)"/>
<path transform="matrix(1.00002,0,0,-1,111.88391,60.67)" d="M35.29205 0C35.29205 .70447 34.72098 1.27554 34.0165 1.27554 33.31203 1.27554 32.74095 .70447 32.74095 0 32.74095-.70447 33.31203-1.27554 34.0165-1.27554 34.72098-1.27554 35.29205-.70447 35.29205 0ZM34.0165 0" fill="#ff0000"/>
<path transform="matrix(1.00002,0,0,-1,111.88391,60.67)" stroke-width=".3985" stroke-linecap="butt" stroke-miterlimit="10" stroke-linejoin="miter" fill="none" stroke="#ff0000" d="M35.29205 0C35.29205 .70447 34.72098 1.27554 34.0165 1.27554 33.31203 1.27554 32.74095 .70447 32.74095 0 32.74095-.70447 33.31203-1.27554 34.0165-1.27554 34.72098-1.27554 35.29205-.70447 35.29205 0ZM34.0165 0"/>
<path transform="matrix(1.00002,0,0,-1,111.88391,60.67)" d="M36.20831-4.98138H111.986438V4.9813907H36.20831Z" fill="#ffffff"/>
<use data-text="(" xlink:href="#font_1_1" transform="matrix(9.962799,0,0,-9.9626,148.09264,63.160997)"/>
<use data-text="2" xlink:href="#font_1_5" transform="matrix(9.962799,0,0,-9.9626,151.9582,63.160997)"/>
<use data-text="," xlink:href="#font_2_2" transform="matrix(9.962799,0,0,-9.9626,156.9478,63.161996)"/>
<use data-text="0" xlink:href="#font_1_3" transform="matrix(9.962799,0,0,-9.9626,161.37589,63.160997)"/>
<use data-text=")" xlink:href="#font_1_2" transform="matrix(9.962799,0,0,-9.9626,166.35729,63.160997)"/>
<use data-text="a" xlink:href="#font_3_28" transform="matrix(9.962799,0,0,-9.9626,173.54914,63.161996)"/>
<use data-text="n" xlink:href="#font_3_77" transform="matrix(9.962799,0,0,-9.9626,178.53054,63.161996)"/>
<use data-text="d" xlink:href="#font_3_47" transform="matrix(9.962799,0,0,-9.9626,184.06984,63.161996)"/>
<use data-text="(" xlink:href="#font_1_1" transform="matrix(9.962799,0,0,-9.9626,192.92754,63.160997)"/>
<use data-text="&#x2212;" xlink:href="#font_4_1" transform="matrix(9.962799,0,0,-9.9626,196.8016,63.161996)"/>
<use data-text="2" xlink:href="#font_1_5" transform="matrix(9.962799,0,0,-9.9626,204.55075,63.160997)"/>
<use data-text="," xlink:href="#font_2_2" transform="matrix(9.962799,0,0,-9.9626,209.53183,63.161996)"/>
<use data-text="&#x03c0;" xlink:href="#font_2_1" transform="matrix(9.962799,0,0,-9.9626,213.94535,63.161996)"/>
<use data-text=")" xlink:href="#font_1_2" transform="matrix(9.962799,0,0,-9.9626,219.99604,63.160997)"/>
<path transform="matrix(1.00002,0,0,-1,111.88391,60.67)" d="M25.32887 24.05333C25.32887 24.7578 24.7578 25.32887 24.05333 25.32887 23.34885 25.32887 22.77777 24.7578 22.77777 24.05333 22.77777 23.34885 23.34885 22.77777 24.05333 22.77777 24.7578 22.77777 25.32887 23.34885 25.32887 24.05333ZM24.05333 24.05333" fill="#ff0000"/>
<path transform="matrix(1.00002,0,0,-1,111.88391,60.67)" stroke-width=".3985" stroke-linecap="butt" stroke-miterlimit="10" stroke-linejoin="miter" fill="none" stroke="#ff0000" d="M25.32887 24.05333C25.32887 24.7578 24.7578 25.32887 24.05333 25.32887 23.34885 25.32887 22.77777 24.7578 22.77777 24.05333 22.77777 23.34885 23.34885 22.77777 24.05333 22.77777 24.7578 22.77777 25.32887 23.34885 25.32887 24.05333ZM24.05333 24.05333"/>
<path transform="matrix(1.00002,0,0,-1,111.88391,60.67)" d="M25.24886 24.25258H108.580768V36.105104H25.24886Z" fill="#ffffff"/>
<use data-text="(" xlink:href="#font_1_1" transform="matrix(9.962799,0,0,-9.9626,137.13343,32.982)"/>
<use data-text="2" xlink:href="#font_1_5" transform="matrix(9.962799,0,0,-9.9626,140.999,32.982)"/>
<use data-text="," xlink:href="#font_2_2" transform="matrix(9.962799,0,0,-9.9626,145.98859,32.982999)"/>
<use data-text="&#x03c0;" xlink:href="#font_5_1" transform="matrix(6.97394,0,0,-6.9738,151.6127,29.059998)"/>
<path transform="matrix(1.00002,0,0,-1,-57.752496,-11.688)" stroke-width=".3985" stroke-linecap="butt" stroke-miterlimit="10" stroke-linejoin="miter" fill="none" stroke="#000000" d="M209.361-42.18H214.27"/>
<use data-text="4" xlink:href="#font_6_3" transform="matrix(6.97394,0,0,-6.9738,152.0817,36.418)"/>
<use data-text=")" xlink:href="#font_1_2" transform="matrix(9.962799,0,0,-9.9626,157.71683,32.982999)"/>
<use data-text="a" xlink:href="#font_3_28" transform="matrix(9.962799,0,0,-9.9626,164.90897,32.982)"/>
<use data-text="n" xlink:href="#font_3_77" transform="matrix(9.962799,0,0,-9.9626,169.89035,32.982)"/>
<use data-text="d" xlink:href="#font_3_47" transform="matrix(9.962799,0,0,-9.9626,175.42966,32.982)"/>
<use data-text="(" xlink:href="#font_1_1" transform="matrix(9.962799,0,0,-9.9626,184.28736,32.982999)"/>
<use data-text="&#x2212;" xlink:href="#font_4_1" transform="matrix(9.962799,0,0,-9.9626,188.16144,32.982)"/>
<use data-text="2" xlink:href="#font_1_5" transform="matrix(9.962799,0,0,-9.9626,195.91059,32.982999)"/>
<use data-text="," xlink:href="#font_2_2" transform="matrix(9.962799,0,0,-9.9626,200.89167,32.982)"/>
<use data-text="5" xlink:href="#font_6_4" transform="matrix(6.97394,0,0,-6.9738,206.51474,29.059998)"/>
<use data-text="&#x03c0;" xlink:href="#font_5_1" transform="matrix(6.97394,0,0,-6.9738,210.48682,29.059998)"/>
<path transform="matrix(1.00002,0,0,-1,-57.752496,-11.688)" stroke-width=".3985" stroke-linecap="butt" stroke-miterlimit="10" stroke-linejoin="miter" fill="none" stroke="#000000" d="M264.262-42.18H273.143"/>
<use data-text="4" xlink:href="#font_6_3" transform="matrix(6.97394,0,0,-6.9738,208.96985,36.418)"/>
<use data-text=")" xlink:href="#font_1_2" transform="matrix(9.962799,0,0,-9.9626,216.591,32.982999)"/>
<path transform="matrix(1.00002,0,0,-1,111.88391,60.67)" d="M1.27554 34.0165C1.27554 34.72098 .70447 35.29205 0 35.29205-.70447 35.29205-1.27554 34.72098-1.27554 34.0165-1.27554 33.31203-.70447 32.74095 0 32.74095 .70447 32.74095 1.27554 33.31203 1.27554 34.0165ZM0 34.0165" fill="#ff0000"/>
<path transform="matrix(1.00002,0,0,-1,111.88391,60.67)" stroke-width=".3985" stroke-linecap="butt" stroke-miterlimit="10" stroke-linejoin="miter" fill="none" stroke="#ff0000" d="M1.27554 34.0165C1.27554 34.72098 .70447 35.29205 0 35.29205-.70447 35.29205-1.27554 34.72098-1.27554 34.0165-1.27554 33.31203-.70447 32.74095 0 32.74095 .70447 32.74095 1.27554 33.31203 1.27554 34.0165ZM0 34.0165"/>
<path transform="matrix(1.00002,0,0,-1,111.88391,60.67)" d="M-18.91942 36.20831H18.91942V59.07126H-18.91942Z" fill="#ffffff"/>
<use data-text="(" xlink:href="#font_1_1" transform="matrix(9.962799,0,0,-9.9626,98.26963,9.070999)"/>
<use data-text="2" xlink:href="#font_1_5" transform="matrix(9.962799,0,0,-9.9626,102.1352,9.070999)"/>
<use data-text="," xlink:href="#font_2_2" transform="matrix(9.962799,0,0,-9.9626,107.1258,9.070999)"/>
<use data-text="&#x03c0;" xlink:href="#font_5_1" transform="matrix(6.97394,0,0,-6.9738,112.748928,5.1489984)"/>
<path transform="matrix(1.00002,0,0,-1,-101.92138,-23.644001)" stroke-width=".3985" stroke-linecap="butt" stroke-miterlimit="10" stroke-linejoin="miter" fill="none" stroke="#000000" d="M214.666-30.225H219.575"/>
<use data-text="2" xlink:href="#font_6_1" transform="matrix(6.97394,0,0,-6.9738,113.21792,12.507)"/>
<use data-text=")" xlink:href="#font_1_2" transform="matrix(9.962799,0,0,-9.9626,118.85404,9.070999)"/>
<use data-text="," xlink:href="#font_3_45" transform="matrix(9.962799,0,0,-9.9626,122.72811,9.070999)"/>
<use data-text="(" xlink:href="#font_1_1" transform="matrix(9.962799,0,0,-9.9626,94.62455,21.027)"/>
<use data-text="&#x2212;" xlink:href="#font_4_1" transform="matrix(9.962799,0,0,-9.9626,98.49862,21.026001)"/>
<use data-text="2" xlink:href="#font_1_5" transform="matrix(9.962799,0,0,-9.9626,106.247768,21.027)"/>
<use data-text="," xlink:href="#font_2_2" transform="matrix(9.962799,0,0,-9.9626,111.228878,21.026001)"/>
<use data-text="3" xlink:href="#font_6_2" transform="matrix(6.97394,0,0,-6.9738,116.852977,17.104)"/>
<use data-text="&#x03c0;" xlink:href="#font_5_1" transform="matrix(6.97394,0,0,-6.9738,120.82404,17.104)"/>
<path transform="matrix(1.00002,0,0,-1,-101.92138,-23.644001)" stroke-width=".3985" stroke-linecap="butt" stroke-miterlimit="10" stroke-linejoin="miter" fill="none" stroke="#000000" d="M218.77-42.18H227.65"/>
<use data-text="2" xlink:href="#font_6_1" transform="matrix(6.97394,0,0,-6.9738,119.307048,24.461998)"/>
<use data-text=")" xlink:href="#font_1_2" transform="matrix(9.962799,0,0,-9.9626,126.92919,21.026997)"/>
<path transform="matrix(1.00002,0,0,-1,111.88391,60.67)" d="M-22.77777 24.05333C-22.77777 24.7578-23.34885 25.32887-24.05333 25.32887-24.7578 25.32887-25.32887 24.7578-25.32887 24.05333-25.32887 23.34885-24.7578 22.77777-24.05333 22.77777-23.34885 22.77777-22.77777 23.34885-22.77777 24.05333ZM-24.05333 24.05333" fill="#ff0000"/>
<path transform="matrix(1.00002,0,0,-1,111.88391,60.67)" stroke-width=".3985" stroke-linecap="butt" stroke-miterlimit="10" stroke-linejoin="miter" fill="none" stroke="#ff0000" d="M-22.77777 24.05333C-22.77777 24.7578-23.34885 25.32887-24.05333 25.32887-24.7578 25.32887-25.32887 24.7578-25.32887 24.05333-25.32887 23.34885-24.7578 22.77777-24.05333 22.77777-23.34885 22.77777-22.77777 23.34885-22.77777 24.05333ZM-24.05333 24.05333"/>
<path transform="matrix(1.00002,0,0,-1,111.88391,60.67)" d="M-111.55577 25.24886H-24.252579V37.10138H-111.55577Z" fill="#ffffff"/>
<use data-text="(" xlink:href="#font_1_1" transform="matrix(9.962799,0,0,-9.9626,.32566834,31.985999)"/>
<use data-text="2" xlink:href="#font_1_5" transform="matrix(9.962799,0,0,-9.9626,4.1912386,31.985999)"/>
<use data-text="," xlink:href="#font_2_2" transform="matrix(9.962799,0,0,-9.9626,9.180832,31.986998)"/>
<use data-text="3" xlink:href="#font_6_2" transform="matrix(6.97394,0,0,-6.9738,14.804947,28.063998)"/>
<use data-text="&#x03c0;" xlink:href="#font_5_1" transform="matrix(6.97394,0,0,-6.9738,18.776017,28.063998)"/>
<path transform="matrix(1.00002,0,0,-1,-194.56024,-12.684)" stroke-width=".3985" stroke-linecap="butt" stroke-miterlimit="10" stroke-linejoin="miter" fill="none" stroke="#000000" d="M209.361-42.18H218.241"/>
<use data-text="4" xlink:href="#font_6_3" transform="matrix(6.97394,0,0,-6.9738,17.259003,35.421998)"/>
<use data-text=")" xlink:href="#font_1_2" transform="matrix(9.962799,0,0,-9.9626,24.880158,31.986998)"/>
<use data-text="a" xlink:href="#font_3_28" transform="matrix(9.962799,0,0,-9.9626,32.072298,31.985999)"/>
<use data-text="n" xlink:href="#font_3_77" transform="matrix(9.962799,0,0,-9.9626,37.053697,31.985999)"/>
<use data-text="d" xlink:href="#font_3_47" transform="matrix(9.962799,0,0,-9.9626,42.593004,31.985999)"/>
<use data-text="(" xlink:href="#font_1_1" transform="matrix(9.962799,0,0,-9.9626,51.4507,31.986998)"/>
<use data-text="&#x2212;" xlink:href="#font_4_1" transform="matrix(9.962799,0,0,-9.9626,55.324769,31.985999)"/>
<use data-text="2" xlink:href="#font_1_5" transform="matrix(9.962799,0,0,-9.9626,63.073915,31.986998)"/>
<use data-text="," xlink:href="#font_2_2" transform="matrix(9.962799,0,0,-9.9626,68.05499,31.985999)"/>
<use data-text="7" xlink:href="#font_6_5" transform="matrix(6.97394,0,0,-6.9738,73.67911,28.063998)"/>
<use data-text="&#x03c0;" xlink:href="#font_5_1" transform="matrix(6.97394,0,0,-6.9738,77.65021,28.063998)"/>
<path transform="matrix(1.00002,0,0,-1,-194.56024,-12.684)" stroke-width=".3985" stroke-linecap="butt" stroke-miterlimit="10" stroke-linejoin="miter" fill="none" stroke="#000000" d="M268.234-42.18H277.114"/>
<use data-text="4" xlink:href="#font_6_3" transform="matrix(6.97394,0,0,-6.9738,76.13318,35.421998)"/>
<use data-text=")" xlink:href="#font_1_2" transform="matrix(9.962799,0,0,-9.9626,83.75433,31.986998)"/>
<path transform="matrix(1.00002,0,0,-1,111.88391,60.67)" d="M-32.74095 0C-32.74095 .70447-33.31203 1.27554-34.0165 1.27554-34.72098 1.27554-35.29205 .70447-35.29205 0-35.29205-.70447-34.72098-1.27554-34.0165-1.27554-33.31203-1.27554-32.74095-.70447-32.74095 0ZM-34.0165 0" fill="#ff0000"/>
<path transform="matrix(1.00002,0,0,-1,111.88391,60.67)" stroke-width=".3985" stroke-linecap="butt" stroke-miterlimit="10" stroke-linejoin="miter" fill="none" stroke="#ff0000" d="M-32.74095 0C-32.74095 .70447-33.31203 1.27554-34.0165 1.27554-34.72098 1.27554-35.29205 .70447-35.29205 0-35.29205-.70447-34.72098-1.27554-34.0165-1.27554-33.31203-1.27554-32.74095-.70447-32.74095 0ZM-34.0165 0"/>
<path transform="matrix(1.00002,0,0,-1,111.88391,60.67)" d="M-111.98643-4.98138H-36.208307V4.9813907H-111.98643Z" fill="#ffffff"/>
<use data-text="(" xlink:href="#font_1_1" transform="matrix(9.962799,0,0,-9.9626,-.10432434,63.160997)"/>
<use data-text="2" xlink:href="#font_1_5" transform="matrix(9.962799,0,0,-9.9626,3.7612458,63.160997)"/>
<use data-text="," xlink:href="#font_2_2" transform="matrix(9.962799,0,0,-9.9626,8.750839,63.161996)"/>
<use data-text="&#x03c0;" xlink:href="#font_2_1" transform="matrix(9.962799,0,0,-9.9626,13.164368,63.161996)"/>
<use data-text=")" xlink:href="#font_1_2" transform="matrix(9.962799,0,0,-9.9626,19.21605,63.160997)"/>
<use data-text="a" xlink:href="#font_3_28" transform="matrix(9.962799,0,0,-9.9626,26.408204,63.161996)"/>
<use data-text="n" xlink:href="#font_3_77" transform="matrix(9.962799,0,0,-9.9626,31.389588,63.161996)"/>
<use data-text="d" xlink:href="#font_3_47" transform="matrix(9.962799,0,0,-9.9626,36.928895,63.161996)"/>
<use data-text="(" xlink:href="#font_1_1" transform="matrix(9.962799,0,0,-9.9626,45.785585,63.160997)"/>
<use data-text="&#x2212;" xlink:href="#font_4_1" transform="matrix(9.962799,0,0,-9.9626,49.659654,63.161996)"/>
<use data-text="2" xlink:href="#font_1_5" transform="matrix(9.962799,0,0,-9.9626,57.4088,63.160997)"/>
<use data-text="," xlink:href="#font_2_2" transform="matrix(9.962799,0,0,-9.9626,62.389894,63.161996)"/>
<use data-text="0" xlink:href="#font_1_3" transform="matrix(9.962799,0,0,-9.9626,66.81799,63.160997)"/>
<use data-text=")" xlink:href="#font_1_2" transform="matrix(9.962799,0,0,-9.9626,71.79938,63.160997)"/>
<path transform="matrix(1.00002,0,0,-1,111.88391,60.67)" d="M-22.77777-24.05333C-22.77777-23.34885-23.34885-22.77777-24.05333-22.77777-24.7578-22.77777-25.32887-23.34885-25.32887-24.05333-25.32887-24.7578-24.7578-25.32887-24.05333-25.32887-23.34885-25.32887-22.77777-24.7578-22.77777-24.05333ZM-24.05333-24.05333" fill="#ff0000"/>
<path transform="matrix(1.00002,0,0,-1,111.88391,60.67)" stroke-width=".3985" stroke-linecap="butt" stroke-miterlimit="10" stroke-linejoin="miter" fill="none" stroke="#ff0000" d="M-22.77777-24.05333C-22.77777-23.34885-23.34885-22.77777-24.05333-22.77777-24.7578-22.77777-25.32887-23.34885-25.32887-24.05333-25.32887-24.7578-24.7578-25.32887-24.05333-25.32887-23.34885-25.32887-22.77777-24.7578-22.77777-24.05333ZM-24.05333-24.05333"/>
<path transform="matrix(1.00002,0,0,-1,111.88391,60.67)" d="M-107.58447-37.10138H-24.252572V-25.24886H-107.58447Z" fill="#ffffff"/>
<use data-text="(" xlink:href="#font_1_1" transform="matrix(9.962799,0,0,-9.9626,4.29776,94.336)"/>
<use data-text="2" xlink:href="#font_1_5" transform="matrix(9.962799,0,0,-9.9626,8.16333,94.336)"/>
<use data-text="," xlink:href="#font_2_2" transform="matrix(9.962799,0,0,-9.9626,13.152924,94.337)"/>
<use data-text="5" xlink:href="#font_6_4" transform="matrix(6.97394,0,0,-6.9738,18.777039,90.414)"/>
<use data-text="&#x03c0;" xlink:href="#font_5_1" transform="matrix(6.97394,0,0,-6.9738,22.748108,90.414)"/>
<path transform="matrix(1.00002,0,0,-1,-190.58815,49.666)" stroke-width=".3985" stroke-linecap="butt" stroke-miterlimit="10" stroke-linejoin="miter" fill="none" stroke="#000000" d="M209.361-42.18H218.241"/>
<use data-text="4" xlink:href="#font_6_3" transform="matrix(6.97394,0,0,-6.9738,21.231095,97.772)"/>
<use data-text=")" xlink:href="#font_1_2" transform="matrix(9.962799,0,0,-9.9626,28.85225,94.337)"/>
<use data-text="a" xlink:href="#font_3_28" transform="matrix(9.962799,0,0,-9.9626,36.044389,94.336)"/>
<use data-text="n" xlink:href="#font_3_77" transform="matrix(9.962799,0,0,-9.9626,41.025789,94.336)"/>
<use data-text="d" xlink:href="#font_3_47" transform="matrix(9.962799,0,0,-9.9626,46.565095,94.336)"/>
<use data-text="(" xlink:href="#font_1_1" transform="matrix(9.962799,0,0,-9.9626,55.42279,94.337)"/>
<use data-text="&#x2212;" xlink:href="#font_4_1" transform="matrix(9.962799,0,0,-9.9626,59.29686,94.336)"/>
<use data-text="2" xlink:href="#font_1_5" transform="matrix(9.962799,0,0,-9.9626,67.046009,94.337)"/>
<use data-text="," xlink:href="#font_2_2" transform="matrix(9.962799,0,0,-9.9626,72.027088,94.336)"/>
<use data-text="&#x03c0;" xlink:href="#font_5_1" transform="matrix(6.97394,0,0,-6.9738,77.6512,90.414)"/>
<path transform="matrix(1.00002,0,0,-1,-190.58815,49.666)" stroke-width=".3985" stroke-linecap="butt" stroke-miterlimit="10" stroke-linejoin="miter" fill="none" stroke="#000000" d="M268.234-42.18H273.143"/>
<use data-text="4" xlink:href="#font_6_3" transform="matrix(6.97394,0,0,-6.9738,78.11922,97.772)"/>
<use data-text=")" xlink:href="#font_1_2" transform="matrix(9.962799,0,0,-9.9626,83.755329,94.337)"/>
<path transform="matrix(1.00002,0,0,-1,111.88391,60.67)" d="M1.27554-34.0165C1.27554-33.31203 .70447-32.74095 0-32.74095-.70447-32.74095-1.27554-33.31203-1.27554-34.0165-1.27554-34.72098-.70447-35.29205 0-35.29205 .70447-35.29205 1.27554-34.72098 1.27554-34.0165ZM0-34.0165" fill="#ff0000"/>
<path transform="matrix(1.00002,0,0,-1,111.88391,60.67)" stroke-width=".3985" stroke-linecap="butt" stroke-miterlimit="10" stroke-linejoin="miter" fill="none" stroke="#ff0000" d="M1.27554-34.0165C1.27554-33.31203 .70447-32.74095 0-32.74095-.70447-32.74095-1.27554-33.31203-1.27554-34.0165-1.27554-34.72098-.70447-35.29205 0-35.29205 .70447-35.29205 1.27554-34.72098 1.27554-34.0165ZM0-34.0165"/>
<path transform="matrix(1.00002,0,0,-1,111.88391,60.67)" d="M-16.10356-60.01616H16.10356V-36.20831H-16.10356Z" fill="#ffffff"/>
<use data-text="(" xlink:href="#font_1_1" transform="matrix(9.962799,0,0,-9.9626,96.283588,105.296009)"/>
<use data-text="2" xlink:href="#font_1_5" transform="matrix(9.962799,0,0,-9.9626,100.14917,105.296009)"/>
<use data-text="," xlink:href="#font_2_2" transform="matrix(9.962799,0,0,-9.9626,105.13876,105.296009)"/>
<use data-text="3" xlink:href="#font_6_2" transform="matrix(6.97394,0,0,-6.9738,110.76286,101.374)"/>
<use data-text="&#x03c0;" xlink:href="#font_5_1" transform="matrix(6.97394,0,0,-6.9738,114.73395,101.374)"/>
<path transform="matrix(1.00002,0,0,-1,-99.10632,72.581)" stroke-width=".3985" stroke-linecap="butt" stroke-miterlimit="10" stroke-linejoin="miter" fill="none" stroke="#000000" d="M209.865-30.225H218.745"/>
<use data-text="2" xlink:href="#font_6_1" transform="matrix(6.97394,0,0,-6.9738,113.216938,108.732)"/>
<use data-text=")" xlink:href="#font_1_2" transform="matrix(9.962799,0,0,-9.9626,120.83809,105.296009)"/>
<use data-text="," xlink:href="#font_3_45" transform="matrix(9.962799,0,0,-9.9626,124.713169,105.296009)"/>
<use data-text="(" xlink:href="#font_1_1" transform="matrix(9.962799,0,0,-9.9626,95.77959,117.252)"/>
<use data-text="&#x2212;" xlink:href="#font_4_1" transform="matrix(9.962799,0,0,-9.9626,99.653659,117.25101)"/>
<use data-text="2" xlink:href="#font_1_5" transform="matrix(9.962799,0,0,-9.9626,107.4028,117.252)"/>
<use data-text="," xlink:href="#font_2_2" transform="matrix(9.962799,0,0,-9.9626,112.38391,117.25101)"/>
<use data-text="&#x03c0;" xlink:href="#font_5_1" transform="matrix(6.97394,0,0,-6.9738,118.00702,113.329)"/>
<path transform="matrix(1.00002,0,0,-1,-99.10632,72.581)" stroke-width=".3985" stroke-linecap="butt" stroke-miterlimit="10" stroke-linejoin="miter" fill="none" stroke="#000000" d="M217.109-42.18H222.018"/>
<use data-text="2" xlink:href="#font_6_1" transform="matrix(6.97394,0,0,-6.9738,118.47604,120.687)"/>
<use data-text=")" xlink:href="#font_1_2" transform="matrix(9.962799,0,0,-9.9626,124.11215,117.252)"/>
<path transform="matrix(1.00002,0,0,-1,111.88391,60.67)" d="M25.32887-24.05333C25.32887-23.34885 24.7578-22.77777 24.05333-22.77777 23.34885-22.77777 22.77777-23.34885 22.77777-24.05333 22.77777-24.7578 23.34885-25.32887 24.05333-25.32887 24.7578-25.32887 25.32887-24.7578 25.32887-24.05333ZM24.05333-24.05333" fill="#ff0000"/>
<path transform="matrix(1.00002,0,0,-1,111.88391,60.67)" stroke-width=".3985" stroke-linecap="butt" stroke-miterlimit="10" stroke-linejoin="miter" fill="none" stroke="#ff0000" d="M25.32887-24.05333C25.32887-23.34885 24.7578-22.77777 24.05333-22.77777 23.34885-22.77777 22.77777-23.34885 22.77777-24.05333 22.77777-24.7578 23.34885-25.32887 24.05333-25.32887 24.7578-25.32887 25.32887-24.7578 25.32887-24.05333ZM24.05333-24.05333"/>
<path transform="matrix(1.00002,0,0,-1,111.88391,60.67)" d="M25.24886-36.1051H112.55205V-24.252579H25.24886Z" fill="#ffffff"/>
<use data-text="(" xlink:href="#font_1_1" transform="matrix(9.962799,0,0,-9.9626,137.13343,93.34)"/>
<use data-text="2" xlink:href="#font_1_5" transform="matrix(9.962799,0,0,-9.9626,140.999,93.34)"/>
<use data-text="," xlink:href="#font_2_2" transform="matrix(9.962799,0,0,-9.9626,145.98859,93.340999)"/>
<use data-text="7" xlink:href="#font_6_5" transform="matrix(6.97394,0,0,-6.9738,151.6127,89.418)"/>
<use data-text="&#x03c0;" xlink:href="#font_5_1" transform="matrix(6.97394,0,0,-6.9738,155.58377,89.418)"/>
<path transform="matrix(1.00002,0,0,-1,-57.752496,48.67)" stroke-width=".3985" stroke-linecap="butt" stroke-miterlimit="10" stroke-linejoin="miter" fill="none" stroke="#000000" d="M209.361-42.18H218.241"/>
<use data-text="4" xlink:href="#font_6_3" transform="matrix(6.97394,0,0,-6.9738,154.06674,96.776)"/>
<use data-text=")" xlink:href="#font_1_2" transform="matrix(9.962799,0,0,-9.9626,161.6879,93.340999)"/>
<use data-text="a" xlink:href="#font_3_28" transform="matrix(9.962799,0,0,-9.9626,168.88004,93.34)"/>
<use data-text="n" xlink:href="#font_3_77" transform="matrix(9.962799,0,0,-9.9626,173.86145,93.34)"/>
<use data-text="d" xlink:href="#font_3_47" transform="matrix(9.962799,0,0,-9.9626,179.40076,93.34)"/>
<use data-text="(" xlink:href="#font_1_1" transform="matrix(9.962799,0,0,-9.9626,188.25846,93.340999)"/>
<use data-text="&#x2212;" xlink:href="#font_4_1" transform="matrix(9.962799,0,0,-9.9626,192.1325,93.34)"/>
<use data-text="2" xlink:href="#font_1_5" transform="matrix(9.962799,0,0,-9.9626,199.88166,93.340999)"/>
<use data-text="," xlink:href="#font_2_2" transform="matrix(9.962799,0,0,-9.9626,204.86273,93.34)"/>
<use data-text="3" xlink:href="#font_6_2" transform="matrix(6.97394,0,0,-6.9738,210.48685,89.418)"/>
<use data-text="&#x03c0;" xlink:href="#font_5_1" transform="matrix(6.97394,0,0,-6.9738,214.45795,89.418)"/>
<path transform="matrix(1.00002,0,0,-1,-57.752496,48.67)" stroke-width=".3985" stroke-linecap="butt" stroke-miterlimit="10" stroke-linejoin="miter" fill="none" stroke="#000000" d="M268.234-42.18H277.114"/>
<use data-text="4" xlink:href="#font_6_3" transform="matrix(6.97394,0,0,-6.9738,212.94092,96.776)"/>
<use data-text=")" xlink:href="#font_1_2" transform="matrix(9.962799,0,0,-9.9626,220.56208,93.340999)"/>
</svg>
