<svg xmlns="http://www.w3.org/2000/svg" xmlns:xlink="http://www.w3.org/1999/xlink" version="1.1" width="62" height="60" viewBox="0 0 62 60">
<defs>
<path id="font_1_3" d="M.1269989 .07699585 .23298645 .18003845C.3889923 .31811524 .44898988 .3721466 .44898988 .47216798 .44898988 .5860901 .35899354 .6660156 .23699951 .6660156 .12399292 .6660156 .049987794 .57411196 .049987794 .48516847 .049987794 .4291687 .099990848 .4291687 .102996829 .4291687 .11999512 .4291687 .15499878 .44117738 .15499878 .48217774 .15499878 .5081787 .13699341 .5341797 .101989749 .5341797 .09399414 .5341797 .09199524 .5341797 .08898926 .5331726 .11199951 .59806826 .1659851 .63500979 .22399903 .63500979 .31498719 .63500979 .35798646 .5541382 .35798646 .47216798 .35798646 .39215089 .30799867 .31311036 .25299073 .25108338L.06098938 .036987306C.049987794 .025985718 .049987794 .023986817 .049987794 0H.42099L.44898988 .17404175H.42399598C.4189911 .14402771 .4119873 .1000061 .4019928 .084991458 .394989 .07699585 .32899476 .07699585 .30699159 .07699585H.1269989Z"/>
<path id="font_1_4" d="M.2939911 .16503906V.07800293C.2939911 .041992189 .2919922 .0309906 .21798706 .0309906H.19699097V0C.23799134 .0029907227 .2899933 .0029907227 .33198548 .0029907227 .37399293 .0029907227 .4269867 .0029907227 .46798707 0V.0309906H.44699098C.37298585 .0309906 .37098695 .041992189 .37098695 .07800293V.16503906H.47099305V.19602967H.37098695V.65075686C.37098695 .67074587 .37098695 .6767578 .35499574 .6767578 .34599305 .6767578 .34298707 .6767578 .33499146 .66474917L.027999878 .19602967V.16503906H.2939911M.2999878 .19602967H.055999757L.2999878 .5688019V.19602967Z"/>
<path id="font_1_1" d="M.33099366-.2400055C.33099366-.23701477 .33099366-.23500061 .31399537-.21800232 .18899536-.0920105 .15699768 .09700012 .15699768 .25 .15699768 .42399598 .19499207 .59799197 .31799317 .72299197 .33099366 .73498538 .33099366 .7369995 .33099366 .73999026 .33099366 .746994 .32699586 .75 .32099916 .75 .31098939 .75 .22099304 .6819916 .1619873 .5549927 .11099243 .44499208 .09899902 .33399964 .09899902 .25 .09899902 .17199707 .10998535 .050994874 .16499329-.06201172 .22499085-.18501282 .31098939-.25 .32099916-.25 .32699586-.25 .33099366-.24700928 .33099366-.2400055Z"/>
<path id="font_2_1" d="M.20298767 .0009918213C.20298767 .066986087 .17799378 .10598755 .13899231 .10598755 .10598755 .10598755 .085998538 .08099365 .085998538 .052993776 .085998538 .025985718 .10598755 0 .13899231 0 .15098572 0 .1639862 .0039978029 .17399597 .0129852299 .1769867 .01499939 .17799378 .015991211 .1789856 .015991211 .17999268 .015991211 .18099976 .01499939 .18099976 .0009918213 .18099976-.07316589 .1459961-.13328552 .11299133-.16635132 .101989749-.17736817 .101989749-.17936707 .101989749-.18237305 .101989749-.18936157 .10699463-.19335938 .11199951-.19335938 .12298584-.19335938 .20298767-.116256717 .20298767 .0009918213Z"/>
<path id="font_3_1" d="M.15499878 .5588074C.20599365 .5458069 .23599243 .5458069 .2519989 .5458069 .38398744 .5458069 .46199037 .6358032 .46199037 .6508026 .46199037 .6618042 .45498658 .6648102 .44999696 .6648102 .44799806 .6648102 .44599916 .6648102 .44198609 .6618042 .41799928 .6528015 .36499024 .6328125 .29100038 .6328125 .2630005 .6328125 .20999146 .6348114 .14498902 .6598053 .1349945 .6648102 .1329956 .6648102 .13198853 .6648102 .11898804 .6648102 .11898804 .6538086 .11898804 .6378021V.34251405C.11898804 .32548524 .11898804 .3134613 .1349945 .3134613 .14399719 .3134613 .14498902 .3154602 .15499878 .32748414 .19799805 .38259889 .25898744 .390625 .2939911 .390625 .35398866 .390625 .3809967 .34251405 .38598634 .33450318 .4039917 .30143739 .4099884 .26335145 .4099884 .20524597 .4099884 .17524719 .4099884 .116256717 .37998963 .07234192 .35499574 .03640747 .31199647 .012466431 .2630005 .012466431 .19799805 .012466431 .1309967 .04838562 .10598755 .11425781 .14399719 .11125183 .16299439 .13624573 .16299439 .16325379 .16299439 .20625305 .12599182 .21424866 .11299133 .21424866 .11099243 .21424866 .06298828 .21424866 .06298828 .1602478 .06298828 .07034302 .14498902-.01953125 .2649994-.01953125 .3929901-.01953125 .5049896 .07533264 .5049896 .20124817 .5049896 .31445313 .4189911 .41862489 .29499818 .41862489 .25099183 .41862489 .19898987 .4076233 .15499878 .36956788V.5588074Z"/>
<path id="font_4_1" d="M.31098939 .36265565H.42999269C.4149933 .30274964 .3929901 .2118988 .3929901 .13302613 .3929901 .09309387 .397995 .06613159 .4039917 .044174196 .41999818-.0057678224 .43299867-.009765625 .44898988-.009765625 .47200013-.009765625 .49598695 .011230469 .49598695 .035186769 .49598695 .043182374 .49398805 .047164918 .48799134 .057159425 .46899415 .09408569 .45098878 .15100098 .45098878 .23286438 .45098878 .25183106 .45098878 .29177857 .46499635 .36265565H.58999636C.60798647 .36265565 .6159973 .36265565 .6269989 .37065126 .6409912 .380661 .6439972 .39665223 .6439972 .4016571 .6439972 .43066407 .6179962 .43066407 .6009979 .43066407H.22399903C.18299866 .43066407 .15499878 .42166139 .10998535 .37965394 .083999637 .35665895 .04499817 .30274964 .04499817 .2937622 .04499817 .28178407 .057998659 .28178407 .06199646 .28178407 .07299805 .28178407 .07398987 .28378297 .07998657 .2927704 .1309967 .36265565 .19299317 .36265565 .21499634 .36265565H.27598573C.24499512 .25283814 .19099427 .13502503 .16099549 .07511902 .15499878 .062149049 .14498902 .04118347 .14199829 .03718567 .14099121 .033187868 .13899231 .029190064 .13899231 .022201539 .13899231 .006225586 .15098572-.009765625 .17399597-.009765625 .21398926-.009765625 .22499085 .035186769 .24899292 .12504578L.31098939 .36265565Z"/>
<path id="font_3_2" d="M.1499939 .3274536C.1499939 .40945436 .15699768 .48303224 .19499207 .543869 .22898865 .5978699 .2829895 .63505557 .34700013 .63505557 .3769989 .63505557 .4169922 .62701418 .43699647 .5998688 .4119873 .5978699 .3909912 .5808716 .3909912 .5518799 .3909912 .5268707 .4079895 .5048828 .43798829 .5048828 .46798707 .5048828 .48599244 .5248718 .48599244 .5538788 .48599244 .6119385 .44400025 .6640625 .34498597 .6640625 .20098877 .6640625 .053985597 .5318756 .053985597 .3174591 .053985597 .05845642 .17599488-.01953125 .28599549-.01953125 .4079895-.01953125 .5139923 .07345581 .5139923 .20445252 .5139923 .33145143 .41299439 .42546083 .29599 .42546083 .21598816 .42546083 .17199707 .37245179 .1499939 .3274536M.28599549 .012466431C.23599243 .012466431 .19699097 .04145813 .17599488 .08546448 .16099549 .11546326 .15299988 .16545105 .15299988 .22544861 .15299988 .32244874 .21099854 .39746095 .29100038 .39746095 .33699037 .39746095 .36799623 .37945558 .3929901 .342453 .4169922 .30445863 .41799928 .26245118 .41799928 .20445252 .41799928 .14746094 .41799928 .10545349 .3909912 .066467288 .36698915 .031463624 .33499146 .012466431 .28599549 .012466431Z"/>
<path id="font_1_2" d="M.2889862 .25C.2889862 .32798768 .27799989 .44898988 .22299195 .56199648 .16299439 .68499758 .07699585 .75 .066986087 .75 .06098938 .75 .056991579 .74598696 .056991579 .73999026 .056991579 .7369995 .056991579 .73498538 .07598877 .71699526 .17399597 .6179962 .23098755 .45899964 .23098755 .25 .23098755 .07899475 .19400025-.09700012 .069992069-.2230072 .056991579-.23500061 .056991579-.23701477 .056991579-.2400055 .056991579-.2460022 .06098938-.25 .066986087-.25 .07699585-.25 .16699219-.18200684 .22599793-.055007936 .2769928 .054992677 .2889862 .16600037 .2889862 .25Z"/>
</defs>
<path transform="matrix(1.00005,0,0,-1.00006,31.755784,30.146849)" stroke-width=".3985" stroke-linecap="butt" stroke-miterlimit="10" stroke-linejoin="miter" fill="none" stroke="#00aeef" d="M0 0H28.34636"/>
<path transform="matrix(1.00005,0,0,-1.00006,31.755784,30.146849)" stroke-width=".3985" stroke-linecap="butt" stroke-miterlimit="10" stroke-linejoin="miter" fill="none" stroke="#00aeef" d="M0 0 27.38052 7.3366"/>
<path transform="matrix(1.00005,0,0,-1.00006,31.755784,30.146849)" stroke-width=".3985" stroke-linecap="butt" stroke-miterlimit="10" stroke-linejoin="miter" fill="none" stroke="#00aeef" d="M0 0 24.54874 14.17317"/>
<path transform="matrix(1.00005,0,0,-1.00006,31.755784,30.146849)" stroke-width=".3985" stroke-linecap="butt" stroke-miterlimit="10" stroke-linejoin="miter" fill="none" stroke="#00aeef" d="M0 0 20.04393 20.04393"/>
<path transform="matrix(1.00005,0,0,-1.00006,31.755784,30.146849)" stroke-width=".3985" stroke-linecap="butt" stroke-miterlimit="10" stroke-linejoin="miter" fill="none" stroke="#00aeef" d="M0 0 14.17317 24.54874"/>
<path transform="matrix(1.00005,0,0,-1.00006,31.755784,30.146849)" stroke-width=".3985" stroke-linecap="butt" stroke-miterlimit="10" stroke-linejoin="miter" fill="none" stroke="#00aeef" d="M0 0 7.3366 27.38052"/>
<path transform="matrix(1.00005,0,0,-1.00006,31.755784,30.146849)" stroke-width=".3985" stroke-linecap="butt" stroke-miterlimit="10" stroke-linejoin="miter" fill="none" stroke="#00aeef" d="M0 0V28.34636"/>
<path transform="matrix(1.00005,0,0,-1.00006,31.755784,30.146849)" stroke-width=".3985" stroke-linecap="butt" stroke-miterlimit="10" stroke-linejoin="miter" fill="none" stroke="#00aeef" d="M0 0-7.3366 27.38052"/>
<path transform="matrix(1.00005,0,0,-1.00006,31.755784,30.146849)" stroke-width=".3985" stroke-linecap="butt" stroke-miterlimit="10" stroke-linejoin="miter" fill="none" stroke="#00aeef" d="M0 0-14.17317 24.54874"/>
<path transform="matrix(1.00005,0,0,-1.00006,31.755784,30.146849)" stroke-width=".3985" stroke-linecap="butt" stroke-miterlimit="10" stroke-linejoin="miter" fill="none" stroke="#00aeef" d="M0 0-20.04393 20.04393"/>
<path transform="matrix(1.00005,0,0,-1.00006,31.755784,30.146849)" stroke-width=".3985" stroke-linecap="butt" stroke-miterlimit="10" stroke-linejoin="miter" fill="none" stroke="#00aeef" d="M0 0-24.54874 14.17317"/>
<path transform="matrix(1.00005,0,0,-1.00006,31.755784,30.146849)" stroke-width=".3985" stroke-linecap="butt" stroke-miterlimit="10" stroke-linejoin="miter" fill="none" stroke="#00aeef" d="M0 0-27.38052 7.3366"/>
<path transform="matrix(1.00005,0,0,-1.00006,31.755784,30.146849)" stroke-width=".3985" stroke-linecap="butt" stroke-miterlimit="10" stroke-linejoin="miter" fill="none" stroke="#00aeef" d="M0 0H-28.34636"/>
<path transform="matrix(1.00005,0,0,-1.00006,31.755784,30.146849)" stroke-width=".3985" stroke-linecap="butt" stroke-miterlimit="10" stroke-linejoin="miter" fill="none" stroke="#00aeef" d="M0 0-27.38052-7.3366"/>
<path transform="matrix(1.00005,0,0,-1.00006,31.755784,30.146849)" stroke-width=".3985" stroke-linecap="butt" stroke-miterlimit="10" stroke-linejoin="miter" fill="none" stroke="#00aeef" d="M0 0-24.54874-14.17317"/>
<path transform="matrix(1.00005,0,0,-1.00006,31.755784,30.146849)" stroke-width=".3985" stroke-linecap="butt" stroke-miterlimit="10" stroke-linejoin="miter" fill="none" stroke="#00aeef" d="M0 0-20.04393-20.04393"/>
<path transform="matrix(1.00005,0,0,-1.00006,31.755784,30.146849)" stroke-width=".3985" stroke-linecap="butt" stroke-miterlimit="10" stroke-linejoin="miter" fill="none" stroke="#00aeef" d="M0 0-14.17317-24.54874"/>
<path transform="matrix(1.00005,0,0,-1.00006,31.755784,30.146849)" stroke-width=".3985" stroke-linecap="butt" stroke-miterlimit="10" stroke-linejoin="miter" fill="none" stroke="#00aeef" d="M0 0-7.3366-27.38052"/>
<path transform="matrix(1.00005,0,0,-1.00006,31.755784,30.146849)" stroke-width=".3985" stroke-linecap="butt" stroke-miterlimit="10" stroke-linejoin="miter" fill="none" stroke="#00aeef" d="M0 0V-28.34636"/>
<path transform="matrix(1.00005,0,0,-1.00006,31.755784,30.146849)" stroke-width=".3985" stroke-linecap="butt" stroke-miterlimit="10" stroke-linejoin="miter" fill="none" stroke="#00aeef" d="M0 0 7.3366-27.38052"/>
<path transform="matrix(1.00005,0,0,-1.00006,31.755784,30.146849)" stroke-width=".3985" stroke-linecap="butt" stroke-miterlimit="10" stroke-linejoin="miter" fill="none" stroke="#00aeef" d="M0 0 14.17317-24.54874"/>
<path transform="matrix(1.00005,0,0,-1.00006,31.755784,30.146849)" stroke-width=".3985" stroke-linecap="butt" stroke-miterlimit="10" stroke-linejoin="miter" fill="none" stroke="#00aeef" d="M0 0 20.04393-20.04393"/>
<path transform="matrix(1.00005,0,0,-1.00006,31.755784,30.146849)" stroke-width=".3985" stroke-linecap="butt" stroke-miterlimit="10" stroke-linejoin="miter" fill="none" stroke="#00aeef" d="M0 0 24.54874-14.17317"/>
<path transform="matrix(1.00005,0,0,-1.00006,31.755784,30.146849)" stroke-width=".3985" stroke-linecap="butt" stroke-miterlimit="10" stroke-linejoin="miter" fill="none" stroke="#00aeef" d="M0 0 27.38052-7.3366"/>
<path transform="matrix(1.00005,0,0,-1.00006,31.755784,30.146849)" stroke-width=".3985" stroke-linecap="butt" stroke-miterlimit="10" stroke-linejoin="miter" fill="none" stroke="#00aeef" d="M5.66927 0C5.66927 3.13109 3.13109 5.66927 0 5.66927-3.13109 5.66927-5.66927 3.13109-5.66927 0-5.66927-3.13109-3.13109-5.66927 0-5.66927 3.13109-5.66927 5.66927-3.13109 5.66927 0ZM0 0"/>
<path transform="matrix(1.00005,0,0,-1.00006,31.755784,30.146849)" stroke-width=".3985" stroke-linecap="butt" stroke-miterlimit="10" stroke-linejoin="miter" fill="none" stroke="#00aeef" d="M11.33855 0C11.33855 6.26218 6.26218 11.33855 0 11.33855-6.26218 11.33855-11.33855 6.26218-11.33855 0-11.33855-6.26218-6.26218-11.33855 0-11.33855 6.26218-11.33855 11.33855-6.26218 11.33855 0ZM0 0"/>
<path transform="matrix(1.00005,0,0,-1.00006,31.755784,30.146849)" stroke-width=".3985" stroke-linecap="butt" stroke-miterlimit="10" stroke-linejoin="miter" fill="none" stroke="#00aeef" d="M17.00781 0C17.00781 9.39326 9.39326 17.00781 0 17.00781-9.39326 17.00781-17.00781 9.39326-17.00781 0-17.00781-9.39326-9.39326-17.00781 0-17.00781 9.39326-17.00781 17.00781-9.39326 17.00781 0ZM0 0"/>
<path transform="matrix(1.00005,0,0,-1.00006,31.755784,30.146849)" stroke-width=".3985" stroke-linecap="butt" stroke-miterlimit="10" stroke-linejoin="miter" fill="none" stroke="#00aeef" d="M22.6771 0C22.6771 12.52435 12.52435 22.6771 0 22.6771-12.52435 22.6771-22.6771 12.52435-22.6771 0-22.6771-12.52435-12.52435-22.6771 0-22.6771 12.52435-22.6771 22.6771-12.52435 22.6771 0ZM0 0"/>
<path transform="matrix(1.00005,0,0,-1.00006,31.755784,30.146849)" stroke-width=".3985" stroke-linecap="butt" stroke-miterlimit="10" stroke-linejoin="miter" fill="none" stroke="#00aeef" d="M28.34636 0C28.34636 15.65546 15.65546 28.34636 0 28.34636-15.65546 28.34636-28.34636 15.65546-28.34636 0-28.34636-15.65546-15.65546-28.34636 0-28.34636 15.65546-28.34636 28.34636-15.65546 28.34636 0ZM0 0"/>
<path transform="matrix(1.00005,0,0,-1.00006,31.755784,30.146849)" stroke-width=".3985" stroke-linecap="butt" stroke-miterlimit="10" stroke-linejoin="miter" fill="none" stroke="#00aeef" d="M11.33855 0C11.33855 6.26218 6.26218 11.33855 0 11.33855-6.26218 11.33855-11.33855 6.26218-11.33855 0-11.33855-6.26218-6.26218-11.33855 0-11.33855 6.26218-11.33855 11.33855-6.26218 11.33855 0ZM0 0"/>
<path transform="matrix(1.00005,0,0,-1.00006,31.755784,30.146849)" d="M-2.49069 8.12833H2.49069V14.54876H-2.49069Z" fill="#ffffff"/>
<use data-text="2" xlink:href="#font_1_3" transform="matrix(9.963098,0,0,-9.963197,29.264657,22.01836)"/>
<path transform="matrix(1.00005,0,0,-1.00006,31.755784,30.146849)" stroke-width=".3985" stroke-linecap="butt" stroke-miterlimit="10" stroke-linejoin="miter" fill="none" stroke="#00aeef" d="M22.6771 0C22.6771 12.52435 12.52435 22.6771 0 22.6771-12.52435 22.6771-22.6771 12.52435-22.6771 0-22.6771-12.52435-12.52435-22.6771 0-22.6771 12.52435-22.6771 22.6771-12.52435 22.6771 0ZM0 0"/>
<path transform="matrix(1.00005,0,0,-1.00006,31.755784,30.146849)" d="M-2.49069 19.46687H2.49069V25.887299H-2.49069Z" fill="#ffffff"/>
<use data-text="4" xlink:href="#font_1_4" transform="matrix(9.963098,0,0,-9.963197,29.264657,10.678682)"/>
<path transform="matrix(1.00005,0,0,-1.00006,31.755784,30.146849)" d="M-18.64273 11.33855C-18.64273 11.88876-19.08876 12.33481-19.63899 12.33481-20.18921 12.33481-20.63525 11.88876-20.63525 11.33855-20.63525 10.78831-20.18921 10.34229-19.63899 10.34229-19.08876 10.34229-18.64273 10.78831-18.64273 11.33855ZM-19.63899 11.33855" fill="#ff0000"/>
<path transform="matrix(1.00005,0,0,-1.00006,31.755784,30.146849)" stroke-width=".3985" stroke-linecap="butt" stroke-miterlimit="10" stroke-linejoin="miter" fill="none" stroke="#ff0000" d="M-18.64273 11.33855C-18.64273 11.88876-19.08876 12.33481-19.63899 12.33481-20.18921 12.33481-20.63525 11.88876-20.63525 11.33855-20.63525 10.78831-20.18921 10.34229-19.63899 10.34229-19.08876 10.34229-18.64273 10.78831-18.64273 11.33855ZM-19.63899 11.33855"/>
<path transform="matrix(1.00005,0,0,-1.00006,31.755784,30.146849)" d="M-32.8575-7.68716H-2.4353677V6.1579205H-32.8575Z" fill="#ffffff"/>
<use data-text="(" xlink:href="#font_1_1" transform="matrix(9.963098,0,0,-9.963197,-.10681152,33.402048)"/>
<use data-text="4" xlink:href="#font_1_4" transform="matrix(9.963098,0,0,-9.963197,3.7588654,33.402048)"/>
<use data-text="," xlink:href="#font_2_1" transform="matrix(9.963098,0,0,-9.963197,8.748627,33.402048)"/>
<use data-text="5" xlink:href="#font_3_1" transform="matrix(6.9741489,0,0,-6.9742186,14.372894,29.47881)"/>
<use data-text="&#x03c0;" xlink:href="#font_4_1" transform="matrix(6.9741489,0,0,-6.9742186,18.344086,29.47881)"/>
<path transform="matrix(1.00005,0,0,-1.00006,-115.86659,19.252196)" stroke-width=".3985" stroke-linecap="butt" stroke-miterlimit="10" stroke-linejoin="miter" fill="none" stroke="#000000" d="M130.233-11.658H139.113"/>
<use data-text="6" xlink:href="#font_3_2" transform="matrix(6.9741489,0,0,-6.9742186,16.827027,36.83725)"/>
<use data-text=")" xlink:href="#font_1_2" transform="matrix(9.963098,0,0,-9.963197,24.449402,33.402048)"/>
</svg>
