<svg xmlns="http://www.w3.org/2000/svg" xmlns:xlink="http://www.w3.org/1999/xlink" version="1.1" width="106" height="92" viewBox="0 0 106 92">
<defs>
<path id="font_1_1" d="M.16299439 .4569702C.116989139 .486969 .11299133 .52098086 .11299133 .5379791 .11299133 .598999 .17799378 .64100649 .24899292 .64100649 .32199098 .64100649 .38598634 .58898928 .38598634 .51698306 .38598634 .45996095 .34700013 .4119568 .2869873 .37695313L.16299439 .4569702M.30899049 .36193849C.3809967 .3989563 .42999269 .45095826 .42999269 .51698306 .42999269 .6090088 .34098817 .6660156 .25 .6660156 .1499939 .6660156 .068984989 .59199526 .068984989 .49897767 .068984989 .4809723 .070999149 .43595887 .11299133 .38894654 .12399292 .37695313 .16099549 .35194398 .18598938 .33494569 .12799073 .30592347 .041992189 .24984741 .041992189 .15072632 .041992189 .04458618 .14399719-.022460938 .24899292-.022460938 .3619995-.022460938 .45700074 .06060791 .45700074 .16773987 .45700074 .20379639 .44599916 .24885559 .4079895 .2909088 .3889923 .31193543 .37298585 .3219452 .30899049 .36193849M.20899964 .3199463 .33198548 .24183655C.3600006 .2228241 .40699769 .19277954 .40699769 .13169861 .40699769 .05760193 .33198548 .0055389406 .25 .0055389406 .1639862 .0055389406 .09199524 .067611698 .09199524 .15072632 .09199524 .20880127 .12399292 .27288819 .20899964 .3199463Z"/>
</defs>
<path transform="matrix(1.00005,0,0,-1.00003,53.32071,46.185907)" d="M1.79327 0C1.79327 .9904 .9904 1.79327 0 1.79327-.9904 1.79327-1.79327 .9904-1.79327 0-1.79327-.9904-.9904-1.79327 0-1.79327 .9904-1.79327 1.79327-.9904 1.79327 0ZM0 0"/>
<path transform="matrix(1.00005,0,0,-1.00003,53.32071,46.185907)" stroke-width=".3985" stroke-linecap="butt" stroke-miterlimit="10" stroke-linejoin="miter" fill="none" stroke="#000000" d="M1.79327 0C1.79327 .9904 .9904 1.79327 0 1.79327-.9904 1.79327-1.79327 .9904-1.79327 0-1.79327-.9904-.9904-1.79327 0-1.79327 .9904-1.79327 1.79327-.9904 1.79327 0ZM0 0"/>
<path transform="matrix(1.00005,0,0,-1.00003,53.32071,46.185907)" stroke-width=".79701" stroke-linecap="butt" stroke-miterlimit="10" stroke-linejoin="miter" fill="none" stroke="#0000ff" d="M.00009-44.18637V-37.8084H6.37807V-44.18637ZM6.37807-37.8084"/>
<path transform="matrix(1.00005,0,0,-1.00003,53.32071,46.185907)" stroke-width=".79701" stroke-linecap="butt" stroke-dasharray="2.98883,2.98883" stroke-miterlimit="10" stroke-linejoin="miter" fill="none" stroke="#929292" d="M.00009-44.18637V.00017"/>
<use data-text="8" xlink:href="#font_1_1" transform="matrix(9.963098,0,0,-9.962899,57.039896,71.48966)" fill="#0000ff"/>
<path transform="matrix(1.00005,0,0,-1.00003,53.32071,46.185907)" stroke-width=".79701" stroke-linecap="butt" stroke-miterlimit="10" stroke-linejoin="miter" fill="none" stroke="#000000" d="M51.02368 0 25.51183 44.18637H-25.51183L-51.02368 0-25.51183-44.18637H25.51183Z"/>
</svg>
