<svg xmlns="http://www.w3.org/2000/svg" xmlns:xlink="http://www.w3.org/1999/xlink" version="1.1" width="77" height="76" viewBox="0 0 77 76">
<defs>
<path id="font_1_51" d="M.46998597 .16764832C.46998597 .26472474 .3959961 .3127594 .37098695 .32876588 .3600006 .33677674 .33099366 .35479737 .31900025 .36180116 .36898805 .38581849 .44198609 .43585206 .44198609 .51690676 .44198609 .6109772 .34799195 .6660156 .2579956 .6660156 .15299988 .6660156 .070999149 .5909729 .070999149 .49890138 .070999149 .46087647 .084991458 .42485047 .10899353 .39582826 .12599182 .3768158 .13198853 .37280274 .18998719 .3357849 .101989749 .29374696 .042999269 .23269654 .042999269 .15063477 .042999269 .044555665 .147995-.022460938 .2559967-.022460938 .37199403-.022460938 .46998597 .059570314 .46998597 .16764832M.3939972 .51690676C.3939972 .44685365 .33399964 .40083314 .2939911 .37780763L.17199707 .45387269C.14199829 .47288514 .11898804 .4998932 .11898804 .53692629 .11898804 .6019745 .18899536 .64100649 .25498963 .64100649 .33198548 .64100649 .3939972 .58695986 .3939972 .51690676M.41600038 .1326294C.41600038 .05357361 .33599855 .0055389406 .25698854 .0055389406 .16999817 .0055389406 .09700012 .06758118 .09700012 .15063477 .09700012 .22268677 .14698792 .28274537 .21699524 .31877137L.34298707 .2407074C.3659973 .22569275 .41600038 .19366455 .41600038 .1326294Z"/>
<path id="font_1_66" d="M.25299073 0V.0309906C.18798828 .0309906 .18399048 .035995485 .18399048 .075042728V.4423828L.039993287 .43066407V.3996582C.10398865 .3996582 .11299133 .3936615 .11299133 .3447113V.07695007C.11299133 .0309906 .101989749 .0309906 .035995485 .0309906V0C.08099365 .0019989014 .101989749 .0029907227 .1459961 .0029907227 .1619873 .0029907227 .20399475 .0029907227 .25299073 0M.19699097 .6028137C.19699097 .63282778 .17298889 .6568146 .14299011 .6568146 .11299133 .6568146 .08898926 .63282778 .08898926 .6028137 .08898926 .57281497 .11299133 .5488281 .14299011 .5488281 .17298889 .5488281 .19699097 .57281497 .19699097 .6028137Z"/>
<path id="font_1_77" d="M.5469971 0V.0309906C.49598695 .03125 .47099305 .03125 .46998597 .0622406V.25431825C.46998597 .3373413 .46998597 .36636354 .44198609 .4013672 .4189911 .42938233 .3809967 .4423828 .33099366 .4423828 .23799134 .4423828 .19499207 .37335206 .18099976 .34535218H.17999268V.4423828L.034988405 .43066407V.3996582C.102996829 .3996582 .11199951 .39266969 .11199951 .34370423V.07695007C.11199951 .0309906 .100997928 .0309906 .034988405 .0309906V0C.08198547 .0019989014 .100997928 .0029907227 .14898682 .0029907227 .19699097 .0029907227 .20999146 .0019989014 .2630005 0V.0309906C.19699097 .0309906 .18598938 .0309906 .18598938 .07695007V.25878907C.18598938 .36532594 .26098634 .41737367 .32398988 .41737367 .3829956 .41737367 .3959961 .3683319 .3959961 .30825807V.077041629C.3959961 .0309906 .3849945 .0309906 .31900025 .0309906V0C.3659973 .0019989014 .3849945 .0029907227 .43299867 .0029907227 .48098756 .0029907227 .49398805 .0019989014 .5469971 0Z"/>
<path id="font_1_88" d="M.19599915 .053985597C.19599915 .08299255 .17199707 .10798645 .14199829 .10798645 .11199951 .10798645 .08799744 .08299255 .08799744 .053985597 .08799744 .023986817 .11199951 0 .14199829 0 .17199707 0 .19599915 .023986817 .19599915 .053985597Z"/>
</defs>
<path transform="matrix(1.00005,0,0,-1,38.58098,38.283)" d="M25.65823 25.65823H-25.65823V-25.65823H25.65823Z" fill="#ffcccc"/>
<path transform="matrix(1.00005,0,0,-1,38.58098,38.283)" stroke-width=".79701" stroke-linecap="butt" stroke-miterlimit="10" stroke-linejoin="miter" fill="none" stroke="#ff0000" d="M25.65823 25.65823H-25.65823V-25.65823H25.65823Z"/>
<path transform="matrix(1.00005,0,0,-1,38.58098,38.283)" stroke-width=".79701" stroke-linecap="butt" stroke-miterlimit="10" stroke-linejoin="miter" fill="none" stroke="#000000" d="M36.28473 0C36.28473 20.03975 20.03975 36.28473 0 36.28473-20.03975 36.28473-36.28473 20.03975-36.28473 0-36.28473-20.03975-20.03975-36.28473 0-36.28473 20.03975-36.28473 36.28473-20.03975 36.28473 0ZM0 0"/>
<path transform="matrix(1.00005,0,0,-1,38.58098,38.283)" stroke-width=".79701" stroke-linecap="butt" stroke-miterlimit="10" stroke-linejoin="miter" fill="none" stroke="#0000ff" d="M0 0 25.65823 25.65823"/>
<use data-text="8" xlink:href="#font_1_51" transform="matrix(8.966848,0,0,-8.9664,29.757538,24.526001)" fill="#0000ff"/>
<use data-text="i" xlink:href="#font_1_66" transform="matrix(8.966848,0,0,-8.9664,37.442125,24.526001)" fill="#0000ff"/>
<use data-text="n" xlink:href="#font_1_77" transform="matrix(8.966848,0,0,-8.9664,40.006639,24.526001)" fill="#0000ff"/>
<use data-text="." xlink:href="#font_1_88" transform="matrix(8.966848,0,0,-8.9664,45.12671,24.526001)" fill="#0000ff"/>
<path transform="matrix(1.00005,0,0,-1,38.58098,38.283)" d="M1.36067 0C1.36067 .75146 .75146 1.36067 0 1.36067-.75146 1.36067-1.36067 .75146-1.36067 0-1.36067-.75146-.75146-1.36067 0-1.36067 .75146-1.36067 1.36067-.75146 1.36067 0ZM0 0" fill="#0000ff"/>
<path transform="matrix(1.00005,0,0,-1,38.58098,38.283)" stroke-width=".3985" stroke-linecap="butt" stroke-miterlimit="10" stroke-linejoin="miter" fill="none" stroke="#0000ff" d="M1.36067 0C1.36067 .75146 .75146 1.36067 0 1.36067-.75146 1.36067-1.36067 .75146-1.36067 0-1.36067-.75146-.75146-1.36067 0-1.36067 .75146-1.36067 1.36067-.75146 1.36067 0ZM0 0"/>
</svg>
