<svg xmlns="http://www.w3.org/2000/svg" xmlns:xlink="http://www.w3.org/1999/xlink" version="1.1" width="103" height="88" viewBox="0 0 103 88">
<defs>
<path id="font_1_51" d="M.45700074 .16764832C.45700074 .20367432 .44599916 .24871826 .4079895 .29074098 .3889923 .31176759 .37298585 .32176209 .30899049 .36180116 .3809967 .39881898 .42999269 .4508667 .42999269 .51690676 .42999269 .6089783 .34098817 .6660156 .25 .6660156 .1499939 .6660156 .068984989 .5919647 .068984989 .49890138 .068984989 .48088075 .070999149 .43585206 .11299133 .38882447 .12399292 .3768158 .16099549 .35179139 .18598938 .33477784 .12799073 .30575563 .041992189 .24971009 .041992189 .15063477 .041992189 .044555665 .14399719-.022460938 .24899292-.022460938 .3619995-.022460938 .45700074 .060577394 .45700074 .16764832M.38598634 .51690676C.38598634 .45986939 .34700013 .41183473 .2869873 .3768158L.16299439 .4568634C.116989139 .4868927 .11299133 .5209198 .11299133 .53793337 .11299133 .5989685 .17799378 .64100649 .24899292 .64100649 .32199098 .64100649 .38598634 .588974 .38598634 .51690676M.40699769 .13162232C.40699769 .05757141 .33198548 .0055389406 .25 .0055389406 .1639862 .0055389406 .09199524 .06758118 .09199524 .15063477 .09199524 .2086792 .12399292 .2727356 .20899964 .31976319L.33198548 .24171448C.3600006 .22268677 .40699769 .19267273 .40699769 .13162232Z"/>
<path id="font_1_66" d="M.24699402 0V.0309906C.18099976 .0309906 .1769867 .035995485 .1769867 .075042728V.4423828L.036987306 .43066407V.3996582C.101989749 .3996582 .11099243 .3936615 .11099243 .3447113V.07595825C.11099243 .0309906 .099990848 .0309906 .032989503 .0309906V0L.14299011 .0029907227C.17799378 .0029907227 .21299744 .0009918213 .24699402 0M.19198609 .603775C.19198609 .6307678 .16899109 .6567688 .13899231 .6567688 .10499573 .6567688 .084991458 .6287689 .084991458 .603775 .084991458 .57676699 .10798645 .55078127 .13798523 .55078127 .17199707 .55078127 .19198609 .5787811 .19198609 .603775Z"/>
<path id="font_1_77" d="M.5349884 0V.0309906C.48298646 .0309906 .45799256 .0309906 .45700074 .061019899V.25221253C.45700074 .3383026 .45700074 .36932374 .42599488 .405365 .4119873 .42237855 .3789978 .4423828 .32099916 .4423828 .24798584 .4423828 .20098877 .39935304 .17298889 .33729554V.4423828L.03199768 .43066407V.3996582C.101989749 .3996582 .10998535 .39266969 .10998535 .34370423V.07595825C.10998535 .0309906 .09899902 .0309906 .03199768 .0309906V0L.14498902 .0029907227 .25698854 0V.0309906C.18998719 .0309906 .1789856 .0309906 .1789856 .07595825V.25978089C.1789856 .36431886 .25 .42037965 .31399537 .42037965 .3769989 .42037965 .3880005 .36631776 .3880005 .30926515V.076034549C.3880005 .0309906 .3769989 .0309906 .30999757 .0309906V0L.4229889 .0029907227 .5349884 0Z"/>
</defs>
<path transform="matrix(1.00002,0,0,-1.00003,2.29467,75.70179)" stroke-width=".79701" stroke-linecap="butt" stroke-miterlimit="10" stroke-linejoin="miter" fill="none" stroke="#0000ff" d="M79.37114 17.00824V24.09492L73.41812 22.81938V15.73268"/>
<path transform="matrix(1.00002,0,0,-1.00003,2.29467,75.70179)" stroke-width=".79701" stroke-linecap="butt" stroke-miterlimit="10" stroke-linejoin="miter" fill="none" stroke="#0000ff" d="M56.69362 0H49.60692L54.1425 3.40146H61.2292"/>
<path transform="matrix(1.00002,0,0,-1.00003,2.29467,75.70179)" stroke-width=".79701" stroke-linecap="butt" stroke-miterlimit="10" stroke-linejoin="miter" fill="none" stroke="#a9a9a9" d="M0 0 22.67752 17.00824V73.70186"/>
<path transform="matrix(1.00002,0,0,-1.00003,2.29467,75.70179)" stroke-width=".79701" stroke-linecap="butt" stroke-miterlimit="10" stroke-linejoin="miter" fill="none" stroke="#a9a9a9" d="M22.67752 17.00824H79.37114"/>
<path transform="matrix(1.00002,0,0,-1.00003,2.29467,75.70179)" stroke-width=".3985" stroke-linecap="butt" stroke-miterlimit="10" stroke-linejoin="miter" fill="none" stroke="#ff0000" d="M0 0 79.37114 73.70186"/>
<path transform="matrix(1.00002,0,0,-1.00003,2.29467,75.70179)" stroke-width=".3985" stroke-linecap="butt" stroke-miterlimit="10" stroke-linejoin="miter" fill="none" stroke="#ff0000" d="M0 0 79.37114 17.00824"/>
<path transform="matrix(1.00002,0,0,-1.00003,2.29467,75.70179)" stroke-width=".79701" stroke-linecap="butt" stroke-miterlimit="10" stroke-linejoin="miter" fill="none" stroke="#000000" d="M56.69362 0 79.37114 17.00824"/>
<use data-text="8" xlink:href="#font_1_51" transform="matrix(9.962799,0,0,-9.962899,74.047107,77.55185)" fill="#0000ff"/>
<use data-text="i" xlink:href="#font_1_66" transform="matrix(9.962799,0,0,-9.962899,82.34611,77.55185)" fill="#0000ff"/>
<use data-text="n" xlink:href="#font_1_77" transform="matrix(9.962799,0,0,-9.962899,85.11577,77.55185)" fill="#0000ff"/>
<path transform="matrix(1.00002,0,0,-1.00003,2.29467,75.70179)" stroke-width=".79701" stroke-linecap="butt" stroke-miterlimit="10" stroke-linejoin="miter" fill="none" stroke="#000000" d="M79.37114 17.00824V73.70186"/>
<use data-text="8" xlink:href="#font_1_51" transform="matrix(9.962799,0,0,-9.962899,85.38633,33.553525)" fill="#0000ff"/>
<use data-text="i" xlink:href="#font_1_66" transform="matrix(9.962799,0,0,-9.962899,93.68533,33.553525)" fill="#0000ff"/>
<use data-text="n" xlink:href="#font_1_77" transform="matrix(9.962799,0,0,-9.962899,96.454998,33.553525)" fill="#0000ff"/>
<path transform="matrix(1.00002,0,0,-1.00003,2.29467,75.70179)" stroke-width=".79701" stroke-linecap="butt" stroke-miterlimit="10" stroke-linejoin="miter" fill="none" stroke="#000000" d="M56.69362 0H0"/>
<use data-text="8" xlink:href="#font_1_51" transform="matrix(9.962799,0,0,-9.962899,22.33807,86.0561)" fill="#0000ff"/>
<use data-text="i" xlink:href="#font_1_66" transform="matrix(9.962799,0,0,-9.962899,30.637074,86.0561)" fill="#0000ff"/>
<use data-text="n" xlink:href="#font_1_77" transform="matrix(9.962799,0,0,-9.962899,33.406736,86.0561)" fill="#0000ff"/>
<path transform="matrix(1.00002,0,0,-1.00003,2.29467,75.70179)" stroke-width=".79701" stroke-linecap="butt" stroke-miterlimit="10" stroke-linejoin="miter" fill="none" stroke="#000000" d="M56.69362 0V56.69362H0V0"/>
<path transform="matrix(1.00002,0,0,-1.00003,2.29467,75.70179)" stroke-width=".79701" stroke-linecap="butt" stroke-miterlimit="10" stroke-linejoin="miter" fill="none" stroke="#000000" d="M0 56.69362 22.67752 73.70186H79.37114L56.69362 56.69362"/>
</svg>
