<svg xmlns="http://www.w3.org/2000/svg" xmlns:xlink="http://www.w3.org/1999/xlink" version="1.1" width="81" height="84" viewBox="0 0 81 84">
<defs>
<path id="font_1_2" d="M.1269989 .07699585 .23298645 .18003845C.3889923 .31811524 .44898988 .3721466 .44898988 .47216798 .44898988 .5860901 .35899354 .6660156 .23699951 .6660156 .12399292 .6660156 .049987794 .57411196 .049987794 .48516847 .049987794 .4291687 .099990848 .4291687 .102996829 .4291687 .11999512 .4291687 .15499878 .44117738 .15499878 .48217774 .15499878 .5081787 .13699341 .5341797 .101989749 .5341797 .09399414 .5341797 .09199524 .5341797 .08898926 .5331726 .11199951 .59806826 .1659851 .63500979 .22399903 .63500979 .31498719 .63500979 .35798646 .5541382 .35798646 .47216798 .35798646 .39215089 .30799867 .31311036 .25299073 .25108338L.06098938 .036987306C.049987794 .025985718 .049987794 .023986817 .049987794 0H.42099L.44898988 .17404175H.42399598C.4189911 .14402771 .4119873 .1000061 .4019928 .084991458 .394989 .07699585 .32899476 .07699585 .30699159 .07699585H.1269989Z"/>
<path id="font_1_4" d="M.47599793 .609375C.4850006 .6213684 .4850006 .62338259 .4850006 .64437869H.24198914C.11999512 .64437869 .117996219 .65737918 .11399841 .67637637H.08898926L.055999757 .4702301H.08099365C.083999637 .48625184 .09298706 .5493469 .10598755 .56137087 .11299133 .5673828 .19099427 .5673828 .20399475 .5673828H.41099549C.3999939 .5513611 .32099916 .4421997 .29899598 .40914918 .20899964 .27394105 .17599488 .1347351 .17599488 .032577516 .17599488 .022567749 .17599488-.022460938 .22200012-.022460938 .2679901-.022460938 .2679901 .022567749 .2679901 .032577516V.08366394C.2679901 .13873291 .2709961 .19381714 .2789917 .24790955 .2829895 .27093507 .29699708 .35707093 .34098817 .41915895L.47599793 .609375Z"/>
<path id="font_2_1" d="M.5069885 .24998474C.5069885 .3710022 .4099884 .4650116 .2919922 .4650116 .17199707 .4650116 .07699585 .36799623 .07699585 .25097657 .07699585 .1299591 .17399597 .035949708 .2919922 .035949708 .4119873 .035949708 .5069885 .13296509 .5069885 .24998474M.2919922 .08496094C.19799805 .08496094 .12599182 .16096497 .12599182 .24998474 .12599182 .34300233 .19999695 .41601563 .2919922 .41601563 .38598634 .41601563 .45799256 .33999635 .45799256 .25097657 .45799256 .15795899 .38398744 .08496094 .2919922 .08496094Z"/>
<path id="font_3_1" d="M.3909912 .37405396C.36299134 .37304688 .34298707 .3510437 .34298707 .32904054 .34298707 .31503297 .35198976 .30003358 .37399293 .30003358 .3959961 .30003358 .41999818 .31703187 .41999818 .35603334 .41999818 .40124513 .3769989 .4423828 .30099488 .4423828 .16899109 .4423828 .13198853 .3400421 .13198853 .29605104 .13198853 .21820069 .20599365 .20323181 .23498535 .19725037 .2869873 .18727112 .33898927 .17628479 .33898927 .12133789 .33898927 .095336917 .31599427 .011245728 .19599915 .011245728 .18199158 .011245728 .10499573 .011245728 .08198547 .064331058 .11999512 .059326173 .14498902 .08934021 .14498902 .11734009 .14498902 .14033509 .1289978 .15234375 .10798645 .15234375 .08198547 .15234375 .051986696 .1313324 .051986696 .08633423 .051986696 .029281617 .10899353-.0107421879 .19499207-.0107421879 .35699464-.0107421879 .3959961 .1103363 .3959961 .15533448 .3959961 .19125366 .3769989 .21620178 .36499024 .22817993 .33799745 .25613404 .30899049 .26112367 .2649994 .27009584 .22898865 .27807618 .18899536 .2850647 .18899536 .33003236 .18899536 .3590393 .21299744 .42037965 .30099488 .42037965 .32598878 .42037965 .37599183 .41333009 .3909912 .37405396Z"/>
<path id="font_1_3" d="M.2939911 .16503906V.07800293C.2939911 .041992189 .2919922 .0309906 .21798706 .0309906H.19699097V0C.23799134 .0029907227 .2899933 .0029907227 .33198548 .0029907227 .37399293 .0029907227 .4269867 .0029907227 .46798707 0V.0309906H.44699098C.37298585 .0309906 .37098695 .041992189 .37098695 .07800293V.16503906H.47099305V.19602967H.37098695V.65075686C.37098695 .67074587 .37098695 .6767578 .35499574 .6767578 .34599305 .6767578 .34298707 .6767578 .33499146 .66474917L.027999878 .19602967V.16503906H.2939911M.2999878 .19602967H.055999757L.2999878 .5688019V.19602967Z"/>
<path id="font_1_1" d="M.2939911 .64004519C.2939911 .66400149 .2939911 .6660156 .2709961 .6660156 .20899964 .60227969 .12098694 .60227969 .08898926 .60227969V.57128909C.10899353 .57128909 .16799927 .57128909 .21998596 .5972748V.07902527C.21998596 .042999269 .21699524 .0309906 .1269989 .0309906H.09498596V0C.12998963 .0029907227 .21699524 .0029907227 .25698854 .0029907227 .29699708 .0029907227 .38398744 .0029907227 .4189911 0V.0309906H.3869934C.29699708 .0309906 .2939911 .041992189 .2939911 .07902527V.64004519Z"/>
<path id="font_1_5" d="M.16299439 .4569702C.116989139 .486969 .11299133 .52098086 .11299133 .5379791 .11299133 .598999 .17799378 .64100649 .24899292 .64100649 .32199098 .64100649 .38598634 .58898928 .38598634 .51698306 .38598634 .45996095 .34700013 .4119568 .2869873 .37695313L.16299439 .4569702M.30899049 .36193849C.3809967 .3989563 .42999269 .45095826 .42999269 .51698306 .42999269 .6090088 .34098817 .6660156 .25 .6660156 .1499939 .6660156 .068984989 .59199526 .068984989 .49897767 .068984989 .4809723 .070999149 .43595887 .11299133 .38894654 .12399292 .37695313 .16099549 .35194398 .18598938 .33494569 .12799073 .30592347 .041992189 .24984741 .041992189 .15072632 .041992189 .04458618 .14399719-.022460938 .24899292-.022460938 .3619995-.022460938 .45700074 .06060791 .45700074 .16773987 .45700074 .20379639 .44599916 .24885559 .4079895 .2909088 .3889923 .31193543 .37298585 .3219452 .30899049 .36193849M.20899964 .3199463 .33198548 .24183655C.3600006 .2228241 .40699769 .19277954 .40699769 .13169861 .40699769 .05760193 .33198548 .0055389406 .25 .0055389406 .1639862 .0055389406 .09199524 .067611698 .09199524 .15072632 .09199524 .20880127 .12399292 .27288819 .20899964 .3199463Z"/>
</defs>
<path transform="matrix(1.00003,0,0,-1.00006,28.400414,71.52433)" stroke-width=".79701" stroke-linecap="butt" stroke-miterlimit="10" stroke-linejoin="miter" fill="none" stroke="#ff0000" d="M-19.30507 49.70558C-16.1788 50.9195-13.38113 52.8588-11.14697 55.35992"/>
<use data-text="2" xlink:href="#font_1_2" transform="matrix(9.962899,0,0,-9.963197,15.235016,34.036085)" fill="#ff0000"/>
<use data-text="7" xlink:href="#font_1_4" transform="matrix(9.962899,0,0,-9.963197,20.216462,34.036085)" fill="#ff0000"/>
<use data-text="&#x25e6;" xlink:href="#font_2_1" transform="matrix(6.9740097,0,0,-6.9742186,25.19831,30.420865)" fill="#ff0000"/>
<path transform="matrix(1.00003,0,0,-1.00006,28.400414,71.52433)" stroke-width=".79701" stroke-linecap="butt" stroke-miterlimit="10" stroke-linejoin="miter" fill="none" stroke="#000000" d="M-27.00122 69.52275 51.02565 0"/>
<use data-text="s" xlink:href="#font_3_1" transform="matrix(9.962899,0,0,-9.963197,44.13189,33.042024)" fill="#0000ff"/>
<path transform="matrix(1.00003,0,0,-1.00006,28.400414,71.52433)" stroke-width=".79701" stroke-linecap="butt" stroke-miterlimit="10" stroke-linejoin="miter" fill="none" stroke="#000000" d="M-27.00122 69.52275 0 0"/>
<use data-text="4" xlink:href="#font_1_3" transform="matrix(9.962899,0,0,-9.963197,1.217598,39.971437)" fill="#0000ff"/>
<use data-text="1" xlink:href="#font_1_1" transform="matrix(9.962899,0,0,-9.963197,6.1990435,39.971437)" fill="#0000ff"/>
<path transform="matrix(1.00003,0,0,-1.00006,28.400414,71.52433)" stroke-width=".79701" stroke-linecap="butt" stroke-miterlimit="10" stroke-linejoin="miter" fill="none" stroke="#000000" d="M0 0H51.02565"/>
<use data-text="2" xlink:href="#font_1_2" transform="matrix(9.962899,0,0,-9.963197,48.93203,81.66394)" fill="#0000ff"/>
<use data-text="8" xlink:href="#font_1_5" transform="matrix(9.962899,0,0,-9.963197,53.913476,81.66394)" fill="#0000ff"/>
</svg>
