<svg xmlns="http://www.w3.org/2000/svg" xmlns:xlink="http://www.w3.org/1999/xlink" version="1.1" width="120" height="88" viewBox="0 0 120 88">
<defs>
<path id="font_1_1" d="M.33399964 .30233766C.33999635 .32835389 .36299134 .42037965 .43299867 .42037965 .43798829 .42037965 .46199037 .42037965 .48298646 .40734864 .45498658 .402359 .43499757 .37734986 .43499757 .35334779 .43499757 .33735658 .44599916 .31835938 .47299195 .31835938 .49499513 .31835938 .5269928 .3363495 .5269928 .37635804 .5269928 .42837525 .46798707 .4423828 .43399049 .4423828 .37599183 .4423828 .34098817 .38935853 .32899476 .36634828 .3039856 .43237306 .25 .4423828 .22099304 .4423828 .116989139 .4423828 .05999756 .3133545 .05999756 .28834535 .05999756 .27833558 .069992069 .27833558 .07199097 .27833558 .07998657 .27833558 .08299255 .28033448 .084991458 .28933717 .11898804 .39535523 .18499756 .42037965 .21899414 .42037965 .23799134 .42037965 .272995 .4113617 .272995 .35334779 .272995 .32235719 .2559967 .25532533 .21899414 .11528015 .20298767 .053268434 .16799927 .011245728 .12399292 .011245728 .117996219 .011245728 .09498596 .011245728 .07398987 .024276734 .09899902 .029266358 .12098694 .05027771 .12098694 .07827759 .12098694 .105270389 .09899902 .11328125 .083999637 .11328125 .053985597 .11328125 .0289917 .08728027 .0289917 .055267335 .0289917 .009246826 .07899475-.0107421879 .12298584-.0107421879 .18899536-.0107421879 .22499085 .059280397 .22799683 .0652771 .23999024 .028274537 .27598573-.0107421879 .33599855-.0107421879 .43899537-.0107421879 .49598695 .118270877 .49598695 .14328003 .49598695 .1532898 .4869995 .1532898 .48399354 .1532898 .47499085 .1532898 .47299195 .14929199 .47099305 .14228821 .43798829 .03527832 .36999513 .011245728 .33799745 .011245728 .29899598 .011245728 .2829895 .043273927 .2829895 .07727051 .2829895 .09927368 .2889862 .121276859 .2999878 .16529846L.33399964 .30233766Z"/>
<path id="font_1_2" d="M.48599244 .38136292C.48999024 .39537049 .48999024 .39736939 .48999024 .40437318 .48999024 .42237855 .47599793 .43138124 .46099855 .43138124 .45098878 .43138124 .43499757 .42536927 .42599488 .41036988 .42399598 .405365 .41600038 .37435914 .4119873 .35635377 .40499879 .33035279 .397995 .30334474 .3919983 .27633668L.34700013 .09628296C.34298707 .08126831 .2999878 .011245728 .23399353 .011245728 .18299866 .011245728 .17199707 .055267335 .17199707 .0922699 .17199707 .1382904 .18899536 .20030213 .22299195 .28833009 .23899842 .3293457 .24299622 .3403473 .24299622 .36035157 .24299622 .405365 .21099854 .4423828 .16099549 .4423828 .06599426 .4423828 .0289917 .29733277 .0289917 .28833009 .0289917 .27833558 .038986207 .27833558 .040985109 .27833558 .050994874 .27833558 .051986696 .28033448 .056991579 .29634095 .083999637 .3903656 .12399292 .42037965 .1579895 .42037965 .1659851 .42037965 .18299866 .42037965 .18299866 .3883667 .18299866 .36335755 .17298889 .3373413 .1659851 .31834413 .12599182 .21231079 .10798645 .1552887 .10798645 .10827637 .10798645 .019256592 .17098999-.0107421879 .22999573-.0107421879 .2689972-.0107421879 .30299378 .0062561037 .33099366 .03425598 .31799317-.017745972 .30599977-.06674194 .2659912-.11973572 .23999024-.15385437 .20199585-.18309021 .1559906-.18309021 .14199829-.18309021 .09700012-.18005371 .07998657-.14074707 .09599304-.14074707 .10899353-.14074707 .12298584-.1287384 .1329956-.11973572 .14299011-.10673523 .14299011-.08773804 .14299011-.056747438 .115997318-.052734376 .10598755-.052734376 .08299255-.052734376 .049987794-.068740848 .049987794-.11773682 .049987794-.16796875 .09399414-.20507813 .1559906-.20507813 .25898744-.20507813 .3619995-.11373901 .3899994-.00074768069L.48599244 .38136292Z"/>
<path id="font_2_64" d="M.27598573 .18710327V.24511719H.010986328V.18710327H.27598573Z"/>
<path id="font_2_82" d="M.4189911 0V.0309906H.3869934C.29699708 .0309906 .2939911 .041992189 .2939911 .07902527V.64012148C.2939911 .6640167 .2939911 .6660156 .2709961 .6660156 .20899964 .60227969 .12098694 .60227969 .08898926 .60227969V.57128909C.10899353 .57128909 .16799927 .57128909 .21998596 .5972748V.07902527C.21998596 .042999269 .21699524 .0309906 .1269989 .0309906H.09498596V0C.12998963 .0029907227 .21699524 .0029907227 .25698854 .0029907227 .29699708 .0029907227 .38398744 .0029907227 .4189911 0Z"/>
<path id="font_2_121" d="M.45999146 .31976319C.45999146 .39982606 .45498658 .47988893 .41999818 .5539398 .37399293 .65000918 .2919922 .6660156 .25 .6660156 .18998719 .6660156 .116989139 .64001467 .07598877 .54693606 .04399109 .47789 .038986207 .39982606 .038986207 .31976319 .038986207 .24472046 .042999269 .15464783 .083999637 .07859802 .1269989-.0024719239 .19999695-.022460938 .24899292-.022460938 .30299378-.022460938 .3789978-.0014648438 .4229889 .09359741 .45498658 .16265869 .45999146 .2407074 .45999146 .31976319M.3769989 .3317871C.3769989 .25672914 .3769989 .18867493 .3659973 .12461853 .35099793 .029556275 .2939911-.00047302247 .24899292-.00047302247 .20999146-.00047302247 .15098572 .024551392 .1329956 .12062073 .12199402 .18066406 .12199402 .2727356 .12199402 .3317871 .12199402 .39582826 .12199402 .46188355 .12998963 .5159149 .14898682 .63500979 .22399903 .64401248 .24899292 .64401248 .28199769 .64401248 .34799195 .6259918 .36698915 .52693179 .3769989 .47088624 .3769989 .39482118 .3769989 .3317871Z"/>
<path id="font_2_107" d="M.44898988 .17396546H.42399598C.4189911 .14398194 .4119873 .099990848 .4019928 .084991458 .394989 .07699585 .32899476 .07699585 .30699159 .07699585H.1269989L.23298645 .17996216C.3889923 .31803895 .44898988 .37210084 .44898988 .47216798 .44898988 .5860901 .35899354 .6660156 .23699951 .6660156 .12399292 .6660156 .049987794 .57411196 .049987794 .48516847 .049987794 .4291687 .099990848 .4291687 .102996829 .4291687 .11999512 .4291687 .15499878 .44117738 .15499878 .48217774 .15499878 .5081787 .13699341 .5341797 .101989749 .5341797 .09399414 .5341797 .09199524 .5341797 .08898926 .5331726 .11199951 .59806826 .1659851 .63500979 .22399903 .63500979 .31498719 .63500979 .35798646 .5541382 .35798646 .47216798 .35798646 .39196778 .30799867 .31297303 .25299073 .25097657L.06098938 .036987306C.049987794 .025985718 .049987794 .023986817 .049987794 0H.42099L.44898988 .17396546Z"/>
</defs>
<path transform="matrix(1.00009,0,0,-1,47.053606,74.457)" stroke-width=".19925" stroke-linecap="butt" stroke-miterlimit="10" stroke-linejoin="miter" fill="none" stroke="#00aeef" d="M-45.37859-9.07118H58.9627M-45.37859-4.53558H58.9627M-45.37859 0H58.9627M-45.37859 4.53558H58.9627M-45.37859 9.07118H58.9627M-45.37859 13.60677H58.9627M-45.37859 18.14236H58.9627M-45.37859 22.67795H58.9627M-45.37859 27.21356H58.9627M-45.37859 31.74915H58.9627M-45.37859 36.28474H58.9627M-45.37859 40.82033H58.9627M-45.37859 45.35593H58.9627M-45.37859 49.89153H58.9627M-45.37859 54.42712H58.9627M-45.37859 58.96191H58.9627M-45.35593-9.09383V58.9627M-40.82033-9.09383V58.9627M-36.28474-9.09383V58.9627M-31.74915-9.09383V58.9627M-27.21356-9.09383V58.9627M-22.67795-9.09383V58.9627M-18.14236-9.09383V58.9627M-13.60677-9.09383V58.9627M-9.07118-9.09383V58.9627M-4.53558-9.09383V58.9627M0-9.09383V58.9627M4.53558-9.09383V58.9627M9.07118-9.09383V58.9627M13.60677-9.09383V58.9627M18.14236-9.09383V58.9627M22.67795-9.09383V58.9627M27.21356-9.09383V58.9627M31.74915-9.09383V58.9627M36.28474-9.09383V58.9627M40.82033-9.09383V58.9627M45.35593-9.09383V58.9627M49.89153-9.09383V58.9627M54.42712-9.09383V58.9627M58.96191-9.09383V58.9627M58.9627 58.9627"/>
<path transform="matrix(1.00009,0,0,-1,47.053606,74.457)" stroke-width=".79701" stroke-linecap="butt" stroke-miterlimit="10" stroke-linejoin="miter" fill="none" stroke="#000000" d="M-45.35591 0H61.15659"/>
<path transform="matrix(1.00009,0,0,-1,108.2157,74.457)" d="M1.0361 0C-.25902 .25902-1.55415 .77707-3.1083 1.68365-1.55415 .51805-1.55415-.51805-3.1083-1.68365-1.55415-.77707-.25902-.25902 1.0361 0Z"/>
<path transform="matrix(1.00009,0,0,-1,108.2157,74.457)" stroke-width=".79701" stroke-linecap="butt" stroke-linejoin="round" fill="none" stroke="#000000" d="M1.0361 0C-.25902 .25902-1.55415 .77707-3.1083 1.68365-1.55415 .51805-1.55415-.51805-3.1083-1.68365-1.55415-.77707-.25902-.25902 1.0361 0Z"/>
<use data-text="x" xlink:href="#font_1_1" transform="matrix(9.963496,0,0,-9.9626,113.36957,76.602008)"/>
<path transform="matrix(1.00009,0,0,-1,47.053606,74.457)" stroke-width=".79701" stroke-linecap="butt" stroke-miterlimit="10" stroke-linejoin="miter" fill="none" stroke="#000000" d="M0-9.07117V61.15659"/>
<path transform="matrix(0,-1,-1.00009,-0,47.053606,13.300411)" d="M1.0361 0C-.25902 .25902-1.55415 .77707-3.1083 1.68365-1.55415 .51805-1.55415-.51805-3.1083-1.68365-1.55415-.77707-.25902-.25902 1.0361 0Z"/>
<path transform="matrix(0,-1,-1.00009,-0,47.053606,13.300411)" stroke-width=".79701" stroke-linecap="butt" stroke-linejoin="round" fill="none" stroke="#000000" d="M1.0361 0C-.25902 .25902-1.55415 .77707-3.1083 1.68365-1.55415 .51805-1.55415-.51805-3.1083-1.68365-1.55415-.77707-.25902-.25902 1.0361 0Z"/>
<use data-text="y" xlink:href="#font_1_2" transform="matrix(9.963496,0,0,-9.9626,44.432367,6.209999)"/>
<path transform="matrix(1.00009,0,0,-1,47.053606,74.457)" stroke-width="1.59404" stroke-linecap="butt" stroke-miterlimit="10" stroke-linejoin="miter" fill="none" stroke="#000000" d="M-22.67795 1.13388V-1.13388"/>
<use data-text="-" xlink:href="#font_2_64" transform="matrix(9.963496,0,0,-9.9626,17.732964,86.344)"/>
<use data-text="1" xlink:href="#font_2_82" transform="matrix(9.963496,0,0,-9.9626,21.05082,86.344)"/>
<use data-text="0" xlink:href="#font_2_121" transform="matrix(9.963496,0,0,-9.9626,26.032555,86.344)"/>
<path transform="matrix(1.00009,0,0,-1,47.053606,74.457)" stroke-width="1.59404" stroke-linecap="butt" stroke-miterlimit="10" stroke-linejoin="miter" fill="none" stroke="#000000" d="M22.67795 1.13388V-1.13388"/>
<use data-text="1" xlink:href="#font_2_82" transform="matrix(9.963496,0,0,-9.9626,64.7522,86.344)"/>
<use data-text="0" xlink:href="#font_2_121" transform="matrix(9.963496,0,0,-9.9626,69.73395,86.344)"/>
<path transform="matrix(1.00009,0,0,-1,47.053606,74.457)" stroke-width="1.59404" stroke-linecap="butt" stroke-miterlimit="10" stroke-linejoin="miter" fill="none" stroke="#000000" d="M45.35593 1.13388V-1.13388"/>
<use data-text="2" xlink:href="#font_2_107" transform="matrix(9.963496,0,0,-9.9626,87.432239,86.344)"/>
<use data-text="0" xlink:href="#font_2_121" transform="matrix(9.963496,0,0,-9.9626,92.41399,86.344)"/>
<path transform="matrix(1.00009,0,0,-1,47.053606,74.457)" stroke-width="1.59404" stroke-linecap="butt" stroke-miterlimit="10" stroke-linejoin="miter" fill="none" stroke="#000000" d="M1.13388 22.67795H-1.13388"/>
<use data-text="1" xlink:href="#font_2_82" transform="matrix(9.963496,0,0,-9.9626,31.838234,54.987)"/>
<use data-text="0" xlink:href="#font_2_121" transform="matrix(9.963496,0,0,-9.9626,36.819986,54.987)"/>
<path transform="matrix(1.00009,0,0,-1,47.053606,74.457)" stroke-width="1.59404" stroke-linecap="butt" stroke-miterlimit="10" stroke-linejoin="miter" fill="none" stroke="#000000" d="M1.13388 45.35593H-1.13388"/>
<use data-text="2" xlink:href="#font_2_107" transform="matrix(9.963496,0,0,-9.9626,31.838234,32.309003)"/>
<use data-text="0" xlink:href="#font_2_121" transform="matrix(9.963496,0,0,-9.9626,36.819986,32.309003)"/>
<path transform="matrix(1.00009,0,0,-1,47.053606,74.457)" d="M-35.15201 27.21442C-35.15201 27.84065-35.65967 28.34831-36.2859 28.34831-36.91212 28.34831-37.41978 27.84065-37.41978 27.21442-37.41978 26.5882-36.91212 26.08054-36.2859 26.08054-35.65967 26.08054-35.15201 26.5882-35.15201 27.21442ZM-36.2859 27.21442" fill="#ff0000"/>
<path transform="matrix(1.00009,0,0,-1,47.053606,74.457)" stroke-width=".3985" stroke-linecap="butt" stroke-miterlimit="10" stroke-linejoin="miter" fill="none" stroke="#ff0000" d="M-35.15201 27.21442C-35.15201 27.84065-35.65967 28.34831-36.2859 28.34831-36.91212 28.34831-37.41978 27.84065-37.41978 27.21442-37.41978 26.5882-36.91212 26.08054-36.2859 26.08054-35.65967 26.08054-35.15201 26.5882-35.15201 27.21442ZM-36.2859 27.21442"/>
<path transform="matrix(1.00009,0,0,-1,47.053606,74.457)" stroke-width="1.59404" stroke-linecap="butt" stroke-miterlimit="10" stroke-linejoin="miter" fill="none" stroke="#ff0000" d="M58.9627 0H0L-36.2859 27.21442-45.35591 34.01694"/>
<path transform="matrix(1.00009,0,0,-1,47.053606,74.457)" stroke-width=".79701" stroke-linecap="butt" stroke-miterlimit="10" stroke-linejoin="miter" fill="none" stroke="#0000ff" d="M4.53558 0C4.53558 2.50496 2.50496 4.53558 0 4.53558-1.4274 4.53558-2.77193 3.86317-3.62834 2.7213"/>
</svg>
