<svg xmlns="http://www.w3.org/2000/svg" xmlns:xlink="http://www.w3.org/1999/xlink" version="1.1" width="112" height="93" viewBox="0 0 112 93">
<defs>
<path id="font_1_2" d="M.73999026 .4358673C.73999026 .5970001 .6339874 .7050781 .4850006 .7050781 .2689972 .7050781 .04899597 .47790528 .04899597 .24472046 .04899597 .07859802 .16099549-.022460938 .30499269-.022460938 .5169983-.022460938 .73999026 .19668579 .73999026 .4358673M.31098939 .0035247803C.21199036 .0035247803 .14199829 .08459473 .14199829 .21670532 .14199829 .2607422 .1559906 .4068451 .23298645 .52394106 .3019867 .62802127 .3999939 .68006899 .47898866 .68006899 .5609894 .68006899 .651001 .62402346 .651001 .4748993 .651001 .4028473 .6239929 .24671936 .5249939 .12362671 .47698976 .062576297 .394989 .0035247803 .31098939 .0035247803Z"/>
<path id="font_1_4" d="M.4850006 .41075135 .40098573 .6096344C.397995 .61763 .3959961 .6216278 .3959961 .6226196 .3959961 .62861636 .41299439 .6476135 .45498658 .6516113 .46499635 .65260317 .47499085 .6536102 .47499085 .6706085 .47499085 .6826172 .46299745 .6826172 .45999146 .6826172 .4189911 .6826172 .37599183 .6796112 .33399964 .6796112 .30899049 .6796112 .24699402 .6826172 .22200012 .6826172 .21598816 .6826172 .20399475 .6826172 .20399475 .6626129 .20399475 .6516113 .21398926 .6516113 .22698975 .6516113 .2869873 .6516113 .29299928 .6416168 .3019867 .6196289L.41999818 .34080506 .20899964 .11393738 .19599915 .10295105C.14698792 .049987794 .099990848 .033996583 .04899597 .0309906 .035995485 .02999878 .026992798 .02999878 .026992798 .010986328 .026992798 .009994507 .026992798 0 .039993287 0 .069992069 0 .102996829 .0029907227 .13398743 .0029907227 .17098999 .0029907227 .20999146 0 .24598694 0 .2519989 0 .2639923 0 .2639923 .019989014 .2639923 .02999878 .2539978 .0309906 .2519989 .0309906 .24299622 .03199768 .21199036 .033996583 .21199036 .061965944 .21199036 .07795715 .22698975 .093948367 .23899842 .10694885L.34098817 .21487427 .43099977 .31282044 .5319977 .07395935C.5359955 .06297302 .5369873 .061965944 .5369873 .05996704 .5369873 .051986696 .5179901 .034988405 .47898866 .0309906 .46798707 .02999878 .45899964 .0289917 .45899964 .011993408 .45899964 0 .46998597 0 .47399903 0 .5019989 0 .57199099 .0029907227 .59999087 .0029907227 .625 .0029907227 .6859894 0 .71099856 0 .71798709 0 .7299957 0 .7299957 .018997193 .7299957 .0309906 .7200012 .0309906 .71199038 .0309906 .644989 .03199768 .6429901 .034988405 .6259918 .07496643 .58699038 .16790772 .519989 .32380677 .49699403 .3837738 .5649872 .45373536 .66999819 .5726471 .70199587 .6006317 .73098757 .62461856 .7689972 .64860537 .82899478 .6516113 .84199526 .65260317 .8509979 .65260317 .8509979 .6716156 .8509979 .6726074 .8509979 .6826172 .83799746 .6826172 .80799868 .6826172 .7749939 .6796112 .74398806 .6796112 .70700076 .6796112 .6689911 .6826172 .6329956 .6826172 .6269989 .6826172 .6139984 .6826172 .6139984 .6626129 .6139984 .65560916 .61898806 .65260317 .6259918 .6516113 .6349945 .65060427 .66600039 .64860537 .66600039 .6206207 .66600039 .6066284 .6549988 .5936432 .6469879 .5846405L.4850006 .41075135Z"/>
<path id="font_1_5" d="M.5970001 .5686493 .61099246 .5826416C.6409912 .6126251 .673996 .64660647 .74198916 .6516113 .7529907 .65260317 .7619934 .65260317 .7619934 .6706085 .7619934 .6786041 .7569885 .6826172 .7489929 .6826172 .72299197 .6826172 .69400027 .6796112 .6669922 .6796112 .6339874 .6796112 .598999 .6826172 .5669861 .6826172 .5609894 .6826172 .5479889 .6826172 .5479889 .66360476 .5479889 .65260317 .55799868 .6516113 .5629883 .6516113 .56999209 .6516113 .598999 .6496124 .598999 .62861636 .598999 .6116333 .57598879 .5856476 .57199099 .5806427L.33999635 .31381227 .22999573 .6106262C.22399903 .62461856 .22399903 .62661746 .22399903 .6276245 .22399903 .6516113 .272995 .6516113 .2829895 .6516113 .29699708 .6516113 .30699159 .6516113 .30699159 .6716156 .30699159 .6826172 .29499818 .6826172 .2919922 .6826172 .2639923 .6826172 .19400025 .6796112 .1659851 .6796112 .14099121 .6796112 .07899475 .6826172 .053985597 .6826172 .04798889 .6826172 .034988405 .6826172 .034988405 .6626129 .034988405 .6516113 .04499817 .6516113 .057998659 .6516113 .117996219 .6516113 .12199402 .64260867 .1309967 .61763L.2539978 .28883363C.25498963 .28582765 .2579956 .2748413 .2579956 .27183534 .2579956 .2688446 .21798706 .107940677 .21299744 .08995056 .19999695 .034988405 .19898987 .03199768 .11898804 .0309906 .099990848 .0309906 .09199524 .0309906 .09199524 .010986328 .09199524 0 .10398865 0 .10598755 0 .13398743 0 .20399475 .0029907227 .23199463 .0029907227 .2599945 .0029907227 .33198548 0 .3600006 0 .36698915 0 .3789978 0 .3789978 .019989014 .3789978 .0309906 .36999513 .0309906 .35099793 .0309906 .34899903 .0309906 .32998658 .0309906 .31298829 .032989503 .2919922 .034988405 .28599549 .036987306 .28599549 .048980714 .28599549 .05596924 .29499818 .09095764 .2999878 .11193848L.33499146 .2528534C.33999635 .27183534 .34098817 .2748413 .34899903 .28382875L.5970001 .5686493Z"/>
<path id="font_1_6" d="M.7200012 .6586151C.72099307 .6626129 .72299197 .66760256 .72299197 .6736145 .72299197 .6826172 .71798709 .6826172 .69799807 .6826172H.27598573C.2519989 .6826172 .25099183 .6816101 .24499512 .6626129L.18998719 .4827118C.18798828 .47772218 .18699646 .47071839 .18699646 .46871949 .18699646 .46772767 .18699646 .45773316 .19898987 .45773316 .20799256 .45773316 .20999146 .46472169 .21199036 .46772767 .25 .5856476 .3019867 .6516113 .45799256 .6516113H.62098696L.06199646 .026992798C.06199646 .025985718 .057998659 .011993408 .057998659 .008987427 .057998659 0 .06498718 0 .08299255 0H.5179901C.5419922 0 .54299929 .0009918213 .548996 .019989014L.6199951 .24085999C.62098696 .24485779 .6239929 .25186158 .6239929 .25585938 .6239929 .260849 .6199951 .2668457 .61099246 .2668457 .60198977 .2668457 .6009979 .2628479 .59399417 .24186707 .5499878 .10594177 .5019989 .033996583 .33198548 .033996583H.16099549L.7200012 .6586151Z"/>
<path id="font_1_3" d="M.9169922 .5666046C.94200137 .61061099 .96598818 .64660647 1.0289917 .6516113 1.0379944 .65260317 1.0479889 .65260317 1.0479889 .6716156 1.0479889 .6756134 1.0439911 .6826172 1.0359955 .6826172 1.0119934 .6826172 .98399356 .6796112 .95899966 .6796112 .9249878 .6796112 .8880005 .6826172 .8549957 .6826172 .848999 .6826172 .83599856 .6826172 .83599856 .66360476 .83599856 .65260317 .8450012 .6516113 .8509979 .6516113 .875 .65060427 .9099884 .64260867 .9099884 .61260989 .9099884 .6016083 .9049988 .5935974 .8969879 .5796051L.6269989 .108551029 .58999636 .604599C.58898928 .6246033 .58699038 .65060427 .6599884 .6516113 .6769867 .6516113 .68699648 .6516113 .68699648 .6716156 .68699648 .6816101 .6759949 .6826172 .6719971 .6826172 .6319885 .6826172 .58999636 .6796112 .5499878 .6796112 .5269928 .6796112 .46798707 .6826172 .44499208 .6826172 .43899537 .6826172 .42599488 .6826172 .42599488 .6626129 .42599488 .6516113 .43598939 .6516113 .44999696 .6516113 .49398805 .6516113 .5009918 .6456146 .5029907 .6266022L.5089874 .54959109 .2559967 .108551029 .21798706 .6156006C.21798706 .62760928 .21798706 .65060427 .2939911 .6516113 .3039856 .6516113 .31498719 .6516113 .31498719 .6716156 .31498719 .6826172 .30299378 .6826172 .30099488 .6826172 .26098634 .6826172 .21899414 .6796112 .17799378 .6796112 .14299011 .6796112 .10699463 .6826172 .07299805 .6826172 .067993167 .6826172 .054992677 .6826172 .054992677 .66360476 .054992677 .6516113 .06399536 .6516113 .07998657 .6516113 .12998963 .6516113 .1309967 .64260867 .1329956 .61460879L.17799378 .0035247803C.1789856-.014465332 .17999268-.022460938 .19400025-.022460938 .20599365-.022460938 .20899964-.016464234 .21798706-.0014648438L.5119934 .5085907 .548996 .0035247803C.5509949-.017471314 .5529938-.022460938 .5649872-.022460938 .5779877-.022460938 .58399966-.012466431 .58898928-.0034637452L.9169922 .5666046Z"/>
<path id="font_1_7" d="M.08799744 .059265138C.084991458 .044265748 .07899475 .021255494 .07899475 .01625061 .07899475-.0017547608 .09298706-.0107421879 .10798645-.0107421879 .11999512-.0107421879 .13798523-.002746582 .14498902 .01725769 .14698792 .021255494 .18099976 .15730286 .18499756 .17530823 .19299317 .20831299 .21099854 .27833558 .21699524 .30534364 .22099304 .31835938 .24899292 .36535646 .272995 .38734437 .2809906 .39434815 .30999757 .42037965 .35299684 .42037965 .3789978 .42037965 .3939972 .4083557 .394989 .4083557 .36499024 .40335084 .34298707 .37934876 .34298707 .35334779 .34298707 .33735658 .35398866 .31835938 .3809967 .31835938 .4079895 .31835938 .43598939 .34135438 .43598939 .37734986 .43598939 .41235353 .4039917 .4423828 .35299684 .4423828 .28799439 .4423828 .24398804 .39335633 .22499085 .36535646 .21699524 .4103546 .18099976 .4423828 .13398743 .4423828 .08799744 .4423828 .068984989 .40335084 .05999756 .38534547 .041992189 .35134889 .0289917 .29133607 .0289917 .28834535 .0289917 .27833558 .038986207 .27833558 .040985109 .27833558 .050994874 .27833558 .051986696 .27934266 .057998659 .30134584 .07499695 .37234498 .09498596 .42037965 .1309967 .42037965 .147995 .42037965 .1619873 .41235353 .1619873 .37435914 .1619873 .35334779 .15899658 .3423462 .1459961 .29034425L.08799744 .059265138Z"/>
<path id="font_1_1" d="M.45498658 .5001831C.45498658 .56614688 .43699647 .7050781 .33499146 .7050781 .19599915 .7050781 .041992189 .42323304 .041992189 .19425965 .041992189 .100250247 .070999149-.0107421879 .1619873-.0107421879 .30299378-.0107421879 .45498658 .27627564 .45498658 .5001831M.147995 .36328126C.16499329 .42723084 .18499756 .5071869 .22499085 .57814028 .2519989 .6271057 .2889862 .68307498 .33399964 .68307498 .3829956 .68307498 .3889923 .6191101 .3889923 .56214907 .3889923 .5131836 .3809967 .46220399 .35699464 .36328126H.147995M.34799195 .3312683C.33699037 .28527833 .31599427 .2002716 .27799989 .12826538 .24299622 .060256959 .20498657 .011245728 .1619873 .011245728 .1289978 .011245728 .10798645 .040252687 .10798645 .133255 .10798645 .17526245 .11399841 .23326111 .13999939 .3312683H.34799195Z"/>
</defs>
<path transform="matrix(1,0,0,-1.00003,56.638,46.97105)" stroke-width=".79701" stroke-linecap="butt" stroke-miterlimit="10" stroke-linejoin="miter" fill="none" stroke="#cbcbcb" d="M44.64873 0C44.64873 24.65912 24.65912 44.64873 0 44.64873-24.65912 44.64873-44.64873 24.65912-44.64873 0-44.64873-24.65912-24.65912-44.64873 0-44.64873 24.65912-44.64873 44.64873-24.65912 44.64873 0ZM0 0"/>
<path transform="matrix(1,0,0,-1.00003,56.638,46.97105)" d="M.03137 0C.03137 .0173 .0173 .03137 0 .03137-.0173 .03137-.03137 .0173-.03137 0-.03137-.0173-.0173-.03137 0-.03137 .0173-.03137 .03137-.0173 .03137 0ZM0 0"/>
<path transform="matrix(1,0,0,-1.00003,56.638,46.97105)" stroke-width=".3985" stroke-linecap="butt" stroke-miterlimit="10" stroke-linejoin="miter" fill="none" stroke="#000000" d="M.03137 0C.03137 .0173 .0173 .03137 0 .03137-.0173 .03137-.03137 .0173-.03137 0-.03137-.0173-.0173-.03137 0-.03137 .0173-.03137 .03137-.0173 .03137 0ZM0 0"/>
<use data-text="O" xlink:href="#font_1_2" transform="matrix(9.9626,0,0,-9.962899,45.242006,57.299364)"/>
<path transform="matrix(1,0,0,-1.00003,56.638,46.97105)" d="M-42.8343 12.50246C-42.8343 12.51978-42.84836 12.53384-42.86568 12.53384-42.883 12.53384-42.89706 12.51978-42.89706 12.50246-42.89706 12.48515-42.883 12.47108-42.86568 12.47108-42.84836 12.47108-42.8343 12.48515-42.8343 12.50246ZM-42.86568 12.50246"/>
<path transform="matrix(1,0,0,-1.00003,56.638,46.97105)" stroke-width=".3985" stroke-linecap="butt" stroke-miterlimit="10" stroke-linejoin="miter" fill="none" stroke="#000000" d="M-42.8343 12.50246C-42.8343 12.51978-42.84836 12.53384-42.86568 12.53384-42.883 12.53384-42.89706 12.51978-42.89706 12.50246-42.89706 12.48515-42.883 12.47108-42.86568 12.47108-42.84836 12.47108-42.8343 12.48515-42.8343 12.50246ZM-42.86568 12.50246"/>
<use data-text="X" xlink:href="#font_1_4" transform="matrix(9.9626,0,0,-9.962899,1.2169952,37.871778)"/>
<path transform="matrix(1,0,0,-1.00003,56.638,46.97105)" d="M26.8224 35.72139C26.8224 35.73871 26.80835 35.75276 26.79103 35.75276 26.77371 35.75276 26.75966 35.73871 26.75966 35.72139 26.75966 35.70407 26.77371 35.69002 26.79103 35.69002 26.80835 35.69002 26.8224 35.70407 26.8224 35.72139ZM26.79103 35.72139"/>
<path transform="matrix(1,0,0,-1.00003,56.638,46.97105)" stroke-width=".3985" stroke-linecap="butt" stroke-miterlimit="10" stroke-linejoin="miter" fill="none" stroke="#000000" d="M26.8224 35.72139C26.8224 35.73871 26.80835 35.75276 26.79103 35.75276 26.77371 35.75276 26.75966 35.73871 26.75966 35.72139 26.75966 35.70407 26.77371 35.69002 26.79103 35.69002 26.80835 35.69002 26.8224 35.70407 26.8224 35.72139ZM26.79103 35.72139"/>
<use data-text="Y" xlink:href="#font_1_5" transform="matrix(9.9626,0,0,-9.962899,86.949008,7.7288706)"/>
<path transform="matrix(1,0,0,-1.00003,56.638,46.97105)" d="M42.89706 12.50246C42.89706 12.51978 42.883 12.53384 42.86568 12.53384 42.84836 12.53384 42.8343 12.51978 42.8343 12.50246 42.8343 12.48515 42.84836 12.47108 42.86568 12.47108 42.883 12.47108 42.89706 12.48515 42.89706 12.50246ZM42.86568 12.50246"/>
<path transform="matrix(1,0,0,-1.00003,56.638,46.97105)" stroke-width=".3985" stroke-linecap="butt" stroke-miterlimit="10" stroke-linejoin="miter" fill="none" stroke="#000000" d="M42.89706 12.50246C42.89706 12.51978 42.883 12.53384 42.86568 12.53384 42.84836 12.53384 42.8343 12.51978 42.8343 12.50246 42.8343 12.48515 42.84836 12.47108 42.86568 12.47108 42.883 12.47108 42.89706 12.48515 42.89706 12.50246ZM42.86568 12.50246"/>
<use data-text="Z" xlink:href="#font_1_6" transform="matrix(9.9626,0,0,-9.962899,103.024,37.871778)"/>
<path transform="matrix(1,0,0,-1.00003,56.638,46.97105)" d="M34.86208 24.11356C34.86208 24.13087 34.84802 24.14493 34.8307 24.14493 34.81339 24.14493 34.79933 24.13087 34.79933 24.11356 34.79933 24.09624 34.81339 24.08217 34.8307 24.08217 34.84802 24.08217 34.86208 24.09624 34.86208 24.11356ZM34.8307 24.11356"/>
<path transform="matrix(1,0,0,-1.00003,56.638,46.97105)" stroke-width=".3985" stroke-linecap="butt" stroke-miterlimit="10" stroke-linejoin="miter" fill="none" stroke="#000000" d="M34.86208 24.11356C34.86208 24.13087 34.84802 24.14493 34.8307 24.14493 34.81339 24.14493 34.79933 24.13087 34.79933 24.11356 34.79933 24.09624 34.81339 24.08217 34.8307 24.08217 34.84802 24.08217 34.86208 24.09624 34.86208 24.11356ZM34.8307 24.11356"/>
<use data-text="W" xlink:href="#font_1_3" transform="matrix(9.9626,0,0,-9.962899,93.992008,20.33325)"/>
<path transform="matrix(1,0,0,-1.00003,56.638,46.97105)" stroke-width=".79701" stroke-linecap="butt" stroke-miterlimit="10" stroke-linejoin="miter" fill="none" stroke="#0000ff" d="M31.3481 21.7025 28.93706 25.1851 32.41966 27.59615"/>
<path transform="matrix(1,0,0,-1.00003,56.638,46.97105)" stroke-width=".79701" stroke-linecap="butt" stroke-miterlimit="10" stroke-linejoin="miter" fill="none" stroke="#000000" d="M0 0 34.8307 24.11356"/>
<path transform="matrix(1,0,0,-1.00003,56.638,46.97105)" stroke-width=".79701" stroke-linecap="butt" stroke-miterlimit="10" stroke-linejoin="miter" fill="none" stroke="#000000" d="M0 0 26.79103 35.72139"/>
<use data-text="r" xlink:href="#font_1_7" transform="matrix(9.9626,0,0,-9.962899,63.535005,27.383463)" fill="#0000ff"/>
<path transform="matrix(1,0,0,-1.00003,56.638,46.97105)" stroke-width=".79701" stroke-linecap="butt" stroke-miterlimit="10" stroke-linejoin="miter" fill="none" stroke="#000000" d="M0 0 42.86568 12.50246"/>
<use data-text="r" xlink:href="#font_1_7" transform="matrix(9.9626,0,0,-9.962899,81.79,48.728105)" fill="#0000ff"/>
<path transform="matrix(1,0,0,-1.00003,56.638,46.97105)" stroke-width=".79701" stroke-linecap="butt" stroke-miterlimit="10" stroke-linejoin="miter" fill="none" stroke="#ff0000" d="M-19.64832 12.50246C-19.64832 14.99722-20.05194 17.47736-20.84079 19.84396"/>
<use data-text="&#x03b8;" xlink:href="#font_1_1" transform="matrix(9.9626,0,0,-9.962899,40.408006,33.21264)" fill="#ff0000"/>
<path transform="matrix(1,0,0,-1.00003,56.638,46.97105)" stroke-width="1.59404" stroke-linecap="butt" stroke-miterlimit="10" stroke-linejoin="miter" fill="none" stroke="#ec008c" d="M-42.86568 12.50246 26.79103 35.72139 42.86568 12.50246H-42.86568"/>
</svg>
