<svg xmlns="http://www.w3.org/2000/svg" xmlns:xlink="http://www.w3.org/1999/xlink" version="1.1" width="216" height="107" viewBox="0 0 216 107">
<defs>
<path id="font_1_1" d="M.20599365 .3996582H.2999878C.31999208 .3996582 .32998658 .3996582 .32998658 .41966249 .32998658 .43066407 .31999208 .43066407 .3019867 .43066407H.21398926C.25 .5724945 .25498963 .59246829 .25498963 .59846499 .25498963 .61546328 .24299622 .62545779 .22599793 .62545779 .22299195 .62545779 .19499207 .62446597 .18598938 .58947756L.14698792 .43066407H.052993776C.032989503 .43066407 .022994996 .43066407 .022994996 .4116516 .022994996 .3996582 .0309906 .3996582 .050994874 .3996582H.13899231C.066986087 .11608887 .06298828 .099121097 .06298828 .08114624 .06298828 .02722168 .100997928-.0107421879 .15499878-.0107421879 .25698854-.0107421879 .31399537 .13505554 .31399537 .14305115 .31399537 .1530304 .30599977 .1530304 .3019867 .1530304 .29299928 .1530304 .2919922 .15003968 .2869873 .13905335 .24398804 .035217287 .19099427 .011245728 .15699768 .011245728 .13598633 .011245728 .12599182 .024230957 .12599182 .057174684 .12599182 .08114624 .12799073 .088134769 .13198853 .10510254L.20599365 .3996582Z"/>
<path id="font_1_2" d="M.48599244 .38136292C.48999024 .39537049 .48999024 .39736939 .48999024 .40437318 .48999024 .42237855 .47599793 .43138124 .46099855 .43138124 .45098878 .43138124 .43499757 .42536927 .42599488 .41036988 .42399598 .405365 .41600038 .37435914 .4119873 .35635377 .40499879 .33035279 .397995 .30334474 .3919983 .27633668L.34700013 .09628296C.34298707 .08126831 .2999878 .011245728 .23399353 .011245728 .18299866 .011245728 .17199707 .055267335 .17199707 .0922699 .17199707 .1382904 .18899536 .20030213 .22299195 .28833009 .23899842 .3293457 .24299622 .3403473 .24299622 .36035157 .24299622 .405365 .21099854 .4423828 .16099549 .4423828 .06599426 .4423828 .0289917 .29733277 .0289917 .28833009 .0289917 .27833558 .038986207 .27833558 .040985109 .27833558 .050994874 .27833558 .051986696 .28033448 .056991579 .29634095 .083999637 .3903656 .12399292 .42037965 .1579895 .42037965 .1659851 .42037965 .18299866 .42037965 .18299866 .3883667 .18299866 .36335755 .17298889 .3373413 .1659851 .31834413 .12599182 .21231079 .10798645 .1552887 .10798645 .10827637 .10798645 .019256592 .17098999-.0107421879 .22999573-.0107421879 .2689972-.0107421879 .30299378 .0062561037 .33099366 .03425598 .31799317-.017745972 .30599977-.06674194 .2659912-.11973572 .23999024-.15385437 .20199585-.18309021 .1559906-.18309021 .14199829-.18309021 .09700012-.18005371 .07998657-.14074707 .09599304-.14074707 .10899353-.14074707 .12298584-.1287384 .1329956-.11973572 .14299011-.10673523 .14299011-.08773804 .14299011-.056747438 .115997318-.052734376 .10598755-.052734376 .08299255-.052734376 .049987794-.068740848 .049987794-.11773682 .049987794-.16796875 .09399414-.20507813 .1559906-.20507813 .25898744-.20507813 .3619995-.11373901 .3899994-.00074768069L.48599244 .38136292Z"/>
<path id="font_2_107" d="M.44898988 .17396546H.42399598C.4189911 .14398194 .4119873 .099990848 .4019928 .084991458 .394989 .07699585 .32899476 .07699585 .30699159 .07699585H.1269989L.23298645 .17996216C.3889923 .31803895 .44898988 .37210084 .44898988 .47216798 .44898988 .5860901 .35899354 .6660156 .23699951 .6660156 .12399292 .6660156 .049987794 .57411196 .049987794 .48516847 .049987794 .4291687 .099990848 .4291687 .102996829 .4291687 .11999512 .4291687 .15499878 .44117738 .15499878 .48217774 .15499878 .5081787 .13699341 .5341797 .101989749 .5341797 .09399414 .5341797 .09199524 .5341797 .08898926 .5331726 .11199951 .59806826 .1659851 .63500979 .22399903 .63500979 .31498719 .63500979 .35798646 .5541382 .35798646 .47216798 .35798646 .39196778 .30799867 .31297303 .25299073 .25097657L.06098938 .036987306C.049987794 .025985718 .049987794 .023986817 .049987794 0H.42099L.44898988 .17396546Z"/>
<path id="font_2_57" d="M.47099305 .16503906V.19602967H.37098695V.6507721C.37098695 .6707611 .37098695 .6767578 .35499574 .6767578 .34599305 .6767578 .34298707 .6767578 .33499146 .6647644L.027999878 .19602967V.16503906H.2939911V.07800293C.2939911 .041992189 .2919922 .0309906 .21798706 .0309906H.19699097V0C.23799134 .0029907227 .2899933 .0029907227 .33198548 .0029907227 .37399293 .0029907227 .4269867 .0029907227 .46798707 0V.0309906H.44699098C.37298585 .0309906 .37098695 .041992189 .37098695 .07800293V.16503906H.47099305M.2999878 .19602967H.055999757L.2999878 .56881716V.19602967Z"/>
<path id="font_2_101" d="M.45700074 .2036438C.45700074 .33070375 .36799623 .4267578 .25698854 .4267578 .18899536 .4267578 .1519928 .37573243 .13198853 .327713V.35173036C.13198853 .6047821 .2559967 .64100649 .30699159 .64100649 .33099366 .64100649 .37298585 .634964 .394989 .6007538 .37998963 .6007538 .33999635 .6007538 .33999635 .5557556 .33999635 .524765 .3639984 .5097656 .38598634 .5097656 .4019928 .5097656 .43199159 .51875308 .43199159 .5577545 .43199159 .6178589 .3880005 .6660156 .30499269 .6660156 .1769867 .6660156 .041992189 .5367584 .041992189 .31570436 .041992189 .048553468 .1579895-.022460938 .25099183-.022460938 .3619995-.022460938 .45700074 .07156372 .45700074 .2036438M.36698915 .20463562C.36698915 .15661621 .36698915 .10658264 .34999085 .0705719 .31999208 .010528564 .27398683 .0055389406 .25099183 .0055389406 .18798828 .0055389406 .1579895 .06556702 .1519928 .080566409 .13398743 .127594 .13398743 .2076416 .13398743 .22564698 .13398743 .30369569 .1659851 .40374757 .2559967 .40374757 .27198792 .40374757 .31799317 .40374757 .34899903 .34172059 .36698915 .30470277 .36698915 .2536621 .36698915 .20463562Z"/>
<path id="font_2_51" d="M.45700074 .16764832C.45700074 .20367432 .44599916 .24871826 .4079895 .29074098 .3889923 .31176759 .37298585 .32176209 .30899049 .36180116 .3809967 .39881898 .42999269 .4508667 .42999269 .51690676 .42999269 .6089783 .34098817 .6660156 .25 .6660156 .1499939 .6660156 .068984989 .5919647 .068984989 .49890138 .068984989 .48088075 .070999149 .43585206 .11299133 .38882447 .12399292 .3768158 .16099549 .35179139 .18598938 .33477784 .12799073 .30575563 .041992189 .24971009 .041992189 .15063477 .041992189 .044555665 .14399719-.022460938 .24899292-.022460938 .3619995-.022460938 .45700074 .060577394 .45700074 .16764832M.38598634 .51690676C.38598634 .45986939 .34700013 .41183473 .2869873 .3768158L.16299439 .4568634C.116989139 .4868927 .11299133 .5209198 .11299133 .53793337 .11299133 .5989685 .17799378 .64100649 .24899292 .64100649 .32199098 .64100649 .38598634 .588974 .38598634 .51690676M.40699769 .13162232C.40699769 .05757141 .33198548 .0055389406 .25 .0055389406 .1639862 .0055389406 .09199524 .06758118 .09199524 .15063477 .09199524 .2086792 .12399292 .2727356 .20899964 .31976319L.33198548 .24171448C.3600006 .22268677 .40699769 .19267273 .40699769 .13162232Z"/>
<path id="font_2_82" d="M.4189911 0V.0309906H.3869934C.29699708 .0309906 .2939911 .041992189 .2939911 .07902527V.64012148C.2939911 .6640167 .2939911 .6660156 .2709961 .6660156 .20899964 .60227969 .12098694 .60227969 .08898926 .60227969V.57128909C.10899353 .57128909 .16799927 .57128909 .21998596 .5972748V.07902527C.21998596 .042999269 .21699524 .0309906 .1269989 .0309906H.09498596V0C.12998963 .0029907227 .21699524 .0029907227 .25698854 .0029907227 .29699708 .0029907227 .38398744 .0029907227 .4189911 0Z"/>
<path id="font_2_121" d="M.45999146 .31976319C.45999146 .39982606 .45498658 .47988893 .41999818 .5539398 .37399293 .65000918 .2919922 .6660156 .25 .6660156 .18998719 .6660156 .116989139 .64001467 .07598877 .54693606 .04399109 .47789 .038986207 .39982606 .038986207 .31976319 .038986207 .24472046 .042999269 .15464783 .083999637 .07859802 .1269989-.0024719239 .19999695-.022460938 .24899292-.022460938 .30299378-.022460938 .3789978-.0014648438 .4229889 .09359741 .45498658 .16265869 .45999146 .2407074 .45999146 .31976319M.3769989 .3317871C.3769989 .25672914 .3769989 .18867493 .3659973 .12461853 .35099793 .029556275 .2939911-.00047302247 .24899292-.00047302247 .20999146-.00047302247 .15098572 .024551392 .1329956 .12062073 .12199402 .18066406 .12199402 .2727356 .12199402 .3317871 .12199402 .39582826 .12199402 .46188355 .12998963 .5159149 .14898682 .63500979 .22399903 .64401248 .24899292 .64401248 .28199769 .64401248 .34799195 .6259918 .36698915 .52693179 .3769989 .47088624 .3769989 .39482118 .3769989 .3317871Z"/>
</defs>
<path transform="matrix(1.00006,0,0,-1,16.23108,115.057)" stroke-width=".3985" stroke-linecap="butt" stroke-miterlimit="10" stroke-linejoin="miter" fill="none" stroke="#00aeef" d="M0 25.51108H183.68503M0 31.88885H183.68503M0 38.26663H183.68503M0 44.6444H183.68503M0 51.02217H183.68503M0 57.39995H183.68503M0 63.77773H183.68503M0 70.15549H183.68503M0 76.53326H183.68503M0 82.91104H183.68503M0 89.2888H183.68503M0 95.66658H183.68503M0 102.0439H183.68503M0 25.51108V102.04436M15.30708 25.51108V102.04436M30.61417 25.51108V102.04436M45.92125 25.51108V102.04436M61.22833 25.51108V102.04436M76.53542 25.51108V102.04436M91.8425 25.51108V102.04436M107.14958 25.51108V102.04436M122.45668 25.51108V102.04436M137.76378 25.51108V102.04436M153.07086 25.51108V102.04436M168.37795 25.51108V102.04436M183.67964 25.51108V102.04436M183.68503 102.04436"/>
<path transform="matrix(1.00006,0,0,-1,16.23108,115.057)" stroke-width=".3985" stroke-linecap="butt" stroke-miterlimit="10" stroke-linejoin="miter" fill="none" stroke="#000000" d="M0 20.40886H190.3423"/>
<path transform="matrix(1.00006,0,0,-1,206.5848,94.64814)" d="M.797 0C-.19925 .19925-1.19551 .59775-2.39102 1.29512-1.19551 .3985-1.19551-.3985-2.39102-1.29512-1.19551-.59775-.19925-.19925 .797 0Z"/>
<path transform="matrix(1.00006,0,0,-1,206.5848,94.64814)" stroke-width=".3985" stroke-linecap="butt" stroke-linejoin="round" fill="none" stroke="#000000" d="M.797 0C-.19925 .19925-1.19551 .59775-2.39102 1.29512-1.19551 .3985-1.19551-.3985-2.39102-1.29512-1.19551-.59775-.19925-.19925 .797 0Z"/>
<use data-text="t" xlink:href="#font_1_1" transform="matrix(9.963197,0,0,-9.9626,211.10077,97.712)"/>
<path transform="matrix(1.00006,0,0,-1,16.23108,115.057)" stroke-width=".79701" stroke-linecap="butt" stroke-miterlimit="10" stroke-linejoin="miter" fill="none" stroke="#000000" d="M0 25.51108V101.75774"/>
<path transform="matrix(0,-1,-1.00006,-0,16.23108,13.299263)" d="M1.0361 0C-.25902 .25902-1.55415 .77707-3.1083 1.68365-1.55415 .51805-1.55415-.51805-3.1083-1.68365-1.55415-.77707-.25902-.25902 1.0361 0Z"/>
<path transform="matrix(0,-1,-1.00006,-0,16.23108,13.299263)" stroke-width=".79701" stroke-linecap="butt" stroke-linejoin="round" fill="none" stroke="#000000" d="M1.0361 0C-.25902 .25902-1.55415 .77707-3.1083 1.68365-1.55415 .51805-1.55415-.51805-3.1083-1.68365-1.55415-.77707-.25902-.25902 1.0361 0Z"/>
<use data-text="y" xlink:href="#font_1_2" transform="matrix(9.963197,0,0,-9.9626,13.609924,6.208)"/>
<path transform="matrix(1.00006,0,0,-1,16.23108,115.057)" stroke-width=".3985" stroke-linecap="butt" stroke-miterlimit="10" stroke-linejoin="miter" fill="none" stroke="#000000" d="M0 25.51108-4.59216 24.23552 4.59216 22.95996 0 21.68442"/>
<path transform="matrix(1.00006,0,0,-1,16.23108,115.057)" stroke-width=".79701" stroke-linecap="butt" stroke-miterlimit="10" stroke-linejoin="miter" fill="none" stroke="#000000" d="M0 20.40886V21.68442"/>
<path transform="matrix(1.00006,0,0,-1,16.23108,115.057)" stroke-width=".3985" stroke-linecap="butt" stroke-miterlimit="10" stroke-linejoin="miter" fill="none" stroke="#000000" d="M30.61417 20.53642V20.28131"/>
<use data-text="2" xlink:href="#font_2_107" transform="matrix(9.963197,0,0,-9.9626,44.355768,104.931)"/>
<path transform="matrix(1.00006,0,0,-1,16.23108,115.057)" stroke-width=".3985" stroke-linecap="butt" stroke-miterlimit="10" stroke-linejoin="miter" fill="none" stroke="#000000" d="M61.22833 20.53642V20.28131"/>
<use data-text="4" xlink:href="#font_2_57" transform="matrix(9.963197,0,0,-9.9626,74.972599,105.04)"/>
<path transform="matrix(1.00006,0,0,-1,16.23108,115.057)" stroke-width=".3985" stroke-linecap="butt" stroke-miterlimit="10" stroke-linejoin="miter" fill="none" stroke="#000000" d="M91.8425 20.53642V20.28131"/>
<use data-text="6" xlink:href="#font_2_101" transform="matrix(9.963197,0,0,-9.9626,105.58843,104.931)"/>
<path transform="matrix(1.00006,0,0,-1,16.23108,115.057)" stroke-width=".3985" stroke-linecap="butt" stroke-miterlimit="10" stroke-linejoin="miter" fill="none" stroke="#000000" d="M122.45668 20.53642V20.28131"/>
<use data-text="8" xlink:href="#font_2_51" transform="matrix(9.963197,0,0,-9.9626,136.20429,104.931)"/>
<path transform="matrix(1.00006,0,0,-1,16.23108,115.057)" stroke-width=".3985" stroke-linecap="butt" stroke-miterlimit="10" stroke-linejoin="miter" fill="none" stroke="#000000" d="M153.07086 20.53642V20.28131"/>
<use data-text="1" xlink:href="#font_2_82" transform="matrix(9.963197,0,0,-9.9626,164.32897,104.931)"/>
<use data-text="0" xlink:href="#font_2_121" transform="matrix(9.963197,0,0,-9.9626,169.31056,104.931)"/>
<path transform="matrix(1.00006,0,0,-1,16.23108,115.057)" stroke-width=".3985" stroke-linecap="butt" stroke-miterlimit="10" stroke-linejoin="miter" fill="none" stroke="#000000" d="M183.68503 20.53642V20.28131"/>
<use data-text="1" xlink:href="#font_2_82" transform="matrix(9.963197,0,0,-9.9626,194.94579,104.931)"/>
<use data-text="2" xlink:href="#font_2_107" transform="matrix(9.963197,0,0,-9.9626,199.92739,104.931)"/>
<path transform="matrix(1.00006,0,0,-1,16.23108,115.057)" stroke-width=".3985" stroke-linecap="butt" stroke-miterlimit="10" stroke-linejoin="miter" fill="none" stroke="#000000" d="M1.53079 25.51108H-1.53056"/>
<use data-text="2" xlink:href="#font_2_107" transform="matrix(9.963197,0,0,-9.9626,1.2171784,92.754)"/>
<use data-text="0" xlink:href="#font_2_121" transform="matrix(9.963197,0,0,-9.9626,6.1987764,92.754)"/>
<path transform="matrix(1.00006,0,0,-1,16.23108,115.057)" stroke-width=".3985" stroke-linecap="butt" stroke-miterlimit="10" stroke-linejoin="miter" fill="none" stroke="#000000" d="M1.53079 51.02217H-1.53056"/>
<use data-text="4" xlink:href="#font_2_57" transform="matrix(9.963197,0,0,-9.9626,1.2171784,67.298007)"/>
<use data-text="0" xlink:href="#font_2_121" transform="matrix(9.963197,0,0,-9.9626,6.1987764,67.298007)"/>
<path transform="matrix(1.00006,0,0,-1,16.23108,115.057)" stroke-width=".3985" stroke-linecap="butt" stroke-miterlimit="10" stroke-linejoin="miter" fill="none" stroke="#000000" d="M1.53079 76.53326H-1.53056"/>
<use data-text="6" xlink:href="#font_2_101" transform="matrix(9.963197,0,0,-9.9626,1.2171784,41.732004)"/>
<use data-text="0" xlink:href="#font_2_121" transform="matrix(9.963197,0,0,-9.9626,6.1987764,41.732004)"/>
<path transform="matrix(1.00006,0,0,-1,16.23108,115.057)" stroke-width=".3985" stroke-linecap="butt" stroke-miterlimit="10" stroke-linejoin="miter" fill="none" stroke="#000000" d="M1.53079 102.04436H-1.53056"/>
<use data-text="8" xlink:href="#font_2_51" transform="matrix(9.963197,0,0,-9.9626,1.2171784,16.221)"/>
<use data-text="0" xlink:href="#font_2_121" transform="matrix(9.963197,0,0,-9.9626,6.1987764,16.221)"/>
<path transform="matrix(1.00006,0,0,-1,16.23108,115.057)" stroke-width="1.19553" stroke-linecap="butt" stroke-miterlimit="10" stroke-linejoin="miter" fill="none" stroke="#ff0000" d="M0 38.26663C0 38.26663 2.07364 38.32549 2.87007 38.39702 3.6665 38.46852 4.94371 38.63997 5.74014 38.78203 6.53658 38.9241 7.81378 39.20935 8.61021 39.42088 9.40665 39.63242 10.68387 40.02776 11.4803 40.3066 12.27673 40.58545 13.55394 41.08717 14.35037 41.43062 15.1468 41.77406 16.42401 42.37708 17.22044 42.78189 18.01689 43.18669 19.2941 43.88606 20.09053 44.34814 20.88696 44.81023 22.16417 45.59706 22.9606 46.11223 23.75705 46.6274 25.03426 47.49776 25.83069 48.06107 26.62712 48.62437 27.90433 49.56644 28.70076 50.17216 29.49721 50.77788 30.77441 51.7842 31.57085 52.42673 32.36728 53.06926 33.6445 54.12999 34.44093 54.8031 35.23735 55.4762 36.51459 56.58075 37.31102 57.27795 38.10745 57.97517 39.38466 59.11348 40.18109 59.82803 40.97752 60.5426 42.25473 61.703 43.05116 62.42798 43.8476 63.15298 45.12482 64.32477 45.92125 65.05327 46.71768 65.78178 47.99489 66.95357 48.79132 67.67854 49.58775 68.40355 50.86496 69.56393 51.66139 70.27849 52.45784 70.99304 53.73503 72.13138 54.53148 72.82857 55.32791 73.52577 56.60512 74.63034 57.40155 75.30345 58.198 75.97655 59.47519 77.03728 60.27164 77.67981 61.06807 78.32234 62.34528 79.32864 63.14171 79.93437 63.93814 80.5401 65.21535 81.48218 66.0118 82.04547 66.80823 82.60878 68.08545 83.47914 68.88188 83.9943 69.6783 84.50946 70.95552 85.29631 71.75195 85.75839 72.54839 86.22047 73.8256 86.91985 74.62204 87.32466 75.41847 87.72946 76.69568 88.33247 77.49211 88.67592 78.28854 89.01936 79.56575 89.52109 80.36218 89.79993 81.15862 90.07878 82.43584 90.47412 83.23227 90.68565 84.0287 90.89719 85.30591 91.18245 86.10234 91.3245 86.89877 91.46655 88.17598 91.63802 88.97243 91.70953 89.76886 91.78104 91.04607 91.83992 91.8425 91.83992 92.63893 91.83992 93.91614 91.78104 94.71259 91.70953 95.50902 91.63802 96.78622 91.46655 97.58266 91.3245 98.37909 91.18245 99.6563 90.89719 100.45273 90.68565 101.24916 90.47412 102.5264 90.07878 103.32283 89.79993 104.11925 89.52109 105.39647 89.01936 106.1929 88.67592 106.98933 88.33247 108.26654 87.72946 109.06297 87.32466 109.8594 86.91985 111.13663 86.22047 111.93306 85.75839 112.72949 85.29631 114.0067 84.50946 114.80313 83.9943 115.59956 83.47914 116.87677 82.60878 117.67322 82.04547 118.46965 81.48218 119.74686 80.5401 120.54329 79.93437 121.33972 79.32864 122.61693 78.32234 123.41338 77.67981 124.20981 77.03728 125.48701 75.97655 126.28345 75.30345 127.07988 74.63034 128.35709 73.52577 129.15354 72.82857 129.94997 72.13138 131.22718 70.99304 132.0236 70.27849 132.82004 69.56393 134.09725 68.40355 134.89368 67.67854 135.69011 66.95357 136.96735 65.78178 137.76378 65.05327 138.5602 64.32477 139.83742 63.15298 140.63385 62.42798 141.43029 61.703 142.70749 60.5426 143.50392 59.82803 144.30036 59.11348 145.57756 57.97517 146.374 57.27795 147.17044 56.58075 148.44765 55.4762 149.24408 54.8031 150.04051 54.12999 151.31772 53.06926 152.11415 52.42673 152.9106 51.7842 154.1878 50.77788 154.98424 50.17216 155.78067 49.56644 157.05788 48.62437 157.85431 48.06107 158.65076 47.49776 159.92797 46.6274 160.7244 46.11223 161.52083 45.59706 162.79804 44.81023 163.59447 44.34814 164.3909 43.88606 165.66812 43.18669 166.46456 42.78189 167.26099 42.37708 168.5382 41.77406 169.33463 41.43062 170.13106 41.08717 171.40828 40.58545 172.20471 40.3066 173.00113 40.02776 174.27837 39.63242 175.0748 39.42088 175.87123 39.20935 177.14844 38.9241 177.94487 38.78203 178.7413 38.63997 180.01851 38.46852 180.81494 38.39702 181.61139 38.32549 183.68503 38.26663 183.68503 38.26663"/>
</svg>
