<svg xmlns="http://www.w3.org/2000/svg" xmlns:xlink="http://www.w3.org/1999/xlink" version="1.1" width="113" height="115" viewBox="0 0 113 115">
<defs>
<path id="font_1_1" d="M.45498658 .5001831C.45498658 .56614688 .43699647 .7050781 .33499146 .7050781 .19599915 .7050781 .041992189 .42323304 .041992189 .19425965 .041992189 .100250247 .070999149-.0107421879 .1619873-.0107421879 .30299378-.0107421879 .45498658 .27627564 .45498658 .5001831M.147995 .36328126C.16499329 .42723084 .18499756 .5071869 .22499085 .57814028 .2519989 .6271057 .2889862 .68307498 .33399964 .68307498 .3829956 .68307498 .3889923 .6191101 .3889923 .56214907 .3889923 .5131836 .3809967 .46220399 .35699464 .36328126H.147995M.34799195 .3312683C.33699037 .28527833 .31599427 .2002716 .27799989 .12826538 .24299622 .060256959 .20498657 .011245728 .1619873 .011245728 .1289978 .011245728 .10798645 .040252687 .10798645 .133255 .10798645 .17526245 .11399841 .23326111 .13999939 .3312683H.34799195Z"/>
<path id="font_1_5" d="M.48599244 .38136292C.48999024 .39537049 .48999024 .39736939 .48999024 .40437318 .48999024 .42237855 .47599793 .43138124 .46099855 .43138124 .45098878 .43138124 .43499757 .42536927 .42599488 .41036988 .42399598 .405365 .41600038 .37435914 .4119873 .35635377 .40499879 .33035279 .397995 .30334474 .3919983 .27633668L.34700013 .09628296C.34298707 .08126831 .2999878 .011245728 .23399353 .011245728 .18299866 .011245728 .17199707 .055267335 .17199707 .0922699 .17199707 .1382904 .18899536 .20030213 .22299195 .28833009 .23899842 .3293457 .24299622 .3403473 .24299622 .36035157 .24299622 .405365 .21099854 .4423828 .16099549 .4423828 .06599426 .4423828 .0289917 .29733277 .0289917 .28833009 .0289917 .27833558 .038986207 .27833558 .040985109 .27833558 .050994874 .27833558 .051986696 .28033448 .056991579 .29634095 .083999637 .3903656 .12399292 .42037965 .1579895 .42037965 .1659851 .42037965 .18299866 .42037965 .18299866 .3883667 .18299866 .36335755 .17298889 .3373413 .1659851 .31834413 .12599182 .21231079 .10798645 .1552887 .10798645 .10827637 .10798645 .019256592 .17098999-.0107421879 .22999573-.0107421879 .2689972-.0107421879 .30299378 .0062561037 .33099366 .03425598 .31799317-.017745972 .30599977-.06674194 .2659912-.11973572 .23999024-.15385437 .20199585-.18309021 .1559906-.18309021 .14199829-.18309021 .09700012-.18005371 .07998657-.14074707 .09599304-.14074707 .10899353-.14074707 .12298584-.1287384 .1329956-.11973572 .14299011-.10673523 .14299011-.08773804 .14299011-.056747438 .115997318-.052734376 .10598755-.052734376 .08299255-.052734376 .049987794-.068740848 .049987794-.11773682 .049987794-.16796875 .09399414-.20507813 .1559906-.20507813 .25898744-.20507813 .3619995-.11373901 .3899994-.00074768069L.48599244 .38136292Z"/>
<path id="font_1_2" d="M.70799258 .23292542C.70999148 .23791504 .71299746 .24491883 .71299746 .24691773 .71299746 .24790955 .71299746 .2579193 .70098879 .2579193 .69200137 .2579193 .6899872 .25190736 .6879883 .24591065 .6230011 .097961429 .58599856 .0309906 .4149933 .0309906H.2689972C.25498963 .0309906 .25299073 .0309906 .24699402 .03199768 .23699951 .032989503 .23399353 .033996583 .23399353 .041992189 .23399353 .04498291 .23399353 .04698181 .23899842 .06498718L.30699159 .33789063H.4059906C.4909973 .33789063 .4909973 .31689454 .4909973 .29190064 .4909973 .28489686 .4909973 .27290345 .48399354 .24291992 .48199464 .23791504 .48098756 .23492432 .48098756 .23191834 .48098756 .22692871 .4850006 .220932 .49398805 .220932 .5019989 .220932 .5049896 .22592163 .5089874 .24092102L.56599429 .47477723C.56599429 .48077394 .5609894 .48576356 .55400088 .48576356 .54499819 .48576356 .54299929 .47976686 .5399933 .4677887 .5189972 .39186097 .5009918 .36888124 .40899659 .36888124H.31498719L.375 .60964968C.38398744 .64460757 .3849945 .64860537 .42900086 .64860537H.56999209C.69200137 .64860537 .7220001 .61964419 .7220001 .5377197 .7220001 .51374819 .7220001 .51174929 .71798709 .48477174 .71798709 .47877503 .71699526 .4717865 .71699526 .46678163 .71699526 .461792 .7200012 .45480348 .72898867 .45480348 .73999026 .45480348 .7409973 .46080018 .7429962 .47976686L.7630005 .65260317C.7659912 .6796112 .7609863 .6796112 .73599246 .6796112H.23098755C.21099854 .6796112 .20098877 .6796112 .20098877 .65960696 .20098877 .64860537 .20999146 .64860537 .22898865 .64860537 .2659912 .64860537 .2939911 .64860537 .2939911 .6306305 .2939911 .6266327 .2939911 .6246338 .2889862 .6066437L.15699768 .07797241C.14698792 .038986207 .14498902 .0309906 .06599426 .0309906 .04899597 .0309906 .037994386 .0309906 .037994386 .011993408 .037994386 0 .04699707 0 .06599426 0H.58499148C.60798647 0 .60899356 .0009918213 .6159973 .016998291L.70799258 .23292542Z"/>
<path id="font_1_3" d="M.30299378 .3244629H.3999939C.47499085 .3244629 .48298646 .30848695 .48298646 .27954103 .48298646 .2725525 .48298646 .26057435 .47599793 .2306366 .47399903 .22564698 .47299195 .22164917 .47299195 .21965027 .47299195 .21166992 .47898866 .20767212 .4850006 .20767212 .49499513 .20767212 .49499513 .21066284 .5 .2286377L.5549927 .44551087C.55799868 .45651246 .55799868 .45851136 .55799868 .46151734 .55799868 .46351625 .55599978 .47251893 .54599 .47251893 .5359955 .47251893 .5349884 .46751405 .5309906 .45150758 .5099945 .37347413 .4869995 .35546876 .4019928 .35546876H.31098939L.375 .6095886C.38398744 .64460757 .3849945 .64860537 .42900086 .64860537H.5609894C.6839905 .64860537 .70700076 .6156006 .70700076 .53855898 .70700076 .5155487 .70700076 .51153567 .70399478 .4845276 .70199587 .4715271 .70199587 .46951295 .70199587 .46652223 .70199587 .46151734 .7049866 .45451356 .71398928 .45451356 .72499087 .45451356 .7259979 .46051026 .7279968 .4795227L.7480011 .65260317C.7509918 .6796112 .74598696 .6796112 .72099307 .6796112H.23098755C.21099854 .6796112 .20098877 .6796112 .20098877 .65960696 .20098877 .64860537 .20999146 .64860537 .22898865 .64860537 .2659912 .64860537 .2939911 .64860537 .2939911 .6306 .2939911 .6266022 .2939911 .6246033 .2889862 .60658267L.15699768 .07791138C.14698792 .038970949 .14498902 .0309906 .06599426 .0309906 .04899597 .0309906 .037994386 .0309906 .037994386 .011993408 .037994386 0 .049987794 0 .052993776 0 .08198547 0 .1559906 .0029907227 .18499756 .0029907227 .21798706 .0029907227 .30099488 0 .33399964 0 .34298707 0 .35499574 0 .35499574 .018997193 .35499574 .026992798 .34899903 .0289917 .34899903 .02999878 .34599305 .0309906 .34399415 .0309906 .32099916 .0309906 .29899598 .0309906 .2939911 .0309906 .2689972 .032989503 .23999024 .035980226 .23699951 .039978029 .23699951 .052947999 .23699951 .0549469 .23699951 .060943605 .24099732 .075912479L.30299378 .3244629Z"/>
<path id="font_1_4" d="M.7599945 .69506838C.7599945 .69807437 .7579956 .7050781 .7489929 .7050781 .74598696 .7050781 .7449951 .70407107 .73399356 .69306948L.6639862 .61598208C.6549988 .6300049 .60899356 .7050781 .49798585 .7050781 .2749939 .7050781 .049987794 .4837799 .049987794 .25144959 .049987794 .09249878 .16099549-.022460938 .32299806-.022460938 .36698915-.022460938 .4119873-.013473511 .44799806 .0015258789 .49798585 .021530152 .5169983 .042526246 .5349884 .06251526 .5439911 .037521364 .56999209 .0005340576 .5799866 .0005340576 .58499148 .0005340576 .58699038 .0035247803 .58699038 .0045318605 .58898928 .0065307619 .598999 .044525148 .60398867 .06550598L.6230011 .14248657C.6269989 .15948487 .6319885 .1764679 .6359863 .19346619 .6469879 .2384491 .647995 .240448 .7049866 .24145508 .70999148 .24145508 .72099307 .2424469 .72099307 .26145936 .72099307 .26844789 .71598818 .27246095 .70799258 .27246095 .68499758 .27246095 .6259918 .26945497 .6029968 .26945497 .57199099 .26945497 .49398805 .27246095 .46299745 .27246095 .45399476 .27246095 .44198609 .27246095 .44198609 .25245667 .44198609 .24145508 .44999696 .24145508 .47200013 .24145508 .47299195 .24145508 .5019989 .24145508 .5249939 .23945618 .5509949 .2364502 .55599978 .23345948 .55599978 .22045899 .55599978 .2114563 .54499819 .16647339 .5349884 .12948609 .5069885 .01953125 .3769989 .008529663 .34199525 .008529663 .24598694 .008529663 .14099121 .06550598 .14099121 .21846009 .14099121 .24945069 .15098572 .41467286 .2559967 .5448761 .30999757 .6129761 .40699769 .67407229 .5059967 .67407229 .60798647 .67407229 .6669922 .59695437 .6669922 .48077394 .6669922 .44070436 .6639862 .43971253 .6639862 .4296875 .6639862 .41967774 .6749878 .41967774 .67900088 .41967774 .69200137 .41967774 .69200137 .42167665 .69699099 .43971253L.7599945 .69506838Z"/>
</defs>
<path transform="matrix(1.00005,0,0,-1.00005,50.118547,65.44362)" stroke-width=".3985" stroke-linecap="butt" stroke-miterlimit="10" stroke-linejoin="miter" fill="none" stroke="#00aeef" d="M-47.62242-47.62242H47.62242M-47.62242-35.71681H47.62242M-47.62242-23.8112H47.62242M-47.62242-11.9056H47.62242M-47.62242 0H47.62242M-47.62242 11.9056H47.62242M-47.62242 23.8112H47.62242M-47.62242 35.71681H47.62242M-47.62242 47.61823H47.62242M-47.62242-47.62242V47.62242M-35.71681-47.62242V47.62242M-23.8112-47.62242V47.62242M-11.9056-47.62242V47.62242M0-47.62242V47.62242M11.9056-47.62242V47.62242M23.8112-47.62242V47.62242M35.71681-47.62242V47.62242M47.61823-47.62242V47.62242M47.62242 47.62242"/>
<path transform="matrix(1.00005,0,0,-1.00005,50.118547,65.44362)" stroke-width=".79701" stroke-linecap="butt" stroke-miterlimit="10" stroke-linejoin="miter" fill="none" stroke="#000000" d="M-47.62242 0H52.14061"/>
<path transform="matrix(1.00005,0,0,-1.00005,102.261768,65.44362)" d="M1.0361 0C-.25902 .25902-1.55415 .77707-3.1083 1.68365-1.55415 .51805-1.55415-.51805-3.1083-1.68365-1.55415-.77707-.25902-.25902 1.0361 0Z"/>
<path transform="matrix(1.00005,0,0,-1.00005,102.261768,65.44362)" stroke-width=".79701" stroke-linecap="butt" stroke-linejoin="round" fill="none" stroke="#000000" d="M1.0361 0C-.25902 .25902-1.55415 .77707-3.1083 1.68365-1.55415 .51805-1.55415-.51805-3.1083-1.68365-1.55415-.77707-.25902-.25902 1.0361 0Z"/>
<use data-text="&#x03b8;" xlink:href="#font_1_1" transform="matrix(9.963098,0,0,-9.963098,107.415409,68.902797)"/>
<path transform="matrix(1.00005,0,0,-1.00005,50.118547,65.44362)" stroke-width=".79701" stroke-linecap="butt" stroke-miterlimit="10" stroke-linejoin="miter" fill="none" stroke="#000000" d="M0-47.62242V52.14061"/>
<path transform="matrix(0,-1.00005,-1.00005,-0,50.118547,13.300404)" d="M1.0361 0C-.25902 .25902-1.55415 .77707-3.1083 1.68365-1.55415 .51805-1.55415-.51805-3.1083-1.68365-1.55415-.77707-.25902-.25902 1.0361 0Z"/>
<path transform="matrix(0,-1.00005,-1.00005,-0,50.118547,13.300404)" stroke-width=".79701" stroke-linecap="butt" stroke-linejoin="round" fill="none" stroke="#000000" d="M1.0361 0C-.25902 .25902-1.55415 .77707-3.1083 1.68365-1.55415 .51805-1.55415-.51805-3.1083-1.68365-1.55415-.77707-.25902-.25902 1.0361 0Z"/>
<use data-text="y" xlink:href="#font_1_5" transform="matrix(9.963098,0,0,-9.963098,47.497415,6.2096598)"/>
<path transform="matrix(1.00005,0,0,-1.00005,50.118547,65.44362)" stroke-width="1.19553" stroke-linecap="butt" stroke-miterlimit="10" stroke-linejoin="miter" fill="none" stroke="#ff0000" d="M-47.62242 0C-47.62242 0-44.75516 9.02121-43.65393 12.32487-42.5527 15.62852-40.78668 20.8484-39.68546 23.81047-38.58423 26.77255-36.81822 31.25491-35.717 33.67343-34.61577 36.09196-32.84975 39.53145-31.74852 41.24161-30.6473 42.95177-28.88127 45.11385-27.78004 45.99905-26.67882 46.88428-24.9128 47.62169-23.81157 47.62169-22.71033 47.62169-20.94432 46.88417-19.8431 45.99905-18.74185 45.11394-16.97585 42.95229-15.87462 41.24234-14.77338 39.5324-13.00737 36.09323-11.90614 33.6749-10.8049 31.25655-9.0389 26.77461-7.93765 23.81264-6.83643 20.85068-5.07042 15.6307-3.96918 12.32704-2.86795 9.0234-1.10194 3.42227-.0007 .00217 1.1005-3.41791 2.86649-9.01904 3.96773-12.3227 5.06897-15.62634 6.83498-20.84622 7.9362-23.8083 9.03743-26.77036 10.80345-31.25262 11.90468-33.67126 13.0059-36.0899 14.77193-39.5298 15.87315-41.24016 16.97438-42.9505 18.7404-45.1129 19.84163-45.99832 20.94286-46.88376 22.70888-47.62149 23.8101-47.62169 24.91133-47.62189 26.67735-46.8847 27.77858-45.99979 28.8798-45.11485 30.64583-42.95364 31.74706-41.24379 32.8483-39.53394 34.6143-36.09467 35.71553-33.67635 36.81677-31.25801 38.58278-26.77599 39.684-23.8141 40.78525-20.85223 42.55125-15.6328 43.65248-12.32924 44.75372-9.02567 47.62097-.00433 47.62097-.00433"/>
<path transform="matrix(1.00005,0,0,-1.00005,50.118547,65.44362)" d="M-38.43028 23.81139C-38.43028 24.50467-38.99231 25.06668-39.6856 25.06668-40.37888 25.06668-40.9409 24.50467-40.9409 23.81139-40.9409 23.1181-40.37888 22.55608-39.6856 22.55608-38.99231 22.55608-38.43028 23.1181-38.43028 23.81139ZM-39.6856 23.81139" fill="#0000ff"/>
<path transform="matrix(1.00005,0,0,-1.00005,50.118547,65.44362)" stroke-width=".3985" stroke-linecap="butt" stroke-miterlimit="10" stroke-linejoin="miter" fill="none" stroke="#0000ff" d="M-38.43028 23.81139C-38.43028 24.50467-38.99231 25.06668-39.6856 25.06668-40.37888 25.06668-40.9409 24.50467-40.9409 23.81139-40.9409 23.1181-40.37888 22.55608-39.6856 22.55608-38.99231 22.55608-38.43028 23.1181-38.43028 23.81139ZM-39.6856 23.81139"/>
<path transform="matrix(1.00005,0,0,-1.00005,50.118547,65.44362)" d="M-37.49379 19.41116H-27.57256V28.211579H-37.49379Z" fill="#ffffff"/>
<use data-text="E" xlink:href="#font_1_2" transform="matrix(9.963098,0,0,-9.963098,13.618721,45.0356)" fill="#0000ff"/>
<path transform="matrix(1.00005,0,0,-1.00005,50.118547,65.44362)" d="M1.2553 0C1.2553 .69328 .69328 1.2553 0 1.2553-.69328 1.2553-1.2553 .69328-1.2553 0-1.2553-.69328-.69328-1.2553 0-1.2553 .69328-1.2553 1.2553-.69328 1.2553 0ZM0 0" fill="#0000ff"/>
<path transform="matrix(1.00005,0,0,-1.00005,50.118547,65.44362)" stroke-width=".3985" stroke-linecap="butt" stroke-miterlimit="10" stroke-linejoin="miter" fill="none" stroke="#0000ff" d="M1.2553 0C1.2553 .69328 .69328 1.2553 0 1.2553-.69328 1.2553-1.2553 .69328-1.2553 0-1.2553-.69328-.69328-1.2553 0-1.2553 .69328-1.2553 1.2553-.69328 1.2553 0ZM0 0"/>
<path transform="matrix(1.00005,0,0,-1.00005,50.118547,65.44362)" d="M-11.9747-10.99222H-2.1918V-2.1918H-11.9747Z" fill="#ffffff"/>
<use data-text="F" xlink:href="#font_1_3" transform="matrix(9.963098,0,0,-9.963098,39.14,75.44012)" fill="#0000ff"/>
<path transform="matrix(1.00005,0,0,-1.00005,50.118547,65.44362)" d="M36.9724-33.67442C36.9724-32.98114 36.41037-32.41913 35.71709-32.41913 35.0238-32.41913 34.46178-32.98114 34.46178-33.67442 34.46178-34.3677 35.0238-34.92973 35.71709-34.92973 36.41037-34.92973 36.9724-34.3677 36.9724-33.67442ZM35.71709-33.67442" fill="#0000ff"/>
<path transform="matrix(1.00005,0,0,-1.00005,50.118547,65.44362)" stroke-width=".3985" stroke-linecap="butt" stroke-miterlimit="10" stroke-linejoin="miter" fill="none" stroke="#0000ff" d="M36.9724-33.67442C36.9724-32.98114 36.41037-32.41913 35.71709-32.41913 35.0238-32.41913 34.46178-32.98114 34.46178-33.67442 34.46178-34.3677 35.0238-34.92973 35.71709-34.92973 36.41037-34.92973 36.9724-34.3677 36.9724-33.67442ZM35.71709-33.67442"/>
<path transform="matrix(1.00005,0,0,-1.00005,50.118547,65.44362)" d="M22.70323-38.07465H32.52899V-29.274231H22.70323Z" fill="#ffffff"/>
<use data-text="G" xlink:href="#font_1_4" transform="matrix(9.963098,0,0,-9.963098,73.81973,102.52347)" fill="#0000ff"/>
</svg>
