<svg xmlns="http://www.w3.org/2000/svg" xmlns:xlink="http://www.w3.org/1999/xlink" version="1.1" width="226" height="103" viewBox="0 0 226 103">
<defs>
<path id="font_1_1" d="M.20599365 .3996582H.2999878C.31999208 .3996582 .32998658 .3996582 .32998658 .41966249 .32998658 .43066407 .31999208 .43066407 .3019867 .43066407H.21398926C.25 .5724945 .25498963 .59246829 .25498963 .59846499 .25498963 .61546328 .24299622 .62545779 .22599793 .62545779 .22299195 .62545779 .19499207 .62446597 .18598938 .58947756L.14698792 .43066407H.052993776C.032989503 .43066407 .022994996 .43066407 .022994996 .4116516 .022994996 .3996582 .0309906 .3996582 .050994874 .3996582H.13899231C.066986087 .11608887 .06298828 .099121097 .06298828 .08114624 .06298828 .02722168 .100997928-.0107421879 .15499878-.0107421879 .25698854-.0107421879 .31399537 .13505554 .31399537 .14305115 .31399537 .1530304 .30599977 .1530304 .3019867 .1530304 .29299928 .1530304 .2919922 .15003968 .2869873 .13905335 .24398804 .035217287 .19099427 .011245728 .15699768 .011245728 .13598633 .011245728 .12599182 .024230957 .12599182 .057174684 .12599182 .08114624 .12799073 .088134769 .13198853 .10510254L.20599365 .3996582Z"/>
<path id="font_1_2" d="M.48599244 .38136292C.48999024 .39537049 .48999024 .39736939 .48999024 .40437318 .48999024 .42237855 .47599793 .43138124 .46099855 .43138124 .45098878 .43138124 .43499757 .42536927 .42599488 .41036988 .42399598 .405365 .41600038 .37435914 .4119873 .35635377 .40499879 .33035279 .397995 .30334474 .3919983 .27633668L.34700013 .09628296C.34298707 .08126831 .2999878 .011245728 .23399353 .011245728 .18299866 .011245728 .17199707 .055267335 .17199707 .0922699 .17199707 .1382904 .18899536 .20030213 .22299195 .28833009 .23899842 .3293457 .24299622 .3403473 .24299622 .36035157 .24299622 .405365 .21099854 .4423828 .16099549 .4423828 .06599426 .4423828 .0289917 .29733277 .0289917 .28833009 .0289917 .27833558 .038986207 .27833558 .040985109 .27833558 .050994874 .27833558 .051986696 .28033448 .056991579 .29634095 .083999637 .3903656 .12399292 .42037965 .1579895 .42037965 .1659851 .42037965 .18299866 .42037965 .18299866 .3883667 .18299866 .36335755 .17298889 .3373413 .1659851 .31834413 .12599182 .21231079 .10798645 .1552887 .10798645 .10827637 .10798645 .019256592 .17098999-.0107421879 .22999573-.0107421879 .2689972-.0107421879 .30299378 .0062561037 .33099366 .03425598 .31799317-.017745972 .30599977-.06674194 .2659912-.11973572 .23999024-.15385437 .20199585-.18309021 .1559906-.18309021 .14199829-.18309021 .09700012-.18005371 .07998657-.14074707 .09599304-.14074707 .10899353-.14074707 .12298584-.1287384 .1329956-.11973572 .14299011-.10673523 .14299011-.08773804 .14299011-.056747438 .115997318-.052734376 .10598755-.052734376 .08299255-.052734376 .049987794-.068740848 .049987794-.11773682 .049987794-.16796875 .09399414-.20507813 .1559906-.20507813 .25898744-.20507813 .3619995-.11373901 .3899994-.00074768069L.48599244 .38136292Z"/>
<path id="font_2_107" d="M.44898988 .17396546H.42399598C.4189911 .14398194 .4119873 .099990848 .4019928 .084991458 .394989 .07699585 .32899476 .07699585 .30699159 .07699585H.1269989L.23298645 .17996216C.3889923 .31803895 .44898988 .37210084 .44898988 .47216798 .44898988 .5860901 .35899354 .6660156 .23699951 .6660156 .12399292 .6660156 .049987794 .57411196 .049987794 .48516847 .049987794 .4291687 .099990848 .4291687 .102996829 .4291687 .11999512 .4291687 .15499878 .44117738 .15499878 .48217774 .15499878 .5081787 .13699341 .5341797 .101989749 .5341797 .09399414 .5341797 .09199524 .5341797 .08898926 .5331726 .11199951 .59806826 .1659851 .63500979 .22399903 .63500979 .31498719 .63500979 .35798646 .5541382 .35798646 .47216798 .35798646 .39196778 .30799867 .31297303 .25299073 .25097657L.06098938 .036987306C.049987794 .025985718 .049987794 .023986817 .049987794 0H.42099L.44898988 .17396546Z"/>
<path id="font_2_57" d="M.47099305 .16503906V.19602967H.37098695V.6507721C.37098695 .6707611 .37098695 .6767578 .35499574 .6767578 .34599305 .6767578 .34298707 .6767578 .33499146 .6647644L.027999878 .19602967V.16503906H.2939911V.07800293C.2939911 .041992189 .2919922 .0309906 .21798706 .0309906H.19699097V0C.23799134 .0029907227 .2899933 .0029907227 .33198548 .0029907227 .37399293 .0029907227 .4269867 .0029907227 .46798707 0V.0309906H.44699098C.37298585 .0309906 .37098695 .041992189 .37098695 .07800293V.16503906H.47099305M.2999878 .19602967H.055999757L.2999878 .56881716V.19602967Z"/>
<path id="font_2_101" d="M.45700074 .2036438C.45700074 .33070375 .36799623 .4267578 .25698854 .4267578 .18899536 .4267578 .1519928 .37573243 .13198853 .327713V.35173036C.13198853 .6047821 .2559967 .64100649 .30699159 .64100649 .33099366 .64100649 .37298585 .634964 .394989 .6007538 .37998963 .6007538 .33999635 .6007538 .33999635 .5557556 .33999635 .524765 .3639984 .5097656 .38598634 .5097656 .4019928 .5097656 .43199159 .51875308 .43199159 .5577545 .43199159 .6178589 .3880005 .6660156 .30499269 .6660156 .1769867 .6660156 .041992189 .5367584 .041992189 .31570436 .041992189 .048553468 .1579895-.022460938 .25099183-.022460938 .3619995-.022460938 .45700074 .07156372 .45700074 .2036438M.36698915 .20463562C.36698915 .15661621 .36698915 .10658264 .34999085 .0705719 .31999208 .010528564 .27398683 .0055389406 .25099183 .0055389406 .18798828 .0055389406 .1579895 .06556702 .1519928 .080566409 .13398743 .127594 .13398743 .2076416 .13398743 .22564698 .13398743 .30369569 .1659851 .40374757 .2559967 .40374757 .27198792 .40374757 .31799317 .40374757 .34899903 .34172059 .36698915 .30470277 .36698915 .2536621 .36698915 .20463562Z"/>
<path id="font_2_51" d="M.45700074 .16764832C.45700074 .20367432 .44599916 .24871826 .4079895 .29074098 .3889923 .31176759 .37298585 .32176209 .30899049 .36180116 .3809967 .39881898 .42999269 .4508667 .42999269 .51690676 .42999269 .6089783 .34098817 .6660156 .25 .6660156 .1499939 .6660156 .068984989 .5919647 .068984989 .49890138 .068984989 .48088075 .070999149 .43585206 .11299133 .38882447 .12399292 .3768158 .16099549 .35179139 .18598938 .33477784 .12799073 .30575563 .041992189 .24971009 .041992189 .15063477 .041992189 .044555665 .14399719-.022460938 .24899292-.022460938 .3619995-.022460938 .45700074 .060577394 .45700074 .16764832M.38598634 .51690676C.38598634 .45986939 .34700013 .41183473 .2869873 .3768158L.16299439 .4568634C.116989139 .4868927 .11299133 .5209198 .11299133 .53793337 .11299133 .5989685 .17799378 .64100649 .24899292 .64100649 .32199098 .64100649 .38598634 .588974 .38598634 .51690676M.40699769 .13162232C.40699769 .05757141 .33198548 .0055389406 .25 .0055389406 .1639862 .0055389406 .09199524 .06758118 .09199524 .15063477 .09199524 .2086792 .12399292 .2727356 .20899964 .31976319L.33198548 .24171448C.3600006 .22268677 .40699769 .19267273 .40699769 .13162232Z"/>
<path id="font_2_82" d="M.4189911 0V.0309906H.3869934C.29699708 .0309906 .2939911 .041992189 .2939911 .07902527V.64012148C.2939911 .6640167 .2939911 .6660156 .2709961 .6660156 .20899964 .60227969 .12098694 .60227969 .08898926 .60227969V.57128909C.10899353 .57128909 .16799927 .57128909 .21998596 .5972748V.07902527C.21998596 .042999269 .21699524 .0309906 .1269989 .0309906H.09498596V0C.12998963 .0029907227 .21699524 .0029907227 .25698854 .0029907227 .29699708 .0029907227 .38398744 .0029907227 .4189911 0Z"/>
<path id="font_2_121" d="M.45999146 .31976319C.45999146 .39982606 .45498658 .47988893 .41999818 .5539398 .37399293 .65000918 .2919922 .6660156 .25 .6660156 .18998719 .6660156 .116989139 .64001467 .07598877 .54693606 .04399109 .47789 .038986207 .39982606 .038986207 .31976319 .038986207 .24472046 .042999269 .15464783 .083999637 .07859802 .1269989-.0024719239 .19999695-.022460938 .24899292-.022460938 .30299378-.022460938 .3789978-.0014648438 .4229889 .09359741 .45498658 .16265869 .45999146 .2407074 .45999146 .31976319M.3769989 .3317871C.3769989 .25672914 .3769989 .18867493 .3659973 .12461853 .35099793 .029556275 .2939911-.00047302247 .24899292-.00047302247 .20999146-.00047302247 .15098572 .024551392 .1329956 .12062073 .12199402 .18066406 .12199402 .2727356 .12199402 .3317871 .12199402 .39582826 .12199402 .46188355 .12998963 .5159149 .14898682 .63500979 .22399903 .64401248 .24899292 .64401248 .28199769 .64401248 .34799195 .6259918 .36698915 .52693179 .3769989 .47088624 .3769989 .39482118 .3769989 .3317871Z"/>
</defs>
<path transform="matrix(1.00005,0,0,-1.00003,26.194558,89.4243)" stroke-width=".3985" stroke-linecap="butt" stroke-miterlimit="10" stroke-linejoin="miter" fill="none" stroke="#00aeef" d="M0 0H183.68503M0 10.20485H183.68503M0 20.40973H183.68503M0 30.6146H183.68503M0 40.81946H183.68503M0 51.02432H183.68503M0 61.2292H183.68503M0 71.43048H183.68503M0 0V71.43407M15.30708 0V71.43407M30.61417 0V71.43407M45.92125 0V71.43407M61.22833 0V71.43407M76.53542 0V71.43407M91.8425 0V71.43407M107.14958 0V71.43407M122.45668 0V71.43407M137.76378 0V71.43407M153.07086 0V71.43407M168.37795 0V71.43407M183.67964 0V71.43407M183.68503 71.43407"/>
<path transform="matrix(1.00005,0,0,-1.00003,26.194558,89.4243)" stroke-width=".79701" stroke-linecap="butt" stroke-miterlimit="10" stroke-linejoin="miter" fill="none" stroke="#000000" d="M0 0H189.90396"/>
<path transform="matrix(1.00005,0,0,-1.00003,216.108,89.4243)" d="M1.0361 0C-.25902 .25902-1.55415 .77707-3.1083 1.68365-1.55415 .51805-1.55415-.51805-3.1083-1.68365-1.55415-.77707-.25902-.25902 1.0361 0Z"/>
<path transform="matrix(1.00005,0,0,-1.00003,216.108,89.4243)" stroke-width=".79701" stroke-linecap="butt" stroke-linejoin="round" fill="none" stroke="#000000" d="M1.0361 0C-.25902 .25902-1.55415 .77707-3.1083 1.68365-1.55415 .51805-1.55415-.51805-3.1083-1.68365-1.55415-.77707-.25902-.25902 1.0361 0Z"/>
<use data-text="t" xlink:href="#font_1_1" transform="matrix(9.963098,0,0,-9.962899,221.2623,92.488399)"/>
<path transform="matrix(1.00005,0,0,-1.00003,26.194558,89.4243)" stroke-width=".79701" stroke-linecap="butt" stroke-miterlimit="10" stroke-linejoin="miter" fill="none" stroke="#000000" d="M0 0V76.12244"/>
<path transform="matrix(0,-1.00003,-1.00005,-0,26.194558,13.299576)" d="M1.0361 0C-.25902 .25902-1.55415 .77707-3.1083 1.68365-1.55415 .51805-1.55415-.51805-3.1083-1.68365-1.55415-.77707-.25902-.25902 1.0361 0Z"/>
<path transform="matrix(0,-1.00003,-1.00005,-0,26.194558,13.299576)" stroke-width=".79701" stroke-linecap="butt" stroke-linejoin="round" fill="none" stroke="#000000" d="M1.0361 0C-.25902 .25902-1.55415 .77707-3.1083 1.68365-1.55415 .51805-1.55415-.51805-3.1083-1.68365-1.55415-.77707-.25902-.25902 1.0361 0Z"/>
<use data-text="y" xlink:href="#font_1_2" transform="matrix(9.963098,0,0,-9.962899,23.573426,6.2088015)"/>
<path transform="matrix(1.00005,0,0,-1.00003,26.194558,89.4243)" stroke-width=".3985" stroke-linecap="butt" stroke-miterlimit="10" stroke-linejoin="miter" fill="none" stroke="#000000" d="M30.61417 1.02054V-1.02039"/>
<use data-text="2" xlink:href="#font_2_107" transform="matrix(9.963098,0,0,-9.962899,54.318964,100.59964)"/>
<path transform="matrix(1.00005,0,0,-1.00003,26.194558,89.4243)" stroke-width=".3985" stroke-linecap="butt" stroke-miterlimit="10" stroke-linejoin="miter" fill="none" stroke="#000000" d="M61.22833 1.02054V-1.02039"/>
<use data-text="4" xlink:href="#font_2_57" transform="matrix(9.963098,0,0,-9.962899,84.935489,100.70964)"/>
<path transform="matrix(1.00005,0,0,-1.00003,26.194558,89.4243)" stroke-width=".3985" stroke-linecap="butt" stroke-miterlimit="10" stroke-linejoin="miter" fill="none" stroke="#000000" d="M91.8425 1.02054V-1.02039"/>
<use data-text="6" xlink:href="#font_2_101" transform="matrix(9.963098,0,0,-9.962899,115.55102,100.59964)"/>
<path transform="matrix(1.00005,0,0,-1.00003,26.194558,89.4243)" stroke-width=".3985" stroke-linecap="butt" stroke-miterlimit="10" stroke-linejoin="miter" fill="none" stroke="#000000" d="M122.45668 1.02054V-1.02039"/>
<use data-text="8" xlink:href="#font_2_51" transform="matrix(9.963098,0,0,-9.962899,146.16655,100.59964)"/>
<path transform="matrix(1.00005,0,0,-1.00003,26.194558,89.4243)" stroke-width=".3985" stroke-linecap="butt" stroke-miterlimit="10" stroke-linejoin="miter" fill="none" stroke="#000000" d="M153.07086 1.02054V-1.02039"/>
<use data-text="1" xlink:href="#font_2_82" transform="matrix(9.963098,0,0,-9.962899,174.29096,100.59964)"/>
<use data-text="0" xlink:href="#font_2_121" transform="matrix(9.963098,0,0,-9.962899,179.27252,100.59964)"/>
<path transform="matrix(1.00005,0,0,-1.00003,26.194558,89.4243)" stroke-width=".3985" stroke-linecap="butt" stroke-miterlimit="10" stroke-linejoin="miter" fill="none" stroke="#000000" d="M183.68503 1.02054V-1.02039"/>
<use data-text="1" xlink:href="#font_2_82" transform="matrix(9.963098,0,0,-9.962899,204.90747,100.59964)"/>
<use data-text="2" xlink:href="#font_2_107" transform="matrix(9.963098,0,0,-9.962899,209.88904,100.59964)"/>
<path transform="matrix(1.00005,0,0,-1.00003,26.194558,89.4243)" stroke-width=".3985" stroke-linecap="butt" stroke-miterlimit="10" stroke-linejoin="miter" fill="none" stroke="#000000" d="M1.53079 20.40973H-1.53056"/>
<use data-text="2" xlink:href="#font_2_107" transform="matrix(9.963098,0,0,-9.962899,1.217308,72.22179)"/>
<use data-text="0" xlink:href="#font_2_121" transform="matrix(9.963098,0,0,-9.962899,6.19886,72.22179)"/>
<use data-text="0" xlink:href="#font_2_121" transform="matrix(9.963098,0,0,-9.962899,11.180405,72.22179)"/>
<use data-text="0" xlink:href="#font_2_121" transform="matrix(9.963098,0,0,-9.962899,16.161957,72.22179)"/>
<path transform="matrix(1.00005,0,0,-1.00003,26.194558,89.4243)" stroke-width=".3985" stroke-linecap="butt" stroke-miterlimit="10" stroke-linejoin="miter" fill="none" stroke="#000000" d="M1.53079 40.81946H-1.53056"/>
<use data-text="4" xlink:href="#font_2_57" transform="matrix(9.963098,0,0,-9.962899,1.217308,51.866174)"/>
<use data-text="0" xlink:href="#font_2_121" transform="matrix(9.963098,0,0,-9.962899,6.19886,51.866174)"/>
<use data-text="0" xlink:href="#font_2_121" transform="matrix(9.963098,0,0,-9.962899,11.180405,51.866174)"/>
<use data-text="0" xlink:href="#font_2_121" transform="matrix(9.963098,0,0,-9.962899,16.161957,51.866174)"/>
<path transform="matrix(1.00005,0,0,-1.00003,26.194558,89.4243)" stroke-width=".3985" stroke-linecap="butt" stroke-miterlimit="10" stroke-linejoin="miter" fill="none" stroke="#000000" d="M1.53079 61.2292H-1.53056"/>
<use data-text="6" xlink:href="#font_2_101" transform="matrix(9.963098,0,0,-9.962899,1.217308,31.401558)"/>
<use data-text="0" xlink:href="#font_2_121" transform="matrix(9.963098,0,0,-9.962899,6.19886,31.401558)"/>
<use data-text="0" xlink:href="#font_2_121" transform="matrix(9.963098,0,0,-9.962899,11.180405,31.401558)"/>
<use data-text="0" xlink:href="#font_2_121" transform="matrix(9.963098,0,0,-9.962899,16.161957,31.401558)"/>
<path transform="matrix(1.00005,0,0,-1.00003,26.194558,89.4243)" stroke-width="1.19553" stroke-linecap="butt" stroke-miterlimit="10" stroke-linejoin="miter" fill="none" stroke="#ff0000" d="M0 10.20485C0 10.20485 2.07364 10.26099 2.87007 10.32912 3.6665 10.39723 4.94371 10.56053 5.74014 10.69582 6.53658 10.8311 7.81378 11.10272 8.61021 11.3042 9.40665 11.50566 10.68387 11.88226 11.4803 12.14784 12.27673 12.41344 13.55394 12.89128 14.35037 13.21838 15.1468 13.54547 16.42401 14.11981 17.22044 14.50536 18.01689 14.8909 19.2941 15.557 20.09053 15.9971 20.88696 16.4372 22.16417 17.1866 22.9606 17.67725 23.75705 18.1679 25.03426 18.99687 25.83069 19.53337 26.62712 20.06985 27.90433 20.96704 28.70076 21.54393 29.49721 22.12083 30.77441 23.07927 31.57085 23.69124 32.36728 24.30319 33.6445 25.31345 34.44093 25.95454 35.23735 26.59563 36.51459 27.6477 37.31102 28.31174 38.10745 28.97577 39.38466 30.05984 40.18109 30.7404 40.97752 31.42096 42.25473 32.52623 43.05116 33.21672 43.8476 33.90721 45.12482 35.02321 45.92125 35.71703 46.71768 36.41084 47.99489 37.52684 48.79132 38.21733 49.58775 38.90782 50.86496 40.01309 51.66139 40.69363 52.45784 41.37419 53.73503 42.45828 54.53148 43.1223 55.32791 43.78635 56.60512 44.83842 57.40155 45.4795 58.198 46.12059 59.47519 47.13086 60.27164 47.74281 61.06807 48.35477 62.34528 49.31322 63.14171 49.8901 63.93814 50.46701 65.21535 51.3642 66.0118 51.90068 66.80823 52.43718 68.08545 53.26614 68.88188 53.75679 69.6783 54.24745 70.95552 54.99686 71.75195 55.43694 72.54839 55.87704 73.8256 56.54315 74.62204 56.9287 75.41847 57.31424 76.69568 57.88857 77.49211 58.21567 78.28854 58.54277 79.56575 59.02061 80.36218 59.28621 81.15862 59.55179 82.43584 59.92839 83.23227 60.12985 84.0287 60.33131 85.30591 60.60294 86.10234 60.73824 86.89877 60.87352 88.17598 61.03682 88.97243 61.10493 89.76886 61.17305 91.04607 61.2292 91.8425 61.2292 92.63893 61.2292 93.91614 61.17305 94.71259 61.10493 95.50902 61.03682 96.78622 60.87352 97.58266 60.73824 98.37909 60.60294 99.6563 60.33131 100.45273 60.12985 101.24916 59.92839 102.5264 59.55179 103.32283 59.28621 104.11925 59.02061 105.39647 58.54277 106.1929 58.21567 106.98933 57.88857 108.26654 57.31424 109.06297 56.9287 109.8594 56.54315 111.13663 55.87704 111.93306 55.43694 112.72949 54.99686 114.0067 54.24745 114.80313 53.75679 115.59956 53.26614 116.87677 52.43718 117.67322 51.90068 118.46965 51.3642 119.74686 50.46701 120.54329 49.8901 121.33972 49.31322 122.61693 48.35477 123.41338 47.74281 124.20981 47.13086 125.48701 46.12059 126.28345 45.4795 127.07988 44.83842 128.35709 43.78635 129.15354 43.1223 129.94997 42.45828 131.22718 41.37419 132.0236 40.69363 132.82004 40.01309 134.09725 38.90782 134.89368 38.21733 135.69011 37.52684 136.96735 36.41084 137.76378 35.71703 138.5602 35.02321 139.83742 33.90721 140.63385 33.21672 141.43029 32.52623 142.70749 31.42096 143.50392 30.7404 144.30036 30.05984 145.57756 28.97577 146.374 28.31174 147.17044 27.6477 148.44765 26.59563 149.24408 25.95454 150.04051 25.31345 151.31772 24.30319 152.11415 23.69124 152.9106 23.07927 154.1878 22.12083 154.98424 21.54393 155.78067 20.96704 157.05788 20.06985 157.85431 19.53337 158.65076 18.99687 159.92797 18.1679 160.7244 17.67725 161.52083 17.1866 162.79804 16.4372 163.59447 15.9971 164.3909 15.557 165.66812 14.8909 166.46456 14.50536 167.26099 14.11981 168.5382 13.54547 169.33463 13.21838 170.13106 12.89128 171.40828 12.41344 172.20471 12.14784 173.00113 11.88226 174.27837 11.50566 175.0748 11.3042 175.87123 11.10272 177.14844 10.8311 177.94487 10.69582 178.7413 10.56053 180.01851 10.39723 180.81494 10.32912 181.61139 10.26099 183.68503 10.20485 183.68503 10.20485"/>
</svg>
