<svg xmlns="http://www.w3.org/2000/svg" xmlns:xlink="http://www.w3.org/1999/xlink" version="1.1" width="256" height="68" viewBox="0 0 256 68">
<defs>
<path id="font_1_1" d="M.45498658 .5001831C.45498658 .56614688 .43699647 .7050781 .33499146 .7050781 .19599915 .7050781 .041992189 .42323304 .041992189 .19425965 .041992189 .100250247 .070999149-.0107421879 .1619873-.0107421879 .30299378-.0107421879 .45498658 .27627564 .45498658 .5001831M.147995 .36328126C.16499329 .42723084 .18499756 .5071869 .22499085 .57814028 .2519989 .6271057 .2889862 .68307498 .33399964 .68307498 .3829956 .68307498 .3889923 .6191101 .3889923 .56214907 .3889923 .5131836 .3809967 .46220399 .35699464 .36328126H.147995M.34799195 .3312683C.33699037 .28527833 .31599427 .2002716 .27799989 .12826538 .24299622 .060256959 .20498657 .011245728 .1619873 .011245728 .1289978 .011245728 .10798645 .040252687 .10798645 .133255 .10798645 .17526245 .11399841 .23326111 .13999939 .3312683H.34799195Z"/>
<path id="font_1_4" d="M.48599244 .38136292C.48999024 .39537049 .48999024 .39736939 .48999024 .40437318 .48999024 .42237855 .47599793 .43138124 .46099855 .43138124 .45098878 .43138124 .43499757 .42536927 .42599488 .41036988 .42399598 .405365 .41600038 .37435914 .4119873 .35635377 .40499879 .33035279 .397995 .30334474 .3919983 .27633668L.34700013 .09628296C.34298707 .08126831 .2999878 .011245728 .23399353 .011245728 .18299866 .011245728 .17199707 .055267335 .17199707 .0922699 .17199707 .1382904 .18899536 .20030213 .22299195 .28833009 .23899842 .3293457 .24299622 .3403473 .24299622 .36035157 .24299622 .405365 .21099854 .4423828 .16099549 .4423828 .06599426 .4423828 .0289917 .29733277 .0289917 .28833009 .0289917 .27833558 .038986207 .27833558 .040985109 .27833558 .050994874 .27833558 .051986696 .28033448 .056991579 .29634095 .083999637 .3903656 .12399292 .42037965 .1579895 .42037965 .1659851 .42037965 .18299866 .42037965 .18299866 .3883667 .18299866 .36335755 .17298889 .3373413 .1659851 .31834413 .12599182 .21231079 .10798645 .1552887 .10798645 .10827637 .10798645 .019256592 .17098999-.0107421879 .22999573-.0107421879 .2689972-.0107421879 .30299378 .0062561037 .33099366 .03425598 .31799317-.017745972 .30599977-.06674194 .2659912-.11973572 .23999024-.15385437 .20199585-.18309021 .1559906-.18309021 .14199829-.18309021 .09700012-.18005371 .07998657-.14074707 .09599304-.14074707 .10899353-.14074707 .12298584-.1287384 .1329956-.11973572 .14299011-.10673523 .14299011-.08773804 .14299011-.056747438 .115997318-.052734376 .10598755-.052734376 .08299255-.052734376 .049987794-.068740848 .049987794-.11773682 .049987794-.16796875 .09399414-.20507813 .1559906-.20507813 .25898744-.20507813 .3619995-.11373901 .3899994-.00074768069L.48599244 .38136292Z"/>
<path id="font_2_1" d="M.6589966 .23046875C.6759949 .23046875 .69400027 .23046875 .69400027 .25045777 .69400027 .27046205 .6759949 .27046205 .6589966 .27046205H.117996219C.100997928 .27046205 .08299255 .27046205 .08299255 .25045777 .08299255 .23046875 .100997928 .23046875 .117996219 .23046875H.6589966Z"/>
<path id="font_3_2" d="M.2939911 .64004519C.2939911 .66400149 .2939911 .6660156 .2709961 .6660156 .20899964 .60227969 .12098694 .60227969 .08898926 .60227969V.57128909C.10899353 .57128909 .16799927 .57128909 .21998596 .5972748V.07902527C.21998596 .042999269 .21699524 .0309906 .1269989 .0309906H.09498596V0C.12998963 .0029907227 .21699524 .0029907227 .25698854 .0029907227 .29699708 .0029907227 .38398744 .0029907227 .4189911 0V.0309906H.3869934C.29699708 .0309906 .2939911 .041992189 .2939911 .07902527V.64004519Z"/>
<path id="font_3_3" d="M.16299439 .4569702C.116989139 .486969 .11299133 .52098086 .11299133 .5379791 .11299133 .598999 .17799378 .64100649 .24899292 .64100649 .32199098 .64100649 .38598634 .58898928 .38598634 .51698306 .38598634 .45996095 .34700013 .4119568 .2869873 .37695313L.16299439 .4569702M.30899049 .36193849C.3809967 .3989563 .42999269 .45095826 .42999269 .51698306 .42999269 .6090088 .34098817 .6660156 .25 .6660156 .1499939 .6660156 .068984989 .59199526 .068984989 .49897767 .068984989 .4809723 .070999149 .43595887 .11299133 .38894654 .12399292 .37695313 .16099549 .35194398 .18598938 .33494569 .12799073 .30592347 .041992189 .24984741 .041992189 .15072632 .041992189 .04458618 .14399719-.022460938 .24899292-.022460938 .3619995-.022460938 .45700074 .06060791 .45700074 .16773987 .45700074 .20379639 .44599916 .24885559 .4079895 .2909088 .3889923 .31193543 .37298585 .3219452 .30899049 .36193849M.20899964 .3199463 .33198548 .24183655C.3600006 .2228241 .40699769 .19277954 .40699769 .13169861 .40699769 .05760193 .33198548 .0055389406 .25 .0055389406 .1639862 .0055389406 .09199524 .067611698 .09199524 .15072632 .09199524 .20880127 .12399292 .27288819 .20899964 .3199463Z"/>
<path id="font_3_1" d="M.45999146 .31976319C.45999146 .39982606 .45498658 .47988893 .41999818 .5539398 .37399293 .65000918 .2919922 .6660156 .25 .6660156 .18998719 .6660156 .116989139 .64001467 .07598877 .54693606 .04399109 .47789 .038986207 .39982606 .038986207 .31976319 .038986207 .24472046 .042999269 .15464783 .083999637 .07859802 .1269989-.0024719239 .19999695-.022460938 .24899292-.022460938 .30299378-.022460938 .3789978-.0014648438 .4229889 .09359741 .45498658 .16265869 .45999146 .2407074 .45999146 .31976319M.24899292-.00047302247C.20999146-.00047302247 .15098572 .024551392 .1329956 .12062073 .12199402 .18066406 .12199402 .2727356 .12199402 .3317871 .12199402 .39582826 .12199402 .46188355 .12998963 .5159149 .14898682 .63500979 .22399903 .64401248 .24899292 .64401248 .28199769 .64401248 .34799195 .6259918 .36698915 .52693179 .3769989 .47088624 .3769989 .39482118 .3769989 .3317871 .3769989 .25672914 .3769989 .18867493 .3659973 .12461853 .35099793 .029556275 .2939911-.00047302247 .24899292-.00047302247Z"/>
<path id="font_4_1" d="M.5069885 .24998474C.5069885 .3710022 .4099884 .4650116 .2919922 .4650116 .17199707 .4650116 .07699585 .36799623 .07699585 .25097657 .07699585 .1299591 .17399597 .035949708 .2919922 .035949708 .4119873 .035949708 .5069885 .13296509 .5069885 .24998474M.2919922 .08496094C.19799805 .08496094 .12599182 .16096497 .12599182 .24998474 .12599182 .34300233 .19999695 .41601563 .2919922 .41601563 .38598634 .41601563 .45799256 .33999635 .45799256 .25097657 .45799256 .15795899 .38398744 .08496094 .2919922 .08496094Z"/>
<path id="font_3_4" d="M.36698915 .31781007V.28579713C.36698915 .05178833 .2630005 .0055389406 .20498657 .0055389406 .18798828 .0055389406 .13398743 .007537842 .10699463 .041778566 .15098572 .041778566 .15899658 .07078552 .15899658 .08778381 .15899658 .118774417 .1349945 .13378906 .11299133 .13378906 .09700012 .13378906 .066986087 .12478638 .066986087 .08578491 .066986087 .018615723 .12098694-.022460938 .20599365-.022460938 .33499146-.022460938 .45700074 .11378479 .45700074 .32881166 .45700074 .5979767 .34199525 .6660156 .25299073 .6660156 .19799805 .6660156 .14898682 .64801028 .10598755 .60298159 .06498718 .5579529 .041992189 .5159302 .041992189 .44088746 .041992189 .31581117 .12998963 .21777344 .24198914 .21777344 .30299378 .21777344 .34399415 .25978089 .36698915 .31781007M.24299622 .24076844C.22698975 .24076844 .18099976 .24076844 .1499939 .3038025 .13198853 .3408203 .13198853 .39085389 .13198853 .43988038 .13198853 .49391175 .13198853 .54093936 .15299988 .5779724 .17999268 .6279907 .21798706 .64100649 .25299073 .64100649 .29899598 .64100649 .33198548 .60697939 .34899903 .5619507 .36099244 .52993777 .36499024 .4669037 .36499024 .42086793 .36499024 .3378296 .33099366 .24076844 .24299622 .24076844Z"/>
<path id="font_5_107" d="M.44898988 .17396546H.42399598C.4189911 .14398194 .4119873 .099990848 .4019928 .084991458 .394989 .07699585 .32899476 .07699585 .30699159 .07699585H.1269989L.23298645 .17996216C.3889923 .31803895 .44898988 .37210084 .44898988 .47216798 .44898988 .5860901 .35899354 .6660156 .23699951 .6660156 .12399292 .6660156 .049987794 .57411196 .049987794 .48516847 .049987794 .4291687 .099990848 .4291687 .102996829 .4291687 .11999512 .4291687 .15499878 .44117738 .15499878 .48217774 .15499878 .5081787 .13699341 .5341797 .101989749 .5341797 .09399414 .5341797 .09199524 .5341797 .08898926 .5331726 .11199951 .59806826 .1659851 .63500979 .22399903 .63500979 .31498719 .63500979 .35798646 .5541382 .35798646 .47216798 .35798646 .39196778 .30799867 .31297303 .25299073 .25097657L.06098938 .036987306C.049987794 .025985718 .049987794 .023986817 .049987794 0H.42099L.44898988 .17396546Z"/>
<path id="font_5_57" d="M.47099305 .16503906V.19602967H.37098695V.6507721C.37098695 .6707611 .37098695 .6767578 .35499574 .6767578 .34599305 .6767578 .34298707 .6767578 .33499146 .6647644L.027999878 .19602967V.16503906H.2939911V.07800293C.2939911 .041992189 .2919922 .0309906 .21798706 .0309906H.19699097V0C.23799134 .0029907227 .2899933 .0029907227 .33198548 .0029907227 .37399293 .0029907227 .4269867 .0029907227 .46798707 0V.0309906H.44699098C.37298585 .0309906 .37098695 .041992189 .37098695 .07800293V.16503906H.47099305M.2999878 .19602967H.055999757L.2999878 .56881716V.19602967Z"/>
<path id="font_5_101" d="M.45700074 .2036438C.45700074 .33070375 .36799623 .4267578 .25698854 .4267578 .18899536 .4267578 .1519928 .37573243 .13198853 .327713V.35173036C.13198853 .6047821 .2559967 .64100649 .30699159 .64100649 .33099366 .64100649 .37298585 .634964 .394989 .6007538 .37998963 .6007538 .33999635 .6007538 .33999635 .5557556 .33999635 .524765 .3639984 .5097656 .38598634 .5097656 .4019928 .5097656 .43199159 .51875308 .43199159 .5577545 .43199159 .6178589 .3880005 .6660156 .30499269 .6660156 .1769867 .6660156 .041992189 .5367584 .041992189 .31570436 .041992189 .048553468 .1579895-.022460938 .25099183-.022460938 .3619995-.022460938 .45700074 .07156372 .45700074 .2036438M.36698915 .20463562C.36698915 .15661621 .36698915 .10658264 .34999085 .0705719 .31999208 .010528564 .27398683 .0055389406 .25099183 .0055389406 .18798828 .0055389406 .1579895 .06556702 .1519928 .080566409 .13398743 .127594 .13398743 .2076416 .13398743 .22564698 .13398743 .30369569 .1659851 .40374757 .2559967 .40374757 .27198792 .40374757 .31799317 .40374757 .34899903 .34172059 .36698915 .30470277 .36698915 .2536621 .36698915 .20463562Z"/>
<path id="font_1_2" d="M.1789856 .114868167C.13899231 .047973634 .099990848 .033981325 .055999757 .0309906 .04399109 .02999878 .034988405 .02999878 .034988405 .010986328 .034988405 .004989624 .039993287 0 .04798889 0 .07499695 0 .10598755 .0029907227 .13398743 .0029907227 .16699219 .0029907227 .20199585 0 .23399353 0 .23999024 0 .25299073 0 .25299073 .018997193 .25299073 .02999878 .24398804 .0309906 .23699951 .0309906 .21398926 .032989503 .18998719 .04096985 .18998719 .06593323 .18998719 .077926639 .19599915 .088897708 .20399475 .102890018L.27999879 .23068238H.5309906C.5329895 .2097168 .5469971 .07392883 .5469971 .063949588 .5469971 .033981325 .49499513 .0309906 .47499085 .0309906 .46099855 .0309906 .45098878 .0309906 .45098878 .010986328 .45098878 0 .46299745 0 .46499635 0 .5059967 0 .548996 .0029907227 .58999636 .0029907227 .61499026 .0029907227 .6779938 0 .7029877 0 .70899966 0 .72099307 0 .72099307 .019989014 .72099307 .0309906 .71099856 .0309906 .69799807 .0309906 .6359863 .0309906 .6359863 .037979127 .6329956 .06694031L.57199099 .691803C.56999209 .71180728 .56999209 .7158203 .5529938 .7158203 .5369873 .7158203 .5329895 .7088165 .5269928 .69880679L.1789856 .114868167M.29899598 .26168824 .49598695 .5917816 .5279999 .26168824H.29899598Z"/>
<path id="font_1_3" d="M.1599884 .07795715C.1499939 .038986207 .147995 .0309906 .068984989 .0309906 .051986696 .0309906 .041992189 .0309906 .041992189 .010986328 .041992189 0 .050994874 0 .068984989 0H.42599488C.58399966 0 .70199587 .11791992 .70199587 .21585083 .70199587 .28778077 .6439972 .3457489 .5469971 .35673524 .651001 .37573243 .7559967 .44970704 .7559967 .5446625 .7559967 .6186218 .6899872 .6826172 .56999209 .6826172H.23399353C.21499634 .6826172 .20498657 .6826172 .20498657 .6626129 .20498657 .6516113 .21398926 .6516113 .23298645 .6516113 .23498535 .6516113 .2539978 .6516113 .2709961 .6496124 .2889862 .6476135 .2979889 .64660647 .2979889 .6336212 .2979889 .6296234 .29699708 .62661746 .2939911 .614624L.1599884 .07795715M.31098939 .36573792 .37298585 .6136322C.38198854 .64860537 .38398744 .6516113 .4269867 .6516113H.55599978C.6439972 .6516113 .6649933 .5926361 .6649933 .5486603 .6649933 .46069337 .57899478 .36573792 .45700074 .36573792H.31098939M.2659912 .0309906C.2519989 .0309906 .25 .0309906 .24398804 .03199768 .23399353 .032989503 .23098755 .033996583 .23098755 .04197693 .23098755 .04498291 .23098755 .04698181 .23599243 .064971927L.30499269 .34375H.49398805C.58999636 .34375 .60899356 .2698059 .60899356 .22683716 .60899356 .12791443 .519989 .0309906 .4019928 .0309906H.2659912Z"/>
</defs>
<path transform="matrix(1,0,0,-1.00008,123.380008,57.22554)" stroke-width=".3985" stroke-linecap="butt" stroke-miterlimit="10" stroke-linejoin="miter" fill="none" stroke="#00aeef" d="M-117.92259 0H117.92259M-117.92259 7.08669H117.92259M-117.92259 14.17339H117.92259M-117.92259 21.2601H117.92259M-117.92259 28.3468H117.92259M-117.92259 35.43349H117.92259M-117.92259 42.5177H117.92259M-108.85162 0V42.5202M-90.7097 0V42.5202M-72.56775 0V42.5202M-54.42581 0V42.5202M-36.28386 0V42.5202M-18.14192 0V42.5202M0 0V42.5202M18.14192 0V42.5202M36.28386 0V42.5202M54.42581 0V42.5202M72.56775 0V42.5202M90.7097 0V42.5202M108.85162 0V42.5202M117.92259 42.5202"/>
<path transform="matrix(1,0,0,-1.00008,123.380008,57.22554)" stroke-width=".79701" stroke-linecap="butt" stroke-miterlimit="10" stroke-linejoin="miter" fill="none" stroke="#000000" d="M-117.92259 0H121.93062"/>
<path transform="matrix(1,0,0,-1.00008,245.31063,57.22554)" d="M1.0361 0C-.25902 .25902-1.55415 .77707-3.1083 1.68365-1.55415 .51805-1.55415-.51805-3.1083-1.68365-1.55415-.77707-.25902-.25902 1.0361 0Z"/>
<path transform="matrix(1,0,0,-1.00008,245.31063,57.22554)" stroke-width=".79701" stroke-linecap="butt" stroke-linejoin="round" fill="none" stroke="#000000" d="M1.0361 0C-.25902 .25902-1.55415 .77707-3.1083 1.68365-1.55415 .51805-1.55415-.51805-3.1083-1.68365-1.55415-.77707-.25902-.25902 1.0361 0Z"/>
<use data-text="&#x03b8;" xlink:href="#font_1_1" transform="matrix(9.9626,0,0,-9.963397,250.464,60.684816)"/>
<path transform="matrix(1,0,0,-1.00008,123.380008,57.22554)" stroke-width=".79701" stroke-linecap="butt" stroke-miterlimit="10" stroke-linejoin="miter" fill="none" stroke="#000000" d="M0 0V43.92023"/>
<path transform="matrix(0,-1.00008,-1,-0,123.380008,13.301796)" d="M1.0361 0C-.25902 .25902-1.55415 .77707-3.1083 1.68365-1.55415 .51805-1.55415-.51805-3.1083-1.68365-1.55415-.77707-.25902-.25902 1.0361 0Z"/>
<path transform="matrix(0,-1.00008,-1,-0,123.380008,13.301796)" stroke-width=".79701" stroke-linecap="butt" stroke-linejoin="round" fill="none" stroke="#000000" d="M1.0361 0C-.25902 .25902-1.55415 .77707-3.1083 1.68365-1.55415 .51805-1.55415-.51805-3.1083-1.68365-1.55415-.77707-.25902-.25902 1.0361 0Z"/>
<use data-text="y" xlink:href="#font_1_4" transform="matrix(9.9626,0,0,-9.963397,120.759,6.210457)"/>
<path transform="matrix(1,0,0,-1.00008,123.380008,57.22554)" stroke-width=".3985" stroke-linecap="butt" stroke-miterlimit="10" stroke-linejoin="miter" fill="none" stroke="#000000" d="M-108.85162 1.06294V-1.06305"/>
<path transform="matrix(1,0,0,-1.00008,123.380008,57.22554)" d="M-123.48448-10.9453H-94.218799V-1.2623205H-123.48448Z" fill="#ffffff"/>
<use data-text="&#x2212;" xlink:href="#font_2_1" transform="matrix(9.9626,0,0,-9.963397,.8919983,66.34527)"/>
<use data-text="1" xlink:href="#font_3_2" transform="matrix(9.9626,0,0,-9.963397,8.639999,66.34527)"/>
<use data-text="8" xlink:href="#font_3_3" transform="matrix(9.9626,0,0,-9.963397,13.621292,66.34527)"/>
<use data-text="0" xlink:href="#font_3_1" transform="matrix(9.9626,0,0,-9.963397,18.602585,66.34527)"/>
<use data-text="&#x25e6;" xlink:href="#font_4_1" transform="matrix(6.9738,0,0,-6.974358,23.584,62.72898)"/>
<path transform="matrix(1,0,0,-1.00008,123.380008,57.22554)" stroke-width=".3985" stroke-linecap="butt" stroke-miterlimit="10" stroke-linejoin="miter" fill="none" stroke="#000000" d="M-54.42581 1.06294V-1.06305"/>
<path transform="matrix(1,0,0,-1.00008,123.380008,57.22554)" d="M-66.56796-10.9453H-42.28366V-1.2623205H-66.56796Z" fill="#ffffff"/>
<use data-text="&#x2212;" xlink:href="#font_2_1" transform="matrix(9.9626,0,0,-9.963397,57.808015,66.34527)"/>
<use data-text="9" xlink:href="#font_3_4" transform="matrix(9.9626,0,0,-9.963397,65.556018,66.34527)"/>
<use data-text="0" xlink:href="#font_3_1" transform="matrix(9.9626,0,0,-9.963397,70.53731,66.34527)"/>
<use data-text="&#x25e6;" xlink:href="#font_4_1" transform="matrix(6.9738,0,0,-6.974358,75.51901,62.72898)"/>
<path transform="matrix(1,0,0,-1.00008,123.380008,57.22554)" stroke-width=".3985" stroke-linecap="butt" stroke-miterlimit="10" stroke-linejoin="miter" fill="none" stroke="#000000" d="M54.42581 1.06294V-1.06305"/>
<path transform="matrix(1,0,0,-1.00008,123.380008,57.22554)" d="M46.15808-10.11508H62.693544V-1.26231H46.15808Z" fill="#ffffff"/>
<use data-text="9" xlink:href="#font_3_4" transform="matrix(9.9626,0,0,-9.963397,170.534,66.34527)"/>
<use data-text="0" xlink:href="#font_3_1" transform="matrix(9.9626,0,0,-9.963397,175.51529,66.34527)"/>
<use data-text="&#x25e6;" xlink:href="#font_4_1" transform="matrix(6.9738,0,0,-6.974358,180.496,62.72898)"/>
<path transform="matrix(1,0,0,-1.00008,123.380008,57.22554)" stroke-width=".3985" stroke-linecap="butt" stroke-miterlimit="10" stroke-linejoin="miter" fill="none" stroke="#000000" d="M108.85162 1.06294V-1.06305"/>
<path transform="matrix(1,0,0,-1.00008,123.380008,57.22554)" d="M98.0932-10.11508H119.61005V-1.26231H98.0932Z" fill="#ffffff"/>
<use data-text="1" xlink:href="#font_3_2" transform="matrix(9.9626,0,0,-9.963397,222.469,66.34527)"/>
<use data-text="8" xlink:href="#font_3_3" transform="matrix(9.9626,0,0,-9.963397,227.45029,66.34527)"/>
<use data-text="0" xlink:href="#font_3_1" transform="matrix(9.9626,0,0,-9.963397,232.43158,66.34527)"/>
<use data-text="&#x25e6;" xlink:href="#font_4_1" transform="matrix(6.9738,0,0,-6.974358,237.413,62.72898)"/>
<path transform="matrix(1,0,0,-1.00008,123.380008,57.22554)" stroke-width=".3985" stroke-linecap="butt" stroke-miterlimit="10" stroke-linejoin="miter" fill="none" stroke="#000000" d="M1.45137 14.17339H-1.45137"/>
<path transform="matrix(1,0,0,-1.00008,123.380008,57.22554)" d="M-8.62456 9.85951H-1.6506205V18.48726H-8.62456Z" fill="#ffffff"/>
<use data-text="2" xlink:href="#font_5_107" transform="matrix(9.9626,0,0,-9.963397,115.75201,46.36867)"/>
<path transform="matrix(1,0,0,-1.00008,123.380008,57.22554)" stroke-width=".3985" stroke-linecap="butt" stroke-miterlimit="10" stroke-linejoin="miter" fill="none" stroke="#000000" d="M1.45137 28.3468H-1.45137"/>
<path transform="matrix(1,0,0,-1.00008,123.380008,57.22554)" d="M-8.62456 23.97813H-1.6506205V32.71547H-8.62456Z" fill="#ffffff"/>
<use data-text="4" xlink:href="#font_5_57" transform="matrix(9.9626,0,0,-9.963397,115.75201,32.249544)"/>
<path transform="matrix(1,0,0,-1.00008,123.380008,57.22554)" stroke-width=".3985" stroke-linecap="butt" stroke-miterlimit="10" stroke-linejoin="miter" fill="none" stroke="#000000" d="M1.45137 42.5202H-1.45137"/>
<path transform="matrix(1,0,0,-1.00008,123.380008,57.22554)" d="M-8.62456 38.09674H-1.6506205V46.94365H-8.62456Z" fill="#ffffff"/>
<use data-text="6" xlink:href="#font_5_101" transform="matrix(9.9626,0,0,-9.963397,115.75201,17.910397)"/>
<path transform="matrix(1,0,0,-1.00008,123.380008,57.22554)" stroke-width="1.19553" stroke-linecap="butt" stroke-miterlimit="10" stroke-linejoin="miter" fill="none" stroke="#ff0000" d="M-117.92259 10.63004C-117.92259 10.63004-110.82277 19.01984-108.0959 22.1866-105.36903 25.35333-100.99606 30.85725-98.2692 33.45377-95.54233 36.05028-91.16937 39.6873-88.4425 40.90045-85.71564 42.11362-81.34267 42.74771-78.6158 42.19742-75.88892 41.64713-71.51596 39.0757-68.7891 36.9343-66.06223 34.79288-61.68925 29.82512-58.9624 26.7636-56.23553 23.70209-51.86256 17.89206-49.13571 14.86902-46.40883 11.84598-42.03586 7.0133-39.30899 4.9757-36.58212 2.93806-32.20917 .59737-29.4823 .18327-26.75543-.23079-22.38246 .65193-19.6556 1.99118-16.92873 3.33041-12.55576 7.1624-9.82889 9.83559-7.10204 12.50874-2.72906 18.08788-.0022 21.25749 2.72464 24.42712 7.0976 30.0065 9.82446 32.68007 12.55133 35.35364 16.9243 39.18678 19.65117 40.52673 22.37804 41.8667 26.75099 42.75084 29.47786 42.33757 32.20473 41.92429 36.5777 39.58507 39.30457 37.54808 42.03145 35.51108 46.4044 30.67917 49.13127 27.65636 51.85814 24.63354 56.23111 18.82352 58.95796 15.76178 61.68483 12.70004 66.0578 7.73146 68.78465 5.58946 71.51152 3.44746 75.88449 .8748 78.61137 .32373 81.33824-.2273 85.7112 .40538 88.43806 1.61778 91.16493 2.83018 95.5379 6.4659 98.26477 9.06187 100.99162 11.65784 105.3646 17.16106 108.09148 20.32776 110.81833 23.49446 117.91817 31.88527 117.91817 31.88527"/>
<path transform="matrix(1,0,0,-1.00008,123.380008,57.22554)" d="M29.12782 42.5202C29.12782 43.55188 28.27141 44.38821 27.21497 44.38821 26.15852 44.38821 25.30212 43.55188 25.30212 42.5202 25.30212 41.48851 26.15852 40.65218 27.21497 40.65218 28.27141 40.65218 29.12782 41.48851 29.12782 42.5202ZM27.21497 42.5202" fill="#0000ff"/>
<path transform="matrix(1,0,0,-1.00008,123.380008,57.22554)" stroke-width=".3985" stroke-linecap="butt" stroke-miterlimit="10" stroke-linejoin="miter" fill="none" stroke="#0000ff" d="M29.12782 42.5202C29.12782 43.55188 28.27141 44.38821 27.21497 44.38821 26.15852 44.38821 25.30212 43.55188 25.30212 42.5202 25.30212 41.48851 26.15852 40.65218 27.21497 40.65218 28.27141 40.65218 29.12782 41.48851 29.12782 42.5202ZM27.21497 42.5202"/>
<path transform="matrix(1,0,0,-1.00008,123.380008,57.22554)" d="M22.48265 44.712H31.94728V53.51242H22.48265Z" fill="#ffffff"/>
<use data-text="A" xlink:href="#font_1_2" transform="matrix(9.9626,0,0,-9.963397,146.85901,11.5138859)" fill="#0000ff"/>
<path transform="matrix(1,0,0,-1.00008,123.380008,57.22554)" d="M74.48619 2.84825C74.48619 3.87993 73.62979 4.71626 72.57333 4.71626 71.51689 4.71626 70.66049 3.87993 70.66049 2.84825 70.66049 1.81657 71.51689 .98022 72.57333 .98022 73.62979 .98022 74.48619 1.81657 74.48619 2.84825ZM72.57333 2.84825" fill="#0000ff"/>
<path transform="matrix(1,0,0,-1.00008,123.380008,57.22554)" stroke-width=".3985" stroke-linecap="butt" stroke-miterlimit="10" stroke-linejoin="miter" fill="none" stroke="#0000ff" d="M74.48619 2.84825C74.48619 3.87993 73.62979 4.71626 72.57333 4.71626 71.51689 4.71626 70.66049 3.87993 70.66049 2.84825 70.66049 1.81657 71.51689 .98022 72.57333 .98022 73.62979 .98022 74.48619 1.81657 74.48619 2.84825ZM72.57333 2.84825"/>
<path transform="matrix(1,0,0,-1.00008,123.380008,57.22554)" d="M74.76515 4.04378H84.81437V12.8442H74.76515Z" fill="#ffffff"/>
<use data-text="B" xlink:href="#font_1_3" transform="matrix(9.9626,0,0,-9.963397,199.141,52.18514)" fill="#0000ff"/>
</svg>
