<svg xmlns="http://www.w3.org/2000/svg" xmlns:xlink="http://www.w3.org/1999/xlink" version="1.1" width="223" height="136" viewBox="0 0 223 136">
<defs>
<path id="font_1_1" d="M.33399964 .30233766C.33999635 .32835389 .36299134 .42037965 .43299867 .42037965 .43798829 .42037965 .46199037 .42037965 .48298646 .40734864 .45498658 .402359 .43499757 .37734986 .43499757 .35334779 .43499757 .33735658 .44599916 .31835938 .47299195 .31835938 .49499513 .31835938 .5269928 .3363495 .5269928 .37635804 .5269928 .42837525 .46798707 .4423828 .43399049 .4423828 .37599183 .4423828 .34098817 .38935853 .32899476 .36634828 .3039856 .43237306 .25 .4423828 .22099304 .4423828 .116989139 .4423828 .05999756 .3133545 .05999756 .28834535 .05999756 .27833558 .069992069 .27833558 .07199097 .27833558 .07998657 .27833558 .08299255 .28033448 .084991458 .28933717 .11898804 .39535523 .18499756 .42037965 .21899414 .42037965 .23799134 .42037965 .272995 .4113617 .272995 .35334779 .272995 .32235719 .2559967 .25532533 .21899414 .11528015 .20298767 .053268434 .16799927 .011245728 .12399292 .011245728 .117996219 .011245728 .09498596 .011245728 .07398987 .024276734 .09899902 .029266358 .12098694 .05027771 .12098694 .07827759 .12098694 .105270389 .09899902 .11328125 .083999637 .11328125 .053985597 .11328125 .0289917 .08728027 .0289917 .055267335 .0289917 .009246826 .07899475-.0107421879 .12298584-.0107421879 .18899536-.0107421879 .22499085 .059280397 .22799683 .0652771 .23999024 .028274537 .27598573-.0107421879 .33599855-.0107421879 .43899537-.0107421879 .49598695 .118270877 .49598695 .14328003 .49598695 .1532898 .4869995 .1532898 .48399354 .1532898 .47499085 .1532898 .47299195 .14929199 .47099305 .14228821 .43798829 .03527832 .36999513 .011245728 .33799745 .011245728 .29899598 .011245728 .2829895 .043273927 .2829895 .07727051 .2829895 .09927368 .2889862 .121276859 .2999878 .16529846L.33399964 .30233766Z"/>
<path id="font_1_2" d="M.48599244 .38136292C.48999024 .39537049 .48999024 .39736939 .48999024 .40437318 .48999024 .42237855 .47599793 .43138124 .46099855 .43138124 .45098878 .43138124 .43499757 .42536927 .42599488 .41036988 .42399598 .405365 .41600038 .37435914 .4119873 .35635377 .40499879 .33035279 .397995 .30334474 .3919983 .27633668L.34700013 .09628296C.34298707 .08126831 .2999878 .011245728 .23399353 .011245728 .18299866 .011245728 .17199707 .055267335 .17199707 .0922699 .17199707 .1382904 .18899536 .20030213 .22299195 .28833009 .23899842 .3293457 .24299622 .3403473 .24299622 .36035157 .24299622 .405365 .21099854 .4423828 .16099549 .4423828 .06599426 .4423828 .0289917 .29733277 .0289917 .28833009 .0289917 .27833558 .038986207 .27833558 .040985109 .27833558 .050994874 .27833558 .051986696 .28033448 .056991579 .29634095 .083999637 .3903656 .12399292 .42037965 .1579895 .42037965 .1659851 .42037965 .18299866 .42037965 .18299866 .3883667 .18299866 .36335755 .17298889 .3373413 .1659851 .31834413 .12599182 .21231079 .10798645 .1552887 .10798645 .10827637 .10798645 .019256592 .17098999-.0107421879 .22999573-.0107421879 .2689972-.0107421879 .30299378 .0062561037 .33099366 .03425598 .31799317-.017745972 .30599977-.06674194 .2659912-.11973572 .23999024-.15385437 .20199585-.18309021 .1559906-.18309021 .14199829-.18309021 .09700012-.18005371 .07998657-.14074707 .09599304-.14074707 .10899353-.14074707 .12298584-.1287384 .1329956-.11973572 .14299011-.10673523 .14299011-.08773804 .14299011-.056747438 .115997318-.052734376 .10598755-.052734376 .08299255-.052734376 .049987794-.068740848 .049987794-.11773682 .049987794-.16796875 .09399414-.20507813 .1559906-.20507813 .25898744-.20507813 .3619995-.11373901 .3899994-.00074768069L.48599244 .38136292Z"/>
<path id="font_2_82" d="M.4189911 0V.0309906H.3869934C.29699708 .0309906 .2939911 .041992189 .2939911 .07902527V.64012148C.2939911 .6640167 .2939911 .6660156 .2709961 .6660156 .20899964 .60227969 .12098694 .60227969 .08898926 .60227969V.57128909C.10899353 .57128909 .16799927 .57128909 .21998596 .5972748V.07902527C.21998596 .042999269 .21699524 .0309906 .1269989 .0309906H.09498596V0C.12998963 .0029907227 .21699524 .0029907227 .25698854 .0029907227 .29699708 .0029907227 .38398744 .0029907227 .4189911 0Z"/>
<path id="font_2_107" d="M.44898988 .17396546H.42399598C.4189911 .14398194 .4119873 .099990848 .4019928 .084991458 .394989 .07699585 .32899476 .07699585 .30699159 .07699585H.1269989L.23298645 .17996216C.3889923 .31803895 .44898988 .37210084 .44898988 .47216798 .44898988 .5860901 .35899354 .6660156 .23699951 .6660156 .12399292 .6660156 .049987794 .57411196 .049987794 .48516847 .049987794 .4291687 .099990848 .4291687 .102996829 .4291687 .11999512 .4291687 .15499878 .44117738 .15499878 .48217774 .15499878 .5081787 .13699341 .5341797 .101989749 .5341797 .09399414 .5341797 .09199524 .5341797 .08898926 .5331726 .11199951 .59806826 .1659851 .63500979 .22399903 .63500979 .31498719 .63500979 .35798646 .5541382 .35798646 .47216798 .35798646 .39196778 .30799867 .31297303 .25299073 .25097657L.06098938 .036987306C.049987794 .025985718 .049987794 .023986817 .049987794 0H.42099L.44898988 .17396546Z"/>
<path id="font_2_106" d="M.45700074 .17037964C.45700074 .252594 .3939972 .33088685 .2899933 .35191346 .37199403 .37893678 .42999269 .4490509 .42999269 .52809146 .42999269 .6100464 .34199525 .6660156 .24598694 .6660156 .14498902 .6660156 .068984989 .60606387 .068984989 .53009036 .068984989 .49710084 .09098816 .47808839 .11999512 .47808839 .15098572 .47808839 .17098999 .50009158 .17098999 .5290985 .17098999 .57910159 .12399292 .57910159 .10899353 .57910159 .13999939 .62802127 .20599365 .64100649 .24198914 .64100649 .2829895 .64100649 .33799745 .6190338 .33799745 .5290985 .33799745 .51708987 .33599855 .45906068 .30999757 .4149933 .27999879 .36691285 .24598694 .36390687 .22099304 .36291505 .21299744 .36190797 .18899536 .35990907 .18199158 .35990907 .17399597 .35890199 .16699219 .35791017 .16699219 .3479004 .16699219 .33691407 .17399597 .33691407 .19099427 .33691407H.23498535C.31698609 .33691407 .35398866 .2686615 .35398866 .17037964 .35398866 .034469606 .2849884 .0055389406 .24099732 .0055389406 .19799805 .0055389406 .12298584 .022491456 .08799744 .08137512 .12298584 .07637024 .1539917 .09837341 .1539917 .1363678 .1539917 .17237854 .1269989 .19238281 .09799194 .19238281 .07398987 .19238281 .041992189 .17837525 .041992189 .1343689 .041992189 .043441774 .1349945-.022460938 .24398804-.022460938 .3659973-.022460938 .45700074 .06838989 .45700074 .17037964Z"/>
<path id="font_2_57" d="M.47099305 .16503906V.19602967H.37098695V.6507721C.37098695 .6707611 .37098695 .6767578 .35499574 .6767578 .34599305 .6767578 .34298707 .6767578 .33499146 .6647644L.027999878 .19602967V.16503906H.2939911V.07800293C.2939911 .041992189 .2919922 .0309906 .21798706 .0309906H.19699097V0C.23799134 .0029907227 .2899933 .0029907227 .33198548 .0029907227 .37399293 .0029907227 .4269867 .0029907227 .46798707 0V.0309906H.44699098C.37298585 .0309906 .37098695 .041992189 .37098695 .07800293V.16503906H.47099305M.2999878 .19602967H.055999757L.2999878 .56881716V.19602967Z"/>
<path id="font_2_56" d="M.44898988 .20091248C.44898988 .31991578 .36698915 .41992188 .25898744 .41992188 .21099854 .41992188 .16799927 .4039154 .13198853 .36891175V.5641022C.1519928 .55778506 .18499756 .55078127 .21699524 .55078127 .33999635 .55078127 .4099884 .6418457 .4099884 .65493777 .4099884 .6609802 .40699769 .6660156 .3999939 .6660156 .3999939 .66607668 .39698792 .66607668 .3919983 .66308596 .37199403 .65408328 .32299806 .63378909 .2559967 .63378909 .21598816 .63409426 .16999817 .641098 .12298584 .6621094 .114990238 .6651001 .11099243 .6651001 .11099243 .6651001 .100997928 .66508486 .100997928 .657074 .100997928 .64108279V.3447113C.100997928 .3266449 .100997928 .31861878 .114990238 .31861878 .12199402 .31861878 .12399292 .32164 .12799073 .32765199 .13899231 .34371949 .17599488 .3979187 .25698854 .3979187 .30899049 .3979187 .33399964 .3517456 .34199525 .3336792 .35798646 .2965393 .3600006 .2574005 .3600006 .20721436 .3600006 .17218018 .3600006 .112197879 .33599855 .07032776 .31199647 .031448366 .2749939 .0055389406 .22898865 .0055389406 .1559906 .0055389406 .09899902 .05836487 .08198547 .1171875 .084991458 .11685181 .08799744 .115859989 .09899902 .115859989 .13198853 .115859989 .14898682 .14085388 .14898682 .16485596 .14898682 .18885803 .13198853 .21386719 .09899902 .21386719 .084991458 .21386719 .049987794 .2068634 .049987794 .16085816 .049987794 .07432556 .11898804-.022460938 .23098755-.022460938 .34700013-.022460938 .44898988 .07331848 .44898988 .20019531V.20091248Z"/>
<path id="font_2_101" d="M.45700074 .2036438C.45700074 .33070375 .36799623 .4267578 .25698854 .4267578 .18899536 .4267578 .1519928 .37573243 .13198853 .327713V.35173036C.13198853 .6047821 .2559967 .64100649 .30699159 .64100649 .33099366 .64100649 .37298585 .634964 .394989 .6007538 .37998963 .6007538 .33999635 .6007538 .33999635 .5557556 .33999635 .524765 .3639984 .5097656 .38598634 .5097656 .4019928 .5097656 .43199159 .51875308 .43199159 .5577545 .43199159 .6178589 .3880005 .6660156 .30499269 .6660156 .1769867 .6660156 .041992189 .5367584 .041992189 .31570436 .041992189 .048553468 .1579895-.022460938 .25099183-.022460938 .3619995-.022460938 .45700074 .07156372 .45700074 .2036438M.36698915 .20463562C.36698915 .15661621 .36698915 .10658264 .34999085 .0705719 .31999208 .010528564 .27398683 .0055389406 .25099183 .0055389406 .18798828 .0055389406 .1579895 .06556702 .1519928 .080566409 .13398743 .127594 .13398743 .2076416 .13398743 .22564698 .13398743 .30369569 .1659851 .40374757 .2559967 .40374757 .27198792 .40374757 .31799317 .40374757 .34899903 .34172059 .36698915 .30470277 .36698915 .2536621 .36698915 .20463562Z"/>
<path id="font_2_64" d="M.27598573 .18710327V.24511719H.010986328V.18710327H.27598573Z"/>
<path id="font_2_121" d="M.45999146 .31976319C.45999146 .39982606 .45498658 .47988893 .41999818 .5539398 .37399293 .65000918 .2919922 .6660156 .25 .6660156 .18998719 .6660156 .116989139 .64001467 .07598877 .54693606 .04399109 .47789 .038986207 .39982606 .038986207 .31976319 .038986207 .24472046 .042999269 .15464783 .083999637 .07859802 .1269989-.0024719239 .19999695-.022460938 .24899292-.022460938 .30299378-.022460938 .3789978-.0014648438 .4229889 .09359741 .45498658 .16265869 .45999146 .2407074 .45999146 .31976319M.3769989 .3317871C.3769989 .25672914 .3769989 .18867493 .3659973 .12461853 .35099793 .029556275 .2939911-.00047302247 .24899292-.00047302247 .20999146-.00047302247 .15098572 .024551392 .1329956 .12062073 .12199402 .18066406 .12199402 .2727356 .12199402 .3317871 .12199402 .39582826 .12199402 .46188355 .12998963 .5159149 .14898682 .63500979 .22399903 .64401248 .24899292 .64401248 .28199769 .64401248 .34799195 .6259918 .36698915 .52693179 .3769989 .47088624 .3769989 .39482118 .3769989 .3317871Z"/>
<path id="font_2_88" d="M.19198609 .052993776C.19198609 .08198547 .16799927 .10598755 .13899231 .10598755 .10998535 .10598755 .085998538 .08198547 .085998538 .052993776 .085998538 .023986817 .10998535 0 .13899231 0 .16799927 0 .19198609 .023986817 .19198609 .052993776Z"/>
</defs>
<path transform="matrix(1,0,0,-1.00002,22.598,75.36324)" stroke-width=".3985" stroke-linecap="butt" stroke-miterlimit="10" stroke-linejoin="miter" fill="none" stroke="#00aeef" d="M0-56.68817H181.4194M0-51.01935H181.4194M0-45.35054H181.4194M0-39.68172H181.4194M0-34.0129H181.4194M0-28.34409H181.4194M0-22.67526H181.4194M0-17.00644H181.4194M0-11.33763H181.4194M0-5.66881H181.4194M0 0H181.4194M0 5.66881H181.4194M0 11.33763H181.4194M0 17.00644H181.4194M0 22.67526H181.4194M0 28.34409H181.4194M0 34.0129H181.4194M0 39.68172H181.4194M0 45.35054H181.4194M0 51.01935H181.4194M0 56.68817H181.4194M0-56.69362V56.69362M5.66927-56.69362V56.69362M11.33855-56.69362V56.69362M17.00781-56.69362V56.69362M22.6771-56.69362V56.69362M28.34636-56.69362V56.69362M34.01564-56.69362V56.69362M39.6849-56.69362V56.69362M45.35419-56.69362V56.69362M51.02345-56.69362V56.69362M56.69273-56.69362V56.69362M62.362-56.69362V56.69362M68.03128-56.69362V56.69362M73.70055-56.69362V56.69362M79.36983-56.69362V56.69362M85.0391-56.69362V56.69362M90.70837-56.69362V56.69362M96.37764-56.69362V56.69362M102.04692-56.69362V56.69362M107.7162-56.69362V56.69362M113.38547-56.69362V56.69362M119.05475-56.69362V56.69362M124.72401-56.69362V56.69362M130.3933-56.69362V56.69362M136.06256-56.69362V56.69362M141.73184-56.69362V56.69362M147.40111-56.69362V56.69362M153.07039-56.69362V56.69362M158.73966-56.69362V56.69362M164.40894-56.69362V56.69362M170.0782-56.69362V56.69362M175.74748-56.69362V56.69362M181.41675-56.69362V56.69362M181.4194 56.69362"/>
<path transform="matrix(1,0,0,-1.00002,22.598,75.36324)" stroke-width=".79701" stroke-linecap="butt" stroke-miterlimit="10" stroke-linejoin="miter" fill="none" stroke="#000000" d="M0 0H188.4889"/>
<path transform="matrix(1,0,0,-1.00002,211.08692,75.36324)" d="M1.0361 0C-.25902 .25902-1.55415 .77707-3.1083 1.68365-1.55415 .51805-1.55415-.51805-3.1083-1.68365-1.55415-.77707-.25902-.25902 1.0361 0Z"/>
<path transform="matrix(1,0,0,-1.00002,211.08692,75.36324)" stroke-width=".79701" stroke-linecap="butt" stroke-linejoin="round" fill="none" stroke="#000000" d="M1.0361 0C-.25902 .25902-1.55415 .77707-3.1083 1.68365-1.55415 .51805-1.55415-.51805-3.1083-1.68365-1.55415-.77707-.25902-.25902 1.0361 0Z"/>
<use data-text="x" xlink:href="#font_1_1" transform="matrix(9.9626,0,0,-9.962799,216.241,77.508289)"/>
<path transform="matrix(1,0,0,-1.00002,22.598,75.36324)" stroke-width=".79701" stroke-linecap="butt" stroke-miterlimit="10" stroke-linejoin="miter" fill="none" stroke="#000000" d="M0-56.69362V62.06195"/>
<path transform="matrix(0,-1.00002,-1,-0,22.598,13.300049)" d="M1.0361 0C-.25902 .25902-1.55415 .77707-3.1083 1.68365-1.55415 .51805-1.55415-.51805-3.1083-1.68365-1.55415-.77707-.25902-.25902 1.0361 0Z"/>
<path transform="matrix(0,-1.00002,-1,-0,22.598,13.300049)" stroke-width=".79701" stroke-linecap="butt" stroke-linejoin="round" fill="none" stroke="#000000" d="M1.0361 0C-.25902 .25902-1.55415 .77707-3.1083 1.68365-1.55415 .51805-1.55415-.51805-3.1083-1.68365-1.55415-.77707-.25902-.25902 1.0361 0Z"/>
<use data-text="y" xlink:href="#font_1_2" transform="matrix(9.9626,0,0,-9.962799,19.976998,6.2088549)"/>
<path transform="matrix(1,0,0,-1.00002,22.598,75.36324)" stroke-width=".79701" stroke-linecap="butt" stroke-miterlimit="10" stroke-linejoin="miter" fill="none" stroke="#000000" d="M28.3468 2.26733V-2.26822"/>
<path transform="matrix(1,0,0,-1.00002,22.598,75.36324)" d="M24.85983-13.28703H31.83377V-4.65928H24.85983Z" fill="#ffffff"/>
<use data-text="1" xlink:href="#font_2_82" transform="matrix(9.9626,0,0,-9.962799,48.454004,87.65449)"/>
<path transform="matrix(1,0,0,-1.00002,22.598,75.36324)" stroke-width=".79701" stroke-linecap="butt" stroke-miterlimit="10" stroke-linejoin="miter" fill="none" stroke="#000000" d="M56.69362 2.26733V-2.26822"/>
<path transform="matrix(1,0,0,-1.00002,22.598,75.36324)" d="M53.20665-13.28703H60.180589V-4.65928H53.20665Z" fill="#ffffff"/>
<use data-text="2" xlink:href="#font_2_107" transform="matrix(9.9626,0,0,-9.962799,76.800998,87.65449)"/>
<path transform="matrix(1,0,0,-1.00002,22.598,75.36324)" stroke-width=".79701" stroke-linecap="butt" stroke-miterlimit="10" stroke-linejoin="miter" fill="none" stroke="#000000" d="M85.04042 2.26733V-2.26822"/>
<path transform="matrix(1,0,0,-1.00002,22.598,75.36324)" d="M81.55345-13.5062H88.52739V-4.6592895H81.55345Z" fill="#ffffff"/>
<use data-text="3" xlink:href="#font_2_106" transform="matrix(9.9626,0,0,-9.962799,105.148,87.65449)"/>
<path transform="matrix(1,0,0,-1.00002,22.598,75.36324)" stroke-width=".79701" stroke-linecap="butt" stroke-miterlimit="10" stroke-linejoin="miter" fill="none" stroke="#000000" d="M113.38724 2.26733V-2.26822"/>
<path transform="matrix(1,0,0,-1.00002,22.598,75.36324)" d="M109.90027-13.39662H116.87421V-4.65928H109.90027Z" fill="#ffffff"/>
<use data-text="4" xlink:href="#font_2_57" transform="matrix(9.9626,0,0,-9.962799,133.495,87.76349)"/>
<path transform="matrix(1,0,0,-1.00002,22.598,75.36324)" stroke-width=".79701" stroke-linecap="butt" stroke-miterlimit="10" stroke-linejoin="miter" fill="none" stroke="#000000" d="M141.73404 2.26733V-2.26822"/>
<path transform="matrix(1,0,0,-1.00002,22.598,75.36324)" d="M138.24707-13.5062H145.22101V-4.6592895H138.24707Z" fill="#ffffff"/>
<use data-text="5" xlink:href="#font_2_56" transform="matrix(9.9626,0,0,-9.962799,161.841,87.65449)"/>
<path transform="matrix(1,0,0,-1.00002,22.598,75.36324)" stroke-width=".79701" stroke-linecap="butt" stroke-miterlimit="10" stroke-linejoin="miter" fill="none" stroke="#000000" d="M170.08086 2.26733V-2.26822"/>
<path transform="matrix(1,0,0,-1.00002,22.598,75.36324)" d="M166.59389-13.5062H173.56783V-4.6592895H166.59389Z" fill="#ffffff"/>
<use data-text="6" xlink:href="#font_2_101" transform="matrix(9.9626,0,0,-9.962799,190.18799,87.65449)"/>
<path transform="matrix(1,0,0,-1.00002,22.598,75.36324)" stroke-width=".79701" stroke-linecap="butt" stroke-miterlimit="10" stroke-linejoin="miter" fill="none" stroke="#000000" d="M2.26778-56.69362H-2.26779"/>
<path transform="matrix(1,0,0,-1.00002,22.598,75.36324)" d="M-14.95038-61.00749H-4.65886V-52.379739H-14.95038Z" fill="#ffffff"/>
<use data-text="-" xlink:href="#font_2_64" transform="matrix(9.9626,0,0,-9.962799,8.643997,135.37545)"/>
<use data-text="1" xlink:href="#font_2_82" transform="matrix(9.9626,0,0,-9.962799,11.96154,135.37545)"/>
<path transform="matrix(1,0,0,-1.00002,22.598,75.36324)" stroke-width=".79701" stroke-linecap="butt" stroke-miterlimit="10" stroke-linejoin="miter" fill="none" stroke="#000000" d="M2.26778-28.34679H-2.26779"/>
<path transform="matrix(1,0,0,-1.00002,22.598,75.36324)" d="M-22.70142-32.77025H-4.6588594V-23.923338H-22.70142Z" fill="#ffffff"/>
<use data-text="-" xlink:href="#font_2_64" transform="matrix(9.9626,0,0,-9.962799,.89299777,106.91887)"/>
<use data-text="0" xlink:href="#font_2_121" transform="matrix(9.9626,0,0,-9.962799,4.210541,106.91887)"/>
<use data-text="." xlink:href="#font_2_88" transform="matrix(9.9626,0,0,-9.962799,9.191841,106.91887)"/>
<use data-text="5" xlink:href="#font_2_56" transform="matrix(9.9626,0,0,-9.962799,11.961441,106.91887)"/>
<path transform="matrix(1,0,0,-1.00002,22.598,75.36324)" stroke-width=".79701" stroke-linecap="butt" stroke-miterlimit="10" stroke-linejoin="miter" fill="none" stroke="#000000" d="M2.26778 28.34679H-2.26779"/>
<path transform="matrix(1,0,0,-1.00002,22.598,75.36324)" d="M-19.38382 23.92332H-4.6588594V32.770235H-19.38382Z" fill="#ffffff"/>
<use data-text="0" xlink:href="#font_2_121" transform="matrix(9.9626,0,0,-9.962799,4.209999,50.22374)"/>
<use data-text="." xlink:href="#font_2_88" transform="matrix(9.9626,0,0,-9.962799,9.191299,50.22374)"/>
<use data-text="5" xlink:href="#font_2_56" transform="matrix(9.9626,0,0,-9.962799,11.960899,50.22374)"/>
<path transform="matrix(1,0,0,-1.00002,22.598,75.36324)" stroke-width=".79701" stroke-linecap="butt" stroke-miterlimit="10" stroke-linejoin="miter" fill="none" stroke="#000000" d="M2.26778 56.69362H-2.26779"/>
<path transform="matrix(1,0,0,-1.00002,22.598,75.36324)" d="M-11.63278 52.37973H-4.65884V61.00748H-11.63278Z" fill="#ffffff"/>
<use data-text="1" xlink:href="#font_2_82" transform="matrix(9.9626,0,0,-9.962799,11.961998,21.986176)"/>
<path transform="matrix(1,0,0,-1.00002,22.598,75.36324)" stroke-width="1.19553" stroke-linecap="butt" stroke-miterlimit="10" stroke-linejoin="miter" fill="none" stroke="#ff0000" d="M0 56.69362C0 56.69362 2.04787 56.56522 2.8344 56.40811 3.62094 56.25102 4.8823 55.87328 5.66882 55.56122 6.45537 55.24915 7.71672 54.62283 8.50325 54.15892 9.28978 53.69502 10.55113 52.82921 11.33768 52.2177 12.1242 51.60619 13.38556 50.5044 14.1721 49.75136 14.95863 48.9983 16.21997 47.67671 17.0065 46.79019 17.79305 45.90367 19.0544 44.37335 19.84093 43.36191 20.62747 42.35045 21.88882 40.62677 22.67535 39.5002 23.46188 38.37364 24.72324 36.47246 25.50978 35.24231 26.29631 34.01218 27.55766 31.95518 28.34421 30.63405 29.13074 29.3129 30.39209 27.11978 31.17862 25.7204 31.96516 24.32103 33.2265 22.01186 34.01303 20.54814 34.79958 19.08443 36.06093 16.68398 36.84746 15.1708 37.63399 13.65764 38.89536 11.18962 39.68188 9.64212 40.46841 8.09462 41.72977 5.58362 42.51631 4.0174 43.30284 2.45116 44.5642-.07677 45.35074-1.64621 46.13727-3.21567 47.39862-5.73694 48.18515-7.2943 48.9717-8.85165 50.23303-11.34094 51.01956-12.87056 51.8061-14.40019 53.06746-16.83266 53.85399-18.31883 54.64052-19.80501 55.90187-22.15399 56.68842-23.58194 57.47495-25.00989 58.7363-27.25482 59.52284-28.61063 60.30937-29.96643 61.57072-32.08408 62.35725-33.35384 63.1438-34.6236 64.40515-36.59131 65.19168-37.76228 65.97823-38.93326 67.23956-40.73236 68.0261-41.79352 68.81262-42.85468 70.07399-44.47 70.86052-45.4104 71.64705-46.3508 72.9084-47.76172 73.69495-48.57141 74.48148-49.38109 75.74283-50.57481 76.52937-51.24623 77.3159-51.91763 78.57726-52.88397 79.36378-53.41063 80.15033-53.93729 81.41168-54.666 82.19821-55.04216 82.98476-55.41832 84.2461-55.89998 85.03262-56.12178 85.81915-56.34357 87.0805-56.5752 87.86705-56.64082 88.65358-56.70647 89.91493-56.68594 90.70148-56.59499 91.488-56.50401 92.74936-56.23224 93.53589-55.9851 94.32243-55.73799 95.58379-55.2148 96.37032-54.8138 97.15686-54.4128 98.4182-53.64531 99.20473-53.09488 99.99126-52.54445 101.25262-51.54076 102.03915-50.84654 102.82568-50.15233 104.08704-48.92282 104.87358-48.09126 105.66011-47.25972 106.92146-45.81398 107.70801-44.8533 108.49454-43.89264 109.75589-42.24687 110.54242-41.16722 111.32896-40.08759 112.59032-38.25984 113.37685-37.07193 114.16339-35.88402 115.42473-33.8903 116.21126-32.60556 116.99779-31.32082 118.25914-29.18083 119.04568-27.81216 119.83221-26.4435 121.09357-24.1796 121.88011-22.74109 122.66664-21.30258 123.928-18.93831 124.71452-17.44423 125.50107-15.95015 126.76242-13.50761 127.54895-11.97261 128.3355-10.4376 129.59685-7.94112 130.38338-6.38078 131.1699-4.82045 132.43126-2.29659 133.21779-.72665 134.00432 .84328 135.26567 3.37006 136.05222 4.93437 136.83875 6.49869 138.1001 9.00479 138.88665 10.54785 139.67317 12.09091 140.93453 14.54968 141.72106 16.05577 142.5076 17.56186 143.76895 19.94858 144.55548 21.40283 145.34203 22.85709 146.60338 25.14941 147.38991 26.53705 148.17644 27.92468 149.43778 30.09674 150.22432 31.40396 151.01085 32.71118 152.2722 34.7443 153.05875 35.9586 153.84528 37.1729 155.10663 39.04724 155.89316 40.15593 156.6797 41.2646 157.94106 42.95753 158.72759 43.94931 159.51413 44.94109 160.77548 46.43866 161.56201 47.30405 162.34854 48.16943 163.6099 49.45589 164.39644 50.1865 165.18297 50.9171 166.4443 51.98177 167.23085 52.56978 168.01738 53.15779 169.27873 53.9851 170.06526 54.4245 170.8518 54.8639 172.11316 55.44997 172.89969 55.73683 173.68624 56.0237 174.94759 56.3605 175.73412 56.49203 176.52065 56.62357 177.78202 56.71036 178.56855 56.68495 179.35507 56.65953 181.40297 56.30864 181.40297 56.30864"/>
</svg>
