<?xml version="1.0" encoding="UTF-8"?>
<svg xmlns="http://www.w3.org/2000/svg" xmlns:xlink="http://www.w3.org/1999/xlink" width="98pt" height="97pt" viewBox="0 0 98 97" version="1.1">
<g id="surface1">
<path style="fill:none;stroke-width:0.79701;stroke-linecap:butt;stroke-linejoin:miter;stroke:rgb(50%,50%,50%);stroke-opacity:1;stroke-miterlimit:10;" d="M -48.191406 -0.000625 L 48.191406 -0.000625 " transform="matrix(1,0,0,-1,49,48.39)"/>
<path style="fill:none;stroke-width:0.79701;stroke-linecap:butt;stroke-linejoin:miter;stroke:rgb(50%,50%,50%);stroke-opacity:1;stroke-miterlimit:10;" d="M 0 -48.188125 L 0 48.190781 " transform="matrix(1,0,0,-1,49,48.39)"/>
<path style="fill:none;stroke-width:0.79701;stroke-linecap:butt;stroke-linejoin:miter;stroke:rgb(100%,0%,0%);stroke-opacity:1;stroke-miterlimit:10;" d="M 42.519531 -0.000625 C 42.519531 23.48375 23.484375 42.518906 0 42.518906 C -23.484375 42.518906 -42.519531 23.48375 -42.519531 -0.000625 C -42.519531 -23.485 -23.484375 -42.520156 0 -42.520156 C 23.484375 -42.520156 42.519531 -23.485 42.519531 -0.000625 Z M 42.519531 -0.000625 " transform="matrix(1,0,0,-1,49,48.39)"/>
<path style="fill:none;stroke-width:1.59404;stroke-linecap:butt;stroke-linejoin:miter;stroke:rgb(0%,0%,100%);stroke-opacity:1;stroke-miterlimit:10;" d="M 0 -0.000625 L 42.519531 -0.000625 " transform="matrix(1,0,0,-1,49,48.39)"/>
<path style="fill:none;stroke-width:1.59404;stroke-linecap:butt;stroke-linejoin:miter;stroke:rgb(0%,0%,100%);stroke-opacity:1;stroke-miterlimit:10;" d="M 0 -0.000625 L -21.261719 36.823594 " transform="matrix(1,0,0,-1,49,48.39)"/>
<path style="fill:none;stroke-width:1.59404;stroke-linecap:butt;stroke-linejoin:miter;stroke:rgb(0%,0%,100%);stroke-opacity:1;stroke-miterlimit:10;" d="M 0 -0.000625 L -21.261719 -36.824844 " transform="matrix(1,0,0,-1,49,48.39)"/>
</g>
</svg>
