<svg xmlns="http://www.w3.org/2000/svg" xmlns:xlink="http://www.w3.org/1999/xlink" version="1.1" width="146" height="134" viewBox="0 0 146 134">
<defs>
<path id="font_1_82" d="M.4189911 0V.0309906H.3869934C.29699708 .0309906 .2939911 .041992189 .2939911 .07902527V.64012148C.2939911 .6640167 .2939911 .6660156 .2709961 .6660156 .20899964 .60227969 .12098694 .60227969 .08898926 .60227969V.57128909C.10899353 .57128909 .16799927 .57128909 .21998596 .5972748V.07902527C.21998596 .042999269 .21699524 .0309906 .1269989 .0309906H.09498596V0C.12998963 .0029907227 .21699524 .0029907227 .25698854 .0029907227 .29699708 .0029907227 .38398744 .0029907227 .4189911 0Z"/>
<path id="font_1_107" d="M.44898988 .17396546H.42399598C.4189911 .14398194 .4119873 .099990848 .4019928 .084991458 .394989 .07699585 .32899476 .07699585 .30699159 .07699585H.1269989L.23298645 .17996216C.3889923 .31803895 .44898988 .37210084 .44898988 .47216798 .44898988 .5860901 .35899354 .6660156 .23699951 .6660156 .12399292 .6660156 .049987794 .57411196 .049987794 .48516847 .049987794 .4291687 .099990848 .4291687 .102996829 .4291687 .11999512 .4291687 .15499878 .44117738 .15499878 .48217774 .15499878 .5081787 .13699341 .5341797 .101989749 .5341797 .09399414 .5341797 .09199524 .5341797 .08898926 .5331726 .11199951 .59806826 .1659851 .63500979 .22399903 .63500979 .31498719 .63500979 .35798646 .5541382 .35798646 .47216798 .35798646 .39196778 .30799867 .31297303 .25299073 .25097657L.06098938 .036987306C.049987794 .025985718 .049987794 .023986817 .049987794 0H.42099L.44898988 .17396546Z"/>
<path id="font_1_106" d="M.45700074 .17037964C.45700074 .252594 .3939972 .33088685 .2899933 .35191346 .37199403 .37893678 .42999269 .4490509 .42999269 .52809146 .42999269 .6100464 .34199525 .6660156 .24598694 .6660156 .14498902 .6660156 .068984989 .60606387 .068984989 .53009036 .068984989 .49710084 .09098816 .47808839 .11999512 .47808839 .15098572 .47808839 .17098999 .50009158 .17098999 .5290985 .17098999 .57910159 .12399292 .57910159 .10899353 .57910159 .13999939 .62802127 .20599365 .64100649 .24198914 .64100649 .2829895 .64100649 .33799745 .6190338 .33799745 .5290985 .33799745 .51708987 .33599855 .45906068 .30999757 .4149933 .27999879 .36691285 .24598694 .36390687 .22099304 .36291505 .21299744 .36190797 .18899536 .35990907 .18199158 .35990907 .17399597 .35890199 .16699219 .35791017 .16699219 .3479004 .16699219 .33691407 .17399597 .33691407 .19099427 .33691407H.23498535C.31698609 .33691407 .35398866 .2686615 .35398866 .17037964 .35398866 .034469606 .2849884 .0055389406 .24099732 .0055389406 .19799805 .0055389406 .12298584 .022491456 .08799744 .08137512 .12298584 .07637024 .1539917 .09837341 .1539917 .1363678 .1539917 .17237854 .1269989 .19238281 .09799194 .19238281 .07398987 .19238281 .041992189 .17837525 .041992189 .1343689 .041992189 .043441774 .1349945-.022460938 .24398804-.022460938 .3659973-.022460938 .45700074 .06838989 .45700074 .17037964Z"/>
<path id="font_1_57" d="M.47099305 .16503906V.19602967H.37098695V.6507721C.37098695 .6707611 .37098695 .6767578 .35499574 .6767578 .34599305 .6767578 .34298707 .6767578 .33499146 .6647644L.027999878 .19602967V.16503906H.2939911V.07800293C.2939911 .041992189 .2919922 .0309906 .21798706 .0309906H.19699097V0C.23799134 .0029907227 .2899933 .0029907227 .33198548 .0029907227 .37399293 .0029907227 .4269867 .0029907227 .46798707 0V.0309906H.44699098C.37298585 .0309906 .37098695 .041992189 .37098695 .07800293V.16503906H.47099305M.2999878 .19602967H.055999757L.2999878 .56881716V.19602967Z"/>
<path id="font_1_56" d="M.44898988 .20091248C.44898988 .31991578 .36698915 .41992188 .25898744 .41992188 .21099854 .41992188 .16799927 .4039154 .13198853 .36891175V.5641022C.1519928 .55778506 .18499756 .55078127 .21699524 .55078127 .33999635 .55078127 .4099884 .6418457 .4099884 .65493777 .4099884 .6609802 .40699769 .6660156 .3999939 .6660156 .3999939 .66607668 .39698792 .66607668 .3919983 .66308596 .37199403 .65408328 .32299806 .63378909 .2559967 .63378909 .21598816 .63409426 .16999817 .641098 .12298584 .6621094 .114990238 .6651001 .11099243 .6651001 .11099243 .6651001 .100997928 .66508486 .100997928 .657074 .100997928 .64108279V.3447113C.100997928 .3266449 .100997928 .31861878 .114990238 .31861878 .12199402 .31861878 .12399292 .32164 .12799073 .32765199 .13899231 .34371949 .17599488 .3979187 .25698854 .3979187 .30899049 .3979187 .33399964 .3517456 .34199525 .3336792 .35798646 .2965393 .3600006 .2574005 .3600006 .20721436 .3600006 .17218018 .3600006 .112197879 .33599855 .07032776 .31199647 .031448366 .2749939 .0055389406 .22898865 .0055389406 .1559906 .0055389406 .09899902 .05836487 .08198547 .1171875 .084991458 .11685181 .08799744 .115859989 .09899902 .115859989 .13198853 .115859989 .14898682 .14085388 .14898682 .16485596 .14898682 .18885803 .13198853 .21386719 .09899902 .21386719 .084991458 .21386719 .049987794 .2068634 .049987794 .16085816 .049987794 .07432556 .11898804-.022460938 .23098755-.022460938 .34700013-.022460938 .44898988 .07331848 .44898988 .20019531V.20091248Z"/>
<path id="font_1_101" d="M.45700074 .2036438C.45700074 .33070375 .36799623 .4267578 .25698854 .4267578 .18899536 .4267578 .1519928 .37573243 .13198853 .327713V.35173036C.13198853 .6047821 .2559967 .64100649 .30699159 .64100649 .33099366 .64100649 .37298585 .634964 .394989 .6007538 .37998963 .6007538 .33999635 .6007538 .33999635 .5557556 .33999635 .524765 .3639984 .5097656 .38598634 .5097656 .4019928 .5097656 .43199159 .51875308 .43199159 .5577545 .43199159 .6178589 .3880005 .6660156 .30499269 .6660156 .1769867 .6660156 .041992189 .5367584 .041992189 .31570436 .041992189 .048553468 .1579895-.022460938 .25099183-.022460938 .3619995-.022460938 .45700074 .07156372 .45700074 .2036438M.36698915 .20463562C.36698915 .15661621 .36698915 .10658264 .34999085 .0705719 .31999208 .010528564 .27398683 .0055389406 .25099183 .0055389406 .18798828 .0055389406 .1579895 .06556702 .1519928 .080566409 .13398743 .127594 .13398743 .2076416 .13398743 .22564698 .13398743 .30369569 .1659851 .40374757 .2559967 .40374757 .27198792 .40374757 .31799317 .40374757 .34899903 .34172059 .36698915 .30470277 .36698915 .2536621 .36698915 .20463562Z"/>
<path id="font_2_1" d="M.2649994 .37265016H.37799073C.34498597 .22489929 .33599855 .18196106 .33599855 .11508179 .33599855 .100097659 .33599855 .073150638 .34399415 .03919983 .35398866-.0047454836 .36499024-.0107421879 .37998963-.0107421879 .3999939-.0107421879 .42099 .007247925 .42099 .02722168 .42099 .033218385 .42099 .035202028 .4149933 .049179079 .38598634 .12106323 .38598634 .18595886 .38598634 .21391297 .38598634 .26683045 .3929901 .32073976 .4039917 .37265016H.5179901C.5309906 .37265016 .5669861 .37265016 .5669861 .406662 .5669861 .43066407 .54599 .43066407 .5269928 .43066407H.19198609C.16999817 .43066407 .13198853 .43066407 .08799744 .38365174 .052993776 .34469605 .026992798 .29878236 .026992798 .29379273 .026992798 .29278565 .026992798 .28379823 .038986207 .28379823 .04699707 .28379823 .04899597 .28779603 .054992677 .29577638 .10398865 .37265016 .1619873 .37265016 .18199158 .37265016H.23899842C.20698548 .25186158 .15299988 .13105774 .11099243 .04020691 .102996829 .025222779 .102996829 .023223877 .102996829 .016235352 .102996829-.002746582 .11898804-.0107421879 .13198853-.0107421879 .1619873-.0107421879 .16999817 .017242432 .18199158 .05418396 .19599915 .100097659 .19599915 .10209656 .20899964 .15202332L.2649994 .37265016Z"/>
<path id="font_3_3" d="M.13198853 .327713V.35173036C.13198853 .6047821 .2559967 .64100649 .30699159 .64100649 .33099366 .64100649 .37298585 .634964 .394989 .6007538 .37998963 .6007538 .33999635 .6007538 .33999635 .5557556 .33999635 .524765 .3639984 .5097656 .38598634 .5097656 .4019928 .5097656 .43199159 .51875308 .43199159 .5577545 .43199159 .6178589 .3880005 .6660156 .30499269 .6660156 .1769867 .6660156 .041992189 .5367584 .041992189 .31570436 .041992189 .048553468 .1579895-.022460938 .25099183-.022460938 .3619995-.022460938 .45700074 .07156372 .45700074 .2036438 .45700074 .33070375 .36799623 .4267578 .25698854 .4267578 .18899536 .4267578 .1519928 .37573243 .13198853 .327713M.25099183 .0055389406C.18798828 .0055389406 .1579895 .06556702 .1519928 .080566409 .13398743 .127594 .13398743 .2076416 .13398743 .22564698 .13398743 .30369569 .1659851 .40374757 .2559967 .40374757 .27198792 .40374757 .31799317 .40374757 .34899903 .34172059 .36698915 .30470277 .36698915 .2536621 .36698915 .20463562 .36698915 .15661621 .36698915 .10658264 .34999085 .0705719 .31999208 .010528564 .27398683 .0055389406 .25099183 .0055389406Z"/>
<path id="font_3_2" d="M.44898988 .20022583C.44898988 .3193512 .36698915 .41944886 .25898744 .41944886 .21099854 .41944886 .16799927 .40345765 .13198853 .36842347V.5637665C.1519928 .5577698 .18499756 .55078127 .21699524 .55078127 .33999635 .55078127 .4099884 .6417694 .4099884 .6547699 .4099884 .6607666 .40699769 .6657715 .3999939 .6657715 .39898683 .6657715 .39698792 .6657715 .3919983 .66278079 .37199403 .6537781 .32299806 .6337738 .2559967 .6337738 .21598816 .6337738 .16999817 .6407776 .12298584 .6617737 .114990238 .66477969 .11299133 .66477969 .11099243 .66477969 .100997928 .66477969 .100997928 .6567688 .100997928 .6407776V.34439088C.100997928 .32637025 .100997928 .31835938 .114990238 .31835938 .12199402 .31835938 .12399292 .32136537 .12799073 .32736207 .13899231 .3433838 .17599488 .39746095 .25698854 .39746095 .30899049 .39746095 .33399964 .35139466 .34199525 .33337403 .35798646 .29632569 .3600006 .25727845 .3600006 .20722962 .3600006 .17222595 .3600006 .11222839 .33599855 .07035828 .31199647 .031463624 .2749939 .0055389406 .22898865 .0055389406 .1559906 .0055389406 .09899902 .058380128 .08198547 .11723328 .084991458 .1162262 .08799744 .115234378 .09899902 .115234378 .13198853 .115234378 .14898682 .14022827 .14898682 .16423035 .14898682 .18823242 .13198853 .21322632 .09899902 .21322632 .084991458 .21322632 .049987794 .20622254 .049987794 .16023255 .049987794 .07434082 .11898804-.022460938 .23098755-.022460938 .34700013-.022460938 .44898988 .073349 .44898988 .20022583Z"/>
<path id="font_3_4" d="M.47599793 .609375C.4850006 .6213684 .4850006 .62338259 .4850006 .64437869H.24198914C.11999512 .64437869 .117996219 .65737918 .11399841 .67637637H.08898926L.055999757 .4702301H.08099365C.083999637 .48625184 .09298706 .5493469 .10598755 .56137087 .11299133 .5673828 .19099427 .5673828 .20399475 .5673828H.41099549C.3999939 .5513611 .32099916 .4421997 .29899598 .40914918 .20899964 .27394105 .17599488 .1347351 .17599488 .032577516 .17599488 .022567749 .17599488-.022460938 .22200012-.022460938 .2679901-.022460938 .2679901 .022567749 .2679901 .032577516V.08366394C.2679901 .13873291 .2709961 .19381714 .2789917 .24790955 .2829895 .27093507 .29699708 .35707093 .34098817 .41915895L.47599793 .609375Z"/>
<path id="font_3_1" d="M.2939911 .64004519C.2939911 .66400149 .2939911 .6660156 .2709961 .6660156 .20899964 .60227969 .12098694 .60227969 .08898926 .60227969V.57128909C.10899353 .57128909 .16799927 .57128909 .21998596 .5972748V.07902527C.21998596 .042999269 .21699524 .0309906 .1269989 .0309906H.09498596V0C.12998963 .0029907227 .21699524 .0029907227 .25698854 .0029907227 .29699708 .0029907227 .38398744 .0029907227 .4189911 0V.0309906H.3869934C.29699708 .0309906 .2939911 .041992189 .2939911 .07902527V.64004519Z"/>
</defs>
<path transform="matrix(1.00009,0,0,-1,71.42108,64.806)" stroke-width=".79701" stroke-linecap="butt" stroke-miterlimit="10" stroke-linejoin="miter" fill="none" stroke="#c0c0c0" d="M-59.52846 0H59.52846"/>
<path transform="matrix(1.00009,0,0,-1,71.42108,64.806)" stroke-width=".79701" stroke-linecap="butt" stroke-miterlimit="10" stroke-linejoin="miter" fill="none" stroke="#c0c0c0" d="M0-59.52846V59.52846"/>
<path transform="matrix(1.00009,0,0,-1,71.42108,64.806)" stroke-width=".79701" stroke-linecap="butt" stroke-miterlimit="10" stroke-linejoin="miter" fill="none" stroke="#ff0000" d="M56.69363 0C56.69363 31.31142 31.31142 56.69363 0 56.69363-31.31142 56.69363-56.69363 31.31142-56.69363 0-56.69363-31.31142-31.31142-56.69363 0-56.69363 31.31142-56.69363 56.69363-31.31142 56.69363 0ZM0 0"/>
<path transform="matrix(1.00009,0,0,-1,71.42108,64.806)" stroke-width=".79701" stroke-linecap="butt" stroke-miterlimit="10" stroke-linejoin="miter" fill="none" stroke="#000000" d="M53.58667 5.37514 59.22742 5.94131"/>
<path transform="matrix(1.00009,0,0,-1,71.42108,64.806)" stroke-width=".79701" stroke-linecap="butt" stroke-miterlimit="10" stroke-linejoin="miter" fill="none" stroke="#000000" d="M52.78217 10.69838 58.33812 11.82428"/>
<path transform="matrix(1.00009,0,0,-1,71.42108,64.806)" stroke-width=".79701" stroke-linecap="butt" stroke-miterlimit="10" stroke-linejoin="miter" fill="none" stroke="#000000" d="M51.45123 15.91435 56.86792 17.58958"/>
<path transform="matrix(1.00009,0,0,-1,71.42108,64.806)" stroke-width=".79701" stroke-linecap="butt" stroke-miterlimit="10" stroke-linejoin="miter" fill="none" stroke="#000000" d="M49.60559 20.97115 54.82764 23.1784"/>
<path transform="matrix(1.00009,0,0,-1,71.42108,64.806)" stroke-width=".79701" stroke-linecap="butt" stroke-miterlimit="10" stroke-linejoin="miter" fill="none" stroke="#000000" d="M47.26341 25.81818 52.2389 28.53581"/>
<path transform="matrix(1.00009,0,0,-1,71.42108,64.806)" stroke-width=".79701" stroke-linecap="butt" stroke-miterlimit="10" stroke-linejoin="miter" fill="none" stroke="#000000" d="M44.45018 30.40697 49.1298 33.60818"/>
<path transform="matrix(1.00009,0,0,-1,71.42108,64.806)" stroke-width=".79701" stroke-linecap="butt" stroke-miterlimit="10" stroke-linejoin="miter" fill="none" stroke="#000000" d="M41.1936 34.69386 45.5298 38.34578"/>
<path transform="matrix(1.00009,0,0,-1,71.42108,64.806)" stroke-width=".79701" stroke-linecap="butt" stroke-miterlimit="10" stroke-linejoin="miter" fill="none" stroke="#000000" d="M37.52394 38.63255 41.47432 42.6997"/>
<path transform="matrix(1.00009,0,0,-1,71.42108,64.806)" stroke-width=".79701" stroke-linecap="butt" stroke-miterlimit="10" stroke-linejoin="miter" fill="none" stroke="#000000" d="M33.47972 42.18456 37.00449 46.62541"/>
<path transform="matrix(1.00009,0,0,-1,71.42108,64.806)" stroke-width=".79701" stroke-linecap="butt" stroke-miterlimit="10" stroke-linejoin="miter" fill="none" stroke="#000000" d="M29.10114 45.31569 32.16481 50.08615"/>
<path transform="matrix(1.00009,0,0,-1,71.42108,64.806)" stroke-width=".79701" stroke-linecap="butt" stroke-miterlimit="10" stroke-linejoin="miter" fill="none" stroke="#000000" d="M24.4332 47.99657 27.00551 53.04904"/>
<path transform="matrix(1.00009,0,0,-1,71.42108,64.806)" stroke-width=".79701" stroke-linecap="butt" stroke-miterlimit="10" stroke-linejoin="miter" fill="none" stroke="#000000" d="M19.51869 50.19385 21.57368 55.47816"/>
<path transform="matrix(1.00009,0,0,-1,71.42108,64.806)" stroke-width=".79701" stroke-linecap="butt" stroke-miterlimit="10" stroke-linejoin="miter" fill="none" stroke="#000000" d="M14.41129 51.89201 15.92819 57.35452"/>
<path transform="matrix(1.00009,0,0,-1,71.42108,64.806)" stroke-width=".79701" stroke-linecap="butt" stroke-miterlimit="10" stroke-linejoin="miter" fill="none" stroke="#000000" d="M9.15897 53.07198 10.12311 58.65906"/>
<path transform="matrix(1.00009,0,0,-1,71.42108,64.806)" stroke-width=".79701" stroke-linecap="butt" stroke-miterlimit="10" stroke-linejoin="miter" fill="none" stroke="#000000" d="M3.8154 53.72206 4.21724 59.3775"/>
<path transform="matrix(1.00009,0,0,-1,71.42108,64.806)" stroke-width=".79701" stroke-linecap="butt" stroke-miterlimit="10" stroke-linejoin="miter" fill="none" stroke="#000000" d="M-1.56447 53.83324-1.72928 59.49991"/>
<path transform="matrix(1.00009,0,0,-1,71.42108,64.806)" stroke-width=".79701" stroke-linecap="butt" stroke-miterlimit="10" stroke-linejoin="miter" fill="none" stroke="#000000" d="M-6.9301 53.40804-7.6598 59.03061"/>
<path transform="matrix(1.00009,0,0,-1,71.42108,64.806)" stroke-width=".79701" stroke-linecap="butt" stroke-miterlimit="10" stroke-linejoin="miter" fill="none" stroke="#000000" d="M-12.22784 52.45085-13.51463 57.97218"/>
<path transform="matrix(1.00009,0,0,-1,71.42108,64.806)" stroke-width=".79701" stroke-linecap="butt" stroke-miterlimit="10" stroke-linejoin="miter" fill="none" stroke="#000000" d="M-17.40271 50.96811-19.23453 56.33374"/>
<path transform="matrix(1.00009,0,0,-1,71.42108,64.806)" stroke-width=".79701" stroke-linecap="butt" stroke-miterlimit="10" stroke-linejoin="miter" fill="none" stroke="#000000" d="M-22.40329 48.97453-24.76192 54.12994"/>
<path transform="matrix(1.00009,0,0,-1,71.42108,64.806)" stroke-width=".79701" stroke-linecap="butt" stroke-miterlimit="10" stroke-linejoin="miter" fill="none" stroke="#000000" d="M-27.18068 46.4935-30.04192 51.38766"/>
<path transform="matrix(1.00009,0,0,-1,71.42108,64.806)" stroke-width=".79701" stroke-linecap="butt" stroke-miterlimit="10" stroke-linejoin="miter" fill="none" stroke="#000000" d="M-31.68686 43.54965-35.02216 48.13411"/>
<path transform="matrix(1.00009,0,0,-1,71.42108,64.806)" stroke-width=".79701" stroke-linecap="butt" stroke-miterlimit="10" stroke-linejoin="miter" fill="none" stroke="#000000" d="M-35.87555 40.16806-39.65204 44.39612"/>
<path transform="matrix(1.00009,0,0,-1,71.42108,64.806)" stroke-width=".79701" stroke-linecap="butt" stroke-miterlimit="10" stroke-linejoin="miter" fill="none" stroke="#000000" d="M-39.70525 36.38594-43.88486 40.21606"/>
<path transform="matrix(1.00009,0,0,-1,71.42108,64.806)" stroke-width=".79701" stroke-linecap="butt" stroke-miterlimit="10" stroke-linejoin="miter" fill="none" stroke="#000000" d="M-43.13959 32.2405-47.68082 35.63463"/>
<path transform="matrix(1.00009,0,0,-1,71.42108,64.806)" stroke-width=".79701" stroke-linecap="butt" stroke-miterlimit="10" stroke-linejoin="miter" fill="none" stroke="#000000" d="M-46.14313 27.77411-51.00098 30.69763"/>
<path transform="matrix(1.00009,0,0,-1,71.42108,64.806)" stroke-width=".79701" stroke-linecap="butt" stroke-miterlimit="10" stroke-linejoin="miter" fill="none" stroke="#000000" d="M-48.6843 23.02701-53.80945 25.45139"/>
<path transform="matrix(1.00009,0,0,-1,71.42108,64.806)" stroke-width=".79701" stroke-linecap="butt" stroke-miterlimit="10" stroke-linejoin="miter" fill="none" stroke="#000000" d="M-50.73972 18.0537-56.08113 19.95383"/>
<path transform="matrix(1.00009,0,0,-1,71.42108,64.806)" stroke-width=".79701" stroke-linecap="butt" stroke-miterlimit="10" stroke-linejoin="miter" fill="none" stroke="#000000" d="M-52.29037 12.8974-57.79529 14.25514"/>
<path transform="matrix(1.00009,0,0,-1,71.42108,64.806)" stroke-width=".79701" stroke-linecap="butt" stroke-miterlimit="10" stroke-linejoin="miter" fill="none" stroke="#000000" d="M-53.31635 7.61308-58.92853 8.41458"/>
<path transform="matrix(1.00009,0,0,-1,71.42108,64.806)" stroke-width=".79701" stroke-linecap="butt" stroke-miterlimit="10" stroke-linejoin="miter" fill="none" stroke="#000000" d="M-53.80858 2.25221-59.47266 2.48967"/>
<path transform="matrix(1.00009,0,0,-1,71.42108,64.806)" stroke-width=".79701" stroke-linecap="butt" stroke-miterlimit="10" stroke-linejoin="miter" fill="none" stroke="#000000" d="M-53.7649-3.12852-59.42465-3.4577"/>
<path transform="matrix(1.00009,0,0,-1,71.42108,64.806)" stroke-width=".79701" stroke-linecap="butt" stroke-miterlimit="10" stroke-linejoin="miter" fill="none" stroke="#000000" d="M-53.18529-8.47946-58.78448-9.37178"/>
<path transform="matrix(1.00009,0,0,-1,71.42108,64.806)" stroke-width=".79701" stroke-linecap="butt" stroke-miterlimit="10" stroke-linejoin="miter" fill="none" stroke="#000000" d="M-52.07193-13.74648-57.5535-15.19331"/>
<path transform="matrix(1.00009,0,0,-1,71.42108,64.806)" stroke-width=".79701" stroke-linecap="butt" stroke-miterlimit="10" stroke-linejoin="miter" fill="none" stroke="#000000" d="M-50.43997-18.87595-55.74937-20.86346"/>
<path transform="matrix(1.00009,0,0,-1,71.42108,64.806)" stroke-width=".79701" stroke-linecap="butt" stroke-miterlimit="10" stroke-linejoin="miter" fill="none" stroke="#000000" d="M-48.30322-23.81682-53.38771-26.32423"/>
<path transform="matrix(1.00009,0,0,-1,71.42108,64.806)" stroke-width=".79701" stroke-linecap="butt" stroke-miterlimit="10" stroke-linejoin="miter" fill="none" stroke="#000000" d="M-45.68552-28.52025-50.4949-31.52249"/>
<path transform="matrix(1.00009,0,0,-1,71.42108,64.806)" stroke-width=".79701" stroke-linecap="butt" stroke-miterlimit="10" stroke-linejoin="miter" fill="none" stroke="#000000" d="M-42.6093-32.93732-47.09515-36.40497"/>
<path transform="matrix(1.00009,0,0,-1,71.42108,64.806)" stroke-width=".79701" stroke-linecap="butt" stroke-miterlimit="10" stroke-linejoin="miter" fill="none" stroke="#000000" d="M-39.10791-37.02696-43.22437-40.92458"/>
<path transform="matrix(1.00009,0,0,-1,71.42108,64.806)" stroke-width=".79701" stroke-linecap="butt" stroke-miterlimit="10" stroke-linejoin="miter" fill="none" stroke="#000000" d="M-35.21722-40.74635-38.9245-45.03584"/>
<path transform="matrix(1.00009,0,0,-1,71.42108,64.806)" stroke-width=".79701" stroke-linecap="butt" stroke-miterlimit="10" stroke-linejoin="miter" fill="none" stroke="#000000" d="M-30.97318-44.0583-34.23407-48.69641"/>
<path transform="matrix(1.00009,0,0,-1,71.42108,64.806)" stroke-width=".79701" stroke-linecap="butt" stroke-miterlimit="10" stroke-linejoin="miter" fill="none" stroke="#000000" d="M-26.42114-46.92993-29.20277-51.86995"/>
<path transform="matrix(1.00009,0,0,-1,71.42108,64.806)" stroke-width=".79701" stroke-linecap="butt" stroke-miterlimit="10" stroke-linejoin="miter" fill="none" stroke="#000000" d="M-21.60396-49.33182-23.87782-54.5253"/>
<path transform="matrix(1.00009,0,0,-1,71.42108,64.806)" stroke-width=".79701" stroke-linecap="butt" stroke-miterlimit="10" stroke-linejoin="miter" fill="none" stroke="#000000" d="M-16.57095-51.24536-18.31537-56.63954"/>
<path transform="matrix(1.00009,0,0,-1,71.42108,64.806)" stroke-width=".79701" stroke-linecap="butt" stroke-miterlimit="10" stroke-linejoin="miter" fill="none" stroke="#000000" d="M-11.37314-52.64159-12.56998-58.18283"/>
<path transform="matrix(1.00009,0,0,-1,71.42108,64.806)" stroke-width=".79701" stroke-linecap="butt" stroke-miterlimit="10" stroke-linejoin="miter" fill="none" stroke="#000000" d="M-6.0607-53.514-6.6987-59.14781"/>
<path transform="matrix(1.00009,0,0,-1,71.42108,64.806)" stroke-width=".79701" stroke-linecap="butt" stroke-miterlimit="10" stroke-linejoin="miter" fill="none" stroke="#000000" d="M-.68945-53.85184-.76169-59.5211"/>
<path transform="matrix(1.00009,0,0,-1,71.42108,64.806)" stroke-width=".79701" stroke-linecap="butt" stroke-miterlimit="10" stroke-linejoin="miter" fill="none" stroke="#000000" d="M4.68826-53.65329 5.18178-59.30095"/>
<path transform="matrix(1.00009,0,0,-1,71.42108,64.806)" stroke-width=".79701" stroke-linecap="butt" stroke-miterlimit="10" stroke-linejoin="miter" fill="none" stroke="#000000" d="M10.02103-52.91495 11.07599-58.48561"/>
<path transform="matrix(1.00009,0,0,-1,71.42108,64.806)" stroke-width=".79701" stroke-linecap="butt" stroke-miterlimit="10" stroke-linejoin="miter" fill="none" stroke="#000000" d="M15.25258-51.65022 16.8586-57.08765"/>
<path transform="matrix(1.00009,0,0,-1,71.42108,64.806)" stroke-width=".79701" stroke-linecap="butt" stroke-miterlimit="10" stroke-linejoin="miter" fill="none" stroke="#000000" d="M20.33318-49.87032 22.47379-55.12003"/>
<path transform="matrix(1.00009,0,0,-1,71.42108,64.806)" stroke-width=".79701" stroke-linecap="butt" stroke-miterlimit="10" stroke-linejoin="miter" fill="none" stroke="#000000" d="M25.21002-47.59128 27.86365-52.60136"/>
<path transform="matrix(1.00009,0,0,-1,71.42108,64.806)" stroke-width=".79701" stroke-linecap="butt" stroke-miterlimit="10" stroke-linejoin="miter" fill="none" stroke="#000000" d="M29.83516-44.83559 32.97581-49.55586"/>
<path transform="matrix(1.00009,0,0,-1,71.42108,64.806)" stroke-width=".79701" stroke-linecap="butt" stroke-miterlimit="10" stroke-linejoin="miter" fill="none" stroke="#000000" d="M34.16096-41.63306 37.75752-46.01598"/>
<path transform="matrix(1.00009,0,0,-1,71.42108,64.806)" stroke-width=".79701" stroke-linecap="butt" stroke-miterlimit="10" stroke-linejoin="miter" fill="none" stroke="#000000" d="M38.14853-38.01704 42.16466-42.01932"/>
<path transform="matrix(1.00009,0,0,-1,71.42108,64.806)" stroke-width=".79701" stroke-linecap="butt" stroke-miterlimit="10" stroke-linejoin="miter" fill="none" stroke="#000000" d="M41.75244-34.01823 46.14746-37.59921"/>
<path transform="matrix(1.00009,0,0,-1,71.42108,64.806)" stroke-width=".79701" stroke-linecap="butt" stroke-miterlimit="10" stroke-linejoin="miter" fill="none" stroke="#000000" d="M44.93938-29.67989 49.67006-32.8041"/>
<path transform="matrix(1.00009,0,0,-1,71.42108,64.806)" stroke-width=".79701" stroke-linecap="butt" stroke-miterlimit="10" stroke-linejoin="miter" fill="none" stroke="#000000" d="M47.6778-25.04567 52.69652-27.68199"/>
<path transform="matrix(1.00009,0,0,-1,71.42108,64.806)" stroke-width=".79701" stroke-linecap="butt" stroke-miterlimit="10" stroke-linejoin="miter" fill="none" stroke="#000000" d="M49.94081-20.16145 55.19832-22.2839"/>
<path transform="matrix(1.00009,0,0,-1,71.42108,64.806)" stroke-width=".79701" stroke-linecap="butt" stroke-miterlimit="10" stroke-linejoin="miter" fill="none" stroke="#000000" d="M51.70212-15.07523 57.14474-16.66222"/>
<path transform="matrix(1.00009,0,0,-1,71.42108,64.806)" stroke-width=".79701" stroke-linecap="butt" stroke-miterlimit="10" stroke-linejoin="miter" fill="none" stroke="#000000" d="M52.94957-9.83763 58.52367-10.87355"/>
<path transform="matrix(1.00009,0,0,-1,71.42108,64.806)" stroke-width=".79701" stroke-linecap="butt" stroke-miterlimit="10" stroke-linejoin="miter" fill="none" stroke="#000000" d="M53.66714-4.504 59.31651-4.9785"/>
<path transform="matrix(1.00009,0,0,-1,71.42108,64.806)" stroke-width=".79701" stroke-linecap="butt" stroke-miterlimit="10" stroke-linejoin="miter" fill="none" stroke="#000000" d="M27.56737 42.93327 32.16222 50.08875"/>
<use data-text="1" xlink:href="#font_1_82" transform="matrix(9.963496,0,0,-9.9626,103.16294,12.071999)"/>
<path transform="matrix(1.00009,0,0,-1,71.42108,64.806)" stroke-width=".79701" stroke-linecap="butt" stroke-miterlimit="10" stroke-linejoin="miter" fill="none" stroke="#000000" d="M-21.23198 46.39314-24.77101 54.12563"/>
<use data-text="2" xlink:href="#font_1_107" transform="matrix(9.963496,0,0,-9.9626,39.446207,7.554001)"/>
<path transform="matrix(1.00009,0,0,-1,71.42108,64.806)" stroke-width=".79701" stroke-linecap="butt" stroke-miterlimit="10" stroke-linejoin="miter" fill="none" stroke="#000000" d="M-50.51178 7.20001-58.9307 8.39987"/>
<use data-text="3" xlink:href="#font_1_106" transform="matrix(9.963496,0,0,-9.9626,1.2167664,58.614)"/>
<path transform="matrix(1.00009,0,0,-1,71.42108,64.806)" stroke-width=".79701" stroke-linecap="butt" stroke-miterlimit="10" stroke-linejoin="miter" fill="none" stroke="#000000" d="M-33.3504-38.61353-38.90894-45.04924"/>
<use data-text="4" xlink:href="#font_1_57" transform="matrix(9.963496,0,0,-9.9626,23.62378,118.591)"/>
<path transform="matrix(1.00009,0,0,-1,71.42108,64.806)" stroke-width=".79701" stroke-linecap="butt" stroke-miterlimit="10" stroke-linejoin="miter" fill="none" stroke="#000000" d="M14.47183-48.92522 16.88367-57.07942"/>
<use data-text="5" xlink:href="#font_1_56" transform="matrix(9.963496,0,0,-9.9626,86.0644,131.889)"/>
<path transform="matrix(1.00009,0,0,-1,71.42108,64.806)" stroke-width=".79701" stroke-linecap="butt" stroke-miterlimit="10" stroke-linejoin="miter" fill="none" stroke="#000000" d="M48.98967-14.25557 57.1547-16.6315"/>
<use data-text="6" xlink:href="#font_1_101" transform="matrix(9.963496,0,0,-9.9626,131.13346,86.625)"/>
<path transform="matrix(1.00009,0,0,-1,71.42108,64.806)" d="M51.93307 28.3468C51.93307 29.91246 50.66388 31.18166 49.09824 31.18166 47.53258 31.18166 46.26338 29.91246 46.26338 28.3468 46.26338 26.78114 47.53258 25.51195 49.09824 25.51195 50.66388 25.51195 51.93307 26.78114 51.93307 28.3468ZM49.09824 28.3468" fill="#0000ff"/>
<path transform="matrix(1.00009,0,0,-1,71.42108,64.806)" stroke-width=".3985" stroke-linecap="butt" stroke-miterlimit="10" stroke-linejoin="miter" fill="none" stroke="#0000ff" d="M51.93307 28.3468C51.93307 29.91246 50.66388 31.18166 49.09824 31.18166 47.53258 31.18166 46.26338 29.91246 46.26338 28.3468 46.26338 26.78114 47.53258 25.51195 49.09824 25.51195 50.66388 25.51195 51.93307 26.78114 51.93307 28.3468ZM49.09824 28.3468"/>
<use data-text="&#x03c0;" xlink:href="#font_2_1" transform="matrix(9.963496,0,0,-9.9626,128.07518,27.871003)" fill="#0000ff"/>
<path transform="matrix(1.00009,0,0,-1,-29.549015,-18.196)" stroke-width=".3985" stroke-linecap="butt" stroke-miterlimit="10" stroke-linejoin="miter" fill="none" stroke="#0000ff" d="M157.61-50.316H163.646"/>
<use data-text="6" xlink:href="#font_3_3" transform="matrix(9.963496,0,0,-9.9626,128.60222,41.444)" fill="#0000ff"/>
<path transform="matrix(1.00009,0,0,-1,71.42108,64.806)" d="M-46.26338 28.3468C-46.26338 29.91246-47.53258 31.18166-49.09824 31.18166-50.66388 31.18166-51.93307 29.91246-51.93307 28.3468-51.93307 26.78114-50.66388 25.51195-49.09824 25.51195-47.53258 25.51195-46.26338 26.78114-46.26338 28.3468ZM-49.09824 28.3468" fill="#0000ff"/>
<path transform="matrix(1.00009,0,0,-1,71.42108,64.806)" stroke-width=".3985" stroke-linecap="butt" stroke-miterlimit="10" stroke-linejoin="miter" fill="none" stroke="#0000ff" d="M-46.26338 28.3468C-46.26338 29.91246-47.53258 31.18166-49.09824 31.18166-50.66388 31.18166-51.93307 29.91246-51.93307 28.3468-51.93307 26.78114-50.66388 25.51195-49.09824 25.51195-47.53258 25.51195-46.26338 26.78114-46.26338 28.3468ZM-49.09824 28.3468"/>
<use data-text="5" xlink:href="#font_3_2" transform="matrix(9.963496,0,0,-9.9626,3.748993,27.871003)" fill="#0000ff"/>
<use data-text="&#x03c0;" xlink:href="#font_2_1" transform="matrix(9.963496,0,0,-9.9626,8.730438,27.871003)" fill="#0000ff"/>
<path transform="matrix(1.00009,0,0,-1,-153.8752,-18.196)" stroke-width=".3985" stroke-linecap="butt" stroke-miterlimit="10" stroke-linejoin="miter" fill="none" stroke="#0000ff" d="M157.61-50.316H168.628"/>
<use data-text="6" xlink:href="#font_3_3" transform="matrix(9.963496,0,0,-9.9626,6.7672579,41.444)" fill="#0000ff"/>
<path transform="matrix(1.00009,0,0,-1,71.42108,64.806)" d="M-46.26338-28.3468C-46.26338-26.78114-47.53258-25.51195-49.09824-25.51195-50.66388-25.51195-51.93307-26.78114-51.93307-28.3468-51.93307-29.91246-50.66388-31.18166-49.09824-31.18166-47.53258-31.18166-46.26338-29.91246-46.26338-28.3468ZM-49.09824-28.3468" fill="#0000ff"/>
<path transform="matrix(1.00009,0,0,-1,71.42108,64.806)" stroke-width=".3985" stroke-linecap="butt" stroke-miterlimit="10" stroke-linejoin="miter" fill="none" stroke="#0000ff" d="M-46.26338-28.3468C-46.26338-26.78114-47.53258-25.51195-49.09824-25.51195-50.66388-25.51195-51.93307-26.78114-51.93307-28.3468-51.93307-29.91246-50.66388-31.18166-49.09824-31.18166-47.53258-31.18166-46.26338-29.91246-46.26338-28.3468ZM-49.09824-28.3468"/>
<use data-text="7" xlink:href="#font_3_4" transform="matrix(9.963496,0,0,-9.9626,3.748993,94.59)" fill="#0000ff"/>
<use data-text="&#x03c0;" xlink:href="#font_2_1" transform="matrix(9.963496,0,0,-9.9626,8.730438,94.59)" fill="#0000ff"/>
<path transform="matrix(1.00009,0,0,-1,-153.8752,48.523)" stroke-width=".3985" stroke-linecap="butt" stroke-miterlimit="10" stroke-linejoin="miter" fill="none" stroke="#0000ff" d="M157.61-50.316H168.628"/>
<use data-text="6" xlink:href="#font_3_3" transform="matrix(9.963496,0,0,-9.9626,6.7672579,108.162998)" fill="#0000ff"/>
<path transform="matrix(1.00009,0,0,-1,71.42108,64.806)" d="M51.93307-28.3468C51.93307-26.78114 50.66388-25.51195 49.09824-25.51195 47.53258-25.51195 46.26338-26.78114 46.26338-28.3468 46.26338-29.91246 47.53258-31.18166 49.09824-31.18166 50.66388-31.18166 51.93307-29.91246 51.93307-28.3468ZM49.09824-28.3468" fill="#0000ff"/>
<path transform="matrix(1.00009,0,0,-1,71.42108,64.806)" stroke-width=".3985" stroke-linecap="butt" stroke-miterlimit="10" stroke-linejoin="miter" fill="none" stroke="#0000ff" d="M51.93307-28.3468C51.93307-26.78114 50.66388-25.51195 49.09824-25.51195 47.53258-25.51195 46.26338-26.78114 46.26338-28.3468 46.26338-29.91246 47.53258-31.18166 49.09824-31.18166 50.66388-31.18166 51.93307-29.91246 51.93307-28.3468ZM49.09824-28.3468"/>
<use data-text="1" xlink:href="#font_3_1" transform="matrix(9.963496,0,0,-9.9626,128.07518,100.259)" fill="#0000ff"/>
<use data-text="1" xlink:href="#font_3_1" transform="matrix(9.963496,0,0,-9.9626,133.05692,100.259)" fill="#0000ff"/>
<use data-text="&#x03c0;" xlink:href="#font_2_1" transform="matrix(9.963496,0,0,-9.9626,138.03907,100.259)" fill="#0000ff"/>
<path transform="matrix(1.00009,0,0,-1,-29.549015,54.192)" stroke-width=".3985" stroke-linecap="butt" stroke-miterlimit="10" stroke-linejoin="miter" fill="none" stroke="#0000ff" d="M157.61-50.316H173.609"/>
<use data-text="6" xlink:href="#font_3_3" transform="matrix(9.963496,0,0,-9.9626,133.58467,113.832)" fill="#0000ff"/>
</svg>
