<svg xmlns="http://www.w3.org/2000/svg" xmlns:xlink="http://www.w3.org/1999/xlink" version="1.1" width="160" height="78" viewBox="0 0 160 78">
<defs>
<path id="font_1_2" d="M.33399964 .30233766C.33999635 .32835389 .36299134 .42037965 .43299867 .42037965 .43798829 .42037965 .46199037 .42037965 .48298646 .40734864 .45498658 .402359 .43499757 .37734986 .43499757 .35334779 .43499757 .33735658 .44599916 .31835938 .47299195 .31835938 .49499513 .31835938 .5269928 .3363495 .5269928 .37635804 .5269928 .42837525 .46798707 .4423828 .43399049 .4423828 .37599183 .4423828 .34098817 .38935853 .32899476 .36634828 .3039856 .43237306 .25 .4423828 .22099304 .4423828 .116989139 .4423828 .05999756 .3133545 .05999756 .28834535 .05999756 .27833558 .069992069 .27833558 .07199097 .27833558 .07998657 .27833558 .08299255 .28033448 .084991458 .28933717 .11898804 .39535523 .18499756 .42037965 .21899414 .42037965 .23799134 .42037965 .272995 .4113617 .272995 .35334779 .272995 .32235719 .2559967 .25532533 .21899414 .11528015 .20298767 .053268434 .16799927 .011245728 .12399292 .011245728 .117996219 .011245728 .09498596 .011245728 .07398987 .024276734 .09899902 .029266358 .12098694 .05027771 .12098694 .07827759 .12098694 .105270389 .09899902 .11328125 .083999637 .11328125 .053985597 .11328125 .0289917 .08728027 .0289917 .055267335 .0289917 .009246826 .07899475-.0107421879 .12298584-.0107421879 .18899536-.0107421879 .22499085 .059280397 .22799683 .0652771 .23999024 .028274537 .27598573-.0107421879 .33599855-.0107421879 .43899537-.0107421879 .49598695 .118270877 .49598695 .14328003 .49598695 .1532898 .4869995 .1532898 .48399354 .1532898 .47499085 .1532898 .47299195 .14929199 .47099305 .14228821 .43798829 .03527832 .36999513 .011245728 .33799745 .011245728 .29899598 .011245728 .2829895 .043273927 .2829895 .07727051 .2829895 .09927368 .2889862 .121276859 .2999878 .16529846L.33399964 .30233766Z"/>
<path id="font_1_3" d="M.48599244 .38136292C.48999024 .39537049 .48999024 .39736939 .48999024 .40437318 .48999024 .42237855 .47599793 .43138124 .46099855 .43138124 .45098878 .43138124 .43499757 .42536927 .42599488 .41036988 .42399598 .405365 .41600038 .37435914 .4119873 .35635377 .40499879 .33035279 .397995 .30334474 .3919983 .27633668L.34700013 .09628296C.34298707 .08126831 .2999878 .011245728 .23399353 .011245728 .18299866 .011245728 .17199707 .055267335 .17199707 .0922699 .17199707 .1382904 .18899536 .20030213 .22299195 .28833009 .23899842 .3293457 .24299622 .3403473 .24299622 .36035157 .24299622 .405365 .21099854 .4423828 .16099549 .4423828 .06599426 .4423828 .0289917 .29733277 .0289917 .28833009 .0289917 .27833558 .038986207 .27833558 .040985109 .27833558 .050994874 .27833558 .051986696 .28033448 .056991579 .29634095 .083999637 .3903656 .12399292 .42037965 .1579895 .42037965 .1659851 .42037965 .18299866 .42037965 .18299866 .3883667 .18299866 .36335755 .17298889 .3373413 .1659851 .31834413 .12599182 .21231079 .10798645 .1552887 .10798645 .10827637 .10798645 .019256592 .17098999-.0107421879 .22999573-.0107421879 .2689972-.0107421879 .30299378 .0062561037 .33099366 .03425598 .31799317-.017745972 .30599977-.06674194 .2659912-.11973572 .23999024-.15385437 .20199585-.18309021 .1559906-.18309021 .14199829-.18309021 .09700012-.18005371 .07998657-.14074707 .09599304-.14074707 .10899353-.14074707 .12298584-.1287384 .1329956-.11973572 .14299011-.10673523 .14299011-.08773804 .14299011-.056747438 .115997318-.052734376 .10598755-.052734376 .08299255-.052734376 .049987794-.068740848 .049987794-.11773682 .049987794-.16796875 .09399414-.20507813 .1559906-.20507813 .25898744-.20507813 .3619995-.11373901 .3899994-.00074768069L.48599244 .38136292Z"/>
<path id="font_2_1" d="M.6589966 .23046875C.6759949 .23046875 .69400027 .23046875 .69400027 .25045777 .69400027 .27046205 .6759949 .27046205 .6589966 .27046205H.117996219C.100997928 .27046205 .08299255 .27046205 .08299255 .25045777 .08299255 .23046875 .100997928 .23046875 .117996219 .23046875H.6589966Z"/>
<path id="font_3_1" d="M.2939911 .64004519C.2939911 .66400149 .2939911 .6660156 .2709961 .6660156 .20899964 .60227969 .12098694 .60227969 .08898926 .60227969V.57128909C.10899353 .57128909 .16799927 .57128909 .21998596 .5972748V.07902527C.21998596 .042999269 .21699524 .0309906 .1269989 .0309906H.09498596V0C.12998963 .0029907227 .21699524 .0029907227 .25698854 .0029907227 .29699708 .0029907227 .38398744 .0029907227 .4189911 0V.0309906H.3869934C.29699708 .0309906 .2939911 .041992189 .2939911 .07902527V.64004519Z"/>
<path id="font_4_1" d="M.31098939 .36265565H.42999269C.4149933 .30274964 .3929901 .2118988 .3929901 .13302613 .3929901 .09309387 .397995 .06613159 .4039917 .044174196 .41999818-.0057678224 .43299867-.009765625 .44898988-.009765625 .47200013-.009765625 .49598695 .011230469 .49598695 .035186769 .49598695 .043182374 .49398805 .047164918 .48799134 .057159425 .46899415 .09408569 .45098878 .15100098 .45098878 .23286438 .45098878 .25183106 .45098878 .29177857 .46499635 .36265565H.58999636C.60798647 .36265565 .6159973 .36265565 .6269989 .37065126 .6409912 .380661 .6439972 .39665223 .6439972 .4016571 .6439972 .43066407 .6179962 .43066407 .6009979 .43066407H.22399903C.18299866 .43066407 .15499878 .42166139 .10998535 .37965394 .083999637 .35665895 .04499817 .30274964 .04499817 .2937622 .04499817 .28178407 .057998659 .28178407 .06199646 .28178407 .07299805 .28178407 .07398987 .28378297 .07998657 .2927704 .1309967 .36265565 .19299317 .36265565 .21499634 .36265565H.27598573C.24499512 .25283814 .19099427 .13502503 .16099549 .07511902 .15499878 .062149049 .14498902 .04118347 .14199829 .03718567 .14099121 .033187868 .13899231 .029190064 .13899231 .022201539 .13899231 .006225586 .15098572-.009765625 .17399597-.009765625 .21398926-.009765625 .22499085 .035186769 .24899292 .12504578L.31098939 .36265565Z"/>
<path id="font_5_1" d="M.5049896 .18203736H.47099305C.46798707 .16001892 .45799256 .100997928 .44499208 .09098816 .43699647 .084991458 .3600006 .084991458 .34599305 .084991458H.1619873C.2669983 .17803955 .3019867 .20603943 .3619995 .25306703 .43598939 .312088 .5049896 .374115 .5049896 .46914674 .5049896 .5900879 .39898683 .6640625 .2709961 .6640625 .14698792 .6640625 .06298828 .57710269 .06298828 .4851532 .06298828 .43414308 .10598755 .42915345 .115997318 .42915345 .13999939 .42915345 .16899109 .44615174 .16899109 .48214723 .16899109 .5001526 .1619873 .53515627 .10998535 .53515627 .14099121 .6060791 .20899964 .62805178 .2559967 .62805178 .35598756 .62805178 .4079895 .5501404 .4079895 .46914674 .4079895 .38212586 .34599305 .3130951 .31399537 .27708436L.07299805 .038986207C.06298828 .02999878 .06298828 .027999878 .06298828 0H.47499085L.5049896 .18203736Z"/>
<path id="font_1_1" d="M.2649994 .37265016H.37799073C.34498597 .22489929 .33599855 .18196106 .33599855 .11508179 .33599855 .100097659 .33599855 .073150638 .34399415 .03919983 .35398866-.0047454836 .36499024-.0107421879 .37998963-.0107421879 .3999939-.0107421879 .42099 .007247925 .42099 .02722168 .42099 .033218385 .42099 .035202028 .4149933 .049179079 .38598634 .12106323 .38598634 .18595886 .38598634 .21391297 .38598634 .26683045 .3929901 .32073976 .4039917 .37265016H.5179901C.5309906 .37265016 .5669861 .37265016 .5669861 .406662 .5669861 .43066407 .54599 .43066407 .5269928 .43066407H.19198609C.16999817 .43066407 .13198853 .43066407 .08799744 .38365174 .052993776 .34469605 .026992798 .29878236 .026992798 .29379273 .026992798 .29278565 .026992798 .28379823 .038986207 .28379823 .04699707 .28379823 .04899597 .28779603 .054992677 .29577638 .10398865 .37265016 .1619873 .37265016 .18199158 .37265016H.23899842C.20698548 .25186158 .15299988 .13105774 .11099243 .04020691 .102996829 .025222779 .102996829 .023223877 .102996829 .016235352 .102996829-.002746582 .11898804-.0107421879 .13198853-.0107421879 .1619873-.0107421879 .16999817 .017242432 .18199158 .05418396 .19599915 .100097659 .19599915 .10209656 .20899964 .15202332L.2649994 .37265016Z"/>
<path id="font_5_2" d="M.272995 .33428956C.35099793 .33428956 .40699769 .2803192 .40699769 .1733551 .40699769 .04940796 .33499146 .012466431 .2769928 .012466431 .23699951 .012466431 .14898682 .0234375 .10699463 .082351688 .1539917 .084350589 .16499329 .11735535 .16499329 .13835144 .16499329 .17034912 .14099121 .19335938 .10998535 .19335938 .08198547 .19335938 .053985597 .17634583 .053985597 .13534546 .053985597 .041412355 .1579895-.01953125 .2789917-.01953125 .41799928-.01953125 .5139923 .07336426 .5139923 .1733551 .5139923 .2513275 .44999696 .32929994 .33999635 .35229493 .44499208 .39024354 .48298646 .4650879 .48298646 .5260773 .48298646 .60505679 .3919983 .6640625 .2809906 .6640625 .16999817 .6640625 .084991458 .61006167 .084991458 .5300751 .084991458 .49606324 .10699463 .47706605 .13699341 .47706605 .16799927 .47706605 .18798828 .5000763 .18798828 .5280762 .18798828 .5570679 .16799927 .57806399 .13699341 .5800781 .17199707 .62405398 .24099732 .63505557 .27799989 .63505557 .32299806 .63505557 .38598634 .6130676 .38598634 .5260773 .38598634 .48406983 .37199403 .43814088 .34599305 .4072113 .31298829 .36927796 .2849884 .3672943 .23498535 .36428834 .20999146 .3623047 .20799256 .3623047 .20298767 .3612976 .20098877 .3612976 .19299317 .3592987 .19299317 .34829713 .19299317 .33428956 .20199585 .33428956 .21899414 .33428956H.272995Z"/>
<path id="font_3_2" d="M.1269989 .07699585 .23298645 .18003845C.3889923 .31811524 .44898988 .3721466 .44898988 .47216798 .44898988 .5860901 .35899354 .6660156 .23699951 .6660156 .12399292 .6660156 .049987794 .57411196 .049987794 .48516847 .049987794 .4291687 .099990848 .4291687 .102996829 .4291687 .11999512 .4291687 .15499878 .44117738 .15499878 .48217774 .15499878 .5081787 .13699341 .5341797 .101989749 .5341797 .09399414 .5341797 .09199524 .5341797 .08898926 .5331726 .11199951 .59806826 .1659851 .63500979 .22399903 .63500979 .31498719 .63500979 .35798646 .5541382 .35798646 .47216798 .35798646 .39215089 .30799867 .31311036 .25299073 .25108338L.06098938 .036987306C.049987794 .025985718 .049987794 .023986817 .049987794 0H.42099L.44898988 .17404175H.42399598C.4189911 .14402771 .4119873 .1000061 .4019928 .084991458 .394989 .07699585 .32899476 .07699585 .30699159 .07699585H.1269989Z"/>
</defs>
<path transform="matrix(1.00008,0,0,-1.00005,20.981316,45.883646)" stroke-width=".3985" stroke-linecap="butt" stroke-miterlimit="10" stroke-linejoin="miter" fill="none" stroke="#00aeef" d="M0-28.34676H124.67497M0-21.26007H124.67497M0-14.17337H124.67497M0-7.08669H124.67497M0 0H124.67497M0 7.08669H124.67497M0 14.17337H124.67497M0 21.26007H124.67497M0 28.34676H124.67497M0-28.3468V28.3468M10.3894-28.3468V28.3468M20.77884-28.3468V28.3468M31.16826-28.3468V28.3468M41.5577-28.3468V28.3468M51.94711-28.3468V28.3468M62.33655-28.3468V28.3468M72.72597-28.3468V28.3468M83.1154-28.3468V28.3468M93.50482-28.3468V28.3468M103.89426-28.3468V28.3468M114.28368-28.3468V28.3468M124.67311-28.3468V28.3468M124.67497 28.3468"/>
<path transform="matrix(1.00008,0,0,-1.00005,20.981316,45.883646)" stroke-width=".79701" stroke-linecap="butt" stroke-miterlimit="10" stroke-linejoin="miter" fill="none" stroke="#000000" d="M0 0H127.5428"/>
<path transform="matrix(1.00008,0,0,-1.00005,148.53432,45.883646)" d="M1.0361 0C-.25902 .25902-1.55415 .77707-3.1083 1.68365-1.55415 .51805-1.55415-.51805-3.1083-1.68365-1.55415-.77707-.25902-.25902 1.0361 0Z"/>
<path transform="matrix(1.00008,0,0,-1.00005,148.53432,45.883646)" stroke-width=".79701" stroke-linecap="butt" stroke-linejoin="round" fill="none" stroke="#000000" d="M1.0361 0C-.25902 .25902-1.55415 .77707-3.1083 1.68365-1.55415 .51805-1.55415-.51805-3.1083-1.68365-1.55415-.77707-.25902-.25902 1.0361 0Z"/>
<use data-text="x" xlink:href="#font_1_2" transform="matrix(9.963397,0,0,-9.963098,153.68793,48.02875)"/>
<path transform="matrix(1.00008,0,0,-1.00005,20.981316,45.883646)" stroke-width=".79701" stroke-linecap="butt" stroke-miterlimit="10" stroke-linejoin="miter" fill="none" stroke="#000000" d="M0-28.3468V32.58147"/>
<path transform="matrix(0,-1.00005,-1.00008,-0,20.981316,13.300545)" d="M1.0361 0C-.25902 .25902-1.55415 .77707-3.1083 1.68365-1.55415 .51805-1.55415-.51805-3.1083-1.68365-1.55415-.77707-.25902-.25902 1.0361 0Z"/>
<path transform="matrix(0,-1.00005,-1.00008,-0,20.981316,13.300545)" stroke-width=".79701" stroke-linecap="butt" stroke-linejoin="round" fill="none" stroke="#000000" d="M1.0361 0C-.25902 .25902-1.55415 .77707-3.1083 1.68365-1.55415 .51805-1.55415-.51805-3.1083-1.68365-1.55415-.77707-.25902-.25902 1.0361 0Z"/>
<use data-text="y" xlink:href="#font_1_3" transform="matrix(9.963397,0,0,-9.963098,18.360108,6.2096636)"/>
<path transform="matrix(1.00008,0,0,-1.00005,20.981316,45.883646)" stroke-width=".79701" stroke-linecap="butt" stroke-miterlimit="10" stroke-linejoin="miter" fill="none" stroke="#000000" d="M3.96846-28.3468H-3.96846"/>
<path transform="matrix(1.00008,0,0,-1.00005,20.981316,45.883646)" d="M-21.08229-32.96841H-6.3595106V-23.725182H-21.08229Z" fill="#ffffff"/>
<use data-text="&#x2212;" xlink:href="#font_2_1" transform="matrix(9.963397,0,0,-9.963098,.8937073,77.0272)"/>
<use data-text="1" xlink:href="#font_3_1" transform="matrix(9.963397,0,0,-9.963098,8.642326,77.0272)"/>
<path transform="matrix(1.00008,0,0,-1.00005,20.981316,45.883646)" stroke-width=".79701" stroke-linecap="butt" stroke-miterlimit="10" stroke-linejoin="miter" fill="none" stroke="#000000" d="M3.96846 28.3468H-3.96846"/>
<path transform="matrix(1.00008,0,0,-1.00005,20.981316,45.883646)" d="M-13.33345 24.1403H-6.3595106V32.55328H-13.33345Z" fill="#ffffff"/>
<use data-text="1" xlink:href="#font_3_1" transform="matrix(9.963397,0,0,-9.963098,8.643326,20.74539)"/>
<path transform="matrix(1.00008,0,0,-1.00005,20.981316,45.883646)" stroke-width=".79701" stroke-linecap="butt" stroke-miterlimit="10" stroke-linejoin="miter" fill="none" stroke="#000000" d="M31.16858 2.26778V-2.26779"/>
<path transform="matrix(1.00008,0,0,-1.00005,20.981316,45.883646)" d="M26.52222-17.01228H35.81494V-4.6588594H26.52222Z" fill="#ffffff"/>
<use data-text="&#x03c0;" xlink:href="#font_4_1" transform="matrix(6.974358,0,0,-6.9741489,49.696626,54.542078)"/>
<path transform="matrix(1.00008,0,0,-1.00005,-55.485795,25.57763)" stroke-width=".3985" stroke-linecap="butt" stroke-miterlimit="10" stroke-linejoin="miter" fill="none" stroke="#000000" d="M105.174-30.395H110.083"/>
<use data-text="2" xlink:href="#font_5_1" transform="matrix(6.974358,0,0,-6.9741489,50.165658,61.900445)"/>
<path transform="matrix(1.00008,0,0,-1.00005,20.981316,45.883646)" stroke-width=".79701" stroke-linecap="butt" stroke-miterlimit="10" stroke-linejoin="miter" fill="none" stroke="#000000" d="M62.33748 2.26778V-2.26779"/>
<path transform="matrix(1.00008,0,0,-1.00005,20.981316,45.883646)" d="M58.32297-10.94092H66.35201V-4.6588599H58.32297Z" fill="#ffffff"/>
<use data-text="&#x03c0;" xlink:href="#font_1_1" transform="matrix(9.963397,0,0,-9.963098,80.30506,55.82914)"/>
<path transform="matrix(1.00008,0,0,-1.00005,20.981316,45.883646)" stroke-width=".79701" stroke-linecap="butt" stroke-miterlimit="10" stroke-linejoin="miter" fill="none" stroke="#000000" d="M93.50607 2.26778V-2.26779"/>
<path transform="matrix(1.00008,0,0,-1.00005,20.981316,45.883646)" d="M86.87405-18.50394H100.13807V-4.65886H86.87405Z" fill="#ffffff"/>
<use data-text="3" xlink:href="#font_5_2" transform="matrix(6.974358,0,0,-6.9741489,110.05345,56.03415)"/>
<use data-text="&#x03c0;" xlink:href="#font_4_1" transform="matrix(6.974358,0,0,-6.9741489,114.024768,56.03415)"/>
<path transform="matrix(1.00008,0,0,-1.00005,4.8710329,27.069705)" stroke-width=".3985" stroke-linecap="butt" stroke-miterlimit="10" stroke-linejoin="miter" fill="none" stroke="#000000" d="M105.174-30.395H114.054"/>
<use data-text="2" xlink:href="#font_5_1" transform="matrix(6.974358,0,0,-6.9741489,112.50864,63.392518)"/>
<path transform="matrix(1.00008,0,0,-1.00005,20.981316,45.883646)" stroke-width=".79701" stroke-linecap="butt" stroke-miterlimit="10" stroke-linejoin="miter" fill="none" stroke="#000000" d="M124.67497 2.26778V-2.26779"/>
<path transform="matrix(1.00008,0,0,-1.00005,20.981316,45.883646)" d="M118.16975-13.07184H131.18016V-4.65886H118.16975Z" fill="#ffffff"/>
<use data-text="2" xlink:href="#font_3_2" transform="matrix(9.963397,0,0,-9.963098,140.15685,57.960248)"/>
<use data-text="&#x03c0;" xlink:href="#font_1_1" transform="matrix(9.963397,0,0,-9.963098,145.13825,57.960248)"/>
<path transform="matrix(1.00008,0,0,-1.00005,20.981316,45.883646)" stroke-width="1.19553" stroke-linecap="butt" stroke-miterlimit="10" stroke-linejoin="miter" fill="none" stroke="#ff0000" d="M0 28.3468C0 28.3468 1.40726 28.28455 1.94772 28.20882 2.48822 28.13307 3.355 27.9512 3.89548 27.80093 4.43596 27.65067 5.30276 27.34952 5.84323 27.12573 6.38373 26.90195 7.2505 26.48297 7.79099 26.188 8.33147 25.89304 9.19827 25.36307 9.73874 24.99982 10.27924 24.63657 11.14601 23.9981 11.6865 23.56984 12.22697 23.14159 13.09378 22.40208 13.63425 21.91322 14.17474 21.42435 15.04152 20.59142 15.582 20.04639 16.12248 19.50134 16.98929 18.58086 17.52975 17.98492 18.07025 17.38899 18.93703 16.39218 19.47751 15.7513 20.01799 15.11041 20.8848 14.04568 21.42526 13.36584 21.96576 12.68602 22.83253 11.56361 23.37302 10.8515 23.9135 10.13937 24.78029 8.9709 25.32077 8.23334 25.86127 7.49577 26.72803 6.29166 27.26852 5.53561 27.809 4.77957 28.67578 3.55139 29.21628 2.78424 29.75677 2.01707 30.62354 .77722 31.16403 .00647 31.70451-.76427 32.57129-2.00374 33.11179-2.77083 33.65228-3.53792 34.51904-4.7661 35.05954-5.5222 35.60002-6.2783 36.4668-7.4827 37.0073-8.22037 37.54779-8.95805 38.41455-10.12665 38.95505-10.83896 39.49553-11.55125 40.3623-12.67421 40.9028-13.35417 41.4433-14.03412 42.31006-15.09862 42.85056-15.73961 43.39104-16.3806 44.25781-17.37791 44.79831-17.97409 45.33878-18.57027 46.20557-19.49117 46.74606-20.03644 47.28653-20.58173 48.15332-21.41498 48.69382-21.90414 49.23428-22.39331 50.10107-23.13345 50.64157-23.56206 51.18204-23.99066 52.04883-24.6297 52.58932-24.99332 53.12979-25.35693 53.99658-25.88753 54.53708-26.1828 55.07755-26.47807 55.94434-26.89722 56.48483-27.12141 57.0253-27.34561 57.89209-27.64809 58.43259-27.79877 58.97305-27.94945 59.83984-28.13156 60.38034-28.20752 60.9208-28.2835 61.7876-28.34601 62.3281-28.34636 62.86856-28.34671 63.73535-28.28542 64.27585-28.21011 64.81631-28.1348 65.6831-27.95343 66.2236-27.80353 66.76407-27.65363 67.63086-27.35298 68.17136-27.12962 68.71182-26.90627 69.57861-26.48816 70.1191-26.19362 70.65958-25.8991 71.52637-25.36975 72.06685-25.00673 72.60733-24.6437 73.47412-24.00526 74.01459-23.5772 74.55508-23.14912 75.42188-22.41 75.96236-21.92145 76.50284-21.43288 77.36963-20.60063 77.9101-20.05591 78.45059-19.51117 79.31738-18.59097 79.85786-17.99529 80.39835-17.3996 81.26514-16.40317 81.8056-15.76253 82.3461-15.12189 83.21289-14.0576 83.75337-13.37794 84.29385-12.6983 85.16064-11.57603 85.70111-10.86404 86.24161-10.15204 87.1084-8.98383 87.64888-8.24632 88.18936-7.50882 89.05615-6.30455 89.59662-5.54858 90.13712-4.7926 91.0039-3.56467 91.54439-2.79764 92.08487-2.03061 92.95166-.79102 93.49213-.02032 94.03262 .75037 94.89941 1.98982 95.4399 2.75697 95.98038 3.52412 96.84715 4.75258 97.38763 5.50879 97.92813 6.26501 98.7949 7.46959 99.3354 8.20738 99.87589 8.94519 100.74266 10.114 101.28314 10.82642 101.82364 11.53883 102.69041 12.66191 103.23091 13.34206 103.7714 14.02219 104.63817 15.08713 105.17865 15.72836 105.71915 16.3696 106.58592 17.36731 107.12642 17.96371 107.6669 18.56012 108.53368 19.4814 109.07416 20.02693 109.61465 20.57245 110.48143 21.40602 111.02193 21.8955 111.56241 22.38496 112.42918 23.12581 112.96967 23.55472 113.51016 23.98363 114.37694 24.62292 114.91743 24.98685 115.4579 25.35077 116.32469 25.882 116.86517 26.17761 117.40565 26.47324 118.27245 26.89302 118.81294 27.11752 119.35341 27.34203 120.2202 27.6447 120.76068 27.79575 121.30116 27.9468 122.16795 28.12982 122.70845 28.2062 123.24892 28.28261 124.65619 28.34636 124.65619 28.34636"/>
<path transform="matrix(1.00008,0,0,-1.00005,20.981316,45.883646)" d="M1.98438 28.3468C1.98438 29.44281 1.09593 30.33128 0 30.33128-1.09593 30.33128-1.98438 29.44281-1.98438 28.3468-1.98438 27.2508-1.09593 26.36232 0 26.36232 1.09593 26.36232 1.98438 27.2508 1.98438 28.3468ZM0 28.3468" fill="#0000ff"/>
<path transform="matrix(1.00008,0,0,-1.00005,20.981316,45.883646)" stroke-width=".3985" stroke-linecap="butt" stroke-miterlimit="10" stroke-linejoin="miter" fill="none" stroke="#0000ff" d="M1.98438 28.3468C1.98438 29.44281 1.09593 30.33128 0 30.33128-1.09593 30.33128-1.98438 29.44281-1.98438 28.3468-1.98438 27.2508-1.09593 26.36232 0 26.36232 1.09593 26.36232 1.98438 27.2508 1.98438 28.3468ZM0 28.3468"/>
<path transform="matrix(1.00008,0,0,-1.00005,20.981316,45.883646)" d="M33.15295 0C33.15295 1.096 32.26453 1.98447 31.16858 1.98447 30.07263 1.98447 29.1842 1.096 29.1842 0 29.1842-1.096 30.07263-1.98447 31.16858-1.98447 32.26453-1.98447 33.15295-1.096 33.15295 0ZM31.16858 0" fill="#0000ff"/>
<path transform="matrix(1.00008,0,0,-1.00005,20.981316,45.883646)" stroke-width=".3985" stroke-linecap="butt" stroke-miterlimit="10" stroke-linejoin="miter" fill="none" stroke="#0000ff" d="M33.15295 0C33.15295 1.096 32.26453 1.98447 31.16858 1.98447 30.07263 1.98447 29.1842 1.096 29.1842 0 29.1842-1.096 30.07263-1.98447 31.16858-1.98447 32.26453-1.98447 33.15295-1.096 33.15295 0ZM31.16858 0"/>
<path transform="matrix(1.00008,0,0,-1.00005,20.981316,45.883646)" d="M64.32185-28.3468C64.32185-27.2508 63.43343-26.36232 62.33748-26.36232 61.24155-26.36232 60.3531-27.2508 60.3531-28.3468 60.3531-29.44281 61.24155-30.33128 62.33748-30.33128 63.43343-30.33128 64.32185-29.44281 64.32185-28.3468ZM62.33748-28.3468" fill="#0000ff"/>
<path transform="matrix(1.00008,0,0,-1.00005,20.981316,45.883646)" stroke-width=".3985" stroke-linecap="butt" stroke-miterlimit="10" stroke-linejoin="miter" fill="none" stroke="#0000ff" d="M64.32185-28.3468C64.32185-27.2508 63.43343-26.36232 62.33748-26.36232 61.24155-26.36232 60.3531-27.2508 60.3531-28.3468 60.3531-29.44281 61.24155-30.33128 62.33748-30.33128 63.43343-30.33128 64.32185-29.44281 64.32185-28.3468ZM62.33748-28.3468"/>
<path transform="matrix(1.00008,0,0,-1.00005,20.981316,45.883646)" d="M95.49045 0C95.49045 1.096 94.602 1.98447 93.50607 1.98447 92.41013 1.98447 91.5217 1.096 91.5217 0 91.5217-1.096 92.41013-1.98447 93.50607-1.98447 94.602-1.98447 95.49045-1.096 95.49045 0ZM93.50607 0" fill="#0000ff"/>
<path transform="matrix(1.00008,0,0,-1.00005,20.981316,45.883646)" stroke-width=".3985" stroke-linecap="butt" stroke-miterlimit="10" stroke-linejoin="miter" fill="none" stroke="#0000ff" d="M95.49045 0C95.49045 1.096 94.602 1.98447 93.50607 1.98447 92.41013 1.98447 91.5217 1.096 91.5217 0 91.5217-1.096 92.41013-1.98447 93.50607-1.98447 94.602-1.98447 95.49045-1.096 95.49045 0ZM93.50607 0"/>
<path transform="matrix(1.00008,0,0,-1.00005,20.981316,45.883646)" d="M126.65935 28.3468C126.65935 29.44281 125.77092 30.33128 124.67497 30.33128 123.57904 30.33128 122.6906 29.44281 122.6906 28.3468 122.6906 27.2508 123.57904 26.36232 124.67497 26.36232 125.77092 26.36232 126.65935 27.2508 126.65935 28.3468ZM124.67497 28.3468" fill="#0000ff"/>
<path transform="matrix(1.00008,0,0,-1.00005,20.981316,45.883646)" stroke-width=".3985" stroke-linecap="butt" stroke-miterlimit="10" stroke-linejoin="miter" fill="none" stroke="#0000ff" d="M126.65935 28.3468C126.65935 29.44281 125.77092 30.33128 124.67497 30.33128 123.57904 30.33128 122.6906 29.44281 122.6906 28.3468 122.6906 27.2508 123.57904 26.36232 124.67497 26.36232 125.77092 26.36232 126.65935 27.2508 126.65935 28.3468ZM124.67497 28.3468"/>
</svg>
