<svg xmlns="http://www.w3.org/2000/svg" xmlns:xlink="http://www.w3.org/1999/xlink" version="1.1" width="76" height="77" viewBox="0 0 76 77">
<defs>
<path id="font_1_82" d="M.4189911 0V.0309906H.3869934C.29699708 .0309906 .2939911 .041992189 .2939911 .07902527V.64012148C.2939911 .6640167 .2939911 .6660156 .2709961 .6660156 .20899964 .60227969 .12098694 .60227969 .08898926 .60227969V.57128909C.10899353 .57128909 .16799927 .57128909 .21998596 .5972748V.07902527C.21998596 .042999269 .21699524 .0309906 .1269989 .0309906H.09498596V0C.12998963 .0029907227 .21699524 .0029907227 .25698854 .0029907227 .29699708 .0029907227 .38398744 .0029907227 .4189911 0Z"/>
</defs>
<path transform="matrix(1.00008,0,0,-1.00008,35.314386,41.428113)" stroke-width=".79701" stroke-linecap="butt" stroke-miterlimit="10" stroke-linejoin="miter" fill="none" stroke="#000000" d="M-34.01608 0H38.25073"/>
<path transform="matrix(1.00008,0,0,-1.00008,73.56818,41.428113)" d="M1.0361 0C-.25902 .25902-1.55415 .77707-3.1083 1.68365-1.55415 .51805-1.55415-.51805-3.1083-1.68365-1.55415-.77707-.25902-.25902 1.0361 0Z"/>
<path transform="matrix(1.00008,0,0,-1.00008,73.56818,41.428113)" stroke-width=".79701" stroke-linecap="butt" stroke-linejoin="round" fill="none" stroke="#000000" d="M1.0361 0C-.25902 .25902-1.55415 .77707-3.1083 1.68365-1.55415 .51805-1.55415-.51805-3.1083-1.68365-1.55415-.77707-.25902-.25902 1.0361 0Z"/>
<path transform="matrix(1.00008,0,0,-1.00008,35.314386,41.428113)" stroke-width=".79701" stroke-linecap="butt" stroke-miterlimit="10" stroke-linejoin="miter" fill="none" stroke="#000000" d="M0-34.01608V38.25073"/>
<path transform="matrix(0,-1.00008,-1.00008,-0,35.314386,3.174324)" d="M1.0361 0C-.25902 .25902-1.55415 .77707-3.1083 1.68365-1.55415 .51805-1.55415-.51805-3.1083-1.68365-1.55415-.77707-.25902-.25902 1.0361 0Z"/>
<path transform="matrix(0,-1.00008,-1.00008,-0,35.314386,3.174324)" stroke-width=".79701" stroke-linecap="butt" stroke-linejoin="round" fill="none" stroke="#000000" d="M1.0361 0C-.25902 .25902-1.55415 .77707-3.1083 1.68365-1.55415 .51805-1.55415-.51805-3.1083-1.68365-1.55415-.77707-.25902-.25902 1.0361 0Z"/>
<path transform="matrix(1.00008,0,0,-1.00008,35.314386,41.428113)" stroke-width=".79701" stroke-linecap="butt" stroke-miterlimit="10" stroke-linejoin="miter" fill="none" stroke="#000000" d="M28.3468 0C28.3468 15.6557 15.6557 28.3468 0 28.3468-15.6557 28.3468-28.3468 15.6557-28.3468 0-28.3468-15.6557-15.6557-28.3468 0-28.3468 15.6557-28.3468 28.3468-15.6557 28.3468 0ZM0 0"/>
<use data-text="1" xlink:href="#font_1_82" transform="matrix(9.963397,0,0,-9.963397,66.18686,51.583925)"/>
<use data-text="1" xlink:href="#font_1_82" transform="matrix(9.963397,0,0,-9.963397,26.812706,10.555641)"/>
<path transform="matrix(1.00008,0,0,-1.00008,35.314386,41.428113)" d="M7.66182 27.77974C7.66182 28.8802 6.76974 29.7723 5.66927 29.7723 4.5688 29.7723 3.67671 28.8802 3.67671 27.77974 3.67671 26.67926 4.5688 25.78719 5.66927 25.78719 6.76974 25.78719 7.66182 26.67926 7.66182 27.77974ZM5.66927 27.77974" fill="#0000ff"/>
<path transform="matrix(1.00008,0,0,-1.00008,35.314386,41.428113)" stroke-width=".3985" stroke-linecap="butt" stroke-miterlimit="10" stroke-linejoin="miter" fill="none" stroke="#0000ff" d="M7.66182 27.77974C7.66182 28.8802 6.76974 29.7723 5.66927 29.7723 4.5688 29.7723 3.67671 28.8802 3.67671 27.77974 3.67671 26.67926 4.5688 25.78719 5.66927 25.78719 6.76974 25.78719 7.66182 26.67926 7.66182 27.77974ZM5.66927 27.77974"/>
<path transform="matrix(1.00008,0,0,-1.00008,35.314386,41.428113)" d="M7.66182-27.77974C7.66182-26.67926 6.76974-25.78719 5.66927-25.78719 4.5688-25.78719 3.67671-26.67926 3.67671-27.77974 3.67671-28.8802 4.5688-29.7723 5.66927-29.7723 6.76974-29.7723 7.66182-28.8802 7.66182-27.77974ZM5.66927-27.77974" fill="#0000ff"/>
<path transform="matrix(1.00008,0,0,-1.00008,35.314386,41.428113)" stroke-width=".3985" stroke-linecap="butt" stroke-miterlimit="10" stroke-linejoin="miter" fill="none" stroke="#0000ff" d="M7.66182-27.77974C7.66182-26.67926 6.76974-25.78719 5.66927-25.78719 4.5688-25.78719 3.67671-26.67926 3.67671-27.77974 3.67671-28.8802 4.5688-29.7723 5.66927-29.7723 6.76974-29.7723 7.66182-28.8802 7.66182-27.77974ZM5.66927-27.77974"/>
</svg>
