<svg xmlns="http://www.w3.org/2000/svg" xmlns:xlink="http://www.w3.org/1999/xlink" version="1.1" width="146" height="91" viewBox="0 0 146 91">
<defs>
<path id="font_1_1" d="M.45498658 .5001831C.45498658 .56614688 .43699647 .7050781 .33499146 .7050781 .19599915 .7050781 .041992189 .42323304 .041992189 .19425965 .041992189 .100250247 .070999149-.0107421879 .1619873-.0107421879 .30299378-.0107421879 .45498658 .27627564 .45498658 .5001831M.147995 .36328126C.16499329 .42723084 .18499756 .5071869 .22499085 .57814028 .2519989 .6271057 .2889862 .68307498 .33399964 .68307498 .3829956 .68307498 .3889923 .6191101 .3889923 .56214907 .3889923 .5131836 .3809967 .46220399 .35699464 .36328126H.147995M.34799195 .3312683C.33699037 .28527833 .31599427 .2002716 .27799989 .12826538 .24299622 .060256959 .20498657 .011245728 .1619873 .011245728 .1289978 .011245728 .10798645 .040252687 .10798645 .133255 .10798645 .17526245 .11399841 .23326111 .13999939 .3312683H.34799195Z"/>
<path id="font_1_3" d="M.48599244 .38136292C.48999024 .39537049 .48999024 .39736939 .48999024 .40437318 .48999024 .42237855 .47599793 .43138124 .46099855 .43138124 .45098878 .43138124 .43499757 .42536927 .42599488 .41036988 .42399598 .405365 .41600038 .37435914 .4119873 .35635377 .40499879 .33035279 .397995 .30334474 .3919983 .27633668L.34700013 .09628296C.34298707 .08126831 .2999878 .011245728 .23399353 .011245728 .18299866 .011245728 .17199707 .055267335 .17199707 .0922699 .17199707 .1382904 .18899536 .20030213 .22299195 .28833009 .23899842 .3293457 .24299622 .3403473 .24299622 .36035157 .24299622 .405365 .21099854 .4423828 .16099549 .4423828 .06599426 .4423828 .0289917 .29733277 .0289917 .28833009 .0289917 .27833558 .038986207 .27833558 .040985109 .27833558 .050994874 .27833558 .051986696 .28033448 .056991579 .29634095 .083999637 .3903656 .12399292 .42037965 .1579895 .42037965 .1659851 .42037965 .18299866 .42037965 .18299866 .3883667 .18299866 .36335755 .17298889 .3373413 .1659851 .31834413 .12599182 .21231079 .10798645 .1552887 .10798645 .10827637 .10798645 .019256592 .17098999-.0107421879 .22999573-.0107421879 .2689972-.0107421879 .30299378 .0062561037 .33099366 .03425598 .31799317-.017745972 .30599977-.06674194 .2659912-.11973572 .23999024-.15385437 .20199585-.18309021 .1559906-.18309021 .14199829-.18309021 .09700012-.18005371 .07998657-.14074707 .09599304-.14074707 .10899353-.14074707 .12298584-.1287384 .1329956-.11973572 .14299011-.10673523 .14299011-.08773804 .14299011-.056747438 .115997318-.052734376 .10598755-.052734376 .08299255-.052734376 .049987794-.068740848 .049987794-.11773682 .049987794-.16796875 .09399414-.20507813 .1559906-.20507813 .25898744-.20507813 .3619995-.11373901 .3899994-.00074768069L.48599244 .38136292Z"/>
<path id="font_2_64" d="M.27598573 .18710327V.24511719H.010986328V.18710327H.27598573Z"/>
<path id="font_2_82" d="M.4189911 0V.0309906H.3869934C.29699708 .0309906 .2939911 .041992189 .2939911 .07902527V.64012148C.2939911 .6640167 .2939911 .6660156 .2709961 .6660156 .20899964 .60227969 .12098694 .60227969 .08898926 .60227969V.57128909C.10899353 .57128909 .16799927 .57128909 .21998596 .5972748V.07902527C.21998596 .042999269 .21699524 .0309906 .1269989 .0309906H.09498596V0C.12998963 .0029907227 .21699524 .0029907227 .25698854 .0029907227 .29699708 .0029907227 .38398744 .0029907227 .4189911 0Z"/>
<path id="font_2_121" d="M.45999146 .31976319C.45999146 .39982606 .45498658 .47988893 .41999818 .5539398 .37399293 .65000918 .2919922 .6660156 .25 .6660156 .18998719 .6660156 .116989139 .64001467 .07598877 .54693606 .04399109 .47789 .038986207 .39982606 .038986207 .31976319 .038986207 .24472046 .042999269 .15464783 .083999637 .07859802 .1269989-.0024719239 .19999695-.022460938 .24899292-.022460938 .30299378-.022460938 .3789978-.0014648438 .4229889 .09359741 .45498658 .16265869 .45999146 .2407074 .45999146 .31976319M.3769989 .3317871C.3769989 .25672914 .3769989 .18867493 .3659973 .12461853 .35099793 .029556275 .2939911-.00047302247 .24899292-.00047302247 .20999146-.00047302247 .15098572 .024551392 .1329956 .12062073 .12199402 .18066406 .12199402 .2727356 .12199402 .3317871 .12199402 .39582826 .12199402 .46188355 .12998963 .5159149 .14898682 .63500979 .22399903 .64401248 .24899292 .64401248 .28199769 .64401248 .34799195 .6259918 .36698915 .52693179 .3769989 .47088624 .3769989 .39482118 .3769989 .3317871Z"/>
<path id="font_2_88" d="M.19198609 .052993776C.19198609 .08198547 .16799927 .10598755 .13899231 .10598755 .10998535 .10598755 .085998538 .08198547 .085998538 .052993776 .085998538 .023986817 .10998535 0 .13899231 0 .16799927 0 .19198609 .023986817 .19198609 .052993776Z"/>
<path id="font_2_56" d="M.44898988 .20091248C.44898988 .31991578 .36698915 .41992188 .25898744 .41992188 .21099854 .41992188 .16799927 .4039154 .13198853 .36891175V.5641022C.1519928 .55778506 .18499756 .55078127 .21699524 .55078127 .33999635 .55078127 .4099884 .6418457 .4099884 .65493777 .4099884 .6609802 .40699769 .6660156 .3999939 .6660156 .3999939 .66607668 .39698792 .66607668 .3919983 .66308596 .37199403 .65408328 .32299806 .63378909 .2559967 .63378909 .21598816 .63409426 .16999817 .641098 .12298584 .6621094 .114990238 .6651001 .11099243 .6651001 .11099243 .6651001 .100997928 .66508486 .100997928 .657074 .100997928 .64108279V.3447113C.100997928 .3266449 .100997928 .31861878 .114990238 .31861878 .12199402 .31861878 .12399292 .32164 .12799073 .32765199 .13899231 .34371949 .17599488 .3979187 .25698854 .3979187 .30899049 .3979187 .33399964 .3517456 .34199525 .3336792 .35798646 .2965393 .3600006 .2574005 .3600006 .20721436 .3600006 .17218018 .3600006 .112197879 .33599855 .07032776 .31199647 .031448366 .2749939 .0055389406 .22898865 .0055389406 .1559906 .0055389406 .09899902 .05836487 .08198547 .1171875 .084991458 .11685181 .08799744 .115859989 .09899902 .115859989 .13198853 .115859989 .14898682 .14085388 .14898682 .16485596 .14898682 .18885803 .13198853 .21386719 .09899902 .21386719 .084991458 .21386719 .049987794 .2068634 .049987794 .16085816 .049987794 .07432556 .11898804-.022460938 .23098755-.022460938 .34700013-.022460938 .44898988 .07331848 .44898988 .20019531V.20091248Z"/>
<path id="font_3_1" d="M.31098939 .36265565H.42999269C.4149933 .30274964 .3929901 .2118988 .3929901 .13302613 .3929901 .09309387 .397995 .06613159 .4039917 .044174196 .41999818-.0057678224 .43299867-.009765625 .44898988-.009765625 .47200013-.009765625 .49598695 .011230469 .49598695 .035186769 .49598695 .043182374 .49398805 .047164918 .48799134 .057159425 .46899415 .09408569 .45098878 .15100098 .45098878 .23286438 .45098878 .25183106 .45098878 .29177857 .46499635 .36265565H.58999636C.60798647 .36265565 .6159973 .36265565 .6269989 .37065126 .6409912 .380661 .6439972 .39665223 .6439972 .4016571 .6439972 .43066407 .6179962 .43066407 .6009979 .43066407H.22399903C.18299866 .43066407 .15499878 .42166139 .10998535 .37965394 .083999637 .35665895 .04499817 .30274964 .04499817 .2937622 .04499817 .28178407 .057998659 .28178407 .06199646 .28178407 .07299805 .28178407 .07398987 .28378297 .07998657 .2927704 .1309967 .36265565 .19299317 .36265565 .21499634 .36265565H.27598573C.24499512 .25283814 .19099427 .13502503 .16099549 .07511902 .15499878 .062149049 .14498902 .04118347 .14199829 .03718567 .14099121 .033187868 .13899231 .029190064 .13899231 .022201539 .13899231 .006225586 .15098572-.009765625 .17399597-.009765625 .21398926-.009765625 .22499085 .035186769 .24899292 .12504578L.31098939 .36265565Z"/>
<path id="font_4_3" d="M.5289917 .1640625V.20005799H.41799928V.64582827C.41799928 .66682437 .41799928 .6738281 .3959961 .6738281 .38398744 .6738281 .37998963 .6738281 .36999513 .65982058L.038986207 .20005799V.1640625H.33299256V.08201599C.33299256 .04800415 .33299256 .035995485 .2519989 .035995485H.22499085V0C.2749939 .0019989014 .33898927 .0039978029 .375 .0039978029 .4119873 .0039978029 .47599793 .0019989014 .526001 0V.035995485H.49899293C.41799928 .035995485 .41799928 .04800415 .41799928 .08201599V.1640625H.5289917M.33999635 .5658722V.20005799H.07598877L.33999635 .5658722Z"/>
<path id="font_4_1" d="M.5049896 .18203736H.47099305C.46798707 .16001892 .45799256 .100997928 .44499208 .09098816 .43699647 .084991458 .3600006 .084991458 .34599305 .084991458H.1619873C.2669983 .17803955 .3019867 .20603943 .3619995 .25306703 .43598939 .312088 .5049896 .374115 .5049896 .46914674 .5049896 .5900879 .39898683 .6640625 .2709961 .6640625 .14698792 .6640625 .06298828 .57710269 .06298828 .4851532 .06298828 .43414308 .10598755 .42915345 .115997318 .42915345 .13999939 .42915345 .16899109 .44615174 .16899109 .48214723 .16899109 .5001526 .1619873 .53515627 .10998535 .53515627 .14099121 .6060791 .20899964 .62805178 .2559967 .62805178 .35598756 .62805178 .4079895 .5501404 .4079895 .46914674 .4079895 .38212586 .34599305 .3130951 .31399537 .27708436L.07299805 .038986207C.06298828 .02999878 .06298828 .027999878 .06298828 0H.47499085L.5049896 .18203736Z"/>
<path id="font_4_2" d="M.272995 .33428956C.35099793 .33428956 .40699769 .2803192 .40699769 .1733551 .40699769 .04940796 .33499146 .012466431 .2769928 .012466431 .23699951 .012466431 .14898682 .0234375 .10699463 .082351688 .1539917 .084350589 .16499329 .11735535 .16499329 .13835144 .16499329 .17034912 .14099121 .19335938 .10998535 .19335938 .08198547 .19335938 .053985597 .17634583 .053985597 .13534546 .053985597 .041412355 .1579895-.01953125 .2789917-.01953125 .41799928-.01953125 .5139923 .07336426 .5139923 .1733551 .5139923 .2513275 .44999696 .32929994 .33999635 .35229493 .44499208 .39024354 .48298646 .4650879 .48298646 .5260773 .48298646 .60505679 .3919983 .6640625 .2809906 .6640625 .16999817 .6640625 .084991458 .61006167 .084991458 .5300751 .084991458 .49606324 .10699463 .47706605 .13699341 .47706605 .16799927 .47706605 .18798828 .5000763 .18798828 .5280762 .18798828 .5570679 .16799927 .57806399 .13699341 .5800781 .17199707 .62405398 .24099732 .63505557 .27799989 .63505557 .32299806 .63505557 .38598634 .6130676 .38598634 .5260773 .38598634 .48406983 .37199403 .43814088 .34599305 .4072113 .31298829 .36927796 .2849884 .3672943 .23498535 .36428834 .20999146 .3623047 .20799256 .3623047 .20298767 .3612976 .20098877 .3612976 .19299317 .3592987 .19299317 .34829713 .19299317 .33428956 .20199585 .33428956 .21899414 .33428956H.272995Z"/>
<path id="font_1_2" d="M.2649994 .37265016H.37799073C.34498597 .22489929 .33599855 .18196106 .33599855 .11508179 .33599855 .100097659 .33599855 .073150638 .34399415 .03919983 .35398866-.0047454836 .36499024-.0107421879 .37998963-.0107421879 .3999939-.0107421879 .42099 .007247925 .42099 .02722168 .42099 .033218385 .42099 .035202028 .4149933 .049179079 .38598634 .12106323 .38598634 .18595886 .38598634 .21391297 .38598634 .26683045 .3929901 .32073976 .4039917 .37265016H.5179901C.5309906 .37265016 .5669861 .37265016 .5669861 .406662 .5669861 .43066407 .54599 .43066407 .5269928 .43066407H.19198609C.16999817 .43066407 .13198853 .43066407 .08799744 .38365174 .052993776 .34469605 .026992798 .29878236 .026992798 .29379273 .026992798 .29278565 .026992798 .28379823 .038986207 .28379823 .04699707 .28379823 .04899597 .28779603 .054992677 .29577638 .10398865 .37265016 .1619873 .37265016 .18199158 .37265016H.23899842C.20698548 .25186158 .15299988 .13105774 .11099243 .04020691 .102996829 .025222779 .102996829 .023223877 .102996829 .016235352 .102996829-.002746582 .11898804-.0107421879 .13198853-.0107421879 .1619873-.0107421879 .16999817 .017242432 .18199158 .05418396 .19599915 .100097659 .19599915 .10209656 .20899964 .15202332L.2649994 .37265016Z"/>
</defs>
<path transform="matrix(1.00008,0,0,-1,23.709702,52.685)" stroke-width=".3985" stroke-linecap="butt" stroke-miterlimit="10" stroke-linejoin="miter" fill="none" stroke="#00aeef" d="M0-34.01602H106.86446M0-25.51201H106.86446M0-17.008H106.86446M0-8.504H106.86446M0 0H106.86446M0 8.504H106.86446M0 17.008H106.86446M0 25.51201H106.86446M0 34.01602H106.86446M0-34.01608V34.01608M8.90523-34.01608V34.01608M17.81046-34.01608V34.01608M26.71568-34.01608V34.01608M35.62091-34.01608V34.01608M44.52614-34.01608V34.01608M53.43137-34.01608V34.01608M62.3366-34.01608V34.01608M71.24182-34.01608V34.01608M80.14705-34.01608V34.01608M89.05229-34.01608V34.01608M97.95752-34.01608V34.01608M106.86275-34.01608V34.01608M106.86446 34.01608"/>
<path transform="matrix(1.00008,0,0,-1,23.709702,52.685)" stroke-width=".79701" stroke-linecap="butt" stroke-miterlimit="10" stroke-linejoin="miter" fill="none" stroke="#000000" d="M0 0H110.81856"/>
<path transform="matrix(1.00008,0,0,-1,134.53713,52.685)" d="M1.0361 0C-.25902 .25902-1.55415 .77707-3.1083 1.68365-1.55415 .51805-1.55415-.51805-3.1083-1.68365-1.55415-.77707-.25902-.25902 1.0361 0Z"/>
<path transform="matrix(1.00008,0,0,-1,134.53713,52.685)" stroke-width=".79701" stroke-linecap="butt" stroke-linejoin="round" fill="none" stroke="#000000" d="M1.0361 0C-.25902 .25902-1.55415 .77707-3.1083 1.68365-1.55415 .51805-1.55415-.51805-3.1083-1.68365-1.55415-.77707-.25902-.25902 1.0361 0Z"/>
<use data-text="&#x03b8;" xlink:href="#font_1_1" transform="matrix(9.963397,0,0,-9.9626,139.69098,56.144)"/>
<path transform="matrix(1.00008,0,0,-1,23.709702,52.685)" stroke-width=".79701" stroke-linecap="butt" stroke-miterlimit="10" stroke-linejoin="miter" fill="none" stroke="#000000" d="M0-34.01608V39.38457"/>
<path transform="matrix(0,-1,-1.00008,-0,23.709702,13.30043)" d="M1.0361 0C-.25902 .25902-1.55415 .77707-3.1083 1.68365-1.55415 .51805-1.55415-.51805-3.1083-1.68365-1.55415-.77707-.25902-.25902 1.0361 0Z"/>
<path transform="matrix(0,-1,-1.00008,-0,23.709702,13.30043)" stroke-width=".79701" stroke-linecap="butt" stroke-linejoin="round" fill="none" stroke="#000000" d="M1.0361 0C-.25902 .25902-1.55415 .77707-3.1083 1.68365-1.55415 .51805-1.55415-.51805-3.1083-1.68365-1.55415-.77707-.25902-.25902 1.0361 0Z"/>
<use data-text="y" xlink:href="#font_1_3" transform="matrix(9.963397,0,0,-9.9626,21.088494,6.210003)"/>
<path transform="matrix(1.00008,0,0,-1,23.709702,52.685)" stroke-width=".79701" stroke-linecap="butt" stroke-miterlimit="10" stroke-linejoin="miter" fill="none" stroke="#000000" d="M2.72131-34.01608H-2.72134"/>
<use data-text="-" xlink:href="#font_2_64" transform="matrix(9.963397,0,0,-9.9626,8.969521,90.019)"/>
<use data-text="1" xlink:href="#font_2_82" transform="matrix(9.963397,0,0,-9.9626,12.287331,90.019)"/>
<path transform="matrix(1.00008,0,0,-1,23.709702,52.685)" stroke-width=".79701" stroke-linecap="butt" stroke-miterlimit="10" stroke-linejoin="miter" fill="none" stroke="#000000" d="M2.72131-17.00801H-2.72134"/>
<use data-text="-" xlink:href="#font_2_64" transform="matrix(9.963397,0,0,-9.9626,1.2179031,72.901)"/>
<use data-text="0" xlink:href="#font_2_121" transform="matrix(9.963397,0,0,-9.9626,4.535713,72.901)"/>
<use data-text="." xlink:href="#font_2_88" transform="matrix(9.963397,0,0,-9.9626,9.51741,72.901)"/>
<use data-text="5" xlink:href="#font_2_56" transform="matrix(9.963397,0,0,-9.9626,12.287231,72.901)"/>
<path transform="matrix(1.00008,0,0,-1,23.709702,52.685)" stroke-width=".79701" stroke-linecap="butt" stroke-miterlimit="10" stroke-linejoin="miter" fill="none" stroke="#000000" d="M2.72131 17.00801H-2.72134"/>
<use data-text="0" xlink:href="#font_2_121" transform="matrix(9.963397,0,0,-9.9626,4.5351717,38.885004)"/>
<use data-text="." xlink:href="#font_2_88" transform="matrix(9.963397,0,0,-9.9626,9.516869,38.885004)"/>
<use data-text="5" xlink:href="#font_2_56" transform="matrix(9.963397,0,0,-9.9626,12.28669,38.885004)"/>
<path transform="matrix(1.00008,0,0,-1,23.709702,52.685)" stroke-width=".79701" stroke-linecap="butt" stroke-miterlimit="10" stroke-linejoin="miter" fill="none" stroke="#000000" d="M2.72131 34.01608H-2.72134"/>
<use data-text="1" xlink:href="#font_2_82" transform="matrix(9.963397,0,0,-9.9626,12.286789,21.987002)"/>
<path transform="matrix(1.00008,0,0,-1,23.709702,52.685)" stroke-width=".79701" stroke-linecap="butt" stroke-miterlimit="10" stroke-linejoin="miter" fill="none" stroke="#000000" d="M26.71571 2.72131V-2.72134"/>
<path transform="matrix(1.00008,0,0,-1,23.709702,52.685)" d="M22.06934-17.46584H31.36206V-5.112419H22.06934Z" fill="#ffffff"/>
<use data-text="&#x03c0;" xlink:href="#font_3_1" transform="matrix(6.974358,0,0,-6.9738,47.973638,61.796)"/>
<path transform="matrix(1.00008,0,0,-1,-61.938154,26.034)" stroke-width=".3985" stroke-linecap="butt" stroke-miterlimit="10" stroke-linejoin="miter" fill="none" stroke="#000000" d="M109.903-37.194H114.812"/>
<use data-text="4" xlink:href="#font_4_3" transform="matrix(6.974358,0,0,-6.9738,48.442678,69.154)"/>
<path transform="matrix(1.00008,0,0,-1,23.709702,52.685)" stroke-width=".79701" stroke-linecap="butt" stroke-miterlimit="10" stroke-linejoin="miter" fill="none" stroke="#000000" d="M53.43195 2.72131V-2.72134"/>
<path transform="matrix(1.00008,0,0,-1,23.709702,52.685)" d="M48.78558-17.46584H58.0783V-5.112419H48.78558Z" fill="#ffffff"/>
<use data-text="&#x03c0;" xlink:href="#font_3_1" transform="matrix(6.974358,0,0,-6.9738,74.69177,61.796)"/>
<path transform="matrix(1.00008,0,0,-1,-35.220014,26.034)" stroke-width=".3985" stroke-linecap="butt" stroke-miterlimit="10" stroke-linejoin="miter" fill="none" stroke="#000000" d="M109.903-37.194H114.812"/>
<use data-text="2" xlink:href="#font_4_1" transform="matrix(6.974358,0,0,-6.9738,75.16081,69.154)"/>
<path transform="matrix(1.00008,0,0,-1,23.709702,52.685)" stroke-width=".79701" stroke-linecap="butt" stroke-miterlimit="10" stroke-linejoin="miter" fill="none" stroke="#000000" d="M80.1482 2.72131V-2.72134"/>
<path transform="matrix(1.00008,0,0,-1,23.709702,52.685)" d="M73.51619-18.95749H86.78021V-5.1124107H73.51619Z" fill="#ffffff"/>
<use data-text="3" xlink:href="#font_4_2" transform="matrix(6.974358,0,0,-6.9738,99.42375,63.288003)"/>
<use data-text="&#x03c0;" xlink:href="#font_3_1" transform="matrix(6.974358,0,0,-6.9738,103.39507,63.288003)"/>
<path transform="matrix(1.00008,0,0,-1,-10.488037,27.526001)" stroke-width=".3985" stroke-linecap="butt" stroke-miterlimit="10" stroke-linejoin="miter" fill="none" stroke="#000000" d="M109.903-37.194H118.783"/>
<use data-text="4" xlink:href="#font_4_3" transform="matrix(6.974358,0,0,-6.9738,101.87795,70.645999)"/>
<path transform="matrix(1.00008,0,0,-1,23.709702,52.685)" stroke-width=".79701" stroke-linecap="butt" stroke-miterlimit="10" stroke-linejoin="miter" fill="none" stroke="#000000" d="M106.86446 2.72131V-2.72134"/>
<path transform="matrix(1.00008,0,0,-1,23.709702,52.685)" d="M102.84993-11.39447H110.87897V-5.11241H102.84993Z" fill="#ffffff"/>
<use data-text="&#x03c0;" xlink:href="#font_1_2" transform="matrix(9.963397,0,0,-9.9626,127.56401,63.083)"/>
<path transform="matrix(1.00008,0,0,-1,23.709702,52.685)" stroke-width="1.19553" stroke-linecap="butt" stroke-miterlimit="10" stroke-linejoin="miter" fill="none" stroke="#ff0000" d="M0 0C0 0 3.21684 3.21803 4.45233 4.43936 5.68782 5.66069 7.6692 7.61255 8.90471 8.80246 10.1402 9.99236 12.12155 11.87724 13.35706 13.01552 14.59256 14.15381 16.57391 15.93954 17.80943 17.00645 19.04492 18.07338 21.02629 19.72778 22.26178 20.70518 23.4973 21.68256 25.47864 23.17981 26.71414 24.05092 27.94963 24.92204 29.93102 26.23347 31.1665 26.98352 32.40201 27.73357 34.38339 28.84068 35.61888 29.45679 36.85437 30.07288 38.83572 30.95241 40.07123 31.42393 41.30673 31.8955 43.2881 32.53645 44.52359 32.85548 45.7591 33.1745 47.74045 33.56236 48.97595 33.72331 50.21144 33.88428 52.19283 34.01547 53.42831 34.01555 54.66382 34.01563 56.64517 33.8845 57.88069 33.72385 59.11618 33.56317 61.09753 33.17628 62.33302 32.85754 63.56853 32.53882 65.54991 31.89775 66.7854 31.42656 68.02089 30.95535 70.00227 30.07718 71.23778 29.46146 72.47327 28.84572 74.45462 27.73863 75.69012 26.98872 76.92563 26.23882 78.90698 24.9276 80.14249 24.05664 81.37799 23.18567 83.35936 21.68866 84.59485 20.7114 85.83037 19.73413 87.8117 18.07999 89.04721 17.01321 90.2827 15.94644 92.26408 14.16086 93.49957 13.0228 94.73508 11.88474 96.71643 10.0006 97.95193 8.81076 99.18742 7.62091 101.1688 5.66855 102.40428 4.44714 103.6398 3.22575 106.85666 .00777 106.85666 .00777"/>
</svg>
