<svg xmlns="http://www.w3.org/2000/svg" xmlns:xlink="http://www.w3.org/1999/xlink" version="1.1" width="108" height="77" viewBox="0 0 108 77">
<defs>
<path id="font_1_2" d="M.20599365 .3996582H.2999878C.31999208 .3996582 .32998658 .3996582 .32998658 .41966249 .32998658 .43066407 .31999208 .43066407 .3019867 .43066407H.21398926C.25 .5724945 .25498963 .59246829 .25498963 .59846499 .25498963 .61546328 .24299622 .62545779 .22599793 .62545779 .22299195 .62545779 .19499207 .62446597 .18598938 .58947756L.14698792 .43066407H.052993776C.032989503 .43066407 .022994996 .43066407 .022994996 .4116516 .022994996 .3996582 .0309906 .3996582 .050994874 .3996582H.13899231C.066986087 .11608887 .06298828 .099121097 .06298828 .08114624 .06298828 .02722168 .100997928-.0107421879 .15499878-.0107421879 .25698854-.0107421879 .31399537 .13505554 .31399537 .14305115 .31399537 .1530304 .30599977 .1530304 .3019867 .1530304 .29299928 .1530304 .2919922 .15003968 .2869873 .13905335 .24398804 .035217287 .19099427 .011245728 .15699768 .011245728 .13598633 .011245728 .12599182 .024230957 .12599182 .057174684 .12599182 .08114624 .12799073 .088134769 .13198853 .10510254L.20599365 .3996582Z"/>
<path id="font_1_1" d="M.30299378 .3157959H.47299195C.61499026 .3157959 .7539978 .41973878 .7539978 .53167727 .7539978 .6086273 .6879883 .6826172 .5569916 .6826172H.23298645C.21398926 .6826172 .20298767 .6826172 .20298767 .66360476 .20298767 .6516113 .21199036 .6516113 .23199463 .6516113 .24499512 .6516113 .2630005 .65060427 .2749939 .6496124 .29100038 .6476135 .29699708 .64460757 .29699708 .6336212 .29699708 .6296234 .29599 .62661746 .29299928 .614624L.15899658 .07795715C.14898682 .038986207 .14698792 .0309906 .067993167 .0309906 .050994874 .0309906 .039993287 .0309906 .039993287 .011993408 .039993287 0 .051986696 0 .054992677 0 .08299255 0 .1539917 .0029907227 .18199158 .0029907227 .20298767 .0029907227 .22499085 .0019989014 .24598694 .0019989014 .2679901 .0019989014 .2899933 0 .31098939 0 .31799317 0 .33099366 0 .33099366 .019989014 .33099366 .0309906 .32199098 .0309906 .30299378 .0309906 .2659912 .0309906 .23799134 .0309906 .23799134 .048980714 .23799134 .054977418 .23999024 .05996704 .24099732 .065963748L.30299378 .3157959M.375 .6136322C.38398744 .64860537 .38598634 .6516113 .42900086 .6516113H.5249939C.60798647 .6516113 .6609955 .62461856 .6609955 .55566409 .6609955 .5166931 .6409912 .43074037 .60198977 .39476014 .5519867 .34977723 .49198915 .34179688 .44799806 .34179688H.30699159L.375 .6136322Z"/>
<path id="font_2_1" d="M.2939911 .64004519C.2939911 .66400149 .2939911 .6660156 .2709961 .6660156 .20899964 .60227969 .12098694 .60227969 .08898926 .60227969V.57128909C.10899353 .57128909 .16799927 .57128909 .21998596 .5972748V.07902527C.21998596 .042999269 .21699524 .0309906 .1269989 .0309906H.09498596V0C.12998963 .0029907227 .21699524 .0029907227 .25698854 .0029907227 .29699708 .0029907227 .38398744 .0029907227 .4189911 0V.0309906H.3869934C.29699708 .0309906 .2939911 .041992189 .2939911 .07902527V.64004519Z"/>
</defs>
<path transform="matrix(1,0,0,-1.00005,32.475999,44.520425)" stroke-width=".79701" stroke-linecap="butt" stroke-miterlimit="10" stroke-linejoin="miter" fill="none" stroke="#929292" d="M28.3468 0C28.3468 15.6557 15.6557 28.3468 0 28.3468-15.6557 28.3468-28.3468 15.6557-28.3468 0-28.3468-15.6557-15.6557-28.3468 0-28.3468 15.6557-28.3468 28.3468-15.6557 28.3468 0ZM0 0"/>
<path transform="matrix(1,0,0,-1.00005,32.475999,44.520425)" stroke-width=".79701" stroke-linecap="butt" stroke-miterlimit="10" stroke-linejoin="miter" fill="none" stroke="#9e9e9e" d="M24.5491 0V4.25183H20.29726V0ZM20.29726 4.25183"/>
<path transform="matrix(1,0,0,-1.00005,32.475999,44.520425)" stroke-width=".79701" stroke-linecap="butt" stroke-miterlimit="10" stroke-linejoin="miter" fill="none" stroke="#9e9e9e" d="M73.64735 0V4.25183H69.39552V0ZM69.39552 4.25183"/>
<path transform="matrix(1,0,0,-1.00005,32.475999,44.520425)" stroke-width=".79701" stroke-linecap="butt" stroke-miterlimit="10" stroke-linejoin="miter" fill="none" stroke="#929292" d="M24.5491 14.17339V0"/>
<path transform="matrix(1,0,0,-1.00005,32.475999,44.520425)" stroke-width=".79701" stroke-linecap="butt" stroke-miterlimit="10" stroke-linejoin="miter" fill="none" stroke="#929292" d="M73.64735 42.5202V0"/>
<path transform="matrix(1,0,0,-1.00005,32.475999,44.520425)" stroke-width=".79701" stroke-linecap="butt" stroke-miterlimit="10" stroke-linejoin="miter" fill="none" stroke="#000000" d="M-31.18166 0H73.64735"/>
<path transform="matrix(1,0,0,-1.00005,32.475999,44.520425)" stroke-width=".79701" stroke-linecap="butt" stroke-miterlimit="10" stroke-linejoin="miter" fill="none" stroke="#000000" d="M0-31.18166V34.01608"/>
<path transform="matrix(1,0,0,-1.00005,32.475999,44.520425)" stroke-width="1.59404" stroke-linecap="butt" stroke-miterlimit="10" stroke-linejoin="miter" fill="none" stroke="#ff0000" d="M28.3468 0C28.3468 4.97461 27.0362 9.86531 24.5491 14.17339"/>
<use data-text="t" xlink:href="#font_1_2" transform="matrix(9.9626,0,0,-9.963098,63.975,40.24721)" fill="#ff0000"/>
<path transform="matrix(1,0,0,-1.00005,32.475999,44.520425)" stroke-width=".79701" stroke-linecap="butt" stroke-miterlimit="10" stroke-linejoin="miter" fill="none" stroke="#0000ff" d="M0 0 73.64735 42.5202"/>
<path transform="matrix(1,0,0,-1.00005,32.475999,44.520425)" d="M25.68277 14.17339C25.68277 14.7995 25.17522 15.30707 24.5491 15.30707 23.92299 15.30707 23.41544 14.7995 23.41544 14.17339 23.41544 13.54729 23.92299 13.03972 24.5491 13.03972 25.17522 13.03972 25.68277 13.54729 25.68277 14.17339ZM24.5491 14.17339"/>
<path transform="matrix(1,0,0,-1.00005,32.475999,44.520425)" stroke-width=".3985" stroke-linecap="butt" stroke-miterlimit="10" stroke-linejoin="miter" fill="none" stroke="#000000" d="M25.68277 14.17339C25.68277 14.7995 25.17522 15.30707 24.5491 15.30707 23.92299 15.30707 23.41544 14.7995 23.41544 14.17339 23.41544 13.54729 23.92299 13.03972 24.5491 13.03972 25.17522 13.03972 25.68277 13.54729 25.68277 14.17339ZM24.5491 14.17339"/>
<use data-text="P" xlink:href="#font_1_1" transform="matrix(9.9626,0,0,-9.963098,55.128,26.82654)"/>
<use data-text="1" xlink:href="#font_2_1" transform="matrix(9.9626,0,0,-9.963098,41.916,33.912897)"/>
</svg>
