<svg xmlns="http://www.w3.org/2000/svg" xmlns:xlink="http://www.w3.org/1999/xlink" version="1.1" width="129" height="86" viewBox="0 0 129 86">
<defs>
<path id="font_1_1" d="M.3909912 .37405396C.36299134 .37304688 .34298707 .3510437 .34298707 .32904054 .34298707 .31503297 .35198976 .30003358 .37399293 .30003358 .3959961 .30003358 .41999818 .31703187 .41999818 .35603334 .41999818 .40124513 .3769989 .4423828 .30099488 .4423828 .16899109 .4423828 .13198853 .3400421 .13198853 .29605104 .13198853 .21820069 .20599365 .20323181 .23498535 .19725037 .2869873 .18727112 .33898927 .17628479 .33898927 .12133789 .33898927 .095336917 .31599427 .011245728 .19599915 .011245728 .18199158 .011245728 .10499573 .011245728 .08198547 .064331058 .11999512 .059326173 .14498902 .08934021 .14498902 .11734009 .14498902 .14033509 .1289978 .15234375 .10798645 .15234375 .08198547 .15234375 .051986696 .1313324 .051986696 .08633423 .051986696 .029281617 .10899353-.0107421879 .19499207-.0107421879 .35699464-.0107421879 .3959961 .1103363 .3959961 .15533448 .3959961 .19125366 .3769989 .21620178 .36499024 .22817993 .33799745 .25613404 .30899049 .26112367 .2649994 .27009584 .22898865 .27807618 .18899536 .2850647 .18899536 .33003236 .18899536 .3590393 .21299744 .42037965 .30099488 .42037965 .32598878 .42037965 .37599183 .41333009 .3909912 .37405396Z"/>
<path id="font_1_2" d="M.48599244 .38136292C.48999024 .39537049 .48999024 .39736939 .48999024 .40437318 .48999024 .42237855 .47599793 .43138124 .46099855 .43138124 .45098878 .43138124 .43499757 .42536927 .42599488 .41036988 .42399598 .405365 .41600038 .37435914 .4119873 .35635377 .40499879 .33035279 .397995 .30334474 .3919983 .27633668L.34700013 .09628296C.34298707 .08126831 .2999878 .011245728 .23399353 .011245728 .18299866 .011245728 .17199707 .055267335 .17199707 .0922699 .17199707 .1382904 .18899536 .20030213 .22299195 .28833009 .23899842 .3293457 .24299622 .3403473 .24299622 .36035157 .24299622 .405365 .21099854 .4423828 .16099549 .4423828 .06599426 .4423828 .0289917 .29733277 .0289917 .28833009 .0289917 .27833558 .038986207 .27833558 .040985109 .27833558 .050994874 .27833558 .051986696 .28033448 .056991579 .29634095 .083999637 .3903656 .12399292 .42037965 .1579895 .42037965 .1659851 .42037965 .18299866 .42037965 .18299866 .3883667 .18299866 .36335755 .17298889 .3373413 .1659851 .31834413 .12599182 .21231079 .10798645 .1552887 .10798645 .10827637 .10798645 .019256592 .17098999-.0107421879 .22999573-.0107421879 .2689972-.0107421879 .30299378 .0062561037 .33099366 .03425598 .31799317-.017745972 .30599977-.06674194 .2659912-.11973572 .23999024-.15385437 .20199585-.18309021 .1559906-.18309021 .14199829-.18309021 .09700012-.18005371 .07998657-.14074707 .09599304-.14074707 .10899353-.14074707 .12298584-.1287384 .1329956-.11973572 .14299011-.10673523 .14299011-.08773804 .14299011-.056747438 .115997318-.052734376 .10598755-.052734376 .08299255-.052734376 .049987794-.068740848 .049987794-.11773682 .049987794-.16796875 .09399414-.20507813 .1559906-.20507813 .25898744-.20507813 .3619995-.11373901 .3899994-.00074768069L.48599244 .38136292Z"/>
<path id="font_2_107" d="M.44898988 .17396546H.42399598C.4189911 .14398194 .4119873 .099990848 .4019928 .084991458 .394989 .07699585 .32899476 .07699585 .30699159 .07699585H.1269989L.23298645 .17996216C.3889923 .31803895 .44898988 .37210084 .44898988 .47216798 .44898988 .5860901 .35899354 .6660156 .23699951 .6660156 .12399292 .6660156 .049987794 .57411196 .049987794 .48516847 .049987794 .4291687 .099990848 .4291687 .102996829 .4291687 .11999512 .4291687 .15499878 .44117738 .15499878 .48217774 .15499878 .5081787 .13699341 .5341797 .101989749 .5341797 .09399414 .5341797 .09199524 .5341797 .08898926 .5331726 .11199951 .59806826 .1659851 .63500979 .22399903 .63500979 .31498719 .63500979 .35798646 .5541382 .35798646 .47216798 .35798646 .39196778 .30799867 .31297303 .25299073 .25097657L.06098938 .036987306C.049987794 .025985718 .049987794 .023986817 .049987794 0H.42099L.44898988 .17396546Z"/>
<path id="font_2_64" d="M.27598573 .18710327V.24511719H.010986328V.18710327H.27598573Z"/>
<path id="font_2_57" d="M.47099305 .16503906V.19602967H.37098695V.6507721C.37098695 .6707611 .37098695 .6767578 .35499574 .6767578 .34599305 .6767578 .34298707 .6767578 .33499146 .6647644L.027999878 .19602967V.16503906H.2939911V.07800293C.2939911 .041992189 .2919922 .0309906 .21798706 .0309906H.19699097V0C.23799134 .0029907227 .2899933 .0029907227 .33198548 .0029907227 .37399293 .0029907227 .4269867 .0029907227 .46798707 0V.0309906H.44699098C.37298585 .0309906 .37098695 .041992189 .37098695 .07800293V.16503906H.47099305M.2999878 .19602967H.055999757L.2999878 .56881716V.19602967Z"/>
</defs>
<path transform="matrix(1.00003,0,0,-1.00008,58.307298,27.74118)" stroke-width=".3985" stroke-linecap="butt" stroke-miterlimit="10" stroke-linejoin="miter" fill="none" stroke="#00aeef" d="M-56.69275-56.69275H56.69275M-56.69275-45.35419H56.69275M-56.69275-34.01564H56.69275M-56.69275-22.6771H56.69275M-56.69275-11.33855H56.69275M-56.69275 0H56.69275M-56.69275 11.33456H56.69275M-56.69275-56.69275V11.33855M-45.35419-56.69275V11.33855M-34.01564-56.69275V11.33855M-22.6771-56.69275V11.33855M-11.33855-56.69275V11.33855M0-56.69275V11.33855M11.33855-56.69275V11.33855M22.6771-56.69275V11.33855M34.01564-56.69275V11.33855M45.35419-56.69275V11.33855M56.68877-56.69275V11.33855M56.69275 11.33855"/>
<path transform="matrix(1.00003,0,0,-1.00008,58.307298,27.74118)" stroke-width=".79701" stroke-linecap="butt" stroke-miterlimit="10" stroke-linejoin="miter" fill="none" stroke="#000000" d="M-56.69275 0H59.79347"/>
<path transform="matrix(1.00003,0,0,-1.00008,118.10256,27.74118)" d="M1.0361 0C-.25902 .25902-1.55415 .77707-3.1083 1.68365-1.55415 .51805-1.55415-.51805-3.1083-1.68365-1.55415-.77707-.25902-.25902 1.0361 0Z"/>
<path transform="matrix(1.00003,0,0,-1.00008,118.10256,27.74118)" stroke-width=".79701" stroke-linecap="butt" stroke-linejoin="round" fill="none" stroke="#000000" d="M1.0361 0C-.25902 .25902-1.55415 .77707-3.1083 1.68365-1.55415 .51805-1.55415-.51805-3.1083-1.68365-1.55415-.77707-.25902-.25902 1.0361 0Z"/>
<use data-text="s" xlink:href="#font_1_1" transform="matrix(9.962899,0,0,-9.963397,123.25625,29.886353)"/>
<path transform="matrix(1.00003,0,0,-1.00008,58.307298,27.74118)" stroke-width=".79701" stroke-linecap="butt" stroke-miterlimit="10" stroke-linejoin="miter" fill="none" stroke="#000000" d="M0-56.69275V14.43927"/>
<path transform="matrix(0,-1.00008,-1.00003,-0,58.307298,13.3007559)" d="M1.0361 0C-.25902 .25902-1.55415 .77707-3.1083 1.68365-1.55415 .51805-1.55415-.51805-3.1083-1.68365-1.55415-.77707-.25902-.25902 1.0361 0Z"/>
<path transform="matrix(0,-1.00008,-1.00003,-0,58.307298,13.3007559)" stroke-width=".79701" stroke-linecap="butt" stroke-linejoin="round" fill="none" stroke="#000000" d="M1.0361 0C-.25902 .25902-1.55415 .77707-3.1083 1.68365-1.55415 .51805-1.55415-.51805-3.1083-1.68365-1.55415-.77707-.25902-.25902 1.0361 0Z"/>
<use data-text="y" xlink:href="#font_1_2" transform="matrix(9.962899,0,0,-9.963397,55.68622,6.2094576)"/>
<path transform="matrix(1.00003,0,0,-1.00008,58.307298,27.74118)" stroke-width=".79701" stroke-linecap="butt" stroke-miterlimit="10" stroke-linejoin="miter" fill="none" stroke="#000000" d="M22.6771 2.26765V-2.26765"/>
<path transform="matrix(1.00003,0,0,-1.00008,58.307298,27.74118)" d="M25.46667-4.57901H19.88751V-11.48125H25.46667ZM19.88751-11.48125" fill="#ffffff"/>
<use data-text="2" xlink:href="#font_2_107" transform="matrix(7.9703195,0,0,-7.970718,78.99193,38.426836)"/>
<path transform="matrix(1.00003,0,0,-1.00008,58.307298,27.74118)" stroke-width=".79701" stroke-linecap="butt" stroke-miterlimit="10" stroke-linejoin="miter" fill="none" stroke="#000000" d="M-22.6771 2.26765V-2.26765"/>
<path transform="matrix(1.00003,0,0,-1.00008,58.307298,27.74118)" d="M-18.56047-4.57901H-26.7937V-11.48125H-18.56047ZM-26.7937-11.48125" fill="#ffffff"/>
<use data-text="-" xlink:href="#font_2_64" transform="matrix(7.9703195,0,0,-7.970718,32.309518,38.426836)"/>
<use data-text="2" xlink:href="#font_2_107" transform="matrix(7.9703195,0,0,-7.970718,34.96364,38.426836)"/>
<path transform="matrix(1.00003,0,0,-1.00008,58.307298,27.74118)" stroke-width=".79701" stroke-linecap="butt" stroke-miterlimit="10" stroke-linejoin="miter" fill="none" stroke="#000000" d="M2.26765-22.6771H-2.26765"/>
<path transform="matrix(1.00003,0,0,-1.00008,58.307298,27.74118)" d="M-4.57903-19.22597H-12.81227V-26.12819H-4.57903ZM-12.81227-26.12819" fill="#ffffff"/>
<use data-text="-" xlink:href="#font_2_64" transform="matrix(7.9703195,0,0,-7.970718,46.29194,53.07401)"/>
<use data-text="2" xlink:href="#font_2_107" transform="matrix(7.9703195,0,0,-7.970718,48.94606,53.07401)"/>
<path transform="matrix(1.00003,0,0,-1.00008,58.307298,27.74118)" stroke-width=".79701" stroke-linecap="butt" stroke-miterlimit="10" stroke-linejoin="miter" fill="none" stroke="#000000" d="M45.35419 2.26765V-2.26765"/>
<path transform="matrix(1.00003,0,0,-1.00008,58.307298,27.74118)" d="M48.14378-4.57903H42.5646V-11.56891H48.14378ZM42.5646-11.56891" fill="#ffffff"/>
<use data-text="4" xlink:href="#font_2_57" transform="matrix(7.9703195,0,0,-7.970718,101.67061,38.513845)"/>
<path transform="matrix(1.00003,0,0,-1.00008,58.307298,27.74118)" stroke-width=".79701" stroke-linecap="butt" stroke-miterlimit="10" stroke-linejoin="miter" fill="none" stroke="#000000" d="M-45.35419 2.26765V-2.26765"/>
<path transform="matrix(1.00003,0,0,-1.00008,58.307298,27.74118)" d="M-41.23756-4.57903H-49.47081V-11.56891H-41.23756ZM-49.47081-11.56891" fill="#ffffff"/>
<use data-text="-" xlink:href="#font_2_64" transform="matrix(7.9703195,0,0,-7.970718,9.631836,38.513845)"/>
<use data-text="4" xlink:href="#font_2_57" transform="matrix(7.9703195,0,0,-7.970718,12.285957,38.513845)"/>
<path transform="matrix(1.00003,0,0,-1.00008,58.307298,27.74118)" stroke-width=".79701" stroke-linecap="butt" stroke-miterlimit="10" stroke-linejoin="miter" fill="none" stroke="#000000" d="M2.26765-45.35419H-2.26765"/>
<path transform="matrix(1.00003,0,0,-1.00008,58.307298,27.74118)" d="M-4.57903-41.85924H-12.81227V-48.84912H-4.57903ZM-12.81227-48.84912" fill="#ffffff"/>
<use data-text="-" xlink:href="#font_2_64" transform="matrix(7.9703195,0,0,-7.970718,46.29194,75.79682)"/>
<use data-text="4" xlink:href="#font_2_57" transform="matrix(7.9703195,0,0,-7.970718,48.94606,75.79682)"/>
<path transform="matrix(1.00003,0,0,-1.00008,58.307298,27.74118)" stroke-width="1.19553" stroke-linecap="butt" stroke-miterlimit="10" stroke-linejoin="miter" fill="none" stroke="#ff0000" d="M45.35419 0C45.35419-25.04874 25.04874-45.35419 0-45.35419-25.04874-45.35419-45.35419-25.04874-45.35419 0"/>
</svg>
