<svg xmlns="http://www.w3.org/2000/svg" xmlns:xlink="http://www.w3.org/1999/xlink" version="1.1" width="85" height="82" viewBox="0 0 85 82">
<defs>
<path id="font_1_1" d="M.33399964 .30233766C.33999635 .32835389 .36299134 .42037965 .43299867 .42037965 .43798829 .42037965 .46199037 .42037965 .48298646 .40734864 .45498658 .402359 .43499757 .37734986 .43499757 .35334779 .43499757 .33735658 .44599916 .31835938 .47299195 .31835938 .49499513 .31835938 .5269928 .3363495 .5269928 .37635804 .5269928 .42837525 .46798707 .4423828 .43399049 .4423828 .37599183 .4423828 .34098817 .38935853 .32899476 .36634828 .3039856 .43237306 .25 .4423828 .22099304 .4423828 .116989139 .4423828 .05999756 .3133545 .05999756 .28834535 .05999756 .27833558 .069992069 .27833558 .07199097 .27833558 .07998657 .27833558 .08299255 .28033448 .084991458 .28933717 .11898804 .39535523 .18499756 .42037965 .21899414 .42037965 .23799134 .42037965 .272995 .4113617 .272995 .35334779 .272995 .32235719 .2559967 .25532533 .21899414 .11528015 .20298767 .053268434 .16799927 .011245728 .12399292 .011245728 .117996219 .011245728 .09498596 .011245728 .07398987 .024276734 .09899902 .029266358 .12098694 .05027771 .12098694 .07827759 .12098694 .105270389 .09899902 .11328125 .083999637 .11328125 .053985597 .11328125 .0289917 .08728027 .0289917 .055267335 .0289917 .009246826 .07899475-.0107421879 .12298584-.0107421879 .18899536-.0107421879 .22499085 .059280397 .22799683 .0652771 .23999024 .028274537 .27598573-.0107421879 .33599855-.0107421879 .43899537-.0107421879 .49598695 .118270877 .49598695 .14328003 .49598695 .1532898 .4869995 .1532898 .48399354 .1532898 .47499085 .1532898 .47299195 .14929199 .47099305 .14228821 .43798829 .03527832 .36999513 .011245728 .33799745 .011245728 .29899598 .011245728 .2829895 .043273927 .2829895 .07727051 .2829895 .09927368 .2889862 .121276859 .2999878 .16529846L.33399964 .30233766Z"/>
<path id="font_1_2" d="M.48599244 .38136292C.48999024 .39537049 .48999024 .39736939 .48999024 .40437318 .48999024 .42237855 .47599793 .43138124 .46099855 .43138124 .45098878 .43138124 .43499757 .42536927 .42599488 .41036988 .42399598 .405365 .41600038 .37435914 .4119873 .35635377 .40499879 .33035279 .397995 .30334474 .3919983 .27633668L.34700013 .09628296C.34298707 .08126831 .2999878 .011245728 .23399353 .011245728 .18299866 .011245728 .17199707 .055267335 .17199707 .0922699 .17199707 .1382904 .18899536 .20030213 .22299195 .28833009 .23899842 .3293457 .24299622 .3403473 .24299622 .36035157 .24299622 .405365 .21099854 .4423828 .16099549 .4423828 .06599426 .4423828 .0289917 .29733277 .0289917 .28833009 .0289917 .27833558 .038986207 .27833558 .040985109 .27833558 .050994874 .27833558 .051986696 .28033448 .056991579 .29634095 .083999637 .3903656 .12399292 .42037965 .1579895 .42037965 .1659851 .42037965 .18299866 .42037965 .18299866 .3883667 .18299866 .36335755 .17298889 .3373413 .1659851 .31834413 .12599182 .21231079 .10798645 .1552887 .10798645 .10827637 .10798645 .019256592 .17098999-.0107421879 .22999573-.0107421879 .2689972-.0107421879 .30299378 .0062561037 .33099366 .03425598 .31799317-.017745972 .30599977-.06674194 .2659912-.11973572 .23999024-.15385437 .20199585-.18309021 .1559906-.18309021 .14199829-.18309021 .09700012-.18005371 .07998657-.14074707 .09599304-.14074707 .10899353-.14074707 .12298584-.1287384 .1329956-.11973572 .14299011-.10673523 .14299011-.08773804 .14299011-.056747438 .115997318-.052734376 .10598755-.052734376 .08299255-.052734376 .049987794-.068740848 .049987794-.11773682 .049987794-.16796875 .09399414-.20507813 .1559906-.20507813 .25898744-.20507813 .3619995-.11373901 .3899994-.00074768069L.48599244 .38136292Z"/>
<path id="font_2_1" d="M.6589966 .23046875C.6759949 .23046875 .69400027 .23046875 .69400027 .25045777 .69400027 .27046205 .6759949 .27046205 .6589966 .27046205H.117996219C.100997928 .27046205 .08299255 .27046205 .08299255 .25045777 .08299255 .23046875 .100997928 .23046875 .117996219 .23046875H.6589966Z"/>
<path id="font_3_2" d="M.2939911 .64004519C.2939911 .66400149 .2939911 .6660156 .2709961 .6660156 .20899964 .60227969 .12098694 .60227969 .08898926 .60227969V.57128909C.10899353 .57128909 .16799927 .57128909 .21998596 .5972748V.07902527C.21998596 .042999269 .21699524 .0309906 .1269989 .0309906H.09498596V0C.12998963 .0029907227 .21699524 .0029907227 .25698854 .0029907227 .29699708 .0029907227 .38398744 .0029907227 .4189911 0V.0309906H.3869934C.29699708 .0309906 .2939911 .041992189 .2939911 .07902527V.64004519Z"/>
<path id="font_3_1" d="M.45999146 .31976319C.45999146 .39982606 .45498658 .47988893 .41999818 .5539398 .37399293 .65000918 .2919922 .6660156 .25 .6660156 .18998719 .6660156 .116989139 .64001467 .07598877 .54693606 .04399109 .47789 .038986207 .39982606 .038986207 .31976319 .038986207 .24472046 .042999269 .15464783 .083999637 .07859802 .1269989-.0024719239 .19999695-.022460938 .24899292-.022460938 .30299378-.022460938 .3789978-.0014648438 .4229889 .09359741 .45498658 .16265869 .45999146 .2407074 .45999146 .31976319M.24899292-.00047302247C.20999146-.00047302247 .15098572 .024551392 .1329956 .12062073 .12199402 .18066406 .12199402 .2727356 .12199402 .3317871 .12199402 .39582826 .12199402 .46188355 .12998963 .5159149 .14898682 .63500979 .22399903 .64401248 .24899292 .64401248 .28199769 .64401248 .34799195 .6259918 .36698915 .52693179 .3769989 .47088624 .3769989 .39482118 .3769989 .3317871 .3769989 .25672914 .3769989 .18867493 .3659973 .12461853 .35099793 .029556275 .2939911-.00047302247 .24899292-.00047302247Z"/>
</defs>
<path transform="matrix(1,0,0,-1,40.93,45.542)" stroke-width=".3985" stroke-linecap="butt" stroke-miterlimit="10" stroke-linejoin="miter" fill="none" stroke="#00aeef" d="M-31.18166-31.18166H31.18166M-31.18166-24.94531H31.18166M-31.18166-18.70897H31.18166M-31.18166-12.47266H31.18166M-31.18166-6.23631H31.18166M-31.18166 0H31.18166M-31.18166 6.23631H31.18166M-31.18166 12.47266H31.18166M-31.18166 18.70897H31.18166M-31.18166 24.94531H31.18166M-31.18166 31.18056H31.18166M-31.18166-31.18166V31.18166M-24.94531-31.18166V31.18166M-18.70897-31.18166V31.18166M-12.47266-31.18166V31.18166M-6.23631-31.18166V31.18166M0-31.18166V31.18166M6.23631-31.18166V31.18166M12.47266-31.18166V31.18166M18.70897-31.18166V31.18166M24.94531-31.18166V31.18166M31.18056-31.18166V31.18166M31.18166 31.18166"/>
<path transform="matrix(1,0,0,-1,40.93,45.542)" stroke-width=".79701" stroke-linecap="butt" stroke-miterlimit="10" stroke-linejoin="miter" fill="none" stroke="#000000" d="M-31.18166 0H32.24158"/>
<path transform="matrix(1,0,0,-1,73.171588,45.542)" d="M1.0361 0C-.25902 .25902-1.55415 .77707-3.1083 1.68365-1.55415 .51805-1.55415-.51805-3.1083-1.68365-1.55415-.77707-.25902-.25902 1.0361 0Z"/>
<path transform="matrix(1,0,0,-1,73.171588,45.542)" stroke-width=".79701" stroke-linecap="butt" stroke-linejoin="round" fill="none" stroke="#000000" d="M1.0361 0C-.25902 .25902-1.55415 .77707-3.1083 1.68365-1.55415 .51805-1.55415-.51805-3.1083-1.68365-1.55415-.77707-.25902-.25902 1.0361 0Z"/>
<use data-text="x" xlink:href="#font_1_1" transform="matrix(9.9626,0,0,-9.9626,78.325,47.687)"/>
<path transform="matrix(1,0,0,-1,40.93,45.542)" stroke-width=".79701" stroke-linecap="butt" stroke-miterlimit="10" stroke-linejoin="miter" fill="none" stroke="#000000" d="M0-31.18166V32.24158"/>
<path transform="matrix(0,-1,-1,-0,40.93,13.300419)" d="M1.0361 0C-.25902 .25902-1.55415 .77707-3.1083 1.68365-1.55415 .51805-1.55415-.51805-3.1083-1.68365-1.55415-.77707-.25902-.25902 1.0361 0Z"/>
<path transform="matrix(0,-1,-1,-0,40.93,13.300419)" stroke-width=".79701" stroke-linecap="butt" stroke-linejoin="round" fill="none" stroke="#000000" d="M1.0361 0C-.25902 .25902-1.55415 .77707-3.1083 1.68365-1.55415 .51805-1.55415-.51805-3.1083-1.68365-1.55415-.77707-.25902-.25902 1.0361 0Z"/>
<use data-text="y" xlink:href="#font_1_2" transform="matrix(9.9626,0,0,-9.9626,38.309,6.209999)"/>
<path transform="matrix(1,0,0,-1,40.93,45.542)" stroke-width=".79701" stroke-linecap="butt" stroke-miterlimit="10" stroke-linejoin="miter" fill="none" stroke="#000000" d="M-31.18166 1.24724V-1.24728"/>
<path transform="matrix(1,0,0,-1,40.93,45.542)" d="M-41.03375-12.88158H-21.329548V-3.6383506H-41.03375Z" fill="#ffffff"/>
<use data-text="&#x2212;" xlink:href="#font_2_1" transform="matrix(9.9626,0,0,-9.9626,.89299777,56.597)"/>
<use data-text="1" xlink:href="#font_3_2" transform="matrix(9.9626,0,0,-9.9626,8.641998,56.597)"/>
<use data-text="0" xlink:href="#font_3_1" transform="matrix(9.9626,0,0,-9.9626,13.623291,56.597)"/>
<path transform="matrix(1,0,0,-1,40.93,45.542)" stroke-width=".79701" stroke-linecap="butt" stroke-miterlimit="10" stroke-linejoin="miter" fill="none" stroke="#000000" d="M1.24724-31.18166H-1.24728"/>
<path transform="matrix(1,0,0,-1,40.93,45.542)" d="M-23.34254-35.80327H-3.63834V-26.56004H-23.34254Z" fill="#ffffff"/>
<use data-text="&#x2212;" xlink:href="#font_2_1" transform="matrix(9.9626,0,0,-9.9626,18.584,79.519)"/>
<use data-text="1" xlink:href="#font_3_2" transform="matrix(9.9626,0,0,-9.9626,26.333,79.519)"/>
<use data-text="0" xlink:href="#font_3_1" transform="matrix(9.9626,0,0,-9.9626,31.314293,79.519)"/>
<path transform="matrix(1,0,0,-1,40.93,45.542)" stroke-width=".79701" stroke-linecap="butt" stroke-miterlimit="10" stroke-linejoin="miter" fill="none" stroke="#000000" d="M31.18166 1.24724V-1.24728"/>
<path transform="matrix(1,0,0,-1,40.93,45.542)" d="M25.20398-12.05133H37.15932V-3.6383496H25.20398Z" fill="#ffffff"/>
<use data-text="1" xlink:href="#font_3_2" transform="matrix(9.9626,0,0,-9.9626,67.130008,56.597)"/>
<use data-text="0" xlink:href="#font_3_1" transform="matrix(9.9626,0,0,-9.9626,72.1113,56.597)"/>
<path transform="matrix(1,0,0,-1,40.93,45.542)" stroke-width=".79701" stroke-linecap="butt" stroke-miterlimit="10" stroke-linejoin="miter" fill="none" stroke="#000000" d="M1.24724 31.18166H-1.24728"/>
<path transform="matrix(1,0,0,-1,40.93,45.542)" d="M-15.59369 26.97516H-3.6383496V35.38814H-15.59369Z" fill="#ffffff"/>
<use data-text="1" xlink:href="#font_3_2" transform="matrix(9.9626,0,0,-9.9626,26.333,17.571)"/>
<use data-text="0" xlink:href="#font_3_1" transform="matrix(9.9626,0,0,-9.9626,31.3143,17.571)"/>
<path transform="matrix(1,0,0,-1,40.93,45.542)" stroke-width="1.19553" stroke-linecap="butt" stroke-miterlimit="10" stroke-linejoin="miter" fill="none" stroke="#ff0000" d="M-13.59172-31.18132C-13.59172-31.18132-13.28484-28.53177-13.16698-27.53636-13.04912-26.54094-12.8601-24.97038-12.74223-24.0071-12.62437-23.04381-12.43536-21.5248-12.31749-20.59361-12.19963-19.66243-12.01062-18.19484-11.89275-17.29579-11.77489-16.39671-11.58588-14.98068-11.46802-14.11371-11.35014-13.24675-11.16113-11.88217-11.04327-11.04732-10.92542-10.21245-10.73639-8.89937-10.61853-8.09663-10.50067-7.29388-10.31165-6.03233-10.19379-5.2617-10.07593-4.49107-9.8869-3.28098-9.76904-2.54243-9.65118-1.80391-9.46216-.64531-9.3443 .06108-9.22644 .7675-9.03741 1.8746-8.91956 2.5489-8.8017 3.2232-8.61267 4.2788-8.49481 4.92097-8.37695 5.56317-8.18794 6.5673-8.07007 7.1774-7.95221 7.78748-7.7632 8.74011-7.64534 9.31808-7.52747 9.89606-7.33846 10.79715-7.2206 11.34302-7.10272 11.88889-6.91371 12.73853-6.79585 13.25229-6.678 13.76605-6.48897 14.5642-6.37111 15.04585-6.25325 15.5275-6.06422 16.27414-5.94637 16.7237-5.8285 17.17323-5.63948 17.86838-5.52162 18.28581-5.40376 18.70323-5.21474 19.34686-5.09688 19.73218-4.97902 20.11748-4.79001 20.70967-4.67213 21.06288-4.55428 21.41608-4.36526 21.95677-4.24739 22.27786-4.12953 22.59897-3.94052 23.08815-3.82265 23.37714-3.70479 23.66612-3.51578 24.10382-3.39792 24.3607-3.28004 24.61758-3.09103 25.00378-2.97318 25.22856-2.85532 25.45332-2.66629 25.78804-2.54843 25.9807-2.43057 26.17334-2.24156 26.45657-2.12369 26.61713-2.00583 26.77766-1.81682 27.00938-1.69894 27.13782-1.58109 27.26627-1.39207 27.4465-1.2742 27.54282-1.15634 27.63914-.96733 27.76788-.84946 27.8321-.7316 27.89632-.54259 27.97356-.42471 28.00568-.30685 28.03778-.11786 28.06348 0 28.06348 .11786 28.06348 .30685 28.03778 .42471 28.00568 .54259 27.97356 .7316 27.89632 .84946 27.8321 .96733 27.76788 1.15634 27.63914 1.2742 27.54282 1.39207 27.4465 1.58109 27.26627 1.69894 27.13782 1.81682 27.00938 2.00583 26.77766 2.12369 26.61713 2.24156 26.45657 2.43057 26.17334 2.54843 25.9807 2.66629 25.78804 2.85532 25.45332 2.97318 25.22856 3.09103 25.00378 3.28004 24.61758 3.39792 24.3607 3.51578 24.10382 3.70479 23.66612 3.82265 23.37714 3.94052 23.08815 4.12953 22.59897 4.24739 22.27786 4.36526 21.95677 4.55428 21.41608 4.67213 21.06288 4.79001 20.70967 4.97902 20.11748 5.09688 19.73218 5.21474 19.34686 5.40376 18.70323 5.52162 18.28581 5.63948 17.86838 5.8285 17.17323 5.94637 16.7237 6.06422 16.27414 6.25325 15.5275 6.37111 15.04585 6.48897 14.5642 6.678 13.76605 6.79585 13.25229 6.91371 12.73853 7.10272 11.88889 7.2206 11.34302 7.33846 10.79715 7.52747 9.89606 7.64534 9.31808 7.7632 8.74011 7.95221 7.78748 8.07007 7.1774 8.18794 6.5673 8.37695 5.56317 8.49481 4.92097 8.61267 4.2788 8.8017 3.2232 8.91956 2.5489 9.03741 1.8746 9.22644 .7675 9.3443 .06108 9.46216-.64531 9.65118-1.80391 9.76904-2.54243 9.8869-3.28098 10.07593-4.49107 10.19379-5.2617 10.31165-6.03233 10.50067-7.29388 10.61853-8.09663 10.73639-8.89937 10.92542-10.21245 11.04327-11.04732 11.16113-11.88217 11.35014-13.24675 11.46802-14.11371 11.58588-14.98068 11.77489-16.39671 11.89275-17.29579 12.01062-18.19484 12.19963-19.66243 12.31749-20.59361 12.43536-21.5248 12.62437-23.04381 12.74223-24.0071 12.8601-24.97038 13.04912-26.54094 13.16698-27.53636 13.28484-28.53177 13.59172-31.18132 13.59172-31.18132"/>
</svg>
