<svg xmlns="http://www.w3.org/2000/svg" xmlns:xlink="http://www.w3.org/1999/xlink" version="1.1" width="250" height="111" viewBox="0 0 250 111">
<defs>
<path id="font_1_2" d="M.33399964 .30233766C.33999635 .32835389 .36299134 .42037965 .43299867 .42037965 .43798829 .42037965 .46199037 .42037965 .48298646 .40734864 .45498658 .402359 .43499757 .37734986 .43499757 .35334779 .43499757 .33735658 .44599916 .31835938 .47299195 .31835938 .49499513 .31835938 .5269928 .3363495 .5269928 .37635804 .5269928 .42837525 .46798707 .4423828 .43399049 .4423828 .37599183 .4423828 .34098817 .38935853 .32899476 .36634828 .3039856 .43237306 .25 .4423828 .22099304 .4423828 .116989139 .4423828 .05999756 .3133545 .05999756 .28834535 .05999756 .27833558 .069992069 .27833558 .07199097 .27833558 .07998657 .27833558 .08299255 .28033448 .084991458 .28933717 .11898804 .39535523 .18499756 .42037965 .21899414 .42037965 .23799134 .42037965 .272995 .4113617 .272995 .35334779 .272995 .32235719 .2559967 .25532533 .21899414 .11528015 .20298767 .053268434 .16799927 .011245728 .12399292 .011245728 .117996219 .011245728 .09498596 .011245728 .07398987 .024276734 .09899902 .029266358 .12098694 .05027771 .12098694 .07827759 .12098694 .105270389 .09899902 .11328125 .083999637 .11328125 .053985597 .11328125 .0289917 .08728027 .0289917 .055267335 .0289917 .009246826 .07899475-.0107421879 .12298584-.0107421879 .18899536-.0107421879 .22499085 .059280397 .22799683 .0652771 .23999024 .028274537 .27598573-.0107421879 .33599855-.0107421879 .43899537-.0107421879 .49598695 .118270877 .49598695 .14328003 .49598695 .1532898 .4869995 .1532898 .48399354 .1532898 .47499085 .1532898 .47299195 .14929199 .47099305 .14228821 .43798829 .03527832 .36999513 .011245728 .33799745 .011245728 .29899598 .011245728 .2829895 .043273927 .2829895 .07727051 .2829895 .09927368 .2889862 .121276859 .2999878 .16529846L.33399964 .30233766Z"/>
<path id="font_1_3" d="M.48599244 .38136292C.48999024 .39537049 .48999024 .39736939 .48999024 .40437318 .48999024 .42237855 .47599793 .43138124 .46099855 .43138124 .45098878 .43138124 .43499757 .42536927 .42599488 .41036988 .42399598 .405365 .41600038 .37435914 .4119873 .35635377 .40499879 .33035279 .397995 .30334474 .3919983 .27633668L.34700013 .09628296C.34298707 .08126831 .2999878 .011245728 .23399353 .011245728 .18299866 .011245728 .17199707 .055267335 .17199707 .0922699 .17199707 .1382904 .18899536 .20030213 .22299195 .28833009 .23899842 .3293457 .24299622 .3403473 .24299622 .36035157 .24299622 .405365 .21099854 .4423828 .16099549 .4423828 .06599426 .4423828 .0289917 .29733277 .0289917 .28833009 .0289917 .27833558 .038986207 .27833558 .040985109 .27833558 .050994874 .27833558 .051986696 .28033448 .056991579 .29634095 .083999637 .3903656 .12399292 .42037965 .1579895 .42037965 .1659851 .42037965 .18299866 .42037965 .18299866 .3883667 .18299866 .36335755 .17298889 .3373413 .1659851 .31834413 .12599182 .21231079 .10798645 .1552887 .10798645 .10827637 .10798645 .019256592 .17098999-.0107421879 .22999573-.0107421879 .2689972-.0107421879 .30299378 .0062561037 .33099366 .03425598 .31799317-.017745972 .30599977-.06674194 .2659912-.11973572 .23999024-.15385437 .20199585-.18309021 .1559906-.18309021 .14199829-.18309021 .09700012-.18005371 .07998657-.14074707 .09599304-.14074707 .10899353-.14074707 .12298584-.1287384 .1329956-.11973572 .14299011-.10673523 .14299011-.08773804 .14299011-.056747438 .115997318-.052734376 .10598755-.052734376 .08299255-.052734376 .049987794-.068740848 .049987794-.11773682 .049987794-.16796875 .09399414-.20507813 .1559906-.20507813 .25898744-.20507813 .3619995-.11373901 .3899994-.00074768069L.48599244 .38136292Z"/>
<path id="font_2_64" d="M.27598573 .18710327V.24511719H.010986328V.18710327H.27598573Z"/>
<path id="font_2_82" d="M.4189911 0V.0309906H.3869934C.29699708 .0309906 .2939911 .041992189 .2939911 .07902527V.64012148C.2939911 .6640167 .2939911 .6660156 .2709961 .6660156 .20899964 .60227969 .12098694 .60227969 .08898926 .60227969V.57128909C.10899353 .57128909 .16799927 .57128909 .21998596 .5972748V.07902527C.21998596 .042999269 .21699524 .0309906 .1269989 .0309906H.09498596V0C.12998963 .0029907227 .21699524 .0029907227 .25698854 .0029907227 .29699708 .0029907227 .38398744 .0029907227 .4189911 0Z"/>
<path id="font_3_1" d="M.31098939 .36265565H.42999269C.4149933 .30274964 .3929901 .2118988 .3929901 .13302613 .3929901 .09309387 .397995 .06613159 .4039917 .044174196 .41999818-.0057678224 .43299867-.009765625 .44898988-.009765625 .47200013-.009765625 .49598695 .011230469 .49598695 .035186769 .49598695 .043182374 .49398805 .047164918 .48799134 .057159425 .46899415 .09408569 .45098878 .15100098 .45098878 .23286438 .45098878 .25183106 .45098878 .29177857 .46499635 .36265565H.58999636C.60798647 .36265565 .6159973 .36265565 .6269989 .37065126 .6409912 .380661 .6439972 .39665223 .6439972 .4016571 .6439972 .43066407 .6179962 .43066407 .6009979 .43066407H.22399903C.18299866 .43066407 .15499878 .42166139 .10998535 .37965394 .083999637 .35665895 .04499817 .30274964 .04499817 .2937622 .04499817 .28178407 .057998659 .28178407 .06199646 .28178407 .07299805 .28178407 .07398987 .28378297 .07998657 .2927704 .1309967 .36265565 .19299317 .36265565 .21499634 .36265565H.27598573C.24499512 .25283814 .19099427 .13502503 .16099549 .07511902 .15499878 .062149049 .14498902 .04118347 .14199829 .03718567 .14099121 .033187868 .13899231 .029190064 .13899231 .022201539 .13899231 .006225586 .15098572-.009765625 .17399597-.009765625 .21398926-.009765625 .22499085 .035186769 .24899292 .12504578L.31098939 .36265565Z"/>
<path id="font_4_4" d="M.5289917 .1640625V.20005799H.41799928V.64582827C.41799928 .66682437 .41799928 .6738281 .3959961 .6738281 .38398744 .6738281 .37998963 .6738281 .36999513 .65982058L.038986207 .20005799V.1640625H.33299256V.08201599C.33299256 .04800415 .33299256 .035995485 .2519989 .035995485H.22499085V0C.2749939 .0019989014 .33898927 .0039978029 .375 .0039978029 .4119873 .0039978029 .47599793 .0019989014 .526001 0V.035995485H.49899293C.41799928 .035995485 .41799928 .04800415 .41799928 .08201599V.1640625H.5289917M.33999635 .5658722V.20005799H.07598877L.33999635 .5658722Z"/>
<path id="font_4_2" d="M.5049896 .18203736H.47099305C.46798707 .16001892 .45799256 .100997928 .44499208 .09098816 .43699647 .084991458 .3600006 .084991458 .34599305 .084991458H.1619873C.2669983 .17803955 .3019867 .20603943 .3619995 .25306703 .43598939 .312088 .5049896 .374115 .5049896 .46914674 .5049896 .5900879 .39898683 .6640625 .2709961 .6640625 .14698792 .6640625 .06298828 .57710269 .06298828 .4851532 .06298828 .43414308 .10598755 .42915345 .115997318 .42915345 .13999939 .42915345 .16899109 .44615174 .16899109 .48214723 .16899109 .5001526 .1619873 .53515627 .10998535 .53515627 .14099121 .6060791 .20899964 .62805178 .2559967 .62805178 .35598756 .62805178 .4079895 .5501404 .4079895 .46914674 .4079895 .38212586 .34599305 .3130951 .31399537 .27708436L.07299805 .038986207C.06298828 .02999878 .06298828 .027999878 .06298828 0H.47499085L.5049896 .18203736Z"/>
<path id="font_4_3" d="M.272995 .33428956C.35099793 .33428956 .40699769 .2803192 .40699769 .1733551 .40699769 .04940796 .33499146 .012466431 .2769928 .012466431 .23699951 .012466431 .14898682 .0234375 .10699463 .082351688 .1539917 .084350589 .16499329 .11735535 .16499329 .13835144 .16499329 .17034912 .14099121 .19335938 .10998535 .19335938 .08198547 .19335938 .053985597 .17634583 .053985597 .13534546 .053985597 .041412355 .1579895-.01953125 .2789917-.01953125 .41799928-.01953125 .5139923 .07336426 .5139923 .1733551 .5139923 .2513275 .44999696 .32929994 .33999635 .35229493 .44499208 .39024354 .48298646 .4650879 .48298646 .5260773 .48298646 .60505679 .3919983 .6640625 .2809906 .6640625 .16999817 .6640625 .084991458 .61006167 .084991458 .5300751 .084991458 .49606324 .10699463 .47706605 .13699341 .47706605 .16799927 .47706605 .18798828 .5000763 .18798828 .5280762 .18798828 .5570679 .16799927 .57806399 .13699341 .5800781 .17199707 .62405398 .24099732 .63505557 .27799989 .63505557 .32299806 .63505557 .38598634 .6130676 .38598634 .5260773 .38598634 .48406983 .37199403 .43814088 .34599305 .4072113 .31298829 .36927796 .2849884 .3672943 .23498535 .36428834 .20999146 .3623047 .20799256 .3623047 .20298767 .3612976 .20098877 .3612976 .19299317 .3592987 .19299317 .34829713 .19299317 .33428956 .20199585 .33428956 .21899414 .33428956H.272995Z"/>
<path id="font_1_1" d="M.2649994 .37265016H.37799073C.34498597 .22489929 .33599855 .18196106 .33599855 .11508179 .33599855 .100097659 .33599855 .073150638 .34399415 .03919983 .35398866-.0047454836 .36499024-.0107421879 .37998963-.0107421879 .3999939-.0107421879 .42099 .007247925 .42099 .02722168 .42099 .033218385 .42099 .035202028 .4149933 .049179079 .38598634 .12106323 .38598634 .18595886 .38598634 .21391297 .38598634 .26683045 .3929901 .32073976 .4039917 .37265016H.5179901C.5309906 .37265016 .5669861 .37265016 .5669861 .406662 .5669861 .43066407 .54599 .43066407 .5269928 .43066407H.19198609C.16999817 .43066407 .13198853 .43066407 .08799744 .38365174 .052993776 .34469605 .026992798 .29878236 .026992798 .29379273 .026992798 .29278565 .026992798 .28379823 .038986207 .28379823 .04699707 .28379823 .04899597 .28779603 .054992677 .29577638 .10398865 .37265016 .1619873 .37265016 .18199158 .37265016H.23899842C.20698548 .25186158 .15299988 .13105774 .11099243 .04020691 .102996829 .025222779 .102996829 .023223877 .102996829 .016235352 .102996829-.002746582 .11898804-.0107421879 .13198853-.0107421879 .1619873-.0107421879 .16999817 .017242432 .18199158 .05418396 .19599915 .100097659 .19599915 .10209656 .20899964 .15202332L.2649994 .37265016Z"/>
<path id="font_4_5" d="M.15499878 .5588074C.20599365 .5458069 .23599243 .5458069 .2519989 .5458069 .38398744 .5458069 .46199037 .6358032 .46199037 .6508026 .46199037 .6618042 .45498658 .6648102 .44999696 .6648102 .44799806 .6648102 .44599916 .6648102 .44198609 .6618042 .41799928 .6528015 .36499024 .6328125 .29100038 .6328125 .2630005 .6328125 .20999146 .6348114 .14498902 .6598053 .1349945 .6648102 .1329956 .6648102 .13198853 .6648102 .11898804 .6648102 .11898804 .6538086 .11898804 .6378021V.34251405C.11898804 .32548524 .11898804 .3134613 .1349945 .3134613 .14399719 .3134613 .14498902 .3154602 .15499878 .32748414 .19799805 .38259889 .25898744 .390625 .2939911 .390625 .35398866 .390625 .3809967 .34251405 .38598634 .33450318 .4039917 .30143739 .4099884 .26335145 .4099884 .20524597 .4099884 .17524719 .4099884 .116256717 .37998963 .07234192 .35499574 .03640747 .31199647 .012466431 .2630005 .012466431 .19799805 .012466431 .1309967 .04838562 .10598755 .11425781 .14399719 .11125183 .16299439 .13624573 .16299439 .16325379 .16299439 .20625305 .12599182 .21424866 .11299133 .21424866 .11099243 .21424866 .06298828 .21424866 .06298828 .1602478 .06298828 .07034302 .14498902-.01953125 .2649994-.01953125 .3929901-.01953125 .5049896 .07533264 .5049896 .20124817 .5049896 .31445313 .4189911 .41862489 .29499818 .41862489 .25099183 .41862489 .19898987 .4076233 .15499878 .36956788V.5588074Z"/>
<path id="font_4_6" d="M.5349884 .6045227C.54499819 .6165161 .54499819 .6185303 .54499819 .64453127H.2829895C.24299622 .64453127 .23199463 .6455078 .19599915 .6484375 .14399719 .65234377 .14199829 .6592407 .13899231 .676239H.10499573L.069992069 .46250917H.10398865C.10598755 .47750855 .115997318 .54351809 .13198853 .5535126 .13999939 .55952456 .22099304 .55952456 .23599243 .55952456H.45399476C.42199708 .5175171 .37098695 .45550538 .34999085 .4275055 .21899414 .25549317 .20698548 .096466068 .20698548 .037460329 .20698548 .02645874 .20698548-.01953125 .2539978-.01953125 .3019867-.01953125 .3019867 .025466919 .3019867 .038467409V.07847595C.3019867 .27249146 .34199525 .36149598 .3849945 .41551209L.5349884 .6045227Z"/>
<path id="font_5_1" d="M.1269989 .07699585 .23298645 .18003845C.3889923 .31811524 .44898988 .3721466 .44898988 .47216798 .44898988 .5860901 .35899354 .6660156 .23699951 .6660156 .12399292 .6660156 .049987794 .57411196 .049987794 .48516847 .049987794 .4291687 .099990848 .4291687 .102996829 .4291687 .11999512 .4291687 .15499878 .44117738 .15499878 .48217774 .15499878 .5081787 .13699341 .5341797 .101989749 .5341797 .09399414 .5341797 .09199524 .5341797 .08898926 .5331726 .11199951 .59806826 .1659851 .63500979 .22399903 .63500979 .31498719 .63500979 .35798646 .5541382 .35798646 .47216798 .35798646 .39215089 .30799867 .31311036 .25299073 .25108338L.06098938 .036987306C.049987794 .025985718 .049987794 .023986817 .049987794 0H.42099L.44898988 .17404175H.42399598C.4189911 .14402771 .4119873 .1000061 .4019928 .084991458 .394989 .07699585 .32899476 .07699585 .30699159 .07699585H.1269989Z"/>
<path id="font_4_7" d="M.41799928 .29803468C.41799928 .05064392 .29499818 .012466431 .23498535 .012466431 .21299744 .012466431 .1599884 .014465332 .1329956 .045639039 .17399597 .04963684 .1769867 .08363342 .1769867 .09263611 .1769867 .11764526 .1599884 .13964844 .12998963 .13964844 .099990848 .13964844 .08198547 .119644168 .08198547 .09063721 .08198547 .022521973 .13899231-.01953125 .23599243-.01953125 .3789978-.01953125 .5139923 .11564636 .5139923 .32904054 .5139923 .5770569 .4039917 .6640625 .2869873 .6640625 .2539978 .6640625 .18499756 .6590576 .12799073 .60305789 .09399414 .5700531 .053985597 .53105166 .053985597 .4410553 .053985597 .31404115 .15499878 .22003174 .27198792 .22003174 .35198976 .22003174 .394989 .27304078 .41799928 .31803895V.29803468M.2769928 .24804688C.23799134 .24804688 .20098877 .26104737 .17298889 .30703736 .1499939 .34403993 .1499939 .38604737 .1499939 .4410553 .1499939 .49905396 .1499939 .53904727 .1789856 .5790558 .20298767 .61405947 .23599243 .63505557 .28799439 .63505557 .33898927 .63505557 .36898805 .60305789 .3849945 .5770569 .4119873 .53504946 .4149933 .4650421 .4149933 .4300537 .4149933 .30004884 .33999635 .24804688 .2769928 .24804688Z"/>
<path id="font_4_1" d="M.33499146 .63612368C.33499146 .6630554 .33299256 .6640625 .30499269 .6640625 .24099732 .6014404 .1499939 .6004486 .10899353 .6004486V.5644531C.1329956 .5644531 .19898987 .5644531 .2539978 .592453V.08203125C.2539978 .04899597 .2539978 .035995485 .1539917 .035995485H.115997318V0C.13398743 .0009918213 .25698854 .0039978029 .2939911 .0039978029 .32499696 .0039978029 .45098878 .0009918213 .47299195 0V.035995485H.43499757C.33499146 .035995485 .33499146 .04899597 .33499146 .08203125V.63612368Z"/>
<path id="font_5_2" d="M.2899933 .35191346C.37199403 .37893678 .42999269 .4490509 .42999269 .52809146 .42999269 .6100464 .34199525 .6660156 .24598694 .6660156 .14498902 .6660156 .068984989 .60606387 .068984989 .53009036 .068984989 .49710084 .09098816 .47808839 .11999512 .47808839 .15098572 .47808839 .17098999 .50009158 .17098999 .5290985 .17098999 .57910159 .12399292 .57910159 .10899353 .57910159 .13999939 .62802127 .20599365 .64100649 .24198914 .64100649 .2829895 .64100649 .33799745 .6190338 .33799745 .5290985 .33799745 .51708987 .33599855 .45906068 .30999757 .4149933 .27999879 .36691285 .24598694 .36390687 .22099304 .36291505 .21299744 .36190797 .18899536 .35990907 .18199158 .35990907 .17399597 .35890199 .16699219 .35791017 .16699219 .3479004 .16699219 .33691407 .17399597 .33691407 .19099427 .33691407H.23498535C.31698609 .33691407 .35398866 .2686615 .35398866 .17037964 .35398866 .034469606 .2849884 .0055389406 .24099732 .0055389406 .19799805 .0055389406 .12298584 .022491456 .08799744 .08137512 .12298584 .07637024 .1539917 .09837341 .1539917 .1363678 .1539917 .17237854 .1269989 .19238281 .09799194 .19238281 .07398987 .19238281 .041992189 .17837525 .041992189 .1343689 .041992189 .043441774 .1349945-.022460938 .24398804-.022460938 .3659973-.022460938 .45700074 .06838989 .45700074 .17037964 .45700074 .252594 .3939972 .33088685 .2899933 .35191346Z"/>
</defs>
<path transform="matrix(1,0,0,-1,13.299004,64.024)" stroke-width=".3985" stroke-linecap="butt" stroke-miterlimit="10" stroke-linejoin="miter" fill="none" stroke="#00aeef" d="M0-45.35506H226.77533M0-22.67752H226.77533M0 0H226.77533M0 22.67752H226.77533M0 45.34708H226.77533M0-45.35506V45.35506M17.81058-45.35506V45.35506M35.62117-45.35506V45.35506M53.43176-45.35506V45.35506M71.24237-45.35506V45.35506M89.05296-45.35506V45.35506M106.86356-45.35506V45.35506M124.67415-45.35506V45.35506M142.48476-45.35506V45.35506M160.29535-45.35506V45.35506M178.10594-45.35506V45.35506M195.91654-45.35506V45.35506M213.72714-45.35506V45.35506M226.77533 45.35506"/>
<path transform="matrix(1,0,0,-1,13.299004,64.024)" stroke-width=".79701" stroke-linecap="butt" stroke-miterlimit="10" stroke-linejoin="miter" fill="none" stroke="#000000" d="M0 0H225.34072"/>
<path transform="matrix(1,0,0,-1,238.63971,64.024)" d="M1.0361 0C-.25902 .25902-1.55415 .77707-3.1083 1.68365-1.55415 .51805-1.55415-.51805-3.1083-1.68365-1.55415-.77707-.25902-.25902 1.0361 0Z"/>
<path transform="matrix(1,0,0,-1,238.63971,64.024)" stroke-width=".79701" stroke-linecap="butt" stroke-linejoin="round" fill="none" stroke="#000000" d="M1.0361 0C-.25902 .25902-1.55415 .77707-3.1083 1.68365-1.55415 .51805-1.55415-.51805-3.1083-1.68365-1.55415-.77707-.25902-.25902 1.0361 0Z"/>
<use data-text="x" xlink:href="#font_1_2" transform="matrix(9.9626,0,0,-9.9626,243.793,66.16901)"/>
<path transform="matrix(1,0,0,-1,13.299004,64.024)" stroke-width=".79701" stroke-linecap="butt" stroke-miterlimit="10" stroke-linejoin="miter" fill="none" stroke="#000000" d="M0-45.35506V50.72377"/>
<path transform="matrix(0,-1,-1,-0,13.299004,13.300232)" d="M1.0361 0C-.25902 .25902-1.55415 .77707-3.1083 1.68365-1.55415 .51805-1.55415-.51805-3.1083-1.68365-1.55415-.77707-.25902-.25902 1.0361 0Z"/>
<path transform="matrix(0,-1,-1,-0,13.299004,13.300232)" stroke-width=".79701" stroke-linecap="butt" stroke-linejoin="round" fill="none" stroke="#000000" d="M1.0361 0C-.25902 .25902-1.55415 .77707-3.1083 1.68365-1.55415 .51805-1.55415-.51805-3.1083-1.68365-1.55415-.77707-.25902-.25902 1.0361 0Z"/>
<use data-text="y" xlink:href="#font_1_3" transform="matrix(9.9626,0,0,-9.9626,10.678001,6.2090036)"/>
<path transform="matrix(1,0,0,-1,13.299004,64.024)" stroke-width=".79701" stroke-linecap="butt" stroke-miterlimit="10" stroke-linejoin="miter" fill="none" stroke="#000000" d="M1.81422-22.67752H-1.81422"/>
<use data-text="-" xlink:href="#font_2_64" transform="matrix(7.97008,0,0,-7.97008,1.8702011,89.3552)"/>
<use data-text="1" xlink:href="#font_2_82" transform="matrix(7.97008,0,0,-7.97008,4.5242388,89.3552)"/>
<path transform="matrix(1,0,0,-1,13.299004,64.024)" stroke-width=".79701" stroke-linecap="butt" stroke-miterlimit="10" stroke-linejoin="miter" fill="none" stroke="#000000" d="M1.81422 22.67752H-1.81422"/>
<use data-text="1" xlink:href="#font_2_82" transform="matrix(7.97008,0,0,-7.97008,4.524208,44.000204)"/>
<path transform="matrix(1,0,0,-1,13.299004,64.024)" stroke-width=".79701" stroke-linecap="butt" stroke-miterlimit="10" stroke-linejoin="miter" fill="none" stroke="#000000" d="M17.81058 1.81422V-1.81422"/>
<path transform="matrix(1,0,0,-1,13.299004,64.024)" d="M13.16422-16.55872H22.45694V-4.2052996H13.16422Z" fill="#ffffff"/>
<use data-text="&#x03c0;" xlink:href="#font_3_1" transform="matrix(6.9738,0,0,-6.9738,28.655007,72.228008)"/>
<path transform="matrix(1,0,0,-1,-72.84,25.127003)" stroke-width=".3985" stroke-linecap="butt" stroke-miterlimit="10" stroke-linejoin="miter" fill="none" stroke="#000000" d="M101.495-48.533H106.404"/>
<use data-text="4" xlink:href="#font_4_4" transform="matrix(6.9738,0,0,-6.9738,29.124,79.586)"/>
<path transform="matrix(1,0,0,-1,13.299004,64.024)" stroke-width=".79701" stroke-linecap="butt" stroke-miterlimit="10" stroke-linejoin="miter" fill="none" stroke="#000000" d="M35.6215 1.81422V-1.81422"/>
<path transform="matrix(1,0,0,-1,13.299004,64.024)" d="M30.97514-16.55872H40.26786V-4.2052996H30.97514Z" fill="#ffffff"/>
<use data-text="&#x03c0;" xlink:href="#font_3_1" transform="matrix(6.9738,0,0,-6.9738,46.466005,72.228008)"/>
<path transform="matrix(1,0,0,-1,-55.029,25.127003)" stroke-width=".3985" stroke-linecap="butt" stroke-miterlimit="10" stroke-linejoin="miter" fill="none" stroke="#000000" d="M101.495-48.533H106.404"/>
<use data-text="2" xlink:href="#font_4_2" transform="matrix(6.9738,0,0,-6.9738,46.934999,79.586)"/>
<path transform="matrix(1,0,0,-1,13.299004,64.024)" stroke-width=".79701" stroke-linecap="butt" stroke-miterlimit="10" stroke-linejoin="miter" fill="none" stroke="#000000" d="M53.43246 1.81422V-1.81422"/>
<path transform="matrix(1,0,0,-1,13.299004,64.024)" d="M46.80046-18.05037H60.06448V-4.205289H46.80046Z" fill="#ffffff"/>
<use data-text="3" xlink:href="#font_4_3" transform="matrix(6.9738,0,0,-6.9738,62.292005,73.72)"/>
<use data-text="&#x03c0;" xlink:href="#font_3_1" transform="matrix(6.9738,0,0,-6.9738,66.263,73.72)"/>
<path transform="matrix(1,0,0,-1,-39.203,26.619004)" stroke-width=".3985" stroke-linecap="butt" stroke-miterlimit="10" stroke-linejoin="miter" fill="none" stroke="#000000" d="M101.495-48.533H110.375"/>
<use data-text="4" xlink:href="#font_4_4" transform="matrix(6.9738,0,0,-6.9738,64.746,81.078)"/>
<path transform="matrix(1,0,0,-1,13.299004,64.024)" stroke-width=".79701" stroke-linecap="butt" stroke-miterlimit="10" stroke-linejoin="miter" fill="none" stroke="#000000" d="M71.24341 1.81422V-1.81422"/>
<path transform="matrix(1,0,0,-1,13.299004,64.024)" d="M74.45505-6.11813H68.03178V-11.1438H74.45505ZM68.03178-11.1438" fill="#ffffff"/>
<use data-text="&#x03c0;" xlink:href="#font_1_1" transform="matrix(7.97008,0,0,-7.97008,82.128208,74.3712)"/>
<path transform="matrix(1,0,0,-1,13.299004,64.024)" stroke-width=".79701" stroke-linecap="butt" stroke-miterlimit="10" stroke-linejoin="miter" fill="none" stroke="#000000" d="M89.05402 1.81422V-1.81422"/>
<path transform="matrix(1,0,0,-1,13.299004,64.024)" d="M82.422-18.05037H95.68602V-4.205289H82.422Z" fill="#ffffff"/>
<use data-text="5" xlink:href="#font_4_5" transform="matrix(6.9738,0,0,-6.9738,97.913,73.72)"/>
<use data-text="&#x03c0;" xlink:href="#font_3_1" transform="matrix(6.9738,0,0,-6.9738,101.884,73.72)"/>
<path transform="matrix(1,0,0,-1,-3.5820008,26.619004)" stroke-width=".3985" stroke-linecap="butt" stroke-miterlimit="10" stroke-linejoin="miter" fill="none" stroke="#000000" d="M101.495-48.533H110.375"/>
<use data-text="4" xlink:href="#font_4_4" transform="matrix(6.9738,0,0,-6.9738,100.367,81.078)"/>
<path transform="matrix(1,0,0,-1,13.299004,64.024)" stroke-width=".79701" stroke-linecap="butt" stroke-miterlimit="10" stroke-linejoin="miter" fill="none" stroke="#000000" d="M106.86494 1.81422V-1.81422"/>
<path transform="matrix(1,0,0,-1,13.299004,64.024)" d="M100.23293-18.05037H113.496959V-4.205289H100.23293Z" fill="#ffffff"/>
<use data-text="3" xlink:href="#font_4_3" transform="matrix(6.9738,0,0,-6.9738,115.724,73.72)"/>
<use data-text="&#x03c0;" xlink:href="#font_3_1" transform="matrix(6.9738,0,0,-6.9738,119.695,73.72)"/>
<path transform="matrix(1,0,0,-1,14.228996,26.619004)" stroke-width=".3985" stroke-linecap="butt" stroke-miterlimit="10" stroke-linejoin="miter" fill="none" stroke="#000000" d="M101.495-48.533H110.375"/>
<use data-text="2" xlink:href="#font_4_2" transform="matrix(6.9738,0,0,-6.9738,118.17799,81.078)"/>
<path transform="matrix(1,0,0,-1,13.299004,64.024)" stroke-width=".79701" stroke-linecap="butt" stroke-miterlimit="10" stroke-linejoin="miter" fill="none" stroke="#000000" d="M124.6759 1.81422V-1.81422"/>
<path transform="matrix(1,0,0,-1,13.299004,64.024)" d="M118.04388-18.05037H131.30789V-4.205289H118.04388Z" fill="#ffffff"/>
<use data-text="7" xlink:href="#font_4_6" transform="matrix(6.9738,0,0,-6.9738,133.535,73.72)"/>
<use data-text="&#x03c0;" xlink:href="#font_3_1" transform="matrix(6.9738,0,0,-6.9738,137.50601,73.72)"/>
<path transform="matrix(1,0,0,-1,32.04,26.619004)" stroke-width=".3985" stroke-linecap="butt" stroke-miterlimit="10" stroke-linejoin="miter" fill="none" stroke="#000000" d="M101.495-48.533H110.375"/>
<use data-text="4" xlink:href="#font_4_4" transform="matrix(6.9738,0,0,-6.9738,135.989,81.078)"/>
<path transform="matrix(1,0,0,-1,13.299004,64.024)" stroke-width=".79701" stroke-linecap="butt" stroke-miterlimit="10" stroke-linejoin="miter" fill="none" stroke="#000000" d="M142.48685 1.81422V-1.81422"/>
<path transform="matrix(1,0,0,-1,13.299004,64.024)" d="M147.69104-6.11815H137.28266V-12.84856H147.69104ZM137.28266-12.84856" fill="#ffffff"/>
<use data-text="2" xlink:href="#font_5_1" transform="matrix(7.97008,0,0,-7.97008,151.37921,76.0752)"/>
<use data-text="&#x03c0;" xlink:href="#font_1_1" transform="matrix(7.97008,0,0,-7.97008,155.3648,76.0752)"/>
<path transform="matrix(1,0,0,-1,13.299004,64.024)" stroke-width=".79701" stroke-linecap="butt" stroke-miterlimit="10" stroke-linejoin="miter" fill="none" stroke="#000000" d="M160.29746 1.81422V-1.81422"/>
<path transform="matrix(1,0,0,-1,13.299004,64.024)" d="M153.66544-18.05037H166.92946V-4.205289H153.66544Z" fill="#ffffff"/>
<use data-text="9" xlink:href="#font_4_7" transform="matrix(6.9738,0,0,-6.9738,169.15702,73.72)"/>
<use data-text="&#x03c0;" xlink:href="#font_3_1" transform="matrix(6.9738,0,0,-6.9738,173.128,73.72)"/>
<path transform="matrix(1,0,0,-1,67.662,26.619004)" stroke-width=".3985" stroke-linecap="butt" stroke-miterlimit="10" stroke-linejoin="miter" fill="none" stroke="#000000" d="M101.495-48.533H110.375"/>
<use data-text="4" xlink:href="#font_4_4" transform="matrix(6.9738,0,0,-6.9738,171.611,81.078)"/>
<path transform="matrix(1,0,0,-1,13.299004,64.024)" stroke-width=".79701" stroke-linecap="butt" stroke-miterlimit="10" stroke-linejoin="miter" fill="none" stroke="#000000" d="M178.10839 1.81422V-1.81422"/>
<path transform="matrix(1,0,0,-1,13.299004,64.024)" d="M171.47637-18.05037H184.74039V-4.205289H171.47637Z" fill="#ffffff"/>
<use data-text="5" xlink:href="#font_4_5" transform="matrix(6.9738,0,0,-6.9738,186.96802,73.72)"/>
<use data-text="&#x03c0;" xlink:href="#font_3_1" transform="matrix(6.9738,0,0,-6.9738,190.93901,73.72)"/>
<path transform="matrix(1,0,0,-1,85.47301,26.619004)" stroke-width=".3985" stroke-linecap="butt" stroke-miterlimit="10" stroke-linejoin="miter" fill="none" stroke="#000000" d="M101.495-48.533H110.375"/>
<use data-text="2" xlink:href="#font_4_2" transform="matrix(6.9738,0,0,-6.9738,189.422,81.078)"/>
<path transform="matrix(1,0,0,-1,13.299004,64.024)" stroke-width=".79701" stroke-linecap="butt" stroke-miterlimit="10" stroke-linejoin="miter" fill="none" stroke="#000000" d="M195.91934 1.81422V-1.81422"/>
<path transform="matrix(1,0,0,-1,13.299004,64.024)" d="M187.30168-18.05037H204.53697V-4.205289H187.30168Z" fill="#ffffff"/>
<use data-text="1" xlink:href="#font_4_1" transform="matrix(6.9738,0,0,-6.9738,202.793,73.72)"/>
<use data-text="1" xlink:href="#font_4_1" transform="matrix(6.9738,0,0,-6.9738,206.76111,73.72)"/>
<use data-text="&#x03c0;" xlink:href="#font_3_1" transform="matrix(6.9738,0,0,-6.9738,210.73502,73.72)"/>
<path transform="matrix(1,0,0,-1,101.298007,26.619004)" stroke-width=".3985" stroke-linecap="butt" stroke-miterlimit="10" stroke-linejoin="miter" fill="none" stroke="#000000" d="M101.495-48.533H114.346"/>
<use data-text="4" xlink:href="#font_4_4" transform="matrix(6.9738,0,0,-6.9738,207.233,81.078)"/>
<path transform="matrix(1,0,0,-1,13.299004,64.024)" stroke-width=".79701" stroke-linecap="butt" stroke-miterlimit="10" stroke-linejoin="miter" fill="none" stroke="#000000" d="M213.73027 1.81422V-1.81422"/>
<path transform="matrix(1,0,0,-1,13.299004,64.024)" d="M218.93448-4.1256H208.5261V-10.856H218.93448ZM208.5261-10.856" fill="#ffffff"/>
<use data-text="3" xlink:href="#font_5_2" transform="matrix(7.97008,0,0,-7.97008,222.6222,74.083209)"/>
<use data-text="&#x03c0;" xlink:href="#font_1_1" transform="matrix(7.97008,0,0,-7.97008,226.6078,74.083209)"/>
<path transform="matrix(1,0,0,-1,13.299004,64.024)" stroke-width="1.19553" stroke-linecap="butt" stroke-miterlimit="10" stroke-linejoin="miter" fill="none" stroke="#0000ff" d="M0 22.67752C0 22.67752 2.56009 22.55316 3.54335 22.40068 4.52661 22.2482 6.10345 21.8796 7.08672 21.57852 8.06998 21.27744 9.6468 20.67313 10.63008 20.23073 11.61334 19.7883 13.19017 18.9628 14.17343 18.38985 15.15671 17.81688 16.73354 16.79071 17.7168 16.10118 18.70007 15.41165 20.27689 14.20952 21.26018 13.42012 22.24344 12.63072 23.82027 11.28163 24.80353 10.41173 25.7868 9.54182 27.36363 8.07968 28.3469 7.15038 29.33015 6.22108 30.90698 4.67996 31.89026 3.71394 32.87352 2.74791 34.45035 1.16696 35.43361 .18787 36.4169-.79118 37.99373-2.3742 38.977-3.34265 39.96027-4.31108 41.5371-5.85765 42.52037-6.79189 43.50363-7.72614 45.08046-9.19878 46.06372-10.07608 47.047-10.95338 48.62383-12.31607 49.60709-13.11491 50.59035-13.91377 52.16718-15.13268 53.15045-15.8337 54.13373-16.5347 55.71054-17.58122 56.69382-18.16733 57.6771-18.75345 59.25392-19.60118 60.23718-20.05804 61.22044-20.51492 62.79727-21.14369 63.78055-21.46017 64.76381-21.77666 66.34064-22.17068 67.3239-22.3391 68.30717-22.5075 69.884-22.65778 70.86726-22.67404 71.85052-22.69032 73.42737-22.59274 74.41063-22.4564 75.3939-22.32005 76.97073-21.97693 77.95401-21.69131 78.93729-21.4057 80.51411-20.82568 81.49738-20.39786 82.48064-19.97005 84.05746-19.16756 85.04074-18.60783 86.024-18.04811 87.60083-17.0418 88.58409-16.36383 89.56737-15.68587 91.1442-14.50117 92.12746-13.72153 93.11073-12.94188 94.68755-11.60698 95.67084-10.74461 96.6541-9.88225 98.23093-8.43011 99.21419-7.50609 100.19746-6.58208 101.77429-5.04808 102.75755-4.08488 103.74081-3.12167 105.31766-1.54285 106.30092-.564 107.28418 .41481 108.86101 1.99928 109.84427 2.96996 110.82756 3.94064 112.40439 5.49301 113.38766 6.432 114.37093 7.37102 115.94775 8.8533 116.93103 9.73766 117.91429 10.62201 119.49112 11.9978 120.47438 12.80592 121.45766 13.61404 123.03448 14.84982 124.01775 15.56206 125.001 16.27432 126.57784 17.34032 127.56111 17.9393 128.54438 18.53828 130.1212 19.40797 131.10446 19.87915 132.08776 20.35033 133.66457 21.0034 134.64785 21.33525 135.6311 21.66711 137.20795 22.08652 138.19121 22.27094 139.17447 22.45534 140.7513 22.63182 141.73456 22.66437 142.71784 22.69691 144.29467 22.62575 145.27793 22.50554 146.26119 22.38531 147.83803 22.06787 148.82129 21.79791 149.80457 21.52794 151.3814 20.97293 152.36467 20.5598 153.34795 20.14667 154.92478 19.36665 155.90804 18.8203 156.8913 18.27394 158.46813 17.2881 159.4514 16.62196 160.43466 15.95581 162.01149 14.78877 162.99475 14.0191 163.97803 13.24945 165.55486 11.92923 166.53812 11.07472 167.5214 10.22021 169.09822 8.77893 170.0815 7.86043 171.06476 6.94194 172.64159 5.41496 173.62485 4.45479 174.60813 3.49463 176.18495 1.91852 177.16822 .94016 178.15148-.03818 179.72832-1.6239 180.71158-2.5966 181.69484-3.56929 183.27167-5.1269 184.25495-6.07042 185.2382-7.01393 186.81504-8.50558 187.7983-9.3968 188.78157-10.28804 190.3584-11.67665 191.34169-12.4938 192.32495-13.31094 193.90178-14.56299 194.88504-15.28629 195.86832-16.00957 197.44515-17.09502 198.4284-17.70677 199.41167-18.31853 200.98851-19.21013 201.97177-19.69542 202.95503-20.1807 204.53186-20.85738 205.51512-21.20445 206.49842-21.55151 208.07523-21.99648 209.0585-22.19687 210.04177-22.39728 211.6186-22.59998 212.60187-22.6488 213.58513-22.69762 215.16196-22.65288 216.14524-22.54878 217.1285-22.44472 218.70532-22.15291 219.68859-21.89859 220.67185-21.64429 222.24869-21.1142 223.23195-20.71587 224.21523-20.3175 226.77533-19.02756 226.77533-19.02756"/>
<path transform="matrix(1,0,0,-1,13.299004,64.024)" stroke-width="1.19553" stroke-linecap="butt" stroke-miterlimit="10" stroke-linejoin="miter" fill="none" stroke="#ff0000" d="M0 0C0 0 2.56009 2.56119 3.54335 3.52846 4.52661 4.49573 6.10345 6.03963 7.08672 6.97148 8.06998 7.90334 9.6468 9.37097 10.63008 10.24458 11.61334 11.1182 13.19017 12.47377 14.17343 13.26787 15.15671 14.06198 16.73354 15.27267 17.7168 15.96797 18.70007 16.66324 20.27689 17.69963 21.26018 18.27911 22.24344 18.8586 23.82027 19.69495 24.80353 20.14456 25.7868 20.59418 27.36363 21.21089 28.3469 21.5197 29.33015 21.82849 30.90698 22.20982 31.89026 22.37024 32.87352 22.53062 34.45035 22.66772 35.43361 22.67578 36.4169 22.68384 37.99373 22.57274 38.977 22.42839 39.96027 22.28401 41.5371 21.92853 42.52037 21.63527 43.50363 21.34203 45.08046 20.74994 46.06372 20.3148 47.047 19.87968 48.62383 19.0655 49.60709 18.49919 50.59035 17.93286 52.16718 16.91675 53.15045 16.23303 54.13373 15.54929 55.71054 14.3559 56.69382 13.57135 57.6771 12.7868 59.25392 11.44469 60.23718 10.57852 61.22044 9.71236 62.79727 8.25525 63.78055 7.32858 64.76381 6.40193 66.34064 4.8644 67.3239 3.89975 68.30717 2.93512 69.884 1.35512 70.86726 .37611 71.85052-.60284 73.42737-2.18651 74.41063-3.15614 75.3939-4.12576 76.97073-5.67555 77.95401-6.6123 78.93729-7.54904 80.51411-9.0267 81.49738-9.90755 82.48064-10.7884 84.05746-12.15742 85.04074-12.96094 86.024-13.76443 87.60083-14.99208 88.58409-15.69876 89.56737-16.40543 91.1442-17.46167 92.12746-18.05418 93.11073-18.64668 94.68755-19.50519 95.67084-19.96913 96.6541-20.43304 98.23093-21.07372 99.21419-21.39789 100.19746-21.72206 101.77429-22.12914 102.75755-22.30554 103.74081-22.48192 105.31766-22.64488 106.30092-22.66922 107.28418-22.69356 108.86101-22.60924 109.84427-22.48097 110.82756-22.35268 112.40439-22.0224 113.38766-21.74461 114.37093-21.46683 115.94775-20.89926 116.93103-20.47884 117.91429-20.05841 119.49112-19.26741 120.47438-18.7144 121.45766-18.16142 123.03448-17.1653 124.01775-16.49323 125.001-15.82118 126.57784-14.64532 127.56111-13.87065 128.54438-13.09601 130.1212-11.7684 131.10446-10.91002 132.08776-10.05162 133.66457-8.60529 134.64785-7.68396 135.6311-6.76262 137.20795-5.23146 138.19121-4.26967 139.17447-3.30786 140.7513-1.73051 141.73456-.75189 142.71784 .22668 144.29467 1.81172 145.27793 2.78346 146.26119 3.75519 147.83803 5.31038 148.82129 6.25172 149.80457 7.19308 151.3814 8.68028 152.36467 9.5681 153.34795 10.45593 154.92478 11.83786 155.90804 12.65054 156.8913 13.46323 158.46813 14.70761 159.4514 15.42538 160.43466 16.14316 162.01149 17.21841 162.99475 17.82373 163.97803 18.42905 165.55486 19.3099 166.53812 19.78815 167.5214 20.26637 169.09822 20.93112 170.0815 21.27055 171.06476 21.60999 172.64159 22.04222 173.62485 22.23459 174.60813 22.42697 176.18495 22.61649 177.16822 22.6571 178.15148 22.69771 179.72832 22.63953 180.71158 22.52733 181.69484 22.41515 183.27167 22.1106 184.25495 21.84843 185.2382 21.58624 186.81504 21.0434 187.7983 20.63766 188.78157 20.23192 190.3584 19.46367 191.34169 18.92412 192.32495 18.38457 193.90178 17.40906 194.88504 16.74895 195.86832 16.08885 197.44515 14.9311 198.4284 14.16652 199.41167 13.40193 200.98851 12.08891 201.97177 11.2384 202.95503 10.38788 204.53186 8.95222 205.51512 8.03656 206.49842 7.12091 208.07523 5.59743 209.0585 4.63887 210.04177 3.68033 211.6186 2.10597 212.60187 1.12804 213.58513 .15012 215.16196-1.43579 216.14524-2.4094 217.1285-3.38301 218.70532-4.94342 219.68859-5.8891 220.67185-6.83478 222.24869-8.3306 223.23195-9.22519 224.21523-10.11977 226.77533-12.3367 226.77533-12.3367"/>
</svg>
