<svg xmlns="http://www.w3.org/2000/svg" xmlns:xlink="http://www.w3.org/1999/xlink" version="1.1" width="168" height="111" viewBox="0 0 168 111">
<defs>
<path id="font_1_2" d="M.33399964 .30233766C.33999635 .32835389 .36299134 .42037965 .43299867 .42037965 .43798829 .42037965 .46199037 .42037965 .48298646 .40734864 .45498658 .402359 .43499757 .37734986 .43499757 .35334779 .43499757 .33735658 .44599916 .31835938 .47299195 .31835938 .49499513 .31835938 .5269928 .3363495 .5269928 .37635804 .5269928 .42837525 .46798707 .4423828 .43399049 .4423828 .37599183 .4423828 .34098817 .38935853 .32899476 .36634828 .3039856 .43237306 .25 .4423828 .22099304 .4423828 .116989139 .4423828 .05999756 .3133545 .05999756 .28834535 .05999756 .27833558 .069992069 .27833558 .07199097 .27833558 .07998657 .27833558 .08299255 .28033448 .084991458 .28933717 .11898804 .39535523 .18499756 .42037965 .21899414 .42037965 .23799134 .42037965 .272995 .4113617 .272995 .35334779 .272995 .32235719 .2559967 .25532533 .21899414 .11528015 .20298767 .053268434 .16799927 .011245728 .12399292 .011245728 .117996219 .011245728 .09498596 .011245728 .07398987 .024276734 .09899902 .029266358 .12098694 .05027771 .12098694 .07827759 .12098694 .105270389 .09899902 .11328125 .083999637 .11328125 .053985597 .11328125 .0289917 .08728027 .0289917 .055267335 .0289917 .009246826 .07899475-.0107421879 .12298584-.0107421879 .18899536-.0107421879 .22499085 .059280397 .22799683 .0652771 .23999024 .028274537 .27598573-.0107421879 .33599855-.0107421879 .43899537-.0107421879 .49598695 .118270877 .49598695 .14328003 .49598695 .1532898 .4869995 .1532898 .48399354 .1532898 .47499085 .1532898 .47299195 .14929199 .47099305 .14228821 .43798829 .03527832 .36999513 .011245728 .33799745 .011245728 .29899598 .011245728 .2829895 .043273927 .2829895 .07727051 .2829895 .09927368 .2889862 .121276859 .2999878 .16529846L.33399964 .30233766Z"/>
<path id="font_1_3" d="M.48599244 .38136292C.48999024 .39537049 .48999024 .39736939 .48999024 .40437318 .48999024 .42237855 .47599793 .43138124 .46099855 .43138124 .45098878 .43138124 .43499757 .42536927 .42599488 .41036988 .42399598 .405365 .41600038 .37435914 .4119873 .35635377 .40499879 .33035279 .397995 .30334474 .3919983 .27633668L.34700013 .09628296C.34298707 .08126831 .2999878 .011245728 .23399353 .011245728 .18299866 .011245728 .17199707 .055267335 .17199707 .0922699 .17199707 .1382904 .18899536 .20030213 .22299195 .28833009 .23899842 .3293457 .24299622 .3403473 .24299622 .36035157 .24299622 .405365 .21099854 .4423828 .16099549 .4423828 .06599426 .4423828 .0289917 .29733277 .0289917 .28833009 .0289917 .27833558 .038986207 .27833558 .040985109 .27833558 .050994874 .27833558 .051986696 .28033448 .056991579 .29634095 .083999637 .3903656 .12399292 .42037965 .1579895 .42037965 .1659851 .42037965 .18299866 .42037965 .18299866 .3883667 .18299866 .36335755 .17298889 .3373413 .1659851 .31834413 .12599182 .21231079 .10798645 .1552887 .10798645 .10827637 .10798645 .019256592 .17098999-.0107421879 .22999573-.0107421879 .2689972-.0107421879 .30299378 .0062561037 .33099366 .03425598 .31799317-.017745972 .30599977-.06674194 .2659912-.11973572 .23999024-.15385437 .20199585-.18309021 .1559906-.18309021 .14199829-.18309021 .09700012-.18005371 .07998657-.14074707 .09599304-.14074707 .10899353-.14074707 .12298584-.1287384 .1329956-.11973572 .14299011-.10673523 .14299011-.08773804 .14299011-.056747438 .115997318-.052734376 .10598755-.052734376 .08299255-.052734376 .049987794-.068740848 .049987794-.11773682 .049987794-.16796875 .09399414-.20507813 .1559906-.20507813 .25898744-.20507813 .3619995-.11373901 .3899994-.00074768069L.48599244 .38136292Z"/>
<path id="font_2_1" d="M.1269989 .07699585 .23298645 .18003845C.3889923 .31811524 .44898988 .3721466 .44898988 .47216798 .44898988 .5860901 .35899354 .6660156 .23699951 .6660156 .12399292 .6660156 .049987794 .57411196 .049987794 .48516847 .049987794 .4291687 .099990848 .4291687 .102996829 .4291687 .11999512 .4291687 .15499878 .44117738 .15499878 .48217774 .15499878 .5081787 .13699341 .5341797 .101989749 .5341797 .09399414 .5341797 .09199524 .5341797 .08898926 .5331726 .11199951 .59806826 .1659851 .63500979 .22399903 .63500979 .31498719 .63500979 .35798646 .5541382 .35798646 .47216798 .35798646 .39215089 .30799867 .31311036 .25299073 .25108338L.06098938 .036987306C.049987794 .025985718 .049987794 .023986817 .049987794 0H.42099L.44898988 .17404175H.42399598C.4189911 .14402771 .4119873 .1000061 .4019928 .084991458 .394989 .07699585 .32899476 .07699585 .30699159 .07699585H.1269989Z"/>
<path id="font_2_2" d="M.2939911 .16503906V.07800293C.2939911 .041992189 .2919922 .0309906 .21798706 .0309906H.19699097V0C.23799134 .0029907227 .2899933 .0029907227 .33198548 .0029907227 .37399293 .0029907227 .4269867 .0029907227 .46798707 0V.0309906H.44699098C.37298585 .0309906 .37098695 .041992189 .37098695 .07800293V.16503906H.47099305V.19602967H.37098695V.65075686C.37098695 .67074587 .37098695 .6767578 .35499574 .6767578 .34599305 .6767578 .34298707 .6767578 .33499146 .66474917L.027999878 .19602967V.16503906H.2939911M.2999878 .19602967H.055999757L.2999878 .5688019V.19602967Z"/>
<path id="font_2_3" d="M.13198853 .327713V.35173036C.13198853 .6047821 .2559967 .64100649 .30699159 .64100649 .33099366 .64100649 .37298585 .634964 .394989 .6007538 .37998963 .6007538 .33999635 .6007538 .33999635 .5557556 .33999635 .524765 .3639984 .5097656 .38598634 .5097656 .4019928 .5097656 .43199159 .51875308 .43199159 .5577545 .43199159 .6178589 .3880005 .6660156 .30499269 .6660156 .1769867 .6660156 .041992189 .5367584 .041992189 .31570436 .041992189 .048553468 .1579895-.022460938 .25099183-.022460938 .3619995-.022460938 .45700074 .07156372 .45700074 .2036438 .45700074 .33070375 .36799623 .4267578 .25698854 .4267578 .18899536 .4267578 .1519928 .37573243 .13198853 .327713M.25099183 .0055389406C.18798828 .0055389406 .1579895 .06556702 .1519928 .080566409 .13398743 .127594 .13398743 .2076416 .13398743 .22564698 .13398743 .30369569 .1659851 .40374757 .2559967 .40374757 .27198792 .40374757 .31799317 .40374757 .34899903 .34172059 .36698915 .30470277 .36698915 .2536621 .36698915 .20463562 .36698915 .15661621 .36698915 .10658264 .34999085 .0705719 .31999208 .010528564 .27398683 .0055389406 .25099183 .0055389406Z"/>
<path id="font_3_1" d="M.6589966 .23046875C.6759949 .23046875 .69400027 .23046875 .69400027 .25045777 .69400027 .27046205 .6759949 .27046205 .6589966 .27046205H.117996219C.100997928 .27046205 .08299255 .27046205 .08299255 .25045777 .08299255 .23046875 .100997928 .23046875 .117996219 .23046875H.6589966Z"/>
<path id="font_1_1" d="M.2649994 .37265016H.37799073C.34498597 .22489929 .33599855 .18196106 .33599855 .11508179 .33599855 .100097659 .33599855 .073150638 .34399415 .03919983 .35398866-.0047454836 .36499024-.0107421879 .37998963-.0107421879 .3999939-.0107421879 .42099 .007247925 .42099 .02722168 .42099 .033218385 .42099 .035202028 .4149933 .049179079 .38598634 .12106323 .38598634 .18595886 .38598634 .21391297 .38598634 .26683045 .3929901 .32073976 .4039917 .37265016H.5179901C.5309906 .37265016 .5669861 .37265016 .5669861 .406662 .5669861 .43066407 .54599 .43066407 .5269928 .43066407H.19198609C.16999817 .43066407 .13198853 .43066407 .08799744 .38365174 .052993776 .34469605 .026992798 .29878236 .026992798 .29379273 .026992798 .29278565 .026992798 .28379823 .038986207 .28379823 .04699707 .28379823 .04899597 .28779603 .054992677 .29577638 .10398865 .37265016 .1619873 .37265016 .18199158 .37265016H.23899842C.20698548 .25186158 .15299988 .13105774 .11099243 .04020691 .102996829 .025222779 .102996829 .023223877 .102996829 .016235352 .102996829-.002746582 .11898804-.0107421879 .13198853-.0107421879 .1619873-.0107421879 .16999817 .017242432 .18199158 .05418396 .19599915 .100097659 .19599915 .10209656 .20899964 .15202332L.2649994 .37265016Z"/>
</defs>
<path transform="matrix(1.00002,0,0,-1.00002,45.897584,98.0397)" stroke-width=".3985" stroke-linecap="butt" stroke-miterlimit="10" stroke-linejoin="miter" fill="none" stroke="#00aeef" d="M-35.62102-11.33855H106.86308M-35.62102 0H106.86308M-35.62102 11.33855H106.86308M-35.62102 22.6771H106.86308M-35.62102 34.01564H106.86308M-35.62102 45.35419H106.86308M-35.62102 56.69275H106.86308M-35.62102 68.0313H106.86308M-35.62102 79.36586H106.86308M-35.62102-11.33855V79.36984M-17.8105-11.33855V79.36984M0-11.33855V79.36984M17.8105-11.33855V79.36984M35.62102-11.33855V79.36984M53.43153-11.33855V79.36984M71.24205-11.33855V79.36984M89.05257-11.33855V79.36984M106.8611-11.33855V79.36984M106.86308 79.36984"/>
<path transform="matrix(1.00002,0,0,-1.00002,45.897584,98.0397)" stroke-width=".79701" stroke-linecap="butt" stroke-dasharray="2.98883,2.98883" stroke-miterlimit="10" stroke-linejoin="miter" fill="none" stroke="#929292" d="M35.62102-11.33855V79.36984"/>
<path transform="matrix(1.00002,0,0,-1.00002,45.897584,98.0397)" stroke-width=".79701" stroke-linecap="butt" stroke-miterlimit="10" stroke-linejoin="miter" fill="none" stroke="#000000" d="M-35.62102 0H110.81705"/>
<path transform="matrix(1.00002,0,0,-1.00002,156.71686,98.0397)" d="M1.0361 0C-.25902 .25902-1.55415 .77707-3.1083 1.68365-1.55415 .51805-1.55415-.51805-3.1083-1.68365-1.55415-.77707-.25902-.25902 1.0361 0Z"/>
<path transform="matrix(1.00002,0,0,-1.00002,156.71686,98.0397)" stroke-width=".79701" stroke-linecap="butt" stroke-linejoin="round" fill="none" stroke="#000000" d="M1.0361 0C-.25902 .25902-1.55415 .77707-3.1083 1.68365-1.55415 .51805-1.55415-.51805-3.1083-1.68365-1.55415-.77707-.25902-.25902 1.0361 0Z"/>
<use data-text="x" xlink:href="#font_1_2" transform="matrix(9.962799,0,0,-9.962799,161.87091,100.184749)"/>
<path transform="matrix(1.00002,0,0,-1.00002,45.897584,98.0397)" stroke-width=".79701" stroke-linecap="butt" stroke-miterlimit="10" stroke-linejoin="miter" fill="none" stroke="#000000" d="M0-11.33855V84.73842"/>
<path transform="matrix(0,-1.00002,-1.00002,-0,45.897584,13.299591)" d="M1.0361 0C-.25902 .25902-1.55415 .77707-3.1083 1.68365-1.55415 .51805-1.55415-.51805-3.1083-1.68365-1.55415-.77707-.25902-.25902 1.0361 0Z"/>
<path transform="matrix(0,-1.00002,-1.00002,-0,45.897584,13.299591)" stroke-width=".79701" stroke-linecap="butt" stroke-linejoin="round" fill="none" stroke="#000000" d="M1.0361 0C-.25902 .25902-1.55415 .77707-3.1083 1.68365-1.55415 .51805-1.55415-.51805-3.1083-1.68365-1.55415-.77707-.25902-.25902 1.0361 0Z"/>
<use data-text="y" xlink:href="#font_1_3" transform="matrix(9.962799,0,0,-9.962799,43.276529,6.2088625)"/>
<path transform="matrix(1.00002,0,0,-1.00002,45.897584,98.0397)" stroke-width=".79701" stroke-linecap="butt" stroke-miterlimit="10" stroke-linejoin="miter" fill="none" stroke="#000000" d="M1.13382 22.6771H-1.13382"/>
<path transform="matrix(1.00002,0,0,-1.00002,45.897584,98.0397)" d="M-10.49881 18.4706H-3.52487V26.88358H-10.49881Z" fill="#ffffff"/>
<use data-text="2" xlink:href="#font_2_1" transform="matrix(9.962799,0,0,-9.962799,36.394395,78.57231)"/>
<path transform="matrix(1.00002,0,0,-1.00002,45.897584,98.0397)" stroke-width=".79701" stroke-linecap="butt" stroke-miterlimit="10" stroke-linejoin="miter" fill="none" stroke="#000000" d="M1.13382 45.35419H-1.13382"/>
<path transform="matrix(1.00002,0,0,-1.00002,45.897584,98.0397)" d="M-10.49881 41.14769H-3.52487V49.56067H-10.49881Z" fill="#ffffff"/>
<use data-text="4" xlink:href="#font_2_2" transform="matrix(9.962799,0,0,-9.962799,36.394395,55.89486)"/>
<path transform="matrix(1.00002,0,0,-1.00002,45.897584,98.0397)" stroke-width=".79701" stroke-linecap="butt" stroke-miterlimit="10" stroke-linejoin="miter" fill="none" stroke="#000000" d="M1.13382 68.0313H-1.13382"/>
<path transform="matrix(1.00002,0,0,-1.00002,45.897584,98.0397)" d="M-10.49881 63.8248H-3.52487V72.23778H-10.49881Z" fill="#ffffff"/>
<use data-text="6" xlink:href="#font_2_3" transform="matrix(9.962799,0,0,-9.962799,36.394395,33.217409)"/>
<path transform="matrix(1.00002,0,0,-1.00002,45.897584,98.0397)" stroke-width=".79701" stroke-linecap="butt" stroke-miterlimit="10" stroke-linejoin="miter" fill="none" stroke="#000000" d="M-35.62102 1.13391V-1.13374"/>
<path transform="matrix(1.00002,0,0,-1.00002,45.897584,98.0397)" d="M-46.00066-12.76802H-25.2414V-3.5247899H-46.00066Z" fill="#ffffff"/>
<use data-text="&#x2212;" xlink:href="#font_3_1" transform="matrix(9.962799,0,0,-9.962799,.89268496,108.98192)"/>
<use data-text="2" xlink:href="#font_2_1" transform="matrix(9.962799,0,0,-9.962799,8.640839,108.98192)"/>
<use data-text="&#x03c0;" xlink:href="#font_1_1" transform="matrix(9.962799,0,0,-9.962799,13.62294,108.98192)"/>
<path transform="matrix(1.00002,0,0,-1.00002,45.897584,98.0397)" stroke-width=".79701" stroke-linecap="butt" stroke-miterlimit="10" stroke-linejoin="miter" fill="none" stroke="#000000" d="M35.62102 1.13391V-1.13374"/>
<path transform="matrix(1.00002,0,0,-1.00002,45.897584,98.0397)" d="M29.11581-11.93779H42.12623V-3.5248099H29.11581Z" fill="#ffffff"/>
<use data-text="2" xlink:href="#font_2_1" transform="matrix(9.962799,0,0,-9.962799,76.010189,108.98192)"/>
<use data-text="&#x03c0;" xlink:href="#font_1_1" transform="matrix(9.962799,0,0,-9.962799,80.991298,108.98192)"/>
<path transform="matrix(1.00002,0,0,-1.00002,45.897584,98.0397)" stroke-width=".79701" stroke-linecap="butt" stroke-miterlimit="10" stroke-linejoin="miter" fill="none" stroke="#000000" d="M71.24205 1.13391V-1.13374"/>
<path transform="matrix(1.00002,0,0,-1.00002,45.897584,98.0397)" d="M64.73685-11.93779H77.74727V-3.5248099H64.73685Z" fill="#ffffff"/>
<use data-text="4" xlink:href="#font_2_2" transform="matrix(9.962799,0,0,-9.962799,111.631908,108.98192)"/>
<use data-text="&#x03c0;" xlink:href="#font_1_1" transform="matrix(9.962799,0,0,-9.962799,116.613018,108.98192)"/>
<path transform="matrix(1.00002,0,0,-1.00002,45.897584,98.0397)" stroke-width=".79701" stroke-linecap="butt" stroke-miterlimit="10" stroke-linejoin="miter" fill="none" stroke="#000000" d="M106.86308 1.13391V-1.13374"/>
<path transform="matrix(1.00002,0,0,-1.00002,45.897584,98.0397)" d="M100.35788-11.93779H113.3683V-3.5248099H100.35788Z" fill="#ffffff"/>
<use data-text="6" xlink:href="#font_2_3" transform="matrix(9.962799,0,0,-9.962799,147.2536,108.98192)"/>
<use data-text="&#x03c0;" xlink:href="#font_1_1" transform="matrix(9.962799,0,0,-9.962799,152.23471,108.98192)"/>
<path transform="matrix(1.00002,0,0,-1.00002,45.897584,98.0397)" stroke-width=".79701" stroke-linecap="butt" stroke-miterlimit="10" stroke-linejoin="miter" fill="none" stroke="#ff0000" d="M-29.87955 77.95175C-29.38675 74.18501-29.38675 74.18501-29.12604 72.51715-28.86533 70.8493-28.4472 68.63043-28.1865 67.35342-27.92578 66.07643-27.50768 64.32614-27.24695 63.3134-26.98624 62.30067-26.56813 60.88019-26.30742 60.05437-26.04668 59.22855-25.62859 58.05-25.36787 57.36143-25.10713 56.67285-24.68906 55.67601-24.42833 55.0915-24.16759 54.507-23.74942 53.65271-23.4887 53.14876-23.22797 52.64479-22.80986 51.90016-22.54915 51.45929-22.28842 51.01839-21.87032 50.36136-21.6096 49.97119-21.34888 49.58102-20.93077 48.99591-20.67004 48.64713-20.40933 48.29837-19.99123 47.77214-19.7305 47.4575-19.46979 47.14287-19.0517 46.66553-18.79095 46.37946-18.53024 46.0934-18.11215 45.65791-17.85141 45.39572-17.5907 45.1335-17.17259 44.7318-16.91188 44.48964-16.65115 44.24748-16.23305 43.87526-15.97234 43.65036-15.71162 43.42546-15.2935 43.07887-15.03279 42.86868-14.77206 42.6585-14.35396 42.33298-14.09325 42.13547-13.83252 41.93794-13.41441 41.63173-13.15369 41.44513-12.89297 41.25854-12.47488 40.96783-12.21414 40.79062-11.95341 40.61343-11.53525 40.33687-11.27452 40.16797-11.01378 39.99905-10.59569 39.73515-10.33498 39.57332-10.07425 39.41148-9.65616 39.15723-9.39542 39.00153-9.1347 38.8458-8.71661 38.60141-8.45589 38.45097-8.19516 38.30057-7.77705 38.06335-7.51634 37.91742-7.25563 37.77147-6.83751 37.54114-6.5768 37.39906-6.31609 37.25699-5.89796 37.03223-5.63725 36.89336-5.37654 36.75449-4.95842 36.53436-4.69771 36.3982-4.437 36.26202-4.01888 36.0459-3.75816 35.91185-3.49744 35.77782-3.07933 35.56454-2.81862 35.4321-2.55789 35.29962-2.13979 35.08852-1.87907 34.95717-1.61835 34.8258-1.20026 34.616-.93953 34.48537-.6788 34.35474-.26071 34.14601 0 34.01564 .26071 33.88527 .6788 33.67635 .93953 33.54573 1.20026 33.41513 1.61835 33.20558 1.87907 33.07426 2.13979 32.94296 2.55789 32.73183 2.81862 32.59937 3.07933 32.46687 3.49744 32.25351 3.75816 32.11942 4.01888 31.98532 4.437 31.76906 4.69771 31.6329 4.95842 31.49675 5.37654 31.27692 5.63725 31.13808 5.89796 30.99924 6.31609 30.77432 6.5768 30.6322 6.83751 30.4901 7.25563 30.25977 7.51634 30.11385 7.77705 29.96796 8.19516 29.73105 8.45589 29.58063 8.71661 29.43022 9.1347 29.18553 9.39542 29.02975 9.65616 28.874 10.07425 28.61978 10.33498 28.45796 10.59569 28.29611 11.0138 28.03221 11.27452 27.8633 11.53523 27.69441 11.95335 27.41785 12.21407 27.24065 12.47478 27.06343 12.89288 26.77274 13.15361 26.58612 13.41434 26.39954 13.83252 26.09328 14.09325 25.8958 14.35397 25.69835 14.77206 25.37315 15.03279 25.16293 15.2935 24.9527 15.71162 24.60553 15.97234 24.38055 16.23305 24.1556 16.65115 23.78357 16.91188 23.54146 17.17259 23.29933 17.5907 22.89783 17.85141 22.63556 18.11215 22.3733 18.53024 21.93745 18.79095 21.65129 19.0517 21.36513 19.46979 20.88765 19.7305 20.57307 19.99123 20.25851 20.40933 19.7328 20.67004 19.38412 20.93077 19.03545 21.34888 18.45013 21.6096 18.06007 21.87032 17.67001 22.28842 17.01369 22.54915 16.57286 22.80986 16.13203 23.22797 15.38695 23.4887 14.88287 23.7494 14.37878 24.16751 13.5243 24.42824 12.93976 24.68895 12.35522 25.10704 11.35843 25.36778 10.66983 25.62851 9.98126 26.04668 8.80273 26.30742 7.9769 26.56815 7.15108 26.98624 5.73047 27.24695 4.71786 27.50768 3.70525 27.92578 1.95572 28.1865 .67871 28.4472-.59825 28.86533-2.81787 29.12604-4.48586 29.38675-6.15382 30.06558-11.34285 29.87953-9.92046"/>
<path transform="matrix(-.12968259,-.99151989,-.99151989,.12968259,16.017455,20.086403)" d="M1.0361 0C-.25902 .25902-1.55415 .77707-3.1083 1.68365-1.55415 .51805-1.55415-.51805-3.1083-1.68365-1.55415-.77707-.25902-.25902 1.0361 0Z" fill="#ff0000"/>
<path transform="matrix(-.12968259,-.99151989,-.99151989,.12968259,16.017455,20.086403)" stroke-width=".79701" stroke-linecap="butt" stroke-linejoin="round" fill="none" stroke="#ff0000" d="M1.0361 0C-.25902 .25902-1.55415 .77707-3.1083 1.68365-1.55415 .51805-1.55415-.51805-3.1083-1.68365-1.55415-.77707-.25902-.25902 1.0361 0Z"/>
<path transform="matrix(.1297026,.99151989,.99151989,-.1297026,75.7777,107.96034)" d="M1.0361 0C-.25902 .25902-1.55415 .77707-3.1083 1.68365-1.55415 .51805-1.55415-.51805-3.1083-1.68365-1.55415-.77707-.25902-.25902 1.0361 0Z" fill="#ff0000"/>
<path transform="matrix(.1297026,.99151989,.99151989,-.1297026,75.7777,107.96034)" stroke-width=".79701" stroke-linecap="butt" stroke-linejoin="round" fill="none" stroke="#ff0000" d="M1.0361 0C-.25902 .25902-1.55415 .77707-3.1083 1.68365-1.55415 .51805-1.55415-.51805-3.1083-1.68365-1.55415-.77707-.25902-.25902 1.0361 0Z"/>
<path transform="matrix(1.00002,0,0,-1.00002,45.897584,98.0397)" stroke-width=".79701" stroke-linecap="butt" stroke-miterlimit="10" stroke-linejoin="miter" fill="none" stroke="#ff0000" d="M41.36249 77.95175C41.85529 74.18501 41.85529 74.18501 42.116 72.51715 42.37672 70.8493 42.79483 68.63043 43.05554 67.35342 43.31627 66.07643 43.73436 64.32614 43.99509 63.3134 44.25581 62.30067 44.6739 60.88019 44.93463 60.05437 45.19536 59.22855 45.61345 58.05 45.87418 57.36143 46.1349 56.67285 46.553 55.67601 46.81372 55.0915 47.07445 54.507 47.49261 53.65271 47.75336 53.14876 48.01408 52.64479 48.43217 51.90016 48.6929 51.45929 48.95361 51.01839 49.37172 50.36136 49.63245 49.97119 49.89316 49.58102 50.31128 48.99591 50.57199 48.64713 50.8327 48.29837 51.25082 47.77214 51.51154 47.4575 51.77225 47.14287 52.19035 46.66553 52.45108 46.37946 52.71179 46.0934 53.1299 45.65791 53.39063 45.39572 53.65134 45.1335 54.06944 44.7318 54.33015 44.48964 54.5909 44.24748 55.00899 43.87526 55.2697 43.65036 55.53043 43.42546 55.94853 43.07887 56.20924 42.86868 56.46997 42.6585 56.88808 42.33298 57.1488 42.13547 57.40952 41.93794 57.82762 41.63173 58.08835 41.44513 58.34906 41.25854 58.76717 40.96783 59.0279 40.79062 59.28862 40.61343 59.7068 40.33687 59.96753 40.16797 60.22826 39.99905 60.64633 39.73515 60.90707 39.57332 61.16779 39.41148 61.58588 39.15723 61.84662 39.00153 62.10733 38.8458 62.52544 38.60141 62.78615 38.45097 63.04688 38.30057 63.46498 38.06335 63.7257 37.91742 63.9864 37.77147 64.40453 37.54114 64.66524 37.39906 64.92596 37.25699 65.34407 37.03223 65.60478 36.89336 65.86551 36.75449 66.28362 36.53436 66.54433 36.3982 66.80505 36.26202 67.22316 36.0459 67.48389 35.91185 67.7446 35.77782 68.1627 35.56454 68.42343 35.4321 68.68414 35.29962 69.10225 35.08852 69.36298 34.95717 69.62369 34.8258 70.04178 34.616 70.30252 34.48537 70.56323 34.35474 70.98134 34.14601 71.24205 34.01564 71.50278 33.88527 71.92088 33.67635 72.1816 33.54573 72.44232 33.41513 72.86043 33.20558 73.12114 33.07426 73.38185 32.94296 73.79997 32.73183 74.06068 32.59937 74.3214 32.46687 74.73952 32.25351 75.00023 32.11942 75.26096 31.98532 75.67906 31.76906 75.93977 31.6329 76.2005 31.49675 76.6186 31.27692 76.87933 31.13808 77.14005 30.99924 77.55815 30.77432 77.81888 30.6322 78.07959 30.4901 78.4977 30.25977 78.75842 30.11385 79.01913 29.96796 79.43724 29.73105 79.69797 29.58063 79.95868 29.43022 80.37679 29.18553 80.6375 29.02975 80.89822 28.874 81.31633 28.61978 81.57704 28.45796 81.83775 28.29611 82.25587 28.03221 82.51659 27.8633 82.7773 27.69441 83.19542 27.41785 83.45613 27.24065 83.71686 27.06343 84.13495 26.77274 84.39568 26.58612 84.65642 26.39954 85.07458 26.09328 85.33531 25.8958 85.59604 25.69835 86.01414 25.37315 86.27486 25.16293 86.53558 24.9527 86.95369 24.60553 87.2144 24.38055 87.47513 24.1556 87.89322 23.78357 88.15395 23.54146 88.41467 23.29933 88.83276 22.89783 89.09349 22.63556 89.35422 22.3733 89.77231 21.93745 90.03304 21.65129 90.29375 21.36513 90.71185 20.88765 90.97258 20.57307 91.23329 20.25851 91.65141 19.7328 91.91212 19.38412 92.17284 19.03545 92.59096 18.45013 92.85167 18.06007 93.11238 17.67001 93.5305 17.01369 93.79121 16.57286 94.05193 16.13203 94.47005 15.38695 94.73076 14.88287 94.99149 14.37878 95.40959 13.5243 95.6703 12.93976 95.93103 12.35522 96.3491 11.35843 96.60986 10.66983 96.87059 9.98126 97.28874 8.80273 97.54947 7.9769 97.81021 7.15108 98.2283 5.73047 98.48901 4.71786 98.74976 3.70525 99.16785 1.95572 99.42856 .67871 99.68929-.59825 100.10739-2.81787 100.36812-4.48586 100.62883-6.15382 101.30766-11.34285 101.12161-9.92046"/>
<path transform="matrix(-.12968259,-.99151989,-.99151989,.12968259,87.26091,20.086403)" d="M1.0361 0C-.25902 .25902-1.55415 .77707-3.1083 1.68365-1.55415 .51805-1.55415-.51805-3.1083-1.68365-1.55415-.77707-.25902-.25902 1.0361 0Z" fill="#ff0000"/>
<path transform="matrix(-.12968259,-.99151989,-.99151989,.12968259,87.26091,20.086403)" stroke-width=".79701" stroke-linecap="butt" stroke-linejoin="round" fill="none" stroke="#ff0000" d="M1.0361 0C-.25902 .25902-1.55415 .77707-3.1083 1.68365-1.55415 .51805-1.55415-.51805-3.1083-1.68365-1.55415-.77707-.25902-.25902 1.0361 0Z"/>
<path transform="matrix(.1297026,.99151989,.99151989,-.1297026,147.02121,107.96034)" d="M1.0361 0C-.25902 .25902-1.55415 .77707-3.1083 1.68365-1.55415 .51805-1.55415-.51805-3.1083-1.68365-1.55415-.77707-.25902-.25902 1.0361 0Z" fill="#ff0000"/>
<path transform="matrix(.1297026,.99151989,.99151989,-.1297026,147.02121,107.96034)" stroke-width=".79701" stroke-linecap="butt" stroke-linejoin="round" fill="none" stroke="#ff0000" d="M1.0361 0C-.25902 .25902-1.55415 .77707-3.1083 1.68365-1.55415 .51805-1.55415-.51805-3.1083-1.68365-1.55415-.77707-.25902-.25902 1.0361 0Z"/>
</svg>
