<svg xmlns="http://www.w3.org/2000/svg" xmlns:xlink="http://www.w3.org/1999/xlink" version="1.1" width="159" height="76" viewBox="0 0 159 76">
<defs>
<path id="font_1_2" d="M.33399964 .30233766C.33999635 .32835389 .36299134 .42037965 .43299867 .42037965 .43798829 .42037965 .46199037 .42037965 .48298646 .40734864 .45498658 .402359 .43499757 .37734986 .43499757 .35334779 .43499757 .33735658 .44599916 .31835938 .47299195 .31835938 .49499513 .31835938 .5269928 .3363495 .5269928 .37635804 .5269928 .42837525 .46798707 .4423828 .43399049 .4423828 .37599183 .4423828 .34098817 .38935853 .32899476 .36634828 .3039856 .43237306 .25 .4423828 .22099304 .4423828 .116989139 .4423828 .05999756 .3133545 .05999756 .28834535 .05999756 .27833558 .069992069 .27833558 .07199097 .27833558 .07998657 .27833558 .08299255 .28033448 .084991458 .28933717 .11898804 .39535523 .18499756 .42037965 .21899414 .42037965 .23799134 .42037965 .272995 .4113617 .272995 .35334779 .272995 .32235719 .2559967 .25532533 .21899414 .11528015 .20298767 .053268434 .16799927 .011245728 .12399292 .011245728 .117996219 .011245728 .09498596 .011245728 .07398987 .024276734 .09899902 .029266358 .12098694 .05027771 .12098694 .07827759 .12098694 .105270389 .09899902 .11328125 .083999637 .11328125 .053985597 .11328125 .0289917 .08728027 .0289917 .055267335 .0289917 .009246826 .07899475-.0107421879 .12298584-.0107421879 .18899536-.0107421879 .22499085 .059280397 .22799683 .0652771 .23999024 .028274537 .27598573-.0107421879 .33599855-.0107421879 .43899537-.0107421879 .49598695 .118270877 .49598695 .14328003 .49598695 .1532898 .4869995 .1532898 .48399354 .1532898 .47499085 .1532898 .47299195 .14929199 .47099305 .14228821 .43798829 .03527832 .36999513 .011245728 .33799745 .011245728 .29899598 .011245728 .2829895 .043273927 .2829895 .07727051 .2829895 .09927368 .2889862 .121276859 .2999878 .16529846L.33399964 .30233766Z"/>
<path id="font_1_3" d="M.48599244 .38136292C.48999024 .39537049 .48999024 .39736939 .48999024 .40437318 .48999024 .42237855 .47599793 .43138124 .46099855 .43138124 .45098878 .43138124 .43499757 .42536927 .42599488 .41036988 .42399598 .405365 .41600038 .37435914 .4119873 .35635377 .40499879 .33035279 .397995 .30334474 .3919983 .27633668L.34700013 .09628296C.34298707 .08126831 .2999878 .011245728 .23399353 .011245728 .18299866 .011245728 .17199707 .055267335 .17199707 .0922699 .17199707 .1382904 .18899536 .20030213 .22299195 .28833009 .23899842 .3293457 .24299622 .3403473 .24299622 .36035157 .24299622 .405365 .21099854 .4423828 .16099549 .4423828 .06599426 .4423828 .0289917 .29733277 .0289917 .28833009 .0289917 .27833558 .038986207 .27833558 .040985109 .27833558 .050994874 .27833558 .051986696 .28033448 .056991579 .29634095 .083999637 .3903656 .12399292 .42037965 .1579895 .42037965 .1659851 .42037965 .18299866 .42037965 .18299866 .3883667 .18299866 .36335755 .17298889 .3373413 .1659851 .31834413 .12599182 .21231079 .10798645 .1552887 .10798645 .10827637 .10798645 .019256592 .17098999-.0107421879 .22999573-.0107421879 .2689972-.0107421879 .30299378 .0062561037 .33099366 .03425598 .31799317-.017745972 .30599977-.06674194 .2659912-.11973572 .23999024-.15385437 .20199585-.18309021 .1559906-.18309021 .14199829-.18309021 .09700012-.18005371 .07998657-.14074707 .09599304-.14074707 .10899353-.14074707 .12298584-.1287384 .1329956-.11973572 .14299011-.10673523 .14299011-.08773804 .14299011-.056747438 .115997318-.052734376 .10598755-.052734376 .08299255-.052734376 .049987794-.068740848 .049987794-.11773682 .049987794-.16796875 .09399414-.20507813 .1559906-.20507813 .25898744-.20507813 .3619995-.11373901 .3899994-.00074768069L.48599244 .38136292Z"/>
<path id="font_2_64" d="M.27598573 .18710327V.24511719H.010986328V.18710327H.27598573Z"/>
<path id="font_2_57" d="M.47099305 .16503906V.19602967H.37098695V.6507721C.37098695 .6707611 .37098695 .6767578 .35499574 .6767578 .34599305 .6767578 .34298707 .6767578 .33499146 .6647644L.027999878 .19602967V.16503906H.2939911V.07800293C.2939911 .041992189 .2919922 .0309906 .21798706 .0309906H.19699097V0C.23799134 .0029907227 .2899933 .0029907227 .33198548 .0029907227 .37399293 .0029907227 .4269867 .0029907227 .46798707 0V.0309906H.44699098C.37298585 .0309906 .37098695 .041992189 .37098695 .07800293V.16503906H.47099305M.2999878 .19602967H.055999757L.2999878 .56881716V.19602967Z"/>
<path id="font_2_107" d="M.44898988 .17396546H.42399598C.4189911 .14398194 .4119873 .099990848 .4019928 .084991458 .394989 .07699585 .32899476 .07699585 .30699159 .07699585H.1269989L.23298645 .17996216C.3889923 .31803895 .44898988 .37210084 .44898988 .47216798 .44898988 .5860901 .35899354 .6660156 .23699951 .6660156 .12399292 .6660156 .049987794 .57411196 .049987794 .48516847 .049987794 .4291687 .099990848 .4291687 .102996829 .4291687 .11999512 .4291687 .15499878 .44117738 .15499878 .48217774 .15499878 .5081787 .13699341 .5341797 .101989749 .5341797 .09399414 .5341797 .09199524 .5341797 .08898926 .5331726 .11199951 .59806826 .1659851 .63500979 .22399903 .63500979 .31498719 .63500979 .35798646 .5541382 .35798646 .47216798 .35798646 .39196778 .30799867 .31297303 .25299073 .25097657L.06098938 .036987306C.049987794 .025985718 .049987794 .023986817 .049987794 0H.42099L.44898988 .17396546Z"/>
<path id="font_1_1" d="M.2649994 .37265016H.37799073C.34498597 .22489929 .33599855 .18196106 .33599855 .11508179 .33599855 .100097659 .33599855 .073150638 .34399415 .03919983 .35398866-.0047454836 .36499024-.0107421879 .37998963-.0107421879 .3999939-.0107421879 .42099 .007247925 .42099 .02722168 .42099 .033218385 .42099 .035202028 .4149933 .049179079 .38598634 .12106323 .38598634 .18595886 .38598634 .21391297 .38598634 .26683045 .3929901 .32073976 .4039917 .37265016H.5179901C.5309906 .37265016 .5669861 .37265016 .5669861 .406662 .5669861 .43066407 .54599 .43066407 .5269928 .43066407H.19198609C.16999817 .43066407 .13198853 .43066407 .08799744 .38365174 .052993776 .34469605 .026992798 .29878236 .026992798 .29379273 .026992798 .29278565 .026992798 .28379823 .038986207 .28379823 .04699707 .28379823 .04899597 .28779603 .054992677 .29577638 .10398865 .37265016 .1619873 .37265016 .18199158 .37265016H.23899842C.20698548 .25186158 .15299988 .13105774 .11099243 .04020691 .102996829 .025222779 .102996829 .023223877 .102996829 .016235352 .102996829-.002746582 .11898804-.0107421879 .13198853-.0107421879 .1619873-.0107421879 .16999817 .017242432 .18199158 .05418396 .19599915 .100097659 .19599915 .10209656 .20899964 .15202332L.2649994 .37265016Z"/>
<path id="font_3_1" d="M.1269989 .07699585 .23298645 .18003845C.3889923 .31811524 .44898988 .3721466 .44898988 .47216798 .44898988 .5860901 .35899354 .6660156 .23699951 .6660156 .12399292 .6660156 .049987794 .57411196 .049987794 .48516847 .049987794 .4291687 .099990848 .4291687 .102996829 .4291687 .11999512 .4291687 .15499878 .44117738 .15499878 .48217774 .15499878 .5081787 .13699341 .5341797 .101989749 .5341797 .09399414 .5341797 .09199524 .5341797 .08898926 .5331726 .11199951 .59806826 .1659851 .63500979 .22399903 .63500979 .31498719 .63500979 .35798646 .5541382 .35798646 .47216798 .35798646 .39215089 .30799867 .31311036 .25299073 .25108338L.06098938 .036987306C.049987794 .025985718 .049987794 .023986817 .049987794 0H.42099L.44898988 .17404175H.42399598C.4189911 .14402771 .4119873 .1000061 .4019928 .084991458 .394989 .07699585 .32899476 .07699585 .30699159 .07699585H.1269989Z"/>
<path id="font_3_2" d="M.2899933 .35191346C.37199403 .37893678 .42999269 .4490509 .42999269 .52809146 .42999269 .6100464 .34199525 .6660156 .24598694 .6660156 .14498902 .6660156 .068984989 .60606387 .068984989 .53009036 .068984989 .49710084 .09098816 .47808839 .11999512 .47808839 .15098572 .47808839 .17098999 .50009158 .17098999 .5290985 .17098999 .57910159 .12399292 .57910159 .10899353 .57910159 .13999939 .62802127 .20599365 .64100649 .24198914 .64100649 .2829895 .64100649 .33799745 .6190338 .33799745 .5290985 .33799745 .51708987 .33599855 .45906068 .30999757 .4149933 .27999879 .36691285 .24598694 .36390687 .22099304 .36291505 .21299744 .36190797 .18899536 .35990907 .18199158 .35990907 .17399597 .35890199 .16699219 .35791017 .16699219 .3479004 .16699219 .33691407 .17399597 .33691407 .19099427 .33691407H.23498535C.31698609 .33691407 .35398866 .2686615 .35398866 .17037964 .35398866 .034469606 .2849884 .0055389406 .24099732 .0055389406 .19799805 .0055389406 .12298584 .022491456 .08799744 .08137512 .12298584 .07637024 .1539917 .09837341 .1539917 .1363678 .1539917 .17237854 .1269989 .19238281 .09799194 .19238281 .07398987 .19238281 .041992189 .17837525 .041992189 .1343689 .041992189 .043441774 .1349945-.022460938 .24398804-.022460938 .3659973-.022460938 .45700074 .06838989 .45700074 .17037964 .45700074 .252594 .3939972 .33088685 .2899933 .35191346Z"/>
<path id="font_3_3" d="M.2939911 .16503906V.07800293C.2939911 .041992189 .2919922 .0309906 .21798706 .0309906H.19699097V0C.23799134 .0029907227 .2899933 .0029907227 .33198548 .0029907227 .37399293 .0029907227 .4269867 .0029907227 .46798707 0V.0309906H.44699098C.37298585 .0309906 .37098695 .041992189 .37098695 .07800293V.16503906H.47099305V.19602967H.37098695V.65075686C.37098695 .67074587 .37098695 .6767578 .35499574 .6767578 .34599305 .6767578 .34298707 .6767578 .33499146 .66474917L.027999878 .19602967V.16503906H.2939911M.2999878 .19602967H.055999757L.2999878 .5688019V.19602967Z"/>
<path id="font_3_4" d="M.44898988 .20022583C.44898988 .3193512 .36698915 .41944886 .25898744 .41944886 .21099854 .41944886 .16799927 .40345765 .13198853 .36842347V.5637665C.1519928 .5577698 .18499756 .55078127 .21699524 .55078127 .33999635 .55078127 .4099884 .6417694 .4099884 .6547699 .4099884 .6607666 .40699769 .6657715 .3999939 .6657715 .39898683 .6657715 .39698792 .6657715 .3919983 .66278079 .37199403 .6537781 .32299806 .6337738 .2559967 .6337738 .21598816 .6337738 .16999817 .6407776 .12298584 .6617737 .114990238 .66477969 .11299133 .66477969 .11099243 .66477969 .100997928 .66477969 .100997928 .6567688 .100997928 .6407776V.34439088C.100997928 .32637025 .100997928 .31835938 .114990238 .31835938 .12199402 .31835938 .12399292 .32136537 .12799073 .32736207 .13899231 .3433838 .17599488 .39746095 .25698854 .39746095 .30899049 .39746095 .33399964 .35139466 .34199525 .33337403 .35798646 .29632569 .3600006 .25727845 .3600006 .20722962 .3600006 .17222595 .3600006 .11222839 .33599855 .07035828 .31199647 .031463624 .2749939 .0055389406 .22898865 .0055389406 .1559906 .0055389406 .09899902 .058380128 .08198547 .11723328 .084991458 .1162262 .08799744 .115234378 .09899902 .115234378 .13198853 .115234378 .14898682 .14022827 .14898682 .16423035 .14898682 .18823242 .13198853 .21322632 .09899902 .21322632 .084991458 .21322632 .049987794 .20622254 .049987794 .16023255 .049987794 .07434082 .11898804-.022460938 .23098755-.022460938 .34700013-.022460938 .44898988 .073349 .44898988 .20022583Z"/>
<path id="font_3_5" d="M.13198853 .327713V.35173036C.13198853 .6047821 .2559967 .64100649 .30699159 .64100649 .33099366 .64100649 .37298585 .634964 .394989 .6007538 .37998963 .6007538 .33999635 .6007538 .33999635 .5557556 .33999635 .524765 .3639984 .5097656 .38598634 .5097656 .4019928 .5097656 .43199159 .51875308 .43199159 .5577545 .43199159 .6178589 .3880005 .6660156 .30499269 .6660156 .1769867 .6660156 .041992189 .5367584 .041992189 .31570436 .041992189 .048553468 .1579895-.022460938 .25099183-.022460938 .3619995-.022460938 .45700074 .07156372 .45700074 .2036438 .45700074 .33070375 .36799623 .4267578 .25698854 .4267578 .18899536 .4267578 .1519928 .37573243 .13198853 .327713M.25099183 .0055389406C.18798828 .0055389406 .1579895 .06556702 .1519928 .080566409 .13398743 .127594 .13398743 .2076416 .13398743 .22564698 .13398743 .30369569 .1659851 .40374757 .2559967 .40374757 .27198792 .40374757 .31799317 .40374757 .34899903 .34172059 .36698915 .30470277 .36698915 .2536621 .36698915 .20463562 .36698915 .15661621 .36698915 .10658264 .34999085 .0705719 .31999208 .010528564 .27398683 .0055389406 .25099183 .0055389406Z"/>
<path id="font_3_6" d="M.68699648 .32714845C.70199587 .32714845 .72099307 .32714845 .72099307 .34713746 .72099307 .36714173 .70199587 .36714173 .6879883 .36714173H.08898926C.07499695 .36714173 .055999757 .36714173 .055999757 .34713746 .055999757 .32714845 .07499695 .32714845 .08999634 .32714845H.68699648M.6879883 .13284302C.70199587 .13284302 .72099307 .13284302 .72099307 .15284729 .72099307 .17285156 .70199587 .17285156 .68699648 .17285156H.08999634C.07499695 .17285156 .055999757 .17285156 .055999757 .15284729 .055999757 .13284302 .07499695 .13284302 .08898926 .13284302H.6879883Z"/>
<path id="font_3_9" d="M.20799256 .19424439C.22999573 .19024658 .31199647 .17424011 .31199647 .102249149 .31199647 .051254274 .2769928 .011245728 .19898987 .011245728 .114990238 .011245728 .07899475 .06825256 .05999756 .15324402 .056991579 .1662445 .055999757 .17024231 .04598999 .17024231 .032989503 .17024231 .032989503 .16323853 .032989503 .14524842V.013244629C.032989503-.003753662 .032989503-.0107421879 .04399109-.0107421879 .04899597-.0107421879 .049987794-.009750366 .068984989 .009246826 .070999149 .011245728 .070999149 .013244629 .08898926 .03224182 .1329956-.009750366 .17799378-.0107421879 .19898987-.0107421879 .31399537-.0107421879 .3600006 .056243898 .3600006 .12825012 .3600006 .1812439 .32998658 .21124268 .31799317 .22323609 .2849884 .25523377 .24598694 .26324464 .20399475 .27124024 .147995 .28224183 .08099365 .2952423 .08099365 .35324098 .08099365 .38822938 .10699463 .42922975 .19299317 .42922975 .30299378 .42922975 .30799867 .3392334 .30999757 .3082428 .31098939 .2992401 .31999208 .2992401 .32199098 .2992401 .33499146 .2992401 .33499146 .304245 .33499146 .3232422V.4242401C.33499146 .4412384 .33499146 .4482422 .32398988 .4482422 .31900025 .4482422 .31698609 .4482422 .3039856 .43623353 .30099488 .43223573 .29100038 .42323304 .2869873 .42022706 .24899292 .4482422 .20799256 .4482422 .19299317 .4482422 .070999149 .4482422 .032989503 .38124085 .032989503 .3252411 .032989503 .29023744 .04899597 .26223756 .07598877 .24023438 .10798645 .21424866 .13598633 .2082367 .20799256 .19424439Z"/>
<path id="font_3_7" d="M.1769867 .4423828 .036987306 .43138124V.40037538C.101989749 .40037538 .11099243 .3943634 .11099243 .34532167V.076034549C.11099243 .0309906 .099990848 .0309906 .032989503 .0309906V0C.06498718 .0009918213 .11898804 .0029907227 .14299011 .0029907227 .17799378 .0029907227 .21299744 .0009918213 .24699402 0V.0309906C.18099976 .0309906 .1769867 .035995485 .1769867 .075042728V.4423828M.18099976 .6159363C.18099976 .64793398 .1559906 .6689453 .12799073 .6689453 .09700012 .6689453 .07499695 .64193728 .07499695 .6159363 .07499695 .5889435 .09700012 .5629425 .12799073 .5629425 .1559906 .5629425 .18099976 .5839386 .18099976 .6159363Z"/>
<path id="font_3_8" d="M.10998535 .34429933V.076034549C.10998535 .0309906 .09899902 .0309906 .03199768 .0309906V0C.066986087 .0009918213 .117996219 .0029907227 .14498902 .0029907227 .17098999 .0029907227 .22299195 .0009918213 .25698854 0V.0309906C.18998719 .0309906 .1789856 .0309906 .1789856 .076034549V.2602234C.1789856 .36431886 .25 .42037965 .31399537 .42037965 .3769989 .42037965 .3880005 .36631776 .3880005 .30926515V.076034549C.3880005 .0309906 .3769989 .0309906 .30999757 .0309906V0C.34498597 .0009918213 .3959961 .0029907227 .4229889 .0029907227 .44898988 .0029907227 .5009918 .0009918213 .5349884 0V.0309906C.48298646 .0309906 .45799256 .0309906 .45700074 .061019899V.25221253C.45700074 .3383026 .45700074 .36932374 .42599488 .405365 .4119873 .42237855 .3789978 .4423828 .32099916 .4423828 .24798584 .4423828 .20098877 .39935304 .17298889 .33729554V.4423828L.03199768 .43138124V.40037538C.101989749 .4003601 .10998535 .39335633 .10998535 .34429933Z"/>
<path id="font_4_1" d="M.24899292 .10601807C.23899842 .072021488 .20599365 .018234253 .15499878 .018234253 .1519928 .018234253 .12199402 .018234253 .100997928 .03215027 .14199829 .04508972 .14498902 .08100891 .14498902 .087020877 .14498902 .10900879 .12799073 .12402344 .10499573 .12402344 .07699585 .12402344 .04798889 .10002136 .04798889 .0630188 .04798889 .01322937 .10398865-.009765625 .15299988-.009765625 .19898987-.009765625 .23999024 .019226075 .2649994 .061019899 .2889862 .008224487 .34399415-.009765625 .38398744-.009765625 .49899293-.009765625 .55999758 .11502075 .55999758 .14305115 .55999758 .15608216 .5469971 .15608216 .5439911 .15608216 .5299988 .15608216 .5289917 .15107727 .5249939 .13905335 .5039978 .07002258 .44400025 .018234253 .3880005 .018234253 .34799195 .018234253 .32699586 .04508972 .32699586 .08302307 .32699586 .10900879 .35099793 .20018006 .3789978 .31140138 .39898683 .38841249 .44400025 .4133911 .47698976 .4133911 .47898866 .4133911 .5099945 .4133911 .5309906 .39941407 .49899293 .39041139 .4869995 .3624115 .4869995 .34440614 .4869995 .32240296 .5039978 .30740357 .5269928 .30740357 .5499878 .30740357 .58299258 .32640077 .58299258 .3684082 .58299258 .4243927 .5189972 .44140626 .47898866 .44140626 .42900086 .44140626 .3889923 .4084015 .36698915 .3704071 .34899903 .4113922 .30299378 .44140626 .24699402 .44140626 .1349945 .44140626 .070999149 .31840516 .070999149 .2883606 .070999149 .27534486 .084991458 .27534486 .08799744 .27534486 .100997928 .27534486 .101989749 .27934266 .10699463 .29237367 .13198853 .3704071 .19499207 .4133911 .24398804 .4133911 .2769928 .4133911 .3039856 .395401 .3039856 .3474121 .3039856 .32740785 .2919922 .27734376 .2829895 .24327088L.24899292 .10601807Z"/>
<path id="font_5_1" d="M.272995 .33428956C.35099793 .33428956 .40699769 .2803192 .40699769 .1733551 .40699769 .04940796 .33499146 .012466431 .2769928 .012466431 .23699951 .012466431 .14898682 .0234375 .10699463 .082351688 .1539917 .084350589 .16499329 .11735535 .16499329 .13835144 .16499329 .17034912 .14099121 .19335938 .10998535 .19335938 .08198547 .19335938 .053985597 .17634583 .053985597 .13534546 .053985597 .041412355 .1579895-.01953125 .2789917-.01953125 .41799928-.01953125 .5139923 .07336426 .5139923 .1733551 .5139923 .2513275 .44999696 .32929994 .33999635 .35229493 .44499208 .39024354 .48298646 .4650879 .48298646 .5260773 .48298646 .60505679 .3919983 .6640625 .2809906 .6640625 .16999817 .6640625 .084991458 .61006167 .084991458 .5300751 .084991458 .49606324 .10699463 .47706605 .13699341 .47706605 .16799927 .47706605 .18798828 .5000763 .18798828 .5280762 .18798828 .5570679 .16799927 .57806399 .13699341 .5800781 .17199707 .62405398 .24099732 .63505557 .27799989 .63505557 .32299806 .63505557 .38598634 .6130676 .38598634 .5260773 .38598634 .48406983 .37199403 .43814088 .34599305 .4072113 .31298829 .36927796 .2849884 .3672943 .23498535 .36428834 .20999146 .3623047 .20799256 .3623047 .20298767 .3612976 .20098877 .3612976 .19299317 .3592987 .19299317 .34829713 .19299317 .33428956 .20199585 .33428956 .21899414 .33428956H.272995Z"/>
<path id="font_6_1" d="M.6589966 .23046875C.6759949 .23046875 .69400027 .23046875 .69400027 .25045777 .69400027 .27046205 .6759949 .27046205 .6589966 .27046205H.117996219C.100997928 .27046205 .08299255 .27046205 .08299255 .25045777 .08299255 .23046875 .100997928 .23046875 .117996219 .23046875H.6589966Z"/>
</defs>
<path transform="matrix(1.00008,0,0,-1,14.257942,45.881)" stroke-width=".3985" stroke-linecap="butt" stroke-miterlimit="10" stroke-linejoin="miter" fill="none" stroke="#00aeef" d="M0-28.34636H128.24062M0-22.6771H128.24062M0-17.00781H128.24062M0-11.33855H128.24062M0-5.66927H128.24062M0 0H128.24062M0 5.66927H128.24062M0 11.33855H128.24062M0 17.00781H128.24062M0 22.6771H128.24062M0 28.34438H128.24062M0-28.34636V28.34636M10.68665-28.34636V28.34636M21.3733-28.34636V28.34636M32.05998-28.34636V28.34636M42.74663-28.34636V28.34636M53.4333-28.34636V28.34636M64.11996-28.34636V28.34636M74.80663-28.34636V28.34636M85.49329-28.34636V28.34636M96.17996-28.34636V28.34636M106.86662-28.34636V28.34636M117.55328-28.34636V28.34636M128.23995-28.34636V28.34636M128.24062 28.34636"/>
<path transform="matrix(1.00008,0,0,-1,14.257942,45.881)" stroke-width=".79701" stroke-linecap="butt" stroke-miterlimit="10" stroke-linejoin="miter" fill="none" stroke="#000000" d="M0 0H132.59214"/>
<path transform="matrix(1.00008,0,0,-1,146.86069,45.881)" d="M1.0361 0C-.25902 .25902-1.55415 .77707-3.1083 1.68365-1.55415 .51805-1.55415-.51805-3.1083-1.68365-1.55415-.77707-.25902-.25902 1.0361 0Z"/>
<path transform="matrix(1.00008,0,0,-1,146.86069,45.881)" stroke-width=".79701" stroke-linecap="butt" stroke-linejoin="round" fill="none" stroke="#000000" d="M1.0361 0C-.25902 .25902-1.55415 .77707-3.1083 1.68365-1.55415 .51805-1.55415-.51805-3.1083-1.68365-1.55415-.77707-.25902-.25902 1.0361 0Z"/>
<use data-text="x" xlink:href="#font_1_2" transform="matrix(9.963397,0,0,-9.9626,152.01496,48.026)"/>
<path transform="matrix(1.00008,0,0,-1,14.257942,45.881)" stroke-width=".79701" stroke-linecap="butt" stroke-miterlimit="10" stroke-linejoin="miter" fill="none" stroke="#000000" d="M0-28.34636V32.58102"/>
<path transform="matrix(0,-1,-1.00008,-0,14.257942,13.29998)" d="M1.0361 0C-.25902 .25902-1.55415 .77707-3.1083 1.68365-1.55415 .51805-1.55415-.51805-3.1083-1.68365-1.55415-.77707-.25902-.25902 1.0361 0Z"/>
<path transform="matrix(0,-1,-1.00008,-0,14.257942,13.29998)" stroke-width=".79701" stroke-linecap="butt" stroke-linejoin="round" fill="none" stroke="#000000" d="M1.0361 0C-.25902 .25902-1.55415 .77707-3.1083 1.68365-1.55415 .51805-1.55415-.51805-3.1083-1.68365-1.55415-.77707-.25902-.25902 1.0361 0Z"/>
<use data-text="y" xlink:href="#font_1_3" transform="matrix(9.963397,0,0,-9.9626,11.636734,6.2089998)"/>
<path transform="matrix(1.00008,0,0,-1,14.257942,45.881)" stroke-width=".79701" stroke-linecap="butt" stroke-miterlimit="10" stroke-linejoin="miter" fill="none" stroke="#000000" d="M1.02046-22.6771H-1.02057"/>
<use data-text="-" xlink:href="#font_2_64" transform="matrix(9.963397,0,0,-9.9626,1.2179031,71.93)"/>
<use data-text="4" xlink:href="#font_2_57" transform="matrix(9.963397,0,0,-9.9626,4.5357058,71.93)"/>
<path transform="matrix(1.00008,0,0,-1,14.257942,45.881)" stroke-width=".79701" stroke-linecap="butt" stroke-miterlimit="10" stroke-linejoin="miter" fill="none" stroke="#000000" d="M1.02046-11.33855H-1.02057"/>
<use data-text="-" xlink:href="#font_2_64" transform="matrix(9.963397,0,0,-9.9626,1.2179031,60.537004)"/>
<use data-text="2" xlink:href="#font_2_107" transform="matrix(9.963397,0,0,-9.9626,4.5357058,60.537004)"/>
<path transform="matrix(1.00008,0,0,-1,14.257942,45.881)" stroke-width=".79701" stroke-linecap="butt" stroke-miterlimit="10" stroke-linejoin="miter" fill="none" stroke="#000000" d="M1.02046 11.33855H-1.02057"/>
<use data-text="2" xlink:href="#font_2_107" transform="matrix(9.963397,0,0,-9.9626,4.5361635,37.86)"/>
<path transform="matrix(1.00008,0,0,-1,14.257942,45.881)" stroke-width=".79701" stroke-linecap="butt" stroke-miterlimit="10" stroke-linejoin="miter" fill="none" stroke="#000000" d="M1.02046 22.6771H-1.02057"/>
<use data-text="4" xlink:href="#font_2_57" transform="matrix(9.963397,0,0,-9.9626,4.5361635,26.576)"/>
<path transform="matrix(1.00008,0,0,-1,14.257942,45.881)" stroke-width=".79701" stroke-linecap="butt" stroke-miterlimit="10" stroke-linejoin="miter" fill="none" stroke="#000000" d="M21.37343 .39687V-.39679"/>
<path transform="matrix(1.00008,0,0,-1,14.257942,45.881)" d="M17.3589-10.0662H25.38794V-3.78414H17.3589Z" fill="#ffffff"/>
<use data-text="&#x03c0;" xlink:href="#font_1_1" transform="matrix(9.963397,0,0,-9.9626,32.61441,54.951)"/>
<path transform="matrix(1.00008,0,0,-1,14.257942,45.881)" stroke-width=".79701" stroke-linecap="butt" stroke-miterlimit="10" stroke-linejoin="miter" fill="none" stroke="#000000" d="M42.74686 .39687V-.39679"/>
<path transform="matrix(1.00008,0,0,-1,14.257942,45.881)" d="M36.24164-12.19711H49.25206V-3.78413H36.24164Z" fill="#ffffff"/>
<use data-text="2" xlink:href="#font_3_1" transform="matrix(9.963397,0,0,-9.9626,51.49892,57.082)"/>
<use data-text="&#x03c0;" xlink:href="#font_1_1" transform="matrix(9.963397,0,0,-9.9626,56.48032,57.082)"/>
<path transform="matrix(1.00008,0,0,-1,14.257942,45.881)" stroke-width=".79701" stroke-linecap="butt" stroke-miterlimit="10" stroke-linejoin="miter" fill="none" stroke="#000000" d="M64.1203 .39687V-.39679"/>
<path transform="matrix(1.00008,0,0,-1,14.257942,45.881)" d="M57.61508-12.19711H70.6255V-3.78413H57.61508Z" fill="#ffffff"/>
<use data-text="3" xlink:href="#font_3_2" transform="matrix(9.963397,0,0,-9.9626,72.87363,57.082)"/>
<use data-text="&#x03c0;" xlink:href="#font_1_1" transform="matrix(9.963397,0,0,-9.9626,77.85503,57.082)"/>
<path transform="matrix(1.00008,0,0,-1,14.257942,45.881)" stroke-width=".79701" stroke-linecap="butt" stroke-miterlimit="10" stroke-linejoin="miter" fill="none" stroke="#000000" d="M85.49373 .39687V-.39679"/>
<path transform="matrix(1.00008,0,0,-1,14.257942,45.881)" d="M78.98851-12.19711H91.99893V-3.78413H78.98851Z" fill="#ffffff"/>
<use data-text="4" xlink:href="#font_3_3" transform="matrix(9.963397,0,0,-9.9626,94.249347,57.082)"/>
<use data-text="&#x03c0;" xlink:href="#font_1_1" transform="matrix(9.963397,0,0,-9.9626,99.23074,57.082)"/>
<path transform="matrix(1.00008,0,0,-1,14.257942,45.881)" stroke-width=".79701" stroke-linecap="butt" stroke-miterlimit="10" stroke-linejoin="miter" fill="none" stroke="#000000" d="M106.86716 .39687V-.39679"/>
<path transform="matrix(1.00008,0,0,-1,14.257942,45.881)" d="M100.36195-12.19711H113.372379V-3.78413H100.36195Z" fill="#ffffff"/>
<use data-text="5" xlink:href="#font_3_4" transform="matrix(9.963397,0,0,-9.9626,115.624057,57.082)"/>
<use data-text="&#x03c0;" xlink:href="#font_1_1" transform="matrix(9.963397,0,0,-9.9626,120.60545,57.082)"/>
<path transform="matrix(1.00008,0,0,-1,14.257942,45.881)" stroke-width=".79701" stroke-linecap="butt" stroke-miterlimit="10" stroke-linejoin="miter" fill="none" stroke="#000000" d="M128.24062 .39687V-.39679"/>
<path transform="matrix(1.00008,0,0,-1,14.257942,45.881)" d="M121.7354-12.19711H134.74582V-3.78413H121.7354Z" fill="#ffffff"/>
<use data-text="6" xlink:href="#font_3_5" transform="matrix(9.963397,0,0,-9.9626,136.99976,57.082)"/>
<use data-text="&#x03c0;" xlink:href="#font_1_1" transform="matrix(9.963397,0,0,-9.9626,141.98117,57.082)"/>
<path transform="matrix(1.00008,0,0,-1,14.257942,45.881)" stroke-width=".79701" stroke-linecap="butt" stroke-miterlimit="10" stroke-linejoin="miter" fill="none" stroke="#ff0000" d="M0 0C0 0 3.86053 3.222 5.34326 4.0086 6.826 4.79518 9.2038 5.66914 10.68654 5.66917 12.16928 5.6692 14.54709 4.79541 16.02983 4.00887 17.51256 3.2223 19.89037 1.11263 21.37311 .00023 22.85585-1.1121 25.23364-3.22179 26.71638-4.00842 28.19913-4.79504 30.57693-5.66908 32.05968-5.66917 33.54242-5.66925 35.92021-4.79555 37.40295-4.00903 38.8857-3.2225 41.2635-1.11288 42.74623-.00049 44.22897 1.11185 46.60678 3.22159 48.08952 4.00826 49.57227 4.7949 51.95006 5.66902 53.4328 5.66917 54.91553 5.66931 57.29335 4.79576 58.77608 4.0093 60.2588 3.22282 62.63661 1.11324 64.11935 .00084 65.6021-1.1115 67.97989-3.22128 69.46263-4.008 70.94539-4.7947 73.3232-5.66896 74.80592-5.66917 76.28867-5.66937 78.66646-4.7959 80.1492-4.00948 81.63194-3.22302 84.00975-1.1135 85.49248-.0011 86.97522 1.11124 89.35303 3.22108 90.83577 4.00781 92.31851 4.79456 94.6963 5.66891 96.17905 5.66917 97.66179 5.66943 100.0396 4.79611 101.52232 4.00972 103.00507 3.22334 105.38287 1.11385 106.86562 .00145 108.34836-1.1109 110.72615-3.22078 112.2089-4.00755 113.69164-4.79434 116.06944-5.66885 117.55219-5.66917 119.03491-5.66948 121.41272-4.79616 122.89546-4.0098 124.37819-3.22346 128.23873-.00171 128.23873-.00171"/>
<path transform="matrix(1.00008,0,0,-1,14.257942,45.881)" stroke-width=".79701" stroke-linecap="butt" stroke-miterlimit="10" stroke-linejoin="miter" fill="none" stroke="#0000ff" d="M0 0C0 0 3.86053 1.07393 5.34326 1.46721 6.826 1.86049 9.2038 2.48184 10.68654 2.83444 12.16928 3.18706 14.54709 3.72067 16.02983 4.0086 17.51256 4.29651 19.89037 4.70598 21.37311 4.90956 22.85585 5.11314 25.23364 5.37053 26.71638 5.4759 28.19913 5.58131 30.57693 5.66916 32.05968 5.66917 33.54242 5.66917 35.92021 5.58138 37.40295 5.476 38.8857 5.37064 41.2635 5.1133 42.74623 4.90973 44.22897 4.70618 46.60678 4.29675 48.08952 4.00887 49.57227 3.72096 51.95006 3.18741 53.4328 2.8348 54.91553 2.4822 57.29335 1.86076 58.77608 1.46747 60.2588 1.07419 62.63661 .40738 64.11935 .00023 65.6021-.40686 67.97989-1.0736 69.46263-1.46687 70.94539-1.86015 73.3232-2.48164 74.80592-2.83427 76.28867-3.1869 78.66646-3.72049 80.1492-4.00842 81.63194-4.29634 84.00975-4.70587 85.49248-4.90947 86.97522-5.11308 89.35303-5.37051 90.83577-5.4759 92.31851-5.58133 94.6963-5.66914 96.17905-5.66917 97.66179-5.66919 100.0396-5.58145 101.52232-5.47609 103.00507-5.37073 105.38287-5.11337 106.86562-4.90982 108.34836-4.70627 110.72615-4.2969 112.2089-4.00903 113.69164-3.72115 116.06944-3.18758 117.55219-2.83496 119.03491-2.48238 121.41272-1.86101 122.89546-1.46773 124.37819-1.07445 128.23873-.00049 128.23873-.00049"/>
<path transform="matrix(1.00008,0,0,-1,14.257942,45.881)" stroke-width=".79701" stroke-linecap="butt" stroke-miterlimit="10" stroke-linejoin="miter" fill="none" stroke="#00b300" d="M0 0C0 0 3.86053-5.36977 5.34326-7.33615 6.826-9.30252 9.2038-12.40924 10.68654-14.17232 12.16928-15.93536 14.54709-18.60345 16.02983-20.04306 17.51256-21.48265 19.89037-23.52994 21.37311-24.54787 22.85585-25.56581 25.23364-26.85268 26.71638-27.37965 28.19913-27.90663 30.57693-28.34587 32.05968-28.34592 33.54242-28.34598 35.92021-27.90694 37.40295-27.38008 38.8857-26.85324 41.2635-25.56656 42.74623-24.54874 44.22897-23.53091 46.60678-21.48383 48.08952-20.04434 49.57227-18.60489 51.95006-15.93709 53.4328-14.17404 54.91553-12.41098 57.29335-9.3039 58.77608-7.33743 60.2588-5.371 62.63661-2.03699 64.11935-.00128 65.6021 2.03438 67.97989 5.36798 69.46263 7.33441 70.94539 9.30087 73.3232 12.40826 74.80592 14.17145 76.28867 15.93462 78.66646 18.60255 80.1492 20.04219 81.63194 21.48183 84.00975 23.52937 85.49248 24.54744 86.97522 25.56549 89.35303 26.85262 90.83577 27.37965 92.31851 27.9067 94.6963 28.34581 96.17905 28.34592 97.66179 28.34604 100.0396 27.90732 101.52232 27.38052 103.00507 26.85373 105.38287 25.56693 106.86562 24.54916 108.34836 23.5314 110.72615 21.48463 112.2089 20.04521 113.69164 18.60582 116.06944 15.9379 117.55219 14.1749 119.03491 12.41191 121.41272 9.30513 122.89546 7.33875 124.37819 5.37236 128.23873 .00258 128.23873 .00258"/>
<path transform="matrix(1.00008,0,0,-1,14.257942,45.881)" stroke-width=".3985" stroke-linecap="butt" stroke-miterlimit="10" stroke-linejoin="miter" fill="none" stroke="#ff0000" d="M32.06009-8.36632V-16.44093"/>
<path transform="matrix(0,-1,-1.00008,-0,46.320596,54.247323)" d="M.797 0C-.19925 .19925-1.19551 .59775-2.39102 1.29512-1.19551 .3985-1.19551-.3985-2.39102-1.29512-1.19551-.59775-.19925-.19925 .797 0Z" fill="#ff0000"/>
<path transform="matrix(0,-1,-1.00008,-0,46.320596,54.247323)" stroke-width=".3985" stroke-linecap="butt" stroke-linejoin="round" fill="none" stroke="#ff0000" d="M.797 0C-.19925 .19925-1.19551 .59775-2.39102 1.29512-1.19551 .3985-1.19551-.3985-2.39102-1.29512-1.19551-.59775-.19925-.19925 .797 0Z"/>
<path transform="matrix(1.00008,0,0,-1,14.257942,45.881)" d="M13.00404-25.2311H51.11612V-16.6402H13.00404Z" fill="#ffffff"/>
<use data-text="y" xlink:href="#font_1_3" transform="matrix(9.963397,0,0,-9.9626,27.262986,69.175)" fill="#ff0000"/>
<use data-text="=" xlink:href="#font_3_6" transform="matrix(9.963397,0,0,-9.9626,35.27263,69.175)" fill="#ff0000"/>
<use data-text="s" xlink:href="#font_3_9" transform="matrix(9.963397,0,0,-9.9626,45.774049,69.175)" fill="#ff0000"/>
<use data-text="i" xlink:href="#font_3_7" transform="matrix(9.963397,0,0,-9.9626,49.699625,69.175)" fill="#ff0000"/>
<use data-text="n" xlink:href="#font_3_8" transform="matrix(9.963397,0,0,-9.9626,52.459489,69.175)" fill="#ff0000"/>
<use data-text="x" xlink:href="#font_1_2" transform="matrix(9.963397,0,0,-9.9626,59.68258,69.175)" fill="#ff0000"/>
<path transform="matrix(1.00008,0,0,-1,14.257942,45.881)" stroke-width=".3985" stroke-linecap="butt" stroke-miterlimit="10" stroke-linejoin="miter" fill="none" stroke="#0000ff" d="M32.06009 8.9332V17.00781"/>
<path transform="matrix(0,1,1.00008,0,46.320596,36.9478)" d="M.797 0C-.19925 .19925-1.19551 .59775-2.39102 1.29512-1.19551 .3985-1.19551-.3985-2.39102-1.29512-1.19551-.59775-.19925-.19925 .797 0Z" fill="#0000ff"/>
<path transform="matrix(0,1,1.00008,0,46.320596,36.9478)" stroke-width=".3985" stroke-linecap="butt" stroke-linejoin="round" fill="none" stroke="#0000ff" d="M.797 0C-.19925 .19925-1.19551 .59775-2.39102 1.29512-1.19551 .3985-1.19551-.3985-2.39102-1.29512-1.19551-.59775-.19925-.19925 .797 0Z"/>
<path transform="matrix(1.00008,0,0,-1,14.257942,45.881)" d="M11.4003 17.20706H52.71985V29.56048H11.4003Z" fill="#ffffff"/>
<use data-text="y" xlink:href="#font_1_3" transform="matrix(9.963397,0,0,-9.9626,26.655938,24.242)" fill="#0000ff"/>
<use data-text="=" xlink:href="#font_3_6" transform="matrix(9.963397,0,0,-9.9626,34.66558,24.242)" fill="#0000ff"/>
<use data-text="s" xlink:href="#font_3_9" transform="matrix(9.963397,0,0,-9.9626,45.167,24.242)" fill="#0000ff"/>
<use data-text="i" xlink:href="#font_3_7" transform="matrix(9.963397,0,0,-9.9626,49.092576,24.242)" fill="#0000ff"/>
<use data-text="n" xlink:href="#font_3_8" transform="matrix(9.963397,0,0,-9.9626,51.85244,24.242)" fill="#0000ff"/>
<use data-text="x" xlink:href="#font_4_1" transform="matrix(6.974358,0,0,-6.9738,60.271638,20.32)" fill="#0000ff"/>
<path transform="matrix(1.00008,0,0,-1,-72.608,-8.639)" stroke-width=".3985" stroke-linecap="butt" stroke-miterlimit="10" stroke-linejoin="miter" fill="none" stroke="#0000ff" d="M132.869-30.391H137.387"/>
<use data-text="3" xlink:href="#font_5_1" transform="matrix(6.974358,0,0,-6.9738,60.544649,27.678002)" fill="#0000ff"/>
<path transform="matrix(1.00008,0,0,-1,14.257942,45.881)" stroke-width=".3985" stroke-linecap="butt" stroke-miterlimit="10" stroke-linejoin="miter" fill="none" stroke="#00b300" d="M57.44342-15.51016 70.07492-18.14163"/>
<path transform="matrix(-.97901836,-.20392,-.20393633,.97894,71.70596,61.391183)" d="M.797 0C-.19925 .19925-1.19551 .59775-2.39102 1.29512-1.19551 .3985-1.19551-.3985-2.39102-1.29512-1.19551-.59775-.19925-.19925 .797 0Z" fill="#00b300"/>
<path transform="matrix(-.97901836,-.20392,-.20393633,.97894,71.70596,61.391183)" stroke-width=".3985" stroke-linecap="butt" stroke-linejoin="round" fill="none" stroke="#00b300" d="M.797 0C-.19925 .19925-1.19551 .59775-2.39102 1.29512-1.19551 .3985-1.19551-.3985-2.39102-1.29512-1.19551-.59775-.19925-.19925 .797 0Z"/>
<path transform="matrix(1.00008,0,0,-1,14.257942,45.881)" d="M70.27419-27.70549H125.98438V-15.35207H70.27419Z" fill="#ffffff"/>
<use data-text="y" xlink:href="#font_1_3" transform="matrix(9.963397,0,0,-9.9626,85.53364,69.155)" fill="#00b300"/>
<use data-text="=" xlink:href="#font_3_6" transform="matrix(9.963397,0,0,-9.9626,93.54328,69.155)" fill="#00b300"/>
<use data-text="&#x2212;" xlink:href="#font_6_1" transform="matrix(9.963397,0,0,-9.9626,104.06012,69.155)" fill="#00b300"/>
<use data-text="5" xlink:href="#font_3_4" transform="matrix(9.963397,0,0,-9.9626,111.80974,69.155)" fill="#00b300"/>
<use data-text="s" xlink:href="#font_3_9" transform="matrix(9.963397,0,0,-9.9626,118.44536,69.155)" fill="#00b300"/>
<use data-text="i" xlink:href="#font_3_7" transform="matrix(9.963397,0,0,-9.9626,122.370929,69.155)" fill="#00b300"/>
<use data-text="n" xlink:href="#font_3_8" transform="matrix(9.963397,0,0,-9.9626,125.1308,69.155)" fill="#00b300"/>
<use data-text="x" xlink:href="#font_4_1" transform="matrix(6.974358,0,0,-6.9738,133.54048,65.233)" fill="#00b300"/>
<path transform="matrix(1.00008,0,0,-1,-13.730301,36.274003)" stroke-width=".3985" stroke-linecap="butt" stroke-miterlimit="10" stroke-linejoin="miter" fill="none" stroke="#00b300" d="M147.259-30.391H151.777"/>
<use data-text="3" xlink:href="#font_5_1" transform="matrix(6.974358,0,0,-6.9738,133.8145,72.591)" fill="#00b300"/>
</svg>
