<svg xmlns="http://www.w3.org/2000/svg" xmlns:xlink="http://www.w3.org/1999/xlink" version="1.1" width="124" height="73" viewBox="0 0 124 73">
<defs>
<path id="font_1_2" d="M.33399964 .30233766C.33999635 .32835389 .36299134 .42037965 .43299867 .42037965 .43798829 .42037965 .46199037 .42037965 .48298646 .40734864 .45498658 .402359 .43499757 .37734986 .43499757 .35334779 .43499757 .33735658 .44599916 .31835938 .47299195 .31835938 .49499513 .31835938 .5269928 .3363495 .5269928 .37635804 .5269928 .42837525 .46798707 .4423828 .43399049 .4423828 .37599183 .4423828 .34098817 .38935853 .32899476 .36634828 .3039856 .43237306 .25 .4423828 .22099304 .4423828 .116989139 .4423828 .05999756 .3133545 .05999756 .28834535 .05999756 .27833558 .069992069 .27833558 .07199097 .27833558 .07998657 .27833558 .08299255 .28033448 .084991458 .28933717 .11898804 .39535523 .18499756 .42037965 .21899414 .42037965 .23799134 .42037965 .272995 .4113617 .272995 .35334779 .272995 .32235719 .2559967 .25532533 .21899414 .11528015 .20298767 .053268434 .16799927 .011245728 .12399292 .011245728 .117996219 .011245728 .09498596 .011245728 .07398987 .024276734 .09899902 .029266358 .12098694 .05027771 .12098694 .07827759 .12098694 .105270389 .09899902 .11328125 .083999637 .11328125 .053985597 .11328125 .0289917 .08728027 .0289917 .055267335 .0289917 .009246826 .07899475-.0107421879 .12298584-.0107421879 .18899536-.0107421879 .22499085 .059280397 .22799683 .0652771 .23999024 .028274537 .27598573-.0107421879 .33599855-.0107421879 .43899537-.0107421879 .49598695 .118270877 .49598695 .14328003 .49598695 .1532898 .4869995 .1532898 .48399354 .1532898 .47499085 .1532898 .47299195 .14929199 .47099305 .14228821 .43798829 .03527832 .36999513 .011245728 .33799745 .011245728 .29899598 .011245728 .2829895 .043273927 .2829895 .07727051 .2829895 .09927368 .2889862 .121276859 .2999878 .16529846L.33399964 .30233766Z"/>
<path id="font_1_3" d="M.48599244 .38136292C.48999024 .39537049 .48999024 .39736939 .48999024 .40437318 .48999024 .42237855 .47599793 .43138124 .46099855 .43138124 .45098878 .43138124 .43499757 .42536927 .42599488 .41036988 .42399598 .405365 .41600038 .37435914 .4119873 .35635377 .40499879 .33035279 .397995 .30334474 .3919983 .27633668L.34700013 .09628296C.34298707 .08126831 .2999878 .011245728 .23399353 .011245728 .18299866 .011245728 .17199707 .055267335 .17199707 .0922699 .17199707 .1382904 .18899536 .20030213 .22299195 .28833009 .23899842 .3293457 .24299622 .3403473 .24299622 .36035157 .24299622 .405365 .21099854 .4423828 .16099549 .4423828 .06599426 .4423828 .0289917 .29733277 .0289917 .28833009 .0289917 .27833558 .038986207 .27833558 .040985109 .27833558 .050994874 .27833558 .051986696 .28033448 .056991579 .29634095 .083999637 .3903656 .12399292 .42037965 .1579895 .42037965 .1659851 .42037965 .18299866 .42037965 .18299866 .3883667 .18299866 .36335755 .17298889 .3373413 .1659851 .31834413 .12599182 .21231079 .10798645 .1552887 .10798645 .10827637 .10798645 .019256592 .17098999-.0107421879 .22999573-.0107421879 .2689972-.0107421879 .30299378 .0062561037 .33099366 .03425598 .31799317-.017745972 .30599977-.06674194 .2659912-.11973572 .23999024-.15385437 .20199585-.18309021 .1559906-.18309021 .14199829-.18309021 .09700012-.18005371 .07998657-.14074707 .09599304-.14074707 .10899353-.14074707 .12298584-.1287384 .1329956-.11973572 .14299011-.10673523 .14299011-.08773804 .14299011-.056747438 .115997318-.052734376 .10598755-.052734376 .08299255-.052734376 .049987794-.068740848 .049987794-.11773682 .049987794-.16796875 .09399414-.20507813 .1559906-.20507813 .25898744-.20507813 .3619995-.11373901 .3899994-.00074768069L.48599244 .38136292Z"/>
<path id="font_2_1" d="M.6589966 .23046875C.6759949 .23046875 .69400027 .23046875 .69400027 .25045777 .69400027 .27046205 .6759949 .27046205 .6589966 .27046205H.117996219C.100997928 .27046205 .08299255 .27046205 .08299255 .25045777 .08299255 .23046875 .100997928 .23046875 .117996219 .23046875H.6589966Z"/>
<path id="font_3_1" d="M.1269989 .07699585 .23298645 .18003845C.3889923 .31811524 .44898988 .3721466 .44898988 .47216798 .44898988 .5860901 .35899354 .6660156 .23699951 .6660156 .12399292 .6660156 .049987794 .57411196 .049987794 .48516847 .049987794 .4291687 .099990848 .4291687 .102996829 .4291687 .11999512 .4291687 .15499878 .44117738 .15499878 .48217774 .15499878 .5081787 .13699341 .5341797 .101989749 .5341797 .09399414 .5341797 .09199524 .5341797 .08898926 .5331726 .11199951 .59806826 .1659851 .63500979 .22399903 .63500979 .31498719 .63500979 .35798646 .5541382 .35798646 .47216798 .35798646 .39215089 .30799867 .31311036 .25299073 .25108338L.06098938 .036987306C.049987794 .025985718 .049987794 .023986817 .049987794 0H.42099L.44898988 .17404175H.42399598C.4189911 .14402771 .4119873 .1000061 .4019928 .084991458 .394989 .07699585 .32899476 .07699585 .30699159 .07699585H.1269989Z"/>
<path id="font_3_2" d="M.2939911 .16503906V.07800293C.2939911 .041992189 .2919922 .0309906 .21798706 .0309906H.19699097V0C.23799134 .0029907227 .2899933 .0029907227 .33198548 .0029907227 .37399293 .0029907227 .4269867 .0029907227 .46798707 0V.0309906H.44699098C.37298585 .0309906 .37098695 .041992189 .37098695 .07800293V.16503906H.47099305V.19602967H.37098695V.65075686C.37098695 .67074587 .37098695 .6767578 .35499574 .6767578 .34599305 .6767578 .34298707 .6767578 .33499146 .66474917L.027999878 .19602967V.16503906H.2939911M.2999878 .19602967H.055999757L.2999878 .5688019V.19602967Z"/>
<path id="font_1_1" d="M.2649994 .37265016H.37799073C.34498597 .22489929 .33599855 .18196106 .33599855 .11508179 .33599855 .100097659 .33599855 .073150638 .34399415 .03919983 .35398866-.0047454836 .36499024-.0107421879 .37998963-.0107421879 .3999939-.0107421879 .42099 .007247925 .42099 .02722168 .42099 .033218385 .42099 .035202028 .4149933 .049179079 .38598634 .12106323 .38598634 .18595886 .38598634 .21391297 .38598634 .26683045 .3929901 .32073976 .4039917 .37265016H.5179901C.5309906 .37265016 .5669861 .37265016 .5669861 .406662 .5669861 .43066407 .54599 .43066407 .5269928 .43066407H.19198609C.16999817 .43066407 .13198853 .43066407 .08799744 .38365174 .052993776 .34469605 .026992798 .29878236 .026992798 .29379273 .026992798 .29278565 .026992798 .28379823 .038986207 .28379823 .04699707 .28379823 .04899597 .28779603 .054992677 .29577638 .10398865 .37265016 .1619873 .37265016 .18199158 .37265016H.23899842C.20698548 .25186158 .15299988 .13105774 .11099243 .04020691 .102996829 .025222779 .102996829 .023223877 .102996829 .016235352 .102996829-.002746582 .11898804-.0107421879 .13198853-.0107421879 .1619873-.0107421879 .16999817 .017242432 .18199158 .05418396 .19599915 .100097659 .19599915 .10209656 .20899964 .15202332L.2649994 .37265016Z"/>
</defs>
<path transform="matrix(1.00008,0,0,-1.00006,60.154375,44.52489)" stroke-width=".3985" stroke-linecap="butt" stroke-miterlimit="10" stroke-linejoin="miter" fill="none" stroke="#00aeef" d="M-49.86998-27.21355H49.86998M-49.86998-20.41016H49.86998M-49.86998-13.60677H49.86998M-49.86998-6.80338H49.86998M-49.86998 0H49.86998M-49.86998 6.80338H49.86998M-49.86998 13.60677H49.86998M-49.86998 20.41016H49.86998M-49.86998 27.21115H49.86998M-49.86998-27.21355V27.21355M-37.40248-27.21355V27.21355M-24.93498-27.21355V27.21355M-12.46748-27.21355V27.21355M0-27.21355V27.21355M12.46748-27.21355V27.21355M24.93498-27.21355V27.21355M37.40248-27.21355V27.21355M49.86858-27.21355V27.21355M49.86998 27.21355"/>
<path transform="matrix(1.00008,0,0,-1.00006,60.154375,44.52489)" stroke-width=".79701" stroke-linecap="butt" stroke-miterlimit="10" stroke-linejoin="miter" fill="none" stroke="#000000" d="M-49.86998 0H52.53748"/>
<path transform="matrix(1.00008,0,0,-1.00006,112.69606,44.52489)" d="M1.0361 0C-.25902 .25902-1.55415 .77707-3.1083 1.68365-1.55415 .51805-1.55415-.51805-3.1083-1.68365-1.55415-.77707-.25902-.25902 1.0361 0Z"/>
<path transform="matrix(1.00008,0,0,-1.00006,112.69606,44.52489)" stroke-width=".79701" stroke-linecap="butt" stroke-linejoin="round" fill="none" stroke="#000000" d="M1.0361 0C-.25902 .25902-1.55415 .77707-3.1083 1.68365-1.55415 .51805-1.55415-.51805-3.1083-1.68365-1.55415-.77707-.25902-.25902 1.0361 0Z"/>
<use data-text="x" xlink:href="#font_1_2" transform="matrix(9.963397,0,0,-9.963197,117.84999,46.67002)"/>
<path transform="matrix(1.00008,0,0,-1.00006,60.154375,44.52489)" stroke-width=".79701" stroke-linecap="butt" stroke-miterlimit="10" stroke-linejoin="miter" fill="none" stroke="#000000" d="M0-27.21355V31.22166"/>
<path transform="matrix(0,-1.00006,-1.00008,-0,60.154375,13.301357)" d="M1.0361 0C-.25902 .25902-1.55415 .77707-3.1083 1.68365-1.55415 .51805-1.55415-.51805-3.1083-1.68365-1.55415-.77707-.25902-.25902 1.0361 0Z"/>
<path transform="matrix(0,-1.00006,-1.00008,-0,60.154375,13.301357)" stroke-width=".79701" stroke-linecap="butt" stroke-linejoin="round" fill="none" stroke="#000000" d="M1.0361 0C-.25902 .25902-1.55415 .77707-3.1083 1.68365-1.55415 .51805-1.55415-.51805-3.1083-1.68365-1.55415-.77707-.25902-.25902 1.0361 0Z"/>
<use data-text="y" xlink:href="#font_1_3" transform="matrix(9.963397,0,0,-9.963197,57.533166,6.2095949)"/>
<path transform="matrix(1.00008,0,0,-1.00006,60.154375,44.52489)" stroke-width=".79701" stroke-linecap="butt" stroke-miterlimit="10" stroke-linejoin="miter" fill="none" stroke="#000000" d="M.23808-13.60677H-.23808"/>
<path transform="matrix(1.00008,0,0,-1.00006,60.154375,44.52489)" d="M-15.35938-17.2321H-2.62916V-9.98143H-15.35938Z" fill="#ffffff"/>
<use data-text="&#x2212;" xlink:href="#font_2_1" transform="matrix(9.963397,0,0,-9.963197,44.794145,60.927877)"/>
<use data-text="2" xlink:href="#font_3_1" transform="matrix(9.963397,0,0,-9.963197,52.543764,60.926877)"/>
<path transform="matrix(1.00008,0,0,-1.00006,60.154375,44.52489)" stroke-width=".79701" stroke-linecap="butt" stroke-miterlimit="10" stroke-linejoin="miter" fill="none" stroke="#000000" d="M.23808 13.60677H-.23808"/>
<path transform="matrix(1.00008,0,0,-1.00006,60.154375,44.52489)" d="M-7.61053 10.39655H-2.62915V16.81698H-7.61053Z" fill="#ffffff"/>
<use data-text="2" xlink:href="#font_3_1" transform="matrix(9.963397,0,0,-9.963197,52.542764,34.127267)"/>
<path transform="matrix(1.00008,0,0,-1.00006,60.154375,44.52489)" stroke-width=".79701" stroke-linecap="butt" stroke-miterlimit="10" stroke-linejoin="miter" fill="none" stroke="#000000" d="M-49.86998 .68036V-.68027"/>
<path transform="matrix(1.00008,0,0,-1.00006,60.154375,44.52489)" d="M-59.25334-11.31828H-40.486635V-4.0676105H-59.25334Z" fill="#ffffff"/>
<use data-text="&#x2212;" xlink:href="#font_2_1" transform="matrix(9.963397,0,0,-9.963197,.89663699,55.01352)"/>
<use data-text="4" xlink:href="#font_3_2" transform="matrix(9.963397,0,0,-9.963197,8.6462559,55.01252)"/>
<use data-text="&#x03c0;" xlink:href="#font_1_1" transform="matrix(9.963397,0,0,-9.963197,13.627655,55.01352)"/>
<path transform="matrix(1.00008,0,0,-1.00006,60.154375,44.52489)" stroke-width=".79701" stroke-linecap="butt" stroke-miterlimit="10" stroke-linejoin="miter" fill="none" stroke="#000000" d="M-24.93498 .68036V-.68027"/>
<path transform="matrix(1.00008,0,0,-1.00006,60.154375,44.52489)" d="M-34.31834-11.31828H-15.55163V-4.0676105H-34.31834Z" fill="#ffffff"/>
<use data-text="&#x2212;" xlink:href="#font_2_1" transform="matrix(9.963397,0,0,-9.963197,25.833626,55.01352)"/>
<use data-text="2" xlink:href="#font_3_1" transform="matrix(9.963397,0,0,-9.963197,33.583246,55.01252)"/>
<use data-text="&#x03c0;" xlink:href="#font_1_1" transform="matrix(9.963397,0,0,-9.963197,38.564645,55.01352)"/>
<path transform="matrix(1.00008,0,0,-1.00006,60.154375,44.52489)" stroke-width=".79701" stroke-linecap="butt" stroke-miterlimit="10" stroke-linejoin="miter" fill="none" stroke="#000000" d="M24.93498 .68036V-.68027"/>
<path transform="matrix(1.00008,0,0,-1.00006,60.154375,44.52489)" d="M19.42604-10.48804H30.44391V-4.06761H19.42604Z" fill="#ffffff"/>
<use data-text="2" xlink:href="#font_3_1" transform="matrix(9.963397,0,0,-9.963197,79.581928,55.01352)"/>
<use data-text="&#x03c0;" xlink:href="#font_1_1" transform="matrix(9.963397,0,0,-9.963197,84.564319,55.01252)"/>
<path transform="matrix(1.00008,0,0,-1.00006,60.154375,44.52489)" stroke-width=".79701" stroke-linecap="butt" stroke-miterlimit="10" stroke-linejoin="miter" fill="none" stroke="#000000" d="M49.86998 .68036V-.68027"/>
<path transform="matrix(1.00008,0,0,-1.00006,60.154375,44.52489)" d="M44.36104-10.48804H55.378908V-4.06761H44.36104Z" fill="#ffffff"/>
<use data-text="4" xlink:href="#font_3_2" transform="matrix(9.963397,0,0,-9.963197,104.51892,55.01352)"/>
<use data-text="&#x03c0;" xlink:href="#font_1_1" transform="matrix(9.963397,0,0,-9.963197,109.50131,55.01252)"/>
<path transform="matrix(1.00008,0,0,-1.00006,60.154375,44.52489)" stroke-width=".79701" stroke-linecap="butt" stroke-miterlimit="10" stroke-linejoin="miter" fill="none" stroke="#ff0000" d="M-49.86998 20.40984C-49.86998 20.40984-48.74405 20.23247-48.31158 20.01682-47.87915 19.80115-47.18565 19.27824-46.7532 18.85548-46.32077 18.4327-45.62727 17.58347-45.19482 16.96973-44.76239 16.35602-44.0689 15.21342-43.63643 14.43217-43.204 13.65091-42.5105 12.25775-42.07805 11.33899-41.64561 10.42024-40.95212 8.83122-40.51967 7.81046-40.08723 6.78969-39.39374 5.06558-38.96129 3.98198-38.52884 2.89839-37.83534 1.10542-37.40291 .0006-36.97046-1.10419-36.27696-2.89719-35.84453-3.98074-35.41208-5.06429-34.71858-6.78812-34.28613-7.8089-33.85368-8.82967-33.16019-10.41896-32.72775-11.33775-32.2953-12.25656-31.6018-13.64963-31.16937-14.43092-30.73692-15.21222-30.04344-16.355-29.61098-16.96881-29.17853-17.58261-28.48505-18.43198-28.0526-18.85486-27.62015-19.27771-26.92667-19.80075-26.49422-20.0165-26.06177-20.23224-25.36829-20.40967-24.93582-20.40984-24.50337-20.41002-23.80989-20.23328-23.37744-20.01775-22.94499-19.80222-22.25151-19.27917-21.81906-18.8564-21.38663-18.43364-20.69313-17.5843-20.26067-16.97067-19.82823-16.35703-19.13474-15.21484-18.70229-14.43373-18.26985-13.6526-17.57635-12.25954-17.1439-11.34087-16.71147-10.42221-16.01797-8.83336-15.58551-7.81262-15.15308-6.7919-14.45958-5.06772-14.02713-3.98416-13.5947-2.9006-12.9012-1.10786-12.46877-.0031-12.03632 1.10165-11.34282 2.89465-10.91037 3.97824-10.47792 5.06186-9.78442 6.78586-9.35199 7.80672-8.91954 8.82758-8.22604 10.41705-7.79361 11.33589-7.36116 12.25471-6.66766 13.64767-6.23521 14.42906-5.80276 15.21043-5.10927 16.3536-4.67683 16.96756-4.24438 17.5815-3.55089 18.43094-3.11845 18.85391-2.686 19.2769-1.99252 19.80031-1.56006 20.01619-1.12761 20.23206-.43413 20.40958-.00168 20.40984 .43074 20.41011 1.12422 20.23346 1.55667 20.01805 1.9891 19.80266 2.6826 19.27995 3.11507 18.85733 3.5475 18.43474 4.241 17.58578 4.67345 16.97223 5.10588 16.35867 5.79938 15.21632 6.23183 14.43529 6.66426 13.65424 7.35776 12.26161 7.79022 11.34305 8.22266 10.42447 8.91615 8.8355 9.3486 7.81482 9.78104 6.79413 10.47453 5.07022 10.90697 3.98665 11.33942 2.90309 12.03291 1.11006 12.46536 .00528 12.89781-1.09946 13.59131-2.89215 14.02374-3.97575 14.45619-5.05936 15.14969-6.78368 15.58212-7.80453 16.01457-8.8254 16.70807-10.41447 17.14052-11.3334 17.57297-12.25232 18.26646-13.64598 18.6989-14.42749 19.13135-15.20901 19.82483-16.35197 20.25728-16.96599 20.68973-17.58003 21.38322-18.42982 21.81567-18.85298 22.24812-19.27615 22.9416-19.79987 23.37405-20.01587 23.8065-20.23187 24.49998-20.40945 24.93243-20.40984 25.36488-20.41023 26.05836-20.234 26.49083-20.01868 26.92328-19.80336 27.61676-19.28043 28.04921-18.85797 28.48164-18.43549 29.17514-17.58716 29.60759-16.97379 30.04002-16.36041 30.73352-15.21814 31.16599-14.43715 31.59842-13.65616 32.29192-12.26346 32.72437-11.34492 33.1568-10.42638 33.8503-8.83759 34.28275-7.81699 34.71518-6.79639 35.40868-5.07266 35.84114-3.98915 36.27357-2.90564 36.96707-1.11258 37.3995-.00777 37.83195 1.09702 38.52545 2.88994 38.9579 3.97357 39.39034 5.05722 40.08383 6.78142 40.51628 7.80235 40.94873 8.8233 41.64223 10.41283 42.07466 11.33183 42.50711 12.25084 43.2006 13.6444 43.63304 14.42593 44.06549 15.20749 44.75899 16.35065 45.19144 16.96475 45.62389 17.57886 46.31737 18.42879 46.74982 18.85204 47.18227 19.2753 47.87576 19.7991 48.3082 20.01526 48.74065 20.2314 49.8666 20.40984 49.8666 20.40984"/>
</svg>
