<svg xmlns="http://www.w3.org/2000/svg" xmlns:xlink="http://www.w3.org/1999/xlink" version="1.1" width="157" height="86" viewBox="0 0 157 86">
<defs>
<path id="font_1_1" d="M.33399964 .30233766C.33999635 .32835389 .36299134 .42037965 .43299867 .42037965 .43798829 .42037965 .46199037 .42037965 .48298646 .40734864 .45498658 .402359 .43499757 .37734986 .43499757 .35334779 .43499757 .33735658 .44599916 .31835938 .47299195 .31835938 .49499513 .31835938 .5269928 .3363495 .5269928 .37635804 .5269928 .42837525 .46798707 .4423828 .43399049 .4423828 .37599183 .4423828 .34098817 .38935853 .32899476 .36634828 .3039856 .43237306 .25 .4423828 .22099304 .4423828 .116989139 .4423828 .05999756 .3133545 .05999756 .28834535 .05999756 .27833558 .069992069 .27833558 .07199097 .27833558 .07998657 .27833558 .08299255 .28033448 .084991458 .28933717 .11898804 .39535523 .18499756 .42037965 .21899414 .42037965 .23799134 .42037965 .272995 .4113617 .272995 .35334779 .272995 .32235719 .2559967 .25532533 .21899414 .11528015 .20298767 .053268434 .16799927 .011245728 .12399292 .011245728 .117996219 .011245728 .09498596 .011245728 .07398987 .024276734 .09899902 .029266358 .12098694 .05027771 .12098694 .07827759 .12098694 .105270389 .09899902 .11328125 .083999637 .11328125 .053985597 .11328125 .0289917 .08728027 .0289917 .055267335 .0289917 .009246826 .07899475-.0107421879 .12298584-.0107421879 .18899536-.0107421879 .22499085 .059280397 .22799683 .0652771 .23999024 .028274537 .27598573-.0107421879 .33599855-.0107421879 .43899537-.0107421879 .49598695 .118270877 .49598695 .14328003 .49598695 .1532898 .4869995 .1532898 .48399354 .1532898 .47499085 .1532898 .47299195 .14929199 .47099305 .14228821 .43798829 .03527832 .36999513 .011245728 .33799745 .011245728 .29899598 .011245728 .2829895 .043273927 .2829895 .07727051 .2829895 .09927368 .2889862 .121276859 .2999878 .16529846L.33399964 .30233766Z"/>
<path id="font_1_2" d="M.48599244 .38136292C.48999024 .39537049 .48999024 .39736939 .48999024 .40437318 .48999024 .42237855 .47599793 .43138124 .46099855 .43138124 .45098878 .43138124 .43499757 .42536927 .42599488 .41036988 .42399598 .405365 .41600038 .37435914 .4119873 .35635377 .40499879 .33035279 .397995 .30334474 .3919983 .27633668L.34700013 .09628296C.34298707 .08126831 .2999878 .011245728 .23399353 .011245728 .18299866 .011245728 .17199707 .055267335 .17199707 .0922699 .17199707 .1382904 .18899536 .20030213 .22299195 .28833009 .23899842 .3293457 .24299622 .3403473 .24299622 .36035157 .24299622 .405365 .21099854 .4423828 .16099549 .4423828 .06599426 .4423828 .0289917 .29733277 .0289917 .28833009 .0289917 .27833558 .038986207 .27833558 .040985109 .27833558 .050994874 .27833558 .051986696 .28033448 .056991579 .29634095 .083999637 .3903656 .12399292 .42037965 .1579895 .42037965 .1659851 .42037965 .18299866 .42037965 .18299866 .3883667 .18299866 .36335755 .17298889 .3373413 .1659851 .31834413 .12599182 .21231079 .10798645 .1552887 .10798645 .10827637 .10798645 .019256592 .17098999-.0107421879 .22999573-.0107421879 .2689972-.0107421879 .30299378 .0062561037 .33099366 .03425598 .31799317-.017745972 .30599977-.06674194 .2659912-.11973572 .23999024-.15385437 .20199585-.18309021 .1559906-.18309021 .14199829-.18309021 .09700012-.18005371 .07998657-.14074707 .09599304-.14074707 .10899353-.14074707 .12298584-.1287384 .1329956-.11973572 .14299011-.10673523 .14299011-.08773804 .14299011-.056747438 .115997318-.052734376 .10598755-.052734376 .08299255-.052734376 .049987794-.068740848 .049987794-.11773682 .049987794-.16796875 .09399414-.20507813 .1559906-.20507813 .25898744-.20507813 .3619995-.11373901 .3899994-.00074768069L.48599244 .38136292Z"/>
<path id="font_2_64" d="M.27598573 .18710327V.24511719H.010986328V.18710327H.27598573Z"/>
<path id="font_2_107" d="M.44898988 .17396546H.42399598C.4189911 .14398194 .4119873 .099990848 .4019928 .084991458 .394989 .07699585 .32899476 .07699585 .30699159 .07699585H.1269989L.23298645 .17996216C.3889923 .31803895 .44898988 .37210084 .44898988 .47216798 .44898988 .5860901 .35899354 .6660156 .23699951 .6660156 .12399292 .6660156 .049987794 .57411196 .049987794 .48516847 .049987794 .4291687 .099990848 .4291687 .102996829 .4291687 .11999512 .4291687 .15499878 .44117738 .15499878 .48217774 .15499878 .5081787 .13699341 .5341797 .101989749 .5341797 .09399414 .5341797 .09199524 .5341797 .08898926 .5331726 .11199951 .59806826 .1659851 .63500979 .22399903 .63500979 .31498719 .63500979 .35798646 .5541382 .35798646 .47216798 .35798646 .39196778 .30799867 .31297303 .25299073 .25097657L.06098938 .036987306C.049987794 .025985718 .049987794 .023986817 .049987794 0H.42099L.44898988 .17396546Z"/>
<path id="font_3_1" d="M.74398806 .2263794C.7599945 .2263794 .7839966 .2263794 .7839966 .25038148 .7839966 .27539063 .7609863 .27539063 .74398806 .27539063H.147995C.13198853 .27539063 .10798645 .27539063 .10798645 .25138856 .10798645 .2263794 .1309967 .2263794 .147995 .2263794H.74398806Z"/>
<path id="font_4_1" d="M.31098939 .36265565H.42999269C.4149933 .30274964 .3929901 .2118988 .3929901 .13302613 .3929901 .09309387 .397995 .06613159 .4039917 .044174196 .41999818-.0057678224 .43299867-.009765625 .44898988-.009765625 .47200013-.009765625 .49598695 .011230469 .49598695 .035186769 .49598695 .043182374 .49398805 .047164918 .48799134 .057159425 .46899415 .09408569 .45098878 .15100098 .45098878 .23286438 .45098878 .25183106 .45098878 .29177857 .46499635 .36265565H.58999636C.60798647 .36265565 .6159973 .36265565 .6269989 .37065126 .6409912 .380661 .6439972 .39665223 .6439972 .4016571 .6439972 .43066407 .6179962 .43066407 .6009979 .43066407H.22399903C.18299866 .43066407 .15499878 .42166139 .10998535 .37965394 .083999637 .35665895 .04499817 .30274964 .04499817 .2937622 .04499817 .28178407 .057998659 .28178407 .06199646 .28178407 .07299805 .28178407 .07398987 .28378297 .07998657 .2927704 .1309967 .36265565 .19299317 .36265565 .21499634 .36265565H.27598573C.24499512 .25283814 .19099427 .13502503 .16099549 .07511902 .15499878 .062149049 .14498902 .04118347 .14199829 .03718567 .14099121 .033187868 .13899231 .029190064 .13899231 .022201539 .13899231 .006225586 .15098572-.009765625 .17399597-.009765625 .21398926-.009765625 .22499085 .035186769 .24899292 .12504578L.31098939 .36265565Z"/>
<path id="font_5_3" d="M.5289917 .1640625V.20005799H.41799928V.64582827C.41799928 .66682437 .41799928 .6738281 .3959961 .6738281 .38398744 .6738281 .37998963 .6738281 .36999513 .65982058L.038986207 .20005799V.1640625H.33299256V.08201599C.33299256 .04800415 .33299256 .035995485 .2519989 .035995485H.22499085V0C.2749939 .0019989014 .33898927 .0039978029 .375 .0039978029 .4119873 .0039978029 .47599793 .0019989014 .526001 0V.035995485H.49899293C.41799928 .035995485 .41799928 .04800415 .41799928 .08201599V.1640625H.5289917M.33999635 .5658722V.20005799H.07598877L.33999635 .5658722Z"/>
<path id="font_5_1" d="M.5049896 .18203736H.47099305C.46798707 .16001892 .45799256 .100997928 .44499208 .09098816 .43699647 .084991458 .3600006 .084991458 .34599305 .084991458H.1619873C.2669983 .17803955 .3019867 .20603943 .3619995 .25306703 .43598939 .312088 .5049896 .374115 .5049896 .46914674 .5049896 .5900879 .39898683 .6640625 .2709961 .6640625 .14698792 .6640625 .06298828 .57710269 .06298828 .4851532 .06298828 .43414308 .10598755 .42915345 .115997318 .42915345 .13999939 .42915345 .16899109 .44615174 .16899109 .48214723 .16899109 .5001526 .1619873 .53515627 .10998535 .53515627 .14099121 .6060791 .20899964 .62805178 .2559967 .62805178 .35598756 .62805178 .4079895 .5501404 .4079895 .46914674 .4079895 .38212586 .34599305 .3130951 .31399537 .27708436L.07299805 .038986207C.06298828 .02999878 .06298828 .027999878 .06298828 0H.47499085L.5049896 .18203736Z"/>
<path id="font_5_2" d="M.272995 .33428956C.35099793 .33428956 .40699769 .2803192 .40699769 .1733551 .40699769 .04940796 .33499146 .012466431 .2769928 .012466431 .23699951 .012466431 .14898682 .0234375 .10699463 .082351688 .1539917 .084350589 .16499329 .11735535 .16499329 .13835144 .16499329 .17034912 .14099121 .19335938 .10998535 .19335938 .08198547 .19335938 .053985597 .17634583 .053985597 .13534546 .053985597 .041412355 .1579895-.01953125 .2789917-.01953125 .41799928-.01953125 .5139923 .07336426 .5139923 .1733551 .5139923 .2513275 .44999696 .32929994 .33999635 .35229493 .44499208 .39024354 .48298646 .4650879 .48298646 .5260773 .48298646 .60505679 .3919983 .6640625 .2809906 .6640625 .16999817 .6640625 .084991458 .61006167 .084991458 .5300751 .084991458 .49606324 .10699463 .47706605 .13699341 .47706605 .16799927 .47706605 .18798828 .5000763 .18798828 .5280762 .18798828 .5570679 .16799927 .57806399 .13699341 .5800781 .17199707 .62405398 .24099732 .63505557 .27799989 .63505557 .32299806 .63505557 .38598634 .6130676 .38598634 .5260773 .38598634 .48406983 .37199403 .43814088 .34599305 .4072113 .31298829 .36927796 .2849884 .3672943 .23498535 .36428834 .20999146 .3623047 .20799256 .3623047 .20298767 .3612976 .20098877 .3612976 .19299317 .3592987 .19299317 .34829713 .19299317 .33428956 .20199585 .33428956 .21899414 .33428956H.272995Z"/>
</defs>
<path transform="matrix(1.00005,0,0,-1,40.0532,50.417)" stroke-width=".3985" stroke-linecap="butt" stroke-miterlimit="10" stroke-linejoin="miter" fill="none" stroke="#00aeef" d="M-33.39473-34.01564H100.18552M-33.39473-22.6771H100.18552M-33.39473-11.33855H100.18552M-33.39473 0H100.18552M-33.39473 11.33855H100.18552M-33.39473 22.6771H100.18552M-33.39473 34.01166H100.18552M-33.39407-34.01564V34.01564M-16.69702-34.01564V34.01564M0-34.01564V34.01564M16.69702-34.01564V34.01564M33.39407-34.01564V34.01564M50.09111-34.01564V34.01564M66.78815-34.01564V34.01564M83.48518-34.01564V34.01564M100.18224-34.01564V34.01564M100.18552 34.01564"/>
<path transform="matrix(1.00005,0,0,-1,40.0532,50.417)" stroke-width=".79701" stroke-linecap="butt" stroke-dasharray="2.98883,2.98883" stroke-miterlimit="10" stroke-linejoin="miter" fill="none" stroke="#929292" d="M33.39473-34.01564V34.01564"/>
<path transform="matrix(1.00005,0,0,-1,40.0532,50.417)" stroke-width=".79701" stroke-linecap="butt" stroke-miterlimit="10" stroke-linejoin="miter" fill="none" stroke="#000000" d="M-33.39473 0H104.8659"/>
<path transform="matrix(1.00005,0,0,-1,144.92435,50.417)" d="M1.0361 0C-.25902 .25902-1.55415 .77707-3.1083 1.68365-1.55415 .51805-1.55415-.51805-3.1083-1.68365-1.55415-.77707-.25902-.25902 1.0361 0Z"/>
<path transform="matrix(1.00005,0,0,-1,144.92435,50.417)" stroke-width=".79701" stroke-linecap="butt" stroke-linejoin="round" fill="none" stroke="#000000" d="M1.0361 0C-.25902 .25902-1.55415 .77707-3.1083 1.68365-1.55415 .51805-1.55415-.51805-3.1083-1.68365-1.55415-.77707-.25902-.25902 1.0361 0Z"/>
<use data-text="x" xlink:href="#font_1_1" transform="matrix(9.963098,0,0,-9.9626,150.07869,52.562)"/>
<path transform="matrix(1.00005,0,0,-1,40.0532,50.417)" stroke-width=".79701" stroke-linecap="butt" stroke-miterlimit="10" stroke-linejoin="miter" fill="none" stroke="#000000" d="M0-34.01564V37.11638"/>
<path transform="matrix(0,-1,-1.00005,-0,40.0532,13.300621)" d="M1.0361 0C-.25902 .25902-1.55415 .77707-3.1083 1.68365-1.55415 .51805-1.55415-.51805-3.1083-1.68365-1.55415-.77707-.25902-.25902 1.0361 0Z"/>
<path transform="matrix(0,-1,-1.00005,-0,40.0532,13.300621)" stroke-width=".79701" stroke-linecap="butt" stroke-linejoin="round" fill="none" stroke="#000000" d="M1.0361 0C-.25902 .25902-1.55415 .77707-3.1083 1.68365-1.55415 .51805-1.55415-.51805-3.1083-1.68365-1.55415-.77707-.25902-.25902 1.0361 0Z"/>
<use data-text="y" xlink:href="#font_1_2" transform="matrix(9.963098,0,0,-9.9626,37.432069,6.209999)"/>
<path transform="matrix(1.00005,0,0,-1,40.0532,50.417)" stroke-width=".79701" stroke-linecap="butt" stroke-miterlimit="10" stroke-linejoin="miter" fill="none" stroke="#000000" d="M1.7005-22.6771H-1.70116"/>
<path transform="matrix(1.00005,0,0,-1,40.0532,50.417)" d="M-4.01253-19.22597H-12.24576V-26.12819H-4.01253ZM-12.24576-26.12819" fill="#ffffff"/>
<use data-text="-" xlink:href="#font_2_64" transform="matrix(7.9704778,0,0,-7.97008,28.603425,75.7486)"/>
<use data-text="2" xlink:href="#font_2_107" transform="matrix(7.9704778,0,0,-7.97008,31.257592,75.7486)"/>
<path transform="matrix(1.00005,0,0,-1,40.0532,50.417)" stroke-width=".79701" stroke-linecap="butt" stroke-miterlimit="10" stroke-linejoin="miter" fill="none" stroke="#000000" d="M1.7005 22.6771H-1.70116"/>
<path transform="matrix(1.00005,0,0,-1,40.0532,50.417)" d="M-4.01251 26.1282H-9.59167V19.22598H-4.01251ZM-9.59167 19.22598" fill="#ffffff"/>
<use data-text="2" xlink:href="#font_2_107" transform="matrix(7.9704778,0,0,-7.97008,31.25756,30.3936)"/>
<path transform="matrix(1.00005,0,0,-1,40.0532,50.417)" stroke-width=".79701" stroke-linecap="butt" stroke-miterlimit="10" stroke-linejoin="miter" fill="none" stroke="#000000" d="M-33.39473 1.13391V-1.13374"/>
<path transform="matrix(1.00005,0,0,-1,40.0532,50.417)" d="M-41.15446-17.19278H-25.634972V-3.5248099H-41.15446Z" fill="#ffffff"/>
<use data-text="&#x2212;" xlink:href="#font_3_1" transform="matrix(6.9741489,0,0,-6.9738,1.0882568,59.254999)"/>
<use data-text="&#x03c0;" xlink:href="#font_4_1" transform="matrix(6.9741489,0,0,-6.9738,7.315567,59.254999)"/>
<path transform="matrix(1.00005,0,0,-1,-124.164,25.761)" stroke-width=".3985" stroke-linecap="butt" stroke-miterlimit="10" stroke-linejoin="miter" fill="none" stroke="#000000" d="M125.246-34.926H136.382"/>
<use data-text="4" xlink:href="#font_5_3" transform="matrix(6.9741489,0,0,-6.9738,4.6704409,66.613)"/>
<path transform="matrix(1.00005,0,0,-1,40.0532,50.417)" stroke-width=".79701" stroke-linecap="butt" stroke-miterlimit="10" stroke-linejoin="miter" fill="none" stroke="#000000" d="M33.39473 1.13391V-1.13374"/>
<path transform="matrix(1.00005,0,0,-1,40.0532,50.417)" d="M28.74837-15.87823H38.04109V-3.5248099H28.74837Z" fill="#ffffff"/>
<use data-text="&#x03c0;" xlink:href="#font_4_1" transform="matrix(6.9741489,0,0,-6.9738,70.99475,57.94)"/>
<path transform="matrix(1.00005,0,0,-1,-54.25751,24.446)" stroke-width=".3985" stroke-linecap="butt" stroke-miterlimit="10" stroke-linejoin="miter" fill="none" stroke="#000000" d="M125.246-34.926H130.155"/>
<use data-text="4" xlink:href="#font_5_3" transform="matrix(6.9741489,0,0,-6.9738,71.46376,65.298007)"/>
<path transform="matrix(1.00005,0,0,-1,40.0532,50.417)" stroke-width=".79701" stroke-linecap="butt" stroke-miterlimit="10" stroke-linejoin="miter" fill="none" stroke="#000000" d="M66.79012 1.13391V-1.13374"/>
<path transform="matrix(1.00005,0,0,-1,40.0532,50.417)" d="M62.14375-15.87823H71.43647V-3.5248099H62.14375Z" fill="#ffffff"/>
<use data-text="&#x03c0;" xlink:href="#font_4_1" transform="matrix(6.9741489,0,0,-6.9738,104.39142,57.94)"/>
<path transform="matrix(1.00005,0,0,-1,-20.860844,24.446)" stroke-width=".3985" stroke-linecap="butt" stroke-miterlimit="10" stroke-linejoin="miter" fill="none" stroke="#000000" d="M125.246-34.926H130.155"/>
<use data-text="2" xlink:href="#font_5_1" transform="matrix(6.9741489,0,0,-6.9738,104.86043,65.298007)"/>
<path transform="matrix(1.00005,0,0,-1,40.0532,50.417)" stroke-width=".79701" stroke-linecap="butt" stroke-miterlimit="10" stroke-linejoin="miter" fill="none" stroke="#000000" d="M100.18552 1.13391V-1.13374"/>
<path transform="matrix(1.00005,0,0,-1,40.0532,50.417)" d="M93.5535-17.36987H106.81752V-3.5247889H93.5535Z" fill="#ffffff"/>
<use data-text="3" xlink:href="#font_5_2" transform="matrix(6.9741489,0,0,-6.9738,135.80298,59.432)"/>
<use data-text="&#x03c0;" xlink:href="#font_4_1" transform="matrix(6.9741489,0,0,-6.9738,139.77417,59.432)"/>
<path transform="matrix(1.00005,0,0,-1,10.550728,25.938)" stroke-width=".3985" stroke-linecap="butt" stroke-miterlimit="10" stroke-linejoin="miter" fill="none" stroke="#000000" d="M125.246-34.926H134.126"/>
<use data-text="4" xlink:href="#font_5_3" transform="matrix(6.9741489,0,0,-6.9738,138.2581,66.79)"/>
<path transform="matrix(1.00005,0,0,-1,40.0532,50.417)" stroke-width=".79701" stroke-linecap="butt" stroke-miterlimit="10" stroke-linejoin="miter" fill="none" stroke="#ff0000" d="M-26.27008-32.6106C-25.95479-31.05132-25.95479-31.05132-25.72452-30.05469-25.49426-29.05806-25.12495-27.65192-24.89468-26.83372-24.66443-26.0155-24.29514-24.84297-24.06488-24.15755-23.83461-23.47214-23.46532-22.47818-23.23505-21.89368-23.00478-21.30919-22.6355-20.45026-22.40523-19.94487-22.17497-19.4395-21.80566-18.69383-21.5754-18.25125-21.34514-17.80867-20.97585-17.14766-20.74559-16.75504-20.51532-16.36241-20.14601-15.77266-19.91576-15.42146-19.68549-15.07027-19.31621-14.54076-19.08594-14.22386-18.85568-13.90698-18.48637-13.42601-18.2561-13.13751-18.02585-12.84903-17.65656-12.40901-17.4263-12.14459-17.19603-11.88019-16.82672-11.47565-16.59647-11.23178-16.3662-10.98792-15.99692-10.6132-15.76665-10.38696-15.53638-10.16072-15.16708-9.81235-14.93681-9.60114-14.70656-9.38992-14.33727-9.06287-14.10701-8.86462-13.87674-8.6664-13.50742-8.35922-13.27716-8.1724-13.04689-7.98558-12.6776-7.69505-12.44733-7.51807-12.21706-7.3411-11.84778-7.06517-11.61751-6.89677-11.38725-6.7284-11.01794-6.46536-10.78767-6.30438-10.55742-6.14342-10.18813-5.89105-9.95787-5.73657-9.7276-5.58206-9.3583-5.33961-9.12804-5.19087-8.89777-5.04214-8.52849-4.80829-8.29822-4.66457-8.06796-4.52086-7.69865-4.29443-7.46838-4.15506-7.23813-4.01569-6.86884-3.79576-6.63858-3.66006-6.40831-3.52435-6.039-3.30954-5.80875-3.177-5.57848-3.04448-5.2092-2.8347-4.97893-2.70486-4.74866-2.57503-4.37936-2.36887-4.1491-2.2412-3.91884-2.11351-3.54955-1.91054-3.31929-1.7846-3.08902-1.65868-2.71971-1.45813-2.48946-1.33356-2.25919-1.20897-1.88991-1.01027-1.65964-.88667-1.42937-.76308-1.06007-.56575-.8298-.44272-.59955-.31969-.23016-.1228 0 0 .23016 .1228 .59898 .31955 .82915 .44255 1.05933 .56555 1.42871 .7629 1.65897 .88649 1.88924 1.0101 2.25853 1.2088 2.4888 1.33339 2.71907 1.45796 3.08835 1.65852 3.31862 1.78442 3.54887 1.91034 3.91818 2.11316 4.14844 2.24084 4.37871 2.36852 4.748 2.57483 4.97826 2.70468 5.20853 2.83455 5.57782 3.04434 5.80809 3.17683 6.03836 3.30934 6.40767 3.52402 6.63794 3.65971 6.8682 3.79541 7.23749 4.01549 7.46776 4.15488 7.69801 4.29428 8.06732 4.5207 8.29758 4.6644 8.52785 4.80809 8.89713 5.04182 9.1274 5.19052 9.35767 5.33925 9.72696 5.5818 9.95723 5.73622 10.18748 5.89061 10.55678 6.14247 10.78705 6.30334 11.0173 6.46422 11.38661 6.72723 11.61687 6.89575 11.84714 7.06425 12.21643 7.34085 12.44669 7.5179 12.67696 7.69496 13.04625 7.98508 13.27652 8.17188 13.50679 8.35869 13.87607 8.66612 14.10634 8.86429 14.3366 9.06244 14.7059 9.38885 14.93616 9.6001 15.16643 9.81136 15.53572 10.16055 15.76598 10.3868 15.99625 10.61304 16.36554 10.98691 16.59581 11.23074 16.82608 11.47458 17.19536 11.87991 17.42563 12.14426 17.65588 12.40858 18.02519 12.84756 18.25546 13.13596 18.48572 13.42436 18.85501 13.90572 19.08527 14.22282 19.31554 14.53993 19.68483 15.07018 19.9151 15.42146 20.14537 15.77275 20.51468 16.36226 20.74495 16.75468 20.9752 17.14713 21.3445 17.80742 21.57477 18.24986 21.80502 18.6923 22.17433 19.43825 22.40459 19.94348 22.63486 20.44872 23.00415 21.30682 23.2344 21.89127 23.46468 22.4757 23.83397 23.47018 24.06424 24.15564 24.2945 24.84113 24.66379 26.01366 24.89406 26.83163 25.12431 27.64961 25.49362 29.05444 25.72388 30.05106 25.95415 31.04768 26.5537 34.0146 26.26959 32.60849"/>
<path transform="matrix(-.19815989,.98012,.98016896,.19815,13.781818,83.02758)" d="M1.0361 0C-.25902 .25902-1.55415 .77707-3.1083 1.68365-1.55415 .51805-1.55415-.51805-3.1083-1.68365-1.55415-.77707-.25902-.25902 1.0361 0Z" fill="#ff0000"/>
<path transform="matrix(-.19815989,.98012,.98016896,.19815,13.781818,83.02758)" stroke-width=".79701" stroke-linecap="butt" stroke-linejoin="round" fill="none" stroke="#ff0000" d="M1.0361 0C-.25902 .25902-1.55415 .77707-3.1083 1.68365-1.55415 .51805-1.55415-.51805-3.1083-1.68365-1.55415-.77707-.25902-.25902 1.0361 0Z"/>
<path transform="matrix(.19804989,-.98013,-.98017898,-.19804,66.324108,17.80851)" d="M1.0361 0C-.25902 .25902-1.55415 .77707-3.1083 1.68365-1.55415 .51805-1.55415-.51805-3.1083-1.68365-1.55415-.77707-.25902-.25902 1.0361 0Z" fill="#ff0000"/>
<path transform="matrix(.19804989,-.98013,-.98017898,-.19804,66.324108,17.80851)" stroke-width=".79701" stroke-linecap="butt" stroke-linejoin="round" fill="none" stroke="#ff0000" d="M1.0361 0C-.25902 .25902-1.55415 .77707-3.1083 1.68365-1.55415 .51805-1.55415-.51805-3.1083-1.68365-1.55415-.77707-.25902-.25902 1.0361 0Z"/>
<path transform="matrix(1.00005,0,0,-1,40.0532,50.417)" stroke-width=".79701" stroke-linecap="butt" stroke-miterlimit="10" stroke-linejoin="miter" fill="none" stroke="#ff0000" d="M40.52-32.6106C40.83528-31.05132 40.83528-31.05132 41.06555-30.05469 41.29582-29.05806 41.66513-27.65192 41.8954-26.83372 42.12566-26.0155 42.49496-24.84297 42.72523-24.15755 42.95549-23.47214 43.32478-22.47818 43.55504-21.89368 43.78531-21.30919 44.15462-20.45026 44.38487-19.94487 44.61514-19.4395 44.98442-18.69383 45.21469-18.25125 45.44495-17.80867 45.81425-17.14766 46.04453-16.75504 46.27478-16.36241 46.64407-15.77266 46.87433-15.42146 47.1046-15.07027 47.4739-14.54076 47.70416-14.22386 47.93443-13.90698 48.30371-13.42601 48.53398-13.13751 48.76425-12.84903 49.13354-12.40901 49.36382-12.14459 49.59407-11.88019 49.96336-11.47565 50.19362-11.23178 50.42389-10.98792 50.7932-10.6132 51.02345-10.38696 51.25372-10.16072 51.623-9.81235 51.85327-9.60114 52.08354-9.38992 52.45284-9.06287 52.6831-8.86462 52.91336-8.6664 53.28265-8.35922 53.51292-8.1724 53.74318-7.98558 54.11249-7.69505 54.34274-7.51807 54.57301-7.3411 54.94229-7.06517 55.17256-6.89677 55.40283-6.7284 55.77214-6.46536 56.00241-6.30438 56.23267-6.14342 56.60197-5.89105 56.83224-5.73657 57.0625-5.58206 57.4318-5.33961 57.66205-5.19087 57.89232-5.04214 58.26163-4.80829 58.49188-4.66457 58.72215-4.52086 59.09143-4.29443 59.3217-4.15506 59.55197-4.01569 59.92126-3.79576 60.15154-3.66006 60.38179-3.52435 60.75108-3.30954 60.98134-3.177 61.21161-3.04448 61.58092-2.8347 61.81117-2.70486 62.04144-2.57503 62.41072-2.36887 62.64099-2.2412 62.87126-2.11351 63.24055-1.91054 63.47083-1.7846 63.70108-1.65868 64.07037-1.45813 64.30064-1.33356 64.5309-1.20897 64.9002-1.01027 65.13046-.88667 65.36073-.76308 65.73001-.56575 65.96028-.44272 66.19055-.31969 66.55994-.1228 66.79012 0 67.02028 .1228 67.38911 .31955 67.6193 .44255 67.84946 .56555 68.21886 .7629 68.44911 .88649 68.67938 1.0101 69.04868 1.2088 69.27893 1.33339 69.5092 1.45796 69.8785 1.65852 70.10876 1.78442 70.33904 1.91034 70.70831 2.11316 70.93858 2.24084 71.16884 2.36852 71.53815 2.57483 71.76842 2.70468 71.99867 2.83455 72.36797 3.04434 72.59822 3.17683 72.82849 3.30934 73.19778 3.52402 73.42805 3.65971 73.65833 3.79541 74.0276 4.01549 74.25787 4.15488 74.48813 4.29428 74.85744 4.5207 75.0877 4.6644 75.31796 4.80809 75.68726 5.04182 75.91751 5.19052 76.14778 5.33925 76.5171 5.5818 76.74736 5.73622 76.97763 5.89061 77.34692 6.14247 77.5772 6.30334 77.80746 6.46422 78.17674 6.72723 78.40701 6.89575 78.63727 7.06425 79.00658 7.34085 79.23683 7.5179 79.4671 7.69496 79.8364 7.98508 80.06665 8.17188 80.29692 8.35869 80.66621 8.66612 80.89648 8.86429 81.12675 9.06244 81.49603 9.38885 81.7263 9.6001 81.95656 9.81136 82.32587 10.16055 82.55614 10.3868 82.78639 10.61304 83.15569 10.98691 83.38594 11.23074 83.61621 11.47458 83.9855 11.87991 84.21577 12.14426 84.44604 12.40858 84.81532 12.84756 85.0456 13.13596 85.27585 13.42436 85.64516 13.90572 85.87543 14.22282 86.10568 14.53993 86.47498 15.07018 86.70523 15.42146 86.9355 15.77275 87.30481 16.36226 87.53506 16.75468 87.76534 17.14713 88.13461 17.80742 88.36488 18.24986 88.59514 18.6923 88.96445 19.43825 89.19472 19.94348 89.42497 20.44872 89.79427 21.30682 90.02452 21.89127 90.25479 22.4757 90.62411 23.47018 90.85437 24.15564 91.08464 24.84113 91.45393 26.01366 91.6842 26.83163 91.91447 27.64961 92.28375 29.05444 92.51402 30.05106 92.74428 31.04768 93.34384 34.0146 93.0597 32.60849"/>
<path transform="matrix(-.19815989,.98012,.98016896,.19815,80.57524,83.02758)" d="M1.0361 0C-.25902 .25902-1.55415 .77707-3.1083 1.68365-1.55415 .51805-1.55415-.51805-3.1083-1.68365-1.55415-.77707-.25902-.25902 1.0361 0Z" fill="#ff0000"/>
<path transform="matrix(-.19815989,.98012,.98016896,.19815,80.57524,83.02758)" stroke-width=".79701" stroke-linecap="butt" stroke-linejoin="round" fill="none" stroke="#ff0000" d="M1.0361 0C-.25902 .25902-1.55415 .77707-3.1083 1.68365-1.55415 .51805-1.55415-.51805-3.1083-1.68365-1.55415-.77707-.25902-.25902 1.0361 0Z"/>
<path transform="matrix(.1980799,-.98013,-.98017898,-.19807,133.11756,17.80851)" d="M1.0361 0C-.25902 .25902-1.55415 .77707-3.1083 1.68365-1.55415 .51805-1.55415-.51805-3.1083-1.68365-1.55415-.77707-.25902-.25902 1.0361 0Z" fill="#ff0000"/>
<path transform="matrix(.1980799,-.98013,-.98017898,-.19807,133.11756,17.80851)" stroke-width=".79701" stroke-linecap="butt" stroke-linejoin="round" fill="none" stroke="#ff0000" d="M1.0361 0C-.25902 .25902-1.55415 .77707-3.1083 1.68365-1.55415 .51805-1.55415-.51805-3.1083-1.68365-1.55415-.77707-.25902-.25902 1.0361 0Z"/>
</svg>
