<svg xmlns="http://www.w3.org/2000/svg" xmlns:xlink="http://www.w3.org/1999/xlink" version="1.1" width="147" height="96" viewBox="0 0 147 96">
<path transform="matrix(1.00006,0,0,-1.00006,2.2949982,72.86841)" stroke-width=".79701" stroke-linecap="butt" stroke-miterlimit="10" stroke-linejoin="miter" fill="none" stroke="#000000" d="M0-21.2601H142.48685V70.867H0V-21.2601"/>
<path transform="matrix(1.00006,0,0,-1.00006,2.2949982,72.86841)" stroke-width=".79701" stroke-linecap="butt" stroke-miterlimit="10" stroke-linejoin="miter" fill="none" stroke="#000000" d="M0 0H142.48685"/>
<path transform="matrix(1.00006,0,0,-1.00006,2.2949982,72.86841)" stroke-width=".79701" stroke-linecap="butt" stroke-miterlimit="10" stroke-linejoin="miter" fill="none" stroke="#000000" d="M0-21.2601V70.867"/>
<path transform="matrix(1.00006,0,0,-1.00006,2.2949982,72.86841)" stroke-width=".79701" stroke-linecap="butt" stroke-miterlimit="10" stroke-linejoin="miter" fill="none" stroke="#000000" d="M11.8737 1.4173V0"/>
<path transform="matrix(1.00006,0,0,-1.00006,2.2949982,72.86841)" stroke-width=".79701" stroke-linecap="butt" stroke-miterlimit="10" stroke-linejoin="miter" fill="none" stroke="#000000" d="M23.74779 1.4173V0"/>
<path transform="matrix(1.00006,0,0,-1.00006,2.2949982,72.86841)" stroke-width=".79701" stroke-linecap="butt" stroke-miterlimit="10" stroke-linejoin="miter" fill="none" stroke="#000000" d="M35.6215 1.4173V0"/>
<path transform="matrix(1.00006,0,0,-1.00006,2.2949982,72.86841)" stroke-width=".79701" stroke-linecap="butt" stroke-miterlimit="10" stroke-linejoin="miter" fill="none" stroke="#000000" d="M47.49559 1.4173V0"/>
<path transform="matrix(1.00006,0,0,-1.00006,2.2949982,72.86841)" stroke-width=".79701" stroke-linecap="butt" stroke-miterlimit="10" stroke-linejoin="miter" fill="none" stroke="#000000" d="M59.36934 1.4173V0"/>
<path transform="matrix(1.00006,0,0,-1.00006,2.2949982,72.86841)" stroke-width=".79701" stroke-linecap="butt" stroke-miterlimit="10" stroke-linejoin="miter" fill="none" stroke="#000000" d="M71.24341 1.4173V0"/>
<path transform="matrix(1.00006,0,0,-1.00006,2.2949982,72.86841)" stroke-width=".79701" stroke-linecap="butt" stroke-miterlimit="10" stroke-linejoin="miter" fill="none" stroke="#000000" d="M83.11714 1.4173V0"/>
<path transform="matrix(1.00006,0,0,-1.00006,2.2949982,72.86841)" stroke-width=".79701" stroke-linecap="butt" stroke-miterlimit="10" stroke-linejoin="miter" fill="none" stroke="#000000" d="M94.99123 1.4173V0"/>
<path transform="matrix(1.00006,0,0,-1.00006,2.2949982,72.86841)" stroke-width=".79701" stroke-linecap="butt" stroke-miterlimit="10" stroke-linejoin="miter" fill="none" stroke="#000000" d="M106.86494 1.4173V0"/>
<path transform="matrix(1.00006,0,0,-1.00006,2.2949982,72.86841)" stroke-width=".79701" stroke-linecap="butt" stroke-miterlimit="10" stroke-linejoin="miter" fill="none" stroke="#000000" d="M118.73903 1.4173V0"/>
<path transform="matrix(1.00006,0,0,-1.00006,2.2949982,72.86841)" stroke-width=".79701" stroke-linecap="butt" stroke-miterlimit="10" stroke-linejoin="miter" fill="none" stroke="#000000" d="M130.61277 1.4173V0"/>
<path transform="matrix(1.00006,0,0,-1.00006,2.2949982,72.86841)" stroke-width=".79701" stroke-linecap="butt" stroke-miterlimit="10" stroke-linejoin="miter" fill="none" stroke="#000000" d="M142.48685 1.4173V0"/>
<path transform="matrix(1.00006,0,0,-1.00006,2.2949982,72.86841)" stroke-width=".79701" stroke-linecap="butt" stroke-miterlimit="10" stroke-linejoin="miter" fill="none" stroke="#000000" d="M1.81422-21.2601H0"/>
<path transform="matrix(1.00006,0,0,-1.00006,2.2949982,72.86841)" stroke-width=".79701" stroke-linecap="butt" stroke-miterlimit="10" stroke-linejoin="miter" fill="none" stroke="#000000" d="M1.81422-14.17339H0"/>
<path transform="matrix(1.00006,0,0,-1.00006,2.2949982,72.86841)" stroke-width=".79701" stroke-linecap="butt" stroke-miterlimit="10" stroke-linejoin="miter" fill="none" stroke="#000000" d="M1.81422-7.08669H0"/>
<path transform="matrix(1.00006,0,0,-1.00006,2.2949982,72.86841)" stroke-width=".79701" stroke-linecap="butt" stroke-miterlimit="10" stroke-linejoin="miter" fill="none" stroke="#000000" d="M1.81422 0H0"/>
<path transform="matrix(1.00006,0,0,-1.00006,2.2949982,72.86841)" stroke-width=".79701" stroke-linecap="butt" stroke-miterlimit="10" stroke-linejoin="miter" fill="none" stroke="#000000" d="M1.81422 7.08669H0"/>
<path transform="matrix(1.00006,0,0,-1.00006,2.2949982,72.86841)" stroke-width=".79701" stroke-linecap="butt" stroke-miterlimit="10" stroke-linejoin="miter" fill="none" stroke="#000000" d="M1.81422 14.17339H0"/>
<path transform="matrix(1.00006,0,0,-1.00006,2.2949982,72.86841)" stroke-width=".79701" stroke-linecap="butt" stroke-miterlimit="10" stroke-linejoin="miter" fill="none" stroke="#000000" d="M1.81422 21.2601H0"/>
<path transform="matrix(1.00006,0,0,-1.00006,2.2949982,72.86841)" stroke-width=".79701" stroke-linecap="butt" stroke-miterlimit="10" stroke-linejoin="miter" fill="none" stroke="#000000" d="M1.81422 28.3468H0"/>
<path transform="matrix(1.00006,0,0,-1.00006,2.2949982,72.86841)" stroke-width=".79701" stroke-linecap="butt" stroke-miterlimit="10" stroke-linejoin="miter" fill="none" stroke="#000000" d="M1.81422 35.43349H0"/>
<path transform="matrix(1.00006,0,0,-1.00006,2.2949982,72.86841)" stroke-width=".79701" stroke-linecap="butt" stroke-miterlimit="10" stroke-linejoin="miter" fill="none" stroke="#000000" d="M1.81422 42.5202H0"/>
<path transform="matrix(1.00006,0,0,-1.00006,2.2949982,72.86841)" stroke-width=".79701" stroke-linecap="butt" stroke-miterlimit="10" stroke-linejoin="miter" fill="none" stroke="#000000" d="M1.81422 49.6069H0"/>
<path transform="matrix(1.00006,0,0,-1.00006,2.2949982,72.86841)" stroke-width=".79701" stroke-linecap="butt" stroke-miterlimit="10" stroke-linejoin="miter" fill="none" stroke="#000000" d="M1.81422 56.69362H0"/>
<path transform="matrix(1.00006,0,0,-1.00006,2.2949982,72.86841)" stroke-width=".79701" stroke-linecap="butt" stroke-miterlimit="10" stroke-linejoin="miter" fill="none" stroke="#000000" d="M1.81422 63.7803H0"/>
<path transform="matrix(1.00006,0,0,-1.00006,2.2949982,72.86841)" stroke-width=".79701" stroke-linecap="butt" stroke-miterlimit="10" stroke-linejoin="miter" fill="none" stroke="#000000" d="M1.81422 70.867H0"/>
<path transform="matrix(1.00006,0,0,-1.00006,2.2949982,72.86841)" stroke-width=".79701" stroke-linecap="butt" stroke-miterlimit="10" stroke-linejoin="miter" fill="none" stroke="#ff0000" d="M0-9.83395C0-9.83395 1.6083-11.97664 2.226-12.5503 2.8437-13.12395 3.8343-13.76286 4.45201-13.96848 5.06972-14.1741 6.06033-14.20279 6.67804-14.03227 7.29575-13.86177 8.28636-13.27934 8.90407-12.73952 9.52177-12.1997 10.51239-11.02988 11.1301-10.1416 11.74779-9.25331 12.7384-7.54025 13.3561-6.33742 13.9738-5.1346 14.96443-2.94362 15.58212-1.47246 16.19983-.0013 17.19044 2.58273 17.80815 4.26567 18.42586 5.94861 19.41647 8.82692 20.03418 10.65695 20.65189 12.487 21.64249 15.54866 22.2602 17.45537 22.87788 19.36209 23.86852 22.48907 24.48622 24.39925 25.10391 26.3094 26.09454 29.38205 26.71223 31.22253 27.32994 33.063 28.32056 35.96405 28.93826 37.6641 29.55597 39.36414 30.54657 41.98105 31.16428 43.47525 31.78198 44.96944 32.77261 47.2024 33.3903 48.43321 34.00801 49.66402 34.99863 51.42583 35.61633 52.34605 36.23402 53.2663 37.22466 54.49117 37.84235 55.06563 38.46005 55.64012 39.45067 56.28001 40.06836 56.48653 40.68607 56.69305 41.6767 56.72372 42.2944 56.55411 42.9121 56.38449 43.90271 55.80307 44.52042 55.26407 45.13812 54.72507 46.12874 53.55684 46.74644 52.66937 47.36414 51.78192 48.35475 50.06992 48.97246 48.8679 49.59015 47.66591 50.5808 45.47675 51.19849 44.00618 51.8162 42.53561 52.8068 39.95168 53.4245 38.2691 54.0422 36.58655 55.03282 33.70918 55.65053 31.87944 56.26823 30.0497 57.25883 26.98813 57.87654 25.08157 58.49425 23.175 59.48488 20.04855 60.10258 18.13824 60.72028 16.22794 61.71089 13.15411 62.32858 11.31334 62.94629 9.47258 63.93692 6.57164 64.55461 4.87122 65.17232 3.17082 66.16293 .5527 66.78062-.94206 67.39833-2.43684 68.38896-4.6707 69.00667-5.90218 69.62437-7.13365 70.61497-8.89676 71.23268-9.81773 71.85037-10.73871 72.841-11.96463 73.45871-12.54001 74.0764-13.11539 75.06703-13.75726 75.68471-13.96469 76.30241-14.17212 77.29306-14.20361 77.91075-14.03497 78.52846-13.86633 79.51906-13.28735 80.13676-12.74925 80.75447-12.21117 81.74509-11.04344 82.3628-10.15674 82.9805-9.27003 83.97112-7.55975 84.58882-6.3585 85.2065-5.15726 86.19714-2.96898 86.81485-1.49893 87.43254-.0289 88.42316 2.55437 89.04085 4.23648 89.65855 5.9186 90.64917 8.79507 91.26688 10.62451 91.88458 12.45396 92.8752 15.51538 93.4929 17.42186 94.11061 19.32835 95.10123 22.45486 95.71893 24.36517 96.33664 26.27548 97.32724 29.34909 97.94495 31.1901 98.56264 33.03108 99.55327 35.93295 100.17096 37.63382 100.78867 39.33469 101.7793 41.95337 102.39699 43.44875 103.0147 44.94414 104.00531 47.17935 104.62302 48.41159 105.24072 49.64381 106.23132 51.40802 106.84903 52.32983 107.46674 53.25165 108.45735 54.47923 109.07506 55.05537 109.69275 55.6315 110.68338 56.27388 111.30109 56.4822 111.91878 56.69052 112.90941 56.7244 113.5271 56.55681 114.1448 56.38922 115.1354 55.81154 115.75311 55.27434 116.37082 54.73715 117.36143 53.571 117.97914 52.68506 118.59685 51.7991 119.58746 50.08957 120.20517 48.88899 120.82288 47.68842 121.81349 45.50143 122.4312 44.03215 123.04889 42.56285 124.0395 39.98105 124.6572 38.2994 125.2749 36.61772 126.26553 33.74118 126.88322 31.91188 127.50093 30.08258 128.49155 27.0215 129.10926 25.1151 129.72696 23.20866 130.71758 20.08215 131.33528 18.17177 131.95299 16.26138 132.94359 13.18755 133.5613 11.34633 134.17899 9.50511 135.16962 6.60281 135.78733 4.9015 136.40502 3.2002 137.39565 .5804 138.01334-.91556 138.63105-2.41156 139.62166-4.64757 140.23937-5.88055 140.85707-7.11354 142.46538-9.80205 142.46538-9.80205"/>
</svg>
