<svg xmlns="http://www.w3.org/2000/svg" xmlns:xlink="http://www.w3.org/1999/xlink" version="1.1" width="196" height="130" viewBox="0 0 196 130">
<defs>
<path id="font_1_1" d="M.33399964 .30233766C.33999635 .32835389 .36299134 .42037965 .43299867 .42037965 .43798829 .42037965 .46199037 .42037965 .48298646 .40734864 .45498658 .402359 .43499757 .37734986 .43499757 .35334779 .43499757 .33735658 .44599916 .31835938 .47299195 .31835938 .49499513 .31835938 .5269928 .3363495 .5269928 .37635804 .5269928 .42837525 .46798707 .4423828 .43399049 .4423828 .37599183 .4423828 .34098817 .38935853 .32899476 .36634828 .3039856 .43237306 .25 .4423828 .22099304 .4423828 .116989139 .4423828 .05999756 .3133545 .05999756 .28834535 .05999756 .27833558 .069992069 .27833558 .07199097 .27833558 .07998657 .27833558 .08299255 .28033448 .084991458 .28933717 .11898804 .39535523 .18499756 .42037965 .21899414 .42037965 .23799134 .42037965 .272995 .4113617 .272995 .35334779 .272995 .32235719 .2559967 .25532533 .21899414 .11528015 .20298767 .053268434 .16799927 .011245728 .12399292 .011245728 .117996219 .011245728 .09498596 .011245728 .07398987 .024276734 .09899902 .029266358 .12098694 .05027771 .12098694 .07827759 .12098694 .105270389 .09899902 .11328125 .083999637 .11328125 .053985597 .11328125 .0289917 .08728027 .0289917 .055267335 .0289917 .009246826 .07899475-.0107421879 .12298584-.0107421879 .18899536-.0107421879 .22499085 .059280397 .22799683 .0652771 .23999024 .028274537 .27598573-.0107421879 .33599855-.0107421879 .43899537-.0107421879 .49598695 .118270877 .49598695 .14328003 .49598695 .1532898 .4869995 .1532898 .48399354 .1532898 .47499085 .1532898 .47299195 .14929199 .47099305 .14228821 .43798829 .03527832 .36999513 .011245728 .33799745 .011245728 .29899598 .011245728 .2829895 .043273927 .2829895 .07727051 .2829895 .09927368 .2889862 .121276859 .2999878 .16529846L.33399964 .30233766Z"/>
<path id="font_1_2" d="M.48599244 .38136292C.48999024 .39537049 .48999024 .39736939 .48999024 .40437318 .48999024 .42237855 .47599793 .43138124 .46099855 .43138124 .45098878 .43138124 .43499757 .42536927 .42599488 .41036988 .42399598 .405365 .41600038 .37435914 .4119873 .35635377 .40499879 .33035279 .397995 .30334474 .3919983 .27633668L.34700013 .09628296C.34298707 .08126831 .2999878 .011245728 .23399353 .011245728 .18299866 .011245728 .17199707 .055267335 .17199707 .0922699 .17199707 .1382904 .18899536 .20030213 .22299195 .28833009 .23899842 .3293457 .24299622 .3403473 .24299622 .36035157 .24299622 .405365 .21099854 .4423828 .16099549 .4423828 .06599426 .4423828 .0289917 .29733277 .0289917 .28833009 .0289917 .27833558 .038986207 .27833558 .040985109 .27833558 .050994874 .27833558 .051986696 .28033448 .056991579 .29634095 .083999637 .3903656 .12399292 .42037965 .1579895 .42037965 .1659851 .42037965 .18299866 .42037965 .18299866 .3883667 .18299866 .36335755 .17298889 .3373413 .1659851 .31834413 .12599182 .21231079 .10798645 .1552887 .10798645 .10827637 .10798645 .019256592 .17098999-.0107421879 .22999573-.0107421879 .2689972-.0107421879 .30299378 .0062561037 .33099366 .03425598 .31799317-.017745972 .30599977-.06674194 .2659912-.11973572 .23999024-.15385437 .20199585-.18309021 .1559906-.18309021 .14199829-.18309021 .09700012-.18005371 .07998657-.14074707 .09599304-.14074707 .10899353-.14074707 .12298584-.1287384 .1329956-.11973572 .14299011-.10673523 .14299011-.08773804 .14299011-.056747438 .115997318-.052734376 .10598755-.052734376 .08299255-.052734376 .049987794-.068740848 .049987794-.11773682 .049987794-.16796875 .09399414-.20507813 .1559906-.20507813 .25898744-.20507813 .3619995-.11373901 .3899994-.00074768069L.48599244 .38136292Z"/>
<path id="font_2_1" d="M.6589966 .23046875C.6759949 .23046875 .69400027 .23046875 .69400027 .25045777 .69400027 .27046205 .6759949 .27046205 .6589966 .27046205H.117996219C.100997928 .27046205 .08299255 .27046205 .08299255 .25045777 .08299255 .23046875 .100997928 .23046875 .117996219 .23046875H.6589966Z"/>
<path id="font_3_4" d="M.2939911 .16503906V.07800293C.2939911 .041992189 .2919922 .0309906 .21798706 .0309906H.19699097V0C.23799134 .0029907227 .2899933 .0029907227 .33198548 .0029907227 .37399293 .0029907227 .4269867 .0029907227 .46798707 0V.0309906H.44699098C.37298585 .0309906 .37098695 .041992189 .37098695 .07800293V.16503906H.47099305V.19602967H.37098695V.65075686C.37098695 .67074587 .37098695 .6767578 .35499574 .6767578 .34599305 .6767578 .34298707 .6767578 .33499146 .66474917L.027999878 .19602967V.16503906H.2939911M.2999878 .19602967H.055999757L.2999878 .5688019V.19602967Z"/>
<path id="font_3_2" d="M.1269989 .07699585 .23298645 .18003845C.3889923 .31811524 .44898988 .3721466 .44898988 .47216798 .44898988 .5860901 .35899354 .6660156 .23699951 .6660156 .12399292 .6660156 .049987794 .57411196 .049987794 .48516847 .049987794 .4291687 .099990848 .4291687 .102996829 .4291687 .11999512 .4291687 .15499878 .44117738 .15499878 .48217774 .15499878 .5081787 .13699341 .5341797 .101989749 .5341797 .09399414 .5341797 .09199524 .5341797 .08898926 .5331726 .11199951 .59806826 .1659851 .63500979 .22399903 .63500979 .31498719 .63500979 .35798646 .5541382 .35798646 .47216798 .35798646 .39215089 .30799867 .31311036 .25299073 .25108338L.06098938 .036987306C.049987794 .025985718 .049987794 .023986817 .049987794 0H.42099L.44898988 .17404175H.42399598C.4189911 .14402771 .4119873 .1000061 .4019928 .084991458 .394989 .07699585 .32899476 .07699585 .30699159 .07699585H.1269989Z"/>
<path id="font_3_3" d="M.2899933 .35191346C.37199403 .37893678 .42999269 .4490509 .42999269 .52809146 .42999269 .6100464 .34199525 .6660156 .24598694 .6660156 .14498902 .6660156 .068984989 .60606387 .068984989 .53009036 .068984989 .49710084 .09098816 .47808839 .11999512 .47808839 .15098572 .47808839 .17098999 .50009158 .17098999 .5290985 .17098999 .57910159 .12399292 .57910159 .10899353 .57910159 .13999939 .62802127 .20599365 .64100649 .24198914 .64100649 .2829895 .64100649 .33799745 .6190338 .33799745 .5290985 .33799745 .51708987 .33599855 .45906068 .30999757 .4149933 .27999879 .36691285 .24598694 .36390687 .22099304 .36291505 .21299744 .36190797 .18899536 .35990907 .18199158 .35990907 .17399597 .35890199 .16699219 .35791017 .16699219 .3479004 .16699219 .33691407 .17399597 .33691407 .19099427 .33691407H.23498535C.31698609 .33691407 .35398866 .2686615 .35398866 .17037964 .35398866 .034469606 .2849884 .0055389406 .24099732 .0055389406 .19799805 .0055389406 .12298584 .022491456 .08799744 .08137512 .12298584 .07637024 .1539917 .09837341 .1539917 .1363678 .1539917 .17237854 .1269989 .19238281 .09799194 .19238281 .07398987 .19238281 .041992189 .17837525 .041992189 .1343689 .041992189 .043441774 .1349945-.022460938 .24398804-.022460938 .3659973-.022460938 .45700074 .06838989 .45700074 .17037964 .45700074 .252594 .3939972 .33088685 .2899933 .35191346Z"/>
<path id="font_3_1" d="M.2939911 .64004519C.2939911 .66400149 .2939911 .6660156 .2709961 .6660156 .20899964 .60227969 .12098694 .60227969 .08898926 .60227969V.57128909C.10899353 .57128909 .16799927 .57128909 .21998596 .5972748V.07902527C.21998596 .042999269 .21699524 .0309906 .1269989 .0309906H.09498596V0C.12998963 .0029907227 .21699524 .0029907227 .25698854 .0029907227 .29699708 .0029907227 .38398744 .0029907227 .4189911 0V.0309906H.3869934C.29699708 .0309906 .2939911 .041992189 .2939911 .07902527V.64004519Z"/>
<path id="font_3_5" d="M.13198853 .327713V.35173036C.13198853 .6047821 .2559967 .64100649 .30699159 .64100649 .33099366 .64100649 .37298585 .634964 .394989 .6007538 .37998963 .6007538 .33999635 .6007538 .33999635 .5557556 .33999635 .524765 .3639984 .5097656 .38598634 .5097656 .4019928 .5097656 .43199159 .51875308 .43199159 .5577545 .43199159 .6178589 .3880005 .6660156 .30499269 .6660156 .1769867 .6660156 .041992189 .5367584 .041992189 .31570436 .041992189 .048553468 .1579895-.022460938 .25099183-.022460938 .3619995-.022460938 .45700074 .07156372 .45700074 .2036438 .45700074 .33070375 .36799623 .4267578 .25698854 .4267578 .18899536 .4267578 .1519928 .37573243 .13198853 .327713M.25099183 .0055389406C.18798828 .0055389406 .1579895 .06556702 .1519928 .080566409 .13398743 .127594 .13398743 .2076416 .13398743 .22564698 .13398743 .30369569 .1659851 .40374757 .2559967 .40374757 .27198792 .40374757 .31799317 .40374757 .34899903 .34172059 .36698915 .30470277 .36698915 .2536621 .36698915 .20463562 .36698915 .15661621 .36698915 .10658264 .34999085 .0705719 .31999208 .010528564 .27398683 .0055389406 .25099183 .0055389406Z"/>
</defs>
<path transform="matrix(1.00002,0,0,-1.00002,120.64607,116.75008)" stroke-width=".3985" stroke-linecap="butt" stroke-miterlimit="10" stroke-linejoin="miter" fill="none" stroke="#00aeef" d="M-113.38724 0H56.69362M-113.38724 14.17339H56.69362M-113.38724 28.3468H56.69362M-113.38724 42.5202H56.69362M-113.38724 56.69362H56.69362M-113.38724 70.867H56.69362M-113.38724 85.04042H56.69362M-113.38724 99.20885H56.69362M-113.38718 0V99.21382M-99.21378 0V99.21382M-85.04037 0V99.21382M-70.86697 0V99.21382M-56.69359 0V99.21382M-42.52019 0V99.21382M-28.34679 0V99.21382M-14.17339 0V99.21382M0 0V99.21382M14.17339 0V99.21382M28.34679 0V99.21382M42.52019 0V99.21382M56.69359 0V99.21382M56.69362 99.21382"/>
<path transform="matrix(1.00002,0,0,-1.00002,120.64607,116.75008)" stroke-width=".79701" stroke-linecap="butt" stroke-miterlimit="10" stroke-linejoin="miter" fill="none" stroke="#000000" d="M-113.38724 0H63.76312"/>
<path transform="matrix(1.00002,0,0,-1.00002,184.41046,116.75008)" d="M1.0361 0C-.25902 .25902-1.55415 .77707-3.1083 1.68365-1.55415 .51805-1.55415-.51805-3.1083-1.68365-1.55415-.77707-.25902-.25902 1.0361 0Z"/>
<path transform="matrix(1.00002,0,0,-1.00002,184.41046,116.75008)" stroke-width=".79701" stroke-linecap="butt" stroke-linejoin="round" fill="none" stroke="#000000" d="M1.0361 0C-.25902 .25902-1.55415 .77707-3.1083 1.68365-1.55415 .51805-1.55415-.51805-3.1083-1.68365-1.55415-.77707-.25902-.25902 1.0361 0Z"/>
<use data-text="x" xlink:href="#font_1_1" transform="matrix(9.962799,0,0,-9.962799,189.56446,118.89512)"/>
<path transform="matrix(1.00002,0,0,-1.00002,120.64607,116.75008)" stroke-width=".79701" stroke-linecap="butt" stroke-miterlimit="10" stroke-linejoin="miter" fill="none" stroke="#000000" d="M0-2.83463V103.44849"/>
<path transform="matrix(0,-1.00002,-1.00002,-0,120.64607,13.299515)" d="M1.0361 0C-.25902 .25902-1.55415 .77707-3.1083 1.68365-1.55415 .51805-1.55415-.51805-3.1083-1.68365-1.55415-.77707-.25902-.25902 1.0361 0Z"/>
<path transform="matrix(0,-1.00002,-1.00002,-0,120.64607,13.299515)" stroke-width=".79701" stroke-linecap="butt" stroke-linejoin="round" fill="none" stroke="#000000" d="M1.0361 0C-.25902 .25902-1.55415 .77707-3.1083 1.68365-1.55415 .51805-1.55415-.51805-3.1083-1.68365-1.55415-.77707-.25902-.25902 1.0361 0Z"/>
<use data-text="y" xlink:href="#font_1_2" transform="matrix(9.962799,0,0,-9.962799,118.02502,6.2088625)"/>
<path transform="matrix(1.00002,0,0,-1.00002,120.64607,116.75008)" stroke-width=".79701" stroke-linecap="butt" stroke-miterlimit="10" stroke-linejoin="miter" fill="none" stroke="#000000" d="M-113.38724 1.4174V-1.41719"/>
<path transform="matrix(1.00002,0,0,-1.00002,120.64607,116.75008)" d="M-120.74863-13.05148H-106.02585V-3.8082505H-120.74863Z" fill="#ffffff"/>
<use data-text="&#x2212;" xlink:href="#font_2_1" transform="matrix(9.962799,0,0,-9.962799,.89167788,127.9753)"/>
<use data-text="4" xlink:href="#font_3_4" transform="matrix(9.962799,0,0,-9.962799,8.639832,127.9753)"/>
<path transform="matrix(1.00002,0,0,-1.00002,120.64607,116.75008)" stroke-width=".79701" stroke-linecap="butt" stroke-miterlimit="10" stroke-linejoin="miter" fill="none" stroke="#000000" d="M-56.69362 1.4174V-1.41719"/>
<path transform="matrix(1.00002,0,0,-1.00002,120.64607,116.75008)" d="M-64.05501-13.05148H-49.33223V-3.8082505H-64.05501Z" fill="#ffffff"/>
<use data-text="&#x2212;" xlink:href="#font_2_1" transform="matrix(9.962799,0,0,-9.962799,57.585817,127.9753)"/>
<use data-text="2" xlink:href="#font_3_2" transform="matrix(9.962799,0,0,-9.962799,65.33397,127.9753)"/>
<path transform="matrix(1.00002,0,0,-1.00002,120.64607,116.75008)" stroke-width=".79701" stroke-linecap="butt" stroke-miterlimit="10" stroke-linejoin="miter" fill="none" stroke="#000000" d="M56.69362 1.4174V-1.41719"/>
<path transform="matrix(1.00002,0,0,-1.00002,120.64607,116.75008)" d="M53.20665-12.22124H60.180589V-3.80826H53.20665Z" fill="#ffffff"/>
<use data-text="2" xlink:href="#font_3_2" transform="matrix(9.962799,0,0,-9.962799,174.85016,127.9753)"/>
<path transform="matrix(1.00002,0,0,-1.00002,120.64607,116.75008)" stroke-width=".79701" stroke-linecap="butt" stroke-miterlimit="10" stroke-linejoin="miter" fill="none" stroke="#000000" d="M-85.04042 1.4174V-1.41719"/>
<path transform="matrix(1.00002,0,0,-1.00002,120.64607,116.75008)" d="M-92.40181-13.05148H-77.67903V-3.8082505H-92.40181Z" fill="#ffffff"/>
<use data-text="&#x2212;" xlink:href="#font_2_1" transform="matrix(9.962799,0,0,-9.962799,29.23825,127.9753)"/>
<use data-text="3" xlink:href="#font_3_3" transform="matrix(9.962799,0,0,-9.962799,36.986406,127.9753)"/>
<path transform="matrix(1.00002,0,0,-1.00002,120.64607,116.75008)" stroke-width=".79701" stroke-linecap="butt" stroke-miterlimit="10" stroke-linejoin="miter" fill="none" stroke="#000000" d="M-28.3468 1.4174V-1.41719"/>
<path transform="matrix(1.00002,0,0,-1.00002,120.64607,116.75008)" d="M-35.70819-13.05148H-20.98541V-3.8082505H-35.70819Z" fill="#ffffff"/>
<use data-text="&#x2212;" xlink:href="#font_2_1" transform="matrix(9.962799,0,0,-9.962799,85.93338,127.9753)"/>
<use data-text="1" xlink:href="#font_3_1" transform="matrix(9.962799,0,0,-9.962799,93.68153,127.9753)"/>
<path transform="matrix(1.00002,0,0,-1.00002,120.64607,116.75008)" stroke-width=".79701" stroke-linecap="butt" stroke-miterlimit="10" stroke-linejoin="miter" fill="none" stroke="#000000" d="M28.3468 1.4174V-1.41719"/>
<path transform="matrix(1.00002,0,0,-1.00002,120.64607,116.75008)" d="M24.85983-12.22124H31.83377V-3.80826H24.85983Z" fill="#ffffff"/>
<use data-text="1" xlink:href="#font_3_1" transform="matrix(9.962799,0,0,-9.962799,146.5026,127.9753)"/>
<path transform="matrix(1.00002,0,0,-1.00002,120.64607,116.75008)" stroke-width=".79701" stroke-linecap="butt" stroke-miterlimit="10" stroke-linejoin="miter" fill="none" stroke="#000000" d="M2.83484 28.3468H-2.83441"/>
<path transform="matrix(1.00002,0,0,-1.00002,120.64607,116.75008)" d="M-12.19942 24.1403H-5.22548V32.55328H-12.19942Z" fill="#ffffff"/>
<use data-text="2" xlink:href="#font_3_2" transform="matrix(9.962799,0,0,-9.962799,109.44285,91.61257)"/>
<path transform="matrix(1.00002,0,0,-1.00002,120.64607,116.75008)" stroke-width=".79701" stroke-linecap="butt" stroke-miterlimit="10" stroke-linejoin="miter" fill="none" stroke="#000000" d="M2.83484 56.69362H-2.83441"/>
<path transform="matrix(1.00002,0,0,-1.00002,120.64607,116.75008)" d="M-12.19942 52.48712H-5.22548V60.9001H-12.19942Z" fill="#ffffff"/>
<use data-text="4" xlink:href="#font_3_4" transform="matrix(9.962799,0,0,-9.962799,109.44285,63.266004)"/>
<path transform="matrix(1.00002,0,0,-1.00002,120.64607,116.75008)" stroke-width=".79701" stroke-linecap="butt" stroke-miterlimit="10" stroke-linejoin="miter" fill="none" stroke="#000000" d="M2.83484 85.04042H-2.83441"/>
<path transform="matrix(1.00002,0,0,-1.00002,120.64607,116.75008)" d="M-12.19942 80.83392H-5.22548V89.2469H-12.19942Z" fill="#ffffff"/>
<use data-text="6" xlink:href="#font_3_5" transform="matrix(9.962799,0,0,-9.962799,109.44285,34.918436)"/>
<path transform="matrix(1.00002,0,0,-1.00002,120.64607,116.75008)" stroke-width=".79701" stroke-linecap="butt" stroke-miterlimit="10" stroke-linejoin="miter" fill="none" stroke="#ff0000" d="M-113.38724 70.867C-113.38724 70.867-111.46716 74.89117-110.7297 76.39613-109.99226 77.90111-108.80965 80.29599-108.07219 81.71376-107.33475 83.13153-106.15215 85.33841-105.41469 86.61443-104.67725 87.89043-103.49461 89.82527-102.75717 90.91039-102.01973 91.9955-100.8371 93.58266-100.09966 94.43513-99.36221 95.28763-98.1796 96.4673-97.44215 97.0546-96.7047 97.64188-95.52208 98.36844-94.78464 98.66797-94.04718 98.96748-92.86456 99.2134-92.1271 99.2134-91.38966 99.2134-90.20706 98.96748-89.4696 98.66797-88.73216 98.36844-87.54955 97.64182-86.81209 97.0546-86.07465 96.46736-84.89201 95.28801-84.15457 94.43558-83.41713 93.58315-82.23451 91.99594-81.49707 90.91081-80.75963 89.82571-79.577 87.89085-78.83955 86.61484-78.1021 85.33884-76.91948 83.13191-76.18204 81.7142-75.44458 80.2965-74.26198 77.90202-73.52452 76.397-72.78708 74.89198-71.60446 72.40144-70.867 70.867-70.12956 69.33258-68.94695 66.84285-68.20949 65.33788-67.47205 63.83292-66.28943 61.43797-65.55199 60.02026-64.81454 58.60255-63.63191 56.39603-62.89447 55.12003-62.15703 53.84401-60.9744 51.9088-60.23695 50.82362-59.4995 49.73846-58.3169 48.15137-57.57945 47.29887-56.842 46.44638-55.65938 45.26672-54.92192 44.67943-54.18448 44.09215-53.00186 43.36559-52.2644 43.06606-51.52696 42.76653-50.34436 42.52063-49.6069 42.52063-48.86946 42.52063-47.68683 42.76653-46.94939 43.06606-46.21194 43.36559-45.02931 44.09227-44.29187 44.67943-43.55443 45.2666-42.37181 46.44557-41.63437 47.29802-40.89691 48.15045-39.7143 49.73802-38.97685 50.8232-38.2394 51.90837-37.05678 53.84317-36.31932 55.11917-35.58188 56.39519-34.39928 58.60211-33.66182 60.01982-32.92438 61.43753-31.74176 63.83199-31.0043 65.33702-30.26686 66.84204-29.08424 69.33264-28.3468 70.867-27.60936 72.40138-26.42673 74.89081-25.68929 76.3957-24.95183 77.90062-23.76921 80.29556-23.03177 81.71333-22.29431 83.1311-21.11171 85.33798-20.37427 86.614-19.63681 87.89-18.4542 89.82478-17.71674 90.90996-16.9793 91.99513-15.79668 93.58266-15.05922 94.43513-14.32178 95.28763-13.13918 96.46693-12.40172 97.05415-11.66428 97.64139-10.48164 98.36794-9.7442 98.66753-9.00676 98.9671-7.82413 99.21333-7.08669 99.2134-6.34923 99.21344-5.16663 98.96748-4.42918 98.66797-3.69173 98.36844-2.50911 97.64175-1.77167 97.0546-1.03421 96.4674 .14839 95.28838 .88583 94.436 1.62326 93.58363 2.80588 91.99641 3.54333 90.91125 4.28078 89.82608 5.4634 87.89091 6.20085 86.61484 6.9383 85.33878 8.12093 83.13185 8.85837 81.7142 9.59581 80.29655 10.77843 77.9024 11.51587 76.39745 12.25333 74.89247 13.43594 72.40186 14.17339 70.86743 14.91084 69.33301 16.09346 66.84322 16.8309 65.3383 17.56836 63.8334 18.75096 61.43887 19.48842 60.02112 20.22586 58.60335 21.40848 56.39615 22.14594 55.12003 22.88338 53.84389 24.066 51.9088 24.80345 50.82362 25.5409 49.73846 26.72351 48.15132 27.46095 47.29887 28.1984 46.44644 29.38103 45.26715 30.11847 44.67987 30.85593 44.09258 32.03854 43.36565 32.77599 43.06606 33.51344 42.76646 34.69604 42.52063 35.43349 42.52063 36.17094 42.52063 37.35356 42.76653 38.09102 43.06606 38.82846 43.36559 40.01108 44.09227 40.74854 44.67943 41.48598 45.2666 42.66858 46.44563 43.40604 47.29802 44.14348 48.15039 45.32611 49.73766 46.06355 50.82275 46.801 51.90788 47.98363 53.84273 48.72107 55.11873 49.45853 56.39474 50.64113 58.60168 51.37857 60.0194 52.11603 61.4371 53.29865 63.83154 54.03609 65.33658 54.77354 66.8416 56.69362 70.86658 56.69362 70.86658"/>
</svg>
