<svg xmlns="http://www.w3.org/2000/svg" xmlns:xlink="http://www.w3.org/1999/xlink" version="1.1" width="174" height="96" viewBox="0 0 174 96">
<defs>
<path id="font_1_2" d="M.08799744 .059265138C.084991458 .044265748 .07899475 .021255494 .07899475 .01625061 .07899475-.0017547608 .09298706-.0107421879 .10798645-.0107421879 .11999512-.0107421879 .13798523-.002746582 .14498902 .01725769 .1459961 .019256592 .1579895 .06626892 .1639862 .091278079L.18598938 .18130493C.19198609 .2033081 .19799805 .22531128 .20298767 .24832154 .20698548 .26531983 .21499634 .29434205 .21598816 .29833985 .23098755 .3293457 .28399659 .42037965 .3789978 .42037965 .42399598 .42037965 .43299867 .38336183 .43299867 .35035707 .43299867 .3253479 .42599488 .29733277 .41799928 .26733399L.3899994 .1512909 .36999513 .07527161C.3659973 .055267335 .35699464 .021255494 .35699464 .01625061 .35699464-.0017547608 .37098695-.0107421879 .38598634-.0107421879 .4169922-.0107421879 .4229889 .014251709 .43099977 .04626465 .44499208 .10227966 .48199464 .24832154 .4909973 .28733827 .49398805 .30033876 .5469971 .42037965 .6559906 .42037965 .69898989 .42037965 .70999148 .3863678 .70999148 .35035707 .70999148 .29333497 .66799929 .17930603 .647995 .12628174 .6389923 .10227966 .6349945 .091278079 .6349945 .0712738 .6349945 .024261475 .66999819-.0107421879 .71699526-.0107421879 .8109894-.0107421879 .84799197 .13528443 .84799197 .14329529 .84799197 .1532898 .83898928 .1532898 .83599856 .1532898 .82598879 .1532898 .82598879 .15029907 .82099917 .13528443 .80599978 .08227539 .7739868 .011245728 .71899417 .011245728 .70199587 .011245728 .69499209 .021255494 .69499209 .044265748 .69499209 .0692749 .70399478 .09327698 .71299746 .11528015 .7319946 .16729737 .7739868 .27833558 .7739868 .3353424 .7739868 .4003601 .73399356 .4423828 .6589966 .4423828 .58399966 .4423828 .5329895 .3983612 .49598695 .34535218 .49499513 .35835267 .49198915 .3923645 .46398927 .41636659 .43899537 .43737794 .40699769 .4423828 .38198854 .4423828 .2919922 .4423828 .24299622 .37835694 .22599793 .35534669 .22099304 .41236878 .1789856 .4423828 .13398743 .4423828 .08799744 .4423828 .068984989 .4033661 .05999756 .38536073 .041992189 .35035707 .0289917 .29133607 .0289917 .28833009 .0289917 .27833558 .038986207 .27833558 .040985109 .27833558 .050994874 .27833558 .051986696 .2793274 .057998659 .30133058 .07499695 .37236024 .09498596 .42037965 .1309967 .42037965 .14698792 .42037965 .1619873 .41236878 .1619873 .37435914 .1619873 .35334779 .15899658 .3423462 .1459961 .29032899L.08799744 .059265138Z"/>
<path id="font_1_1" d="M.4269867 .6066284C.43399049 .63461306 .43798829 .64060977 .44999696 .6436157 .45899964 .6456146 .49198915 .6456146 .5130005 .6456146 .6139984 .6456146 .6589966 .6416168 .6589966 .56365969 .6589966 .54867556 .6549988 .50968936 .651001 .4837036 .6499939 .4797058 .647995 .4677124 .647995 .46472169 .647995 .45872499 .651001 .45173646 .6599884 .45173646 .67099 .45173646 .6729889 .45973207 .6749878 .4747162L.70199587 .64860537C.7029877 .65260317 .70399478 .6626129 .70399478 .66560366 .70399478 .6766052 .69400027 .6766052 .6769867 .6766052H.12199402C.09799194 .6766052 .09700012 .6756134 .08999634 .6566162L.02999878 .4807129C.0289917 .478714 .023986817 .46472169 .023986817 .46272279 .023986817 .45672608 .0289917 .45173646 .035995485 .45173646 .04598999 .45173646 .04699707 .45672608 .052993776 .4727173 .10699463 .6276245 .1329956 .6456146 .2809906 .6456146H.31999208C.34799195 .6456146 .34799195 .6416168 .34799195 .6336212 .34799195 .6276245 .34498597 .6156311 .34399415 .6126251L.20999146 .07896423C.20098877 .041992189 .19799805 .0309906 .09098816 .0309906 .054992677 .0309906 .04899597 .0309906 .04899597 .011993408 .04899597 0 .05999756 0 .06599426 0 .09298706 0 .12098694 .0019989014 .147995 .0019989014 .17599488 .0019989014 .20498657 .0029907227 .23298645 .0029907227 .26098634 .0029907227 .2889862 .0019989014 .31599427 .0019989014 .34498597 .0019989014 .375 0 .40299989 0 .41299439 0 .4249878 0 .4249878 .019989014 .4249878 .0309906 .4169922 .0309906 .3909912 .0309906 .3659973 .0309906 .35299684 .0309906 .32699586 .032989503 .2979889 .035995485 .2899933 .038986207 .2899933 .054977418 .2899933 .05596924 .2899933 .06097412 .2939911 .07595825L.4269867 .6066284Z"/>
<path id="font_2_4" d="M.2939911 .16503906V.07800293C.2939911 .041992189 .2919922 .0309906 .21798706 .0309906H.19699097V0C.23799134 .0029907227 .2899933 .0029907227 .33198548 .0029907227 .37399293 .0029907227 .4269867 .0029907227 .46798707 0V.0309906H.44699098C.37298585 .0309906 .37098695 .041992189 .37098695 .07800293V.16503906H.47099305V.19602967H.37098695V.65075686C.37098695 .67074587 .37098695 .6767578 .35499574 .6767578 .34599305 .6767578 .34298707 .6767578 .33499146 .66474917L.027999878 .19602967V.16503906H.2939911M.2999878 .19602967H.055999757L.2999878 .5688019V.19602967Z"/>
<path id="font_2_6" d="M.16299439 .4569702C.116989139 .486969 .11299133 .52098086 .11299133 .5379791 .11299133 .598999 .17799378 .64100649 .24899292 .64100649 .32199098 .64100649 .38598634 .58898928 .38598634 .51698306 .38598634 .45996095 .34700013 .4119568 .2869873 .37695313L.16299439 .4569702M.30899049 .36193849C.3809967 .3989563 .42999269 .45095826 .42999269 .51698306 .42999269 .6090088 .34098817 .6660156 .25 .6660156 .1499939 .6660156 .068984989 .59199526 .068984989 .49897767 .068984989 .4809723 .070999149 .43595887 .11299133 .38894654 .12399292 .37695313 .16099549 .35194398 .18598938 .33494569 .12799073 .30592347 .041992189 .24984741 .041992189 .15072632 .041992189 .04458618 .14399719-.022460938 .24899292-.022460938 .3619995-.022460938 .45700074 .06060791 .45700074 .16773987 .45700074 .20379639 .44599916 .24885559 .4079895 .2909088 .3889923 .31193543 .37298585 .3219452 .30899049 .36193849M.20899964 .3199463 .33198548 .24183655C.3600006 .2228241 .40699769 .19277954 .40699769 .13169861 .40699769 .05760193 .33198548 .0055389406 .25 .0055389406 .1639862 .0055389406 .09199524 .067611698 .09199524 .15072632 .09199524 .20880127 .12399292 .27288819 .20899964 .3199463Z"/>
<path id="font_2_2" d="M.2939911 .64004519C.2939911 .66400149 .2939911 .6660156 .2709961 .6660156 .20899964 .60227969 .12098694 .60227969 .08898926 .60227969V.57128909C.10899353 .57128909 .16799927 .57128909 .21998596 .5972748V.07902527C.21998596 .042999269 .21699524 .0309906 .1269989 .0309906H.09498596V0C.12998963 .0029907227 .21699524 .0029907227 .25698854 .0029907227 .29699708 .0029907227 .38398744 .0029907227 .4189911 0V.0309906H.3869934C.29699708 .0309906 .2939911 .041992189 .2939911 .07902527V.64004519Z"/>
<path id="font_2_3" d="M.1269989 .07699585 .23298645 .18003845C.3889923 .31811524 .44898988 .3721466 .44898988 .47216798 .44898988 .5860901 .35899354 .6660156 .23699951 .6660156 .12399292 .6660156 .049987794 .57411196 .049987794 .48516847 .049987794 .4291687 .099990848 .4291687 .102996829 .4291687 .11999512 .4291687 .15499878 .44117738 .15499878 .48217774 .15499878 .5081787 .13699341 .5341797 .101989749 .5341797 .09399414 .5341797 .09199524 .5341797 .08898926 .5331726 .11199951 .59806826 .1659851 .63500979 .22399903 .63500979 .31498719 .63500979 .35798646 .5541382 .35798646 .47216798 .35798646 .39215089 .30799867 .31311036 .25299073 .25108338L.06098938 .036987306C.049987794 .025985718 .049987794 .023986817 .049987794 0H.42099L.44898988 .17404175H.42399598C.4189911 .14402771 .4119873 .1000061 .4019928 .084991458 .394989 .07699585 .32899476 .07699585 .30699159 .07699585H.1269989Z"/>
<path id="font_2_5" d="M.13198853 .327713V.35173036C.13198853 .6047821 .2559967 .64100649 .30699159 .64100649 .33099366 .64100649 .37298585 .634964 .394989 .6007538 .37998963 .6007538 .33999635 .6007538 .33999635 .5557556 .33999635 .524765 .3639984 .5097656 .38598634 .5097656 .4019928 .5097656 .43199159 .51875308 .43199159 .5577545 .43199159 .6178589 .3880005 .6660156 .30499269 .6660156 .1769867 .6660156 .041992189 .5367584 .041992189 .31570436 .041992189 .048553468 .1579895-.022460938 .25099183-.022460938 .3619995-.022460938 .45700074 .07156372 .45700074 .2036438 .45700074 .33070375 .36799623 .4267578 .25698854 .4267578 .18899536 .4267578 .1519928 .37573243 .13198853 .327713M.25099183 .0055389406C.18798828 .0055389406 .1579895 .06556702 .1519928 .080566409 .13398743 .127594 .13398743 .2076416 .13398743 .22564698 .13398743 .30369569 .1659851 .40374757 .2559967 .40374757 .27198792 .40374757 .31799317 .40374757 .34899903 .34172059 .36698915 .30470277 .36698915 .2536621 .36698915 .20463562 .36698915 .15661621 .36698915 .10658264 .34999085 .0705719 .31999208 .010528564 .27398683 .0055389406 .25099183 .0055389406Z"/>
<path id="font_2_1" d="M.45999146 .31976319C.45999146 .39982606 .45498658 .47988893 .41999818 .5539398 .37399293 .65000918 .2919922 .6660156 .25 .6660156 .18998719 .6660156 .116989139 .64001467 .07598877 .54693606 .04399109 .47789 .038986207 .39982606 .038986207 .31976319 .038986207 .24472046 .042999269 .15464783 .083999637 .07859802 .1269989-.0024719239 .19999695-.022460938 .24899292-.022460938 .30299378-.022460938 .3789978-.0014648438 .4229889 .09359741 .45498658 .16265869 .45999146 .2407074 .45999146 .31976319M.24899292-.00047302247C.20999146-.00047302247 .15098572 .024551392 .1329956 .12062073 .12199402 .18066406 .12199402 .2727356 .12199402 .3317871 .12199402 .39582826 .12199402 .46188355 .12998963 .5159149 .14898682 .63500979 .22399903 .64401248 .24899292 .64401248 .28199769 .64401248 .34799195 .6259918 .36698915 .52693179 .3769989 .47088624 .3769989 .39482118 .3769989 .3317871 .3769989 .25672914 .3769989 .18867493 .3659973 .12461853 .35099793 .029556275 .2939911-.00047302247 .24899292-.00047302247Z"/>
<path id="font_3_63" d="M.5349884 0V.0309906C.48298646 .0309906 .45799256 .0309906 .45700074 .061019899V.25221253C.45700074 .3383026 .45700074 .36932374 .42599488 .405365 .4119873 .42237855 .3789978 .4423828 .32099916 .4423828 .23699951 .4423828 .19299317 .38233949 .1769867 .34629823H.17599488V.69433596L.03199768 .6826172V.6516113C.101989749 .6516113 .10998535 .64463809 .10998535 .59580996V.076034549C.10998535 .0309906 .09899902 .0309906 .03199768 .0309906V0L.14498902 .0029907227 .25698854 0V.0309906C.18998719 .0309906 .1789856 .0309906 .1789856 .076034549V.2602234C.1789856 .36431886 .25 .42037965 .31399537 .42037965 .3769989 .42037965 .3880005 .36631776 .3880005 .30926515V.076034549C.3880005 .0309906 .3769989 .0309906 .30999757 .0309906V0L.4229889 .0029907227 .5349884 0Z"/>
<path id="font_3_66" d="M.24699402 0V.0309906C.18099976 .0309906 .1769867 .035995485 .1769867 .075042728V.4423828L.036987306 .43066407V.3996582C.101989749 .3996582 .11099243 .3936615 .11099243 .3447113V.07595825C.11099243 .0309906 .099990848 .0309906 .032989503 .0309906V0L.14299011 .0029907227C.17799378 .0029907227 .21299744 .0009918213 .24699402 0M.19198609 .603775C.19198609 .6307678 .16899109 .6567688 .13899231 .6567688 .10499573 .6567688 .084991458 .6287689 .084991458 .603775 .084991458 .57676699 .10798645 .55078127 .13798523 .55078127 .17199707 .55078127 .19198609 .5787811 .19198609 .603775Z"/>
<path id="font_3_59" d="M.4850006 .40411378C.4850006 .42111207 .47299195 .453125 .43399049 .453125 .4139862 .453125 .36999513 .44711305 .32798768 .40611268 .28599549 .43937684 .24398804 .4423828 .22200012 .4423828 .1289978 .4423828 .05999756 .37338258 .05999756 .29638673 .05999756 .25239564 .08198547 .21440125 .10699463 .19340515 .09399414 .17840576 .07598877 .14538574 .07598877 .11035156 .07598877 .07899475 .08898926 .04083252 .11999512 .020828248 .05999756 .003829956 .027999878-.039138795 .027999878-.07911682 .027999878-.15107727 .1269989-.20605469 .24899292-.20605469 .36698915-.20605469 .47099305-.15507508 .47099305-.07711792 .47099305-.042144777 .45700074 .008834839 .4059906 .036834718 .35299684 .064834598 .29499818 .064834598 .23399353 .064834598 .20899964 .064834598 .1659851 .064834598 .15899658 .065841678 .1269989 .069885257 .10598755 .101242069 .10598755 .13334656 .10598755 .13735962 .10598755 .16040039 .12298584 .18040467 .1619873 .15240479 .20298767 .14941406 .22200012 .14941406 .31498719 .14941406 .38398744 .21839905 .38398744 .2953949 .38398744 .3323822 .36799623 .36938478 .34298707 .39237977 .3789978 .42637635 .4149933 .43138124 .43299867 .43138124 .43299867 .43112184 .43998719 .43112184 .44299317 .43011476 .43199159 .42611695 .4269867 .41513063 .4269867 .40315248 .4269867 .38616944 .43998719 .37417604 .45599366 .37417604 .46598817 .37417604 .4850006 .3811798 .4850006 .4041443V.40411378M.30899049 .29626466C.30899049 .26930238 .30799867 .2373352 .29299928 .21235657 .2849884 .20037842 .2619934 .17240906 .22200012 .17240906 .1349945 .17240906 .1349945 .2722931 .1349945 .29527284 .1349945 .3222351 .13598633 .35420228 .15098572 .3791809 .15899658 .3913269 .18199158 .41937257 .22200012 .41937257 .30899049 .41937257 .30899049 .31922914 .30899049 .29618836V.29626466M.4189911-.07911682C.4189911-.13308716 .34799195-.18305969 .25-.18305969 .14898682-.18305969 .07998657-.13209534 .07998657-.07911682 .07998657-.03314209 .117996219 .003829956 .1619873 .0068359377H.22099304C.30699159 .0068359377 .4189911 .0068359377 .4189911-.07911682Z"/>
<path id="font_3_72" d="M.25498963 0V.0309906C.18798828 .0309906 .1769867 .0309906 .1769867 .07601929V.69433596L.032989503 .6826172V.6516113C.102996829 .6516113 .11099243 .64460757 .11099243 .5956421V.07595825C.11099243 .0309906 .099990848 .0309906 .032989503 .0309906V0L.14399719 .0029907227 .25498963 0Z"/>
<path id="font_3_81" d="M.47099305 .21424866C.47099305 .34223939 .37098695 .4482422 .25 .4482422 .125 .4482422 .027999878 .3392334 .027999878 .21424866 .027999878 .085250858 .13198853-.0107421879 .24899292-.0107421879 .36999513-.0107421879 .47099305 .087249759 .47099305 .21424866M.3880005 .22224427C.3880005 .18624878 .3880005 .13224793 .3659973 .08824158 .34399415 .04324341 .2999878 .014251709 .25 .014251709 .20698548 .014251709 .16299439 .035247804 .13598633 .08125305 .11099243 .12524414 .11099243 .18624878 .11099243 .22224427 .11099243 .26124574 .11099243 .31523133 .1349945 .35923768 .1619873 .40522767 .20899964 .426239 .24899292 .426239 .29299928 .426239 .33599855 .40423585 .3619995 .36123658 .3880005 .3182373 .3880005 .26023866 .3880005 .22224427Z"/>
<path id="font_3_114" d="M.7029877 .3996582V.43066407C.68099978 .4286499 .6519928 .42765809 .6299896 .42765809L.5369873 .43066407V.3996582C.57299807 .39866639 .59498599 .38075257 .59498599 .35176087 .59498599 .34576417 .59498599 .34376527 .58999636 .33078004L.49899293 .07513428 .3999939 .35375978C.3959961 .36575318 .394989 .36775209 .394989 .37275697 .394989 .3996582 .43399049 .3996582 .45399476 .3996582V.43066407L.34999085 .42765809C.31999208 .42765809 .29100038 .4286499 .26098634 .43066407V.3996582C.2979889 .3996582 .31399537 .39767457 .32398988 .38476563 .32899476 .37875367 .33999635 .34877015 .34700013 .3297882L.26098634 .08811951 .1659851 .3547516C.16099549 .36676026 .16099549 .36875917 .16099549 .37275697 .16099549 .3996582 .19999695 .3996582 .21998596 .3996582V.43066407L.11099243 .42765809 .017990113 .43066407V.3996582C.067993167 .3996582 .07998657 .39668275 .09199524 .36476136L.21798706 .01121521C.22299195-.0027618409 .22599793-.0107421879 .23899842-.0107421879 .2519989-.0107421879 .2539978-.004760742 .25898744 .009216309L.3600006 .2918396 .46199037 .008224487C.46598817-.0027618409 .46899415-.0107421879 .48199464-.0107421879 .49499513-.0107421879 .49798585-.0017547608 .5019989 .008224487L.61898806 .3357849C.6369934 .38575746 .66799929 .39866639 .7029877 .3996582Z"/>
</defs>
<path transform="matrix(1.00002,0,0,-1.00003,16.03302,79.47803)" stroke-width=".3985" stroke-linecap="butt" stroke-miterlimit="10" stroke-linejoin="miter" fill="none" stroke="#00aeef" d="M0 0H136.06259M0 8.50368H136.06259M0 17.00737H136.06259M0 25.51108H136.06259M0 34.01477H136.06259M0 42.51846H136.06259M0 51.02217H136.06259M0 59.52556H136.06259M0 0V59.52586M11.33855 0V59.52586M22.6771 0V59.52586M34.01564 0V59.52586M45.35419 0V59.52586M56.69275 0V59.52586M68.0313 0V59.52586M79.36984 0V59.52586M90.70839 0V59.52586M102.04694 0V59.52586M113.3855 0V59.52586M124.72404 0V59.52586M136.06061 0V59.52586M136.06259 59.52586"/>
<path transform="matrix(1.00002,0,0,-1.00003,16.03302,79.47803)" stroke-width=".79701" stroke-linecap="butt" stroke-miterlimit="10" stroke-linejoin="miter" fill="none" stroke="#000000" d="M0 0H143.1319"/>
<path transform="matrix(1.00002,0,0,-1.00003,159.16779,79.47803)" d="M1.0361 0C-.25902 .25902-1.55415 .77707-3.1083 1.68365-1.55415 .51805-1.55415-.51805-3.1083-1.68365-1.55415-.77707-.25902-.25902 1.0361 0Z"/>
<path transform="matrix(1.00002,0,0,-1.00003,159.16779,79.47803)" stroke-width=".79701" stroke-linecap="butt" stroke-linejoin="round" fill="none" stroke="#000000" d="M1.0361 0C-.25902 .25902-1.55415 .77707-3.1083 1.68365-1.55415 .51805-1.55415-.51805-3.1083-1.68365-1.55415-.77707-.25902-.25902 1.0361 0Z"/>
<use data-text="m" xlink:href="#font_1_2" transform="matrix(9.962799,0,0,-9.962899,164.32199,81.62309)"/>
<path transform="matrix(1.00002,0,0,-1.00003,16.03302,79.47803)" stroke-width=".79701" stroke-linecap="butt" stroke-miterlimit="10" stroke-linejoin="miter" fill="none" stroke="#000000" d="M0-4.25183V66.59496"/>
<path transform="matrix(0,-1.00003,-1.00002,-0,16.03302,12.881065)" d="M1.0361 0C-.25902 .25902-1.55415 .77707-3.1083 1.68365-1.55415 .51805-1.55415-.51805-3.1083-1.68365-1.55415-.77707-.25902-.25902 1.0361 0Z"/>
<path transform="matrix(0,-1.00003,-1.00002,-0,16.03302,12.881065)" stroke-width=".79701" stroke-linecap="butt" stroke-linejoin="round" fill="none" stroke="#000000" d="M1.0361 0C-.25902 .25902-1.55415 .77707-3.1083 1.68365-1.55415 .51805-1.55415-.51805-3.1083-1.68365-1.55415-.77707-.25902-.25902 1.0361 0Z"/>
<use data-text="T" xlink:href="#font_1_1" transform="matrix(9.962799,0,0,-9.962899,12.429947,7.7268679)"/>
<path transform="matrix(1.00002,0,0,-1.00003,16.03302,79.47803)" stroke-width=".79701" stroke-linecap="butt" stroke-miterlimit="10" stroke-linejoin="miter" fill="none" stroke="#000000" d="M22.6771 2.5511V-2.5511"/>
<use data-text="4" xlink:href="#font_2_4" transform="matrix(9.962799,0,0,-9.962899,36.21942,94.16147)"/>
<path transform="matrix(1.00002,0,0,-1.00003,16.03302,79.47803)" stroke-width=".79701" stroke-linecap="butt" stroke-miterlimit="10" stroke-linejoin="miter" fill="none" stroke="#000000" d="M45.35419 2.5511V-2.5511"/>
<use data-text="8" xlink:href="#font_2_6" transform="matrix(9.962799,0,0,-9.962899,58.897878,94.16147)"/>
<path transform="matrix(1.00002,0,0,-1.00003,16.03302,79.47803)" stroke-width=".79701" stroke-linecap="butt" stroke-miterlimit="10" stroke-linejoin="miter" fill="none" stroke="#000000" d="M68.0313 2.5511V-2.5511"/>
<use data-text="1" xlink:href="#font_2_2" transform="matrix(9.962799,0,0,-9.962899,79.08428,94.16147)"/>
<use data-text="2" xlink:href="#font_2_3" transform="matrix(9.962799,0,0,-9.962899,84.06568,94.16147)"/>
<path transform="matrix(1.00002,0,0,-1.00003,16.03302,79.47803)" stroke-width=".79701" stroke-linecap="butt" stroke-miterlimit="10" stroke-linejoin="miter" fill="none" stroke="#000000" d="M90.70839 2.5511V-2.5511"/>
<use data-text="1" xlink:href="#font_2_2" transform="matrix(9.962799,0,0,-9.962899,101.761737,94.16147)"/>
<use data-text="6" xlink:href="#font_2_5" transform="matrix(9.962799,0,0,-9.962899,106.74313,94.16147)"/>
<path transform="matrix(1.00002,0,0,-1.00003,16.03302,79.47803)" stroke-width=".79701" stroke-linecap="butt" stroke-miterlimit="10" stroke-linejoin="miter" fill="none" stroke="#000000" d="M113.3855 2.5511V-2.5511"/>
<use data-text="2" xlink:href="#font_2_3" transform="matrix(9.962799,0,0,-9.962899,124.43919,94.16147)"/>
<use data-text="0" xlink:href="#font_2_1" transform="matrix(9.962799,0,0,-9.962899,129.4206,94.16147)"/>
<path transform="matrix(1.00002,0,0,-1.00003,16.03302,79.47803)" stroke-width=".79701" stroke-linecap="butt" stroke-miterlimit="10" stroke-linejoin="miter" fill="none" stroke="#000000" d="M136.06259 2.5511V-2.5511"/>
<use data-text="2" xlink:href="#font_2_3" transform="matrix(9.962799,0,0,-9.962899,147.11664,94.16147)"/>
<use data-text="4" xlink:href="#font_2_4" transform="matrix(9.962799,0,0,-9.962899,152.09804,94.16147)"/>
<path transform="matrix(1.00002,0,0,-1.00003,16.03302,79.47803)" stroke-width=".79701" stroke-linecap="butt" stroke-miterlimit="10" stroke-linejoin="miter" fill="none" stroke="#000000" d="M1.13382 17.00737H-1.13382"/>
<use data-text="2" xlink:href="#font_2_3" transform="matrix(9.962799,0,0,-9.962899,1.2167206,65.68061)"/>
<use data-text="0" xlink:href="#font_2_1" transform="matrix(9.962799,0,0,-9.962899,6.19812,65.68061)"/>
<path transform="matrix(1.00002,0,0,-1.00003,16.03302,79.47803)" stroke-width=".79701" stroke-linecap="butt" stroke-miterlimit="10" stroke-linejoin="miter" fill="none" stroke="#000000" d="M1.13382 34.01477H-1.13382"/>
<use data-text="4" xlink:href="#font_2_4" transform="matrix(9.962799,0,0,-9.962899,1.2167206,48.672105)"/>
<use data-text="0" xlink:href="#font_2_1" transform="matrix(9.962799,0,0,-9.962899,6.19812,48.672105)"/>
<path transform="matrix(1.00002,0,0,-1.00003,16.03302,79.47803)" stroke-width=".79701" stroke-linecap="butt" stroke-miterlimit="10" stroke-linejoin="miter" fill="none" stroke="#000000" d="M1.13382 51.02217H-1.13382"/>
<use data-text="6" xlink:href="#font_2_5" transform="matrix(9.962799,0,0,-9.962899,1.2167206,31.664589)"/>
<use data-text="0" xlink:href="#font_2_1" transform="matrix(9.962799,0,0,-9.962899,6.19812,31.664589)"/>
<path transform="matrix(1.00002,0,0,-1.00003,16.03302,79.47803)" stroke-width=".79701" stroke-linecap="butt" stroke-miterlimit="10" stroke-linejoin="miter" fill="none" stroke="#ff0000" d="M0-1.36057C0-1.36057 1.53601-1.088 2.12596-.75598 2.71591-.42397 3.662 .38135 4.25194 1.03235 4.84189 1.68332 5.78796 2.99098 6.37791 3.93588 6.96786 4.88077 7.91394 6.63963 8.5039 7.84244 9.09384 9.04523 10.03993 11.19032 10.62987 12.60478 11.21983 14.01926 12.16591 16.46541 12.75584 18.03694 13.34581 19.60847 14.29189 22.26305 14.88184 23.93129 15.47177 25.59955 16.41786 28.35971 17.00781 30.06055 17.59776 31.76141 18.54384 34.52158 19.13377 36.18982 19.72374 37.85808 20.66982 40.51263 21.25977 42.08418 21.84972 43.65572 22.7958 46.10187 23.38574 47.51633 23.9757 48.9308 24.92177 51.07588 25.51172 52.27869 26.10167 53.48148 27.04774 55.24034 27.63771 56.18524 28.22765 57.13013 29.17374 58.43779 29.76367 59.08878 30.35364 59.73978 31.29971 60.5451 31.88965 60.87714 32.47961 61.20915 33.42569 61.48172 34.01564 61.48172 34.60559 61.48172 35.55165 61.20915 36.14162 60.87714 36.73157 60.5451 37.67764 59.73978 38.2676 59.08878 38.85754 58.43779 39.80362 57.13013 40.39357 56.18524 40.98352 55.24034 41.9296 53.48148 42.51955 52.27869 43.1095 51.07588 44.05559 48.9308 44.64552 47.51633 45.23547 46.10187 46.18155 43.65572 46.77151 42.08418 47.36145 40.51263 48.30753 37.85808 48.89749 36.18982 49.48743 34.52158 50.43352 31.76141 51.02345 30.06055 51.61342 28.35971 52.5595 25.59955 53.14944 23.93129 53.7394 22.26305 54.68547 19.60847 55.27542 18.03694 55.86536 16.46541 56.81145 14.01926 57.4014 12.60478 57.99135 11.19032 58.93742 9.04523 59.52739 7.84244 60.11732 6.63963 61.0634 4.88077 61.65335 3.93588 62.2433 2.99098 63.18939 1.68332 63.77933 1.03235 64.36928 .38135 65.31537-.42397 65.90532-.75598 66.49525-1.088 67.44133-1.36057 68.0313-1.36057 68.62123-1.36057 69.56732-1.088 70.15726-.75598 70.74722-.42397 71.6933 .38135 72.28323 1.03235 72.8732 1.68332 73.81927 2.99098 74.40923 3.93588 74.99916 4.88077 75.94525 6.63963 76.5352 7.84244 77.12515 9.04523 78.07123 11.19032 78.66118 12.60478 79.25113 14.01926 80.1972 16.46541 80.78716 18.03694 81.3771 19.60847 82.3232 22.26305 82.91313 23.93129 83.5031 25.59955 84.44917 28.35971 85.03911 30.06055 85.62907 31.76141 86.57513 34.52158 87.1651 36.18982 87.75504 37.85808 88.70113 40.51263 89.29108 42.08418 89.88103 43.65572 90.8271 46.10187 91.41704 47.51633 92.007 48.9308 92.95308 51.07588 93.54303 52.27869 94.13298 53.48148 95.07907 55.24034 95.669 56.18524 96.25896 57.13013 97.20503 58.43779 97.79498 59.08878 98.38493 59.73978 99.33101 60.5451 99.92097 60.87714 100.51091 61.20915 101.45699 61.48172 102.04694 61.48172 102.6369 61.48172 103.58298 61.20915 104.17291 60.87714 104.76288 60.5451 105.70895 59.73978 106.2989 59.08878 106.88884 58.43779 107.83492 57.13013 108.42488 56.18524 109.01482 55.24034 109.9609 53.48148 110.55086 52.27869 111.14081 51.07588 112.08688 48.9308 112.67683 47.51633 113.26678 46.10187 114.21286 43.65572 114.80281 42.08418 115.39275 40.51263 116.33885 37.85808 116.92879 36.18982 117.51874 34.52158 118.46481 31.76141 119.05478 30.06055 119.64471 28.35971 120.59079 25.59955 121.18074 23.93129 121.77069 22.26305 122.71678 19.60847 123.30672 18.03694 123.89668 16.46541 124.84276 14.01926 125.43271 12.60478 126.02264 11.19032 126.96872 9.04523 127.55869 7.84244 128.14862 6.63963 129.09471 4.88077 129.68466 3.93588 130.27462 2.99098 131.22069 1.68332 131.81064 1.03235 132.40059 .38135 133.34667-.42397 133.93662-.75598 134.52657-1.088 136.06259-1.36057 136.06259-1.36057"/>
<use data-text="h" xlink:href="#font_3_63" transform="matrix(9.962799,0,0,-9.962899,74.65019,18.129185)"/>
<use data-text="i" xlink:href="#font_3_66" transform="matrix(9.962799,0,0,-9.962899,80.189517,18.129185)"/>
<use data-text="g" xlink:href="#font_3_59" transform="matrix(9.962799,0,0,-9.962899,82.95917,18.129185)"/>
<use data-text="h" xlink:href="#font_3_63" transform="matrix(9.962799,0,0,-9.962899,87.94057,18.129185)"/>
<path transform="matrix(1.00002,0,0,-1.00003,16.03302,79.47803)" d="M59.70242 21.00293H76.36017V30.01921H59.70242Z" fill="#ffffff"/>
<use data-text="l" xlink:href="#font_3_72" transform="matrix(9.962799,0,0,-9.962899,76.73324,57.368364)"/>
<use data-text="o" xlink:href="#font_3_81" transform="matrix(9.962799,0,0,-9.962899,79.50289,57.368364)"/>
<use data-text="w" xlink:href="#font_3_114" transform="matrix(9.962799,0,0,-9.962899,84.20534,57.368364)"/>
<path transform="matrix(1.00002,0,0,-1.00003,16.03302,79.47803)" stroke-width=".3985" stroke-linecap="butt" stroke-miterlimit="10" stroke-linejoin="miter" fill="none" stroke="#0000ff" d="M56.69275 63.77773 39.54292 62.1699"/>
<path transform="matrix(-.99559,.0933028,.09330187,.9955999,55.576734,17.306237)" d="M.797 0C-.19925 .19925-1.19551 .59775-2.39102 1.29512-1.19551 .3985-1.19551-.3985-2.39102-1.29512-1.19551-.59775-.19925-.19925 .797 0Z" fill="#0000ff"/>
<path transform="matrix(-.99559,.0933028,.09330187,.9955999,55.576734,17.306237)" stroke-width=".3985" stroke-linecap="butt" stroke-linejoin="round" fill="none" stroke="#0000ff" d="M.797 0C-.19925 .19925-1.19551 .59775-2.39102 1.29512-1.19551 .3985-1.19551-.3985-2.39102-1.29512-1.19551-.59775-.19925-.19925 .797 0Z"/>
<path transform="matrix(1.00002,0,0,-1.00003,16.03302,79.47803)" stroke-width=".3985" stroke-linecap="butt" stroke-miterlimit="10" stroke-linejoin="miter" fill="none" stroke="#0000ff" d="M79.36984 63.77773 95.38638 62.17606"/>
<path transform="matrix(.9950199,.099472988,.09947199,-.99502989,111.42131,17.300087)" d="M.797 0C-.19925 .19925-1.19551 .59775-2.39102 1.29512-1.19551 .3985-1.19551-.3985-2.39102-1.29512-1.19551-.59775-.19925-.19925 .797 0Z" fill="#0000ff"/>
<path transform="matrix(.9950199,.099472988,.09947199,-.99502989,111.42131,17.300087)" stroke-width=".3985" stroke-linecap="butt" stroke-linejoin="round" fill="none" stroke="#0000ff" d="M.797 0C-.19925 .19925-1.19551 .59775-2.39102 1.29512-1.19551 .3985-1.19551-.3985-2.39102-1.29512-1.19551-.59775-.19925-.19925 .797 0Z"/>
<path transform="matrix(1.00002,0,0,-1.00003,16.03302,79.47803)" stroke-width=".3985" stroke-linecap="butt" stroke-miterlimit="10" stroke-linejoin="miter" fill="none" stroke="#0000ff" d="M56.69275 23.81033C19.58647 14.17006 14.58742-14.36406 2.45958-4.04695"/>
<path transform="matrix(-.7616553,-.6479395,-.647933,.7616629,18.49265,83.5251)" d="M.797 0C-.19925 .19925-1.19551 .59775-2.39102 1.29512-1.19551 .3985-1.19551-.3985-2.39102-1.29512-1.19551-.59775-.19925-.19925 .797 0Z" fill="#0000ff"/>
<path transform="matrix(-.7616553,-.6479395,-.647933,.7616629,18.49265,83.5251)" stroke-width=".3985" stroke-linecap="butt" stroke-linejoin="round" fill="none" stroke="#0000ff" d="M.797 0C-.19925 .19925-1.19551 .59775-2.39102 1.29512-1.19551 .3985-1.19551-.3985-2.39102-1.29512-1.19551-.59775-.19925-.19925 .797 0Z"/>
<path transform="matrix(1.00002,0,0,-1.00003,16.03302,79.47803)" stroke-width=".3985" stroke-linecap="butt" stroke-miterlimit="10" stroke-linejoin="miter" fill="none" stroke="#0000ff" d="M79.36984 23.81033C116.4761 14.17006 121.47516-14.36406 133.60303-4.04695"/>
<path transform="matrix(.76164528,-.6479395,-.647933,-.7616529,149.63872,83.5251)" d="M.797 0C-.19925 .19925-1.19551 .59775-2.39102 1.29512-1.19551 .3985-1.19551-.3985-2.39102-1.29512-1.19551-.59775-.19925-.19925 .797 0Z" fill="#0000ff"/>
<path transform="matrix(.76164528,-.6479395,-.647933,-.7616529,149.63872,83.5251)" stroke-width=".3985" stroke-linecap="butt" stroke-linejoin="round" fill="none" stroke="#0000ff" d="M.797 0C-.19925 .19925-1.19551 .59775-2.39102 1.29512-1.19551 .3985-1.19551-.3985-2.39102-1.29512-1.19551-.59775-.19925-.19925 .797 0Z"/>
</svg>
