<svg xmlns="http://www.w3.org/2000/svg" xmlns:xlink="http://www.w3.org/1999/xlink" version="1.1" width="194" height="101" viewBox="0 0 194 101">
<defs>
<path id="font_1_3" d="M.33399964 .30233766C.33999635 .32835389 .36299134 .42037965 .43299867 .42037965 .43798829 .42037965 .46199037 .42037965 .48298646 .40734864 .45498658 .402359 .43499757 .37734986 .43499757 .35334779 .43499757 .33735658 .44599916 .31835938 .47299195 .31835938 .49499513 .31835938 .5269928 .3363495 .5269928 .37635804 .5269928 .42837525 .46798707 .4423828 .43399049 .4423828 .37599183 .4423828 .34098817 .38935853 .32899476 .36634828 .3039856 .43237306 .25 .4423828 .22099304 .4423828 .116989139 .4423828 .05999756 .3133545 .05999756 .28834535 .05999756 .27833558 .069992069 .27833558 .07199097 .27833558 .07998657 .27833558 .08299255 .28033448 .084991458 .28933717 .11898804 .39535523 .18499756 .42037965 .21899414 .42037965 .23799134 .42037965 .272995 .4113617 .272995 .35334779 .272995 .32235719 .2559967 .25532533 .21899414 .11528015 .20298767 .053268434 .16799927 .011245728 .12399292 .011245728 .117996219 .011245728 .09498596 .011245728 .07398987 .024276734 .09899902 .029266358 .12098694 .05027771 .12098694 .07827759 .12098694 .105270389 .09899902 .11328125 .083999637 .11328125 .053985597 .11328125 .0289917 .08728027 .0289917 .055267335 .0289917 .009246826 .07899475-.0107421879 .12298584-.0107421879 .18899536-.0107421879 .22499085 .059280397 .22799683 .0652771 .23999024 .028274537 .27598573-.0107421879 .33599855-.0107421879 .43899537-.0107421879 .49598695 .118270877 .49598695 .14328003 .49598695 .1532898 .4869995 .1532898 .48399354 .1532898 .47499085 .1532898 .47299195 .14929199 .47099305 .14228821 .43798829 .03527832 .36999513 .011245728 .33799745 .011245728 .29899598 .011245728 .2829895 .043273927 .2829895 .07727051 .2829895 .09927368 .2889862 .121276859 .2999878 .16529846L.33399964 .30233766Z"/>
<path id="font_1_4" d="M.48599244 .38136292C.48999024 .39537049 .48999024 .39736939 .48999024 .40437318 .48999024 .42237855 .47599793 .43138124 .46099855 .43138124 .45098878 .43138124 .43499757 .42536927 .42599488 .41036988 .42399598 .405365 .41600038 .37435914 .4119873 .35635377 .40499879 .33035279 .397995 .30334474 .3919983 .27633668L.34700013 .09628296C.34298707 .08126831 .2999878 .011245728 .23399353 .011245728 .18299866 .011245728 .17199707 .055267335 .17199707 .0922699 .17199707 .1382904 .18899536 .20030213 .22299195 .28833009 .23899842 .3293457 .24299622 .3403473 .24299622 .36035157 .24299622 .405365 .21099854 .4423828 .16099549 .4423828 .06599426 .4423828 .0289917 .29733277 .0289917 .28833009 .0289917 .27833558 .038986207 .27833558 .040985109 .27833558 .050994874 .27833558 .051986696 .28033448 .056991579 .29634095 .083999637 .3903656 .12399292 .42037965 .1579895 .42037965 .1659851 .42037965 .18299866 .42037965 .18299866 .3883667 .18299866 .36335755 .17298889 .3373413 .1659851 .31834413 .12599182 .21231079 .10798645 .1552887 .10798645 .10827637 .10798645 .019256592 .17098999-.0107421879 .22999573-.0107421879 .2689972-.0107421879 .30299378 .0062561037 .33099366 .03425598 .31799317-.017745972 .30599977-.06674194 .2659912-.11973572 .23999024-.15385437 .20199585-.18309021 .1559906-.18309021 .14199829-.18309021 .09700012-.18005371 .07998657-.14074707 .09599304-.14074707 .10899353-.14074707 .12298584-.1287384 .1329956-.11973572 .14299011-.10673523 .14299011-.08773804 .14299011-.056747438 .115997318-.052734376 .10598755-.052734376 .08299255-.052734376 .049987794-.068740848 .049987794-.11773682 .049987794-.16796875 .09399414-.20507813 .1559906-.20507813 .25898744-.20507813 .3619995-.11373901 .3899994-.00074768069L.48599244 .38136292Z"/>
<path id="font_2_64" d="M.27598573 .18710327V.24511719H.010986328V.18710327H.27598573Z"/>
<path id="font_2_101" d="M.45700074 .2036438C.45700074 .33070375 .36799623 .4267578 .25698854 .4267578 .18899536 .4267578 .1519928 .37573243 .13198853 .327713V.35173036C.13198853 .6047821 .2559967 .64100649 .30699159 .64100649 .33099366 .64100649 .37298585 .634964 .394989 .6007538 .37998963 .6007538 .33999635 .6007538 .33999635 .5557556 .33999635 .524765 .3639984 .5097656 .38598634 .5097656 .4019928 .5097656 .43199159 .51875308 .43199159 .5577545 .43199159 .6178589 .3880005 .6660156 .30499269 .6660156 .1769867 .6660156 .041992189 .5367584 .041992189 .31570436 .041992189 .048553468 .1579895-.022460938 .25099183-.022460938 .3619995-.022460938 .45700074 .07156372 .45700074 .2036438M.36698915 .20463562C.36698915 .15661621 .36698915 .10658264 .34999085 .0705719 .31999208 .010528564 .27398683 .0055389406 .25099183 .0055389406 .18798828 .0055389406 .1579895 .06556702 .1519928 .080566409 .13398743 .127594 .13398743 .2076416 .13398743 .22564698 .13398743 .30369569 .1659851 .40374757 .2559967 .40374757 .27198792 .40374757 .31799317 .40374757 .34899903 .34172059 .36698915 .30470277 .36698915 .2536621 .36698915 .20463562Z"/>
<path id="font_1_1" d="M.2649994 .37265016H.37799073C.34498597 .22489929 .33599855 .18196106 .33599855 .11508179 .33599855 .100097659 .33599855 .073150638 .34399415 .03919983 .35398866-.0047454836 .36499024-.0107421879 .37998963-.0107421879 .3999939-.0107421879 .42099 .007247925 .42099 .02722168 .42099 .033218385 .42099 .035202028 .4149933 .049179079 .38598634 .12106323 .38598634 .18595886 .38598634 .21391297 .38598634 .26683045 .3929901 .32073976 .4039917 .37265016H.5179901C.5309906 .37265016 .5669861 .37265016 .5669861 .406662 .5669861 .43066407 .54599 .43066407 .5269928 .43066407H.19198609C.16999817 .43066407 .13198853 .43066407 .08799744 .38365174 .052993776 .34469605 .026992798 .29878236 .026992798 .29379273 .026992798 .29278565 .026992798 .28379823 .038986207 .28379823 .04699707 .28379823 .04899597 .28779603 .054992677 .29577638 .10398865 .37265016 .1619873 .37265016 .18199158 .37265016H.23899842C.20698548 .25186158 .15299988 .13105774 .11099243 .04020691 .102996829 .025222779 .102996829 .023223877 .102996829 .016235352 .102996829-.002746582 .11898804-.0107421879 .13198853-.0107421879 .1619873-.0107421879 .16999817 .017242432 .18199158 .05418396 .19599915 .100097659 .19599915 .10209656 .20899964 .15202332L.2649994 .37265016Z"/>
<path id="font_2_57" d="M.47099305 .16503906V.19602967H.37098695V.6507721C.37098695 .6707611 .37098695 .6767578 .35499574 .6767578 .34599305 .6767578 .34298707 .6767578 .33499146 .6647644L.027999878 .19602967V.16503906H.2939911V.07800293C.2939911 .041992189 .2919922 .0309906 .21798706 .0309906H.19699097V0C.23799134 .0029907227 .2899933 .0029907227 .33198548 .0029907227 .37399293 .0029907227 .4269867 .0029907227 .46798707 0V.0309906H.44699098C.37298585 .0309906 .37098695 .041992189 .37098695 .07800293V.16503906H.47099305M.2999878 .19602967H.055999757L.2999878 .56881716V.19602967Z"/>
<path id="font_2_107" d="M.44898988 .17396546H.42399598C.4189911 .14398194 .4119873 .099990848 .4019928 .084991458 .394989 .07699585 .32899476 .07699585 .30699159 .07699585H.1269989L.23298645 .17996216C.3889923 .31803895 .44898988 .37210084 .44898988 .47216798 .44898988 .5860901 .35899354 .6660156 .23699951 .6660156 .12399292 .6660156 .049987794 .57411196 .049987794 .48516847 .049987794 .4291687 .099990848 .4291687 .102996829 .4291687 .11999512 .4291687 .15499878 .44117738 .15499878 .48217774 .15499878 .5081787 .13699341 .5341797 .101989749 .5341797 .09399414 .5341797 .09199524 .5341797 .08898926 .5331726 .11199951 .59806826 .1659851 .63500979 .22399903 .63500979 .31498719 .63500979 .35798646 .5541382 .35798646 .47216798 .35798646 .39196778 .30799867 .31297303 .25299073 .25097657L.06098938 .036987306C.049987794 .025985718 .049987794 .023986817 .049987794 0H.42099L.44898988 .17396546Z"/>
<path id="font_3_1" d="M.45999146 .31976319C.45999146 .39982606 .45498658 .47988893 .41999818 .5539398 .37399293 .65000918 .2919922 .6660156 .25 .6660156 .18998719 .6660156 .116989139 .64001467 .07598877 .54693606 .04399109 .47789 .038986207 .39982606 .038986207 .31976319 .038986207 .24472046 .042999269 .15464783 .083999637 .07859802 .1269989-.0024719239 .19999695-.022460938 .24899292-.022460938 .30299378-.022460938 .3789978-.0014648438 .4229889 .09359741 .45498658 .16265869 .45999146 .2407074 .45999146 .31976319M.24899292-.00047302247C.20999146-.00047302247 .15098572 .024551392 .1329956 .12062073 .12199402 .18066406 .12199402 .2727356 .12199402 .3317871 .12199402 .39582826 .12199402 .46188355 .12998963 .5159149 .14898682 .63500979 .22399903 .64401248 .24899292 .64401248 .28199769 .64401248 .34799195 .6259918 .36698915 .52693179 .3769989 .47088624 .3769989 .39482118 .3769989 .3317871 .3769989 .25672914 .3769989 .18867493 .3659973 .12461853 .35099793 .029556275 .2939911-.00047302247 .24899292-.00047302247Z"/>
<path id="font_1_2" d="M.19198609 .052993776C.19198609 .08198547 .16799927 .10598755 .13899231 .10598755 .10998535 .10598755 .085998538 .08198547 .085998538 .052993776 .085998538 .023986817 .10998535 0 .13899231 0 .16799927 0 .19198609 .023986817 .19198609 .052993776Z"/>
<path id="font_3_3" d="M.44898988 .20022583C.44898988 .3193512 .36698915 .41944886 .25898744 .41944886 .21099854 .41944886 .16799927 .40345765 .13198853 .36842347V.5637665C.1519928 .5577698 .18499756 .55078127 .21699524 .55078127 .33999635 .55078127 .4099884 .6417694 .4099884 .6547699 .4099884 .6607666 .40699769 .6657715 .3999939 .6657715 .39898683 .6657715 .39698792 .6657715 .3919983 .66278079 .37199403 .6537781 .32299806 .6337738 .2559967 .6337738 .21598816 .6337738 .16999817 .6407776 .12298584 .6617737 .114990238 .66477969 .11299133 .66477969 .11099243 .66477969 .100997928 .66477969 .100997928 .6567688 .100997928 .6407776V.34439088C.100997928 .32637025 .100997928 .31835938 .114990238 .31835938 .12199402 .31835938 .12399292 .32136537 .12799073 .32736207 .13899231 .3433838 .17599488 .39746095 .25698854 .39746095 .30899049 .39746095 .33399964 .35139466 .34199525 .33337403 .35798646 .29632569 .3600006 .25727845 .3600006 .20722962 .3600006 .17222595 .3600006 .11222839 .33599855 .07035828 .31199647 .031463624 .2749939 .0055389406 .22898865 .0055389406 .1559906 .0055389406 .09899902 .058380128 .08198547 .11723328 .084991458 .1162262 .08799744 .115234378 .09899902 .115234378 .13198853 .115234378 .14898682 .14022827 .14898682 .16423035 .14898682 .18823242 .13198853 .21322632 .09899902 .21322632 .084991458 .21322632 .049987794 .20622254 .049987794 .16023255 .049987794 .07434082 .11898804-.022460938 .23098755-.022460938 .34700013-.022460938 .44898988 .073349 .44898988 .20022583Z"/>
<path id="font_3_2" d="M.2939911 .64004519C.2939911 .66400149 .2939911 .6660156 .2709961 .6660156 .20899964 .60227969 .12098694 .60227969 .08898926 .60227969V.57128909C.10899353 .57128909 .16799927 .57128909 .21998596 .5972748V.07902527C.21998596 .042999269 .21699524 .0309906 .1269989 .0309906H.09498596V0C.12998963 .0029907227 .21699524 .0029907227 .25698854 .0029907227 .29699708 .0029907227 .38398744 .0029907227 .4189911 0V.0309906H.3869934C.29699708 .0309906 .2939911 .041992189 .2939911 .07902527V.64004519Z"/>
</defs>
<path transform="matrix(1.00006,0,0,-1.00002,93.558589,86.70248)" stroke-width=".3985" stroke-linecap="butt" stroke-miterlimit="10" stroke-linejoin="miter" fill="none" stroke="#00aeef" d="M-85.49373 0H85.49373M-85.49373 17.008H85.49373M-85.49373 34.01602H85.49373M-85.49373 51.02403H85.49373M-85.49373 68.03206H85.49373M-85.49373 0V68.03217M-71.24478 0V68.03217M-56.99582 0V68.03217M-42.74686 0V68.03217M-28.4979 0V68.03217M-14.24895 0V68.03217M0 0V68.03217M14.24895 0V68.03217M28.4979 0V68.03217M42.74686 0V68.03217M56.99582 0V68.03217M71.24478 0V68.03217M85.49213 0V68.03217M85.49373 68.03217"/>
<path transform="matrix(1.00006,0,0,-1.00002,93.558589,86.70248)" stroke-width=".79701" stroke-linecap="butt" stroke-miterlimit="10" stroke-linejoin="miter" fill="none" stroke="#000000" d="M-85.49373 0H88.82365"/>
<path transform="matrix(1.00006,0,0,-1.00002,182.38756,86.70248)" d="M1.0361 0C-.25902 .25902-1.55415 .77707-3.1083 1.68365-1.55415 .51805-1.55415-.51805-3.1083-1.68365-1.55415-.77707-.25902-.25902 1.0361 0Z"/>
<path transform="matrix(1.00006,0,0,-1.00002,182.38756,86.70248)" stroke-width=".79701" stroke-linecap="butt" stroke-linejoin="round" fill="none" stroke="#000000" d="M1.0361 0C-.25902 .25902-1.55415 .77707-3.1083 1.68365-1.55415 .51805-1.55415-.51805-3.1083-1.68365-1.55415-.77707-.25902-.25902 1.0361 0Z"/>
<use data-text="x" xlink:href="#font_1_3" transform="matrix(9.963197,0,0,-9.962799,187.54123,88.84752)"/>
<path transform="matrix(1.00006,0,0,-1.00002,93.558589,86.70248)" stroke-width=".79701" stroke-linecap="butt" stroke-miterlimit="10" stroke-linejoin="miter" fill="none" stroke="#000000" d="M0 0V73.40117"/>
<path transform="matrix(0,-1.00002,-1.00006,-0,93.558589,13.299835)" d="M1.0361 0C-.25902 .25902-1.55415 .77707-3.1083 1.68365-1.55415 .51805-1.55415-.51805-3.1083-1.68365-1.55415-.77707-.25902-.25902 1.0361 0Z"/>
<path transform="matrix(0,-1.00002,-1.00006,-0,93.558589,13.299835)" stroke-width=".79701" stroke-linecap="butt" stroke-linejoin="round" fill="none" stroke="#000000" d="M1.0361 0C-.25902 .25902-1.55415 .77707-3.1083 1.68365-1.55415 .51805-1.55415-.51805-3.1083-1.68365-1.55415-.77707-.25902-.25902 1.0361 0Z"/>
<use data-text="y" xlink:href="#font_1_4" transform="matrix(9.963197,0,0,-9.962799,90.93743,6.20887)"/>
<path transform="matrix(1.00006,0,0,-1.00002,93.558589,86.70248)" stroke-width=".79701" stroke-linecap="butt" stroke-miterlimit="10" stroke-linejoin="miter" fill="none" stroke="#000000" d="M-85.49373 2.04086V-2.04086"/>
<path transform="matrix(1.00006,0,0,-1.00002,93.558589,86.70248)" d="M-93.65775-13.27882H-77.329738V-4.4319097H-93.65775Z" fill="#ffffff"/>
<use data-text="-" xlink:href="#font_2_64" transform="matrix(9.963197,0,0,-9.962799,.8920288,98.76572)"/>
<use data-text="6" xlink:href="#font_2_101" transform="matrix(9.963197,0,0,-9.962799,4.209778,98.76572)"/>
<use data-text="&#x03c0;" xlink:href="#font_1_1" transform="matrix(9.963197,0,0,-9.962799,9.191513,98.76572)"/>
<path transform="matrix(1.00006,0,0,-1.00002,93.558589,86.70248)" stroke-width=".79701" stroke-linecap="butt" stroke-miterlimit="10" stroke-linejoin="miter" fill="none" stroke="#000000" d="M-56.99582 2.04086V-2.04086"/>
<path transform="matrix(1.00006,0,0,-1.00002,93.558589,86.70248)" d="M-65.15982-13.16925H-48.831804V-4.4319097H-65.15982Z" fill="#ffffff"/>
<use data-text="-" xlink:href="#font_2_64" transform="matrix(9.963197,0,0,-9.962799,29.390732,98.87572)"/>
<use data-text="4" xlink:href="#font_2_57" transform="matrix(9.963197,0,0,-9.962799,32.70848,98.87572)"/>
<use data-text="&#x03c0;" xlink:href="#font_1_1" transform="matrix(9.963197,0,0,-9.962799,37.690217,98.87572)"/>
<path transform="matrix(1.00006,0,0,-1.00002,93.558589,86.70248)" stroke-width=".79701" stroke-linecap="butt" stroke-miterlimit="10" stroke-linejoin="miter" fill="none" stroke="#000000" d="M-28.4979 2.04086V-2.04086"/>
<path transform="matrix(1.00006,0,0,-1.00002,93.558589,86.70248)" d="M-36.66191-13.05968H-20.33389V-4.4319298H-36.66191Z" fill="#ffffff"/>
<use data-text="-" xlink:href="#font_2_64" transform="matrix(9.963197,0,0,-9.962799,57.89044,98.76572)"/>
<use data-text="2" xlink:href="#font_2_107" transform="matrix(9.963197,0,0,-9.962799,61.20819,98.76572)"/>
<use data-text="&#x03c0;" xlink:href="#font_1_1" transform="matrix(9.963197,0,0,-9.962799,66.189929,98.76572)"/>
<path transform="matrix(1.00006,0,0,-1.00002,93.558589,86.70248)" stroke-width=".79701" stroke-linecap="butt" stroke-miterlimit="10" stroke-linejoin="miter" fill="none" stroke="#000000" d="M28.4979 2.04086V-2.04086"/>
<path transform="matrix(1.00006,0,0,-1.00002,93.558589,86.70248)" d="M21.99268-13.05968H35.003099V-4.4319298H21.99268Z" fill="#ffffff"/>
<use data-text="2" xlink:href="#font_2_107" transform="matrix(9.963197,0,0,-9.962799,116.548969,98.76572)"/>
<use data-text="&#x03c0;" xlink:href="#font_1_1" transform="matrix(9.963197,0,0,-9.962799,121.53125,98.76572)"/>
<path transform="matrix(1.00006,0,0,-1.00002,93.558589,86.70248)" stroke-width=".79701" stroke-linecap="butt" stroke-miterlimit="10" stroke-linejoin="miter" fill="none" stroke="#000000" d="M56.99582 2.04086V-2.04086"/>
<path transform="matrix(1.00006,0,0,-1.00002,93.558589,86.70248)" d="M50.4906-13.16925H63.501024V-4.4319097H50.4906Z" fill="#ffffff"/>
<use data-text="4" xlink:href="#font_2_57" transform="matrix(9.963197,0,0,-9.962799,145.04868,98.87572)"/>
<use data-text="&#x03c0;" xlink:href="#font_1_1" transform="matrix(9.963197,0,0,-9.962799,150.03096,98.87572)"/>
<path transform="matrix(1.00006,0,0,-1.00002,93.558589,86.70248)" stroke-width=".79701" stroke-linecap="butt" stroke-miterlimit="10" stroke-linejoin="miter" fill="none" stroke="#000000" d="M85.49373 2.04086V-2.04086"/>
<path transform="matrix(1.00006,0,0,-1.00002,93.558589,86.70248)" d="M78.98851-13.27882H91.99893V-4.4319097H78.98851Z" fill="#ffffff"/>
<use data-text="6" xlink:href="#font_2_101" transform="matrix(9.963197,0,0,-9.962799,173.54839,98.76572)"/>
<use data-text="&#x03c0;" xlink:href="#font_1_1" transform="matrix(9.963197,0,0,-9.962799,178.53067,98.76572)"/>
<path transform="matrix(1.00006,0,0,-1.00002,93.558589,86.70248)" stroke-width=".79701" stroke-linecap="butt" stroke-miterlimit="10" stroke-linejoin="miter" fill="none" stroke="#000000" d="M2.72136 34.01605H-2.7213"/>
<path transform="matrix(1.00006,0,0,-1.00002,93.558589,86.70248)" d="M-19.83514 29.80956H-5.11236V38.22254H-19.83514Z" fill="#ffffff"/>
<use data-text="0" xlink:href="#font_3_1" transform="matrix(9.963197,0,0,-9.962799,74.71846,55.89586)"/>
<use data-text="." xlink:href="#font_1_2" transform="matrix(9.963197,0,0,-9.962799,79.700748,55.89586)"/>
<use data-text="5" xlink:href="#font_3_3" transform="matrix(9.963197,0,0,-9.962799,82.46791,55.89586)"/>
<path transform="matrix(1.00006,0,0,-1.00002,93.558589,86.70248)" stroke-width=".79701" stroke-linecap="butt" stroke-miterlimit="10" stroke-linejoin="miter" fill="none" stroke="#000000" d="M2.72136 68.03217H-2.7213"/>
<path transform="matrix(1.00006,0,0,-1.00002,93.558589,86.70248)" d="M-12.08629 63.82567H-5.1123507V72.23865H-12.08629Z" fill="#ffffff"/>
<use data-text="1" xlink:href="#font_3_2" transform="matrix(9.963197,0,0,-9.962799,82.46792,21.87918)"/>
<path transform="matrix(1.00006,0,0,-1.00002,93.558589,86.70248)" stroke-width=".79701" stroke-linecap="butt" stroke-miterlimit="10" stroke-linejoin="miter" fill="none" stroke="#ff0000" d="M-85.49373 34.01605C-85.49373 34.01605-83.56348 32.81024-82.8221 32.34991-82.08075 31.88957-80.89185 31.15215-80.15048 30.69832-79.40912 30.24448-78.22021 29.5215-77.47887 29.07892-76.7375 28.63632-75.54861 27.93564-74.80724 27.50827-74.06587 27.08093-72.87698 26.40677-72.13562 25.99887-71.39424 25.59097-70.20535 24.95297-69.46399 24.56842-68.72264 24.18388-67.53374 23.58498-66.79236 23.22722-66.05101 22.86945-64.8621 22.31688-64.12074 21.98979-63.37938 21.6627-62.19048 21.16306-61.44913 20.86967-60.70775 20.57631-59.51888 20.1323-58.7775 19.87523-58.03613 19.61815-56.84724 19.23459-56.10588 19.0167-55.3645 18.79881-54.17561 18.48143-53.43425 18.30458-52.69289 18.12775-51.504 17.8763-50.76262 17.74193-50.02127 17.60754-48.83237 17.42635-48.091 17.33604-47.34964 17.24574-46.16075 17.1364-45.41939 17.09105-44.67801 17.04568-43.48912 17.00906-42.74776 17.00906-42.0064 17.00906-40.8175 17.04568-40.07613 17.09105-39.33476 17.1364-38.14587 17.24588-37.40451 17.33604-36.66315 17.4262-35.47424 17.60667-34.7329 17.7409-33.99153 17.87514-32.80263 18.12654-32.06126 18.30354-31.3199 18.48051-30.13101 18.79866-29.38965 19.0167-28.64827 19.23474-27.45938 19.61815-26.71802 19.87523-25.97665 20.1323-24.78777 20.57631-24.04639 20.86967-23.30504 21.16306-22.11613 21.66286-21.37477 21.98979-20.6334 22.31674-19.4445 22.86853-18.70316 23.22615-17.96178 23.58379-16.77289 24.18268-16.03152 24.56737-15.29016 24.95206-14.10127 25.59097-13.35991 25.99887-12.61853 26.40677-11.42964 27.07988-10.68828 27.50723-9.9469 27.93457-8.75803 28.63632-8.01665 29.07892-7.2753 29.5215-6.0864 30.2436-5.34502 30.6973-4.60367 31.15099-3.41476 31.88846-2.67342 32.34889-1.93204 32.80933-.74313 33.55373-.00179 34.01605 .73955 34.47838 1.92844 35.22095 2.66982 35.68114 3.41118 36.14131 4.60007 36.87907 5.34143 37.33276 6.0828 37.78645 7.2717 38.50851 8.01306 38.95111 8.75441 39.39372 9.94331 40.09546 10.68468 40.5228 11.42604 40.95013 12.61493 41.62325 13.3563 42.03116 14.09767 42.43906 15.28656 43.07796 16.02792 43.46266 16.76929 43.84735 17.95818 44.4461 18.69955 44.80386 19.44092 45.16164 20.6298 45.7142 21.37117 46.04128 22.11253 46.36836 23.30144 46.868 24.04279 47.16136 24.78416 47.45473 25.97305 47.8988 26.71442 48.15587 27.45578 48.41293 28.64468 48.79633 29.38605 49.01434 30.12741 49.23238 31.3163 49.55052 32.05766 49.72752 32.79904 49.9045 33.98792 50.1558 34.7293 50.29018 35.47064 50.42455 36.65955 50.60577 37.40092 50.69606 38.14227 50.78636 39.33118 50.89572 40.07253 50.94106 40.8139 50.9864 42.0028 51.02304 42.74416 51.02304 43.48552 51.02304 44.67441 50.9864 45.41579 50.94106 46.15715 50.89572 47.34604 50.78622 48.0874 50.69606 48.82877 50.60593 50.01767 50.42543 50.75903 50.2912 51.50038 50.15697 52.68929 49.90556 53.43066 49.72856 54.17201 49.55159 55.36092 49.23329 56.10226 49.01541 56.84364 48.79752 58.03253 48.41487 58.7739 48.15794 59.51527 47.90102 60.70415 47.45682 61.44553 47.16345 62.18689 46.87006 63.37578 46.37042 64.11714 46.04333 64.85852 45.71625 66.04741 45.16357 66.78877 44.80595 67.53014 44.44833 68.71902 43.85016 69.46039 43.46576 70.20175 43.08134 71.39066 42.44318 72.13202 42.03528 72.87338 41.62737 74.06227 40.95322 74.80363 40.5259 75.54501 40.09859 76.73389 39.39786 77.47527 38.95528 78.21663 38.51266 79.40552 37.78969 80.1469 37.33588 80.88824 36.88203 82.07715 36.14459 82.81851 35.68428 83.55988 35.22395 85.49013 34.01813 85.49013 34.01813"/>
</svg>
