<svg xmlns="http://www.w3.org/2000/svg" xmlns:xlink="http://www.w3.org/1999/xlink" version="1.1" width="183" height="122" viewBox="0 0 183 122">
<defs>
<path id="font_1_2" d="M.33399964 .30233766C.33999635 .32835389 .36299134 .42037965 .43299867 .42037965 .43798829 .42037965 .46199037 .42037965 .48298646 .40734864 .45498658 .402359 .43499757 .37734986 .43499757 .35334779 .43499757 .33735658 .44599916 .31835938 .47299195 .31835938 .49499513 .31835938 .5269928 .3363495 .5269928 .37635804 .5269928 .42837525 .46798707 .4423828 .43399049 .4423828 .37599183 .4423828 .34098817 .38935853 .32899476 .36634828 .3039856 .43237306 .25 .4423828 .22099304 .4423828 .116989139 .4423828 .05999756 .3133545 .05999756 .28834535 .05999756 .27833558 .069992069 .27833558 .07199097 .27833558 .07998657 .27833558 .08299255 .28033448 .084991458 .28933717 .11898804 .39535523 .18499756 .42037965 .21899414 .42037965 .23799134 .42037965 .272995 .4113617 .272995 .35334779 .272995 .32235719 .2559967 .25532533 .21899414 .11528015 .20298767 .053268434 .16799927 .011245728 .12399292 .011245728 .117996219 .011245728 .09498596 .011245728 .07398987 .024276734 .09899902 .029266358 .12098694 .05027771 .12098694 .07827759 .12098694 .105270389 .09899902 .11328125 .083999637 .11328125 .053985597 .11328125 .0289917 .08728027 .0289917 .055267335 .0289917 .009246826 .07899475-.0107421879 .12298584-.0107421879 .18899536-.0107421879 .22499085 .059280397 .22799683 .0652771 .23999024 .028274537 .27598573-.0107421879 .33599855-.0107421879 .43899537-.0107421879 .49598695 .118270877 .49598695 .14328003 .49598695 .1532898 .4869995 .1532898 .48399354 .1532898 .47499085 .1532898 .47299195 .14929199 .47099305 .14228821 .43798829 .03527832 .36999513 .011245728 .33799745 .011245728 .29899598 .011245728 .2829895 .043273927 .2829895 .07727051 .2829895 .09927368 .2889862 .121276859 .2999878 .16529846L.33399964 .30233766Z"/>
<path id="font_1_3" d="M.48599244 .38136292C.48999024 .39537049 .48999024 .39736939 .48999024 .40437318 .48999024 .42237855 .47599793 .43138124 .46099855 .43138124 .45098878 .43138124 .43499757 .42536927 .42599488 .41036988 .42399598 .405365 .41600038 .37435914 .4119873 .35635377 .40499879 .33035279 .397995 .30334474 .3919983 .27633668L.34700013 .09628296C.34298707 .08126831 .2999878 .011245728 .23399353 .011245728 .18299866 .011245728 .17199707 .055267335 .17199707 .0922699 .17199707 .1382904 .18899536 .20030213 .22299195 .28833009 .23899842 .3293457 .24299622 .3403473 .24299622 .36035157 .24299622 .405365 .21099854 .4423828 .16099549 .4423828 .06599426 .4423828 .0289917 .29733277 .0289917 .28833009 .0289917 .27833558 .038986207 .27833558 .040985109 .27833558 .050994874 .27833558 .051986696 .28033448 .056991579 .29634095 .083999637 .3903656 .12399292 .42037965 .1579895 .42037965 .1659851 .42037965 .18299866 .42037965 .18299866 .3883667 .18299866 .36335755 .17298889 .3373413 .1659851 .31834413 .12599182 .21231079 .10798645 .1552887 .10798645 .10827637 .10798645 .019256592 .17098999-.0107421879 .22999573-.0107421879 .2689972-.0107421879 .30299378 .0062561037 .33099366 .03425598 .31799317-.017745972 .30599977-.06674194 .2659912-.11973572 .23999024-.15385437 .20199585-.18309021 .1559906-.18309021 .14199829-.18309021 .09700012-.18005371 .07998657-.14074707 .09599304-.14074707 .10899353-.14074707 .12298584-.1287384 .1329956-.11973572 .14299011-.10673523 .14299011-.08773804 .14299011-.056747438 .115997318-.052734376 .10598755-.052734376 .08299255-.052734376 .049987794-.068740848 .049987794-.11773682 .049987794-.16796875 .09399414-.20507813 .1559906-.20507813 .25898744-.20507813 .3619995-.11373901 .3899994-.00074768069L.48599244 .38136292Z"/>
<path id="font_2_1" d="M.6589966 .23046875C.6759949 .23046875 .69400027 .23046875 .69400027 .25045777 .69400027 .27046205 .6759949 .27046205 .6589966 .27046205H.117996219C.100997928 .27046205 .08299255 .27046205 .08299255 .25045777 .08299255 .23046875 .100997928 .23046875 .117996219 .23046875H.6589966Z"/>
<path id="font_3_3" d="M.2899933 .35191346C.37199403 .37893678 .42999269 .4490509 .42999269 .52809146 .42999269 .6100464 .34199525 .6660156 .24598694 .6660156 .14498902 .6660156 .068984989 .60606387 .068984989 .53009036 .068984989 .49710084 .09098816 .47808839 .11999512 .47808839 .15098572 .47808839 .17098999 .50009158 .17098999 .5290985 .17098999 .57910159 .12399292 .57910159 .10899353 .57910159 .13999939 .62802127 .20599365 .64100649 .24198914 .64100649 .2829895 .64100649 .33799745 .6190338 .33799745 .5290985 .33799745 .51708987 .33599855 .45906068 .30999757 .4149933 .27999879 .36691285 .24598694 .36390687 .22099304 .36291505 .21299744 .36190797 .18899536 .35990907 .18199158 .35990907 .17399597 .35890199 .16699219 .35791017 .16699219 .3479004 .16699219 .33691407 .17399597 .33691407 .19099427 .33691407H.23498535C.31698609 .33691407 .35398866 .2686615 .35398866 .17037964 .35398866 .034469606 .2849884 .0055389406 .24099732 .0055389406 .19799805 .0055389406 .12298584 .022491456 .08799744 .08137512 .12298584 .07637024 .1539917 .09837341 .1539917 .1363678 .1539917 .17237854 .1269989 .19238281 .09799194 .19238281 .07398987 .19238281 .041992189 .17837525 .041992189 .1343689 .041992189 .043441774 .1349945-.022460938 .24398804-.022460938 .3659973-.022460938 .45700074 .06838989 .45700074 .17037964 .45700074 .252594 .3939972 .33088685 .2899933 .35191346Z"/>
<path id="font_3_2" d="M.1269989 .07699585 .23298645 .18003845C.3889923 .31811524 .44898988 .3721466 .44898988 .47216798 .44898988 .5860901 .35899354 .6660156 .23699951 .6660156 .12399292 .6660156 .049987794 .57411196 .049987794 .48516847 .049987794 .4291687 .099990848 .4291687 .102996829 .4291687 .11999512 .4291687 .15499878 .44117738 .15499878 .48217774 .15499878 .5081787 .13699341 .5341797 .101989749 .5341797 .09399414 .5341797 .09199524 .5341797 .08898926 .5331726 .11199951 .59806826 .1659851 .63500979 .22399903 .63500979 .31498719 .63500979 .35798646 .5541382 .35798646 .47216798 .35798646 .39215089 .30799867 .31311036 .25299073 .25108338L.06098938 .036987306C.049987794 .025985718 .049987794 .023986817 .049987794 0H.42099L.44898988 .17404175H.42399598C.4189911 .14402771 .4119873 .1000061 .4019928 .084991458 .394989 .07699585 .32899476 .07699585 .30699159 .07699585H.1269989Z"/>
<path id="font_3_1" d="M.2939911 .64004519C.2939911 .66400149 .2939911 .6660156 .2709961 .6660156 .20899964 .60227969 .12098694 .60227969 .08898926 .60227969V.57128909C.10899353 .57128909 .16799927 .57128909 .21998596 .5972748V.07902527C.21998596 .042999269 .21699524 .0309906 .1269989 .0309906H.09498596V0C.12998963 .0029907227 .21699524 .0029907227 .25698854 .0029907227 .29699708 .0029907227 .38398744 .0029907227 .4189911 0V.0309906H.3869934C.29699708 .0309906 .2939911 .041992189 .2939911 .07902527V.64004519Z"/>
<path id="font_4_64" d="M.27598573 .18710327V.24511719H.010986328V.18710327H.27598573Z"/>
<path id="font_1_1" d="M.2649994 .37265016H.37799073C.34498597 .22489929 .33599855 .18196106 .33599855 .11508179 .33599855 .100097659 .33599855 .073150638 .34399415 .03919983 .35398866-.0047454836 .36499024-.0107421879 .37998963-.0107421879 .3999939-.0107421879 .42099 .007247925 .42099 .02722168 .42099 .033218385 .42099 .035202028 .4149933 .049179079 .38598634 .12106323 .38598634 .18595886 .38598634 .21391297 .38598634 .26683045 .3929901 .32073976 .4039917 .37265016H.5179901C.5309906 .37265016 .5669861 .37265016 .5669861 .406662 .5669861 .43066407 .54599 .43066407 .5269928 .43066407H.19198609C.16999817 .43066407 .13198853 .43066407 .08799744 .38365174 .052993776 .34469605 .026992798 .29878236 .026992798 .29379273 .026992798 .29278565 .026992798 .28379823 .038986207 .28379823 .04699707 .28379823 .04899597 .28779603 .054992677 .29577638 .10398865 .37265016 .1619873 .37265016 .18199158 .37265016H.23899842C.20698548 .25186158 .15299988 .13105774 .11099243 .04020691 .102996829 .025222779 .102996829 .023223877 .102996829 .016235352 .102996829-.002746582 .11898804-.0107421879 .13198853-.0107421879 .1619873-.0107421879 .16999817 .017242432 .18199158 .05418396 .19599915 .100097659 .19599915 .10209656 .20899964 .15202332L.2649994 .37265016Z"/>
</defs>
<path transform="matrix(1.00005,0,0,-1,88.21254,69.267)" stroke-width=".3985" stroke-linecap="butt" stroke-miterlimit="10" stroke-linejoin="miter" fill="none" stroke="#00aeef" d="M-80.148-51.0239H80.148M-80.148-38.26791H80.148M-80.148-25.51193H80.148M-80.148-12.75595H80.148M-80.148 0H80.148M-80.148 12.75595H80.148M-80.148 25.51193H80.148M-80.148 38.26791H80.148M-80.148 51.01941H80.148M-80.14682-51.0239V51.0239M-70.12846-51.0239V51.0239M-60.1101-51.0239V51.0239M-50.09175-51.0239V51.0239M-40.0734-51.0239V51.0239M-30.05505-51.0239V51.0239M-20.03668-51.0239V51.0239M-10.01834-51.0239V51.0239M0-51.0239V51.0239M10.01834-51.0239V51.0239M20.03668-51.0239V51.0239M30.05505-51.0239V51.0239M40.0734-51.0239V51.0239M50.09175-51.0239V51.0239M60.1101-51.0239V51.0239M70.12846-51.0239V51.0239M80.14682-51.0239V51.0239M80.148 51.0239"/>
<path transform="matrix(1.00005,0,0,-1,88.21254,69.267)" stroke-width=".79701" stroke-linecap="butt" stroke-miterlimit="10" stroke-linejoin="miter" fill="none" stroke="#000000" d="M-80.148 0H82.7549"/>
<path transform="matrix(1.00005,0,0,-1,170.97158,69.267)" d="M1.0361 0C-.25902 .25902-1.55415 .77707-3.1083 1.68365-1.55415 .51805-1.55415-.51805-3.1083-1.68365-1.55415-.77707-.25902-.25902 1.0361 0Z"/>
<path transform="matrix(1.00005,0,0,-1,170.97158,69.267)" stroke-width=".79701" stroke-linecap="butt" stroke-linejoin="round" fill="none" stroke="#000000" d="M1.0361 0C-.25902 .25902-1.55415 .77707-3.1083 1.68365-1.55415 .51805-1.55415-.51805-3.1083-1.68365-1.55415-.77707-.25902-.25902 1.0361 0Z"/>
<use data-text="x" xlink:href="#font_1_2" transform="matrix(9.963098,0,0,-9.9626,176.12593,71.412)"/>
<path transform="matrix(1.00005,0,0,-1,88.21254,69.267)" stroke-width=".79701" stroke-linecap="butt" stroke-miterlimit="10" stroke-linejoin="miter" fill="none" stroke="#000000" d="M0-51.0239V55.96727"/>
<path transform="matrix(0,-1,-1.00005,-0,88.21254,13.299728)" d="M1.0361 0C-.25902 .25902-1.55415 .77707-3.1083 1.68365-1.55415 .51805-1.55415-.51805-3.1083-1.68365-1.55415-.77707-.25902-.25902 1.0361 0Z"/>
<path transform="matrix(0,-1,-1.00005,-0,88.21254,13.299728)" stroke-width=".79701" stroke-linecap="butt" stroke-linejoin="round" fill="none" stroke="#000000" d="M1.0361 0C-.25902 .25902-1.55415 .77707-3.1083 1.68365-1.55415 .51805-1.55415-.51805-3.1083-1.68365-1.55415-.77707-.25902-.25902 1.0361 0Z"/>
<use data-text="y" xlink:href="#font_1_3" transform="matrix(9.963098,0,0,-9.9626,85.59141,6.2089998)"/>
<path transform="matrix(1.00005,0,0,-1,88.21254,69.267)" stroke-width=".79701" stroke-linecap="butt" stroke-miterlimit="10" stroke-linejoin="miter" fill="none" stroke="#000000" d="M1.27565-38.26791H-1.27547"/>
<path transform="matrix(1.00005,0,0,-1,88.21254,69.267)" d="M-18.38931-42.88953H-3.6665307V-33.6463H-18.38931Z" fill="#ffffff"/>
<use data-text="&#x2212;" xlink:href="#font_2_1" transform="matrix(9.963098,0,0,-9.9626,70.81867,110.33)"/>
<use data-text="3" xlink:href="#font_3_3" transform="matrix(9.963098,0,0,-9.9626,78.56707,110.33)"/>
<path transform="matrix(1.00005,0,0,-1,88.21254,69.267)" stroke-width=".79701" stroke-linecap="butt" stroke-miterlimit="10" stroke-linejoin="miter" fill="none" stroke="#000000" d="M1.27565-25.51193H-1.27547"/>
<path transform="matrix(1.00005,0,0,-1,88.21254,69.267)" d="M-18.38931-30.13354H-3.6665307V-20.890309H-18.38931Z" fill="#ffffff"/>
<use data-text="&#x2212;" xlink:href="#font_2_1" transform="matrix(9.963098,0,0,-9.9626,70.81867,97.574)"/>
<use data-text="2" xlink:href="#font_3_2" transform="matrix(9.963098,0,0,-9.9626,78.56707,97.574)"/>
<path transform="matrix(1.00005,0,0,-1,88.21254,69.267)" stroke-width=".79701" stroke-linecap="butt" stroke-miterlimit="10" stroke-linejoin="miter" fill="none" stroke="#000000" d="M1.27565-12.75595H-1.27547"/>
<path transform="matrix(1.00005,0,0,-1,88.21254,69.267)" d="M-18.38931-17.37758H-3.6665307V-8.134351H-18.38931Z" fill="#ffffff"/>
<use data-text="&#x2212;" xlink:href="#font_2_1" transform="matrix(9.963098,0,0,-9.9626,70.81867,84.81799)"/>
<use data-text="1" xlink:href="#font_3_1" transform="matrix(9.963098,0,0,-9.9626,78.56707,84.81799)"/>
<path transform="matrix(1.00005,0,0,-1,88.21254,69.267)" stroke-width=".79701" stroke-linecap="butt" stroke-miterlimit="10" stroke-linejoin="miter" fill="none" stroke="#000000" d="M1.27565 12.75595H-1.27547"/>
<path transform="matrix(1.00005,0,0,-1,88.21254,69.267)" d="M-10.64047 8.54947H-3.6665297V16.96245H-10.64047Z" fill="#ffffff"/>
<use data-text="1" xlink:href="#font_3_1" transform="matrix(9.963098,0,0,-9.9626,78.568058,59.721)"/>
<path transform="matrix(1.00005,0,0,-1,88.21254,69.267)" stroke-width=".79701" stroke-linecap="butt" stroke-miterlimit="10" stroke-linejoin="miter" fill="none" stroke="#000000" d="M1.27565 25.51193H-1.27547"/>
<path transform="matrix(1.00005,0,0,-1,88.21254,69.267)" d="M-10.64047 21.30545H-3.6665297V29.71843H-10.64047Z" fill="#ffffff"/>
<use data-text="2" xlink:href="#font_3_2" transform="matrix(9.963098,0,0,-9.9626,78.568058,46.964998)"/>
<path transform="matrix(1.00005,0,0,-1,88.21254,69.267)" stroke-width=".79701" stroke-linecap="butt" stroke-miterlimit="10" stroke-linejoin="miter" fill="none" stroke="#000000" d="M1.27565 38.26791H-1.27547"/>
<path transform="matrix(1.00005,0,0,-1,88.21254,69.267)" d="M-10.64047 34.06142H-3.6665297V42.4744H-10.64047Z" fill="#ffffff"/>
<use data-text="3" xlink:href="#font_3_3" transform="matrix(9.963098,0,0,-9.9626,78.568058,34.209)"/>
<path transform="matrix(1.00005,0,0,-1,88.21254,69.267)" stroke-width=".79701" stroke-linecap="butt" stroke-miterlimit="10" stroke-linejoin="miter" fill="none" stroke="#000000" d="M-80.148 2.55115V-2.55115"/>
<path transform="matrix(1.00005,0,0,-1,88.21254,69.267)" d="M-88.31203-13.3552H-71.98398V-4.9422199H-88.31203Z" fill="#ffffff"/>
<use data-text="-" xlink:href="#font_4_64" transform="matrix(9.963098,0,0,-9.9626,.89216616,81.626)"/>
<use data-text="2" xlink:href="#font_3_2" transform="matrix(9.963098,0,0,-9.9626,4.2093355,81.626)"/>
<use data-text="&#x03c0;" xlink:href="#font_1_1" transform="matrix(9.963098,0,0,-9.9626,9.190598,81.626)"/>
<path transform="matrix(1.00005,0,0,-1,88.21254,69.267)" stroke-width=".79701" stroke-linecap="butt" stroke-miterlimit="10" stroke-linejoin="miter" fill="none" stroke="#000000" d="M-40.07399 2.55115V-2.55115"/>
<path transform="matrix(1.00005,0,0,-1,88.21254,69.267)" d="M-47.96294-13.57658H-32.18506V-4.9421999H-47.96294Z" fill="#ffffff"/>
<use data-text="&#x2212;" xlink:href="#font_2_1" transform="matrix(9.963098,0,0,-9.9626,41.243196,81.017)"/>
<use data-text="&#x03c0;" xlink:href="#font_1_1" transform="matrix(9.963098,0,0,-9.9626,48.991594,81.017)"/>
<path transform="matrix(1.00005,0,0,-1,88.21254,69.267)" stroke-width=".79701" stroke-linecap="butt" stroke-miterlimit="10" stroke-linejoin="miter" fill="none" stroke="#000000" d="M40.07399 2.55115V-2.55115"/>
<path transform="matrix(1.00005,0,0,-1,88.21254,69.267)" d="M36.05946-11.22427H44.0885V-4.9422099H36.05946Z" fill="#ffffff"/>
<use data-text="&#x03c0;" xlink:href="#font_1_1" transform="matrix(9.963098,0,0,-9.9626,125.270389,79.494998)"/>
<path transform="matrix(1.00005,0,0,-1,88.21254,69.267)" stroke-width=".79701" stroke-linecap="butt" stroke-miterlimit="10" stroke-linejoin="miter" fill="none" stroke="#000000" d="M80.148 2.55115V-2.55115"/>
<path transform="matrix(1.00005,0,0,-1,88.21254,69.267)" d="M73.64279-13.3552H86.65321V-4.9422199H73.64279Z" fill="#ffffff"/>
<use data-text="2" xlink:href="#font_3_2" transform="matrix(9.963098,0,0,-9.9626,162.85527,81.626)"/>
<use data-text="&#x03c0;" xlink:href="#font_1_1" transform="matrix(9.963098,0,0,-9.9626,167.83654,81.626)"/>
<path transform="matrix(1.00005,0,0,-1,88.21254,69.267)" stroke-width=".79701" stroke-linecap="butt" stroke-miterlimit="10" stroke-linejoin="miter" fill="none" stroke="#ff0000" d="M-80.148 0C-80.148 0-78.33852 1.81107-77.64355 2.48827-76.94858 3.16547-75.83408 4.24284-75.13911 4.88078-74.44414 5.51872-73.32962 6.51187-72.63466 7.08607-71.9397 7.66026-70.8252 8.53094-70.13023 9.01926-69.43526 9.50754-68.32074 10.22179-67.62578 10.60538-66.9308 10.98895-65.8163 11.51964-65.12134 11.7839-64.42638 12.0482-63.31186 12.37529-62.6169 12.51013-61.92192 12.64497-60.80742 12.7557-60.11244 12.75575-59.41748 12.7558-58.30296 12.64523-57.60802 12.51053-56.91304 12.37582-55.79854 12.04906-55.10356 11.7849-54.4086 11.52075-53.29408 10.99022-52.59912 10.60674-51.90416 10.22325-50.78966 9.50916-50.09468 9.021-49.3997 8.53285-48.2852 7.6625-47.59024 7.08841-46.89526 6.51433-45.78076 5.5212-45.08578 4.88333-44.39082 4.24544-43.27632 3.16818-42.58136 2.49098-41.88638 1.81381-40.77187 .69318-40.0769 .00272-39.38193-.68771-38.26743-1.80812-37.57246-2.48535-36.8775-3.16258-35.76299-4.24025-35.06802-4.87827-34.37305-5.51627-33.25854-6.50948-32.56357-7.08374-31.8686-7.65799-30.75409-8.52873-30.05914-9.0171-29.36417-9.50548-28.24966-10.21991-27.55469-10.60362-26.85973-10.98735-25.74522-11.51833-25.05025-11.78276-24.35529-12.0472-23.24078-12.37454-22.5458-12.50955-21.85085-12.64455-20.73633-12.75554-20.04137-12.75575-19.34639-12.756-18.23189-12.6458-17.53691-12.51129-16.84195-12.37677-15.72745-12.05026-15.03249-11.78625-14.33751-11.52226-13.223-10.99185-12.52803-10.60847-11.83305-10.22511-10.71855-9.51122-10.0236-9.02315-9.32863-8.53506-8.21411-7.66475-7.51915-7.09074-6.82417-6.51672-5.70967-5.52385-5.0147-4.88605-4.31975-4.24825-3.20523-3.17107-2.51027-2.49393-1.81529-1.81677-.70079-.69609-.00581-.00563 .68912 .6848 1.80362 1.80519 2.4986 2.48244 3.19354 3.15967 4.30806 4.23729 5.00302 4.87534 5.698 5.51341 6.8125 6.50685 7.50748 7.0812 8.20244 7.65558 9.31696 8.52647 10.0119 9.01497 10.70688 9.50345 11.82138 10.218 12.51636 10.60187 13.21132 10.98573 14.32584 11.51701 15.02081 11.78159 15.71577 12.04616 16.83028 12.37361 17.52524 12.50877 18.22021 12.64394 19.33472 12.75534 20.0297 12.75575 20.72466 12.7562 21.83916 12.64626 22.53413 12.51187 23.2291 12.3775 24.3436 12.0511 25.03856 11.78723 25.73354 11.52336 26.84804 10.99326 27.54301 10.61005 28.23799 10.22684 29.3525 9.51323 30.04745 9.02528 30.74242 8.53734 31.85693 7.66718 32.5519 7.09328 33.24687 6.51938 34.36137 5.52672 35.05635 4.88898 35.75131 4.25122 36.86583 3.17395 37.56078 2.49683 38.25575 1.81972 39.37025 .6992 40.06523 .00873 40.7602-.6817 41.87471-1.80223 42.56967-2.4795 43.26463-3.15678 44.37915-4.23451 45.07411-4.87262 45.76907-5.51071 46.88358-6.50404 47.57855-7.07848 48.27353-7.65292 49.38803-8.52419 50.08301-9.01282 50.77797-9.50146 51.89247-10.21631 52.58743-10.60031 53.28241-10.9843 54.39691-11.5157 55.09189-11.78041 55.78687-12.04514 56.90137-12.37285 57.59631-12.50818 58.29129-12.64351 59.40579-12.75519 60.10077-12.75575 60.79575-12.75635 61.91025-12.64668 62.60521-12.51247 63.30019-12.37825 64.4147-12.05214 65.10965-11.78839 65.80463-11.52467 66.91913-10.99469 67.6141-10.61162 68.30907-10.22852 69.42358-9.51523 70.11855-9.02744 70.8135-8.53961 71.92801-7.66963 72.62299-7.09581 73.31795-6.52199 74.43245-5.52937 75.12743-4.8917 75.8224-4.25401 76.9369-3.17683 77.63188-2.49974 78.32683-1.82266 80.1363-.01167 80.1363-.01167"/>
</svg>
