<svg xmlns="http://www.w3.org/2000/svg" xmlns:xlink="http://www.w3.org/1999/xlink" version="1.1" width="169" height="113" viewBox="0 0 169 113">
<defs>
<path id="font_1_2" d="M.33399964 .30233766C.33999635 .32835389 .36299134 .42037965 .43299867 .42037965 .43798829 .42037965 .46199037 .42037965 .48298646 .40734864 .45498658 .402359 .43499757 .37734986 .43499757 .35334779 .43499757 .33735658 .44599916 .31835938 .47299195 .31835938 .49499513 .31835938 .5269928 .3363495 .5269928 .37635804 .5269928 .42837525 .46798707 .4423828 .43399049 .4423828 .37599183 .4423828 .34098817 .38935853 .32899476 .36634828 .3039856 .43237306 .25 .4423828 .22099304 .4423828 .116989139 .4423828 .05999756 .3133545 .05999756 .28834535 .05999756 .27833558 .069992069 .27833558 .07199097 .27833558 .07998657 .27833558 .08299255 .28033448 .084991458 .28933717 .11898804 .39535523 .18499756 .42037965 .21899414 .42037965 .23799134 .42037965 .272995 .4113617 .272995 .35334779 .272995 .32235719 .2559967 .25532533 .21899414 .11528015 .20298767 .053268434 .16799927 .011245728 .12399292 .011245728 .117996219 .011245728 .09498596 .011245728 .07398987 .024276734 .09899902 .029266358 .12098694 .05027771 .12098694 .07827759 .12098694 .105270389 .09899902 .11328125 .083999637 .11328125 .053985597 .11328125 .0289917 .08728027 .0289917 .055267335 .0289917 .009246826 .07899475-.0107421879 .12298584-.0107421879 .18899536-.0107421879 .22499085 .059280397 .22799683 .0652771 .23999024 .028274537 .27598573-.0107421879 .33599855-.0107421879 .43899537-.0107421879 .49598695 .118270877 .49598695 .14328003 .49598695 .1532898 .4869995 .1532898 .48399354 .1532898 .47499085 .1532898 .47299195 .14929199 .47099305 .14228821 .43798829 .03527832 .36999513 .011245728 .33799745 .011245728 .29899598 .011245728 .2829895 .043273927 .2829895 .07727051 .2829895 .09927368 .2889862 .121276859 .2999878 .16529846L.33399964 .30233766Z"/>
<path id="font_1_3" d="M.48599244 .38136292C.48999024 .39537049 .48999024 .39736939 .48999024 .40437318 .48999024 .42237855 .47599793 .43138124 .46099855 .43138124 .45098878 .43138124 .43499757 .42536927 .42599488 .41036988 .42399598 .405365 .41600038 .37435914 .4119873 .35635377 .40499879 .33035279 .397995 .30334474 .3919983 .27633668L.34700013 .09628296C.34298707 .08126831 .2999878 .011245728 .23399353 .011245728 .18299866 .011245728 .17199707 .055267335 .17199707 .0922699 .17199707 .1382904 .18899536 .20030213 .22299195 .28833009 .23899842 .3293457 .24299622 .3403473 .24299622 .36035157 .24299622 .405365 .21099854 .4423828 .16099549 .4423828 .06599426 .4423828 .0289917 .29733277 .0289917 .28833009 .0289917 .27833558 .038986207 .27833558 .040985109 .27833558 .050994874 .27833558 .051986696 .28033448 .056991579 .29634095 .083999637 .3903656 .12399292 .42037965 .1579895 .42037965 .1659851 .42037965 .18299866 .42037965 .18299866 .3883667 .18299866 .36335755 .17298889 .3373413 .1659851 .31834413 .12599182 .21231079 .10798645 .1552887 .10798645 .10827637 .10798645 .019256592 .17098999-.0107421879 .22999573-.0107421879 .2689972-.0107421879 .30299378 .0062561037 .33099366 .03425598 .31799317-.017745972 .30599977-.06674194 .2659912-.11973572 .23999024-.15385437 .20199585-.18309021 .1559906-.18309021 .14199829-.18309021 .09700012-.18005371 .07998657-.14074707 .09599304-.14074707 .10899353-.14074707 .12298584-.1287384 .1329956-.11973572 .14299011-.10673523 .14299011-.08773804 .14299011-.056747438 .115997318-.052734376 .10598755-.052734376 .08299255-.052734376 .049987794-.068740848 .049987794-.11773682 .049987794-.16796875 .09399414-.20507813 .1559906-.20507813 .25898744-.20507813 .3619995-.11373901 .3899994-.00074768069L.48599244 .38136292Z"/>
<path id="font_2_1" d="M.6589966 .23046875C.6759949 .23046875 .69400027 .23046875 .69400027 .25045777 .69400027 .27046205 .6759949 .27046205 .6589966 .27046205H.117996219C.100997928 .27046205 .08299255 .27046205 .08299255 .25045777 .08299255 .23046875 .100997928 .23046875 .117996219 .23046875H.6589966Z"/>
<path id="font_3_1" d="M.2939911 .64004519C.2939911 .66400149 .2939911 .6660156 .2709961 .6660156 .20899964 .60227969 .12098694 .60227969 .08898926 .60227969V.57128909C.10899353 .57128909 .16799927 .57128909 .21998596 .5972748V.07902527C.21998596 .042999269 .21699524 .0309906 .1269989 .0309906H.09498596V0C.12998963 .0029907227 .21699524 .0029907227 .25698854 .0029907227 .29699708 .0029907227 .38398744 .0029907227 .4189911 0V.0309906H.3869934C.29699708 .0309906 .2939911 .041992189 .2939911 .07902527V.64004519Z"/>
<path id="font_1_1" d="M.2649994 .37265016H.37799073C.34498597 .22489929 .33599855 .18196106 .33599855 .11508179 .33599855 .100097659 .33599855 .073150638 .34399415 .03919983 .35398866-.0047454836 .36499024-.0107421879 .37998963-.0107421879 .3999939-.0107421879 .42099 .007247925 .42099 .02722168 .42099 .033218385 .42099 .035202028 .4149933 .049179079 .38598634 .12106323 .38598634 .18595886 .38598634 .21391297 .38598634 .26683045 .3929901 .32073976 .4039917 .37265016H.5179901C.5309906 .37265016 .5669861 .37265016 .5669861 .406662 .5669861 .43066407 .54599 .43066407 .5269928 .43066407H.19198609C.16999817 .43066407 .13198853 .43066407 .08799744 .38365174 .052993776 .34469605 .026992798 .29878236 .026992798 .29379273 .026992798 .29278565 .026992798 .28379823 .038986207 .28379823 .04699707 .28379823 .04899597 .28779603 .054992677 .29577638 .10398865 .37265016 .1619873 .37265016 .18199158 .37265016H.23899842C.20698548 .25186158 .15299988 .13105774 .11099243 .04020691 .102996829 .025222779 .102996829 .023223877 .102996829 .016235352 .102996829-.002746582 .11898804-.0107421879 .13198853-.0107421879 .1619873-.0107421879 .16999817 .017242432 .18199158 .05418396 .19599915 .100097659 .19599915 .10209656 .20899964 .15202332L.2649994 .37265016Z"/>
<path id="font_3_2" d="M.1269989 .07699585 .23298645 .18003845C.3889923 .31811524 .44898988 .3721466 .44898988 .47216798 .44898988 .5860901 .35899354 .6660156 .23699951 .6660156 .12399292 .6660156 .049987794 .57411196 .049987794 .48516847 .049987794 .4291687 .099990848 .4291687 .102996829 .4291687 .11999512 .4291687 .15499878 .44117738 .15499878 .48217774 .15499878 .5081787 .13699341 .5341797 .101989749 .5341797 .09399414 .5341797 .09199524 .5341797 .08898926 .5331726 .11199951 .59806826 .1659851 .63500979 .22399903 .63500979 .31498719 .63500979 .35798646 .5541382 .35798646 .47216798 .35798646 .39215089 .30799867 .31311036 .25299073 .25108338L.06098938 .036987306C.049987794 .025985718 .049987794 .023986817 .049987794 0H.42099L.44898988 .17404175H.42399598C.4189911 .14402771 .4119873 .1000061 .4019928 .084991458 .394989 .07699585 .32899476 .07699585 .30699159 .07699585H.1269989Z"/>
</defs>
<path transform="matrix(1.00003,0,0,-1.00002,79.03087,66.29207)" stroke-width=".3985" stroke-linecap="butt" stroke-miterlimit="10" stroke-linejoin="miter" fill="none" stroke="#00aeef" d="M-71.24341-45.35504H71.24341M-71.24341-34.01628H71.24341M-71.24341-22.67752H71.24341M-71.24341-11.33876H71.24341M-71.24341 0H71.24341M-71.24341 11.33876H71.24341M-71.24341 22.67752H71.24341M-71.24341 34.01628H71.24341M-71.24341 45.35504H71.24341M-71.24237-45.35506V45.35506M-53.43176-45.35506V45.35506M-35.62117-45.35506V45.35506M-17.81058-45.35506V45.35506M0-45.35506V45.35506M17.81058-45.35506V45.35506M35.62117-45.35506V45.35506M53.43176-45.35506V45.35506M71.24237-45.35506V45.35506M71.24341 45.35506"/>
<path transform="matrix(1.00003,0,0,-1.00002,79.03087,66.29207)" stroke-width=".79701" stroke-linecap="butt" stroke-miterlimit="10" stroke-linejoin="miter" fill="none" stroke="#000000" d="M-71.24341 0H77.93674"/>
<path transform="matrix(1.00003,0,0,-1.00002,156.96994,66.29207)" d="M1.0361 0C-.25902 .25902-1.55415 .77707-3.1083 1.68365-1.55415 .51805-1.55415-.51805-3.1083-1.68365-1.55415-.77707-.25902-.25902 1.0361 0Z"/>
<path transform="matrix(1.00003,0,0,-1.00002,156.96994,66.29207)" stroke-width=".79701" stroke-linecap="butt" stroke-linejoin="round" fill="none" stroke="#000000" d="M1.0361 0C-.25902 .25902-1.55415 .77707-3.1083 1.68365-1.55415 .51805-1.55415-.51805-3.1083-1.68365-1.55415-.77707-.25902-.25902 1.0361 0Z"/>
<use data-text="x" xlink:href="#font_1_2" transform="matrix(9.962899,0,0,-9.962799,162.12335,68.43711)"/>
<path transform="matrix(1.00003,0,0,-1.00002,79.03087,66.29207)" stroke-width=".79701" stroke-linecap="butt" stroke-miterlimit="10" stroke-linejoin="miter" fill="none" stroke="#000000" d="M0-45.35506V52.99132"/>
<path transform="matrix(0,-1.00002,-1.00003,-0,79.03087,13.299686)" d="M1.0361 0C-.25902 .25902-1.55415 .77707-3.1083 1.68365-1.55415 .51805-1.55415-.51805-3.1083-1.68365-1.55415-.77707-.25902-.25902 1.0361 0Z"/>
<path transform="matrix(0,-1.00002,-1.00003,-0,79.03087,13.299686)" stroke-width=".79701" stroke-linecap="butt" stroke-linejoin="round" fill="none" stroke="#000000" d="M1.0361 0C-.25902 .25902-1.55415 .77707-3.1083 1.68365-1.55415 .51805-1.55415-.51805-3.1083-1.68365-1.55415-.77707-.25902-.25902 1.0361 0Z"/>
<use data-text="y" xlink:href="#font_1_3" transform="matrix(9.962899,0,0,-9.962799,76.40979,6.208866)"/>
<path transform="matrix(1.00003,0,0,-1.00002,79.03087,66.29207)" stroke-width=".79701" stroke-linecap="butt" stroke-miterlimit="10" stroke-linejoin="miter" fill="none" stroke="#000000" d="M3.40146-22.67752H-3.40182"/>
<path transform="matrix(1.00003,0,0,-1.00002,79.03087,66.29207)" d="M-20.51567-27.29913H-5.7928907V-18.0559H-20.51567Z" fill="#ffffff"/>
<use data-text="&#x2212;" xlink:href="#font_2_1" transform="matrix(9.962899,0,0,-9.962799,59.511285,91.76558)"/>
<use data-text="1" xlink:href="#font_3_1" transform="matrix(9.962899,0,0,-9.962799,67.260509,91.76558)"/>
<path transform="matrix(1.00003,0,0,-1.00002,79.03087,66.29207)" stroke-width=".79701" stroke-linecap="butt" stroke-miterlimit="10" stroke-linejoin="miter" fill="none" stroke="#000000" d="M3.40146 22.67752H-3.40182"/>
<path transform="matrix(1.00003,0,0,-1.00002,79.03087,66.29207)" d="M-12.76683 18.47102H-5.7928907V26.883999H-12.76683Z" fill="#ffffff"/>
<use data-text="1" xlink:href="#font_3_1" transform="matrix(9.962899,0,0,-9.962799,67.259517,46.82468)"/>
<path transform="matrix(1.00003,0,0,-1.00002,79.03087,66.29207)" stroke-width=".79701" stroke-linecap="butt" stroke-miterlimit="10" stroke-linejoin="miter" fill="none" stroke="#000000" d="M-71.24341 2.26787V-2.26753"/>
<path transform="matrix(1.00003,0,0,-1.00002,79.03087,66.29207)" d="M-79.13235-13.29298H-63.35447V-4.6586H-79.13235Z" fill="#ffffff"/>
<use data-text="&#x2212;" xlink:href="#font_2_1" transform="matrix(9.962899,0,0,-9.962799,.8925171,77.7583)"/>
<use data-text="&#x03c0;" xlink:href="#font_1_1" transform="matrix(9.962899,0,0,-9.962799,8.641739,77.7583)"/>
<path transform="matrix(1.00003,0,0,-1.00002,79.03087,66.29207)" stroke-width=".79701" stroke-linecap="butt" stroke-miterlimit="10" stroke-linejoin="miter" fill="none" stroke="#000000" d="M-35.6215 2.26787V-2.26753"/>
<path transform="matrix(1.00003,0,0,-1.00002,79.03087,66.29207)" d="M-44.70598-26.03662H-26.53703V-4.6586H-44.70598Z" fill="#ffffff"/>
<use data-text="&#x2212;" xlink:href="#font_2_1" transform="matrix(9.962899,0,0,-9.962799,36.514596,77.7583)"/>
<use data-text="&#x03c0;" xlink:href="#font_1_1" transform="matrix(9.962899,0,0,-9.962799,44.263833,77.7583)"/>
<path transform="matrix(1.00003,0,0,-1.00002,-126.71331,31.204365)" stroke-width=".3985" stroke-linecap="butt" stroke-miterlimit="10" stroke-linejoin="miter" fill="none" stroke="#000000" d="M163.223-50.802H177.009"/>
<use data-text="2" xlink:href="#font_3_2" transform="matrix(9.962899,0,0,-9.962799,40.916727,91.332569)"/>
<path transform="matrix(1.00003,0,0,-1.00002,79.03087,66.29207)" stroke-width=".79701" stroke-linecap="butt" stroke-miterlimit="10" stroke-linejoin="miter" fill="none" stroke="#000000" d="M35.6215 2.26787V-2.26753"/>
<path transform="matrix(1.00003,0,0,-1.00002,79.03087,66.29207)" d="M30.41145-24.51451H40.83154V-4.6586H30.41145Z" fill="#ffffff"/>
<use data-text="&#x03c0;" xlink:href="#font_1_1" transform="matrix(9.962899,0,0,-9.962799,111.63485,76.23627)"/>
<path transform="matrix(1.00003,0,0,-1.00002,-51.593057,29.682335)" stroke-width=".3985" stroke-linecap="butt" stroke-miterlimit="10" stroke-linejoin="miter" fill="none" stroke="#000000" d="M163.223-50.802H169.26"/>
<use data-text="2" xlink:href="#font_3_2" transform="matrix(9.962899,0,0,-9.962799,112.162868,89.81054)"/>
<path transform="matrix(1.00003,0,0,-1.00002,79.03087,66.29207)" stroke-width=".79701" stroke-linecap="butt" stroke-miterlimit="10" stroke-linejoin="miter" fill="none" stroke="#000000" d="M71.24341 2.26787V-2.26753"/>
<path transform="matrix(1.00003,0,0,-1.00002,79.03087,66.29207)" d="M67.22888-10.94066H75.25792V-4.6586005H67.22888Z" fill="#ffffff"/>
<use data-text="&#x03c0;" xlink:href="#font_1_1" transform="matrix(9.962899,0,0,-9.962799,147.25792,76.23627)"/>
<path transform="matrix(1.00003,0,0,-1.00002,79.03087,66.29207)" stroke-width=".79701" stroke-linecap="butt" stroke-miterlimit="10" stroke-linejoin="miter" fill="none" stroke="#ff0000" d="M-71.24341 22.67717C-71.24341 22.67717-69.63509 25.84715-69.01738 26.99045-68.39969 28.13373-67.40907 29.90337-66.79137 30.91722-66.17368 31.93108-65.18304 33.45587-64.56535 34.2976-63.94765 35.13933-62.95703 36.35184-62.33932 36.98386-61.72162 37.61588-60.731 38.46138-60.1133 38.85277-59.49559 39.24416-58.50499 39.67741-57.88728 39.80469-57.26958 39.93198-56.27896 39.92142-55.66125 39.77008-55.04356 39.61876-54.05293 39.14966-53.43524 38.714-52.81754 38.27835-51.8269 37.34618-51.20921 36.6302-50.5915 35.91423-49.6009 34.53575-48.9832 33.55365-48.3655 32.57152-47.37488 30.77716-46.75717 29.55179-46.13947 28.3264-45.14885 26.15927-44.53114 24.72186-43.91345 23.28445-42.92282 20.80241-42.30511 19.19194-41.68742 17.58147-40.69681 14.85326-40.07912 13.11458-39.46141 11.3759-38.4708 8.4782-37.85309 6.66074-37.23538 4.84328-36.24477 1.85951-35.62706 .01556-35.00935-1.82838-34.01874-4.8116-33.40103-6.62926-32.78333-8.44691-31.79272-11.34563-31.17502-13.08482-30.55733-14.82402-29.5667-17.5531-28.949-19.16426-28.3313-20.7754-27.34067-23.25864-26.72298-24.69696-26.10527-26.13528-25.11465-28.30417-24.49695-29.53067-23.87924-30.75716-22.88864-32.5534-22.27094-33.53668-21.65323-34.51994-20.6626-35.90007-20.0449-36.61739-19.42722-37.33473-18.43658-38.26965-17.81888-38.70674-17.20119-39.14383-16.21056-39.61505-15.59286-39.76767-14.97516-39.9203-13.98456-39.93279-13.36685-39.80676-12.74915-39.68076-11.75851-39.24953-11.14081-38.85934-10.52312-38.46916-9.5325-37.62555-8.9148-36.99458-8.29709-36.36363-7.30647-35.15256-6.68877-34.3118-6.07108-33.47102-5.08046-31.94794-4.46277-30.93486-3.84506-29.92178-2.85442-28.15294-2.23672-27.01016-1.61903-25.86742-.62842-23.92574-.01071-22.69861 .60696-21.47151 1.59756-19.43024 2.21527-18.16595 2.83298-16.90169 3.8236-14.84105 4.4413-13.58656 5.05899-12.33208 6.04962-10.32457 6.66733-9.1245 7.28502-7.92441 8.27563-6.0417 8.89333-4.93715 9.51103-3.83261 10.50166-2.13705 11.11935-1.16368 11.73706-.19032 12.72768 1.26495 13.34538 2.07826 13.96309 2.89154 14.9537 4.06613 15.57141 4.69804 16.18912 5.32996 17.17972 6.19539 17.79742 6.63272 18.41512 7.07005 19.40575 7.61168 20.02345 7.85005 20.64114 8.08842 21.63177 8.3066 22.24947 8.35077 22.86717 8.39493 23.85779 8.30522 24.4755 8.16841 25.0932 8.03157 26.0838 7.66174 26.7015 7.36458 27.31921 7.0674 28.30983 6.45615 28.92754 6.02647 29.54524 5.59677 30.53586 4.79619 31.15356 4.26758 31.77126 3.739 32.76189 2.80652 33.37958 2.21666 33.99728 1.6268 34.9879 .62704 35.60559 .01625 36.2233-.59451 37.21391-1.59514 37.83162-2.18552 38.44933-2.77591 39.43994-3.70912 40.05765-4.23886 40.67535-4.76863 41.66597-5.57222 42.28368-6.00363 42.90137-6.43504 43.89198-7.0489 44.50969-7.34831 45.12738-7.64769 46.11801-8.02206 46.7357-8.16148 47.35341-8.30092 48.34402-8.39476 48.96173-8.3532 49.57944-8.31161 50.57005-8.09735 51.18776-7.86182 51.80547-7.6263 52.79607-7.08981 53.41377-6.65555 54.03148-6.2213 55.02211-5.3611 55.6398-4.73196 56.25749-4.10284 57.24812-2.9321 57.86581-2.12115 58.48352-1.31021 59.47415 .14156 60.09184 1.11282 60.70955 2.08409 61.70015 3.77611 62.31786 4.87903 62.93556 5.98193 63.9262 7.86288 64.54388 9.06186 65.16159 10.26083 66.1522 12.26653 66.76991 13.52048 67.3876 14.77443 68.37823 16.83499 68.99594 18.09952 69.61363 19.36403 71.22194 22.63426 71.22194 22.63426"/>
</svg>
