<svg xmlns="http://www.w3.org/2000/svg" xmlns:xlink="http://www.w3.org/1999/xlink" version="1.1" width="112" height="58" viewBox="0 0 112 58">
<defs>
<path id="font_1_3" d="M.16299439 .4569702C.116989139 .486969 .11299133 .52098086 .11299133 .5379791 .11299133 .598999 .17799378 .64100649 .24899292 .64100649 .32199098 .64100649 .38598634 .58898928 .38598634 .51698306 .38598634 .45996095 .34700013 .4119568 .2869873 .37695313L.16299439 .4569702M.30899049 .36193849C.3809967 .3989563 .42999269 .45095826 .42999269 .51698306 .42999269 .6090088 .34098817 .6660156 .25 .6660156 .1499939 .6660156 .068984989 .59199526 .068984989 .49897767 .068984989 .4809723 .070999149 .43595887 .11299133 .38894654 .12399292 .37695313 .16099549 .35194398 .18598938 .33494569 .12799073 .30592347 .041992189 .24984741 .041992189 .15072632 .041992189 .04458618 .14399719-.022460938 .24899292-.022460938 .3619995-.022460938 .45700074 .06060791 .45700074 .16773987 .45700074 .20379639 .44599916 .24885559 .4079895 .2909088 .3889923 .31193543 .37298585 .3219452 .30899049 .36193849M.20899964 .3199463 .33198548 .24183655C.3600006 .2228241 .40699769 .19277954 .40699769 .13169861 .40699769 .05760193 .33198548 .0055389406 .25 .0055389406 .1639862 .0055389406 .09199524 .067611698 .09199524 .15072632 .09199524 .20880127 .12399292 .27288819 .20899964 .3199463Z"/>
<path id="font_1_1" d="M.2939911 .64004519C.2939911 .66400149 .2939911 .6660156 .2709961 .6660156 .20899964 .60227969 .12098694 .60227969 .08898926 .60227969V.57128909C.10899353 .57128909 .16799927 .57128909 .21998596 .5972748V.07902527C.21998596 .042999269 .21699524 .0309906 .1269989 .0309906H.09498596V0C.12998963 .0029907227 .21699524 .0029907227 .25698854 .0029907227 .29699708 .0029907227 .38398744 .0029907227 .4189911 0V.0309906H.3869934C.29699708 .0309906 .2939911 .041992189 .2939911 .07902527V.64004519Z"/>
<path id="font_1_2" d="M.47599793 .609375C.4850006 .6213684 .4850006 .62338259 .4850006 .64437869H.24198914C.11999512 .64437869 .117996219 .65737918 .11399841 .67637637H.08898926L.055999757 .4702301H.08099365C.083999637 .48625184 .09298706 .5493469 .10598755 .56137087 .11299133 .5673828 .19099427 .5673828 .20399475 .5673828H.41099549C.3999939 .5513611 .32099916 .4421997 .29899598 .40914918 .20899964 .27394105 .17599488 .1347351 .17599488 .032577516 .17599488 .022567749 .17599488-.022460938 .22200012-.022460938 .2679901-.022460938 .2679901 .022567749 .2679901 .032577516V.08366394C.2679901 .13873291 .2709961 .19381714 .2789917 .24790955 .2829895 .27093507 .29699708 .35707093 .34098817 .41915895L.47599793 .609375Z"/>
<path id="font_2_1" d="M.45498658 .5001831C.45498658 .56614688 .43699647 .7050781 .33499146 .7050781 .19599915 .7050781 .041992189 .42323304 .041992189 .19425965 .041992189 .100250247 .070999149-.0107421879 .1619873-.0107421879 .30299378-.0107421879 .45498658 .27627564 .45498658 .5001831M.147995 .36328126C.16499329 .42723084 .18499756 .5071869 .22499085 .57814028 .2519989 .6271057 .2889862 .68307498 .33399964 .68307498 .3829956 .68307498 .3889923 .6191101 .3889923 .56214907 .3889923 .5131836 .3809967 .46220399 .35699464 .36328126H.147995M.34799195 .3312683C.33699037 .28527833 .31599427 .2002716 .27799989 .12826538 .24299622 .060256959 .20498657 .011245728 .1619873 .011245728 .1289978 .011245728 .10798645 .040252687 .10798645 .133255 .10798645 .17526245 .11399841 .23326111 .13999939 .3312683H.34799195Z"/>
</defs>
<path transform="matrix(1.00005,0,0,-1.00005,110.56972,56.42802)" stroke-width=".3985" stroke-linecap="butt" stroke-miterlimit="10" stroke-linejoin="miter" fill="none" stroke="#0000ff" d="M-102.05217 0V5.44272H-96.60945V0ZM-96.60945 5.44272"/>
<path transform="matrix(1.00005,0,0,-1.00005,110.56972,56.42802)" stroke-width=".79701" stroke-linecap="butt" stroke-miterlimit="10" stroke-linejoin="miter" fill="none" stroke="#000000" d="M-102.05217 0H0"/>
<path transform="matrix(1.00005,0,0,-1.00005,110.56972,56.42802)" stroke-width=".79701" stroke-linecap="butt" stroke-miterlimit="10" stroke-linejoin="miter" fill="none" stroke="#000000" d="M-102.05217 54.4278V0"/>
<use data-text="8" xlink:href="#font_1_3" transform="matrix(7.9704778,0,0,-7.9704778,1.5514679,31.78119)" fill="#0000ff"/>
<path transform="matrix(1.00005,0,0,-1.00005,110.56972,56.42802)" stroke-width=".79701" stroke-linecap="butt" stroke-miterlimit="10" stroke-linejoin="miter" fill="none" stroke="#000000" d="M-102.05217 54.4278 0 0"/>
<use data-text="1" xlink:href="#font_1_1" transform="matrix(7.9704778,0,0,-7.9704778,61.520463,26.236914)" fill="#0000ff"/>
<use data-text="7" xlink:href="#font_1_2" transform="matrix(7.9704778,0,0,-7.9704778,65.50569,26.236914)" fill="#0000ff"/>
<path transform="matrix(1.00005,0,0,-1.00005,110.56972,56.42802)" stroke-width=".79701" stroke-linecap="butt" stroke-miterlimit="10" stroke-linejoin="miter" fill="none" stroke="#ff0000" d="M-13.60677 0C-13.60677 2.23256-13.05592 4.43317-12.00557 6.40286"/>
<use data-text="&#x03b8;" xlink:href="#font_2_1" transform="matrix(7.9704778,0,0,-7.9704778,90.42991,54.899347)" fill="#ff0000"/>
</svg>
