<svg xmlns="http://www.w3.org/2000/svg" xmlns:xlink="http://www.w3.org/1999/xlink" version="1.1" width="259" height="92" viewBox="0 0 259 92">
<defs>
<path id="font_1_6" d="M.3909912 .37405396C.36299134 .37304688 .34298707 .3510437 .34298707 .32904054 .34298707 .31503297 .35198976 .30003358 .37399293 .30003358 .3959961 .30003358 .41999818 .31703187 .41999818 .35603334 .41999818 .40124513 .3769989 .4423828 .30099488 .4423828 .16899109 .4423828 .13198853 .3400421 .13198853 .29605104 .13198853 .21820069 .20599365 .20323181 .23498535 .19725037 .2869873 .18727112 .33898927 .17628479 .33898927 .12133789 .33898927 .095336917 .31599427 .011245728 .19599915 .011245728 .18199158 .011245728 .10499573 .011245728 .08198547 .064331058 .11999512 .059326173 .14498902 .08934021 .14498902 .11734009 .14498902 .14033509 .1289978 .15234375 .10798645 .15234375 .08198547 .15234375 .051986696 .1313324 .051986696 .08633423 .051986696 .029281617 .10899353-.0107421879 .19499207-.0107421879 .35699464-.0107421879 .3959961 .1103363 .3959961 .15533448 .3959961 .19125366 .3769989 .21620178 .36499024 .22817993 .33799745 .25613404 .30899049 .26112367 .2649994 .27009584 .22898865 .27807618 .18899536 .2850647 .18899536 .33003236 .18899536 .3590393 .21299744 .42037965 .30099488 .42037965 .32598878 .42037965 .37599183 .41333009 .3909912 .37405396Z"/>
<path id="font_2_2" d="M.5049896 .18203736H.47099305C.46798707 .16001892 .45799256 .100997928 .44499208 .09098816 .43699647 .084991458 .3600006 .084991458 .34599305 .084991458H.1619873C.2669983 .17803955 .3019867 .20603943 .3619995 .25306703 .43598939 .312088 .5049896 .374115 .5049896 .46914674 .5049896 .5900879 .39898683 .6640625 .2709961 .6640625 .14698792 .6640625 .06298828 .57710269 .06298828 .4851532 .06298828 .43414308 .10598755 .42915345 .115997318 .42915345 .13999939 .42915345 .16899109 .44615174 .16899109 .48214723 .16899109 .5001526 .1619873 .53515627 .10998535 .53515627 .14099121 .6060791 .20899964 .62805178 .2559967 .62805178 .35598756 .62805178 .4079895 .5501404 .4079895 .46914674 .4079895 .38212586 .34599305 .3130951 .31399537 .27708436L.07299805 .038986207C.06298828 .02999878 .06298828 .027999878 .06298828 0H.47499085L.5049896 .18203736Z"/>
<path id="font_3_5" d="M.68699648 .32714845C.70199587 .32714845 .72099307 .32714845 .72099307 .34713746 .72099307 .36714173 .70199587 .36714173 .6879883 .36714173H.08898926C.07499695 .36714173 .055999757 .36714173 .055999757 .34713746 .055999757 .32714845 .07499695 .32714845 .08999634 .32714845H.68699648M.6879883 .13284302C.70199587 .13284302 .72099307 .13284302 .72099307 .15284729 .72099307 .17285156 .70199587 .17285156 .68699648 .17285156H.08999634C.07499695 .17285156 .055999757 .17285156 .055999757 .15284729 .055999757 .13284302 .07499695 .13284302 .08898926 .13284302H.6879883Z"/>
<path id="font_3_10" d="M.20799256 .19424439C.22999573 .19024658 .31199647 .17424011 .31199647 .102249149 .31199647 .051254274 .2769928 .011245728 .19898987 .011245728 .114990238 .011245728 .07899475 .06825256 .05999756 .15324402 .056991579 .1662445 .055999757 .17024231 .04598999 .17024231 .032989503 .17024231 .032989503 .16323853 .032989503 .14524842V.013244629C.032989503-.003753662 .032989503-.0107421879 .04399109-.0107421879 .04899597-.0107421879 .049987794-.009750366 .068984989 .009246826 .070999149 .011245728 .070999149 .013244629 .08898926 .03224182 .1329956-.009750366 .17799378-.0107421879 .19898987-.0107421879 .31399537-.0107421879 .3600006 .056243898 .3600006 .12825012 .3600006 .1812439 .32998658 .21124268 .31799317 .22323609 .2849884 .25523377 .24598694 .26324464 .20399475 .27124024 .147995 .28224183 .08099365 .2952423 .08099365 .35324098 .08099365 .38822938 .10699463 .42922975 .19299317 .42922975 .30299378 .42922975 .30799867 .3392334 .30999757 .3082428 .31098939 .2992401 .31999208 .2992401 .32199098 .2992401 .33499146 .2992401 .33499146 .304245 .33499146 .3232422V.4242401C.33499146 .4412384 .33499146 .4482422 .32398988 .4482422 .31900025 .4482422 .31698609 .4482422 .3039856 .43623353 .30099488 .43223573 .29100038 .42323304 .2869873 .42022706 .24899292 .4482422 .20799256 .4482422 .19299317 .4482422 .070999149 .4482422 .032989503 .38124085 .032989503 .3252411 .032989503 .29023744 .04899597 .26223756 .07598877 .24023438 .10798645 .21424866 .13598633 .2082367 .20799256 .19424439Z"/>
<path id="font_3_7" d="M.1769867 .4423828 .036987306 .43138124V.40037538C.101989749 .40037538 .11099243 .3943634 .11099243 .34532167V.076034549C.11099243 .0309906 .099990848 .0309906 .032989503 .0309906V0C.06498718 .0009918213 .11898804 .0029907227 .14299011 .0029907227 .17799378 .0029907227 .21299744 .0009918213 .24699402 0V.0309906C.18099976 .0309906 .1769867 .035995485 .1769867 .075042728V.4423828M.18099976 .6159363C.18099976 .64793398 .1559906 .6689453 .12799073 .6689453 .09700012 .6689453 .07499695 .64193728 .07499695 .6159363 .07499695 .5889435 .09700012 .5629425 .12799073 .5629425 .1559906 .5629425 .18099976 .5839386 .18099976 .6159363Z"/>
<path id="font_3_8" d="M.10998535 .34429933V.076034549C.10998535 .0309906 .09899902 .0309906 .03199768 .0309906V0C.066986087 .0009918213 .117996219 .0029907227 .14498902 .0029907227 .17098999 .0029907227 .22299195 .0009918213 .25698854 0V.0309906C.18998719 .0309906 .1789856 .0309906 .1789856 .076034549V.2602234C.1789856 .36431886 .25 .42037965 .31399537 .42037965 .3769989 .42037965 .3880005 .36631776 .3880005 .30926515V.076034549C.3880005 .0309906 .3769989 .0309906 .30999757 .0309906V0C.34498597 .0009918213 .3959961 .0029907227 .4229889 .0029907227 .44898988 .0029907227 .5009918 .0009918213 .5349884 0V.0309906C.48298646 .0309906 .45799256 .0309906 .45700074 .061019899V.25221253C.45700074 .3383026 .45700074 .36932374 .42599488 .405365 .4119873 .42237855 .3789978 .4423828 .32099916 .4423828 .24798584 .4423828 .20098877 .39935304 .17298889 .33729554V.4423828L.03199768 .43138124V.40037538C.101989749 .4003601 .10998535 .39335633 .10998535 .34429933Z"/>
<path id="font_3_1" d="M.33099366-.2400055C.33099366-.23701477 .33099366-.23500061 .31399537-.21800232 .18899536-.0920105 .15699768 .09700012 .15699768 .25 .15699768 .42399598 .19499207 .59799197 .31799317 .72299197 .33099366 .73498538 .33099366 .7369995 .33099366 .73999026 .33099366 .746994 .32699586 .75 .32099916 .75 .31098939 .75 .22099304 .6819916 .1619873 .5549927 .11099243 .44499208 .09899902 .33399964 .09899902 .25 .09899902 .17199707 .10998535 .050994874 .16499329-.06201172 .22499085-.18501282 .31098939-.25 .32099916-.25 .32699586-.25 .33099366-.24700928 .33099366-.2400055Z"/>
<path id="font_1_1" d="M.47698976 .23631287C.47698976 .39337159 .38398744 .4423828 .30999757 .4423828 .17298889 .4423828 .040985109 .29933167 .040985109 .15829468 .040985109 .06526184 .100997928-.0107421879 .20298767-.0107421879 .2659912-.0107421879 .33799745 .012252808 .4139862 .073272708 .4269867 .020248414 .45999146-.0107421879 .5049896-.0107421879 .55799868-.0107421879 .58898928 .044265748 .58898928 .060272218 .58898928 .06726074 .58299258 .07026672 .57699587 .07026672 .56999209 .07026672 .5669861 .06726074 .56399539 .060272218 .54599 .011245728 .5099945 .011245728 .5079956 .011245728 .47698976 .011245728 .47698976 .089279178 .47698976 .11328125 .47698976 .1342926 .47698976 .1362915 .4869995 .14828491 .58099368 .2663269 .60198977 .38235475 .60198977 .38336183 .60198977 .38536073 .6009979 .39337159 .58999636 .39337159 .5799866 .39337159 .5799866 .3903656 .57499697 .37236024 .5569916 .30934144 .5239868 .23332215 .47698976 .17430115V.23631287M.4099884 .09927368C.32199098 .022247315 .24499512 .011245728 .20498657 .011245728 .14498902 .011245728 .114990238 .056259157 .114990238 .120285037 .114990238 .16929627 .14099121 .2773285 .17298889 .32833863 .21998596 .4013672 .27398683 .42037965 .30899049 .42037965 .4079895 .42037965 .4079895 .28933717 .4079895 .21130371 .4079895 .17430115 .4079895 .11628723 .4099884 .09927368Z"/>
<path id="font_3_3" d="M.40899659 .23046875H.6879883C.70199587 .23046875 .72099307 .23046875 .72099307 .25045777 .72099307 .27046205 .70199587 .27046205 .6879883 .27046205H.40899659V.5500183C.40899659 .56399539 .40899659 .5830078 .3889923 .5830078 .36898805 .5830078 .36898805 .56399539 .36898805 .5500183V.27046205H.08898926C.07499695 .27046205 .055999757 .27046205 .055999757 .25045777 .055999757 .23046875 .07499695 .23046875 .08898926 .23046875H.36898805V-.05000305C.36898805-.06401062 .36898805-.08300781 .3889923-.08300781 .40899659-.08300781 .40899659-.06401062 .40899659-.05000305V.23046875Z"/>
<path id="font_1_2" d="M.57499697 .5688782C.57499697 .64401248 .519989 .70606997 .43899537 .70606997 .3809967 .70606997 .35299684 .6900635 .31799317 .664032 .2630005 .62397769 .20799256 .5268097 .18899536 .4506836L.02999878-.18434143C.0289917-.18833924 .033996583-.19433594 .041992189-.19433594 .049987794-.19433594 .052993776-.19233704 .053985597-.18934632L.12399292 .08711243C.14299011 .027236939 .18699646-.009719849 .2599945-.009719849 .33299256-.009719849 .4079895 .025238038 .45298768 .06915283 .5009918 .11505127 .5329895 .17892456 .5329895 .2527771 .5329895 .32461549 .49598695 .37652589 .45999146 .40159608 .5179901 .43466188 .57499697 .49676515 .57499697 .5688782M.394989 .40260316C.38198854 .3975525 .37098695 .39553834 .34700013 .39553834 .33299256 .39553834 .31298829 .39453126 .30299378 .39956666 .30499269 .4096527 .34098817 .4076538 .35198976 .4076538 .37298585 .4076538 .38198854 .4076538 .394989 .40260316M.5189972 .59191897C.5189972 .5218048 .48098756 .44969178 .42900086 .4186554 .4019928 .4286499 .38198854 .43066407 .35198976 .43066407 .33099366 .43066407 .2749939 .43165589 .2749939 .39855958 .27398683 .37052918 .32598878 .3735199 .34399415 .3735199 .3809967 .3735199 .3959961 .37452699 .42599488 .3865204 .46398927 .35057069 .46899415 .31962586 .46998597 .27372743 .47200013 .21585083 .44799806 .14100647 .41999818 .1020813 .3809967 .048202516 .31399537 .012268066 .25698854 .012268066 .18099976 .012268066 .14299011 .07014465 .14299011 .14100647 .14299011 .15098572 .14299011 .16595459 .147995 .184906L.21199036 .43766786C.23399353 .5238037 .30599977 .68307498 .42599488 .68307498 .48399354 .68307498 .5189972 .6520233 .5189972 .59191897Z"/>
<path id="font_3_2" d="M.2889862 .25C.2889862 .32798768 .27799989 .44898988 .22299195 .56199648 .16299439 .68499758 .07699585 .75 .066986087 .75 .06098938 .75 .056991579 .74598696 .056991579 .73999026 .056991579 .7369995 .056991579 .73498538 .07598877 .71699526 .17399597 .6179962 .23098755 .45899964 .23098755 .25 .23098755 .07899475 .19400025-.09700012 .069992069-.2230072 .056991579-.23500061 .056991579-.23701477 .056991579-.2400055 .056991579-.2460022 .06098938-.25 .066986087-.25 .07699585-.25 .16699219-.18200684 .22599793-.055007936 .2769928 .054992677 .2889862 .16600037 .2889862 .25Z"/>
<path id="font_2_5" d="M.15499878 .5588074C.20599365 .5458069 .23599243 .5458069 .2519989 .5458069 .38398744 .5458069 .46199037 .6358032 .46199037 .6508026 .46199037 .6618042 .45498658 .6648102 .44999696 .6648102 .44799806 .6648102 .44599916 .6648102 .44198609 .6618042 .41799928 .6528015 .36499024 .6328125 .29100038 .6328125 .2630005 .6328125 .20999146 .6348114 .14498902 .6598053 .1349945 .6648102 .1329956 .6648102 .13198853 .6648102 .11898804 .6648102 .11898804 .6538086 .11898804 .6378021V.34251405C.11898804 .32548524 .11898804 .3134613 .1349945 .3134613 .14399719 .3134613 .14498902 .3154602 .15499878 .32748414 .19799805 .38259889 .25898744 .390625 .2939911 .390625 .35398866 .390625 .3809967 .34251405 .38598634 .33450318 .4039917 .30143739 .4099884 .26335145 .4099884 .20524597 .4099884 .17524719 .4099884 .116256717 .37998963 .07234192 .35499574 .03640747 .31199647 .012466431 .2630005 .012466431 .19799805 .012466431 .1309967 .04838562 .10598755 .11425781 .14399719 .11125183 .16299439 .13624573 .16299439 .16325379 .16299439 .20625305 .12599182 .21424866 .11299133 .21424866 .11099243 .21424866 .06298828 .21424866 .06298828 .1602478 .06298828 .07034302 .14498902-.01953125 .2649994-.01953125 .3929901-.01953125 .5049896 .07533264 .5049896 .20124817 .5049896 .31445313 .4189911 .41862489 .29499818 .41862489 .25099183 .41862489 .19898987 .4076233 .15499878 .36956788V.5588074Z"/>
<path id="font_3_6" d="M.116989139 .21801758C.116989139 .38093568 .19898987 .42323304 .2519989 .42323304 .26098634 .42323304 .32398988 .42222596 .35899354 .38594056 .31799317 .38293458 .31199647 .3529358 .31199647 .3399353 .31199647 .31393434 .32998658 .2939453 .35798646 .2939453 .38398744 .2939453 .4039917 .3109436 .4039917 .34094239 .4039917 .40911866 .32798768 .4482422 .25099183 .4482422 .12599182 .4482422 .033996583 .3399353 .033996583 .21601868 .033996583 .08816528 .1329956-.0107421879 .24899292-.0107421879 .3829956-.0107421879 .4149933 .10914612 .4149933 .119140628 .4149933 .12911988 .40499879 .12911988 .4019928 .12911988 .3929901 .12911988 .3909912 .12512207 .3889923 .119140628 .3600006 .026229859 .29499818 .014251709 .2579956 .014251709 .20498657 .014251709 .116989139 .0572052 .116989139 .21801758Z"/>
<path id="font_3_9" d="M.47099305 .21424866C.47099305 .34223939 .37098695 .4482422 .25 .4482422 .125 .4482422 .027999878 .3392334 .027999878 .21424866 .027999878 .085250858 .13198853-.0107421879 .24899292-.0107421879 .36999513-.0107421879 .47099305 .087249759 .47099305 .21424866M.25 .014251709C.20698548 .014251709 .16299439 .035247804 .13598633 .08125305 .11099243 .12524414 .11099243 .18624878 .11099243 .22224427 .11099243 .26124574 .11099243 .31523133 .1349945 .35923768 .1619873 .40522767 .20899964 .426239 .24899292 .426239 .29299928 .426239 .33599855 .40423585 .3619995 .36123658 .3880005 .3182373 .3880005 .26023866 .3880005 .22224427 .3880005 .18624878 .3880005 .13224793 .3659973 .08824158 .34399415 .04324341 .2999878 .014251709 .25 .014251709Z"/>
<path id="font_2_6" d="M.1499939 .3274536C.1499939 .40945436 .15699768 .48303224 .19499207 .543869 .22898865 .5978699 .2829895 .63505557 .34700013 .63505557 .3769989 .63505557 .4169922 .62701418 .43699647 .5998688 .4119873 .5978699 .3909912 .5808716 .3909912 .5518799 .3909912 .5268707 .4079895 .5048828 .43798829 .5048828 .46798707 .5048828 .48599244 .5248718 .48599244 .5538788 .48599244 .6119385 .44400025 .6640625 .34498597 .6640625 .20098877 .6640625 .053985597 .5318756 .053985597 .3174591 .053985597 .05845642 .17599488-.01953125 .28599549-.01953125 .4079895-.01953125 .5139923 .07345581 .5139923 .20445252 .5139923 .33145143 .41299439 .42546083 .29599 .42546083 .21598816 .42546083 .17199707 .37245179 .1499939 .3274536M.28599549 .012466431C.23599243 .012466431 .19699097 .04145813 .17599488 .08546448 .16099549 .11546326 .15299988 .16545105 .15299988 .22544861 .15299988 .32244874 .21099854 .39746095 .29100038 .39746095 .33699037 .39746095 .36799623 .37945558 .3929901 .342453 .4169922 .30445863 .41799928 .26245118 .41799928 .20445252 .41799928 .14746094 .41799928 .10545349 .3909912 .066467288 .36698915 .031463624 .33499146 .012466431 .28599549 .012466431Z"/>
<path id="font_2_4" d="M.5289917 .1640625V.20005799H.41799928V.64582827C.41799928 .66682437 .41799928 .6738281 .3959961 .6738281 .38398744 .6738281 .37998963 .6738281 .36999513 .65982058L.038986207 .20005799V.1640625H.33299256V.08201599C.33299256 .04800415 .33299256 .035995485 .2519989 .035995485H.22499085V0C.2749939 .0019989014 .33898927 .0039978029 .375 .0039978029 .4119873 .0039978029 .47599793 .0019989014 .526001 0V.035995485H.49899293C.41799928 .035995485 .41799928 .04800415 .41799928 .08201599V.1640625H.5289917M.33999635 .5658722V.20005799H.07598877L.33999635 .5658722Z"/>
<path id="font_2_3" d="M.272995 .33428956C.35099793 .33428956 .40699769 .2803192 .40699769 .1733551 .40699769 .04940796 .33499146 .012466431 .2769928 .012466431 .23699951 .012466431 .14898682 .0234375 .10699463 .082351688 .1539917 .084350589 .16499329 .11735535 .16499329 .13835144 .16499329 .17034912 .14099121 .19335938 .10998535 .19335938 .08198547 .19335938 .053985597 .17634583 .053985597 .13534546 .053985597 .041412355 .1579895-.01953125 .2789917-.01953125 .41799928-.01953125 .5139923 .07336426 .5139923 .1733551 .5139923 .2513275 .44999696 .32929994 .33999635 .35229493 .44499208 .39024354 .48298646 .4650879 .48298646 .5260773 .48298646 .60505679 .3919983 .6640625 .2809906 .6640625 .16999817 .6640625 .084991458 .61006167 .084991458 .5300751 .084991458 .49606324 .10699463 .47706605 .13699341 .47706605 .16799927 .47706605 .18798828 .5000763 .18798828 .5280762 .18798828 .5570679 .16799927 .57806399 .13699341 .5800781 .17199707 .62405398 .24099732 .63505557 .27799989 .63505557 .32299806 .63505557 .38598634 .6130676 .38598634 .5260773 .38598634 .48406983 .37199403 .43814088 .34599305 .4072113 .31298829 .36927796 .2849884 .3672943 .23498535 .36428834 .20999146 .3623047 .20799256 .3623047 .20298767 .3612976 .20098877 .3612976 .19299317 .3592987 .19299317 .34829713 .19299317 .33428956 .20199585 .33428956 .21899414 .33428956H.272995Z"/>
<path id="font_2_1" d="M.33499146 .63612368C.33499146 .6630554 .33299256 .6640625 .30499269 .6640625 .24099732 .6014404 .1499939 .6004486 .10899353 .6004486V.5644531C.1329956 .5644531 .19898987 .5644531 .2539978 .592453V.08203125C.2539978 .04899597 .2539978 .035995485 .1539917 .035995485H.115997318V0C.13398743 .0009918213 .25698854 .0039978029 .2939911 .0039978029 .32499696 .0039978029 .45098878 .0009918213 .47299195 0V.035995485H.43499757C.33499146 .035995485 .33499146 .04899597 .33499146 .08203125V.63612368Z"/>
<path id="font_3_4" d="M.2939911 .64004519C.2939911 .66400149 .2939911 .6660156 .2709961 .6660156 .20899964 .60227969 .12098694 .60227969 .08898926 .60227969V.57128909C.10899353 .57128909 .16799927 .57128909 .21998596 .5972748V.07902527C.21998596 .042999269 .21699524 .0309906 .1269989 .0309906H.09498596V0C.12998963 .0029907227 .21699524 .0029907227 .25698854 .0029907227 .29699708 .0029907227 .38398744 .0029907227 .4189911 0V.0309906H.3869934C.29699708 .0309906 .2939911 .041992189 .2939911 .07902527V.64004519Z"/>
<path id="font_1_5" d="M.2579956 .68333438C.2579956 .6843262 .2579956 .69433596 .24499512 .69433596 .22200012 .69433596 .14898682 .6863251 .12298584 .6843262 .114990238 .68333438 .10398865 .6823273 .10398865 .6633301 .10398865 .6523285 .11399841 .6523285 .1289978 .6523285 .1769867 .6523285 .17799378 .6433258 .17799378 .6353302L.1749878 .6153259 .04899597 .11526489C.04598999 .104263309 .04399109 .09725952 .04399109 .08125305 .04399109 .024246216 .08799744-.0107421879 .1349945-.0107421879 .16799927-.0107421879 .19299317 .009246826 .20999146 .04525757 .22799683 .08325195 .23999024 .14126587 .23999024 .14326477 .23999024 .15327454 .23098755 .15327454 .22799683 .15327454 .21798706 .15327454 .21699524 .14926148 .21398926 .13526917 .19699097 .070251468 .17799378 .011245728 .13798523 .011245728 .10798645 .011245728 .10798645 .043258668 .10798645 .057250978 .10798645 .08125305 .10899353 .086257938 .11399841 .10525513L.2579956 .68333438Z"/>
<path id="font_1_3" d="M.45498658 .5001831C.45498658 .56614688 .43699647 .7050781 .33499146 .7050781 .19599915 .7050781 .041992189 .42323304 .041992189 .19425965 .041992189 .100250247 .070999149-.0107421879 .1619873-.0107421879 .30299378-.0107421879 .45498658 .27627564 .45498658 .5001831M.147995 .36328126C.16499329 .42723084 .18499756 .5071869 .22499085 .57814028 .2519989 .6271057 .2889862 .68307498 .33399964 .68307498 .3829956 .68307498 .3889923 .6191101 .3889923 .56214907 .3889923 .5131836 .3809967 .46220399 .35699464 .36328126H.147995M.34799195 .3312683C.33699037 .28527833 .31599427 .2002716 .27799989 .12826538 .24299622 .060256959 .20498657 .011245728 .1619873 .011245728 .1289978 .011245728 .10798645 .040252687 .10798645 .133255 .10798645 .17526245 .11399841 .23326111 .13999939 .3312683H.34799195Z"/>
<path id="font_1_4" d="M.43699647 .67033389C.43699647 .67233279 .43998719 .68333438 .43998719 .6843262 .43998719 .68533328 .43998719 .69433596 .42799378 .69433596 .41799928 .69433596 .4169922 .69132998 .41299439 .67433169L.35499574 .44337464C.19599915 .43836976 .04899597 .30532838 .04899597 .169281 .04899597 .07424927 .11898804-.004776001 .24099732-.011779785 .23298645-.04283142 .22599793-.07489014 .21798706-.10594177 .20599365-.1530304 .19599915-.19108582 .19599915-.1940918 .19599915-.2040863 .20298767-.20507813 .20799256-.20507813 .21299744-.20507813 .21499634-.2040863 .21798706-.20108032 .21998596-.19908142 .22599793-.17506409 .22898865-.16104126L.2669983-.011779785C.42799378-.0067749025 .57299807 .12826538 .57299807 .26231385 .57299807 .3413391 .519989 .43338014 .3809967 .44337464L.43699647 .67033389M.24598694 .010223389C.18598938 .01322937 .11399841 .048233034 .11399841 .14826966 .11399841 .2683258 .19999695 .40837098 .34899903 .42137147L.24598694 .010223389M.375 .42137147C.45098878 .41737367 .5079956 .37135316 .5079956 .2833252 .5079956 .1652832 .42199708 .022232056 .27198792 .010223389L.375 .42137147Z"/>
</defs>
<path transform="matrix(1,0,0,-1.00008,73.194,77.27922)" stroke-width=".79701" stroke-linecap="butt" stroke-miterlimit="10" stroke-linejoin="miter" fill="none" stroke="#000000" d="M0 0H114.80334"/>
<use data-text="s" xlink:href="#font_1_6" transform="matrix(9.9626,0,0,-9.963397,97.020008,88.471118)" fill="#0000ff"/>
<use data-text="2" xlink:href="#font_2_2" transform="matrix(6.9738,0,0,-6.974358,101.69,89.96624)" fill="#0000ff"/>
<use data-text="=" xlink:href="#font_3_5" transform="matrix(9.9626,0,0,-9.963397,108.927,88.471118)" fill="#0000ff"/>
<use data-text="s" xlink:href="#font_3_10" transform="matrix(9.9626,0,0,-9.963397,119.42758,88.471118)" fill="#0000ff"/>
<use data-text="i" xlink:href="#font_3_7" transform="matrix(9.9626,0,0,-9.963397,123.352848,88.471118)" fill="#0000ff"/>
<use data-text="n" xlink:href="#font_3_8" transform="matrix(9.9626,0,0,-9.963397,126.11249,88.471118)" fill="#0000ff"/>
<use data-text="(" xlink:href="#font_3_1" transform="matrix(9.9626,0,0,-9.963397,131.64173,88.471118)" fill="#0000ff"/>
<use data-text="&#x03b1;" xlink:href="#font_1_1" transform="matrix(9.9626,0,0,-9.963397,135.549,88.471118)" fill="#0000ff"/>
<use data-text="+" xlink:href="#font_3_3" transform="matrix(9.9626,0,0,-9.963397,144.17299,88.471118)" fill="#0000ff"/>
<use data-text="&#x03b2;" xlink:href="#font_1_2" transform="matrix(9.9626,0,0,-9.963397,154.135,88.471118)" fill="#0000ff"/>
<use data-text=")" xlink:href="#font_3_2" transform="matrix(9.9626,0,0,-9.963397,160.29599,88.471118)" fill="#0000ff"/>
<path transform="matrix(1,0,0,-1.00008,73.194,77.27922)" stroke-width=".79701" stroke-linecap="butt" stroke-miterlimit="10" stroke-linejoin="miter" fill="none" stroke="#000000" d="M114.80334 63.7796V0"/>
<use data-text="s" xlink:href="#font_1_6" transform="matrix(9.9626,0,0,-9.963397,191.716,42.89647)" fill="#0000ff"/>
<use data-text="5" xlink:href="#font_2_5" transform="matrix(6.9738,0,0,-6.974358,196.386,44.391595)" fill="#0000ff"/>
<use data-text="=" xlink:href="#font_3_5" transform="matrix(9.9626,0,0,-9.963397,203.623,42.89647)" fill="#0000ff"/>
<use data-text="c" xlink:href="#font_3_6" transform="matrix(9.9626,0,0,-9.963397,214.12358,42.89647)" fill="#0000ff"/>
<use data-text="o" xlink:href="#font_3_9" transform="matrix(9.9626,0,0,-9.963397,218.54698,42.89647)" fill="#0000ff"/>
<use data-text="s" xlink:href="#font_3_10" transform="matrix(9.9626,0,0,-9.963397,223.52828,42.89647)" fill="#0000ff"/>
<use data-text="&#x03b1;" xlink:href="#font_1_1" transform="matrix(9.9626,0,0,-9.963397,229.138,42.89647)" fill="#0000ff"/>
<use data-text="c" xlink:href="#font_3_6" transform="matrix(9.9626,0,0,-9.963397,237.20801,42.89647)" fill="#0000ff"/>
<use data-text="o" xlink:href="#font_3_9" transform="matrix(9.9626,0,0,-9.963397,241.63141,42.89647)" fill="#0000ff"/>
<use data-text="s" xlink:href="#font_3_10" transform="matrix(9.9626,0,0,-9.963397,246.6127,42.89647)" fill="#0000ff"/>
<use data-text="&#x03b2;" xlink:href="#font_1_2" transform="matrix(9.9626,0,0,-9.963397,252.20801,42.89647)" fill="#0000ff"/>
<path transform="matrix(1,0,0,-1.00008,73.194,77.27922)" stroke-width=".79701" stroke-linecap="butt" stroke-miterlimit="10" stroke-linejoin="miter" fill="none" stroke="#000000" d="M114.80334 63.7796H25.51183"/>
<use data-text="s" xlink:href="#font_1_6" transform="matrix(9.9626,0,0,-9.963397,124.752,7.8376696)" fill="#0000ff"/>
<use data-text="6" xlink:href="#font_2_6" transform="matrix(6.9738,0,0,-6.974358,129.422,9.332794)" fill="#0000ff"/>
<use data-text="=" xlink:href="#font_3_5" transform="matrix(9.9626,0,0,-9.963397,136.659,7.8376696)" fill="#0000ff"/>
<use data-text="c" xlink:href="#font_3_6" transform="matrix(9.9626,0,0,-9.963397,147.15958,7.8376696)" fill="#0000ff"/>
<use data-text="o" xlink:href="#font_3_9" transform="matrix(9.9626,0,0,-9.963397,151.58298,7.8376696)" fill="#0000ff"/>
<use data-text="s" xlink:href="#font_3_10" transform="matrix(9.9626,0,0,-9.963397,156.56427,7.8376696)" fill="#0000ff"/>
<use data-text="&#x03b1;" xlink:href="#font_1_1" transform="matrix(9.9626,0,0,-9.963397,162.174,7.8376696)" fill="#0000ff"/>
<use data-text="s" xlink:href="#font_3_10" transform="matrix(9.9626,0,0,-9.963397,170.244,7.8376696)" fill="#0000ff"/>
<use data-text="i" xlink:href="#font_3_7" transform="matrix(9.9626,0,0,-9.963397,174.16927,7.8376696)" fill="#0000ff"/>
<use data-text="n" xlink:href="#font_3_8" transform="matrix(9.9626,0,0,-9.963397,176.92891,7.8376696)" fill="#0000ff"/>
<use data-text="&#x03b2;" xlink:href="#font_1_2" transform="matrix(9.9626,0,0,-9.963397,184.13701,7.8376696)" fill="#0000ff"/>
<path transform="matrix(1,0,0,-1.00008,73.194,77.27922)" stroke-width=".79701" stroke-linecap="butt" stroke-miterlimit="10" stroke-linejoin="miter" fill="none" stroke="#000000" d="M0 63.7796H25.51183"/>
<use data-text="s" xlink:href="#font_1_6" transform="matrix(9.9626,0,0,-9.963397,39.003,7.8376696)" fill="#0000ff"/>
<use data-text="4" xlink:href="#font_2_4" transform="matrix(6.9738,0,0,-6.974358,43.672998,9.332794)" fill="#0000ff"/>
<use data-text="=" xlink:href="#font_3_5" transform="matrix(9.9626,0,0,-9.963397,50.909997,7.8376696)" fill="#0000ff"/>
<use data-text="s" xlink:href="#font_3_10" transform="matrix(9.9626,0,0,-9.963397,61.410577,7.8376696)" fill="#0000ff"/>
<use data-text="i" xlink:href="#font_3_7" transform="matrix(9.9626,0,0,-9.963397,65.33584,7.8376696)" fill="#0000ff"/>
<use data-text="n" xlink:href="#font_3_8" transform="matrix(9.9626,0,0,-9.963397,68.09548,7.8376696)" fill="#0000ff"/>
<use data-text="&#x03b1;" xlink:href="#font_1_1" transform="matrix(9.9626,0,0,-9.963397,75.318,7.8376696)" fill="#0000ff"/>
<use data-text="c" xlink:href="#font_3_6" transform="matrix(9.9626,0,0,-9.963397,83.38801,7.8376696)" fill="#0000ff"/>
<use data-text="o" xlink:href="#font_3_9" transform="matrix(9.9626,0,0,-9.963397,87.81141,7.8376696)" fill="#0000ff"/>
<use data-text="s" xlink:href="#font_3_10" transform="matrix(9.9626,0,0,-9.963397,92.7927,7.8376696)" fill="#0000ff"/>
<use data-text="&#x03b2;" xlink:href="#font_1_2" transform="matrix(9.9626,0,0,-9.963397,98.38801,7.8376696)" fill="#0000ff"/>
<path transform="matrix(1,0,0,-1.00008,73.194,77.27922)" stroke-width=".79701" stroke-linecap="butt" stroke-miterlimit="10" stroke-linejoin="miter" fill="none" stroke="#000000" d="M0 63.7796V28.06316"/>
<use data-text="s" xlink:href="#font_1_6" transform="matrix(9.9626,0,0,-9.963397,5.0350039,33.844747)" fill="#0000ff"/>
<use data-text="3" xlink:href="#font_2_3" transform="matrix(6.9738,0,0,-6.974358,9.705002,35.33987)" fill="#0000ff"/>
<use data-text="=" xlink:href="#font_3_5" transform="matrix(9.9626,0,0,-9.963397,16.942002,33.844747)" fill="#0000ff"/>
<use data-text="s" xlink:href="#font_3_10" transform="matrix(9.9626,0,0,-9.963397,27.442582,33.844747)" fill="#0000ff"/>
<use data-text="i" xlink:href="#font_3_7" transform="matrix(9.9626,0,0,-9.963397,31.367844,33.844747)" fill="#0000ff"/>
<use data-text="n" xlink:href="#font_3_8" transform="matrix(9.9626,0,0,-9.963397,34.127489,33.844747)" fill="#0000ff"/>
<use data-text="&#x03b1;" xlink:href="#font_1_1" transform="matrix(9.9626,0,0,-9.963397,41.350008,33.844747)" fill="#0000ff"/>
<use data-text="s" xlink:href="#font_3_10" transform="matrix(9.9626,0,0,-9.963397,49.420015,33.844747)" fill="#0000ff"/>
<use data-text="i" xlink:href="#font_3_7" transform="matrix(9.9626,0,0,-9.963397,53.345277,33.844747)" fill="#0000ff"/>
<use data-text="n" xlink:href="#font_3_8" transform="matrix(9.9626,0,0,-9.963397,56.10492,33.844747)" fill="#0000ff"/>
<use data-text="&#x03b2;" xlink:href="#font_1_2" transform="matrix(9.9626,0,0,-9.963397,63.31302,33.844747)" fill="#0000ff"/>
<path transform="matrix(1,0,0,-1.00008,73.194,77.27922)" stroke-width=".79701" stroke-linecap="butt" stroke-miterlimit="10" stroke-linejoin="miter" fill="none" stroke="#000000" d="M0 0V28.06316"/>
<use data-text="s" xlink:href="#font_1_6" transform="matrix(9.9626,0,0,-9.963397,1.2160034,65.7373)" fill="#0000ff"/>
<use data-text="1" xlink:href="#font_2_1" transform="matrix(6.9738,0,0,-6.974358,5.8860018,67.23242)" fill="#0000ff"/>
<use data-text="=" xlink:href="#font_3_5" transform="matrix(9.9626,0,0,-9.963397,13.123001,65.7373)" fill="#0000ff"/>
<use data-text="c" xlink:href="#font_3_6" transform="matrix(9.9626,0,0,-9.963397,23.62358,65.7373)" fill="#0000ff"/>
<use data-text="o" xlink:href="#font_3_9" transform="matrix(9.9626,0,0,-9.963397,28.046982,65.7373)" fill="#0000ff"/>
<use data-text="s" xlink:href="#font_3_10" transform="matrix(9.9626,0,0,-9.963397,33.028276,65.7373)" fill="#0000ff"/>
<use data-text="(" xlink:href="#font_3_1" transform="matrix(9.9626,0,0,-9.963397,36.953538,65.7373)" fill="#0000ff"/>
<use data-text="&#x03b1;" xlink:href="#font_1_1" transform="matrix(9.9626,0,0,-9.963397,40.852006,65.7373)" fill="#0000ff"/>
<use data-text="+" xlink:href="#font_3_3" transform="matrix(9.9626,0,0,-9.963397,49.475999,65.7373)" fill="#0000ff"/>
<use data-text="&#x03b2;" xlink:href="#font_1_2" transform="matrix(9.9626,0,0,-9.963397,59.438005,65.7373)" fill="#0000ff"/>
<use data-text=")" xlink:href="#font_3_2" transform="matrix(9.9626,0,0,-9.963397,65.599,65.7373)" fill="#0000ff"/>
<path transform="matrix(1,0,0,-1.00008,73.194,77.27922)" stroke-width=".79701" stroke-linecap="butt" stroke-miterlimit="10" stroke-linejoin="miter" fill="none" stroke="#008000" d="M114.80334 0 0 28.06316"/>
<use data-text="1" xlink:href="#font_3_4" transform="matrix(9.9626,0,0,-9.963397,113.925,70.39767)" fill="#0000ff"/>
<path transform="matrix(1,0,0,-1.00008,73.194,77.27922)" stroke-width=".79701" stroke-linecap="butt" stroke-miterlimit="10" stroke-linejoin="miter" fill="none" stroke="#008000" d="M114.80334 0 25.51183 63.7796"/>
<use data-text="l" xlink:href="#font_1_5" transform="matrix(9.9626,0,0,-9.963397,142.08899,39.176176)" fill="#0000ff"/>
<use data-text="2" xlink:href="#font_2_2" transform="matrix(6.9738,0,0,-6.974358,145.06201,40.6713)" fill="#0000ff"/>
<use data-text="=" xlink:href="#font_3_5" transform="matrix(9.9626,0,0,-9.963397,152.298,39.176176)" fill="#0000ff"/>
<use data-text="c" xlink:href="#font_3_6" transform="matrix(9.9626,0,0,-9.963397,162.79859,39.176176)" fill="#0000ff"/>
<use data-text="o" xlink:href="#font_3_9" transform="matrix(9.9626,0,0,-9.963397,167.22199,39.176176)" fill="#0000ff"/>
<use data-text="s" xlink:href="#font_3_10" transform="matrix(9.9626,0,0,-9.963397,172.20328,39.176176)" fill="#0000ff"/>
<use data-text="&#x03b1;" xlink:href="#font_1_1" transform="matrix(9.9626,0,0,-9.963397,177.81403,39.176176)" fill="#0000ff"/>
<path transform="matrix(1,0,0,-1.00008,73.194,77.27922)" stroke-width=".79701" stroke-linecap="butt" stroke-miterlimit="10" stroke-linejoin="miter" fill="none" stroke="#008000" d="M0 28.06316 25.51183 63.7796"/>
<use data-text="l" xlink:href="#font_1_5" transform="matrix(9.9626,0,0,-9.963397,87.676,40.99632)" fill="#0000ff"/>
<use data-text="1" xlink:href="#font_2_1" transform="matrix(6.9738,0,0,-6.974358,90.64901,42.491445)" fill="#0000ff"/>
<use data-text="=" xlink:href="#font_3_5" transform="matrix(9.9626,0,0,-9.963397,97.88502,40.99632)" fill="#0000ff"/>
<use data-text="s" xlink:href="#font_3_10" transform="matrix(9.9626,0,0,-9.963397,108.3856,40.99632)" fill="#0000ff"/>
<use data-text="i" xlink:href="#font_3_7" transform="matrix(9.9626,0,0,-9.963397,112.31086,40.99632)" fill="#0000ff"/>
<use data-text="n" xlink:href="#font_3_8" transform="matrix(9.9626,0,0,-9.963397,115.0705,40.99632)" fill="#0000ff"/>
<use data-text="&#x03b1;" xlink:href="#font_1_1" transform="matrix(9.9626,0,0,-9.963397,122.294017,40.99632)" fill="#0000ff"/>
<path transform="matrix(1,0,0,-1.00008,73.194,77.27922)" stroke-width=".79701" stroke-linecap="butt" stroke-miterlimit="10" stroke-linejoin="miter" fill="none" stroke="#0000ff" d="M29.9765 60.59062 26.7875 56.12596 22.32285 59.31496"/>
<path transform="matrix(1,0,0,-1.00008,73.194,77.27922)" stroke-width=".79701" stroke-linecap="butt" stroke-miterlimit="10" stroke-linejoin="miter" fill="none" stroke="#ff0000" d="M16.58249 63.7796C16.58249 60.89682 17.97621 58.18964 20.32176 56.51418"/>
<path transform="matrix(1,0,0,-1.00008,73.194,77.27922)" stroke-width=".79701" stroke-linecap="butt" stroke-miterlimit="10" stroke-linejoin="miter" fill="none" stroke="#ff0000" d="M15.30722 63.7796C15.30722 60.48509 16.9 57.3913 19.58054 55.47653"/>
<use data-text="&#x03b8;" xlink:href="#font_1_3" transform="matrix(9.9626,0,0,-9.963397,78.76,23.864949)" fill="#ff0000"/>
<use data-text="1" xlink:href="#font_2_1" transform="matrix(6.9738,0,0,-6.974358,83.437007,25.360074)" fill="#ff0000"/>
<path transform="matrix(1,0,0,-1.00008,73.194,77.27922)" stroke-width=".79701" stroke-linecap="butt" stroke-miterlimit="10" stroke-linejoin="miter" fill="none" stroke="#bf0040" d="M0 18.3685C4.46698 18.3685 8.35649 21.42235 9.41698 25.76138"/>
<path transform="matrix(1,0,0,-1.00008,73.194,77.27922)" stroke-width=".79701" stroke-linecap="butt" stroke-miterlimit="10" stroke-linejoin="miter" fill="none" stroke="#bf0040" d="M0 16.83784C5.17227 16.83784 9.67587 20.37386 10.9038 25.39796"/>
<path transform="matrix(1,0,0,-1.00008,73.194,77.27922)" stroke-width=".79701" stroke-linecap="butt" stroke-miterlimit="10" stroke-linejoin="miter" fill="none" stroke="#bf0040" d="M0 15.3072C5.87755 15.3072 10.99524 19.32536 12.39061 25.03456"/>
<use data-text="&#x03b8;" xlink:href="#font_1_3" transform="matrix(9.9626,0,0,-9.963397,82.797,69.88663)" fill="#bf0040"/>
<use data-text="2" xlink:href="#font_2_2" transform="matrix(6.9738,0,0,-6.974358,87.474,71.38175)" fill="#bf0040"/>
<path transform="matrix(1,0,0,-1.00008,73.194,77.27922)" stroke-width=".79701" stroke-linecap="butt" stroke-miterlimit="10" stroke-linejoin="miter" fill="none" stroke="#ec008c" d="M99.93474 3.63393C100.39674 5.5249 101.21729 7.31314 102.3487 8.89699"/>
<use data-text="&#x03b1;" xlink:href="#font_1_1" transform="matrix(9.9626,0,0,-9.963397,162.959,69.17157)" fill="#ec008c"/>
<path transform="matrix(1,0,0,-1.00008,73.194,77.27922)" stroke-width=".79701" stroke-linecap="butt" stroke-miterlimit="10" stroke-linejoin="miter" fill="none" stroke="#ff0000" d="M114.80334 8.92934C111.92056 8.92934 109.21338 7.53561 107.5379 5.19005"/>
<path transform="matrix(1,0,0,-1.00008,73.194,77.27922)" stroke-width=".79701" stroke-linecap="butt" stroke-miterlimit="10" stroke-linejoin="miter" fill="none" stroke="#ff0000" d="M114.80334 10.2046C111.50883 10.2046 108.41502 8.61182 106.50026 5.93129"/>
<use data-text="&#x03b2;" xlink:href="#font_1_2" transform="matrix(9.9626,0,0,-9.963397,179.252,64.5412)" fill="#ff0000"/>
<path transform="matrix(1,0,0,-1.00008,73.194,77.27922)" stroke-width=".79701" stroke-linecap="butt" stroke-miterlimit="10" stroke-linejoin="miter" fill="none" stroke="#800080" d="M38.26779 63.7796C38.26779 61.1218 37.43588 58.5284 35.89122 56.36595"/>
<use data-text="&#x03d5;" xlink:href="#font_1_4" transform="matrix(9.9626,0,0,-9.963397,113.576007,21.870789)" fill="#800080"/>
<path transform="matrix(1,0,0,-1.00008,73.194,77.27922)" stroke-width=".79701" stroke-linecap="butt" stroke-miterlimit="10" stroke-linejoin="miter" fill="none" stroke="#bf0040" d="M114.80334 30.61426C100.69724 30.61426 88.4148 20.97069 85.0659 7.26863"/>
<path transform="matrix(1,0,0,-1.00008,73.194,77.27922)" stroke-width=".79701" stroke-linecap="butt" stroke-miterlimit="10" stroke-linejoin="miter" fill="none" stroke="#bf0040" d="M114.80334 32.14491C99.99194 32.14491 87.09543 22.01918 83.57909 7.63205"/>
<path transform="matrix(1,0,0,-1.00008,73.194,77.27922)" stroke-width=".79701" stroke-linecap="butt" stroke-miterlimit="10" stroke-linejoin="miter" fill="none" stroke="#bf0040" d="M114.80334 33.67595C99.28648 33.67595 85.77571 23.06793 82.09189 7.99556"/>
</svg>
