<svg xmlns="http://www.w3.org/2000/svg" xmlns:xlink="http://www.w3.org/1999/xlink" version="1.1" width="95" height="95" viewBox="0 0 95 95">
<defs>
<path id="font_1_82" d="M.4189911 0V.0309906H.3869934C.29699708 .0309906 .2939911 .041992189 .2939911 .07902527V.64012148C.2939911 .6640167 .2939911 .6660156 .2709961 .6660156 .20899964 .60227969 .12098694 .60227969 .08898926 .60227969V.57128909C.10899353 .57128909 .16799927 .57128909 .21998596 .5972748V.07902527C.21998596 .042999269 .21699524 .0309906 .1269989 .0309906H.09498596V0C.12998963 .0029907227 .21699524 .0029907227 .25698854 .0029907227 .29699708 .0029907227 .38398744 .0029907227 .4189911 0Z"/>
<path id="font_2_1" d="M.45498658 .5001831C.45498658 .56614688 .43699647 .7050781 .33499146 .7050781 .19599915 .7050781 .041992189 .42323304 .041992189 .19425965 .041992189 .100250247 .070999149-.0107421879 .1619873-.0107421879 .30299378-.0107421879 .45498658 .27627564 .45498658 .5001831M.147995 .36328126C.16499329 .42723084 .18499756 .5071869 .22499085 .57814028 .2519989 .6271057 .2889862 .68307498 .33399964 .68307498 .3829956 .68307498 .3889923 .6191101 .3889923 .56214907 .3889923 .5131836 .3809967 .46220399 .35699464 .36328126H.147995M.34799195 .3312683C.33699037 .28527833 .31599427 .2002716 .27799989 .12826538 .24299622 .060256959 .20498657 .011245728 .1619873 .011245728 .1289978 .011245728 .10798645 .040252687 .10798645 .133255 .10798645 .17526245 .11399841 .23326111 .13999939 .3312683H.34799195Z"/>
<path id="font_2_2" d="M.20599365 .3996582H.2999878C.31999208 .3996582 .32998658 .3996582 .32998658 .41966249 .32998658 .43066407 .31999208 .43066407 .3019867 .43066407H.21398926C.25 .5724945 .25498963 .59246829 .25498963 .59846499 .25498963 .61546328 .24299622 .62545779 .22599793 .62545779 .22299195 .62545779 .19499207 .62446597 .18598938 .58947756L.14698792 .43066407H.052993776C.032989503 .43066407 .022994996 .43066407 .022994996 .4116516 .022994996 .3996582 .0309906 .3996582 .050994874 .3996582H.13899231C.066986087 .11608887 .06298828 .099121097 .06298828 .08114624 .06298828 .02722168 .100997928-.0107421879 .15499878-.0107421879 .25698854-.0107421879 .31399537 .13505554 .31399537 .14305115 .31399537 .1530304 .30599977 .1530304 .3019867 .1530304 .29299928 .1530304 .2919922 .15003968 .2869873 .13905335 .24398804 .035217287 .19099427 .011245728 .15699768 .011245728 .13598633 .011245728 .12599182 .024230957 .12599182 .057174684 .12599182 .08114624 .12799073 .088134769 .13198853 .10510254L.20599365 .3996582Z"/>
</defs>
<path transform="matrix(1.00002,0,0,-1.00006,45.516557,48.907033)" d="M0 0 21.14095 30.19238V0H0" fill="#6dcff6"/>
<path transform="matrix(1.00002,0,0,-1.00006,45.516557,48.907033)" stroke-width=".3985" stroke-linecap="butt" stroke-miterlimit="10" stroke-linejoin="miter" fill="none" stroke="#6dcff6" d="M0 0 21.14095 30.19238V0H0"/>
<path transform="matrix(1.00002,0,0,-1.00006,45.516557,48.907033)" stroke-width=".3985" stroke-linecap="butt" stroke-miterlimit="10" stroke-linejoin="miter" fill="none" stroke="#0000ff" d="M21.14095 0V5.52739H15.61354V0ZM15.61354 5.52739"/>
<path transform="matrix(1.00002,0,0,-1.00006,45.516557,48.907033)" stroke-width=".79701" stroke-linecap="butt" stroke-miterlimit="10" stroke-linejoin="miter" fill="none" stroke="#000000" d="M-44.221 0H46.4717"/>
<path transform="matrix(1.00002,0,0,-1.00006,91.98918,48.907033)" d="M1.0361 0C-.25902 .25902-1.55415 .77707-3.1083 1.68365-1.55415 .51805-1.55415-.51805-3.1083-1.68365-1.55415-.77707-.25902-.25902 1.0361 0Z"/>
<path transform="matrix(1.00002,0,0,-1.00006,91.98918,48.907033)" stroke-width=".79701" stroke-linecap="butt" stroke-linejoin="round" fill="none" stroke="#000000" d="M1.0361 0C-.25902 .25902-1.55415 .77707-3.1083 1.68365-1.55415 .51805-1.55415-.51805-3.1083-1.68365-1.55415-.77707-.25902-.25902 1.0361 0Z"/>
<use data-text="1" xlink:href="#font_1_82" transform="matrix(9.962799,0,0,-9.963197,82.7303,59.261655)"/>
<path transform="matrix(1.00002,0,0,-1.00006,45.516557,48.907033)" stroke-width=".79701" stroke-linecap="butt" stroke-miterlimit="10" stroke-linejoin="miter" fill="none" stroke="#000000" d="M0-44.221V46.4717"/>
<path transform="matrix(0,-1.00006,-1.00002,-0,45.516557,2.4325486)" d="M1.0361 0C-.25902 .25902-1.55415 .77707-3.1083 1.68365-1.55415 .51805-1.55415-.51805-3.1083-1.68365-1.55415-.77707-.25902-.25902 1.0361 0Z"/>
<path transform="matrix(0,-1.00006,-1.00002,-0,45.516557,2.4325486)" stroke-width=".79701" stroke-linecap="butt" stroke-linejoin="round" fill="none" stroke="#000000" d="M1.0361 0C-.25902 .25902-1.55415 .77707-3.1083 1.68365-1.55415 .51805-1.55415-.51805-3.1083-1.68365-1.55415-.77707-.25902-.25902 1.0361 0Z"/>
<use data-text="1" xlink:href="#font_1_82" transform="matrix(9.962799,0,0,-9.963197,36.816385,11.352783)"/>
<path transform="matrix(1.00002,0,0,-1.00006,45.516557,48.907033)" stroke-width=".79701" stroke-linecap="butt" stroke-miterlimit="10" stroke-linejoin="miter" fill="none" stroke="#000000" d="M36.85092 0C36.85092 20.35246 20.35246 36.85092 0 36.85092-20.35246 36.85092-36.85092 20.35246-36.85092 0-36.85092-20.35246-20.35246-36.85092 0-36.85092 20.35246-36.85092 36.85092-20.35246 36.85092 0ZM0 0"/>
<path transform="matrix(1.00002,0,0,-1.00006,45.516557,48.907033)" stroke-width=".79701" stroke-linecap="butt" stroke-miterlimit="10" stroke-linejoin="miter" fill="none" stroke="#ff0000" d="M6.34105 9.05583C4.48291 10.35677 2.26833 11.05518-.00005 11.05518"/>
<use data-text="&#x03b8;" xlink:href="#font_2_1" transform="matrix(9.962799,0,0,-9.963197,49.235635,34.132146)" fill="#ff0000"/>
<path transform="matrix(1.00002,0,0,-1.00006,45.516557,48.907033)" stroke-width=".79701" stroke-linecap="butt" stroke-miterlimit="10" stroke-linejoin="miter" fill="none" stroke="#929292" d="M21.14095 30.19238V0"/>
<use data-text="t" xlink:href="#font_2_2" transform="matrix(9.962799,0,0,-9.963197,64.85894,58.754625)"/>
<path transform="matrix(1.00002,0,0,-1.00006,45.516557,48.907033)" stroke-width=".79701" stroke-linecap="butt" stroke-miterlimit="10" stroke-linejoin="miter" fill="none" stroke="#929292" d="M21.14095 30.19238 0 0"/>
</svg>
