<svg xmlns="http://www.w3.org/2000/svg" xmlns:xlink="http://www.w3.org/1999/xlink" version="1.1" width="74pt" height="67pt" viewBox="0 0 74 67">
<defs>
<path id="font_1_1" d="M.33399964 .30233766C.33999635 .32835389 .36299134 .42037965 .43299867 .42037965 .43798829 .42037965 .46199037 .42037965 .48298646 .40734864 .45498658 .402359 .43499757 .37734986 .43499757 .35334779 .43499757 .33735658 .44599916 .31835938 .47299195 .31835938 .49499513 .31835938 .5269928 .3363495 .5269928 .37635804 .5269928 .42837525 .46798707 .4423828 .43399049 .4423828 .37599183 .4423828 .34098817 .38935853 .32899476 .36634828 .3039856 .43237306 .25 .4423828 .22099304 .4423828 .116989139 .4423828 .05999756 .3133545 .05999756 .28834535 .05999756 .27833558 .069992069 .27833558 .07199097 .27833558 .07998657 .27833558 .08299255 .28033448 .084991458 .28933717 .11898804 .39535523 .18499756 .42037965 .21899414 .42037965 .23799134 .42037965 .272995 .4113617 .272995 .35334779 .272995 .32235719 .2559967 .25532533 .21899414 .11528015 .20298767 .053268434 .16799927 .011245728 .12399292 .011245728 .117996219 .011245728 .09498596 .011245728 .07398987 .024276734 .09899902 .029266358 .12098694 .05027771 .12098694 .07827759 .12098694 .105270389 .09899902 .11328125 .083999637 .11328125 .053985597 .11328125 .0289917 .08728027 .0289917 .055267335 .0289917 .009246826 .07899475-.0107421879 .12298584-.0107421879 .18899536-.0107421879 .22499085 .059280397 .22799683 .0652771 .23999024 .028274537 .27598573-.0107421879 .33599855-.0107421879 .43899537-.0107421879 .49598695 .118270877 .49598695 .14328003 .49598695 .1532898 .4869995 .1532898 .48399354 .1532898 .47499085 .1532898 .47299195 .14929199 .47099305 .14228821 .43798829 .03527832 .36999513 .011245728 .33799745 .011245728 .29899598 .011245728 .2829895 .043273927 .2829895 .07727051 .2829895 .09927368 .2889862 .121276859 .2999878 .16529846L.33399964 .30233766Z"/>
<path id="font_1_2" d="M.48599244 .38136292C.48999024 .39537049 .48999024 .39736939 .48999024 .40437318 .48999024 .42237855 .47599793 .43138124 .46099855 .43138124 .45098878 .43138124 .43499757 .42536927 .42599488 .41036988 .42399598 .405365 .41600038 .37435914 .4119873 .35635377 .40499879 .33035279 .397995 .30334474 .3919983 .27633668L.34700013 .09628296C.34298707 .08126831 .2999878 .011245728 .23399353 .011245728 .18299866 .011245728 .17199707 .055267335 .17199707 .0922699 .17199707 .1382904 .18899536 .20030213 .22299195 .28833009 .23899842 .3293457 .24299622 .3403473 .24299622 .36035157 .24299622 .405365 .21099854 .4423828 .16099549 .4423828 .06599426 .4423828 .0289917 .29733277 .0289917 .28833009 .0289917 .27833558 .038986207 .27833558 .040985109 .27833558 .050994874 .27833558 .051986696 .28033448 .056991579 .29634095 .083999637 .3903656 .12399292 .42037965 .1579895 .42037965 .1659851 .42037965 .18299866 .42037965 .18299866 .3883667 .18299866 .36335755 .17298889 .3373413 .1659851 .31834413 .12599182 .21231079 .10798645 .1552887 .10798645 .10827637 .10798645 .019256592 .17098999-.0107421879 .22999573-.0107421879 .2689972-.0107421879 .30299378 .0062561037 .33099366 .03425598 .31799317-.017745972 .30599977-.06674194 .2659912-.11973572 .23999024-.15385437 .20199585-.18309021 .1559906-.18309021 .14199829-.18309021 .09700012-.18005371 .07998657-.14074707 .09599304-.14074707 .10899353-.14074707 .12298584-.1287384 .1329956-.11973572 .14299011-.10673523 .14299011-.08773804 .14299011-.056747438 .115997318-.052734376 .10598755-.052734376 .08299255-.052734376 .049987794-.068740848 .049987794-.11773682 .049987794-.16796875 .09399414-.20507813 .1559906-.20507813 .25898744-.20507813 .3619995-.11373901 .3899994-.00074768069L.48599244 .38136292Z"/>
<path id="font_2_1" d="M.44898988 .20022583C.44898988 .3193512 .36698915 .41944886 .25898744 .41944886 .21099854 .41944886 .16799927 .40345765 .13198853 .36842347V.5637665C.1519928 .5577698 .18499756 .55078127 .21699524 .55078127 .33999635 .55078127 .4099884 .6417694 .4099884 .6547699 .4099884 .6607666 .40699769 .6657715 .3999939 .6657715 .39898683 .6657715 .39698792 .6657715 .3919983 .66278079 .37199403 .6537781 .32299806 .6337738 .2559967 .6337738 .21598816 .6337738 .16999817 .6407776 .12298584 .6617737 .114990238 .66477969 .11299133 .66477969 .11099243 .66477969 .100997928 .66477969 .100997928 .6567688 .100997928 .6407776V.34439088C.100997928 .32637025 .100997928 .31835938 .114990238 .31835938 .12199402 .31835938 .12399292 .32136537 .12799073 .32736207 .13899231 .3433838 .17599488 .39746095 .25698854 .39746095 .30899049 .39746095 .33399964 .35139466 .34199525 .33337403 .35798646 .29632569 .3600006 .25727845 .3600006 .20722962 .3600006 .17222595 .3600006 .11222839 .33599855 .07035828 .31199647 .031463624 .2749939 .0055389406 .22898865 .0055389406 .1559906 .0055389406 .09899902 .058380128 .08198547 .11723328 .084991458 .1162262 .08799744 .115234378 .09899902 .115234378 .13198853 .115234378 .14898682 .14022827 .14898682 .16423035 .14898682 .18823242 .13198853 .21322632 .09899902 .21322632 .084991458 .21322632 .049987794 .20622254 .049987794 .16023255 .049987794 .07434082 .11898804-.022460938 .23098755-.022460938 .34700013-.022460938 .44898988 .073349 .44898988 .20022583Z"/>
<path id="font_3_112" d="M.5799866 .3973236V.44433595C.5549927 .44232179 .526001 .44132997 .5009918 .44132997L.4099884 .44433595V.3973236C.42900086 .3973236 .45799256 .39431764 .45799256 .38632203 .45799256 .38632203 .45799256 .38432313 .45298768 .37431336L.33699037 .12416077 .20999146 .3973236H.2639923V.44433595L.13999939 .44132997 .025985718 .44433595V.3973236H.08999634L.2649994 .021102906C.2769928-.00390625 .2899933-.00390625 .30299378-.00390625 .31999208-.00390625 .32998658-.00091552737 .33999635 .020095826L.5059967 .37631227C.5119934 .39031983 .5159912 .3973236 .5799866 .3973236Z"/>
</defs>
<path transform="matrix(1.00003,0,0,-1,10.1978,52.402)" stroke-width=".3985" stroke-linecap="butt" stroke-miterlimit="10" stroke-linejoin="miter" fill="none" stroke="#00aeef" d="M-6.23631-12.47266H49.89066M-6.23631-6.23631H49.89066M-6.23631 0H49.89066M-6.23631 6.23631H49.89066M-6.23631 12.47266H49.89066M-6.23631 18.70897H49.89066M-6.23631 24.94531H49.89066M-6.23631 31.18166H49.89066M-6.23631 37.41579H49.89066M-6.23631-12.47266V37.41797M0-12.47266V37.41797M6.23631-12.47266V37.41797M12.47266-12.47266V37.41797M18.70897-12.47266V37.41797M24.94531-12.47266V37.41797M31.18166-12.47266V37.41797M37.41797-12.47266V37.41797M43.65431-12.47266V37.41797M49.88846-12.47266V37.41797M49.89066 37.41797"/>
<path transform="matrix(1.00003,0,0,-1,10.1978,52.402)" stroke-width=".79701" stroke-linecap="butt" stroke-miterlimit="10" stroke-linejoin="miter" fill="none" stroke="#000000" d="M-6.23631 0H51.57419"/>
<path transform="matrix(1.00003,0,0,-1,61.773538,52.402)" d="M1.0361 0C-.25902 .25902-1.55415 .77707-3.1083 1.68365-1.55415 .51805-1.55415-.51805-3.1083-1.68365-1.55415-.77707-.25902-.25902 1.0361 0Z"/>
<path transform="matrix(1.00003,0,0,-1,61.773538,52.402)" stroke-width=".79701" stroke-linecap="butt" stroke-linejoin="round" fill="none" stroke="#000000" d="M1.0361 0C-.25902 .25902-1.55415 .77707-3.1083 1.68365-1.55415 .51805-1.55415-.51805-3.1083-1.68365-1.55415-.77707-.25902-.25902 1.0361 0Z"/>
<use data-text="x" xlink:href="#font_1_1" transform="matrix(9.962899,0,0,-9.9626,66.927509,54.547)"/>
<path transform="matrix(1.00003,0,0,-1,10.1978,52.402)" stroke-width=".79701" stroke-linecap="butt" stroke-miterlimit="10" stroke-linejoin="miter" fill="none" stroke="#000000" d="M0-12.47266V39.10153"/>
<path transform="matrix(0,-1,-1.00003,-0,10.1978,13.300472)" d="M1.0361 0C-.25902 .25902-1.55415 .77707-3.1083 1.68365-1.55415 .51805-1.55415-.51805-3.1083-1.68365-1.55415-.77707-.25902-.25902 1.0361 0Z"/>
<path transform="matrix(0,-1,-1.00003,-0,10.1978,13.300472)" stroke-width=".79701" stroke-linecap="butt" stroke-linejoin="round" fill="none" stroke="#000000" d="M1.0361 0C-.25902 .25902-1.55415 .77707-3.1083 1.68365-1.55415 .51805-1.55415-.51805-3.1083-1.68365-1.55415-.77707-.25902-.25902 1.0361 0Z"/>
<use data-text="y" xlink:href="#font_1_2" transform="matrix(9.962899,0,0,-9.9626,7.576721,6.209999)"/>
<path transform="matrix(1.00003,0,0,-1,10.1978,52.402)" stroke-width=".79701" stroke-linecap="butt" stroke-miterlimit="10" stroke-linejoin="miter" fill="none" stroke="#000000" d="M31.18166 .9354V-.93549"/>
<path transform="matrix(1.00003,0,0,-1,10.1978,52.402)" d="M27.69469-11.73953H34.668634V-3.3265496H27.69469Z" fill="#ffffff"/>
<use data-text="5" xlink:href="#font_2_1" transform="matrix(9.962899,0,0,-9.9626,38.889665,63.145)"/>
<path transform="matrix(1.00003,0,0,-1,10.1978,52.402)" stroke-width=".79701" stroke-linecap="butt" stroke-miterlimit="10" stroke-linejoin="miter" fill="none" stroke="#000000" d="M.9354 31.18166H-.93549"/>
<path transform="matrix(1.00003,0,0,-1,10.1978,52.402)" d="M-10.30049 26.97516H-3.3265506V35.38814H-10.30049Z" fill="#ffffff"/>
<use data-text="5" xlink:href="#font_2_1" transform="matrix(9.962899,0,0,-9.9626,.89352419,24.431)"/>
<path transform="matrix(1.00003,0,0,-1,10.1978,52.402)" stroke-width=".79701" stroke-linecap="butt" stroke-miterlimit="10" stroke-linejoin="miter" fill="none" stroke="#ff0000" d="M0 0 17.9709 29.95152"/>
<path transform="matrix(.51449546,-.85747,-.8574957,-.51448,28.169239,22.45048)" d="M1.0361 0C-.25902 .25902-1.55415 .77707-3.1083 1.68365-1.55415 .51805-1.55415-.51805-3.1083-1.68365-1.55415-.77707-.25902-.25902 1.0361 0Z" fill="#ff0000"/>
<path transform="matrix(.51449546,-.85747,-.8574957,-.51448,28.169239,22.45048)" stroke-width=".79701" stroke-linecap="butt" stroke-linejoin="round" fill="none" stroke="#ff0000" d="M1.0361 0C-.25902 .25902-1.55415 .77707-3.1083 1.68365-1.55415 .51805-1.55415-.51805-3.1083-1.68365-1.55415-.77707-.25902-.25902 1.0361 0Z"/>
<use data-text="v" xlink:href="#font_3_112" transform="matrix(9.962899,0,0,-9.9626,32.626474,28.394001)" fill="#ff0000"/>
</svg>
