<svg xmlns="http://www.w3.org/2000/svg" xmlns:xlink="http://www.w3.org/1999/xlink" version="1.1" width="89" height="64" viewBox="0 0 89 64">
<defs>
<path id="font_1_1" d="M.7559967 .577652C.7659912 .61763 .7839966 .64860537 .8639984 .6516113 .86898806 .6516113 .8809967 .65260317 .8809967 .6716156 .8809967 .6726074 .8809967 .6826172 .8679962 .6826172 .83499148 .6826172 .7999878 .6796112 .7669983 .6796112 .73298647 .6796112 .69799807 .6826172 .6649933 .6826172 .6589966 .6826172 .6469879 .6826172 .6469879 .6626129 .6469879 .6516113 .6569977 .6516113 .6649933 .6516113 .7220001 .65060427 .73298647 .6296234 .73298647 .6076355 .73298647 .6046295 .73098757 .5896454 .7299957 .5866394L.6179962 .141922 .39698792 .66360476C.3889923 .6816101 .3880005 .6826172 .36499024 .6826172H.23098755C.21099854 .6826172 .20199585 .6826172 .20199585 .6626129 .20199585 .6516113 .21099854 .6516113 .22999573 .6516113 .23498535 .6516113 .2979889 .6516113 .2979889 .64260867L.1639862 .10594177C.1539917 .065963748 .13699341 .033996583 .055999757 .0309906 .049987794 .0309906 .038986207 .02999878 .038986207 .010986328 .038986207 .0039978029 .04399109 0 .051986696 0 .083999637 0 .11898804 .0029907227 .1519928 .0029907227 .18598938 .0029907227 .22200012 0 .25498963 0 .2599945 0 .272995 0 .272995 .019989014 .272995 .02999878 .2639923 .0309906 .25299073 .0309906 .19499207 .032989503 .18699646 .054977418 .18699646 .07496643 .18699646 .081954959 .18798828 .08695984 .19099427 .09794617L.32299806 .6256256C.32699586 .6196289 .32699586 .61763 .33198548 .6076355L.58099368 .018997193C.58799746 .0019989014 .59098818 0 .59999087 0 .61099246 0 .61099246 .0029907227 .6159973 .020996094L.7559967 .577652Z"/>
<path id="font_2_106" d="M.45700074 .17037964C.45700074 .252594 .3939972 .33088685 .2899933 .35191346 .37199403 .37893678 .42999269 .4490509 .42999269 .52809146 .42999269 .6100464 .34199525 .6660156 .24598694 .6660156 .14498902 .6660156 .068984989 .60606387 .068984989 .53009036 .068984989 .49710084 .09098816 .47808839 .11999512 .47808839 .15098572 .47808839 .17098999 .50009158 .17098999 .5290985 .17098999 .57910159 .12399292 .57910159 .10899353 .57910159 .13999939 .62802127 .20599365 .64100649 .24198914 .64100649 .2829895 .64100649 .33799745 .6190338 .33799745 .5290985 .33799745 .51708987 .33599855 .45906068 .30999757 .4149933 .27999879 .36691285 .24598694 .36390687 .22099304 .36291505 .21299744 .36190797 .18899536 .35990907 .18199158 .35990907 .17399597 .35890199 .16699219 .35791017 .16699219 .3479004 .16699219 .33691407 .17399597 .33691407 .19099427 .33691407H.23498535C.31698609 .33691407 .35398866 .2686615 .35398866 .17037964 .35398866 .034469606 .2849884 .0055389406 .24099732 .0055389406 .19799805 .0055389406 .12298584 .022491456 .08799744 .08137512 .12298584 .07637024 .1539917 .09837341 .1539917 .1363678 .1539917 .17237854 .1269989 .19238281 .09799194 .19238281 .07398987 .19238281 .041992189 .17837525 .041992189 .1343689 .041992189 .043441774 .1349945-.022460938 .24398804-.022460938 .3659973-.022460938 .45700074 .06838989 .45700074 .17037964Z"/>
<path id="font_2_70" d="M.5109863 0V.0309906C.47399903 .0309906 .45199586 .0309906 .4139862 .0839386L.2869873 .26278688C.28599549 .26478578 .2809906 .2707672 .2809906 .2737732 .2809906 .277771 .35198976 .33770753 .3619995 .34570313 .4249878 .39666749 .46699525 .39865113 .48799134 .3996582V.43066407C.45899964 .42765809 .44599916 .42765809 .41799928 .42765809 .38198854 .42765809 .31999208 .42965699 .30599977 .43066407V.3996582C.32499696 .39865113 .33499146 .3876648 .33499146 .37467958 .33499146 .3547058 .32099916 .3427124 .31298829 .33570863L.17199707 .21382141V.69433596L.027999878 .6826172V.6516113C.09799194 .6516113 .10598755 .64460757 .10598755 .5956421V.07595825C.10598755 .0309906 .09498596 .0309906 .027999878 .0309906V0L.13699341 .0029907227 .24699402 0V.0309906C.17999268 .0309906 .16899109 .0309906 .16899109 .07595825V.17889405L.23298645 .23387146C.30999757 .12792969 .35198976 .07196045 .35198976 .053985597 .35198976 .034988405 .33499146 .0309906 .31599427 .0309906V0L.42399598 .0029907227C.45298768 .0029907227 .48199464 .0019989014 .5109863 0Z"/>
<path id="font_2_75" d="M.8129883 0V.0309906C.7609863 .0309906 .73599246 .0309906 .7350006 .061019899V.25221253C.7350006 .3383026 .7350006 .36932374 .70399478 .405365 .6899872 .42237855 .6569977 .4423828 .598999 .4423828 .5149994 .4423828 .47099305 .38233949 .45399476 .34429933 .43998719 .43138124 .3659973 .4423828 .32099916 .4423828 .24798584 .4423828 .20098877 .39935304 .17298889 .33729554V.4423828L.03199768 .43066407V.3996582C.101989749 .3996582 .10998535 .39266969 .10998535 .34370423V.07595825C.10998535 .0309906 .09899902 .0309906 .03199768 .0309906V0L.14498902 .0029907227 .25698854 0V.0309906C.18998719 .0309906 .1789856 .0309906 .1789856 .07595825V.25978089C.1789856 .36431886 .25 .42037965 .31399537 .42037965 .3769989 .42037965 .3880005 .36631776 .3880005 .30926515V.076034549C.3880005 .0309906 .3769989 .0309906 .30999757 .0309906V0L.4229889 .0029907227 .5349884 0V.0309906C.46798707 .0309906 .45700074 .0309906 .45700074 .076034549V.2602234C.45700074 .36431886 .5279999 .42037965 .59199526 .42037965 .6549988 .42037965 .66600039 .36631776 .66600039 .30926515V.076034549C.66600039 .0309906 .6549988 .0309906 .58799746 .0309906V0L.70098879 .0029907227 .8129883 0Z"/>
<path id="font_3_1" d="M.2939911 .64004519C.2939911 .66400149 .2939911 .6660156 .2709961 .6660156 .20899964 .60227969 .12098694 .60227969 .08898926 .60227969V.57128909C.10899353 .57128909 .16799927 .57128909 .21998596 .5972748V.07902527C.21998596 .042999269 .21699524 .0309906 .1269989 .0309906H.09498596V0C.12998963 .0029907227 .21699524 .0029907227 .25698854 .0029907227 .29699708 .0029907227 .38398744 .0029907227 .4189911 0V.0309906H.3869934C.29699708 .0309906 .2939911 .041992189 .2939911 .07902527V.64004519Z"/>
<path id="font_3_2" d="M.44898988 .20022583C.44898988 .3193512 .36698915 .41944886 .25898744 .41944886 .21099854 .41944886 .16799927 .40345765 .13198853 .36842347V.5637665C.1519928 .5577698 .18499756 .55078127 .21699524 .55078127 .33999635 .55078127 .4099884 .6417694 .4099884 .6547699 .4099884 .6607666 .40699769 .6657715 .3999939 .6657715 .39898683 .6657715 .39698792 .6657715 .3919983 .66278079 .37199403 .6537781 .32299806 .6337738 .2559967 .6337738 .21598816 .6337738 .16999817 .6407776 .12298584 .6617737 .114990238 .66477969 .11299133 .66477969 .11099243 .66477969 .100997928 .66477969 .100997928 .6567688 .100997928 .6407776V.34439088C.100997928 .32637025 .100997928 .31835938 .114990238 .31835938 .12199402 .31835938 .12399292 .32136537 .12799073 .32736207 .13899231 .3433838 .17599488 .39746095 .25698854 .39746095 .30899049 .39746095 .33399964 .35139466 .34199525 .33337403 .35798646 .29632569 .3600006 .25727845 .3600006 .20722962 .3600006 .17222595 .3600006 .11222839 .33599855 .07035828 .31199647 .031463624 .2749939 .0055389406 .22898865 .0055389406 .1559906 .0055389406 .09899902 .058380128 .08198547 .11723328 .084991458 .1162262 .08799744 .115234378 .09899902 .115234378 .13198853 .115234378 .14898682 .14022827 .14898682 .16423035 .14898682 .18823242 .13198853 .21322632 .09899902 .21322632 .084991458 .21322632 .049987794 .20622254 .049987794 .16023255 .049987794 .07434082 .11898804-.022460938 .23098755-.022460938 .34700013-.022460938 .44898988 .073349 .44898988 .20022583Z"/>
<path id="font_4_1" d="M.5069885 .24998474C.5069885 .3710022 .4099884 .4650116 .2919922 .4650116 .17199707 .4650116 .07699585 .36799623 .07699585 .25097657 .07699585 .1299591 .17399597 .035949708 .2919922 .035949708 .4119873 .035949708 .5069885 .13296509 .5069885 .24998474M.2919922 .08496094C.19799805 .08496094 .12599182 .16096497 .12599182 .24998474 .12599182 .34300233 .19999695 .41601563 .2919922 .41601563 .38598634 .41601563 .45799256 .33999635 .45799256 .25097657 .45799256 .15795899 .38398744 .08496094 .2919922 .08496094Z"/>
</defs>
<path transform="matrix(1.00003,0,0,-1.00005,83.63898,39.795389)" stroke-width=".79701" stroke-linecap="butt" stroke-miterlimit="10" stroke-linejoin="miter" fill="none" stroke="#000000" d="M0 0V26.91219"/>
<path transform="matrix(0,-1.00005,-1.00003,-0,83.63898,12.881853)" d="M1.0361 0C-.25902 .25902-1.55415 .77707-3.1083 1.68365-1.55415 .51805-1.55415-.51805-3.1083-1.68365-1.55415-.77707-.25902-.25902 1.0361 0Z"/>
<path transform="matrix(0,-1.00005,-1.00003,-0,83.63898,12.881853)" stroke-width=".79701" stroke-linecap="butt" stroke-linejoin="round" fill="none" stroke="#000000" d="M1.0361 0C-.25902 .25902-1.55415 .77707-3.1083 1.68365-1.55415 .51805-1.55415-.51805-3.1083-1.68365-1.55415-.77707-.25902-.25902 1.0361 0Z"/>
<use data-text="N" xlink:href="#font_1_1" transform="matrix(9.962899,0,0,-9.963098,79.09384,7.727783)"/>
<path transform="matrix(1.00003,0,0,-1.00005,83.63898,39.795389)" stroke-width=".3985" stroke-linecap="butt" stroke-miterlimit="10" stroke-linejoin="miter" fill="none" stroke="#929292" d="M0 0H-56.69362"/>
<path transform="matrix(1.00003,0,0,-1.00005,83.63898,39.795389)" stroke-width="1.19553" stroke-linecap="butt" stroke-miterlimit="10" stroke-linejoin="miter" fill="none" stroke="#0000ff" d="M0 0-80.3337-21.52542"/>
<path transform="matrix(-.965959,.25880293,.25879777,.9659782,3.302887,61.321886)" d="M1.27522 0C-.31879 .31879-1.91284 .9564-3.8257 2.07224-1.91284 .6376-1.91284-.6376-3.8257-2.07224-1.91284-.9564-.31879-.31879 1.27522 0Z" fill="#0000ff"/>
<path transform="matrix(-.965959,.25880293,.25879777,.9659782,3.302887,61.321886)" stroke-width="1.19553" stroke-linecap="butt" stroke-linejoin="round" fill="none" stroke="#0000ff" d="M1.27522 0C-.31879 .31879-1.91284 .9564-3.8257 2.07224-1.91284 .6376-1.91284-.6376-3.8257-2.07224-1.91284-.9564-.31879-.31879 1.27522 0Z"/>
<use data-text="3" xlink:href="#font_2_106" transform="matrix(9.962899,0,0,-9.963098,46.484865,61.63448)" fill="#0000ff"/>
<use data-text="k" xlink:href="#font_2_70" transform="matrix(9.962899,0,0,-9.963098,54.78395,61.63448)" fill="#0000ff"/>
<use data-text="m" xlink:href="#font_2_75" transform="matrix(9.962899,0,0,-9.963098,60.044374,61.63448)" fill="#0000ff"/>
<path transform="matrix(1.00003,0,0,-1.00005,83.63898,39.795389)" stroke-width=".3985" stroke-linecap="butt" stroke-miterlimit="10" stroke-linejoin="miter" fill="none" stroke="#ff0000" d="M-36.85092 0C-36.85092-3.21916-36.42807-6.42877-35.5953-9.53773"/>
<use data-text="1" xlink:href="#font_3_1" transform="matrix(9.962899,0,0,-9.963098,29.040329,49.03185)" fill="#ff0000"/>
<use data-text="5" xlink:href="#font_3_2" transform="matrix(9.962899,0,0,-9.963098,34.021776,49.03185)" fill="#ff0000"/>
<use data-text="&#x25e6;" xlink:href="#font_4_1" transform="matrix(6.9740097,0,0,-6.9741489,39.00363,45.41567)" fill="#ff0000"/>
</svg>
