<svg xmlns="http://www.w3.org/2000/svg" xmlns:xlink="http://www.w3.org/1999/xlink" version="1.1" width="57pt" height="58pt" viewBox="0 0 57 58">
<defs>
<path id="font_1_120" d="M.46199037 .20213318H.4149933C.4059906 .1010437 .3899994 .039993287 .2579956 .039993287H.17199707L.44898988 .4013214C.45700074 .412323 .45899964 .4143219 .45899964 .42332459 .45899964 .44433595 .44499208 .44433595 .4269867 .44433595H.05999756L.04798889 .26919557H.09498596C.100997928 .3722992 .13198853 .4083252 .23498535 .4083252H.31999208L.040985109 .04399109C.03199768 .032989503 .03199768 .0309906 .03199768 .021987915 .03199768 0 .04499817 0 .06399536 0H.44400025L.46199037 .20213318Z"/>
<path id="font_1_54" d="M.6749878 .4391327 .6439972 .6798096H.038986207V.6328125H.14698792V.04699707H.038986207V0C.07699585 .0029907227 .17799378 .0029907227 .22200012 .0029907227 .2709961 .0029907227 .37998963 .0029907227 .42399598 0V.04699707H.2889862V.31724549H.33898927C.43499757 .31724549 .44400025 .2742157 .44400025 .20013428H.4909973V.48106385H.44400025C.44400025 .4071808 .43598939 .3642578 .33898927 .3642578H.2889862V.6328125H.42900086C.58999636 .6328125 .61299136 .5559387 .6279907 .4391327H.6749878Z"/>
<path id="font_1_49" d="M.72299197 .27397157H.6759949C.6539917 .13598633 .6259918 .04699707 .44099427 .04699707H.2889862V.32896424H.34399415C.43998719 .32896424 .44999696 .28596498 .44999696 .2119751H.49699403V.4928894H.44999696C.44999696 .4189453 .44099427 .37597657 .34399415 .37597657H.2889862V.6328125H.44099427C.60198977 .6328125 .6279907 .5598297 .6439972 .43885804H.69099429L.6599884 .6798096H.038986207V.6328125H.14698792V.04699707H.038986207V0H.6769867L.72299197 .27397157Z"/>
</defs>
<path transform="matrix(1,0,0,-1.00002,2.0960007,55.88982)" stroke-width=".3985" stroke-linecap="butt" stroke-miterlimit="10" stroke-linejoin="miter" fill="none" stroke="#00aeef" d="M0 0H53.57631M0 7.65375H53.57631M0 15.30751H53.57631M0 22.96126H53.57631M0 30.61504H53.57631M0 38.26878H53.57631M0 45.92255H53.57631M0 53.57362H53.57631M0 0V53.57631M7.65375 0V53.57631M15.30751 0V53.57631M22.96126 0V53.57631M30.61504 0V53.57631M38.26878 0V53.57631M45.92255 0V53.57631M53.57362 0V53.57631M53.57631 53.57631"/>
<path transform="matrix(1,0,0,-1.00002,2.0960007,55.88982)" stroke-width=".79701" stroke-linecap="butt" stroke-miterlimit="10" stroke-linejoin="miter" fill="none" stroke="#cbcbcb" d="M38.26878 7.65375 16.32062 29.60191"/>
<path transform="matrix(-.7071,-.70711418,-.7071,.70711418,18.41663,26.287327)" d="M1.0361 0C-.25902 .25902-1.55415 .77707-3.1083 1.68365-1.55415 .51805-1.55415-.51805-3.1083-1.68365-1.55415-.77707-.25902-.25902 1.0361 0Z" fill="#cbcbcb"/>
<path transform="matrix(-.7071,-.70711418,-.7071,.70711418,18.41663,26.287327)" stroke-width=".79701" stroke-linecap="butt" stroke-linejoin="round" fill="none" stroke="#cbcbcb" d="M1.0361 0C-.25902 .25902-1.55415 .77707-3.1083 1.68365-1.55415 .51805-1.55415-.51805-3.1083-1.68365-1.55415-.77707-.25902-.25902 1.0361 0Z"/>
<path transform="matrix(1,0,0,-1.00002,2.0960007,55.88982)" d="M13.757 13.83902H20.84051V20.25504H13.757Z" fill="#ffffff"/>
<use data-text="z" xlink:href="#font_1_120" transform="matrix(9.9626,0,0,-9.962799,16.848999,41.054525)"/>
<path transform="matrix(1,0,0,-1.00002,2.0960007,55.88982)" stroke-width=".79701" stroke-linecap="butt" stroke-miterlimit="10" stroke-linejoin="miter" fill="none" stroke="#cbcbcb" d="M15.30751 30.61504 37.07648 45.12767"/>
<path transform="matrix(.83202,-.55468109,-.55467,-.8320367,39.17248,10.761257)" d="M1.0361 0C-.25902 .25902-1.55415 .77707-3.1083 1.68365-1.55415 .51805-1.55415-.51805-3.1083-1.68365-1.55415-.77707-.25902-.25902 1.0361 0Z" fill="#cbcbcb"/>
<path transform="matrix(.83202,-.55468109,-.55467,-.8320367,39.17248,10.761257)" stroke-width=".79701" stroke-linecap="butt" stroke-linejoin="round" fill="none" stroke="#cbcbcb" d="M1.0361 0C-.25902 .25902-1.55415 .77707-3.1083 1.68365-1.55415 .51805-1.55415-.51805-3.1083-1.68365-1.55415-.77707-.25902-.25902 1.0361 0Z"/>
<path transform="matrix(1,0,0,-1.00002,2.0960007,55.88982)" d="M18.72314 41.34053H27.92872V50.107744H18.72314Z" fill="#ffffff"/>
<use data-text="F" xlink:href="#font_1_54" transform="matrix(9.9626,0,0,-9.962799,21.815003,13.551971)"/>
<path transform="matrix(1,0,0,-1.00002,2.0960007,55.88982)" stroke-width="1.19553" stroke-linecap="butt" stroke-miterlimit="10" stroke-linejoin="miter" fill="none" stroke="#ff0000" d="M38.26878 7.65375V44.05174"/>
<path transform="matrix(0,-1.00002,-1,-0,40.36478,11.8372)" d="M1.27522 0C-.31879 .31879-1.91284 .9564-3.8257 2.07224-1.91284 .6376-1.91284-.6376-3.8257-2.07224-1.91284-.9564-.31879-.31879 1.27522 0Z" fill="#ff0000"/>
<path transform="matrix(0,-1.00002,-1,-0,40.36478,11.8372)" stroke-width="1.19553" stroke-linecap="butt" stroke-linejoin="round" fill="none" stroke="#ff0000" d="M1.27522 0C-.31879 .31879-1.91284 .9564-3.8257 2.07224-1.91284 .6376-1.91284-.6376-3.8257-2.07224-1.91284-.9564-.31879-.31879 1.27522 0Z"/>
<path transform="matrix(1,0,0,-1.00002,2.0960007,55.88982)" d="M36.4954 46.52249H46.0198V55.289705H36.4954Z" fill="#ffffff"/>
<use data-text="E" xlink:href="#font_1_49" transform="matrix(9.9626,0,0,-9.962799,39.588,8.369869)" fill="#ff0000"/>
</svg>
