<svg xmlns="http://www.w3.org/2000/svg" xmlns:xlink="http://www.w3.org/1999/xlink" version="1.1" width="126" height="85" viewBox="0 0 126 85">
<defs>
<path id="font_1_54" d="M.6749878 .4391327 .6439972 .6798096H.038986207V.6328125H.14698792V.04699707H.038986207V0C.07699585 .0029907227 .17799378 .0029907227 .22200012 .0029907227 .2709961 .0029907227 .37998963 .0029907227 .42399598 0V.04699707H.2889862V.31724549H.33898927C.43499757 .31724549 .44400025 .2742157 .44400025 .20013428H.4909973V.48106385H.44400025C.44400025 .4071808 .43598939 .3642578 .33898927 .3642578H.2889862V.6328125H.42900086C.58999636 .6328125 .61299136 .5559387 .6279907 .4391327H.6749878Z"/>
<path id="font_2_1" d="M.33499146 .63612368C.33499146 .6630554 .33299256 .6640625 .30499269 .6640625 .24099732 .6014404 .1499939 .6004486 .10899353 .6004486V.5644531C.1329956 .5644531 .19898987 .5644531 .2539978 .592453V.08203125C.2539978 .04899597 .2539978 .035995485 .1539917 .035995485H.115997318V0C.13398743 .0009918213 .25698854 .0039978029 .2939911 .0039978029 .32499696 .0039978029 .45098878 .0009918213 .47299195 0V.035995485H.43499757C.33499146 .035995485 .33499146 .04899597 .33499146 .08203125V.63612368Z"/>
<path id="font_2_2" d="M.5049896 .18203736H.47099305C.46798707 .16001892 .45799256 .100997928 .44499208 .09098816 .43699647 .084991458 .3600006 .084991458 .34599305 .084991458H.1619873C.2669983 .17803955 .3019867 .20603943 .3619995 .25306703 .43598939 .312088 .5049896 .374115 .5049896 .46914674 .5049896 .5900879 .39898683 .6640625 .2709961 .6640625 .14698792 .6640625 .06298828 .57710269 .06298828 .4851532 .06298828 .43414308 .10598755 .42915345 .115997318 .42915345 .13999939 .42915345 .16899109 .44615174 .16899109 .48214723 .16899109 .5001526 .1619873 .53515627 .10998535 .53515627 .14099121 .6060791 .20899964 .62805178 .2559967 .62805178 .35598756 .62805178 .4079895 .5501404 .4079895 .46914674 .4079895 .38212586 .34599305 .3130951 .31399537 .27708436L.07299805 .038986207C.06298828 .02999878 .06298828 .027999878 .06298828 0H.47499085L.5049896 .18203736Z"/>
<path id="font_2_3" d="M.272995 .33428956C.35099793 .33428956 .40699769 .2803192 .40699769 .1733551 .40699769 .04940796 .33499146 .012466431 .2769928 .012466431 .23699951 .012466431 .14898682 .0234375 .10699463 .082351688 .1539917 .084350589 .16499329 .11735535 .16499329 .13835144 .16499329 .17034912 .14099121 .19335938 .10998535 .19335938 .08198547 .19335938 .053985597 .17634583 .053985597 .13534546 .053985597 .041412355 .1579895-.01953125 .2789917-.01953125 .41799928-.01953125 .5139923 .07336426 .5139923 .1733551 .5139923 .2513275 .44999696 .32929994 .33999635 .35229493 .44499208 .39024354 .48298646 .4650879 .48298646 .5260773 .48298646 .60505679 .3919983 .6640625 .2809906 .6640625 .16999817 .6640625 .084991458 .61006167 .084991458 .5300751 .084991458 .49606324 .10699463 .47706605 .13699341 .47706605 .16799927 .47706605 .18798828 .5000763 .18798828 .5280762 .18798828 .5570679 .16799927 .57806399 .13699341 .5800781 .17199707 .62405398 .24099732 .63505557 .27799989 .63505557 .32299806 .63505557 .38598634 .6130676 .38598634 .5260773 .38598634 .48406983 .37199403 .43814088 .34599305 .4072113 .31298829 .36927796 .2849884 .3672943 .23498535 .36428834 .20999146 .3623047 .20799256 .3623047 .20298767 .3612976 .20098877 .3612976 .19299317 .3592987 .19299317 .34829713 .19299317 .33428956 .20199585 .33428956 .21899414 .33428956H.272995Z"/>
<path id="font_2_4" d="M.5289917 .1640625V.20005799H.41799928V.64582827C.41799928 .66682437 .41799928 .6738281 .3959961 .6738281 .38398744 .6738281 .37998963 .6738281 .36999513 .65982058L.038986207 .20005799V.1640625H.33299256V.08201599C.33299256 .04800415 .33299256 .035995485 .2519989 .035995485H.22499085V0C.2749939 .0019989014 .33898927 .0039978029 .375 .0039978029 .4119873 .0039978029 .47599793 .0019989014 .526001 0V.035995485H.49899293C.41799928 .035995485 .41799928 .04800415 .41799928 .08201599V.1640625H.5289917M.33999635 .5658722V.20005799H.07598877L.33999635 .5658722Z"/>
<path id="font_3_107" d="M.44898988 .17396546H.42399598C.4189911 .14398194 .4119873 .099990848 .4019928 .084991458 .394989 .07699585 .32899476 .07699585 .30699159 .07699585H.1269989L.23298645 .17996216C.3889923 .31803895 .44898988 .37210084 .44898988 .47216798 .44898988 .5860901 .35899354 .6660156 .23699951 .6660156 .12399292 .6660156 .049987794 .57411196 .049987794 .48516847 .049987794 .4291687 .099990848 .4291687 .102996829 .4291687 .11999512 .4291687 .15499878 .44117738 .15499878 .48217774 .15499878 .5081787 .13699341 .5341797 .101989749 .5341797 .09399414 .5341797 .09199524 .5341797 .08898926 .5331726 .11199951 .59806826 .1659851 .63500979 .22399903 .63500979 .31498719 .63500979 .35798646 .5541382 .35798646 .47216798 .35798646 .39196778 .30799867 .31297303 .25299073 .25097657L.06098938 .036987306C.049987794 .025985718 .049987794 .023986817 .049987794 0H.42099L.44898988 .17396546Z"/>
<path id="font_3_121" d="M.45999146 .31976319C.45999146 .39982606 .45498658 .47988893 .41999818 .5539398 .37399293 .65000918 .2919922 .6660156 .25 .6660156 .18998719 .6660156 .116989139 .64001467 .07598877 .54693606 .04399109 .47789 .038986207 .39982606 .038986207 .31976319 .038986207 .24472046 .042999269 .15464783 .083999637 .07859802 .1269989-.0024719239 .19999695-.022460938 .24899292-.022460938 .30299378-.022460938 .3789978-.0014648438 .4229889 .09359741 .45498658 .16265869 .45999146 .2407074 .45999146 .31976319M.3769989 .3317871C.3769989 .25672914 .3769989 .18867493 .3659973 .12461853 .35099793 .029556275 .2939911-.00047302247 .24899292-.00047302247 .20999146-.00047302247 .15098572 .024551392 .1329956 .12062073 .12199402 .18066406 .12199402 .2727356 .12199402 .3317871 .12199402 .39582826 .12199402 .46188355 .12998963 .5159149 .14898682 .63500979 .22399903 .64401248 .24899292 .64401248 .28199769 .64401248 .34799195 .6259918 .36698915 .52693179 .3769989 .47088624 .3769989 .39482118 .3769989 .3317871Z"/>
<path id="font_3_82" d="M.4189911 0V.0309906H.3869934C.29699708 .0309906 .2939911 .041992189 .2939911 .07902527V.64012148C.2939911 .6640167 .2939911 .6660156 .2709961 .6660156 .20899964 .60227969 .12098694 .60227969 .08898926 .60227969V.57128909C.10899353 .57128909 .16799927 .57128909 .21998596 .5972748V.07902527C.21998596 .042999269 .21699524 .0309906 .1269989 .0309906H.09498596V0C.12998963 .0029907227 .21699524 .0029907227 .25698854 .0029907227 .29699708 .0029907227 .38398744 .0029907227 .4189911 0Z"/>
<path id="font_3_101" d="M.45700074 .2036438C.45700074 .33070375 .36799623 .4267578 .25698854 .4267578 .18899536 .4267578 .1519928 .37573243 .13198853 .327713V.35173036C.13198853 .6047821 .2559967 .64100649 .30699159 .64100649 .33099366 .64100649 .37298585 .634964 .394989 .6007538 .37998963 .6007538 .33999635 .6007538 .33999635 .5557556 .33999635 .524765 .3639984 .5097656 .38598634 .5097656 .4019928 .5097656 .43199159 .51875308 .43199159 .5577545 .43199159 .6178589 .3880005 .6660156 .30499269 .6660156 .1769867 .6660156 .041992189 .5367584 .041992189 .31570436 .041992189 .048553468 .1579895-.022460938 .25099183-.022460938 .3619995-.022460938 .45700074 .07156372 .45700074 .2036438M.36698915 .20463562C.36698915 .15661621 .36698915 .10658264 .34999085 .0705719 .31999208 .010528564 .27398683 .0055389406 .25099183 .0055389406 .18798828 .0055389406 .1579895 .06556702 .1519928 .080566409 .13398743 .127594 .13398743 .2076416 .13398743 .22564698 .13398743 .30369569 .1659851 .40374757 .2559967 .40374757 .27198792 .40374757 .31799317 .40374757 .34899903 .34172059 .36698915 .30470277 .36698915 .2536621 .36698915 .20463562Z"/>
<path id="font_4_5" d="M.13198853 .327713V.35173036C.13198853 .6047821 .2559967 .64100649 .30699159 .64100649 .33099366 .64100649 .37298585 .634964 .394989 .6007538 .37998963 .6007538 .33999635 .6007538 .33999635 .5557556 .33999635 .524765 .3639984 .5097656 .38598634 .5097656 .4019928 .5097656 .43199159 .51875308 .43199159 .5577545 .43199159 .6178589 .3880005 .6660156 .30499269 .6660156 .1769867 .6660156 .041992189 .5367584 .041992189 .31570436 .041992189 .048553468 .1579895-.022460938 .25099183-.022460938 .3619995-.022460938 .45700074 .07156372 .45700074 .2036438 .45700074 .33070375 .36799623 .4267578 .25698854 .4267578 .18899536 .4267578 .1519928 .37573243 .13198853 .327713M.25099183 .0055389406C.18798828 .0055389406 .1579895 .06556702 .1519928 .080566409 .13398743 .127594 .13398743 .2076416 .13398743 .22564698 .13398743 .30369569 .1659851 .40374757 .2559967 .40374757 .27198792 .40374757 .31799317 .40374757 .34899903 .34172059 .36698915 .30470277 .36698915 .2536621 .36698915 .20463562 .36698915 .15661621 .36698915 .10658264 .34999085 .0705719 .31999208 .010528564 .27398683 .0055389406 .25099183 .0055389406Z"/>
<path id="font_4_1" d="M.45999146 .31976319C.45999146 .39982606 .45498658 .47988893 .41999818 .5539398 .37399293 .65000918 .2919922 .6660156 .25 .6660156 .18998719 .6660156 .116989139 .64001467 .07598877 .54693606 .04399109 .47789 .038986207 .39982606 .038986207 .31976319 .038986207 .24472046 .042999269 .15464783 .083999637 .07859802 .1269989-.0024719239 .19999695-.022460938 .24899292-.022460938 .30299378-.022460938 .3789978-.0014648438 .4229889 .09359741 .45498658 .16265869 .45999146 .2407074 .45999146 .31976319M.24899292-.00047302247C.20999146-.00047302247 .15098572 .024551392 .1329956 .12062073 .12199402 .18066406 .12199402 .2727356 .12199402 .3317871 .12199402 .39582826 .12199402 .46188355 .12998963 .5159149 .14898682 .63500979 .22399903 .64401248 .24899292 .64401248 .28199769 .64401248 .34799195 .6259918 .36698915 .52693179 .3769989 .47088624 .3769989 .39482118 .3769989 .3317871 .3769989 .25672914 .3769989 .18867493 .3659973 .12461853 .35099793 .029556275 .2939911-.00047302247 .24899292-.00047302247Z"/>
<path id="font_5_1" d="M.5069885 .24998474C.5069885 .3710022 .4099884 .4650116 .2919922 .4650116 .17199707 .4650116 .07699585 .36799623 .07699585 .25097657 .07699585 .1299591 .17399597 .035949708 .2919922 .035949708 .4119873 .035949708 .5069885 .13296509 .5069885 .24998474M.2919922 .08496094C.19799805 .08496094 .12599182 .16096497 .12599182 .24998474 .12599182 .34300233 .19999695 .41601563 .2919922 .41601563 .38598634 .41601563 .45799256 .33999635 .45799256 .25097657 .45799256 .15795899 .38398744 .08496094 .2919922 .08496094Z"/>
<path id="font_4_3" d="M.2939911 .16503906V.07800293C.2939911 .041992189 .2919922 .0309906 .21798706 .0309906H.19699097V0C.23799134 .0029907227 .2899933 .0029907227 .33198548 .0029907227 .37399293 .0029907227 .4269867 .0029907227 .46798707 0V.0309906H.44699098C.37298585 .0309906 .37098695 .041992189 .37098695 .07800293V.16503906H.47099305V.19602967H.37098695V.65075686C.37098695 .67074587 .37098695 .6767578 .35499574 .6767578 .34599305 .6767578 .34298707 .6767578 .33499146 .66474917L.027999878 .19602967V.16503906H.2939911M.2999878 .19602967H.055999757L.2999878 .5688019V.19602967Z"/>
<path id="font_4_4" d="M.44898988 .20022583C.44898988 .3193512 .36698915 .41944886 .25898744 .41944886 .21099854 .41944886 .16799927 .40345765 .13198853 .36842347V.5637665C.1519928 .5577698 .18499756 .55078127 .21699524 .55078127 .33999635 .55078127 .4099884 .6417694 .4099884 .6547699 .4099884 .6607666 .40699769 .6657715 .3999939 .6657715 .39898683 .6657715 .39698792 .6657715 .3919983 .66278079 .37199403 .6537781 .32299806 .6337738 .2559967 .6337738 .21598816 .6337738 .16999817 .6407776 .12298584 .6617737 .114990238 .66477969 .11299133 .66477969 .11099243 .66477969 .100997928 .66477969 .100997928 .6567688 .100997928 .6407776V.34439088C.100997928 .32637025 .100997928 .31835938 .114990238 .31835938 .12199402 .31835938 .12399292 .32136537 .12799073 .32736207 .13899231 .3433838 .17599488 .39746095 .25698854 .39746095 .30899049 .39746095 .33399964 .35139466 .34199525 .33337403 .35798646 .29632569 .3600006 .25727845 .3600006 .20722962 .3600006 .17222595 .3600006 .11222839 .33599855 .07035828 .31199647 .031463624 .2749939 .0055389406 .22898865 .0055389406 .1559906 .0055389406 .09899902 .058380128 .08198547 .11723328 .084991458 .1162262 .08799744 .115234378 .09899902 .115234378 .13198853 .115234378 .14898682 .14022827 .14898682 .16423035 .14898682 .18823242 .13198853 .21322632 .09899902 .21322632 .084991458 .21322632 .049987794 .20622254 .049987794 .16023255 .049987794 .07434082 .11898804-.022460938 .23098755-.022460938 .34700013-.022460938 .44898988 .073349 .44898988 .20022583Z"/>
<path id="font_4_2" d="M.2899933 .35191346C.37199403 .37893678 .42999269 .4490509 .42999269 .52809146 .42999269 .6100464 .34199525 .6660156 .24598694 .6660156 .14498902 .6660156 .068984989 .60606387 .068984989 .53009036 .068984989 .49710084 .09098816 .47808839 .11999512 .47808839 .15098572 .47808839 .17098999 .50009158 .17098999 .5290985 .17098999 .57910159 .12399292 .57910159 .10899353 .57910159 .13999939 .62802127 .20599365 .64100649 .24198914 .64100649 .2829895 .64100649 .33799745 .6190338 .33799745 .5290985 .33799745 .51708987 .33599855 .45906068 .30999757 .4149933 .27999879 .36691285 .24598694 .36390687 .22099304 .36291505 .21299744 .36190797 .18899536 .35990907 .18199158 .35990907 .17399597 .35890199 .16699219 .35791017 .16699219 .3479004 .16699219 .33691407 .17399597 .33691407 .19099427 .33691407H.23498535C.31698609 .33691407 .35398866 .2686615 .35398866 .17037964 .35398866 .034469606 .2849884 .0055389406 .24099732 .0055389406 .19799805 .0055389406 .12298584 .022491456 .08799744 .08137512 .12298584 .07637024 .1539917 .09837341 .1539917 .1363678 .1539917 .17237854 .1269989 .19238281 .09799194 .19238281 .07398987 .19238281 .041992189 .17837525 .041992189 .1343689 .041992189 .043441774 .1349945-.022460938 .24398804-.022460938 .3659973-.022460938 .45700074 .06838989 .45700074 .17037964 .45700074 .252594 .3939972 .33088685 .2899933 .35191346Z"/>
</defs>
<path transform="matrix(1.00005,0,0,-1,2.0961533,83.437)" stroke-width=".3985" stroke-linecap="butt" stroke-miterlimit="10" stroke-linejoin="miter" fill="none" stroke="#00aeef" d="M0 0H122.4584M0 10.20485H122.4584M0 20.40973H122.4584M0 30.6146H122.4584M0 40.81946H122.4584M0 51.02432H122.4584M0 61.2292H122.4584M0 71.43407H122.4584M0 81.63535H122.4584M0 0V81.63893M10.20485 0V81.63893M20.40973 0V81.63893M30.6146 0V81.63893M40.81946 0V81.63893M51.02432 0V81.63893M61.2292 0V81.63893M71.43407 0V81.63893M81.63893 0V81.63893M91.84381 0V81.63893M102.04868 0V81.63893M112.25354 0V81.63893M122.45483 0V81.63893M122.4584 81.63893"/>
<path transform="matrix(1.00005,0,0,-1,2.0961533,83.437)" stroke-width="1.19553" stroke-linecap="butt" stroke-miterlimit="10" stroke-linejoin="miter" fill="none" stroke="#ff0000" d="M61.23149 40.821H12.07823"/>
<path transform="matrix(-1.00005,-0,0,1,14.174987,42.615999)" d="M1.27522 0C-.31879 .31879-1.91284 .9564-3.8257 2.07224-1.91284 .6376-1.91284-.6376-3.8257-2.07224-1.91284-.9564-.31879-.31879 1.27522 0Z" fill="#ff0000"/>
<path transform="matrix(-1.00005,-0,0,1,14.174987,42.615999)" stroke-width="1.19553" stroke-linecap="butt" stroke-linejoin="round" fill="none" stroke="#ff0000" d="M1.27522 0C-.31879 .31879-1.91284 .9564-3.8257 2.07224-1.91284 .6376-1.91284-.6376-3.8257-2.07224-1.91284-.9564-.31879-.31879 1.27522 0Z"/>
<path transform="matrix(1.00005,0,0,-1,2.0961533,83.437)" d="M6.35657 26.97278H18.03903V35.24185H6.35657Z" fill="#ffffff"/>
<use data-text="F" xlink:href="#font_1_54" transform="matrix(9.963098,0,0,-9.9626,8.453468,54.969999)" fill="#ff0000"/>
<use data-text="1" xlink:href="#font_2_1" transform="matrix(6.9741489,0,0,-6.9738,15.666824,56.465)" fill="#ff0000"/>
<path transform="matrix(1.00005,0,0,-1,2.0961533,83.437)" stroke-width="1.19553" stroke-linecap="butt" stroke-miterlimit="10" stroke-linejoin="miter" fill="none" stroke="#ff0000" d="M61.23149 40.821 41.75749 7.0909"/>
<path transform="matrix(-.500025,.86601,.8660533,.5,43.85574,76.346088)" d="M1.27522 0C-.31879 .31879-1.91284 .9564-3.8257 2.07224-1.91284 .6376-1.91284-.6376-3.8257-2.07224-1.91284-.9564-.31879-.31879 1.27522 0Z" fill="#ff0000"/>
<path transform="matrix(-.500025,.86601,.8660533,.5,43.85574,76.346088)" stroke-width="1.19553" stroke-linecap="butt" stroke-linejoin="round" fill="none" stroke="#ff0000" d="M1.27522 0C-.31879 .31879-1.91284 .9564-3.8257 2.07224-1.91284 .6376-1.91284-.6376-3.8257-2.07224-1.91284-.9564-.31879-.31879 1.27522 0Z"/>
<path transform="matrix(1.00005,0,0,-1,2.0961533,83.437)" d="M26.54822 8.05919H38.23068V16.328259H26.54822Z" fill="#ffffff"/>
<use data-text="F" xlink:href="#font_1_54" transform="matrix(9.963098,0,0,-9.9626,28.645478,73.882999)" fill="#ff0000"/>
<use data-text="2" xlink:href="#font_2_2" transform="matrix(6.9741489,0,0,-6.9738,35.858835,75.378)" fill="#ff0000"/>
<path transform="matrix(1.00005,0,0,-1,2.0961533,83.437)" stroke-width="1.19553" stroke-linecap="butt" stroke-miterlimit="10" stroke-linejoin="miter" fill="none" stroke="#ff0000" d="M61.23149 40.821 103.79964 16.24434"/>
<path transform="matrix(.8660533,.49998,.50000497,-.86601,105.90096,67.19266)" d="M1.27522 0C-.31879 .31879-1.91284 .9564-3.8257 2.07224-1.91284 .6376-1.91284-.6376-3.8257-2.07224-1.91284-.9564-.31879-.31879 1.27522 0Z" fill="#ff0000"/>
<path transform="matrix(.8660533,.49998,.50000497,-.86601,105.90096,67.19266)" stroke-width="1.19553" stroke-linecap="butt" stroke-linejoin="round" fill="none" stroke="#ff0000" d="M1.27522 0C-.31879 .31879-1.91284 .9564-3.8257 2.07224-1.91284 .6376-1.91284-.6376-3.8257-2.07224-1.91284-.9564-.31879-.31879 1.27522 0Z"/>
<path transform="matrix(1.00005,0,0,-1,2.0961533,83.437)" d="M108.01196 15.90564H119.69442V24.17471H108.01196Z" fill="#ffffff"/>
<use data-text="F" xlink:href="#font_1_54" transform="matrix(9.963098,0,0,-9.9626,110.11355,66.036998)" fill="#ff0000"/>
<use data-text="3" xlink:href="#font_2_3" transform="matrix(6.9741489,0,0,-6.9738,117.326908,67.532)" fill="#ff0000"/>
<path transform="matrix(1.00005,0,0,-1,2.0961533,83.437)" stroke-width="1.19553" stroke-linecap="butt" stroke-miterlimit="10" stroke-linejoin="miter" fill="none" stroke="#ff0000" d="M61.23149 40.821 81.55574 61.14522"/>
<path transform="matrix(.7071353,-.7071,-.7071353,-.7071,83.65596,22.291798)" d="M1.27522 0C-.31879 .31879-1.91284 .9564-3.8257 2.07224-1.91284 .6376-1.91284-.6376-3.8257-2.07224-1.91284-.9564-.31879-.31879 1.27522 0Z" fill="#ff0000"/>
<path transform="matrix(.7071353,-.7071,-.7071353,-.7071,83.65596,22.291798)" stroke-width="1.19553" stroke-linecap="butt" stroke-linejoin="round" fill="none" stroke="#ff0000" d="M1.27522 0C-.31879 .31879-1.91284 .9564-3.8257 2.07224-1.91284 .6376-1.91284-.6376-3.8257-2.07224-1.91284-.9564-.31879-.31879 1.27522 0Z"/>
<path transform="matrix(1.00005,0,0,-1,2.0961533,83.437)" d="M85.47044 65.05994H97.1529V73.32901H85.47044Z" fill="#ffffff"/>
<use data-text="F" xlink:href="#font_1_54" transform="matrix(9.963098,0,0,-9.9626,87.57043,16.882996)" fill="#ff0000"/>
<use data-text="4" xlink:href="#font_2_4" transform="matrix(6.9741489,0,0,-6.9738,94.78378,18.377999)" fill="#ff0000"/>
<path transform="matrix(1.00005,0,0,-1,2.0961533,83.437)" d="M27.24867 41.49843H44.18537V50.345338H27.24867Z" fill="#ffffff"/>
<use data-text="2" xlink:href="#font_3_107" transform="matrix(9.963098,0,0,-9.9626,30.342568,40.722997)"/>
<use data-text="0" xlink:href="#font_3_121" transform="matrix(9.963098,0,0,-9.9626,35.32412,40.722997)"/>
<use data-text="0" xlink:href="#font_3_121" transform="matrix(9.963098,0,0,-9.9626,40.305665,40.722997)"/>
<path transform="matrix(1.00005,0,0,-1,2.0961533,83.437)" d="M49.69936 9.86328H66.63606V18.71019H49.69936Z" fill="#ffffff"/>
<use data-text="1" xlink:href="#font_3_82" transform="matrix(9.963098,0,0,-9.9626,52.794687,72.357997)"/>
<use data-text="6" xlink:href="#font_3_101" transform="matrix(9.963098,0,0,-9.9626,57.776239,72.357997)"/>
<use data-text="0" xlink:href="#font_3_121" transform="matrix(9.963098,0,0,-9.9626,62.757783,72.357997)"/>
<path transform="matrix(1.00005,0,0,-1,2.0961533,83.437)" d="M67.0476 19.04774H83.9843V27.894652H67.0476Z" fill="#ffffff"/>
<use data-text="2" xlink:href="#font_3_107" transform="matrix(9.963098,0,0,-9.9626,70.14355,63.173997)"/>
<use data-text="0" xlink:href="#font_3_121" transform="matrix(9.963098,0,0,-9.9626,75.1251,63.173997)"/>
<use data-text="0" xlink:href="#font_3_121" transform="matrix(9.963098,0,0,-9.9626,80.10664,63.173997)"/>
<path transform="matrix(1.00005,0,0,-1,2.0961533,83.437)" d="M52.76085 50.68275H69.69755V59.529664H52.76085Z" fill="#ffffff"/>
<use data-text="1" xlink:href="#font_3_82" transform="matrix(9.963098,0,0,-9.9626,55.85584,31.538998)"/>
<use data-text="2" xlink:href="#font_3_107" transform="matrix(9.963098,0,0,-9.9626,60.83739,31.538998)"/>
<use data-text="0" xlink:href="#font_3_121" transform="matrix(9.963098,0,0,-9.9626,65.81894,31.538998)"/>
<path transform="matrix(1.00005,0,0,-1,2.0961533,83.437)" stroke-width=".3985" stroke-linecap="butt" stroke-miterlimit="10" stroke-linejoin="miter" fill="none" stroke="#929292" d="M51.02432 40.81946C51.02432 37.17406 52.96983 33.8044 56.12675 31.98178"/>
<path transform="matrix(1.00005,0,0,-1,2.0961533,83.437)" d="M34.6605 30.29436H49.203409V37.154569H34.6605Z" fill="#ffffff"/>
<use data-text="6" xlink:href="#font_4_5" transform="matrix(9.963098,0,0,-9.9626,36.757886,53.142999)"/>
<use data-text="0" xlink:href="#font_4_1" transform="matrix(9.963098,0,0,-9.9626,41.739439,53.142999)"/>
<use data-text="&#x25e6;" xlink:href="#font_5_1" transform="matrix(6.9741489,0,0,-6.9738,46.72138,49.527994)"/>
<path transform="matrix(1.00005,0,0,-1,2.0961533,83.437)" stroke-width=".79701" stroke-linecap="butt" stroke-miterlimit="10" stroke-linejoin="miter" fill="none" stroke="#929292" d="M61.23149 40.821H81.64124"/>
<path transform="matrix(1.00005,0,0,-1,2.0961533,83.437)" stroke-width=".3985" stroke-linecap="butt" stroke-miterlimit="10" stroke-linejoin="miter" fill="none" stroke="#929292" d="M70.41351 40.81946C70.41351 43.25484 69.44554 45.5917 67.7235 47.31375"/>
<path transform="matrix(1.00005,0,0,-1,2.0961533,83.437)" d="M73.89842 42.89638H88.44133V49.75659H73.89842Z" fill="#ffffff"/>
<use data-text="4" xlink:href="#font_4_3" transform="matrix(9.963098,0,0,-9.9626,75.99785,40.540998)"/>
<use data-text="5" xlink:href="#font_4_4" transform="matrix(9.963098,0,0,-9.9626,80.9794,40.540998)"/>
<use data-text="&#x25e6;" xlink:href="#font_5_1" transform="matrix(6.9741489,0,0,-6.9738,85.96134,36.925996)"/>
<path transform="matrix(1.00005,0,0,-1,2.0961533,83.437)" stroke-width=".3985" stroke-linecap="butt" stroke-miterlimit="10" stroke-linejoin="miter" fill="none" stroke="#929292" d="M79.59799 40.81946C79.59799 37.59592 78.74872 34.42671 77.13708 31.63509"/>
<path transform="matrix(1.00005,0,0,-1,2.0961533,83.437)" d="M84.15274 31.63887H98.69565V38.49908H84.15274Z" fill="#ffffff"/>
<use data-text="3" xlink:href="#font_4_2" transform="matrix(9.963098,0,0,-9.9626,86.25336,51.797998)"/>
<use data-text="0" xlink:href="#font_4_1" transform="matrix(9.963098,0,0,-9.9626,91.23491,51.797998)"/>
<use data-text="&#x25e6;" xlink:href="#font_5_1" transform="matrix(6.9741489,0,0,-6.9738,96.21685,48.182996)"/>
</svg>
