<svg xmlns="http://www.w3.org/2000/svg" xmlns:xlink="http://www.w3.org/1999/xlink" version="1.1" width="55" height="93" viewBox="0 0 55 93">
<defs>
<path id="font_1_112" d="M.5799866 .3973236V.44433595C.5549927 .44232179 .526001 .44132997 .5009918 .44132997L.4099884 .44433595V.3973236C.42900086 .3973236 .45799256 .39431764 .45799256 .38632203 .45799256 .38632203 .45799256 .38432313 .45298768 .37431336L.33699037 .12416077 .20999146 .3973236H.2639923V.44433595L.13999939 .44132997 .025985718 .44433595V.3973236H.08999634L.2649994 .021102906C.2769928-.00390625 .2899933-.00390625 .30299378-.00390625 .31999208-.00390625 .32998658-.00091552737 .33999635 .020095826L.5059967 .37631227C.5119934 .39031983 .5159912 .3973236 .5799866 .3973236Z"/>
<path id="font_2_1" d="M.6589966 .23046875C.6759949 .23046875 .69400027 .23046875 .69400027 .25045777 .69400027 .27046205 .6759949 .27046205 .6589966 .27046205H.117996219C.100997928 .27046205 .08299255 .27046205 .08299255 .25045777 .08299255 .23046875 .100997928 .23046875 .117996219 .23046875H.6589966Z"/>
<path id="font_1_109" d="M.61499026 .0001373291V.0471344C.5529938 .0471344 .54599 .0471344 .54599 .086135867V.4501953L.36299134 .44218446V.39518739C.4249878 .39518739 .43199159 .39518739 .43199159 .3561859V.16514588C.43199159 .08314514 .3809967 .030136109 .30799867 .030136109 .23098755 .030136109 .22799683 .055130006 .22799683 .10914612V.4501953L.04499817 .44218446V.39518739C.10699463 .39518739 .11399841 .39518739 .11399841 .3561859V.12313843C.11399841 .01612854 .19499207-.005859375 .2939911-.005859375 .31999208-.005859375 .3919983-.005859375 .43798829 .072143558V-.005859375L.61499026 .0001373291Z"/>
<path id="font_1_42" d="M.7659912 .22724915C.7659912 .24725342 .7589874 .2482605 .74198916 .2482605 .72898867 .2482605 .7200012 .2482605 .71899417 .23124695 .71199038 .09724426 .59098818 .036254884 .48999024 .036254884 .4119873 .036254884 .32798768 .060256959 .27598573 .12124634 .22898865 .17825318 .21699524 .25325013 .21699524 .34326173 .21699524 .39926148 .21998596 .5072632 .2829895 .57325747 .34799195 .63926699 .43499757 .6502533 .4869995 .6502533 .59498599 .6502533 .6899872 .5742645 .71199038 .44725038 .71499636 .42825318 .71598818 .42625428 .7389984 .42625428 .7649994 .42625428 .7659912 .42825318 .7659912 .45425416V.6692505C.7659912 .68826296 .7659912 .6972656 .7480011 .6972656 .7389984 .6972656 .7369995 .69525149 .72898867 .68826296L.6629944 .6292572C.6009979 .67926028 .5339966 .6972656 .46598817 .6972656 .21699524 .6972656 .06399536 .54826357 .06399536 .34326173 .06399536 .13824463 .21699524-.0107421879 .46598817-.0107421879 .6529999-.0107421879 .7659912 .11225891 .7659912 .22724915Z"/>
</defs>
<path transform="matrix(1.00002,0,0,-1.00002,2.095665,91.09051)" stroke-width=".3985" stroke-linecap="butt" stroke-miterlimit="10" stroke-linejoin="miter" fill="none" stroke="#00aeef" d="M0 0H51.0239M0 12.75595H51.0239M0 25.51193H51.0239M0 38.26791H51.0239M0 51.0239H51.0239M0 63.77988H51.0239M0 76.53586H51.0239M0 89.28735H51.0239M0 0V89.29184M12.75595 0V89.29184M25.51193 0V89.29184M38.26791 0V89.29184M51.01941 0V89.29184M51.0239 89.29184"/>
<path transform="matrix(1.00002,0,0,-1.00002,2.095665,91.09051)" stroke-width=".79701" stroke-linecap="butt" stroke-miterlimit="10" stroke-linejoin="miter" fill="none" stroke="#cbcbcb" d="M25.51193 63.77988 37.8143 26.87276"/>
<path transform="matrix(.31621633,.948659,.948659,-.31621633,39.910715,64.21721)" d="M1.0361 0C-.25902 .25902-1.55415 .77707-3.1083 1.68365-1.55415 .51805-1.55415-.51805-3.1083-1.68365-1.55415-.77707-.25902-.25902 1.0361 0Z" fill="#cbcbcb"/>
<path transform="matrix(.31621633,.948659,.948659,-.31621633,39.910715,64.21721)" stroke-width=".79701" stroke-linecap="butt" stroke-linejoin="round" fill="none" stroke="#cbcbcb" d="M1.0361 0C-.25902 .25902-1.55415 .77707-3.1083 1.68365-1.55415 .51805-1.55415-.51805-3.1083-1.68365-1.55415-.77707-.25902-.25902 1.0361 0Z"/>
<path transform="matrix(1.00002,0,0,-1.00002,2.095665,91.09051)" d="M35.27728 42.41422H41.32468V46.87751H35.27728Z" fill="#ffffff"/>
<use data-text="v" xlink:href="#font_1_112" transform="matrix(9.962799,0,0,-9.962799,37.37337,48.63566)"/>
<path transform="matrix(1.00002,0,0,-1.00002,2.095665,91.09051)" stroke-width=".79701" stroke-linecap="butt" stroke-miterlimit="10" stroke-linejoin="miter" fill="none" stroke="#cbcbcb" d="M38.26791 25.51193 14.03896 13.39745"/>
<path transform="matrix(-.89437797,.44717894,.44717894,.89437797,16.134907,77.69279)" d="M1.0361 0C-.25902 .25902-1.55415 .77707-3.1083 1.68365-1.55415 .51805-1.55415-.51805-3.1083-1.68365-1.55415-.77707-.25902-.25902 1.0361 0Z" fill="#cbcbcb"/>
<path transform="matrix(-.89437797,.44717894,.44717894,.89437797,16.134907,77.69279)" stroke-width=".79701" stroke-linecap="butt" stroke-linejoin="round" fill="none" stroke="#cbcbcb" d="M1.0361 0C-.25902 .25902-1.55415 .77707-3.1083 1.68365-1.55415 .51805-1.55415-.51805-3.1083-1.68365-1.55415-.77707-.25902-.25902 1.0361 0Z"/>
<path transform="matrix(1.00002,0,0,-1.00002,2.095665,91.09051)" d="M25.91042 12.09361H40.02546V18.73544H25.91042Z" fill="#ffffff"/>
<use data-text="&#x2212;" xlink:href="#font_2_1" transform="matrix(9.962799,0,0,-9.962799,28.006184,78.16625)"/>
<use data-text="u" xlink:href="#font_1_109" transform="matrix(9.962799,0,0,-9.962799,35.755338,78.16625)"/>
<path transform="matrix(1.00002,0,0,-1.00002,2.095665,91.09051)" stroke-width="1.19553" stroke-linecap="butt" stroke-miterlimit="10" stroke-linejoin="miter" fill="none" stroke="#ff0000" d="M25.51193 63.77988 13.21008 14.57272"/>
<path transform="matrix(-.24251487,.9701594,.9701594,.24251487,15.306029,76.51748)" d="M1.27522 0C-.31879 .31879-1.91284 .9564-3.8257 2.07224-1.91284 .6376-1.91284-.6376-3.8257-2.07224-1.91284-.9564-.31879-.31879 1.27522 0Z" fill="#ff0000"/>
<path transform="matrix(-.24251487,.9701594,.9701594,.24251487,15.306029,76.51748)" stroke-width="1.19553" stroke-linecap="butt" stroke-linejoin="round" fill="none" stroke="#ff0000" d="M1.27522 0C-.31879 .31879-1.91284 .9564-3.8257 2.07224-1.91284 .6376-1.91284-.6376-3.8257-2.07224-1.91284-.9564-.31879-.31879 1.27522 0Z"/>
<path transform="matrix(1.00002,0,0,-1.00002,2.095665,91.09051)" d="M4.63124 1.11919H14.90284V10.16536H4.63124Z" fill="#ffffff"/>
<use data-text="C" xlink:href="#font_1_42" transform="matrix(9.962799,0,0,-9.962799,7.723778,88.86546)" fill="#ff0000"/>
</svg>
