<svg xmlns="http://www.w3.org/2000/svg" xmlns:xlink="http://www.w3.org/1999/xlink" version="1.1" width="75pt" height="60pt" viewBox="0 0 75 60">
<defs>
<path id="font_1_114" d="M.8049927 .3973236V.44433595C.7819977 .44232179 .7519989 .44132997 .7279968 .44132997L.6319885 .44433595V.3973236C.6409912 .3973236 .6899872 .3963318 .6899872 .3853302 .6899872 .38232423 .68699648 .3763275 .6859894 .37332154L.58099368 .11732483 .46699525 .3973236H.522995V.44433595L.40899659 .44132997C.36698915 .44132997 .32499696 .44332887 .30899049 .44433595V.3973236H.36799623C.3889923 .34732057 .3889923 .34432984 .3889923 .34432984 .3889923 .34033204 .38598634 .33433534 .3849945 .33132936L.30599977 .139328 .20098877 .3973236H.25698854V.44433595L.13398743 .44132997 .024993897 .44433595V.3973236H.083999637L.23699951 .023101807C.24398804 .006088257 .24798584-.00390625 .272995-.00390625 .2979889-.00390625 .3019867 .006088257 .30899049 .023101807L.4149933 .28208924 .5209961 .023086548C.5279999 .006088257 .5319977-.00390625 .5569916-.00390625 .58200076-.00390625 .58599856 .006088257 .59298709 .023086548L.7369995 .37608338C.74198916 .389328 .74598696 .3973236 .8049927 .3973236Z"/>
</defs>
<path transform="matrix(1.00005,0,0,-1,2.0961533,58.492)" stroke-width=".3985" stroke-linecap="butt" stroke-miterlimit="10" stroke-linejoin="miter" fill="none" stroke="#00aeef" d="M0 0H70.867M0 7.08669H70.867M0 14.17339H70.867M0 21.2601H70.867M0 28.3468H70.867M0 35.43349H70.867M0 42.5202H70.867M0 49.6069H70.867M0 56.69112H70.867M0 0V56.69362M7.08669 0V56.69362M14.17339 0V56.69362M21.2601 0V56.69362M28.3468 0V56.69362M35.43349 0V56.69362M42.5202 0V56.69362M49.6069 0V56.69362M56.69362 0V56.69362M63.7803 0V56.69362M70.86452 0V56.69362M70.867 56.69362"/>
<path transform="matrix(1.00005,0,0,-1,2.0961533,58.492)" stroke-width=".79701" stroke-linecap="butt" stroke-miterlimit="10" stroke-linejoin="miter" fill="none" stroke="#ff0000" d="M21.2601 49.6069 8.1011 36.44792"/>
<path transform="matrix(-.7071353,.7071,.7071353,.7071,10.197678,22.04406)" d="M1.0361 0C-.25902 .25902-1.55415 .77707-3.1083 1.68365-1.55415 .51805-1.55415-.51805-3.1083-1.68365-1.55415-.77707-.25902-.25902 1.0361 0Z" fill="#ff0000"/>
<path transform="matrix(-.7071353,.7071,.7071353,.7071,10.197678,22.04406)" stroke-width=".79701" stroke-linecap="butt" stroke-linejoin="round" fill="none" stroke="#ff0000" d="M1.0361 0C-.25902 .25902-1.55415 .77707-3.1083 1.68365-1.55415 .51805-1.55415-.51805-3.1083-1.68365-1.55415-.77707-.25902-.25902 1.0361 0Z"/>
<path transform="matrix(1.00005,0,0,-1,2.0961533,58.492)" d="M3.94345 43.80223H14.21505V50.25807H3.94345Z" fill="#ffffff"/>
<use data-text="w" xlink:href="#font_1_114" transform="matrix(9.963098,0,0,-9.9626,7.0364,13.653999)" fill="#ff0000"/>
</svg>
