<svg xmlns="http://www.w3.org/2000/svg" xmlns:xlink="http://www.w3.org/1999/xlink" version="1.1" width="63pt" height="55pt" viewBox="0 0 63 55">
<defs>
<path id="font_1_54" d="M.6749878 .4391327 .6439972 .6798096H.038986207V.6328125H.14698792V.04699707H.038986207V0C.07699585 .0029907227 .17799378 .0029907227 .22200012 .0029907227 .2709961 .0029907227 .37998963 .0029907227 .42399598 0V.04699707H.2889862V.31724549H.33898927C.43499757 .31724549 .44400025 .2742157 .44400025 .20013428H.4909973V.48106385H.44400025C.44400025 .4071808 .43598939 .3642578 .33898927 .3642578H.2889862V.6328125H.42900086C.58999636 .6328125 .61299136 .5559387 .6279907 .4391327H.6749878Z"/>
<path id="font_1_114" d="M.8049927 .3973236V.44433595C.7819977 .44232179 .7519989 .44132997 .7279968 .44132997L.6319885 .44433595V.3973236C.6409912 .3973236 .6899872 .3963318 .6899872 .3853302 .6899872 .38232423 .68699648 .3763275 .6859894 .37332154L.58099368 .11732483 .46699525 .3973236H.522995V.44433595L.40899659 .44132997C.36698915 .44132997 .32499696 .44332887 .30899049 .44433595V.3973236H.36799623C.3889923 .34732057 .3889923 .34432984 .3889923 .34432984 .3889923 .34033204 .38598634 .33433534 .3849945 .33132936L.30599977 .139328 .20098877 .3973236H.25698854V.44433595L.13398743 .44132997 .024993897 .44433595V.3973236H.083999637L.23699951 .023101807C.24398804 .006088257 .24798584-.00390625 .272995-.00390625 .2979889-.00390625 .3019867 .006088257 .30899049 .023101807L.4149933 .28208924 .5209961 .023086548C.5279999 .006088257 .5319977-.00390625 .5569916-.00390625 .58200076-.00390625 .58599856 .006088257 .59298709 .023086548L.7369995 .37608338C.74198916 .389328 .74598696 .3973236 .8049927 .3973236Z"/>
</defs>
<path transform="matrix(1.00009,0,0,-1.00003,2.0964738,52.825109)" stroke-width=".3985" stroke-linecap="butt" stroke-miterlimit="10" stroke-linejoin="miter" fill="none" stroke="#00aeef" d="M0 0H59.52888M0 8.50412H59.52888M0 17.00824H59.52888M0 25.51237H59.52888M0 34.0165H59.52888M0 42.52063H59.52888M0 51.02177H59.52888M0 0V51.02477M8.50412 0V51.02477M17.00824 0V51.02477M25.51237 0V51.02477M34.0165 0V51.02477M42.52063 0V51.02477M51.02477 0V51.02477M59.52591 0V51.02477M59.52888 51.02477"/>
<path transform="matrix(1.00009,0,0,-1.00003,2.0964738,52.825109)" stroke-width=".79701" stroke-linecap="butt" stroke-miterlimit="10" stroke-linejoin="miter" fill="none" stroke="#ff0000" d="M17.00824 8.50412 41.32759 24.71704"/>
<path transform="matrix(.83209487,-.5546767,-.55471,-.83204498,43.427785,28.107336)" d="M1.0361 0C-.25902 .25902-1.55415 .77707-3.1083 1.68365-1.55415 .51805-1.55415-.51805-3.1083-1.68365-1.55415-.77707-.25902-.25902 1.0361 0Z" fill="#ff0000"/>
<path transform="matrix(.83209487,-.5546767,-.55471,-.83204498,43.427785,28.107336)" stroke-width=".79701" stroke-linecap="butt" stroke-linejoin="round" fill="none" stroke="#ff0000" d="M1.0361 0C-.25902 .25902-1.55415 .77707-3.1083 1.68365-1.55415 .51805-1.55415-.51805-3.1083-1.68365-1.55415-.77707-.25902-.25902 1.0361 0Z"/>
<path transform="matrix(1.00009,0,0,-1.00003,2.0964738,52.825109)" d="M34.92958 7.38052H44.135164V16.14773H34.92958Z" fill="#ffffff"/>
<use data-text="F" xlink:href="#font_1_54" transform="matrix(9.963496,0,0,-9.962899,38.025709,44.447858)" fill="#ff0000"/>
<path transform="matrix(1.00009,0,0,-1.00003,2.0964738,52.825109)" stroke-width=".79701" stroke-linecap="butt" stroke-miterlimit="10" stroke-linejoin="miter" fill="none" stroke="#ff0000" d="M42.52063 42.52063H26.94662"/>
<path transform="matrix(-1.00009,-0,0,1.00003,29.04552,10.3032)" d="M1.0361 0C-.25902 .25902-1.55415 .77707-3.1083 1.68365-1.55415 .51805-1.55415-.51805-3.1083-1.68365-1.55415-.77707-.25902-.25902 1.0361 0Z" fill="#ff0000"/>
<path transform="matrix(-1.00009,-0,0,1.00003,29.04552,10.3032)" stroke-width=".79701" stroke-linecap="butt" stroke-linejoin="round" fill="none" stroke="#ff0000" d="M1.0361 0C-.25902 .25902-1.55415 .77707-3.1083 1.68365-1.55415 .51805-1.55415-.51805-3.1083-1.68365-1.55415-.77707-.25902-.25902 1.0361 0Z"/>
<path transform="matrix(1.00009,0,0,-1.00003,2.0964738,52.825109)" d="M25.35759 28.69232H35.62919V35.14816H25.35759Z" fill="#ffffff"/>
<use data-text="w" xlink:href="#font_1_114" transform="matrix(9.963496,0,0,-9.962899,28.452847,23.096215)" fill="#ff0000"/>
</svg>
