<svg xmlns="http://www.w3.org/2000/svg" xmlns:xlink="http://www.w3.org/1999/xlink" version="1.1" width="63" height="63" viewBox="0 0 63 63">
<defs>
<path id="font_1_109" d="M.61499026 .0001373291V.0471344C.5529938 .0471344 .54599 .0471344 .54599 .086135867V.4501953L.36299134 .44218446V.39518739C.4249878 .39518739 .43199159 .39518739 .43199159 .3561859V.16514588C.43199159 .08314514 .3809967 .030136109 .30799867 .030136109 .23098755 .030136109 .22799683 .055130006 .22799683 .10914612V.4501953L.04499817 .44218446V.39518739C.10699463 .39518739 .11399841 .39518739 .11399841 .3561859V.12313843C.11399841 .01612854 .19499207-.005859375 .2939911-.005859375 .31999208-.005859375 .3919983-.005859375 .43798829 .072143558V-.005859375L.61499026 .0001373291Z"/>
<path id="font_1_112" d="M.5799866 .3973236V.44433595C.5549927 .44232179 .526001 .44132997 .5009918 .44132997L.4099884 .44433595V.3973236C.42900086 .3973236 .45799256 .39431764 .45799256 .38632203 .45799256 .38632203 .45799256 .38432313 .45298768 .37431336L.33699037 .12416077 .20999146 .3973236H.2639923V.44433595L.13999939 .44132997 .025985718 .44433595V.3973236H.08999634L.2649994 .021102906C.2769928-.00390625 .2899933-.00390625 .30299378-.00390625 .31999208-.00390625 .32998658-.00091552737 .33999635 .020095826L.5059967 .37631227C.5119934 .39031983 .5159912 .3973236 .5799866 .3973236Z"/>
</defs>
<path transform="matrix(1.00009,0,0,-1.00005,2.0964738,61.33027)" stroke-width=".3985" stroke-linecap="butt" stroke-miterlimit="10" stroke-linejoin="miter" fill="none" stroke="#00aeef" d="M0 0H59.52888M0 8.50412H59.52888M0 17.00824H59.52888M0 25.51237H59.52888M0 34.0165H59.52888M0 42.52063H59.52888M0 51.02477H59.52888M0 59.52591H59.52888M0 0V59.52888M8.50412 0V59.52888M17.00824 0V59.52888M25.51237 0V59.52888M34.0165 0V59.52888M42.52063 0V59.52888M51.02477 0V59.52888M59.52591 0V59.52888M59.52888 59.52888"/>
<path transform="matrix(1.00009,0,0,-1.00005,2.0964738,61.33027)" stroke-width="1.19553" stroke-linecap="butt" stroke-miterlimit="10" stroke-linejoin="miter" fill="none" stroke="#ff0000" d="M8.50412 17.00824 23.83762 24.67502"/>
<path transform="matrix(.8944405,-.4471923,-.44721023,-.89440467,25.93622,36.654039)" d="M1.27522 0C-.31879 .31879-1.91284 .9564-3.8257 2.07224-1.91284 .6376-1.91284-.6376-3.8257-2.07224-1.91284-.9564-.31879-.31879 1.27522 0Z" fill="#ff0000"/>
<path transform="matrix(.8944405,-.4471923,-.44721023,-.89440467,25.93622,36.654039)" stroke-width="1.19553" stroke-linecap="butt" stroke-linejoin="round" fill="none" stroke="#ff0000" d="M1.27522 0C-.31879 .31879-1.91284 .9564-3.8257 2.07224-1.91284 .6376-1.91284-.6376-3.8257-2.07224-1.91284-.9564-.31879-.31879 1.27522 0Z"/>
<path transform="matrix(1.00009,0,0,-1.00005,2.0964738,61.33027)" d="M16.35199 29.09915H24.71072V35.63469H16.35199Z" fill="#ffffff"/>
<use data-text="u" xlink:href="#font_1_109" transform="matrix(9.963496,0,0,-9.963098,19.446038,31.173762)" fill="#ff0000"/>
<path transform="matrix(1.00009,0,0,-1.00005,2.0964738,61.33027)" stroke-width="1.19553" stroke-linecap="butt" stroke-miterlimit="10" stroke-linejoin="miter" fill="none" stroke="#ff0000" d="M34.0165 34.0165 41.92856 10.28033"/>
<path transform="matrix(.31623847,.9486874,.94872537,-.3162258,44.028806,51.049428)" d="M1.27522 0C-.31879 .31879-1.91284 .9564-3.8257 2.07224-1.91284 .6376-1.91284-.6376-3.8257-2.07224-1.91284-.9564-.31879-.31879 1.27522 0Z" fill="#ff0000"/>
<path transform="matrix(.31623847,.9486874,.94872537,-.3162258,44.028806,51.049428)" stroke-width="1.19553" stroke-linecap="butt" stroke-linejoin="round" fill="none" stroke="#ff0000" d="M1.27522 0C-.31879 .31879-1.91284 .9564-3.8257 2.07224-1.91284 .6376-1.91284-.6376-3.8257-2.07224-1.91284-.9564-.31879-.31879 1.27522 0Z"/>
<path transform="matrix(1.00009,0,0,-1.00005,2.0964738,61.33027)" d="M47.10367 10.257H55.14362V16.712841H47.10367Z" fill="#ffffff"/>
<use data-text="v" xlink:href="#font_1_112" transform="matrix(9.963496,0,0,-9.963098,50.2008,50.036706)" fill="#ff0000"/>
</svg>
