<svg xmlns="http://www.w3.org/2000/svg" xmlns:xlink="http://www.w3.org/1999/xlink" version="1.1" width="39pt" height="74pt" viewBox="0 0 39 74">
<defs>
<path id="font_1_105" d="M.38198854 .124176029V.17721558H.33499146V.12619019C.33499146 .058151246 .30299378 .03413391 .2749939 .03413391 .21699524 .03413391 .21699524 .09817505 .21699524 .1211853V.3973236H.36299134V.44433595H.21699524V.6357422H.16999817C.16899109 .53552249 .11999512 .43632508 .020996094 .43333436V.3973236H.102996829V.123184207C.102996829 .01612854 .18998719-.005859375 .26098634-.005859375 .33699037-.005859375 .38198854 .05114746 .38198854 .124176029Z"/>
</defs>
<path transform="matrix(1.00006,0,0,-1,1.6470795,72.665)" stroke-width=".3985" stroke-linecap="butt" stroke-miterlimit="10" stroke-linejoin="miter" fill="none" stroke="#00aeef" d="M0 0H35.43349M0 7.08669H35.43349M0 14.17339H35.43349M0 21.2601H35.43349M0 28.3468H35.43349M0 35.43349H35.43349M0 42.5202H35.43349M0 49.6069H35.43349M0 56.69362H35.43349M0 63.7803H35.43349M0 70.86452H35.43349M0 0V70.867M7.08669 0V70.867M14.17339 0V70.867M21.2601 0V70.867M28.3468 0V70.867M35.43102 0V70.867M35.43349 70.867"/>
<path transform="matrix(1.00006,0,0,-1,1.6470795,72.665)" stroke-width=".79701" stroke-linecap="butt" stroke-miterlimit="10" stroke-linejoin="miter" fill="none" stroke="#ff0000" d="M7.08669 56.69362V62.34569"/>
<path transform="matrix(0,-1,-1.00006,-0,8.734194,10.319309)" d="M1.0361 0C-.25902 .25902-1.55415 .77707-3.1083 1.68365-1.55415 .51805-1.55415-.51805-3.1083-1.68365-1.55415-.77707-.25902-.25902 1.0361 0Z" fill="#ff0000"/>
<path transform="matrix(0,-1,-1.00006,-0,8.734194,10.319309)" stroke-width=".79701" stroke-linecap="butt" stroke-linejoin="round" fill="none" stroke="#ff0000" d="M1.0361 0C-.25902 .25902-1.55415 .77707-3.1083 1.68365-1.55415 .51805-1.55415-.51805-3.1083-1.68365-1.55415-.77707-.25902-.25902 1.0361 0Z"/>
<path transform="matrix(1.00006,0,0,-1,1.6470795,72.665)" d="M-1.75027 56.04762H4.69563V64.42627H-1.75027Z" fill="#ffffff"/>
<use data-text="t" xlink:href="#font_1_105" transform="matrix(9.963197,0,0,-9.9626,.8930359,15.561001)" fill="#ff0000"/>
</svg>
