<?xml version="1.0" encoding="UTF-8"?>
<svg xmlns="http://www.w3.org/2000/svg" xmlns:xlink="http://www.w3.org/1999/xlink" width="335pt" height="231pt" viewBox="0 0 335 231" version="1.1">
<g id="surface1">
<path style="fill:none;stroke-width:1.19553;stroke-linecap:butt;stroke-linejoin:miter;stroke:rgb(0%,0%,39.99939%);stroke-opacity:1;stroke-miterlimit:10;" d="M 28.346909 62.361237 C 28.346909 78.017018 15.655756 90.708043 -0.000180416 90.708043 C -15.656117 90.708043 -28.34727 78.017018 -28.34727 62.361237 C -28.34727 46.705457 -15.656117 34.014431 -0.000180416 34.014431 C 15.655756 34.014431 28.346909 46.705457 28.346909 62.361237 Z M 28.346909 62.361237 " transform="matrix(1.00002,0,0,-1.00003,149.898618,228.976389)"/>
<path style="fill:none;stroke-width:1.19553;stroke-linecap:butt;stroke-linejoin:miter;stroke:rgb(0%,0%,39.99939%);stroke-opacity:1;stroke-miterlimit:10;" d="M -11.339797 68.032942 C -11.339797 105.606034 -41.796219 136.066057 -79.369687 136.066057 C -116.943154 136.066057 -147.403482 105.606034 -147.403482 68.032942 C -147.403482 30.45985 -116.943154 -0.000173215 -79.369687 -0.000173215 C -41.796219 -0.000173215 -11.339797 30.45985 -11.339797 68.032942 Z M -11.339797 68.032942 " transform="matrix(1.00002,0,0,-1.00003,149.898618,228.976389)"/>
<path style="fill:none;stroke-width:1.19553;stroke-linecap:butt;stroke-linejoin:miter;stroke:rgb(0%,0%,39.99939%);stroke-opacity:1;stroke-miterlimit:10;" d="M -79.369687 68.032942 L -0.000180416 62.361237 " transform="matrix(1.00002,0,0,-1.00003,149.898618,228.976389)"/>
<path style="fill:none;stroke-width:1.19553;stroke-linecap:butt;stroke-linejoin:miter;stroke:rgb(0%,0%,39.99939%);stroke-opacity:1;stroke-miterlimit:10;" d="M 175.750211 68.032942 C 175.750211 105.606034 145.289883 136.066057 107.716415 136.066057 C 70.142948 136.066057 39.686526 105.606034 39.686526 68.032942 C 39.686526 30.45985 70.142948 -0.000173215 107.716415 -0.000173215 C 145.289883 -0.000173215 175.750211 30.45985 175.750211 68.032942 Z M 175.750211 68.032942 " transform="matrix(1.00002,0,0,-1.00003,149.898618,228.976389)"/>
<path style="fill:none;stroke-width:1.19553;stroke-linecap:butt;stroke-linejoin:miter;stroke:rgb(0%,0%,39.99939%);stroke-opacity:1;stroke-miterlimit:10;" d="M -79.369687 68.032942 L -42.518861 155.909212 L 79.369326 155.909212 L 107.716415 68.032942 " transform="matrix(1.00002,0,0,-1.00003,149.898618,228.976389)"/>
<path style="fill:none;stroke-width:1.19553;stroke-linecap:butt;stroke-linejoin:miter;stroke:rgb(0%,0%,39.99939%);stroke-opacity:1;stroke-miterlimit:10;" d="M 76.537351 138.898004 C 85.931695 138.898004 93.544824 146.514963 93.544824 155.909212 C 93.544824 165.299555 85.931695 172.916514 76.537351 172.916514 " transform="matrix(1.00002,0,0,-1.00003,149.898618,228.976389)"/>
<path style="fill:none;stroke-width:1.19553;stroke-linecap:butt;stroke-linejoin:miter;stroke:rgb(0%,0%,39.99939%);stroke-opacity:1;stroke-miterlimit:10;" d="M -0.000180416 62.361237 L 79.369326 155.909212 " transform="matrix(1.00002,0,0,-1.00003,149.898618,228.976389)"/>
<path style="fill:none;stroke-width:1.19553;stroke-linecap:butt;stroke-linejoin:miter;stroke:rgb(0%,0%,0%);stroke-opacity:1;stroke-miterlimit:10;" d="M 90.708943 161.577011 L 51.026143 170.080662 L 36.850645 201.26332 " transform="matrix(1.00002,0,0,-1.00003,149.898618,228.976389)"/>
<path style="fill:none;stroke-width:1.19553;stroke-linecap:butt;stroke-linejoin:miter;stroke:rgb(0%,0%,39.99939%);stroke-opacity:1;stroke-miterlimit:10;" d="M -0.000180416 62.361237 L -56.694359 184.256018 " transform="matrix(1.00002,0,0,-1.00003,149.898618,228.976389)"/>
<path style="fill:none;stroke-width:1.19553;stroke-linecap:butt;stroke-linejoin:miter;stroke:rgb(0%,0%,0%);stroke-opacity:1;stroke-miterlimit:10;" d="M 85.041088 209.766971 C 85.041088 219.161221 77.424052 226.774274 68.033615 226.774274 C 58.639272 226.774274 51.022237 219.161221 51.022237 209.766971 C 51.022237 200.372722 58.639272 192.759669 68.033615 192.759669 C 77.424052 192.759669 85.041088 200.372722 85.041088 209.766971 Z M 85.041088 209.766971 " transform="matrix(1.00002,0,0,-1.00003,149.898618,228.976389)"/>
<path style="fill:none;stroke-width:1.19553;stroke-linecap:butt;stroke-linejoin:miter;stroke:rgb(75%,75%,75%);stroke-opacity:1;stroke-miterlimit:10;" d="M 28.346909 -0.000173215 L 28.346909 7.085552 L 35.432705 7.085552 L 35.432705 -0.000173215 Z M 28.346909 -0.000173215 " transform="matrix(1.00002,0,0,-1.00003,149.898618,228.976389)"/>
<path style="fill:none;stroke-width:1.19553;stroke-linecap:butt;stroke-linejoin:miter;stroke:rgb(75%,75%,75%);stroke-opacity:1;stroke-miterlimit:10;" d="M 28.346909 -0.000173215 L 28.346909 170.080662 " transform="matrix(1.00002,0,0,-1.00003,149.898618,228.976389)"/>
<path style="fill:none;stroke-width:1.19553;stroke-linecap:butt;stroke-linejoin:miter;stroke:rgb(0%,0%,0%);stroke-opacity:1;stroke-miterlimit:10;" d="M 51.026143 204.095266 L -56.694359 184.256018 L 28.346909 141.733856 L 8.503556 62.361237 L 28.346909 62.361237 " transform="matrix(1.00002,0,0,-1.00003,149.898618,228.976389)"/>
<path style="fill:none;stroke-width:1.19553;stroke-linecap:butt;stroke-linejoin:miter;stroke:rgb(50%,50%,50%);stroke-opacity:1;stroke-miterlimit:10;" d="M -141.735627 -0.000173215 L 184.253947 -0.000173215 " transform="matrix(1.00002,0,0,-1.00003,149.898618,228.976389)"/>
</g>
</svg>
