<?xml version="1.0" encoding="UTF-8"?>
<svg xmlns="http://www.w3.org/2000/svg" xmlns:xlink="http://www.w3.org/1999/xlink" width="214pt" height="61pt" viewBox="0 0 214 61" version="1.1">
<g id="surface1">
<path style="fill:none;stroke-width:0.79701;stroke-linecap:butt;stroke-linejoin:miter;stroke:rgb(0%,0%,100%);stroke-opacity:1;stroke-miterlimit:10;" d="M -0.000117694 0.00172455 C -0.000117694 0.00172455 6.042549 4.025082 8.226033 5.528958 C 10.413424 7.032834 13.846846 9.427317 15.745189 10.845258 C 17.643531 12.263198 20.459797 14.470185 21.908943 15.747503 C 23.358089 17.020915 25.311117 18.958377 26.186073 20.040386 C 27.061029 21.126302 27.982858 22.712208 28.209409 23.567659 C 28.432054 24.419205 28.24847 25.598869 27.80318 26.184795 C 27.357889 26.774627 26.08061 27.501175 25.002538 27.798044 C 23.928373 28.098819 21.662862 28.344908 20.049661 28.344908 C 18.43646 28.344908 15.385832 28.102725 13.370308 27.80195 C 11.358689 27.505081 7.780743 26.778533 5.542574 26.192607 C 3.304405 25.602775 -0.492281 24.427017 -2.765604 23.575472 C -5.035022 22.72002 -8.722338 21.134114 -10.831607 20.052105 C -12.940877 18.966189 -16.202433 17.032634 -17.967969 15.755316 C -19.733506 14.481904 -22.288066 12.274917 -23.557534 10.856976 C -24.827001 9.439036 -26.455826 7.048459 -27.119855 5.540676 C -27.783885 4.0368 -28.346357 1.548569 -28.346357 0.0134431 C -28.346357 -1.521682 -27.791697 -4.009914 -27.131574 -5.51379 C -26.47145 -7.021572 -24.846532 -9.416056 -23.58097 -10.833996 C -22.315408 -12.251937 -19.764754 -14.458924 -17.999218 -15.736242 C -16.237587 -17.009654 -12.979937 -18.947115 -10.870668 -20.033031 C -8.761398 -21.118947 -5.074083 -22.704853 -2.804665 -23.560304 C -0.531341 -24.41185 3.261438 -25.591514 5.503513 -26.181346 C 7.741683 -26.767271 11.323535 -27.497725 13.335153 -27.798501 C 15.350677 -28.099276 18.405212 -28.345365 20.022319 -28.345365 C 21.639425 -28.349271 23.904937 -28.103182 24.983008 -27.806313 C 26.061079 -27.505538 27.346171 -26.782896 27.795368 -26.19697 C 28.240658 -25.611044 28.432054 -24.431381 28.213315 -23.579835 C 27.99067 -22.72829 27.072747 -21.14629 26.201697 -20.060374 C 25.330647 -18.978365 23.381526 -17.04481 21.936285 -15.767491 C 20.487139 -14.494079 17.67478 -12.287092 15.780343 -10.869152 C 13.882001 -9.455118 10.448579 -7.060634 8.265094 -5.556758 C 6.081609 -4.052882 2.323985 -1.560744 0.0389429 -0.0256187 C -2.242193 1.505601 -6.003724 3.997738 -8.187208 5.501615 C -10.374599 7.005491 -13.811927 9.40388 -15.71027 10.821821 C -17.612518 12.239761 -20.43269 14.446748 -21.881836 15.724066 C -23.334888 16.997478 -25.291822 18.93494 -26.170684 20.020855 C -27.04564 21.106771 -27.975281 22.696583 -28.205739 23.552035 C -28.43229 24.40358 -28.252611 25.58715 -27.811227 26.173076 C -27.369843 26.762908 -26.096469 27.493362 -25.022304 27.794137 C -23.948139 28.094913 -21.690439 28.344908 -20.081145 28.344908 C -18.467944 28.348814 -15.421222 28.106631 -13.409603 27.809762 C -11.397985 27.508987 -7.820039 26.786345 -5.58187 26.200419 C -3.343701 25.614494 0.449079 24.438736 2.722402 23.58719 C 4.995726 22.739551 8.683042 21.153645 10.796217 20.071636 C 12.905487 18.98572 16.170949 17.052165 17.936485 15.778753 C 19.705928 14.505341 22.264394 12.298354 23.537768 10.884319 C 24.807236 9.466379 26.439967 7.071896 27.107902 5.568019 C 27.775837 4.064143 28.342215 1.575912 28.346121 0.0407863 C 28.350027 -1.494339 27.799274 -3.982571 27.143056 -5.490353 C 26.486839 -6.994229 24.865827 -9.388713 23.604171 -10.806653 C 22.338609 -12.224593 19.791861 -14.435487 18.030231 -15.712805 C 16.272506 -16.990123 13.014857 -18.923678 10.909493 -20.0135 C 8.800224 -21.099416 5.116814 -22.689228 2.84349 -23.54468 C 0.574072 -24.400131 -3.222613 -25.579795 -5.460782 -26.169627 C -7.702858 -26.759459 -11.28471 -27.489913 -13.300234 -27.790688 C -15.315758 -28.091464 -18.374199 -28.345365 -19.991306 -28.345365 C -21.612318 -28.349271 -23.881736 -28.107088 -24.963713 -27.810219 C -26.04569 -27.51335 -27.334688 -26.790708 -27.787791 -26.204783 C -28.236987 -25.622763 -28.43229 -24.447005 -28.217457 -23.59546 C -27.998718 -22.74782 -27.084701 -21.161915 -26.217557 -20.079905 C -25.350413 -18.997895 -23.405197 -17.06434 -21.959957 -15.790928 C -20.518623 -14.517516 -17.706264 -12.314435 -15.811827 -10.896495 C -13.917391 -9.478555 -10.487875 -7.087977 -8.30439 -5.580195 C -6.120905 -4.076319 -0.0821448 -0.0529619 -0.0821448 -0.0529619 " transform="matrix(1.00005,0,0,-1.00002,30.730586,30.353287)"/>
<path style="fill:none;stroke-width:0.79701;stroke-linecap:butt;stroke-linejoin:miter;stroke:rgb(0%,0%,100%);stroke-opacity:1;stroke-miterlimit:10;" d="M 76.535118 0.00172455 C 76.535118 0.00172455 82.577785 8.064063 84.761269 10.845258 C 86.94866 13.626452 90.382082 17.911523 92.280425 20.040386 C 94.178767 22.16925 96.995033 25.032474 98.444179 26.184795 C 99.893325 27.337115 101.846352 28.344908 102.721309 28.344908 C 103.596265 28.348814 104.518094 27.341022 104.744645 26.192607 C 104.96729 25.040286 104.783706 22.177062 104.338415 20.052105 C 103.893125 17.923241 102.615845 13.638171 101.537774 10.856976 C 100.463609 8.079688 98.202003 3.021195 96.588803 0.0134431 C 94.971696 -2.994309 91.921067 -8.052802 89.909449 -10.833996 C 87.893925 -13.615191 84.315979 -17.900261 82.07781 -20.033031 C 79.83964 -22.161895 76.042955 -25.025119 73.773537 -26.181346 C 71.500214 -27.333666 67.812898 -28.345365 65.703628 -28.345365 C 63.594359 -28.349271 60.332803 -27.345385 58.567266 -26.19697 C 56.80173 -25.04465 54.24717 -22.185332 52.977702 -20.060374 C 51.708234 -17.935417 50.07941 -13.650346 49.41538 -10.869152 C 48.751351 -8.091864 48.192785 -3.037277 48.188879 -0.0256187 C 48.188879 2.982134 48.743539 8.03672 49.403662 10.821821 C 50.067691 13.603015 51.688704 17.891992 52.954266 20.020855 C 54.223734 22.153625 56.770481 25.020755 58.536018 26.173076 C 60.297649 27.329303 63.555298 28.341002 65.664568 28.344908 C 67.773837 28.348814 71.461153 27.348834 73.730571 26.200419 C 76.003895 25.052005 79.80058 22.196593 82.038749 20.071636 C 84.276918 17.946678 87.858771 13.661608 89.874295 10.884319 C 91.885913 8.103125 94.940448 3.048539 96.557554 0.0407863 C 98.174661 -2.966966 100.440173 -8.025459 101.518244 -10.806653 C 102.596315 -13.591754 103.881407 -17.88073 104.330603 -20.0135 C 104.7798 -22.142364 104.96729 -25.0134 104.748551 -26.169627 C 104.525906 -27.325854 103.607983 -28.341459 102.736933 -28.345365 C 101.865883 -28.353177 99.916761 -27.353197 98.471521 -26.204783 C 97.026281 -25.060274 94.213922 -22.204863 92.315579 -20.079905 C 90.421142 -17.954948 86.98772 -13.673783 84.804236 -10.896495 C 82.616845 -8.119207 78.859221 -3.06462 76.578085 -0.0529619 C 74.293043 2.95479 70.535418 8.013283 68.348027 10.794477 C 66.164543 13.579578 62.723309 17.868555 60.824966 20.001325 C 58.926623 22.134094 56.106452 25.005131 54.6534 26.165264 C 53.204253 27.321491 51.243414 28.341002 50.364552 28.344908 C 49.489595 28.35272 48.559954 27.356646 48.333403 26.212138 C 48.102946 25.067629 48.282624 22.212218 48.724009 20.08726 C 49.165393 17.966209 50.442673 13.685045 51.512932 10.907756 C 52.587097 8.130468 54.844796 3.075882 56.457997 0.0681295 C 58.067291 -2.943529 61.11792 -7.998115 63.129538 -10.783216 C 65.141156 -13.56441 68.715197 -17.861199 70.953366 -19.993969 C 73.191535 -22.126739 76.98822 -25.001682 79.257638 -26.157909 C 81.530962 -27.318042 85.222184 -28.337552 87.331453 -28.345365 C 89.440723 -28.353177 92.706184 -27.361009 94.471721 -26.216501 C 96.241164 -25.071993 98.79963 -22.220487 100.073004 -20.099436 C 101.346377 -17.978385 102.979108 -13.69722 103.643138 -10.919932 C 104.311073 -8.142644 104.877451 -3.091964 104.881357 -0.0803051 C 104.885263 2.927447 104.338415 7.98594 103.678292 10.77104 C 103.022075 13.552235 101.404968 17.849024 100.139407 19.981794 C 98.873845 22.11847 96.331003 24.993412 94.569373 26.153545 C 92.807742 27.313678 89.550092 28.337095 87.444729 28.344908 C 85.335459 28.356626 81.65205 27.364459 79.382632 26.223856 C 77.109308 25.079348 73.312623 22.227843 71.074454 20.106791 C 68.832378 17.98574 65.250526 13.708482 63.235002 10.9351 C 61.219478 8.157811 58.161037 3.103225 56.54393 0.0954727 C 54.922917 -2.916186 52.6535 -7.974678 51.571522 -10.755873 C 50.489545 -13.540973 49.200547 -17.837762 48.751351 -19.974438 C 48.298249 -22.107208 48.102946 -24.986057 48.321685 -26.150096 C 48.536518 -27.310229 49.450535 -28.333646 50.317679 -28.345365 C 51.188729 -28.357083 53.133944 -27.368822 54.575279 -26.22822 C 56.020519 -25.087617 58.828972 -22.236112 60.723409 -20.118967 C 62.617845 -17.997915 66.047361 -13.720657 68.230846 -10.947275 C 70.41433 -8.169987 76.453091 -0.107648 76.453091 -0.107648 " transform="matrix(1.00005,0,0,-1.00002,30.730586,30.353287)"/>
<path style="fill:none;stroke-width:0.79701;stroke-linecap:butt;stroke-linejoin:miter;stroke:rgb(0%,0%,100%);stroke-opacity:1;stroke-miterlimit:10;" d="M 153.07426 0.00172455 C 153.07426 0.00172455 163.163599 8.064063 166.432967 10.845258 C 169.702335 13.626452 174.577091 17.911523 176.639488 20.040386 C 178.697979 22.16925 180.916618 25.032474 181.279881 26.184795 C 181.643144 27.337115 180.682254 28.344908 179.264357 28.344908 C 177.846459 28.348814 173.928686 27.341022 171.061642 26.192607 C 168.198504 25.040286 162.249582 22.177062 158.613045 20.052105 C 154.980415 17.923241 148.406524 13.638171 144.859827 10.856976 C 141.309223 8.079688 135.664974 3.021195 133.040105 0.0134431 C 130.419143 -2.994309 127.032593 -8.052802 125.954522 -10.833996 C 124.872545 -13.615191 124.548342 -17.900261 125.267056 -20.033031 C 125.989677 -22.161895 128.79813 -25.025119 131.145669 -26.181346 C 133.497114 -27.333666 138.7781 -28.345365 142.20371 -28.345365 C 145.625414 -28.349271 152.132901 -27.345385 155.824122 -26.19697 C 159.511438 -25.04465 165.710347 -22.185332 168.79613 -20.060374 C 171.881913 -17.935417 176.303567 -13.650346 178.057386 -10.869152 C 179.807298 -8.091864 181.412687 -3.037277 181.420499 -0.0256187 C 181.424405 2.982134 179.830735 8.03672 178.088634 10.821821 C 176.346534 13.603015 171.932692 17.891992 168.850815 20.020855 C 165.772844 22.153625 159.581747 25.020755 155.890525 26.173076 C 152.20321 27.329303 145.691816 28.341002 142.266206 28.344908 C 138.83669 28.348814 133.547892 27.348834 131.188635 26.200419 C 128.833284 25.052005 126.009207 22.196593 125.282681 20.071636 C 124.552248 17.946678 124.864733 13.661608 125.934992 10.884319 C 127.005251 8.103125 130.376176 3.048539 132.993233 0.0407863 C 135.610289 -2.966966 141.246726 -8.025459 144.793424 -10.806653 C 148.340122 -13.591754 154.910106 -17.88073 158.546642 -20.0135 C 162.187085 -22.142364 168.139913 -25.0134 171.010863 -26.169627 C 173.881813 -27.325854 177.811304 -28.341459 179.237014 -28.345365 C 180.662724 -28.353177 181.643144 -27.353197 181.287693 -26.204783 C 180.932242 -25.060274 178.729227 -22.204863 176.674642 -20.079905 C 174.623964 -17.954948 169.757019 -13.673783 166.491558 -10.896495 C 163.226096 -8.119207 156.847509 -3.06462 153.140663 -0.0529619 C 149.433817 2.95479 143.047417 8.013283 139.774144 10.794477 C 136.496964 13.579578 131.610489 17.868555 129.544186 20.001325 C 127.477883 22.134094 125.24362 25.005131 124.872545 26.165264 C 124.497564 27.321491 125.446735 28.341002 126.856821 28.344908 C 128.266906 28.35272 132.169055 27.356646 135.028287 26.212138 C 137.887519 25.067629 143.828628 22.212218 147.465165 20.08726 C 151.097796 17.966209 157.671686 13.685045 161.22229 10.907756 C 164.772894 8.130468 170.424955 3.075882 173.057636 0.0681295 C 175.68641 -2.943529 179.084678 -7.998115 180.174467 -10.783216 C 181.260351 -13.56441 181.604083 -17.861199 180.893181 -19.993969 C 180.178373 -22.126739 177.385544 -25.001682 175.041911 -26.157909 C 172.698279 -27.318042 167.425105 -28.337552 164.007307 -28.345365 C 160.585603 -28.353177 154.082022 -27.361009 150.3908 -26.216501 C 146.699579 -25.071993 140.496764 -22.220487 137.407074 -20.099436 C 134.317385 -17.978385 129.880107 -13.69722 128.122382 -10.919932 C 126.360752 -8.142644 124.739739 -3.091964 124.728021 -0.0803051 C 124.712397 2.927447 126.290443 7.98594 128.024731 10.77104 C 129.759019 13.552235 134.161143 17.849024 137.235208 19.981794 C 140.313179 22.11847 146.50037 24.993412 150.187685 26.153545 C 153.875001 27.313678 160.386394 28.337095 163.81591 28.344908 C 167.249332 28.356626 172.549849 27.364459 174.913012 26.223856 C 177.276175 25.079348 180.11197 22.227843 180.850215 20.106791 C 181.588459 17.98574 181.291599 13.708482 180.233058 10.9351 C 179.170611 8.157811 175.811404 3.103225 173.198254 0.0954727 C 170.589009 -2.916186 164.960384 -7.974678 161.417593 -10.755873 C 157.874801 -13.540973 151.304817 -17.837762 147.664374 -19.974438 C 144.023931 -22.107208 138.063292 -24.986057 135.188435 -26.150096 C 132.309673 -27.310229 128.368464 -28.333646 126.934942 -28.345365 C 125.50142 -28.357083 124.505376 -27.368822 124.853015 -26.22822 C 125.196747 -25.087617 127.384138 -22.236112 129.430911 -20.118967 C 131.477683 -17.997915 136.332909 -13.720657 139.594465 -10.947275 C 142.856021 -8.169987 152.937548 -0.107648 152.937548 -0.107648 " transform="matrix(1.00005,0,0,-1.00002,30.730586,30.353287)"/>
</g>
</svg>
