<svg xmlns="http://www.w3.org/2000/svg" xmlns:xlink="http://www.w3.org/1999/xlink" version="1.1" width="112" height="48" viewBox="0 0 112 48">
<defs>
<path id="font_1_2" d="M.47599793 .609375C.4850006 .6213684 .4850006 .62338259 .4850006 .64437869H.24198914C.11999512 .64437869 .117996219 .65737918 .11399841 .67637637H.08898926L.055999757 .4702301H.08099365C.083999637 .48625184 .09298706 .5493469 .10598755 .56137087 .11299133 .5673828 .19099427 .5673828 .20399475 .5673828H.41099549C.3999939 .5513611 .32099916 .4421997 .29899598 .40914918 .20899964 .27394105 .17599488 .1347351 .17599488 .032577516 .17599488 .022567749 .17599488-.022460938 .22200012-.022460938 .2679901-.022460938 .2679901 .022567749 .2679901 .032577516V.08366394C.2679901 .13873291 .2709961 .19381714 .2789917 .24790955 .2829895 .27093507 .29699708 .35707093 .34098817 .41915895L.47599793 .609375Z"/>
<path id="font_1_1" d="M.2939911 .16503906V.07800293C.2939911 .041992189 .2919922 .0309906 .21798706 .0309906H.19699097V0C.23799134 .0029907227 .2899933 .0029907227 .33198548 .0029907227 .37399293 .0029907227 .4269867 .0029907227 .46798707 0V.0309906H.44699098C.37298585 .0309906 .37098695 .041992189 .37098695 .07800293V.16503906H.47099305V.19602967H.37098695V.65075686C.37098695 .67074587 .37098695 .6767578 .35499574 .6767578 .34599305 .6767578 .34298707 .6767578 .33499146 .66474917L.027999878 .19602967V.16503906H.2939911M.2999878 .19602967H.055999757L.2999878 .5688019V.19602967Z"/>
<path id="font_2_1" d="M.45498658 .5001831C.45498658 .56614688 .43699647 .7050781 .33499146 .7050781 .19599915 .7050781 .041992189 .42323304 .041992189 .19425965 .041992189 .100250247 .070999149-.0107421879 .1619873-.0107421879 .30299378-.0107421879 .45498658 .27627564 .45498658 .5001831M.147995 .36328126C.16499329 .42723084 .18499756 .5071869 .22499085 .57814028 .2519989 .6271057 .2889862 .68307498 .33399964 .68307498 .3829956 .68307498 .3889923 .6191101 .3889923 .56214907 .3889923 .5131836 .3809967 .46220399 .35699464 .36328126H.147995M.34799195 .3312683C.33699037 .28527833 .31599427 .2002716 .27799989 .12826538 .24299622 .060256959 .20498657 .011245728 .1619873 .011245728 .1289978 .011245728 .10798645 .040252687 .10798645 .133255 .10798645 .17526245 .11399841 .23326111 .13999939 .3312683H.34799195Z"/>
</defs>
<path transform="matrix(1.00002,0,0,-1.00006,32.4813,45.660779)" stroke-width=".79701" stroke-linecap="butt" stroke-miterlimit="10" stroke-linejoin="miter" fill="none" stroke="#000000" d="M77.96478 0-31.1859 43.66008"/>
<use data-text="7" xlink:href="#font_1_2" transform="matrix(9.962799,0,0,-9.963197,59.589845,20.110247)" fill="#0000ff"/>
<path transform="matrix(1.00002,0,0,-1.00006,32.4813,45.660779)" stroke-width=".79701" stroke-linecap="butt" stroke-miterlimit="10" stroke-linejoin="miter" fill="none" stroke="#000000" d="M0 0-31.1859 43.66008"/>
<use data-text="4" xlink:href="#font_1_1" transform="matrix(9.962799,0,0,-9.963197,8.187813,33.969079)" fill="#0000ff"/>
<path transform="matrix(1.00002,0,0,-1.00006,32.4813,45.660779)" stroke-width=".79701" stroke-linecap="butt" stroke-miterlimit="10" stroke-linejoin="miter" fill="none" stroke="#000000" d="M77.96478 0H0"/>
<path transform="matrix(1.00002,0,0,-1.00006,32.4813,45.660779)" stroke-width=".79701" stroke-linecap="butt" stroke-miterlimit="10" stroke-linejoin="miter" fill="none" stroke="#ff0000" d="M49.90149 0C49.90149 3.5687 50.58493 7.10872 51.9098 10.4218"/>
<use data-text="&#x03b8;" xlink:href="#font_2_1" transform="matrix(9.962799,0,0,-9.963197,74.21814,42.817609)" fill="#ff0000"/>
</svg>
