<?xml version="1.0" encoding="UTF-8"?>
<svg xmlns="http://www.w3.org/2000/svg" xmlns:xlink="http://www.w3.org/1999/xlink" width="277pt" height="177pt" viewBox="0 0 277 177" version="1.1">
<g id="surface1">
<path style="fill:none;stroke-width:0.3985;stroke-linecap:butt;stroke-linejoin:miter;stroke:rgb(89.99939%,89.99939%,89.99939%);stroke-opacity:1;stroke-miterlimit:10;" d="M -133.581406 -85.04 L 133.57875 -85.04 M -133.581406 -56.692344 L 133.57875 -56.692344 M -133.581406 -28.348594 L 133.57875 -28.348594 M -133.581406 -0.0009375 L 133.57875 -0.0009375 M -133.581406 28.346719 L 133.57875 28.346719 M -133.581406 56.694375 L 133.57875 56.694375 M -133.581406 85.030312 L 133.57875 85.030312 M -133.5775 -85.04 L -133.5775 85.042031 M -111.315781 -85.04 L -111.315781 85.042031 M -89.054063 -85.04 L -89.054063 85.042031 M -66.788438 -85.04 L -66.788438 85.042031 M -44.526719 -85.04 L -44.526719 85.042031 M -22.265 -85.04 L -22.265 85.042031 M 0.000625 -85.04 L 0.000625 85.042031 M 22.262344 -85.04 L 22.262344 85.042031 M 44.527969 -85.04 L 44.527969 85.042031 M 66.789687 -85.04 L 66.789687 85.042031 M 89.051406 -85.04 L 89.051406 85.042031 M 111.317031 -85.04 L 111.317031 85.042031 M 133.57875 -85.04 L 133.57875 85.042031 " transform="matrix(1,0,0,-1,134.39,91.71)"/>
<path style="fill:none;stroke-width:0.3985;stroke-linecap:butt;stroke-linejoin:miter;stroke:rgb(84.999084%,84.999084%,84.999084%);stroke-opacity:1;stroke-miterlimit:10;" d="M -133.581406 -0.0009375 L 140.738906 -0.0009375 " transform="matrix(1,0,0,-1,134.39,91.71)"/>
<path style="fill-rule:nonzero;fill:rgb(84.999084%,84.999084%,84.999084%);fill-opacity:1;stroke-width:0.3985;stroke-linecap:butt;stroke-linejoin:round;stroke:rgb(84.999084%,84.999084%,84.999084%);stroke-opacity:1;stroke-miterlimit:10;" d="M 0.798001 -0.0009375 C -0.198093 0.198281 -1.194186 0.596719 -2.389499 1.295937 C -1.194186 0.3975 -1.194186 -0.399375 -2.389499 -1.293906 C -1.194186 -0.598594 -0.198093 -0.200156 0.798001 -0.0009375 Z M 0.798001 -0.0009375 " transform="matrix(1,0,0,-1,275.12778,91.71)"/>
<path style="fill:none;stroke-width:0.3985;stroke-linecap:butt;stroke-linejoin:miter;stroke:rgb(84.999084%,84.999084%,84.999084%);stroke-opacity:1;stroke-miterlimit:10;" d="M 0.000625 -85.04 L 0.000625 89.713906 " transform="matrix(1,0,0,-1,134.39,91.71)"/>
<path style="fill-rule:nonzero;fill:rgb(84.999084%,84.999084%,84.999084%);fill-opacity:1;stroke-width:0.3985;stroke-linecap:butt;stroke-linejoin:round;stroke:rgb(84.999084%,84.999084%,84.999084%);stroke-opacity:1;stroke-miterlimit:10;" d="M 0.797341 -0.000625 C -0.198753 0.198594 -1.194846 0.597031 -2.390159 1.29625 C -1.194846 0.397813 -1.194846 -0.399062 -2.390159 -1.293594 C -1.194846 -0.598281 -0.198753 -0.199844 0.797341 -0.000625 Z M 0.797341 -0.000625 " transform="matrix(0,-1,-1,0,134.39,1.99656)"/>
<path style="fill:none;stroke-width:0.79701;stroke-linecap:butt;stroke-linejoin:miter;stroke:rgb(0%,0%,100%);stroke-opacity:1;stroke-miterlimit:10;" d="M -133.581406 28.346719 C -133.581406 28.346719 -130.565781 28.206094 -129.405625 28.038125 C -128.249375 27.870156 -126.39 27.46 -125.23375 27.124062 C -124.073594 26.792031 -122.218125 26.11625 -121.057969 25.624062 C -119.901719 25.131875 -118.042344 24.21 -116.886094 23.569375 C -115.725938 22.92875 -113.870469 21.780312 -112.710313 21.002969 C -111.554063 20.229531 -109.694688 18.874062 -108.538438 17.983437 C -107.378281 17.092812 -105.522813 15.565469 -104.362656 14.573281 C -103.206406 13.585 -101.347031 11.917031 -100.186875 10.850625 C -99.030625 9.784219 -97.17125 8.010781 -96.015 6.889687 C -94.854844 5.768594 -92.999375 3.92875 -91.839219 2.780312 C -90.682969 1.631875 -88.823594 -0.235313 -87.667344 -1.387656 C -86.507188 -2.54 -84.651719 -4.391563 -83.491563 -5.524375 C -82.335313 -6.657188 -80.475938 -8.457969 -79.319688 -9.543906 C -78.159531 -10.629844 -76.304063 -12.340781 -75.143906 -13.356406 C -73.987656 -14.375938 -72.128281 -15.954063 -70.972031 -16.879844 C -69.811875 -17.809531 -67.956406 -19.223594 -66.79625 -20.04 C -65.64 -20.856406 -63.780625 -22.075156 -62.624375 -22.762656 C -61.464219 -23.450156 -59.60875 -24.450156 -58.448594 -24.997031 C -57.292344 -25.54 -55.432969 -26.297813 -54.276719 -26.684531 C -53.116563 -27.075156 -51.257188 -27.575156 -50.100938 -27.797813 C -48.940781 -28.024375 -47.085313 -28.254844 -45.925156 -28.309531 C -44.768906 -28.368125 -42.909531 -28.32125 -41.753281 -28.207969 C -40.593125 -28.094688 -38.737656 -27.778281 -37.5775 -27.500938 C -36.42125 -27.219688 -34.561875 -26.63375 -33.405625 -26.192344 C -32.245469 -25.750938 -30.39 -24.911094 -29.229844 -24.317344 C -28.073594 -23.723594 -26.214219 -22.649375 -25.057969 -21.918906 C -23.897813 -21.184531 -22.042344 -19.899375 -20.882188 -19.043906 C -19.725938 -18.188438 -17.866563 -16.715781 -16.710313 -15.75875 C -15.550156 -14.797813 -13.694688 -13.172813 -12.534531 -12.129844 C -11.378281 -11.086875 -9.518906 -9.344688 -8.362656 -8.239219 C -7.2025 -7.13375 -5.347031 -5.313438 -4.186875 -4.172813 C -3.030625 -3.028281 -1.17125 -1.165 -0.0110938 -0.0126563 C 1.145156 1.139687 3.004531 3.002969 4.160781 4.143594 C 5.320937 5.288125 7.176406 7.108437 8.336562 8.213906 C 9.492812 9.319375 11.352187 11.061562 12.508437 12.104531 C 13.668594 13.151406 15.524062 14.776406 16.684219 15.737344 C 17.840469 16.694375 19.699844 18.167031 20.856094 19.0225 C 22.01625 19.877969 23.871719 21.167031 25.031875 21.901406 C 26.188125 22.631875 28.0475 23.71 29.20375 24.30375 C 30.363906 24.8975 32.219375 25.737344 33.379531 26.182656 C 34.535781 26.624062 36.395156 27.21 37.551406 27.49125 C 38.711562 27.7725 40.567031 28.092812 41.727187 28.206094 C 42.883437 28.319375 44.742812 28.370156 45.899062 28.311562 C 47.059219 28.256875 48.918594 28.030312 50.074844 27.80375 C 51.235 27.581094 53.090469 27.081094 54.250625 26.694375 C 55.406875 26.307656 57.26625 25.549844 58.4225 25.006875 C 59.582656 24.463906 61.438125 23.463906 62.598281 22.780312 C 63.754531 22.092812 65.613906 20.874062 66.770156 20.057656 C 67.930312 19.24125 69.785781 17.827187 70.945937 16.901406 C 72.102187 15.975625 73.961562 14.3975 75.117812 13.377969 C 76.277969 12.362344 78.133437 10.655312 79.293594 9.569375 C 80.449844 8.483437 82.309219 6.682656 83.465469 5.549844 C 84.625625 4.417031 86.481094 2.565469 87.64125 1.413125 C 88.7975 0.260781 90.656875 -1.606406 91.813125 -2.754844 C 92.973281 -3.903281 94.82875 -5.747031 95.988906 -6.864219 C 97.145156 -7.985313 99.004531 -9.75875 100.164687 -10.825156 C 101.320937 -11.891563 103.180312 -13.563438 104.336562 -14.551719 C 105.496719 -15.543906 107.352187 -17.07125 108.512344 -17.961875 C 109.668594 -18.856406 111.527969 -20.211875 112.684219 -20.985313 C 113.844375 -21.762656 115.699844 -22.915 116.86 -23.555625 C 118.01625 -24.19625 119.875625 -25.118125 121.031875 -25.614219 C 122.192031 -26.106406 124.0475 -26.782188 125.207656 -27.118125 C 126.363906 -27.454063 128.223281 -27.864219 129.379531 -28.036094 C 130.539687 -28.204063 133.555312 -28.344688 133.555312 -28.344688 " transform="matrix(1,0,0,-1,134.39,91.71)"/>
<path style="fill:none;stroke-width:0.79701;stroke-linecap:butt;stroke-linejoin:miter;stroke:rgb(0%,0%,100%);stroke-opacity:1;stroke-dasharray:0.79701,0.99628;stroke-miterlimit:10;" d="M 9.633437 85.049844 C 9.633437 85.049844 10.4225 78.846719 10.723281 76.760781 C 11.027969 74.67875 11.512344 71.737344 11.813125 70.030312 C 12.117812 68.327187 12.602187 65.893594 12.902969 64.475625 C 13.207656 63.061562 13.692031 61.014687 13.992812 59.819375 C 14.2975 58.627969 14.781875 56.893594 15.086562 55.874062 C 15.387344 54.858437 15.871719 53.362344 16.176406 52.483437 C 16.477187 51.608437 16.961562 50.315469 17.26625 49.55375 C 17.567031 48.792031 18.055312 47.659219 18.356094 46.995156 C 18.660781 46.327187 19.145156 45.338906 19.445937 44.752969 C 19.750625 44.167031 20.235 43.292031 20.535781 42.776406 C 20.840469 42.256875 21.324844 41.479531 21.629531 41.0225 C 21.930312 40.561562 22.414687 39.870156 22.719375 39.46 C 23.020156 39.05375 23.504531 38.436562 23.809219 38.073281 C 24.11 37.706094 24.598281 37.155312 24.899062 36.831094 C 25.199844 36.502969 25.688125 36.010781 25.988906 35.717812 C 26.293594 35.424844 26.777969 34.983437 27.07875 34.721719 C 27.383437 34.456094 27.867812 34.061562 28.168594 33.823281 C 28.473281 33.588906 28.957656 33.233437 29.262344 33.0225 C 29.563125 32.811562 30.0475 32.495156 30.352187 32.30375 C 30.652969 32.11625 31.137344 31.831094 31.442031 31.659219 C 31.742812 31.49125 32.231094 31.237344 32.531875 31.088906 C 32.836562 30.936562 33.320937 30.713906 33.621719 30.581094 C 33.926406 30.448281 34.410781 30.252969 34.711562 30.135781 C 35.01625 30.018594 35.500625 29.846719 35.801406 29.745156 C 36.106094 29.643594 36.590469 29.495156 36.895156 29.405312 C 37.195937 29.319375 37.680312 29.190469 37.985 29.11625 C 38.285781 29.045937 38.770156 28.940469 39.074844 28.877969 C 39.375625 28.819375 39.863906 28.733437 40.164687 28.686562 C 40.469375 28.639687 40.95375 28.573281 41.254531 28.538125 C 41.559219 28.502969 42.043594 28.456094 42.344375 28.432656 C 42.649062 28.409219 43.133437 28.377969 43.438125 28.36625 C 43.738906 28.354531 44.223281 28.346719 44.527969 28.346719 C 44.82875 28.346719 45.313125 28.354531 45.617812 28.36625 C 45.918594 28.377969 46.406875 28.409219 46.707656 28.432656 C 47.008437 28.456094 47.496719 28.502969 47.7975 28.538125 C 48.102187 28.573281 48.586562 28.639687 48.887344 28.686562 C 49.192031 28.733437 49.676406 28.815469 49.977187 28.877969 C 50.281875 28.936562 50.76625 29.045937 51.070937 29.11625 C 51.371719 29.190469 51.856094 29.319375 52.160781 29.405312 C 52.461562 29.495156 52.945937 29.643594 53.250625 29.745156 C 53.551406 29.846719 54.039687 30.018594 54.340469 30.135781 C 54.64125 30.252969 55.129531 30.448281 55.430312 30.581094 C 55.735 30.713906 56.219375 30.936562 56.520156 31.088906 C 56.824844 31.237344 57.309219 31.49125 57.61 31.659219 C 57.914687 31.831094 58.399062 32.11625 58.70375 32.30375 C 59.004531 32.495156 59.488906 32.811562 59.793594 33.0225 C 60.094375 33.233437 60.57875 33.588906 60.883437 33.823281 C 61.184219 34.061562 61.6725 34.456094 61.973281 34.717812 C 62.277969 34.979531 62.762344 35.420937 63.063125 35.713906 C 63.367812 36.006875 63.852187 36.502969 64.152969 36.831094 C 64.457656 37.155312 64.942031 37.706094 65.246719 38.073281 C 65.5475 38.436562 66.031875 39.05375 66.336562 39.46 C 66.637344 39.870156 67.121719 40.561562 67.426406 41.0225 C 67.727187 41.479531 68.215469 42.256875 68.51625 42.776406 C 68.817031 43.292031 69.305312 44.167031 69.606094 44.752969 C 69.910781 45.338906 70.395156 46.327187 70.695937 46.995156 C 71.000625 47.659219 71.485 48.792031 71.785781 49.55375 C 72.090469 50.315469 72.574844 51.608437 72.879531 52.483437 C 73.180312 53.362344 73.664687 54.854531 73.969375 55.874062 C 74.270156 56.889687 74.754531 58.627969 75.059219 59.819375 C 75.36 61.014687 75.848281 63.057656 76.149062 64.471719 C 76.449844 65.889687 76.938125 68.323281 77.238906 70.026406 C 77.543594 71.733437 78.027969 74.670937 78.32875 76.752969 C 78.633437 78.838906 79.418594 85.045937 79.418594 85.045937 " transform="matrix(1,0,0,-1,134.39,91.71)"/>
<path style="fill:none;stroke-width:0.79701;stroke-linecap:butt;stroke-linejoin:miter;stroke:rgb(0%,0%,100%);stroke-opacity:1;stroke-dasharray:0.79701,0.99628;stroke-miterlimit:10;" d="M -133.581406 28.346719 C -133.581406 28.346719 -133.186875 28.350625 -133.034531 28.350625 C -132.886094 28.354531 -132.64 28.362344 -132.491563 28.36625 C -132.339219 28.374062 -132.097031 28.385781 -131.944688 28.393594 C -131.79625 28.405312 -131.550156 28.420937 -131.401719 28.432656 C -131.249375 28.444375 -131.007188 28.463906 -130.854844 28.475625 C -130.706406 28.49125 -130.460313 28.518594 -130.311875 28.538125 C -130.159531 28.55375 -129.917344 28.585 -129.765 28.604531 C -129.612656 28.624062 -129.370469 28.659219 -129.222031 28.682656 C -129.069688 28.706094 -128.8275 28.749062 -128.675156 28.776406 C -128.522813 28.799844 -128.280625 28.846719 -128.132188 28.877969 C -127.979844 28.905312 -127.737656 28.96 -127.585313 28.99125 C -127.432969 29.026406 -127.190781 29.081094 -127.042344 29.11625 C -126.89 29.155312 -126.647813 29.217812 -126.495469 29.256875 C -126.343125 29.295937 -126.100938 29.362344 -125.9525 29.405312 C -125.800156 29.448281 -125.557969 29.5225 -125.405625 29.569375 C -125.253281 29.61625 -125.011094 29.694375 -124.862656 29.745156 C -124.710313 29.795937 -124.468125 29.877969 -124.315781 29.932656 C -124.163438 29.987344 -123.92125 30.073281 -123.768906 30.131875 C -123.620469 30.190469 -123.378281 30.284219 -123.225938 30.346719 C -123.073594 30.409219 -122.831406 30.514687 -122.679063 30.581094 C -122.530625 30.6475 -122.288438 30.752969 -122.136094 30.823281 C -121.98375 30.893594 -121.741563 31.014687 -121.589219 31.088906 C -121.440781 31.163125 -121.198594 31.284219 -121.04625 31.362344 C -120.893906 31.440469 -120.651719 31.573281 -120.499375 31.659219 C -120.350938 31.74125 -120.10875 31.881875 -119.956406 31.971719 C -119.804063 32.057656 -119.561875 32.206094 -119.409531 32.299844 C -119.261094 32.393594 -119.018906 32.549844 -118.866563 32.6475 C -118.714219 32.749062 -118.472031 32.909219 -118.319688 33.014687 C -118.17125 33.120156 -117.925156 33.295937 -117.776719 33.409219 C -117.624375 33.518594 -117.382188 33.702187 -117.229844 33.819375 C -117.081406 33.936562 -116.835313 34.131875 -116.686875 34.256875 C -116.534531 34.377969 -116.292344 34.585 -116.14 34.713906 C -115.987656 34.846719 -115.745469 35.061562 -115.597031 35.198281 C -115.444688 35.338906 -115.2025 35.565469 -115.050156 35.71 C -114.897813 35.854531 -114.655625 36.096719 -114.507188 36.252969 C -114.354844 36.405312 -114.112656 36.663125 -113.960313 36.823281 C -113.807969 36.987344 -113.565781 37.252969 -113.417344 37.424844 C -113.265 37.596719 -113.022813 37.881875 -112.870469 38.061562 C -112.718125 38.245156 -112.475938 38.542031 -112.3275 38.737344 C -112.175156 38.92875 -111.932969 39.245156 -111.780625 39.448281 C -111.628281 39.655312 -111.386094 39.99125 -111.237656 40.206094 C -111.085313 40.424844 -110.843125 40.780312 -110.690781 41.010781 C -110.538438 41.237344 -110.29625 41.61625 -110.143906 41.858437 C -109.995469 42.100625 -109.753281 42.499062 -109.600938 42.760781 C -109.448594 43.018594 -109.206406 43.444375 -109.054063 43.717812 C -108.905625 43.99125 -108.663438 44.444375 -108.511094 44.733437 C -108.35875 45.026406 -108.116563 45.506875 -107.964219 45.819375 C -107.815781 46.127969 -107.573594 46.639687 -107.42125 46.971719 C -107.268906 47.30375 -107.026719 47.850625 -106.874375 48.206094 C -106.725938 48.561562 -106.48375 49.1475 -106.331406 49.526406 C -106.179063 49.905312 -105.936875 50.530312 -105.784531 50.936562 C -105.636094 51.342812 -105.393906 52.014687 -105.241563 52.452187 C -105.089219 52.889687 -104.847031 53.612344 -104.694688 54.085 C -104.54625 54.55375 -104.300156 55.331094 -104.151719 55.835 C -103.999375 56.338906 -103.757188 57.17875 -103.604844 57.725625 C -103.456406 58.2725 -103.210313 59.17875 -103.061875 59.7725 C -102.909531 60.36625 -102.667344 61.354531 -102.515 61.999062 C -102.362656 62.643594 -102.120469 63.717812 -101.972031 64.420937 C -101.819688 65.124062 -101.5775 66.292031 -101.425156 67.061562 C -101.272813 67.831094 -101.030625 69.11625 -100.882188 69.96 C -100.729844 70.80375 -100.487656 72.217812 -100.335313 73.1475 C -100.182969 74.077187 -99.940781 75.639687 -99.792344 76.667031 C -99.64 77.698281 -99.397813 79.42875 -99.245469 80.577187 C -99.093125 81.721719 -98.7025 84.936562 -98.7025 84.936562 " transform="matrix(1,0,0,-1,134.39,91.71)"/>
<path style="fill:none;stroke-width:0.79701;stroke-linecap:butt;stroke-linejoin:miter;stroke:rgb(0%,0%,100%);stroke-opacity:1;stroke-dasharray:0.79701,0.99628;stroke-miterlimit:10;" d="M -79.42125 -85.047813 C -79.42125 -85.047813 -78.632188 -78.844688 -78.331406 -76.75875 C -78.026719 -74.676719 -77.542344 -71.731406 -77.241563 -70.028281 C -76.936875 -68.325156 -76.4525 -65.891563 -76.147813 -64.4775 C -75.847031 -63.059531 -75.362656 -61.016563 -75.057969 -59.82125 C -74.757188 -58.625938 -74.272813 -56.891563 -73.968125 -55.872031 C -73.667344 -54.8525 -73.179063 -53.360313 -72.878281 -52.485313 C -72.5775 -51.606406 -72.089219 -50.313438 -71.788438 -49.551719 C -71.48375 -48.79 -70.999375 -47.661094 -70.698594 -46.993125 C -70.393906 -46.329063 -69.909531 -45.336875 -69.60875 -44.750938 C -69.304063 -44.165 -68.819688 -43.293906 -68.515 -42.774375 C -68.214219 -42.25875 -67.729844 -41.481406 -67.425156 -41.020469 C -67.124375 -40.559531 -66.64 -39.872031 -66.335313 -39.461875 C -66.034531 -39.051719 -65.54625 -38.438438 -65.245469 -38.07125 C -64.940781 -37.707969 -64.456406 -37.157188 -64.155625 -36.829063 C -63.850938 -36.504844 -63.366563 -36.012656 -63.065781 -35.719688 C -62.761094 -35.426719 -62.276719 -34.981406 -61.975938 -34.719688 C -61.67125 -34.457969 -61.186875 -34.059531 -60.882188 -33.825156 C -60.581406 -33.590781 -60.097031 -33.231406 -59.792344 -33.020469 C -59.491563 -32.809531 -59.007188 -32.493125 -58.7025 -32.305625 C -58.401719 -32.114219 -57.913438 -31.829063 -57.612656 -31.661094 C -57.307969 -31.493125 -56.823594 -31.239219 -56.522813 -31.086875 C -56.218125 -30.938438 -55.73375 -30.711875 -55.432969 -30.579063 C -55.128281 -30.450156 -54.643906 -30.250938 -54.339219 -30.137656 C -54.038438 -30.020469 -53.554063 -29.844688 -53.249375 -29.743125 C -52.948594 -29.641563 -52.464219 -29.493125 -52.159531 -29.407188 C -51.85875 -29.32125 -51.370469 -29.192344 -51.069688 -29.118125 C -50.768906 -29.043906 -50.280625 -28.938438 -49.979844 -28.879844 C -49.675156 -28.82125 -49.190781 -28.735313 -48.89 -28.688438 C -48.585313 -28.637656 -48.100938 -28.57125 -47.800156 -28.536094 C -47.495469 -28.500938 -47.011094 -28.454063 -46.706406 -28.430625 C -46.405625 -28.407188 -45.92125 -28.379844 -45.616563 -28.368125 C -45.315781 -28.356406 -44.831406 -28.348594 -44.526719 -28.348594 C -44.225938 -28.348594 -43.737656 -28.356406 -43.436875 -28.368125 C -43.136094 -28.379844 -42.647813 -28.407188 -42.347031 -28.430625 C -42.042344 -28.454063 -41.557969 -28.500938 -41.257188 -28.536094 C -40.9525 -28.57125 -40.468125 -28.637656 -40.167344 -28.688438 C -39.862656 -28.735313 -39.378281 -28.82125 -39.073594 -28.879844 C -38.772813 -28.938438 -38.288438 -29.043906 -37.98375 -29.118125 C -37.682969 -29.192344 -37.198594 -29.32125 -36.893906 -29.407188 C -36.593125 -29.493125 -36.104844 -29.641563 -35.804063 -29.743125 C -35.499375 -29.844688 -35.015 -30.020469 -34.714219 -30.137656 C -34.409531 -30.250938 -33.925156 -30.450156 -33.624375 -30.579063 C -33.319688 -30.711875 -32.835313 -30.938438 -32.530625 -31.086875 C -32.229844 -31.239219 -31.745469 -31.493125 -31.440781 -31.661094 C -31.14 -31.829063 -30.655625 -32.114219 -30.350938 -32.305625 C -30.050156 -32.493125 -29.561875 -32.809531 -29.261094 -33.020469 C -28.960313 -33.231406 -28.472031 -33.590781 -28.17125 -33.825156 C -27.866563 -34.059531 -27.382188 -34.457969 -27.081406 -34.719688 C -26.776719 -34.981406 -26.292344 -35.426719 -25.991563 -35.719688 C -25.686875 -36.012656 -25.2025 -36.504844 -24.897813 -36.829063 C -24.597031 -37.157188 -24.112656 -37.707969 -23.807969 -38.07125 C -23.507188 -38.438438 -23.022813 -39.051719 -22.718125 -39.461875 C -22.417344 -39.872031 -21.929063 -40.559531 -21.628281 -41.020469 C -21.3275 -41.481406 -20.839219 -42.25875 -20.538438 -42.774375 C -20.23375 -43.293906 -19.749375 -44.165 -19.448594 -44.750938 C -19.143906 -45.336875 -18.659531 -46.329063 -18.35875 -46.993125 C -18.054063 -47.661094 -17.569688 -48.79 -17.265 -49.551719 C -16.964219 -50.313438 -16.479844 -51.606406 -16.175156 -52.485313 C -15.874375 -53.360313 -15.39 -54.8525 -15.085313 -55.872031 C -14.784531 -56.891563 -14.29625 -58.625938 -13.995469 -59.82125 C -13.690781 -61.012656 -13.206406 -63.055625 -12.905625 -64.473594 C -12.600938 -65.891563 -12.116563 -68.325156 -11.815781 -70.028281 C -11.511094 -71.731406 -11.026719 -74.672813 -10.722031 -76.754844 C -10.42125 -78.840781 -9.632188 -85.047813 -9.632188 -85.047813 " transform="matrix(1,0,0,-1,134.39,91.71)"/>
<path style="fill:none;stroke-width:0.79701;stroke-linecap:butt;stroke-linejoin:miter;stroke:rgb(0%,0%,100%);stroke-opacity:1;stroke-dasharray:0.79701,0.99628;stroke-miterlimit:10;" d="M 9.633437 85.049844 C 9.633437 85.049844 10.4225 78.846719 10.723281 76.760781 C 11.027969 74.67875 11.512344 71.737344 11.813125 70.030312 C 12.117812 68.327187 12.602187 65.893594 12.902969 64.475625 C 13.207656 63.061562 13.692031 61.014687 13.992812 59.819375 C 14.2975 58.627969 14.781875 56.893594 15.086562 55.874062 C 15.387344 54.858437 15.871719 53.362344 16.176406 52.483437 C 16.477187 51.608437 16.961562 50.315469 17.26625 49.55375 C 17.567031 48.792031 18.055312 47.659219 18.356094 46.995156 C 18.660781 46.327187 19.145156 45.338906 19.445937 44.752969 C 19.750625 44.167031 20.235 43.292031 20.535781 42.776406 C 20.840469 42.256875 21.324844 41.479531 21.629531 41.0225 C 21.930312 40.561562 22.414687 39.870156 22.719375 39.46 C 23.020156 39.05375 23.504531 38.436562 23.809219 38.073281 C 24.11 37.706094 24.598281 37.155312 24.899062 36.831094 C 25.199844 36.502969 25.688125 36.010781 25.988906 35.717812 C 26.293594 35.424844 26.777969 34.983437 27.07875 34.721719 C 27.383437 34.456094 27.867812 34.061562 28.168594 33.823281 C 28.473281 33.588906 28.957656 33.233437 29.262344 33.0225 C 29.563125 32.811562 30.0475 32.495156 30.352187 32.30375 C 30.652969 32.11625 31.137344 31.831094 31.442031 31.659219 C 31.742812 31.49125 32.231094 31.237344 32.531875 31.088906 C 32.836562 30.936562 33.320937 30.713906 33.621719 30.581094 C 33.926406 30.448281 34.410781 30.252969 34.711562 30.135781 C 35.01625 30.018594 35.500625 29.846719 35.801406 29.745156 C 36.106094 29.643594 36.590469 29.495156 36.895156 29.405312 C 37.195937 29.319375 37.680312 29.190469 37.985 29.11625 C 38.285781 29.045937 38.770156 28.940469 39.074844 28.877969 C 39.375625 28.819375 39.863906 28.733437 40.164687 28.686562 C 40.469375 28.639687 40.95375 28.573281 41.254531 28.538125 C 41.559219 28.502969 42.043594 28.456094 42.344375 28.432656 C 42.649062 28.409219 43.133437 28.377969 43.438125 28.36625 C 43.738906 28.354531 44.223281 28.346719 44.527969 28.346719 C 44.82875 28.346719 45.313125 28.354531 45.617812 28.36625 C 45.918594 28.377969 46.406875 28.409219 46.707656 28.432656 C 47.008437 28.456094 47.496719 28.502969 47.7975 28.538125 C 48.102187 28.573281 48.586562 28.639687 48.887344 28.686562 C 49.192031 28.733437 49.676406 28.815469 49.977187 28.877969 C 50.281875 28.936562 50.76625 29.045937 51.070937 29.11625 C 51.371719 29.190469 51.856094 29.319375 52.160781 29.405312 C 52.461562 29.495156 52.945937 29.643594 53.250625 29.745156 C 53.551406 29.846719 54.039687 30.018594 54.340469 30.135781 C 54.64125 30.252969 55.129531 30.448281 55.430312 30.581094 C 55.735 30.713906 56.219375 30.936562 56.520156 31.088906 C 56.824844 31.237344 57.309219 31.49125 57.61 31.659219 C 57.914687 31.831094 58.399062 32.11625 58.70375 32.30375 C 59.004531 32.495156 59.488906 32.811562 59.793594 33.0225 C 60.094375 33.233437 60.57875 33.588906 60.883437 33.823281 C 61.184219 34.061562 61.6725 34.456094 61.973281 34.717812 C 62.277969 34.979531 62.762344 35.420937 63.063125 35.713906 C 63.367812 36.006875 63.852187 36.502969 64.152969 36.831094 C 64.457656 37.155312 64.942031 37.706094 65.246719 38.073281 C 65.5475 38.436562 66.031875 39.05375 66.336562 39.46 C 66.637344 39.870156 67.121719 40.561562 67.426406 41.0225 C 67.727187 41.479531 68.215469 42.256875 68.51625 42.776406 C 68.817031 43.292031 69.305312 44.167031 69.606094 44.752969 C 69.910781 45.338906 70.395156 46.327187 70.695937 46.995156 C 71.000625 47.659219 71.485 48.792031 71.785781 49.55375 C 72.090469 50.315469 72.574844 51.608437 72.879531 52.483437 C 73.180312 53.362344 73.664687 54.854531 73.969375 55.874062 C 74.270156 56.889687 74.754531 58.627969 75.059219 59.819375 C 75.36 61.014687 75.848281 63.057656 76.149062 64.471719 C 76.449844 65.889687 76.938125 68.323281 77.238906 70.026406 C 77.543594 71.733437 78.027969 74.670937 78.32875 76.752969 C 78.633437 78.838906 79.418594 85.045937 79.418594 85.045937 " transform="matrix(1,0,0,-1,134.39,91.71)"/>
<path style="fill:none;stroke-width:0.79701;stroke-linecap:butt;stroke-linejoin:miter;stroke:rgb(0%,0%,100%);stroke-opacity:1;stroke-dasharray:0.79701,0.99628;stroke-miterlimit:10;" d="M 98.688125 -85.047813 C 98.688125 -85.047813 99.082656 -81.829063 99.231094 -80.680625 C 99.383437 -79.532188 99.625625 -77.797813 99.777969 -76.766563 C 99.926406 -75.731406 100.1725 -74.165 100.320937 -73.231406 C 100.473281 -72.297813 100.715469 -70.887656 100.867812 -70.04 C 101.01625 -69.192344 101.262344 -67.903281 101.410781 -67.13375 C 101.563125 -66.364219 101.805312 -65.188438 101.957656 -64.485313 C 102.11 -63.782188 102.352187 -62.700156 102.500625 -62.055625 C 102.652969 -61.407188 102.895156 -60.422813 103.0475 -59.829063 C 103.199844 -59.235313 103.442031 -58.32125 103.590469 -57.774375 C 103.742812 -57.2275 103.985 -56.387656 104.137344 -55.879844 C 104.289687 -55.375938 104.531875 -54.594688 104.680312 -54.125938 C 104.832656 -53.657188 105.074844 -52.930625 105.227187 -52.493125 C 105.379531 -52.055625 105.621719 -51.38375 105.770156 -50.973594 C 105.9225 -50.567344 106.164687 -49.938438 106.317031 -49.559531 C 106.469375 -49.180625 106.711562 -48.594688 106.86 -48.239219 C 107.012344 -47.88375 107.254531 -47.336875 107.406875 -47.004844 C 107.559219 -46.672813 107.801406 -46.157188 107.95375 -45.844688 C 108.102187 -45.536094 108.344375 -45.051719 108.496719 -44.762656 C 108.649062 -44.469688 108.89125 -44.012656 109.043594 -43.739219 C 109.192031 -43.465781 109.434219 -43.043906 109.586562 -42.786094 C 109.738906 -42.528281 109.981094 -42.122031 110.133437 -41.879844 C 110.281875 -41.637656 110.524062 -41.25875 110.676406 -41.028281 C 110.82875 -40.801719 111.070937 -40.442344 111.223281 -40.2275 C 111.371719 -40.00875 111.613906 -39.672813 111.76625 -39.469688 C 111.918594 -39.266563 112.160781 -38.94625 112.313125 -38.754844 C 112.461562 -38.563438 112.70375 -38.262656 112.856094 -38.079063 C 113.008437 -37.899375 113.250625 -37.614219 113.402969 -37.442344 C 113.551406 -37.270469 113.7975 -37.000938 113.945937 -36.836875 C 114.098281 -36.676719 114.340469 -36.418906 114.492812 -36.266563 C 114.64125 -36.110313 114.887344 -35.872031 115.035781 -35.723594 C 115.188125 -35.579063 115.430312 -35.348594 115.582656 -35.211875 C 115.735 -35.07125 115.977187 -34.856406 116.125625 -34.7275 C 116.277969 -34.594688 116.520156 -34.387656 116.6725 -34.262656 C 116.824844 -34.137656 117.067031 -33.94625 117.215469 -33.829063 C 117.367812 -33.711875 117.61 -33.528281 117.762344 -33.415 C 117.914687 -33.305625 118.156875 -33.13375 118.305312 -33.028281 C 118.457656 -32.922813 118.699844 -32.75875 118.852187 -32.661094 C 119.004531 -32.559531 119.246719 -32.403281 119.395156 -32.305625 C 119.5475 -32.211875 119.789687 -32.067344 119.942031 -31.9775 C 120.094375 -31.891563 120.336562 -31.750938 120.485 -31.668906 C 120.637344 -31.582969 120.879531 -31.450156 121.031875 -31.372031 C 121.184219 -31.293906 121.426406 -31.168906 121.57875 -31.094688 C 121.727187 -31.020469 121.969375 -30.903281 122.121719 -30.832969 C 122.274062 -30.762656 122.51625 -30.653281 122.668594 -30.586875 C 122.817031 -30.520469 123.059219 -30.415 123.211562 -30.3525 C 123.363906 -30.29 123.606094 -30.19625 123.758437 -30.137656 C 123.906875 -30.079063 124.149062 -29.993125 124.301406 -29.938438 C 124.45375 -29.88375 124.695937 -29.797813 124.848281 -29.747031 C 124.996719 -29.69625 125.238906 -29.618125 125.39125 -29.57125 C 125.543594 -29.524375 125.785781 -29.454063 125.938125 -29.411094 C 126.086562 -29.368125 126.32875 -29.297813 126.481094 -29.25875 C 126.633437 -29.219688 126.875625 -29.157188 127.027969 -29.122031 C 127.176406 -29.082969 127.4225 -29.028281 127.570937 -28.997031 C 127.723281 -28.961875 127.965469 -28.911094 128.117812 -28.88375 C 128.26625 -28.8525 128.512344 -28.805625 128.660781 -28.778281 C 128.813125 -28.750938 129.055312 -28.711875 129.207656 -28.688438 C 129.36 -28.665 129.602187 -28.629844 129.750625 -28.606406 C 129.902969 -28.586875 130.145156 -28.555625 130.2975 -28.536094 C 130.449844 -28.520469 130.692031 -28.493125 130.840469 -28.481406 C 130.992812 -28.465781 131.235 -28.442344 131.387344 -28.430625 C 131.539687 -28.418906 131.781875 -28.403281 131.930312 -28.395469 C 132.082656 -28.387656 132.324844 -28.375938 132.477187 -28.368125 C 132.629531 -28.364219 132.871719 -28.356406 133.020156 -28.3525 C 133.1725 -28.348594 133.567031 -28.348594 133.567031 -28.348594 " transform="matrix(1,0,0,-1,134.39,91.71)"/>
<path style="fill:none;stroke-width:0.79701;stroke-linecap:butt;stroke-linejoin:miter;stroke:rgb(0%,69.999695%,0%);stroke-opacity:1;stroke-miterlimit:10;" d="M -133.581406 -0.0009375 C -133.581406 -0.0009375 -130.565781 -3.016563 -129.405625 -4.157188 C -128.249375 -5.301719 -126.39 -7.122031 -125.23375 -8.2275 C -124.073594 -9.332969 -122.218125 -11.075156 -121.057969 -12.118125 C -119.901719 -13.161094 -118.042344 -14.786094 -116.886094 -15.747031 C -115.725938 -16.707969 -113.870469 -18.180625 -112.710313 -19.036094 C -111.554063 -19.891563 -109.694688 -21.176719 -108.538438 -21.911094 C -107.378281 -22.641563 -105.522813 -23.719688 -104.362656 -24.313438 C -103.206406 -24.903281 -101.347031 -25.743125 -100.186875 -26.184531 C -99.030625 -26.629844 -97.17125 -27.215781 -96.015 -27.497031 C -94.854844 -27.778281 -92.999375 -28.094688 -91.839219 -28.207969 C -90.682969 -28.32125 -88.823594 -28.368125 -87.667344 -28.313438 C -86.507188 -28.254844 -84.651719 -28.028281 -83.491563 -27.801719 C -82.335313 -27.575156 -80.475938 -27.079063 -79.319688 -26.688438 C -78.159531 -26.301719 -76.304063 -25.543906 -75.143906 -25.000938 C -73.987656 -24.457969 -72.128281 -23.457969 -70.972031 -22.770469 C -69.811875 -22.082969 -67.956406 -20.864219 -66.79625 -20.047813 C -65.64 -19.231406 -63.780625 -17.817344 -62.624375 -16.891563 C -61.464219 -15.961875 -59.60875 -14.38375 -58.448594 -13.368125 C -57.292344 -12.348594 -55.432969 -10.641563 -54.276719 -9.555625 C -53.116563 -8.469688 -51.257188 -6.668906 -50.100938 -5.536094 C -48.940781 -4.407188 -47.085313 -2.551719 -45.925156 -1.399375 C -44.768906 -0.247031 -42.909531 1.620156 -41.753281 2.768594 C -40.593125 3.917031 -38.737656 5.756875 -37.5775 6.877969 C -36.42125 7.999062 -34.561875 9.7725 -33.405625 10.838906 C -32.245469 11.905312 -30.39 13.573281 -29.229844 14.565469 C -28.073594 15.55375 -26.214219 17.081094 -25.057969 17.975625 C -23.897813 18.86625 -22.042344 20.221719 -20.882188 20.995156 C -19.725938 21.7725 -17.866563 22.920937 -16.710313 23.561562 C -15.550156 24.202187 -13.694688 25.124062 -12.534531 25.620156 C -11.378281 26.112344 -9.518906 26.784219 -8.362656 27.120156 C -7.2025 27.456094 -5.347031 27.86625 -4.186875 28.038125 C -3.030625 28.206094 -1.17125 28.346719 -0.0110938 28.346719 C 1.145156 28.346719 3.004531 28.21 4.160781 28.042031 C 5.320937 27.870156 7.176406 27.463906 8.336562 27.127969 C 9.492812 26.795937 11.352187 26.124062 12.508437 25.631875 C 13.668594 25.135781 15.524062 24.217812 16.684219 23.577187 C 17.840469 22.936562 19.699844 21.788125 20.856094 21.010781 C 22.01625 20.237344 23.871719 18.885781 25.031875 17.995156 C 26.188125 17.100625 28.0475 15.577187 29.20375 14.585 C 30.363906 13.596719 32.219375 11.92875 33.379531 10.862344 C 34.535781 9.795937 36.395156 8.0225 37.551406 6.901406 C 38.711562 5.784219 40.567031 3.944375 41.727187 2.795937 C 42.883437 1.6475 44.742812 -0.219688 45.899062 -1.372031 C 47.059219 -2.524375 48.918594 -4.379844 50.074844 -5.512656 C 51.235 -6.645469 53.090469 -8.44625 54.250625 -9.532188 C 55.406875 -10.618125 57.26625 -12.325156 58.4225 -13.344688 C 59.582656 -14.364219 61.438125 -15.942344 62.598281 -16.868125 C 63.754531 -17.797813 65.613906 -19.211875 66.770156 -20.028281 C 67.930312 -20.844688 69.785781 -22.067344 70.945937 -22.754844 C 72.102187 -23.442344 73.961562 -24.442344 75.117812 -24.989219 C 76.277969 -25.532188 78.133437 -26.29 79.293594 -26.680625 C 80.449844 -27.07125 82.309219 -27.57125 83.465469 -27.797813 C 84.625625 -28.024375 86.481094 -28.254844 87.64125 -28.309531 C 88.7975 -28.368125 90.656875 -28.32125 91.813125 -28.211875 C 92.973281 -28.098594 94.82875 -27.782188 95.988906 -27.500938 C 97.145156 -27.223594 99.004531 -26.637656 100.164687 -26.19625 C 101.320937 -25.754844 103.180312 -24.918906 104.336562 -24.325156 C 105.496719 -23.731406 107.352187 -22.657188 108.512344 -21.926719 C 109.668594 -21.19625 111.527969 -19.907188 112.684219 -19.051719 C 113.844375 -18.200156 115.699844 -16.7275 116.86 -15.766563 C 118.01625 -14.809531 119.875625 -13.184531 121.031875 -12.141563 C 122.192031 -11.098594 124.0475 -9.356406 125.207656 -8.250938 C 126.363906 -7.149375 128.223281 -5.325156 129.379531 -4.184531 C 130.539687 -3.043906 133.555312 -0.0282813 133.555312 -0.0282813 " transform="matrix(1,0,0,-1,134.39,91.71)"/>
<path style="fill:none;stroke-width:0.79701;stroke-linecap:butt;stroke-linejoin:miter;stroke:rgb(0%,69.999695%,0%);stroke-opacity:1;stroke-dasharray:2.98883,1.99255,0.79701,1.99255;stroke-miterlimit:10;" d="M -34.893906 85.045937 C -34.893906 85.045937 -34.104844 78.842812 -33.804063 76.760781 C -33.499375 74.674844 -33.015 71.733437 -32.714219 70.030312 C -32.409531 68.327187 -31.925156 65.893594 -31.620469 64.475625 C -31.319688 63.061562 -30.835313 61.014687 -30.530625 59.819375 C -30.229844 58.627969 -29.745469 56.889687 -29.440781 55.874062 C -29.14 54.854531 -28.655625 53.362344 -28.350938 52.483437 C -28.050156 51.608437 -27.561875 50.315469 -27.261094 49.55375 C -26.956406 48.792031 -26.472031 47.659219 -26.17125 46.995156 C -25.866563 46.327187 -25.382188 45.338906 -25.081406 44.752969 C -24.776719 44.167031 -24.292344 43.292031 -23.987656 42.776406 C -23.686875 42.256875 -23.2025 41.479531 -22.897813 41.0225 C -22.597031 40.561562 -22.112656 39.870156 -21.807969 39.46 C -21.507188 39.05375 -21.018906 38.436562 -20.718125 38.073281 C -20.417344 37.706094 -19.929063 37.155312 -19.628281 36.831094 C -19.323594 36.502969 -18.839219 36.006875 -18.538438 35.713906 C -18.23375 35.420937 -17.749375 34.983437 -17.448594 34.721719 C -17.143906 34.456094 -16.659531 34.061562 -16.354844 33.823281 C -16.054063 33.588906 -15.569688 33.233437 -15.265 33.0225 C -14.964219 32.811562 -14.479844 32.495156 -14.175156 32.30375 C -13.874375 32.11625 -13.386094 31.831094 -13.085313 31.659219 C -12.780625 31.49125 -12.29625 31.237344 -11.995469 31.088906 C -11.690781 30.936562 -11.206406 30.713906 -10.905625 30.581094 C -10.600938 30.448281 -10.116563 30.252969 -9.815781 30.135781 C -9.511094 30.018594 -9.026719 29.846719 -8.722031 29.745156 C -8.42125 29.643594 -7.936875 29.495156 -7.632188 29.405312 C -7.331406 29.319375 -6.847031 29.190469 -6.542344 29.11625 C -6.241563 29.045937 -5.753281 28.936562 -5.4525 28.877969 C -5.147813 28.815469 -4.663438 28.733437 -4.362656 28.686562 C -4.057969 28.639687 -3.573594 28.573281 -3.272813 28.538125 C -2.968125 28.502969 -2.48375 28.456094 -2.179063 28.432656 C -1.878281 28.409219 -1.393906 28.377969 -1.089219 28.36625 C -0.788438 28.354531 -0.304063 28.346719 0.000625 28.346719 C 0.301406 28.346719 0.789687 28.354531 1.090469 28.36625 C 1.39125 28.377969 1.879531 28.409219 2.180312 28.432656 C 2.485 28.456094 2.969375 28.502969 3.270156 28.538125 C 3.574844 28.573281 4.059219 28.639687 4.36 28.686562 C 4.664687 28.733437 5.149062 28.815469 5.45375 28.877969 C 5.754531 28.936562 6.238906 29.045937 6.543594 29.11625 C 6.844375 29.190469 7.32875 29.319375 7.633437 29.405312 C 7.934219 29.495156 8.4225 29.643594 8.723281 29.745156 C 9.024062 29.846719 9.512344 30.018594 9.813125 30.135781 C 10.117812 30.252969 10.602187 30.448281 10.902969 30.581094 C 11.207656 30.713906 11.692031 30.936562 11.992812 31.088906 C 12.2975 31.237344 12.781875 31.49125 13.086562 31.659219 C 13.387344 31.831094 13.871719 32.11625 14.176406 32.30375 C 14.477187 32.495156 14.961562 32.811562 15.26625 33.0225 C 15.567031 33.233437 16.055312 33.588906 16.356094 33.823281 C 16.660781 34.061562 17.145156 34.456094 17.445937 34.721719 C 17.750625 34.983437 18.235 35.420937 18.535781 35.713906 C 18.840469 36.006875 19.324844 36.502969 19.629531 36.831094 C 19.930312 37.155312 20.414687 37.706094 20.719375 38.073281 C 21.020156 38.436562 21.504531 39.05375 21.809219 39.46 C 22.11 39.870156 22.598281 40.561562 22.899062 41.0225 C 23.199844 41.479531 23.688125 42.256875 23.988906 42.776406 C 24.293594 43.292031 24.777969 44.167031 25.07875 44.752969 C 25.383437 45.338906 25.867812 46.327187 26.168594 46.995156 C 26.473281 47.659219 26.957656 48.792031 27.262344 49.55375 C 27.563125 50.315469 28.0475 51.608437 28.352187 52.483437 C 28.652969 53.362344 29.137344 54.854531 29.442031 55.874062 C 29.742812 56.889687 30.231094 58.627969 30.531875 59.819375 C 30.832656 61.014687 31.320937 63.061562 31.621719 64.475625 C 31.926406 65.893594 32.410781 68.327187 32.711562 70.030312 C 33.01625 71.733437 33.500625 74.674844 33.801406 76.760781 C 34.106094 78.842812 34.895156 85.045937 34.895156 85.045937 " transform="matrix(1,0,0,-1,134.39,91.71)"/>
<path style="fill:none;stroke-width:0.79701;stroke-linecap:butt;stroke-linejoin:miter;stroke:rgb(0%,69.999695%,0%);stroke-opacity:1;stroke-dasharray:2.98883,1.99255,0.79701,1.99255;stroke-miterlimit:10;" d="M -123.948594 -85.04 C -123.948594 -85.04 -123.159531 -78.840781 -122.85875 -76.754844 C -122.554063 -74.672813 -122.069688 -71.731406 -121.765 -70.028281 C -121.464219 -68.325156 -120.979844 -65.891563 -120.675156 -64.473594 C -120.374375 -63.055625 -119.89 -61.012656 -119.585313 -59.817344 C -119.284531 -58.625938 -118.79625 -56.891563 -118.495469 -55.872031 C -118.194688 -54.856406 -117.706406 -53.360313 -117.405625 -52.485313 C -117.100938 -51.606406 -116.616563 -50.313438 -116.315781 -49.551719 C -116.011094 -48.79 -115.526719 -47.657188 -115.225938 -46.993125 C -114.92125 -46.325156 -114.436875 -45.336875 -114.132188 -44.750938 C -113.831406 -44.168906 -113.347031 -43.293906 -113.042344 -42.774375 C -112.741563 -42.25875 -112.257188 -41.481406 -111.9525 -41.020469 C -111.651719 -40.559531 -111.163438 -39.872031 -110.862656 -39.461875 C -110.557969 -39.051719 -110.073594 -38.438438 -109.772813 -38.07125 C -109.468125 -37.707969 -108.98375 -37.157188 -108.682969 -36.829063 C -108.378281 -36.504844 -107.893906 -36.00875 -107.593125 -35.715781 C -107.288438 -35.422813 -106.804063 -34.981406 -106.499375 -34.715781 C -106.198594 -34.454063 -105.714219 -34.059531 -105.409531 -33.825156 C -105.10875 -33.590781 -104.624375 -33.231406 -104.319688 -33.020469 C -104.018906 -32.809531 -103.530625 -32.493125 -103.229844 -32.305625 C -102.925156 -32.114219 -102.440781 -31.829063 -102.14 -31.661094 C -101.835313 -31.493125 -101.350938 -31.239219 -101.050156 -31.086875 C -100.745469 -30.938438 -100.261094 -30.711875 -99.956406 -30.579063 C -99.655625 -30.450156 -99.17125 -30.250938 -98.866563 -30.137656 C -98.565781 -30.020469 -98.081406 -29.844688 -97.776719 -29.743125 C -97.475938 -29.641563 -96.987656 -29.493125 -96.686875 -29.407188 C -96.386094 -29.32125 -95.897813 -29.192344 -95.597031 -29.118125 C -95.292344 -29.043906 -94.807969 -28.938438 -94.507188 -28.879844 C -94.2025 -28.82125 -93.718125 -28.735313 -93.417344 -28.688438 C -93.112656 -28.637656 -92.628281 -28.57125 -92.323594 -28.536094 C -92.022813 -28.500938 -91.538438 -28.454063 -91.23375 -28.430625 C -90.932969 -28.407188 -90.448594 -28.379844 -90.143906 -28.368125 C -89.843125 -28.356406 -89.354844 -28.348594 -89.054063 -28.348594 C -88.753281 -28.348594 -88.265 -28.356406 -87.964219 -28.368125 C -87.659531 -28.379844 -87.175156 -28.407188 -86.874375 -28.430625 C -86.569688 -28.454063 -86.085313 -28.500938 -85.784531 -28.536094 C -85.479844 -28.57125 -84.995469 -28.637656 -84.690781 -28.688438 C -84.39 -28.735313 -83.905625 -28.82125 -83.600938 -28.879844 C -83.300156 -28.938438 -82.815781 -29.043906 -82.511094 -29.118125 C -82.210313 -29.192344 -81.722031 -29.32125 -81.42125 -29.407188 C -81.116563 -29.493125 -80.632188 -29.641563 -80.331406 -29.743125 C -80.026719 -29.844688 -79.542344 -30.020469 -79.241563 -30.137656 C -78.936875 -30.250938 -78.4525 -30.450156 -78.147813 -30.579063 C -77.847031 -30.711875 -77.362656 -30.938438 -77.057969 -31.086875 C -76.757188 -31.239219 -76.272813 -31.493125 -75.968125 -31.661094 C -75.667344 -31.829063 -75.179063 -32.114219 -74.878281 -32.305625 C -74.5775 -32.493125 -74.089219 -32.809531 -73.788438 -33.020469 C -73.48375 -33.231406 -72.999375 -33.590781 -72.698594 -33.825156 C -72.393906 -34.059531 -71.909531 -34.454063 -71.60875 -34.715781 C -71.304063 -34.981406 -70.819688 -35.422813 -70.515 -35.715781 C -70.214219 -36.00875 -69.729844 -36.500938 -69.425156 -36.829063 C -69.124375 -37.157188 -68.64 -37.707969 -68.335313 -38.075156 C -68.034531 -38.438438 -67.54625 -39.051719 -67.245469 -39.461875 C -66.944688 -39.868125 -66.456406 -40.559531 -66.155625 -41.020469 C -65.850938 -41.481406 -65.366563 -42.25875 -65.065781 -42.774375 C -64.761094 -43.293906 -64.276719 -44.165 -63.975938 -44.750938 C -63.67125 -45.336875 -63.186875 -46.329063 -62.882188 -46.993125 C -62.581406 -47.661094 -62.097031 -48.79 -61.792344 -49.551719 C -61.491563 -50.313438 -61.007188 -51.610313 -60.7025 -52.485313 C -60.401719 -53.364219 -59.913438 -54.856406 -59.612656 -55.875938 C -59.307969 -56.891563 -58.823594 -58.625938 -58.522813 -59.82125 C -58.218125 -61.012656 -57.73375 -63.059531 -57.432969 -64.4775 C -57.128281 -65.891563 -56.643906 -68.325156 -56.339219 -70.032188 C -56.038438 -71.735313 -55.554063 -74.676719 -55.249375 -76.75875 C -54.948594 -78.844688 -54.159531 -85.047813 -54.159531 -85.047813 " transform="matrix(1,0,0,-1,134.39,91.71)"/>
<path style="fill:none;stroke-width:0.79701;stroke-linecap:butt;stroke-linejoin:miter;stroke:rgb(0%,69.999695%,0%);stroke-opacity:1;stroke-dasharray:2.98883,1.99255,0.79701,1.99255;stroke-miterlimit:10;" d="M 54.160781 -85.047813 C 54.160781 -85.047813 54.949844 -78.844688 55.250625 -76.75875 C 55.551406 -74.676719 56.039687 -71.735313 56.340469 -70.032188 C 56.645156 -68.325156 57.129531 -65.891563 57.430312 -64.4775 C 57.735 -63.059531 58.219375 -61.012656 58.520156 -59.82125 C 58.824844 -58.625938 59.309219 -56.891563 59.613906 -55.875938 C 59.914687 -54.856406 60.399062 -53.364219 60.70375 -52.485313 C 61.004531 -51.610313 61.488906 -50.313438 61.793594 -49.551719 C 62.094375 -48.79 62.582656 -47.661094 62.883437 -46.993125 C 63.188125 -46.329063 63.6725 -45.336875 63.973281 -44.750938 C 64.277969 -44.165 64.762344 -43.293906 65.063125 -42.774375 C 65.367812 -42.25875 65.852187 -41.481406 66.156875 -41.020469 C 66.457656 -40.559531 66.942031 -39.868125 67.246719 -39.461875 C 67.5475 -39.051719 68.031875 -38.438438 68.336562 -38.075156 C 68.637344 -37.707969 69.121719 -37.157188 69.426406 -36.829063 C 69.727187 -36.500938 70.215469 -36.00875 70.51625 -35.715781 C 70.820937 -35.422813 71.305312 -34.981406 71.606094 -34.715781 C 71.910781 -34.454063 72.395156 -34.059531 72.695937 -33.825156 C 73.000625 -33.590781 73.485 -33.231406 73.789687 -33.020469 C 74.090469 -32.809531 74.574844 -32.493125 74.879531 -32.305625 C 75.180312 -32.114219 75.664687 -31.829063 75.969375 -31.661094 C 76.270156 -31.493125 76.758437 -31.239219 77.059219 -31.086875 C 77.36 -30.938438 77.848281 -30.711875 78.149062 -30.579063 C 78.45375 -30.450156 78.938125 -30.250938 79.238906 -30.137656 C 79.543594 -30.020469 80.027969 -29.844688 80.32875 -29.743125 C 80.633437 -29.641563 81.117812 -29.493125 81.4225 -29.407188 C 81.723281 -29.32125 82.207656 -29.192344 82.512344 -29.118125 C 82.813125 -29.043906 83.2975 -28.938438 83.602187 -28.879844 C 83.902969 -28.82125 84.39125 -28.735313 84.692031 -28.688438 C 84.996719 -28.637656 85.481094 -28.57125 85.781875 -28.536094 C 86.086562 -28.500938 86.570937 -28.454063 86.871719 -28.430625 C 87.176406 -28.407188 87.660781 -28.379844 87.961562 -28.368125 C 88.26625 -28.356406 88.750625 -28.348594 89.055312 -28.348594 C 89.356094 -28.348594 89.840469 -28.356406 90.145156 -28.368125 C 90.445937 -28.379844 90.930312 -28.407188 91.235 -28.430625 C 91.535781 -28.454063 92.024062 -28.500938 92.324844 -28.536094 C 92.629531 -28.57125 93.113906 -28.637656 93.414687 -28.688438 C 93.719375 -28.735313 94.20375 -28.82125 94.504531 -28.879844 C 94.809219 -28.938438 95.293594 -29.043906 95.598281 -29.118125 C 95.899062 -29.192344 96.383437 -29.32125 96.688125 -29.407188 C 96.988906 -29.493125 97.473281 -29.641563 97.777969 -29.743125 C 98.07875 -29.844688 98.567031 -30.020469 98.867812 -30.137656 C 99.168594 -30.250938 99.656875 -30.450156 99.957656 -30.579063 C 100.262344 -30.711875 100.746719 -30.938438 101.0475 -31.086875 C 101.352187 -31.239219 101.836562 -31.493125 102.137344 -31.661094 C 102.442031 -31.829063 102.926406 -32.114219 103.231094 -32.305625 C 103.531875 -32.493125 104.01625 -32.809531 104.320937 -33.020469 C 104.621719 -33.231406 105.106094 -33.590781 105.410781 -33.825156 C 105.711562 -34.059531 106.199844 -34.454063 106.500625 -34.715781 C 106.805312 -34.981406 107.289687 -35.422813 107.590469 -35.715781 C 107.895156 -36.00875 108.379531 -36.504844 108.680312 -36.829063 C 108.985 -37.157188 109.469375 -37.707969 109.770156 -38.07125 C 110.074844 -38.438438 110.559219 -39.051719 110.863906 -39.461875 C 111.164687 -39.872031 111.649062 -40.559531 111.95375 -41.020469 C 112.254531 -41.481406 112.738906 -42.25875 113.043594 -42.774375 C 113.344375 -43.293906 113.832656 -44.168906 114.133437 -44.750938 C 114.438125 -45.336875 114.9225 -46.325156 115.223281 -46.993125 C 115.527969 -47.657188 116.012344 -48.79 116.313125 -49.551719 C 116.617812 -50.313438 117.102187 -51.606406 117.406875 -52.485313 C 117.707656 -53.360313 118.192031 -54.856406 118.496719 -55.872031 C 118.7975 -56.891563 119.281875 -58.625938 119.586562 -59.817344 C 119.887344 -61.012656 120.375625 -63.055625 120.676406 -64.473594 C 120.977187 -65.891563 121.465469 -68.325156 121.76625 -70.028281 C 122.070937 -71.731406 122.555312 -74.672813 122.856094 -76.754844 C 123.160781 -78.840781 123.945937 -85.04 123.945937 -85.04 " transform="matrix(1,0,0,-1,134.39,91.71)"/>
<path style="fill:none;stroke-width:0.79701;stroke-linecap:butt;stroke-linejoin:miter;stroke:rgb(100%,0%,0%);stroke-opacity:1;stroke-miterlimit:10;" d="M -35.405625 -85.036094 C -35.405625 -85.036094 -34.60875 -77.622031 -34.300156 -75.129844 C -33.991563 -72.641563 -33.499375 -69.125938 -33.194688 -67.082969 C -32.886094 -65.04 -32.393906 -62.110313 -32.085313 -60.395469 C -31.780625 -58.680625 -31.288438 -56.192344 -30.979844 -54.731406 C -30.675156 -53.270469 -30.182969 -51.125938 -29.874375 -49.860313 C -29.565781 -48.598594 -29.073594 -46.735313 -28.768906 -45.629844 C -28.460313 -44.524375 -27.968125 -42.868125 -27.659531 -41.887656 C -27.354844 -40.907188 -26.862656 -39.434531 -26.554063 -38.555625 C -26.249375 -37.676719 -25.757188 -36.3525 -25.448594 -35.559531 C -25.14 -34.766563 -24.647813 -33.563438 -24.343125 -32.844688 C -24.034531 -32.122031 -23.542344 -31.024375 -23.23375 -30.360313 C -22.929063 -29.700156 -22.436875 -28.688438 -22.128281 -28.079063 C -21.823594 -27.469688 -21.331406 -26.532188 -21.022813 -25.969688 C -20.714219 -25.403281 -20.222031 -24.532188 -19.917344 -24.004844 C -19.60875 -23.4775 -19.116563 -22.657188 -18.807969 -22.161094 C -18.503281 -21.665 -18.011094 -20.899375 -17.7025 -20.430625 C -17.397813 -19.965781 -16.905625 -19.239219 -16.597031 -18.793906 C -16.288438 -18.3525 -15.79625 -17.665 -15.491563 -17.243125 C -15.182969 -16.82125 -14.690781 -16.161094 -14.382188 -15.75875 C -14.0775 -15.356406 -13.585313 -14.7275 -13.276719 -14.340781 C -12.972031 -13.954063 -12.479844 -13.348594 -12.17125 -12.9775 C -11.862656 -12.606406 -11.370469 -12.020469 -11.065781 -11.661094 C -10.757188 -11.301719 -10.265 -10.735313 -9.956406 -10.387656 C -9.651719 -10.04 -9.159531 -9.489219 -8.850938 -9.149375 C -8.54625 -8.809531 -8.054063 -8.274375 -7.745469 -7.942344 C -7.436875 -7.610313 -6.944688 -7.086875 -6.64 -6.762656 C -6.331406 -6.438438 -5.839219 -5.922813 -5.534531 -5.6025 C -5.225938 -5.282188 -4.73375 -4.778281 -4.425156 -4.461875 C -4.120469 -4.145469 -3.628281 -3.645469 -3.319688 -3.332969 C -3.011094 -3.024375 -2.518906 -2.524375 -2.214219 -2.215781 C -1.905625 -1.907188 -1.413438 -1.415 -1.10875 -1.106406 C -0.800156 -0.797813 -0.307969 -0.305625 0.000625 -0.0009375 C 0.305312 0.307656 0.7975 0.799844 1.106094 1.104531 C 1.414687 1.413125 1.906875 1.909219 2.211562 2.217812 C 2.520156 2.526406 3.012344 3.0225 3.317031 3.335 C 3.625625 3.643594 4.117812 4.1475 4.426406 4.46 C 4.731094 4.776406 5.223281 5.284219 5.531875 5.600625 C 5.840469 5.920937 6.332656 6.436562 6.637344 6.760781 C 6.945937 7.085 7.438125 7.612344 7.742812 7.940469 C 8.051406 8.2725 8.543594 8.811562 8.852187 9.151406 C 9.156875 9.487344 9.649062 10.038125 9.957656 10.385781 C 10.26625 10.737344 10.758437 11.30375 11.063125 11.663125 C 11.371719 12.018594 11.863906 12.604531 12.168594 12.975625 C 12.477187 13.346719 12.969375 13.956094 13.277969 14.338906 C 13.582656 14.725625 14.074844 15.354531 14.383437 15.756875 C 14.692031 16.159219 15.184219 16.819375 15.488906 17.24125 C 15.7975 17.659219 16.289687 18.350625 16.594375 18.795937 C 16.902969 19.237344 17.395156 19.963906 17.70375 20.42875 C 18.008437 20.8975 18.500625 21.667031 18.809219 22.159219 C 19.117812 22.655312 19.61 23.471719 19.914687 23.999062 C 20.223281 24.530312 20.715469 25.401406 21.020156 25.967812 C 21.32875 26.534219 21.820937 27.467812 22.129531 28.077187 C 22.434219 28.686562 22.926406 29.698281 23.235 30.358437 C 23.543594 31.018594 24.035781 32.120156 24.340469 32.838906 C 24.649062 33.561562 25.14125 34.764687 25.445937 35.557656 C 25.754531 36.350625 26.246719 37.674844 26.555312 38.55375 C 26.86 39.432656 27.352187 40.905312 27.660781 41.885781 C 27.965469 42.86625 28.461562 44.518594 28.76625 45.624062 C 29.074844 46.729531 29.567031 48.596719 29.871719 49.858437 C 30.180312 51.120156 30.6725 53.268594 30.981094 54.729531 C 31.285781 56.190469 31.777969 58.674844 32.086562 60.389687 C 32.39125 62.100625 32.887344 65.030312 33.192031 67.077187 C 33.500625 69.120156 33.992812 72.635781 34.2975 75.127969 C 34.606094 77.61625 35.406875 85.030312 35.406875 85.030312 " transform="matrix(1,0,0,-1,134.39,91.71)"/>
<path style="fill:none;stroke-width:0.79701;stroke-linecap:butt;stroke-linejoin:miter;stroke:rgb(100%,0%,0%);stroke-opacity:1;stroke-miterlimit:10;" d="M 53.649062 -85.04 C 53.649062 -85.04 54.445937 -77.629844 54.754531 -75.137656 C 55.059219 -72.645469 55.555312 -69.129844 55.86 -67.086875 C 56.168594 -65.04 56.660781 -62.110313 56.965469 -60.395469 C 57.274062 -58.680625 57.76625 -56.192344 58.074844 -54.731406 C 58.379531 -53.270469 58.871719 -51.125938 59.180312 -49.864219 C 59.485 -48.598594 59.981094 -46.735313 60.285781 -45.629844 C 60.594375 -44.520469 61.086562 -42.868125 61.39125 -41.887656 C 61.699844 -40.907188 62.192031 -39.434531 62.500625 -38.555625 C 62.805312 -37.676719 63.2975 -36.3525 63.606094 -35.559531 C 63.910781 -34.766563 64.406875 -33.563438 64.711562 -32.844688 C 65.020156 -32.122031 65.512344 -31.020469 65.817031 -30.360313 C 66.125625 -29.700156 66.617812 -28.688438 66.926406 -28.079063 C 67.231094 -27.469688 67.723281 -26.532188 68.031875 -25.969688 C 68.336562 -25.403281 68.82875 -24.532188 69.137344 -24.004844 C 69.445937 -23.4775 69.938125 -22.657188 70.242812 -22.161094 C 70.551406 -21.665 71.043594 -20.899375 71.352187 -20.430625 C 71.656875 -19.965781 72.149062 -19.239219 72.457656 -18.793906 C 72.762344 -18.3525 73.254531 -17.665 73.563125 -17.243125 C 73.871719 -16.82125 74.363906 -16.165 74.668594 -15.762656 C 74.977187 -15.360313 75.469375 -14.7275 75.777969 -14.340781 C 76.082656 -13.954063 76.574844 -13.348594 76.883437 -12.9775 C 77.188125 -12.606406 77.680312 -12.020469 77.988906 -11.661094 C 78.2975 -11.301719 78.789687 -10.735313 79.094375 -10.387656 C 79.402969 -10.04 79.895156 -9.489219 80.20375 -9.149375 C 80.508437 -8.809531 81.000625 -8.274375 81.309219 -7.942344 C 81.613906 -7.610313 82.106094 -7.086875 82.414687 -6.762656 C 82.723281 -6.438438 83.215469 -5.922813 83.520156 -5.6025 C 83.82875 -5.282188 84.320937 -4.778281 84.629531 -4.461875 C 84.934219 -4.145469 85.426406 -3.645469 85.735 -3.332969 C 86.039687 -3.024375 86.531875 -2.524375 86.840469 -2.215781 C 87.149062 -1.907188 87.64125 -1.415 87.945937 -1.106406 C 88.254531 -0.797813 88.746719 -0.305625 89.055312 -0.0009375 C 89.36 0.307656 89.852187 0.799844 90.160781 1.104531 C 90.465469 1.413125 90.957656 1.909219 91.26625 2.217812 C 91.574844 2.526406 92.067031 3.0225 92.371719 3.335 C 92.680312 3.643594 93.1725 4.1475 93.481094 4.46 C 93.785781 4.776406 94.277969 5.284219 94.586562 5.600625 C 94.89125 5.920937 95.383437 6.436562 95.692031 6.760781 C 96.000625 7.085 96.492812 7.612344 96.7975 7.940469 C 97.106094 8.2725 97.598281 8.811562 97.906875 9.1475 C 98.211562 9.487344 98.70375 10.038125 99.012344 10.385781 C 99.317031 10.737344 99.809219 11.299844 100.117812 11.659219 C 100.426406 12.018594 100.918594 12.604531 101.223281 12.975625 C 101.531875 13.346719 102.024062 13.956094 102.32875 14.338906 C 102.637344 14.725625 103.129531 15.354531 103.438125 15.756875 C 103.742812 16.159219 104.235 16.819375 104.543594 17.237344 C 104.852187 17.659219 105.344375 18.350625 105.649062 18.792031 C 105.957656 19.233437 106.449844 19.963906 106.754531 20.42875 C 107.063125 20.8975 107.555312 21.667031 107.863906 22.159219 C 108.168594 22.655312 108.660781 23.471719 108.969375 23.999062 C 109.277969 24.530312 109.770156 25.401406 110.074844 25.967812 C 110.383437 26.534219 110.875625 27.467812 111.180312 28.077187 C 111.488906 28.686562 111.981094 29.698281 112.289687 30.358437 C 112.594375 31.018594 113.086562 32.120156 113.395156 32.838906 C 113.70375 33.561562 114.195937 34.760781 114.500625 35.55375 C 114.809219 36.346719 115.301406 37.674844 115.606094 38.55375 C 115.914687 39.432656 116.406875 40.905312 116.715469 41.885781 C 117.020156 42.86625 117.512344 44.518594 117.820937 45.624062 C 118.129531 46.729531 118.621719 48.592812 118.926406 49.854531 C 119.235 51.120156 119.727187 53.264687 120.031875 54.725625 C 120.340469 56.186562 120.832656 58.674844 121.14125 60.389687 C 121.445937 62.100625 121.938125 65.030312 122.246719 67.077187 C 122.555312 69.120156 123.0475 72.635781 123.352187 75.127969 C 123.660781 77.61625 124.457656 85.030312 124.457656 85.030312 " transform="matrix(1,0,0,-1,134.39,91.71)"/>
<path style="fill:none;stroke-width:0.79701;stroke-linecap:butt;stroke-linejoin:miter;stroke:rgb(100%,0%,0%);stroke-opacity:1;stroke-miterlimit:10;" d="M -124.460313 -85.036094 C -124.460313 -85.036094 -123.659531 -77.622031 -123.354844 -75.13375 C -123.04625 -72.641563 -122.554063 -69.129844 -122.245469 -67.082969 C -121.940781 -65.036094 -121.448594 -62.1025 -121.14 -60.391563 C -120.835313 -58.676719 -120.343125 -56.192344 -120.034531 -54.731406 C -119.725938 -53.270469 -119.23375 -51.125938 -118.929063 -49.860313 C -118.620469 -48.598594 -118.128281 -46.731406 -117.819688 -45.625938 C -117.515 -44.520469 -117.022813 -42.868125 -116.714219 -41.88375 C -116.409531 -40.903281 -115.917344 -39.430625 -115.60875 -38.555625 C -115.300156 -37.676719 -114.807969 -36.348594 -114.503281 -35.559531 C -114.194688 -34.766563 -113.7025 -33.563438 -113.397813 -32.840781 C -113.089219 -32.122031 -112.597031 -31.020469 -112.288438 -30.360313 C -111.98375 -29.700156 -111.491563 -28.688438 -111.182969 -28.079063 C -110.874375 -27.469688 -110.382188 -26.532188 -110.0775 -25.969688 C -109.768906 -25.403281 -109.276719 -24.528281 -108.972031 -24.000938 C -108.663438 -23.473594 -108.17125 -22.657188 -107.862656 -22.161094 C -107.557969 -21.665 -107.065781 -20.899375 -106.757188 -20.430625 C -106.448594 -19.965781 -105.956406 -19.239219 -105.651719 -18.793906 C -105.343125 -18.3525 -104.850938 -17.665 -104.54625 -17.243125 C -104.237656 -16.82125 -103.745469 -16.161094 -103.436875 -15.75875 C -103.132188 -15.356406 -102.64 -14.7275 -102.331406 -14.340781 C -102.022813 -13.954063 -101.530625 -13.348594 -101.225938 -12.9775 C -100.917344 -12.606406 -100.425156 -12.020469 -100.120469 -11.661094 C -99.811875 -11.301719 -99.319688 -10.735313 -99.011094 -10.387656 C -98.706406 -10.04 -98.214219 -9.489219 -97.905625 -9.149375 C -97.597031 -8.809531 -97.104844 -8.274375 -96.800156 -7.942344 C -96.491563 -7.610313 -95.999375 -7.086875 -95.694688 -6.762656 C -95.386094 -6.438438 -94.893906 -5.922813 -94.585313 -5.6025 C -94.280625 -5.282188 -93.788438 -4.778281 -93.479844 -4.461875 C -93.17125 -4.145469 -92.679063 -3.645469 -92.374375 -3.332969 C -92.065781 -3.024375 -91.573594 -2.524375 -91.268906 -2.215781 C -90.960313 -1.907188 -90.468125 -1.415 -90.159531 -1.106406 C -89.854844 -0.797813 -89.362656 -0.305625 -89.054063 -0.0009375 C -88.745469 0.307656 -88.253281 0.799844 -87.948594 1.104531 C -87.64 1.413125 -87.147813 1.909219 -86.843125 2.217812 C -86.534531 2.526406 -86.042344 3.0225 -85.73375 3.335 C -85.429063 3.643594 -84.936875 4.1475 -84.628281 4.46 C -84.319688 4.776406 -83.8275 5.284219 -83.522813 5.604531 C -83.214219 5.920937 -82.722031 6.436562 -82.417344 6.760781 C -82.10875 7.085 -81.616563 7.612344 -81.307969 7.940469 C -81.003281 8.2725 -80.511094 8.811562 -80.2025 9.151406 C -79.897813 9.487344 -79.401719 10.038125 -79.097031 10.385781 C -78.788438 10.737344 -78.29625 11.30375 -77.991563 11.663125 C -77.682969 12.018594 -77.190781 12.604531 -76.882188 12.975625 C -76.5775 13.346719 -76.085313 13.956094 -75.776719 14.338906 C -75.472031 14.725625 -74.975938 15.354531 -74.67125 15.756875 C -74.362656 16.159219 -73.870469 16.819375 -73.565781 17.24125 C -73.257188 17.659219 -72.765 18.350625 -72.456406 18.795937 C -72.151719 19.237344 -71.659531 19.96 -71.350938 20.42875 C -71.04625 20.8975 -70.550156 21.667031 -70.245469 22.159219 C -69.936875 22.655312 -69.444688 23.471719 -69.14 23.999062 C -68.831406 24.530312 -68.339219 25.401406 -68.030625 25.967812 C -67.725938 26.534219 -67.23375 27.467812 -66.925156 28.077187 C -66.620469 28.686562 -66.124375 29.698281 -65.819688 30.358437 C -65.511094 31.018594 -65.018906 32.120156 -64.714219 32.838906 C -64.405625 33.561562 -63.913438 34.764687 -63.604844 35.557656 C -63.300156 36.350625 -62.807969 37.674844 -62.499375 38.55375 C -62.194688 39.432656 -61.7025 40.905312 -61.393906 41.885781 C -61.085313 42.86625 -60.593125 44.518594 -60.288438 45.624062 C -59.979844 46.733437 -59.487656 48.596719 -59.179063 49.858437 C -58.874375 51.124062 -58.382188 53.264687 -58.073594 54.725625 C -57.768906 56.186562 -57.276719 58.674844 -56.968125 60.389687 C -56.659531 62.104531 -56.167344 65.034219 -55.862656 67.081094 C -55.554063 69.124062 -55.061875 72.639687 -54.753281 75.131875 C -54.448594 77.620156 -53.647813 85.030312 -53.647813 85.030312 " transform="matrix(1,0,0,-1,134.39,91.71)"/>
<path style="fill:none;stroke-width:0.79701;stroke-linecap:butt;stroke-linejoin:miter;stroke:rgb(100%,0%,0%);stroke-opacity:1;stroke-dasharray:2.98883,2.98883;stroke-miterlimit:10;" d="M 9.121719 85.045937 C 9.121719 85.045937 9.918594 77.635781 10.227187 75.143594 C 10.531875 72.651406 11.024062 69.135781 11.332656 67.088906 C 11.64125 65.042031 12.133437 62.108437 12.438125 60.393594 C 12.746719 58.682656 13.238906 56.198281 13.5475 54.737344 C 13.852187 53.276406 14.344375 51.127969 14.652969 49.86625 C 14.957656 48.600625 15.449844 46.737344 15.758437 45.627969 C 16.067031 44.5225 16.559219 42.874062 16.863906 41.889687 C 17.1725 40.909219 17.664687 39.436562 17.973281 38.557656 C 18.277969 37.67875 18.770156 36.354531 19.07875 35.561562 C 19.383437 34.768594 19.875625 33.565469 20.184219 32.842812 C 20.492812 32.124062 20.985 31.0225 21.289687 30.362344 C 21.598281 29.702187 22.090469 28.690469 22.399062 28.081094 C 22.70375 27.471719 23.195937 26.538125 23.504531 25.971719 C 23.809219 25.405312 24.301406 24.534219 24.61 24.002969 C 24.918594 23.475625 25.410781 22.659219 25.715469 22.163125 C 26.024062 21.667031 26.51625 20.8975 26.824844 20.432656 C 27.129531 19.963906 27.621719 19.237344 27.930312 18.795937 C 28.235 18.354531 28.727187 17.663125 29.035781 17.24125 C 29.344375 16.819375 29.836562 16.163125 30.14125 15.760781 C 30.449844 15.358437 30.942031 14.729531 31.250625 14.342812 C 31.555312 13.956094 32.0475 13.350625 32.356094 12.979531 C 32.660781 12.604531 33.152969 12.0225 33.461562 11.663125 C 33.770156 11.30375 34.262344 10.737344 34.567031 10.389687 C 34.875625 10.042031 35.367812 9.49125 35.6725 9.151406 C 35.981094 8.811562 36.473281 8.276406 36.781875 7.944375 C 37.086562 7.612344 37.57875 7.088906 37.887344 6.764687 C 38.195937 6.436562 38.688125 5.924844 38.992812 5.604531 C 39.301406 5.284219 39.793594 4.776406 40.098281 4.463906 C 40.406875 4.1475 40.899062 3.6475 41.207656 3.335 C 41.512344 3.0225 42.004531 2.526406 42.313125 2.217812 C 42.621719 1.909219 43.113906 1.413125 43.418594 1.108437 C 43.727187 0.799844 44.219375 0.307656 44.524062 -0.0009375 C 44.832656 -0.305625 45.324844 -0.797813 45.633437 -1.106406 C 45.938125 -1.411094 46.430312 -1.907188 46.738906 -2.215781 C 47.0475 -2.524375 47.539687 -3.020469 47.844375 -3.332969 C 48.152969 -3.645469 48.645156 -4.145469 48.949844 -4.461875 C 49.258437 -4.774375 49.750625 -5.282188 50.059219 -5.6025 C 50.363906 -5.918906 50.856094 -6.434531 51.164687 -6.75875 C 51.473281 -7.086875 51.965469 -7.610313 52.270156 -7.942344 C 52.57875 -8.274375 53.070937 -8.809531 53.375625 -9.149375 C 53.684219 -9.489219 54.176406 -10.036094 54.485 -10.387656 C 54.789687 -10.735313 55.281875 -11.301719 55.590469 -11.661094 C 55.899062 -12.020469 56.39125 -12.6025 56.695937 -12.9775 C 57.004531 -13.348594 57.496719 -13.954063 57.801406 -14.340781 C 58.11 -14.7275 58.602187 -15.356406 58.910781 -15.75875 C 59.215469 -16.161094 59.707656 -16.817344 60.01625 -17.239219 C 60.324844 -17.661094 60.817031 -18.348594 61.121719 -18.793906 C 61.430312 -19.235313 61.9225 -19.961875 62.227187 -20.426719 C 62.535781 -20.895469 63.027969 -21.665 63.336562 -22.161094 C 63.64125 -22.657188 64.133437 -23.473594 64.442031 -24.000938 C 64.746719 -24.528281 65.242812 -25.399375 65.5475 -25.965781 C 65.856094 -26.528281 66.348281 -27.465781 66.652969 -28.075156 C 66.961562 -28.688438 67.45375 -29.69625 67.762344 -30.356406 C 68.067031 -31.020469 68.559219 -32.118125 68.867812 -32.836875 C 69.1725 -33.559531 69.668594 -34.762656 69.973281 -35.555625 C 70.281875 -36.348594 70.774062 -37.672813 71.07875 -38.551719 C 71.387344 -39.426719 71.879531 -40.903281 72.188125 -41.88375 C 72.492812 -42.864219 72.985 -44.512656 73.293594 -45.618125 C 73.598281 -46.723594 74.094375 -48.594688 74.399062 -49.856406 C 74.707656 -51.118125 75.199844 -53.262656 75.504531 -54.723594 C 75.813125 -56.184531 76.305312 -58.672813 76.613906 -60.387656 C 76.918594 -62.098594 77.410781 -65.028281 77.719375 -67.07125 C 78.024062 -69.118125 78.520156 -72.629844 78.824844 -75.122031 C 79.133437 -77.614219 79.930312 -85.024375 79.930312 -85.024375 " transform="matrix(1,0,0,-1,134.39,91.71)"/>
<path style="fill:none;stroke-width:0.79701;stroke-linecap:butt;stroke-linejoin:miter;stroke:rgb(100%,0%,0%);stroke-opacity:1;stroke-dasharray:2.98883,2.98883;stroke-miterlimit:10;" d="M -79.932969 85.042031 C -79.932969 85.042031 -79.136094 77.631875 -78.8275 75.139687 C -78.518906 72.6475 -78.026719 69.131875 -77.722031 67.085 C -77.413438 65.042031 -76.92125 62.108437 -76.612656 60.3975 C -76.307969 58.682656 -75.815781 56.198281 -75.507188 54.737344 C -75.2025 53.276406 -74.710313 51.127969 -74.401719 49.86625 C -74.093125 48.600625 -73.600938 46.733437 -73.29625 45.627969 C -72.987656 44.5225 -72.495469 42.874062 -72.190781 41.893594 C -71.882188 40.909219 -71.39 39.436562 -71.081406 38.557656 C -70.776719 37.67875 -70.284531 36.354531 -69.975938 35.561562 C -69.667344 34.768594 -69.175156 33.565469 -68.870469 32.842812 C -68.561875 32.124062 -68.069688 31.0225 -67.765 30.362344 C -67.456406 29.702187 -66.964219 28.690469 -66.655625 28.081094 C -66.350938 27.471719 -65.85875 26.538125 -65.550156 25.971719 C -65.241563 25.405312 -64.749375 24.534219 -64.444688 24.002969 C -64.136094 23.475625 -63.643906 22.659219 -63.339219 22.163125 C -63.030625 21.667031 -62.538438 20.8975 -62.229844 20.432656 C -61.925156 19.963906 -61.432969 19.237344 -61.124375 18.795937 C -60.815781 18.354531 -60.323594 17.663125 -60.018906 17.24125 C -59.710313 16.819375 -59.218125 16.163125 -58.913438 15.760781 C -58.604844 15.358437 -58.112656 14.729531 -57.804063 14.342812 C -57.499375 13.956094 -57.007188 13.350625 -56.698594 12.979531 C -56.39 12.604531 -55.897813 12.0225 -55.593125 11.663125 C -55.284531 11.30375 -54.792344 10.737344 -54.487656 10.389687 C -54.179063 10.038125 -53.686875 9.49125 -53.378281 9.151406 C -53.073594 8.811562 -52.581406 8.276406 -52.272813 7.944375 C -51.964219 7.612344 -51.472031 7.088906 -51.167344 6.760781 C -50.85875 6.436562 -50.366563 5.920937 -50.061875 5.604531 C -49.753281 5.284219 -49.261094 4.776406 -48.9525 4.463906 C -48.647813 4.1475 -48.155625 3.6475 -47.847031 3.335 C -47.538438 3.0225 -47.04625 2.526406 -46.741563 2.217812 C -46.432969 1.909219 -45.940781 1.413125 -45.636094 1.108437 C -45.3275 0.799844 -44.835313 0.307656 -44.526719 -0.0009375 C -44.222031 -0.305625 -43.729844 -0.797813 -43.42125 -1.106406 C -43.112656 -1.411094 -42.620469 -1.907188 -42.315781 -2.215781 C -42.007188 -2.524375 -41.515 -3.020469 -41.210313 -3.332969 C -40.901719 -3.645469 -40.409531 -4.145469 -40.100938 -4.461875 C -39.79625 -4.774375 -39.304063 -5.282188 -38.995469 -5.6025 C -38.690781 -5.922813 -38.194688 -6.434531 -37.89 -6.75875 C -37.581406 -7.082969 -37.089219 -7.610313 -36.784531 -7.942344 C -36.475938 -8.274375 -35.98375 -8.809531 -35.675156 -9.149375 C -35.370469 -9.489219 -34.878281 -10.036094 -34.569688 -10.387656 C -34.265 -10.735313 -33.768906 -11.301719 -33.464219 -11.661094 C -33.155625 -12.020469 -32.663438 -12.6025 -32.35875 -12.9775 C -32.050156 -13.348594 -31.557969 -13.954063 -31.249375 -14.340781 C -30.944688 -14.7275 -30.4525 -15.356406 -30.143906 -15.75875 C -29.839219 -16.161094 -29.343125 -16.817344 -29.038438 -17.239219 C -28.729844 -17.661094 -28.237656 -18.348594 -27.932969 -18.793906 C -27.624375 -19.235313 -27.132188 -19.961875 -26.823594 -20.426719 C -26.518906 -20.895469 -26.026719 -21.665 -25.718125 -22.161094 C -25.413438 -22.657188 -24.917344 -23.469688 -24.612656 -24.000938 C -24.304063 -24.528281 -23.811875 -25.399375 -23.507188 -25.965781 C -23.198594 -26.532188 -22.706406 -27.465781 -22.397813 -28.075156 C -22.093125 -28.684531 -21.600938 -29.69625 -21.292344 -30.356406 C -20.987656 -31.020469 -20.495469 -32.118125 -20.186875 -32.836875 C -19.878281 -33.559531 -19.386094 -34.762656 -19.081406 -35.555625 C -18.772813 -36.348594 -18.280625 -37.672813 -17.972031 -38.551719 C -17.667344 -39.426719 -17.175156 -40.899375 -16.866563 -41.88375 C -16.561875 -42.864219 -16.069688 -44.516563 -15.761094 -45.622031 C -15.4525 -46.7275 -14.960313 -48.594688 -14.655625 -49.856406 C -14.347031 -51.118125 -13.854844 -53.262656 -13.54625 -54.723594 C -13.241563 -56.184531 -12.749375 -58.672813 -12.440781 -60.38375 C -12.136094 -62.098594 -11.643906 -65.028281 -11.335313 -67.075156 C -11.026719 -69.118125 -10.534531 -72.63375 -10.229844 -75.122031 C -9.92125 -77.614219 -9.120469 -85.024375 -9.120469 -85.024375 " transform="matrix(1,0,0,-1,134.39,91.71)"/>
<path style="fill:none;stroke-width:0.79701;stroke-linecap:butt;stroke-linejoin:miter;stroke:rgb(100%,0%,0%);stroke-opacity:1;stroke-dasharray:2.98883,2.98883;stroke-miterlimit:10;" d="M -133.581406 -0.0009375 C -133.581406 -0.0009375 -133.179063 -0.399375 -133.026719 -0.551719 C -132.874375 -0.707969 -132.628281 -0.954063 -132.475938 -1.106406 C -132.319688 -1.262656 -132.073594 -1.50875 -131.92125 -1.661094 C -131.768906 -1.817344 -131.522813 -2.063438 -131.366563 -2.215781 C -131.214219 -2.372031 -130.968125 -2.618125 -130.815781 -2.774375 C -130.659531 -2.930625 -130.413438 -3.176719 -130.261094 -3.332969 C -130.10875 -3.489219 -129.862656 -3.739219 -129.706406 -3.895469 C -129.554063 -4.051719 -129.307969 -4.305625 -129.155625 -4.461875 C -129.003281 -4.618125 -128.757188 -4.872031 -128.600938 -5.032188 C -128.448594 -5.188438 -128.2025 -5.442344 -128.050156 -5.6025 C -127.893906 -5.762656 -127.647813 -6.020469 -127.495469 -6.180625 C -127.343125 -6.340781 -127.097031 -6.598594 -126.940781 -6.762656 C -126.788438 -6.926719 -126.542344 -7.184531 -126.39 -7.348594 C -126.23375 -7.512656 -125.987656 -7.778281 -125.835313 -7.942344 C -125.682969 -8.110313 -125.436875 -8.375938 -125.280625 -8.543906 C -125.128281 -8.711875 -124.882188 -8.981406 -124.729844 -9.149375 C -124.5775 -9.32125 -124.331406 -9.594688 -124.175156 -9.766563 C -124.022813 -9.938438 -123.776719 -10.211875 -123.624375 -10.387656 C -123.468125 -10.563438 -123.222031 -10.844688 -123.069688 -11.020469 C -122.917344 -11.19625 -122.67125 -11.481406 -122.515 -11.661094 C -122.362656 -11.840781 -122.116563 -12.13375 -121.964219 -12.313438 C -121.807969 -12.497031 -121.561875 -12.79 -121.409531 -12.9775 C -121.257188 -13.165 -121.011094 -13.465781 -120.854844 -13.653281 C -120.7025 -13.840781 -120.456406 -14.149375 -120.304063 -14.340781 C -120.151719 -14.532188 -119.905625 -14.848594 -119.749375 -15.043906 C -119.597031 -15.239219 -119.350938 -15.559531 -119.198594 -15.75875 C -119.042344 -15.961875 -118.79625 -16.286094 -118.643906 -16.493125 C -118.491563 -16.700156 -118.245469 -17.032188 -118.089219 -17.243125 C -117.936875 -17.454063 -117.690781 -17.793906 -117.538438 -18.00875 C -117.382188 -18.223594 -117.136094 -18.575156 -116.98375 -18.793906 C -116.831406 -19.016563 -116.585313 -19.375938 -116.429063 -19.6025 C -116.276719 -19.829063 -116.030625 -20.19625 -115.878281 -20.430625 C -115.725938 -20.665 -115.479844 -21.043906 -115.323594 -21.282188 C -115.17125 -21.524375 -114.925156 -21.915 -114.772813 -22.161094 C -114.616563 -22.411094 -114.370469 -22.813438 -114.218125 -23.067344 C -114.065781 -23.325156 -113.819688 -23.739219 -113.663438 -24.004844 C -113.511094 -24.266563 -113.265 -24.69625 -113.112656 -24.969688 C -112.956406 -25.239219 -112.710313 -25.684531 -112.557969 -25.969688 C -112.405625 -26.250938 -112.159531 -26.711875 -112.007188 -27.004844 C -111.850938 -27.297813 -111.604844 -27.774375 -111.4525 -28.079063 C -111.300156 -28.38375 -111.054063 -28.88375 -110.897813 -29.200156 C -110.745469 -29.516563 -110.499375 -30.032188 -110.347031 -30.360313 C -110.190781 -30.692344 -109.944688 -31.231406 -109.792344 -31.575156 C -109.64 -31.918906 -109.393906 -32.485313 -109.237656 -32.844688 C -109.085313 -33.204063 -108.839219 -33.793906 -108.686875 -34.168906 C -108.530625 -34.543906 -108.284531 -35.165 -108.132188 -35.559531 C -107.979844 -35.954063 -107.73375 -36.6025 -107.581406 -37.016563 C -107.425156 -37.434531 -107.179063 -38.118125 -107.026719 -38.555625 C -106.874375 -38.993125 -106.628281 -39.711875 -106.472031 -40.176719 C -106.319688 -40.637656 -106.073594 -41.399375 -105.92125 -41.887656 C -105.765 -42.375938 -105.518906 -43.184531 -105.366563 -43.700156 C -105.214219 -44.219688 -104.968125 -45.075156 -104.811875 -45.625938 C -104.659531 -46.176719 -104.413438 -47.090781 -104.261094 -47.676719 C -104.104844 -48.266563 -103.85875 -49.235313 -103.706406 -49.864219 C -103.554063 -50.493125 -103.307969 -51.532188 -103.155625 -52.207969 C -102.999375 -52.88375 -102.753281 -54.004844 -102.600938 -54.731406 C -102.448594 -55.457969 -102.2025 -56.665 -102.04625 -57.450156 C -101.893906 -58.235313 -101.647813 -59.543906 -101.495469 -60.395469 C -101.339219 -61.247031 -101.093125 -62.665 -100.940781 -63.590781 C -100.788438 -64.520469 -100.542344 -66.067344 -100.386094 -67.082969 C -100.23375 -68.098594 -99.987656 -69.793906 -99.835313 -70.911094 C -99.679063 -72.028281 -99.432969 -73.895469 -99.280625 -75.13375 C -99.128281 -76.368125 -98.882188 -78.44625 -98.729844 -79.82125 C -98.573594 -81.19625 -98.175156 -85.04 -98.175156 -85.04 " transform="matrix(1,0,0,-1,134.39,91.71)"/>
<path style="fill:none;stroke-width:0.79701;stroke-linecap:butt;stroke-linejoin:miter;stroke:rgb(100%,0%,0%);stroke-opacity:1;stroke-dasharray:2.98883,2.98883;stroke-miterlimit:10;" d="M 98.1725 85.049844 C 98.1725 85.049844 98.574844 81.198281 98.727187 79.823281 C 98.879531 78.448281 99.125625 76.377969 99.281875 75.143594 C 99.434219 73.909219 99.680312 72.038125 99.832656 70.920937 C 99.988906 69.80375 100.235 68.104531 100.387344 67.088906 C 100.539687 66.073281 100.785781 64.526406 100.942031 63.596719 C 101.094375 62.670937 101.340469 61.249062 101.492812 60.3975 C 101.645156 59.542031 101.89125 58.24125 102.0475 57.456094 C 102.199844 56.670937 102.445937 55.463906 102.598281 54.737344 C 102.754531 54.006875 103.000625 52.889687 103.152969 52.213906 C 103.305312 51.538125 103.551406 50.499062 103.707656 49.870156 C 103.86 49.24125 104.106094 48.268594 104.258437 47.682656 C 104.414687 47.092812 104.660781 46.182656 104.813125 45.627969 C 104.965469 45.077187 105.211562 44.221719 105.363906 43.702187 C 105.520156 43.182656 105.76625 42.381875 105.918594 41.893594 C 106.070937 41.401406 106.317031 40.639687 106.473281 40.17875 C 106.625625 39.713906 106.871719 38.995156 107.024062 38.557656 C 107.180312 38.120156 107.426406 37.436562 107.57875 37.0225 C 107.731094 36.604531 107.977187 35.956094 108.133437 35.561562 C 108.285781 35.167031 108.531875 34.545937 108.684219 34.170937 C 108.840469 33.792031 109.086562 33.202187 109.238906 32.842812 C 109.39125 32.483437 109.637344 31.924844 109.789687 31.577187 C 109.945937 31.233437 110.192031 30.694375 110.344375 30.362344 C 110.496719 30.034219 110.742812 29.514687 110.899062 29.198281 C 111.051406 28.881875 111.2975 28.385781 111.449844 28.081094 C 111.606094 27.776406 111.852187 27.299844 112.004531 27.006875 C 112.156875 26.713906 112.402969 26.252969 112.559219 25.971719 C 112.711562 25.690469 112.957656 25.245156 113.11 24.971719 C 113.26625 24.698281 113.512344 24.268594 113.664687 24.002969 C 113.817031 23.74125 114.063125 23.323281 114.215469 23.069375 C 114.371719 22.815469 114.617812 22.413125 114.770156 22.163125 C 114.9225 21.917031 115.168594 21.526406 115.324844 21.284219 C 115.477187 21.045937 115.723281 20.667031 115.875625 20.432656 C 116.031875 20.198281 116.277969 19.831094 116.430312 19.604531 C 116.582656 19.377969 116.82875 19.018594 116.985 18.795937 C 117.137344 18.573281 117.383437 18.225625 117.535781 18.010781 C 117.692031 17.795937 117.938125 17.452187 118.090469 17.24125 C 118.242812 17.034219 118.488906 16.698281 118.64125 16.495156 C 118.7975 16.288125 119.043594 15.963906 119.195937 15.760781 C 119.348281 15.561562 119.594375 15.24125 119.750625 15.045937 C 119.902969 14.846719 120.149062 14.534219 120.301406 14.342812 C 120.457656 14.1475 120.70375 13.842812 120.856094 13.655312 C 121.008437 13.463906 121.254531 13.163125 121.410781 12.979531 C 121.563125 12.792031 121.809219 12.499062 121.961562 12.315469 C 122.113906 12.131875 122.363906 11.842812 122.51625 11.663125 C 122.668594 11.483437 122.914687 11.198281 123.067031 11.0225 C 123.223281 10.842812 123.469375 10.561562 123.621719 10.389687 C 123.774062 10.213906 124.020156 9.936562 124.176406 9.764687 C 124.32875 9.592812 124.574844 9.319375 124.727187 9.151406 C 124.883437 8.983437 125.129531 8.71 125.281875 8.542031 C 125.434219 8.377969 125.680312 8.108437 125.836562 7.944375 C 125.988906 7.780312 126.235 7.514687 126.387344 7.350625 C 126.539687 7.186562 126.785781 6.924844 126.942031 6.764687 C 127.094375 6.600625 127.340469 6.342812 127.492812 6.182656 C 127.649062 6.0225 127.895156 5.764687 128.0475 5.604531 C 128.199844 5.444375 128.445937 5.190469 128.602187 5.030312 C 128.754531 4.874062 129.000625 4.620156 129.152969 4.463906 C 129.309219 4.30375 129.555312 4.05375 129.707656 3.8975 C 129.86 3.74125 130.106094 3.49125 130.262344 3.335 C 130.414687 3.17875 130.660781 2.92875 130.813125 2.776406 C 130.965469 2.620156 131.211562 2.374062 131.367812 2.217812 C 131.520156 2.065469 131.76625 1.815469 131.918594 1.663125 C 132.074844 1.506875 132.320937 1.260781 132.473281 1.108437 C 132.625625 0.956094 132.871719 0.706094 133.027969 0.55375 C 133.180312 0.401406 133.57875 0.00296875 133.57875 0.00296875 " transform="matrix(1,0,0,-1,134.39,91.71)"/>
</g>
</svg>
